<svg width="56" height="224" viewBox="0 0 56 224" fill="none" xmlns="http://www.w3.org/2000/svg">
<path d="M36.6332 18.2756C35.9074 18.1595 35.1315 18.4025 34.4591 18.6471C33.4868 19.0006 32.3898 19.5761 31.8131 20.1529L30.2027 21.8559L24.8686 19.8368C24.2129 19.5636 23.457 19.7012 22.9395 20.1896L21.4587 21.5874C21.119 21.908 21.1599 22.4774 21.542 22.7462L26.2378 26.05L25.3755 26.9621C24.856 27.4819 24.3799 27.9898 24.0212 28.4838C23.8584 28.708 23.7085 28.9443 23.5885 29.1915L21.4504 28.3469C20.7906 28.0862 20.0569 28.2778 19.5645 28.7436L18.4847 29.7649C18.1588 30.0731 18.1813 30.6152 18.5316 30.8954L22.1833 33.8168L25.1047 37.4685C25.3849 37.8188 25.9269 37.8413 26.2352 37.5154L27.2565 36.4356C27.7223 35.9432 27.9139 35.2095 27.6532 34.5497L26.8086 32.4116C27.0558 32.2915 27.2921 32.1417 27.5163 31.9789C28.0103 31.6201 28.5182 31.144 29.0379 30.6246L29.9501 29.7623L33.2539 34.4581C33.5227 34.8401 34.0921 34.881 34.4127 34.5414L35.8104 33.0605C36.2988 32.5431 36.4365 31.7872 36.1633 31.1314L34.1442 25.7974L35.8472 24.187C36.4239 23.6102 36.9994 22.5133 37.353 21.5409C37.5975 20.8686 37.8406 20.0927 37.7244 19.3669C37.6308 18.7819 37.2182 18.3693 36.6332 18.2756Z" fill="#5F5F6A"/>
<path opacity="0.5" d="M36.6332 74.2756C35.9074 74.1595 35.1315 74.4025 34.4591 74.6471C33.4868 75.0006 32.3898 75.5761 31.8131 76.1529L30.2027 77.8559L24.8686 75.8368C24.2129 75.5636 23.457 75.7012 22.9395 76.1896L21.4587 77.5874C21.119 77.908 21.1599 78.4774 21.542 78.7462L26.2378 82.05L25.3755 82.9621C24.856 83.4819 24.3799 83.9898 24.0212 84.4838C23.8584 84.708 23.7085 84.9443 23.5885 85.1915L21.4504 84.3469C20.7906 84.0862 20.0569 84.2778 19.5645 84.7436L18.4847 85.7649C18.1588 86.0731 18.1813 86.6152 18.5316 86.8954L22.1833 89.8168L25.1047 93.4685C25.3849 93.8188 25.9269 93.8413 26.2352 93.5154L27.2565 92.4356C27.7223 91.9432 27.9139 91.2095 27.6532 90.5497L26.8086 88.4116C27.0558 88.2915 27.2921 88.1417 27.5163 87.9789C28.0103 87.6201 28.5182 87.144 29.0379 86.6246L29.9501 85.7623L33.2539 90.4581C33.5227 90.8401 34.0921 90.881 34.4127 90.5414L35.8104 89.0605C36.2988 88.5431 36.4365 87.7872 36.1633 87.1314L34.1442 81.7974L35.8472 80.187C36.4239 79.6102 36.9994 78.5133 37.353 77.5409C37.5975 76.8686 37.8406 76.0927 37.7244 75.3669C37.6308 74.7819 37.2182 74.3693 36.6332 74.2756Z" fill="#5F5F6A"/>
<path fill-rule="evenodd" clip-rule="evenodd" d="M36.6332 74.2756C36.8571 74.3115 37.1425 74.4005 37.3711 74.629C37.5996 74.8576 37.6886 75.143 37.7244 75.3669C37.7614 75.5976 37.7545 75.8397 37.7286 76.0676C37.6767 76.525 37.5341 77.0429 37.353 77.541C36.9994 78.5133 36.4239 79.6102 35.8472 80.187L35.8321 80.2017L34.1442 81.7974L36.1633 87.1314C36.4365 87.7872 36.2988 88.5431 35.8104 89.0605L34.4127 90.5414C34.0921 90.8811 33.5227 90.8401 33.2539 90.4581L29.9501 85.7623L29.0379 86.6246C28.5182 87.144 28.0103 87.6201 27.5163 87.9789C27.2921 88.1417 27.0558 88.2915 26.8086 88.4116L27.6532 90.5497C27.9139 91.2095 27.7223 91.9432 27.2565 92.4356L26.2352 93.5154C25.9269 93.8413 25.3849 93.8188 25.1047 93.4685L22.1833 89.8168L18.5316 86.8954C18.1813 86.6152 18.1588 86.0731 18.4847 85.7649L19.5645 84.7436C20.0569 84.2778 20.7906 84.0862 21.4504 84.3469L23.5885 85.1915C23.7085 84.9443 23.8584 84.708 24.0212 84.4838C24.3799 83.9898 24.856 83.4819 25.3755 82.9621L26.2378 82.05L21.542 78.7462C21.1599 78.4774 21.119 77.908 21.4587 77.5874L22.9395 76.1896C23.457 75.7012 24.2129 75.5636 24.8686 75.8368L30.2027 77.8559L31.7984 76.168L31.8131 76.1529C32.3898 75.5762 33.4868 75.0006 34.4591 74.6471C34.9572 74.4659 35.4751 74.3234 35.9325 74.2715C36.1604 74.2456 36.4025 74.2387 36.6332 74.2756ZM32.8804 77.207L30.9495 79.2495C30.7416 79.4694 30.422 79.5428 30.139 79.4357L24.3245 77.2347C24.3145 77.2309 24.3045 77.2269 24.2946 77.2226C24.1843 77.1754 24.0564 77.1981 23.9692 77.2805L23.1562 78.0478L27.8098 81.322C28.1781 81.5811 28.2326 82.1234 27.9233 82.4506L26.4583 84.0002L26.4437 84.0153C25.931 84.528 25.5223 84.9694 25.235 85.3652C24.9426 85.7678 24.8281 86.0535 24.8087 86.2563C24.7621 86.7452 24.2433 87.063 23.7866 86.8826L20.8993 85.7419C20.6373 85.6385 20.2992 86.1133 20.1415 86.2625L23.1854 88.6975C23.2287 88.7321 23.2679 88.7714 23.3025 88.8147L25.7376 91.8585C25.8868 91.7009 26.3616 91.3627 26.2581 91.1008L25.1175 88.2135C24.9371 87.7568 25.2549 87.238 25.7438 87.1913C25.9466 87.172 26.2323 87.0575 26.6349 86.7651C27.0307 86.4778 27.4721 86.0691 27.9848 85.5564L27.9999 85.5417L29.5495 84.0768C29.8767 83.7675 30.419 83.822 30.6781 84.1902L33.9522 88.8439L34.7196 88.0309C34.802 87.9436 34.8247 87.8158 34.7775 87.7055C34.7732 87.6956 34.7692 87.6856 34.7654 87.6756L32.5644 81.8611C32.4573 81.5781 32.5307 81.2584 32.7506 81.0506L34.7931 79.1197C35.1396 78.7686 35.6193 77.9194 35.9433 77.0283C36.0908 76.6228 36.2355 76.1864 36.2494 75.7507C35.8137 75.7646 35.3773 75.9093 34.9718 76.0567C34.0807 76.3808 33.2315 76.8605 32.8804 77.207Z" fill="#5F5F6A"/>
<path fill-rule="evenodd" clip-rule="evenodd" d="M36.6332 130.276C36.8571 130.311 37.1425 130.401 37.3711 130.629C37.5996 130.858 37.6886 131.143 37.7244 131.367C37.7614 131.598 37.7545 131.84 37.7286 132.068C37.6767 132.525 37.5341 133.043 37.353 133.541C36.9994 134.513 36.4239 135.61 35.8472 136.187L35.8321 136.202L34.1442 137.797L36.1633 143.131C36.4365 143.787 36.2988 144.543 35.8104 145.061L34.4127 146.541C34.0921 146.881 33.5227 146.84 33.2539 146.458L29.9501 141.762L29.0379 142.625C28.5182 143.144 28.0103 143.62 27.5163 143.979C27.2921 144.142 27.0558 144.292 26.8086 144.412L27.6532 146.55C27.9139 147.209 27.7223 147.943 27.2565 148.436L26.2352 149.515C25.9269 149.841 25.3849 149.819 25.1047 149.469L22.1833 145.817L18.5316 142.895C18.1813 142.615 18.1588 142.073 18.4847 141.765L19.5645 140.744C20.0569 140.278 20.7906 140.086 21.4504 140.347L23.5885 141.192C23.7085 140.944 23.8584 140.708 24.0212 140.484C24.3799 139.99 24.856 139.482 25.3755 138.962L26.2378 138.05L21.542 134.746C21.1599 134.477 21.119 133.908 21.4587 133.587L22.9395 132.19C23.457 131.701 24.2129 131.564 24.8686 131.837L30.2027 133.856L31.7984 132.168L31.8131 132.153C32.3898 131.576 33.4868 131.001 34.4591 130.647C34.9572 130.466 35.4751 130.323 35.9325 130.271C36.1604 130.246 36.4025 130.239 36.6332 130.276ZM32.8804 133.207L30.9495 135.249C30.7416 135.469 30.422 135.543 30.139 135.436L24.3245 133.235C24.3145 133.231 24.3045 133.227 24.2946 133.223C24.1843 133.175 24.0564 133.198 23.9692 133.28L23.1562 134.048L27.8098 137.322C28.1781 137.581 28.2326 138.123 27.9233 138.451L26.4583 140L26.4437 140.015C25.931 140.528 25.5223 140.969 25.235 141.365C24.9426 141.768 24.8281 142.053 24.8087 142.256C24.7621 142.745 24.2433 143.063 23.7866 142.883L20.8993 141.742C20.6373 141.638 20.2992 142.113 20.1415 142.262L23.1854 144.698C23.2287 144.732 23.2679 144.771 23.3025 144.815L25.7376 147.859C25.8868 147.701 26.3616 147.363 26.2581 147.101L25.1175 144.214C24.9371 143.757 25.2549 143.238 25.7438 143.191C25.9466 143.172 26.2323 143.057 26.6349 142.765C27.0307 142.478 27.4721 142.069 27.9848 141.556L27.9999 141.542L29.5495 140.077C29.8767 139.767 30.419 139.822 30.6781 140.19L33.9522 144.844L34.7196 144.031C34.802 143.944 34.8247 143.816 34.7775 143.705C34.7732 143.696 34.7692 143.686 34.7654 143.676L32.5644 137.861C32.4573 137.578 32.5307 137.258 32.7506 137.051L34.7931 135.12C35.1396 134.769 35.6193 133.919 35.9433 133.028C36.0908 132.623 36.2355 132.186 36.2494 131.751C35.8137 131.765 35.3773 131.909 34.9718 132.057C34.0807 132.381 33.2315 132.86 32.8804 133.207Z" fill="#5F5F6A"/>
<path fill-rule="evenodd" clip-rule="evenodd" d="M37.194 186.806C37.5125 187.124 37.5275 187.62 37.4799 188.039C37.431 188.47 37.2951 188.968 37.1178 189.456C36.7688 190.415 36.2085 191.472 35.6701 192.01L35.6601 192.02L33.8511 193.73L35.9307 199.224C36.168 199.79 36.0498 200.442 35.6283 200.889L34.2306 202.37C34.0168 202.596 33.6372 202.569 33.458 202.314L29.988 197.382L28.8634 198.445C28.3444 198.964 27.8472 199.429 27.3691 199.777C27.0851 199.983 26.791 200.16 26.4874 200.28L27.4204 202.642C27.6413 203.201 27.4816 203.834 27.0746 204.264L26.0533 205.344C25.8545 205.554 25.4803 205.538 25.2996 205.312L22.3608 201.639L18.6874 198.7C18.4615 198.519 18.446 198.145 18.6562 197.947L19.736 196.925C20.1663 196.518 20.799 196.358 21.3582 196.579L23.7198 197.512C23.8398 197.209 24.017 196.915 24.2232 196.631C24.5703 196.153 25.0357 195.655 25.5545 195.136L26.6176 194.012L21.6855 190.542C21.4308 190.363 21.4036 189.983 21.63 189.769L23.1108 188.371C23.5574 187.95 24.2102 187.832 24.7758 188.069L30.2697 190.149L31.9894 188.33C32.5279 187.791 33.5845 187.231 34.5443 186.882C35.032 186.705 35.5297 186.569 35.9603 186.52C36.3802 186.472 36.8754 186.487 37.194 186.806ZM32.7013 189.032L30.7675 191.078C30.6289 191.224 30.4158 191.273 30.2272 191.202L24.4127 189.001C24.406 188.998 24.3994 188.996 24.3928 188.993C24.1909 188.906 23.957 188.948 23.7972 189.099L22.7616 190.076L27.6657 193.526C27.9031 193.693 27.9407 194.068 27.7413 194.279L26.2667 195.839C25.7524 196.353 25.3319 196.806 25.0323 197.218C24.7295 197.635 24.5851 197.965 24.5596 198.233C24.5285 198.558 24.1826 198.77 23.8781 198.65L20.9908 197.509C20.5235 197.325 20.0473 198.007 19.7607 198.278L23.0289 200.893C23.0578 200.916 23.0839 200.942 23.107 200.971L25.7216 204.239C25.9926 203.953 26.675 203.476 26.4903 203.009L25.3497 200.122C25.2294 199.817 25.4413 199.471 25.7672 199.44C26.0352 199.415 26.3644 199.27 26.7815 198.967C27.194 198.668 27.6469 198.248 28.1612 197.733L28.1712 197.723L29.7209 196.258C29.9319 196.059 30.3063 196.097 30.4733 196.334L33.9236 201.238L34.9011 200.203C35.0519 200.043 35.0934 199.809 35.0069 199.607C35.0041 199.6 35.0014 199.594 34.9989 199.587L32.7979 193.773C32.7265 193.584 32.7755 193.371 32.9221 193.232L34.9676 191.299C35.3522 190.911 35.8486 190.019 36.178 189.114C36.3459 188.652 36.5707 188.07 36.4898 187.564C36.4836 187.525 36.4743 187.516 36.4353 187.51C35.93 187.429 35.3479 187.654 34.886 187.822C33.9803 188.151 33.089 188.648 32.7013 189.032Z" fill="#5F5F6A"/>
</svg>
