<svg width="56" height="168" viewBox="0 0 56 168" fill="none" xmlns="http://www.w3.org/2000/svg">
<path d="M21.782 34.647C20.983 34.647 20.2962 34.5025 19.7217 34.2134C19.1472 33.9242 18.704 33.5343 18.392 33.0436C18.0838 32.5491 17.9297 31.9918 17.9297 31.3717C17.9297 30.9038 18.0248 30.4891 18.215 30.1278C18.4091 29.7664 18.6754 29.4316 19.014 29.1235C19.3565 28.8153 19.7522 28.5091 20.2011 28.2048L22.2728 26.7954C22.5772 26.5976 22.8074 26.3883 22.9634 26.1677C23.1232 25.9471 23.2031 25.6884 23.2031 25.3917C23.2031 25.1406 23.0965 24.9028 22.8835 24.6784C22.6742 24.454 22.385 24.3417 22.016 24.3417C21.7687 24.3417 21.5499 24.4007 21.3597 24.5186C21.1732 24.6328 21.0268 24.783 20.9202 24.9694C20.8175 25.1558 20.7661 25.3536 20.7661 25.5629C20.7661 25.8177 20.8365 26.0764 20.9773 26.3389C21.1219 26.6014 21.3083 26.8734 21.5366 27.1549C21.7687 27.4364 22.016 27.735 22.2785 28.0507L27.7631 34.4758H25.5259L20.9716 29.2604C20.633 28.8648 20.3058 28.4749 19.99 28.0907C19.678 27.7065 19.4211 27.307 19.2195 26.8924C19.0217 26.4739 18.9227 26.0212 18.9227 25.5343C18.9227 24.9827 19.0502 24.4901 19.3051 24.0564C19.56 23.619 19.9158 23.2747 20.3723 23.0236C20.8327 22.7726 21.3711 22.647 21.9875 22.647C22.6038 22.647 23.1327 22.7687 23.574 23.0122C24.0154 23.2557 24.3559 23.579 24.5956 23.9823C24.8353 24.3855 24.9552 24.8249 24.9552 25.3004C24.9552 25.852 24.8182 26.3465 24.5442 26.784C24.2703 27.2176 23.8898 27.6114 23.4028 27.9651L21.0401 29.6941C20.652 29.9756 20.3742 30.2609 20.2068 30.55C20.0394 30.8353 19.9557 31.0788 19.9557 31.2804C19.9557 31.5885 20.0337 31.8681 20.1897 32.1192C20.3457 32.3703 20.5645 32.5719 20.846 32.7241C21.1314 32.8724 21.4643 32.9466 21.8448 32.9466C22.2633 32.9466 22.6761 32.8534 23.0832 32.667C23.4903 32.4768 23.8613 32.2067 24.1961 31.8567C24.5309 31.5067 24.7973 31.0883 24.9951 30.6014C25.193 30.1106 25.2919 29.5667 25.2919 28.9694H27.0668C27.0668 29.7074 26.985 30.3503 26.8214 30.8981C26.6578 31.4421 26.4466 31.9024 26.1879 32.279C25.9292 32.6518 25.6552 32.9504 25.3661 33.1748C25.2748 33.2395 25.1872 33.3042 25.1035 33.3688C25.0198 33.4335 24.9323 33.4982 24.841 33.5629C24.4301 33.9357 23.9488 34.2095 23.3971 34.3845C22.8492 34.5595 22.3109 34.647 21.782 34.647Z" fill="#5F5F6A"/>
<path opacity="0.5" d="M32.4343 34.647C31.6353 34.647 30.9486 34.5025 30.3741 34.2134C29.7996 33.9242 29.3563 33.5343 29.0443 33.0436C28.7361 32.5491 28.582 31.9918 28.582 31.3717C28.582 30.9038 28.6771 30.4891 28.8674 30.1278C29.0614 29.7664 29.3278 29.4316 29.6664 29.1235C30.0088 28.8153 30.4045 28.5091 30.8535 28.2048L32.9252 26.7954C33.2295 26.5976 33.4597 26.3883 33.6157 26.1677C33.7755 25.9471 33.8554 25.6884 33.8554 25.3917C33.8554 25.1406 33.7489 24.9028 33.5358 24.6784C33.3266 24.454 33.0374 24.3417 32.6683 24.3417C32.421 24.3417 32.2022 24.4007 32.012 24.5186C31.8256 24.6328 31.6791 24.783 31.5726 24.9694C31.4698 25.1558 31.4185 25.3536 31.4185 25.5629C31.4185 25.8177 31.4889 26.0764 31.6296 26.3389C31.7742 26.6014 31.9606 26.8734 32.1889 27.1549C32.421 27.4364 32.6683 27.735 32.9309 28.0507L38.4154 34.4758H36.1782L31.6239 29.2604C31.2853 28.8648 30.9581 28.4749 30.6423 28.0907C30.3303 27.7065 30.0735 27.307 29.8718 26.8924C29.674 26.4739 29.5751 26.0212 29.5751 25.5343C29.5751 24.9827 29.7025 24.4901 29.9574 24.0564C30.2124 23.619 30.5681 23.2747 31.0247 23.0236C31.4851 22.7726 32.0234 22.647 32.6398 22.647C33.2562 22.647 33.785 22.7687 34.2264 23.0122C34.6677 23.2557 35.0083 23.579 35.248 23.9823C35.4877 24.3855 35.6075 24.8249 35.6075 25.3004C35.6075 25.852 35.4705 26.3465 35.1966 26.784C34.9226 27.2176 34.5422 27.6114 34.0552 27.9651L31.6924 29.6941C31.3043 29.9756 31.0266 30.2609 30.8592 30.55C30.6918 30.8353 30.6081 31.0788 30.6081 31.2804C30.6081 31.5885 30.6861 31.8681 30.8421 32.1192C30.998 32.3703 31.2168 32.5719 31.4984 32.7241C31.7837 32.8724 32.1166 32.9466 32.4971 32.9466C32.9156 32.9466 33.3285 32.8534 33.7356 32.667C34.1427 32.4768 34.5136 32.2067 34.8485 31.8567C35.1833 31.5067 35.4496 31.0883 35.6474 30.6014C35.8453 30.1106 35.9442 29.5667 35.9442 28.9694H37.7191C37.7191 29.7074 37.6373 30.3503 37.4737 30.8981C37.3101 31.4421 37.099 31.9024 36.8402 32.279C36.5815 32.6518 36.3076 32.9504 36.0184 33.1748C35.9271 33.2395 35.8396 33.3042 35.7559 33.3688C35.6722 33.4335 35.5847 33.4982 35.4934 33.5629C35.0824 33.9357 34.6011 34.2095 34.0495 34.3845C33.5016 34.5595 32.9632 34.647 32.4343 34.647Z" fill="#5F5F6A"/>
<path fill-rule="evenodd" clip-rule="evenodd" d="M19.7214 90.2134C20.2958 90.5025 20.9825 90.647 21.7813 90.647C22.3101 90.647 22.8484 90.5595 23.3962 90.3845C23.9197 90.2185 24.3798 89.9633 24.7765 89.619L25.5246 90.4758H27.7614L26.0485 88.4689C26.095 88.4079 26.1409 88.3446 26.1865 88.279C26.4451 87.9024 26.6563 87.4421 26.8198 86.8981C26.9834 86.3503 27.0652 85.7074 27.0652 84.9694H25.2906C25.2906 85.5667 25.1917 86.1106 24.9939 86.6014C24.9362 86.7434 24.8727 86.8796 24.8033 87.0099L22.665 84.5044L23.4019 83.9651C23.8888 83.6114 24.2692 83.2176 24.5431 82.784C24.817 82.3465 24.9539 81.852 24.9539 81.3004C24.9539 80.8249 24.8341 80.3855 24.5945 79.9823C24.3548 79.579 24.0143 79.2557 23.5731 79.0122C23.1318 78.7687 22.603 78.647 21.9867 78.647C21.3705 78.647 20.8322 78.7726 20.3719 79.0236C19.9154 79.2747 19.5597 79.619 19.3049 80.0564C19.05 80.4901 18.9226 80.9827 18.9226 81.5343C18.9226 82.0212 19.0215 82.4739 19.2193 82.8924C19.4209 83.307 19.6777 83.7065 19.9896 84.0907C20.0348 84.1456 20.0802 84.2007 20.1258 84.2559C19.7077 84.5434 19.3371 84.8326 19.0139 85.1235C18.6753 85.4316 18.409 85.7664 18.215 86.1278C18.0248 86.4891 17.9297 86.9038 17.9297 87.3717C17.9297 87.9918 18.0838 88.5491 18.3919 89.0436C18.7038 89.5343 19.147 89.9242 19.7214 90.2134ZM21.2288 85.5556L21.0395 85.6941C20.6515 85.9756 20.3738 86.2609 20.2064 86.55C20.0391 86.8353 19.9554 87.0788 19.9554 87.2804C19.9554 87.5885 20.0333 87.8681 20.1893 88.1192C20.3453 88.3703 20.564 88.5719 20.8455 88.7241C21.1308 88.8724 21.4637 88.9466 21.8441 88.9466C22.2625 88.9466 22.6753 88.8534 23.0823 88.667C23.2809 88.5742 23.471 88.4623 23.6524 88.3315L21.2288 85.5556ZM21.6107 83.2454L22.2721 82.7954C22.5764 82.5976 22.8065 82.3883 22.9625 82.1677C23.1223 81.9471 23.2022 81.6884 23.2022 81.3917C23.2022 81.1406 23.0956 80.9028 22.8826 80.6784C22.6734 80.454 22.3843 80.3417 22.0153 80.3417C21.768 80.3417 21.5493 80.4007 21.3591 80.5186C21.1727 80.6328 21.0262 80.783 20.9197 80.9694C20.817 81.1558 20.7656 81.3536 20.7656 81.5629C20.7656 81.8177 20.836 82.0764 20.9768 82.3389C21.1213 82.6014 21.3077 82.8734 21.536 83.1549C21.5607 83.1849 21.5856 83.215 21.6107 83.2454Z" fill="#5F5F6A"/>
<path fill-rule="evenodd" clip-rule="evenodd" d="M30.3762 90.2134C30.9506 90.5025 31.6372 90.647 32.4361 90.647C32.9649 90.647 33.5032 90.5595 34.0509 90.3845C34.5744 90.2185 35.0346 89.9633 35.4313 89.619L36.1793 90.4758H38.4161L36.7033 88.4689C36.7497 88.4079 36.7957 88.3446 36.8412 88.279C37.0999 87.9024 37.311 87.4421 37.4746 86.8981C37.6382 86.3503 37.72 85.7074 37.72 84.9694H35.9454C35.9454 85.5667 35.8465 86.1106 35.6487 86.6014C35.591 86.7434 35.5275 86.8796 35.4581 87.0099L33.3198 84.5044L34.0566 83.9651C34.5436 83.6114 34.924 83.2176 35.1979 82.784C35.4718 82.3465 35.6087 81.852 35.6087 81.3004C35.6087 80.8249 35.4889 80.3855 35.2492 79.9823C35.0096 79.579 34.6691 79.2557 34.2278 79.0122C33.7866 78.7687 33.2578 78.647 32.6415 78.647C32.0253 78.647 31.487 78.7726 31.0267 79.0236C30.5702 79.2747 30.2145 79.619 29.9596 80.0564C29.7048 80.4901 29.5773 80.9827 29.5773 81.5343C29.5773 82.0212 29.6762 82.4739 29.8741 82.8924C30.0757 83.307 30.3324 83.7065 30.6444 84.0907C30.6896 84.1456 30.735 84.2007 30.7806 84.2559C30.3625 84.5434 29.9918 84.8326 29.6686 85.1235C29.3301 85.4316 29.0638 85.7664 28.8698 86.1278C28.6796 86.4891 28.5845 86.9038 28.5845 87.3717C28.5845 87.9918 28.7385 88.5491 29.0467 89.0436C29.3586 89.5343 29.8018 89.9242 30.3762 90.2134ZM31.8835 85.5556L31.6943 85.6941C31.3063 85.9756 31.0286 86.2609 30.8612 86.55C30.6938 86.8353 30.6101 87.0788 30.6101 87.2804C30.6101 87.5885 30.6881 87.8681 30.8441 88.1192C31.0001 88.3703 31.2188 88.5719 31.5003 88.7241C31.7856 88.8724 32.1185 88.9466 32.4989 88.9466C32.9173 88.9466 33.3301 88.8534 33.7371 88.667C33.9357 88.5742 34.1257 88.4623 34.3071 88.3315L31.8835 85.5556ZM32.2654 83.2454L32.9268 82.7954C33.2312 82.5976 33.4613 82.3883 33.6173 82.1677C33.777 81.9471 33.8569 81.6884 33.8569 81.3917C33.8569 81.1406 33.7504 80.9028 33.5374 80.6784C33.3282 80.454 33.0391 80.3417 32.6701 80.3417C32.4228 80.3417 32.2041 80.4007 32.0139 80.5186C31.8275 80.6328 31.681 80.783 31.5745 80.9694C31.4718 81.1558 31.4204 81.3536 31.4204 81.5629C31.4204 81.8177 31.4908 82.0764 31.6315 82.3389C31.7761 82.6014 31.9625 82.8734 32.1907 83.1549C32.2155 83.1849 32.2404 83.215 32.2654 83.2454Z" fill="#5F5F6A"/>
<path fill-rule="evenodd" clip-rule="evenodd" d="M19.8557 146.23C20.4129 146.512 21.0771 146.653 21.8481 146.653C22.4091 146.653 22.9778 146.55 23.5542 146.344C24.0835 146.151 24.5292 145.868 24.8911 145.495L25.7183 146.493H27.3442L25.7168 144.506C25.7379 144.48 25.7594 144.453 25.7813 144.426C26.0065 144.148 26.2087 143.762 26.3881 143.27C26.5675 142.777 26.6572 142.142 26.6572 141.363H25.3519C25.3519 141.993 25.2507 142.56 25.0484 143.064C24.9933 143.204 24.9326 143.338 24.8663 143.467L22.3177 140.354L23.1763 139.714C23.6572 139.36 24.037 138.976 24.3156 138.564C24.5942 138.152 24.7336 137.665 24.7336 137.104C24.7336 136.669 24.6191 136.266 24.39 135.896C24.161 135.522 23.8347 135.222 23.411 134.997C22.9874 134.768 22.4816 134.653 21.8939 134.653C21.3213 134.653 20.8213 134.766 20.3939 134.991C19.9702 135.213 19.64 135.524 19.4034 135.924C19.1706 136.321 19.0542 136.783 19.0542 137.31C19.0542 137.768 19.1534 138.193 19.3519 138.587C19.5503 138.98 19.8175 139.379 20.1534 139.783L20.4365 140.124C20.0082 140.423 19.6257 140.721 19.2889 141.02C18.9225 141.344 18.6343 141.697 18.4244 142.079C18.2183 142.457 18.1152 142.89 18.1152 143.379C18.1152 144.012 18.266 144.575 18.5675 145.068C18.8691 145.56 19.2984 145.947 19.8557 146.23ZM21.2737 141.132L20.8404 141.455C20.3137 141.844 19.9568 142.222 19.7698 142.589C19.5828 142.955 19.4893 143.218 19.4893 143.379C19.4893 143.745 19.5847 144.087 19.7755 144.403C19.9664 144.72 20.2355 144.976 20.5828 145.171C20.9301 145.365 21.3366 145.463 21.8023 145.463C22.245 145.463 22.6763 145.369 23.0962 145.182C23.4524 145.02 23.7797 144.798 24.0783 144.515L21.2737 141.132ZM21.4911 139.347L22.2603 138.776C22.5923 138.558 22.8576 138.325 23.0561 138.077C23.2584 137.829 23.3595 137.505 23.3595 137.104C23.3595 136.806 23.2278 136.518 22.9645 136.239C22.7049 135.961 22.3633 135.821 21.9397 135.821C21.642 135.821 21.3786 135.898 21.1496 136.05C20.9244 136.199 20.7469 136.39 20.6171 136.623C20.4912 136.852 20.4282 137.089 20.4282 137.333C20.4282 137.608 20.5026 137.886 20.6515 138.169C20.8042 138.447 20.9969 138.734 21.2297 139.027C21.3159 139.133 21.403 139.24 21.4911 139.347Z" fill="#5F5F6A"/>
<path fill-rule="evenodd" clip-rule="evenodd" d="M30.1682 146.23C30.7254 146.512 31.3896 146.653 32.1606 146.653C32.7216 146.653 33.2903 146.55 33.8667 146.344C34.396 146.151 34.8417 145.868 35.2036 145.495L36.0308 146.493H37.6567L36.0293 144.506C36.0504 144.48 36.0719 144.453 36.0938 144.426C36.319 144.148 36.5212 143.762 36.7006 143.27C36.88 142.777 36.9697 142.142 36.9697 141.363H35.6644C35.6644 141.993 35.5632 142.56 35.3609 143.064C35.3058 143.204 35.2451 143.338 35.1788 143.467L32.6302 140.354L33.4888 139.714C33.9697 139.36 34.3495 138.976 34.6281 138.564C34.9067 138.152 35.0461 137.665 35.0461 137.104C35.0461 136.669 34.9316 136.266 34.7025 135.896C34.4735 135.522 34.1472 135.222 33.7235 134.997C33.2999 134.768 32.7941 134.653 32.2064 134.653C31.6338 134.653 31.1338 134.766 30.7064 134.991C30.2827 135.213 29.9525 135.524 29.7159 135.924C29.4831 136.321 29.3667 136.783 29.3667 137.31C29.3667 137.768 29.4659 138.193 29.6644 138.587C29.8628 138.98 30.13 139.379 30.4659 139.783L30.749 140.124C30.3207 140.423 29.9382 140.721 29.6014 141.02C29.235 141.344 28.9468 141.697 28.7369 142.079C28.5308 142.457 28.4277 142.89 28.4277 143.379C28.4277 144.012 28.5785 144.575 28.88 145.068C29.1816 145.56 29.6109 145.947 30.1682 146.23ZM31.5862 141.132L31.1529 141.455C30.6262 141.844 30.2693 142.222 30.0823 142.589C29.8953 142.955 29.8018 143.218 29.8018 143.379C29.8018 143.745 29.8972 144.087 30.088 144.403C30.2789 144.72 30.548 144.976 30.8953 145.171C31.2426 145.365 31.6491 145.463 32.1148 145.463C32.5575 145.463 32.9888 145.369 33.4087 145.182C33.7649 145.02 34.0922 144.798 34.3908 144.515L31.5862 141.132ZM31.8036 139.347L32.5728 138.776C32.9048 138.558 33.1701 138.325 33.3686 138.077C33.5709 137.829 33.672 137.505 33.672 137.104C33.672 136.806 33.5403 136.518 33.277 136.239C33.0174 135.961 32.6758 135.821 32.2522 135.821C31.9545 135.821 31.6911 135.898 31.4621 136.05C31.2369 136.199 31.0594 136.39 30.9296 136.623C30.8037 136.852 30.7407 137.089 30.7407 137.333C30.7407 137.608 30.8151 137.886 30.964 138.169C31.1167 138.447 31.3094 138.734 31.5422 139.027C31.6284 139.133 31.7155 139.24 31.8036 139.347Z" fill="#5F5F6A"/>
</svg>
