<svg width="56" height="168" viewBox="0 0 56 168" fill="none" xmlns="http://www.w3.org/2000/svg">
<path d="M27.3638 26.1636C27.7153 25.8121 28.2851 25.8121 28.6366 26.1636L31.0366 28.5636C31.3881 28.9151 31.3881 29.4849 31.0366 29.8364C30.6851 30.1879 30.1153 30.1879 29.7638 29.8364L28.0002 28.0728L26.2366 29.8364C25.8851 30.1879 25.3153 30.1879 24.9638 29.8364C24.6123 29.4849 24.6123 28.9151 24.9638 28.5636L27.3638 26.1636Z" fill="#5F5F6A"/>
<path d="M27.3638 82.1636C27.7153 81.8121 28.2851 81.8121 28.6366 82.1636L31.0366 84.5636C31.3881 84.9151 31.3881 85.4849 31.0366 85.8364C30.6851 86.1879 30.1153 86.1879 29.7638 85.8364L28.0002 84.0728L26.2366 85.8364C25.8851 86.1879 25.3153 86.1879 24.9638 85.8364C24.6123 85.4849 24.6123 84.9151 24.9638 84.5636L27.3638 82.1636Z" fill="#5F5F6A"/>
<path d="M27.5757 138.376C27.8101 138.141 28.1899 138.141 28.4243 138.376L30.8243 140.776C31.0586 141.01 31.0586 141.39 30.8243 141.624C30.5899 141.859 30.2101 141.859 29.9757 141.624L28 139.649L26.0243 141.624C25.7899 141.859 25.4101 141.859 25.1757 141.624C24.9414 141.39 24.9414 141.01 25.1757 140.776L27.5757 138.376Z" fill="#5F5F6A"/>
</svg>
