<svg width="56" height="224" viewBox="0 0 56 224" fill="none" xmlns="http://www.w3.org/2000/svg">
<path d="M21.8512 22.1501C21.9043 19.849 23.7862 18 26.1 18C27.4941 18 28.7305 18.6713 29.5049 19.7064C29.8444 19.5732 30.214 19.5 30.6 19.5C32.2569 19.5 33.6 20.8431 33.6 22.5C33.6 22.603 33.5948 22.705 33.5846 22.8056C34.9172 23.3807 35.85 24.7058 35.85 26.25C35.85 27.7877 34.9244 29.1093 33.6 29.688V32.173C34.0758 32.4245 34.4 32.9244 34.4 33.5C34.4 34.3284 33.7284 35 32.9 35C32.0716 35 31.4 34.3284 31.4 33.5C31.4 32.9657 31.6794 32.4966 32.1 32.2309V30H32.0966L28.85 29.9853V35.2007C29.2983 35.46 29.6 35.9448 29.6 36.5C29.6 37.3284 28.9284 38 28.1 38C27.2716 38 26.6 37.3284 26.6 36.5C26.6 35.9448 26.9016 35.46 27.35 35.2007L27.35 29.9786L24.6 29.9662V32.2639C24.9926 32.5344 25.25 32.9872 25.25 33.5C25.25 34.3284 24.5784 35 23.75 35C22.9216 35 22.25 34.3284 22.25 33.5C22.25 32.9044 22.5971 32.39 23.1 32.1478L23.1 29.9594L23.0966 29.9594C23.059 29.9592 23.0214 29.9562 22.9843 29.9504C21.0102 29.6421 19.5 27.9356 19.5 25.875C19.5 24.231 20.4613 22.8131 21.8512 22.1501Z" fill="#5F5F6A"/>
<g opacity="0.5">
<path d="M24.6 88.2639C24.9926 88.5344 25.25 88.9872 25.25 89.5C25.25 90.3284 24.5784 91 23.75 91C22.9216 91 22.25 90.3284 22.25 89.5C22.25 88.9044 22.5971 88.39 23.1 88.1478L23.1 84.75H24.6L24.6 88.2639Z" fill="#5F5F6A"/>
<path d="M32.1 84.75V88.2309C31.6794 88.4966 31.4 88.9657 31.4 89.5C31.4 90.3284 32.0716 91 32.9 91C33.7284 91 34.4 90.3284 34.4 89.5C34.4 88.9244 34.0758 88.4245 33.6 88.173V84.75H32.1Z" fill="#5F5F6A"/>
<path d="M27.35 91.2007L27.35 84.75H28.85L28.85 91.2007C29.2983 91.46 29.6 91.9448 29.6 92.5C29.6 93.3284 28.9284 94 28.1 94C27.2716 94 26.6 93.3284 26.6 92.5C26.6 91.9448 26.9016 91.46 27.35 91.2007Z" fill="#5F5F6A"/>
</g>
<path d="M26.1 74C23.7862 74 21.9043 75.849 21.8512 78.1501C20.4613 78.8131 19.5 80.231 19.5 81.875C19.5 83.9356 21.0102 85.6421 22.9843 85.9504C23.0214 85.9562 23.059 85.9592 23.0966 85.9594L32.0966 86L32.1 86C34.1711 86 35.85 84.3211 35.85 82.25C35.85 80.7058 34.9172 79.3807 33.5846 78.8056C33.5948 78.705 33.6 78.603 33.6 78.5C33.6 76.8431 32.2569 75.5 30.6 75.5C30.214 75.5 29.8444 75.5732 29.5049 75.7064C28.7305 74.6713 27.4941 74 26.1 74Z" fill="#5F5F6A"/>
<path fill-rule="evenodd" clip-rule="evenodd" d="M26.1 130C23.7862 130 21.9043 131.849 21.8512 134.15C20.4613 134.813 19.5 136.231 19.5 137.875C19.5 139.936 21.0102 141.642 22.9843 141.95C23.0214 141.956 23.059 141.959 23.0966 141.959L23.1 141.959L23.1 144.148C22.5971 144.39 22.25 144.904 22.25 145.5C22.25 146.328 22.9216 147 23.75 147C24.5784 147 25.25 146.328 25.25 145.5C25.25 144.987 24.9926 144.534 24.6 144.264V141.966L27.35 141.979L27.35 147.201C26.9016 147.46 26.6 147.945 26.6 148.5C26.6 149.328 27.2716 150 28.1 150C28.9284 150 29.6 149.328 29.6 148.5C29.6 147.945 29.2983 147.46 28.85 147.201V141.985L32.0966 142L32.1 142V144.231C31.6794 144.497 31.4 144.966 31.4 145.5C31.4 146.328 32.0716 147 32.9 147C33.7284 147 34.4 146.328 34.4 145.5C34.4 144.924 34.0758 144.425 33.6 144.173V141.688C34.9244 141.109 35.85 139.788 35.85 138.25C35.85 136.706 34.9172 135.381 33.5846 134.806C33.5948 134.705 33.6 134.603 33.6 134.5C33.6 132.843 32.2569 131.5 30.6 131.5C30.214 131.5 29.8444 131.573 29.5049 131.706C28.7305 130.671 27.4941 130 26.1 130ZM23.35 134.25C23.35 132.731 24.5812 131.5 26.1 131.5C27.1822 131.5 28.1199 132.125 28.569 133.037C28.6679 133.238 28.8514 133.384 29.0692 133.436C29.2871 133.487 29.5166 133.439 29.695 133.304C29.9466 133.113 30.259 133 30.6 133C31.4284 133 32.1 133.672 32.1 134.5C32.1 134.692 32.0644 134.873 32.0001 135.04C31.9206 135.246 31.9359 135.477 32.042 135.67C32.1481 135.864 32.3342 136.001 32.5506 136.045C33.5774 136.253 34.35 137.162 34.35 138.25C34.35 139.492 33.3435 140.499 32.1016 140.5L32.1 140.5L23.1635 140.46C21.934 140.242 21 139.167 21 137.875C21 136.698 21.7754 135.7 22.8452 135.368C23.1893 135.261 23.4088 134.924 23.3679 134.566C23.3561 134.463 23.35 134.357 23.35 134.25Z" fill="#5F5F6A"/>
<path fill-rule="evenodd" clip-rule="evenodd" d="M32.1 197.75L32.0977 197.75L28.6 197.734V203.354C29.0415 203.547 29.35 203.987 29.35 204.5C29.35 205.19 28.7904 205.75 28.1 205.75C27.4096 205.75 26.85 205.19 26.85 204.5C26.85 203.987 27.1585 203.547 27.6 203.354L27.6 197.73L24.1 197.714V200.392C24.4983 200.601 24.77 201.019 24.77 201.5C24.77 202.19 24.2104 202.75 23.52 202.75C22.8296 202.75 22.27 202.19 22.27 201.5C22.27 200.957 22.6162 200.495 23.1 200.322L23.1 197.709L23.0977 197.709C23.0727 197.709 23.0476 197.707 23.0228 197.703C21.1686 197.414 19.75 195.811 19.75 193.875C19.75 192.276 20.7187 190.904 22.1005 190.312C22.1002 190.291 22.1 190.271 22.1 190.25C22.1 188.041 23.8909 186.25 26.1 186.25C27.4825 186.25 28.7004 186.951 29.4185 188.016C29.7767 187.846 30.1775 187.75 30.6 187.75C32.1188 187.75 33.35 188.981 33.35 190.5C33.35 190.658 33.3366 190.814 33.3107 190.965C34.647 191.458 35.6 192.742 35.6 194.25C35.6 195.836 34.5457 197.175 33.1 197.605V200.354C33.5415 200.547 33.85 200.987 33.85 201.5C33.85 202.19 33.2904 202.75 32.6 202.75C31.9096 202.75 31.35 202.19 31.35 201.5C31.35 200.987 31.6585 200.547 32.1 200.354V197.75ZM23.1 190.25C23.1 188.593 24.4431 187.25 26.1 187.25C27.2811 187.25 28.3037 187.932 28.7933 188.927C28.8592 189.061 28.9815 189.158 29.1268 189.193C29.272 189.227 29.425 189.195 29.544 189.104C29.8375 188.882 30.2026 188.75 30.6 188.75C31.5665 188.75 32.35 189.534 32.35 190.5C32.35 190.723 32.3085 190.935 32.2333 191.13C32.1803 191.267 32.1905 191.421 32.2613 191.55C32.332 191.679 32.4561 191.771 32.6004 191.8C33.7414 192.032 34.6 193.041 34.6 194.25C34.6 195.63 33.4813 196.749 32.1011 196.75H32.1L23.1415 196.71C21.784 196.48 20.75 195.298 20.75 193.875C20.75 192.585 21.5997 191.493 22.771 191.129C23.0005 191.058 23.1468 190.833 23.1195 190.595C23.1066 190.482 23.1 190.367 23.1 190.25ZM23.52 201.25C23.3819 201.25 23.27 201.362 23.27 201.5C23.27 201.638 23.3819 201.75 23.52 201.75C23.6581 201.75 23.77 201.638 23.77 201.5C23.77 201.362 23.6581 201.25 23.52 201.25ZM32.35 201.5C32.35 201.362 32.4619 201.25 32.6 201.25C32.7381 201.25 32.85 201.362 32.85 201.5C32.85 201.638 32.7381 201.75 32.6 201.75C32.4619 201.75 32.35 201.638 32.35 201.5ZM28.1 204.25C27.9619 204.25 27.85 204.362 27.85 204.5C27.85 204.638 27.9619 204.75 28.1 204.75C28.2381 204.75 28.35 204.638 28.35 204.5C28.35 204.362 28.2381 204.25 28.1 204.25Z" fill="#5F5F6A"/>
</svg>
