<svg width="56" height="168" viewBox="0 0 56 168" fill="none" xmlns="http://www.w3.org/2000/svg">
<path fill-rule="evenodd" clip-rule="evenodd" d="M30.8161 20.4569C31.116 20.1712 31.5908 20.1828 31.8764 20.4828L38.5431 27.4828C38.819 27.7724 38.819 28.2276 38.5431 28.5172L31.8764 35.5172C31.5908 35.8172 31.116 35.8288 30.8161 35.5431C30.5161 35.2574 30.5046 34.7827 30.7902 34.4828L36.25 28.75L18 28.75C17.5858 28.75 17.25 28.4142 17.25 28C17.25 27.5858 17.5858 27.25 18 27.25L36.25 27.25L30.7902 21.5172C30.5046 21.2173 30.5161 20.7426 30.8161 20.4569Z" fill="#5F5F6A"/>
<path d="M30.8161 76.4569C31.116 76.1712 31.5908 76.1828 31.8764 76.4828L38.5431 83.4828C38.819 83.7724 38.819 84.2276 38.5431 84.5172L31.8764 91.5172C31.5908 91.8172 31.116 91.8288 30.8161 91.5431C30.5161 91.2574 30.5046 90.7827 30.7902 90.4828L36.25 84.75L18 84.75C17.5858 84.75 17.25 84.4142 17.25 84C17.25 83.5858 17.5858 83.25 18 83.25L36.25 83.25L30.7902 77.5172C30.5046 77.2173 30.5161 76.7426 30.8161 76.4569Z" fill="#5F5F6A"/>
<path d="M30.9885 132.638C31.1885 132.447 31.505 132.455 31.6954 132.655L38.3621 139.655C38.546 139.848 38.546 140.152 38.3621 140.345L31.6954 147.345C31.505 147.545 31.1885 147.553 30.9885 147.362C30.7885 147.172 30.7808 146.855 30.9713 146.655L36.8333 140.5H18C17.7239 140.5 17.5 140.276 17.5 140C17.5 139.724 17.7239 139.5 18 139.5L36.8333 139.5L30.9713 133.345C30.7808 133.145 30.7885 132.828 30.9885 132.638Z" fill="#5F5F6A"/>
</svg>
