<svg width="56" height="224" viewBox="0 0 56 224" fill="none" xmlns="http://www.w3.org/2000/svg">
<path d="M29.8839 22.1161C29.3957 21.628 28.6043 21.628 28.1161 22.1161C27.628 22.6043 27.628 23.3957 28.1161 23.8839L30.9822 26.75L22 26.75C21.3096 26.75 20.75 27.3096 20.75 28C20.75 28.6904 21.3096 29.25 22 29.25L30.9822 29.25L28.1161 32.1161C27.628 32.6043 27.628 33.3957 28.1161 33.8839C28.6043 34.372 29.3957 34.372 29.8839 33.8839L34.8839 28.8839C35.372 28.3957 35.372 27.6043 34.8839 27.1161L29.8839 22.1161Z" fill="#5F5F6A"/>
<path d="M28.4697 78.4697C28.7626 78.1768 29.2374 78.1768 29.5303 78.4697L34.5303 83.4697C34.8232 83.7626 34.8232 84.2374 34.5303 84.5303L29.5303 89.5303C29.2374 89.8232 28.7626 89.8232 28.4697 89.5303C28.1768 89.2374 28.1768 88.7626 28.4697 88.4697L32.1893 84.75L22 84.75C21.5858 84.75 21.25 84.4142 21.25 84C21.25 83.5858 21.5858 83.25 22 83.25L32.1893 83.25L28.4697 79.5303C28.1768 79.2374 28.1768 78.7626 28.4697 78.4697Z" fill="#5F5F6A"/>
<path d="M28.4697 134.47C28.7626 134.177 29.2374 134.177 29.5303 134.47L34.5303 139.47C34.8232 139.763 34.8232 140.237 34.5303 140.53L29.5303 145.53C29.2374 145.823 28.7626 145.823 28.4697 145.53C28.1768 145.237 28.1768 144.763 28.4697 144.47L32.1893 140.75L22 140.75C21.5858 140.75 21.25 140.414 21.25 140C21.25 139.586 21.5858 139.25 22 139.25L32.1893 139.25L28.4697 135.53C28.1768 135.237 28.1768 134.763 28.4697 134.47Z" fill="#5F5F6A"/>
<path d="M28.6464 190.646C28.8417 190.451 29.1583 190.451 29.3536 190.646L34.3536 195.646C34.5488 195.842 34.5488 196.158 34.3536 196.354L29.3536 201.354C29.1583 201.549 28.8417 201.549 28.6464 201.354C28.4512 201.158 28.4512 200.842 28.6464 200.646L32.7929 196.5L22 196.5C21.7239 196.5 21.5 196.276 21.5 196C21.5 195.724 21.7239 195.5 22 195.5L32.7929 195.5L28.6464 191.354C28.4512 191.158 28.4512 190.842 28.6464 190.646Z" fill="#5F5F6A"/>
</svg>
