<svg width="56" height="168" viewBox="0 0 56 168" fill="none" xmlns="http://www.w3.org/2000/svg">
<path d="M25.1839 20.4569C25.4839 20.7426 25.4954 21.2173 25.2098 21.5172L19.75 27.25L38 27.25C38.4142 27.25 38.75 27.5858 38.75 28C38.75 28.4142 38.4142 28.75 38 28.75L19.75 28.75L25.2098 34.4828C25.4954 34.7827 25.4839 35.2574 25.1839 35.5431C24.884 35.8288 24.4092 35.8172 24.1236 35.5172L17.4569 28.5172C17.181 28.2276 17.181 27.7724 17.4569 27.4828L24.1236 20.4828C24.4092 20.1828 24.884 20.1712 25.1839 20.4569Z" fill="#5F5F6A"/>
<path d="M25.1839 76.4569C25.4839 76.7426 25.4954 77.2173 25.2098 77.5172L19.75 83.25L38 83.25C38.4142 83.25 38.75 83.5858 38.75 84C38.75 84.4142 38.4142 84.75 38 84.75L19.75 84.75L25.2098 90.4828C25.4954 90.7827 25.4839 91.2574 25.1839 91.5431C24.884 91.8288 24.4092 91.8172 24.1236 91.5172L17.4569 84.5172C17.181 84.2276 17.181 83.7724 17.4569 83.4828L24.1236 76.4828C24.4092 76.1828 24.884 76.1712 25.1839 76.4569Z" fill="#5F5F6A"/>
<path d="M25.0115 132.638C25.2115 132.828 25.2192 133.145 25.0287 133.345L19.1667 139.5L38 139.5C38.2761 139.5 38.5 139.724 38.5 140C38.5 140.276 38.2761 140.5 38 140.5H19.1667L25.0287 146.655C25.2192 146.855 25.2115 147.172 25.0115 147.362C24.8115 147.553 24.495 147.545 24.3046 147.345L17.6379 140.345C17.454 140.152 17.454 139.848 17.6379 139.655L24.3046 132.655C24.495 132.455 24.8115 132.447 25.0115 132.638Z" fill="#5F5F6A"/>
</svg>
