<svg width="64" height="232" viewBox="0 0 64 232" fill="none" xmlns="http://www.w3.org/2000/svg">
<path d="M30.2968 26.8885L24.8339 31.1808C24.5791 31.381 24.5791 31.7669 24.8339 31.9671L30.2968 36.2594C30.6587 36.5437 31.18 36.2296 31.0977 35.7768L30.7423 33.8222C35.7586 32.6184 37.8504 35.3163 38.6567 37.0574C38.7741 37.311 39.271 37.2619 39.296 36.9836C39.9417 29.7827 35.2141 28.7401 30.7257 29.417L31.0977 27.3711C31.18 26.9184 30.6587 26.6042 30.2968 26.8885Z" fill="#5F5F6A"/>
<path opacity="0.5" d="M30.2966 82.8885L24.8337 87.1808C24.5789 87.381 24.5789 87.767 24.8337 87.9671L30.2966 92.2594C30.6584 92.5437 31.1798 92.2296 31.0974 91.7768L30.7421 89.8223C35.7583 88.6184 37.8502 91.3164 38.6564 93.0574C38.7739 93.311 39.2708 93.2619 39.2957 92.9836C39.9415 85.7827 35.2139 84.7401 30.7254 85.4171L31.0974 83.3711C31.1798 82.9184 30.6584 82.6042 30.2966 82.8885Z" fill="#5F5F6A"/>
<path d="M29.9876 82.4948C30.7112 81.9265 31.753 82.5548 31.5892 83.4597L31.3392 84.8337C33.4165 84.6048 35.5705 84.7663 37.2074 85.8259C39.0778 87.0368 40.1271 89.3149 39.7943 93.028C39.7505 93.5147 39.3129 93.6895 39.0648 93.7165C38.8122 93.744 38.3883 93.6685 38.2025 93.2673C37.8246 92.4514 37.1567 91.4386 36.0228 90.7663C34.9748 90.145 33.474 89.7817 31.3206 90.2077L31.5892 91.6882C31.7531 92.5932 30.7112 93.2214 29.9876 92.653L24.5247 88.361C24.0152 87.9606 24.0152 87.1872 24.5247 86.7868L29.9876 82.4948ZM30.6038 83.2829L25.1429 87.5739L30.6058 91.8659L30.2513 89.9118C30.2042 89.651 30.3686 89.3985 30.6263 89.3366C33.2394 88.7096 35.1537 89.0879 36.5335 89.906C37.6538 90.5702 38.3775 91.5018 38.8392 92.3249C38.9878 89.2319 38.0306 87.5503 36.6644 86.6657C35.1585 85.6908 33.0075 85.5779 30.8001 85.9108C30.6406 85.9349 30.4789 85.8811 30.3665 85.7653C30.2541 85.6495 30.2048 85.4857 30.2337 85.3269L30.6038 83.2829Z" fill="#5F5F6A"/>
<path d="M31.8356 139.506C32.035 138.409 30.8173 137.637 29.9186 138.236L29.8327 138.299L24.3698 142.592C23.7335 143.092 23.7335 144.056 24.3698 144.556L29.8327 148.849C30.7373 149.56 32.0414 148.774 31.8356 147.642L31.612 146.409C33.5822 146.067 34.9461 146.418 35.8952 146.98C36.9712 147.618 37.611 148.584 37.9762 149.373C38.2254 149.91 38.7835 149.999 39.0915 149.966C39.3929 149.933 39.9834 149.711 40.0427 149.051C40.3807 145.281 39.3179 142.895 37.3434 141.617C35.7271 140.571 33.6484 140.373 31.6462 140.552L31.8356 139.506ZM29.988 141.283C29.9447 141.521 30.0186 141.765 30.1872 141.939C30.3558 142.113 30.5982 142.195 30.8376 142.159C33.0264 141.829 35.1004 141.952 36.528 142.876C37.6748 143.618 38.5505 144.983 38.6003 147.48C38.1363 146.839 37.5073 146.192 36.6608 145.69C35.2161 144.834 33.2331 144.453 30.5671 145.093C30.1801 145.185 29.9334 145.565 30.0046 145.957L30.2419 147.262L25.5466 143.574L30.2419 139.885L29.988 141.283Z" fill="#5F5F6A"/>
<path d="M31.5892 195.46C31.7529 194.555 30.7112 193.927 29.9876 194.495L24.5248 198.787C24.0152 199.187 24.0152 199.961 24.5248 200.361L29.9876 204.653C30.7112 205.221 31.753 204.593 31.5892 203.688L31.3216 202.208C33.4743 201.782 34.975 202.145 36.0228 202.766C37.1565 203.439 37.8236 204.452 38.2015 205.267C38.3872 205.668 38.8112 205.744 39.0638 205.717C39.3119 205.69 39.7495 205.515 39.7933 205.028C40.1262 201.315 39.0777 199.037 37.2074 197.826C35.5709 196.766 33.4171 196.604 31.3402 196.833L31.5892 195.46ZM30.6048 195.282L30.2328 197.327C30.2039 197.486 30.2542 197.65 30.3666 197.765C30.4789 197.881 30.6399 197.935 30.7992 197.911C33.0065 197.578 35.1576 197.691 36.6634 198.666C38.0297 199.55 38.9888 201.232 38.8402 204.325C38.3785 203.502 37.6533 202.57 36.5326 201.906C35.1528 201.088 33.2392 200.71 30.6263 201.337C30.3685 201.399 30.2032 201.651 30.2503 201.912L30.6048 203.866L25.1419 199.574L30.6048 195.282Z" fill="#5F5F6A"/>
</svg>
