<svg width="56" height="224" viewBox="0 0 56 224" fill="none" xmlns="http://www.w3.org/2000/svg">
<path d="M29.6755 21L29.7143 21C30.2666 21 30.7143 21.4477 30.7143 22C30.7143 22.5523 30.2666 23 29.7143 23C28.4191 23 27.4477 23.0007 26.677 23.0622C25.9039 23.1239 25.4461 23.2407 25.1392 23.4049C24.4708 23.7625 23.9184 24.3382 23.5693 25.0574C23.3979 25.4107 23.2885 25.8627 23.2307 26.6049C23.1795 27.263 23.1725 28.0815 23.1716 29.1856L23.8643 28.4929C24.2549 28.1024 24.888 28.1024 25.2785 28.4929C25.6691 28.8834 25.6691 29.5166 25.2785 29.9071L22.8785 32.3071C22.6849 32.5008 22.4202 32.6065 22.1464 32.5997C21.8726 32.5928 21.6136 32.474 21.4299 32.2709L19.2585 29.8709C18.8879 29.4614 18.9196 28.829 19.3291 28.4585C19.7386 28.0879 20.371 28.1195 20.7415 28.5291L21.1717 29.0046C21.1732 27.9875 21.1823 27.1489 21.2367 26.4498C21.3035 25.5913 21.4432 24.8577 21.77 24.1843C22.2975 23.0972 23.1438 22.2042 24.1957 21.6414C24.8667 21.2825 25.6522 21.1377 26.5179 21.0686C27.3773 21 28.4275 21 29.6755 21ZM33.8536 23.4003C34.1274 23.4072 34.3864 23.526 34.5701 23.7291L36.7415 26.1291C37.1121 26.5386 37.0805 27.171 36.6709 27.5415C36.2614 27.9121 35.629 27.8805 35.2585 27.4709L34.8283 26.9954C34.8268 28.0125 34.8177 28.8511 34.7633 29.5502C34.6965 30.4087 34.5568 31.1423 34.23 31.8157C33.7025 32.9028 32.8562 33.7958 31.8043 34.3586C31.1333 34.7175 30.3478 34.8623 29.4821 34.9314C28.6227 35 27.5725 35 26.3245 35H26.2857C25.7334 35 25.2857 34.5523 25.2857 34C25.2857 33.4477 25.7334 33 26.2857 33C27.581 33 28.5523 32.9993 29.323 32.9378C30.0961 32.8761 30.5539 32.7593 30.8608 32.5951C31.5292 32.2375 32.0816 31.6618 32.4307 30.9426C32.6021 30.5893 32.7116 30.1373 32.7693 29.3951C32.8205 28.737 32.8275 27.9185 32.8284 26.8144L32.1357 27.5071C31.7452 27.8976 31.112 27.8976 30.7215 27.5071C30.3309 27.1166 30.3309 26.4834 30.7215 26.0929L33.1215 23.6929C33.3152 23.4992 33.5798 23.3935 33.8536 23.4003Z" fill="#5F5F6A"/>
<path d="M29.6846 77.25L29.7143 77.25C30.1285 77.25 30.4643 77.5858 30.4643 78C30.4643 78.4142 30.1285 78.75 29.7143 78.75C28.4228 78.75 27.44 78.7505 26.6572 78.813C25.8724 78.8756 25.3737 78.9959 25.0213 79.1845C24.3049 79.5677 23.7158 80.183 23.3444 80.9483C23.1536 81.3416 23.0403 81.8287 22.9814 82.5856C22.9219 83.3501 22.9214 84.3241 22.9214 85.68V85.7893L24.0411 84.6697C24.334 84.3768 24.8089 84.3768 25.1018 84.6697C25.3947 84.9626 25.3947 85.4374 25.1018 85.7303L22.7017 88.1303C22.5565 88.2756 22.358 88.3549 22.1527 88.3498C21.9473 88.3446 21.7531 88.2555 21.6153 88.1032L19.4439 85.7032C19.166 85.396 19.1897 84.9217 19.4968 84.6438C19.804 84.3659 20.2783 84.3897 20.5562 84.6968L21.4214 85.6532V85.648C21.4214 84.331 21.4214 83.2987 21.486 82.4692C21.5516 81.6252 21.6875 80.9269 21.9949 80.2934C22.5001 79.2523 23.3097 78.399 24.3137 77.8619C24.9391 77.5272 25.6837 77.3859 26.5378 77.3178C27.3872 77.25 28.4291 77.25 29.6846 77.25Z" fill="#5F5F6A"/>
<path opacity="0.5" d="M33.8477 79.6503C34.0531 79.6554 34.2473 79.7445 34.3852 79.8968L36.5566 82.2968C36.8345 82.604 36.8108 83.0783 36.5036 83.3562C36.1964 83.6341 35.7222 83.6104 35.4443 83.3032L34.579 82.3469V82.352C34.579 83.669 34.579 84.7013 34.5145 85.5308C34.4488 86.3748 34.3129 87.0732 34.0055 87.7066C33.5003 88.7477 32.6907 89.601 31.6868 90.1382C31.0613 90.4728 30.3168 90.6141 29.4626 90.6823C28.6133 90.75 27.5714 90.75 26.3159 90.75H26.2861C25.8719 90.75 25.5361 90.4142 25.5361 90C25.5361 89.5858 25.8719 89.25 26.2861 89.25C27.5776 89.25 28.5604 89.2495 29.3433 89.187C30.128 89.1244 30.6267 89.0041 30.9792 88.8155C31.6955 88.4323 32.2847 87.817 32.656 87.0517C32.8469 86.6584 32.9601 86.1713 33.019 85.4145C33.0785 84.6499 33.079 83.6759 33.079 82.32V82.2107L31.9593 83.3304C31.6664 83.6232 31.1916 83.6232 30.8987 83.3304C30.6058 83.0375 30.6058 82.5626 30.8987 82.2697L33.2987 79.8697C33.4439 79.7244 33.6424 79.6451 33.8477 79.6503Z" fill="#5F5F6A"/>
<path d="M29.6846 133.25L29.7143 133.25C30.1285 133.25 30.4643 133.586 30.4643 134C30.4643 134.414 30.1285 134.75 29.7143 134.75C28.4228 134.75 27.44 134.751 26.6572 134.813C25.8724 134.876 25.3737 134.996 25.0213 135.184C24.3049 135.568 23.7158 136.183 23.3444 136.948C23.1536 137.342 23.0403 137.829 22.9814 138.586C22.9219 139.35 22.9214 140.324 22.9214 141.68V141.789L24.0411 140.67C24.334 140.377 24.8089 140.377 25.1018 140.67C25.3947 140.963 25.3947 141.437 25.1018 141.73L22.7017 144.13C22.5565 144.276 22.358 144.355 22.1527 144.35C21.9473 144.345 21.7531 144.256 21.6153 144.103L19.4439 141.703C19.166 141.396 19.1897 140.922 19.4968 140.644C19.804 140.366 20.2783 140.39 20.5562 140.697L21.4214 141.653V141.648C21.4214 140.331 21.4214 139.299 21.486 138.469C21.5516 137.625 21.6875 136.927 21.9949 136.293C22.5001 135.252 23.3097 134.399 24.3137 133.862C24.9391 133.527 25.6837 133.386 26.5378 133.318C27.3872 133.25 28.4291 133.25 29.6846 133.25ZM33.8473 135.65C34.0527 135.655 34.2469 135.744 34.3847 135.897L36.5562 138.297C36.8341 138.604 36.8103 139.078 36.5032 139.356C36.196 139.634 35.7218 139.61 35.4439 139.303L34.5786 138.347V138.352C34.5786 139.669 34.5786 140.701 34.514 141.531C34.4484 142.375 34.3125 143.073 34.0051 143.707C33.4999 144.748 32.6903 145.601 31.6863 146.138C31.0609 146.473 30.3164 146.614 29.4622 146.682C28.6129 146.75 27.571 146.75 26.3155 146.75H26.2857C25.8715 146.75 25.5357 146.414 25.5357 146C25.5357 145.586 25.8715 145.25 26.2857 145.25C27.5772 145.25 28.56 145.249 29.3429 145.187C30.1276 145.124 30.6263 145.004 30.9787 144.816C31.6951 144.432 32.2842 143.817 32.6556 143.052C32.8465 142.658 32.9597 142.171 33.0186 141.414C33.0781 140.65 33.0786 139.676 33.0786 138.32V138.211L31.9589 139.33C31.666 139.623 31.1911 139.623 30.8982 139.33C30.6054 139.037 30.6054 138.563 30.8982 138.27L33.2983 135.87C33.4435 135.724 33.642 135.645 33.8473 135.65Z" fill="#5F5F6A"/>
<path d="M29.694 189.5H29.7143C29.9904 189.5 30.2143 189.724 30.2143 190C30.2143 190.276 29.9904 190.5 29.7143 190.5C28.4266 190.5 27.4323 190.5 26.6373 190.564C25.841 190.627 25.3013 190.751 24.9033 190.964C24.139 191.373 23.5132 192.028 23.1195 192.839C22.9092 193.272 22.7922 193.795 22.7322 194.566C22.6718 195.343 22.6714 196.328 22.6714 197.68V198.393L24.2179 196.846C24.4131 196.651 24.7297 196.651 24.925 196.846C25.1202 197.042 25.1202 197.358 24.925 197.554L22.525 199.954C22.4281 200.05 22.2958 200.103 22.1589 200.1C22.022 200.096 21.8925 200.037 21.8006 199.935L19.6292 197.535C19.444 197.331 19.4598 197.014 19.6645 196.829C19.8693 196.644 20.1855 196.66 20.3708 196.865L21.6714 198.302V197.658C21.6714 196.333 21.6714 195.308 21.7352 194.489C21.7998 193.659 21.9319 192.996 22.2198 192.403C22.7027 191.407 23.4756 190.594 24.4316 190.082C25.0115 189.772 25.7151 189.634 26.5577 189.567C27.3971 189.5 28.4307 189.5 29.694 189.5ZM33.8411 191.9C33.978 191.904 34.1075 191.963 34.1994 192.065L36.3708 194.465C36.556 194.669 36.5402 194.986 36.3355 195.171C36.1307 195.356 35.8145 195.34 35.6292 195.135L34.3286 193.698V194.342C34.3286 195.667 34.3286 196.692 34.2648 197.511C34.2003 198.341 34.0681 199.004 33.7802 199.597C33.2973 200.593 32.5245 201.406 31.5684 201.918C30.9885 202.228 30.2849 202.366 29.4423 202.433C28.603 202.5 27.5693 202.5 26.306 202.5H26.2857C26.0096 202.5 25.7857 202.276 25.7857 202C25.7857 201.724 26.0096 201.5 26.2857 201.5C27.5734 201.5 28.5677 201.5 29.3627 201.436C30.159 201.373 30.6987 201.249 31.0967 201.036C31.861 200.627 32.4868 199.972 32.8805 199.161C33.0908 198.728 33.2078 198.205 33.2678 197.434C33.3282 196.657 33.3286 195.672 33.3286 194.32V193.607L31.7821 195.154C31.5869 195.349 31.2703 195.349 31.075 195.154C30.8798 194.958 30.8798 194.642 31.075 194.446L33.475 192.046C33.5719 191.95 33.7042 191.897 33.8411 191.9Z" fill="#5F5F6A"/>
</svg>
