<svg width="56" height="224" viewBox="0 0 56 224" fill="none" xmlns="http://www.w3.org/2000/svg">
<path d="M28 20.75C27.3096 20.75 26.75 21.3096 26.75 22V30.9822L23.8839 28.1161C23.3957 27.628 22.6043 27.628 22.1161 28.1161C21.628 28.6043 21.628 29.3957 22.1161 29.8839L27.1161 34.8839C27.6043 35.372 28.3957 35.372 28.8839 34.8839L33.8839 29.8839C34.372 29.3957 34.372 28.6043 33.8839 28.1161C33.3957 27.628 32.6043 27.628 32.1161 28.1161L29.25 30.9822V22C29.25 21.3096 28.6904 20.75 28 20.75Z" fill="#5F5F6A"/>
<path d="M28 77.25C28.4142 77.25 28.75 77.5858 28.75 78V88.1893L32.4697 84.4697C32.7626 84.1768 33.2374 84.1768 33.5303 84.4697C33.8232 84.7626 33.8232 85.2374 33.5303 85.5303L28.5303 90.5303C28.2374 90.8232 27.7626 90.8232 27.4697 90.5303L22.4697 85.5303C22.1768 85.2374 22.1768 84.7626 22.4697 84.4697C22.7626 84.1768 23.2374 84.1768 23.5303 84.4697L27.25 88.1893V78C27.25 77.5858 27.5858 77.25 28 77.25Z" fill="#5F5F6A"/>
<path d="M28 133.25C28.4142 133.25 28.75 133.586 28.75 134V144.189L32.4697 140.47C32.7626 140.177 33.2374 140.177 33.5303 140.47C33.8232 140.763 33.8232 141.237 33.5303 141.53L28.5303 146.53C28.2374 146.823 27.7626 146.823 27.4697 146.53L22.4697 141.53C22.1768 141.237 22.1768 140.763 22.4697 140.47C22.7626 140.177 23.2374 140.177 23.5303 140.47L27.25 144.189V134C27.25 133.586 27.5858 133.25 28 133.25Z" fill="#5F5F6A"/>
<path d="M28 189.5C28.2761 189.5 28.5 189.724 28.5 190V200.793L32.6464 196.646C32.8417 196.451 33.1583 196.451 33.3536 196.646C33.5488 196.842 33.5488 197.158 33.3536 197.354L28.3536 202.354C28.1583 202.549 27.8417 202.549 27.6464 202.354L22.6464 197.354C22.4512 197.158 22.4512 196.842 22.6464 196.646C22.8417 196.451 23.1583 196.451 23.3536 196.646L27.5 200.793V190C27.5 189.724 27.7239 189.5 28 189.5Z" fill="#5F5F6A"/>
</svg>
