<svg width="56" height="168" viewBox="0 0 56 168" fill="none" xmlns="http://www.w3.org/2000/svg">
<path d="M27.8959 34C27.8959 34.4142 27.5601 34.75 27.1459 34.75C23.3545 34.75 20.25 31.7448 20.25 28C20.25 24.2552 23.3545 21.25 27.1459 21.25C30.2505 21.25 32.8946 23.2651 33.7506 26.0513L34.3544 25.0302C34.5653 24.6737 35.0252 24.5556 35.3818 24.7664C35.7383 24.9773 35.8564 25.4372 35.6456 25.7938L34.0159 28.5494C33.8081 28.9007 33.3576 29.0214 33.0021 28.821L30.1794 27.23C29.8185 27.0266 29.6909 26.5692 29.8943 26.2084C30.0977 25.8476 30.5551 25.7199 30.9159 25.9233L32.3883 26.7532C31.8145 24.4651 29.697 22.75 27.1459 22.75C24.1487 22.75 21.75 25.1174 21.75 28C21.75 30.8826 24.1487 33.25 27.1459 33.25C27.5601 33.25 27.8959 33.5858 27.8959 34Z" fill="#5F5F6A"/>
<path d="M27.8959 90C27.8959 90.4142 27.5601 90.75 27.1459 90.75C23.3545 90.75 20.25 87.7448 20.25 84C20.25 80.2552 23.3545 77.25 27.1459 77.25C30.2505 77.25 32.8946 79.2651 33.7506 82.0513L34.3544 81.0302C34.5653 80.6737 35.0252 80.5556 35.3818 80.7664C35.7383 80.9773 35.8564 81.4372 35.6456 81.7938L34.0159 84.5494C33.8081 84.9007 33.3576 85.0214 33.0021 84.821L30.1794 83.23C29.8185 83.0266 29.6909 82.5692 29.8943 82.2084C30.0977 81.8476 30.5551 81.7199 30.9159 81.9233L32.3883 82.7532C31.8145 80.4651 29.697 78.75 27.1459 78.75C24.1487 78.75 21.75 81.1174 21.75 84C21.75 86.8826 24.1487 89.25 27.1459 89.25C27.5601 89.25 27.8959 89.5858 27.8959 90Z" fill="#5F5F6A"/>
<path d="M27.6459 146C27.6459 146.276 27.422 146.5 27.1459 146.5C23.4869 146.5 20.5 143.601 20.5 140C20.5 136.399 23.4869 133.5 27.1459 133.5C30.3515 133.5 33.0413 135.725 33.6586 138.698L34.5696 137.157C34.7102 136.92 35.0168 136.841 35.2545 136.982C35.4922 137.122 35.5709 137.429 35.4304 137.666L33.8007 140.422C33.6622 140.656 33.3618 140.737 33.1248 140.603L30.3021 139.012C30.0616 138.877 29.9765 138.572 30.1121 138.331C30.2477 138.091 30.5526 138.005 30.7931 138.141L32.7378 139.237C32.3571 136.569 30.0079 134.5 27.1459 134.5C24.0164 134.5 21.5 136.974 21.5 140C21.5 143.026 24.0164 145.5 27.1459 145.5C27.422 145.5 27.6459 145.724 27.6459 146Z" fill="#5F5F6A"/>
</svg>
