<svg width="56" height="224" viewBox="0 0 56 224" fill="none" xmlns="http://www.w3.org/2000/svg">
<path d="M33.8385 18H22.1615C21.6343 18 21.1795 18 20.805 18.0306C20.4096 18.0629 20.0164 18.1342 19.638 18.327C19.0735 18.6146 18.6146 19.0735 18.327 19.638C18.1342 20.0164 18.0629 20.4096 18.0306 20.805C18 21.1795 18 21.6343 18 22.1614V37C18 37.5523 18.4477 38 19 38C19.5523 38 20 37.5523 20 37V22.2C20 21.6234 20.0008 21.2512 20.0239 20.9678C20.0461 20.6962 20.0838 20.5955 20.109 20.546C20.2049 20.3579 20.3579 20.2049 20.546 20.109C20.5955 20.0838 20.6962 20.0461 20.9678 20.0239C21.2512 20.0008 21.6234 20 22.2 20H33.8C34.3766 20 34.7488 20.0008 35.0322 20.0239C35.3038 20.0461 35.4045 20.0838 35.454 20.109C35.6422 20.2049 35.7951 20.3579 35.891 20.546C35.9162 20.5955 35.9539 20.6962 35.9761 20.9678C35.9992 21.2512 36 21.6234 36 22.2V37C36 37.5523 36.4477 38 37 38C37.5523 38 38 37.5523 38 37V22.1614C38 21.6343 38 21.1795 37.9694 20.805C37.9371 20.4096 37.8658 20.0164 37.673 19.638C37.3854 19.0735 36.9265 18.6146 36.362 18.327C35.9836 18.1342 35.5904 18.0629 35.195 18.0306C34.8205 18 34.3657 18 33.8385 18Z" fill="#5F5F6A"/>
<path d="M29.0298 26H30.9702C31.0924 26 31.2248 25.9999 31.3395 26.0093C31.4692 26.0199 31.6407 26.0462 31.8175 26.1362C32.0527 26.2561 32.2439 26.4473 32.3638 26.6825C32.4539 26.8593 32.4801 27.0308 32.4907 27.1605C32.5001 27.2752 32.5 27.4076 32.5 27.5297V28.7202C32.5 28.8424 32.5001 28.9748 32.4907 29.0895C32.4801 29.2192 32.4539 29.3907 32.3638 29.5675C32.2439 29.8027 32.0527 29.9939 31.8175 30.1138C31.6407 30.2039 31.4692 30.2301 31.3395 30.2407C31.2248 30.2501 31.0924 30.25 30.9702 30.25H29.0298C28.9076 30.25 28.7752 30.2501 28.6605 30.2407C28.5308 30.2301 28.3593 30.2039 28.1825 30.1138C27.9473 29.9939 27.7561 29.8027 27.6362 29.5675C27.5461 29.3907 27.5199 29.2192 27.5093 29.0895C27.4999 28.9748 27.5 28.8424 27.5 28.7203V27.5298C27.5 27.4076 27.4999 27.2752 27.5093 27.1605C27.5199 27.0308 27.5461 26.8593 27.6362 26.6825C27.7561 26.4473 27.9473 26.2561 28.1825 26.1362C28.3593 26.0462 28.5308 26.0199 28.6605 26.0093C28.7752 25.9999 28.9076 26 29.0298 26Z" fill="#5F5F6A"/>
<path d="M23.5 27C23.5 26.5858 23.8358 26.25 24.25 26.25H25.75C26.1642 26.25 26.5 26.5858 26.5 27C26.5 27.4142 26.1642 27.75 25.75 27.75H24.25C23.8358 27.75 23.5 27.4142 23.5 27Z" fill="#5F5F6A"/>
<path d="M23.5 29.25C23.5 28.8358 23.8358 28.5 24.25 28.5H25.75C26.1642 28.5 26.5 28.8358 26.5 29.25C26.5 29.6642 26.1642 30 25.75 30H24.25C23.8358 30 23.5 29.6642 23.5 29.25Z" fill="#5F5F6A"/>
<path d="M23.5 32C23.5 31.5858 23.8358 31.25 24.25 31.25H31.75C32.1642 31.25 32.5 31.5858 32.5 32C32.5 32.4142 32.1642 32.75 31.75 32.75H24.25C23.8358 32.75 23.5 32.4142 23.5 32Z" fill="#5F5F6A"/>
<path d="M23.5 34.5C23.5 34.0858 23.8358 33.75 24.25 33.75H31.75C32.1642 33.75 32.5 34.0858 32.5 34.5C32.5 34.9142 32.1642 35.25 31.75 35.25H24.25C23.8358 35.25 23.5 34.9142 23.5 34.5Z" fill="#5F5F6A"/>
<path d="M23.5 22.5C22.9477 22.5 22.5 22.9477 22.5 23.5C22.5 24.0523 22.9477 24.5 23.5 24.5H32.5C33.0523 24.5 33.5 24.0523 33.5 23.5C33.5 22.9477 33.0523 22.5 32.5 22.5H23.5Z" fill="#5F5F6A"/>
<g opacity="0.5">
<path d="M29.0298 82C28.9076 82 28.7752 81.9999 28.6605 82.0093C28.5308 82.0199 28.3593 82.0461 28.1825 82.1362C27.9473 82.2561 27.7561 82.4473 27.6362 82.6825C27.5461 82.8593 27.5199 83.0308 27.5093 83.1605C27.4999 83.2752 27.5 83.4076 27.5 83.5298V84.7202C27.5 84.8424 27.4999 84.9748 27.5093 85.0895C27.5199 85.2192 27.5461 85.3907 27.6362 85.5675C27.7561 85.8027 27.9473 85.9939 28.1825 86.1138C28.3593 86.2039 28.5308 86.2301 28.6605 86.2407C28.7752 86.2501 28.9076 86.25 29.0298 86.25H30.9702C31.0924 86.25 31.2248 86.2501 31.3395 86.2407C31.4692 86.2301 31.6407 86.2039 31.8175 86.1138C32.0527 85.9939 32.2439 85.8027 32.3638 85.5675C32.4539 85.3907 32.4801 85.2192 32.4907 85.0895C32.5001 84.9748 32.5 84.8424 32.5 84.7203V83.5298C32.5 83.4076 32.5001 83.2752 32.4907 83.1605C32.4801 83.0308 32.4539 82.8593 32.3638 82.6825C32.2439 82.4473 32.0527 82.2561 31.8175 82.1362C31.6407 82.0461 31.4692 82.0199 31.3395 82.0093C31.2248 81.9999 31.0924 82 30.9702 82H29.0298Z" fill="#5F5F6A"/>
<path d="M24.25 82.25C23.8358 82.25 23.5 82.5858 23.5 83C23.5 83.4142 23.8358 83.75 24.25 83.75H25.75C26.1642 83.75 26.5 83.4142 26.5 83C26.5 82.5858 26.1642 82.25 25.75 82.25H24.25Z" fill="#5F5F6A"/>
<path d="M24.25 84.5C23.8358 84.5 23.5 84.8358 23.5 85.25C23.5 85.6642 23.8358 86 24.25 86H25.75C26.1642 86 26.5 85.6642 26.5 85.25C26.5 84.8358 26.1642 84.5 25.75 84.5H24.25Z" fill="#5F5F6A"/>
<path d="M24.25 87.25C23.8358 87.25 23.5 87.5858 23.5 88C23.5 88.4142 23.8358 88.75 24.25 88.75H31.75C32.1642 88.75 32.5 88.4142 32.5 88C32.5 87.5858 32.1642 87.25 31.75 87.25H24.25Z" fill="#5F5F6A"/>
<path d="M24.25 89.75C23.8358 89.75 23.5 90.0858 23.5 90.5C23.5 90.9142 23.8358 91.25 24.25 91.25H31.75C32.1642 91.25 32.5 90.9142 32.5 90.5C32.5 90.0858 32.1642 89.75 31.75 89.75H24.25Z" fill="#5F5F6A"/>
</g>
<path d="M33.8304 74.25H22.1696C21.6354 74.25 21.1896 74.25 20.8253 74.2797C20.4454 74.3108 20.0888 74.3779 19.7515 74.5497C19.2341 74.8134 18.8134 75.2341 18.5497 75.7515C18.3779 76.0888 18.3108 76.4454 18.2797 76.8253C18.25 77.1896 18.25 77.6354 18.25 78.1696V93C18.25 93.4142 18.5858 93.75 19 93.75C19.4142 93.75 19.75 93.4142 19.75 93V78.2C19.75 77.6276 19.7506 77.2434 19.7748 76.9475C19.7982 76.6604 19.8401 76.5231 19.8862 76.4325C20.0061 76.1973 20.1973 76.0061 20.4325 75.8862C20.5231 75.8401 20.6604 75.7982 20.9475 75.7748C21.2434 75.7506 21.6276 75.75 22.2 75.75H33.8C34.3724 75.75 34.7566 75.7506 35.0525 75.7748C35.3396 75.7982 35.4769 75.8401 35.5675 75.8862C35.8027 76.0061 35.9939 76.1973 36.1138 76.4325C36.1599 76.5231 36.2018 76.6604 36.2252 76.9475C36.2494 77.2434 36.25 77.6276 36.25 78.2V93C36.25 93.4142 36.5858 93.75 37 93.75C37.4142 93.75 37.75 93.4142 37.75 93V78.1695C37.75 77.6354 37.75 77.1896 37.7203 76.8253C37.6892 76.4454 37.6221 76.0888 37.4503 75.7515C37.1866 75.2341 36.7659 74.8134 36.2485 74.5497C35.9112 74.3779 35.5546 74.3108 35.1747 74.2797C34.8104 74.25 34.3646 74.25 33.8304 74.25Z" fill="#5F5F6A"/>
<path d="M23.5 78.5C22.9477 78.5 22.5 78.9477 22.5 79.5C22.5 80.0523 22.9477 80.5 23.5 80.5H32.5C33.0523 80.5 33.5 80.0523 33.5 79.5C33.5 78.9477 33.0523 78.5 32.5 78.5H23.5Z" fill="#5F5F6A"/>
<path d="M33.8304 130.25H22.1696C21.6354 130.25 21.1896 130.25 20.8253 130.28C20.4454 130.311 20.0888 130.378 19.7515 130.55C19.2341 130.813 18.8134 131.234 18.5497 131.752C18.3779 132.089 18.3108 132.445 18.2797 132.825C18.25 133.19 18.25 133.635 18.25 134.17V149C18.25 149.414 18.5858 149.75 19 149.75C19.4142 149.75 19.75 149.414 19.75 149V134.2C19.75 133.628 19.7506 133.243 19.7748 132.947C19.7982 132.66 19.8401 132.523 19.8862 132.433C20.0061 132.197 20.1973 132.006 20.4325 131.886C20.5231 131.84 20.6604 131.798 20.9475 131.775C21.2434 131.751 21.6276 131.75 22.2 131.75H33.8C34.3724 131.75 34.7566 131.751 35.0525 131.775C35.3396 131.798 35.4769 131.84 35.5675 131.886C35.8027 132.006 35.9939 132.197 36.1138 132.433C36.1599 132.523 36.2018 132.66 36.2252 132.947C36.2494 133.243 36.25 133.628 36.25 134.2V149C36.25 149.414 36.5858 149.75 37 149.75C37.4142 149.75 37.75 149.414 37.75 149V134.17C37.75 133.635 37.75 133.19 37.7203 132.825C37.6892 132.445 37.6221 132.089 37.4503 131.752C37.1866 131.234 36.7659 130.813 36.2485 130.55C35.9112 130.378 35.5546 130.311 35.1747 130.28C34.8104 130.25 34.3646 130.25 33.8304 130.25Z" fill="#5F5F6A"/>
<path d="M22.5 135.5C22.5 134.948 22.9477 134.5 23.5 134.5H32.5C33.0523 134.5 33.5 134.948 33.5 135.5C33.5 136.052 33.0523 136.5 32.5 136.5H23.5C22.9477 136.5 22.5 136.052 22.5 135.5Z" fill="#5F5F6A"/>
<path fill-rule="evenodd" clip-rule="evenodd" d="M28.6605 138.009C28.7752 138 28.9076 138 29.0298 138H30.9702C31.0924 138 31.2248 138 31.3395 138.009C31.4692 138.02 31.6407 138.046 31.8175 138.136C32.0527 138.256 32.2439 138.447 32.3638 138.683C32.4539 138.859 32.4801 139.031 32.4907 139.161C32.5001 139.275 32.5 139.408 32.5 139.53V140.72C32.5 140.842 32.5001 140.975 32.4907 141.089C32.4801 141.219 32.4539 141.391 32.3638 141.567C32.2439 141.803 32.0527 141.994 31.8175 142.114C31.6407 142.204 31.4692 142.23 31.3395 142.241C31.2248 142.25 31.0924 142.25 30.9702 142.25H29.0298C28.9076 142.25 28.7752 142.25 28.6605 142.241C28.5308 142.23 28.3593 142.204 28.1825 142.114C27.9473 141.994 27.7561 141.803 27.6362 141.567C27.5461 141.391 27.5199 141.219 27.5093 141.089C27.4999 140.975 27.5 140.842 27.5 140.72V139.53C27.5 139.408 27.4999 139.275 27.5093 139.161C27.5199 139.031 27.5461 138.859 27.6362 138.683C27.7561 138.447 27.9473 138.256 28.1825 138.136C28.3593 138.046 28.5308 138.02 28.6605 138.009ZM31 139.5H29L29 140.75H31L31 139.5Z" fill="#5F5F6A"/>
<path d="M24.25 138.25C23.8358 138.25 23.5 138.586 23.5 139C23.5 139.414 23.8358 139.75 24.25 139.75H25.75C26.1642 139.75 26.5 139.414 26.5 139C26.5 138.586 26.1642 138.25 25.75 138.25H24.25Z" fill="#5F5F6A"/>
<path d="M23.5 141.25C23.5 140.836 23.8358 140.5 24.25 140.5H25.75C26.1642 140.5 26.5 140.836 26.5 141.25C26.5 141.664 26.1642 142 25.75 142H24.25C23.8358 142 23.5 141.664 23.5 141.25Z" fill="#5F5F6A"/>
<path d="M24.25 143.25C23.8358 143.25 23.5 143.586 23.5 144C23.5 144.414 23.8358 144.75 24.25 144.75H31.75C32.1642 144.75 32.5 144.414 32.5 144C32.5 143.586 32.1642 143.25 31.75 143.25H24.25Z" fill="#5F5F6A"/>
<path d="M23.5 146.5C23.5 146.086 23.8358 145.75 24.25 145.75H31.75C32.1642 145.75 32.5 146.086 32.5 146.5C32.5 146.914 32.1642 147.25 31.75 147.25H24.25C23.8358 147.25 23.5 146.914 23.5 146.5Z" fill="#5F5F6A"/>
<path d="M33.8214 186.5H22.1786C21.6367 186.5 21.1996 186.5 20.8457 186.529C20.4813 186.559 20.1612 186.622 19.865 186.772C19.3946 187.012 19.0122 187.395 18.7725 187.865C18.6216 188.161 18.5587 188.481 18.5289 188.846C18.5 189.2 18.5 189.637 18.5 190.179V205C18.5 205.276 18.7239 205.5 19 205.5C19.2761 205.5 19.5 205.276 19.5 205V190.2C19.5 189.632 19.5004 189.236 19.5256 188.927C19.5503 188.625 19.5964 188.451 19.6635 188.319C19.8073 188.037 20.0368 187.807 20.319 187.663C20.4507 187.596 20.6245 187.55 20.9271 187.526C21.2355 187.5 21.6317 187.5 22.2 187.5H33.8C34.3683 187.5 34.7645 187.5 35.0729 187.526C35.3755 187.55 35.5493 187.596 35.681 187.663C35.9632 187.807 36.1927 188.037 36.3365 188.319C36.4036 188.451 36.4497 188.625 36.4744 188.927C36.4996 189.236 36.5 189.632 36.5 190.2V205C36.5 205.276 36.7239 205.5 37 205.5C37.2761 205.5 37.5 205.276 37.5 205V190.179C37.5 189.637 37.5 189.2 37.4711 188.846C37.4413 188.481 37.3784 188.161 37.2275 187.865C36.9878 187.395 36.6054 187.012 36.135 186.772C35.8388 186.622 35.5187 186.559 35.1543 186.529C34.8004 186.5 34.3633 186.5 33.8214 186.5Z" fill="#5F5F6A"/>
<path d="M22.75 191.5C22.75 191.086 23.0858 190.75 23.5 190.75H32.5C32.9142 190.75 33.25 191.086 33.25 191.5C33.25 191.914 32.9142 192.25 32.5 192.25H23.5C23.0858 192.25 22.75 191.914 22.75 191.5Z" fill="#5F5F6A"/>
<path fill-rule="evenodd" clip-rule="evenodd" d="M28.6809 194.258C28.785 194.25 28.9079 194.25 29.0341 194.25H30.966C31.0922 194.25 31.215 194.25 31.3191 194.258C31.4334 194.268 31.5683 194.29 31.704 194.359C31.8922 194.455 32.0451 194.608 32.141 194.796C32.2102 194.932 32.2322 195.067 32.2415 195.181C32.25 195.285 32.25 195.408 32.25 195.534V196.716C32.25 196.842 32.25 196.965 32.2415 197.069C32.2322 197.183 32.2102 197.318 32.141 197.454C32.0451 197.642 31.8922 197.795 31.704 197.891C31.5683 197.96 31.4334 197.982 31.3191 197.992C31.2151 198 31.0922 198 30.9661 198H29.034C28.9079 198 28.7849 198 28.6809 197.992C28.5666 197.982 28.4317 197.96 28.296 197.891C28.1078 197.795 27.9549 197.642 27.859 197.454C27.7898 197.318 27.7678 197.183 27.7585 197.069C27.75 196.965 27.75 196.842 27.75 196.716V195.534C27.75 195.408 27.75 195.285 27.7585 195.181C27.7678 195.067 27.7898 194.932 27.859 194.796C27.9549 194.608 28.1078 194.455 28.296 194.359C28.4317 194.29 28.5666 194.268 28.6809 194.258ZM28.7557 195.256L28.7552 195.262C28.7504 195.321 28.75 195.402 28.75 195.55V196.7C28.75 196.848 28.7504 196.929 28.7552 196.988L28.7557 196.994L28.7623 196.995C28.8206 197 28.9017 197 29.05 197H30.95C31.0983 197 31.1794 197 31.2377 196.995L31.2443 196.994L31.2448 196.988C31.2496 196.929 31.25 196.848 31.25 196.7V195.55C31.25 195.402 31.2496 195.321 31.2448 195.262L31.2443 195.256L31.2377 195.255C31.1794 195.25 31.0983 195.25 30.95 195.25H29.05C28.9017 195.25 28.8206 195.25 28.7623 195.255L28.7557 195.256Z" fill="#5F5F6A"/>
<path d="M24.25 194.5C23.9739 194.5 23.75 194.724 23.75 195C23.75 195.276 23.9739 195.5 24.25 195.5H25.75C26.0261 195.5 26.25 195.276 26.25 195C26.25 194.724 26.0261 194.5 25.75 194.5H24.25Z" fill="#5F5F6A"/>
<path d="M23.75 197.25C23.75 196.974 23.9739 196.75 24.25 196.75H25.75C26.0261 196.75 26.25 196.974 26.25 197.25C26.25 197.526 26.0261 197.75 25.75 197.75H24.25C23.9739 197.75 23.75 197.526 23.75 197.25Z" fill="#5F5F6A"/>
<path d="M24.25 199.5C23.9739 199.5 23.75 199.724 23.75 200C23.75 200.276 23.9739 200.5 24.25 200.5H31.75C32.0261 200.5 32.25 200.276 32.25 200C32.25 199.724 32.0261 199.5 31.75 199.5H24.25Z" fill="#5F5F6A"/>
<path d="M23.75 202.5C23.75 202.224 23.9739 202 24.25 202H31.75C32.0261 202 32.25 202.224 32.25 202.5C32.25 202.776 32.0261 203 31.75 203H24.25C23.9739 203 23.75 202.776 23.75 202.5Z" fill="#5F5F6A"/>
</svg>
