<svg width="56" height="224" viewBox="0 0 56 224" fill="none" xmlns="http://www.w3.org/2000/svg">
<path d="M21.1615 18H32.3385C32.8657 18 33.3205 18 33.695 18.0306C34.0904 18.0629 34.4836 18.1342 34.862 18.327C35.4265 18.6146 35.8854 19.0735 36.173 19.638C36.3658 20.0164 36.4371 20.4096 36.4694 20.805C36.5 21.1795 36.5 21.6343 36.5 22.1614V28.5C36.5 29.0523 36.0523 29.5 35.5 29.5C34.9477 29.5 34.5 29.0523 34.5 28.5V22.2C34.5 21.6234 34.4992 21.2512 34.4761 20.9678C34.4539 20.6962 34.4162 20.5955 34.391 20.546C34.2951 20.3579 34.1422 20.2049 33.954 20.109C33.9045 20.0838 33.8038 20.0461 33.5322 20.0239C33.2488 20.0008 32.8766 20 32.3 20H21.2C20.6234 20 20.2512 20.0008 19.9678 20.0239C19.6962 20.0461 19.5955 20.0838 19.546 20.109C19.3579 20.2049 19.2049 20.3579 19.109 20.546C19.0838 20.5955 19.0461 20.6962 19.0239 20.9678C19.0008 21.2512 19 21.6234 19 22.2V37C19 37.5523 18.5523 38 18 38C17.4477 38 17 37.5523 17 37V22.1615C17 21.6343 17 21.1795 17.0306 20.805C17.0629 20.4096 17.1342 20.0164 17.327 19.638C17.6146 19.0735 18.0735 18.6146 18.638 18.327C19.0164 18.1342 19.4096 18.0629 19.805 18.0306C20.1795 18 20.6343 18 21.1615 18Z" fill="#5F5F6A"/>
<path d="M22.5 22.5C21.9477 22.5 21.5 22.9477 21.5 23.5C21.5 24.0523 21.9477 24.5 22.5 24.5H31.5C32.0523 24.5 32.5 24.0523 32.5 23.5C32.5 22.9477 32.0523 22.5 31.5 22.5H22.5Z" fill="#5F5F6A"/>
<path d="M28.0298 26C27.9076 26 27.7752 25.9999 27.6605 26.0093C27.5308 26.0199 27.3593 26.0462 27.1825 26.1362C26.9473 26.2561 26.7561 26.4473 26.6362 26.6825C26.5461 26.8593 26.5199 27.0308 26.5093 27.1605C26.4999 27.2752 26.5 27.4076 26.5 27.5298V28.7202C26.5 28.8424 26.4999 28.9748 26.5093 29.0895C26.5199 29.2192 26.5461 29.3907 26.6362 29.5675C26.7561 29.8027 26.9473 29.9939 27.1825 30.1138C27.3593 30.2039 27.5308 30.2301 27.6605 30.2407C27.7751 30.2501 27.9075 30.25 28.0296 30.25H29.9702C30.0923 30.25 30.2249 30.2501 30.3395 30.2407C30.4692 30.2301 30.6407 30.2039 30.8175 30.1138C31.0527 29.9939 31.2439 29.8027 31.3638 29.5675C31.4539 29.3907 31.4801 29.2192 31.4907 29.0895C31.5001 28.9749 31.5 28.8426 31.5 28.7205V27.5298C31.5 27.4077 31.5001 27.2751 31.4907 27.1605C31.4801 27.0308 31.4539 26.8593 31.3638 26.6825C31.2439 26.4473 31.0527 26.2561 30.8175 26.1362C30.6407 26.0462 30.4692 26.0199 30.3395 26.0093C30.2248 25.9999 30.0924 26 29.9702 26H28.0298Z" fill="#5F5F6A"/>
<path d="M22.5 27C22.5 26.5858 22.8358 26.25 23.25 26.25H24.75C25.1642 26.25 25.5 26.5858 25.5 27C25.5 27.4142 25.1642 27.75 24.75 27.75H23.25C22.8358 27.75 22.5 27.4142 22.5 27Z" fill="#5F5F6A"/>
<path d="M22.5 29.25C22.5 28.8358 22.8358 28.5 23.25 28.5H24.75C25.1642 28.5 25.5 28.8358 25.5 29.25C25.5 29.6642 25.1642 30 24.75 30H23.25C22.8358 30 22.5 29.6642 22.5 29.25Z" fill="#5F5F6A"/>
<path d="M22.5 32C22.5 31.5858 22.8358 31.25 23.25 31.25H30.75C31.1642 31.25 31.5 31.5858 31.5 32C31.5 32.4142 31.1642 32.75 30.75 32.75H23.25C22.8358 32.75 22.5 32.4142 22.5 32Z" fill="#5F5F6A"/>
<path d="M22.5 34.5C22.5 34.0858 22.8358 33.75 23.25 33.75H28.05C28.4642 33.75 28.8 34.0858 28.8 34.5C28.8 34.9142 28.4642 35.25 28.05 35.25H23.25C22.8358 35.25 22.5 34.9142 22.5 34.5Z" fill="#5F5F6A"/>
<path d="M36.25 32C36.25 31.5858 35.9142 31.25 35.5 31.25C35.0858 31.25 34.75 31.5858 34.75 32V33.75H33C32.5858 33.75 32.25 34.0858 32.25 34.5C32.25 34.9142 32.5858 35.25 33 35.25H34.75V37C34.75 37.4142 35.0858 37.75 35.5 37.75C35.9142 37.75 36.25 37.4142 36.25 37V35.25H38C38.4142 35.25 38.75 34.9142 38.75 34.5C38.75 34.0858 38.4142 33.75 38 33.75H36.25V32Z" fill="#5F5F6A"/>
<g opacity="0.5">
<path d="M28.0298 82C27.9076 82 27.7752 81.9999 27.6605 82.0093C27.5308 82.0199 27.3593 82.0461 27.1825 82.1362C26.9473 82.2561 26.7561 82.4473 26.6362 82.6825C26.5461 82.8593 26.5199 83.0308 26.5093 83.1605C26.4999 83.2752 26.5 83.4076 26.5 83.5298V84.7202C26.5 84.8424 26.4999 84.9748 26.5093 85.0895C26.5199 85.2192 26.5461 85.3907 26.6362 85.5675C26.7561 85.8027 26.9473 85.9939 27.1825 86.1138C27.3593 86.2039 27.5308 86.2301 27.6605 86.2407C27.7752 86.2501 27.9076 86.25 28.0298 86.25H29.9702C30.0924 86.25 30.2248 86.2501 30.3395 86.2407C30.4692 86.2301 30.6407 86.2039 30.8175 86.1138C31.0527 85.9939 31.2439 85.8027 31.3638 85.5675C31.4539 85.3907 31.4801 85.2192 31.4907 85.0895C31.5001 84.9748 31.5 84.8424 31.5 84.7203V83.5298C31.5 83.4076 31.5001 83.2752 31.4907 83.1605C31.4801 83.0308 31.4539 82.8593 31.3638 82.6825C31.2439 82.4473 31.0527 82.2561 30.8175 82.1362C30.6407 82.0461 30.4692 82.0199 30.3395 82.0093C30.2248 81.9999 30.0924 82 29.9702 82H28.0298Z" fill="#5F5F6A"/>
<path d="M23.25 82.25C22.8358 82.25 22.5 82.5858 22.5 83C22.5 83.4142 22.8358 83.75 23.25 83.75H24.75C25.1642 83.75 25.5 83.4142 25.5 83C25.5 82.5858 25.1642 82.25 24.75 82.25H23.25Z" fill="#5F5F6A"/>
<path d="M23.25 84.5C22.8358 84.5 22.5 84.8358 22.5 85.25C22.5 85.6642 22.8358 86 23.25 86H24.75C25.1642 86 25.5 85.6642 25.5 85.25C25.5 84.8358 25.1642 84.5 24.75 84.5H23.25Z" fill="#5F5F6A"/>
<path d="M23.25 87.25C22.8358 87.25 22.5 87.5858 22.5 88C22.5 88.4142 22.8358 88.75 23.25 88.75H30.75C31.1642 88.75 31.5 88.4142 31.5 88C31.5 87.5858 31.1642 87.25 30.75 87.25H23.25Z" fill="#5F5F6A"/>
<path d="M23.25 89.75C22.8358 89.75 22.5 90.0858 22.5 90.5C22.5 90.9142 22.8358 91.25 23.25 91.25H28.05C28.4642 91.25 28.8 90.9142 28.8 90.5C28.8 90.0858 28.4642 89.75 28.05 89.75H23.25Z" fill="#5F5F6A"/>
</g>
<path d="M21.1696 74.25H32.3304C32.8646 74.25 33.3104 74.25 33.6747 74.2797C34.0546 74.3108 34.4112 74.3779 34.7485 74.5497C35.2659 74.8134 35.6866 75.2341 35.9503 75.7515C36.1221 76.0888 36.1892 76.4454 36.2203 76.8253C36.25 77.1896 36.25 77.6354 36.25 78.1695V84.5C36.25 84.9142 35.9142 85.25 35.5 85.25C35.0858 85.25 34.75 84.9142 34.75 84.5V78.2C34.75 77.6276 34.7494 77.2434 34.7252 76.9475C34.7018 76.6604 34.6599 76.5231 34.6138 76.4325C34.4939 76.1973 34.3027 76.0061 34.0675 75.8862C33.9769 75.8401 33.8396 75.7982 33.5525 75.7748C33.2566 75.7506 32.8724 75.75 32.3 75.75H21.2C20.6276 75.75 20.2434 75.7506 19.9475 75.7748C19.6604 75.7982 19.5231 75.8401 19.4325 75.8862C19.1973 76.0061 19.0061 76.1973 18.8862 76.4325C18.8401 76.5231 18.7982 76.6604 18.7748 76.9475C18.7506 77.2434 18.75 77.6276 18.75 78.2V93C18.75 93.4142 18.4142 93.75 18 93.75C17.5858 93.75 17.25 93.4142 17.25 93V78.1696C17.25 77.6354 17.25 77.1896 17.2797 76.8253C17.3108 76.4454 17.3779 76.0888 17.5497 75.7515C17.8134 75.2341 18.2341 74.8134 18.7515 74.5497C19.0888 74.3779 19.4454 74.3108 19.8253 74.2797C20.1896 74.25 20.6354 74.25 21.1696 74.25Z" fill="#5F5F6A"/>
<path d="M21.5 79.5C21.5 78.9477 21.9477 78.5 22.5 78.5H31.5C32.0523 78.5 32.5 78.9477 32.5 79.5C32.5 80.0523 32.0523 80.5 31.5 80.5H22.5C21.9477 80.5 21.5 80.0523 21.5 79.5Z" fill="#5F5F6A"/>
<path d="M36.25 88C36.25 87.5858 35.9142 87.25 35.5 87.25C35.0858 87.25 34.75 87.5858 34.75 88V89.75H33C32.5858 89.75 32.25 90.0858 32.25 90.5C32.25 90.9142 32.5858 91.25 33 91.25H34.75V93C34.75 93.4142 35.0858 93.75 35.5 93.75C35.9142 93.75 36.25 93.4142 36.25 93V91.25H38C38.4142 91.25 38.75 90.9142 38.75 90.5C38.75 90.0858 38.4142 89.75 38 89.75H36.25V88Z" fill="#5F5F6A"/>
<path d="M21.1696 130.25H32.3304C32.8646 130.25 33.3104 130.25 33.6747 130.28C34.0546 130.311 34.4112 130.378 34.7485 130.55C35.2659 130.813 35.6866 131.234 35.9503 131.752C36.1221 132.089 36.1892 132.445 36.2203 132.825C36.25 133.19 36.25 133.635 36.25 134.17V140.5C36.25 140.914 35.9142 141.25 35.5 141.25C35.0858 141.25 34.75 140.914 34.75 140.5V134.2C34.75 133.628 34.7494 133.243 34.7252 132.947C34.7018 132.66 34.6599 132.523 34.6138 132.433C34.4939 132.197 34.3027 132.006 34.0675 131.886C33.9769 131.84 33.8396 131.798 33.5525 131.775C33.2566 131.751 32.8724 131.75 32.3 131.75H21.2C20.6276 131.75 20.2434 131.751 19.9475 131.775C19.6604 131.798 19.5231 131.84 19.4325 131.886C19.1973 132.006 19.0061 132.197 18.8862 132.433C18.8401 132.523 18.7982 132.66 18.7748 132.947C18.7506 133.243 18.75 133.628 18.75 134.2V149C18.75 149.414 18.4142 149.75 18 149.75C17.5858 149.75 17.25 149.414 17.25 149V134.17C17.25 133.635 17.25 133.19 17.2797 132.825C17.3108 132.445 17.3779 132.089 17.5497 131.752C17.8134 131.234 18.2341 130.813 18.7515 130.55C19.0888 130.378 19.4454 130.311 19.8253 130.28C20.1896 130.25 20.6354 130.25 21.1696 130.25Z" fill="#5F5F6A"/>
<path d="M35.5 143.25C35.9142 143.25 36.25 143.586 36.25 144V145.75H38C38.4142 145.75 38.75 146.086 38.75 146.5C38.75 146.914 38.4142 147.25 38 147.25H36.25V149C36.25 149.414 35.9142 149.75 35.5 149.75C35.0858 149.75 34.75 149.414 34.75 149V147.25H33C32.5858 147.25 32.25 146.914 32.25 146.5C32.25 146.086 32.5858 145.75 33 145.75H34.75V144C34.75 143.586 35.0858 143.25 35.5 143.25Z" fill="#5F5F6A"/>
<path fill-rule="evenodd" clip-rule="evenodd" d="M27.6605 138.009C27.7752 138 27.9076 138 28.0298 138H29.9702C30.0924 138 30.2248 138 30.3395 138.009C30.4692 138.02 30.6407 138.046 30.8175 138.136C31.0527 138.256 31.2439 138.447 31.3638 138.683C31.4539 138.859 31.4801 139.031 31.4907 139.161C31.5001 139.275 31.5 139.408 31.5 139.53V140.72C31.5 140.842 31.5001 140.975 31.4907 141.089C31.4801 141.219 31.4539 141.391 31.3638 141.567C31.2439 141.803 31.0527 141.994 30.8175 142.114C30.6407 142.204 30.4692 142.23 30.3395 142.241C30.2249 142.25 30.0925 142.25 29.9703 142.25H28.0298C27.9076 142.25 27.7751 142.25 27.6605 142.241C27.5308 142.23 27.3593 142.204 27.1825 142.114C26.9473 141.994 26.7561 141.803 26.6362 141.567C26.5461 141.391 26.5199 141.219 26.5093 141.089C26.4999 140.975 26.5 140.842 26.5 140.72V139.53C26.5 139.408 26.4999 139.275 26.5093 139.161C26.5199 139.031 26.5461 138.859 26.6362 138.683C26.7561 138.447 26.9473 138.256 27.1825 138.136C27.3593 138.046 27.5308 138.02 27.6605 138.009ZM30 139.5H28L28 140.75H30V139.5Z" fill="#5F5F6A"/>
<path d="M23.25 138.25C22.8358 138.25 22.5 138.586 22.5 139C22.5 139.414 22.8358 139.75 23.25 139.75H24.75C25.1642 139.75 25.5 139.414 25.5 139C25.5 138.586 25.1642 138.25 24.75 138.25H23.25Z" fill="#5F5F6A"/>
<path d="M22.5 141.25C22.5 140.836 22.8358 140.5 23.25 140.5H24.75C25.1642 140.5 25.5 140.836 25.5 141.25C25.5 141.664 25.1642 142 24.75 142H23.25C22.8358 142 22.5 141.664 22.5 141.25Z" fill="#5F5F6A"/>
<path d="M23.25 143.25C22.8358 143.25 22.5 143.586 22.5 144C22.5 144.414 22.8358 144.75 23.25 144.75H30.75C31.1642 144.75 31.5 144.414 31.5 144C31.5 143.586 31.1642 143.25 30.75 143.25H23.25Z" fill="#5F5F6A"/>
<path d="M22.5 146.5C22.5 146.086 22.8358 145.75 23.25 145.75H28.05C28.4642 145.75 28.8 146.086 28.8 146.5C28.8 146.914 28.4642 147.25 28.05 147.25H23.25C22.8358 147.25 22.5 146.914 22.5 146.5Z" fill="#5F5F6A"/>
<path d="M22.5 134.5C21.9477 134.5 21.5 134.948 21.5 135.5C21.5 136.052 21.9477 136.5 22.5 136.5H31.5C32.0523 136.5 32.5 136.052 32.5 135.5C32.5 134.948 32.0523 134.5 31.5 134.5H22.5Z" fill="#5F5F6A"/>
<path d="M21.1786 186.5H32.3214C32.8633 186.5 33.3004 186.5 33.6543 186.529C34.0187 186.559 34.3388 186.622 34.635 186.772C35.1054 187.012 35.4878 187.395 35.7275 187.865C35.8784 188.161 35.9413 188.481 35.9711 188.846C36 189.2 36 189.637 36 190.179V196.5C36 196.776 35.7761 197 35.5 197C35.2239 197 35 196.776 35 196.5V190.2C35 189.632 34.9996 189.236 34.9744 188.927C34.9497 188.625 34.9036 188.451 34.8365 188.319C34.6927 188.037 34.4632 187.807 34.181 187.663C34.0493 187.596 33.8755 187.55 33.5729 187.526C33.2645 187.5 32.8683 187.5 32.3 187.5H21.2C20.6317 187.5 20.2355 187.5 19.9271 187.526C19.6245 187.55 19.4507 187.596 19.319 187.663C19.0368 187.807 18.8073 188.037 18.6635 188.319C18.5964 188.451 18.5503 188.625 18.5256 188.927C18.5004 189.236 18.5 189.632 18.5 190.2V205C18.5 205.276 18.2761 205.5 18 205.5C17.7239 205.5 17.5 205.276 17.5 205V190.179C17.5 189.637 17.5 189.2 17.5289 188.846C17.5587 188.481 17.6216 188.161 17.7725 187.865C18.0122 187.395 18.3946 187.012 18.865 186.772C19.1612 186.622 19.4813 186.559 19.8457 186.529C20.1996 186.5 20.6367 186.5 21.1786 186.5Z" fill="#5F5F6A"/>
<path d="M35.5 199.5C35.7761 199.5 36 199.724 36 200V202H38C38.2761 202 38.5 202.224 38.5 202.5C38.5 202.776 38.2761 203 38 203H36V205C36 205.276 35.7761 205.5 35.5 205.5C35.2239 205.5 35 205.276 35 205V203H33C32.7239 203 32.5 202.776 32.5 202.5C32.5 202.224 32.7239 202 33 202H35V200C35 199.724 35.2239 199.5 35.5 199.5Z" fill="#5F5F6A"/>
<path d="M21.75 191.5C21.75 191.086 22.0858 190.75 22.5 190.75H31.5C31.9142 190.75 32.25 191.086 32.25 191.5C32.25 191.914 31.9142 192.25 31.5 192.25H22.5C22.0858 192.25 21.75 191.914 21.75 191.5Z" fill="#5F5F6A"/>
<path fill-rule="evenodd" clip-rule="evenodd" d="M28.0341 194.25H29.9659C30.0921 194.25 30.215 194.25 30.3191 194.258C30.4334 194.268 30.5683 194.29 30.704 194.359C30.8922 194.455 31.0451 194.608 31.141 194.796C31.2102 194.932 31.2322 195.067 31.2415 195.181C31.25 195.285 31.25 195.408 31.25 195.534V196.716C31.25 196.842 31.25 196.965 31.2415 197.069C31.2322 197.183 31.2102 197.318 31.141 197.454C31.0451 197.642 30.8922 197.795 30.704 197.891C30.5683 197.96 30.4334 197.982 30.3191 197.992C30.215 198 30.0921 198 29.9659 198H28.0341C27.9079 198 27.785 198 27.6809 197.992C27.5666 197.982 27.4317 197.96 27.296 197.891C27.1078 197.795 26.9549 197.642 26.859 197.454C26.7898 197.318 26.7678 197.183 26.7585 197.069C26.75 196.965 26.75 196.842 26.75 196.716V195.534C26.75 195.408 26.75 195.285 26.7585 195.181C26.7678 195.067 26.7898 194.932 26.859 194.796C26.9549 194.608 27.1078 194.455 27.296 194.359C27.4317 194.29 27.5666 194.268 27.6809 194.258C27.785 194.25 27.9079 194.25 28.0341 194.25ZM27.7557 195.256L27.7552 195.262C27.7504 195.321 27.75 195.402 27.75 195.55V196.7C27.75 196.848 27.7504 196.929 27.7552 196.988L27.7557 196.994L27.7623 196.995C27.8206 197 27.9017 197 28.05 197H29.95C30.0983 197 30.1794 197 30.2377 196.995L30.2443 196.994L30.2448 196.988C30.2496 196.929 30.25 196.848 30.25 196.7V195.55C30.25 195.402 30.2496 195.321 30.2448 195.262L30.2443 195.256L30.2377 195.255C30.1794 195.25 30.0983 195.25 29.95 195.25H28.05C27.9017 195.25 27.8206 195.25 27.7623 195.255L27.7557 195.256Z" fill="#5F5F6A"/>
<path d="M22.75 195C22.75 194.724 22.9739 194.5 23.25 194.5H24.75C25.0261 194.5 25.25 194.724 25.25 195C25.25 195.276 25.0261 195.5 24.75 195.5H23.25C22.9739 195.5 22.75 195.276 22.75 195Z" fill="#5F5F6A"/>
<path d="M22.75 197.25C22.75 196.974 22.9739 196.75 23.25 196.75H24.75C25.0261 196.75 25.25 196.974 25.25 197.25C25.25 197.526 25.0261 197.75 24.75 197.75H23.25C22.9739 197.75 22.75 197.526 22.75 197.25Z" fill="#5F5F6A"/>
<path d="M22.75 200C22.75 199.724 22.9739 199.5 23.25 199.5H30.75C31.0261 199.5 31.25 199.724 31.25 200C31.25 200.276 31.0261 200.5 30.75 200.5H23.25C22.9739 200.5 22.75 200.276 22.75 200Z" fill="#5F5F6A"/>
<path d="M22.75 202.5C22.75 202.224 22.9739 202 23.25 202H28.05C28.3261 202 28.55 202.224 28.55 202.5C28.55 202.776 28.3261 203 28.05 203H23.25C22.9739 203 22.75 202.776 22.75 202.5Z" fill="#5F5F6A"/>
</svg>
