<svg width="56" height="224" viewBox="0 0 56 224" fill="none" xmlns="http://www.w3.org/2000/svg">
<path d="M25.5 22.5C25.5 21.9477 25.9477 21.5 26.5 21.5H32.5C33.0523 21.5 33.5 21.9477 33.5 22.5C33.5 23.0523 33.0523 23.5 32.5 23.5H26.5C25.9477 23.5 25.5 23.0523 25.5 22.5Z" fill="#5F5F6A"/>
<path d="M25.5 25.5C25.5 25.0858 25.8358 24.75 26.25 24.75H27.5C27.9142 24.75 28.25 25.0858 28.25 25.5C28.25 25.9142 27.9142 26.25 27.5 26.25H26.25C25.8358 26.25 25.5 25.9142 25.5 25.5ZM25.5 27.75C25.5 27.3358 25.8358 27 26.25 27H27.5C27.9142 27 28.25 27.3358 28.25 27.75C28.25 28.1642 27.9142 28.5 27.5 28.5H26.25C25.8358 28.5 25.5 28.1642 25.5 27.75ZM25.5 30.5C25.5 30.0858 25.8358 29.75 26.25 29.75H32.75C33.1642 29.75 33.5 30.0858 33.5 30.5C33.5 30.9142 33.1642 31.25 32.75 31.25H26.25C25.8358 31.25 25.5 30.9142 25.5 30.5Z" fill="#5F5F6A"/>
<path d="M30.1368 24.5C30.0794 24.5 29.9982 24.4999 29.9247 24.5059C29.8367 24.5131 29.6961 24.5325 29.546 24.609C29.3578 24.7049 29.2049 24.8578 29.109 25.046C29.0325 25.1961 29.0131 25.3367 29.0059 25.4247C28.9999 25.4982 29 25.5794 29 25.6368V27.3632C29 27.4206 28.9999 27.5018 29.0059 27.5753C29.0131 27.6633 29.0325 27.8039 29.109 27.954C29.2049 28.1422 29.3578 28.2951 29.546 28.391C29.6961 28.4675 29.8367 28.4869 29.9247 28.4941C29.9982 28.5001 30.0794 28.5 30.1368 28.5H32.3632C32.4206 28.5 32.5018 28.5001 32.5753 28.4941C32.6633 28.4869 32.8039 28.4675 32.954 28.391C33.1422 28.2951 33.2951 28.1422 33.391 27.954C33.4675 27.8039 33.4869 27.6633 33.4941 27.5753C33.5001 27.5018 33.5 27.4206 33.5 27.3632V25.6368C33.5 25.5794 33.5001 25.4982 33.4941 25.4247C33.4869 25.3367 33.4675 25.1961 33.391 25.046C33.2951 24.8578 33.1422 24.7049 32.954 24.609C32.8039 24.5325 32.6633 24.5131 32.5753 24.5059C32.5018 24.4999 32.4206 24.5 32.3632 24.5H30.1368Z" fill="#5F5F6A"/>
<path d="M32.3304 18.75H26.6696C26.1354 18.75 25.6896 18.75 25.3253 18.7797C24.9454 18.8108 24.5888 18.8779 24.2515 19.0497C23.7341 19.3134 23.3134 19.7341 23.0497 20.2515C22.8779 20.5888 22.8108 20.9454 22.7797 21.3253C22.75 21.6896 22.75 22.1354 22.75 22.6696L22.75 32.75H20.5C20.3011 32.75 20.1103 32.829 19.9697 32.9697C19.829 33.1103 19.75 33.3011 19.75 33.5C19.75 35.183 20.3224 36.1793 21.05 36.725C21.3965 36.9849 21.7434 37.1152 22.0056 37.1807C22.1371 37.2136 22.2497 37.2308 22.3342 37.2399C22.3765 37.2444 22.4122 37.2469 22.4401 37.2483C22.4566 37.2492 22.4731 37.2496 22.4896 37.2499C24.937 37.2721 27.3847 37.2647 29.8324 37.2574C31.055 37.2537 32.2775 37.25 33.5 37.25C33.5693 37.25 33.6364 37.2406 33.7002 37.223C34.0831 37.1894 34.4254 37.1149 34.7485 36.9503C35.2659 36.6866 35.6866 36.2659 35.9503 35.7485C36.1221 35.4112 36.1892 35.0546 36.2203 34.6747C36.25 34.3104 36.25 33.8646 36.25 33.3305V22.6695C36.25 22.1354 36.25 21.6896 36.2203 21.3253C36.1892 20.9454 36.1221 20.5888 35.9503 20.2515C35.6866 19.7341 35.2659 19.3134 34.7485 19.0497C34.4112 18.8779 34.0546 18.8108 33.6747 18.7797C33.3104 18.75 32.8646 18.75 32.3304 18.75ZM33.4216 35.7372C33.4057 35.7341 33.3883 35.7302 33.3694 35.7255C33.2566 35.6973 33.1035 35.6401 32.95 35.525C32.6776 35.3207 32.25 34.817 32.25 33.5C32.25 33.0858 31.9142 32.75 31.5 32.75H24.25V22.7C24.25 22.1276 24.2506 21.7434 24.2748 21.4475C24.2982 21.1604 24.3401 21.0231 24.3862 20.9325C24.5061 20.6973 24.6973 20.5061 24.9325 20.3862C25.0231 20.3401 25.1604 20.2982 25.4475 20.2748C25.7434 20.2506 26.1276 20.25 26.7 20.25H32.3C32.8724 20.25 33.2566 20.2506 33.5525 20.2748C33.8396 20.2982 33.9769 20.3401 34.0675 20.3862C34.3027 20.5061 34.4939 20.6973 34.6138 20.9325C34.6599 21.0231 34.7018 21.1604 34.7252 21.4475C34.7494 21.7434 34.75 22.1276 34.75 22.7V33.3C34.75 33.8724 34.7494 34.2566 34.7252 34.5525C34.7018 34.8396 34.6599 34.9769 34.6138 35.0675C34.4939 35.3027 34.3027 35.4939 34.0675 35.6138C33.9255 35.6861 33.7712 35.721 33.4216 35.7372Z" fill="#5F5F6A"/>
<g opacity="0.5">
<path d="M31.2293 91.75H22.5115L22.5021 91.7492L22.4938 91.7484C22.4689 91.7457 22.4253 91.7395 22.3693 91.7255C22.2565 91.6973 22.1034 91.6401 21.9499 91.525C21.7368 91.3652 21.4288 91.0222 21.3047 90.25H30.7914C30.8617 90.854 31.0172 91.3486 31.2293 91.75Z" fill="#5F5F6A"/>
<path d="M29.9246 80.5059C29.9981 80.4999 30.0793 80.5 30.1366 80.5H32.3631C32.4205 80.5 32.5017 80.4999 32.5751 80.5059C32.6632 80.5131 32.8038 80.5325 32.9539 80.609C33.142 80.7049 33.295 80.8579 33.3909 81.046C33.4674 81.1961 33.4868 81.3367 33.494 81.4247C33.5 81.4982 33.4999 81.5794 33.4999 81.6368V83.3633C33.4999 83.4206 33.5 83.5018 33.494 83.5753C33.4868 83.6634 33.4674 83.8039 33.3909 83.954C33.295 84.1422 33.142 84.2951 32.9539 84.391C32.8038 84.4675 32.6632 84.4869 32.5751 84.4941C32.5017 84.5001 32.4205 84.5001 32.3631 84.5H30.1366C30.0793 84.5001 29.9981 84.5001 29.9246 84.4941C29.8365 84.4869 29.696 84.4675 29.5459 84.391C29.3577 84.2951 29.2047 84.1422 29.1089 83.954C29.0324 83.8039 29.013 83.6634 29.0058 83.5753C28.9998 83.5018 28.9998 83.4206 28.9999 83.3632V81.6368C28.9998 81.5794 28.9998 81.4982 29.0058 81.4247C29.013 81.3367 29.0324 81.1961 29.1089 81.046C29.2047 80.8579 29.3577 80.7049 29.5459 80.609C29.696 80.5325 29.8365 80.5131 29.9246 80.5059Z" fill="#5F5F6A"/>
<path d="M25.4999 81.5C25.4999 81.0858 25.8357 80.75 26.2499 80.75H27.4999C27.9141 80.75 28.2499 81.0858 28.2499 81.5C28.2499 81.9142 27.9141 82.25 27.4999 82.25H26.2499C25.8357 82.25 25.4999 81.9142 25.4999 81.5Z" fill="#5F5F6A"/>
<path d="M25.4999 83.75C25.4999 83.3358 25.8357 83 26.2499 83H27.4999C27.9141 83 28.2499 83.3358 28.2499 83.75C28.2499 84.1642 27.9141 84.5 27.4999 84.5H26.2499C25.8357 84.5 25.4999 84.1642 25.4999 83.75Z" fill="#5F5F6A"/>
<path d="M26.2499 85.75C25.8357 85.75 25.4999 86.0858 25.4999 86.5C25.4999 86.9142 25.8357 87.25 26.2499 87.25H32.7499C33.1641 87.25 33.4999 86.9142 33.4999 86.5C33.4999 86.0858 33.1641 85.75 32.7499 85.75H26.2499Z" fill="#5F5F6A"/>
</g>
<path d="M26.5 77.5C25.9477 77.5 25.5 77.9477 25.5 78.5C25.5 79.0523 25.9477 79.5 26.5 79.5H32.5C33.0523 79.5 33.5 79.0523 33.5 78.5C33.5 77.9477 33.0523 77.5 32.5 77.5H26.5Z" fill="#5F5F6A"/>
<path d="M26.6696 74.75H32.3304C32.8646 74.75 33.3104 74.75 33.6747 74.7797C34.0546 74.8108 34.4112 74.8779 34.7485 75.0497C35.2659 75.3134 35.6866 75.7341 35.9503 76.2515C36.1221 76.5888 36.1892 76.9454 36.2203 77.3253C36.25 77.6896 36.25 78.1354 36.25 78.6695V89.3305C36.25 89.8646 36.25 90.3104 36.2203 90.6747C36.1892 91.0546 36.1221 91.4112 35.9503 91.7485C35.6866 92.2659 35.2659 92.6866 34.7485 92.9503C34.4254 93.1149 34.0831 93.1894 33.7002 93.223C33.6364 93.2406 33.5693 93.25 33.5 93.25H32.9265C32.8359 93.2503 32.743 93.2502 32.6476 93.2501C31.52 93.2501 30.3924 93.2518 29.2648 93.2535C27.0082 93.2569 24.7517 93.2603 22.4952 93.25C22.4414 93.2495 22.3876 93.2456 22.3342 93.2399C22.2497 93.2308 22.1371 93.2136 22.0056 93.1807C21.7434 93.1152 21.3965 92.9849 21.05 92.725C20.3224 92.1793 19.75 91.183 19.75 89.5C19.75 89.3011 19.829 89.1103 19.9697 88.9697C20.1103 88.829 20.3011 88.75 20.5 88.75H22.75L22.75 78.6696C22.75 78.1354 22.75 77.6896 22.7797 77.3253C22.8108 76.9454 22.8779 76.5888 23.0497 76.2515C23.3134 75.7341 23.7341 75.3134 24.2515 75.0497C24.5888 74.8779 24.9454 74.8108 25.3253 74.7797C25.6896 74.75 26.1354 74.75 26.6696 74.75ZM34.0675 91.6138C34.3027 91.4939 34.4939 91.3027 34.6138 91.0675C34.6599 90.9769 34.7018 90.8396 34.7252 90.5525C34.7494 90.2566 34.75 89.8724 34.75 89.3V78.7C34.75 78.1276 34.7494 77.7434 34.7252 77.4475C34.7018 77.1604 34.6599 77.0231 34.6138 76.9325C34.4939 76.6973 34.3027 76.5061 34.0675 76.3862C33.9769 76.3401 33.8396 76.2982 33.5525 76.2748C33.2566 76.2506 32.8724 76.25 32.3 76.25H26.7C26.1276 76.25 25.7434 76.2506 25.4475 76.2748C25.1604 76.2982 25.0231 76.3401 24.9325 76.3862C24.6973 76.5061 24.5061 76.6973 24.3862 76.9325C24.3401 77.0231 24.2982 77.1604 24.2748 77.4475C24.2506 77.7434 24.25 78.1276 24.25 78.7V88.75H31.5C31.9142 88.75 32.25 89.0858 32.25 89.5C32.25 90.817 32.6776 91.3207 32.95 91.525C33.1035 91.6401 33.2566 91.6973 33.3694 91.7255C33.3883 91.7302 33.4057 91.7341 33.4216 91.7372C33.7712 91.721 33.9255 91.6861 34.0675 91.6138ZM22.5116 91.75H31.2294C31.0174 91.3486 30.8618 90.854 30.7915 90.25H21.3048C21.4289 91.0222 21.7369 91.3652 21.95 91.525C22.1035 91.6401 22.2566 91.6973 22.3694 91.7255C22.4254 91.7395 22.469 91.7457 22.494 91.7484C22.497 91.7487 22.4998 91.749 22.5023 91.7492C22.5063 91.7496 22.5095 91.7499 22.5116 91.75Z" fill="#5F5F6A"/>
<path d="M25.5 134.495C25.5 133.943 25.9477 133.495 26.5 133.495H32.5C33.0523 133.495 33.5 133.943 33.5 134.495C33.5 135.047 33.0523 135.495 32.5 135.495H26.5C25.9477 135.495 25.5 135.047 25.5 134.495Z" fill="#5F5F6A"/>
<path d="M30.1368 136.495H32.3632C32.4206 136.495 32.5018 136.495 32.5753 136.501C32.6633 136.508 32.8039 136.528 32.954 136.604C33.1422 136.7 33.2951 136.853 33.391 137.041C33.4675 137.191 33.4869 137.332 33.4941 137.42C33.5001 137.493 33.5 137.574 33.5 137.632V139.358C33.5 139.416 33.5001 139.497 33.4941 139.57C33.4869 139.658 33.4675 139.799 33.391 139.949C33.2951 140.137 33.1422 140.29 32.954 140.386C32.8039 140.462 32.6633 140.482 32.5753 140.489C32.5018 140.495 32.4206 140.495 32.3632 140.495H30.1368C30.0794 140.495 29.9982 140.495 29.9247 140.489C29.8367 140.482 29.6961 140.462 29.546 140.386C29.3578 140.29 29.2049 140.137 29.109 139.949C29.0325 139.799 29.0131 139.658 29.0059 139.57C28.9999 139.497 29 139.416 29 139.358V137.632C29 137.574 28.9999 137.493 29.0059 137.42C29.0131 137.332 29.0325 137.191 29.109 137.041C29.2049 136.853 29.3578 136.7 29.546 136.604C29.6961 136.528 29.8367 136.508 29.9247 136.501C29.9982 136.495 30.0794 136.495 30.1368 136.495ZM30.5 137.995V138.995H32V137.995H30.5Z" fill="#5F5F6A"/>
<path d="M26.25 136.745C25.8358 136.745 25.5 137.081 25.5 137.495C25.5 137.909 25.8358 138.245 26.25 138.245H27.5C27.9142 138.245 28.25 137.909 28.25 137.495C28.25 137.081 27.9142 136.745 27.5 136.745H26.25Z" fill="#5F5F6A"/>
<path d="M26.25 138.995C25.8358 138.995 25.5 139.331 25.5 139.745C25.5 140.159 25.8358 140.495 26.25 140.495H27.5C27.9142 140.495 28.25 140.159 28.25 139.745C28.25 139.331 27.9142 138.995 27.5 138.995H26.25Z" fill="#5F5F6A"/>
<path d="M26.25 141.745C25.8358 141.745 25.5 142.081 25.5 142.495C25.5 142.909 25.8358 143.245 26.25 143.245H32.75C33.1642 143.245 33.5 142.909 33.5 142.495C33.5 142.081 33.1642 141.745 32.75 141.745H26.25Z" fill="#5F5F6A"/>
<path d="M32.3304 130.745H26.6696C26.1354 130.745 25.6896 130.745 25.3253 130.775C24.9454 130.806 24.5888 130.873 24.2515 131.045C23.7341 131.308 23.3134 131.729 23.0497 132.247C22.8779 132.584 22.8108 132.94 22.7797 133.32C22.75 133.685 22.75 134.13 22.75 134.665L22.75 144.745H20.5C20.3011 144.745 20.1103 144.824 19.9697 144.965C19.829 145.105 19.75 145.296 19.75 145.495C19.75 147.178 20.3224 148.174 21.05 148.72C21.4558 149.024 21.9836 149.244 22.4989 149.245C23.4009 149.245 29.8299 149.245 32.6476 149.245C33.3555 149.246 34.1003 149.276 34.7485 148.945C35.2659 148.682 35.6866 148.261 35.9503 147.743C36.1221 147.406 36.1892 147.05 36.2203 146.67C36.25 146.305 36.25 145.86 36.25 145.325V134.665C36.25 134.13 36.25 133.685 36.2203 133.32C36.1892 132.94 36.1221 132.584 35.9503 132.247C35.6866 131.729 35.2659 131.308 34.7485 131.045C34.4112 130.873 34.0546 130.806 33.6747 130.775C33.3104 130.745 32.8646 130.745 32.3304 130.745ZM33.4216 147.732C33.3111 147.71 33.1292 147.654 32.95 147.52C32.6776 147.316 32.25 146.812 32.25 145.495C32.25 145.081 31.9142 144.745 31.5 144.745H24.25V134.695C24.25 134.123 24.2506 133.738 24.2748 133.442C24.2982 133.155 24.3401 133.018 24.3862 132.928C24.5061 132.692 24.6973 132.501 24.9325 132.381C25.0231 132.335 25.1604 132.293 25.4475 132.27C25.7434 132.246 26.1276 132.245 26.7 132.245H32.3C32.8724 132.245 33.2566 132.246 33.5525 132.27C33.8396 132.293 33.9769 132.335 34.0675 132.381C34.3027 132.501 34.4939 132.692 34.6138 132.928C34.6599 133.018 34.7018 133.155 34.7252 133.442C34.7494 133.738 34.75 134.123 34.75 134.695V145.295C34.75 145.867 34.7494 146.252 34.7252 146.548C34.7018 146.835 34.6599 146.972 34.6138 147.062C34.4939 147.298 34.3027 147.489 34.0675 147.609C33.9255 147.681 33.7712 147.716 33.4216 147.732ZM22.5116 147.745L22.5023 147.744L22.494 147.743C22.4188 147.735 22.1797 147.692 21.95 147.52C21.7369 147.36 21.4289 147.017 21.3048 146.245H30.7915C30.8618 146.849 31.0174 147.344 31.2294 147.745H22.5116Z" fill="#5F5F6A"/>
<path d="M25.5 190.5C25.5 190.086 25.8358 189.75 26.25 189.75H32.75C33.1642 189.75 33.5 190.086 33.5 190.5C33.5 190.914 33.1642 191.25 32.75 191.25H26.25C25.8358 191.25 25.5 190.914 25.5 190.5Z" fill="#5F5F6A"/>
<path d="M30.1384 192.75H32.3616C32.4211 192.75 32.4923 192.75 32.5549 192.755C32.6275 192.761 32.7315 192.776 32.8405 192.832C32.9816 192.904 33.0963 193.018 33.1683 193.16C33.2238 193.268 33.239 193.372 33.2449 193.445C33.2501 193.508 33.25 193.579 33.25 193.638V195.362C33.25 195.421 33.2501 195.492 33.2449 195.555C33.239 195.628 33.2238 195.732 33.1683 195.84C33.0963 195.982 32.9816 196.096 32.8405 196.168C32.7315 196.224 32.6275 196.239 32.5549 196.245C32.4923 196.25 32.4212 196.25 32.3616 196.25H30.1384C30.0789 196.25 30.0077 196.25 29.9451 196.245C29.8725 196.239 29.7685 196.224 29.6595 196.168C29.5184 196.096 29.4037 195.982 29.3317 195.84C29.2762 195.732 29.261 195.628 29.2551 195.555C29.2499 195.492 29.25 195.421 29.25 195.362V193.638C29.25 193.579 29.2499 193.508 29.2551 193.445C29.261 193.372 29.2762 193.268 29.3317 193.16C29.4037 193.018 29.5184 192.904 29.6595 192.832C29.7685 192.776 29.8725 192.761 29.9451 192.755C30.0077 192.75 30.0789 192.75 30.1384 192.75ZM30.25 193.75V195.25H32.25V193.75H30.25Z" fill="#5F5F6A"/>
<path d="M25.75 193.5C25.75 193.224 25.9739 193 26.25 193H27.5C27.7761 193 28 193.224 28 193.5C28 193.776 27.7761 194 27.5 194H26.25C25.9739 194 25.75 193.776 25.75 193.5Z" fill="#5F5F6A"/>
<path d="M26.25 195.25C25.9739 195.25 25.75 195.474 25.75 195.75C25.75 196.026 25.9739 196.25 26.25 196.25H27.5C27.7761 196.25 28 196.026 28 195.75C28 195.474 27.7761 195.25 27.5 195.25H26.25Z" fill="#5F5F6A"/>
<path d="M25.75 198.5C25.75 198.224 25.9739 198 26.25 198H32.75C33.0261 198 33.25 198.224 33.25 198.5C33.25 198.776 33.0261 199 32.75 199H26.25C25.9739 199 25.75 198.776 25.75 198.5Z" fill="#5F5F6A"/>
<path d="M32.3214 187H26.6786C26.1367 187 25.6996 187 25.3457 187.029C24.9813 187.059 24.6612 187.122 24.365 187.272C23.8946 187.512 23.5122 187.895 23.2725 188.365C23.1216 188.661 23.0587 188.981 23.0289 189.346C23 189.7 23 190.137 23 190.679V201H20.5C20.3674 201 20.2402 201.053 20.1464 201.146C20.0527 201.24 20 201.367 20 201.5C20 203.122 20.5483 204.036 21.2 204.525C21.5143 204.761 21.8289 204.879 22.0662 204.938C22.2053 204.973 22.349 204.997 22.4926 205C24.1498 205.012 29.6802 205 32.6161 205C33.3045 205 34.0011 205.05 34.635 204.728C35.4479 204.313 35.8986 203.542 35.9711 202.654C36 202.3 36 201.863 36 201.322V190.679C36 190.137 36 189.7 35.9711 189.346C35.9413 188.981 35.8784 188.661 35.7275 188.365C35.4878 187.895 35.1054 187.512 34.635 187.272C34.3388 187.122 34.0187 187.059 33.6543 187.029C33.3004 187 32.8633 187 32.3214 187ZM32.8 203.725C32.4517 203.464 32 202.878 32 201.5C32 201.224 31.7761 201 31.5 201H24V190.7C24 190.132 24.0004 189.736 24.0256 189.427C24.0503 189.125 24.0964 188.951 24.1635 188.819C24.3073 188.537 24.5368 188.307 24.819 188.163C24.9507 188.096 25.1245 188.05 25.4271 188.026C25.7355 188 26.1317 188 26.7 188H32.3C32.8683 188 33.2645 188 33.5729 188.026C33.8755 188.05 34.0493 188.096 34.181 188.163C34.4632 188.307 34.6927 188.537 34.8365 188.819C34.9036 188.951 34.9497 189.125 34.9744 189.427C34.9996 189.736 35 190.132 35 190.7V201.3C35 201.868 34.9996 202.264 34.9744 202.573C34.9298 203.119 34.6882 203.578 34.181 203.837C33.7311 204.066 33.2013 204.026 32.8 203.725ZM31.6806 204H22.5049C22.253 203.988 21.9984 203.874 21.8 203.725C21.4972 203.498 21.1161 203.025 21.0218 202H31.0185C31.0873 202.896 31.3414 203.542 31.6806 204Z" fill="#5F5F6A"/>
</svg>
