<svg width="56" height="168" viewBox="0 0 56 168" fill="none" xmlns="http://www.w3.org/2000/svg">
<path fill-rule="evenodd" clip-rule="evenodd" d="M34.8028 28C36.0391 29.6665 36.4729 31.3234 35.7936 32.5C35.1143 33.6766 33.4624 34.1293 31.4011 33.892C30.576 35.7958 29.358 37 27.9994 37C26.6407 37 25.4227 35.7958 24.5976 33.892C22.5363 34.1293 20.8844 33.6766 20.2051 32.5C19.5258 31.3234 19.9597 29.6665 21.1959 28C19.9597 26.3335 19.5258 24.6766 20.2051 23.5C20.8845 22.3234 22.5363 21.8706 24.5976 22.108C25.4227 20.2042 26.6407 19 27.9994 19C29.358 19 30.576 20.2042 31.4011 22.108C33.4624 21.8706 35.1143 22.3234 35.7936 23.5C36.4729 24.6766 36.039 26.3335 34.8028 28ZM29.8397 33.6931C29.8536 33.6654 29.8674 33.6374 29.8811 33.6091C29.2708 33.4551 28.6397 33.2497 27.9994 32.9936C27.3591 33.2497 26.7279 33.4551 26.1177 33.6091C26.1314 33.6374 26.1452 33.6654 26.159 33.6931C26.8936 35.1624 27.631 35.5 27.9994 35.5C28.3678 35.5 29.1051 35.1624 29.8397 33.6931ZM25.576 32.1974C25.7349 32.1599 25.8963 32.1182 26.0598 32.0723C25.9562 32.0152 25.8527 31.9568 25.7494 31.8971C25.646 31.8374 25.5437 31.777 25.4424 31.7159C25.4844 31.8804 25.529 32.041 25.576 32.1974ZM29.939 32.0723C30.1025 32.1182 30.2638 32.1599 30.4227 32.1974C30.4697 32.041 30.5143 31.8804 30.5563 31.7159C30.4551 31.777 30.3527 31.8374 30.2494 31.8971C30.146 31.9568 30.0425 32.0152 29.939 32.0723ZM30.9136 29.6825C30.4751 30.0002 30.0028 30.3074 29.4994 30.5981C28.996 30.8887 28.4937 31.1441 27.9994 31.365C27.505 31.1441 27.0028 30.8887 26.4994 30.5981C25.996 30.3074 25.5237 30.0002 25.0852 29.6825C25.0293 29.1439 24.9994 28.5813 24.9994 28C24.9994 27.4187 25.0293 26.856 25.0852 26.3174C25.5237 25.9998 25.996 25.6925 26.4994 25.4019C27.0028 25.1113 27.505 24.8559 27.9994 24.6349C28.4937 24.8559 28.996 25.1113 29.4994 25.4019C30.0028 25.6925 30.4751 25.9998 30.9136 26.3175C30.9694 26.8561 30.9994 27.4187 30.9994 28C30.9994 28.5813 30.9694 29.1439 30.9136 29.6825ZM32.324 30.4968C32.2256 31.1793 32.088 31.8286 31.9162 32.4341C31.9475 32.4364 31.9787 32.4385 32.0096 32.4403C33.6493 32.5388 34.3104 32.069 34.4946 31.75C34.6788 31.4309 34.755 30.6236 33.8499 29.2528C33.8329 29.2269 33.8155 29.201 33.7979 29.175C33.3594 29.6265 32.8659 30.0703 32.324 30.4968ZM32.8461 28C32.7342 28.1188 32.6174 28.2377 32.4959 28.3564C32.4982 28.2382 32.4994 28.1194 32.4994 28C32.4994 27.8806 32.4982 27.7618 32.4959 27.6436C32.6174 27.7622 32.7342 27.8811 32.8461 28ZM31.9162 23.5658C31.9475 23.5635 31.9786 23.5615 32.0096 23.5596C33.6493 23.4612 34.3103 23.9309 34.4945 24.25C34.6787 24.569 34.755 25.3764 33.8499 26.7472C33.8328 26.7731 33.8155 26.799 33.7979 26.825C33.3594 26.3735 32.8659 25.9296 32.3239 25.5032C32.2256 24.8206 32.0879 24.1713 31.9162 23.5658ZM29.881 22.3908C29.8674 22.3626 29.8536 22.3346 29.8397 22.3069C29.1051 20.8376 28.3678 20.5 27.9994 20.5C27.631 20.5 26.8936 20.8376 26.159 22.3069C26.1452 22.3346 26.1314 22.3626 26.1177 22.3908C26.728 22.5448 27.3591 22.7503 27.9994 23.0064C28.6397 22.7503 29.2708 22.5448 29.881 22.3908ZM29.939 23.9277C30.1025 23.8818 30.2638 23.8401 30.4227 23.8026C30.4697 23.959 30.5143 24.1195 30.5563 24.2841C30.4551 24.223 30.3527 24.1625 30.2494 24.1029C30.146 24.0432 30.0425 23.9848 29.939 23.9277ZM26.0598 23.9277C25.8963 23.8818 25.7349 23.8401 25.576 23.8026C25.529 23.959 25.4844 24.1195 25.4424 24.2841C25.5437 24.223 25.646 24.1625 25.7494 24.1029C25.8527 24.0432 25.9562 23.9848 26.0598 23.9277ZM23.6748 25.5032C23.7731 24.8206 23.9108 24.1713 24.0825 23.5658C24.0512 23.5636 24.0201 23.5615 23.9891 23.5596C22.3494 23.4612 21.6884 23.9309 21.5042 24.25C21.32 24.569 21.2437 25.3764 22.1488 26.7472C22.1659 26.7731 22.1832 26.799 22.2008 26.825C22.6394 26.3735 23.1328 25.9296 23.6748 25.5032ZM22.2008 29.175C22.1832 29.201 22.1659 29.2269 22.1488 29.2528C21.2437 30.6236 21.32 31.4309 21.5042 31.75C21.6884 32.069 22.3494 32.5388 23.9891 32.4403C24.0201 32.4385 24.0512 32.4364 24.0825 32.4341C23.9108 31.8286 23.7731 31.1794 23.6748 30.4968C23.1328 30.0703 22.6394 29.6265 22.2008 29.175ZM23.1526 28C23.2646 27.8811 23.3814 27.7622 23.5028 27.6435C23.5005 27.7618 23.4994 27.8806 23.4994 28C23.4994 28.1194 23.5005 28.2382 23.5028 28.3564C23.3813 28.2378 23.2646 28.1189 23.1526 28Z" fill="#5F5F6A"/>
<circle opacity="0.5" cx="28" cy="28" r="0.75" fill="#5F5F6A" stroke="#71717A" stroke-width="0.5"/>
<path d="M27.9994 85C28.5517 85 28.9994 84.5523 28.9994 84C28.9994 83.4477 28.5517 83 27.9994 83C27.4471 83 26.9994 83.4477 26.9994 84C26.9994 84.5523 27.4471 85 27.9994 85Z" fill="#5F5F6A"/>
<path fill-rule="evenodd" clip-rule="evenodd" d="M35.7936 88.5C36.4729 87.3234 36.0391 85.6665 34.8028 84C36.039 82.3335 36.4729 80.6766 35.7936 79.5C35.1143 78.3234 33.4624 77.8706 31.4011 78.108C30.576 76.2042 29.358 75 27.9994 75C26.6407 75 25.4227 76.2042 24.5976 78.108C22.5363 77.8706 20.8845 78.3234 20.2051 79.5C19.5258 80.6766 19.9597 82.3335 21.1959 84C19.9597 85.6665 19.5258 87.3234 20.2051 88.5C20.8844 89.6766 22.5363 90.1293 24.5976 89.892C25.4227 91.7958 26.6407 93 27.9994 93C29.358 93 30.576 91.7958 31.4011 89.892C33.4624 90.1293 35.1143 89.6766 35.7936 88.5ZM29.8811 89.6091C29.8674 89.6374 29.8536 89.6654 29.8397 89.6931C29.1051 91.1624 28.3678 91.5 27.9994 91.5C27.631 91.5 26.8936 91.1624 26.159 89.6931C26.1452 89.6654 26.1314 89.6374 26.1177 89.6091C26.7279 89.4551 27.3591 89.2497 27.9994 88.9936C28.6397 89.2497 29.2708 89.4551 29.8811 89.6091ZM26.0598 88.0723C25.8963 88.1182 25.7349 88.1599 25.576 88.1974C25.529 88.041 25.4844 87.8804 25.4424 87.7159C25.5437 87.777 25.646 87.8374 25.7494 87.8971C25.8527 87.9568 25.9562 88.0152 26.0598 88.0723ZM30.4227 88.1974C30.2638 88.1599 30.1025 88.1182 29.939 88.0723C30.0425 88.0152 30.146 87.9568 30.2494 87.8971C30.3527 87.8374 30.4551 87.777 30.5563 87.7159C30.5143 87.8804 30.4697 88.041 30.4227 88.1974ZM29.4994 86.5981C30.0028 86.3074 30.4751 86.0002 30.9136 85.6825C30.9694 85.1439 30.9994 84.5813 30.9994 84C30.9994 83.4187 30.9694 82.8561 30.9136 82.3175C30.4751 81.9998 30.0028 81.6925 29.4994 81.4019C28.996 81.1113 28.4937 80.8559 27.9994 80.6349C27.505 80.8559 27.0028 81.1113 26.4994 81.4019C25.996 81.6925 25.5237 81.9998 25.0852 82.3174C25.0293 82.856 24.9994 83.4187 24.9994 84C24.9994 84.5813 25.0293 85.1439 25.0852 85.6825C25.5237 86.0002 25.996 86.3074 26.4994 86.5981C27.0028 86.8887 27.505 87.1441 27.9994 87.365C28.4937 87.1441 28.996 86.8887 29.4994 86.5981ZM31.9162 88.4341C32.088 87.8286 32.2256 87.1793 32.324 86.4968C32.8659 86.0703 33.3594 85.6265 33.7979 85.175C33.8155 85.201 33.8329 85.2269 33.8499 85.2528C34.755 86.6236 34.6788 87.4309 34.4946 87.75C34.3104 88.069 33.6493 88.5388 32.0096 88.4403C31.9787 88.4385 31.9475 88.4364 31.9162 88.4341ZM32.4959 84.3564C32.6174 84.2377 32.7342 84.1188 32.8461 84C32.7342 83.8811 32.6174 83.7622 32.4959 83.6436C32.4982 83.7618 32.4994 83.8806 32.4994 84C32.4994 84.1194 32.4982 84.2382 32.4959 84.3564ZM32.0096 79.5596C31.9786 79.5615 31.9475 79.5635 31.9162 79.5658C32.0879 80.1713 32.2256 80.8206 32.3239 81.5032C32.8659 81.9296 33.3594 82.3735 33.7979 82.825C33.8155 82.799 33.8328 82.7731 33.8499 82.7472C34.755 81.3764 34.6787 80.569 34.4945 80.25C34.3103 79.9309 33.6493 79.4612 32.0096 79.5596ZM29.8397 78.3069C29.8536 78.3346 29.8674 78.3626 29.881 78.3908C29.2708 78.5448 28.6397 78.7503 27.9994 79.0064C27.3591 78.7503 26.728 78.5448 26.1177 78.3908C26.1314 78.3626 26.1452 78.3346 26.159 78.3069C26.8936 76.8376 27.631 76.5 27.9994 76.5C28.3678 76.5 29.1051 76.8376 29.8397 78.3069ZM30.4227 79.8026C30.2638 79.8401 30.1025 79.8818 29.939 79.9277C30.0425 79.9848 30.146 80.0432 30.2494 80.1029C30.3527 80.1625 30.4551 80.223 30.5563 80.2841C30.5143 80.1195 30.4697 79.959 30.4227 79.8026ZM25.576 79.8026C25.7349 79.8401 25.8963 79.8818 26.0598 79.9277C25.9562 79.9848 25.8527 80.0432 25.7494 80.1029C25.646 80.1625 25.5437 80.223 25.4424 80.2841C25.4844 80.1195 25.529 79.959 25.576 79.8026ZM24.0825 79.5658C23.9108 80.1713 23.7731 80.8206 23.6748 81.5032C23.1328 81.9296 22.6394 82.3735 22.2008 82.825C22.1832 82.799 22.1659 82.7731 22.1488 82.7472C21.2437 81.3764 21.32 80.569 21.5042 80.25C21.6884 79.9309 22.3494 79.4612 23.9891 79.5596C24.0201 79.5615 24.0512 79.5636 24.0825 79.5658ZM22.1488 85.2528C22.1659 85.2269 22.1832 85.201 22.2008 85.175C22.6394 85.6265 23.1328 86.0703 23.6748 86.4968C23.7731 87.1794 23.9108 87.8286 24.0825 88.4341C24.0512 88.4364 24.0201 88.4385 23.9891 88.4403C22.3494 88.5388 21.6884 88.069 21.5042 87.75C21.32 87.4309 21.2437 86.6236 22.1488 85.2528ZM23.5028 83.6435C23.3814 83.7622 23.2646 83.8811 23.1526 84C23.2646 84.1189 23.3813 84.2378 23.5028 84.3564C23.5005 84.2382 23.4994 84.1194 23.4994 84C23.4994 83.8806 23.5005 83.7618 23.5028 83.6435Z" fill="#5F5F6A"/>
<path d="M27.9994 141C28.5517 141 28.9994 140.552 28.9994 140C28.9994 139.448 28.5517 139 27.9994 139C27.4471 139 26.9994 139.448 26.9994 140C26.9994 140.552 27.4471 141 27.9994 141Z" fill="#5F5F6A"/>
<path fill-rule="evenodd" clip-rule="evenodd" d="M35.7936 144.5C36.4729 143.323 36.0391 141.666 34.8028 140C36.039 138.333 36.4729 136.677 35.7936 135.5C35.1143 134.323 33.4624 133.871 31.4011 134.108C30.576 132.204 29.358 131 27.9994 131C26.6407 131 25.4227 132.204 24.5976 134.108C22.5363 133.871 20.8845 134.323 20.2051 135.5C19.5258 136.677 19.9597 138.333 21.1959 140C19.9597 141.666 19.5258 143.323 20.2051 144.5C20.8844 145.677 22.5363 146.129 24.5976 145.892C25.4227 147.796 26.6407 149 27.9994 149C29.358 149 30.576 147.796 31.4011 145.892C33.4624 146.129 35.1143 145.677 35.7936 144.5ZM30.3799 145.725C30.3494 145.79 30.3184 145.854 30.2869 145.917C29.5257 147.439 28.6592 148 27.9994 148C27.3396 148 26.473 147.439 25.7118 145.917C25.6804 145.854 25.6494 145.79 25.6189 145.725C26.3813 145.564 27.1829 145.32 27.9994 144.994C28.8159 145.32 29.6174 145.564 30.3799 145.725ZM26.6904 144.404C26.1902 144.566 25.704 144.691 25.239 144.781C25.0844 144.333 24.95 143.85 24.8398 143.336C25.1328 143.529 25.4363 143.716 25.7494 143.897C26.0625 144.078 26.3766 144.247 26.6904 144.404ZM30.7598 144.781C30.2947 144.691 29.8085 144.566 29.3084 144.404C29.6222 144.247 29.9363 144.078 30.2494 143.897C30.5625 143.716 30.8659 143.529 31.159 143.336C31.0487 143.85 30.9144 144.333 30.7598 144.781ZM29.7494 143.031C30.3357 142.693 30.8829 142.331 31.3864 141.955C31.4599 141.332 31.4994 140.677 31.4994 140C31.4994 139.323 31.4599 138.668 31.3864 138.044C30.8829 137.669 30.3357 137.307 29.7494 136.969C29.1631 136.63 28.5764 136.337 27.9994 136.089C27.4223 136.337 26.8357 136.63 26.2494 136.969C25.663 137.307 25.1159 137.669 24.6124 138.044C24.5388 138.668 24.4994 139.323 24.4994 140C24.4994 140.677 24.5388 141.332 24.6124 141.955C25.1159 142.331 25.6631 142.693 26.2494 143.031C26.8357 143.37 27.4223 143.663 27.9994 143.911C28.5764 143.663 29.163 143.37 29.7494 143.031ZM31.7668 144.924C32.0092 144.183 32.1985 143.367 32.324 142.497C33.015 141.953 33.6273 141.381 34.1473 140.801C34.1885 140.86 34.2285 140.919 34.2672 140.977C35.205 142.398 35.2575 143.429 34.9276 144C34.5977 144.571 33.6787 145.041 31.9796 144.939C31.9095 144.935 31.8385 144.93 31.7668 144.924ZM32.468 141.068C32.8579 140.716 33.2097 140.358 33.5202 140C33.2097 139.642 32.8579 139.284 32.468 138.932C32.4887 139.282 32.4994 139.638 32.4994 140C32.4994 140.362 32.4887 140.718 32.468 141.068ZM31.9796 135.061C31.9094 135.065 31.8385 135.07 31.7668 135.076C32.0092 135.817 32.1985 136.633 32.3239 137.503C33.015 138.047 33.6273 138.619 34.1473 139.199C34.1885 139.14 34.2284 139.081 34.2672 139.023C35.205 137.602 35.2575 136.571 34.9276 136C34.5977 135.429 33.6786 134.959 31.9796 135.061ZM30.2869 134.083C30.3184 134.146 30.3493 134.21 30.3798 134.275C29.6174 134.436 28.8159 134.68 27.9994 135.006C27.1829 134.68 26.3813 134.436 25.6189 134.275C25.6494 134.21 25.6804 134.146 25.7118 134.083C26.473 132.561 27.3396 132 27.9994 132C28.6592 132 29.5257 132.561 30.2869 134.083ZM30.7598 135.219C30.2947 135.309 29.8085 135.434 29.3084 135.596C29.6222 135.753 29.9363 135.922 30.2494 136.103C30.5625 136.284 30.8659 136.471 31.159 136.664C31.0487 136.15 30.9143 135.667 30.7598 135.219ZM25.239 135.219C25.704 135.309 26.1902 135.434 26.6903 135.596C26.3766 135.753 26.0624 135.922 25.7494 136.103C25.4363 136.284 25.1328 136.471 24.8398 136.664C24.95 136.15 25.0844 135.667 25.239 135.219ZM24.2319 135.076C23.9895 135.817 23.8002 136.633 23.6748 137.503C22.9837 138.047 22.3715 138.619 21.8515 139.199C21.8103 139.14 21.7703 139.081 21.7315 139.023C20.7937 137.602 20.7413 136.571 21.0712 136C21.4011 135.429 22.3201 134.959 24.0191 135.061C24.0893 135.065 24.1602 135.07 24.2319 135.076ZM21.7315 140.977C21.7703 140.919 21.8102 140.86 21.8515 140.801C22.3715 141.381 22.9837 141.953 23.6748 142.497C23.8002 143.367 23.9895 144.183 24.2319 144.924C24.1602 144.93 24.0893 144.935 24.0191 144.939C22.3201 145.041 21.4011 144.571 21.0712 144C20.7412 143.429 20.7937 142.398 21.7315 140.977ZM23.5308 138.932C23.1409 139.284 22.789 139.642 22.4785 140C22.789 140.358 23.1409 140.716 23.5307 141.068C23.51 140.718 23.4994 140.362 23.4994 140C23.4994 139.638 23.51 139.282 23.5308 138.932Z" fill="#5F5F6A"/>
</svg>
