<svg width="56" height="224" viewBox="0 0 56 224" fill="none" xmlns="http://www.w3.org/2000/svg">
<path d="M25.25 21C25.25 19.4812 26.4812 18.25 28 18.25C29.5188 18.25 30.75 19.4812 30.75 21C30.75 21.1742 30.7338 21.3446 30.7028 21.5098C31.2804 21.8253 31.6844 22.1934 31.9927 22.4743C32.0896 22.5626 32.1772 22.6424 32.2576 22.7091C32.4607 22.8775 32.6492 23.0019 32.8915 23.0909C33.1381 23.1815 33.4803 23.25 34.0002 23.25C34.4144 23.25 34.7502 23.5858 34.7502 24C34.7502 24.4142 34.4144 24.75 34.0002 24.75C33.3479 24.75 32.8232 24.6639 32.3741 24.4989C31.9206 24.3322 31.5846 24.0997 31.2999 23.8636C31.1476 23.7372 31.0167 23.6189 30.8932 23.5072C30.6213 23.2612 30.3849 23.0474 30.0334 22.8514C29.6928 23.2253 29.2505 23.5049 28.7502 23.6464V33C28.7502 34.0961 29.0751 34.7643 29.468 35.1572C29.8667 35.5558 30.4137 35.75 31.0002 35.75C31.4144 35.75 31.7502 36.0858 31.7502 36.5C31.7502 36.9142 31.4144 37.25 31.0002 37.25C30.0866 37.25 29.1337 36.9442 28.4073 36.2178C28.2502 36.0607 28.1073 35.8875 27.9796 35.6985C27.9403 35.7599 27.8994 35.82 27.8567 35.8786C27.2 36.7816 26.2124 37.25 25.0002 37.25C24.586 37.25 24.2502 36.9142 24.2502 36.5C24.2502 36.0858 24.586 35.75 25.0002 35.75C25.788 35.75 26.3003 35.4684 26.6436 34.9964C27.0139 34.4873 27.2502 33.6675 27.2502 32.5V23.6465C26.7498 23.505 26.3074 23.2255 25.9667 22.8516C25.6153 23.0475 25.379 23.2612 25.1071 23.5072C24.9836 23.6189 24.8527 23.7372 24.7004 23.8636C24.4158 24.0997 24.0797 24.3322 23.6263 24.4989C23.1771 24.6639 22.6525 24.75 22.0002 24.75C21.586 24.75 21.2502 24.4142 21.2502 24C21.2502 23.5858 21.586 23.25 22.0002 23.25C22.5201 23.25 22.8623 23.1815 23.1088 23.0909C23.3511 23.0019 23.5397 22.8775 23.7427 22.7091C23.8232 22.6424 23.9107 22.5626 24.0077 22.4743C24.3159 22.1935 24.7198 21.8254 25.2972 21.5099C25.2662 21.3447 25.25 21.1742 25.25 21ZM28 19.75C27.3096 19.75 26.75 20.3096 26.75 21C26.75 21.6904 27.3096 22.25 28 22.25C28.6904 22.25 29.25 21.6904 29.25 21C29.25 20.3096 28.6904 19.75 28 19.75Z" fill="#5F5F6A"/>
<path d="M23.1108 25.4569L24.968 29.25H25.5C25.9142 29.25 26.25 29.5858 26.25 30C26.25 32.3472 24.3472 34.25 22 34.25C19.6528 34.25 17.75 32.3472 17.75 30C17.75 29.5858 18.0858 29.25 18.5 29.25H19.0323L20.8895 25.4569C20.8952 25.4453 20.9012 25.4338 20.9075 25.4225C21.3837 24.5652 22.6166 24.5652 23.0929 25.4225C23.0992 25.4338 23.1051 25.4453 23.1108 25.4569ZM22.0002 26.5996L20.7025 29.25H23.2979L22.0002 26.5996Z" fill="#5F5F6A"/>
<path d="M36.968 29.25L35.1108 25.4569C35.1051 25.4453 35.0992 25.4338 35.0929 25.4225C34.6166 24.5652 33.3837 24.5652 32.9075 25.4225C32.9012 25.4338 32.8952 25.4453 32.8895 25.4569L31.0323 29.25H30.5C30.0858 29.25 29.75 29.5858 29.75 30C29.75 32.3472 31.6528 34.25 34 34.25C36.3472 34.25 38.25 32.3472 38.25 30C38.25 29.5858 37.9142 29.25 37.5 29.25H36.968ZM35.2979 29.25H32.7025L34.0002 26.5996L35.2979 29.25Z" fill="#5F5F6A"/>
<g opacity="0.5">
<path d="M22 89.5C20.067 89.5 18.5 87.933 18.5 86H25.5C25.5 87.933 23.933 89.5 22 89.5Z" fill="#5F5F6A"/>
<path d="M34 89.5C32.067 89.5 30.5 87.933 30.5 86H37.5C37.5 87.933 35.933 89.5 34 89.5Z" fill="#5F5F6A"/>
</g>
<path d="M28 74.25C26.4812 74.25 25.25 75.4812 25.25 77C25.25 77.1742 25.2662 77.3447 25.2972 77.5099C24.7198 77.8254 24.3159 78.1935 24.0077 78.4743C23.9107 78.5626 23.8232 78.6424 23.7427 78.7091C23.5397 78.8775 23.3511 79.0019 23.1088 79.0909C22.8623 79.1815 22.5201 79.25 22.0002 79.25C21.586 79.25 21.2502 79.5858 21.2502 80C21.2502 80.4142 21.586 80.75 22.0002 80.75C22.6525 80.75 23.1771 80.6639 23.6263 80.4989C24.0797 80.3322 24.4158 80.0997 24.7004 79.8636C24.8527 79.7372 24.9836 79.6189 25.1071 79.5072C25.379 79.2612 25.6153 79.0475 25.9667 78.8516C26.3074 79.2255 26.7498 79.505 27.2502 79.6465V88.5C27.2502 89.6675 27.0139 90.4873 26.6436 90.9964C26.3003 91.4684 25.788 91.75 25.0002 91.75C24.586 91.75 24.2502 92.0858 24.2502 92.5C24.2502 92.9142 24.586 93.25 25.0002 93.25C26.2124 93.25 27.2 92.7816 27.8567 91.8786C27.8994 91.82 27.9403 91.7599 27.9796 91.6985C28.1073 91.8875 28.2502 92.0607 28.4073 92.2178C29.1337 92.9442 30.0866 93.25 31.0002 93.25C31.4144 93.25 31.7502 92.9142 31.7502 92.5C31.7502 92.0858 31.4144 91.75 31.0002 91.75C30.4137 91.75 29.8667 91.5558 29.468 91.1572C29.0751 90.7643 28.7502 90.0961 28.7502 89V79.6464C29.2505 79.5049 29.6928 79.2253 30.0334 78.8514C30.3849 79.0474 30.6212 79.2611 30.8932 79.5072C31.0167 79.6189 31.1476 79.7372 31.2999 79.8636C31.5846 80.0997 31.9206 80.3322 32.3741 80.4989C32.8232 80.6639 33.3479 80.75 34.0002 80.75C34.4144 80.75 34.7502 80.4142 34.7502 80C34.7502 79.5858 34.4144 79.25 34.0002 79.25C33.4803 79.25 33.1381 79.1815 32.8915 79.0909C32.6492 79.0019 32.4607 78.8775 32.2576 78.7091C32.1772 78.6424 32.0896 78.5626 31.9927 78.4743C31.6844 78.1934 31.2804 77.8253 30.7028 77.5098C30.7338 77.3446 30.75 77.1742 30.75 77C30.75 75.4812 29.5188 74.25 28 74.25ZM26.75 77C26.75 76.3096 27.3096 75.75 28 75.75C28.6904 75.75 29.25 76.3096 29.25 77C29.25 77.6904 28.6904 78.25 28 78.25C27.3096 78.25 26.75 77.6904 26.75 77Z" fill="#5F5F6A"/>
<path d="M24.968 85.25L23.1108 81.4569C23.1051 81.4453 23.0992 81.4338 23.0929 81.4225C22.6166 80.5652 21.3837 80.5652 20.9075 81.4225C20.9012 81.4338 20.8952 81.4453 20.8895 81.4569L19.0323 85.25H18.5C18.0858 85.25 17.75 85.5858 17.75 86C17.75 88.3472 19.6528 90.25 22 90.25C24.3472 90.25 26.25 88.3472 26.25 86C26.25 85.5858 25.9142 85.25 25.5 85.25H24.968ZM23.2979 85.25H20.7025L22.0002 82.5996L23.2979 85.25ZM24.4845 86.75C24.4953 86.7502 24.5061 86.7502 24.5169 86.75H24.6465C24.32 87.9043 23.2588 88.75 22 88.75C20.7412 88.75 19.68 87.9043 19.3535 86.75H19.4834C19.4942 86.7502 19.505 86.7502 19.5158 86.75H24.4845Z" fill="#5F5F6A"/>
<path d="M36.968 85.25H37.5C37.9142 85.25 38.25 85.5858 38.25 86C38.25 88.3472 36.3472 90.25 34 90.25C31.6528 90.25 29.75 88.3472 29.75 86C29.75 85.5858 30.0858 85.25 30.5 85.25H31.0323L32.8895 81.4569C32.8952 81.4453 32.9012 81.4338 32.9075 81.4225C33.3837 80.5652 34.6166 80.5652 35.0929 81.4225C35.0992 81.4338 35.1051 81.4453 35.1108 81.4569L36.968 85.25ZM36.4845 86.75H31.5158C31.505 86.7502 31.4942 86.7502 31.4834 86.75H31.3535C31.68 87.9043 32.7412 88.75 34 88.75C35.2588 88.75 36.32 87.9043 36.6465 86.75H36.5169C36.5061 86.7502 36.4953 86.7502 36.4845 86.75ZM35.2979 85.25L34.0002 82.5996L32.7025 85.25H35.2979Z" fill="#5F5F6A"/>
<path d="M28 130.25C26.4812 130.25 25.25 131.481 25.25 133C25.25 133.174 25.2662 133.345 25.2972 133.51C24.7198 133.825 24.3159 134.193 24.0077 134.474C23.9107 134.563 23.8232 134.642 23.7427 134.709C23.5397 134.878 23.3511 135.002 23.1088 135.091C22.8623 135.182 22.5201 135.25 22.0002 135.25C21.586 135.25 21.2502 135.586 21.2502 136C21.2502 136.414 21.586 136.75 22.0002 136.75C22.6525 136.75 23.1771 136.664 23.6263 136.499C24.0797 136.332 24.4158 136.1 24.7004 135.864C24.8527 135.737 24.9836 135.619 25.1071 135.507C25.379 135.261 25.6153 135.047 25.9667 134.852C26.3074 135.225 26.7498 135.505 27.2502 135.647V144.5C27.2502 145.667 27.0139 146.487 26.6436 146.996C26.3003 147.468 25.788 147.75 25.0002 147.75C24.586 147.75 24.2502 148.086 24.2502 148.5C24.2502 148.914 24.586 149.25 25.0002 149.25C26.2124 149.25 27.2 148.782 27.8567 147.879C27.8994 147.82 27.9403 147.76 27.9796 147.698C28.1073 147.888 28.2502 148.061 28.4073 148.218C29.1337 148.944 30.0866 149.25 31.0002 149.25C31.4144 149.25 31.7502 148.914 31.7502 148.5C31.7502 148.086 31.4144 147.75 31.0002 147.75C30.4137 147.75 29.8667 147.556 29.468 147.157C29.0751 146.764 28.7502 146.096 28.7502 145V135.646C29.2505 135.505 29.6928 135.225 30.0334 134.851C30.3849 135.047 30.6212 135.261 30.8932 135.507C31.0167 135.619 31.1476 135.737 31.2999 135.864C31.5846 136.1 31.9206 136.332 32.3741 136.499C32.8232 136.664 33.3479 136.75 34.0002 136.75C34.4144 136.75 34.7502 136.414 34.7502 136C34.7502 135.586 34.4144 135.25 34.0002 135.25C33.4803 135.25 33.1381 135.182 32.8915 135.091C32.6492 135.002 32.4607 134.878 32.2576 134.709C32.1772 134.642 32.0896 134.563 31.9927 134.474C31.6844 134.193 31.2804 133.825 30.7028 133.51C30.7338 133.345 30.75 133.174 30.75 133C30.75 131.481 29.5188 130.25 28 130.25ZM26.75 133C26.75 132.31 27.3096 131.75 28 131.75C28.6904 131.75 29.25 132.31 29.25 133C29.25 133.69 28.6904 134.25 28 134.25C27.3096 134.25 26.75 133.69 26.75 133Z" fill="#5F5F6A"/>
<path d="M18.5 141.25C18.0858 141.25 17.75 141.586 17.75 142C17.75 144.347 19.6528 146.25 22 146.25C24.3472 146.25 26.25 144.347 26.25 142C26.25 141.586 25.9142 141.25 25.5 141.25H24.968L23.1108 137.457C23.1051 137.445 23.0992 137.434 23.0929 137.422C22.6166 136.565 21.3837 136.565 20.9075 137.422C20.9012 137.434 20.8952 137.445 20.8895 137.457L19.0323 141.25H18.5ZM19.4834 142.75C19.4942 142.75 19.505 142.75 19.5158 142.75H24.4845C24.4953 142.75 24.5061 142.75 24.5169 142.75H24.6465C24.32 143.904 23.2588 144.75 22 144.75C20.7412 144.75 19.68 143.904 19.3535 142.75H19.4834ZM23.2979 141.25H20.7025L22.0002 138.6L23.2979 141.25Z" fill="#5F5F6A"/>
<path d="M29.75 142C29.75 141.586 30.0858 141.25 30.5 141.25H31.0323L32.8895 137.457C32.8952 137.445 32.9012 137.434 32.9075 137.422C33.3837 136.565 34.6166 136.565 35.0929 137.422C35.0992 137.434 35.1051 137.445 35.1108 137.457L36.968 141.25H37.5C37.9142 141.25 38.25 141.586 38.25 142C38.25 144.347 36.3472 146.25 34 146.25C31.6528 146.25 29.75 144.347 29.75 142ZM36.4845 142.75H31.5158C31.505 142.75 31.4942 142.75 31.4834 142.75H31.3535C31.68 143.904 32.7412 144.75 34 144.75C35.2588 144.75 36.32 143.904 36.6465 142.75H36.5169C36.5061 142.75 36.4953 142.75 36.4845 142.75ZM35.2979 141.25L34.0002 138.6L32.7025 141.25H35.2979Z" fill="#5F5F6A"/>
<path d="M28 186.5C26.6193 186.5 25.5 187.619 25.5 189C25.5 189.222 25.529 189.437 25.5833 189.643C24.9494 189.956 24.5282 190.34 24.1899 190.647C24.0876 190.74 23.993 190.826 23.9023 190.901C23.6856 191.081 23.4725 191.224 23.195 191.326C22.9147 191.429 22.5421 191.5 22.0001 191.5C21.724 191.5 21.5001 191.724 21.5001 192C21.5001 192.276 21.724 192.5 22.0001 192.5C22.6303 192.5 23.1246 192.417 23.54 192.264C23.9582 192.11 24.2697 191.896 24.5408 191.671C24.6791 191.556 24.8027 191.445 24.9227 191.336C25.245 191.044 25.5414 190.776 26.0285 190.537C26.3883 190.998 26.9059 191.329 27.5001 191.45V200.5C27.5001 201.695 27.2593 202.575 26.8457 203.143C26.4502 203.687 25.8586 204 25.0001 204C24.724 204 24.5001 204.224 24.5001 204.5C24.5001 204.776 24.724 205 25.0001 205C26.1416 205 27.05 204.563 27.6545 203.732C27.7745 203.567 27.8808 203.388 27.974 203.198C28.1398 203.521 28.3453 203.802 28.5841 204.041C29.2558 204.713 30.1411 205 31.0001 205C31.2763 205 31.5001 204.776 31.5001 204.5C31.5001 204.224 31.2763 204 31.0001 204C30.3591 204 29.7444 203.787 29.2912 203.334C28.8417 202.884 28.5001 202.147 28.5001 201V191.45C29.0942 191.329 29.6118 190.998 29.9715 190.537C30.4587 190.776 30.7552 191.044 31.0775 191.336C31.1975 191.445 31.3211 191.556 31.4595 191.671C31.7305 191.896 32.042 192.11 32.4602 192.264C32.8756 192.417 33.3699 192.5 34.0001 192.5C34.2763 192.5 34.5001 192.276 34.5001 192C34.5001 191.724 34.2763 191.5 34.0001 191.5C33.4582 191.5 33.0855 191.429 32.8052 191.326C32.5277 191.224 32.3146 191.081 32.0979 190.901C32.0072 190.826 31.9126 190.74 31.8104 190.647C31.472 190.34 31.0507 189.956 30.4167 189.642C30.471 189.437 30.5 189.222 30.5 189C30.5 187.619 29.3807 186.5 28 186.5ZM26.5 189C26.5 188.172 27.1716 187.5 28 187.5C28.8284 187.5 29.5 188.172 29.5 189C29.5 189.828 28.8284 190.5 28 190.5C27.1716 190.5 26.5 189.828 26.5 189Z" fill="#5F5F6A"/>
<path d="M18.5 197.5C18.2239 197.5 18 197.724 18 198C18 200.209 19.7909 202 22 202C24.2091 202 26 200.209 26 198C26 197.724 25.7761 197.5 25.5 197.5H24.812L22.8863 193.567C22.8825 193.559 22.8785 193.551 22.8743 193.544C22.4933 192.858 21.507 192.858 21.126 193.544C21.1218 193.551 21.1178 193.559 21.114 193.567L19.1882 197.5H18.5ZM19.4893 198.5C19.4963 198.5 19.5032 198.5 19.5102 198.5H24.49C24.497 198.5 24.504 198.5 24.511 198.5H24.9585C24.7205 199.919 23.4865 201 22 201C20.5135 201 19.2795 199.919 19.0415 198.5H19.4893ZM23.6986 197.5H20.3016L22.0001 194.031L23.6986 197.5Z" fill="#5F5F6A"/>
<path d="M30 198C30 197.724 30.2239 197.5 30.5 197.5H31.1882L33.114 193.567C33.1178 193.559 33.1218 193.551 33.126 193.544C33.507 192.858 34.4933 192.858 34.8743 193.544C34.8785 193.551 34.8825 193.559 34.8863 193.567L36.812 197.5H37.5C37.7761 197.5 38 197.724 38 198C38 200.209 36.2091 202 34 202C31.7909 202 30 200.209 30 198ZM36.49 198.5H31.5102C31.5032 198.5 31.4963 198.5 31.4893 198.5H31.0415C31.2795 199.919 32.5135 201 34 201C35.4865 201 36.7205 199.919 36.9585 198.5H36.511C36.504 198.5 36.497 198.5 36.49 198.5ZM35.6986 197.5L34.0001 194.031L32.3016 197.5H35.6986Z" fill="#5F5F6A"/>
</svg>
