<svg width="56" height="168" viewBox="0 0 56 168" fill="none" xmlns="http://www.w3.org/2000/svg">
<path d="M29.5 19.4335C32.0096 20.0596 33.931 22.2216 34.1613 24.9048L34.414 26.9367L34.4153 26.9519C34.5045 28.0232 34.9881 29.0233 35.7724 29.7586L35.7862 29.7715C36.0303 30.0002 36.3302 30.2812 36.5168 30.829C36.6857 31.3247 36.75 31.9984 36.75 33.0151C36.75 33.3866 36.6834 33.746 36.4965 34.0588C36.3027 34.383 36.0242 34.5827 35.7364 34.7049C35.4649 34.8203 35.1721 34.8723 34.9136 34.9048C34.7397 34.9267 34.542 34.9437 34.3518 34.9601C34.2658 34.9675 34.1814 34.9747 34.1014 34.9823C32.7028 35.1138 30.6222 35.25 28 35.25C25.3778 35.25 23.2972 35.1138 21.8986 34.9823C21.8186 34.9747 21.7342 34.9675 21.6482 34.9601C21.458 34.9437 21.2603 34.9267 21.0864 34.9048C20.8279 34.8723 20.5351 34.8203 20.2636 34.7049C19.9758 34.5827 19.6973 34.383 19.5035 34.0588C19.3166 33.746 19.25 33.3866 19.25 33.0151C19.25 31.9984 19.3143 31.3247 19.4832 30.829C19.6698 30.2812 19.9697 30.0002 20.2138 29.7715L20.2276 29.7586C21.0119 29.0233 21.4955 28.0232 21.5847 26.9519L21.586 26.9367L21.8387 24.9048C22.069 22.2216 23.9904 20.0596 26.5 19.4335V19C26.5 18.1716 27.1716 17.5 28 17.5C28.8284 17.5 29.5 18.1716 29.5 19V19.4335ZM23.3322 25.045L23.3309 25.0602L23.0782 27.0921C22.9547 28.5277 22.3049 29.8672 21.2535 30.8529C21.0275 31.0648 20.965 31.1307 20.903 31.3127C20.8197 31.5572 20.75 32.0167 20.75 33.0151C20.75 33.2163 20.787 33.2824 20.791 33.2891C20.7927 33.292 20.7933 33.2927 20.7962 33.2951C20.8006 33.2986 20.8155 33.3097 20.85 33.3243C20.9281 33.3575 21.0562 33.3892 21.2738 33.4165C21.4187 33.4348 21.5657 33.4474 21.7366 33.462C21.8293 33.47 21.9289 33.4785 22.0391 33.4889C23.396 33.6165 25.4295 33.75 28 33.75C30.5705 33.75 32.604 33.6165 33.9609 33.4889C34.0711 33.4785 34.1708 33.47 34.2634 33.462C34.4343 33.4474 34.5813 33.4348 34.7262 33.4165C34.9438 33.3892 35.0719 33.3575 35.15 33.3243C35.1845 33.3097 35.1994 33.2986 35.2038 33.2951C35.205 33.2941 35.2057 33.2934 35.2064 33.2928C35.2073 33.2918 35.208 33.2908 35.209 33.2891C35.213 33.2824 35.25 33.2163 35.25 33.0151C35.25 32.0167 35.1803 31.5572 35.097 31.3127C35.035 31.1307 34.9725 31.0648 34.7465 30.8529C33.6951 29.8672 33.0453 28.5277 32.9218 27.0922L32.6691 25.0602L32.6678 25.045C32.4655 22.6173 30.4361 20.75 28 20.75C25.5639 20.75 23.5345 22.6173 23.3322 25.045Z" fill="#5F5F6A"/>
<path opacity="0.5" d="M22.9085 34.9278C23.3127 34.8371 23.7139 35.0913 23.8045 35.4954C23.8347 35.63 23.877 35.7599 23.9302 35.8842C24.027 36.1105 24.1602 36.3182 24.3227 36.4998C24.7358 36.9613 25.3337 37.25 26 37.25C26.6663 37.25 27.2642 36.9613 27.6772 36.4998C27.9535 36.1912 28.4276 36.1649 28.7363 36.4412C29.0449 36.7174 29.0712 37.1915 28.7949 37.5002C28.1094 38.2662 27.1107 38.75 26 38.75C24.8893 38.75 23.8906 38.2662 23.205 37.5002C22.9351 37.1986 22.713 36.8527 22.5511 36.4743C22.4622 36.2665 22.3914 36.0489 22.3409 35.8238C22.2502 35.4196 22.5044 35.0185 22.9085 34.9278Z" fill="#5F5F6A"/>
<path d="M34.1613 80.9048C33.931 78.2216 32.0096 76.0596 29.5 75.4335V75C29.5 74.1716 28.8284 73.5 28 73.5C27.1716 73.5 26.5 74.1716 26.5 75V75.4335C23.9904 76.0596 22.069 78.2216 21.8387 80.9048L21.586 82.9367L21.5847 82.9519C21.4955 84.0232 21.0119 85.0233 20.2276 85.7586L20.2138 85.7715C19.9697 86.0002 19.6698 86.2812 19.4832 86.829C19.3143 87.3247 19.25 87.9984 19.25 89.0151C19.25 89.3866 19.3166 89.746 19.5035 90.0588C19.6973 90.383 19.9758 90.5827 20.2636 90.7049C20.5351 90.8203 20.8279 90.8723 21.0864 90.9048C21.2603 90.9267 21.458 90.9437 21.6482 90.9601C21.7342 90.9675 21.8186 90.9747 21.8986 90.9823C22.1277 91.0038 22.3751 91.0255 22.6402 91.0467C22.4001 91.2162 22.2726 91.5192 22.3409 91.8238C22.3914 92.049 22.4622 92.2665 22.5511 92.4743C22.713 92.8527 22.9351 93.1986 23.205 93.5002C23.8906 94.2662 24.8893 94.75 26 94.75C27.1107 94.75 28.1094 94.2662 28.7949 93.5002C29.0712 93.1915 29.0449 92.7174 28.7363 92.4412C28.4276 92.1649 27.9535 92.1912 27.6772 92.4998C27.2642 92.9613 26.6663 93.25 26 93.25C25.3337 93.25 24.7358 92.9613 24.3227 92.4998C24.1602 92.3182 24.027 92.1105 23.9302 91.8842C23.877 91.7599 23.8347 91.63 23.8045 91.4954C23.7706 91.344 23.693 91.2136 23.588 91.1146C24.8007 91.1917 26.2844 91.25 28 91.25C30.6222 91.25 32.7028 91.1138 34.1014 90.9823C34.1814 90.9747 34.2658 90.9675 34.3518 90.9601C34.542 90.9437 34.7397 90.9267 34.9136 90.9048C35.1721 90.8723 35.4649 90.8203 35.7364 90.7049C36.0242 90.5827 36.3027 90.383 36.4965 90.0588C36.6834 89.746 36.75 89.3866 36.75 89.0151C36.75 87.9984 36.6857 87.3247 36.5168 86.829C36.3302 86.2812 36.0303 86.0002 35.7862 85.7715L35.7724 85.7586C34.9881 85.0233 34.5045 84.0232 34.4153 82.9519L34.414 82.9367L34.1613 80.9048ZM23.3309 81.0602L23.3322 81.045C23.5345 78.6173 25.5639 76.75 28 76.75C30.4361 76.75 32.4655 78.6173 32.6678 81.045L32.6691 81.0602L32.9218 83.0922C33.0453 84.5277 33.6951 85.8672 34.7465 86.8529C34.9725 87.0648 35.035 87.1307 35.097 87.3127C35.1803 87.5572 35.25 88.0167 35.25 89.0151C35.25 89.2163 35.213 89.2824 35.209 89.2891C35.208 89.2908 35.2073 89.2918 35.2064 89.2928L35.2038 89.2951C35.1994 89.2986 35.1845 89.3097 35.15 89.3243C35.0719 89.3575 34.9438 89.3892 34.7262 89.4165C34.5813 89.4348 34.4343 89.4474 34.2634 89.462C34.1708 89.4699 34.0711 89.4785 33.9609 89.4889C32.604 89.6165 30.5705 89.75 28 89.75C25.4295 89.75 23.396 89.6165 22.0391 89.4889C21.9289 89.4785 21.8293 89.47 21.7366 89.462C21.5657 89.4474 21.4187 89.4348 21.2738 89.4165C21.0562 89.3892 20.9281 89.3575 20.85 89.3243C20.8155 89.3097 20.8006 89.2986 20.7962 89.2951C20.7933 89.2927 20.7927 89.292 20.791 89.2891C20.787 89.2824 20.75 89.2163 20.75 89.0151C20.75 88.0167 20.8197 87.5572 20.903 87.3127C20.965 87.1307 21.0275 87.0648 21.2535 86.8529C22.3049 85.8672 22.9547 84.5277 23.0782 83.0921L23.3309 81.0602Z" fill="#5F5F6A"/>
<path d="M33.9126 136.931C33.6729 134.113 31.4901 131.893 28.75 131.547V131C28.75 130.586 28.4142 130.25 28 130.25C27.5858 130.25 27.25 130.586 27.25 131V131.547C24.5099 131.893 22.327 134.113 22.0874 136.931L21.8347 138.963L21.8339 138.973C21.7395 140.106 21.228 141.163 20.3986 141.941L20.3883 141.951C20.148 142.176 19.8862 142.421 19.7198 142.91C19.5652 143.363 19.5 144.001 19.5 145.015C19.5 145.358 19.5616 145.669 19.7181 145.93C19.8792 146.2 20.1112 146.369 20.3613 146.475C20.6006 146.576 20.866 146.625 21.1177 146.657C21.2865 146.678 21.4753 146.694 21.6627 146.71C21.7501 146.718 21.8373 146.725 21.922 146.733C23.3137 146.864 25.3864 147 28 147C30.6136 147 32.6863 146.864 34.078 146.733C34.1627 146.725 34.2498 146.718 34.3372 146.71C34.5245 146.694 34.7135 146.678 34.8823 146.657C35.134 146.625 35.3994 146.576 35.6387 146.475C35.8888 146.369 36.1208 146.2 36.2819 145.93C36.4384 145.669 36.5 145.358 36.5 145.015C36.5 144.001 36.4348 143.363 36.2802 142.91C36.1138 142.421 35.852 142.176 35.6117 141.951L35.6014 141.941C34.772 141.163 34.2605 140.106 34.1661 138.973L34.1653 138.963L33.9126 136.931ZM28 132.5C30.5661 132.5 32.7038 134.467 32.917 137.024L32.9178 137.034L33.1704 139.066C33.2877 140.442 33.9099 141.726 34.9175 142.67C35.1469 142.886 35.2502 142.987 35.3336 143.232C35.4312 143.518 35.5 144.014 35.5 145.015C35.5 145.245 35.4581 145.36 35.4236 145.417C35.3936 145.467 35.3473 145.512 35.2477 145.554C35.1374 145.601 34.9818 145.636 34.7574 145.665C34.6078 145.683 34.4528 145.697 34.2782 145.712C34.1864 145.72 34.0891 145.728 33.9843 145.738C32.6205 145.866 30.5791 146 28 146C25.4209 146 23.3795 145.866 22.0157 145.738C21.9109 145.728 21.8136 145.72 21.7218 145.712C21.5472 145.697 21.3922 145.683 21.2426 145.665C21.0182 145.636 20.8626 145.601 20.7523 145.554C20.6527 145.512 20.6064 145.467 20.5764 145.417C20.5419 145.36 20.5 145.245 20.5 145.015C20.5 144.014 20.5688 143.518 20.6664 143.232C20.7498 142.987 20.8531 142.886 21.0825 142.67C22.0901 141.726 22.7123 140.442 22.8296 139.066L23.0822 137.034L23.083 137.024C23.2961 134.467 25.4339 132.5 28 132.5Z" fill="#5F5F6A"/>
<path d="M23.5606 147.55C23.5002 147.281 23.2327 147.111 22.9633 147.172C22.6938 147.232 22.5244 147.5 22.5849 147.769C22.632 147.979 22.698 148.182 22.781 148.376C22.932 148.729 23.1393 149.052 23.3913 149.333C24.0315 150.049 24.9634 150.5 26 150.5C27.0366 150.5 27.9685 150.049 28.6087 149.333C28.7928 149.128 28.7753 148.812 28.5696 148.627C28.3638 148.443 28.0477 148.461 27.8635 148.667C27.4051 149.179 26.7404 149.5 26 149.5C25.2596 149.5 24.5949 149.179 24.1365 148.667C23.956 148.465 23.808 148.234 23.7003 147.983C23.6412 147.844 23.5942 147.7 23.5606 147.55Z" fill="#5F5F6A"/>
</svg>
