<svg width="56" height="224" viewBox="0 0 56 224" fill="none" xmlns="http://www.w3.org/2000/svg">
<path d="M28.8304 19.25H23.1696C22.6354 19.25 22.1896 19.25 21.8253 19.2797C21.4454 19.3108 21.0888 19.3779 20.7515 19.5497C20.2341 19.8134 19.8134 20.2341 19.5497 20.7515C19.3779 21.0888 19.3108 21.4454 19.2797 21.8253C19.25 22.1896 19.25 22.6354 19.25 23.1696V32.8304C19.25 33.3646 19.25 33.8104 19.2797 34.1747C19.3108 34.5546 19.3779 34.9112 19.5497 35.2485C19.8134 35.7659 20.2341 36.1866 20.7515 36.4503C20.9296 36.541 21.1506 36.5767 21.2814 36.596C21.4489 36.6206 21.6497 36.6401 21.8658 36.656C22.3001 36.688 22.8406 36.7088 23.3928 36.7225C24.345 36.7462 25.2975 36.75 26.25 36.75C26.6642 36.75 27 36.4142 27 36C27 35.5858 26.6642 35.25 26.25 35.25C25.6892 35.25 24.5155 35.25 23.43 35.223C22.8862 35.2095 22.374 35.1894 21.976 35.1601C21.7761 35.1453 21.6159 35.129 21.4997 35.1119C21.4445 35.1038 21.4111 35.0971 21.3944 35.0935C21.1766 34.9729 20.9995 34.7899 20.8862 34.5675C20.8401 34.4769 20.7982 34.3396 20.7748 34.0525C20.7506 33.7566 20.75 33.3724 20.75 32.8V23.2C20.75 22.6276 20.7506 22.2434 20.7748 21.9475C20.7982 21.6604 20.8401 21.5231 20.8862 21.4325C21.0061 21.1973 21.1973 21.0061 21.4325 20.8862C21.5231 20.8401 21.6604 20.7982 21.9475 20.7748C22.2434 20.7506 22.6276 20.75 23.2 20.75H28.8C29.3724 20.75 29.7566 20.7506 30.0525 20.7748C30.3396 20.7982 30.4769 20.8401 30.5675 20.8862C30.8027 21.0061 30.9939 21.1973 31.1138 21.4325C31.1599 21.5231 31.2018 21.6604 31.2252 21.9475C31.2494 22.2434 31.25 22.6276 31.25 23.2V26.25C31.25 26.6642 31.5858 27 32 27C32.4142 27 32.75 26.6642 32.75 26.25V23.1695C32.75 22.6354 32.75 22.1896 32.7203 21.8253C32.6892 21.4454 32.6221 21.0888 32.4503 20.7515C32.1866 20.2341 31.7659 19.8134 31.2485 19.5497C30.9112 19.3779 30.5546 19.3108 30.1747 19.2797C29.8104 19.25 29.3646 19.25 28.8304 19.25Z" fill="#5F5F6A"/>
<path d="M30.3711 28.25H34.6289C35.0243 28.25 35.3653 28.25 35.6463 28.2729C35.9428 28.2972 36.2377 28.3506 36.5215 28.4952C36.9448 28.711 37.2891 29.0552 37.5048 29.4785C37.6494 29.7623 37.7029 30.0572 37.7271 30.3537C37.75 30.6347 37.75 30.9757 37.75 31.3711V33.6289C37.75 34.0243 37.75 34.3653 37.7271 34.6463C37.7029 34.9428 37.6494 35.2377 37.5048 35.5215C37.2891 35.9448 36.9448 36.2891 36.5215 36.5048C36.2377 36.6494 35.9428 36.7028 35.6463 36.7271C35.3654 36.75 35.0243 36.75 34.629 36.75H30.3711C29.9758 36.75 29.6346 36.75 29.3537 36.7271C29.0572 36.7028 28.7623 36.6494 28.4785 36.5048C28.0552 36.2891 27.711 35.9448 27.4952 35.5215C27.3506 35.2377 27.2972 34.9428 27.2729 34.6463C27.25 34.3653 27.25 34.0243 27.25 33.6289V31.3711C27.25 30.9757 27.25 30.6347 27.2729 30.3537C27.2972 30.0572 27.3506 29.7623 27.4952 29.4785C27.711 29.0552 28.0552 28.711 28.4785 28.4952C28.7623 28.3506 29.0572 28.2972 29.3537 28.2729C29.6347 28.25 29.9757 28.25 30.3711 28.25ZM28.75 31.4V32.25H36.25V31.4C36.25 31.131 36.2498 30.9213 36.2454 30.75H28.7546C28.7502 30.9213 28.75 31.131 28.75 31.4Z" fill="#5F5F6A"/>
<path d="M21.75 23C21.75 22.5858 22.0858 22.25 22.5 22.25H26.5C26.9142 22.25 27.25 22.5858 27.25 23C27.25 23.4142 26.9142 23.75 26.5 23.75H22.5C22.0858 23.75 21.75 23.4142 21.75 23Z" fill="#5F5F6A"/>
<path d="M22.5 25.25C22.0858 25.25 21.75 25.5858 21.75 26C21.75 26.4142 22.0858 26.75 22.5 26.75H29.5C29.9142 26.75 30.25 26.4142 30.25 26C30.25 25.5858 29.9142 25.25 29.5 25.25H22.5Z" fill="#5F5F6A"/>
<path d="M21.75 29C21.75 28.5858 22.0858 28.25 22.5 28.25H26C26.4142 28.25 26.75 28.5858 26.75 29C26.75 29.4142 26.4142 29.75 26 29.75H22.5C22.0858 29.75 21.75 29.4142 21.75 29Z" fill="#5F5F6A"/>
<path d="M22.5 32.25C22.0858 32.25 21.75 32.5858 21.75 33C21.75 33.4142 22.0858 33.75 22.5 33.75H24.5C24.9142 33.75 25.25 33.4142 25.25 33C25.25 32.5858 24.9142 32.25 24.5 32.25H22.5Z" fill="#5F5F6A"/>
<g opacity="0.5">
<path d="M21.75 82C21.75 81.5858 22.0858 81.25 22.5 81.25H29.5C29.9142 81.25 30.25 81.5858 30.25 82C30.25 82.4142 29.9142 82.75 29.5 82.75H22.5C22.0858 82.75 21.75 82.4142 21.75 82Z" fill="#5F5F6A"/>
<path d="M28.1635 85.819C28.0489 86.0439 28.0146 86.3174 28.0044 86.75H36.9956C36.9854 86.3174 36.9511 86.0439 36.8365 85.819C36.6927 85.5368 36.4632 85.3073 36.181 85.1635C35.8601 85 35.4401 85 34.6 85H30.4C29.5599 85 29.1399 85 28.819 85.1635C28.5368 85.3073 28.3073 85.5368 28.1635 85.819Z" fill="#5F5F6A"/>
<path d="M37 88.25H28V89.6C28 90.4401 28 90.8601 28.1635 91.181C28.3073 91.4632 28.5368 91.6927 28.819 91.8365C29.1399 92 29.5599 92 30.4 92H34.6C35.4401 92 35.8601 92 36.181 91.8365C36.4632 91.6927 36.6927 91.4632 36.8365 91.181C37 90.8601 37 90.4401 37 89.6V88.25Z" fill="#5F5F6A"/>
<path d="M22.5 84.25C22.0858 84.25 21.75 84.5858 21.75 85C21.75 85.4142 22.0858 85.75 22.5 85.75H26C26.4142 85.75 26.75 85.4142 26.75 85C26.75 84.5858 26.4142 84.25 26 84.25H22.5Z" fill="#5F5F6A"/>
</g>
<path d="M28.8304 75.25H23.1696C22.6354 75.25 22.1896 75.25 21.8253 75.2797C21.4454 75.3108 21.0888 75.3779 20.7515 75.5497C20.2341 75.8134 19.8134 76.2341 19.5497 76.7515C19.3779 77.0888 19.3108 77.4454 19.2797 77.8253C19.25 78.1896 19.25 78.6354 19.25 79.1696V88.8304C19.25 89.3646 19.25 89.8104 19.2797 90.1747C19.3108 90.5546 19.3779 90.9112 19.5497 91.2485C19.8134 91.7659 20.2341 92.1866 20.7515 92.4503C20.9296 92.541 21.1506 92.5767 21.2814 92.596C21.4489 92.6206 21.6497 92.6401 21.8658 92.656C22.3001 92.688 22.8406 92.7088 23.3928 92.7225C24.4981 92.75 25.688 92.75 26.2481 92.75H26.25C26.6642 92.75 27 92.4142 27 92C27 91.5858 26.6642 91.25 26.25 91.25C25.6892 91.25 24.5155 91.25 23.43 91.223C22.8862 91.2095 22.374 91.1894 21.976 91.1601C21.7761 91.1453 21.6159 91.129 21.4997 91.1119C21.4445 91.1038 21.4111 91.0971 21.3944 91.0935C21.1766 90.9729 20.9995 90.7899 20.8862 90.5675C20.8401 90.4769 20.7982 90.3396 20.7748 90.0525C20.7506 89.7566 20.75 89.3724 20.75 88.8V79.2C20.75 78.6276 20.7506 78.2434 20.7748 77.9475C20.7982 77.6604 20.8401 77.5231 20.8862 77.4325C21.0061 77.1973 21.1973 77.0061 21.4325 76.8862C21.5231 76.8401 21.6604 76.7982 21.9475 76.7748C22.2434 76.7506 22.6276 76.75 23.2 76.75H28.8C29.3724 76.75 29.7566 76.7506 30.0525 76.7748C30.3396 76.7982 30.4769 76.8401 30.5675 76.8862C30.8027 77.0061 30.9939 77.1973 31.1138 77.4325C31.1599 77.5231 31.2018 77.6604 31.2252 77.9475C31.2494 78.2434 31.25 78.6276 31.25 79.2V82.25C31.25 82.6642 31.5858 83 32 83C32.4142 83 32.75 82.6642 32.75 82.25V79.1695C32.75 78.6354 32.75 78.1896 32.7203 77.8253C32.6892 77.4454 32.6221 77.0888 32.4503 76.7515C32.1866 76.2341 31.7659 75.8134 31.2485 75.5497C30.9112 75.3779 30.5546 75.3108 30.1747 75.2797C29.8104 75.25 29.3646 75.25 28.8304 75.25Z" fill="#5F5F6A"/>
<path d="M34.6289 84.25H30.3711C29.9758 84.25 29.6346 84.25 29.3537 84.2729C29.0572 84.2972 28.7623 84.3506 28.4785 84.4952C28.0552 84.711 27.711 85.0552 27.4952 85.4785C27.3506 85.7623 27.2972 86.0572 27.2729 86.3537C27.25 86.6347 27.25 86.9757 27.25 87.3711V89.6289C27.25 90.0243 27.25 90.3653 27.2729 90.6463C27.2972 90.9428 27.3506 91.2377 27.4952 91.5215C27.711 91.9448 28.0552 92.2891 28.4785 92.5048C28.7623 92.6494 29.0572 92.7028 29.3537 92.7271C29.6347 92.75 29.9757 92.75 30.3711 92.75H34.6289C35.0243 92.75 35.3653 92.75 35.6463 92.7271C35.9428 92.7028 36.2377 92.6494 36.5215 92.5048C36.9448 92.2891 37.2891 91.9448 37.5048 91.5215C37.6494 91.2377 37.7028 90.9428 37.7271 90.6463C37.75 90.3653 37.75 90.0243 37.75 89.6289V87.3711C37.75 86.9757 37.75 86.6347 37.7271 86.3537C37.7028 86.0572 37.6494 85.7623 37.5048 85.4785C37.2891 85.0552 36.9448 84.711 36.5215 84.4952C36.2377 84.3506 35.9428 84.2972 35.6463 84.2729C35.3654 84.25 35.0243 84.25 34.6289 84.25ZM29.1595 85.8317C29.1966 85.8129 29.2721 85.7846 29.4759 85.7679C29.6884 85.7506 29.9676 85.75 30.4 85.75H34.6C35.0324 85.75 35.3116 85.7506 35.5241 85.7679C35.7279 85.7846 35.8034 85.8129 35.8405 85.8317C35.9816 85.9037 36.0964 86.0184 36.1683 86.1595C36.1872 86.1966 36.2154 86.2721 36.2321 86.4759C36.2494 86.6884 36.25 86.9676 36.25 87.4V89.6C36.25 90.0324 36.2494 90.3116 36.2321 90.5241C36.2154 90.7279 36.1872 90.8034 36.1683 90.8405C36.0964 90.9816 35.9816 91.0964 35.8405 91.1683C35.8034 91.1872 35.7279 91.2154 35.5241 91.2321C35.3116 91.2494 35.0324 91.25 34.6 91.25H30.4C29.9676 91.25 29.6884 91.2494 29.4759 91.2321C29.2721 91.2154 29.1966 91.1872 29.1595 91.1683C29.0184 91.0964 28.9037 90.9816 28.8317 90.8405C28.8129 90.8034 28.7846 90.7279 28.7679 90.5241C28.7506 90.3116 28.75 90.0324 28.75 89.6V87.4C28.75 86.9676 28.7506 86.6884 28.7679 86.4759C28.7846 86.2721 28.8129 86.1966 28.8317 86.1595C28.9037 86.0184 29.0184 85.9037 29.1595 85.8317Z" fill="#5F5F6A"/>
<path d="M21.75 79C21.75 78.5858 22.0858 78.25 22.5 78.25H26.5C26.9142 78.25 27.25 78.5858 27.25 79C27.25 79.4142 26.9142 79.75 26.5 79.75H22.5C22.0858 79.75 21.75 79.4142 21.75 79Z" fill="#5F5F6A"/>
<path d="M22.5 88.25C22.0858 88.25 21.75 88.5858 21.75 89C21.75 89.4142 22.0858 89.75 22.5 89.75H24.5C24.9142 89.75 25.25 89.4142 25.25 89C25.25 88.5858 24.9142 88.25 24.5 88.25H22.5Z" fill="#5F5F6A"/>
<path d="M23.1696 131.25H28.8304C29.3646 131.25 29.8104 131.25 30.1747 131.28C30.5546 131.311 30.9112 131.378 31.2485 131.55C31.7659 131.813 32.1866 132.234 32.4503 132.752C32.6221 133.089 32.6892 133.445 32.7203 133.825C32.75 134.19 32.75 134.635 32.75 135.17V138.25C32.75 138.664 32.4142 139 32 139C31.5858 139 31.25 138.664 31.25 138.25V135.2C31.25 134.628 31.2494 134.243 31.2252 133.947C31.2018 133.66 31.1599 133.523 31.1138 133.433C30.9939 133.197 30.8027 133.006 30.5675 132.886C30.4769 132.84 30.3396 132.798 30.0525 132.775C29.7566 132.751 29.3724 132.75 28.8 132.75H23.2C22.6276 132.75 22.2434 132.751 21.9475 132.775C21.6604 132.798 21.5231 132.84 21.4325 132.886C21.1973 133.006 21.0061 133.197 20.8862 133.433C20.8401 133.523 20.7982 133.66 20.7748 133.947C20.7506 134.243 20.75 134.628 20.75 135.2V144.8C20.75 145.372 20.7506 145.757 20.7748 146.053C20.7982 146.34 20.8401 146.477 20.8862 146.567C20.9995 146.79 21.1766 146.973 21.3944 147.093C21.4111 147.097 21.4445 147.104 21.4997 147.112C21.6159 147.129 21.7761 147.145 21.976 147.16C22.374 147.189 22.8862 147.209 23.43 147.223C24.5155 147.25 25.6892 147.25 26.25 147.25C26.6642 147.25 27 147.586 27 148C27 148.414 26.6642 148.75 26.25 148.75H26.2481C25.688 148.75 24.4981 148.75 23.3928 148.723C22.8406 148.709 22.3001 148.688 21.8658 148.656C21.6497 148.64 21.4489 148.621 21.2814 148.596C21.1506 148.577 20.9296 148.541 20.7515 148.45C20.2341 148.187 19.8134 147.766 19.5497 147.248C19.3779 146.911 19.3108 146.555 19.2797 146.175C19.25 145.81 19.25 145.365 19.25 144.83V135.17C19.25 134.635 19.25 134.19 19.2797 133.825C19.3108 133.445 19.3779 133.089 19.5497 132.752C19.8134 132.234 20.2341 131.813 20.7515 131.55C21.0888 131.378 21.4454 131.311 21.8253 131.28C22.1896 131.25 22.6354 131.25 23.1696 131.25Z" fill="#5F5F6A"/>
<path d="M30.3711 140.25H34.6289C35.0243 140.25 35.3654 140.25 35.6463 140.273C35.9428 140.297 36.2377 140.351 36.5215 140.495C36.9448 140.711 37.2891 141.055 37.5048 141.479C37.6494 141.762 37.7028 142.057 37.7271 142.354C37.75 142.635 37.75 142.976 37.75 143.371V145.629C37.75 146.024 37.75 146.365 37.7271 146.646C37.7028 146.943 37.6494 147.238 37.5048 147.521C37.2891 147.945 36.9448 148.289 36.5215 148.505C36.2377 148.649 35.9428 148.703 35.6463 148.727C35.3653 148.75 35.0243 148.75 34.6289 148.75H30.3711C29.9757 148.75 29.6347 148.75 29.3537 148.727C29.0572 148.703 28.7623 148.649 28.4785 148.505C28.0552 148.289 27.711 147.945 27.4952 147.521C27.3506 147.238 27.2972 146.943 27.2729 146.646C27.25 146.365 27.25 146.024 27.25 145.629V143.371C27.25 142.976 27.25 142.635 27.2729 142.354C27.2972 142.057 27.3506 141.762 27.4952 141.479C27.711 141.055 28.0552 140.711 28.4785 140.495C28.7623 140.351 29.0572 140.297 29.3537 140.273C29.6346 140.25 29.9758 140.25 30.3711 140.25ZM29.4759 141.768C29.2721 141.785 29.1966 141.813 29.1595 141.832C29.0184 141.904 28.9037 142.018 28.8317 142.16C28.8129 142.197 28.7846 142.272 28.7679 142.476C28.7673 142.484 28.7667 142.492 28.7661 142.5H36.2339C36.2333 142.492 36.2327 142.484 36.2321 142.476C36.2154 142.272 36.1872 142.197 36.1683 142.16C36.0964 142.018 35.9816 141.904 35.8405 141.832C35.8034 141.813 35.7279 141.785 35.5241 141.768C35.3116 141.751 35.0324 141.75 34.6 141.75H30.4C29.9676 141.75 29.6884 141.751 29.4759 141.768ZM36.25 144.5H28.75V145.6C28.75 146.032 28.7506 146.312 28.7679 146.524C28.7846 146.728 28.8129 146.803 28.8317 146.84C28.9037 146.982 29.0184 147.096 29.1595 147.168C29.1966 147.187 29.2721 147.215 29.4759 147.232C29.6884 147.249 29.9676 147.25 30.4 147.25H34.6C35.0324 147.25 35.3116 147.249 35.5241 147.232C35.7279 147.215 35.8034 147.187 35.8405 147.168C35.9816 147.096 36.0964 146.982 36.1683 146.84C36.1872 146.803 36.2154 146.728 36.2321 146.524C36.2494 146.312 36.25 146.032 36.25 145.6V144.5Z" fill="#5F5F6A"/>
<path d="M22.5 134.25C22.0858 134.25 21.75 134.586 21.75 135C21.75 135.414 22.0858 135.75 22.5 135.75H26.5C26.9142 135.75 27.25 135.414 27.25 135C27.25 134.586 26.9142 134.25 26.5 134.25H22.5Z" fill="#5F5F6A"/>
<path d="M21.75 138C21.75 137.586 22.0858 137.25 22.5 137.25H29.5C29.9142 137.25 30.25 137.586 30.25 138C30.25 138.414 29.9142 138.75 29.5 138.75H22.5C22.0858 138.75 21.75 138.414 21.75 138Z" fill="#5F5F6A"/>
<path d="M22.5 140.25C22.0858 140.25 21.75 140.586 21.75 141C21.75 141.414 22.0858 141.75 22.5 141.75H26C26.4142 141.75 26.75 141.414 26.75 141C26.75 140.586 26.4142 140.25 26 140.25H22.5Z" fill="#5F5F6A"/>
<path d="M21.75 145C21.75 144.586 22.0858 144.25 22.5 144.25H24.5C24.9142 144.25 25.25 144.586 25.25 145C25.25 145.414 24.9142 145.75 24.5 145.75H22.5C22.0858 145.75 21.75 145.414 21.75 145Z" fill="#5F5F6A"/>
<path d="M23.1786 187.5H28.8214C29.3633 187.5 29.8004 187.5 30.1543 187.529C30.5187 187.559 30.8388 187.622 31.135 187.772C31.6054 188.012 31.9878 188.395 32.2275 188.865C32.3784 189.161 32.4413 189.481 32.4711 189.846C32.5 190.2 32.5 190.637 32.5 191.179V194.25C32.5 194.526 32.2761 194.75 32 194.75C31.7239 194.75 31.5 194.526 31.5 194.25V191.2C31.5 190.632 31.4996 190.236 31.4744 189.927C31.4497 189.625 31.4036 189.451 31.3365 189.319C31.1927 189.037 30.9632 188.807 30.681 188.663C30.5493 188.596 30.3755 188.55 30.0729 188.526C29.7645 188.5 29.3683 188.5 28.8 188.5H23.2C22.6317 188.5 22.2355 188.5 21.9271 188.526C21.6245 188.55 21.4507 188.596 21.319 188.663C21.0368 188.807 20.8073 189.037 20.6635 189.319C20.5964 189.451 20.5503 189.625 20.5256 189.927C20.5004 190.236 20.5 190.632 20.5 191.2V200.8C20.5 201.368 20.5004 201.764 20.5256 202.073C20.5503 202.375 20.5964 202.549 20.6635 202.681C20.8055 202.96 21.0311 203.187 21.3085 203.331C21.3085 203.331 21.3119 203.332 21.319 203.333C21.3373 203.337 21.3814 203.347 21.4633 203.359C21.588 203.378 21.755 203.394 21.9577 203.409C22.3617 203.439 22.8786 203.459 23.4238 203.473C24.5128 203.5 25.6895 203.5 26.25 203.5C26.5261 203.5 26.75 203.724 26.75 204C26.75 204.276 26.5261 204.5 26.25 204.5H26.2487C25.6886 204.5 24.5012 204.5 23.399 204.473C22.8482 204.459 22.3124 204.438 21.8842 204.407C21.6707 204.391 21.4767 204.372 21.3178 204.349C21.1833 204.329 21.0015 204.297 20.865 204.228C20.3946 203.988 20.0122 203.605 19.7725 203.135C19.6216 202.839 19.5587 202.519 19.5289 202.154C19.5 201.8 19.5 201.363 19.5 200.821V191.179C19.5 190.637 19.5 190.2 19.5289 189.846C19.5587 189.481 19.6216 189.161 19.7725 188.865C20.0122 188.395 20.3946 188.012 20.865 187.772C21.1612 187.622 21.4813 187.559 21.8457 187.529C22.1996 187.5 22.6367 187.5 23.1786 187.5Z" fill="#5F5F6A"/>
<path d="M34.6207 196.5C35.0232 196.5 35.3553 196.5 35.6259 196.522C35.907 196.545 36.1653 196.594 36.408 196.718C36.7843 196.91 37.0903 197.216 37.282 197.592C37.4057 197.835 37.4549 198.093 37.4779 198.374C37.5 198.645 37.5 198.977 37.5 199.379V201.621C37.5 202.023 37.5 202.355 37.4779 202.626C37.4549 202.907 37.4057 203.165 37.282 203.408C37.0903 203.784 36.7843 204.09 36.408 204.282C36.1653 204.406 35.907 204.455 35.6259 204.478C35.3553 204.5 35.0231 204.5 34.6206 204.5H30.3794C29.9769 204.5 29.6447 204.5 29.3741 204.478C29.093 204.455 28.8347 204.406 28.592 204.282C28.2157 204.09 27.9097 203.784 27.718 203.408C27.5943 203.165 27.5451 202.907 27.5221 202.626C27.5 202.355 27.5 202.023 27.5 201.621V199.379C27.5 198.977 27.5 198.645 27.5221 198.374C27.5451 198.093 27.5943 197.835 27.718 197.592C27.9097 197.216 28.2157 196.91 28.592 196.718C28.8347 196.594 29.093 196.545 29.3741 196.522C29.6447 196.5 29.9768 196.5 30.3793 196.5H34.6207ZM29.4555 197.519C29.2363 197.537 29.1242 197.569 29.046 197.609C28.8578 197.705 28.7049 197.858 28.609 198.046C28.5691 198.124 28.5367 198.236 28.5188 198.456C28.5176 198.47 28.5165 198.485 28.5154 198.5H36.4846C36.4835 198.485 36.4824 198.47 36.4812 198.456C36.4633 198.236 36.4309 198.124 36.391 198.046C36.2951 197.858 36.1422 197.705 35.954 197.609C35.8758 197.569 35.7637 197.537 35.5445 197.519C35.3194 197.5 35.0283 197.5 34.6 197.5H30.4C29.9717 197.5 29.6806 197.5 29.4555 197.519ZM36.5 200.5H28.5V201.6C28.5 202.028 28.5004 202.319 28.5188 202.544C28.5367 202.764 28.5691 202.876 28.609 202.954C28.7049 203.142 28.8578 203.295 29.046 203.391C29.1242 203.431 29.2363 203.463 29.4555 203.481C29.6806 203.5 29.9717 203.5 30.4 203.5H34.6C35.0283 203.5 35.3194 203.5 35.5445 203.481C35.7637 203.463 35.8758 203.431 35.954 203.391C36.1422 203.295 36.2951 203.142 36.391 202.954C36.4309 202.876 36.4633 202.764 36.4812 202.544C36.4996 202.319 36.5 202.028 36.5 201.6V200.5Z" fill="#5F5F6A"/>
<path d="M22.5 190.5C22.2239 190.5 22 190.724 22 191C22 191.276 22.2239 191.5 22.5 191.5H26.5C26.7761 191.5 27 191.276 27 191C27 190.724 26.7761 190.5 26.5 190.5H22.5Z" fill="#5F5F6A"/>
<path d="M22 194C22 193.724 22.2239 193.5 22.5 193.5H29.5C29.7761 193.5 30 193.724 30 194C30 194.276 29.7761 194.5 29.5 194.5H22.5C22.2239 194.5 22 194.276 22 194Z" fill="#5F5F6A"/>
<path d="M22.5 196.5C22.2239 196.5 22 196.724 22 197C22 197.276 22.2239 197.5 22.5 197.5H26C26.2761 197.5 26.5 197.276 26.5 197C26.5 196.724 26.2761 196.5 26 196.5H22.5Z" fill="#5F5F6A"/>
<path d="M22 201C22 200.724 22.2239 200.5 22.5 200.5H24.5C24.7761 200.5 25 200.724 25 201C25 201.276 24.7761 201.5 24.5 201.5H22.5C22.2239 201.5 22 201.276 22 201Z" fill="#5F5F6A"/>
</svg>
