<svg width="56" height="224" viewBox="0 0 56 224" fill="none" xmlns="http://www.w3.org/2000/svg">
<path d="M31.9808 20.1374C32.0418 19.9239 31.9547 19.6957 31.7669 19.5772C31.5791 19.4587 31.3357 19.4782 31.1692 19.6251L22.6692 27.1251C22.5133 27.2627 22.4588 27.4824 22.5323 27.6768C22.6059 27.8713 22.7921 28 23 28H26.7355L23.5419 35.2996C23.4486 35.5129 23.5149 35.7623 23.7017 35.9012C23.8885 36.0402 24.1465 36.0317 24.3238 35.881L34.3238 27.381C34.4836 27.2452 34.5416 27.0242 34.4693 26.8275C34.397 26.6308 34.2096 26.5 34 26.5H30.1629L31.9808 20.1374Z" fill="#5F5F6A"/>
<path d="M23 83.5L31.5 76L29.5 83H34L24 91.5L27.5 83.5H23Z" fill="#5F5F6A"/>
<path fill-rule="evenodd" clip-rule="evenodd" d="M31.9004 75.3658C32.182 75.5436 32.3127 75.8858 32.2212 76.206L30.4943 82.25H34C34.3145 82.25 34.5955 82.4461 34.704 82.7413C34.8125 83.0364 34.7253 83.3678 34.4858 83.5715L24.4858 92.0715C24.2197 92.2976 23.8328 92.3102 23.5525 92.1019C23.2723 91.8935 23.1729 91.5193 23.3129 91.1994L26.3533 84.25H23C22.6881 84.25 22.4088 84.057 22.2985 83.7653C22.1882 83.4735 22.27 83.144 22.5038 82.9376L31.0038 75.4376C31.2536 75.2173 31.6187 75.188 31.9004 75.3658ZM24.9836 82.75H27.5C27.7531 82.75 27.9892 82.8777 28.1277 83.0895C28.2662 83.3013 28.2886 83.5687 28.1872 83.8006L25.9889 88.8251L31.9596 83.75H29.5C29.2647 83.75 29.043 83.6395 28.9013 83.4517C28.7595 83.2638 28.7142 83.0203 28.7789 82.794L30.075 78.2576L24.9836 82.75Z" fill="#5F5F6A"/>
<path fill-rule="evenodd" clip-rule="evenodd" d="M31.9004 131.366C32.182 131.544 32.3127 131.886 32.2212 132.206L30.4943 138.25H34C34.3145 138.25 34.5955 138.446 34.704 138.741C34.8125 139.036 34.7253 139.368 34.4858 139.571L24.4858 148.071C24.2197 148.298 23.8328 148.31 23.5525 148.102C23.2723 147.894 23.1729 147.519 23.3129 147.199L26.3533 140.25H23C22.6881 140.25 22.4088 140.057 22.2985 139.765C22.1882 139.474 22.27 139.144 22.5038 138.938L31.0038 131.438C31.2536 131.217 31.6187 131.188 31.9004 131.366ZM24.9836 138.75H27.5C27.7531 138.75 27.9892 138.878 28.1277 139.089C28.2662 139.301 28.2886 139.569 28.1872 139.801L25.9889 144.825L31.9596 139.75H29.5C29.2647 139.75 29.043 139.64 28.9013 139.452C28.7595 139.264 28.7142 139.02 28.7789 138.794L30.075 134.258L24.9836 138.75Z" fill="#5F5F6A"/>
<path fill-rule="evenodd" clip-rule="evenodd" d="M31.7669 187.577C31.9547 187.696 32.0418 187.924 31.9808 188.137L30.1629 194.5H34C34.2096 194.5 34.397 194.631 34.4693 194.827C34.5416 195.024 34.4836 195.245 34.3238 195.381L24.3238 203.881C24.1465 204.032 23.8885 204.04 23.7017 203.901C23.5149 203.762 23.4486 203.513 23.5419 203.3L26.7355 196H23C22.7921 196 22.6059 195.871 22.5323 195.677C22.4588 195.482 22.5133 195.263 22.6692 195.125L31.1692 187.625C31.3357 187.478 31.5791 187.459 31.7669 187.577ZM24.3224 195H27.5C27.6688 195 27.8261 195.085 27.9185 195.226C28.0108 195.368 28.0257 195.546 27.9581 195.7L25.326 201.717L32.6398 195.5H29.5C29.3431 195.5 29.1953 195.426 29.1008 195.301C29.0064 195.176 28.9762 195.013 29.0193 194.863L30.55 189.505L24.3224 195Z" fill="#5F5F6A"/>
</svg>
