<svg width="56" height="224" viewBox="0 0 56 224" fill="none" xmlns="http://www.w3.org/2000/svg">
<path d="M25.5992 29.15V30.35L25.6051 30.473C25.6626 31.0376 26.1117 31.4867 26.6762 31.5441L26.7992 31.55H29.1992C29.8204 31.55 30.3318 31.078 30.3934 30.473L30.3992 30.35V29.15H35.7992V33.35L35.7863 33.5949C35.7787 33.6703 35.7668 33.7445 35.7523 33.8176C35.7466 33.8464 35.7391 33.8747 35.7324 33.9031C35.7224 33.9457 35.7119 33.988 35.6996 34.0297C35.6897 34.0633 35.6781 34.0963 35.6668 34.1293C35.6533 34.1685 35.6388 34.2071 35.6234 34.2453C35.6122 34.2733 35.6006 34.301 35.5883 34.3285C35.5702 34.369 35.5511 34.4088 35.5309 34.448C35.517 34.4748 35.5035 34.5016 35.4887 34.5277C35.467 34.5662 35.4432 34.6032 35.4195 34.6402C35.4035 34.6653 35.3884 34.6908 35.3715 34.7152C35.35 34.7462 35.3264 34.7756 35.3035 34.8055C35.1742 34.9744 35.0236 35.125 34.8547 35.2543C34.8248 35.2772 34.7954 35.3008 34.7645 35.3223C34.7401 35.3392 34.7145 35.3543 34.6895 35.3703C34.6524 35.394 34.6154 35.4178 34.577 35.4395C34.5508 35.4542 34.524 35.4678 34.4973 35.4816C34.458 35.5019 34.4182 35.5209 34.3777 35.5391C34.3503 35.5514 34.3225 35.5629 34.2945 35.5742C34.2563 35.5896 34.2177 35.6041 34.1785 35.6176C34.1455 35.6289 34.1126 35.6405 34.0789 35.6504C34.0392 35.6621 33.9987 35.6712 33.9582 35.6809C33.9278 35.6881 33.8977 35.697 33.8668 35.7031C33.7937 35.7176 33.7195 35.7295 33.6441 35.7371L33.3992 35.75H22.5992L22.3543 35.7371C22.2786 35.7294 22.204 35.7177 22.1305 35.7031C22.0996 35.697 22.0695 35.6881 22.0391 35.6809C21.9985 35.6712 21.9581 35.6621 21.9184 35.6504C21.8847 35.6405 21.8518 35.6289 21.8188 35.6176C21.7796 35.6041 21.741 35.5896 21.7027 35.5742C21.6747 35.5629 21.647 35.5514 21.6195 35.5391C21.5791 35.5209 21.5392 35.5019 21.5 35.4816C21.4732 35.4678 21.4465 35.4542 21.4203 35.4395C21.3819 35.4177 21.3449 35.394 21.3078 35.3703C21.2828 35.3543 21.2572 35.3392 21.2328 35.3223C21.2018 35.3008 21.1725 35.2772 21.1426 35.2543C20.9738 35.125 20.823 34.9744 20.6938 34.8055C20.6767 34.7831 20.6585 34.7616 20.6422 34.7387L20.6094 34.6918C20.5981 34.6751 20.5886 34.6572 20.5777 34.6402C20.554 34.6032 20.5303 34.5661 20.5086 34.5277C20.4938 34.5016 20.4802 34.4748 20.4664 34.448C20.4462 34.4088 20.4271 34.369 20.409 34.3285C20.3967 34.3011 20.3851 34.2733 20.3738 34.2453C20.3584 34.2071 20.3439 34.1685 20.3305 34.1293C20.3191 34.0963 20.3076 34.0633 20.2977 34.0297C20.2854 33.9881 20.276 33.9456 20.266 33.9031C20.2593 33.8746 20.2506 33.8465 20.2449 33.8176C20.2305 33.7445 20.2197 33.6702 20.2121 33.5949L20.1992 33.35V29.15H25.5992Z" fill="#5F5F6A"/>
<path fill-rule="evenodd" clip-rule="evenodd" d="M31.1223 20.7559C31.7272 20.8175 32.1992 21.3288 32.1992 21.95V23.75H33.3992L33.6441 23.7629C33.7238 23.771 33.8025 23.7824 33.8797 23.798L33.8832 23.7992L34.0848 23.8496C34.0883 23.8507 34.0918 23.8521 34.0953 23.8531C34.1346 23.865 34.1729 23.8792 34.2113 23.893C34.2436 23.9046 34.2758 23.9163 34.3074 23.9293C34.3428 23.9438 34.3772 23.9601 34.4117 23.9762C34.4463 23.9923 34.4812 24.0077 34.5148 24.0254C34.5468 24.0422 34.5775 24.0611 34.6086 24.0793C34.643 24.0994 34.6773 24.1196 34.7105 24.1414C34.739 24.16 34.7662 24.1802 34.7938 24.2C34.827 24.2238 34.8603 24.2473 34.8922 24.2727C34.9174 24.2927 34.9417 24.3137 34.966 24.3348C35 24.3641 35.0334 24.3939 35.0656 24.425C35.0867 24.4454 35.1074 24.466 35.1277 24.4871C35.1584 24.519 35.1879 24.552 35.2168 24.5855C35.2371 24.6091 35.2572 24.6327 35.2766 24.657C35.3039 24.6913 35.3296 24.7267 35.3551 24.7625C35.3745 24.7898 35.3931 24.8176 35.4113 24.8457C35.4321 24.8776 35.4519 24.91 35.4711 24.943C35.489 24.9736 35.5073 25.004 35.5238 25.0355C35.5454 25.0765 35.5644 25.1186 35.5836 25.1609C35.5953 25.1867 35.608 25.212 35.6188 25.2383C35.6367 25.282 35.6514 25.3269 35.6668 25.3719C35.6762 25.3992 35.6865 25.4262 35.6949 25.4539C35.7092 25.5009 35.721 25.5487 35.7324 25.5969C35.7389 25.6241 35.7457 25.6513 35.7512 25.6789C35.7815 25.8313 35.7992 25.9886 35.7992 26.15V27.35H20.1992V26.15C20.1992 25.9887 20.2158 25.8313 20.2461 25.6789C20.2516 25.6512 20.2596 25.6242 20.266 25.5969C20.2774 25.5488 20.2881 25.5008 20.3023 25.4539C20.3107 25.4262 20.3211 25.3992 20.3305 25.3719C20.3459 25.327 20.3606 25.282 20.3785 25.2383C20.3893 25.212 20.402 25.1867 20.4137 25.1609C20.4328 25.1187 20.4519 25.0765 20.4734 25.0355C20.49 25.0041 20.5083 24.9736 20.5262 24.943C20.5454 24.91 20.5652 24.8776 20.5859 24.8457C20.6042 24.8176 20.6228 24.7898 20.6422 24.7625C20.6676 24.7267 20.6934 24.6913 20.7207 24.657C20.7401 24.6327 20.7602 24.6091 20.7805 24.5855C20.8094 24.552 20.8388 24.519 20.8695 24.4871C20.8898 24.466 20.9106 24.4454 20.9316 24.425C20.9639 24.3939 20.9973 24.3641 21.0313 24.3348C21.0556 24.3137 21.0799 24.2927 21.1051 24.2727C21.137 24.2473 21.1703 24.2238 21.2035 24.2C21.2311 24.1802 21.2583 24.16 21.2867 24.1414C21.32 24.1196 21.3543 24.0994 21.3887 24.0793C21.4197 24.0611 21.4505 24.0422 21.4824 24.0254C21.5161 24.0077 21.551 23.9923 21.5855 23.9762C21.62 23.9601 21.6545 23.9438 21.6898 23.9293C21.7215 23.9163 21.7536 23.9046 21.7859 23.893C21.8243 23.8791 21.8627 23.865 21.902 23.8531C21.9577 23.8362 22.0145 23.8226 22.0719 23.8098C22.0872 23.8063 22.1022 23.8012 22.1176 23.798C22.1951 23.7823 22.2742 23.771 22.3543 23.7629L22.5992 23.75H23.7992V21.95C23.7992 21.3288 24.2712 20.8175 24.8762 20.7559L24.9992 20.75H30.9992L31.1223 20.7559ZM25.5992 23.75H30.3992V22.55H25.5992V23.75Z" fill="#5F5F6A"/>
<path d="M25.5992 85.15V86.35L25.6051 86.473C25.6626 87.0376 26.1117 87.4867 26.6762 87.5441L26.7992 87.55H29.1992C29.8204 87.55 30.3318 87.078 30.3934 86.473L30.3992 86.35V85.15H35.7992V89.35L35.7863 89.5949C35.7787 89.6703 35.7668 89.7445 35.7523 89.8176C35.7466 89.8464 35.7391 89.8747 35.7324 89.9031C35.7224 89.9457 35.7119 89.988 35.6996 90.0297C35.6897 90.0633 35.6781 90.0963 35.6668 90.1293C35.6533 90.1685 35.6388 90.2071 35.6234 90.2453C35.6122 90.2733 35.6006 90.301 35.5883 90.3285C35.5702 90.369 35.5511 90.4088 35.5309 90.448C35.517 90.4748 35.5035 90.5016 35.4887 90.5277C35.467 90.5662 35.4432 90.6032 35.4195 90.6402C35.4035 90.6653 35.3884 90.6908 35.3715 90.7152C35.35 90.7462 35.3264 90.7756 35.3035 90.8055C35.1742 90.9744 35.0236 91.125 34.8547 91.2543C34.8248 91.2772 34.7954 91.3008 34.7645 91.3223C34.7401 91.3392 34.7145 91.3543 34.6895 91.3703C34.6524 91.394 34.6154 91.4178 34.577 91.4395C34.5508 91.4542 34.524 91.4678 34.4973 91.4816C34.458 91.5019 34.4182 91.5209 34.3777 91.5391C34.3503 91.5514 34.3225 91.5629 34.2945 91.5742C34.2563 91.5896 34.2177 91.6041 34.1785 91.6176C34.1455 91.6289 34.1126 91.6405 34.0789 91.6504C34.0392 91.6621 33.9987 91.6712 33.9582 91.6809C33.9278 91.6881 33.8977 91.697 33.8668 91.7031C33.7937 91.7176 33.7195 91.7295 33.6441 91.7371L33.3992 91.75H22.5992L22.3543 91.7371C22.2786 91.7294 22.204 91.7177 22.1305 91.7031C22.0996 91.697 22.0695 91.6881 22.0391 91.6809C21.9985 91.6712 21.9581 91.6621 21.9184 91.6504C21.8847 91.6405 21.8518 91.6289 21.8188 91.6176C21.7796 91.6041 21.741 91.5896 21.7027 91.5742C21.6747 91.5629 21.647 91.5514 21.6195 91.5391C21.5791 91.5209 21.5392 91.5019 21.5 91.4816C21.4732 91.4678 21.4465 91.4542 21.4203 91.4395C21.3819 91.4177 21.3449 91.394 21.3078 91.3703C21.2828 91.3543 21.2572 91.3392 21.2328 91.3223C21.2018 91.3008 21.1725 91.2772 21.1426 91.2543C20.9738 91.125 20.823 90.9744 20.6938 90.8055C20.6767 90.7831 20.6585 90.7616 20.6422 90.7387L20.6094 90.6918C20.5981 90.6751 20.5886 90.6572 20.5777 90.6402C20.554 90.6032 20.5303 90.5661 20.5086 90.5277C20.4938 90.5016 20.4802 90.4748 20.4664 90.448C20.4462 90.4088 20.4271 90.369 20.409 90.3285C20.3967 90.3011 20.3851 90.2733 20.3738 90.2453C20.3584 90.2071 20.3439 90.1685 20.3305 90.1293C20.3191 90.0963 20.3076 90.0633 20.2977 90.0297C20.2854 89.9881 20.276 89.9456 20.266 89.9031C20.2593 89.8746 20.2506 89.8465 20.2449 89.8176C20.2305 89.7445 20.2197 89.6702 20.2121 89.5949L20.1992 89.35V85.15H25.5992Z" fill="#5F5F6A"/>
<path fill-rule="evenodd" clip-rule="evenodd" d="M31.1223 76.7559C31.7272 76.8175 32.1992 77.3288 32.1992 77.95V79.75H33.3992L33.6441 79.7629C33.7238 79.771 33.8025 79.7824 33.8797 79.798L33.8832 79.7992L34.0848 79.8496C34.0883 79.8507 34.0918 79.8521 34.0953 79.8531C34.1346 79.865 34.1729 79.8792 34.2113 79.893C34.2436 79.9046 34.2758 79.9163 34.3074 79.9293C34.3428 79.9438 34.3772 79.9601 34.4117 79.9762C34.4463 79.9923 34.4812 80.0077 34.5148 80.0254C34.5468 80.0422 34.5775 80.0611 34.6086 80.0793C34.643 80.0994 34.6773 80.1196 34.7105 80.1414C34.739 80.16 34.7662 80.1802 34.7938 80.2C34.827 80.2238 34.8603 80.2473 34.8922 80.2727C34.9174 80.2927 34.9417 80.3137 34.966 80.3348C35 80.3641 35.0334 80.3939 35.0656 80.425C35.0867 80.4454 35.1074 80.466 35.1277 80.4871C35.1584 80.519 35.1879 80.552 35.2168 80.5855C35.2371 80.6091 35.2572 80.6327 35.2766 80.657C35.3039 80.6913 35.3296 80.7267 35.3551 80.7625C35.3745 80.7898 35.3931 80.8176 35.4113 80.8457C35.4321 80.8776 35.4519 80.91 35.4711 80.943C35.489 80.9736 35.5073 81.004 35.5238 81.0355C35.5454 81.0765 35.5644 81.1186 35.5836 81.1609C35.5953 81.1867 35.608 81.212 35.6188 81.2383C35.6367 81.282 35.6514 81.3269 35.6668 81.3719C35.6762 81.3992 35.6865 81.4262 35.6949 81.4539C35.7092 81.5009 35.721 81.5487 35.7324 81.5969C35.7389 81.6241 35.7457 81.6513 35.7512 81.6789C35.7815 81.8313 35.7992 81.9886 35.7992 82.15V83.35H20.1992V82.15C20.1992 81.9887 20.2158 81.8313 20.2461 81.6789C20.2516 81.6512 20.2596 81.6242 20.266 81.5969C20.2774 81.5488 20.2881 81.5008 20.3023 81.4539C20.3107 81.4262 20.3211 81.3992 20.3305 81.3719C20.3459 81.327 20.3606 81.282 20.3785 81.2383C20.3893 81.212 20.402 81.1867 20.4137 81.1609C20.4328 81.1187 20.4519 81.0765 20.4734 81.0355C20.49 81.0041 20.5083 80.9736 20.5262 80.943C20.5454 80.91 20.5652 80.8776 20.5859 80.8457C20.6042 80.8176 20.6228 80.7898 20.6422 80.7625C20.6676 80.7267 20.6934 80.6913 20.7207 80.657C20.7401 80.6327 20.7602 80.6091 20.7805 80.5855C20.8094 80.552 20.8388 80.519 20.8695 80.4871C20.8898 80.466 20.9106 80.4454 20.9316 80.425C20.9639 80.3939 20.9973 80.3641 21.0313 80.3348C21.0556 80.3137 21.0799 80.2927 21.1051 80.2727C21.137 80.2473 21.1703 80.2238 21.2035 80.2C21.2311 80.1802 21.2583 80.16 21.2867 80.1414C21.32 80.1196 21.3543 80.0994 21.3887 80.0793C21.4197 80.0611 21.4505 80.0422 21.4824 80.0254C21.5161 80.0077 21.551 79.9923 21.5855 79.9762C21.62 79.9601 21.6545 79.9438 21.6898 79.9293C21.7215 79.9163 21.7536 79.9046 21.7859 79.893C21.8243 79.8791 21.8627 79.865 21.902 79.8531C21.9577 79.8362 22.0145 79.8226 22.0719 79.8098C22.0872 79.8063 22.1022 79.8012 22.1176 79.798C22.1951 79.7823 22.2742 79.771 22.3543 79.7629L22.5992 79.75H23.7992V77.95C23.7992 77.3288 24.2712 76.8175 24.8762 76.7559L24.9992 76.75H30.9992L31.1223 76.7559ZM25.5992 79.75H30.3992V78.55H25.5992V79.75Z" fill="#5F5F6A"/>
<path opacity="0.5" d="M35.7992 85.15H30.3992V86.35L30.3934 86.4731C30.3318 87.078 29.8204 87.55 29.1992 87.55H26.7992L26.6762 87.5441C26.1117 87.4867 25.6626 87.0376 25.6051 86.4731L25.5992 86.35V85.15H20.1992V83.35H35.7992V85.15Z" fill="#5F5F6A"/>
<path fill-rule="evenodd" clip-rule="evenodd" d="M31.1223 132.756C31.7272 132.817 32.1992 133.329 32.1992 133.95V135.75H33.3992L33.6441 135.763C34.8546 135.886 35.7992 136.907 35.7992 138.15V145.35L35.7863 145.595C35.6718 146.725 34.774 147.623 33.6441 147.737L33.3992 147.75H22.5992L22.3543 147.737C21.2244 147.623 20.3267 146.725 20.2121 145.595L20.1992 145.35V138.15C20.1992 136.907 21.1439 135.886 22.3543 135.763L22.5992 135.75H23.7992V133.95C23.7992 133.329 24.2712 132.817 24.8762 132.756L24.9992 132.75H30.9992L31.1223 132.756ZM21.9992 145.35C21.9992 145.681 22.2678 145.95 22.5992 145.95H33.3992C33.7306 145.95 33.9992 145.681 33.9992 145.35V141.15H30.3992V142.35L30.3934 142.473C30.3318 143.078 29.8204 143.55 29.1992 143.55H26.7992L26.6762 143.544C26.1117 143.487 25.6626 143.038 25.6051 142.473L25.5992 142.35V141.15H21.9992V145.35ZM22.5992 137.55C22.2678 137.55 21.9992 137.819 21.9992 138.15V139.35H33.9992V138.15C33.9992 137.819 33.7306 137.55 33.3992 137.55H22.5992ZM25.5992 135.75H30.3992V134.55H25.5992V135.75Z" fill="#5F5F6A"/>
<path fill-rule="evenodd" clip-rule="evenodd" d="M31.1223 188.756C31.7272 188.817 32.1992 189.329 32.1992 189.95V191.75H33.3992L33.6441 191.763C34.8546 191.886 35.7992 192.907 35.7992 194.15V201.35L35.7863 201.595C35.6718 202.725 34.774 203.623 33.6441 203.737L33.3992 203.75H22.5992L22.3543 203.737C21.2244 203.623 20.3267 202.725 20.2121 201.595L20.1992 201.35V194.15C20.1992 192.907 21.1439 191.886 22.3543 191.763L22.5992 191.75H23.7992V189.95C23.7992 189.329 24.2712 188.817 24.8762 188.756L24.9992 188.75H30.9992L31.1223 188.756ZM21.3992 201.35C21.3992 202.013 21.9365 202.55 22.5992 202.55H33.3992C34.062 202.55 34.5992 202.013 34.5992 201.35V197.15H30.3992V198.35L30.3934 198.473C30.3318 199.078 29.8204 199.55 29.1992 199.55H26.7992L26.6762 199.544C26.1117 199.487 25.6626 199.038 25.6051 198.473L25.5992 198.35V197.15H21.3992V201.35ZM26.7992 198.35H29.1992V197.15H26.7992V198.35ZM22.5992 192.95C21.9365 192.95 21.3992 193.487 21.3992 194.15V195.95H34.5992V194.15C34.5992 193.487 34.062 192.95 33.3992 192.95H22.5992ZM24.9992 191.75H30.9992V189.95H24.9992V191.75Z" fill="#5F5F6A"/>
</svg>
