<svg width="56" height="224" viewBox="0 0 56 224" fill="none" xmlns="http://www.w3.org/2000/svg">
<path fill-rule="evenodd" clip-rule="evenodd" d="M33.452 21.2615C33.4561 21.2576 33.4599 21.2556 33.4599 21.2556C33.4599 21.2556 33.4627 21.2545 33.4649 21.2541C33.4703 21.2533 33.4795 21.2537 33.4895 21.2577C33.494 21.2596 33.4971 21.2621 33.4991 21.2638L33.5 21.2645L33.5 32.7091C33.4978 32.711 33.4936 32.7139 33.4868 32.7167C33.4751 32.7214 33.464 32.722 33.4569 32.7208C33.4538 32.7203 33.4499 32.7187 33.4499 32.7187C33.4499 32.7187 33.4454 32.7163 33.4411 32.7122C31.9947 31.3397 30.548 30.4838 28.8744 29.9896C28.1286 29.7693 27.3432 29.6226 26.5 29.5318V24.5257C27.4089 24.425 28.2392 24.2555 29.0178 24.0043C30.6691 23.4715 32.0546 22.5818 33.452 21.2615ZM28.5912 30.9486C27.9417 30.7568 27.2514 30.6238 26.5 30.5379V33C26.5 33.8284 25.8284 34.5 25 34.5H24C23.1716 34.5 22.5 33.8284 22.5 33V30.357C21.3707 30.1052 20.5 29.1146 20.5 27.8918V26.1627C20.5 24.6972 21.7466 23.5781 23.1772 23.6246C25.4769 23.6993 27.2216 23.5331 28.7107 23.0526C30.1914 22.5749 31.4516 21.7758 32.7652 20.5346C33.388 19.9462 34.5 20.3378 34.5 21.2645V25.2396C35.1253 25.5778 35.55 26.2393 35.55 27C35.55 27.7608 35.1253 28.4223 34.5 28.7604V32.7083C34.5 33.6458 33.3722 34.0255 32.7527 33.4376C31.4071 32.1607 30.0958 31.3929 28.5912 30.9486Z" fill="#5F5F6A"/>
<path d="M26.5 89V79.5191C25.5257 79.6343 24.4344 79.6654 23.1772 79.6246C21.7466 79.5781 20.5 80.6972 20.5 82.1627V83.8918C20.5 85.1146 21.3707 86.1052 22.5 86.357V89C22.5 89.8284 23.1716 90.5 24 90.5H25C25.8284 90.5 26.5 89.8284 26.5 89Z" fill="#5F5F6A"/>
<path d="M34.5 81.2416C35.1251 81.5792 35.5497 82.2398 35.5498 83.0004C35.5496 83.7606 35.1248 84.4196 34.5 84.7572V81.2416Z" fill="#5F5F6A"/>
<path opacity="0.5" fill-rule="evenodd" clip-rule="evenodd" d="M32.7652 76.5346C33.388 75.9462 34.5 76.3378 34.5 77.2645V88.7083C34.5 89.6458 33.3722 90.0254 32.7527 89.4376C31.4071 88.1607 30.0958 87.3929 28.5912 86.9486C27.075 86.5009 25.3359 86.3734 23.1182 86.4186C21.7049 86.4473 20.5 85.3302 20.5 83.8918V82.1627C20.5 80.6972 21.7466 79.5781 23.1772 79.6246C25.4769 79.6993 27.2216 79.5331 28.7107 79.0526C30.1914 78.5749 31.4516 77.7758 32.7652 76.5346Z" fill="#5F5F6A"/>
<path fill-rule="evenodd" clip-rule="evenodd" d="M29.0945 136.242C30.6398 135.744 31.9544 134.941 33.25 133.786V144.197C31.8966 142.993 30.5201 142.215 28.9452 141.75C28.2497 141.544 27.5222 141.402 26.75 141.309V136.748C27.5873 136.643 28.3622 136.479 29.0945 136.242ZM25.25 136.87V141.188C24.5684 141.157 23.8517 141.153 23.0927 141.169C22.3484 141.184 21.75 140.599 21.75 139.892V138.163C21.75 137.446 22.3689 136.849 23.1367 136.874C23.8849 136.898 24.5868 136.898 25.25 136.87ZM22.25 142.55C21.1086 142.208 20.25 141.167 20.25 139.892V138.163C20.25 136.547 21.6222 135.324 23.1854 135.375C25.4708 135.449 27.1834 135.283 28.6339 134.815C30.0719 134.351 31.3008 133.574 32.5935 132.353C33.363 131.626 34.75 132.101 34.75 133.264V137.4C35.2358 137.765 35.55 138.346 35.55 139C35.55 139.654 35.2358 140.235 34.75 140.6V144.708C34.75 145.886 33.3442 146.343 32.5807 145.619C31.2602 144.366 29.9827 143.62 28.5204 143.188C27.9671 143.025 27.3816 142.905 26.75 142.821V145C26.75 145.966 25.9665 146.75 25 146.75H24C23.0335 146.75 22.25 145.966 22.25 145V142.55ZM23.75 145V142.75H25.25V145C25.25 145.138 25.1381 145.25 25 145.25H24C23.8619 145.25 23.75 145.138 23.75 145Z" fill="#5F5F6A"/>
<path fill-rule="evenodd" clip-rule="evenodd" d="M33.452 189.261C33.4561 189.258 33.4588 189.256 33.4599 189.256C33.4611 189.255 33.4627 189.254 33.4649 189.254C33.4703 189.253 33.4795 189.254 33.4895 189.258C33.4947 189.26 33.4981 189.262 33.5 189.264L33.5 200.708C33.4978 200.71 33.4936 200.714 33.4868 200.717C33.4751 200.721 33.464 200.722 33.4569 200.721C33.4538 200.72 33.4516 200.72 33.4499 200.719C33.4483 200.718 33.4454 200.716 33.4411 200.712C31.9947 199.34 30.548 198.484 28.8744 197.99C28.1286 197.769 27.3432 197.623 26.5 197.532V192.526C27.4089 192.425 28.2392 192.256 29.0178 192.004C30.6691 191.472 32.0546 190.582 33.452 189.261ZM25.5 192.607V197.451C24.7489 197.409 23.9517 197.401 23.0978 197.419C22.2197 197.437 21.5 196.745 21.5 195.892V194.163C21.5 193.296 22.2444 192.595 23.1448 192.624C23.9878 192.651 24.769 192.648 25.5 192.607ZM22.5 198.357C21.3707 198.105 20.5 197.115 20.5 195.892V194.163C20.5 192.697 21.7466 191.578 23.1772 191.625C25.4769 191.699 27.2216 191.533 28.7107 191.053C30.1914 190.575 31.4516 189.776 32.7652 188.535C33.388 187.946 34.5 188.338 34.5 189.264V193.24C35.1253 193.578 35.55 194.239 35.55 195C35.55 195.761 35.1253 196.422 34.5 196.76V200.708C34.5 201.646 33.3722 202.025 32.7527 201.438C31.4071 200.161 30.0958 199.393 28.5912 198.949C27.9417 198.757 27.2514 198.624 26.5 198.538V201C26.5 201.828 25.8284 202.5 25 202.5H24C23.1716 202.5 22.5 201.828 22.5 201V198.357ZM23.5 201V198.5H25.5V201C25.5 201.276 25.2761 201.5 25 201.5H24C23.7239 201.5 23.5 201.276 23.5 201Z" fill="#5F5F6A"/>
</svg>
