<svg width="56" height="168" viewBox="0 0 56 168" fill="none" xmlns="http://www.w3.org/2000/svg">
<path d="M20 22C20 21.4477 20.4477 21 21 21H35C35.5523 21 36 21.4477 36 22C36 22.5523 35.5523 23 35 23H21C20.4477 23 20 22.5523 20 22Z" fill="#5F5F6A"/>
<path d="M20 28C20 27.4477 20.4477 27 21 27H35C35.5523 27 36 27.4477 36 28C36 28.5523 35.5523 29 35 29H21C20.4477 29 20 28.5523 20 28Z" fill="#5F5F6A"/>
<path d="M21 33C20.4477 33 20 33.4477 20 34C20 34.5523 20.4477 35 21 35H35C35.5523 35 36 34.5523 36 34C36 33.4477 35.5523 33 35 33H21Z" fill="#5F5F6A"/>
<path d="M20 78C20 77.4477 20.4477 77 21 77H35C35.5523 77 36 77.4477 36 78C36 78.5523 35.5523 79 35 79H21C20.4477 79 20 78.5523 20 78Z" fill="#5F5F6A"/>
<path d="M20 84C20 83.4477 20.4477 83 21 83H35C35.5523 83 36 83.4477 36 84C36 84.5523 35.5523 85 35 85H21C20.4477 85 20 84.5523 20 84Z" fill="#5F5F6A"/>
<path d="M21 89C20.4477 89 20 89.4477 20 90C20 90.5523 20.4477 91 21 91H35C35.5523 91 36 90.5523 36 90C36 89.4477 35.5523 89 35 89H21Z" fill="#5F5F6A"/>
<path d="M20.5 134C20.5 133.724 20.7239 133.5 21 133.5H35C35.2761 133.5 35.5 133.724 35.5 134C35.5 134.276 35.2761 134.5 35 134.5H21C20.7239 134.5 20.5 134.276 20.5 134Z" fill="#5F5F6A"/>
<path d="M20.5 140C20.5 139.724 20.7239 139.5 21 139.5H35C35.2761 139.5 35.5 139.724 35.5 140C35.5 140.276 35.2761 140.5 35 140.5H21C20.7239 140.5 20.5 140.276 20.5 140Z" fill="#5F5F6A"/>
<path d="M21 145.5C20.7239 145.5 20.5 145.724 20.5 146C20.5 146.276 20.7239 146.5 21 146.5H35C35.2761 146.5 35.5 146.276 35.5 146C35.5 145.724 35.2761 145.5 35 145.5H21Z" fill="#5F5F6A"/>
</svg>
