<svg width="56" height="168" viewBox="0 0 56 168" fill="none" xmlns="http://www.w3.org/2000/svg">
<g opacity="0.5">
<path d="M24 21C23.4477 21 23 21.4477 23 22C23 22.5523 23.4477 23 24 23H36C36.5523 23 37 22.5523 37 22C37 21.4477 36.5523 21 36 21H24Z" fill="#5F5F6A"/>
<path d="M24 33C23.4477 33 23 33.4477 23 34C23 34.5523 23.4477 35 24 35H36C36.5523 35 37 34.5523 37 34C37 33.4477 36.5523 33 36 33H24Z" fill="#5F5F6A"/>
</g>
<path d="M21.0303 24.9697C21.3232 25.2626 21.3232 25.7374 21.0303 26.0303L19.8107 27.25H35C35.4142 27.25 35.75 27.5858 35.75 28C35.75 28.4142 35.4142 28.75 35 28.75H19.8107L21.0303 29.9697C21.3232 30.2626 21.3232 30.7374 21.0303 31.0303C20.7374 31.3232 20.2626 31.3232 19.9697 31.0303L17.4697 28.5303C17.1768 28.2374 17.1768 27.7626 17.4697 27.4697L19.9697 24.9697C20.2626 24.6768 20.7374 24.6768 21.0303 24.9697Z" fill="#5F5F6A"/>
<path d="M23 78C23 77.4477 23.4477 77 24 77H36C36.5523 77 37 77.4477 37 78C37 78.5523 36.5523 79 36 79H24C23.4477 79 23 78.5523 23 78Z" fill="#5F5F6A"/>
<path d="M21.0303 85.9697L19.8607 84.8H35.0002C35.442 84.8 35.8002 84.4418 35.8002 84C35.8002 83.5582 35.442 83.2 35.0002 83.2H19.8607L21.0303 82.0303C21.3232 81.7374 21.3232 81.2626 21.0303 80.9697C20.7374 80.6768 20.2626 80.6768 19.9697 80.9697L17.4697 83.4697C17.1768 83.7626 17.1768 84.2374 17.4697 84.5303L19.9697 87.0303C20.2626 87.3232 20.7374 87.3232 21.0303 87.0303C21.3232 86.7374 21.3232 86.2626 21.0303 85.9697Z" fill="#5F5F6A"/>
<path d="M24 89C23.4477 89 23 89.4477 23 90C23 90.5523 23.4477 91 24 91H36C36.5523 91 37 90.5523 37 90C37 89.4477 36.5523 89 36 89H24Z" fill="#5F5F6A"/>
<path d="M24 133.5C23.7239 133.5 23.5 133.724 23.5 134C23.5 134.276 23.7239 134.5 24 134.5H36C36.2761 134.5 36.5 134.276 36.5 134C36.5 133.724 36.2761 133.5 36 133.5H24Z" fill="#5F5F6A"/>
<path d="M19.2071 140.5L20.8536 142.146C21.0488 142.342 21.0488 142.658 20.8536 142.854C20.6583 143.049 20.3417 143.049 20.1464 142.854L17.6464 140.354C17.4512 140.158 17.4512 139.842 17.6464 139.646L20.1464 137.146C20.3417 136.951 20.6583 136.951 20.8536 137.146C21.0488 137.342 21.0488 137.658 20.8536 137.854L19.2071 139.5H35C35.2761 139.5 35.5 139.724 35.5 140C35.5 140.276 35.2761 140.5 35 140.5H19.2071Z" fill="#5F5F6A"/>
<path d="M23.5 146C23.5 145.724 23.7239 145.5 24 145.5H36C36.2761 145.5 36.5 145.724 36.5 146C36.5 146.276 36.2761 146.5 36 146.5H24C23.7239 146.5 23.5 146.276 23.5 146Z" fill="#5F5F6A"/>
</svg>
