<svg width="56" height="224" viewBox="0 0 56 224" fill="none" xmlns="http://www.w3.org/2000/svg">
<path d="M24.8289 28.5237C24.9391 28.3899 25.2199 28.25 25.5 28.25C25.9142 28.25 26.25 28.5858 26.25 29C26.25 29.2647 26.1729 29.4245 26.0729 29.521C25.9714 29.619 25.7444 29.75 25.25 29.75C24.8358 29.75 24.5 30.0858 24.5 30.5C24.5 30.9142 24.8358 31.25 25.25 31.25C25.7444 31.25 25.9714 31.381 26.0729 31.479C26.1729 31.5755 26.25 31.7353 26.25 32C26.25 32.4142 25.9142 32.75 25.5 32.75C25.2199 32.75 24.9391 32.6101 24.8289 32.4763C24.5655 32.1566 24.0928 32.1109 23.7731 32.3743C23.4534 32.6377 23.4078 33.1104 23.6712 33.4301C24.1111 33.9641 24.8473 34.25 25.5 34.25C26.7426 34.25 27.75 33.2426 27.75 32C27.75 31.4776 27.6015 30.9324 27.2116 30.5C27.6015 30.0676 27.75 29.5224 27.75 29C27.75 27.7574 26.7426 26.75 25.5 26.75C24.8473 26.75 24.1111 27.0359 23.6712 27.5699C23.4078 27.8896 23.4534 28.3623 23.7731 28.6257C24.0928 28.8891 24.5655 28.8434 24.8289 28.5237Z" fill="#5F5F6A"/>
<path d="M30.5 33.5V28.7486L30.1023 28.9602C29.7366 29.1548 29.2825 29.016 29.0879 28.6504C28.8933 28.2847 29.0321 27.8305 29.3977 27.636L30.6156 26.988L30.6249 26.983C30.6611 26.9637 30.7254 26.9293 30.7869 26.9035C30.8521 26.8761 31.0233 26.8086 31.2419 26.837C31.4823 26.8682 31.6987 26.9982 31.8391 27.1957C31.9668 27.3754 31.9877 27.5582 31.9941 27.6286C32.0002 27.6951 32.0001 27.768 32 27.8091L32 27.8196V33.5C32 33.9142 31.6642 34.25 31.25 34.25C30.8358 34.25 30.5 33.9142 30.5 33.5Z" fill="#5F5F6A"/>
<path d="M26.367 18.75H29.633C30.7251 18.75 31.5906 18.75 32.2883 18.807C33.0017 18.8653 33.6053 18.9869 34.1565 19.2677C35.0502 19.7231 35.7769 20.4498 36.2323 21.3435C36.5131 21.8947 36.6347 22.4983 36.693 23.2117C36.75 23.9094 36.75 24.7748 36.75 25.867V30.133C36.75 31.2252 36.75 32.0906 36.693 32.7883C36.6347 33.5017 36.5131 34.1053 36.2323 34.6565C35.7769 35.5502 35.0502 36.2769 34.1565 36.7323C33.6053 37.0131 33.0017 37.1347 32.2883 37.193C31.5906 37.25 30.7252 37.25 29.633 37.25H26.367C25.2748 37.25 24.4094 37.25 23.7117 37.193C22.9983 37.1347 22.3947 37.0131 21.8435 36.7323C20.9498 36.2769 20.2231 35.5502 19.7677 34.6565C19.4869 34.1053 19.3653 33.5017 19.307 32.7883C19.25 32.0906 19.25 31.2252 19.25 30.133V25.867C19.25 24.7749 19.25 23.9094 19.307 23.2117C19.3653 22.4983 19.4869 21.8947 19.7677 21.3435C20.2231 20.4498 20.9498 19.7231 21.8435 19.2677C22.3947 18.9869 22.9983 18.8653 23.7117 18.807C24.4094 18.75 25.2749 18.75 26.367 18.75ZM20.7501 25.5L20.75 30.1C20.75 31.2325 20.7506 32.0367 20.802 32.6661C20.8527 33.2867 20.9491 33.671 21.1042 33.9755C21.4158 34.587 21.913 35.0842 22.5245 35.3958C22.829 35.5509 23.2133 35.6473 23.8339 35.698C24.4633 35.7494 25.2675 35.75 26.4 35.75H29.6C30.7325 35.75 31.5367 35.7494 32.1661 35.698C32.7867 35.6473 33.171 35.5509 33.4755 35.3958C34.087 35.0842 34.5842 34.587 34.8958 33.9755C35.0509 33.671 35.1473 33.2867 35.198 32.6661C35.2494 32.0367 35.25 31.2325 35.25 30.1L35.2499 25.5H20.7501ZM25.5 21.75C24.9477 21.75 24.5 22.1977 24.5 22.75C24.5 23.3023 24.9477 23.75 25.5 23.75H30.5C31.0523 23.75 31.5 23.3023 31.5 22.75C31.5 22.1977 31.0523 21.75 30.5 21.75H25.5Z" fill="#5F5F6A"/>
<path d="M26.367 74.75H29.633C30.7251 74.75 31.5906 74.75 32.2883 74.807C33.0017 74.8653 33.6053 74.9869 34.1565 75.2677C35.0502 75.7231 35.7769 76.4498 36.2323 77.3435C36.5131 77.8947 36.6347 78.4983 36.693 79.2117C36.75 79.9094 36.75 80.7748 36.75 81.867V86.133C36.75 87.2252 36.75 88.0906 36.693 88.7883C36.6347 89.5017 36.5131 90.1053 36.2323 90.6565C35.7769 91.5502 35.0502 92.2769 34.1565 92.7323C33.6053 93.0131 33.0017 93.1347 32.2883 93.193C31.5906 93.25 30.7252 93.25 29.633 93.25H26.367C25.2748 93.25 24.4094 93.25 23.7117 93.193C22.9983 93.1347 22.3947 93.0131 21.8435 92.7323C20.9498 92.2769 20.2231 91.5502 19.7677 90.6565C19.4869 90.1053 19.3653 89.5017 19.307 88.7883C19.25 88.0906 19.25 87.2251 19.25 86.133V81.867C19.25 80.7749 19.25 79.9094 19.307 79.2117C19.3653 78.4983 19.4869 77.8947 19.7677 77.3435C20.2231 76.4498 20.9498 75.7231 21.8435 75.2677C22.3947 74.9869 22.9983 74.8653 23.7117 74.807C24.4094 74.75 25.2749 74.75 26.367 74.75ZM23.8339 76.302C23.2133 76.3527 22.829 76.4491 22.5245 76.6042C21.913 76.9158 21.4158 77.413 21.1042 78.0245C20.9491 78.329 20.8527 78.7133 20.802 79.3339C20.7506 79.9633 20.75 80.7675 20.75 81.9V86.1C20.75 87.2325 20.7506 88.0367 20.802 88.6661C20.8527 89.2867 20.9491 89.671 21.1042 89.9755C21.4158 90.587 21.913 91.0842 22.5245 91.3958C22.829 91.5509 23.2133 91.6473 23.8339 91.698C24.4633 91.7494 25.2675 91.75 26.4 91.75H29.6C30.7325 91.75 31.5367 91.7494 32.1661 91.698C32.7867 91.6473 33.171 91.5509 33.4755 91.3958C34.087 91.0842 34.5842 90.587 34.8958 89.9755C35.0509 89.671 35.1473 89.2867 35.198 88.6661C35.2494 88.0367 35.25 87.2325 35.25 86.1V81.9C35.25 80.7675 35.2494 79.9633 35.198 79.3339C35.1473 78.7133 35.0509 78.329 34.8958 78.0245C34.5842 77.413 34.087 76.9158 33.4755 76.6042C33.171 76.4491 32.7867 76.3527 32.1661 76.302C31.5367 76.2506 30.7325 76.25 29.6 76.25H26.4C25.2675 76.25 24.4633 76.2506 23.8339 76.302Z" fill="#5F5F6A"/>
<g opacity="0.5">
<path fill-rule="evenodd" clip-rule="evenodd" d="M22.5244 76.6042C22.8289 76.4491 23.2131 76.3527 23.8338 76.302C24.4631 76.2506 25.2674 76.25 26.3999 76.25H29.5999C30.7324 76.25 31.5366 76.2506 32.166 76.302C32.7866 76.3527 33.1709 76.4491 33.4754 76.6042C34.0869 76.9158 34.5841 77.413 34.8957 78.0245C35.0508 78.329 35.1472 78.7133 35.1979 79.3339C35.243 79.8865 35.249 80.5739 35.2498 81.5H20.75C20.7508 80.5739 20.7567 79.8865 20.8019 79.3339C20.8526 78.7133 20.949 78.329 21.1041 78.0245C21.4157 77.413 21.9129 76.9158 22.5244 76.6042ZM24.4999 78.75C24.4999 79.3023 24.9476 79.75 25.4999 79.75H30.4999C31.0522 79.75 31.4999 79.3023 31.4999 78.75C31.4999 78.1977 31.0522 77.75 30.4999 77.75H25.4999C24.9476 77.75 24.4999 78.1977 24.4999 78.75Z" fill="#5F5F6A"/>
<path d="M24.8288 84.5237C24.939 84.3899 25.2197 84.25 25.4999 84.25C25.9141 84.25 26.2499 84.5858 26.2499 85C26.2499 85.2647 26.1728 85.4245 26.0728 85.521C25.9713 85.619 25.7443 85.75 25.2499 85.75C24.8357 85.75 24.4999 86.0858 24.4999 86.5C24.4999 86.9142 24.8357 87.25 25.2499 87.25C25.7443 87.25 25.9713 87.381 26.0728 87.479C26.1728 87.5755 26.2499 87.7353 26.2499 88C26.2499 88.4142 25.9141 88.75 25.4999 88.75C25.2197 88.75 24.939 88.6101 24.8288 88.4763C24.5654 88.1566 24.0927 88.1109 23.773 88.3743C23.4533 88.6377 23.4077 89.1104 23.671 89.4301C24.111 89.9641 24.8471 90.25 25.4999 90.25C26.7425 90.25 27.7499 89.2426 27.7499 88C27.7499 87.4776 27.6014 86.9324 27.2115 86.5C27.6014 86.0676 27.7499 85.5224 27.7499 85C27.7499 83.7574 26.7425 82.75 25.4999 82.75C24.8471 82.75 24.111 83.0359 23.671 83.5699C23.4077 83.8896 23.4533 84.3623 23.773 84.6257C24.0927 84.8891 24.5654 84.8434 24.8288 84.5237Z" fill="#5F5F6A"/>
<path d="M30.4999 84.7486V89.5C30.4999 89.9142 30.8357 90.25 31.2499 90.25C31.6641 90.25 31.9999 89.9142 31.9999 89.5V83.8196L31.9999 83.8091C32 83.768 32.0001 83.6951 31.994 83.6286C31.9875 83.5582 31.9667 83.3754 31.839 83.1957C31.6986 82.9982 31.4821 82.8682 31.2418 82.837C31.0232 82.8086 30.852 82.8761 30.7868 82.9035C30.7253 82.9293 30.661 82.9637 30.6248 82.983L30.6154 82.988L29.3976 83.636C29.0319 83.8305 28.8932 84.2847 29.0878 84.6504C29.2824 85.016 29.7365 85.1548 30.1022 84.9602L30.4999 84.7486Z" fill="#5F5F6A"/>
</g>
<path d="M24.5 134.5C24.5 134.224 24.7239 134 25 134H31C31.2761 134 31.5 134.224 31.5 134.5C31.5 134.776 31.2761 135 31 135H25C24.7239 135 24.5 134.776 24.5 134.5Z" fill="#5F5F6A"/>
<path d="M24.6359 140.865C24.8011 140.664 25.1578 140.5 25.5 140.5C26.0523 140.5 26.5 140.948 26.5 141.5C26.5 141.815 26.4069 142.046 26.2465 142.201C26.0851 142.357 25.7879 142.5 25.25 142.5C24.9739 142.5 24.75 142.724 24.75 143C24.75 143.276 24.9739 143.5 25.25 143.5C25.7879 143.5 26.0851 143.643 26.2465 143.799C26.4069 143.954 26.5 144.185 26.5 144.5C26.5 145.052 26.0523 145.5 25.5 145.5C25.1578 145.5 24.8011 145.336 24.6359 145.135C24.4603 144.922 24.1452 144.892 23.9321 145.067C23.719 145.243 23.6885 145.558 23.8641 145.771C24.2491 146.238 24.9094 146.5 25.5 146.5C26.6046 146.5 27.5 145.605 27.5 144.5C27.5 143.986 27.3431 143.468 26.941 143.08C26.9125 143.052 26.8831 143.026 26.8528 143C26.8831 142.974 26.9125 142.948 26.941 142.92C27.3431 142.532 27.5 142.014 27.5 141.5C27.5 140.395 26.6046 139.5 25.5 139.5C24.9094 139.5 24.2491 139.762 23.8641 140.229C23.6885 140.442 23.719 140.757 23.9321 140.933C24.1452 141.108 24.4603 141.078 24.6359 140.865Z" fill="#5F5F6A"/>
<path d="M30.75 146V140.832L29.9849 141.239C29.7411 141.369 29.4383 141.277 29.3086 141.033C29.1789 140.789 29.2714 140.486 29.5152 140.357L30.7419 139.704C30.7797 139.684 30.8337 139.655 30.8837 139.634C30.9365 139.612 31.0577 139.565 31.2097 139.585C31.381 139.607 31.5353 139.7 31.6354 139.841C31.7242 139.966 31.7399 140.094 31.7452 140.151C31.7501 140.206 31.7501 140.267 31.75 140.309L31.75 146C31.75 146.276 31.5262 146.5 31.25 146.5C30.9739 146.5 30.75 146.276 30.75 146Z" fill="#5F5F6A"/>
<path d="M29.6226 131H26.3774C25.2764 131 24.4195 131 23.7321 131.056C23.0342 131.113 22.4671 131.231 21.957 131.49C21.1103 131.922 20.4219 132.61 19.9905 133.457C19.7306 133.967 19.6132 134.534 19.5562 135.232C19.5 135.919 19.5 136.776 19.5 137.877V142.123C19.5 143.224 19.5 144.081 19.5562 144.768C19.6132 145.466 19.7306 146.033 19.9905 146.543C20.4219 147.39 21.1103 148.078 21.957 148.51C22.4671 148.769 23.0342 148.887 23.7321 148.944C24.4195 149 25.2764 149 26.3773 149H29.6226C30.7236 149 31.5805 149 32.2679 148.944C32.9658 148.887 33.5329 148.769 34.043 148.51C34.8897 148.078 35.5781 147.39 36.0095 146.543C36.2694 146.033 36.3868 145.466 36.4438 144.768C36.5 144.081 36.5 143.224 36.5 142.123V137.877C36.5 136.776 36.5 135.919 36.4438 135.232C36.3868 134.534 36.2694 133.967 36.0095 133.457C35.5781 132.61 34.8897 131.922 34.043 131.49C33.5329 131.231 32.9658 131.113 32.2679 131.056C31.5805 131 30.7236 131 29.6226 131ZM22.411 132.381C22.7566 132.205 23.1774 132.105 23.8135 132.053C24.4554 132 25.2716 132 26.4 132H29.6C30.7284 132 31.5446 132 32.1865 132.053C32.8226 132.105 33.2434 132.205 33.589 132.381C34.2475 132.717 34.783 133.252 35.1185 133.911C35.2946 134.257 35.3952 134.677 35.4472 135.314C35.4845 135.771 35.4955 136.316 35.4987 137H20.5013C20.5045 136.316 20.5155 135.771 20.5528 135.314C20.6048 134.677 20.7054 134.257 20.8815 133.911C21.217 133.252 21.7525 132.717 22.411 132.381ZM20.5 138H35.5V142.1C35.5 143.228 35.4996 144.045 35.4472 144.686C35.3952 145.323 35.2946 145.743 35.1185 146.089C34.783 146.748 34.2475 147.283 33.589 147.619C33.2434 147.795 32.8226 147.895 32.1865 147.947C31.5446 148 30.7284 148 29.6 148H26.4C25.2716 148 24.4554 148 23.8135 147.947C23.1774 147.895 22.7566 147.795 22.411 147.619C21.7525 147.283 21.217 146.748 20.8815 146.089C20.7054 145.743 20.6048 145.323 20.5528 144.686C20.5004 144.045 20.5 143.228 20.5 142.1V138Z" fill="#5F5F6A"/>
<path fill-rule="evenodd" clip-rule="evenodd" d="M31.6354 139.841C31.7242 139.966 31.7399 140.094 31.7452 140.151C31.7501 140.206 31.7501 140.267 31.75 140.309L31.75 146C31.75 146.276 31.5262 146.5 31.25 146.5C30.9739 146.5 30.75 146.276 30.75 146V140.832L29.9849 141.239C29.7411 141.369 29.4383 141.277 29.3086 141.033C29.1789 140.789 29.2714 140.486 29.5152 140.357L30.7419 139.704C30.7797 139.684 30.8337 139.655 30.8837 139.634C30.9365 139.612 31.0577 139.565 31.2097 139.585C31.381 139.607 31.5353 139.7 31.6354 139.841ZM29.3977 140.136C29.0321 140.331 28.8933 140.785 29.0879 141.15C29.2825 141.516 29.7366 141.655 30.1023 141.46L30.5 141.249V146C30.5 146.414 30.8358 146.75 31.25 146.75C31.6642 146.75 32 146.414 32 146L32 140.306C32.0001 140.265 32.0001 140.194 31.9941 140.129C31.9876 140.058 31.9667 139.875 31.8391 139.696C31.6987 139.498 31.4823 139.368 31.2419 139.337C31.0236 139.309 30.8526 139.376 30.7869 139.404C30.7261 139.429 30.6637 139.462 30.6272 139.482L29.3977 140.136ZM29.6336 130.75C30.7254 130.75 31.5907 130.75 32.2883 130.807C33.0017 130.865 33.6053 130.987 34.1565 131.268C35.0502 131.723 35.7769 132.45 36.2323 133.344C36.5131 133.895 36.6347 134.498 36.693 135.212C36.75 135.909 36.75 136.775 36.75 137.866V142.134C36.75 143.225 36.75 144.091 36.693 144.788C36.6347 145.502 36.5131 146.105 36.2323 146.656C35.7769 147.55 35.0502 148.277 34.1565 148.732C33.6053 149.013 33.0017 149.135 32.2883 149.193C31.5907 149.25 30.7254 149.25 29.6336 149.25H26.3664C25.2746 149.25 24.4093 149.25 23.7117 149.193C22.9983 149.135 22.3947 149.013 21.8435 148.732C20.9498 148.277 20.2231 147.55 19.7677 146.656C19.4869 146.105 19.3653 145.502 19.307 144.788C19.25 144.091 19.25 143.225 19.25 142.134V137.866C19.25 136.775 19.25 135.909 19.307 135.212C19.3653 134.498 19.4869 133.895 19.7677 133.344C20.2231 132.45 20.9498 131.723 21.8435 131.268C22.3947 130.987 22.9983 130.865 23.7117 130.807C24.4093 130.75 25.2746 130.75 26.3665 130.75H29.6336ZM23.8339 132.302C23.2132 132.353 22.829 132.449 22.5245 132.604C21.913 132.916 21.4158 133.413 21.1042 134.025C20.9491 134.329 20.8527 134.713 20.802 135.334C20.7701 135.724 20.7577 136.184 20.7529 136.75H35.2471C35.2423 136.184 35.2299 135.724 35.198 135.334C35.1473 134.713 35.0509 134.329 34.8958 134.025C34.5842 133.413 34.087 132.916 33.4755 132.604C33.171 132.449 32.7868 132.353 32.1661 132.302C31.5367 132.251 30.7325 132.25 29.6 132.25H26.4C25.2675 132.25 24.4633 132.251 23.8339 132.302ZM35.4971 136.75C35.4923 136.181 35.4798 135.714 35.4472 135.314C35.3952 134.677 35.2946 134.257 35.1185 133.911C34.783 133.252 34.2475 132.717 33.589 132.381C33.2434 132.205 32.8226 132.105 32.1865 132.053C31.5446 132 30.7284 132 29.6 132H26.4C25.2716 132 24.4554 132 23.8135 132.053C23.1774 132.105 22.7566 132.205 22.411 132.381C21.7525 132.717 21.217 133.252 20.8815 133.911C20.7054 134.257 20.6048 134.677 20.5528 135.314C20.5202 135.714 20.5077 136.181 20.5029 136.75C20.5023 136.831 20.5017 136.915 20.5013 137H35.4987C35.4983 136.915 35.4977 136.831 35.4971 136.75ZM20.75 138.25V142.1C20.75 143.233 20.7506 144.037 20.802 144.666C20.8527 145.287 20.9491 145.671 21.1042 145.975C21.4158 146.587 21.913 147.084 22.5245 147.396C22.829 147.551 23.2132 147.647 23.8339 147.698C24.4633 147.749 25.2675 147.75 26.4 147.75H29.6C30.7325 147.75 31.5367 147.749 32.1661 147.698C32.7868 147.647 33.171 147.551 33.4755 147.396C34.087 147.084 34.5842 146.587 34.8958 145.975C35.0509 145.671 35.1473 145.287 35.198 144.666C35.2494 144.037 35.25 143.233 35.25 142.1V138.25H20.75ZM24.25 134.5C24.25 134.086 24.5858 133.75 25 133.75H31C31.4142 133.75 31.75 134.086 31.75 134.5C31.75 134.914 31.4142 135.25 31 135.25H25C24.5858 135.25 24.25 134.914 24.25 134.5ZM25.5 140.75C25.2203 140.75 24.9394 140.89 24.8289 141.024C24.5655 141.343 24.0928 141.389 23.7731 141.126C23.4534 140.862 23.4078 140.39 23.6712 140.07C24.1113 139.536 24.8475 139.25 25.5 139.25C26.7426 139.25 27.75 140.257 27.75 141.5C27.75 142.022 27.6016 142.567 27.2116 143C27.6016 143.433 27.75 143.978 27.75 144.5C27.75 145.743 26.7426 146.75 25.5 146.75C24.8475 146.75 24.1113 146.464 23.6712 145.93C23.4078 145.61 23.4534 145.138 23.7731 144.874C24.0928 144.611 24.5655 144.657 24.8289 144.976C24.9394 145.11 25.2203 145.25 25.5 145.25C25.9142 145.25 26.25 144.914 26.25 144.5C26.25 144.236 26.1732 144.076 26.0729 143.979C25.9712 143.881 25.744 143.75 25.25 143.75C24.8358 143.75 24.5 143.414 24.5 143C24.5 142.586 24.8358 142.25 25.25 142.25C25.744 142.25 25.9712 142.119 26.0729 142.021C26.1732 141.924 26.25 141.764 26.25 141.5C26.25 141.086 25.9142 140.75 25.5 140.75ZM27.0328 142.825C27.3672 142.449 27.5 141.973 27.5 141.5C27.5 140.395 26.6046 139.5 25.5 139.5C24.9094 139.5 24.2491 139.762 23.8641 140.229C23.6885 140.442 23.719 140.757 23.9321 140.933C24.1452 141.108 24.4603 141.078 24.6359 140.865C24.8011 140.664 25.1578 140.5 25.5 140.5C26.0523 140.5 26.5 140.948 26.5 141.5C26.5 141.815 26.4069 142.046 26.2465 142.201C26.0851 142.357 25.7879 142.5 25.25 142.5C24.9739 142.5 24.75 142.724 24.75 143C24.75 143.276 24.9739 143.5 25.25 143.5C25.7879 143.5 26.0851 143.643 26.2465 143.799C26.4069 143.954 26.5 144.185 26.5 144.5C26.5 145.052 26.0523 145.5 25.5 145.5C25.1578 145.5 24.8011 145.336 24.6359 145.135C24.4603 144.922 24.1452 144.892 23.9321 145.067C23.719 145.243 23.6885 145.558 23.8641 145.771C24.2491 146.238 24.9094 146.5 25.5 146.5C26.6046 146.5 27.5 145.605 27.5 144.5C27.5 144.027 27.3672 143.551 27.0328 143.175C27.0037 143.142 26.9731 143.111 26.941 143.08C26.9125 143.052 26.8831 143.026 26.8528 143C26.8831 142.974 26.9125 142.948 26.941 142.92C26.9731 142.889 27.0037 142.858 27.0328 142.825ZM26.3774 131H29.6226C30.7236 131 31.5805 131 32.2679 131.056C32.9658 131.113 33.5329 131.231 34.043 131.49C34.8897 131.922 35.5781 132.61 36.0095 133.457C36.2694 133.967 36.3868 134.534 36.4438 135.232C36.5 135.919 36.5 136.776 36.5 137.877V142.123C36.5 143.224 36.5 144.081 36.4438 144.768C36.3868 145.466 36.2694 146.033 36.0095 146.543C35.5781 147.39 34.8897 148.078 34.043 148.51C33.5329 148.769 32.9658 148.887 32.2679 148.944C31.5805 149 30.7236 149 29.6226 149H26.3773C25.2764 149 24.4195 149 23.7321 148.944C23.0342 148.887 22.4671 148.769 21.957 148.51C21.1103 148.078 20.4219 147.39 19.9905 146.543C19.7306 146.033 19.6132 145.466 19.5562 144.768C19.5 144.081 19.5 143.224 19.5 142.123V137.877C19.5 136.776 19.5 135.919 19.5562 135.232C19.6132 134.534 19.7306 133.967 19.9905 133.457C20.4219 132.61 21.1103 131.922 21.957 131.49C22.4671 131.231 23.0342 131.113 23.7321 131.056C24.4195 131 25.2764 131 26.3774 131ZM20.5 138V142.1C20.5 143.228 20.5004 144.045 20.5528 144.686C20.6048 145.323 20.7054 145.743 20.8815 146.089C21.217 146.748 21.7525 147.283 22.411 147.619C22.7566 147.795 23.1774 147.895 23.8135 147.947C24.4554 148 25.2716 148 26.4 148H29.6C30.7284 148 31.5446 148 32.1865 147.947C32.8226 147.895 33.2434 147.795 33.589 147.619C34.2475 147.283 34.783 146.748 35.1185 146.089C35.2946 145.743 35.3952 145.323 35.4472 144.686C35.4996 144.045 35.5 143.228 35.5 142.1V138H20.5ZM25 134C24.7239 134 24.5 134.224 24.5 134.5C24.5 134.776 24.7239 135 25 135H31C31.2761 135 31.5 134.776 31.5 134.5C31.5 134.224 31.2761 134 31 134H25Z" fill="#5F5F6A"/>
<path d="M24.5 190.5C24.5 190.224 24.7239 190 25 190H31C31.2761 190 31.5 190.224 31.5 190.5C31.5 190.776 31.2761 191 31 191H25C24.7239 191 24.5 190.776 24.5 190.5Z" fill="#5F5F6A"/>
<path d="M24.6359 196.865C24.8011 196.664 25.1578 196.5 25.5 196.5C26.0523 196.5 26.5 196.948 26.5 197.5C26.5 197.815 26.4069 198.046 26.2465 198.201C26.0851 198.357 25.7879 198.5 25.25 198.5C24.9739 198.5 24.75 198.724 24.75 199C24.75 199.276 24.9739 199.5 25.25 199.5C25.7879 199.5 26.0851 199.643 26.2465 199.799C26.4069 199.954 26.5 200.185 26.5 200.5C26.5 201.052 26.0523 201.5 25.5 201.5C25.1578 201.5 24.8011 201.336 24.6359 201.135C24.4603 200.922 24.1452 200.892 23.9321 201.067C23.719 201.243 23.6885 201.558 23.8641 201.771C24.2491 202.238 24.9094 202.5 25.5 202.5C26.6046 202.5 27.5 201.605 27.5 200.5C27.5 199.986 27.3431 199.468 26.941 199.08C26.9125 199.052 26.8831 199.026 26.8528 199C26.8831 198.974 26.9125 198.948 26.941 198.92C27.3431 198.532 27.5 198.014 27.5 197.5C27.5 196.395 26.6046 195.5 25.5 195.5C24.9094 195.5 24.2491 195.762 23.8641 196.229C23.6885 196.442 23.719 196.757 23.9321 196.933C24.1452 197.108 24.4603 197.078 24.6359 196.865Z" fill="#5F5F6A"/>
<path d="M30.75 202V196.832L29.9849 197.239C29.7411 197.369 29.4383 197.277 29.3086 197.033C29.1789 196.789 29.2714 196.486 29.5152 196.357L30.7419 195.704C30.7797 195.684 30.8337 195.655 30.8837 195.634C30.9365 195.612 31.0577 195.565 31.2097 195.585C31.381 195.607 31.5353 195.7 31.6354 195.841C31.7242 195.966 31.7399 196.094 31.7452 196.151C31.7501 196.206 31.7501 196.267 31.75 196.309L31.75 202C31.75 202.276 31.5262 202.5 31.25 202.5C30.9739 202.5 30.75 202.276 30.75 202Z" fill="#5F5F6A"/>
<path d="M29.6226 187H26.3774C25.2764 187 24.4195 187 23.7321 187.056C23.0342 187.113 22.4671 187.231 21.957 187.49C21.1103 187.922 20.4219 188.61 19.9905 189.457C19.7306 189.967 19.6132 190.534 19.5562 191.232C19.5 191.919 19.5 192.776 19.5 193.877V198.123C19.5 199.224 19.5 200.081 19.5562 200.768C19.6132 201.466 19.7306 202.033 19.9905 202.543C20.4219 203.39 21.1103 204.078 21.957 204.51C22.4671 204.769 23.0342 204.887 23.7321 204.944C24.4195 205 25.2764 205 26.3773 205H29.6226C30.7236 205 31.5805 205 32.2679 204.944C32.9658 204.887 33.5329 204.769 34.043 204.51C34.8897 204.078 35.5781 203.39 36.0095 202.543C36.2694 202.033 36.3868 201.466 36.4438 200.768C36.5 200.081 36.5 199.224 36.5 198.123V193.877C36.5 192.776 36.5 191.919 36.4438 191.232C36.3868 190.534 36.2694 189.967 36.0095 189.457C35.5781 188.61 34.8897 187.922 34.043 187.49C33.5329 187.231 32.9658 187.113 32.2679 187.056C31.5805 187 30.7236 187 29.6226 187ZM22.411 188.381C22.7566 188.205 23.1774 188.105 23.8135 188.053C24.4554 188 25.2716 188 26.4 188H29.6C30.7284 188 31.5446 188 32.1865 188.053C32.8226 188.105 33.2434 188.205 33.589 188.381C34.2475 188.717 34.783 189.252 35.1185 189.911C35.2946 190.257 35.3952 190.677 35.4472 191.314C35.4845 191.771 35.4955 192.316 35.4987 193H20.5013C20.5045 192.316 20.5155 191.771 20.5528 191.314C20.6048 190.677 20.7054 190.257 20.8815 189.911C21.217 189.252 21.7525 188.717 22.411 188.381ZM20.5 194H35.5V198.1C35.5 199.228 35.4996 200.045 35.4472 200.686C35.3952 201.323 35.2946 201.743 35.1185 202.089C34.783 202.748 34.2475 203.283 33.589 203.619C33.2434 203.795 32.8226 203.895 32.1865 203.947C31.5446 204 30.7284 204 29.6 204H26.4C25.2716 204 24.4554 204 23.8135 203.947C23.1774 203.895 22.7566 203.795 22.411 203.619C21.7525 203.283 21.217 202.748 20.8815 202.089C20.7054 201.743 20.6048 201.323 20.5528 200.686C20.5004 200.045 20.5 199.228 20.5 198.1V194Z" fill="#5F5F6A"/>
</svg>
