<svg width="56" height="224" viewBox="0 0 56 224" fill="none" xmlns="http://www.w3.org/2000/svg">
<path d="M27.017 33.0692L27.6169 32.2144C27.2006 32.1563 26.7914 32.0016 26.4235 31.7446C25.1792 30.8753 24.8759 29.1628 25.748 27.9201C26.6194 26.6785 28.3333 26.3776 29.5767 27.2462C30.821 28.1155 31.1243 29.828 30.2521 31.0707L28.2448 33.9309C28.0068 34.2699 27.5391 34.3519 27.2 34.1139C26.861 33.8759 26.779 33.4082 27.017 33.0692ZM26.9758 28.7818C26.5809 29.3445 26.7174 30.1202 27.2825 30.515C27.8487 30.9105 28.6288 30.7726 29.0243 30.209C29.4192 29.6463 29.2827 28.8706 28.7176 28.4758C28.1515 28.0803 27.3714 28.2182 26.9758 28.7818Z" fill="#5F5F6A"/>
<path d="M26.367 18.75H29.633C30.7251 18.75 31.5906 18.75 32.2883 18.807C33.0017 18.8653 33.6053 18.9869 34.1565 19.2677C35.0502 19.7231 35.7769 20.4498 36.2323 21.3435C36.5131 21.8947 36.6347 22.4983 36.693 23.2117C36.75 23.9094 36.75 24.7748 36.75 25.867V30.133C36.75 31.2252 36.75 32.0906 36.693 32.7883C36.6347 33.5017 36.5131 34.1053 36.2323 34.6565C35.7769 35.5502 35.0502 36.2769 34.1565 36.7323C33.6053 37.0131 33.0017 37.1347 32.2883 37.193C31.5906 37.25 30.7252 37.25 29.633 37.25H26.367C25.2748 37.25 24.4094 37.25 23.7117 37.193C22.9983 37.1347 22.3947 37.0131 21.8435 36.7323C20.9498 36.2769 20.2231 35.5502 19.7677 34.6565C19.4869 34.1053 19.3653 33.5017 19.307 32.7883C19.25 32.0906 19.25 31.2252 19.25 30.133V25.867C19.25 24.7749 19.25 23.9094 19.307 23.2117C19.3653 22.4983 19.4869 21.8947 19.7677 21.3435C20.2231 20.4498 20.9498 19.7231 21.8435 19.2677C22.3947 18.9869 22.9983 18.8653 23.7117 18.807C24.4094 18.75 25.2749 18.75 26.367 18.75ZM20.7501 25.5L20.75 30.1C20.75 31.2325 20.7506 32.0367 20.802 32.6661C20.8527 33.2867 20.9491 33.671 21.1042 33.9755C21.4158 34.587 21.913 35.0842 22.5245 35.3958C22.829 35.5509 23.2133 35.6473 23.8339 35.698C24.4633 35.7494 25.2675 35.75 26.4 35.75H29.6C30.7325 35.75 31.5367 35.7494 32.1661 35.698C32.7867 35.6473 33.171 35.5509 33.4755 35.3958C34.087 35.0842 34.5842 34.587 34.8958 33.9755C35.0509 33.671 35.1473 33.2867 35.198 32.6661C35.2494 32.0367 35.25 31.2325 35.25 30.1L35.2499 25.5H20.7501ZM25.5 21.75C24.9477 21.75 24.5 22.1977 24.5 22.75C24.5 23.3023 24.9477 23.75 25.5 23.75H30.5C31.0523 23.75 31.5 23.3023 31.5 22.75C31.5 22.1977 31.0523 21.75 30.5 21.75H25.5Z" fill="#5F5F6A"/>
<path d="M26.367 74.75H29.633C30.7251 74.75 31.5906 74.75 32.2883 74.807C33.0017 74.8653 33.6053 74.9869 34.1565 75.2677C35.0502 75.7231 35.7769 76.4498 36.2323 77.3435C36.5131 77.8947 36.6347 78.4983 36.693 79.2117C36.75 79.9094 36.75 80.7748 36.75 81.867V86.133C36.75 87.2252 36.75 88.0906 36.693 88.7883C36.6347 89.5017 36.5131 90.1053 36.2323 90.6565C35.7769 91.5502 35.0502 92.2769 34.1565 92.7323C33.6053 93.0131 33.0017 93.1347 32.2883 93.193C31.5906 93.25 30.7252 93.25 29.633 93.25H26.367C25.2748 93.25 24.4094 93.25 23.7117 93.193C22.9983 93.1347 22.3947 93.0131 21.8435 92.7323C20.9498 92.2769 20.2231 91.5502 19.7677 90.6565C19.4869 90.1053 19.3653 89.5017 19.307 88.7883C19.25 88.0906 19.25 87.2251 19.25 86.133V81.867C19.25 80.7749 19.25 79.9094 19.307 79.2117C19.3653 78.4983 19.4869 77.8947 19.7677 77.3435C20.2231 76.4498 20.9498 75.7231 21.8435 75.2677C22.3947 74.9869 22.9983 74.8653 23.7117 74.807C24.4094 74.75 25.2749 74.75 26.367 74.75ZM23.8339 76.302C23.2133 76.3527 22.829 76.4491 22.5245 76.6042C21.913 76.9158 21.4158 77.413 21.1042 78.0245C20.9491 78.329 20.8527 78.7133 20.802 79.3339C20.7506 79.9633 20.75 80.7675 20.75 81.9V86.1C20.75 87.2325 20.7506 88.0367 20.802 88.6661C20.8527 89.2867 20.9491 89.671 21.1042 89.9755C21.4158 90.587 21.913 91.0842 22.5245 91.3958C22.829 91.5509 23.2133 91.6473 23.8339 91.698C24.4633 91.7494 25.2675 91.75 26.4 91.75H29.6C30.7325 91.75 31.5367 91.7494 32.1661 91.698C32.7867 91.6473 33.171 91.5509 33.4755 91.3958C34.087 91.0842 34.5842 90.587 34.8958 89.9755C35.0509 89.671 35.1473 89.2867 35.198 88.6661C35.2494 88.0367 35.25 87.2325 35.25 86.1V81.9C35.25 80.7675 35.2494 79.9633 35.198 79.3339C35.1473 78.7133 35.0509 78.329 34.8958 78.0245C34.5842 77.413 34.087 76.9158 33.4755 76.6042C33.171 76.4491 32.7867 76.3527 32.1661 76.302C31.5367 76.2506 30.7325 76.25 29.6 76.25H26.4C25.2675 76.25 24.4633 76.2506 23.8339 76.302Z" fill="#5F5F6A"/>
<g opacity="0.5">
<path fill-rule="evenodd" clip-rule="evenodd" d="M22.5244 76.6042C22.8289 76.4491 23.2131 76.3527 23.8338 76.302C24.4631 76.2506 25.2674 76.25 26.3999 76.25H29.5999C30.7324 76.25 31.5366 76.2506 32.166 76.302C32.7866 76.3527 33.1709 76.4491 33.4754 76.6042C34.0869 76.9158 34.5841 77.413 34.8957 78.0245C35.0508 78.329 35.1472 78.7133 35.1979 79.3339C35.243 79.8865 35.249 80.5739 35.2498 81.5H20.75C20.7508 80.5739 20.7567 79.8865 20.8019 79.3339C20.8526 78.7133 20.949 78.329 21.1041 78.0245C21.4157 77.413 21.9129 76.9158 22.5244 76.6042ZM30.4999 77.75H25.4999C24.9476 77.75 24.4999 78.1977 24.4999 78.75C24.4999 79.3023 24.9476 79.75 25.4999 79.75H30.4999C31.0522 79.75 31.4999 79.3023 31.4999 78.75C31.4999 78.1977 31.0522 77.75 30.4999 77.75Z" fill="#5F5F6A"/>
<path fill-rule="evenodd" clip-rule="evenodd" d="M27.6168 88.2144L27.0169 89.0692C26.7789 89.4082 26.8609 89.8759 27.1999 90.1139C27.5389 90.3519 28.0067 90.2699 28.2446 89.9309L30.252 87.0707C31.1242 85.828 30.8209 84.1155 29.5765 83.2462C28.3332 82.3776 26.6193 82.6785 25.7479 83.9201C24.8758 85.1628 25.179 86.8753 26.4234 87.7446C26.7913 88.0016 27.2004 88.1563 27.6168 88.2144ZM27.2824 86.515C26.7173 86.1202 26.5808 85.3445 26.9757 84.7818C27.3713 84.2182 28.1514 84.0803 28.7175 84.4758C29.2826 84.8706 29.4191 85.6463 29.0242 86.209C28.6286 86.7726 27.8486 86.9105 27.2824 86.515Z" fill="#5F5F6A"/>
</g>
<path d="M25 134C24.7239 134 24.5 134.224 24.5 134.5C24.5 134.776 24.7239 135 25 135H31C31.2761 135 31.5 134.776 31.5 134.5C31.5 134.224 31.2761 134 31 134H25Z" fill="#5F5F6A"/>
<path d="M27.2216 145.213L28.0801 143.989C27.5584 144.007 27.0271 143.861 26.5667 143.54C25.4355 142.749 25.16 141.193 25.9526 140.064C26.7447 138.935 28.303 138.661 29.4335 139.451C30.5646 140.241 30.8401 141.798 30.0475 142.927L28.0401 145.787C27.8815 146.013 27.5696 146.068 27.3436 145.909C27.1176 145.751 27.0629 145.439 27.2216 145.213ZM26.7712 140.638C26.2967 141.314 26.461 142.246 27.1393 142.72C27.8183 143.194 28.754 143.029 29.229 142.353C29.7034 141.677 29.5391 140.745 28.8608 140.271C28.1818 139.797 27.2461 139.962 26.7712 140.638Z" fill="#5F5F6A"/>
<path d="M29.6226 131H26.3774C25.2764 131 24.4195 131 23.7321 131.056C23.0342 131.113 22.4671 131.231 21.957 131.49C21.1103 131.922 20.4219 132.61 19.9905 133.457C19.7306 133.967 19.6132 134.534 19.5562 135.232C19.5 135.919 19.5 136.776 19.5 137.877V142.123C19.5 143.224 19.5 144.081 19.5562 144.768C19.6132 145.466 19.7306 146.033 19.9905 146.543C20.4219 147.39 21.1103 148.078 21.957 148.51C22.4671 148.769 23.0342 148.887 23.7321 148.944C24.4195 149 25.2764 149 26.3773 149H29.6226C30.7236 149 31.5805 149 32.2679 148.944C32.9658 148.887 33.5329 148.769 34.043 148.51C34.8897 148.078 35.5781 147.39 36.0095 146.543C36.2694 146.033 36.3868 145.466 36.4438 144.768C36.5 144.081 36.5 143.224 36.5 142.123V137.877C36.5 136.776 36.5 135.919 36.4438 135.232C36.3868 134.534 36.2694 133.967 36.0095 133.457C35.5781 132.61 34.8897 131.922 34.043 131.49C33.5329 131.231 32.9658 131.113 32.2679 131.056C31.5805 131 30.7236 131 29.6226 131ZM22.411 132.381C22.7566 132.205 23.1774 132.105 23.8135 132.053C24.4554 132 25.2716 132 26.4 132H29.6C30.7284 132 31.5446 132 32.1865 132.053C32.8226 132.105 33.2434 132.205 33.589 132.381C34.2475 132.717 34.783 133.252 35.1185 133.911C35.2946 134.257 35.3952 134.677 35.4472 135.314C35.4845 135.771 35.4955 136.316 35.4987 137H20.5013C20.5045 136.316 20.5155 135.771 20.5528 135.314C20.6048 134.677 20.7054 134.257 20.8815 133.911C21.217 133.252 21.7525 132.717 22.411 132.381ZM20.5 138H35.5V142.1C35.5 143.228 35.4996 144.045 35.4472 144.686C35.3952 145.323 35.2946 145.743 35.1185 146.089C34.783 146.748 34.2475 147.283 33.589 147.619C33.2434 147.795 32.8226 147.895 32.1865 147.947C31.5446 148 30.7284 148 29.6 148H26.4C25.2716 148 24.4554 148 23.8135 147.947C23.1774 147.895 22.7566 147.795 22.411 147.619C21.7525 147.283 21.217 146.748 20.8815 146.089C20.7054 145.743 20.6048 145.323 20.5528 144.686C20.5004 144.045 20.5 143.228 20.5 142.1V138Z" fill="#5F5F6A"/>
<path fill-rule="evenodd" clip-rule="evenodd" d="M29.6336 130.75C30.7254 130.75 31.5907 130.75 32.2883 130.807C33.0017 130.865 33.6053 130.987 34.1565 131.268C35.0502 131.723 35.7769 132.45 36.2323 133.344C36.5131 133.895 36.6347 134.498 36.693 135.212C36.75 135.909 36.75 136.775 36.75 137.866V142.134C36.75 143.225 36.75 144.091 36.693 144.788C36.6347 145.502 36.5131 146.105 36.2323 146.656C35.7769 147.55 35.0502 148.277 34.1565 148.732C33.6053 149.013 33.0017 149.135 32.2883 149.193C31.5907 149.25 30.7254 149.25 29.6336 149.25H26.3664C25.2746 149.25 24.4093 149.25 23.7117 149.193C22.9983 149.135 22.3947 149.013 21.8435 148.732C20.9498 148.277 20.2231 147.55 19.7677 146.656C19.4869 146.105 19.3653 145.502 19.307 144.788C19.25 144.091 19.25 143.225 19.25 142.134V137.866C19.25 136.775 19.25 135.909 19.307 135.212C19.3653 134.498 19.4869 133.895 19.7677 133.344C20.2231 132.45 20.9498 131.723 21.8435 131.268C22.3947 130.987 22.9983 130.865 23.7117 130.807C24.4093 130.75 25.2746 130.75 26.3665 130.75H29.6336ZM23.8339 132.302C23.2132 132.353 22.829 132.449 22.5245 132.604C21.913 132.916 21.4158 133.413 21.1042 134.025C20.9491 134.329 20.8527 134.713 20.802 135.334C20.7701 135.724 20.7577 136.184 20.7529 136.75H35.2471C35.2423 136.184 35.2299 135.724 35.198 135.334C35.1473 134.713 35.0509 134.329 34.8958 134.025C34.5842 133.413 34.087 132.916 33.4755 132.604C33.171 132.449 32.7868 132.353 32.1661 132.302C31.5367 132.251 30.7325 132.25 29.6 132.25H26.4C25.2675 132.25 24.4633 132.251 23.8339 132.302ZM35.4971 136.75C35.4923 136.181 35.4798 135.714 35.4472 135.314C35.3952 134.677 35.2946 134.257 35.1185 133.911C34.783 133.252 34.2475 132.717 33.589 132.381C33.2434 132.205 32.8226 132.105 32.1865 132.053C31.5446 132 30.7284 132 29.6 132H26.4C25.2716 132 24.4554 132 23.8135 132.053C23.1774 132.105 22.7566 132.205 22.411 132.381C21.7525 132.717 21.217 133.252 20.8815 133.911C20.7054 134.257 20.6048 134.677 20.5528 135.314C20.5202 135.714 20.5077 136.181 20.5029 136.75C20.5023 136.831 20.5017 136.915 20.5013 137H35.4987C35.4983 136.915 35.4977 136.831 35.4971 136.75ZM20.5 138H35.5V142.1C35.5 143.228 35.4996 144.045 35.4472 144.686C35.3952 145.323 35.2946 145.743 35.1185 146.089C34.783 146.748 34.2475 147.283 33.589 147.619C33.2434 147.795 32.8226 147.895 32.1865 147.947C31.5446 148 30.7284 148 29.6 148H26.4C25.2716 148 24.4554 148 23.8135 147.947C23.1774 147.895 22.7566 147.795 22.411 147.619C21.7525 147.283 21.217 146.748 20.8815 146.089C20.7054 145.743 20.6048 145.323 20.5528 144.686C20.5004 144.045 20.5 143.228 20.5 142.1V138ZM35.25 138.25V142.1C35.25 143.233 35.2494 144.037 35.198 144.666C35.1473 145.287 35.0509 145.671 34.8958 145.975C34.5842 146.587 34.087 147.084 33.4755 147.396C33.171 147.551 32.7868 147.647 32.1661 147.698C31.5367 147.749 30.7325 147.75 29.6 147.75H26.4C25.2675 147.75 24.4633 147.749 23.8339 147.698C23.2132 147.647 22.829 147.551 22.5245 147.396C21.913 147.084 21.4158 146.587 21.1042 145.975C20.9491 145.671 20.8527 145.287 20.802 144.666C20.7506 144.037 20.75 143.233 20.75 142.1V138.25H35.25ZM28.7176 140.476C28.1515 140.08 27.3714 140.218 26.9758 140.782C26.5809 141.344 26.7174 142.12 27.2825 142.515C27.8485 142.91 28.6286 142.772 29.0243 142.209C29.4192 141.646 29.2827 140.871 28.7176 140.476ZM29.229 142.353C29.7034 141.677 29.5391 140.745 28.8608 140.271C28.1818 139.797 27.2461 139.962 26.7712 140.638C26.2967 141.314 26.461 142.246 27.1393 142.72C27.8183 143.194 28.754 143.029 29.229 142.353ZM28.0801 143.989C27.9804 143.993 27.8803 143.99 27.7804 143.981C27.3578 143.945 26.939 143.8 26.5667 143.54C25.4355 142.749 25.16 141.193 25.9526 140.064C26.7447 138.935 28.303 138.661 29.4335 139.451C30.5646 140.241 30.8401 141.798 30.0475 142.927L28.0401 145.787C27.8815 146.013 27.5696 146.068 27.3436 145.909C27.1176 145.751 27.0629 145.439 27.2216 145.213L28.0801 143.989ZM27.6169 144.214L27.0169 145.069C26.779 145.408 26.8609 145.876 27.2 146.114C27.539 146.352 28.0068 146.27 28.2447 145.931L30.2521 143.071C31.1243 141.828 30.821 140.115 29.5766 139.246C28.3333 138.378 26.6194 138.678 25.748 139.92C24.8758 141.163 25.1791 142.875 26.4235 143.745C26.7912 144.002 27.2005 144.156 27.6169 144.214ZM24.25 134.5C24.25 134.086 24.5858 133.75 25 133.75H31C31.4142 133.75 31.75 134.086 31.75 134.5C31.75 134.914 31.4142 135.25 31 135.25H25C24.5858 135.25 24.25 134.914 24.25 134.5ZM26.3774 131H29.6226C30.7236 131 31.5805 131 32.2679 131.056C32.9658 131.113 33.5329 131.231 34.043 131.49C34.8897 131.922 35.5781 132.61 36.0095 133.457C36.2694 133.967 36.3868 134.534 36.4438 135.232C36.5 135.919 36.5 136.776 36.5 137.877V142.123C36.5 143.224 36.5 144.081 36.4438 144.768C36.3868 145.466 36.2694 146.033 36.0095 146.543C35.5781 147.39 34.8897 148.078 34.043 148.51C33.5329 148.769 32.9658 148.887 32.2679 148.944C31.5805 149 30.7236 149 29.6226 149H26.3773C25.2764 149 24.4195 149 23.7321 148.944C23.0342 148.887 22.4671 148.769 21.957 148.51C21.1103 148.078 20.4219 147.39 19.9905 146.543C19.7306 146.033 19.6132 145.466 19.5562 144.768C19.5 144.081 19.5 143.224 19.5 142.123V137.877C19.5 136.776 19.5 135.919 19.5562 135.232C19.6132 134.534 19.7306 133.967 19.9905 133.457C20.4219 132.61 21.1103 131.922 21.957 131.49C22.4671 131.231 23.0342 131.113 23.7321 131.056C24.4195 131 25.2764 131 26.3774 131ZM25 134C24.7239 134 24.5 134.224 24.5 134.5C24.5 134.776 24.7239 135 25 135H31C31.2761 135 31.5 134.776 31.5 134.5C31.5 134.224 31.2761 134 31 134H25Z" fill="#5F5F6A"/>
<path d="M25 190C24.7239 190 24.5 190.224 24.5 190.5C24.5 190.776 24.7239 191 25 191H31C31.2761 191 31.5 190.776 31.5 190.5C31.5 190.224 31.2761 190 31 190H25Z" fill="#5F5F6A"/>
<path d="M27.2216 201.213L28.0801 199.989C27.5584 200.007 27.0271 199.861 26.5667 199.54C25.4355 198.749 25.16 197.193 25.9526 196.064C26.7447 194.935 28.303 194.661 29.4335 195.451C30.5646 196.241 30.8401 197.798 30.0475 198.927L28.0401 201.787C27.8815 202.013 27.5696 202.068 27.3436 201.909C27.1176 201.751 27.0629 201.439 27.2216 201.213ZM26.7712 196.638C26.2967 197.314 26.461 198.246 27.1393 198.72C27.8183 199.194 28.754 199.029 29.229 198.353C29.7034 197.677 29.5391 196.745 28.8608 196.271C28.1818 195.797 27.2461 195.962 26.7712 196.638Z" fill="#5F5F6A"/>
<path d="M29.6226 187H26.3774C25.2764 187 24.4195 187 23.7321 187.056C23.0342 187.113 22.4671 187.231 21.957 187.49C21.1103 187.922 20.4219 188.61 19.9905 189.457C19.7306 189.967 19.6132 190.534 19.5562 191.232C19.5 191.919 19.5 192.776 19.5 193.877V198.123C19.5 199.224 19.5 200.081 19.5562 200.768C19.6132 201.466 19.7306 202.033 19.9905 202.543C20.4219 203.39 21.1103 204.078 21.957 204.51C22.4671 204.769 23.0342 204.887 23.7321 204.944C24.4195 205 25.2764 205 26.3773 205H29.6226C30.7236 205 31.5805 205 32.2679 204.944C32.9658 204.887 33.5329 204.769 34.043 204.51C34.8897 204.078 35.5781 203.39 36.0095 202.543C36.2694 202.033 36.3868 201.466 36.4438 200.768C36.5 200.081 36.5 199.224 36.5 198.123V193.877C36.5 192.776 36.5 191.919 36.4438 191.232C36.3868 190.534 36.2694 189.967 36.0095 189.457C35.5781 188.61 34.8897 187.922 34.043 187.49C33.5329 187.231 32.9658 187.113 32.2679 187.056C31.5805 187 30.7236 187 29.6226 187ZM22.411 188.381C22.7566 188.205 23.1774 188.105 23.8135 188.053C24.4554 188 25.2716 188 26.4 188H29.6C30.7284 188 31.5446 188 32.1865 188.053C32.8226 188.105 33.2434 188.205 33.589 188.381C34.2475 188.717 34.783 189.252 35.1185 189.911C35.2946 190.257 35.3952 190.677 35.4472 191.314C35.4845 191.771 35.4955 192.316 35.4987 193H20.5013C20.5045 192.316 20.5155 191.771 20.5528 191.314C20.6048 190.677 20.7054 190.257 20.8815 189.911C21.217 189.252 21.7525 188.717 22.411 188.381ZM20.5 194H35.5V198.1C35.5 199.228 35.4996 200.045 35.4472 200.686C35.3952 201.323 35.2946 201.743 35.1185 202.089C34.783 202.748 34.2475 203.283 33.589 203.619C33.2434 203.795 32.8226 203.895 32.1865 203.947C31.5446 204 30.7284 204 29.6 204H26.4C25.2716 204 24.4554 204 23.8135 203.947C23.1774 203.895 22.7566 203.795 22.411 203.619C21.7525 203.283 21.217 202.748 20.8815 202.089C20.7054 201.743 20.6048 201.323 20.5528 200.686C20.5004 200.045 20.5 199.228 20.5 198.1V194Z" fill="#5F5F6A"/>
</svg>
