<svg width="56" height="224" viewBox="0 0 56 224" fill="none" xmlns="http://www.w3.org/2000/svg">
<path fill-rule="evenodd" clip-rule="evenodd" d="M23.5497 21.6635L23.3125 22.375H22.375C20.511 22.375 19 23.886 19 25.75V32.5C19 34.364 20.511 35.875 22.375 35.875H33.625C35.489 35.875 37 34.364 37 32.5V25.75C37 23.886 35.489 22.375 33.625 22.375H32.6875L32.4503 21.6635C32.1441 20.7447 31.2843 20.125 30.3158 20.125H25.6842C24.7157 20.125 23.8559 20.7447 23.5497 21.6635ZM28 32.5C29.864 32.5 31.375 30.989 31.375 29.125C31.375 27.261 29.864 25.75 28 25.75C26.136 25.75 24.625 27.261 24.625 29.125C24.625 30.989 26.136 32.5 28 32.5Z" fill="#5F5F6A"/>
<path fill-rule="evenodd" clip-rule="evenodd" d="M33.625 80.0625H22.375C21.443 80.0625 20.6875 80.818 20.6875 81.75V88.5C20.6875 89.432 21.443 90.1875 22.375 90.1875H33.625C34.557 90.1875 35.3125 89.432 35.3125 88.5V81.75C35.3125 80.818 34.557 80.0625 33.625 80.0625ZM22.375 78.375C20.511 78.375 19 79.886 19 81.75V88.5C19 90.364 20.511 91.875 22.375 91.875H33.625C35.489 91.875 37 90.364 37 88.5V81.75C37 79.886 35.489 78.375 33.625 78.375H22.375Z" fill="#5F5F6A"/>
<path opacity="0.5" d="M28 81.1875C30.1746 81.1875 31.9375 82.9504 31.9375 85.125C31.9375 87.2996 30.1746 89.0625 28 89.0625C25.8254 89.0625 24.0625 87.2996 24.0625 85.125C24.0625 82.9504 25.8254 81.1875 28 81.1875ZM28 82.875C26.7574 82.875 25.75 83.8824 25.75 85.125C25.75 86.3676 26.7574 87.375 28 87.375C29.2426 87.375 30.25 86.3676 30.25 85.125C30.25 83.8824 29.2426 82.875 28 82.875ZM30.3154 76.125C31.2838 76.125 32.1438 76.7445 32.4502 77.6631L33.0625 79.5H22.9375L23.5498 77.6631C23.8562 76.7445 24.7162 76.125 25.6846 76.125H30.3154Z" fill="#5F5F6A"/>
<path fill-rule="evenodd" clip-rule="evenodd" d="M31.9375 141.125C31.9375 143.3 30.1746 145.062 28 145.062C25.8254 145.062 24.0625 143.3 24.0625 141.125C24.0625 138.95 25.8254 137.188 28 137.188C30.1746 137.188 31.9375 138.95 31.9375 141.125ZM30.25 141.125C30.25 142.368 29.2426 143.375 28 143.375C26.7574 143.375 25.75 142.368 25.75 141.125C25.75 139.882 26.7574 138.875 28 138.875C29.2426 138.875 30.25 139.882 30.25 141.125Z" fill="#5F5F6A"/>
<path fill-rule="evenodd" clip-rule="evenodd" d="M23.5497 133.663L23.3125 134.375H22.375C20.511 134.375 19 135.886 19 137.75V144.5C19 146.364 20.511 147.875 22.375 147.875H33.625C35.489 147.875 37 146.364 37 144.5V137.75C37 135.886 35.489 134.375 33.625 134.375H32.6875L32.4503 133.663C32.1441 132.745 31.2843 132.125 30.3158 132.125H25.6842C24.7157 132.125 23.8559 132.745 23.5497 133.663ZM33.625 136.062H22.375C21.443 136.062 20.6875 136.818 20.6875 137.75V144.5C20.6875 145.432 21.443 146.188 22.375 146.188H33.625C34.557 146.188 35.3125 145.432 35.3125 144.5V137.75C35.3125 136.818 34.557 136.062 33.625 136.062Z" fill="#5F5F6A"/>
<path fill-rule="evenodd" clip-rule="evenodd" d="M31.9375 197.125C31.9375 199.3 30.1746 201.062 28 201.062C25.8254 201.062 24.0625 199.3 24.0625 197.125C24.0625 194.95 25.8254 193.188 28 193.188C30.1746 193.188 31.9375 194.95 31.9375 197.125ZM30.8125 197.125C30.8125 198.678 29.5533 199.938 28 199.938C26.4467 199.938 25.1875 198.678 25.1875 197.125C25.1875 195.572 26.4467 194.312 28 194.312C29.5533 194.312 30.8125 195.572 30.8125 197.125Z" fill="#5F5F6A"/>
<path fill-rule="evenodd" clip-rule="evenodd" d="M23.5497 189.663L23.3125 190.375H22.375C20.511 190.375 19 191.886 19 193.75V200.5C19 202.364 20.511 203.875 22.375 203.875H33.625C35.489 203.875 37 202.364 37 200.5V193.75C37 191.886 35.489 190.375 33.625 190.375H32.6875L32.4503 189.663C32.1441 188.745 31.2843 188.125 30.3158 188.125H25.6842C24.7157 188.125 23.8559 188.745 23.5497 189.663ZM30.3158 189.25H25.6842C25.2 189.25 24.7701 189.56 24.6169 190.019L24.4984 190.375H31.5016L31.3831 190.019C31.2299 189.56 30.8 189.25 30.3158 189.25ZM33.625 191.5C34.8676 191.5 35.875 192.507 35.875 193.75V200.5C35.875 201.743 34.8676 202.75 33.625 202.75H22.375C21.1324 202.75 20.125 201.743 20.125 200.5V193.75C20.125 192.507 21.1324 191.5 22.375 191.5H33.625Z" fill="#5F5F6A"/>
</svg>
