<svg width="56" height="168" viewBox="0 0 56 168" fill="none" xmlns="http://www.w3.org/2000/svg">
<path d="M25.7727 28.6398L29.4091 31.8386C29.8586 32.234 30.5 31.8578 30.5 31.1988V24.8012C30.5 24.1422 29.8586 23.766 29.4091 24.1614L25.7727 27.3602C25.4091 27.6801 25.4091 28.3199 25.7727 28.6398Z" fill="#5F5F6A"/>
<path d="M25.7727 84.6398L29.4091 87.8386C29.8586 88.234 30.5 87.8578 30.5 87.1988V80.8012C30.5 80.1422 29.8586 79.766 29.4091 80.1614L25.7727 83.3602C25.4091 83.6801 25.4091 84.3199 25.7727 84.6398Z" fill="#5F5F6A"/>
<path d="M25.7727 140.64L29.4091 143.839C29.8586 144.234 30.5 143.858 30.5 143.199V136.801C30.5 136.142 29.8586 135.766 29.4091 136.161L25.7727 139.36C25.4091 139.68 25.4091 140.32 25.7727 140.64Z" fill="#5F5F6A"/>
</svg>
