<svg width="56" height="168" viewBox="0 0 56 168" fill="none" xmlns="http://www.w3.org/2000/svg">
<path d="M27.3602 30.2273L24.1614 26.5909C23.766 26.1414 24.1422 25.5 24.8012 25.5H31.1988C31.8578 25.5 32.234 26.1414 31.8386 26.5909L28.6398 30.2273C28.3199 30.5909 27.6801 30.5909 27.3602 30.2273Z" fill="#5F5F6A"/>
<path d="M27.3602 86.2273L24.1614 82.5909C23.766 82.1414 24.1422 81.5 24.8012 81.5H31.1988C31.8578 81.5 32.234 82.1414 31.8386 82.5909L28.6398 86.2273C28.3199 86.5909 27.6801 86.5909 27.3602 86.2273Z" fill="#5F5F6A"/>
<path d="M27.3602 142.227L24.1614 138.591C23.766 138.141 24.1422 137.5 24.8012 137.5H31.1988C31.8578 137.5 32.234 138.141 31.8386 138.591L28.6398 142.227C28.3199 142.591 27.6801 142.591 27.3602 142.227Z" fill="#5F5F6A"/>
</svg>
