<svg width="64" height="168" viewBox="0 0 64 168" fill="none" xmlns="http://www.w3.org/2000/svg">
<path d="M40 22C40 21.4477 39.5523 21 39 21H25C24.4477 21 24 21.4477 24 22C24 22.5523 24.4477 23 25 23H39C39.5523 23 40 22.5523 40 22Z" fill="#5F5F6A"/>
<path d="M40 34C40 33.4477 39.5523 33 39 33H25C24.4477 33 24 33.4477 24 34C24 34.5523 24.4477 35 25 35H39C39.5523 35 40 34.5523 40 34Z" fill="#5F5F6A"/>
<path opacity="0.5" d="M38 28C38 27.4477 37.5523 27 37 27H27C26.4477 27 26 27.4477 26 28C26 28.5523 26.4477 29 27 29H37C37.5523 29 38 28.5523 38 28Z" fill="#5F5F6A"/>
<path d="M40 78C40 77.4477 39.5523 77 39 77H25C24.4477 77 24 77.4477 24 78C24 78.5523 24.4477 79 25 79H39C39.5523 79 40 78.5523 40 78Z" fill="#5F5F6A"/>
<path d="M38 84C38 83.4477 37.5523 83 37 83H27C26.4477 83 26 83.4477 26 84C26 84.5523 26.4477 85 27 85H37C37.5523 85 38 84.5523 38 84Z" fill="#5F5F6A"/>
<path d="M40 90C40 89.4477 39.5523 89 39 89H25C24.4477 89 24 89.4477 24 90C24 90.5523 24.4477 91 25 91H39C39.5523 91 40 90.5523 40 90Z" fill="#5F5F6A"/>
<path d="M39.5 134C39.5 133.724 39.2761 133.5 39 133.5H25C24.7239 133.5 24.5 133.724 24.5 134C24.5 134.276 24.7239 134.5 25 134.5H39C39.2761 134.5 39.5 134.276 39.5 134Z" fill="#5F5F6A"/>
<path d="M37.5 140C37.5 139.724 37.2761 139.5 37 139.5H27C26.7239 139.5 26.5 139.724 26.5 140C26.5 140.276 26.7239 140.5 27 140.5H37C37.2761 140.5 37.5 140.276 37.5 140Z" fill="#5F5F6A"/>
<path d="M39.5 145C39.5 144.724 39.2761 144.5 39 144.5H25C24.7239 144.5 24.5 144.724 24.5 145C24.5 145.276 24.7239 145.5 25 145.5H39C39.2761 145.5 39.5 145.276 39.5 145Z" fill="#5F5F6A"/>
</svg>
