<svg width="56" height="224" viewBox="0 0 56 224" fill="none" xmlns="http://www.w3.org/2000/svg">
<path d="M29.25 25C29.25 24.3096 29.8096 23.75 30.5 23.75H34C34.6904 23.75 35.25 24.3096 35.25 25V28.5C35.25 29.1904 34.6904 29.75 34 29.75C33.3096 29.75 32.75 29.1904 32.75 28.5V28.0178L28.8839 31.8839C28.3957 32.372 27.6043 32.372 27.1161 31.8839L25 29.7678L22.8839 31.8839C22.3957 32.372 21.6043 32.372 21.1161 31.8839C20.628 31.3957 20.628 30.6043 21.1161 30.1161L24.1161 27.1161C24.6043 26.628 25.3957 26.628 25.8839 27.1161L28 29.2322L30.9822 26.25H30.5C29.8096 26.25 29.25 25.6904 29.25 25Z" fill="#5F5F6A"/>
<path d="M29.5 81C29.5 80.4477 29.9477 80 30.5 80H34C34.5523 80 35 80.4477 35 81V84.5C35 85.0523 34.5523 85.5 34 85.5C33.4477 85.5 33 85.0523 33 84.5V83.4142L28.7071 87.7071C28.3166 88.0976 27.6834 88.0976 27.2929 87.7071L25 85.4142L22.7071 87.7071C22.3166 88.0976 21.6834 88.0976 21.2929 87.7071C20.9024 87.3166 20.9024 86.6834 21.2929 86.2929L24.2929 83.2929C24.6834 82.9024 25.3166 82.9024 25.7071 83.2929L28 85.5858L31.5858 82H30.5C29.9477 82 29.5 81.5523 29.5 81Z" fill="#5F5F6A"/>
<path d="M29.75 137C29.75 136.586 30.0858 136.25 30.5 136.25H34C34.4142 136.25 34.75 136.586 34.75 137V140.5C34.75 140.914 34.4142 141.25 34 141.25C33.5858 141.25 33.25 140.914 33.25 140.5V138.811L28.5303 143.53C28.2374 143.823 27.7626 143.823 27.4697 143.53L25 141.061L22.5303 143.53C22.2374 143.823 21.7626 143.823 21.4697 143.53C21.1768 143.237 21.1768 142.763 21.4697 142.47L24.4697 139.47C24.7626 139.177 25.2374 139.177 25.5303 139.47L28 141.939L32.1893 137.75H30.5C30.0858 137.75 29.75 137.414 29.75 137Z" fill="#5F5F6A"/>
<path d="M30 193C30 192.724 30.2239 192.5 30.5 192.5H34C34.2761 192.5 34.5 192.724 34.5 193V196.5C34.5 196.776 34.2761 197 34 197C33.7239 197 33.5 196.776 33.5 196.5V194.207L28.3536 199.354C28.1583 199.549 27.8417 199.549 27.6464 199.354L25 196.707L22.3536 199.354C22.1583 199.549 21.8417 199.549 21.6464 199.354C21.4512 199.158 21.4512 198.842 21.6464 198.646L24.6464 195.646C24.8417 195.451 25.1583 195.451 25.3536 195.646L28 198.293L32.7929 193.5H30.5C30.2239 193.5 30 193.276 30 193Z" fill="#5F5F6A"/>
</svg>
