<svg width="56" height="168" viewBox="0 0 56 168" fill="none" xmlns="http://www.w3.org/2000/svg">
<path d="M19.8399 31.9658C19.3522 30.7883 19.1624 29.5087 19.2873 28.2404C19.4122 26.972 19.848 25.754 20.5561 24.6943C21.2642 23.6346 22.2227 22.7659 23.3467 22.1651C24.4707 21.5643 25.7255 21.25 27 21.25C27.4142 21.25 27.75 21.5858 27.75 22V28.6893L32.4801 33.4194C32.6207 33.5601 32.6997 33.7508 32.6997 33.9497C32.6997 34.1487 32.6207 34.3394 32.4801 34.4801C31.5789 35.3813 30.4693 36.0463 29.2497 36.4163C28.0301 36.7863 26.7381 36.8497 25.4881 36.6011C24.238 36.3524 23.0687 35.7994 22.0835 34.9908C21.0983 34.1823 20.3277 33.1433 19.8399 31.9658ZM20.7801 28.3874C20.6794 29.4103 20.8324 30.4422 21.2258 31.3918C21.6191 32.3414 22.2405 33.1793 23.035 33.8313C23.8296 34.4834 24.7726 34.9294 25.7807 35.1299C26.7888 35.3304 27.8307 35.2792 28.8143 34.9809C29.5573 34.7555 30.2496 34.3943 30.8572 33.9178L26.4697 29.5303C26.329 29.3897 26.25 29.1989 26.25 29L26.25 22.7952C25.4835 22.8878 24.7385 23.122 24.0538 23.488C23.1473 23.9725 22.3743 24.6731 21.8033 25.5277C21.2323 26.3823 20.8808 27.3645 20.7801 28.3874Z" fill="#5F5F6A"/>
<g opacity="0.5">
<path d="M29.5952 19.5414C29.3963 19.5414 29.2055 19.6204 29.0649 19.7611C28.9242 19.9017 28.8452 20.0925 28.8452 20.2914V26.5516C28.8452 26.9658 29.181 27.3016 29.5952 27.3016L35.8554 27.3016C36.0543 27.3016 36.2451 27.2226 36.3857 27.082C36.5264 26.9413 36.6054 26.7505 36.6054 26.5516C36.6054 25.631 36.4241 24.7195 36.0718 23.8689C35.7195 23.0184 35.2031 22.2456 34.5522 21.5947C33.9012 20.9437 33.1284 20.4273 32.2779 20.075C31.4274 19.7228 30.5158 19.5414 29.5952 19.5414ZM35.0541 25.8016L30.3452 25.8016L30.3452 21.0927C30.811 21.1567 31.2676 21.2802 31.7039 21.4609C32.3724 21.7378 32.9798 22.1437 33.4915 22.6553C34.0032 23.167 34.4091 23.7744 34.686 24.443C34.8667 24.8792 34.9901 25.3359 35.0541 25.8016Z" fill="#5F5F6A"/>
<path d="M36.3329 31.2971C36.0485 31.9837 35.6317 32.6075 35.1062 33.133L31.1045 29.1314H36.7637C36.7637 29.8745 36.6173 30.6104 36.3329 31.2971Z" fill="#5F5F6A"/>
</g>
<path d="M29.0649 75.7611C29.2055 75.6204 29.3963 75.5414 29.5952 75.5414C30.5158 75.5414 31.4274 75.7228 32.2779 76.075C33.1284 76.4273 33.9012 76.9437 34.5522 77.5947C35.2031 78.2456 35.7195 79.0184 36.0718 79.8689C36.4241 80.7195 36.6054 81.631 36.6054 82.5516C36.6054 82.7505 36.5264 82.9413 36.3857 83.082C36.2451 83.2226 36.0543 83.3016 35.8554 83.3016L29.5952 83.3016C29.181 83.3016 28.8452 82.9658 28.8452 82.5516V76.2914C28.8452 76.0925 28.9242 75.9017 29.0649 75.7611ZM30.3452 81.8016L35.0541 81.8016C34.9901 81.3359 34.8667 80.8792 34.686 80.443C34.409 79.7744 34.0032 79.167 33.4915 78.6553C32.9798 78.1437 32.3724 77.7378 31.7039 77.4609C31.2676 77.2802 30.8109 77.1567 30.3452 77.0927V81.8016Z" fill="#5F5F6A"/>
<path d="M19.8399 87.9658C19.3522 86.7883 19.1624 85.5087 19.2873 84.2404C19.4122 82.972 19.848 81.754 20.5561 80.6943C21.2642 79.6346 22.2227 78.7659 23.3467 78.1651C24.4707 77.5643 25.7255 77.25 27 77.25C27.4142 77.25 27.75 77.5858 27.75 78V84.6893L32.4801 89.4194C32.6207 89.5601 32.6997 89.7508 32.6997 89.9498C32.6997 90.1487 32.6207 90.3394 32.4801 90.4801C31.5789 91.3813 30.4693 92.0463 29.2497 92.4163C28.0301 92.7863 26.7381 92.8497 25.4881 92.6011C24.238 92.3524 23.0687 91.7994 22.0835 90.9908C21.0983 90.1823 20.3277 89.1433 19.8399 87.9658ZM20.7801 84.3874C20.6794 85.4103 20.8324 86.4422 21.2258 87.3918C21.6191 88.3414 22.2405 89.1793 23.035 89.8313C23.8296 90.4834 24.7726 90.9294 25.7807 91.1299C26.7888 91.3304 27.8307 91.2792 28.8143 90.9809C29.5573 90.7555 30.2496 90.3943 30.8572 89.9178L26.4697 85.5303C26.329 85.3897 26.25 85.1989 26.25 85L26.25 78.7952C25.4835 78.8878 24.7385 79.122 24.0538 79.488C23.1473 79.9725 22.3743 80.6731 21.8033 81.5277C21.2323 82.3823 20.8808 83.3645 20.7801 84.3874Z" fill="#5F5F6A"/>
<path d="M36.3329 87.2971C36.0485 87.9837 35.6317 88.6075 35.1062 89.133L31.1045 85.1314H36.7637C36.7637 85.8745 36.6173 86.6104 36.3329 87.2971Z" fill="#5F5F6A"/>
<path d="M20.0709 143.87C19.5989 142.731 19.4152 141.492 19.5361 140.265C19.657 139.037 20.0787 137.859 20.764 136.833C21.4492 135.808 22.3768 134.967 23.4645 134.386C24.5523 133.804 25.7666 133.5 27 133.5C27.2761 133.5 27.5 133.724 27.5 134V140.793L32.3033 145.596C32.3971 145.69 32.4497 145.817 32.4497 145.95C32.4497 146.082 32.3971 146.21 32.3033 146.303C31.4312 147.175 30.3574 147.819 29.1771 148.177C27.9969 148.535 26.7465 148.597 25.5368 148.356C24.3271 148.115 23.1955 147.58 22.2421 146.798C21.2886 146.015 20.5429 145.01 20.0709 143.87ZM20.5313 140.363C20.4265 141.427 20.5857 142.5 20.9948 143.487C21.4038 144.475 22.0502 145.346 22.8764 146.025C23.7027 146.703 24.6835 147.167 25.7319 147.375C26.7803 147.584 27.8639 147.53 28.8869 147.22C29.7498 146.958 30.547 146.52 31.229 145.936L26.6464 141.354C26.5527 141.26 26.5 141.133 26.5 141L26.5 134.519C25.6045 134.588 24.7312 134.842 23.9359 135.268C22.9932 135.771 22.1893 136.5 21.5954 137.389C21.0016 138.278 20.6361 139.299 20.5313 140.363Z" fill="#5F5F6A"/>
<path d="M29.2414 131.938C29.3352 131.844 29.4624 131.791 29.595 131.791C30.4828 131.791 31.3618 131.966 32.182 132.306C33.0022 132.646 33.7474 133.144 34.3752 133.771C35.0029 134.399 35.5009 135.144 35.8406 135.965C36.1803 136.785 36.3552 137.664 36.3552 138.552C36.3552 138.684 36.3025 138.811 36.2087 138.905C36.115 138.999 35.9878 139.052 35.8552 139.052H29.595C29.3188 139.052 29.095 138.828 29.095 138.552L29.095 132.291C29.095 132.159 29.1477 132.032 29.2414 131.938ZM30.095 138.052L35.3335 138.052C35.2825 137.467 35.1422 136.892 34.9167 136.347C34.6272 135.648 34.203 135.013 33.6681 134.479C33.1332 133.944 32.4982 133.519 31.7993 133.23C31.2549 133.004 30.6801 132.864 30.095 132.813L30.095 138.052Z" fill="#5F5F6A"/>
<path d="M35.1062 145.133C35.6317 144.608 36.0486 143.984 36.333 143.297C36.6174 142.61 36.7638 141.875 36.7638 141.131L31.1046 141.131L35.1062 145.133Z" fill="#5F5F6A"/>
</svg>
