<svg width="56" height="224" viewBox="0 0 56 224" fill="none" xmlns="http://www.w3.org/2000/svg">
<path d="M27.1161 24.1161C27.6043 23.628 28.3957 23.628 28.8839 24.1161L31 26.2322L33.1161 24.1161C33.6043 23.628 34.3957 23.628 34.8839 24.1161C35.372 24.6043 35.372 25.3957 34.8839 25.8839L31.8839 28.8839C31.3957 29.372 30.6043 29.372 30.1161 28.8839L28 26.7678L25.0178 29.75H25.5C26.1904 29.75 26.75 30.3096 26.75 31C26.75 31.6904 26.1904 32.25 25.5 32.25H22C21.3096 32.25 20.75 31.6904 20.75 31V27.5C20.75 26.8096 21.3096 26.25 22 26.25C22.6904 26.25 23.25 26.8096 23.25 27.5V27.9822L27.1161 24.1161Z" fill="#5F5F6A"/>
<path d="M27.2929 80.2929C27.6834 79.9024 28.3166 79.9024 28.7071 80.2929L31 82.5858L33.2929 80.2929C33.6834 79.9024 34.3166 79.9024 34.7071 80.2929C35.0976 80.6834 35.0976 81.3166 34.7071 81.7071L31.7071 84.7071C31.3166 85.0976 30.6834 85.0976 30.2929 84.7071L28 82.4142L24.4142 86H25.5C26.0523 86 26.5 86.4477 26.5 87C26.5 87.5523 26.0523 88 25.5 88H22C21.4477 88 21 87.5523 21 87V83.5C21 82.9477 21.4477 82.5 22 82.5C22.5523 82.5 23 82.9477 23 83.5V84.5858L27.2929 80.2929Z" fill="#5F5F6A"/>
<path d="M27.4697 136.47C27.7626 136.177 28.2374 136.177 28.5303 136.47L31 138.939L33.4697 136.47C33.7626 136.177 34.2374 136.177 34.5303 136.47C34.8232 136.763 34.8232 137.237 34.5303 137.53L31.5303 140.53C31.2374 140.823 30.7626 140.823 30.4697 140.53L28 138.061L23.8107 142.25H25.5C25.9142 142.25 26.25 142.586 26.25 143C26.25 143.414 25.9142 143.75 25.5 143.75H22C21.5858 143.75 21.25 143.414 21.25 143V139.5C21.25 139.086 21.5858 138.75 22 138.75C22.4142 138.75 22.75 139.086 22.75 139.5V141.189L27.4697 136.47Z" fill="#5F5F6A"/>
<path d="M27.6464 192.646C27.8417 192.451 28.1583 192.451 28.3536 192.646L31 195.293L33.6464 192.646C33.8417 192.451 34.1583 192.451 34.3536 192.646C34.5488 192.842 34.5488 193.158 34.3536 193.354L31.3536 196.354C31.1583 196.549 30.8417 196.549 30.6464 196.354L28 193.707L23.2071 198.5H25.5C25.7761 198.5 26 198.724 26 199C26 199.276 25.7761 199.5 25.5 199.5H22C21.7239 199.5 21.5 199.276 21.5 199V195.5C21.5 195.224 21.7239 195 22 195C22.2761 195 22.5 195.224 22.5 195.5V197.793L27.6464 192.646Z" fill="#5F5F6A"/>
</svg>
