<svg width="56" height="224" viewBox="0 0 56 224" fill="none" xmlns="http://www.w3.org/2000/svg">
<path d="M33.6897 23.7759C34.0896 24.1568 34.105 24.7897 33.7241 25.1897L26.3333 32.95L22.2759 28.6897C21.895 28.2897 21.9104 27.6567 22.3103 27.2759C22.7103 26.895 23.3433 26.9104 23.7241 27.3103L26.3333 30.05L32.2759 23.8103C32.6568 23.4104 33.2897 23.395 33.6897 23.7759Z" fill="#5F5F6A"/>
<path d="M33.5172 79.9569C33.8172 80.2426 33.8288 80.7173 33.5431 81.0172L26.8764 88.0172C26.7349 88.1659 26.5386 88.25 26.3333 88.25C26.1281 88.25 25.9318 88.1659 25.7902 88.0172L22.4569 84.5172C22.1712 84.2173 22.1828 83.7426 22.4828 83.4569C22.7827 83.1712 23.2574 83.1828 23.5431 83.4828L26.3333 86.4125L32.4569 79.9828C32.7426 79.6828 33.2173 79.6712 33.5172 79.9569Z" fill="#5F5F6A"/>
<path d="M33.5172 135.957C33.8172 136.243 33.8288 136.717 33.5431 137.017L26.8764 144.017C26.7349 144.166 26.5386 144.25 26.3333 144.25C26.1281 144.25 25.9318 144.166 25.7902 144.017L22.4569 140.517C22.1712 140.217 22.1828 139.743 22.4828 139.457C22.7827 139.171 23.2574 139.183 23.5431 139.483L26.3333 142.413L32.4569 135.983C32.7426 135.683 33.2173 135.671 33.5172 135.957Z" fill="#5F5F6A"/>
<path d="M33.3448 192.138C33.5448 192.328 33.5525 192.645 33.3621 192.845L26.6954 199.845C26.601 199.944 26.4702 200 26.3333 200C26.1965 200 26.0656 199.944 25.9713 199.845L22.6379 196.345C22.4475 196.145 22.4552 195.828 22.6552 195.638C22.8551 195.447 23.1716 195.455 23.3621 195.655L26.3333 198.775L32.6379 192.155C32.8284 191.955 33.1449 191.947 33.3448 192.138Z" fill="#5F5F6A"/>
</svg>
