<svg width="56" height="224" viewBox="0 0 56 224" fill="none" xmlns="http://www.w3.org/2000/svg">
<path fill-rule="evenodd" clip-rule="evenodd" d="M32.8839 21.3484C33.372 21.8365 33.372 22.628 32.8839 23.1161L28 28L23.1161 23.1161C22.628 22.628 22.628 21.8365 23.1161 21.3484C23.6043 20.8602 24.3957 20.8602 24.8839 21.3484L28 24.4645L31.1161 21.3484C31.6043 20.8602 32.3957 20.8602 32.8839 21.3484Z" fill="#5F5F6A"/>
<path fill-rule="evenodd" clip-rule="evenodd" d="M32.8839 28.3661C33.372 28.8543 33.372 29.6457 32.8839 30.1339L28 35.0178L23.1161 30.1339C22.628 29.6457 22.628 28.8543 23.1161 28.3661C23.6043 27.878 24.3957 27.878 24.8839 28.3661L28 31.4822L31.1161 28.3661C31.6043 27.878 32.3957 27.878 32.8839 28.3661Z" fill="#5F5F6A"/>
<path fill-rule="evenodd" clip-rule="evenodd" d="M32.7071 77.8787C33.0976 78.2692 33.0976 78.9024 32.7071 79.2929L28 84L23.2929 79.2929C22.9024 78.9024 22.9024 78.2692 23.2929 77.8787C23.6834 77.4882 24.3166 77.4882 24.7071 77.8787L28 81.1716L31.2929 77.8787C31.6834 77.4882 32.3166 77.4882 32.7071 77.8787Z" fill="#5F5F6A"/>
<path fill-rule="evenodd" clip-rule="evenodd" d="M32.7071 84.2929C33.0976 84.6834 33.0976 85.3166 32.7071 85.7071L28 90.4142L23.2929 85.7071C22.9024 85.3166 22.9024 84.6834 23.2929 84.2929C23.6834 83.9024 24.3166 83.9024 24.7071 84.2929L28 87.5858L31.2929 84.2929C31.6834 83.9024 32.3166 83.9024 32.7071 84.2929Z" fill="#5F5F6A"/>
<path fill-rule="evenodd" clip-rule="evenodd" d="M32.5303 134.409C32.8232 134.702 32.8232 135.177 32.5303 135.47L28 140L23.4697 135.47C23.1768 135.177 23.1768 134.702 23.4697 134.409C23.7626 134.116 24.2374 134.116 24.5303 134.409L28 137.879L31.4697 134.409C31.7626 134.116 32.2374 134.116 32.5303 134.409Z" fill="#5F5F6A"/>
<path fill-rule="evenodd" clip-rule="evenodd" d="M32.5303 140.22C32.8232 140.513 32.8232 140.987 32.5303 141.28L28 145.811L23.4697 141.28C23.1768 140.987 23.1768 140.513 23.4697 140.22C23.7626 139.927 24.2374 139.927 24.5303 140.22L28 143.689L31.4697 140.22C31.7626 139.927 32.2374 139.927 32.5303 140.22Z" fill="#5F5F6A"/>
<path fill-rule="evenodd" clip-rule="evenodd" d="M32.3536 190.939C32.5488 191.135 32.5488 191.451 32.3536 191.646L28 196L23.6464 191.646C23.4512 191.451 23.4512 191.135 23.6464 190.939C23.8417 190.744 24.1583 190.744 24.3536 190.939L28 194.586L31.6464 190.939C31.8417 190.744 32.1583 190.744 32.3536 190.939Z" fill="#5F5F6A"/>
<path fill-rule="evenodd" clip-rule="evenodd" d="M32.3536 196.146C32.5488 196.342 32.5488 196.658 32.3536 196.854L28 201.207L23.6464 196.854C23.4512 196.658 23.4512 196.342 23.6464 196.146C23.8417 195.951 24.1583 195.951 24.3536 196.146L28 199.793L31.6464 196.146C31.8417 195.951 32.1583 195.951 32.3536 196.146Z" fill="#5F5F6A"/>
</svg>
