<svg width="56" height="224" viewBox="0 0 56 224" fill="none" xmlns="http://www.w3.org/2000/svg">
<path fill-rule="evenodd" clip-rule="evenodd" d="M30.8839 32.8839C30.3957 33.372 29.6043 33.372 29.1161 32.8839L24.2322 28L29.1161 23.1161C29.6043 22.628 30.3957 22.628 30.8839 23.1161C31.372 23.6043 31.372 24.3957 30.8839 24.8839L27.7678 28L30.8839 31.1161C31.372 31.6043 31.372 32.3957 30.8839 32.8839Z" fill="#5F5F6A"/>
<path fill-rule="evenodd" clip-rule="evenodd" d="M30.7071 88.7071C30.3166 89.0976 29.6834 89.0976 29.2929 88.7071L24.5858 84L29.2929 79.2929C29.6834 78.9024 30.3166 78.9024 30.7071 79.2929C31.0976 79.6834 31.0976 80.3166 30.7071 80.7071L27.4142 84L30.7071 87.2929C31.0976 87.6834 31.0976 88.3166 30.7071 88.7071Z" fill="#5F5F6A"/>
<path fill-rule="evenodd" clip-rule="evenodd" d="M30.5303 144.53C30.2374 144.823 29.7626 144.823 29.4697 144.53L24.9393 140L29.4697 135.47C29.7626 135.177 30.2374 135.177 30.5303 135.47C30.8232 135.763 30.8232 136.237 30.5303 136.53L27.0607 140L30.5303 143.47C30.8232 143.763 30.8232 144.237 30.5303 144.53Z" fill="#5F5F6A"/>
<path fill-rule="evenodd" clip-rule="evenodd" d="M30.3536 200.354C30.1583 200.549 29.8417 200.549 29.6464 200.354L25.2929 196L29.6464 191.646C29.8417 191.451 30.1583 191.451 30.3536 191.646C30.5488 191.842 30.5488 192.158 30.3536 192.354L26.7071 196L30.3536 199.646C30.5488 199.842 30.5488 200.158 30.3536 200.354Z" fill="#5F5F6A"/>
</svg>
