<svg width="56" height="224" viewBox="0 0 56 224" fill="none" xmlns="http://www.w3.org/2000/svg">
<path fill-rule="evenodd" clip-rule="evenodd" d="M23.1161 34.6517C22.628 34.1635 22.628 33.372 23.1161 32.8839L28 28L32.8839 32.8839C33.372 33.372 33.372 34.1635 32.8839 34.6517C32.3957 35.1398 31.6043 35.1398 31.1161 34.6517L28 31.5355L24.8839 34.6517C24.3957 35.1398 23.6043 35.1398 23.1161 34.6517Z" fill="#5F5F6A"/>
<path fill-rule="evenodd" clip-rule="evenodd" d="M23.1161 27.6339C22.628 27.1457 22.628 26.3543 23.1161 25.8661L28 20.9822L32.8839 25.8661C33.372 26.3543 33.372 27.1457 32.8839 27.6339C32.3957 28.122 31.6043 28.122 31.1161 27.6339L28 24.5178L24.8839 27.6339C24.3957 28.122 23.6043 28.122 23.1161 27.6339Z" fill="#5F5F6A"/>
<path fill-rule="evenodd" clip-rule="evenodd" d="M23.2929 90.1213C22.9024 89.7308 22.9024 89.0976 23.2929 88.7071L28 84L32.7071 88.7071C33.0976 89.0976 33.0976 89.7308 32.7071 90.1213C32.3166 90.5118 31.6834 90.5118 31.2929 90.1213L28 86.8284L24.7071 90.1213C24.3166 90.5118 23.6834 90.5118 23.2929 90.1213Z" fill="#5F5F6A"/>
<path fill-rule="evenodd" clip-rule="evenodd" d="M23.2929 83.7071C22.9024 83.3166 22.9024 82.6834 23.2929 82.2929L28 77.5858L32.7071 82.2929C33.0976 82.6834 33.0976 83.3166 32.7071 83.7071C32.3166 84.0976 31.6834 84.0976 31.2929 83.7071L28 80.4142L24.7071 83.7071C24.3166 84.0976 23.6834 84.0976 23.2929 83.7071Z" fill="#5F5F6A"/>
<path fill-rule="evenodd" clip-rule="evenodd" d="M23.4697 145.591C23.1768 145.298 23.1768 144.823 23.4697 144.53L28 140L32.5303 144.53C32.8232 144.823 32.8232 145.298 32.5303 145.591C32.2374 145.884 31.7626 145.884 31.4697 145.591L28 142.121L24.5303 145.591C24.2374 145.884 23.7626 145.884 23.4697 145.591Z" fill="#5F5F6A"/>
<path fill-rule="evenodd" clip-rule="evenodd" d="M23.4697 139.78C23.1768 139.487 23.1768 139.013 23.4697 138.72L28 134.189L32.5303 138.72C32.8232 139.013 32.8232 139.487 32.5303 139.78C32.2374 140.073 31.7626 140.073 31.4697 139.78L28 136.311L24.5303 139.78C24.2374 140.073 23.7626 140.073 23.4697 139.78Z" fill="#5F5F6A"/>
<path fill-rule="evenodd" clip-rule="evenodd" d="M23.6464 201.061C23.4512 200.865 23.4512 200.549 23.6464 200.354L28 196L32.3536 200.354C32.5488 200.549 32.5488 200.865 32.3536 201.061C32.1583 201.256 31.8417 201.256 31.6464 201.061L28 197.414L24.3536 201.061C24.1583 201.256 23.8417 201.256 23.6464 201.061Z" fill="#5F5F6A"/>
<path fill-rule="evenodd" clip-rule="evenodd" d="M23.6464 195.854C23.4512 195.658 23.4512 195.342 23.6464 195.146L28 190.793L32.3536 195.146C32.5488 195.342 32.5488 195.658 32.3536 195.854C32.1583 196.049 31.8417 196.049 31.6464 195.854L28 192.207L24.3536 195.854C24.1583 196.049 23.8417 196.049 23.6464 195.854Z" fill="#5F5F6A"/>
</svg>
