<svg width="56" height="224" viewBox="0 0 56 224" fill="none" xmlns="http://www.w3.org/2000/svg">
<path d="M28 20C23.5817 20 20 23.5817 20 28C20 32.4183 23.5817 36 28 36C32.4183 36 36 32.4183 36 28C36 23.5817 32.4183 20 28 20ZM28 31.75C25.9289 31.75 24.25 30.0711 24.25 28C24.25 25.9289 25.9289 24.25 28 24.25C30.0711 24.25 31.75 25.9289 31.75 28C31.75 30.0711 30.0711 31.75 28 31.75Z" fill="#5F5F6A"/>
<path opacity="0.5" d="M20.25 84C20.25 79.7198 23.7198 76.25 28 76.25C32.2802 76.25 35.75 79.7198 35.75 84C35.75 88.2802 32.2802 91.75 28 91.75C23.7198 91.75 20.25 88.2802 20.25 84Z" fill="#5F5F6A"/>
<path d="M24.25 84C24.25 86.0711 25.9289 87.75 28 87.75C30.0711 87.75 31.75 86.0711 31.75 84C31.75 81.9289 30.0711 80.25 28 80.25C25.9289 80.25 24.25 81.9289 24.25 84Z" fill="#5F5F6A"/>
<path d="M28 143.75C25.9289 143.75 24.25 142.071 24.25 140C24.25 137.929 25.9289 136.25 28 136.25C30.0711 136.25 31.75 137.929 31.75 140C31.75 142.071 30.0711 143.75 28 143.75Z" fill="#5F5F6A"/>
<path d="M28 132.25C23.7198 132.25 20.25 135.72 20.25 140C20.25 144.28 23.7198 147.75 28 147.75C32.2802 147.75 35.75 144.28 35.75 140C35.75 135.72 32.2802 132.25 28 132.25ZM21.75 140C21.75 136.548 24.5482 133.75 28 133.75C31.4518 133.75 34.25 136.548 34.25 140C34.25 143.452 31.4518 146.25 28 146.25C24.5482 146.25 21.75 143.452 21.75 140Z" fill="#5F5F6A"/>
<path d="M28 199.5C26.067 199.5 24.5 197.933 24.5 196C24.5 194.067 26.067 192.5 28 192.5C29.933 192.5 31.5 194.067 31.5 196C31.5 197.933 29.933 199.5 28 199.5ZM25.5 196C25.5 197.381 26.6193 198.5 28 198.5C29.3807 198.5 30.5 197.381 30.5 196C30.5 194.619 29.3807 193.5 28 193.5C26.6193 193.5 25.5 194.619 25.5 196Z" fill="#5F5F6A"/>
<path d="M28 188.5C23.8579 188.5 20.5 191.858 20.5 196C20.5 200.142 23.8579 203.5 28 203.5C32.1421 203.5 35.5 200.142 35.5 196C35.5 191.858 32.1421 188.5 28 188.5ZM21.5 196C21.5 192.41 24.4101 189.5 28 189.5C31.5899 189.5 34.5 192.41 34.5 196C34.5 199.59 31.5899 202.5 28 202.5C24.4101 202.5 21.5 199.59 21.5 196Z" fill="#5F5F6A"/>
</svg>
