<svg width="56" height="224" viewBox="0 0 56 224" fill="none" xmlns="http://www.w3.org/2000/svg">
<path fill-rule="evenodd" clip-rule="evenodd" d="M28 19.25C23.1675 19.25 19.25 23.1675 19.25 28C19.25 32.8325 23.1675 36.75 28 36.75C32.8325 36.75 36.75 32.8325 36.75 28C36.75 23.1675 32.8325 19.25 28 19.25ZM27 24C27 23.4477 27.4477 23 28 23C28.5523 23 29 23.4477 29 24V27.5858L30.7071 29.2929C31.0976 29.6834 31.0976 30.3166 30.7071 30.7071C30.3166 31.0976 29.6834 31.0976 29.2929 30.7071L27.2929 28.7071C27.1054 28.5196 27 28.2652 27 28V24Z" fill="#5F5F6A"/>
<path d="M28 76.75C23.9959 76.75 20.75 79.9959 20.75 84C20.75 88.0041 23.9959 91.25 28 91.25C32.0041 91.25 35.25 88.0041 35.25 84C35.25 79.9959 32.0041 76.75 28 76.75ZM19.25 84C19.25 79.1675 23.1675 75.25 28 75.25C32.8325 75.25 36.75 79.1675 36.75 84C36.75 88.8325 32.8325 92.75 28 92.75C23.1675 92.75 19.25 88.8325 19.25 84Z" fill="#5F5F6A"/>
<path opacity="0.5" d="M28 79.25C28.4142 79.25 28.75 79.5858 28.75 80V83.6893L30.5303 85.4697C30.8232 85.7626 30.8232 86.2374 30.5303 86.5303C30.2374 86.8232 29.7626 86.8232 29.4697 86.5303L27.4697 84.5303C27.329 84.3897 27.25 84.1989 27.25 84V80C27.25 79.5858 27.5858 79.25 28 79.25Z" fill="#5F5F6A"/>
<path d="M28 132.75C23.9959 132.75 20.75 135.996 20.75 140C20.75 144.004 23.9959 147.25 28 147.25C32.0041 147.25 35.25 144.004 35.25 140C35.25 135.996 32.0041 132.75 28 132.75ZM19.25 140C19.25 135.168 23.1675 131.25 28 131.25C32.8325 131.25 36.75 135.168 36.75 140C36.75 144.832 32.8325 148.75 28 148.75C23.1675 148.75 19.25 144.832 19.25 140ZM28 135.25C28.4142 135.25 28.75 135.586 28.75 136V139.689L30.5303 141.47C30.8232 141.763 30.8232 142.237 30.5303 142.53C30.2374 142.823 29.7626 142.823 29.4697 142.53L27.4697 140.53C27.329 140.39 27.25 140.199 27.25 140V136C27.25 135.586 27.5858 135.25 28 135.25Z" fill="#5F5F6A"/>
<path d="M28 188.5C23.8579 188.5 20.5 191.858 20.5 196C20.5 200.142 23.8579 203.5 28 203.5C32.1421 203.5 35.5 200.142 35.5 196C35.5 191.858 32.1421 188.5 28 188.5ZM19.5 196C19.5 191.306 23.3056 187.5 28 187.5C32.6944 187.5 36.5 191.306 36.5 196C36.5 200.694 32.6944 204.5 28 204.5C23.3056 204.5 19.5 200.694 19.5 196ZM28 191.5C28.2761 191.5 28.5 191.724 28.5 192V195.793L30.3536 197.646C30.5488 197.842 30.5488 198.158 30.3536 198.354C30.1583 198.549 29.8417 198.549 29.6464 198.354L27.6464 196.354C27.5527 196.26 27.5 196.133 27.5 196V192C27.5 191.724 27.7239 191.5 28 191.5Z" fill="#5F5F6A"/>
</svg>
