<svg width="56" height="168" viewBox="0 0 56 168" fill="none" xmlns="http://www.w3.org/2000/svg">
<path fill-rule="evenodd" clip-rule="evenodd" d="M27 21.75C24.3265 21.75 22.1187 23.7491 21.7918 26.3336L21.733 26.7983L21.2897 26.9494C19.8115 27.4531 18.75 28.8536 18.75 30.5C18.75 32.5711 20.4289 34.25 22.5 34.25H33.5C35.5711 34.25 37.25 32.5711 37.25 30.5C37.25 28.4289 35.5711 26.75 33.5 26.75C33.3365 26.75 33.1757 26.7604 33.0183 26.7806L32.2983 26.8727L32.1827 26.1561C31.7795 23.658 29.6118 21.75 27 21.75ZM20.3756 25.6978C20.9828 22.5927 23.7173 20.25 27 20.25C30.1231 20.25 32.7497 22.3703 33.5208 25.25C36.4107 25.2612 38.75 27.6074 38.75 30.5C38.75 33.3995 36.3995 35.75 33.5 35.75H22.5C19.6005 35.75 17.25 33.3995 17.25 30.5C17.25 28.3556 18.5352 26.5131 20.3756 25.6978Z" fill="#5F5F6A"/>
<path opacity="0.5" fill-rule="evenodd" clip-rule="evenodd" d="M27 25.75C27.4142 25.75 27.75 26.0858 27.75 26.5V28.25L29.5 28.25C29.9142 28.25 30.25 28.5858 30.25 29C30.25 29.4142 29.9142 29.75 29.5 29.75H27.75V31.5C27.75 31.9142 27.4142 32.25 27 32.25C26.5858 32.25 26.25 31.9142 26.25 31.5L26.25 29.75H24.5C24.0858 29.75 23.75 29.4142 23.75 29C23.75 28.5858 24.0858 28.25 24.5 28.25H26.25V26.5C26.25 26.0858 26.5858 25.75 27 25.75Z" fill="#5F5F6A"/>
<path fill-rule="evenodd" clip-rule="evenodd" d="M27 77.75C24.3265 77.75 22.1187 79.7491 21.7918 82.3336L21.733 82.7983L21.2897 82.9494C19.8115 83.4531 18.75 84.8536 18.75 86.5C18.75 88.5711 20.4289 90.25 22.5 90.25H33.5C35.5711 90.25 37.25 88.5711 37.25 86.5C37.25 84.4289 35.5711 82.75 33.5 82.75C33.3365 82.75 33.1757 82.7604 33.0183 82.7806L32.2983 82.8727L32.1827 82.1561C31.7795 79.658 29.6118 77.75 27 77.75ZM20.3756 81.6978C20.9828 78.5927 23.7173 76.25 27 76.25C30.1231 76.25 32.7497 78.3703 33.5208 81.25C36.4107 81.2612 38.75 83.6074 38.75 86.5C38.75 89.3995 36.3995 91.75 33.5 91.75H22.5C19.6005 91.75 17.25 89.3995 17.25 86.5C17.25 84.3556 18.5352 82.5131 20.3756 81.6978Z" fill="#5F5F6A"/>
<path fill-rule="evenodd" clip-rule="evenodd" d="M27 81.75C27.4142 81.75 27.75 82.0858 27.75 82.5V84.25L29.5 84.25C29.9142 84.25 30.25 84.5858 30.25 85C30.25 85.4142 29.9142 85.75 29.5 85.75H27.75V87.5C27.75 87.9142 27.4142 88.25 27 88.25C26.5858 88.25 26.25 87.9142 26.25 87.5L26.25 85.75H24.5C24.0858 85.75 23.75 85.4142 23.75 85C23.75 84.5858 24.0858 84.25 24.5 84.25H26.25V82.5C26.25 82.0858 26.5858 81.75 27 81.75Z" fill="#5F5F6A"/>
<path fill-rule="evenodd" clip-rule="evenodd" d="M27 133.5C24.199 133.5 21.8863 135.594 21.5438 138.302L21.5046 138.612L21.209 138.713C19.6327 139.25 18.5 140.743 18.5 142.5C18.5 144.709 20.2909 146.5 22.5 146.5H33.5C35.7091 146.5 37.5 144.709 37.5 142.5C37.5 140.291 35.7091 138.5 33.5 138.5C33.3258 138.5 33.1545 138.511 32.9865 138.533L32.5066 138.594L32.4295 138.116C32.007 135.499 29.7365 133.5 27 133.5ZM20.5971 137.875C21.1302 134.821 23.7937 132.5 27 132.5C30.0749 132.5 32.6503 134.635 33.3267 137.503C33.3842 137.501 33.442 137.5 33.5 137.5C36.2614 137.5 38.5 139.739 38.5 142.5C38.5 145.261 36.2614 147.5 33.5 147.5H22.5C19.7386 147.5 17.5 145.261 17.5 142.5C17.5 140.412 18.78 138.623 20.5971 137.875Z" fill="#5F5F6A"/>
<path fill-rule="evenodd" clip-rule="evenodd" d="M27 138C27.2761 138 27.5 138.224 27.5 138.5V140.5H29.5C29.7761 140.5 30 140.724 30 141C30 141.276 29.7761 141.5 29.5 141.5H27.5V143.5C27.5 143.776 27.2761 144 27 144C26.7239 144 26.5 143.776 26.5 143.5V141.5H24.5C24.2239 141.5 24 141.276 24 141C24 140.724 24.2239 140.5 24.5 140.5H26.5V138.5C26.5 138.224 26.7239 138 27 138Z" fill="#5F5F6A"/>
</svg>
