<svg width="56" height="224" viewBox="0 0 56 224" fill="none" xmlns="http://www.w3.org/2000/svg">
<path fill-rule="evenodd" clip-rule="evenodd" d="M27 20.25C23.7173 20.25 20.9828 22.5927 20.3756 25.6978C18.5352 26.5131 17.25 28.3556 17.25 30.5C17.25 33.3995 19.6005 35.75 22.5 35.75H33.5C36.3995 35.75 38.75 33.3995 38.75 30.5C38.75 27.6074 36.4107 25.2612 33.5208 25.25C32.7497 22.3703 30.1231 20.25 27 20.25Z" fill="#5F5F6A"/>
<path d="M27 77.75C24.3265 77.75 22.1187 79.7491 21.7918 82.3336L21.733 82.7983L21.2897 82.9494C19.8115 83.4531 18.75 84.8536 18.75 86.5C18.75 88.5711 20.4289 90.25 22.5 90.25H33.5C35.5711 90.25 37.25 88.5711 37.25 86.5C37.25 84.4289 35.5711 82.75 33.5 82.75C33.3365 82.75 33.1757 82.7604 33.0183 82.7806L32.2983 82.8727L32.1827 82.1561C31.7795 79.658 29.6118 77.75 27 77.75ZM20.3756 81.6978C20.9828 78.5927 23.7173 76.25 27 76.25C30.1231 76.25 32.7497 78.3703 33.5208 81.25C36.4107 81.2612 38.75 83.6074 38.75 86.5C38.75 89.3995 36.3995 91.75 33.5 91.75H22.5C19.6005 91.75 17.25 89.3995 17.25 86.5C17.25 84.3556 18.5352 82.5131 20.3756 81.6978Z" fill="#5F5F6A"/>
<path d="M27 133.75C24.3265 133.75 22.1187 135.749 21.7918 138.334L21.733 138.798L21.2897 138.949C19.8115 139.453 18.75 140.854 18.75 142.5C18.75 144.571 20.4289 146.25 22.5 146.25H33.5C35.5711 146.25 37.25 144.571 37.25 142.5C37.25 140.429 35.5711 138.75 33.5 138.75C33.3365 138.75 33.1757 138.76 33.0183 138.781L32.2983 138.873L32.1827 138.156C31.7795 135.658 29.6118 133.75 27 133.75ZM20.3756 137.698C20.9828 134.593 23.7173 132.25 27 132.25C30.1231 132.25 32.7497 134.37 33.5208 137.25C36.4107 137.261 38.75 139.607 38.75 142.5C38.75 145.399 36.3995 147.75 33.5 147.75H22.5C19.6005 147.75 17.25 145.399 17.25 142.5C17.25 140.356 18.5352 138.513 20.3756 137.698Z" fill="#5F5F6A"/>
<path d="M27 189.5C24.199 189.5 21.8863 191.594 21.5438 194.302L21.5046 194.612L21.209 194.713C19.6327 195.25 18.5 196.743 18.5 198.5C18.5 200.709 20.2909 202.5 22.5 202.5H33.5C35.7091 202.5 37.5 200.709 37.5 198.5C37.5 196.291 35.7091 194.5 33.5 194.5C33.3258 194.5 33.1545 194.511 32.9865 194.533L32.5066 194.594L32.4295 194.116C32.007 191.499 29.7365 189.5 27 189.5ZM20.5971 193.875C21.1302 190.821 23.7937 188.5 27 188.5C30.0749 188.5 32.6503 190.635 33.3267 193.503C33.3842 193.501 33.442 193.5 33.5 193.5C36.2614 193.5 38.5 195.739 38.5 198.5C38.5 201.261 36.2614 203.5 33.5 203.5H22.5C19.7386 203.5 17.5 201.261 17.5 198.5C17.5 196.412 18.78 194.623 20.5971 193.875Z" fill="#5F5F6A"/>
</svg>
