<svg width="56" height="168" viewBox="0 0 56 168" fill="none" xmlns="http://www.w3.org/2000/svg">
<path d="M27 21.75C24.3265 21.75 22.1187 23.7491 21.7918 26.3336L21.733 26.7983L21.2897 26.9494C19.8115 27.4531 18.75 28.8536 18.75 30.5C18.75 31.6777 19.292 32.7283 20.1431 33.417C20.7873 33.9383 21.6063 34.25 22.5 34.25C22.9142 34.25 23.25 34.5858 23.25 35C23.25 35.4142 22.9142 35.75 22.5 35.75C21.2505 35.75 20.1011 35.3125 19.1995 34.583C18.0116 33.6218 17.25 32.1496 17.25 30.5C17.25 28.3556 18.5352 26.5131 20.3756 25.6978C20.9828 22.5927 23.7173 20.25 27 20.25C30.1231 20.25 32.7497 22.3703 33.5208 25.25C36.4107 25.2612 38.75 27.6074 38.75 30.5C38.75 32.1496 37.9884 33.6218 36.8005 34.583C35.8989 35.3125 34.7495 35.75 33.5 35.75C33.0858 35.75 32.75 35.4142 32.75 35C32.75 34.5858 33.0858 34.25 33.5 34.25C34.3937 34.25 35.2127 33.9383 35.8569 33.417C36.708 32.7283 37.25 31.6777 37.25 30.5C37.25 28.4289 35.5711 26.75 33.5 26.75C33.3365 26.75 33.1757 26.7604 33.0183 26.7806L32.2983 26.8727L32.1827 26.1561C31.7795 23.658 29.6118 21.75 27 21.75Z" fill="#5F5F6A"/>
<path opacity="0.5" d="M28.5303 28.4697L31.0303 30.9697C31.3232 31.2626 31.3232 31.7374 31.0303 32.0303C30.7374 32.3232 30.2626 32.3232 29.9697 32.0303L28.75 30.8107V37C28.75 37.4142 28.4142 37.75 28 37.75C27.5858 37.75 27.25 37.4142 27.25 37V30.8107L26.0303 32.0303C25.7374 32.3232 25.2626 32.3232 24.9697 32.0303C24.6768 31.7374 24.6768 31.2626 24.9697 30.9697L27.4697 28.4697C27.7626 28.1768 28.2374 28.1768 28.5303 28.4697Z" fill="#5F5F6A"/>
<path d="M27 77.75C24.3265 77.75 22.1187 79.7491 21.7918 82.3336L21.733 82.7983L21.2897 82.9494C19.8115 83.4531 18.75 84.8536 18.75 86.5C18.75 87.6777 19.292 88.7283 20.1431 89.417C20.7873 89.9383 21.6063 90.25 22.5 90.25C22.9142 90.25 23.25 90.5858 23.25 91C23.25 91.4142 22.9142 91.75 22.5 91.75C21.2505 91.75 20.1011 91.3125 19.1995 90.583C18.0116 89.6218 17.25 88.1496 17.25 86.5C17.25 84.3556 18.5352 82.5131 20.3756 81.6978C20.9828 78.5927 23.7173 76.25 27 76.25C30.1231 76.25 32.7497 78.3703 33.5208 81.25C36.4107 81.2612 38.75 83.6074 38.75 86.5C38.75 88.1496 37.9884 89.6218 36.8005 90.583C35.8989 91.3125 34.7495 91.75 33.5 91.75C33.0858 91.75 32.75 91.4142 32.75 91C32.75 90.5858 33.0858 90.25 33.5 90.25C34.3937 90.25 35.2127 89.9383 35.8569 89.417C36.708 88.7283 37.25 87.6777 37.25 86.5C37.25 84.4289 35.5711 82.75 33.5 82.75C33.3365 82.75 33.1757 82.7604 33.0183 82.7806L32.2983 82.8727L32.1827 82.1561C31.7795 79.658 29.6118 77.75 27 77.75Z" fill="#5F5F6A"/>
<path d="M28.5303 84.4697L31.0303 86.9697C31.3232 87.2626 31.3232 87.7374 31.0303 88.0303C30.7374 88.3232 30.2626 88.3232 29.9697 88.0303L28.75 86.8107V93C28.75 93.4142 28.4142 93.75 28 93.75C27.5858 93.75 27.25 93.4142 27.25 93V86.8107L26.0303 88.0303C25.7374 88.3232 25.2626 88.3232 24.9697 88.0303C24.6768 87.7374 24.6768 87.2626 24.9697 86.9697L27.4697 84.4697C27.7626 84.1768 28.2374 84.1768 28.5303 84.4697Z" fill="#5F5F6A"/>
<path d="M21.5438 138.302C21.8863 135.594 24.199 133.5 27 133.5C29.7365 133.5 32.007 135.499 32.4295 138.116L32.5066 138.594L32.9865 138.533C33.1545 138.511 33.3258 138.5 33.5 138.5C35.7091 138.5 37.5 140.291 37.5 142.5C37.5 143.756 36.9214 144.877 36.0141 145.611C35.327 146.167 34.453 146.5 33.5 146.5C33.2239 146.5 33 146.724 33 147C33 147.276 33.2239 147.5 33.5 147.5C34.6902 147.5 35.7846 147.083 36.6432 146.389C37.775 145.473 38.5 144.071 38.5 142.5C38.5 139.739 36.2614 137.5 33.5 137.5C33.442 137.5 33.3842 137.501 33.3267 137.503C32.6503 134.635 30.0749 132.5 27 132.5C23.7937 132.5 21.1302 134.821 20.5971 137.875C18.78 138.623 17.5 140.412 17.5 142.5C17.5 144.071 18.225 145.473 19.3568 146.389C20.2154 147.083 21.3098 147.5 22.5 147.5C22.7761 147.5 23 147.276 23 147C23 146.724 22.7761 146.5 22.5 146.5C21.547 146.5 20.673 146.167 19.9859 145.611C19.0786 144.877 18.5 143.756 18.5 142.5C18.5 140.743 19.6327 139.25 21.209 138.713L21.5046 138.612L21.5438 138.302Z" fill="#5F5F6A"/>
<path d="M30.8536 143.146L28.3536 140.646C28.1583 140.451 27.8417 140.451 27.6464 140.646L25.1464 143.146C24.9512 143.342 24.9512 143.658 25.1464 143.854C25.3417 144.049 25.6583 144.049 25.8536 143.854L27.5 142.207V149C27.5 149.276 27.7239 149.5 28 149.5C28.2761 149.5 28.5 149.276 28.5 149V142.207L30.1464 143.854C30.3417 144.049 30.6583 144.049 30.8536 143.854C31.0488 143.658 31.0488 143.342 30.8536 143.146Z" fill="#5F5F6A"/>
</svg>
