<svg width="56" height="168" viewBox="0 0 56 168" fill="none" xmlns="http://www.w3.org/2000/svg">
<path d="M23.96 24.4279C24.3773 24.2192 24.885 24.3885 25.0938 24.8058C25.3024 25.2232 25.1332 25.7309 24.7158 25.9396L20.5947 28.0001L24.7158 30.0607C25.1332 30.2694 25.3024 30.7771 25.0938 31.1945C24.885 31.6116 24.3772 31.781 23.96 31.5724L18.5293 28.8566C17.8236 28.5037 17.8236 27.4966 18.5293 27.1437L23.96 24.4279ZM30.9062 24.8058C31.115 24.3885 31.6227 24.2192 32.04 24.4279L37.4707 27.1437C38.1764 27.4966 38.1764 28.5037 37.4707 28.8566L32.04 31.5724C31.6228 31.781 31.115 31.6116 30.9062 31.1945C30.6976 30.7771 30.8668 30.2694 31.2842 30.0607L35.4053 28.0001L31.2842 25.9396C30.8668 25.7309 30.6976 25.2232 30.9062 24.8058Z" fill="#5F5F6A"/>
<path opacity="0.5" fill-rule="evenodd" clip-rule="evenodd" d="M29.5947 20.9803C30.0497 21.0837 30.3347 21.5364 30.2313 21.9914L27.415 34.3831C27.3116 34.8381 26.8589 35.1231 26.4039 35.0197C25.9489 34.9163 25.6639 34.4636 25.7673 34.0086L28.5836 21.6169C28.687 21.1619 29.1397 20.8769 29.5947 20.9803Z" fill="#5F5F6A"/>
<path d="M28.584 77.6166C28.6875 77.1617 29.1408 76.8765 29.5957 76.9799C30.0507 77.0833 30.3358 77.5366 30.2324 77.9916L27.416 90.3832C27.3125 90.8382 26.8593 91.1233 26.4043 91.0199C25.9495 90.9164 25.6652 90.4631 25.7686 90.0082L28.584 77.6166ZM23.96 80.4281C24.3773 80.2195 24.8851 80.3887 25.0938 80.8061C25.3023 81.2234 25.1331 81.7312 24.7158 81.9399L20.5947 84.0004L24.7158 86.061C25.1331 86.2696 25.3023 86.7765 25.0938 87.1938C24.8851 87.6111 24.3773 87.7804 23.96 87.5717L18.5293 84.8569C17.8236 84.504 17.8237 83.4969 18.5293 83.144L23.96 80.4281ZM30.9062 80.8061C31.1149 80.3887 31.6227 80.2195 32.04 80.4281L37.4707 83.144C38.1763 83.4969 38.1764 84.504 37.4707 84.8569L32.04 87.5717C31.6227 87.7804 31.1149 87.6111 30.9062 87.1938C30.6977 86.7765 30.8669 86.2696 31.2842 86.061L35.4053 84.0004L31.2842 81.9399C30.8669 81.7312 30.6976 81.2234 30.9062 80.8061Z" fill="#5F5F6A"/>
<path d="M29.5771 133.06C29.8893 133.131 30.0846 133.441 30.0137 133.753L27.1162 146.504C27.0452 146.816 26.7348 147.011 26.4229 146.941C26.1108 146.87 25.9147 146.559 25.9854 146.247L28.8838 133.496C28.9547 133.184 29.265 132.989 29.5771 133.06ZM23.9727 136.584C24.2589 136.441 24.6068 136.557 24.75 136.843C24.8931 137.129 24.7773 137.477 24.4912 137.62L19.7324 140L24.4912 142.379C24.7775 142.522 24.8931 142.871 24.75 143.157C24.6068 143.443 24.2588 143.559 23.9727 143.416L18.3838 140.622C17.8715 140.366 17.8716 139.635 18.3838 139.378L23.9727 136.584ZM31.249 136.843C31.3921 136.557 31.7401 136.441 32.0264 136.584L37.6152 139.378C38.1278 139.634 38.1278 140.366 37.6152 140.622L32.0264 143.416C31.7402 143.559 31.3922 143.443 31.249 143.157C31.1059 142.871 31.2225 142.522 31.5088 142.379L36.2676 140L31.5088 137.62C31.2225 137.477 31.106 137.129 31.249 136.843Z" fill="#5F5F6A"/>
</svg>
