<svg width="56" height="224" viewBox="0 0 56 224" fill="none" xmlns="http://www.w3.org/2000/svg">
<path d="M30.5 24.25C27.2322 24.25 24.5 26.6687 24.5 29.75C24.5 32.8313 27.2322 35.25 30.5 35.25C31.2721 35.25 32.0117 35.1162 32.6918 34.8716L35.3077 35.9615C35.484 36.035 35.6867 36.0016 35.8301 35.8755C35.9735 35.7494 36.0326 35.5527 35.9824 35.3684L35.3377 33.0047C36.0653 32.0972 36.5 30.9719 36.5 29.75C36.5 26.6687 33.7678 24.25 30.5 24.25Z" fill="#5F5F6A"/>
<path d="M20 25.5C20 26.6863 20.4544 27.776 21.2136 28.6333L20.7152 30.461C20.6461 30.7142 20.6116 30.8408 20.6457 30.9207C20.6754 30.9903 20.735 31.0427 20.8079 31.0633C20.8916 31.0868 21.0127 31.0364 21.2549 30.9354L23.2992 30.0837C23.3699 30.1117 23.4414 30.1385 23.5136 30.164C23.5046 30.0274 23.5 29.8893 23.5 29.75C23.5 26.0577 26.7211 23.2932 30.4133 23.2505C29.5076 21.6189 27.6475 20.5 25.5 20.5C22.4624 20.5 20 22.7386 20 25.5Z" fill="#5F5F6A"/>
<path opacity="0.5" d="M34.7864 88.8833C35.5456 88.026 36 86.9363 36 85.75C36 82.9886 33.5376 80.75 30.5 80.75C27.4624 80.75 25 82.9886 25 85.75C25 88.5114 27.4624 90.75 30.5 90.75C31.2825 90.75 32.0269 90.6014 32.7008 90.3337L35.5 91.5L34.7864 88.8833Z" fill="#5F5F6A"/>
<path fill-rule="evenodd" clip-rule="evenodd" d="M25.5 75.75C22.1171 75.75 19.25 78.2587 19.25 81.5C19.25 82.7379 19.6752 83.8793 20.388 84.8101L19.7764 87.0527C19.6155 87.6429 20.2237 88.1776 20.7885 87.9423L23.5877 86.776C23.97 86.6166 24.1509 86.1775 23.9915 85.7952C23.8322 85.4128 23.3931 85.232 23.0108 85.3913L21.6271 85.9679L21.9372 84.8306C22.0038 84.5866 21.9428 84.3254 21.7751 84.1361C21.1274 83.4047 20.75 82.4886 20.75 81.5C20.75 79.2185 22.8078 77.25 25.5 77.25C27.5803 77.25 29.2913 78.4326 29.9536 80.0219C26.8141 80.2747 24.25 82.6848 24.25 85.75C24.25 88.9913 27.1171 91.5 30.5 91.5C31.2664 91.5 32.0027 91.3729 32.6841 91.1392L35.2115 92.1923C35.7763 92.4276 36.3845 91.8929 36.2236 91.3027L35.612 89.0601C36.3248 88.1293 36.75 86.9879 36.75 85.75C36.75 82.8534 34.4603 80.5419 31.559 80.083C30.8646 77.5526 28.3747 75.75 25.5 75.75ZM25.75 85.75C25.75 83.4685 27.8078 81.5 30.5 81.5C33.1922 81.5 35.25 83.4685 35.25 85.75C35.25 86.7386 34.8726 87.6547 34.2249 88.3861C34.0572 88.5754 33.9962 88.8366 34.0628 89.0806L34.3729 90.2179L32.9892 89.6413C32.8086 89.5661 32.6057 89.5644 32.4238 89.6367C31.8377 89.8696 31.1873 90 30.5 90C27.8078 90 25.75 88.0315 25.75 85.75Z" fill="#5F5F6A"/>
<path fill-rule="evenodd" clip-rule="evenodd" d="M25.5 131.75C22.1171 131.75 19.25 134.259 19.25 137.5C19.25 138.738 19.6752 139.879 20.388 140.81L19.7764 143.053C19.6155 143.643 20.2237 144.178 20.7885 143.942L23.5877 142.776C23.97 142.617 24.1509 142.178 23.9915 141.795C23.8322 141.413 23.3931 141.232 23.0108 141.391L21.6271 141.968L21.9372 140.831C22.0038 140.587 21.9428 140.325 21.7751 140.136C21.1274 139.405 20.75 138.489 20.75 137.5C20.75 135.218 22.8078 133.25 25.5 133.25C27.5803 133.25 29.2913 134.433 29.9536 136.022C26.8141 136.275 24.25 138.685 24.25 141.75C24.25 144.991 27.1171 147.5 30.5 147.5C31.2664 147.5 32.0027 147.373 32.6841 147.139L35.2115 148.192C35.7763 148.428 36.3845 147.893 36.2236 147.303L35.612 145.06C36.3248 144.129 36.75 142.988 36.75 141.75C36.75 138.853 34.4603 136.542 31.559 136.083C30.8646 133.553 28.3747 131.75 25.5 131.75ZM25.75 141.75C25.75 139.468 27.8078 137.5 30.5 137.5C33.1922 137.5 35.25 139.468 35.25 141.75C35.25 142.739 34.8726 143.655 34.2249 144.386C34.0572 144.575 33.9962 144.837 34.0628 145.081L34.3729 146.218L32.9892 145.641C32.8086 145.566 32.6057 145.564 32.4238 145.637C31.8377 145.87 31.1873 146 30.5 146C27.8078 146 25.75 144.032 25.75 141.75Z" fill="#5F5F6A"/>
<path fill-rule="evenodd" clip-rule="evenodd" d="M25.5 188C22.2322 188 19.5 190.419 19.5 193.5C19.5 194.722 19.9347 195.847 20.6623 196.755L20.0176 199.118C19.9103 199.512 20.3158 199.868 20.6923 199.712L23.4915 198.545C23.7464 198.439 23.867 198.146 23.7608 197.891C23.6546 197.636 23.3618 197.516 23.1069 197.622L21.2514 198.395L21.696 196.765C21.7404 196.602 21.6998 196.428 21.588 196.302C20.9031 195.528 20.5 194.554 20.5 193.5C20.5 191.058 22.6927 189 25.5 189C27.8092 189 29.7099 190.398 30.3051 192.253C27.1243 192.347 24.5 194.73 24.5 197.75C24.5 200.831 27.2322 203.25 30.5 203.25C31.2721 203.25 32.0117 203.116 32.6918 202.872L35.3077 203.962C35.6842 204.118 36.0897 203.762 35.9824 203.368L35.3377 201.005C36.0653 200.097 36.5 198.972 36.5 197.75C36.5 194.943 34.2326 192.686 31.3584 192.306C30.758 189.814 28.3348 188 25.5 188ZM25.5 197.75C25.5 195.308 27.6927 193.25 30.5 193.25C33.3073 193.25 35.5 195.308 35.5 197.75C35.5 198.804 35.0969 199.778 34.412 200.552C34.3002 200.678 34.2596 200.852 34.304 201.015L34.7486 202.645L32.8931 201.872C32.7726 201.822 32.6374 201.821 32.5161 201.869C31.9007 202.114 31.219 202.25 30.5 202.25C27.6927 202.25 25.5 200.192 25.5 197.75Z" fill="#5F5F6A"/>
</svg>
