<svg width="64" height="232" viewBox="0 0 64 232" fill="none" xmlns="http://www.w3.org/2000/svg">
<path d="M33.7032 26.8885L39.1661 31.1808C39.4209 31.381 39.4209 31.7669 39.1661 31.9671L33.7032 36.2594C33.3413 36.5437 32.82 36.2296 32.9023 35.7768L33.2577 33.8222C28.2414 32.6184 26.1496 35.3163 25.3433 37.0574C25.2259 37.311 24.729 37.2619 24.704 36.9836C24.0583 29.7827 28.7859 28.7401 33.2743 29.417L32.9023 27.3711C32.82 26.9184 33.3413 26.6042 33.7032 26.8885Z" fill="#5F5F6A"/>
<path opacity="0.5" d="M33.7032 82.8885L39.1661 87.1808C39.4209 87.381 39.4209 87.767 39.1661 87.9671L33.7032 92.2594C33.3413 92.5437 32.82 92.2296 32.9023 91.7768L33.2577 89.8223C28.2414 88.6184 26.1496 91.3164 25.3433 93.0574C25.2259 93.311 24.729 93.2619 24.704 92.9836C24.0583 85.7827 28.7859 84.7401 33.2743 85.4171L32.9023 83.3711C32.82 82.9184 33.3413 82.6042 33.7032 82.8885Z" fill="#5F5F6A"/>
<path fill-rule="evenodd" clip-rule="evenodd" d="M32.4111 83.4606C32.2464 82.5551 33.2891 81.9268 34.0128 82.4954L39.4757 86.7877C39.9853 87.188 39.9853 87.9599 39.4757 88.3603L34.0128 92.6526C33.2891 93.2212 32.2464 92.5929 32.4111 91.6874L32.6802 90.2073C30.5267 89.7813 29.0256 90.1441 27.9775 90.7656C26.8432 91.4381 26.1756 92.4516 25.7977 93.2675L25.344 93.0574L25.341 93.0561M25.344 93.0574L25.7977 93.2675C25.6121 93.6684 25.1887 93.7444 24.9359 93.7171C24.6876 93.6902 24.2504 93.5151 24.2067 93.0283C23.8737 89.3149 24.9224 87.0374 26.7928 85.8264C28.4295 84.7668 30.5834 84.6038 32.6605 84.8325L32.4111 83.4606M38.8579 87.574L33.395 83.2817L33.7669 85.3276C33.7958 85.4864 33.7463 85.6494 33.6339 85.7652C33.5215 85.8811 33.36 85.9355 33.2004 85.9115C30.993 85.5786 28.8422 85.691 27.3363 86.6659C25.9708 87.5499 25.0126 89.2301 25.1599 92.3198C25.6217 91.4973 26.3484 90.569 27.4674 89.9054C28.8475 89.0871 30.7616 88.7089 33.3751 89.3361C33.6331 89.398 33.7978 89.6507 33.7503 89.9117L33.395 91.8663L38.8579 87.574Z" fill="#5F5F6A"/>
<path fill-rule="evenodd" clip-rule="evenodd" d="M32.165 139.505C31.9592 138.373 33.2625 137.588 34.1671 138.299L39.63 142.591C40.267 143.092 40.267 144.056 39.63 144.557L34.1671 148.849C33.2625 149.56 31.9592 148.775 32.165 147.643L32.3895 146.408C30.4186 146.065 29.0541 146.418 28.1048 146.981C27.0288 147.619 26.3897 148.584 26.0244 149.373L25.3561 149.063L26.0244 149.373C25.7753 149.911 25.217 149.999 24.9089 149.966C24.6075 149.933 24.0168 149.711 23.9576 149.051C23.6195 145.281 24.6823 142.895 26.6568 141.617C28.2734 140.57 30.3526 140.372 32.3551 140.551L32.165 139.505ZM33.7587 139.886L34.0128 141.283C34.0561 141.521 33.9817 141.766 33.8131 141.939C33.6445 142.113 33.4024 142.195 33.163 142.159C30.974 141.829 28.8997 141.951 27.472 142.876C26.3246 143.619 25.4458 144.984 25.3968 147.484C25.8611 146.841 26.4915 146.193 27.3398 145.69C28.7845 144.834 30.7671 144.453 33.4333 145.093C33.8203 145.186 34.0674 145.565 33.9962 145.956L33.7587 147.262L38.4531 143.574L33.7587 139.886Z" fill="#5F5F6A"/>
<path fill-rule="evenodd" clip-rule="evenodd" d="M32.4115 195.461C32.2469 194.555 33.2895 193.927 34.0132 194.495L39.4762 198.788C39.9857 199.188 39.9857 199.96 39.4762 200.36L34.0132 204.653C33.2895 205.221 32.2469 204.593 32.4115 203.687L32.6806 202.207C30.527 201.781 29.0258 202.144 27.9776 202.766C26.8432 203.438 26.1756 204.452 25.7977 205.268L25.3455 205.058L25.7977 205.268C25.6121 205.668 25.1887 205.744 24.9359 205.717C24.6876 205.69 24.2504 205.515 24.2067 205.028C23.8737 201.315 24.9225 199.037 26.793 197.826C28.4298 196.767 30.5837 196.604 32.661 196.833L32.4115 195.461ZM38.8583 199.574L33.3954 195.282L33.7674 197.328C33.7963 197.487 33.7467 197.649 33.6343 197.765C33.5219 197.881 33.3605 197.936 33.2009 197.912C30.9934 197.579 28.8424 197.691 27.3364 198.666C25.9709 199.55 25.0126 201.23 25.1599 204.32C25.6218 203.497 26.3484 202.569 27.4676 201.905C28.8477 201.087 30.7619 200.709 33.3755 201.336C33.6335 201.398 33.7982 201.651 33.7508 201.912L33.3954 203.866L38.8583 199.574Z" fill="#5F5F6A"/>
</svg>
