<svg width="56" height="224" viewBox="0 0 56 224" fill="none" xmlns="http://www.w3.org/2000/svg">
<path fill-rule="evenodd" clip-rule="evenodd" d="M20 19C19.4477 19 19 19.4477 19 20V21.4444C19 23.087 19 24.3809 19.0851 25.4222C19.1719 26.4846 19.3522 27.3717 19.763 28.1779C20.4341 29.4951 21.5049 30.5659 22.8221 31.237C23.6283 31.6478 24.5154 31.8281 25.5778 31.9149C26.6191 32 27.9131 32 29.5556 32H33.5858L30.2929 35.2929C29.9024 35.6834 29.9024 36.3166 30.2929 36.7071C30.6834 37.0976 31.3166 37.0976 31.7071 36.7071L36.7071 31.7071C37.0976 31.3166 37.0976 30.6834 36.7071 30.2929L31.7071 25.2929C31.3166 24.9024 30.6834 24.9024 30.2929 25.2929C29.9024 25.6834 29.9024 26.3166 30.2929 26.7071L33.5858 30H29.6C27.9033 30 26.691 29.9992 25.7406 29.9216C24.802 29.8449 24.2073 29.6982 23.73 29.455C22.7892 28.9757 22.0243 28.2108 21.545 27.27C21.3018 26.7927 21.1551 26.198 21.0784 25.2594C21.0008 24.309 21 23.0967 21 21.4V20C21 19.4477 20.5523 19 20 19Z" fill="#5F5F6A"/>
<path fill-rule="evenodd" clip-rule="evenodd" d="M20 75.125C19.5168 75.125 19.125 75.5168 19.125 76V77.4392C19.125 79.0862 19.125 80.3758 19.2097 81.412C19.2958 82.4667 19.474 83.3355 19.8743 84.1212C20.5335 85.4148 21.5852 86.4665 22.8788 87.1257C23.6645 87.526 24.5333 87.7042 25.588 87.7903C26.6242 87.875 27.9138 87.875 29.5608 87.875H33.8876L30.3813 91.3813C30.0396 91.723 30.0396 92.277 30.3813 92.6187C30.723 92.9604 31.277 92.9604 31.6187 92.6187L36.6187 87.6187C36.9604 87.277 36.9604 86.723 36.6187 86.3813L31.6187 81.3813C31.277 81.0396 30.723 81.0396 30.3813 81.3813C30.0396 81.723 30.0396 82.277 30.3813 82.6187L33.8876 86.125H29.6C27.9054 86.125 26.6871 86.1243 25.7305 86.0462C24.7841 85.9688 24.1711 85.8201 23.6733 85.5664C22.709 85.0751 21.9249 84.291 21.4336 83.3267C21.1799 82.8289 21.0312 82.2159 20.9538 81.2695C20.8757 80.3129 20.875 79.0946 20.875 77.4V76C20.875 75.5168 20.4832 75.125 20 75.125Z" fill="#5F5F6A"/>
<path fill-rule="evenodd" clip-rule="evenodd" d="M20 131.25C19.5858 131.25 19.25 131.586 19.25 132V133.434C19.25 135.085 19.25 136.371 19.3342 137.402C19.4198 138.449 19.5959 139.299 19.9857 140.064C20.6329 141.335 21.6655 142.367 22.9356 143.014C23.7007 143.404 24.5512 143.58 25.5981 143.666C26.6292 143.75 27.9146 143.75 29.566 143.75H34.1893L30.4697 147.47C30.1768 147.763 30.1768 148.237 30.4697 148.53C30.7626 148.823 31.2374 148.823 31.5303 148.53L36.5303 143.53C36.8232 143.237 36.8232 142.763 36.5303 142.47L31.5303 137.47C31.2374 137.177 30.7626 137.177 30.4697 137.47C30.1768 137.763 30.1768 138.237 30.4697 138.53L34.1893 142.25H29.6C27.9075 142.25 26.6832 142.249 25.7203 142.171C24.7662 142.093 24.1349 141.942 23.6165 141.678C22.6287 141.174 21.8256 140.371 21.3222 139.383C21.0581 138.865 20.9072 138.234 20.8293 137.28C20.7506 136.317 20.75 135.093 20.75 133.4V132C20.75 131.586 20.4142 131.25 20 131.25Z" fill="#5F5F6A"/>
<path fill-rule="evenodd" clip-rule="evenodd" d="M20 187.5C19.7239 187.5 19.5 187.724 19.5 188V189.423C19.5 191.084 19.5 192.361 19.5834 193.382C19.6677 194.413 19.8396 195.227 20.2085 195.951C20.8316 197.174 21.826 198.168 23.0491 198.792C23.773 199.16 24.5871 199.332 25.6185 199.417C26.6394 199.5 27.9163 199.5 29.5769 199.5H34.7929L30.6464 203.646C30.4512 203.842 30.4512 204.158 30.6464 204.354C30.8417 204.549 31.1583 204.549 31.3536 204.354L36.3536 199.354C36.5488 199.158 36.5488 198.842 36.3536 198.646L31.3536 193.646C31.1583 193.451 30.8417 193.451 30.6464 193.646C30.4512 193.842 30.4512 194.158 30.6464 194.354L34.7929 198.5H29.6C27.9116 198.5 26.6754 198.5 25.6999 198.42C24.7303 198.341 24.0626 198.186 23.5031 197.901C22.4682 197.373 21.6268 196.532 21.0995 195.497C20.8144 194.937 20.6593 194.27 20.5801 193.3C20.5004 192.325 20.5 191.088 20.5 189.4V188C20.5 187.724 20.2761 187.5 20 187.5Z" fill="#5F5F6A"/>
</svg>
