<svg width="56" height="224" viewBox="0 0 56 224" fill="none" xmlns="http://www.w3.org/2000/svg">
<path d="M32.0282 28.1629C32.2949 28.0915 32.5691 28.2498 32.6406 28.5165C32.7119 28.7831 32.5537 29.0574 32.287 29.1289C32.0205 29.2001 31.7462 29.0418 31.6746 28.7753C31.6032 28.5087 31.7617 28.2346 32.0282 28.1629Z" fill="#5F5F6A"/>
<path d="M27.4973 25.5463C27.7639 25.475 28.0383 25.6332 28.1097 25.8998C28.1811 26.1664 28.0227 26.4405 27.7561 26.5122C27.4894 26.5836 27.2152 26.4254 27.1438 26.1586C27.0723 25.8919 27.2306 25.6177 27.4973 25.5463Z" fill="#5F5F6A"/>
<path fill-rule="evenodd" clip-rule="evenodd" d="M33.3371 20.8757C34.1373 20.6613 34.9598 21.1361 35.1742 21.9363L35.5743 23.4295C35.6528 23.7233 35.5434 24.0123 35.346 24.1924C34.8104 24.6811 34.5607 25.4422 34.7606 26.1883C34.9604 26.934 35.5569 27.4676 36.2653 27.6231C36.5263 27.6804 36.7655 27.8759 36.8444 28.1696L37.2448 29.6637C37.4592 30.4639 36.9843 31.2864 36.1841 31.5008L22.6611 35.1243C21.8609 35.3387 21.0384 34.8639 20.824 34.0637L20.4237 32.5695C20.3451 32.2758 20.4545 31.9868 20.652 31.8067C21.1852 31.2857 21.4343 30.5457 21.2376 29.8117C21.0377 29.0656 20.4409 28.5314 19.7327 28.3759C19.4717 28.3187 19.2325 28.1231 19.1536 27.8295L18.7535 26.3362C18.5391 25.536 19.0139 24.7135 19.8141 24.4991L33.3371 20.8757ZM25.2654 31.3207C24.9987 31.3921 24.8404 31.6663 24.9119 31.933C24.9833 32.1998 25.2575 32.3581 25.5242 32.2866C25.791 32.2151 25.9493 31.941 25.8778 31.6742C25.8063 31.4075 25.5321 31.2492 25.2654 31.3207ZM31.7694 27.197C30.9694 27.4116 30.4943 28.2341 30.7087 29.0341C30.9232 29.8341 31.7458 30.3089 32.5458 30.0948C33.3459 29.8804 33.8207 29.0578 33.6065 28.2577C33.3921 27.4575 32.5696 26.9826 31.7694 27.197ZM31.5143 24.3961C31.2744 24.2602 30.9697 24.3439 30.8335 24.5836L27.8296 29.8764C27.6937 30.1163 27.778 30.4208 28.018 30.5568C28.2578 30.6928 28.5625 30.6091 28.6987 30.3694L31.7029 25.0775C31.8392 24.8375 31.7543 24.5323 31.5143 24.3961ZM24.7478 29.3888C24.481 29.4603 24.3228 29.7345 24.3942 30.0012C24.4657 30.2679 24.7399 30.4262 25.0066 30.3547C25.2733 30.2833 25.4316 30.0091 25.3602 29.7424C25.2887 29.4756 25.0145 29.3173 24.7478 29.3888ZM24.2301 27.457C23.9634 27.5284 23.8051 27.8026 23.8766 28.0693C23.9481 28.3361 24.2222 28.4944 24.489 28.4229C24.7557 28.3514 24.914 28.0773 24.8425 27.8105C24.771 27.5438 24.4969 27.3855 24.2301 27.457ZM27.2385 24.5803C26.4383 24.7947 25.9634 25.6172 26.1778 26.4174C26.3923 27.2176 27.2148 27.6925 28.015 27.4781C28.8149 27.2635 29.29 26.4411 29.0756 25.641C28.8612 24.8409 28.0386 24.3662 27.2385 24.5803ZM23.7125 25.5251C23.4458 25.5966 23.2875 25.8708 23.3589 26.1375C23.4304 26.4042 23.7046 26.5625 23.9713 26.491C24.2381 26.4196 24.3963 26.1454 24.3249 25.8787C24.2534 25.6119 23.9792 25.4536 23.7125 25.5251Z" fill="#5F5F6A"/>
<path fill-rule="evenodd" clip-rule="evenodd" d="M33.3371 76.8757C34.1373 76.6613 34.9598 77.1361 35.1742 77.9363L35.5743 79.4296C35.6528 79.7233 35.5434 80.0123 35.346 80.1924C34.8104 80.6811 34.5607 81.4422 34.7606 82.1883C34.9604 82.934 35.5569 83.4676 36.2653 83.6231C36.5263 83.6804 36.7655 83.8759 36.8444 84.1696L37.2448 85.6637C37.4592 86.4639 36.9843 87.2865 36.1841 87.5009L22.6611 91.1243C21.8609 91.3387 21.0384 90.8639 20.824 90.0637L20.4237 88.5695C20.3451 88.2758 20.4545 87.9868 20.652 87.8067C21.1852 87.2857 21.4343 86.5457 21.2376 85.8117C21.0377 85.0657 20.4409 84.5314 19.7327 84.376C19.4717 84.3187 19.2325 84.1232 19.1536 83.8295L18.7535 82.3363C18.5391 81.5361 19.0139 80.7136 19.8141 80.4991L33.3371 76.8757Z" fill="#5F5F6A"/>
<path d="M25.2663 87.3207C25.5331 87.2492 25.8072 87.4075 25.8787 87.6742C25.9502 87.941 25.7919 88.2151 25.5252 88.2866C25.2584 88.3581 24.9843 88.1998 24.9128 87.9331C24.8413 87.6663 24.9996 87.3922 25.2663 87.3207ZM31.7703 83.197C32.5705 82.9826 33.393 83.4575 33.6074 84.2577C33.8217 85.0578 33.3469 85.8804 32.5467 86.0948C31.7467 86.3089 30.9241 85.8341 30.7096 85.0341C30.4953 84.2341 30.9703 83.4116 31.7703 83.197ZM30.8345 80.5836C30.9707 80.3439 31.2753 80.2602 31.5152 80.3961C31.7552 80.5323 31.8401 80.8375 31.7038 81.0776L28.6996 86.3694C28.5634 86.6091 28.2588 86.6928 28.0189 86.5569C27.779 86.4208 27.6946 86.1163 27.8305 85.8764L30.8345 80.5836ZM32.0291 84.163C31.7626 84.2346 31.6041 84.5087 31.6756 84.7753C31.7471 85.0418 32.0214 85.2001 32.2879 85.1289C32.5546 85.0574 32.7128 84.7832 32.6415 84.5165C32.57 84.2498 32.2958 84.0915 32.0291 84.163ZM24.7487 85.3888C25.0154 85.3174 25.2896 85.4757 25.3611 85.7424C25.4326 86.0091 25.2743 86.2833 25.0075 86.3548C24.7408 86.4262 24.4666 86.2679 24.3952 86.0012C24.3237 85.7345 24.482 85.4603 24.7487 85.3888ZM24.2311 83.457C24.4978 83.3855 24.772 83.5438 24.8434 83.8105C24.9149 84.0773 24.7566 84.3514 24.4899 84.4229C24.2232 84.4944 23.949 84.3361 23.8775 84.0694C23.806 83.8026 23.9643 83.5285 24.2311 83.457ZM27.2394 80.5803C28.0395 80.3662 28.8622 80.8409 29.0766 81.641C29.2909 82.4411 28.8159 83.2635 28.0159 83.4781C27.2157 83.6925 26.3932 83.2177 26.1788 82.4175C25.9644 81.6173 26.4392 80.7948 27.2394 80.5803ZM27.4983 81.5463C27.2315 81.6177 27.0732 81.8919 27.1447 82.1586C27.2162 82.4254 27.4903 82.5837 27.7571 82.5122C28.0236 82.4406 28.1821 82.1664 28.1106 81.8998C28.0392 81.6332 27.7649 81.475 27.4983 81.5463ZM23.7134 81.5251C23.9802 81.4537 24.2543 81.612 24.3258 81.8787C24.3973 82.1454 24.239 82.4196 23.9723 82.4911C23.7055 82.5625 23.4313 82.4042 23.3599 82.1375C23.2884 81.8708 23.4467 81.5966 23.7134 81.5251Z" fill="#5F5F6A"/>
<path d="M25.8793 143.674C25.9508 143.941 25.7925 144.215 25.5257 144.287C25.259 144.358 24.9848 144.2 24.9134 143.933C24.8419 143.666 25.0002 143.392 25.2669 143.321C25.5336 143.249 25.8078 143.407 25.8793 143.674Z" fill="#5F5F6A"/>
<path fill-rule="evenodd" clip-rule="evenodd" d="M31.7709 139.197C32.5711 138.983 33.3936 139.457 33.608 140.258C33.8222 141.058 33.3474 141.88 32.5473 142.095C31.7473 142.309 30.9247 141.834 30.7102 141.034C30.4958 140.234 30.9709 139.412 31.7709 139.197ZM32.0297 140.163C31.7632 140.235 31.6047 140.509 31.6761 140.775C31.7477 141.042 32.022 141.2 32.2885 141.129C32.5552 141.057 32.7134 140.783 32.6421 140.516C32.5706 140.25 32.2964 140.091 32.0297 140.163Z" fill="#5F5F6A"/>
<path d="M31.5161 136.396C31.7562 136.532 31.8403 136.837 31.7041 137.077L28.7001 142.369C28.5639 142.609 28.2591 142.693 28.0191 142.557C27.7791 142.421 27.6949 142.116 27.8311 141.876L30.8351 136.584C30.9713 136.344 31.2761 136.26 31.5161 136.396Z" fill="#5F5F6A"/>
<path d="M25.3616 141.742C25.4331 142.009 25.2748 142.283 25.0081 142.355C24.7414 142.426 24.4672 142.268 24.3957 142.001C24.3243 141.734 24.4825 141.46 24.7493 141.389C25.016 141.317 25.2902 141.476 25.3616 141.742Z" fill="#5F5F6A"/>
<path d="M24.844 139.811C24.9155 140.077 24.7572 140.351 24.4905 140.423C24.2237 140.494 23.9496 140.336 23.8781 140.069C23.8066 139.803 23.9649 139.528 24.2316 139.457C24.4984 139.386 24.7725 139.544 24.844 139.811Z" fill="#5F5F6A"/>
<path fill-rule="evenodd" clip-rule="evenodd" d="M27.24 136.58C28.0401 136.366 28.8627 136.841 29.0771 137.641C29.2915 138.441 28.8164 139.264 28.0165 139.478C27.2163 139.693 26.3938 139.218 26.1793 138.417C25.9649 137.617 26.4398 136.795 27.24 136.58ZM27.4988 137.546C27.2321 137.618 27.0738 137.892 27.1453 138.159C27.2167 138.425 27.4909 138.584 27.7576 138.512C28.0242 138.441 28.1826 138.166 28.1112 137.9C28.0398 137.633 27.7654 137.475 27.4988 137.546Z" fill="#5F5F6A"/>
<path d="M24.3264 137.879C24.3978 138.145 24.2396 138.42 23.9728 138.491C23.7061 138.563 23.4319 138.404 23.3604 138.137C23.289 137.871 23.4473 137.597 23.714 137.525C23.9807 137.454 24.2549 137.612 24.3264 137.879Z" fill="#5F5F6A"/>
<path fill-rule="evenodd" clip-rule="evenodd" d="M33.2739 132.634C34.2074 132.384 35.167 132.938 35.4172 133.872L35.8173 135.365C35.9223 135.758 35.7756 136.14 35.5162 136.377C35.0466 136.805 34.8288 137.471 35.0036 138.124C35.1782 138.775 35.6996 139.243 36.3207 139.379C36.6638 139.454 36.982 139.712 37.0874 140.105L37.4877 141.599C37.7379 142.533 37.1839 143.492 36.2503 143.742L22.7273 147.366C21.7938 147.616 20.8342 147.062 20.584 146.128L20.1837 144.634C20.0786 144.242 20.2253 143.859 20.4848 143.622L20.5696 143.539C20.98 143.11 21.1614 142.488 20.9976 141.876C20.8229 141.224 20.3011 140.756 19.6803 140.62C19.3372 140.545 19.019 140.287 18.9136 139.894L18.5135 138.401C18.2633 137.467 18.8174 136.508 19.7509 136.258L33.2739 132.634ZM20.1391 137.707C20.0058 137.742 19.9266 137.879 19.9624 138.013L20.2894 139.233C21.3081 139.557 22.1485 140.376 22.4465 141.488C22.7446 142.6 22.425 143.728 21.7054 144.518L22.0329 145.74C22.0687 145.874 22.2057 145.953 22.3391 145.917L35.8621 142.293C35.9954 142.258 36.0746 142.121 36.0388 141.987L35.7113 140.765C34.6933 140.441 33.8527 139.624 33.5547 138.512C33.2567 137.4 33.5751 136.27 34.2954 135.48L33.9683 134.26L33.9504 134.212C33.8983 134.108 33.7787 134.052 33.6621 134.083L20.1391 137.707Z" fill="#5F5F6A"/>
<path d="M25.8778 199.674C25.9493 199.941 25.791 200.215 25.5242 200.287C25.2575 200.358 24.9833 200.2 24.9119 199.933C24.8404 199.666 24.9987 199.392 25.2654 199.321C25.5321 199.249 25.8063 199.407 25.8778 199.674Z" fill="#5F5F6A"/>
<path fill-rule="evenodd" clip-rule="evenodd" d="M31.7694 195.197C32.5696 194.983 33.3921 195.457 33.6065 196.258C33.8207 197.058 33.3459 197.88 32.5458 198.095C31.7458 198.309 30.9232 197.834 30.7087 197.034C30.4943 196.234 30.9694 195.412 31.7694 195.197ZM32.0282 196.163C31.7617 196.235 31.6032 196.509 31.6746 196.775C31.7462 197.042 32.0205 197.2 32.287 197.129C32.5537 197.057 32.7119 196.783 32.6406 196.516C32.5691 196.25 32.2949 196.091 32.0282 196.163Z" fill="#5F5F6A"/>
<path d="M31.5146 192.396C31.7547 192.532 31.8388 192.837 31.7026 193.077L28.6986 198.369C28.5624 198.609 28.2576 198.693 28.0176 198.557C27.7776 198.421 27.6934 198.116 27.8296 197.876L30.8336 192.584C30.9698 192.344 31.2746 192.26 31.5146 192.396Z" fill="#5F5F6A"/>
<path d="M25.3602 197.742C25.4316 198.009 25.2733 198.283 25.0066 198.355C24.7399 198.426 24.4657 198.268 24.3942 198.001C24.3228 197.734 24.481 197.46 24.7478 197.389C25.0145 197.317 25.2887 197.476 25.3602 197.742Z" fill="#5F5F6A"/>
<path d="M24.8425 195.811C24.914 196.077 24.7557 196.351 24.489 196.423C24.2222 196.494 23.9481 196.336 23.8766 196.069C23.8051 195.803 23.9634 195.528 24.2301 195.457C24.4969 195.386 24.771 195.544 24.8425 195.811Z" fill="#5F5F6A"/>
<path fill-rule="evenodd" clip-rule="evenodd" d="M27.2385 192.58C28.0386 192.366 28.8612 192.841 29.0756 193.641C29.29 194.441 28.8149 195.264 28.015 195.478C27.2148 195.693 26.3923 195.218 26.1778 194.417C25.9634 193.617 26.4383 192.795 27.2385 192.58ZM27.4973 193.546C27.2306 193.618 27.0723 193.892 27.1438 194.159C27.2152 194.425 27.4894 194.584 27.7561 194.512C28.0227 194.441 28.1811 194.166 28.1097 193.9C28.0383 193.633 27.7639 193.475 27.4973 193.546Z" fill="#5F5F6A"/>
<path d="M24.3249 193.879C24.3963 194.145 24.2381 194.42 23.9713 194.491C23.7046 194.563 23.4304 194.404 23.3589 194.137C23.2875 193.871 23.4458 193.597 23.7125 193.525C23.9792 193.454 24.2534 193.612 24.3249 193.879Z" fill="#5F5F6A"/>
<path fill-rule="evenodd" clip-rule="evenodd" d="M33.3371 188.876C34.1373 188.661 34.9598 189.136 35.1742 189.936L35.5743 191.43C35.6528 191.723 35.5434 192.012 35.346 192.192C34.8104 192.681 34.5607 193.442 34.7606 194.188C34.9604 194.934 35.5569 195.468 36.2653 195.623C36.5263 195.68 36.7655 195.876 36.8444 196.17L37.2448 197.664C37.4592 198.464 36.9843 199.286 36.1841 199.501L22.6611 203.124C21.8609 203.339 21.0384 202.864 20.824 202.064L20.4237 200.569C20.3451 200.276 20.4545 199.987 20.652 199.807L20.7489 199.712C21.2171 199.223 21.425 198.511 21.2376 197.812C21.0377 197.066 20.4409 196.531 19.7327 196.376C19.4717 196.319 19.2325 196.123 19.1536 195.829L18.7535 194.336C18.5391 193.536 19.0139 192.714 19.8141 192.499L33.3371 188.876ZM20.0729 193.465C19.8062 193.537 19.6479 193.811 19.7194 194.077L20.0826 195.433C21.0814 195.702 21.916 196.48 22.2036 197.553C22.4911 198.626 22.1564 199.716 21.4262 200.447L21.7899 201.805C21.8614 202.072 22.1356 202.23 22.4023 202.158L35.9253 198.535C36.192 198.463 36.3503 198.189 36.2788 197.923L35.9151 196.565C34.9169 196.297 34.0822 195.52 33.7947 194.447C33.5071 193.374 33.8408 192.283 34.5715 191.551L34.2083 190.195L34.1728 190.101C34.0689 189.892 33.8294 189.779 33.5959 189.842L20.0729 193.465Z" fill="#5F5F6A"/>
</svg>
