<svg width="56" height="224" viewBox="0 0 56 224" fill="none" xmlns="http://www.w3.org/2000/svg">
<path d="M23.1615 20.5H32.8385C33.3657 20.5 33.8205 20.5 34.195 20.5306C34.5904 20.5629 34.9836 20.6342 35.362 20.827C35.9265 21.1146 36.3854 21.5735 36.673 22.138C36.8658 22.5164 36.9371 22.9096 36.9694 23.305C37 23.6795 37 24.1343 37 24.6614V31.3386C37 31.8657 37 32.3205 36.9694 32.695C36.9371 33.0904 36.8658 33.4836 36.673 33.862C36.3854 34.4265 35.9265 34.8854 35.362 35.173C34.9836 35.3658 34.5904 35.4371 34.195 35.4694C33.8205 35.5 33.3657 35.5 32.8385 35.5H23.1615C22.6343 35.5 22.1796 35.5 21.805 35.4694C21.4096 35.4371 21.0164 35.3658 20.638 35.173C20.0735 34.8854 19.6146 34.4265 19.327 33.862C19.1342 33.4836 19.0629 33.0904 19.0306 32.695C19 32.3205 19 31.8657 19 31.3385V24.6615C19 24.1343 19 23.6795 19.0306 23.305C19.0629 22.9096 19.1342 22.5164 19.327 22.138C19.6146 21.5735 20.0735 21.1146 20.638 20.827C21.0164 20.6342 21.4096 20.5629 21.805 20.5306C22.1795 20.5 22.6343 20.5 23.1615 20.5ZM21 26.5V31.3C21 31.8766 21.0008 32.2488 21.0239 32.5322C21.0461 32.8038 21.0838 32.9045 21.109 32.954C21.2049 33.1422 21.3578 33.2951 21.546 33.391C21.5955 33.4162 21.6962 33.4539 21.9678 33.4761C22.2512 33.4992 22.6234 33.5 23.2 33.5H32.8C33.3766 33.5 33.7488 33.4992 34.0322 33.4761C34.3038 33.4539 34.4045 33.4162 34.454 33.391C34.6422 33.2951 34.7951 33.1422 34.891 32.954C34.9162 32.9045 34.9539 32.8038 34.9761 32.5322C34.9992 32.2488 35 31.8766 35 31.3V26.5H21ZM34.9999 24.5C34.9995 24.0349 34.9964 23.717 34.9761 23.4678C34.9539 23.1962 34.9162 23.0955 34.891 23.046C34.7951 22.8578 34.6422 22.7049 34.454 22.609C34.4045 22.5838 34.3038 22.5461 34.0322 22.5239C33.7488 22.5008 33.3766 22.5 32.8 22.5H23.2C22.6234 22.5 22.2512 22.5008 21.9678 22.5239C21.6962 22.5461 21.5955 22.5838 21.546 22.609C21.3578 22.7049 21.2049 22.8578 21.109 23.046C21.0838 23.0955 21.0461 23.1962 21.0239 23.4678C21.0036 23.717 21.0005 24.0349 21.0001 24.5H34.9999ZM29 30.5C29 29.9477 29.4477 29.5 30 29.5H33C33.5523 29.5 34 29.9477 34 30.5C34 31.0523 33.5523 31.5 33 31.5H30C29.4477 31.5 29 31.0523 29 30.5Z" fill="#5F5F6A"/>
<path opacity="0.5" fill-rule="evenodd" clip-rule="evenodd" d="M29 86.5C29 85.9477 29.4477 85.5 30 85.5L33 85.5C33.5523 85.5 34 85.9477 34 86.5C34 87.0523 33.5523 87.5 33 87.5L30 87.5C29.4477 87.5 29 87.0523 29 86.5Z" fill="#5F5F6A"/>
<path d="M32.8304 76.75H23.1696C22.6354 76.75 22.1896 76.75 21.8253 76.7797C21.4454 76.8108 21.0888 76.8779 20.7515 77.0497C20.2341 77.3134 19.8134 77.7341 19.5497 78.2515C19.3779 78.5888 19.3108 78.9454 19.2797 79.3253C19.25 79.6896 19.25 80.1354 19.25 80.6696V87.3304C19.25 87.8646 19.25 88.3104 19.2797 88.6747C19.3108 89.0546 19.3779 89.4112 19.5497 89.7485C19.8134 90.2659 20.2341 90.6866 20.7515 90.9503C21.0888 91.1221 21.4454 91.1892 21.8253 91.2203C22.1896 91.25 22.6354 91.25 23.1695 91.25H32.8305C33.3646 91.25 33.8105 91.25 34.1747 91.2203C34.5546 91.1892 34.9112 91.1221 35.2485 90.9503C35.7659 90.6866 36.1866 90.2659 36.4503 89.7485C36.6221 89.4112 36.6892 89.0546 36.7203 88.6747C36.75 88.3104 36.75 87.8646 36.75 87.3305V80.6695C36.75 80.1354 36.75 79.6896 36.7203 79.3253C36.6892 78.9454 36.6221 78.5888 36.4503 78.2515C36.1866 77.7341 35.7659 77.3134 35.2485 77.0497C34.9112 76.8779 34.5546 76.8108 34.1747 76.7797C33.8104 76.75 33.3646 76.75 32.8304 76.75ZM21.4325 78.3862C21.5231 78.3401 21.6604 78.2982 21.9475 78.2748C22.2434 78.2506 22.6276 78.25 23.2 78.25H32.8C33.3724 78.25 33.7566 78.2506 34.0525 78.2748C34.3396 78.2982 34.4769 78.3401 34.5675 78.3862C34.8027 78.5061 34.9939 78.6973 35.1138 78.9325C35.1599 79.0231 35.2018 79.1604 35.2252 79.4475C35.2465 79.7075 35.2495 80.0357 35.2499 80.5H20.7501C20.7505 80.0357 20.7535 79.7075 20.7748 79.4475C20.7982 79.1604 20.8401 79.0231 20.8862 78.9325C21.0061 78.6973 21.1973 78.5061 21.4325 78.3862ZM20.75 82.5H35.25V87.3C35.25 87.8724 35.2494 88.2566 35.2252 88.5525C35.2018 88.8396 35.1599 88.9769 35.1138 89.0675C34.9939 89.3027 34.8027 89.4939 34.5675 89.6138C34.4769 89.6599 34.3396 89.7018 34.0525 89.7252C33.7566 89.7494 33.3724 89.75 32.8 89.75H23.2C22.6276 89.75 22.2434 89.7494 21.9475 89.7252C21.6604 89.7018 21.5231 89.6599 21.4325 89.6138C21.1973 89.4939 21.0061 89.3027 20.8862 89.0675C20.8401 88.9769 20.7982 88.8396 20.7748 88.5525C20.7506 88.2566 20.75 87.8724 20.75 87.3V82.5Z" fill="#5F5F6A"/>
<path d="M29 142.5C29 141.948 29.4477 141.5 30 141.5H33C33.5523 141.5 34 141.948 34 142.5C34 143.052 33.5523 143.5 33 143.5H30C29.4477 143.5 29 143.052 29 142.5Z" fill="#5F5F6A"/>
<path d="M32.8304 132.75H23.1696C22.6354 132.75 22.1896 132.75 21.8253 132.78C21.4454 132.811 21.0888 132.878 20.7515 133.05C20.2341 133.313 19.8134 133.734 19.5497 134.252C19.3779 134.589 19.3108 134.945 19.2797 135.325C19.25 135.69 19.25 136.135 19.25 136.67V143.33C19.25 143.865 19.25 144.31 19.2797 144.675C19.3108 145.055 19.3779 145.411 19.5497 145.748C19.8134 146.266 20.2341 146.687 20.7515 146.95C21.0888 147.122 21.4454 147.189 21.8253 147.22C22.1896 147.25 22.6354 147.25 23.1695 147.25H32.8305C33.3646 147.25 33.8105 147.25 34.1747 147.22C34.5546 147.189 34.9112 147.122 35.2485 146.95C35.7659 146.687 36.1866 146.266 36.4503 145.748C36.6221 145.411 36.6892 145.055 36.7203 144.675C36.75 144.31 36.75 143.865 36.75 143.33V136.67C36.75 136.135 36.75 135.69 36.7203 135.325C36.6892 134.945 36.6221 134.589 36.4503 134.252C36.1866 133.734 35.7659 133.313 35.2485 133.05C34.9112 132.878 34.5546 132.811 34.1747 132.78C33.8104 132.75 33.3646 132.75 32.8304 132.75ZM21.4325 134.386C21.5231 134.34 21.6604 134.298 21.9475 134.275C22.2434 134.251 22.6276 134.25 23.2 134.25H32.8C33.3724 134.25 33.7566 134.251 34.0525 134.275C34.3396 134.298 34.4769 134.34 34.5675 134.386C34.8027 134.506 34.9939 134.697 35.1138 134.933C35.1599 135.023 35.2018 135.16 35.2252 135.447C35.2465 135.708 35.2495 136.036 35.2499 136.5H20.7501C20.7505 136.036 20.7535 135.708 20.7748 135.447C20.7982 135.16 20.8401 135.023 20.8862 134.933C21.0061 134.697 21.1973 134.506 21.4325 134.386ZM20.75 138.5H35.25V143.3C35.25 143.872 35.2494 144.257 35.2252 144.553C35.2018 144.84 35.1599 144.977 35.1138 145.067C34.9939 145.303 34.8027 145.494 34.5675 145.614C34.4769 145.66 34.3396 145.702 34.0525 145.725C33.7566 145.749 33.3724 145.75 32.8 145.75H23.2C22.6276 145.75 22.2434 145.749 21.9475 145.725C21.6604 145.702 21.5231 145.66 21.4325 145.614C21.1973 145.494 21.0061 145.303 20.8862 145.067C20.8401 144.977 20.7982 144.84 20.7748 144.553C20.7506 144.257 20.75 143.872 20.75 143.3V138.5Z" fill="#5F5F6A"/>
<path d="M29 198.5C29 197.948 29.4477 197.5 30 197.5H33C33.5523 197.5 34 197.948 34 198.5C34 199.052 33.5523 199.5 33 199.5H30C29.4477 199.5 29 199.052 29 198.5Z" fill="#5F5F6A"/>
<path d="M32.8214 189H23.1786C22.6367 189 22.1996 189 21.8457 189.029C21.4813 189.059 21.1612 189.122 20.865 189.272C20.3946 189.512 20.0122 189.895 19.7725 190.365C19.6216 190.661 19.5587 190.981 19.5289 191.346C19.5032 191.66 19.5004 192.04 19.5 192.5L19.5 192.642C19.5 192.654 19.5 192.666 19.5 192.679V199.321C19.5 199.863 19.5 200.3 19.5289 200.654C19.5587 201.019 19.6216 201.339 19.7725 201.635C20.0122 202.105 20.3946 202.488 20.865 202.728C21.1612 202.878 21.4813 202.941 21.8457 202.971C22.1996 203 22.6367 203 23.1785 203H32.8214C33.3633 203 33.8004 203 34.1543 202.971C34.5187 202.941 34.8388 202.878 35.135 202.728C35.6054 202.488 35.9878 202.105 36.2275 201.635C36.3784 201.339 36.4413 201.019 36.4711 200.654C36.5 200.3 36.5 199.863 36.5 199.321V192.679C36.5 192.665 36.5 192.652 36.5 192.639V192.5C36.4997 192.04 36.4968 191.66 36.4711 191.346C36.4413 190.981 36.3784 190.661 36.2275 190.365C35.9878 189.895 35.6054 189.512 35.135 189.272C34.8388 189.122 34.5187 189.059 34.1543 189.029C33.8004 189 33.3633 189 32.8214 189ZM35.4999 192.5H20.5001C20.5005 192.037 20.5035 191.698 20.5256 191.427C20.5503 191.125 20.5964 190.951 20.6635 190.819C20.8073 190.537 21.0368 190.307 21.319 190.163C21.4507 190.096 21.6245 190.05 21.9271 190.026C22.2355 190 22.6317 190 23.2 190H32.8C33.3683 190 33.7645 190 34.0729 190.026C34.3755 190.05 34.5493 190.096 34.681 190.163C34.9632 190.307 35.1927 190.537 35.3365 190.819C35.4036 190.951 35.4497 191.125 35.4744 191.427C35.4965 191.698 35.4995 192.037 35.4999 192.5ZM20.5 194.5H35.5V199.3C35.5 199.868 35.4996 200.264 35.4744 200.573C35.4497 200.875 35.4036 201.049 35.3365 201.181C35.1927 201.463 34.9632 201.693 34.681 201.837C34.5493 201.904 34.3755 201.95 34.0729 201.974C33.7645 202 33.3683 202 32.8 202H23.2C22.6317 202 22.2355 202 21.9271 201.974C21.6245 201.95 21.4507 201.904 21.319 201.837C21.0368 201.693 20.8073 201.463 20.6635 201.181C20.5964 201.049 20.5503 200.875 20.5256 200.573C20.5004 200.264 20.5 199.868 20.5 199.3V194.5Z" fill="#5F5F6A"/>
</svg>
