<svg width="56" height="224" viewBox="0 0 56 224" fill="none" xmlns="http://www.w3.org/2000/svg">
<path fill-rule="evenodd" clip-rule="evenodd" d="M19.75 28.25C19.75 25.9028 21.6528 24 24 24C25.8419 24 27.4102 25.1717 28 26.8104C28.5899 25.1717 30.1581 24 32 24C34.3472 24 36.25 25.9028 36.25 28.25C36.25 30.5972 34.3472 32.5 32 32.5C30.1581 32.5 28.5899 31.3283 28 29.6896C27.4102 31.3283 25.8419 32.5 24 32.5C21.6528 32.5 19.75 30.5972 19.75 28.25ZM24 26C22.7574 26 21.75 27.0074 21.75 28.25C21.75 29.4926 22.7574 30.5 24 30.5C25.2426 30.5 26.25 29.4926 26.25 28.25C26.25 27.0074 25.2426 26 24 26Z" fill="#5F5F6A"/>
<path opacity="0.5" d="M35.25 84.25C35.25 86.0449 33.7949 87.5 32 87.5C30.2051 87.5 28.75 86.0449 28.75 84.25C28.75 82.4551 30.2051 81 32 81C33.7949 81 35.25 82.4551 35.25 84.25Z" fill="#5F5F6A"/>
<path fill-rule="evenodd" clip-rule="evenodd" d="M24 80.25C21.7909 80.25 20 82.0409 20 84.25C20 86.4591 21.7909 88.25 24 88.25C26.2091 88.25 28 86.4591 28 84.25C28 86.4591 29.7909 88.25 32 88.25C34.2091 88.25 36 86.4591 36 84.25C36 82.0409 34.2091 80.25 32 80.25C29.7909 80.25 28 82.0409 28 84.25C28 82.0409 26.2091 80.25 24 80.25ZM21.5 84.25C21.5 82.8693 22.6193 81.75 24 81.75C25.3807 81.75 26.5 82.8693 26.5 84.25C26.5 85.6307 25.3807 86.75 24 86.75C22.6193 86.75 21.5 85.6307 21.5 84.25ZM29.5 84.25C29.5 82.8693 30.6193 81.75 32 81.75C33.3807 81.75 34.5 82.8693 34.5 84.25C34.5 85.6307 33.3807 86.75 32 86.75C30.6193 86.75 29.5 85.6307 29.5 84.25Z" fill="#5F5F6A"/>
<path fill-rule="evenodd" clip-rule="evenodd" d="M20 140.25C20 138.041 21.7909 136.25 24 136.25C26.2091 136.25 28 138.041 28 140.25C28 142.459 26.2091 144.25 24 144.25C21.7909 144.25 20 142.459 20 140.25ZM24 137.75C22.6193 137.75 21.5 138.869 21.5 140.25C21.5 141.631 22.6193 142.75 24 142.75C25.3807 142.75 26.5 141.631 26.5 140.25C26.5 138.869 25.3807 137.75 24 137.75Z" fill="#5F5F6A"/>
<path d="M28 140.25C28 138.041 29.7909 136.25 32 136.25C34.2091 136.25 36 138.041 36 140.25C36 142.459 34.2091 144.25 32 144.25C29.7909 144.25 28 142.459 28 140.25Z" fill="#5F5F6A"/>
<path fill-rule="evenodd" clip-rule="evenodd" d="M20.25 196.25C20.25 194.179 21.9289 192.5 24 192.5C26.0711 192.5 27.75 194.179 27.75 196.25C27.75 198.321 26.0711 200 24 200C21.9289 200 20.25 198.321 20.25 196.25ZM24 193.5C22.4812 193.5 21.25 194.731 21.25 196.25C21.25 197.769 22.4812 199 24 199C25.5188 199 26.75 197.769 26.75 196.25C26.75 194.731 25.5188 193.5 24 193.5Z" fill="#5F5F6A"/>
<path d="M32 192.5C29.9289 192.5 28.25 194.179 28.25 196.25C28.25 198.321 29.9289 200 32 200C34.0711 200 35.75 198.321 35.75 196.25C35.75 194.179 34.0711 192.5 32 192.5Z" fill="#5F5F6A"/>
</svg>
