<svg width="56" height="224" viewBox="0 0 56 224" fill="none" xmlns="http://www.w3.org/2000/svg">
<path fill-rule="evenodd" clip-rule="evenodd" d="M22.8145 23.1047C22.9846 22.5943 23.4623 22.25 24.0003 22.25H24.7503C25.2884 22.25 25.7661 22.5943 25.9362 23.1047L28.9362 32.1047C29.1545 32.7596 28.8006 33.4675 28.1456 33.6859C27.4907 33.9042 26.7828 33.5502 26.5645 32.8953L26.0994 31.5H22.6513L22.1862 32.8953C21.9679 33.5502 21.26 33.9042 20.6051 33.6859C19.9501 33.4675 19.5962 32.7596 19.8145 32.1047L22.8145 23.1047ZM23.4846 29H25.2661L24.3753 26.3278L23.4846 29ZM32.3753 27.75C31.7675 27.75 31.0003 28.3715 31.0003 29.5C31.0003 30.6285 31.7675 31.25 32.3753 31.25C32.9832 31.25 33.7503 30.6285 33.7503 29.5C33.7503 28.3715 32.9832 27.75 32.3753 27.75ZM34.0677 25.6677C33.5675 25.4022 32.9975 25.25 32.3753 25.25C30.0837 25.25 28.5003 27.3148 28.5003 29.5C28.5003 31.6852 30.0837 33.75 32.3753 33.75C32.9975 33.75 33.5675 33.5978 34.0677 33.3323C34.2966 33.5886 34.6296 33.75 35.0003 33.75C35.6907 33.75 36.2503 33.1904 36.2503 32.5V26.5C36.2503 25.8096 35.6907 25.25 35.0003 25.25C34.6296 25.25 34.2966 25.4114 34.0677 25.6677Z" fill="#5F5F6A"/>
<path fill-rule="evenodd" clip-rule="evenodd" d="M24.0003 78.5C23.5698 78.5 23.1877 78.7754 23.0516 79.1838L20.0516 88.1838C19.8769 88.7077 20.1601 89.274 20.684 89.4487C21.208 89.6233 21.7743 89.3402 21.949 88.8162L22.471 87.25H26.2795L26.8016 88.8162C26.9762 89.3402 27.5426 89.6233 28.0665 89.4487C28.5904 89.274 28.8736 88.7077 28.699 88.1838L25.699 79.1838C25.5628 78.7754 25.1807 78.5 24.7503 78.5H24.0003ZM24.3753 81.5373L25.6128 85.25H23.1377L24.3753 81.5373Z" fill="#5F5F6A"/>
<path fill-rule="evenodd" clip-rule="evenodd" d="M32.3753 81.5C33.03 81.5 33.6256 81.6826 34.1363 81.9961C34.3097 81.6994 34.6317 81.5 35.0003 81.5C35.5526 81.5 36.0003 81.9477 36.0003 82.5V88.5C36.0003 89.0523 35.5526 89.5 35.0003 89.5C34.6317 89.5 34.3097 89.3006 34.1363 89.0039C33.6256 89.3174 33.03 89.5 32.3753 89.5C30.252 89.5 28.7503 87.5795 28.7503 85.5C28.7503 83.4205 30.252 81.5 32.3753 81.5ZM30.7503 85.5C30.7503 84.2658 31.5991 83.5 32.3753 83.5C33.1515 83.5 34.0003 84.2658 34.0003 85.5C34.0003 86.7342 33.1515 87.5 32.3753 87.5C31.5991 87.5 30.7503 86.7342 30.7503 85.5Z" fill="#5F5F6A"/>
<path fill-rule="evenodd" clip-rule="evenodd" d="M24.0002 134.75C23.6774 134.75 23.3908 134.957 23.2887 135.263L20.2887 144.263C20.1577 144.656 20.3701 145.081 20.763 145.212C21.156 145.342 21.5807 145.13 21.7117 144.737L22.2908 143H26.4596L27.0387 144.737C27.1697 145.13 27.5944 145.342 27.9874 145.212C28.3803 145.081 28.5927 144.656 28.4617 144.263L25.4617 135.263C25.3596 134.957 25.073 134.75 24.7502 134.75H24.0002ZM25.9596 141.5H22.7908L24.3752 136.747L25.9596 141.5Z" fill="#5F5F6A"/>
<path fill-rule="evenodd" clip-rule="evenodd" d="M32.3752 137.75C33.0888 137.75 33.7312 137.987 34.2592 138.383C34.3153 138.025 34.6257 137.75 35.0002 137.75C35.4144 137.75 35.7502 138.086 35.7502 138.5V144.5C35.7502 144.914 35.4144 145.25 35.0002 145.25C34.6257 145.25 34.3153 144.976 34.2592 144.617C33.7312 145.013 33.0888 145.25 32.3752 145.25C30.4203 145.25 29.0002 143.474 29.0002 141.5C29.0002 139.526 30.4203 137.75 32.3752 137.75ZM30.5002 141.5C30.5002 140.16 31.4306 139.25 32.3752 139.25C33.3198 139.25 34.2502 140.16 34.2502 141.5C34.2502 142.84 33.3198 143.75 32.3752 143.75C31.4306 143.75 30.5002 142.84 30.5002 141.5Z" fill="#5F5F6A"/>
<path fill-rule="evenodd" clip-rule="evenodd" d="M23.5258 191.342C23.5939 191.138 23.7849 191 24.0001 191H24.7501C24.9654 191 25.1564 191.138 25.2245 191.342L28.2245 200.342C28.3118 200.604 28.1702 200.887 27.9082 200.974C27.6463 201.062 27.3631 200.92 27.2758 200.658L26.6398 198.75H22.1105L21.4745 200.658C21.3872 200.92 21.104 201.062 20.842 200.974C20.5801 200.887 20.4385 200.604 20.5258 200.342L23.5258 191.342ZM22.4438 197.75H26.3064L24.3898 192H24.3605L22.4438 197.75Z" fill="#5F5F6A"/>
<path fill-rule="evenodd" clip-rule="evenodd" d="M32.3751 195C31.2622 195 30.2501 196.054 30.2501 197.5C30.2501 198.946 31.2622 200 32.3751 200C33.4881 200 34.5001 198.946 34.5001 197.5C34.5001 196.054 33.4881 195 32.3751 195ZM34.5001 194.932C33.9513 194.358 33.2124 194 32.3751 194C30.5886 194 29.2501 195.632 29.2501 197.5C29.2501 199.368 30.5886 201 32.3751 201C33.2124 201 33.9513 200.642 34.5001 200.068V200.5C34.5001 200.776 34.724 201 35.0001 201C35.2763 201 35.5001 200.776 35.5001 200.5V194.5C35.5001 194.224 35.2763 194 35.0001 194C34.724 194 34.5001 194.224 34.5001 194.5V194.932Z" fill="#5F5F6A"/>
</svg>
