<svg width="56" height="224" viewBox="0 0 56 224" fill="none" xmlns="http://www.w3.org/2000/svg">
<path fill-rule="evenodd" clip-rule="evenodd" d="M18.4297 24.25C18.4297 23.6977 18.8774 23.25 19.4297 23.25H20.3821C21.4454 23.25 22.3344 24.1027 22.3344 25.1875V31.75C22.3344 32.3023 21.8867 32.75 21.3344 32.75C20.7822 32.75 20.3344 32.3023 20.3344 31.75V25.25H19.4297C18.8774 25.25 18.4297 24.8023 18.4297 24.25ZM24.144 24.25C24.144 23.6977 24.5917 23.25 25.144 23.25H28.0011C29.0645 23.25 29.9535 24.1027 29.9535 25.1875V27.0625C29.9535 28.1473 29.0645 29 28.0011 29H26.144V30.75H28.9535C29.5058 30.75 29.9535 31.1977 29.9535 31.75C29.9535 32.3023 29.5058 32.75 28.9535 32.75H26.0964C25.033 32.75 24.144 31.8973 24.144 30.8125V28.9375C24.144 27.8527 25.033 27 26.0964 27H27.9535V25.25H25.144C24.5917 25.25 24.144 24.8023 24.144 24.25ZM31.763 24.25C31.763 23.6977 32.2107 23.25 32.763 23.25H35.6202C36.6835 23.25 37.5725 24.1027 37.5725 25.1875V30.8125C37.5725 31.8973 36.6835 32.75 35.6202 32.75H32.763C32.2107 32.75 31.763 32.3023 31.763 31.75C31.763 31.1977 32.2107 30.75 32.763 30.75H35.5725V29H32.763C32.2107 29 31.763 28.5523 31.763 28C31.763 27.4477 32.2107 27 32.763 27H35.5725V25.25H32.763C32.2107 25.25 31.763 24.8023 31.763 24.25Z" fill="#5F5F6A"/>
<path fill-rule="evenodd" clip-rule="evenodd" d="M18.4297 80.25C18.4297 79.6977 18.8774 79.25 19.4297 79.25H20.3821C21.4454 79.25 22.3344 80.1027 22.3344 81.1875V87.75C22.3344 88.3023 21.8867 88.75 21.3344 88.75C20.7822 88.75 20.3344 88.3023 20.3344 87.75V81.25H19.4297C18.8774 81.25 18.4297 80.8023 18.4297 80.25ZM24.144 80.25C24.144 79.6977 24.5917 79.25 25.144 79.25H28.0011C29.0645 79.25 29.9535 80.1027 29.9535 81.1875V83.0625C29.9535 84.1473 29.0645 85 28.0011 85H26.144V86.75H28.9535C29.5058 86.75 29.9535 87.1977 29.9535 87.75C29.9535 88.3023 29.5058 88.75 28.9535 88.75H26.0964C25.033 88.75 24.144 87.8973 24.144 86.8125V84.9375C24.144 83.8527 25.033 83 26.0964 83H27.9535V81.25H25.144C24.5917 81.25 24.144 80.8023 24.144 80.25ZM31.763 80.25C31.763 79.6977 32.2107 79.25 32.763 79.25H35.6202C36.6835 79.25 37.5725 80.1027 37.5725 81.1875V86.8125C37.5725 87.8973 36.6835 88.75 35.6202 88.75H32.763C32.2107 88.75 31.763 88.3023 31.763 87.75C31.763 87.1977 32.2107 86.75 32.763 86.75H35.5725V85H32.763C32.2107 85 31.763 84.5523 31.763 84C31.763 83.4477 32.2107 83 32.763 83H35.5725V81.25H32.763C32.2107 81.25 31.763 80.8023 31.763 80.25Z" fill="#5F5F6A"/>
<path fill-rule="evenodd" clip-rule="evenodd" d="M18.6797 136.25C18.6797 135.836 19.0155 135.5 19.4297 135.5H20.3821C21.3111 135.5 22.0844 136.244 22.0844 137.188V143.75C22.0844 144.164 21.7487 144.5 21.3344 144.5C20.9202 144.5 20.5844 144.164 20.5844 143.75V137.188C20.5844 137.095 20.505 137 20.3821 137H19.4297C19.0155 137 18.6797 136.664 18.6797 136.25ZM24.394 136.25C24.394 135.836 24.7298 135.5 25.144 135.5H28.0011C28.9301 135.5 29.7035 136.244 29.7035 137.188V139.062C29.7035 140.006 28.9301 140.75 28.0011 140.75H26.0964C25.9734 140.75 25.894 140.845 25.894 140.938V142.812C25.894 142.905 25.9734 143 26.0964 143H28.9535C29.3677 143 29.7035 143.336 29.7035 143.75C29.7035 144.164 29.3677 144.5 28.9535 144.5H26.0964C25.1673 144.5 24.394 143.756 24.394 142.812V140.938C24.394 139.994 25.1673 139.25 26.0964 139.25H28.0011C28.1241 139.25 28.2035 139.155 28.2035 139.062V137.188C28.2035 137.095 28.1241 137 28.0011 137H25.144C24.7298 137 24.394 136.664 24.394 136.25ZM32.013 136.25C32.013 135.836 32.3488 135.5 32.763 135.5H35.6202C36.5492 135.5 37.3225 136.244 37.3225 137.188V142.812C37.3225 143.756 36.5492 144.5 35.6202 144.5H32.763C32.3488 144.5 32.013 144.164 32.013 143.75C32.013 143.336 32.3488 143 32.763 143H35.6202C35.7431 143 35.8225 142.905 35.8225 142.812V140.75H32.763C32.3488 140.75 32.013 140.414 32.013 140C32.013 139.586 32.3488 139.25 32.763 139.25H35.8225V137.188C35.8225 137.095 35.7431 137 35.6202 137H32.763C32.3488 137 32.013 136.664 32.013 136.25Z" fill="#5F5F6A"/>
<path fill-rule="evenodd" clip-rule="evenodd" d="M18.9297 192.25C18.9297 191.974 19.1535 191.75 19.4297 191.75H20.3821C21.1767 191.75 21.8344 192.386 21.8344 193.188V199.75C21.8344 200.026 21.6106 200.25 21.3344 200.25C21.0583 200.25 20.8344 200.026 20.8344 199.75V193.188C20.8344 192.953 20.6394 192.75 20.3821 192.75H19.4297C19.1535 192.75 18.9297 192.526 18.9297 192.25ZM24.644 192.25C24.644 191.974 24.8678 191.75 25.144 191.75H28.0011C28.7958 191.75 29.4535 192.386 29.4535 193.188V195.062C29.4535 195.864 28.7958 196.5 28.0011 196.5H26.0964C25.8391 196.5 25.644 196.703 25.644 196.938V198.812C25.644 199.047 25.8391 199.25 26.0964 199.25H28.9535C29.2296 199.25 29.4535 199.474 29.4535 199.75C29.4535 200.026 29.2296 200.25 28.9535 200.25H26.0964C25.3017 200.25 24.644 199.614 24.644 198.812V196.938C24.644 196.136 25.3017 195.5 26.0964 195.5H28.0011C28.2584 195.5 28.4535 195.297 28.4535 195.062V193.188C28.4535 192.953 28.2584 192.75 28.0011 192.75H25.144C24.8678 192.75 24.644 192.526 24.644 192.25ZM32.263 192.25C32.263 191.974 32.4869 191.75 32.763 191.75H35.6202C36.4148 191.75 37.0725 192.386 37.0725 193.188V198.812C37.0725 199.614 36.4148 200.25 35.6202 200.25H32.763C32.4869 200.25 32.263 200.026 32.263 199.75C32.263 199.474 32.4869 199.25 32.763 199.25H35.6202C35.8775 199.25 36.0725 199.047 36.0725 198.812V196.5H32.763C32.4869 196.5 32.263 196.276 32.263 196C32.263 195.724 32.4869 195.5 32.763 195.5H36.0725V193.188C36.0725 192.953 35.8775 192.75 35.6202 192.75H32.763C32.4869 192.75 32.263 192.526 32.263 192.25Z" fill="#5F5F6A"/>
</svg>
