<svg width="56" height="224" viewBox="0 0 56 224" fill="none" xmlns="http://www.w3.org/2000/svg">
<path d="M32.8305 18.75C33.3646 18.75 33.8104 18.75 34.1747 18.7797C34.5546 18.8108 34.9112 18.8779 35.2485 19.0497C35.7659 19.3134 36.1866 19.7341 36.4503 20.2515C36.6221 20.5888 36.6892 20.9454 36.7203 21.3253C36.7482 21.6668 36.7499 22.08 36.75 22.5704L36.75 29C36.75 29.0259 36.7487 29.0515 36.7461 29.0768C36.7423 29.2964 36.7349 29.4954 36.7203 29.6747C36.6892 30.0546 36.6221 30.4112 36.4503 30.7485C36.1866 31.2659 35.7659 31.6866 35.2485 31.9503C34.9112 32.1221 34.5546 32.1892 34.1747 32.2203C33.8105 32.25 33.3646 32.25 32.8305 32.25H29.5816C29.3007 32.8412 28.6981 33.25 28 33.25C27.3019 33.25 26.6993 32.8412 26.4184 32.25H23.1695C22.6354 32.25 22.1896 32.25 21.8253 32.2203C21.4454 32.1892 21.0888 32.1221 20.7515 31.9503C20.2341 31.6866 19.8134 31.2659 19.5497 30.7485C19.3779 30.4112 19.3108 30.0546 19.2797 29.6747C19.2651 29.4954 19.2577 29.2964 19.2539 29.0768C19.2513 29.0516 19.25 29.0259 19.25 29V22.6696C19.25 22.1354 19.25 21.6896 19.2797 21.3253C19.3108 20.9454 19.3779 20.5888 19.5497 20.2515C19.8134 19.7341 20.2341 19.3134 20.7515 19.0497C21.0888 18.8779 21.4454 18.8108 21.8253 18.7797C22.1896 18.75 22.6354 18.75 23.1695 18.75H32.8305ZM32.8 30.75C33.3724 30.75 33.7566 30.7494 34.0525 30.7252C34.3396 30.7018 34.4769 30.6599 34.5675 30.6138C34.8027 30.4939 34.9939 30.3027 35.1138 30.0675C35.1478 30.0008 35.1794 29.9087 35.2031 29.75H20.7969C20.8206 29.9087 20.8522 30.0008 20.8862 30.0675C21.0061 30.3027 21.1973 30.4939 21.4325 30.6138C21.5231 30.6599 21.6604 30.7018 21.9475 30.7252C22.2434 30.7494 22.6276 30.75 23.2 30.75H32.8Z" fill="#5F5F6A"/>
<path d="M26.75 33.5C26.75 33.0858 26.4142 32.75 26 32.75C25.5858 32.75 25.25 33.0858 25.25 33.5V33.7842C25.25 34.1546 24.9979 34.4774 24.6386 34.5673L24.2435 34.6661C23.6596 34.812 23.25 35.3366 23.25 35.9384C23.25 36.6628 23.8372 37.25 24.5616 37.25H31.4384C32.1628 37.25 32.75 36.6628 32.75 35.9384C32.75 35.3366 32.3404 34.812 31.7565 34.6661L31.3614 34.5673C31.0021 34.4774 30.75 34.1546 30.75 33.7842V33.5C30.75 33.0858 30.4142 32.75 30 32.75C29.5858 32.75 29.25 33.0858 29.25 33.5V33.7842C29.25 34.602 29.6799 35.3387 30.349 35.75H25.651C26.3201 35.3387 26.75 34.602 26.75 33.7842V33.5Z" fill="#5F5F6A"/>
<path opacity="0.5" d="M20 78.7C20 77.5799 20 77.0198 20.218 76.592C20.4097 76.2157 20.7157 75.9097 21.092 75.718C21.5198 75.5 22.0799 75.5 23.2 75.5H32.8C33.9201 75.5 34.4802 75.5 34.908 75.718C35.2843 75.9097 35.5903 76.2157 35.782 76.592C36 77.0198 36 77.5799 36 78.7V85H20V78.7Z" fill="#5F5F6A"/>
<path d="M34.1747 74.7797C33.8104 74.75 33.3646 74.75 32.8304 74.75H23.1696C22.6354 74.75 22.1896 74.75 21.8253 74.7797C21.4454 74.8108 21.0888 74.8779 20.7515 75.0497C20.2341 75.3134 19.8134 75.7341 19.5497 76.2515C19.3779 76.5888 19.3108 76.9454 19.2797 77.3253C19.25 77.6896 19.25 78.1354 19.25 78.6696V85C19.25 85.0259 19.2513 85.0516 19.2539 85.0768C19.2577 85.2964 19.2651 85.4954 19.2797 85.6747C19.3108 86.0546 19.3779 86.4112 19.5497 86.7485C19.8134 87.2659 20.2341 87.6866 20.7515 87.9503C21.0888 88.1221 21.4454 88.1892 21.8253 88.2203C22.1896 88.25 22.6354 88.25 23.1695 88.25H26.4184C26.6993 88.8412 27.3019 89.25 28 89.25C28.6981 89.25 29.3007 88.8412 29.5816 88.25H32.8305C33.3646 88.25 33.8105 88.25 34.1747 88.2203C34.5546 88.1892 34.9112 88.1221 35.2485 87.9503C35.7659 87.6866 36.1866 87.2659 36.4503 86.7485C36.6221 86.4112 36.6892 86.0546 36.7203 85.6747C36.7349 85.4954 36.7423 85.2964 36.7461 85.0768C36.7487 85.0515 36.75 85.0259 36.75 85L36.75 78.5704C36.7499 78.08 36.7482 77.6668 36.7203 77.3253C36.6892 76.9454 36.6221 76.5888 36.4503 76.2515C36.1866 75.7341 35.7659 75.3134 35.2485 75.0497C34.9112 74.8779 34.5546 74.8108 34.1747 74.7797ZM29 86.75H27L23.2 86.75C22.6276 86.75 22.2434 86.7494 21.9475 86.7252C21.6604 86.7018 21.5231 86.6599 21.4325 86.6138C21.1973 86.4939 21.0061 86.3027 20.8862 86.0675C20.8522 86.0008 20.8206 85.9087 20.7969 85.75H35.2031C35.1794 85.9087 35.1478 86.0008 35.1138 86.0675C34.9939 86.3027 34.8027 86.4939 34.5675 86.6138C34.4769 86.6599 34.3396 86.7018 34.0525 86.7252C33.7566 86.7494 33.3724 86.75 32.8 86.75L29 86.75ZM35.25 84.25H20.75L20.75 78.5949C20.7502 78.0799 20.7521 77.7249 20.7748 77.4475C20.7982 77.1604 20.8401 77.0231 20.8862 76.9325C21.0061 76.6973 21.1973 76.5061 21.4325 76.3862C21.5231 76.3401 21.6604 76.2982 21.9475 76.2748C22.2434 76.2506 22.6276 76.25 23.2 76.25H32.8C33.3724 76.25 33.7566 76.2506 34.0525 76.2748C34.3396 76.2982 34.4769 76.3401 34.5675 76.3862C34.8027 76.5061 34.9939 76.6973 35.1138 76.9325C35.1599 77.0231 35.2018 77.1604 35.2252 77.4475C35.2494 77.7434 35.25 78.1276 35.25 78.7V84.25Z" fill="#5F5F6A"/>
<path d="M26 88.75C26.4142 88.75 26.75 89.0858 26.75 89.5V89.7842C26.75 90.602 26.3201 91.3387 25.651 91.75H30.349C29.6799 91.3387 29.25 90.602 29.25 89.7842V89.5C29.25 89.0858 29.5858 88.75 30 88.75C30.4142 88.75 30.75 89.0858 30.75 89.5V89.7842C30.75 90.1546 31.0021 90.4774 31.3614 90.5673L31.7565 90.6661C32.3404 90.812 32.75 91.3366 32.75 91.9384C32.75 92.6628 32.1628 93.25 31.4384 93.25H24.5616C23.8372 93.25 23.25 92.6628 23.25 91.9384C23.25 91.3366 23.6596 90.812 24.2435 90.6661L24.6386 90.5673C24.9979 90.4774 25.25 90.1546 25.25 89.7842V89.5C25.25 89.0858 25.5858 88.75 26 88.75Z" fill="#5F5F6A"/>
<path d="M34.1747 130.78C33.8104 130.75 33.3646 130.75 32.8304 130.75H23.1696C22.6354 130.75 22.1896 130.75 21.8253 130.78C21.4454 130.811 21.0888 130.878 20.7515 131.05C20.2341 131.313 19.8134 131.734 19.5497 132.252C19.3779 132.589 19.3108 132.945 19.2797 133.325C19.25 133.69 19.25 134.135 19.25 134.67V141C19.25 141.026 19.2513 141.052 19.2539 141.077C19.2577 141.296 19.2651 141.495 19.2797 141.675C19.3108 142.055 19.3779 142.411 19.5497 142.748C19.8134 143.266 20.2341 143.687 20.7515 143.95C21.0888 144.122 21.4454 144.189 21.8253 144.22C22.1896 144.25 22.6354 144.25 23.1695 144.25H26.4184C26.6993 144.841 27.3019 145.25 28 145.25C28.6981 145.25 29.3007 144.841 29.5816 144.25H32.8305C33.3646 144.25 33.8105 144.25 34.1747 144.22C34.5546 144.189 34.9112 144.122 35.2485 143.95C35.7659 143.687 36.1866 143.266 36.4503 142.748C36.6221 142.411 36.6892 142.055 36.7203 141.675C36.7349 141.495 36.7423 141.296 36.7461 141.077C36.7487 141.052 36.75 141.026 36.75 141L36.75 134.57C36.7499 134.08 36.7482 133.667 36.7203 133.325C36.6892 132.945 36.6221 132.589 36.4503 132.252C36.1866 131.734 35.7659 131.313 35.2485 131.05C34.9112 130.878 34.5546 130.811 34.1747 130.78ZM29 142.75H27L23.2 142.75C22.6276 142.75 22.2434 142.749 21.9475 142.725C21.6604 142.702 21.5231 142.66 21.4325 142.614C21.1973 142.494 21.0061 142.303 20.8862 142.067C20.8522 142.001 20.8206 141.909 20.7969 141.75H35.2031C35.1794 141.909 35.1478 142.001 35.1138 142.067C34.9939 142.303 34.8027 142.494 34.5675 142.614C34.4769 142.66 34.3396 142.702 34.0525 142.725C33.7566 142.749 33.3724 142.75 32.8 142.75L29 142.75ZM35.25 140.25H20.75L20.75 134.595C20.7502 134.08 20.7521 133.725 20.7748 133.447C20.7982 133.16 20.8401 133.023 20.8862 132.933C21.0061 132.697 21.1973 132.506 21.4325 132.386C21.5231 132.34 21.6604 132.298 21.9475 132.275C22.2434 132.251 22.6276 132.25 23.2 132.25H32.8C33.3724 132.25 33.7566 132.251 34.0525 132.275C34.3396 132.298 34.4769 132.34 34.5675 132.386C34.8027 132.506 34.9939 132.697 35.1138 132.933C35.1599 133.023 35.2018 133.16 35.2252 133.447C35.2494 133.743 35.25 134.128 35.25 134.7V140.25Z" fill="#5F5F6A"/>
<path d="M26 144.75C26.4142 144.75 26.75 145.086 26.75 145.5V145.784C26.75 146.602 26.3201 147.339 25.651 147.75H30.349C29.6799 147.339 29.25 146.602 29.25 145.784V145.5C29.25 145.086 29.5858 144.75 30 144.75C30.4142 144.75 30.75 145.086 30.75 145.5V145.784C30.75 146.155 31.0021 146.477 31.3614 146.567L31.7565 146.666C32.3404 146.812 32.75 147.337 32.75 147.938C32.75 148.663 32.1628 149.25 31.4384 149.25H24.5616C23.8372 149.25 23.25 148.663 23.25 147.938C23.25 147.337 23.6596 146.812 24.2435 146.666L24.6386 146.567C24.9979 146.477 25.25 146.155 25.25 145.784V145.5C25.25 145.086 25.5858 144.75 26 144.75Z" fill="#5F5F6A"/>
<path d="M34.1543 187.029C33.8004 187 33.3633 187 32.8214 187H23.1786C22.6367 187 22.1996 187 21.8457 187.029C21.4813 187.059 21.1612 187.122 20.865 187.272C20.3946 187.512 20.0122 187.895 19.7725 188.365C19.6216 188.661 19.5587 188.981 19.5289 189.346C19.5 189.7 19.5 190.137 19.5 190.679V197C19.5 197.021 19.5012 197.041 19.5036 197.061C19.5073 197.281 19.5145 197.478 19.5289 197.654C19.5587 198.019 19.6216 198.339 19.7725 198.635C20.0122 199.105 20.3946 199.488 20.865 199.728C21.1612 199.878 21.4813 199.941 21.8457 199.971C22.1996 200 22.6367 200 23.1785 200H26.5854C26.7913 200.583 27.3469 201 28 201C28.6531 201 29.2087 200.583 29.4146 200H32.8214C33.3633 200 33.8004 200 34.1543 199.971C34.5187 199.941 34.8388 199.878 35.135 199.728C35.6054 199.488 35.9878 199.105 36.2275 198.635C36.3784 198.339 36.4413 198.019 36.4711 197.654C36.4855 197.478 36.4927 197.281 36.4964 197.061C36.4988 197.041 36.5 197.021 36.5 197L36.5 190.578C36.4999 190.082 36.4982 189.678 36.4711 189.346C36.4413 188.981 36.3784 188.661 36.2275 188.365C35.9878 187.895 35.6054 187.512 35.135 187.272C34.8388 187.122 34.5187 187.059 34.1543 187.029ZM32.8 199H23.2C22.6317 199 22.2355 199 21.9271 198.974C21.6245 198.95 21.4507 198.904 21.319 198.837C21.0368 198.693 20.8073 198.463 20.6635 198.181C20.5964 198.049 20.5503 197.875 20.5256 197.573C20.5236 197.549 20.5219 197.525 20.5202 197.5H35.4798L35.4775 197.533L35.4744 197.573C35.4497 197.875 35.4036 198.049 35.3365 198.181C35.1927 198.463 34.9632 198.693 34.681 198.837C34.5493 198.904 34.3755 198.95 34.0729 198.974C33.7645 199 33.3683 199 32.8 199ZM35.4999 196.5H20.5001L20.5 190.595C20.5001 190.083 20.502 189.716 20.5256 189.427C20.5271 189.408 20.5288 189.39 20.5305 189.372C20.5562 189.103 20.6006 188.942 20.6635 188.819C20.8073 188.537 21.0368 188.307 21.319 188.163C21.4507 188.096 21.6245 188.05 21.9271 188.026C22.2355 188 22.6317 188 23.2 188H32.8C33.3683 188 33.7645 188 34.0729 188.026C34.3755 188.05 34.5493 188.096 34.681 188.163C34.9632 188.307 35.1927 188.537 35.3365 188.819C35.4036 188.951 35.4497 189.125 35.4744 189.427C35.4996 189.736 35.5 190.132 35.5 190.7L35.4999 196.5Z" fill="#5F5F6A"/>
<path d="M26 201C26.2761 201 26.5 201.224 26.5 201.5V201.784C26.5 202.728 25.8576 203.551 24.9418 203.78L24.5466 203.879C24.5192 203.886 24.5 203.91 24.5 203.938C24.5 203.972 24.5276 204 24.5616 204H31.4384C31.4724 204 31.5 203.972 31.5 203.938C31.5 203.91 31.4808 203.886 31.4534 203.879L31.0582 203.78C30.1424 203.551 29.5 202.728 29.5 201.784V201.5C29.5 201.224 29.7239 201 30 201C30.2761 201 30.5 201.224 30.5 201.5V201.784C30.5 202.269 30.8301 202.692 31.3008 202.81L31.6959 202.909C32.1685 203.027 32.5 203.451 32.5 203.938C32.5 204.525 32.0247 205 31.4384 205H24.5616C23.9753 205 23.5 204.525 23.5 203.938C23.5 203.451 23.8315 203.027 24.3041 202.909L24.6992 202.81C25.1699 202.692 25.5 202.269 25.5 201.784V201.5C25.5 201.224 25.7239 201 26 201Z" fill="#5F5F6A"/>
</svg>
