<svg width="56" height="224" viewBox="0 0 56 224" fill="none" xmlns="http://www.w3.org/2000/svg">
<path d="M33.2481 25.25C34.6976 25.2504 35.8728 26.4255 35.8731 27.875V32.7998C35.8731 33.3475 35.8741 33.8037 35.8438 34.1748C35.8127 34.5545 35.7449 34.9109 35.5732 35.248C35.3096 35.7654 34.8884 36.1865 34.3711 36.4502C34.034 36.6219 33.6775 36.6897 33.2979 36.7207C32.9268 36.751 32.4704 36.75 31.9229 36.75H27.2217C27.1374 36.75 27.0733 36.7502 27.0166 36.748C25.5814 36.6925 24.4306 35.5416 24.375 34.1064C24.3728 34.0497 24.3731 33.9858 24.3731 33.9014C24.3731 33.8631 24.3735 33.8337 24.374 33.8047C24.3816 33.4259 24.4689 33.0573 24.6231 32.7188L25.1787 32.8682C25.6944 33.0063 26.1705 33.1364 26.5742 33.21C26.9975 33.2871 27.4681 33.3277 27.9717 33.2207C28.694 33.0671 29.3509 32.6892 29.8457 32.1396C30.1906 31.7564 30.3889 31.3274 30.5332 30.9238C30.6712 30.5376 30.7974 30.0606 30.9356 29.5449L31.8672 26.0684C31.9132 25.8968 31.9566 25.729 31.999 25.5674C32.3798 25.3615 32.8083 25.25 33.2481 25.25Z" fill="#52525B"/>
<path fill-rule="evenodd" clip-rule="evenodd" d="M22.4297 19.7597C22.7997 19.6811 23.1624 19.708 23.5371 19.7763C23.9034 19.843 24.3443 19.9618 24.8731 20.1034L28.3496 21.0351C28.8784 21.1768 29.3194 21.2946 29.67 21.4198C30.0286 21.548 30.3556 21.706 30.6368 21.9589C31.068 22.3473 31.3655 22.8629 31.4864 23.4306C31.5649 23.8006 31.539 24.1633 31.4707 24.538C31.404 24.9042 31.2843 25.3452 31.1426 25.8739L30.211 29.3505C30.0693 29.8792 29.9525 30.3203 29.8272 30.6708C29.699 31.0295 29.5411 31.3565 29.2881 31.6376C28.8995 32.0692 28.3835 32.3665 27.8155 32.4872C27.4455 32.5658 27.0837 32.5399 26.709 32.4716C26.3428 32.4048 25.9019 32.2852 25.3731 32.1435L21.8965 31.2118C21.3677 31.0701 20.9258 30.9534 20.5752 30.828C20.2169 30.6999 19.8904 30.5418 19.6094 30.289C19.178 29.9004 18.8795 29.3842 18.7588 28.8163C18.6804 28.4465 18.7072 28.0845 18.7754 27.7099C18.8422 27.3436 18.9609 26.9028 19.1026 26.3739L20.0342 22.8974C20.1759 22.3685 20.2937 21.9266 20.419 21.5761C20.5472 21.2177 20.7052 20.8913 20.958 20.6103C21.3465 20.1789 21.862 19.8805 22.4297 19.7597ZM27.3038 28.1327C26.637 27.9541 25.9513 28.3499 25.7725 29.0165C25.5938 29.6833 25.9895 30.369 26.6563 30.5478C27.3231 30.7264 28.0088 30.3307 28.1875 29.664C28.3662 28.9973 27.9704 28.3115 27.3038 28.1327ZM22.2325 26.7743C21.5656 26.5957 20.8799 26.9913 20.7012 27.6581C20.5227 28.3248 20.9185 29.0096 21.585 29.1884C22.2518 29.3671 22.9376 28.9714 23.1163 28.3046C23.2947 27.638 22.899 26.9531 22.2325 26.7743ZM25.4746 24.7958C24.8079 24.6173 24.1221 25.0129 23.9434 25.6796C23.7647 26.3464 24.1614 27.0321 24.8282 27.2109C25.4947 27.3892 26.1797 26.9935 26.3584 26.3271C26.5371 25.6603 26.1414 24.9745 25.4746 24.7958ZM28.6621 23.0614C27.9956 22.883 27.3097 23.2788 27.1309 23.9452C26.9522 24.612 27.3489 25.2977 28.0157 25.4765C28.6824 25.6549 29.3673 25.2594 29.5459 24.5927C29.7245 23.9259 29.3289 23.2401 28.6621 23.0614ZM23.5909 21.703C22.9243 21.5247 22.2394 21.9204 22.0606 22.5868C21.8819 23.2536 22.2777 23.9393 22.9444 24.1181C23.6109 24.2965 24.2958 23.9007 24.4746 23.2343C24.6532 22.5675 24.2576 21.8817 23.5909 21.703Z" fill="#52525B"/>
<path opacity="0.5" d="M22.4298 75.7596C22.7999 75.681 23.1624 75.7079 23.5372 75.7762C23.9035 75.843 24.3442 75.9617 24.8731 76.1034L28.3497 77.035C28.8787 77.1768 29.3194 77.2945 29.67 77.4198C30.0288 77.5481 30.3556 77.7057 30.6368 77.9589C31.0682 78.3473 31.3656 78.8627 31.4864 79.4305C31.565 79.8006 31.5391 80.1631 31.4708 80.538C31.404 80.9043 31.2844 81.345 31.1427 81.8739L30.211 85.3505C30.0693 85.8793 29.9525 86.3202 29.8272 86.6708C29.699 87.0295 29.5412 87.3564 29.2882 87.6376C28.8996 88.0691 28.3836 88.3664 27.8155 88.4872C27.4455 88.5658 27.0838 88.5398 26.7091 88.4716C26.3427 88.4048 25.9022 88.2852 25.3731 88.1434L21.8966 87.2118C21.3676 87.07 20.9259 86.9533 20.5753 86.828C20.2168 86.6998 19.8905 86.5418 19.6095 86.2889C19.1779 85.9003 18.8796 85.3843 18.7589 84.8163C18.6803 84.4463 18.7072 84.0846 18.7755 83.7098C18.8423 83.3435 18.9609 82.9029 19.1026 82.3739L20.0343 78.8973C20.176 78.3683 20.2937 77.9267 20.419 77.576C20.5472 77.2175 20.7052 76.8913 20.9581 76.6102C21.3466 76.1788 21.8619 75.8804 22.4298 75.7596Z" fill="#52525B"/>
<path d="M25.7743 85.0167C25.9529 84.35 26.6379 83.9545 27.3045 84.1329C27.9714 84.3116 28.368 84.9973 28.1893 85.6642C28.0105 86.3308 27.3247 86.7265 26.658 86.5479C25.9912 86.3693 25.5956 85.6835 25.7743 85.0167Z" fill="#52525B"/>
<path d="M20.703 83.6583C20.8816 82.9915 21.5674 82.5958 22.2342 82.7745C22.9007 82.9534 23.2965 83.6382 23.118 84.3048C22.9393 84.9716 22.2536 85.3672 21.5868 85.1886C20.9201 85.0099 20.5245 84.325 20.703 83.6583Z" fill="#52525B"/>
<path d="M23.9452 81.6798C24.1238 81.0129 24.8096 80.6173 25.4764 80.796C26.143 80.9747 26.5386 81.6596 26.3602 82.3263C26.1815 82.9931 25.4958 83.3897 24.8289 83.211C24.1623 83.0323 23.7666 82.3465 23.9452 81.6798Z" fill="#52525B"/>
<path d="M27.1327 79.9454C27.3114 79.2787 27.9971 78.883 28.6639 79.0616C29.3307 79.2403 29.7264 79.9261 29.5477 80.5929C29.3689 81.2596 28.6832 81.6553 28.0164 81.4767C27.3498 81.2979 26.954 80.6122 27.1327 79.9454Z" fill="#52525B"/>
<path d="M22.0614 78.587C22.24 77.9202 22.9258 77.5245 23.5926 77.7032C24.2593 77.8819 24.6549 78.5668 24.4764 79.2335C24.2977 79.9003 23.612 80.296 22.9452 80.1173C22.2787 79.9384 21.8829 79.2536 22.0614 78.587Z" fill="#52525B"/>
<path d="M33.2481 81.25C34.6976 81.2504 35.8728 82.4255 35.8731 83.875V88.7998C35.8731 89.3475 35.8741 89.8037 35.8438 90.1748C35.8127 90.5545 35.7449 90.9109 35.5732 91.248C35.3096 91.7654 34.8884 92.1865 34.3711 92.4502C34.034 92.6219 33.6775 92.6897 33.2979 92.7207C32.9268 92.751 32.4704 92.75 31.9229 92.75H27.2217C27.1374 92.75 27.0733 92.7502 27.0166 92.748C25.5814 92.6925 24.4306 91.5416 24.375 90.1064C24.3728 90.0497 24.3731 89.9858 24.3731 89.9014C24.3731 89.8631 24.3735 89.8337 24.374 89.8047C24.3816 89.4259 24.4689 89.0573 24.6231 88.7188L25.1787 88.8682C25.6944 89.0063 26.1705 89.1364 26.5742 89.21C26.9975 89.2871 27.4681 89.3277 27.9717 89.2207C28.694 89.0671 29.3509 88.6892 29.8457 88.1396C30.1906 87.7564 30.3889 87.3275 30.5332 86.9238C30.6712 86.5376 30.7974 86.0607 30.9356 85.5449L31.8672 82.0684C31.9132 81.8967 31.9566 81.729 31.999 81.5674C32.3798 81.3615 32.8083 81.25 33.2481 81.25Z" fill="#52525B"/>
<path d="M32.4991 137.25C33.0339 137.25 33.4392 137.244 33.7901 137.332C34.7753 137.578 35.5448 138.348 35.7911 139.333C35.8788 139.684 35.8731 140.089 35.8731 140.624V144.8C35.8731 145.347 35.8742 145.804 35.8438 146.175C35.8128 146.554 35.745 146.911 35.5733 147.248C35.3097 147.765 34.8885 148.186 34.3712 148.45C34.0341 148.622 33.6776 148.69 33.2979 148.721C32.9269 148.751 32.4705 148.75 31.9229 148.75H28.1231C27.6676 148.75 27.288 148.751 26.9776 148.729C26.6606 148.708 26.3607 148.661 26.0704 148.541C25.3967 148.262 24.8612 147.726 24.5821 147.053C24.4619 146.762 24.4153 146.462 24.3937 146.145C24.3725 145.835 24.3731 145.456 24.3731 145C24.3732 144.586 24.709 144.25 25.1231 144.25C25.5372 144.25 25.8731 144.586 25.8731 145C25.8731 145.476 25.8739 145.795 25.8907 146.043C25.9071 146.284 25.9359 146.401 25.9679 146.478C26.0947 146.785 26.3383 147.028 26.6446 147.155C26.7218 147.187 26.8396 147.216 27.0802 147.232C27.3276 147.249 27.6472 147.25 28.1231 147.25H31.9229C32.4953 147.25 32.88 147.25 33.1759 147.225C33.4627 147.202 33.6 147.159 33.6905 147.113C33.9255 146.993 34.1166 146.802 34.2364 146.567C34.2825 146.477 34.3253 146.339 34.3487 146.053C34.3729 145.757 34.3731 145.372 34.3731 144.8V140.624C34.3731 140 34.3676 139.824 34.336 139.697C34.2241 139.249 33.8737 138.899 33.4259 138.787C33.2992 138.755 33.1233 138.75 32.4991 138.75C32.085 138.75 31.7491 138.414 31.7491 138C31.7492 137.586 32.0851 137.25 32.4991 137.25Z" fill="#52525B"/>
<path d="M25.7726 141.016C25.9513 140.35 26.637 139.954 27.3038 140.133C27.9705 140.311 28.3663 140.997 28.1876 141.664C28.0089 142.331 27.3231 142.726 26.6563 142.548C25.9896 142.369 25.5939 141.683 25.7726 141.016Z" fill="#52525B"/>
<path d="M20.7013 139.658C20.8799 138.991 21.5657 138.596 22.2325 138.774C22.8991 138.953 23.2947 139.638 23.1163 140.305C22.9376 140.971 22.2519 141.367 21.5851 141.188C20.9185 141.01 20.5228 140.325 20.7013 139.658Z" fill="#52525B"/>
<path d="M23.9444 137.68C24.1232 137.013 24.808 136.617 25.4747 136.796C26.1415 136.974 26.5372 137.66 26.3585 138.327C26.1797 138.994 25.4948 139.389 24.8282 139.211C24.1614 139.032 23.7658 138.346 23.9444 137.68Z" fill="#52525B"/>
<path d="M27.131 135.945C27.3097 135.279 27.9955 134.883 28.6622 135.061C29.329 135.24 29.7247 135.926 29.546 136.593C29.3673 137.259 28.6824 137.655 28.0157 137.476C27.3489 137.298 26.9523 136.612 27.131 135.945Z" fill="#52525B"/>
<path d="M22.0606 134.587C22.2393 133.92 22.9242 133.525 23.5909 133.703C24.2577 133.882 24.6534 134.567 24.4747 135.234C24.2959 135.901 23.611 136.296 22.9444 136.118C22.2776 135.939 21.882 135.254 22.0606 134.587Z" fill="#52525B"/>
<path fill-rule="evenodd" clip-rule="evenodd" d="M22.4298 131.76C22.7999 131.681 23.1624 131.708 23.5372 131.776C23.9035 131.843 24.3443 131.962 24.8731 132.103L28.3497 133.035C28.8787 133.177 29.3194 133.294 29.67 133.42C30.0288 133.548 30.3556 133.706 30.6368 133.959C31.0682 134.347 31.3656 134.863 31.4864 135.431C31.565 135.801 31.5391 136.163 31.4708 136.538C31.404 136.904 31.2844 137.345 31.1427 137.874L30.211 141.35C30.0693 141.879 29.9525 142.32 29.8272 142.671C29.699 143.029 29.5412 143.356 29.2882 143.638C28.8996 144.069 28.3836 144.366 27.8155 144.487C27.4455 144.566 27.0838 144.54 26.7091 144.472C26.3428 144.405 25.9021 144.285 25.3731 144.143L21.8966 143.212C21.3676 143.07 20.9259 142.953 20.5753 142.828C20.2168 142.7 19.8905 142.542 19.6095 142.289C19.1779 141.9 18.8796 141.384 18.7589 140.816C18.6803 140.446 18.7072 140.085 18.7755 139.71C18.8423 139.344 18.9609 138.903 19.1026 138.374L20.0343 134.897C20.176 134.368 20.2937 133.927 20.419 133.576C20.5472 133.218 20.7052 132.891 20.9581 132.61C21.3466 132.179 21.8619 131.88 22.4298 131.76ZM23.2677 133.252C22.9846 133.2 22.8407 133.206 22.7413 133.227C22.4834 133.282 22.2498 133.417 22.0733 133.613C22.0054 133.689 21.9281 133.81 21.8312 134.081C21.7312 134.36 21.6316 134.732 21.4835 135.285L20.5519 138.763C20.4038 139.315 20.3043 139.686 20.2511 139.978C20.1995 140.262 20.2056 140.405 20.2267 140.505C20.2816 140.763 20.4163 140.997 20.6124 141.174C20.6879 141.242 20.8094 141.318 21.0802 141.415C21.3597 141.515 21.7314 141.615 22.2843 141.764L25.7618 142.695C26.3142 142.843 26.6857 142.942 26.9776 142.995C27.2607 143.047 27.4046 143.041 27.504 143.02C27.7621 142.966 27.9964 142.83 28.1729 142.634C28.2409 142.558 28.3174 142.437 28.4142 142.166C28.5141 141.886 28.6147 141.515 28.7628 140.962L29.6944 137.485C29.8426 136.932 29.941 136.56 29.9942 136.268C30.0458 135.985 30.0407 135.841 30.0196 135.742C29.9647 135.484 29.8289 135.251 29.6329 135.074C29.5574 135.006 29.4361 134.929 29.1651 134.832C28.8856 134.732 28.5138 134.632 27.961 134.484L24.4845 133.553C23.9316 133.404 23.5597 133.305 23.2677 133.252Z" fill="#52525B"/>
<path d="M32.5009 193.5C33.0506 193.5 33.4179 193.496 33.7314 193.574C34.6269 193.798 35.3268 194.498 35.5507 195.394C35.6291 195.707 35.6249 196.074 35.6249 196.624V200.8C35.6249 201.352 35.6249 201.796 35.5956 202.154C35.5659 202.519 35.5033 202.839 35.3525 203.135C35.1128 203.605 34.73 203.988 34.2597 204.228C33.9637 204.378 33.6434 204.441 33.2792 204.471C32.9207 204.5 32.4764 204.5 31.9247 204.5H28.1249C27.6662 204.5 27.2968 204.5 26.997 204.48C26.6928 204.459 26.4227 204.415 26.1679 204.31C25.5557 204.056 25.0691 203.569 24.8154 202.957C24.7098 202.702 24.6662 202.432 24.6454 202.128C24.625 201.828 24.6249 201.459 24.6249 201C24.6249 200.724 24.8488 200.5 25.1249 200.5C25.4009 200.5 25.6249 200.724 25.6249 201C25.6249 201.473 25.6249 201.803 25.6425 202.061C25.6598 202.314 25.6925 202.462 25.7392 202.574C25.8915 202.942 26.1834 203.234 26.5507 203.386C26.6633 203.432 26.8113 203.465 27.0644 203.482C27.3223 203.5 27.6524 203.5 28.1249 203.5H31.9247C32.4929 203.5 32.8898 203.5 33.1982 203.475C33.5 203.45 33.6741 203.404 33.8056 203.337C34.0877 203.193 34.3181 202.963 34.4619 202.681C34.5288 202.549 34.5749 202.375 34.5995 202.073C34.6247 201.765 34.6249 201.368 34.6249 200.8V196.624C34.6249 196.015 34.6209 195.801 34.58 195.637C34.4457 195.099 34.0255 194.679 33.4882 194.545C33.3242 194.504 33.1101 194.5 32.5009 194.5C32.2249 194.5 32.001 194.276 32.0009 194C32.0009 193.724 32.2249 193.5 32.5009 193.5Z" fill="#52525B"/>
<path d="M26.1923 197.388C26.3352 196.854 26.8835 196.538 27.4169 196.681C27.9504 196.824 28.2669 197.372 28.124 197.905C27.981 198.439 27.4327 198.755 26.8994 198.612C26.3661 198.469 26.0495 197.921 26.1923 197.388Z" fill="#52525B"/>
<path d="M20.6386 195.899C20.7816 195.366 21.3298 195.049 21.8632 195.192C22.3966 195.335 22.7132 195.884 22.5703 196.417C22.4273 196.95 21.8791 197.267 21.3456 197.124C20.8122 196.981 20.4957 196.433 20.6386 195.899Z" fill="#52525B"/>
<path d="M24.1874 193.744C24.3305 193.211 24.8787 192.894 25.412 193.037C25.9453 193.18 26.2618 193.728 26.1191 194.262C25.9762 194.795 25.4279 195.112 24.8945 194.969C24.361 194.826 24.0445 194.278 24.1874 193.744Z" fill="#52525B"/>
<path d="M27.6806 191.833C27.8237 191.3 28.372 190.983 28.9052 191.126C29.4386 191.269 29.7552 191.818 29.6122 192.352C29.4691 192.885 28.9209 193.201 28.3876 193.059C27.8542 192.916 27.5377 192.366 27.6806 191.833Z" fill="#52525B"/>
<path d="M22.1269 190.346C22.2698 189.812 22.818 189.495 23.3515 189.638C23.8849 189.781 24.2015 190.33 24.0585 190.863C23.9155 191.396 23.3672 191.713 22.8339 191.57C22.3006 191.427 21.9842 190.879 22.1269 190.346Z" fill="#52525B"/>
<path fill-rule="evenodd" clip-rule="evenodd" d="M22.4833 188.004C22.8084 187.935 23.1345 187.958 23.4941 188.023C23.8479 188.088 24.2768 188.203 24.8095 188.346L28.287 189.277C28.8196 189.42 29.2482 189.535 29.5869 189.656C29.9311 189.779 30.2247 189.922 30.4716 190.145C30.8638 190.498 31.1343 190.966 31.2441 191.482C31.3131 191.807 31.2911 192.134 31.2255 192.493C31.161 192.847 31.046 193.276 30.9033 193.809L29.9716 197.286C29.8289 197.819 29.7137 198.247 29.5927 198.586C29.4697 198.93 29.3258 199.224 29.1035 199.471C28.7503 199.863 28.2818 200.133 27.7656 200.243C27.4407 200.312 27.1153 200.29 26.7558 200.225C26.4019 200.16 25.9724 200.045 25.4394 199.902L21.9628 198.971C21.43 198.828 21.0008 198.713 20.662 198.592C20.3178 198.469 20.0242 198.325 19.7773 198.103C19.3852 197.749 19.1146 197.281 19.0048 196.765C18.9358 196.44 18.9588 196.114 19.0244 195.755C19.0889 195.401 19.2038 194.972 19.3466 194.439L20.2783 190.962C20.4211 190.429 20.5361 190 20.6572 189.661C20.7802 189.317 20.9231 189.023 21.1454 188.776C21.4986 188.384 21.9672 188.114 22.4833 188.004ZM23.3144 189.006C23.0163 188.952 22.8358 188.951 22.6913 188.981C22.3816 189.047 22.0995 189.211 21.8876 189.446C21.789 189.556 21.6995 189.712 21.5976 189.997C21.4934 190.288 21.3911 190.672 21.2441 191.221L20.3124 194.697C20.1654 195.246 20.0623 195.63 20.0068 195.935C19.9526 196.232 19.9518 196.412 19.9824 196.557C20.0482 196.866 20.2118 197.148 20.4472 197.36C20.557 197.459 20.7129 197.548 20.998 197.65C21.2894 197.755 21.6727 197.858 22.2216 198.005L25.6982 198.937C26.2468 199.084 26.6302 199.186 26.9345 199.241C27.2326 199.296 27.4131 199.296 27.5576 199.266C27.8673 199.2 28.1494 199.037 28.3613 198.802C28.46 198.692 28.5493 198.535 28.6513 198.25C28.7554 197.959 28.8588 197.575 29.0058 197.026L29.9374 193.55C30.0845 193.001 30.1866 192.618 30.2421 192.314C30.2964 192.015 30.2971 191.835 30.2665 191.69C30.2006 191.381 30.0379 191.099 29.8027 190.887C29.6929 190.788 29.5362 190.699 29.2509 190.597C28.9596 190.493 28.576 190.39 28.0273 190.243L24.5507 189.312C24.0019 189.165 23.6188 189.061 23.3144 189.006Z" fill="#52525B"/>
</svg>
