<svg width="56" height="224" viewBox="0 0 56 224" fill="none" xmlns="http://www.w3.org/2000/svg">
<path d="M28 21C26.6193 21 25.5 22.1193 25.5 23.5C25.5 24.8807 26.6193 26 28 26C29.3807 26 30.5 24.8807 30.5 23.5C30.5 22.1193 29.3807 21 28 21ZM27.5 23.5C27.5 23.2239 27.7239 23 28 23C28.2761 23 28.5 23.2239 28.5 23.5C28.5 23.7761 28.2761 24 28 24C27.7239 24 27.5 23.7761 27.5 23.5Z" fill="#5F5F6A"/>
<path d="M20.75 28C20.75 27.3096 21.3096 26.75 22 26.75H34C34.6904 26.75 35.25 27.3096 35.25 28C35.25 28.6904 34.6904 29.25 34 29.25H22C21.3096 29.25 20.75 28.6904 20.75 28Z" fill="#5F5F6A"/>
<path d="M25.5 32.5C25.5 31.1193 26.6193 30 28 30C29.3807 30 30.5 31.1193 30.5 32.5C30.5 33.8807 29.3807 35 28 35C26.6193 35 25.5 33.8807 25.5 32.5ZM28 32C27.7239 32 27.5 32.2239 27.5 32.5C27.5 32.7761 27.7239 33 28 33C28.2761 33 28.5 32.7761 28.5 32.5C28.5 32.2239 28.2761 32 28 32Z" fill="#5F5F6A"/>
<path d="M28 77C26.6193 77 25.5 78.1193 25.5 79.5C25.5 80.8807 26.6193 82 28 82C29.3807 82 30.5 80.8807 30.5 79.5C30.5 78.1193 29.3807 77 28 77ZM27.5 79.5C27.5 79.2239 27.7239 79 28 79C28.2761 79 28.5 79.2239 28.5 79.5C28.5 79.7761 28.2761 80 28 80C27.7239 80 27.5 79.7761 27.5 79.5Z" fill="#5F5F6A"/>
<path d="M21 84C21 83.4477 21.4477 83 22 83H34C34.5523 83 35 83.4477 35 84C35 84.5523 34.5523 85 34 85H22C21.4477 85 21 84.5523 21 84Z" fill="#5F5F6A"/>
<path d="M25.5 88.5C25.5 87.1193 26.6193 86 28 86C29.3807 86 30.5 87.1193 30.5 88.5C30.5 89.8807 29.3807 91 28 91C26.6193 91 25.5 89.8807 25.5 88.5ZM28 88C27.7239 88 27.5 88.2239 27.5 88.5C27.5 88.7761 27.7239 89 28 89C28.2761 89 28.5 88.7761 28.5 88.5C28.5 88.2239 28.2761 88 28 88Z" fill="#5F5F6A"/>
<path d="M28 133.25C26.7574 133.25 25.75 134.257 25.75 135.5C25.75 136.743 26.7574 137.75 28 137.75C29.2426 137.75 30.25 136.743 30.25 135.5C30.25 134.257 29.2426 133.25 28 133.25ZM27.25 135.5C27.25 135.086 27.5858 134.75 28 134.75C28.4142 134.75 28.75 135.086 28.75 135.5C28.75 135.914 28.4142 136.25 28 136.25C27.5858 136.25 27.25 135.914 27.25 135.5Z" fill="#5F5F6A"/>
<path d="M21.25 140C21.25 139.586 21.5858 139.25 22 139.25H34C34.4142 139.25 34.75 139.586 34.75 140C34.75 140.414 34.4142 140.75 34 140.75H22C21.5858 140.75 21.25 140.414 21.25 140Z" fill="#5F5F6A"/>
<path d="M25.75 144.5C25.75 143.257 26.7574 142.25 28 142.25C29.2426 142.25 30.25 143.257 30.25 144.5C30.25 145.743 29.2426 146.75 28 146.75C26.7574 146.75 25.75 145.743 25.75 144.5ZM28 143.75C27.5858 143.75 27.25 144.086 27.25 144.5C27.25 144.914 27.5858 145.25 28 145.25C28.4142 145.25 28.75 144.914 28.75 144.5C28.75 144.086 28.4142 143.75 28 143.75Z" fill="#5F5F6A"/>
<path d="M28 189.5C26.8954 189.5 26 190.395 26 191.5C26 192.605 26.8954 193.5 28 193.5C29.1046 193.5 30 192.605 30 191.5C30 190.395 29.1046 189.5 28 189.5ZM27 191.5C27 190.948 27.4477 190.5 28 190.5C28.5523 190.5 29 190.948 29 191.5C29 192.052 28.5523 192.5 28 192.5C27.4477 192.5 27 192.052 27 191.5Z" fill="#5F5F6A"/>
<path d="M21.5 196C21.5 195.724 21.7239 195.5 22 195.5H34C34.2761 195.5 34.5 195.724 34.5 196C34.5 196.276 34.2761 196.5 34 196.5H22C21.7239 196.5 21.5 196.276 21.5 196Z" fill="#5F5F6A"/>
<path d="M26 200.5C26 199.395 26.8954 198.5 28 198.5C29.1046 198.5 30 199.395 30 200.5C30 201.605 29.1046 202.5 28 202.5C26.8954 202.5 26 201.605 26 200.5ZM28 199.5C27.4477 199.5 27 199.948 27 200.5C27 201.052 27.4477 201.5 28 201.5C28.5523 201.5 29 201.052 29 200.5C29 199.948 28.5523 199.5 28 199.5Z" fill="#5F5F6A"/>
</svg>
