<svg width="56" height="224" viewBox="0 0 56 224" fill="none" xmlns="http://www.w3.org/2000/svg">
<path d="M28.4444 20C29.0581 20 29.5556 20.5117 29.5556 21.1429V22.2857H29.5589C31.4038 22.2857 32.8889 23.8195 32.8889 25.7143C32.8889 26.3455 32.3914 26.8571 31.7778 26.8571C31.1641 26.8571 30.6667 26.3455 30.6667 25.7143C30.6667 25.0781 30.1728 24.5714 29.5589 24.5714H27.0501C26.5926 24.5714 26.2222 24.9542 26.2222 25.42C26.2222 25.8437 26.3134 25.9622 26.3332 25.987C26.3692 26.032 26.4649 26.1185 26.7835 26.2297L30.8144 27.6041C31.2831 27.7671 31.8465 28.0284 32.2728 28.5621C32.7152 29.1161 32.8889 29.807 32.8889 30.58C32.8889 32.3117 31.5201 33.7143 29.8387 33.7143H29.5556V34.8571C29.5556 35.4883 29.0581 36 28.4444 36C27.8308 36 27.3333 35.4883 27.3333 34.8571V33.7143H27.33C25.4851 33.7143 24 32.1805 24 30.2857C24 29.6545 24.4975 29.1429 25.1111 29.1429C25.7248 29.1429 26.2222 29.6545 26.2222 30.2857C26.2222 30.9219 26.7161 31.4286 27.33 31.4286H29.8387C30.2963 31.4286 30.6667 31.0458 30.6667 30.58C30.6667 30.1563 30.5755 30.0378 30.5557 30.013C30.5197 29.968 30.424 29.8815 30.1054 29.7703L26.0745 28.3959C25.6058 28.2329 25.0424 27.9716 24.6161 27.4379C24.1737 26.8839 24 26.1931 24 25.42C24 23.6883 25.3687 22.2857 27.0501 22.2857H27.3333V21.1429C27.3333 20.5117 27.8308 20 28.4444 20Z" fill="#5F5F6A"/>
<path d="M27.9942 76C28.4852 76 28.8831 76.398 28.8831 76.8889V78.3704H29.183C30.9867 78.3704 32.4387 79.8279 32.4387 81.6296C32.4387 82.1205 32.0407 82.5185 31.5498 82.5185C31.0589 82.5185 30.6609 82.1205 30.6609 81.6296C30.6609 80.8067 30.0019 80.1481 29.183 80.1481H26.507C25.8558 80.1481 25.3276 80.6773 25.3276 81.3244C25.3276 81.8092 25.4358 82.0062 25.5133 82.1005C25.6036 82.2104 25.768 82.3229 26.1284 82.445L30.4273 83.8701C30.9075 84.0325 31.4462 84.2809 31.8488 84.771C32.2644 85.2769 32.4387 85.9192 32.4387 86.6756C32.4387 88.3073 31.1118 89.6296 29.4815 89.6296H28.8831V91.1111C28.8831 91.602 28.4852 92 27.9942 92C27.5033 92 27.1054 91.602 27.1054 91.1111V89.6296H26.8055C25.0018 89.6296 23.5498 88.1721 23.5498 86.3704C23.5498 85.8795 23.9478 85.4815 24.4387 85.4815C24.9296 85.4815 25.3276 85.8795 25.3276 86.3704C25.3276 87.1933 25.9866 87.8519 26.8055 87.8519H29.4815C30.1327 87.8519 30.6609 87.3227 30.6609 86.6756C30.6609 86.1908 30.5527 85.9938 30.4752 85.8995C30.3849 85.7896 30.2205 85.6771 29.8601 85.555L25.5612 84.1299C25.081 83.9675 24.5423 83.7191 24.1397 83.229C23.7241 82.7231 23.5498 82.0808 23.5498 81.3244C23.5498 79.6927 24.8767 78.3704 26.507 78.3704H27.1054V76.8889C27.1054 76.398 27.5033 76 27.9942 76Z" fill="#5F5F6A"/>
<path d="M27.9942 132C28.4852 132 28.8831 132.398 28.8831 132.889V134.37H29.183C30.9867 134.37 32.4387 135.828 32.4387 137.63C32.4387 138.121 32.0407 138.519 31.5498 138.519C31.0589 138.519 30.6609 138.121 30.6609 137.63C30.6609 136.807 30.0019 136.148 29.183 136.148H26.507C25.8558 136.148 25.3276 136.677 25.3276 137.324C25.3276 137.809 25.4358 138.006 25.5133 138.101C25.6036 138.21 25.768 138.323 26.1284 138.445L30.4273 139.87C30.9075 140.032 31.4462 140.281 31.8488 140.771C32.2644 141.277 32.4387 141.919 32.4387 142.676C32.4387 144.307 31.1118 145.63 29.4815 145.63H28.8831V147.111C28.8831 147.602 28.4852 148 27.9942 148C27.5033 148 27.1054 147.602 27.1054 147.111V145.63H26.8055C25.0018 145.63 23.5498 144.172 23.5498 142.37C23.5498 141.879 23.9478 141.481 24.4387 141.481C24.9296 141.481 25.3276 141.879 25.3276 142.37C25.3276 143.193 25.9866 143.852 26.8055 143.852H29.4815C30.1327 143.852 30.6609 143.323 30.6609 142.676C30.6609 142.191 30.5527 141.994 30.4752 141.899C30.3849 141.79 30.2205 141.677 29.8601 141.555L25.5612 140.13C25.081 139.968 24.5423 139.719 24.1397 139.229C23.7241 138.723 23.5498 138.081 23.5498 137.324C23.5498 135.693 24.8767 134.37 26.507 134.37H27.1054V132.889C27.1054 132.398 27.5033 132 27.9942 132Z" fill="#5F5F6A"/>
<path d="M28.0114 188C28.372 188 28.6644 188.276 28.6644 188.615V190.462H29.3214C31.1283 190.462 32.5828 191.837 32.5828 193.538C32.5828 193.878 32.2904 194.154 31.9297 194.154C31.5691 194.154 31.2767 193.878 31.2767 193.538C31.2767 192.514 30.4048 191.692 29.3214 191.692H26.3724C25.4749 191.692 24.7461 192.379 24.7461 193.222C24.7461 193.772 24.8775 194.054 25.025 194.223C25.1818 194.403 25.4317 194.543 25.8513 194.677L30.5881 196.157C31.0956 196.318 31.6206 196.553 32.007 196.996C32.4029 197.45 32.5828 198.04 32.5828 198.778C32.5828 200.303 31.2672 201.538 29.6504 201.538H28.6644V203.385C28.6644 203.724 28.372 204 28.0114 204C27.6507 204 27.3583 203.724 27.3583 203.385V201.538H26.7013C24.8944 201.538 23.4399 200.163 23.4399 198.462C23.4399 198.122 23.7323 197.846 24.093 197.846C24.4537 197.846 24.7461 198.122 24.7461 198.462C24.7461 199.486 25.6179 200.308 26.7013 200.308H29.6504C30.5479 200.308 31.2767 199.621 31.2767 198.778C31.2767 198.228 31.1452 197.946 30.9977 197.777C30.8409 197.597 30.591 197.457 30.1714 197.323L25.4347 195.843C24.9271 195.682 24.4021 195.447 24.0158 195.004C23.6199 194.55 23.4399 193.96 23.4399 193.222C23.4399 191.697 24.7555 190.462 26.3724 190.462H27.3583V188.615C27.3583 188.276 27.6507 188 28.0114 188Z" fill="#5F5F6A"/>
</svg>
