<svg width="56" height="168" viewBox="0 0 56 168" fill="none" xmlns="http://www.w3.org/2000/svg">
<path opacity="0.5" d="M18 30C18 30.5523 17.5523 31 17 31C16.4477 31 16 30.5523 16 30C16 29.4477 16.4477 29 17 29C17.5523 29 18 29.4477 18 30Z" fill="#5F5F6A"/>
<path d="M22.7186 26.2615C22.0395 25.5795 20.9397 25.5795 20.2606 26.2615C19.5798 26.9451 19.5798 28.0549 20.2606 28.7385C20.9397 29.4205 22.0395 29.4205 22.7186 28.7385C23.0108 28.445 23.4857 28.4441 23.7792 28.7363C24.0727 29.0286 24.0737 29.5035 23.7814 29.797C22.516 31.0677 20.4631 31.0677 19.1977 29.797C17.9341 28.528 17.9341 26.472 19.1977 25.203C20.4631 23.9323 22.516 23.9323 23.7814 25.203C24.0737 25.4965 24.0727 25.9714 23.7792 26.2637C23.4857 26.5559 23.0108 26.555 22.7186 26.2615Z" fill="#5F5F6A"/>
<path d="M24.5 27.5C24.5 25.7051 25.9551 24.25 27.75 24.25C29.5449 24.25 31 25.7051 31 27.5C31 29.2949 29.5449 30.75 27.75 30.75C25.9551 30.75 24.5 29.2949 24.5 27.5ZM27.75 25.75C26.7835 25.75 26 26.5335 26 27.5C26 28.4665 26.7835 29.25 27.75 29.25C28.7165 29.25 29.5 28.4665 29.5 27.5C29.5 26.5335 28.7165 25.75 27.75 25.75Z" fill="#5F5F6A"/>
<path d="M34 24.25C32.6051 24.25 31.5 25.3996 31.5 26.7857V29.9996C31.5 30.4139 31.8358 30.75 32.25 30.75C32.6642 30.75 33 30.4142 33 30V26.7857C33 26.1993 33.4619 25.75 34 25.75C34.5381 25.75 35 26.1993 35 26.7857V30C35 30.4142 35.3358 30.75 35.75 30.75C36.1642 30.75 36.5 30.4142 36.5 30V26.7857C36.5 26.1993 36.9619 25.75 37.5 25.75C38.0381 25.75 38.5 26.1993 38.5 26.7857V30C38.5 30.4142 38.8358 30.75 39.25 30.75C39.6642 30.75 40 30.4142 40 30V26.7857C40 25.3996 38.8949 24.25 37.5 24.25C36.8144 24.25 36.1988 24.5277 35.75 24.9748C35.3012 24.5277 34.6856 24.25 34 24.25Z" fill="#5F5F6A"/>
<path d="M18 86C18 86.5523 17.5523 87 17 87C16.4477 87 16 86.5523 16 86C16 85.4477 16.4477 85 17 85C17.5523 85 18 85.4477 18 86Z" fill="#5F5F6A"/>
<path d="M22.7186 82.2615C22.0395 81.5795 20.9397 81.5795 20.2606 82.2615C19.5798 82.9451 19.5798 84.0549 20.2606 84.7385C20.9397 85.4205 22.0395 85.4205 22.7186 84.7385C23.0108 84.445 23.4857 84.4441 23.7792 84.7363C24.0727 85.0286 24.0737 85.5035 23.7814 85.797C22.516 87.0677 20.4631 87.0677 19.1977 85.797C17.9341 84.528 17.9341 82.472 19.1977 81.203C20.4631 79.9323 22.516 79.9323 23.7814 81.203C24.0737 81.4965 24.0727 81.9714 23.7792 82.2637C23.4857 82.5559 23.0108 82.555 22.7186 82.2615Z" fill="#5F5F6A"/>
<path d="M24.5 83.5C24.5 81.7051 25.9551 80.25 27.75 80.25C29.5449 80.25 31 81.7051 31 83.5C31 85.2949 29.5449 86.75 27.75 86.75C25.9551 86.75 24.5 85.2949 24.5 83.5ZM27.75 81.75C26.7835 81.75 26 82.5335 26 83.5C26 84.4665 26.7835 85.25 27.75 85.25C28.7165 85.25 29.5 84.4665 29.5 83.5C29.5 82.5335 28.7165 81.75 27.75 81.75Z" fill="#5F5F6A"/>
<path d="M34 80.25C32.6051 80.25 31.5 81.3996 31.5 82.7857V85.9996C31.5 86.4139 31.8358 86.75 32.25 86.75C32.6642 86.75 33 86.4142 33 86V82.7857C33 82.1993 33.4619 81.75 34 81.75C34.5381 81.75 35 82.1993 35 82.7857V86C35 86.4142 35.3358 86.75 35.75 86.75C36.1642 86.75 36.5 86.4142 36.5 86V82.7857C36.5 82.1993 36.9619 81.75 37.5 81.75C38.0381 81.75 38.5 82.1993 38.5 82.7857V86C38.5 86.4142 38.8358 86.75 39.25 86.75C39.6642 86.75 40 86.4142 40 86V82.7857C40 81.3996 38.8949 80.25 37.5 80.25C36.8144 80.25 36.1988 80.5277 35.75 80.9748C35.3012 80.5277 34.6856 80.25 34 80.25Z" fill="#5F5F6A"/>
<path d="M24.75 139.5C24.75 137.843 26.0931 136.5 27.75 136.5C29.4069 136.5 30.75 137.843 30.75 139.5C30.75 141.157 29.4069 142.5 27.75 142.5C26.0931 142.5 24.75 141.157 24.75 139.5ZM27.75 137.5C26.6454 137.5 25.75 138.395 25.75 139.5C25.75 140.605 26.6454 141.5 27.75 141.5C28.8546 141.5 29.75 140.605 29.75 139.5C29.75 138.395 28.8546 137.5 27.75 137.5Z" fill="#5F5F6A"/>
<path d="M20.0835 138.085C20.8603 137.305 22.1189 137.305 22.8957 138.085C23.0906 138.281 23.4071 138.281 23.6028 138.087C23.7985 137.892 23.7991 137.575 23.6043 137.379C22.4366 136.207 20.5426 136.207 19.3749 137.379C18.2084 138.551 18.2084 140.449 19.3749 141.621C20.5426 142.793 22.4366 142.793 23.6043 141.621C23.7991 141.425 23.7985 141.108 23.6028 140.913C23.4071 140.719 23.0906 140.719 22.8957 140.915C22.1189 141.695 20.8603 141.695 20.0835 140.915C19.3055 140.134 19.3055 138.866 20.0835 138.085Z" fill="#5F5F6A"/>
<path d="M17 143C17.5523 143 18 142.552 18 142C18 141.448 17.5523 141 17 141C16.4477 141 16 141.448 16 142C16 142.552 16.4477 143 17 143Z" fill="#5F5F6A"/>
<path d="M34 136.5C32.7479 136.5 31.75 137.533 31.75 138.786V142C31.75 142.276 31.9739 142.5 32.25 142.5C32.5261 142.5 32.75 142.276 32.75 142V138.786C32.75 138.066 33.3191 137.5 34 137.5C34.6809 137.5 35.25 138.066 35.25 138.786V142C35.25 142.276 35.4739 142.5 35.75 142.5C36.0261 142.5 36.25 142.276 36.25 142V138.786C36.25 138.066 36.8191 137.5 37.5 137.5C38.1809 137.5 38.75 138.066 38.75 138.786V142C38.75 142.276 38.9739 142.5 39.25 142.5C39.5261 142.5 39.75 142.276 39.75 142V138.786C39.75 137.533 38.7521 136.5 37.5 136.5C36.7895 136.5 36.1609 136.833 35.75 137.349C35.3391 136.833 34.7105 136.5 34 136.5Z" fill="#5F5F6A"/>
</svg>
