<svg width="56" height="224" viewBox="0 0 56 224" fill="none" xmlns="http://www.w3.org/2000/svg">
<path d="M22.75 34.7202C22.75 34.8424 22.7499 34.9748 22.7593 35.0895C22.7699 35.2192 22.7961 35.3907 22.8862 35.5675C23.0061 35.8027 23.1973 35.9939 23.4325 36.1138C23.6093 36.2039 23.7808 36.2301 23.9105 36.2407C24.0252 36.2501 24.1576 36.25 24.2798 36.25H25.7202C25.8424 36.25 25.9748 36.2501 26.0895 36.2407C26.2192 36.2301 26.3907 36.2039 26.5675 36.1138C26.8027 35.9939 26.9939 35.8027 27.1138 35.5675C27.2039 35.3907 27.2301 35.2192 27.2407 35.0895C27.2501 34.9748 27.25 34.8424 27.25 34.7202V33.2798C27.25 33.1576 27.2501 33.0252 27.2407 32.9105C27.2301 32.7808 27.2039 32.6093 27.1138 32.4325C26.9939 32.1973 26.8027 32.0061 26.5675 31.8862C26.3907 31.7961 26.2192 31.7699 26.0895 31.7593C25.9748 31.7499 25.8424 31.75 25.7202 31.75H24.2798C24.1576 31.75 24.0252 31.7499 23.9105 31.7593C23.7808 31.7699 23.6093 31.7961 23.4325 31.8862C23.1973 32.0061 23.0061 32.1973 22.8862 32.4325C22.7961 32.6093 22.7699 32.7808 22.7593 32.9105C22.7499 33.0252 22.75 33.1576 22.75 33.2798L22.75 34.7202Z" fill="#5F5F6A"/>
<path d="M22.75 28.7202C22.75 28.8424 22.7499 28.9748 22.7593 29.0895C22.7699 29.2192 22.7961 29.3907 22.8862 29.5675C23.0061 29.8027 23.1973 29.9939 23.4325 30.1138C23.6093 30.2039 23.7808 30.2301 23.9105 30.2407C24.0252 30.2501 24.1576 30.25 24.2798 30.25H25.7202C25.8424 30.25 25.9748 30.2501 26.0895 30.2407C26.2192 30.2301 26.3907 30.2039 26.5675 30.1138C26.8027 29.9939 26.9939 29.8027 27.1138 29.5675C27.2039 29.3907 27.2301 29.2192 27.2407 29.0895C27.2501 28.9748 27.25 28.8424 27.25 28.7202V27.2798C27.25 27.1576 27.2501 27.0252 27.2407 26.9105C27.2301 26.7808 27.2039 26.6093 27.1138 26.4325C26.9939 26.1973 26.8027 26.0061 26.5675 25.8862C26.3907 25.7961 26.2192 25.7699 26.0895 25.7593C25.9748 25.7499 25.8424 25.75 25.7203 25.75H24.2798C24.1576 25.75 24.0252 25.7499 23.9105 25.7593C23.7808 25.7699 23.6093 25.7961 23.4325 25.8862C23.1973 26.0061 23.0061 26.1973 22.8862 26.4325C22.7961 26.6093 22.7699 26.7808 22.7593 26.9105C22.7499 27.0252 22.75 27.1576 22.75 27.2798V28.7202Z" fill="#5F5F6A"/>
<path d="M22.75 21.2798V22.7202C22.75 22.8424 22.7499 22.9748 22.7593 23.0895C22.7699 23.2192 22.7961 23.3907 22.8862 23.5675C23.0061 23.8027 23.1973 23.9939 23.4325 24.1138C23.6093 24.2039 23.7808 24.2301 23.9105 24.2407C24.0252 24.2501 24.1576 24.25 24.2798 24.25H25.7202C25.8424 24.25 25.9748 24.2501 26.0895 24.2407C26.2192 24.2301 26.3907 24.2039 26.5675 24.1138C26.8027 23.9939 26.9939 23.8027 27.1138 23.5675C27.2039 23.3907 27.2301 23.2192 27.2407 23.0895C27.2501 22.9748 27.25 22.8424 27.25 22.7202V21.2798C27.25 21.1576 27.2501 21.0252 27.2407 20.9105C27.2301 20.7808 27.2039 20.6093 27.1138 20.4325C26.9939 20.1973 26.8027 20.0061 26.5675 19.8862C26.3907 19.7962 26.2192 19.7699 26.0895 19.7593C25.9749 19.7499 25.8424 19.75 25.7203 19.75H24.2798C24.1576 19.75 24.0252 19.7499 23.9105 19.7593C23.7808 19.7699 23.6093 19.7962 23.4325 19.8862C23.1973 20.0061 23.0061 20.1973 22.8862 20.4325C22.7961 20.6093 22.7699 20.7808 22.7593 20.9105C22.7499 21.0252 22.75 21.1576 22.75 21.2798Z" fill="#5F5F6A"/>
<path d="M28.75 34.7202C28.75 34.8424 28.7499 34.9748 28.7593 35.0895C28.7699 35.2192 28.7961 35.3907 28.8862 35.5675C29.0061 35.8027 29.1973 35.9939 29.4325 36.1138C29.6093 36.2039 29.7808 36.2301 29.9105 36.2407C30.0252 36.2501 30.1576 36.25 30.2798 36.25H31.7202C31.8424 36.25 31.9748 36.2501 32.0895 36.2407C32.2192 36.2301 32.3907 36.2039 32.5675 36.1138C32.8027 35.9939 32.9939 35.8027 33.1138 35.5675C33.2039 35.3907 33.2301 35.2192 33.2407 35.0895C33.2501 34.9748 33.25 34.8424 33.25 34.7203V33.2798C33.25 33.1576 33.2501 33.0252 33.2407 32.9105C33.2301 32.7808 33.2039 32.6093 33.1138 32.4325C32.9939 32.1973 32.8027 32.0061 32.5675 31.8862C32.3907 31.7961 32.2192 31.7699 32.0895 31.7593C31.9748 31.7499 31.8424 31.75 31.7202 31.75H30.2798C30.1576 31.75 30.0252 31.7499 29.9105 31.7593C29.7808 31.7699 29.6093 31.7961 29.4325 31.8862C29.1973 32.0061 29.0061 32.1973 28.8862 32.4325C28.7961 32.6093 28.7699 32.7808 28.7593 32.9105C28.7499 33.0252 28.75 33.1576 28.75 33.2798V34.7202Z" fill="#5F5F6A"/>
<path d="M28.75 28.7202C28.75 28.8424 28.7499 28.9748 28.7593 29.0895C28.7699 29.2192 28.7961 29.3907 28.8862 29.5675C29.0061 29.8027 29.1973 29.9939 29.4325 30.1138C29.6093 30.2039 29.7808 30.2301 29.9105 30.2407C30.0252 30.2501 30.1576 30.25 30.2798 30.25H31.7202C31.8424 30.25 31.9748 30.2501 32.0895 30.2407C32.2192 30.2301 32.3907 30.2039 32.5675 30.1138C32.8027 29.9939 32.9939 29.8027 33.1138 29.5675C33.2039 29.3907 33.2301 29.2192 33.2407 29.0895C33.2501 28.9748 33.25 28.8424 33.25 28.7203V27.2798C33.25 27.1576 33.2501 27.0252 33.2407 26.9105C33.2301 26.7808 33.2039 26.6093 33.1138 26.4325C32.9939 26.1973 32.8027 26.0061 32.5675 25.8862C32.3907 25.7961 32.2192 25.7699 32.0895 25.7593C31.9748 25.7499 31.8424 25.75 31.7203 25.75H30.2798C30.1576 25.75 30.0252 25.7499 29.9105 25.7593C29.7808 25.7699 29.6093 25.7961 29.4325 25.8862C29.1973 26.0061 29.0061 26.1973 28.8862 26.4325C28.7961 26.6093 28.7699 26.7808 28.7593 26.9105C28.7499 27.0252 28.75 27.1576 28.75 27.2798V28.7202Z" fill="#5F5F6A"/>
<path d="M28.75 21.2798V22.7202C28.75 22.8424 28.7499 22.9748 28.7593 23.0895C28.7699 23.2192 28.7961 23.3907 28.8862 23.5675C29.0061 23.8027 29.1973 23.9939 29.4325 24.1138C29.6093 24.2039 29.7808 24.2301 29.9105 24.2407C30.0252 24.2501 30.1576 24.25 30.2798 24.25H31.7202C31.8424 24.25 31.9748 24.2501 32.0895 24.2407C32.2192 24.2301 32.3907 24.2039 32.5675 24.1138C32.8027 23.9939 32.9939 23.8027 33.1138 23.5675C33.2039 23.3907 33.2301 23.2192 33.2407 23.0895C33.2501 22.9748 33.25 22.8424 33.25 22.7203V21.2798C33.25 21.1576 33.2501 21.0252 33.2407 20.9105C33.2301 20.7808 33.2039 20.6093 33.1138 20.4325C32.9939 20.1973 32.8027 20.0061 32.5675 19.8862C32.3907 19.7961 32.2192 19.7699 32.0895 19.7593C31.9749 19.7499 31.8424 19.75 31.7203 19.75H30.2798C30.1576 19.75 30.0252 19.7499 29.9105 19.7593C29.7808 19.7699 29.6093 19.7961 29.4325 19.8862C29.1973 20.0061 29.0061 20.1973 28.8862 20.4325C28.7961 20.6093 28.7699 20.7808 28.7593 20.9105C28.7499 21.0252 28.75 21.1576 28.75 21.2798Z" fill="#5F5F6A"/>
<g opacity="0.5">
<path d="M24.25 90.75V89.25H25.75V90.75H24.25Z" fill="#5F5F6A"/>
<path d="M24.25 84.75V83.25H25.75V84.75L24.25 84.75Z" fill="#5F5F6A"/>
<path d="M24.25 78.75V77.25H25.75V78.75H24.25Z" fill="#5F5F6A"/>
<path d="M30.25 90.75V89.25H31.75V90.75H30.25Z" fill="#5F5F6A"/>
<path d="M30.25 84.75V83.25H31.75V84.75L30.25 84.75Z" fill="#5F5F6A"/>
<path d="M30.25 78.75V77.25H31.75V78.75H30.25Z" fill="#5F5F6A"/>
</g>
<path fill-rule="evenodd" clip-rule="evenodd" d="M22.75 90.7202C22.75 90.7135 22.75 90.7067 22.75 90.7V89.3C22.75 89.2933 22.75 89.2866 22.75 89.2798C22.75 89.1576 22.7499 89.0252 22.7593 88.9105C22.7699 88.7808 22.7961 88.6093 22.8862 88.4325C23.0061 88.1973 23.1973 88.0061 23.4325 87.8862C23.6093 87.7961 23.7808 87.7699 23.9105 87.7593C24.0252 87.7499 24.1576 87.75 24.2798 87.75C24.2866 87.75 24.2933 87.75 24.3 87.75H25.7C25.7067 87.75 25.7134 87.75 25.7202 87.75C25.8424 87.75 25.9748 87.7499 26.0895 87.7593C26.2192 87.7699 26.3907 87.7961 26.5675 87.8862C26.8027 88.0061 26.9939 88.1973 27.1138 88.4325C27.2039 88.6093 27.2301 88.7808 27.2407 88.9105C27.2501 89.0252 27.25 89.1576 27.25 89.2798C27.25 89.2866 27.25 89.2933 27.25 89.3V90.7C27.25 90.7067 27.25 90.7134 27.25 90.7202C27.25 90.8424 27.2501 90.9748 27.2407 91.0895C27.2301 91.2192 27.2039 91.3907 27.1138 91.5675C26.9939 91.8027 26.8027 91.9939 26.5675 92.1138C26.3907 92.2039 26.2192 92.2301 26.0895 92.2407C25.9748 92.2501 25.8424 92.25 25.7202 92.25C25.7135 92.25 25.7067 92.25 25.7 92.25H24.3C24.2933 92.25 24.2866 92.25 24.2798 92.25C24.1576 92.25 24.0252 92.2501 23.9105 92.2407C23.7808 92.2301 23.6093 92.2039 23.4325 92.1138C23.1973 91.9939 23.0061 91.8027 22.8862 91.5675C22.7961 91.3907 22.7699 91.2192 22.7593 91.0895C22.7499 90.9748 22.75 90.8424 22.75 90.7202ZM24.25 90.75C24.2658 90.75 24.2824 90.75 24.3 90.75H25.7C25.7176 90.75 25.7343 90.75 25.75 90.75C25.75 90.7343 25.75 90.7176 25.75 90.7V89.3C25.75 89.2824 25.75 89.2658 25.75 89.25C25.7343 89.25 25.7176 89.25 25.7 89.25H24.3C24.2824 89.25 24.2658 89.25 24.25 89.25C24.25 89.2658 24.25 89.2824 24.25 89.3V90.7C24.25 90.7176 24.25 90.7343 24.25 90.75ZM22.75 84.7202C22.75 84.7135 22.75 84.7067 22.75 84.7V83.3C22.75 83.2933 22.75 83.2866 22.75 83.2798C22.75 83.1576 22.7499 83.0252 22.7593 82.9105C22.7699 82.7808 22.7961 82.6093 22.8862 82.4325C23.0061 82.1973 23.1973 82.0061 23.4325 81.8862C23.6093 81.7961 23.7808 81.7699 23.9105 81.7593C24.0252 81.7499 24.1576 81.75 24.2798 81.75C24.2866 81.75 24.2933 81.75 24.3 81.75H25.7C25.7067 81.75 25.7135 81.75 25.7202 81.75C25.8424 81.75 25.9748 81.7499 26.0895 81.7593C26.2192 81.7699 26.3907 81.7961 26.5675 81.8862C26.8027 82.0061 26.9939 82.1973 27.1138 82.4325C27.2039 82.6093 27.2301 82.7808 27.2407 82.9105C27.2501 83.0252 27.25 83.1576 27.25 83.2798C27.25 83.2866 27.25 83.2933 27.25 83.3V84.7C27.25 84.7067 27.25 84.7134 27.25 84.7202C27.25 84.8424 27.2501 84.9748 27.2407 85.0895C27.2301 85.2192 27.2039 85.3907 27.1138 85.5675C26.9939 85.8027 26.8027 85.9939 26.5675 86.1138C26.3907 86.2039 26.2192 86.2301 26.0895 86.2407C25.9748 86.2501 25.8424 86.25 25.7202 86.25C25.7134 86.25 25.7067 86.25 25.7 86.25H24.3C24.2933 86.25 24.2866 86.25 24.2798 86.25C24.1576 86.25 24.0252 86.2501 23.9105 86.2407C23.7808 86.2301 23.6093 86.2039 23.4325 86.1138C23.1973 85.9939 23.0061 85.8027 22.8862 85.5675C22.7961 85.3907 22.7699 85.2192 22.7593 85.0895C22.7499 84.9748 22.75 84.8424 22.75 84.7202ZM24.25 84.75C24.2658 84.75 24.2824 84.75 24.3 84.75H25.7C25.7176 84.75 25.7343 84.75 25.75 84.75C25.75 84.7343 25.75 84.7176 25.75 84.7V83.3C25.75 83.2824 25.75 83.2658 25.75 83.25C25.7343 83.25 25.7176 83.25 25.7 83.25H24.3C24.2824 83.25 24.2658 83.25 24.25 83.25C24.25 83.2658 24.25 83.2824 24.25 83.3V84.7C24.25 84.7176 24.25 84.7343 24.25 84.75ZM22.75 78.7202V77.2798C22.75 77.1576 22.7499 77.0252 22.7593 76.9105C22.7699 76.7808 22.7961 76.6093 22.8862 76.4325C23.0061 76.1973 23.1973 76.0061 23.4325 75.8862C23.6093 75.7962 23.7808 75.7699 23.9105 75.7593C24.0252 75.7499 24.1576 75.75 24.2798 75.75H25.7202C25.8424 75.75 25.9748 75.7499 26.0895 75.7593C26.2192 75.7699 26.3907 75.7962 26.5675 75.8862C26.8027 76.0061 26.9939 76.1973 27.1138 76.4325C27.2039 76.6093 27.2301 76.7808 27.2407 76.9105C27.2501 77.0252 27.25 77.1576 27.25 77.2798V78.7202C27.25 78.8424 27.2501 78.9748 27.2407 79.0895C27.2301 79.2192 27.2039 79.3907 27.1138 79.5675C26.9939 79.8027 26.8027 79.9939 26.5675 80.1138C26.3907 80.2039 26.2192 80.2301 26.0895 80.2407C25.9748 80.2501 25.8424 80.25 25.7202 80.25H24.2798C24.1576 80.25 24.0252 80.2501 23.9105 80.2407C23.7808 80.2301 23.6093 80.2039 23.4325 80.1138C23.1973 79.9939 23.0061 79.8027 22.8862 79.5675C22.7961 79.3907 22.7699 79.2192 22.7593 79.0895C22.7499 78.9748 22.75 78.8424 22.75 78.7202ZM24.25 78.75C24.2658 78.75 24.2824 78.75 24.3 78.75H25.7C25.7176 78.75 25.7343 78.75 25.75 78.75C25.75 78.7343 25.75 78.7176 25.75 78.7V77.3C25.75 77.2824 25.75 77.2658 25.75 77.25C25.7343 77.25 25.7176 77.25 25.7 77.25H24.3C24.2824 77.25 24.2658 77.25 24.25 77.25C24.25 77.2658 24.25 77.2824 24.25 77.3V78.7C24.25 78.7176 24.25 78.7343 24.25 78.75ZM28.75 90.7202C28.75 90.7134 28.75 90.7067 28.75 90.7V89.3C28.75 89.2933 28.75 89.2866 28.75 89.2798C28.75 89.1576 28.7499 89.0252 28.7593 88.9105C28.7699 88.7808 28.7961 88.6093 28.8862 88.4325C29.0061 88.1973 29.1973 88.0061 29.4325 87.8862C29.6093 87.7961 29.7808 87.7699 29.9105 87.7593C30.0252 87.7499 30.1576 87.75 30.2798 87.75C30.2866 87.75 30.2933 87.75 30.3 87.75H31.7C31.7067 87.75 31.7134 87.75 31.7202 87.75C31.8424 87.75 31.9748 87.7499 32.0895 87.7593C32.2192 87.7699 32.3907 87.7961 32.5675 87.8862C32.8027 88.0061 32.9939 88.1973 33.1138 88.4325C33.2039 88.6093 33.2301 88.7808 33.2407 88.9105C33.2501 89.0252 33.25 89.1576 33.25 89.2798C33.25 89.2866 33.25 89.2933 33.25 89.3V90.7C33.25 90.7067 33.25 90.7135 33.25 90.7202C33.25 90.8424 33.2501 90.9748 33.2407 91.0895C33.2301 91.2192 33.2039 91.3907 33.1138 91.5675C32.9939 91.8027 32.8027 91.9939 32.5675 92.1138C32.3907 92.2039 32.2192 92.2301 32.0895 92.2407C31.9748 92.2501 31.8424 92.25 31.7202 92.25C31.7135 92.25 31.7067 92.25 31.7 92.25H30.3C30.2933 92.25 30.2866 92.25 30.2798 92.25C30.1576 92.25 30.0252 92.2501 29.9105 92.2407C29.7808 92.2301 29.6093 92.2039 29.4325 92.1138C29.1973 91.9939 29.0061 91.8027 28.8862 91.5675C28.7961 91.3907 28.7699 91.2192 28.7593 91.0895C28.7499 90.9748 28.75 90.8424 28.75 90.7202ZM30.25 90.75C30.2658 90.75 30.2824 90.75 30.3 90.75H31.7C31.7176 90.75 31.7343 90.75 31.75 90.75C31.75 90.7343 31.75 90.7176 31.75 90.7V89.3C31.75 89.2824 31.75 89.2658 31.75 89.25C31.7343 89.25 31.7176 89.25 31.7 89.25H30.3C30.2824 89.25 30.2658 89.25 30.25 89.25C30.25 89.2658 30.25 89.2824 30.25 89.3V90.7C30.25 90.7176 30.25 90.7343 30.25 90.75ZM28.75 84.7202C28.75 84.7134 28.75 84.7067 28.75 84.7L28.75 83.2798C28.75 83.1576 28.7499 83.0252 28.7593 82.9105C28.7699 82.7808 28.7961 82.6093 28.8862 82.4325C29.0061 82.1973 29.1973 82.0061 29.4325 81.8862C29.6093 81.7961 29.7808 81.7699 29.9105 81.7593C30.0252 81.7499 30.1576 81.75 30.2798 81.75C30.2866 81.75 30.2933 81.75 30.3 81.75H31.7C31.7067 81.75 31.7135 81.75 31.7202 81.75C31.8424 81.75 31.9748 81.7499 32.0895 81.7593C32.2192 81.7699 32.3907 81.7961 32.5675 81.8862C32.8027 82.0061 32.9939 82.1973 33.1138 82.4325C33.2039 82.6093 33.2301 82.7808 33.2407 82.9105C33.2501 83.0252 33.25 83.1576 33.25 83.2798C33.25 83.2866 33.25 83.2933 33.25 83.3V84.7C33.25 84.7067 33.25 84.7135 33.25 84.7202C33.25 84.8424 33.2501 84.9748 33.2407 85.0895C33.2301 85.2192 33.2039 85.3907 33.1138 85.5675C32.9939 85.8027 32.8027 85.9939 32.5675 86.1138C32.3907 86.2039 32.2192 86.2301 32.0895 86.2407C31.9748 86.2501 31.8424 86.25 31.7202 86.25L30.3 86.25C30.2933 86.25 30.2866 86.25 30.2798 86.25C30.1576 86.25 30.0252 86.2501 29.9105 86.2407C29.7808 86.2301 29.6093 86.2039 29.4325 86.1138C29.1973 85.9939 29.0061 85.8027 28.8862 85.5675C28.7961 85.3907 28.7699 85.2192 28.7593 85.0895C28.7499 84.9748 28.75 84.8424 28.75 84.7202ZM30.25 84.75C30.2658 84.75 30.2824 84.75 30.3 84.75H31.7C31.7176 84.75 31.7343 84.75 31.75 84.75C31.75 84.7343 31.75 84.7176 31.75 84.7V83.3C31.75 83.2824 31.75 83.2658 31.75 83.25C31.7343 83.25 31.7176 83.25 31.7 83.25H30.3C30.2824 83.25 30.2658 83.25 30.25 83.25C30.25 83.2658 30.25 83.2824 30.25 83.3V84.7C30.25 84.7176 30.25 84.7343 30.25 84.75ZM28.75 78.7202V77.2798C28.75 77.1576 28.7499 77.0252 28.7593 76.9105C28.7699 76.7808 28.7961 76.6093 28.8862 76.4325C29.0061 76.1973 29.1973 76.0061 29.4325 75.8862C29.6093 75.7961 29.7808 75.7699 29.9105 75.7593C30.0252 75.7499 30.1576 75.75 30.2798 75.75H31.7202C31.8424 75.75 31.9748 75.7499 32.0895 75.7593C32.2192 75.7699 32.3907 75.7961 32.5675 75.8862C32.8027 76.0061 32.9939 76.1973 33.1138 76.4325C33.2039 76.6093 33.2301 76.7808 33.2407 76.9105C33.2501 77.0252 33.25 77.1576 33.25 77.2798V78.7202C33.25 78.8424 33.2501 78.9748 33.2407 79.0895C33.2301 79.2192 33.2039 79.3907 33.1138 79.5675C32.9939 79.8027 32.8027 79.9939 32.5675 80.1138C32.3907 80.2039 32.2192 80.2301 32.0895 80.2407C31.9748 80.2501 31.8424 80.25 31.7202 80.25H30.2798C30.1576 80.25 30.0252 80.2501 29.9105 80.2407C29.7808 80.2301 29.6093 80.2039 29.4325 80.1138C29.1973 79.9939 29.0061 79.8027 28.8862 79.5675C28.7961 79.3907 28.7699 79.2192 28.7593 79.0895C28.7499 78.9748 28.75 78.8424 28.75 78.7202ZM30.25 78.75C30.2658 78.75 30.2824 78.75 30.3 78.75H31.7C31.7176 78.75 31.7343 78.75 31.75 78.75C31.75 78.7343 31.75 78.7176 31.75 78.7V77.3C31.75 77.2824 31.75 77.2658 31.75 77.25C31.7343 77.25 31.7176 77.25 31.7 77.25H30.3C30.2824 77.25 30.2658 77.25 30.25 77.25C30.25 77.2658 30.25 77.2824 30.25 77.3V78.7C30.25 78.7176 30.25 78.7343 30.25 78.75Z" fill="#5F5F6A"/>
<path fill-rule="evenodd" clip-rule="evenodd" d="M22.75 146.72C22.75 146.713 22.75 146.707 22.75 146.7V145.3C22.75 145.293 22.75 145.287 22.75 145.28C22.75 145.158 22.7499 145.025 22.7593 144.911C22.7699 144.781 22.7961 144.609 22.8862 144.433C23.0061 144.197 23.1973 144.006 23.4325 143.886C23.6093 143.796 23.7808 143.77 23.9105 143.759C24.0252 143.75 24.1576 143.75 24.2798 143.75C24.2866 143.75 24.2933 143.75 24.3 143.75H25.7C25.7067 143.75 25.7134 143.75 25.7202 143.75C25.8424 143.75 25.9748 143.75 26.0895 143.759C26.2192 143.77 26.3907 143.796 26.5675 143.886C26.8027 144.006 26.9939 144.197 27.1138 144.433C27.2039 144.609 27.2301 144.781 27.2407 144.911C27.2501 145.025 27.25 145.158 27.25 145.28C27.25 145.287 27.25 145.293 27.25 145.3V146.7C27.25 146.707 27.25 146.713 27.25 146.72C27.25 146.842 27.2501 146.975 27.2407 147.089C27.2301 147.219 27.2039 147.391 27.1138 147.567C26.9939 147.803 26.8027 147.994 26.5675 148.114C26.3907 148.204 26.2192 148.23 26.0895 148.241C25.9748 148.25 25.8424 148.25 25.7202 148.25C25.7135 148.25 25.7067 148.25 25.7 148.25H24.3C24.2933 148.25 24.2866 148.25 24.2798 148.25C24.1576 148.25 24.0252 148.25 23.9105 148.241C23.7808 148.23 23.6093 148.204 23.4325 148.114C23.1973 147.994 23.0061 147.803 22.8862 147.567C22.7961 147.391 22.7699 147.219 22.7593 147.089C22.7499 146.975 22.75 146.842 22.75 146.72ZM24.25 146.75C24.2658 146.75 24.2824 146.75 24.3 146.75H25.7C25.7176 146.75 25.7343 146.75 25.75 146.75C25.75 146.734 25.75 146.718 25.75 146.7V145.3C25.75 145.282 25.75 145.266 25.75 145.25C25.7343 145.25 25.7176 145.25 25.7 145.25H24.3C24.2824 145.25 24.2658 145.25 24.25 145.25C24.25 145.266 24.25 145.282 24.25 145.3V146.7C24.25 146.718 24.25 146.734 24.25 146.75ZM22.75 140.72C22.75 140.713 22.75 140.707 22.75 140.7V139.3C22.75 139.293 22.75 139.287 22.75 139.28C22.75 139.158 22.7499 139.025 22.7593 138.911C22.7699 138.781 22.7961 138.609 22.8862 138.433C23.0061 138.197 23.1973 138.006 23.4325 137.886C23.6093 137.796 23.7808 137.77 23.9105 137.759C24.0252 137.75 24.1576 137.75 24.2798 137.75C24.2866 137.75 24.2933 137.75 24.3 137.75H25.7C25.7067 137.75 25.7135 137.75 25.7202 137.75C25.8424 137.75 25.9748 137.75 26.0895 137.759C26.2192 137.77 26.3907 137.796 26.5675 137.886C26.8027 138.006 26.9939 138.197 27.1138 138.433C27.2039 138.609 27.2301 138.781 27.2407 138.911C27.2501 139.025 27.25 139.158 27.25 139.28C27.25 139.287 27.25 139.293 27.25 139.3V140.7C27.25 140.707 27.25 140.713 27.25 140.72C27.25 140.842 27.2501 140.975 27.2407 141.089C27.2301 141.219 27.2039 141.391 27.1138 141.567C26.9939 141.803 26.8027 141.994 26.5675 142.114C26.3907 142.204 26.2192 142.23 26.0895 142.241C25.9748 142.25 25.8424 142.25 25.7202 142.25C25.7134 142.25 25.7067 142.25 25.7 142.25H24.3C24.2933 142.25 24.2866 142.25 24.2798 142.25C24.1576 142.25 24.0252 142.25 23.9105 142.241C23.7808 142.23 23.6093 142.204 23.4325 142.114C23.1973 141.994 23.0061 141.803 22.8862 141.567C22.7961 141.391 22.7699 141.219 22.7593 141.089C22.7499 140.975 22.75 140.842 22.75 140.72ZM24.25 140.75C24.2658 140.75 24.2824 140.75 24.3 140.75H25.7C25.7176 140.75 25.7343 140.75 25.75 140.75C25.75 140.734 25.75 140.718 25.75 140.7V139.3C25.75 139.282 25.75 139.266 25.75 139.25C25.7343 139.25 25.7176 139.25 25.7 139.25H24.3C24.2824 139.25 24.2658 139.25 24.25 139.25C24.25 139.266 24.25 139.282 24.25 139.3V140.7C24.25 140.718 24.25 140.734 24.25 140.75ZM22.75 134.72V133.28C22.75 133.158 22.7499 133.025 22.7593 132.911C22.7699 132.781 22.7961 132.609 22.8862 132.433C23.0061 132.197 23.1973 132.006 23.4325 131.886C23.6093 131.796 23.7808 131.77 23.9105 131.759C24.0252 131.75 24.1576 131.75 24.2798 131.75H25.7202C25.8424 131.75 25.9748 131.75 26.0895 131.759C26.2192 131.77 26.3907 131.796 26.5675 131.886C26.8027 132.006 26.9939 132.197 27.1138 132.433C27.2039 132.609 27.2301 132.781 27.2407 132.911C27.2501 133.025 27.25 133.158 27.25 133.28V134.72C27.25 134.842 27.2501 134.975 27.2407 135.089C27.2301 135.219 27.2039 135.391 27.1138 135.567C26.9939 135.803 26.8027 135.994 26.5675 136.114C26.3907 136.204 26.2192 136.23 26.0895 136.241C25.9748 136.25 25.8424 136.25 25.7202 136.25H24.2798C24.1576 136.25 24.0252 136.25 23.9105 136.241C23.7808 136.23 23.6093 136.204 23.4325 136.114C23.1973 135.994 23.0061 135.803 22.8862 135.567C22.7961 135.391 22.7699 135.219 22.7593 135.089C22.7499 134.975 22.75 134.842 22.75 134.72ZM24.25 134.75C24.2658 134.75 24.2824 134.75 24.3 134.75H25.7C25.7176 134.75 25.7343 134.75 25.75 134.75C25.75 134.734 25.75 134.718 25.75 134.7V133.3C25.75 133.282 25.75 133.266 25.75 133.25C25.7343 133.25 25.7176 133.25 25.7 133.25H24.3C24.2824 133.25 24.2658 133.25 24.25 133.25C24.25 133.266 24.25 133.282 24.25 133.3V134.7C24.25 134.718 24.25 134.734 24.25 134.75ZM28.75 146.72C28.75 146.713 28.75 146.707 28.75 146.7V145.3C28.75 145.293 28.75 145.287 28.75 145.28C28.75 145.158 28.7499 145.025 28.7593 144.911C28.7699 144.781 28.7961 144.609 28.8862 144.433C29.0061 144.197 29.1973 144.006 29.4325 143.886C29.6093 143.796 29.7808 143.77 29.9105 143.759C30.0252 143.75 30.1576 143.75 30.2798 143.75C30.2866 143.75 30.2933 143.75 30.3 143.75H31.7C31.7067 143.75 31.7134 143.75 31.7202 143.75C31.8424 143.75 31.9748 143.75 32.0895 143.759C32.2192 143.77 32.3907 143.796 32.5675 143.886C32.8027 144.006 32.9939 144.197 33.1138 144.433C33.2039 144.609 33.2301 144.781 33.2407 144.911C33.2501 145.025 33.25 145.158 33.25 145.28C33.25 145.287 33.25 145.293 33.25 145.3V146.7C33.25 146.707 33.25 146.713 33.25 146.72C33.25 146.842 33.2501 146.975 33.2407 147.089C33.2301 147.219 33.2039 147.391 33.1138 147.567C32.9939 147.803 32.8027 147.994 32.5675 148.114C32.3907 148.204 32.2192 148.23 32.0895 148.241C31.9748 148.25 31.8424 148.25 31.7202 148.25C31.7135 148.25 31.7067 148.25 31.7 148.25H30.3C30.2933 148.25 30.2866 148.25 30.2798 148.25C30.1576 148.25 30.0252 148.25 29.9105 148.241C29.7808 148.23 29.6093 148.204 29.4325 148.114C29.1973 147.994 29.0061 147.803 28.8862 147.567C28.7961 147.391 28.7699 147.219 28.7593 147.089C28.7499 146.975 28.75 146.842 28.75 146.72ZM30.25 146.75C30.2658 146.75 30.2824 146.75 30.3 146.75H31.7C31.7176 146.75 31.7343 146.75 31.75 146.75C31.75 146.734 31.75 146.718 31.75 146.7V145.3C31.75 145.282 31.75 145.266 31.75 145.25C31.7343 145.25 31.7176 145.25 31.7 145.25H30.3C30.2824 145.25 30.2658 145.25 30.25 145.25C30.25 145.266 30.25 145.282 30.25 145.3V146.7C30.25 146.718 30.25 146.734 30.25 146.75ZM28.75 140.72C28.7501 140.24 28.75 139.76 28.75 139.28C28.7499 138.99 28.7515 138.697 28.8862 138.433C29.0061 138.197 29.1973 138.006 29.4325 137.886C29.6093 137.796 29.7808 137.77 29.9105 137.759C30.0315 137.749 30.1724 137.75 30.3 137.75H31.7C31.8276 137.75 31.9685 137.749 32.0895 137.759C32.2192 137.77 32.3907 137.796 32.5675 137.886C32.8027 138.006 32.9939 138.197 33.1138 138.433C33.2039 138.609 33.2301 138.781 33.2407 138.911C33.2501 139.025 33.25 139.158 33.25 139.28C33.25 139.287 33.25 139.293 33.25 139.3C33.25 139.773 33.2499 140.247 33.25 140.72C33.25 140.842 33.2501 140.975 33.2407 141.089C33.2301 141.219 33.2039 141.391 33.1138 141.567C32.9939 141.803 32.8027 141.994 32.5675 142.114C32.3907 142.204 32.2192 142.23 32.0895 142.241C31.9748 142.25 31.8424 142.25 31.7202 142.25L30.3 142.25C30.2933 142.25 30.2866 142.25 30.2798 142.25C30.1576 142.25 30.0252 142.25 29.9105 142.241C29.7808 142.23 29.6093 142.204 29.4325 142.114C29.1973 141.994 29.0061 141.803 28.8862 141.567C28.7961 141.391 28.7699 141.219 28.7593 141.089C28.7499 140.975 28.75 140.842 28.75 140.72ZM30.25 140.75C30.2658 140.75 30.2824 140.75 30.3 140.75H31.7C31.7176 140.75 31.7343 140.75 31.75 140.75C31.75 140.734 31.75 140.718 31.75 140.7V139.3C31.75 139.282 31.75 139.266 31.75 139.25C31.7343 139.25 31.7176 139.25 31.7 139.25H30.3C30.2824 139.25 30.2658 139.25 30.25 139.25C30.25 139.266 30.25 139.282 30.25 139.3V140.7C30.25 140.718 30.25 140.734 30.25 140.75ZM28.75 134.72V133.28C28.75 133.158 28.7499 133.025 28.7593 132.911C28.7699 132.781 28.7961 132.609 28.8862 132.433C29.0061 132.197 29.1973 132.006 29.4325 131.886C29.6093 131.796 29.7808 131.77 29.9105 131.759C30.0252 131.75 30.1576 131.75 30.2798 131.75H31.7202C31.8424 131.75 31.9748 131.75 32.0895 131.759C32.2192 131.77 32.3907 131.796 32.5675 131.886C32.8027 132.006 32.9939 132.197 33.1138 132.433C33.2039 132.609 33.2301 132.781 33.2407 132.911C33.2501 133.025 33.25 133.158 33.25 133.28V134.72C33.25 134.842 33.2501 134.975 33.2407 135.089C33.2301 135.219 33.2039 135.391 33.1138 135.567C32.9939 135.803 32.8027 135.994 32.5675 136.114C32.3907 136.204 32.2192 136.23 32.0895 136.241C31.9748 136.25 31.8424 136.25 31.7202 136.25H30.2798C30.1576 136.25 30.0252 136.25 29.9105 136.241C29.7808 136.23 29.6093 136.204 29.4325 136.114C29.1973 135.994 29.0061 135.803 28.8862 135.567C28.7961 135.391 28.7699 135.219 28.7593 135.089C28.7499 134.975 28.75 134.842 28.75 134.72ZM30.25 134.75C30.2658 134.75 30.2824 134.75 30.3 134.75H31.7C31.7176 134.75 31.7343 134.75 31.75 134.75C31.75 134.734 31.75 134.718 31.75 134.7V133.3C31.75 133.282 31.75 133.266 31.75 133.25C31.7343 133.25 31.7176 133.25 31.7 133.25H30.3C30.2824 133.25 30.2658 133.25 30.25 133.25C30.25 133.266 30.25 133.282 30.25 133.3V134.7C30.25 134.718 30.25 134.734 30.25 134.75Z" fill="#5F5F6A"/>
<path fill-rule="evenodd" clip-rule="evenodd" d="M23 202.716C23 202.711 23 202.705 23 202.7V201.3C23 201.295 23 201.289 23 201.284C23 201.158 23 201.035 23.0085 200.931C23.0178 200.817 23.0398 200.682 23.109 200.546C23.2049 200.358 23.3578 200.205 23.546 200.109C23.6817 200.04 23.8166 200.018 23.9309 200.008C24.035 200 24.1579 200 24.2841 200C24.2894 200 24.2947 200 24.3 200H25.7C25.7053 200 25.7106 200 25.716 200C25.8421 200 25.965 200 26.0691 200.008C26.1834 200.018 26.3183 200.04 26.454 200.109C26.6422 200.205 26.7951 200.358 26.891 200.546C26.9602 200.682 26.9822 200.817 26.9915 200.931C27 201.035 27 201.158 27 201.284C27 201.289 27 201.295 27 201.3V202.7C27 202.705 27 202.711 27 202.716C27 202.842 27 202.965 26.9915 203.069C26.9822 203.183 26.9602 203.318 26.891 203.454C26.7951 203.642 26.6422 203.795 26.454 203.891C26.3183 203.96 26.1834 203.982 26.0691 203.992C25.965 204 25.8421 204 25.716 204C25.7106 204 25.7053 204 25.7 204H24.3C24.2947 204 24.2894 204 24.2841 204C24.1579 204 24.035 204 23.9309 203.992C23.8166 203.982 23.6817 203.96 23.546 203.891C23.3578 203.795 23.2049 203.642 23.109 203.454C23.0398 203.318 23.0178 203.183 23.0085 203.069C23 202.965 23 202.842 23 202.716ZM24.0057 202.994C24.0078 202.994 24.01 202.995 24.0123 202.995C24.0706 203 24.1517 203 24.3 203H25.7C25.8483 203 25.9294 203 25.9877 202.995C25.99 202.995 25.9922 202.994 25.9943 202.994C25.9945 202.992 25.9947 202.99 25.9949 202.988C25.9996 202.929 26 202.848 26 202.7V201.3C26 201.152 25.9996 201.071 25.9949 201.012C25.9947 201.01 25.9945 201.008 25.9943 201.006C25.9922 201.006 25.99 201.005 25.9877 201.005C25.9294 201 25.8483 201 25.7 201H24.3C24.1517 201 24.0706 201 24.0123 201.005C24.01 201.005 24.0078 201.006 24.0057 201.006C24.0055 201.008 24.0053 201.01 24.0052 201.012C24.0004 201.071 24 201.152 24 201.3V202.7C24 202.848 24.0004 202.929 24.0052 202.988C24.0053 202.99 24.0055 202.992 24.0057 202.994ZM23 196.716V195.284C23 195.158 23 195.035 23.0085 194.931C23.0178 194.817 23.0398 194.682 23.109 194.546C23.2049 194.358 23.3579 194.205 23.546 194.109C23.6817 194.04 23.8166 194.018 23.9309 194.008C24.035 194 24.1579 194 24.284 194H25.716C25.8421 194 25.965 194 26.0691 194.008C26.1834 194.018 26.3183 194.04 26.454 194.109C26.6422 194.205 26.7951 194.358 26.891 194.546C26.9602 194.682 26.9822 194.817 26.9915 194.931C27 195.035 27 195.158 27 195.284V196.716C27 196.842 27 196.965 26.9915 197.069C26.9822 197.183 26.9602 197.318 26.891 197.454C26.7951 197.642 26.6422 197.795 26.454 197.891C26.3183 197.96 26.1834 197.982 26.0691 197.992C25.965 198 25.8421 198 25.7159 198H24.2841C24.1579 198 24.035 198 23.9309 197.992C23.8166 197.982 23.6817 197.96 23.546 197.891C23.3579 197.795 23.2049 197.642 23.109 197.454C23.0398 197.318 23.0178 197.183 23.0085 197.069C23 196.965 23 196.842 23 196.716ZM24.0057 196.994C24.0078 196.994 24.01 196.995 24.0123 196.995C24.0706 197 24.1517 197 24.3 197H25.7C25.8483 197 25.9294 197 25.9877 196.995C25.99 196.995 25.9922 196.994 25.9943 196.994C25.9945 196.992 25.9947 196.99 25.9949 196.988C25.9996 196.929 26 196.848 26 196.7V195.3C26 195.152 25.9996 195.071 25.9949 195.012C25.9947 195.01 25.9945 195.008 25.9943 195.006C25.9922 195.006 25.99 195.005 25.9877 195.005C25.9294 195 25.8483 195 25.7 195H24.3C24.1517 195 24.0706 195 24.0123 195.005C24.01 195.005 24.0078 195.006 24.0057 195.006C24.0055 195.008 24.0053 195.01 24.0052 195.012C24.0004 195.071 24 195.152 24 195.3V196.7C24 196.848 24.0004 196.929 24.0052 196.988C24.0053 196.99 24.0055 196.992 24.0057 196.994ZM23 190.716V189.284C23 189.158 23 189.035 23.0085 188.931C23.0178 188.817 23.0398 188.682 23.109 188.546C23.2049 188.358 23.3579 188.205 23.546 188.109C23.6817 188.04 23.8166 188.018 23.9309 188.008C24.035 188 24.1579 188 24.284 188H25.716C25.8421 188 25.965 188 26.0691 188.008C26.1834 188.018 26.3183 188.04 26.454 188.109C26.6422 188.205 26.7951 188.358 26.891 188.546C26.9602 188.682 26.9822 188.817 26.9915 188.931C27 189.035 27 189.158 27 189.284V190.716C27 190.842 27 190.965 26.9915 191.069C26.9822 191.183 26.9602 191.318 26.891 191.454C26.7951 191.642 26.6422 191.795 26.454 191.891C26.3183 191.96 26.1834 191.982 26.0691 191.992C25.965 192 25.8421 192 25.716 192H24.284C24.1579 192 24.035 192 23.9309 191.992C23.8166 191.982 23.6817 191.96 23.546 191.891C23.3579 191.795 23.2049 191.642 23.109 191.454C23.0398 191.318 23.0178 191.183 23.0085 191.069C23 190.965 23 190.842 23 190.716ZM24.0057 190.994C24.0078 190.994 24.01 190.995 24.0123 190.995C24.0706 191 24.1517 191 24.3 191H25.7C25.8483 191 25.9294 191 25.9877 190.995C25.99 190.995 25.9922 190.994 25.9943 190.994C25.9945 190.992 25.9947 190.99 25.9949 190.988C25.9996 190.929 26 190.848 26 190.7V189.3C26 189.152 25.9996 189.071 25.9949 189.012C25.9947 189.01 25.9945 189.008 25.9943 189.006C25.9922 189.006 25.99 189.005 25.9877 189.005C25.9294 189 25.8483 189 25.7 189H24.3C24.1517 189 24.0706 189 24.0123 189.005C24.01 189.005 24.0078 189.006 24.0057 189.006C24.0055 189.008 24.0053 189.01 24.0052 189.012C24.0004 189.071 24 189.152 24 189.3V190.7C24 190.848 24.0004 190.929 24.0052 190.988C24.0053 190.99 24.0055 190.992 24.0057 190.994ZM29 202.716V201.284C29 201.158 29 201.035 29.0085 200.931C29.0178 200.817 29.0398 200.682 29.109 200.546C29.2049 200.358 29.3578 200.205 29.546 200.109C29.6817 200.04 29.8166 200.018 29.9309 200.008C30.035 200 30.1579 200 30.2841 200H31.716C31.8421 200 31.965 200 32.0691 200.008C32.1834 200.018 32.3183 200.04 32.454 200.109C32.6422 200.205 32.7951 200.358 32.891 200.546C32.9602 200.682 32.9822 200.817 32.9915 200.931C33 201.035 33 201.158 33 201.284V202.716C33 202.842 33 202.965 32.9915 203.069C32.9822 203.183 32.9602 203.318 32.891 203.454C32.7951 203.642 32.6422 203.795 32.454 203.891C32.3183 203.96 32.1834 203.982 32.0691 203.992C31.965 204 31.8421 204 31.716 204H30.2841C30.1579 204 30.035 204 29.9309 203.992C29.8166 203.982 29.6817 203.96 29.546 203.891C29.3578 203.795 29.2049 203.642 29.109 203.454C29.0398 203.318 29.0178 203.183 29.0085 203.069C29 202.965 29 202.842 29 202.716ZM30.0057 202.994C30.0078 202.994 30.01 202.995 30.0123 202.995C30.0706 203 30.1517 203 30.3 203H31.7C31.8483 203 31.9294 203 31.9877 202.995C31.99 202.995 31.9922 202.994 31.9943 202.994C31.9945 202.992 31.9947 202.99 31.9949 202.988C31.9996 202.929 32 202.848 32 202.7V201.3C32 201.152 31.9996 201.071 31.9949 201.012C31.9947 201.01 31.9945 201.008 31.9943 201.006C31.9922 201.006 31.99 201.005 31.9877 201.005C31.9294 201 31.8483 201 31.7 201H30.3C30.1517 201 30.0706 201 30.0123 201.005C30.01 201.005 30.0078 201.006 30.0057 201.006C30.0055 201.008 30.0053 201.01 30.0052 201.012C30.0004 201.071 30 201.152 30 201.3V202.7C30 202.848 30.0004 202.929 30.0052 202.988C30.0053 202.99 30.0055 202.992 30.0057 202.994ZM29 196.716V195.284C29 195.158 29 195.035 29.0085 194.931C29.0178 194.817 29.0398 194.682 29.109 194.546C29.2049 194.358 29.3578 194.205 29.546 194.109C29.6817 194.04 29.8166 194.018 29.9309 194.008C30.035 194 30.1579 194 30.284 194H31.716C31.8421 194 31.965 194 32.0691 194.008C32.1834 194.018 32.3183 194.04 32.454 194.109C32.6422 194.205 32.7951 194.358 32.891 194.546C32.9602 194.682 32.9822 194.817 32.9915 194.931C33 195.035 33 195.158 33 195.284V196.716C33 196.842 33 196.965 32.9915 197.069C32.9822 197.183 32.9602 197.318 32.891 197.454C32.7951 197.642 32.6422 197.795 32.454 197.891C32.3183 197.96 32.1834 197.982 32.0691 197.992C31.965 198 31.8421 198 31.7159 198H30.2841C30.1579 198 30.035 198 29.9309 197.992C29.8166 197.982 29.6817 197.96 29.546 197.891C29.3578 197.795 29.2049 197.642 29.109 197.454C29.0398 197.318 29.0178 197.183 29.0085 197.069C29 196.965 29 196.842 29 196.716ZM30.0057 196.994C30.0078 196.994 30.01 196.995 30.0123 196.995C30.0706 197 30.1517 197 30.3 197H31.7C31.8483 197 31.9294 197 31.9877 196.995C31.99 196.995 31.9922 196.994 31.9943 196.994C31.9945 196.992 31.9947 196.99 31.9949 196.988C31.9996 196.929 32 196.848 32 196.7V195.3C32 195.152 31.9996 195.071 31.9949 195.012C31.9947 195.01 31.9945 195.008 31.9943 195.006C31.9922 195.006 31.99 195.005 31.9877 195.005C31.9294 195 31.8483 195 31.7 195H30.3C30.1517 195 30.0706 195 30.0123 195.005C30.01 195.005 30.0078 195.006 30.0057 195.006C30.0055 195.008 30.0053 195.01 30.0052 195.012C30.0004 195.071 30 195.152 30 195.3V196.7C30 196.848 30.0004 196.929 30.0052 196.988C30.0053 196.99 30.0055 196.992 30.0057 196.994ZM29 190.716V189.284C29 189.158 29 189.035 29.0085 188.931C29.0178 188.817 29.0398 188.682 29.109 188.546C29.2049 188.358 29.3578 188.205 29.546 188.109C29.6817 188.04 29.8166 188.018 29.9309 188.008C30.035 188 30.1579 188 30.284 188H31.716C31.8421 188 31.965 188 32.0691 188.008C32.1834 188.018 32.3183 188.04 32.454 188.109C32.6422 188.205 32.7951 188.358 32.891 188.546C32.9602 188.682 32.9822 188.817 32.9915 188.931C33 189.035 33 189.158 33 189.284V190.716C33 190.842 33 190.965 32.9915 191.069C32.9822 191.183 32.9602 191.318 32.891 191.454C32.7951 191.642 32.6422 191.795 32.454 191.891C32.3183 191.96 32.1834 191.982 32.0691 191.992C31.965 192 31.8421 192 31.716 192H30.284C30.1579 192 30.035 192 29.9309 191.992C29.8166 191.982 29.6817 191.96 29.546 191.891C29.3578 191.795 29.2049 191.642 29.109 191.454C29.0398 191.318 29.0178 191.183 29.0085 191.069C29 190.965 29 190.842 29 190.716ZM30.0057 190.994C30.0078 190.994 30.01 190.995 30.0123 190.995C30.0706 191 30.1517 191 30.3 191H31.7C31.8483 191 31.9294 191 31.9877 190.995C31.99 190.995 31.9922 190.994 31.9943 190.994C31.9945 190.992 31.9947 190.99 31.9949 190.988C31.9996 190.929 32 190.848 32 190.7V189.3C32 189.152 31.9996 189.071 31.9949 189.012C31.9947 189.01 31.9945 189.008 31.9943 189.006C31.9922 189.006 31.99 189.005 31.9877 189.005C31.9294 189 31.8483 189 31.7 189H30.3C30.1517 189 30.0706 189 30.0123 189.005C30.01 189.005 30.0078 189.006 30.0057 189.006C30.0055 189.008 30.0053 189.01 30.0052 189.012C30.0004 189.071 30 189.152 30 189.3V190.7C30 190.848 30.0004 190.929 30.0052 190.988C30.0053 190.99 30.0055 190.992 30.0057 190.994Z" fill="#5F5F6A"/>
</svg>
