<svg width="56" height="224" viewBox="0 0 56 224" fill="none" xmlns="http://www.w3.org/2000/svg">
<path d="M35.5 18.5C35.5 17.9477 35.0523 17.5 34.5 17.5C33.9477 17.5 33.5 17.9477 33.5 18.5V20H32C31.4477 20 31 20.4477 31 21C31 21.5523 31.4477 22 32 22H33.5V23.5C33.5 24.0523 33.9477 24.5 34.5 24.5C35.0523 24.5 35.5 24.0523 35.5 23.5V22H37C37.5523 22 38 21.5523 38 21C38 20.4477 37.5523 20 37 20L35.5 20V18.5Z" fill="#5F5F6A"/>
<path d="M19.5 28C19.5 23.5817 23.0817 20 27.5 20C28.0523 20 28.5 19.5523 28.5 19C28.5 18.4477 28.0523 18 27.5 18C21.9772 18 17.5 22.4772 17.5 28C17.5 33.5228 21.9772 38 27.5 38C33.0228 38 37.5 33.5228 37.5 28C37.5 27.4477 37.0523 27 36.5 27C35.9477 27 35.5 27.4477 35.5 28C35.5 32.4183 31.9183 36 27.5 36C23.0817 36 19.5 32.4183 19.5 28Z" fill="#5F5F6A"/>
<path d="M32.8487 25.595L32.9852 26.1255C33.0425 26.3482 32.9405 26.5812 32.7381 26.6903C32.5357 26.7993 32.285 26.7563 32.1305 26.5859C31.8981 26.3295 31.5453 26.2206 31.0524 26.2594C30.5559 26.2984 29.9916 26.485 29.4576 26.7273C29.3028 26.7975 29.123 26.7844 28.9802 26.6923C28.8373 26.6003 28.751 26.4419 28.751 26.272C28.751 25.9113 28.9626 25.6154 29.1635 25.4144C29.3778 25.1999 29.6586 25.013 29.9568 24.8669C30.5346 24.5839 31.3145 24.3896 31.973 24.5695C32.5406 24.7246 32.7643 25.2585 32.8487 25.595Z" fill="#5F5F6A"/>
<path d="M24.751 27.5001C25.5794 27.5001 26.251 26.8285 26.251 26.0001C26.251 25.1716 25.5794 24.5001 24.751 24.5001C23.9225 24.5001 23.251 25.1716 23.251 26.0001C23.251 26.8285 23.9225 27.5001 24.751 27.5001Z" fill="#5F5F6A"/>
<path fill-rule="evenodd" clip-rule="evenodd" d="M33.0017 30.2216C33.1561 29.7509 32.9875 29.2996 32.6708 29.0266C32.3738 28.7707 31.9624 28.6762 31.5726 28.7716C31.3384 28.8289 31.0936 28.899 30.8358 28.9727C28.8448 29.5421 26.9469 29.5193 24.8975 29.4036C24.3838 29.3746 23.8703 29.3417 23.3572 29.3042C23.0735 29.2828 22.8022 29.4237 22.6565 29.668C22.5109 29.9124 22.516 30.2181 22.6698 30.4574C22.9277 30.8589 23.3177 31.2033 23.5871 31.4412C23.8062 31.6346 23.9318 31.7535 23.9991 31.8395C23.9924 31.9882 23.9635 32.1344 23.9346 32.2805C23.8985 32.463 23.8625 32.6454 23.8697 32.8323C23.8774 33.0288 23.9353 33.2752 24.1275 33.4918C24.3031 33.6897 24.5249 33.7867 24.7036 33.8411C24.8854 33.8964 25.0926 33.9281 25.312 33.9492C25.7516 33.9914 26.3801 34.0028 27.251 34.0028C29.1255 34.0028 30.4408 33.543 31.3666 32.7839C32.2842 32.0316 32.727 31.059 33.0017 30.2216ZM27.751 31.0028C29.2054 31.0028 30.4689 30.6425 31.3292 30.3945C31.1153 30.8612 30.8311 31.2833 30.4155 31.624C29.8249 32.1083 28.8765 32.5028 27.251 32.5028C26.3514 32.5028 25.7807 32.4893 25.4311 32.4537C25.4651 32.2714 25.501 32.0285 25.501 31.7528C25.501 31.3853 25.3238 31.0997 25.1854 30.9215C26.0057 30.9645 26.9583 31.0028 27.751 31.0028Z" fill="#5F5F6A"/>
<path d="M34.5 73.75C34.9142 73.75 35.25 74.0858 35.25 74.5V76.25L37 76.25C37.4142 76.25 37.75 76.5858 37.75 77C37.75 77.4142 37.4142 77.75 37 77.75H35.25V79.5C35.25 79.9142 34.9142 80.25 34.5 80.25C34.0858 80.25 33.75 79.9142 33.75 79.5V77.75H32C31.5858 77.75 31.25 77.4142 31.25 77C31.25 76.5858 31.5858 76.25 32 76.25H33.75V74.5C33.75 74.0858 34.0858 73.75 34.5 73.75Z" fill="#5F5F6A"/>
<path d="M27.5 75.75C22.9437 75.75 19.25 79.4437 19.25 84C19.25 88.5563 22.9437 92.25 27.5 92.25C32.0563 92.25 35.75 88.5563 35.75 84C35.75 83.3688 35.6793 82.7551 35.5456 82.166C35.4539 81.762 35.7071 81.3603 36.111 81.2686C36.515 81.1769 36.9167 81.4301 37.0084 81.834C37.1666 82.5313 37.25 83.2564 37.25 84C37.25 89.3848 32.8848 93.75 27.5 93.75C22.1152 93.75 17.75 89.3848 17.75 84C17.75 78.6152 22.1152 74.25 27.5 74.25C28.4385 74.25 29.3473 74.3828 30.2079 74.6312C30.6059 74.746 30.8354 75.1617 30.7206 75.5597C30.6058 75.9577 30.19 76.1872 29.7921 76.0724C29.0652 75.8626 28.2964 75.75 27.5 75.75Z" fill="#5F5F6A"/>
<path d="M32.8487 81.595L32.9852 82.1255C33.0425 82.3482 32.9405 82.5812 32.7381 82.6903C32.5357 82.7993 32.285 82.7563 32.1305 82.5859C31.8981 82.3295 31.5453 82.2206 31.0524 82.2594C30.5559 82.2984 29.9916 82.485 29.4576 82.7273C29.3028 82.7975 29.123 82.7844 28.9802 82.6923C28.8373 82.6003 28.751 82.4419 28.751 82.272C28.751 81.9113 28.9626 81.6154 29.1635 81.4144C29.3778 81.1999 29.6586 81.013 29.9568 80.8669C30.5346 80.5839 31.3145 80.3896 31.973 80.5695C32.5406 80.7246 32.7643 81.2585 32.8487 81.595Z" fill="#5F5F6A"/>
<path d="M24.751 83.5001C25.5794 83.5001 26.251 82.8285 26.251 82.0001C26.251 81.1716 25.5794 80.5001 24.751 80.5001C23.9225 80.5001 23.251 81.1716 23.251 82.0001C23.251 82.8285 23.9225 83.5001 24.751 83.5001Z" fill="#5F5F6A"/>
<path fill-rule="evenodd" clip-rule="evenodd" d="M33.0017 86.2216C33.1561 85.7509 32.9875 85.2996 32.6708 85.0266C32.3738 84.7707 31.9624 84.6762 31.5726 84.7716C31.3384 84.8289 31.0936 84.899 30.8358 84.9727C28.8448 85.5421 26.9469 85.5193 24.8975 85.4036C24.3838 85.3746 23.8703 85.3417 23.3572 85.3042C23.0735 85.2828 22.8022 85.4237 22.6565 85.668C22.5109 85.9124 22.516 86.2181 22.6698 86.4574C22.9277 86.8589 23.3177 87.2033 23.5871 87.4412C23.8062 87.6346 23.9318 87.7535 23.9991 87.8395C23.9924 87.9882 23.9635 88.1344 23.9346 88.2805C23.8985 88.463 23.8625 88.6454 23.8697 88.8323C23.8774 89.0288 23.9353 89.2752 24.1275 89.4918C24.3031 89.6897 24.5249 89.7867 24.7036 89.8411C24.8854 89.8964 25.0926 89.9281 25.312 89.9492C25.7516 89.9914 26.3801 90.0028 27.251 90.0028C29.1255 90.0028 30.4408 89.543 31.3666 88.7839C32.2842 88.0316 32.727 87.059 33.0017 86.2216ZM27.751 87.0028C29.2054 87.0028 30.4689 86.6425 31.3292 86.3945C31.1153 86.8612 30.8311 87.2833 30.4155 87.624C29.8249 88.1083 28.8765 88.5028 27.251 88.5028C26.3514 88.5028 25.7807 88.4893 25.4311 88.4537C25.4651 88.2714 25.501 88.0285 25.501 87.7528C25.501 87.3853 25.3238 87.0997 25.1854 86.9215C26.0057 86.9645 26.9583 87.0028 27.751 87.0028Z" fill="#5F5F6A"/>
<path d="M34.5 129.75C34.9142 129.75 35.25 130.086 35.25 130.5V132.25L37 132.25C37.4142 132.25 37.75 132.586 37.75 133C37.75 133.414 37.4142 133.75 37 133.75H35.25V135.5C35.25 135.914 34.9142 136.25 34.5 136.25C34.0858 136.25 33.75 135.914 33.75 135.5V133.75H32C31.5858 133.75 31.25 133.414 31.25 133C31.25 132.586 31.5858 132.25 32 132.25H33.75V130.5C33.75 130.086 34.0858 129.75 34.5 129.75Z" fill="#5F5F6A"/>
<path d="M27.5 131.75C22.9437 131.75 19.25 135.444 19.25 140C19.25 144.556 22.9437 148.25 27.5 148.25C32.0563 148.25 35.75 144.556 35.75 140C35.75 139.369 35.6793 138.755 35.5456 138.166C35.4539 137.762 35.7071 137.36 36.111 137.269C36.515 137.177 36.9167 137.43 37.0084 137.834C37.1666 138.531 37.25 139.256 37.25 140C37.25 145.385 32.8848 149.75 27.5 149.75C22.1152 149.75 17.75 145.385 17.75 140C17.75 134.615 22.1152 130.25 27.5 130.25C28.4385 130.25 29.3473 130.383 30.2079 130.631C30.6059 130.746 30.8354 131.162 30.7206 131.56C30.6058 131.958 30.19 132.187 29.7921 132.072C29.0652 131.863 28.2964 131.75 27.5 131.75Z" fill="#5F5F6A"/>
<path d="M32.8487 137.595L32.9852 138.125C33.0425 138.348 32.9405 138.581 32.7381 138.69C32.5357 138.799 32.285 138.756 32.1305 138.586C31.8981 138.329 31.5453 138.221 31.0524 138.259C30.5559 138.298 29.9916 138.485 29.4576 138.727C29.3028 138.798 29.123 138.784 28.9802 138.692C28.8373 138.6 28.751 138.442 28.751 138.272C28.751 137.911 28.9626 137.615 29.1635 137.414C29.3778 137.2 29.6586 137.013 29.9568 136.867C30.5346 136.584 31.3145 136.39 31.973 136.57C32.5406 136.725 32.7643 137.259 32.8487 137.595Z" fill="#5F5F6A"/>
<path d="M24.751 139.5C25.5794 139.5 26.251 138.828 26.251 138C26.251 137.172 25.5794 136.5 24.751 136.5C23.9225 136.5 23.251 137.172 23.251 138C23.251 138.828 23.9225 139.5 24.751 139.5Z" fill="#5F5F6A"/>
<path fill-rule="evenodd" clip-rule="evenodd" d="M33.0017 142.222C33.1561 141.751 32.9875 141.3 32.6708 141.027C32.3738 140.771 31.9624 140.676 31.5726 140.772C31.3384 140.829 31.0936 140.899 30.8358 140.973C28.8448 141.542 26.9469 141.519 24.8975 141.404C24.3838 141.375 23.8703 141.342 23.3572 141.304C23.0735 141.283 22.8022 141.424 22.6565 141.668C22.5109 141.912 22.516 142.218 22.6698 142.457C22.9277 142.859 23.3177 143.203 23.5871 143.441C23.8062 143.635 23.9318 143.753 23.9991 143.839C23.9924 143.988 23.9635 144.134 23.9346 144.281C23.8985 144.463 23.8625 144.645 23.8697 144.832C23.8774 145.029 23.9353 145.275 24.1275 145.492C24.3031 145.69 24.5249 145.787 24.7036 145.841C24.8854 145.896 25.0926 145.928 25.312 145.949C25.7516 145.991 26.3801 146.003 27.251 146.003C29.1255 146.003 30.4408 145.543 31.3666 144.784C32.2842 144.032 32.727 143.059 33.0017 142.222ZM27.751 143.003C29.2054 143.003 30.4689 142.643 31.3292 142.395C31.1153 142.861 30.8311 143.283 30.4155 143.624C29.8249 144.108 28.8765 144.503 27.251 144.503C26.3514 144.503 25.7807 144.489 25.4311 144.454C25.4651 144.271 25.501 144.028 25.501 143.753C25.501 143.385 25.3238 143.1 25.1854 142.922C26.0057 142.964 26.9583 143.003 27.751 143.003Z" fill="#5F5F6A"/>
<path d="M34.5 186C34.7761 186 35 186.224 35 186.5V188.5L37 188.5C37.2761 188.5 37.5 188.724 37.5 189C37.5 189.276 37.2761 189.5 37 189.5H35V191.5C35 191.776 34.7761 192 34.5 192C34.2239 192 34 191.776 34 191.5V189.5H32C31.7239 189.5 31.5 189.276 31.5 189C31.5 188.724 31.7239 188.5 32 188.5H34V186.5C34 186.224 34.2239 186 34.5 186Z" fill="#5F5F6A"/>
<path d="M27.5 187.5C22.8056 187.5 19 191.306 19 196C19 200.694 22.8056 204.5 27.5 204.5C32.1944 204.5 36 200.694 36 196C36 195.35 35.9272 194.718 35.7894 194.111C35.7283 193.841 35.897 193.574 36.1663 193.512C36.4356 193.451 36.7035 193.62 36.7646 193.889C36.9187 194.569 37 195.275 37 196C37 201.247 32.7467 205.5 27.5 205.5C22.2533 205.5 18 201.247 18 196C18 190.753 22.2533 186.5 27.5 186.5C28.4148 186.5 29.3003 186.629 30.1386 186.871C30.4039 186.948 30.557 187.225 30.4804 187.49C30.4038 187.756 30.1267 187.909 29.8614 187.832C29.1123 187.616 28.3201 187.5 27.5 187.5Z" fill="#5F5F6A"/>
<path d="M24.5019 195.5C25.3303 195.5 26.0019 194.828 26.0019 194C26.0019 193.172 25.3303 192.5 24.5019 192.5C23.6735 192.5 23.0019 193.172 23.0019 194C23.0019 194.828 23.6735 195.5 24.5019 195.5Z" fill="#5F5F6A"/>
<path d="M31.9741 194.502C32.2305 194.785 32.7102 194.526 32.6151 194.157C32.602 194.106 32.5891 194.054 32.5761 194.001C32.4435 193.464 32.2932 192.855 31.691 192.69C31.074 192.521 30.3272 192.703 29.7628 192.979C29.4736 193.121 29.2051 193.3 29.0029 193.503C28.8107 193.695 28.6269 193.961 28.6269 194.272C28.6269 194.54 28.9129 194.724 29.1569 194.613C29.6969 194.368 30.2764 194.175 30.7936 194.135C31.3081 194.094 31.706 194.206 31.9741 194.502Z" fill="#5F5F6A"/>
<path fill-rule="evenodd" clip-rule="evenodd" d="M32.5151 198.144C32.6354 197.777 32.5053 197.429 32.2585 197.216C31.8407 196.856 31.3231 197.013 30.8488 197.156C30.7897 197.174 30.7312 197.192 30.6736 197.208C29.8149 197.454 28.772 197.753 27.5019 197.753C26.6223 197.753 25.5212 197.703 24.6343 197.653C24.1921 197.628 23.8054 197.603 23.5294 197.584C23.3925 197.575 23.2557 197.566 23.1188 197.556C22.71 197.525 22.3969 197.958 22.6311 198.322C22.8684 198.692 23.2286 199.01 23.5007 199.251C23.5404 199.286 23.5828 199.321 23.6259 199.356C23.7726 199.476 23.9269 199.602 24.0019 199.769C24.0006 199.938 23.9681 200.103 23.9356 200.268C23.8994 200.452 23.8632 200.635 23.8705 200.822C23.8957 201.469 24.5445 201.648 25.0869 201.7C25.5128 201.741 26.1297 201.753 27.0019 201.753C28.8349 201.753 30.0891 201.304 30.959 200.591C31.8235 199.882 32.2469 198.961 32.5151 198.144ZM25.0019 199.753C25.0019 199.283 24.6372 198.929 24.3137 198.636C25.2403 198.691 26.5007 198.753 27.5019 198.753C28.93 198.753 30.1565 198.4 31.0191 198.151C31.1958 198.101 31.3573 198.054 31.5021 198.016C31.2629 198.688 30.9226 199.327 30.325 199.817C29.6785 200.347 28.6689 200.753 27.0019 200.753C26.852 200.753 26.6994 200.755 26.5454 200.758C25.9912 200.768 25.4184 200.779 24.886 200.662C24.8913 200.634 24.898 200.601 24.9055 200.565C24.9433 200.38 25.002 200.093 25.0019 199.753Z" fill="#5F5F6A"/>
</svg>
