<svg width="56" height="224" viewBox="0 0 56 224" fill="none" xmlns="http://www.w3.org/2000/svg">
<path fill-rule="evenodd" clip-rule="evenodd" d="M28 18.25C22.6152 18.25 18.25 22.6152 18.25 28C18.25 33.3848 22.6152 37.75 28 37.75C33.3848 37.75 37.75 33.3848 37.75 28C37.75 22.6152 33.3848 18.25 28 18.25ZM33.0977 26.095L33.2342 26.6254C33.2915 26.8481 33.1896 27.0812 32.9871 27.1902C32.7847 27.2993 32.534 27.2562 32.3796 27.0858C32.1471 26.8294 31.7944 26.7205 31.3014 26.7593C30.805 26.7984 30.2406 26.9849 29.7066 27.2273C29.5519 27.2975 29.372 27.2843 29.2292 27.1922C29.0863 27.1002 29 26.9419 29 26.7719C29 26.4113 29.2117 26.1154 29.4125 25.9143C29.6268 25.6998 29.9077 25.513 30.2058 25.3669C30.7836 25.0838 31.5635 24.8896 32.222 25.0694C32.7896 25.2245 33.0133 25.7585 33.0977 26.095ZM25 28C25.8284 28 26.5 27.3284 26.5 26.5C26.5 25.6716 25.8284 25 25 25C24.1716 25 23.5 25.6716 23.5 26.5C23.5 27.3284 24.1716 28 25 28ZM32.9198 29.5265C33.2365 29.7995 33.4051 30.2508 33.2507 30.7216C32.976 31.559 32.5332 32.5315 31.6156 33.2839C30.6898 34.043 29.3745 34.5028 27.5 34.5028C26.6291 34.5028 26.0006 34.4914 25.5611 34.4491C25.1374 34.4084 24.6736 34.3265 24.3766 33.9918C24.1843 33.7751 24.1264 33.5288 24.1188 33.3322C24.1115 33.1453 24.1475 32.963 24.1836 32.7805C24.2125 32.6343 24.2414 32.4881 24.2481 32.3394L24.2472 32.3383C24.0706 32.1138 23.8588 31.9253 23.6468 31.7367C23.3817 31.5008 23.1162 31.2647 22.9188 30.9573C22.765 30.718 22.7599 30.4123 22.9056 30.168C23.142 29.7713 23.5828 29.8025 23.9816 29.8307C24.0027 29.8322 24.0236 29.8336 24.0444 29.8351C24.8726 29.8912 26.6933 30.0027 28 30.0027C29.2314 30.0027 30.2297 29.7172 31.0848 29.4726C31.3426 29.3989 31.5874 29.3289 31.8217 29.2715C32.2114 29.1761 32.6228 29.2706 32.9198 29.5265Z" fill="#5F5F6A"/>
<path opacity="0.5" fill-rule="evenodd" clip-rule="evenodd" d="M28 93C32.9706 93 37 88.9706 37 84C37 79.0294 32.9706 75 28 75C23.0294 75 19 79.0294 19 84C19 88.9706 23.0294 93 28 93ZM33.2342 82.6254L33.0977 82.095C33.0133 81.7585 32.7896 81.2245 32.222 81.0694C31.5635 80.8896 30.7836 81.0838 30.2058 81.3669C29.9077 81.513 29.6268 81.6998 29.4125 81.9143C29.2117 82.1154 29 82.4113 29 82.7719C29 82.9419 29.0863 83.1002 29.2292 83.1922C29.372 83.2843 29.5519 83.2975 29.7066 83.2273C30.2406 82.9849 30.805 82.7984 31.3014 82.7593C31.7944 82.7205 32.1471 82.8294 32.3796 83.0858C32.534 83.2562 32.7847 83.2993 32.9871 83.1902C33.1896 83.0812 33.2915 82.8481 33.2342 82.6254ZM26.5 82.5C26.5 83.3284 25.8284 84 25 84C24.1716 84 23.5 83.3284 23.5 82.5C23.5 81.6716 24.1716 81 25 81C25.8284 81 26.5 81.6716 26.5 82.5ZM33.2507 86.7216C33.4051 86.2508 33.2365 85.7995 32.9198 85.5265C32.6228 85.2706 32.2114 85.1761 31.8217 85.2715C31.5874 85.3289 31.3426 85.3989 31.0848 85.4726C30.2297 85.7172 29.2314 86.0027 28 86.0027C26.6933 86.0027 24.8726 85.8912 24.0444 85.8351C23.6299 85.8069 23.1545 85.7503 22.9056 86.168C22.7599 86.4123 22.765 86.718 22.9188 86.9573C23.2742 87.5105 23.8498 87.8331 24.2472 88.3383L24.2481 88.3394C24.233 88.6739 24.1056 88.9956 24.1188 89.3322C24.1264 89.5288 24.1843 89.7751 24.3766 89.9918C24.6736 90.3265 25.1374 90.4084 25.5611 90.4491C26.0006 90.4914 26.6291 90.5028 27.5 90.5028C29.3745 90.5028 30.6898 90.043 31.6156 89.2839C32.5332 88.5315 32.976 87.559 33.2507 86.7216Z" fill="#5F5F6A"/>
<path d="M33.0977 82.095L33.2342 82.6254C33.2915 82.8481 33.1896 83.0812 32.9871 83.1902C32.7847 83.2993 32.534 83.2562 32.3796 83.0858C32.1471 82.8294 31.7944 82.7205 31.3014 82.7593C30.805 82.7984 30.2406 82.9849 29.7066 83.2273C29.5519 83.2975 29.372 83.2843 29.2292 83.1922C29.0863 83.1002 29 82.9419 29 82.7719C29 82.4113 29.2117 82.1154 29.4125 81.9143C29.6268 81.6998 29.9077 81.513 30.2058 81.3669C30.7836 81.0838 31.5635 80.8896 32.222 81.0694C32.7896 81.2245 33.0133 81.7585 33.0977 82.095Z" fill="#5F5F6A"/>
<path d="M25 84C25.8284 84 26.5 83.3284 26.5 82.5C26.5 81.6716 25.8284 81 25 81C24.1716 81 23.5 81.6716 23.5 82.5C23.5 83.3284 24.1716 84 25 84Z" fill="#5F5F6A"/>
<path fill-rule="evenodd" clip-rule="evenodd" d="M32.9198 85.5265C33.2365 85.7995 33.4051 86.2508 33.2507 86.7216C32.976 87.559 32.5332 88.5315 31.6156 89.2839C30.6898 90.043 29.3745 90.5028 27.5 90.5028C26.6291 90.5028 26.0006 90.4914 25.5611 90.4491C25.3416 90.428 25.1345 90.3964 24.9526 90.341C24.7739 90.2867 24.5521 90.1896 24.3766 89.9918C24.1843 89.7751 24.1264 89.5288 24.1188 89.3322C24.1115 89.1453 24.1475 88.963 24.1836 88.7805C24.2125 88.6343 24.2414 88.4881 24.2481 88.3394C24.1808 88.2534 24.0552 88.1346 23.8361 87.9411C23.5667 87.7032 23.1767 87.3589 22.9188 86.9573C22.765 86.718 22.7599 86.4123 22.9056 86.168C23.0512 85.9236 23.3226 85.7827 23.6062 85.8041C24.1193 85.8416 24.6328 85.8745 25.1465 85.9035C27.1959 86.0193 29.0939 86.0421 31.0848 85.4726C31.3426 85.3989 31.5874 85.3289 31.8217 85.2715C32.2114 85.1761 32.6228 85.2706 32.9198 85.5265ZM31.5783 86.8944C30.7179 87.1425 29.4544 87.5027 28 87.5027C27.2073 87.5027 26.2547 87.4644 25.4344 87.4214C25.5728 87.5996 25.75 87.8852 25.75 88.2527C25.75 88.5284 25.7141 88.7713 25.6802 88.9536C26.0298 88.9892 26.6004 89.0028 27.5 89.0028C29.1255 89.0028 30.0739 88.6082 30.6645 88.124C31.0801 87.7832 31.3644 87.3611 31.5783 86.8944Z" fill="#5F5F6A"/>
<path fill-rule="evenodd" clip-rule="evenodd" d="M28 74.25C22.6152 74.25 18.25 78.6152 18.25 84C18.25 89.3848 22.6152 93.75 28 93.75C33.3848 93.75 37.75 89.3848 37.75 84C37.75 78.6152 33.3848 74.25 28 74.25ZM19.75 84C19.75 79.4437 23.4437 75.75 28 75.75C32.5563 75.75 36.25 79.4437 36.25 84C36.25 88.5563 32.5563 92.25 28 92.25C23.4437 92.25 19.75 88.5563 19.75 84Z" fill="#5F5F6A"/>
<path d="M33.0977 138.095L33.2342 138.625C33.2915 138.848 33.1896 139.081 32.9871 139.19C32.7847 139.299 32.534 139.256 32.3796 139.086C32.1471 138.829 31.7944 138.72 31.3014 138.759C30.805 138.798 30.2406 138.985 29.7066 139.227C29.5519 139.297 29.372 139.284 29.2292 139.192C29.0863 139.1 29 138.942 29 138.772C29 138.411 29.2117 138.115 29.4125 137.914C29.6268 137.7 29.9077 137.513 30.2058 137.367C30.7836 137.084 31.5635 136.89 32.222 137.069C32.7896 137.225 33.0133 137.758 33.0977 138.095Z" fill="#5F5F6A"/>
<path d="M25 140C25.8284 140 26.5 139.328 26.5 138.5C26.5 137.672 25.8284 137 25 137C24.1716 137 23.5 137.672 23.5 138.5C23.5 139.328 24.1716 140 25 140Z" fill="#5F5F6A"/>
<path fill-rule="evenodd" clip-rule="evenodd" d="M32.9198 141.527C33.2365 141.8 33.4051 142.251 33.2507 142.722C32.976 143.559 32.5332 144.532 31.6156 145.284C30.6898 146.043 29.3745 146.503 27.5 146.503C26.6291 146.503 26.0006 146.491 25.5611 146.449C25.3416 146.428 25.1345 146.396 24.9526 146.341C24.7739 146.287 24.5521 146.19 24.3766 145.992C24.1843 145.775 24.1264 145.529 24.1188 145.332C24.1115 145.145 24.1475 144.963 24.1836 144.78C24.2125 144.634 24.2414 144.488 24.2481 144.339C24.1808 144.253 24.0552 144.135 23.8361 143.941C23.5667 143.703 23.1767 143.359 22.9188 142.957C22.765 142.718 22.7599 142.412 22.9056 142.168C23.0512 141.924 23.3226 141.783 23.6062 141.804C24.1193 141.842 24.6328 141.875 25.1465 141.904C27.1959 142.019 29.0939 142.042 31.0848 141.473C31.3426 141.399 31.5874 141.329 31.8217 141.272C32.2114 141.176 32.6228 141.271 32.9198 141.527ZM31.5783 142.894C30.7179 143.142 29.4544 143.503 28 143.503C27.2073 143.503 26.2547 143.464 25.4344 143.421C25.5728 143.6 25.75 143.885 25.75 144.253C25.75 144.528 25.7141 144.771 25.6802 144.954C26.0298 144.989 26.6004 145.003 27.5 145.003C29.1255 145.003 30.0739 144.608 30.6645 144.124C31.0801 143.783 31.3644 143.361 31.5783 142.894Z" fill="#5F5F6A"/>
<path fill-rule="evenodd" clip-rule="evenodd" d="M28 130.25C22.6152 130.25 18.25 134.615 18.25 140C18.25 145.385 22.6152 149.75 28 149.75C33.3848 149.75 37.75 145.385 37.75 140C37.75 134.615 33.3848 130.25 28 130.25ZM19.75 140C19.75 135.444 23.4437 131.75 28 131.75C32.5563 131.75 36.25 135.444 36.25 140C36.25 144.556 32.5563 148.25 28 148.25C23.4437 148.25 19.75 144.556 19.75 140Z" fill="#5F5F6A"/>
<path d="M32.75 194.75C32 193.923 30.6159 194.266 29.5 194.772C29.5 194.118 31.1055 193.283 32.0902 193.552C32.3832 193.632 32.5394 193.923 32.6131 194.218L32.75 194.75Z" fill="#5F5F6A"/>
<path d="M24.9511 196C25.7796 196 26.4511 195.328 26.4511 194.5C26.4511 193.672 25.7796 193 24.9511 193C24.1227 193 23.4511 193.672 23.4511 194.5C23.4511 195.328 24.1227 196 24.9511 196Z" fill="#5F5F6A"/>
<path d="M32.4233 195.002C32.6797 195.285 33.1594 195.026 33.0643 194.657C33.0512 194.606 33.0384 194.554 33.0253 194.501C32.8927 193.964 32.7424 193.355 32.1402 193.19C31.5232 193.021 30.7764 193.203 30.212 193.479C29.9228 193.621 29.6543 193.8 29.4521 194.003C29.26 194.195 29.0761 194.461 29.0761 194.772C29.0761 195.04 29.3622 195.224 29.6061 195.113C30.1461 194.868 30.7256 194.675 31.2428 194.635C31.7573 194.594 32.1552 194.706 32.4233 195.002Z" fill="#5F5F6A"/>
<path fill-rule="evenodd" clip-rule="evenodd" d="M32.7077 197.716C32.9545 197.929 33.0847 198.277 32.9643 198.644C32.6961 199.461 32.2727 200.382 31.4083 201.091C30.5383 201.804 29.2841 202.253 27.4511 202.253C26.5789 202.253 25.962 202.241 25.5361 202.2C24.9937 202.148 24.3449 201.969 24.3197 201.322C24.3124 201.135 24.3486 200.952 24.3848 200.768C24.4173 200.603 24.4498 200.438 24.4511 200.269C24.3761 200.102 24.222 199.976 24.0753 199.856C24.0322 199.821 23.9896 199.786 23.95 199.751C23.6779 199.51 23.3176 199.192 23.0803 198.822C22.8461 198.458 23.1592 198.025 23.5681 198.056C23.7049 198.066 23.8417 198.075 23.9786 198.084C24.2547 198.103 24.6413 198.128 25.0835 198.153C25.9704 198.203 27.0715 198.253 27.9512 198.253C29.2213 198.253 30.2642 197.954 31.1228 197.708C31.1804 197.692 31.2389 197.674 31.2981 197.656C31.7723 197.513 32.2899 197.356 32.7077 197.716ZM24.7629 199.136C25.0864 199.429 25.4511 199.783 25.4512 200.253C25.4512 200.593 25.3925 200.88 25.3547 201.065C25.3472 201.101 25.3405 201.134 25.3353 201.162C25.8677 201.279 26.4404 201.268 26.9946 201.258C27.1486 201.255 27.3013 201.253 27.4511 201.253C29.1181 201.253 30.1277 200.847 30.7742 200.317C31.3719 199.827 31.7121 199.188 31.9513 198.516C31.8065 198.554 31.6451 198.601 31.4683 198.651C30.6058 198.9 29.3792 199.253 27.9512 199.253C26.9499 199.253 25.6895 199.191 24.7629 199.136Z" fill="#5F5F6A"/>
<path fill-rule="evenodd" clip-rule="evenodd" d="M28 186.5C22.7533 186.5 18.5 190.753 18.5 196C18.5 201.247 22.7533 205.5 28 205.5C33.2467 205.5 37.5 201.247 37.5 196C37.5 190.753 33.2467 186.5 28 186.5ZM19.5 196C19.5 191.306 23.3056 187.5 28 187.5C32.6944 187.5 36.5 191.306 36.5 196C36.5 200.694 32.6944 204.5 28 204.5C23.3056 204.5 19.5 200.694 19.5 196Z" fill="#5F5F6A"/>
</svg>
