<svg width="56" height="224" viewBox="0 0 56 224" fill="none" xmlns="http://www.w3.org/2000/svg">
<path d="M28 36C32.4183 36 36 32.4183 36 28C36 23.5817 32.4183 20 28 20C23.5817 20 20 23.5817 20 28C20 32.4183 23.5817 36 28 36ZM26.7556 24.4001C26.6868 23.6489 27.2636 23 28 23C28.7364 23 29.3132 23.6489 29.2444 24.4001L28.7503 28.5499C28.714 28.9467 28.389 29.25 28 29.25C27.611 29.25 27.286 28.9467 27.2497 28.5499L26.7556 24.4001ZM29.25 31.75C29.25 32.4404 28.6904 33 28 33C27.3096 33 26.75 32.4404 26.75 31.75C26.75 31.0596 27.3096 30.5 28 30.5C28.6904 30.5 29.25 31.0596 29.25 31.75Z" fill="#5F5F6A"/>
<g opacity="0.5">
<path d="M28 79C27.2636 79 26.6868 79.6489 26.7556 80.4001L27.2497 84.5499C27.286 84.9467 27.611 85.25 28 85.25C28.389 85.25 28.714 84.9467 28.7503 84.5499L29.2444 80.4001C29.3132 79.6489 28.7364 79 28 79Z" fill="#5F5F6A"/>
<path d="M28 89C28.6904 89 29.25 88.4404 29.25 87.75C29.25 87.0596 28.6904 86.5 28 86.5C27.3096 86.5 26.75 87.0596 26.75 87.75C26.75 88.4404 27.3096 89 28 89Z" fill="#5F5F6A"/>
</g>
<path d="M28 76.75C23.9959 76.75 20.75 79.9959 20.75 84C20.75 88.0041 23.9959 91.25 28 91.25C32.0041 91.25 35.25 88.0041 35.25 84C35.25 79.9959 32.0041 76.75 28 76.75ZM19.25 84C19.25 79.1675 23.1675 75.25 28 75.25C32.8325 75.25 36.75 79.1675 36.75 84C36.75 88.8325 32.8325 92.75 28 92.75C23.1675 92.75 19.25 88.8325 19.25 84Z" fill="#5F5F6A"/>
<path d="M28 135C27.2636 135 26.6868 135.649 26.7556 136.4L27.2497 140.55C27.286 140.947 27.611 141.25 28 141.25C28.389 141.25 28.714 140.947 28.7503 140.55L29.2444 136.4C29.3132 135.649 28.7364 135 28 135Z" fill="#5F5F6A"/>
<path d="M28 145C28.6904 145 29.25 144.44 29.25 143.75C29.25 143.06 28.6904 142.5 28 142.5C27.3096 142.5 26.75 143.06 26.75 143.75C26.75 144.44 27.3096 145 28 145Z" fill="#5F5F6A"/>
<path d="M28 132.75C23.9959 132.75 20.75 135.996 20.75 140C20.75 144.004 23.9959 147.25 28 147.25C32.0041 147.25 35.25 144.004 35.25 140C35.25 135.996 32.0041 132.75 28 132.75ZM19.25 140C19.25 135.168 23.1675 131.25 28 131.25C32.8325 131.25 36.75 135.168 36.75 140C36.75 144.832 32.8325 148.75 28 148.75C23.1675 148.75 19.25 144.832 19.25 140Z" fill="#5F5F6A"/>
<path d="M28 191C27.2636 191 26.6868 191.649 26.7556 192.4L27.2497 196.55C27.286 196.947 27.611 197.25 28 197.25C28.389 197.25 28.714 196.947 28.7503 196.55L29.2444 192.4C29.3132 191.649 28.7364 191 28 191Z" fill="#5F5F6A"/>
<path d="M28 201C28.6904 201 29.25 200.44 29.25 199.75C29.25 199.06 28.6904 198.5 28 198.5C27.3096 198.5 26.75 199.06 26.75 199.75C26.75 200.44 27.3096 201 28 201Z" fill="#5F5F6A"/>
<path d="M28 188.5C23.8579 188.5 20.5 191.858 20.5 196C20.5 200.142 23.8579 203.5 28 203.5C32.1421 203.5 35.5 200.142 35.5 196C35.5 191.858 32.1421 188.5 28 188.5ZM19.5 196C19.5 191.306 23.3056 187.5 28 187.5C32.6944 187.5 36.5 191.306 36.5 196C36.5 200.694 32.6944 204.5 28 204.5C23.3056 204.5 19.5 200.694 19.5 196Z" fill="#5F5F6A"/>
</svg>
