<svg width="56" height="224" viewBox="0 0 56 224" fill="none" xmlns="http://www.w3.org/2000/svg">
<path d="M31.3457 24.6538V26.9393C31.3457 27.6297 31.9054 28.1893 32.5957 28.1893C33.2861 28.1893 33.8457 27.6297 33.8457 26.9393V24.2038C33.8457 24.1956 33.8457 24.1872 33.8457 24.1787C33.8458 24.062 33.8459 23.9097 33.8348 23.7736C33.8216 23.6129 33.787 23.3684 33.655 23.1093C33.4872 22.78 33.2195 22.5123 32.8902 22.3445C32.6311 22.2125 32.3866 22.1779 32.2259 22.1648C32.0898 22.1536 31.9376 22.1537 31.8209 22.1538C31.8123 22.1538 31.8039 22.1538 31.7957 22.1538L29.0602 22.1538C28.3698 22.1538 27.8102 22.7134 27.8102 23.4038C27.8102 24.0942 28.3698 24.6538 29.0602 24.6538H31.3457ZM23.4033 27.8107C24.0937 27.8107 24.6533 28.3703 24.6533 29.0607V31.3462H26.9389C27.6292 31.3462 28.1889 31.9058 28.1889 32.5962C28.1889 33.2865 27.6292 33.8462 26.9389 33.8462H24.2033C24.1952 33.8462 24.1868 33.8462 24.1782 33.8462C24.0615 33.8463 23.9092 33.8463 23.7732 33.8352C23.6125 33.8221 23.3679 33.7874 23.1089 33.6554C22.7796 33.4877 22.5119 33.2199 22.3441 32.8907C22.2121 32.6316 22.1774 32.3871 22.1643 32.2264C22.1532 32.0903 22.1533 31.938 22.1533 31.8213C22.1533 31.8127 22.1533 31.8044 22.1533 31.7962L22.1533 29.0607C22.1533 28.3703 22.713 27.8107 23.4033 27.8107Z" fill="#5F5F6A"/>
<path d="M31.5957 80.4038V82.9393C31.5957 83.4916 32.0434 83.9393 32.5957 83.9393C33.148 83.9393 33.5957 83.4916 33.5957 82.9393V80.2038C33.5957 80.1962 33.5957 80.1885 33.5957 80.1807C33.5958 80.0615 33.5958 79.9193 33.5856 79.794C33.5737 79.6487 33.5433 79.4408 33.4322 79.2228C33.2884 78.9406 33.0589 78.7111 32.7767 78.5673C32.5588 78.4562 32.3508 78.4258 32.2056 78.4139C32.0802 78.4037 31.938 78.4037 31.8189 78.4038C31.811 78.4038 31.8033 78.4038 31.7957 78.4038L29.0602 78.4038C28.5079 78.4038 28.0602 78.8515 28.0602 79.4038C28.0602 79.9561 28.5079 80.4038 29.0602 80.4038H31.5957ZM23.4033 84.0606C23.9556 84.0606 24.4033 84.5084 24.4033 85.0606V87.5962H26.9389C27.4912 87.5962 27.9389 88.0439 27.9389 88.5962C27.9389 89.1485 27.4912 89.5962 26.9389 89.5962H24.2033C24.1957 89.5962 24.188 89.5962 24.1802 89.5962C24.0611 89.5962 23.9188 89.5963 23.7935 89.586C23.6483 89.5742 23.4403 89.5437 23.2223 89.4327C22.9401 89.2889 22.7106 89.0594 22.5668 88.7772C22.4558 88.5592 22.4253 88.3512 22.4135 88.206C22.4032 88.0807 22.4033 87.9384 22.4033 87.8193C22.4033 87.8115 22.4033 87.8038 22.4033 87.7962L22.4033 85.0606C22.4033 84.5084 22.851 84.0606 23.4033 84.0606Z" fill="#5F5F6A"/>
<path d="M31.8457 136.154C31.83 136.154 31.8134 136.154 31.7957 136.154L29.0602 136.154C28.646 136.154 28.3102 135.818 28.3102 135.404C28.3102 134.99 28.646 134.654 29.0602 134.654L31.7957 134.654C31.8024 134.654 31.8092 134.654 31.8159 134.654C31.9381 134.654 32.0705 134.654 32.1852 134.663C32.3149 134.674 32.4864 134.7 32.6632 134.79C32.8984 134.91 33.0896 135.101 33.2095 135.336C33.2996 135.513 33.3258 135.685 33.3364 135.814C33.3458 135.929 33.3457 136.061 33.3457 136.184C33.3457 136.19 33.3457 136.197 33.3457 136.204V138.939C33.3457 139.354 33.0099 139.689 32.5957 139.689C32.1815 139.689 31.8457 139.354 31.8457 138.939V136.204C31.8457 136.186 31.8457 136.17 31.8457 136.154ZM23.4033 140.311C23.8175 140.311 24.1533 140.646 24.1533 141.061V143.796C24.1533 143.814 24.1533 143.83 24.1533 143.846C24.1691 143.846 24.1857 143.846 24.2033 143.846H26.9389C27.3531 143.846 27.6889 144.182 27.6889 144.596C27.6889 145.01 27.3531 145.346 26.9389 145.346H24.2033C24.1966 145.346 24.1899 145.346 24.1831 145.346C24.0609 145.346 23.9285 145.346 23.8139 145.337C23.6841 145.326 23.5127 145.3 23.3358 145.21C23.1006 145.09 22.9094 144.899 22.7896 144.664C22.6995 144.487 22.6732 144.315 22.6626 144.186C22.6533 144.071 22.6533 143.939 22.6533 143.816C22.6533 143.81 22.6533 143.803 22.6533 143.796L22.6533 141.061C22.6533 140.646 22.9891 140.311 23.4033 140.311Z" fill="#5F5F6A"/>
<path d="M32.0834 191.909C32.0251 191.904 31.944 191.904 31.7957 191.904H29.0602C28.784 191.904 28.5602 191.68 28.5602 191.404C28.5602 191.128 28.784 190.904 29.0602 190.904L31.8117 190.904C31.9379 190.904 32.0607 190.904 32.1648 190.912C32.2791 190.922 32.414 190.944 32.5497 191.013C32.7379 191.109 32.8908 191.262 32.9867 191.45C33.0559 191.586 33.0779 191.72 33.0872 191.835C33.0957 191.939 33.0957 192.062 33.0957 192.188L33.0957 194.939C33.0957 195.215 32.8719 195.439 32.5957 195.439C32.3196 195.439 32.0957 195.215 32.0957 194.939V192.204C32.0957 192.056 32.0953 191.974 32.0906 191.916C32.0904 191.914 32.0902 191.912 32.09 191.91C32.0879 191.909 32.0857 191.909 32.0834 191.909ZM23.4033 196.561C23.6795 196.561 23.9033 196.785 23.9033 197.061V199.796C23.9033 199.944 23.9037 200.026 23.9085 200.084C23.9087 200.086 23.9089 200.088 23.909 200.09C23.9111 200.091 23.9133 200.091 23.9156 200.091C23.9739 200.096 24.0551 200.096 24.2033 200.096H26.9389C27.215 200.096 27.4389 200.32 27.4389 200.596C27.4389 200.872 27.215 201.096 26.9389 201.096L24.1874 201.096C24.0612 201.096 23.9383 201.096 23.8342 201.088C23.7199 201.078 23.585 201.056 23.4493 200.987C23.2612 200.891 23.1082 200.738 23.0123 200.55C22.9432 200.414 22.9211 200.28 22.9118 200.165C22.9033 200.061 22.9033 199.938 22.9033 199.812L22.9033 197.061C22.9033 196.785 23.1272 196.561 23.4033 196.561Z" fill="#5F5F6A"/>
</svg>
