<svg width="56" height="224" viewBox="0 0 56 224" fill="none" xmlns="http://www.w3.org/2000/svg">
<path d="M21.436 23.184C21 24.0397 21 25.1598 21 27.4V28.6C21 30.8402 21 31.9603 21.436 32.816C21.8195 33.5686 22.4314 34.1805 23.184 34.564C24.0397 35 25.1598 35 27.4 35H28.6C30.8402 35 31.9603 35 32.816 34.564C33.5686 34.1805 34.1805 33.5686 34.564 32.816C35 31.9603 35 30.8402 35 28.6V27.4C35 25.1598 35 24.0397 34.564 23.184C34.1805 22.4314 33.5686 21.8195 32.816 21.436C31.9603 21 30.8402 21 28.6 21H27.4C25.1598 21 24.0397 21 23.184 21.436C22.4314 21.8195 21.8195 22.4314 21.436 23.184ZM29.5 23.75C29.9142 23.75 30.25 24.0858 30.25 24.5C30.25 24.9142 29.9142 25.25 29.5 25.25C28.6739 25.25 27.0043 25.2611 27.0043 25.2611C26.8516 25.2736 26.7745 25.3406 26.7611 25.5043C26.7282 25.9073 26.7358 26.3169 26.7434 26.7244C26.7467 26.9003 26.75 27.0757 26.75 27.25H28.5C28.9142 27.25 29.25 27.5858 29.25 28C29.25 28.4142 28.9142 28.75 28.5 28.75H26.75C26.75 28.9243 26.7467 29.0998 26.7434 29.2756C26.7358 29.6831 26.7282 30.0927 26.7611 30.4957C26.7745 30.6594 26.8516 30.7264 27.0043 30.7389C27.0043 30.7389 28.6739 30.75 29.5 30.75C29.9142 30.75 30.25 31.0858 30.25 31.5C30.25 31.9142 29.9142 32.25 29.5 32.25L27.5738 32.25C27.3163 32.25 27.0798 32.25 26.8821 32.2339C26.2672 32.1836 25.7258 31.8539 25.4407 31.2945C25.2458 30.9119 25.2478 30.4696 25.2496 30.0476C25.2498 30.0069 25.25 29.9664 25.25 29.9262V26.0738C25.25 25.8163 25.25 25.5798 25.2661 25.3821C25.3372 24.512 25.9961 23.8385 26.8821 23.7661C27.0798 23.75 27.3163 23.75 27.5738 23.75L29.5 23.75Z" fill="#5F5F6A"/>
<path d="M27.367 76.25H28.633C29.7251 76.25 30.5906 76.25 31.2883 76.307C32.0017 76.3653 32.6053 76.4869 33.1565 76.7677C34.0502 77.2231 34.7769 77.9498 35.2323 78.8435C35.5131 79.3947 35.6347 79.9983 35.693 80.7117C35.75 81.4094 35.75 82.2748 35.75 83.367V84.633C35.75 85.7252 35.75 86.5906 35.693 87.2883C35.6347 88.0017 35.5131 88.6053 35.2323 89.1565C34.7769 90.0502 34.0502 90.7769 33.1565 91.2323C32.6053 91.5131 32.0017 91.6347 31.2883 91.693C30.5906 91.75 29.7252 91.75 28.633 91.75H27.367C26.2748 91.75 25.4094 91.75 24.7117 91.693C23.9983 91.6347 23.3947 91.5131 22.8435 91.2323C21.9498 90.7769 21.2231 90.0502 20.7677 89.1565C20.4869 88.6053 20.3653 88.0017 20.307 87.2883C20.25 86.5906 20.25 85.7251 20.25 84.633V83.367C20.25 82.2749 20.25 81.4094 20.307 80.7117C20.3653 79.9983 20.4869 79.3947 20.7677 78.8435C21.2231 77.9498 21.9498 77.2231 22.8435 76.7677C23.3947 76.4869 23.9983 76.3653 24.7117 76.307C25.4094 76.25 26.2749 76.25 27.367 76.25ZM24.8339 77.802C24.2133 77.8527 23.829 77.9491 23.5245 78.1042C22.913 78.4158 22.4158 78.913 22.1042 79.5245C21.9491 79.829 21.8527 80.2133 21.802 80.8339C21.7506 81.4633 21.75 82.2675 21.75 83.4V84.6C21.75 85.7325 21.7506 86.5367 21.802 87.1661C21.8527 87.7867 21.9491 88.171 22.1042 88.4755C22.4158 89.087 22.913 89.5842 23.5245 89.8958C23.829 90.0509 24.2133 90.1473 24.8339 90.198C25.4633 90.2494 26.2675 90.25 27.4 90.25H28.6C29.7325 90.25 30.5367 90.2494 31.1661 90.198C31.7867 90.1473 32.171 90.0509 32.4755 89.8958C33.087 89.5842 33.5842 89.087 33.8958 88.4755C34.0509 88.171 34.1473 87.7867 34.198 87.1661C34.2494 86.5367 34.25 85.7325 34.25 84.6V83.4C34.25 82.2675 34.2494 81.4633 34.198 80.8339C34.1473 80.2133 34.0509 79.829 33.8958 79.5245C33.5842 78.913 33.087 78.4158 32.4755 78.1042C32.171 77.9491 31.7867 77.8527 31.1661 77.802C30.5367 77.7506 29.7325 77.75 28.6 77.75H27.4C26.2675 77.75 25.4633 77.7506 24.8339 77.802Z" fill="#5F5F6A"/>
<path opacity="0.5" d="M27.6 79.75H29.5C29.9142 79.75 30.25 80.0858 30.25 80.5C30.25 80.9142 29.9142 81.25 29.5 81.25C28.6739 81.25 27.0043 81.2611 27.0043 81.2611C26.8516 81.2736 26.7745 81.3406 26.7611 81.5043C26.714 82.0812 26.75 82.6718 26.75 83.25H28.5C28.9142 83.25 29.25 83.5858 29.25 84C29.25 84.4142 28.9142 84.75 28.5 84.75H26.75C26.75 85.3282 26.714 85.9188 26.7611 86.4957C26.7745 86.6594 26.8516 86.7264 27.0043 86.7389C27.0043 86.7389 28.6739 86.75 29.5 86.75C29.9142 86.75 30.25 87.0858 30.25 87.5C30.25 87.9142 29.9142 88.25 29.5 88.25L27.5738 88.25C27.3163 88.25 27.0798 88.25 26.8821 88.2339C26.2672 88.1836 25.7258 87.8539 25.4407 87.2945C25.227 86.875 25.25 86.3837 25.25 85.9262L25.25 82.1C25.25 81.8323 25.2494 81.5865 25.2661 81.3821C25.3372 80.512 25.9961 79.8385 26.8821 79.7661C27.0865 79.7494 27.3324 79.75 27.6 79.75Z" fill="#5F5F6A"/>
<path d="M27.367 132.25H28.633C29.7251 132.25 30.5906 132.25 31.2883 132.307C32.0017 132.365 32.6053 132.487 33.1565 132.768C34.0502 133.223 34.7769 133.95 35.2323 134.844C35.5131 135.395 35.6347 135.998 35.693 136.712C35.75 137.409 35.75 138.275 35.75 139.367V140.633C35.75 141.725 35.75 142.591 35.693 143.288C35.6347 144.002 35.5131 144.605 35.2323 145.156C34.7769 146.05 34.0502 146.777 33.1565 147.232C32.6053 147.513 32.0017 147.635 31.2883 147.693C30.5906 147.75 29.7252 147.75 28.633 147.75H27.367C26.2748 147.75 25.4094 147.75 24.7117 147.693C23.9983 147.635 23.3947 147.513 22.8435 147.232C21.9498 146.777 21.2231 146.05 20.7677 145.156C20.4869 144.605 20.3653 144.002 20.307 143.288C20.25 142.591 20.25 141.725 20.25 140.633V139.367C20.25 138.275 20.25 137.409 20.307 136.712C20.3653 135.998 20.4869 135.395 20.7677 134.844C21.2231 133.95 21.9498 133.223 22.8435 132.768C23.3947 132.487 23.9983 132.365 24.7117 132.307C25.4094 132.25 26.2749 132.25 27.367 132.25ZM24.8339 133.802C24.2133 133.853 23.829 133.949 23.5245 134.104C22.913 134.416 22.4158 134.913 22.1042 135.525C21.9491 135.829 21.8527 136.213 21.802 136.834C21.7506 137.463 21.75 138.268 21.75 139.4V140.6C21.75 141.732 21.7506 142.537 21.802 143.166C21.8527 143.787 21.9491 144.171 22.1042 144.475C22.4158 145.087 22.913 145.584 23.5245 145.896C23.829 146.051 24.2133 146.147 24.8339 146.198C25.4633 146.249 26.2675 146.25 27.4 146.25H28.6C29.7325 146.25 30.5367 146.249 31.1661 146.198C31.7867 146.147 32.171 146.051 32.4755 145.896C33.087 145.584 33.5842 145.087 33.8958 144.475C34.0509 144.171 34.1473 143.787 34.198 143.166C34.2494 142.537 34.25 141.732 34.25 140.6V139.4C34.25 138.268 34.2494 137.463 34.198 136.834C34.1473 136.213 34.0509 135.829 33.8958 135.525C33.5842 134.913 33.087 134.416 32.4755 134.104C32.171 133.949 31.7867 133.853 31.1661 133.802C30.5367 133.751 29.7325 133.75 28.6 133.75H27.4C26.2675 133.75 25.4633 133.751 24.8339 133.802Z" fill="#5F5F6A"/>
<path d="M27.6 135.75H29.5C29.9142 135.75 30.25 136.086 30.25 136.5C30.25 136.914 29.9142 137.25 29.5 137.25C28.6739 137.25 27.0043 137.261 27.0043 137.261C26.8516 137.274 26.7745 137.341 26.7611 137.504C26.714 138.081 26.75 138.672 26.75 139.25H28.5C28.9142 139.25 29.25 139.586 29.25 140C29.25 140.414 28.9142 140.75 28.5 140.75H26.75C26.75 141.328 26.714 141.919 26.7611 142.496C26.7745 142.659 26.8516 142.726 27.0043 142.739C27.0043 142.739 28.6739 142.75 29.5 142.75C29.9142 142.75 30.25 143.086 30.25 143.5C30.25 143.914 29.9142 144.25 29.5 144.25L27.5738 144.25C27.3163 144.25 27.0798 144.25 26.8821 144.234C26.2672 144.184 25.7258 143.854 25.4407 143.294C25.227 142.875 25.25 142.384 25.25 141.926L25.25 138.1C25.25 137.832 25.2494 137.587 25.2661 137.382C25.3372 136.512 25.9961 135.839 26.8821 135.766C27.0865 135.749 27.3324 135.75 27.6 135.75Z" fill="#5F5F6A"/>
<path fill-rule="evenodd" clip-rule="evenodd" d="M27.3774 188.5H28.6226C29.7236 188.5 30.5805 188.5 31.2679 188.556C31.9658 188.613 32.5329 188.731 33.043 188.99C33.8897 189.422 34.5781 190.11 35.0095 190.957C35.2694 191.467 35.3868 192.034 35.4438 192.732C35.5 193.419 35.5 194.276 35.5 195.377V196.623C35.5 197.724 35.5 198.581 35.4438 199.268C35.3868 199.966 35.2694 200.533 35.0095 201.043C34.5781 201.89 33.8897 202.578 33.043 203.01C32.5329 203.269 31.9658 203.387 31.2679 203.444C30.5805 203.5 29.7236 203.5 28.6226 203.5H27.3774C26.2764 203.5 25.4195 203.5 24.7321 203.444C24.0342 203.387 23.4671 203.269 22.957 203.01C22.1103 202.578 21.4219 201.89 20.9905 201.043C20.7306 200.533 20.6132 199.966 20.5562 199.268C20.5 198.581 20.5 197.724 20.5 196.623V195.377C20.5 194.276 20.5 193.419 20.5562 192.732C20.6132 192.034 20.7306 191.467 20.9905 190.957C21.4219 190.11 22.1103 189.422 22.957 188.99C23.4671 188.731 24.0342 188.613 24.7321 188.556C25.4195 188.5 26.2764 188.5 27.3774 188.5ZM24.8135 189.553C24.1774 189.605 23.7566 189.705 23.411 189.881C22.7525 190.217 22.217 190.752 21.8815 191.411C21.7054 191.757 21.6048 192.177 21.5528 192.814C21.5004 193.455 21.5 194.272 21.5 195.4V196.6C21.5 197.728 21.5004 198.545 21.5528 199.186C21.6048 199.823 21.7054 200.243 21.8815 200.589C22.217 201.248 22.7525 201.783 23.411 202.119C23.7566 202.295 24.1774 202.395 24.8135 202.447C25.4554 202.5 26.2716 202.5 27.4 202.5H28.6C29.7284 202.5 30.5446 202.5 31.1865 202.447C31.8226 202.395 32.2434 202.295 32.589 202.119C33.2475 201.783 33.783 201.248 34.1185 200.589C34.2946 200.243 34.3952 199.823 34.4472 199.186C34.4996 198.545 34.5 197.728 34.5 196.6V195.4C34.5 194.272 34.4996 193.455 34.4472 192.814C34.3952 192.177 34.2946 191.757 34.1185 191.411C33.783 190.752 33.2475 190.217 32.589 189.881C32.2434 189.705 31.8226 189.605 31.1865 189.553C30.5446 189.5 29.7284 189.5 28.6 189.5H27.4C26.2716 189.5 25.4554 189.5 24.8135 189.553Z" fill="#5F5F6A"/>
<path fill-rule="evenodd" clip-rule="evenodd" d="M27.5807 192L29.5 192C29.7761 192 30 192.224 30 192.5C30 192.776 29.7761 193 29.5 193H27.6C27.3117 193 27.1256 193 26.9839 193.012C26.8481 193.023 26.7977 193.042 26.773 193.054C26.6789 193.102 26.6024 193.179 26.5545 193.273C26.5419 193.298 26.5231 193.348 26.512 193.484C26.5004 193.626 26.5 193.812 26.5 194.1V195.5H28.5C28.7761 195.5 29 195.724 29 196C29 196.276 28.7761 196.5 28.5 196.5H26.5V197.9C26.5 198.188 26.5004 198.374 26.512 198.516C26.5231 198.652 26.5419 198.702 26.5545 198.727C26.6024 198.821 26.6789 198.898 26.773 198.946C26.7977 198.958 26.8481 198.977 26.9839 198.988C27.1256 199 27.3117 199 27.6 199H29.5C29.7761 199 30 199.224 30 199.5C30 199.776 29.7761 200 29.5 200H27.5807C27.3172 200 27.0898 200 26.9025 199.985C26.7048 199.969 26.5082 199.933 26.319 199.837C26.0368 199.693 25.8073 199.463 25.6635 199.181C25.5671 198.992 25.5314 198.795 25.5153 198.598C25.5 198.41 25.5 198.183 25.5 197.919V194.081C25.5 193.817 25.5 193.59 25.5153 193.402C25.5314 193.205 25.5671 193.008 25.6635 192.819C25.8073 192.537 26.0368 192.307 26.319 192.163C26.5082 192.067 26.7048 192.031 26.9025 192.015C27.0898 192 27.3172 192 27.5807 192Z" fill="#5F5F6A"/>
</svg>
