<svg width="56" height="224" viewBox="0 0 56 224" fill="none" xmlns="http://www.w3.org/2000/svg">
<path d="M28.7499 33V32.6504C28.7499 31.518 28.7496 30.7134 28.6982 30.084C28.6475 29.4634 28.5506 29.0789 28.3955 28.7744C28.0839 28.163 27.5869 27.6661 26.9755 27.3545C26.6711 27.1994 26.2866 27.1025 25.666 27.0518C25.0366 27.0003 24.232 27 23.0996 27H20.8105L21.7802 27.9697C22.0731 28.2626 22.0731 28.7374 21.7802 29.0303C21.4873 29.3232 21.0126 29.3232 20.7197 29.0303L18.4697 26.7803C18.1768 26.4874 18.1768 26.0126 18.4697 25.7197L20.7197 23.4697C21.0126 23.1768 21.4873 23.1768 21.7802 23.4697C22.0731 23.7626 22.0731 24.2374 21.7802 24.5303L20.8105 25.5H23.0996C24.2072 25.5 25.0834 25.4991 25.788 25.5566C26.5013 25.6149 27.1051 25.7368 27.6562 26.0176C28.55 26.473 29.277 27.2 29.7324 28.0938C30.0131 28.6449 30.135 29.2486 30.1933 29.9619C30.2509 30.6665 30.2499 31.5428 30.2499 32.6504V33C30.2499 33.4142 29.9142 33.75 29.4999 33.75C29.0857 33.75 28.7499 33.4142 28.7499 33Z" fill="#5F5F6A"/>
<path d="M35.8203 24.5H32.4999C31.9476 24.5 31.4999 24.0523 31.4999 23.5V20.1796C31.873 20.3494 32.1515 20.6516 32.4372 20.9373L35.0627 23.5627C35.3484 23.8484 35.6505 24.127 35.8203 24.5Z" fill="#5F5F6A"/>
<path d="M23.2499 26V23.2002C23.2499 22.0019 23.4274 20.9393 24.1337 20.207C24.8462 19.4684 25.916 19.25 27.2001 19.25H30.1747L30.5976 19.2539C30.9395 19.2654 31.3287 19.3089 31.7197 19.4629C31.7504 19.4723 31.7808 19.4836 31.8105 19.4971C31.8219 19.5023 31.8324 19.5093 31.8437 19.5146C31.9322 19.5551 32.0207 19.6016 32.1083 19.6553C32.278 19.7593 32.4288 19.8881 32.5888 20.0381C32.7383 20.1753 32.8661 20.3057 32.9677 20.4072L35.5927 23.0322C35.694 23.1336 35.824 23.2611 35.9609 23.4102C36.1113 23.5705 36.2405 23.7216 36.3447 23.8916C36.3982 23.979 36.4449 24.067 36.4853 24.1553C36.4908 24.1668 36.4976 24.1778 36.5029 24.1895C36.5161 24.2186 36.5277 24.2482 36.537 24.2783C36.76 24.8433 36.7499 25.4052 36.7499 25.8252V32.7998C36.7499 33.9981 36.5724 35.0607 35.8661 35.793C35.1536 36.5316 34.0839 36.75 32.7997 36.75H27.2001C26.0019 36.75 24.9392 36.5725 24.207 35.8662C23.4683 35.1537 23.2499 34.0839 23.2499 32.7998V30C23.2499 29.5858 23.5857 29.25 23.9999 29.25C24.4141 29.25 24.7499 29.5858 24.7499 30V32.7998C24.7499 33.987 24.9684 34.5175 25.248 34.7871C25.5339 35.0629 26.0713 35.25 27.2001 35.25H32.7997C33.9869 35.25 34.5174 35.0315 34.787 34.752C35.0628 34.466 35.2499 33.9286 35.2499 32.7998V25.8252C35.2499 25.5944 35.2463 25.4081 35.2324 25.25H32.4999C31.5334 25.25 30.7499 24.4665 30.7499 23.5V20.7676C30.6907 20.7623 30.6276 20.7574 30.5595 20.7549L30.1747 20.75H27.2001C26.0129 20.75 25.4825 20.9685 25.2128 21.248C24.9371 21.534 24.7499 22.0714 24.7499 23.2002V26C24.7499 26.4142 24.4141 26.75 23.9999 26.75C23.5857 26.75 23.2499 26.4142 23.2499 26ZM32.2499 23.5C32.2499 23.6381 32.3619 23.75 32.4999 23.75H34.1894L32.2499 21.8105V23.5Z" fill="#5F5F6A"/>
<path d="M35.8203 24.5H32.4999C31.9476 24.5 31.4999 24.0523 31.4999 23.5V20.1796C31.873 20.3494 32.1515 20.6516 32.4372 20.9373L35.0627 23.5627C35.3484 23.8484 35.6505 24.127 35.8203 24.5Z" fill="#5F5F6A"/>
<path opacity="0.5" d="M28.7499 89V88.6504C28.7499 87.518 28.7496 86.7134 28.6982 86.084C28.6475 85.4634 28.5506 85.0789 28.3955 84.7744C28.0839 84.163 27.5869 83.6661 26.9755 83.3545C26.6711 83.1994 26.2866 83.1025 25.666 83.0518C25.0366 83.0003 24.232 83 23.0996 83H20.8105L21.7802 83.9697C22.0731 84.2626 22.0731 84.7374 21.7802 85.0303C21.4873 85.3232 21.0126 85.3232 20.7197 85.0303L18.4697 82.7803C18.1768 82.4874 18.1768 82.0126 18.4697 81.7197L20.7197 79.4697C21.0126 79.1768 21.4873 79.1768 21.7802 79.4697C22.0731 79.7626 22.0731 80.2374 21.7802 80.5303L20.8105 81.5H23.0996C24.2072 81.5 25.0834 81.4991 25.788 81.5566C26.5013 81.6149 27.1051 81.7368 27.6562 82.0176C28.55 82.473 29.277 83.2 29.7324 84.0938C30.0131 84.6449 30.135 85.2486 30.1933 85.9619C30.2509 86.6665 30.2499 87.5428 30.2499 88.6504V89C30.2499 89.4142 29.9142 89.75 29.4999 89.75C29.0857 89.75 28.7499 89.4142 28.7499 89Z" fill="#5F5F6A"/>
<path d="M35.8204 80.5H32.5C31.9477 80.5 31.5 80.0523 31.5 79.5V76.1796C31.873 76.3494 32.1516 76.6515 32.4373 76.9372L35.0627 79.5627C35.3484 79.8484 35.6506 80.127 35.8204 80.5Z" fill="#5F5F6A"/>
<path d="M35.8204 80.5H32.5C31.9477 80.5 31.5 80.0523 31.5 79.5V76.1796C31.873 76.3494 32.1516 76.6515 32.4373 76.9372L35.0627 79.5627C35.3484 79.8484 35.6506 80.127 35.8204 80.5Z" fill="#5F5F6A"/>
<path d="M23.25 82V79.2002C23.25 78.0019 23.4275 76.9393 24.1338 76.207C24.8463 75.4684 25.9161 75.25 27.2002 75.25H30.1748L30.5977 75.2539C30.9396 75.2654 31.3288 75.3089 31.7197 75.4629C31.7505 75.4723 31.7808 75.4836 31.8105 75.4971C31.8219 75.5023 31.8325 75.5093 31.8438 75.5146C31.9323 75.5551 32.0207 75.6016 32.1084 75.6553C32.2781 75.7593 32.4289 75.8881 32.5889 76.0381C32.7384 76.1753 32.8662 76.3057 32.9678 76.4072L35.5928 79.0322C35.6941 79.1336 35.8241 79.2611 35.9609 79.4102C36.1114 79.5705 36.2405 79.7216 36.3447 79.8916C36.3983 79.979 36.445 80.067 36.4854 80.1553C36.4908 80.1668 36.4976 80.1778 36.5029 80.1895C36.5162 80.2186 36.5278 80.2482 36.5371 80.2783C36.7601 80.8433 36.75 81.4052 36.75 81.8252V88.7998C36.75 89.9981 36.5725 91.0607 35.8662 91.793C35.1537 92.5316 34.0839 92.75 32.7998 92.75H27.2002C26.0019 92.75 24.9393 92.5725 24.207 91.8662C23.4684 91.1537 23.25 90.0839 23.25 88.7998V86C23.25 85.5858 23.5858 85.25 24 85.25C24.4142 85.25 24.75 85.5858 24.75 86V88.7998C24.75 89.987 24.9685 90.5175 25.248 90.7871C25.534 91.0629 26.0714 91.25 27.2002 91.25H32.7998C33.987 91.25 34.5175 91.0315 34.7871 90.752C35.0629 90.466 35.25 89.9286 35.25 88.7998V81.8252C35.25 81.5944 35.2464 81.4081 35.2324 81.25H32.5C31.5335 81.25 30.75 80.4665 30.75 79.5V76.7676C30.6908 76.7623 30.6276 76.7574 30.5596 76.7549L30.1748 76.75H27.2002C26.013 76.75 25.4825 76.9685 25.2129 77.248C24.9371 77.534 24.75 78.0714 24.75 79.2002V82C24.75 82.4142 24.4142 82.75 24 82.75C23.5858 82.75 23.25 82.4142 23.25 82ZM32.25 79.5C32.25 79.6381 32.3619 79.75 32.5 79.75H34.1895L32.25 77.8105V79.5Z" fill="#5F5F6A"/>
<path d="M28.7499 145V144.65C28.7499 143.518 28.7496 142.713 28.6982 142.084C28.6475 141.463 28.5506 141.079 28.3955 140.774C28.0839 140.163 27.5869 139.666 26.9755 139.354C26.6711 139.199 26.2866 139.102 25.666 139.052C25.0366 139 24.232 139 23.0996 139H20.8105L21.7802 139.97C22.0731 140.263 22.0731 140.737 21.7802 141.03C21.4873 141.323 21.0126 141.323 20.7197 141.03L18.4697 138.78C18.1768 138.487 18.1768 138.013 18.4697 137.72L20.7197 135.47C21.0126 135.177 21.4873 135.177 21.7802 135.47C22.0731 135.763 22.0731 136.237 21.7802 136.53L20.8105 137.5H23.0996C24.2072 137.5 25.0834 137.499 25.788 137.557C26.5013 137.615 27.1051 137.737 27.6562 138.018C28.55 138.473 29.277 139.2 29.7324 140.094C30.0131 140.645 30.135 141.249 30.1933 141.962C30.2509 142.667 30.2499 143.543 30.2499 144.65V145C30.2499 145.414 29.9142 145.75 29.4999 145.75C29.0857 145.75 28.7499 145.414 28.7499 145Z" fill="#5F5F6A"/>
<path d="M35.8203 136.5H32.4999C31.9477 136.5 31.4999 136.052 31.4999 135.5V132.18C31.873 132.349 32.1515 132.652 32.4372 132.937L35.0627 135.563C35.3484 135.848 35.6505 136.127 35.8203 136.5Z" fill="#5F5F6A"/>
<path d="M23.2499 138V135.2C23.2499 134.002 23.4274 132.939 24.1337 132.207C24.8462 131.468 25.916 131.25 27.2001 131.25H30.1747L30.5976 131.254C30.9396 131.265 31.3287 131.309 31.7197 131.463C31.7504 131.472 31.7808 131.484 31.8105 131.497C31.8219 131.502 31.8324 131.509 31.8437 131.515C31.9322 131.555 32.0207 131.602 32.1083 131.655C32.278 131.759 32.4288 131.888 32.5888 132.038C32.7384 132.175 32.8661 132.306 32.9677 132.407L35.5927 135.032C35.6941 135.134 35.824 135.261 35.9609 135.41C36.1113 135.571 36.2405 135.722 36.3447 135.892C36.3982 135.979 36.4449 136.067 36.4853 136.155C36.4908 136.167 36.4976 136.178 36.5029 136.189C36.5161 136.219 36.5277 136.248 36.5371 136.278C36.76 136.843 36.7499 137.405 36.7499 137.825V144.8C36.7499 145.998 36.5725 147.061 35.8662 147.793C35.1536 148.532 34.0839 148.75 32.7997 148.75H27.2001C26.0019 148.75 24.9392 148.573 24.207 147.866C23.4683 147.154 23.2499 146.084 23.2499 144.8V142C23.2499 141.586 23.5857 141.25 23.9999 141.25C24.4142 141.25 24.7499 141.586 24.7499 142V144.8C24.7499 145.987 24.9685 146.517 25.248 146.787C25.5339 147.063 26.0713 147.25 27.2001 147.25H32.7997C33.987 147.25 34.5174 147.031 34.7871 146.752C35.0628 146.466 35.2499 145.929 35.2499 144.8V137.825C35.2499 137.594 35.2463 137.408 35.2324 137.25H32.4999C31.5335 137.25 30.75 136.466 30.7499 135.5V132.768C30.6907 132.762 30.6276 132.757 30.5595 132.755L30.1747 132.75H27.2001C26.0129 132.75 25.4825 132.969 25.2128 133.248C24.9371 133.534 24.7499 134.071 24.7499 135.2V138C24.7499 138.414 24.4142 138.75 23.9999 138.75C23.5857 138.75 23.2499 138.414 23.2499 138ZM32.2499 135.5C32.25 135.638 32.3619 135.75 32.4999 135.75H34.1894L32.2499 133.811V135.5Z" fill="#5F5F6A"/>
<path d="M29 201V200.65C29 199.522 28.9997 198.705 28.9472 198.063C28.8953 197.427 28.7942 197.007 28.6181 196.661C28.2826 196.003 27.7473 195.467 27.0888 195.132C26.7432 194.956 26.3226 194.855 25.6865 194.803C25.0446 194.75 24.2279 194.75 23.0996 194.75H20.207L21.6035 196.146C21.7987 196.342 21.7987 196.658 21.6035 196.854C21.4082 197.049 21.0917 197.049 20.8964 196.854L18.6464 194.604C18.4512 194.408 18.4512 194.092 18.6464 193.896L20.8964 191.646C21.0917 191.451 21.4082 191.451 21.6035 191.646C21.7987 191.842 21.7987 192.158 21.6035 192.354L20.207 193.75H23.0996C24.2113 193.75 25.0755 193.75 25.7675 193.807C26.4654 193.864 27.0329 193.98 27.5429 194.24C28.3897 194.672 29.0783 195.36 29.5097 196.207C29.7696 196.717 29.8873 197.285 29.9443 197.982C30.0008 198.674 30 199.539 30 200.65V201C30 201.276 29.7761 201.5 29.5 201.5C29.2238 201.5 29 201.276 29 201Z" fill="#5F5F6A"/>
<path d="M35.8203 192.5H32.5C31.9477 192.5 31.5 192.052 31.5 191.5V188.18C31.873 188.349 32.1515 188.652 32.4372 188.937L35.0627 191.563C35.3484 191.848 35.6506 192.127 35.8203 192.5Z" fill="#5F5F6A"/>
<path d="M23.5 194V191.2C23.5 190.013 23.6788 189.038 24.3134 188.38C24.9521 187.718 25.9323 187.5 27.2002 187.5H30.1748C30.6014 187.5 31.1137 187.497 31.622 187.696C31.6508 187.704 31.6795 187.712 31.707 187.725C31.7292 187.735 31.7498 187.748 31.7714 187.759C31.8402 187.792 31.9095 187.827 31.9775 187.868C32.1351 187.965 32.2758 188.085 32.4345 188.235C32.5686 188.36 32.6879 188.481 32.791 188.584L35.416 191.209C35.5182 191.311 35.6384 191.43 35.7617 191.563C35.9131 191.722 36.0346 191.864 36.1318 192.022C36.1707 192.086 36.2042 192.151 36.2353 192.215C36.2485 192.241 36.2632 192.266 36.2754 192.293C36.2877 192.32 36.2964 192.348 36.3037 192.377C36.5031 192.886 36.5 193.398 36.5 193.825V200.8C36.5 201.987 36.3211 202.962 35.6865 203.62C35.0478 204.282 34.0676 204.5 32.7998 204.5H27.2002C26.0134 204.5 25.0377 204.321 24.3798 203.687C23.7179 203.048 23.5 202.068 23.5 200.8V198C23.5 197.724 23.7238 197.5 24 197.5C24.2761 197.5 24.5 197.724 24.5 198V200.8C24.5 202.003 24.7182 202.623 25.0742 202.967C25.4345 203.314 26.0596 203.5 27.2002 203.5H32.7998C34.003 203.5 34.6233 203.282 34.9668 202.926C35.3143 202.565 35.5 201.94 35.5 200.8V193.825C35.5 193.494 35.494 193.231 35.4492 193H32.5C31.6715 193 31 192.328 31 191.5V188.55C30.7695 188.505 30.5054 188.5 30.1748 188.5H27.2002C25.997 188.5 25.3767 188.718 25.0332 189.074C24.6856 189.435 24.5 190.06 24.5 191.2V194C24.5 194.276 24.2761 194.5 24 194.5C23.7238 194.5 23.5 194.276 23.5 194ZM32 191.5C32 191.776 32.2238 192 32.5 192H34.791C34.7649 191.974 34.738 191.945 34.7089 191.916L32.0839 189.291C32.0549 189.262 32.0261 189.235 32 189.209V191.5Z" fill="#5F5F6A"/>
</svg>
