<svg width="56" height="224" viewBox="0 0 56 224" fill="none" xmlns="http://www.w3.org/2000/svg">
<path d="M28.5 19.2614C28.3125 19.2496 28.1363 19.2498 27.9784 19.25L24.95 19.25C23.6659 19.25 22.596 19.468 21.8835 20.2066C21.1771 20.9389 21 22.0017 21 23.2V32.8C21 34.0841 21.2179 35.154 21.9566 35.8666C22.6888 36.5729 23.7517 36.75 24.95 36.75H30.55C31.8341 36.75 32.904 36.5321 33.6165 35.7934C34.3229 35.0612 34.5 33.9983 34.5 32.8L34.5 25.7716C34.5002 25.6137 34.5004 25.4375 34.4887 25.25H30.25C29.2835 25.25 28.5 24.4665 28.5 23.5V19.2614Z" fill="#5F5F6A"/>
<path d="M34.0002 23.75C33.8409 23.5297 33.6392 23.3282 33.3943 23.0837L30.6664 20.3557C30.4218 20.1108 30.2203 19.9091 30 19.7498V23.5C30 23.6381 30.1119 23.75 30.25 23.75H34.0002Z" fill="#5F5F6A"/>
<path opacity="0.5" fill-rule="evenodd" clip-rule="evenodd" d="M29.8584 75.6553C29.195 75.2487 28.4908 75.2494 27.9784 75.25L24.95 75.25C23.6659 75.25 22.596 75.468 21.8835 76.2066C21.1771 76.9389 21 78.0017 21 79.2V88.8C21 90.0841 21.2179 91.154 21.9566 91.8666C22.6888 92.5729 23.7517 92.75 24.95 92.75H30.55C31.8341 92.75 32.904 92.5321 33.6165 91.7934C34.3229 91.0612 34.5 89.9983 34.5 88.8L34.5 81.7716C34.5006 81.2592 34.5013 80.555 34.0948 79.8916C33.9237 79.6124 33.6905 79.3795 33.3943 79.0837L30.6664 76.3557C30.3705 76.0595 30.1377 75.8264 29.8584 75.6553Z" fill="#5F5F6A"/>
<path d="M28.5 75.2614C28.921 75.2877 29.3995 75.374 29.8584 75.6552C30.1377 75.8263 30.3705 76.0595 30.6664 76.3557L33.3943 79.0836C33.6905 79.3795 33.9237 79.6124 34.0948 79.8916C34.387 80.3684 34.4688 80.8663 34.4915 81.2989C34.4906 81.2827 34.4897 81.2664 34.4887 81.25H30.25C29.2835 81.25 28.5 80.4665 28.5 79.5V75.2614Z" fill="#5F5F6A"/>
<path fill-rule="evenodd" clip-rule="evenodd" d="M34.2845 136.271C34.501 136.815 34.5005 137.356 34.5 137.772L34.5 144.8C34.5 145.998 34.3229 147.061 33.6165 147.793C32.904 148.532 31.8341 148.75 30.55 148.75H24.95C23.7517 148.75 22.6888 148.573 21.9566 147.867C21.2179 147.154 21 146.084 21 144.8V135.2C21 134.002 21.1771 132.939 21.8835 132.207C22.596 131.468 23.6659 131.25 24.95 131.25L27.9784 131.25C28.3938 131.25 28.9353 131.249 29.4789 131.465C29.6107 131.508 29.7331 131.578 29.8584 131.655C30.1377 131.826 30.3705 132.06 30.6664 132.356L33.3943 135.084C33.6905 135.379 33.9237 135.612 34.0948 135.892C34.1715 136.017 34.2423 136.139 34.2845 136.271ZM27.9785 132.75L27.98 132.75C28.1839 132.75 28.3536 132.753 28.5 132.767V135.5C28.5 136.466 29.2835 137.25 30.25 137.25H32.9835C32.9968 137.396 33.0002 137.566 33 137.77L33 144.8C33 145.929 32.8129 146.466 32.537 146.752C32.2676 147.031 31.7379 147.25 30.55 147.25H24.95C23.8213 147.25 23.284 147.063 22.998 146.787C22.7187 146.518 22.5 145.988 22.5 144.8V135.2C22.5 134.071 22.6871 133.534 22.963 133.248C23.2324 132.969 23.7621 132.75 24.95 132.75L27.9785 132.75ZM30 135.5V133.99L31.7597 135.75H30.25C30.1119 135.75 30 135.638 30 135.5Z" fill="#5F5F6A"/>
<path fill-rule="evenodd" clip-rule="evenodd" d="M29.8584 187.655C30.1377 187.826 30.3705 188.06 30.6664 188.356L33.3943 191.084C33.6905 191.379 33.9237 191.612 34.0948 191.892C34.5013 192.555 34.5006 193.259 34.5 193.772L34.5 200.8C34.5 201.998 34.3229 203.061 33.6165 203.793C32.904 204.532 31.8341 204.75 30.55 204.75H24.95C23.7517 204.75 22.6888 204.573 21.9566 203.867C21.2179 203.154 21 202.084 21 200.8V191.2C21 190.002 21.1771 188.939 21.8835 188.207C22.596 187.468 23.6659 187.25 24.95 187.25L27.9784 187.25C28.4908 187.249 29.195 187.249 29.8584 187.655ZM27.9785 188.25L27.9795 188.25C28.2598 188.25 28.514 188.254 28.75 188.295V191.5C28.75 192.328 29.4216 193 30.25 193H33.4551C33.4958 193.236 33.5003 193.49 33.5 193.771L33.5 200.8C33.5 201.952 33.3162 202.664 32.8968 203.099C32.4797 203.532 31.77 203.75 30.55 203.75H24.95C23.7981 203.75 23.0856 203.566 22.6508 203.147C22.2184 202.73 22 202.02 22 200.8V191.2C22 190.048 22.1838 189.336 22.6032 188.901C23.0203 188.468 23.7301 188.25 24.95 188.25L27.9785 188.25ZM32.8946 192C32.8352 191.939 32.767 191.87 32.6876 191.791L29.9593 189.063C29.8799 188.983 29.8111 188.915 29.75 188.855V191.5C29.75 191.776 29.9739 192 30.25 192H32.8946Z" fill="#5F5F6A"/>
</svg>
