<svg width="56" height="224" viewBox="0 0 56 224" fill="none" xmlns="http://www.w3.org/2000/svg">
<path d="M22.5996 25.25C23.7072 25.25 24.5835 25.2491 25.2881 25.3066C26.0014 25.3649 26.6051 25.4868 27.1562 25.7676C28.05 26.223 28.777 26.95 29.2324 27.8438C29.5132 28.3949 29.6351 28.9986 29.6934 29.7119C29.7381 30.2593 29.744 30.91 29.7461 31.6924L30.9697 30.4697C31.2626 30.1768 31.7374 30.1768 32.0303 30.4697C32.3232 30.7626 32.3232 31.2374 32.0303 31.5303L29.5303 34.0303C29.3896 34.1709 29.1989 34.25 29 34.25C28.8011 34.25 28.6104 34.1709 28.4697 34.0303L25.9697 31.5303C25.6768 31.2374 25.6768 30.7626 25.9697 30.4697C26.2626 30.1768 26.7374 30.1768 27.0303 30.4697L28.2461 31.6855C28.2439 30.9155 28.2381 30.3221 28.1982 29.834C28.1475 29.2134 28.0506 28.8289 27.8955 28.5244C27.5839 27.913 27.087 27.4161 26.4756 27.1045C26.1711 26.9494 25.7866 26.8525 25.166 26.8018C24.5367 26.7503 23.732 26.75 22.5996 26.75H20C19.5858 26.75 19.25 26.4142 19.25 26C19.25 25.5858 19.5858 25.25 20 25.25H22.5996Z" fill="#5F5F6A"/>
<path d="M34.8204 24.5H31.5C30.9477 24.5 30.5 24.0523 30.5 23.5V20.1796C30.873 20.3494 31.1516 20.6516 31.4373 20.9373L34.0627 23.5627C34.3484 23.8484 34.6506 24.127 34.8204 24.5Z" fill="#5F5F6A"/>
<path d="M22.25 26V23.2002C22.25 22.0019 22.4275 20.9393 23.1338 20.207C23.8463 19.4684 24.9161 19.25 26.2002 19.25H29.1748L29.5977 19.2539C29.9396 19.2654 30.3288 19.3089 30.7197 19.4629C30.7505 19.4723 30.7808 19.4836 30.8105 19.4971C30.8219 19.5023 30.8325 19.5093 30.8438 19.5146C30.9323 19.5551 31.0207 19.6016 31.1084 19.6553C31.2781 19.7593 31.4289 19.8881 31.5889 20.0381C31.7384 20.1753 31.8662 20.3057 31.9678 20.4072L34.5928 23.0322C34.6941 23.1336 34.8241 23.2611 34.9609 23.4102C35.1114 23.5705 35.2405 23.7216 35.3447 23.8916C35.3983 23.979 35.445 24.067 35.4854 24.1553C35.4908 24.1668 35.4976 24.1778 35.5029 24.1895C35.5162 24.2186 35.5278 24.2482 35.5371 24.2783C35.7601 24.8433 35.75 25.4052 35.75 25.8252V32.7998C35.75 33.9981 35.5725 35.0607 34.8662 35.793C34.1537 36.5316 33.0839 36.75 31.7998 36.75H26.2002C25.0019 36.75 23.9393 36.5725 23.207 35.8662C22.4684 35.1537 22.25 34.0839 22.25 32.7998V30C22.25 29.5858 22.5858 29.25 23 29.25C23.4142 29.25 23.75 29.5858 23.75 30V32.7998C23.75 33.987 23.9685 34.5175 24.248 34.7871C24.534 35.0629 25.0714 35.25 26.2002 35.25H31.7998C32.987 35.25 33.5175 35.0315 33.7871 34.752C34.0629 34.466 34.25 33.9286 34.25 32.7998V25.8252C34.25 25.5944 34.2464 25.4081 34.2324 25.25H31.5C30.5335 25.25 29.75 24.4665 29.75 23.5V20.7676C29.6908 20.7623 29.6276 20.7574 29.5596 20.7549L29.1748 20.75H26.2002C25.013 20.75 24.4825 20.9685 24.2129 21.248C23.9371 21.534 23.75 22.0714 23.75 23.2002V26C23.75 26.4142 23.4142 26.75 23 26.75C22.5858 26.75 22.25 26.4142 22.25 26ZM31.25 23.5C31.25 23.6381 31.3619 23.75 31.5 23.75H33.1895L31.25 21.8105V23.5Z" fill="#5F5F6A"/>
<path d="M34.8204 24.5H31.5C30.9477 24.5 30.5 24.0523 30.5 23.5V20.1796C30.873 20.3494 31.1516 20.6516 31.4373 20.9373L34.0627 23.5627C34.3484 23.8484 34.6506 24.127 34.8204 24.5Z" fill="#5F5F6A"/>
<path d="M34.8204 80.5H31.5C30.9477 80.5 30.5 80.0523 30.5 79.5V76.1796C30.873 76.3494 31.1516 76.6516 31.4373 76.9373L34.0627 79.5627C34.3484 79.8484 34.6506 80.127 34.8204 80.5Z" fill="#5F5F6A"/>
<path d="M22.25 80.1895V79.2002C22.25 78.0019 22.4275 76.9393 23.1338 76.207C23.8463 75.4684 24.9161 75.25 26.2002 75.25H29.1748L29.5977 75.2539C29.9396 75.2654 30.3288 75.3089 30.7197 75.4629C30.7505 75.4723 30.7808 75.4836 30.8105 75.4971C30.8219 75.5023 30.8325 75.5093 30.8438 75.5146C30.9323 75.5551 31.0207 75.6016 31.1084 75.6553C31.2781 75.7593 31.4289 75.8881 31.5889 76.0381C31.7384 76.1753 31.8662 76.3057 31.9678 76.4072L34.5928 79.0322C34.6941 79.1336 34.8241 79.2611 34.9609 79.4102C35.1114 79.5705 35.2405 79.7216 35.3447 79.8916C35.3983 79.979 35.445 80.067 35.4854 80.1553C35.4908 80.1668 35.4976 80.1778 35.5029 80.1895C35.5162 80.2186 35.5278 80.2482 35.5371 80.2783C35.7601 80.8433 35.75 81.4052 35.75 81.8252V88.7998C35.75 89.9981 35.5725 91.0607 34.8662 91.793C34.1537 92.5316 33.0839 92.75 31.7998 92.75H26.2002C25.0019 92.75 23.9393 92.5725 23.207 91.8662C22.4684 91.1537 22.25 90.0839 22.25 88.7998V86C22.25 85.5858 22.5858 85.25 23 85.25C23.4142 85.25 23.75 85.5858 23.75 86V88.7998C23.75 89.987 23.9685 90.5175 24.248 90.7871C24.534 91.0629 25.0714 91.25 26.2002 91.25H31.7998C32.987 91.25 33.5175 91.0315 33.7871 90.752C34.0629 90.466 34.25 89.9286 34.25 88.7998V81.8252C34.25 81.5944 34.2464 81.4081 34.2324 81.25H31.5C30.5335 81.25 29.75 80.4665 29.75 79.5V76.7676C29.6908 76.7623 29.6276 76.7574 29.5596 76.7549L29.1748 76.75H26.2002C25.013 76.75 24.4825 76.9685 24.2129 77.248C23.9371 77.534 23.75 78.0714 23.75 79.2002V80.1895C23.75 80.6037 23.4142 80.9395 23 80.9395C22.5858 80.9395 22.25 80.6037 22.25 80.1895ZM31.25 79.5C31.25 79.6381 31.3619 79.75 31.5 79.75H33.1895L31.25 77.8105V79.5Z" fill="#5F5F6A"/>
<path d="M34.8204 80.5H31.5C30.9477 80.5 30.5 80.0523 30.5 79.5V76.1796C30.873 76.3494 31.1516 76.6516 31.4373 76.9373L34.0627 79.5627C34.3484 79.8484 34.6506 80.127 34.8204 80.5Z" fill="#5F5F6A"/>
<path opacity="0.5" d="M22.5996 81.25C23.7072 81.25 24.5835 81.2491 25.2881 81.3066C26.0014 81.3649 26.6051 81.4868 27.1562 81.7676C28.05 82.223 28.777 82.95 29.2324 83.8438C29.5132 84.3949 29.6351 84.9986 29.6934 85.7119C29.7381 86.2593 29.744 86.91 29.7461 87.6924L30.9697 86.4697C31.2626 86.1768 31.7374 86.1768 32.0303 86.4697C32.3232 86.7626 32.3232 87.2374 32.0303 87.5303L29.5303 90.0303C29.3896 90.1709 29.1989 90.25 29 90.25C28.8011 90.25 28.6104 90.1709 28.4697 90.0303L25.9697 87.5303C25.6768 87.2374 25.6768 86.7626 25.9697 86.4697C26.2626 86.1768 26.7374 86.1768 27.0303 86.4697L28.2461 87.6855C28.2439 86.9155 28.2381 86.3221 28.1982 85.834C28.1475 85.2134 28.0506 84.8289 27.8955 84.5244C27.5839 83.913 27.087 83.4161 26.4756 83.1045C26.1711 82.9494 25.7866 82.8525 25.166 82.8018C24.5367 82.7503 23.732 82.75 22.5996 82.75H20C19.5858 82.75 19.25 82.4142 19.25 82C19.25 81.5858 19.5858 81.25 20 81.25H22.5996Z" fill="#5F5F6A"/>
<path d="M22.5996 137.25C23.7072 137.25 24.5835 137.249 25.2881 137.307C26.0014 137.365 26.6051 137.487 27.1562 137.768C28.05 138.223 28.777 138.95 29.2324 139.844C29.5132 140.395 29.6351 140.999 29.6934 141.712C29.7381 142.259 29.744 142.91 29.7461 143.692L30.9697 142.47C31.2626 142.177 31.7374 142.177 32.0303 142.47C32.3232 142.763 32.3232 143.237 32.0303 143.53L29.5303 146.03C29.3896 146.171 29.1989 146.25 29 146.25C28.8011 146.25 28.6104 146.171 28.4697 146.03L25.9697 143.53C25.6768 143.237 25.6768 142.763 25.9697 142.47C26.2626 142.177 26.7374 142.177 27.0303 142.47L28.2461 143.686C28.2439 142.915 28.2381 142.322 28.1982 141.834C28.1475 141.213 28.0506 140.829 27.8955 140.524C27.5839 139.913 27.087 139.416 26.4756 139.104C26.1711 138.949 25.7866 138.852 25.166 138.802C24.5367 138.75 23.732 138.75 22.5996 138.75H20C19.5858 138.75 19.25 138.414 19.25 138C19.25 137.586 19.5858 137.25 20 137.25H22.5996Z" fill="#5F5F6A"/>
<path d="M34.8204 136.5H31.5C30.9477 136.5 30.5 136.052 30.5 135.5V132.18C30.873 132.349 31.1516 132.652 31.4373 132.937L34.0627 135.563C34.3484 135.848 34.6506 136.127 34.8204 136.5Z" fill="#5F5F6A"/>
<path d="M22.25 138V135.2C22.25 134.002 22.4275 132.939 23.1338 132.207C23.8463 131.468 24.9161 131.25 26.2002 131.25H29.1748L29.5977 131.254C29.9396 131.265 30.3288 131.309 30.7197 131.463C30.7505 131.472 30.7808 131.484 30.8105 131.497C30.8219 131.502 30.8325 131.509 30.8438 131.515C30.9323 131.555 31.0207 131.602 31.1084 131.655C31.2781 131.759 31.4289 131.888 31.5889 132.038C31.7384 132.175 31.8662 132.306 31.9678 132.407L34.5928 135.032C34.6941 135.134 34.8241 135.261 34.9609 135.41C35.1114 135.571 35.2405 135.722 35.3447 135.892C35.3983 135.979 35.445 136.067 35.4854 136.155C35.4908 136.167 35.4976 136.178 35.5029 136.189C35.5162 136.219 35.5278 136.248 35.5371 136.278C35.7601 136.843 35.75 137.405 35.75 137.825V144.8C35.75 145.998 35.5725 147.061 34.8662 147.793C34.1537 148.532 33.0839 148.75 31.7998 148.75H26.2002C25.0019 148.75 23.9393 148.573 23.207 147.866C22.4684 147.154 22.25 146.084 22.25 144.8V142C22.25 141.586 22.5858 141.25 23 141.25C23.4142 141.25 23.75 141.586 23.75 142V144.8C23.75 145.987 23.9685 146.517 24.248 146.787C24.534 147.063 25.0714 147.25 26.2002 147.25H31.7998C32.987 147.25 33.5175 147.031 33.7871 146.752C34.0629 146.466 34.25 145.929 34.25 144.8V137.825C34.25 137.594 34.2464 137.408 34.2324 137.25H31.5C30.5335 137.25 29.75 136.466 29.75 135.5V132.768C29.6908 132.762 29.6276 132.757 29.5596 132.755L29.1748 132.75H26.2002C25.013 132.75 24.4825 132.969 24.2129 133.248C23.9371 133.534 23.75 134.071 23.75 135.2V138C23.75 138.414 23.4142 138.75 23 138.75C22.5858 138.75 22.25 138.414 22.25 138ZM31.25 135.5C31.25 135.638 31.3619 135.75 31.5 135.75H33.1895L31.25 133.811V135.5Z" fill="#5F5F6A"/>
<path d="M22.5996 193.5C23.7113 193.5 24.5755 193.5 25.2676 193.557C25.9655 193.614 26.5329 193.73 27.043 193.99C27.8897 194.422 28.5783 195.11 29.0098 195.957C29.2696 196.467 29.3863 197.035 29.4434 197.732C29.4981 198.402 29.499 199.233 29.499 200.293L31.1465 198.646C31.3417 198.451 31.6583 198.451 31.8535 198.646C32.0488 198.842 32.0488 199.158 31.8535 199.354L29.3535 201.854C29.2597 201.947 29.1326 202 29 202C28.8674 202 28.7403 201.947 28.6465 201.854L26.1465 199.354C25.9512 199.158 25.9512 198.842 26.1465 198.646C26.3417 198.451 26.6583 198.451 26.8535 198.646L28.499 200.292C28.4989 199.219 28.498 198.435 28.4473 197.813C28.3953 197.177 28.2942 196.757 28.1182 196.411C27.7826 195.753 27.2474 195.217 26.5889 194.882C26.2433 194.706 25.8226 194.605 25.1865 194.553C24.5446 194.5 23.728 194.5 22.5996 194.5H20C19.7239 194.5 19.5 194.276 19.5 194C19.5 193.724 19.7239 193.5 20 193.5H22.5996Z" fill="#5F5F6A"/>
<path d="M34.8204 192.5H31.5C30.9477 192.5 30.5 192.052 30.5 191.5V188.18C30.873 188.349 31.1516 188.652 31.4373 188.937L34.0627 191.563C34.3484 191.848 34.6506 192.127 34.8204 192.5Z" fill="#5F5F6A"/>
<path d="M22.5 194V191.2C22.5 190.013 22.6789 189.038 23.3135 188.38C23.9522 187.718 24.9323 187.5 26.2002 187.5H29.1748C29.6015 187.5 30.1137 187.497 30.6221 187.696C30.6508 187.704 30.6795 187.712 30.707 187.725C30.7292 187.735 30.7498 187.748 30.7715 187.759C30.8402 187.792 30.9096 187.827 30.9775 187.868C31.1351 187.965 31.2759 188.085 31.4346 188.235C31.5686 188.36 31.688 188.481 31.791 188.584L34.416 191.209C34.5183 191.311 34.6384 191.43 34.7617 191.563C34.9132 191.722 35.0347 191.864 35.1318 192.022C35.1708 192.086 35.2042 192.151 35.2354 192.215C35.2485 192.241 35.2632 192.266 35.2754 192.293C35.2878 192.32 35.2965 192.348 35.3037 192.377C35.5032 192.886 35.5 193.398 35.5 193.825V200.8C35.5 201.987 35.3211 202.962 34.6865 203.62C34.0478 204.282 33.0677 204.5 31.7998 204.5H26.2002C25.0135 204.5 24.0378 204.321 23.3799 203.687C22.7179 203.048 22.5 202.068 22.5 200.8V198C22.5 197.724 22.7239 197.5 23 197.5C23.2761 197.5 23.5 197.724 23.5 198V200.8C23.5 202.003 23.7182 202.623 24.0742 202.967C24.4345 203.314 25.0597 203.5 26.2002 203.5H31.7998C33.003 203.5 33.6233 203.282 33.9668 202.926C34.3144 202.565 34.5 201.94 34.5 200.8V193.825C34.5 193.494 34.494 193.231 34.4492 193H31.5C30.6716 193 30 192.328 30 191.5V188.55C29.7695 188.505 29.5055 188.5 29.1748 188.5H26.2002C24.997 188.5 24.3767 188.718 24.0332 189.074C23.6856 189.435 23.5 190.06 23.5 191.2V194C23.5 194.276 23.2761 194.5 23 194.5C22.7239 194.5 22.5 194.276 22.5 194ZM31 191.5C31 191.776 31.2239 192 31.5 192H33.791C33.7649 191.974 33.7381 191.945 33.709 191.916L31.084 189.291C31.0549 189.262 31.0262 189.235 31 189.209V191.5Z" fill="#5F5F6A"/>
</svg>
