<svg width="56" height="224" viewBox="0 0 56 224" fill="none" xmlns="http://www.w3.org/2000/svg">
<path d="M22.5322 20.75C22.0745 20.75 21.6785 20.75 21.3672 20.7793C21.0596 20.8082 20.6817 20.8753 20.3738 21.1284C19.9774 21.4543 19.7525 21.9416 19.75 22.4498C19.7481 22.8398 19.9224 23.1758 20.0893 23.4422C20.258 23.7116 20.5014 24.0323 20.7853 24.4065L23.3814 27.8276C23.6334 28.1598 23.696 28.2478 23.7396 28.3375C23.7851 28.431 23.8185 28.531 23.8388 28.6347C23.8585 28.7352 23.8617 28.847 23.8617 29.2689V32.1793L23.8616 32.239C23.8611 32.4772 23.8605 32.7331 23.932 32.9766C23.9942 33.1889 24.0967 33.3879 24.2348 33.5618C24.3942 33.7626 24.6055 33.9077 24.7967 34.039L24.8451 34.0723L25.8344 34.7552C26.001 34.8703 26.1663 34.9844 26.3102 35.0652C26.4529 35.1452 26.6976 35.2667 26.9994 35.2481C27.3629 35.2256 27.6904 35.0399 27.9002 34.7527C28.0724 34.517 28.1091 34.2542 28.1237 34.0897C28.1384 33.9236 28.1383 33.7202 28.1383 33.5116L28.1383 29.2689C28.1383 28.847 28.1415 28.7352 28.1612 28.6347C28.1815 28.531 28.2149 28.431 28.2604 28.3375C28.304 28.2478 28.3666 28.1598 28.6186 27.8276L31.2147 24.4065C31.4986 24.0324 31.742 23.7116 31.9107 23.4422C32.0776 23.1758 32.2519 22.8398 32.25 22.4498C32.2475 21.9416 32.0226 21.4543 31.6262 21.1284C31.3183 20.8753 30.9404 20.8082 30.6328 20.7793C30.3215 20.75 29.9256 20.75 29.4678 20.75H22.5322ZM21.2508 22.439C21.2551 22.3845 21.2773 22.3377 21.3077 22.3047C21.3316 22.2979 21.3908 22.2837 21.5078 22.2727C21.7401 22.2508 22.0642 22.25 22.5681 22.25H29.4319C29.9358 22.25 30.2599 22.2508 30.4922 22.2727C30.6092 22.2837 30.6684 22.2979 30.6923 22.3047C30.7227 22.3377 30.7449 22.3845 30.7492 22.439C30.7425 22.4579 30.7182 22.5203 30.6395 22.646C30.511 22.8513 30.3095 23.1179 29.9989 23.5273L29.6402 24H22.3598L22.0011 23.5273C21.6905 23.1179 21.489 22.8513 21.3605 22.646C21.2818 22.5203 21.2575 22.4579 21.2508 22.439Z" fill="#5F5F6A"/>
<path d="M32.5 25.75C32.0858 25.75 31.75 26.0858 31.75 26.5C31.75 26.9142 32.0858 27.25 32.5 27.25H35.5C35.9142 27.25 36.25 26.9142 36.25 26.5C36.25 26.0858 35.9142 25.75 35.5 25.75H32.5Z" fill="#5F5F6A"/>
<path d="M31 28.25C30.5858 28.25 30.25 28.5858 30.25 29C30.25 29.4142 30.5858 29.75 31 29.75H35.5C35.9142 29.75 36.25 29.4142 36.25 29C36.25 28.5858 35.9142 28.25 35.5 28.25H31Z" fill="#5F5F6A"/>
<path d="M30.5 30.75C30.0858 30.75 29.75 31.0858 29.75 31.5C29.75 31.9142 30.0858 32.25 30.5 32.25H35.5C35.9142 32.25 36.25 31.9142 36.25 31.5C36.25 31.0858 35.9142 30.75 35.5 30.75H30.5Z" fill="#5F5F6A"/>
<path d="M30.5 33.25C30.0858 33.25 29.75 33.5858 29.75 34C29.75 34.4142 30.0858 34.75 30.5 34.75H33C33.4142 34.75 33.75 34.4142 33.75 34C33.75 33.5858 33.4142 33.25 33 33.25H30.5Z" fill="#5F5F6A"/>
<path d="M22.5322 76.75C22.5441 76.75 22.5561 76.75 22.5681 76.75L29.4678 76.75C29.9255 76.75 30.3215 76.75 30.6328 76.7793C30.9404 76.8082 31.3183 76.8753 31.6262 77.1284C32.0226 77.4543 32.2475 77.9416 32.25 78.4498C32.2519 78.8398 32.0776 79.1758 31.9107 79.4422C31.742 79.7116 31.4986 80.0323 31.2147 80.4065L28.6186 83.8276C28.3666 84.1598 28.304 84.2478 28.2604 84.3375C28.2149 84.431 28.1815 84.531 28.1612 84.6347C28.1415 84.7352 28.1383 84.847 28.1383 85.2689L28.1383 89.5115C28.1383 89.7202 28.1384 89.9236 28.1237 90.0897C28.1091 90.2542 28.0724 90.517 27.9002 90.7527C27.6904 91.0399 27.3629 91.2256 26.9994 91.2481C26.6976 91.2667 26.4529 91.1452 26.3102 91.0652C26.1663 90.9844 26.001 90.8703 25.8344 90.7552L24.8451 90.0723C24.8291 90.0613 24.813 90.0502 24.7967 90.039C24.6055 89.9077 24.3942 89.7626 24.2348 89.5618C24.0967 89.3879 23.9942 89.1889 23.932 88.9765C23.8605 88.7331 23.8611 88.4772 23.8616 88.239C23.8617 88.219 23.8617 88.199 23.8617 88.1793V85.2689C23.8617 84.847 23.8585 84.7352 23.8388 84.6347C23.8185 84.531 23.7851 84.431 23.7396 84.3375C23.696 84.2478 23.6334 84.1598 23.3814 83.8276L20.7853 80.4065C20.5014 80.0323 20.258 79.7116 20.0893 79.4422C19.9224 79.1758 19.7481 78.8398 19.75 78.4498C19.7525 77.9416 19.9774 77.4543 20.3738 77.1284C20.6817 76.8753 21.0596 76.8082 21.3672 76.7793C21.6785 76.75 22.0745 76.75 22.5322 76.75ZM21.3077 78.3047C21.2773 78.3377 21.2551 78.3845 21.2508 78.439C21.2575 78.4579 21.2818 78.5203 21.3605 78.646C21.489 78.8513 21.6905 79.1179 22.0011 79.5273L24.5763 82.9209C24.5881 82.9365 24.5998 82.9519 24.6114 82.9671C24.8121 83.2313 24.9723 83.4422 25.0887 83.6819C25.1913 83.8928 25.2659 84.1164 25.3109 84.3468C25.362 84.608 25.3619 84.874 25.3617 85.2106C25.3617 85.2298 25.3617 85.2492 25.3617 85.2689V88.1793C25.3617 88.3371 25.362 88.4261 25.3656 88.4932C25.3678 88.5333 25.3706 88.5504 25.3715 88.5551C25.3798 88.5828 25.3926 88.6073 25.4084 88.6276C25.412 88.6312 25.4235 88.6419 25.4494 88.662C25.4999 88.7013 25.5699 88.75 25.6972 88.8378L26.6383 89.4875V85.2689C26.6383 85.2492 26.6383 85.2298 26.6383 85.2106C26.6381 84.874 26.638 84.608 26.6891 84.3468C26.7341 84.1164 26.8087 83.8928 26.9113 83.6819C27.0277 83.4422 27.1879 83.2313 27.3886 82.9671C27.4002 82.9519 27.4119 82.9365 27.4237 82.9209L29.9989 79.5273C30.3095 79.1179 30.511 78.8513 30.6395 78.646C30.7182 78.5203 30.7425 78.4579 30.7492 78.439C30.7449 78.3845 30.7227 78.3377 30.6923 78.3047C30.6684 78.2979 30.6092 78.2837 30.4922 78.2727C30.2599 78.2508 29.9358 78.25 29.4319 78.25H22.5681C22.0642 78.25 21.7401 78.2508 21.5078 78.2727C21.3908 78.2837 21.3316 78.2979 21.3077 78.3047Z" fill="#5F5F6A"/>
<path d="M31.75 82.5C31.75 82.0858 32.0858 81.75 32.5 81.75H35.5C35.9142 81.75 36.25 82.0858 36.25 82.5C36.25 82.9142 35.9142 83.25 35.5 83.25H32.5C32.0858 83.25 31.75 82.9142 31.75 82.5ZM30.25 85C30.25 84.5858 30.5858 84.25 31 84.25H35.5C35.9142 84.25 36.25 84.5858 36.25 85C36.25 85.4142 35.9142 85.75 35.5 85.75H31C30.5858 85.75 30.25 85.4142 30.25 85ZM29.75 87.5C29.75 87.0858 30.0858 86.75 30.5 86.75H35.5C35.9142 86.75 36.25 87.0858 36.25 87.5C36.25 87.9142 35.9142 88.25 35.5 88.25H30.5C30.0858 88.25 29.75 87.9142 29.75 87.5ZM29.75 90C29.75 89.5858 30.0858 89.25 30.5 89.25H33C33.4142 89.25 33.75 89.5858 33.75 90C33.75 90.4142 33.4142 90.75 33 90.75H30.5C30.0858 90.75 29.75 90.4142 29.75 90Z" fill="#5F5F6A"/>
<path opacity="0.5" d="M29.6397 80H22.3594L24.6109 82.9671C24.8116 83.2313 24.9718 83.4422 25.0883 83.6819C25.1908 83.8928 25.2654 84.1164 25.3105 84.3468C25.3615 84.608 25.3614 84.874 25.3613 85.2106L25.3612 88.1793C25.3612 88.3371 25.3615 88.4261 25.3651 88.4932C25.3673 88.5333 25.3701 88.5504 25.3711 88.5551C25.3793 88.5828 25.3922 88.6073 25.4079 88.6276C25.4116 88.6312 25.423 88.6419 25.4489 88.662C25.4994 88.7013 25.5695 88.75 25.6967 88.8378L26.6378 89.4875L26.6378 85.2106C26.6377 84.874 26.6375 84.608 26.6886 84.3468C26.7337 84.1164 26.8083 83.8928 26.9108 83.6819C27.0273 83.4422 27.1874 83.2313 27.3881 82.9671L29.6397 80Z" fill="#5F5F6A"/>
<path d="M22.5322 132.75C22.5441 132.75 22.5561 132.75 22.5681 132.75L29.4678 132.75C29.9255 132.75 30.3215 132.75 30.6328 132.779C30.9404 132.808 31.3183 132.875 31.6262 133.128C32.0226 133.454 32.2475 133.942 32.25 134.45C32.2519 134.84 32.0776 135.176 31.9107 135.442C31.742 135.712 31.4986 136.032 31.2147 136.406L31.184 136.447C31.181 136.451 31.178 136.455 31.1749 136.459L28.6186 139.828C28.3666 140.16 28.304 140.248 28.2604 140.337C28.2149 140.431 28.1815 140.531 28.1612 140.635C28.1415 140.735 28.1383 140.847 28.1383 141.269L28.1383 145.512C28.1383 145.72 28.1384 145.924 28.1237 146.09C28.1091 146.254 28.0724 146.517 27.9002 146.753C27.6904 147.04 27.3629 147.226 26.9994 147.248C26.6976 147.267 26.4529 147.145 26.3102 147.065C26.1663 146.984 26.001 146.87 25.8343 146.755L24.8451 146.072C24.8291 146.061 24.813 146.05 24.7967 146.039C24.6055 145.908 24.3942 145.763 24.2348 145.562C24.0967 145.388 23.9942 145.189 23.932 144.977C23.8605 144.733 23.8611 144.477 23.8616 144.239C23.8617 144.219 23.8617 144.199 23.8617 144.179V141.269C23.8617 140.847 23.8585 140.735 23.8388 140.635C23.8185 140.531 23.7851 140.431 23.7396 140.337C23.696 140.248 23.6334 140.16 23.3814 139.828L20.8254 136.459C20.8221 136.455 20.8189 136.451 20.8157 136.447L20.7853 136.406C20.5014 136.032 20.258 135.712 20.0893 135.442C19.9224 135.176 19.7481 134.84 19.75 134.45C19.7525 133.942 19.9774 133.454 20.3738 133.128C20.6817 132.875 21.0596 132.808 21.3672 132.779C21.6785 132.75 22.0745 132.75 22.5322 132.75ZM22.929 136.75L24.5763 138.921C24.5881 138.936 24.5998 138.952 24.6114 138.967C24.8121 139.231 24.9723 139.442 25.0887 139.682C25.1913 139.893 25.2659 140.116 25.3109 140.347C25.362 140.608 25.3619 140.874 25.3617 141.211C25.3617 141.23 25.3617 141.249 25.3617 141.269V144.179C25.3617 144.337 25.362 144.426 25.3656 144.493C25.3678 144.533 25.3706 144.55 25.3715 144.555C25.3798 144.583 25.3926 144.607 25.4084 144.628C25.412 144.631 25.4235 144.642 25.4494 144.662C25.4999 144.701 25.5699 144.75 25.6972 144.838L26.6383 145.487V141.269C26.6383 141.249 26.6383 141.23 26.6383 141.211C26.6381 140.874 26.638 140.608 26.6891 140.347C26.7341 140.116 26.8087 139.893 26.9113 139.682C27.0277 139.442 27.1879 139.231 27.3886 138.967C27.4002 138.952 27.4119 138.936 27.4237 138.921L29.071 136.75H22.929ZM30.2087 135.25C30.4042 134.99 30.5425 134.801 30.6395 134.646C30.7182 134.52 30.7425 134.458 30.7492 134.439C30.7449 134.385 30.7227 134.338 30.6923 134.305C30.6684 134.298 30.6092 134.284 30.4922 134.273C30.2599 134.251 29.9358 134.25 29.4319 134.25H22.5681C22.0642 134.25 21.7401 134.251 21.5078 134.273C21.3908 134.284 21.3316 134.298 21.3077 134.305C21.2773 134.338 21.2551 134.385 21.2508 134.439C21.2575 134.458 21.2818 134.52 21.3605 134.646C21.4575 134.801 21.5958 134.99 21.7913 135.25H30.2087ZM31.75 138.5C31.75 138.086 32.0858 137.75 32.5 137.75H35.5C35.9142 137.75 36.25 138.086 36.25 138.5C36.25 138.914 35.9142 139.25 35.5 139.25H32.5C32.0858 139.25 31.75 138.914 31.75 138.5ZM30.25 141C30.25 140.586 30.5858 140.25 31 140.25H35.5C35.9142 140.25 36.25 140.586 36.25 141C36.25 141.414 35.9142 141.75 35.5 141.75H31C30.5858 141.75 30.25 141.414 30.25 141ZM29.75 143.5C29.75 143.086 30.0858 142.75 30.5 142.75H35.5C35.9142 142.75 36.25 143.086 36.25 143.5C36.25 143.914 35.9142 144.25 35.5 144.25H30.5C30.0858 144.25 29.75 143.914 29.75 143.5ZM29.75 146C29.75 145.586 30.0858 145.25 30.5 145.25H33C33.4142 145.25 33.75 145.586 33.75 146C33.75 146.414 33.4142 146.75 33 146.75H30.5C30.0858 146.75 29.75 146.414 29.75 146Z" fill="#5F5F6A"/>
<path d="M22.5424 189H29.4576C29.9242 189 30.31 189 30.6094 189.028C30.9064 189.056 31.2201 189.118 31.4675 189.322C31.805 189.599 31.9979 190.015 32 190.451C32.0015 190.767 31.8603 191.052 31.6989 191.309C31.5362 191.569 31.2987 191.882 31.0096 192.263L28.4195 195.677C28.1732 196.001 28.0924 196.111 28.0355 196.228C27.9806 196.341 27.9402 196.462 27.9158 196.587C27.8904 196.716 27.8883 196.857 27.8883 197.269L27.8883 201.505C27.8883 201.72 27.8883 201.913 27.8746 202.068C27.861 202.221 27.8288 202.427 27.6983 202.605C27.5312 202.834 27.2713 202.981 26.984 202.999C26.7569 203.013 26.5653 202.922 26.4325 202.847C26.2991 202.772 26.1425 202.664 25.9708 202.546L24.9871 201.867C24.9729 201.857 24.9588 201.847 24.9448 201.837C24.7457 201.7 24.5655 201.576 24.4306 201.406C24.3128 201.258 24.2251 201.088 24.1719 200.906C24.1111 200.699 24.1114 200.48 24.1117 200.231C24.1117 200.214 24.1117 200.197 24.1117 200.179V197.269C24.1117 196.857 24.1096 196.716 24.0842 196.587C24.0598 196.462 24.0194 196.341 23.9645 196.228C23.9076 196.111 23.8268 196.001 23.5805 195.677L21.0231 192.306C21.0209 192.303 21.0187 192.301 21.0166 192.298L20.9904 192.263C20.7013 191.882 20.4638 191.569 20.3011 191.309C20.1397 191.052 19.9985 190.767 20 190.451C20.0021 190.015 20.195 189.599 20.5325 189.322C20.7799 189.118 21.0936 189.056 21.3906 189.028C21.69 189 22.0758 189 22.5424 189ZM22.4254 192.5L24.3771 195.072C24.3865 195.084 24.3957 195.096 24.4048 195.108C24.613 195.383 24.7586 195.574 24.8639 195.791C24.9569 195.983 25.0247 196.186 25.0656 196.395C25.1119 196.631 25.1118 196.874 25.1117 197.223C25.1117 197.238 25.1117 197.253 25.1117 197.269V200.179C25.1117 200.509 25.1165 200.574 25.1314 200.625C25.1488 200.684 25.1771 200.738 25.2138 200.785C25.244 200.823 25.2888 200.86 25.5552 201.044L26.5212 201.71C26.6876 201.825 26.7976 201.901 26.8808 201.951C26.8879 201.848 26.8883 201.705 26.8883 201.484V197.269C26.8883 197.253 26.8883 197.238 26.8883 197.223C26.8882 196.874 26.8881 196.631 26.9344 196.395C26.9753 196.186 27.0431 195.983 27.1361 195.791C27.2414 195.574 27.387 195.383 27.5952 195.108C27.6043 195.096 27.6135 195.084 27.6229 195.072L29.5746 192.5H22.4254ZM30.3333 191.5C30.5685 191.189 30.7364 190.962 30.8513 190.779C30.9912 190.555 31.0001 190.474 31 190.456C30.9993 190.31 30.9346 190.178 30.8324 190.094C30.8271 190.09 30.7702 190.048 30.5156 190.024C30.2688 190.001 29.9307 190 29.4319 190H22.5681C22.0693 190 21.7312 190.001 21.4844 190.024C21.2298 190.048 21.1729 190.09 21.1676 190.094C21.0654 190.178 21.0007 190.31 21 190.456C20.9999 190.474 21.0088 190.555 21.1487 190.779C21.2636 190.962 21.4315 191.189 21.6667 191.5H30.3333ZM32 194.5C32 194.224 32.2239 194 32.5 194H35.5C35.7761 194 36 194.224 36 194.5C36 194.776 35.7761 195 35.5 195H32.5C32.2239 195 32 194.776 32 194.5ZM30.5 197C30.5 196.724 30.7239 196.5 31 196.5H35.5C35.7761 196.5 36 196.724 36 197C36 197.276 35.7761 197.5 35.5 197.5H31C30.7239 197.5 30.5 197.276 30.5 197ZM30 199.5C30 199.224 30.2239 199 30.5 199H35.5C35.7761 199 36 199.224 36 199.5C36 199.776 35.7761 200 35.5 200H30.5C30.2239 200 30 199.776 30 199.5ZM30 202C30 201.724 30.2239 201.5 30.5 201.5H33C33.2761 201.5 33.5 201.724 33.5 202C33.5 202.276 33.2761 202.5 33 202.5H30.5C30.2239 202.5 30 202.276 30 202Z" fill="#5F5F6A"/>
</svg>
