<svg width="56" height="224" viewBox="0 0 56 224" fill="none" xmlns="http://www.w3.org/2000/svg">
<path fill-rule="evenodd" clip-rule="evenodd" d="M22.0274 30.8234C21.7285 30.9144 21.4606 31.0055 21.25 31.0808V36.75C21.25 37.1642 20.9142 37.5 20.5 37.5C20.0858 37.5 19.75 37.1642 19.75 36.75V20.05C19.75 19.733 19.9493 19.4503 20.2478 19.3437L20.5 20.05C20.2478 19.3437 20.2477 19.3437 20.2478 19.3437L20.2506 19.3427L20.2567 19.3405L20.2783 19.333C20.2968 19.3265 20.3234 19.3173 20.3574 19.3057C20.4253 19.2825 20.523 19.2499 20.6444 19.2109C20.8869 19.133 21.2263 19.0293 21.6154 18.9254C22.3756 18.7223 23.3921 18.5 24.25 18.5C25.6682 18.5 26.9907 18.9316 28.1842 19.3212L28.2327 19.337C29.4781 19.7434 30.5907 20.1 31.75 20.1C32.6175 20.1 33.8266 19.7882 34.6075 19.5513C35.3997 19.3109 36.25 19.8892 36.25 20.7595V30.0976C36.25 30.6221 35.9199 31.1066 35.398 31.2754C34.7266 31.4927 33.0386 32 31.75 32C30.3318 32 29.0093 31.5684 27.8158 31.1788L27.7673 31.163C26.5219 30.7566 25.4093 30.4 24.25 30.4C23.6126 30.4 22.7644 30.599 22.0274 30.8234Z" fill="#5F5F6A"/>
<path fill-rule="evenodd" clip-rule="evenodd" d="M21.25 76.5926V85.4958C21.358 85.4606 21.472 85.4245 21.5905 85.3884C22.3511 85.1569 23.3779 84.9 24.25 84.9C25.6682 84.9 26.9907 85.3316 28.1842 85.7212L28.2327 85.737C29.4781 86.1434 30.5907 86.5 31.75 86.5C32.6864 86.5 34.0063 86.1392 34.75 85.9074V77.0733C33.944 77.3052 32.7346 77.6 31.75 77.6C30.3318 77.6 29.0093 77.1684 27.8158 76.7788L27.7673 76.763C26.5219 76.3566 25.4093 76 24.25 76C23.5983 76 22.7398 76.1777 22.0025 76.3746C21.7155 76.4513 21.4569 76.528 21.25 76.5926ZM21.25 87.0808C21.4606 87.0055 21.7285 86.9144 22.0274 86.8234C22.7644 86.599 23.6126 86.4 24.25 86.4C25.4093 86.4 26.5219 86.7566 27.7673 87.163L27.8158 87.1788C29.0093 87.5684 30.3318 88 31.75 88C33.0386 88 34.7266 87.4927 35.398 87.2754C35.9199 87.1066 36.25 86.6221 36.25 86.0976V76.7595C36.25 75.8892 35.3997 75.3109 34.6075 75.5513C33.8266 75.7882 32.6175 76.1 31.75 76.1C30.5907 76.1 29.4781 75.7434 28.2327 75.337L28.1842 75.3212C26.9907 74.9316 25.6682 74.5 24.25 74.5C23.3921 74.5 22.3756 74.7223 21.6154 74.9254C21.2263 75.0293 20.8869 75.133 20.6444 75.2109C20.523 75.2499 20.4253 75.2825 20.3574 75.3057C20.3234 75.3173 20.2968 75.3265 20.2783 75.333L20.2567 75.3405L20.2506 75.3427L20.2488 75.3433C20.2488 75.3433 20.2478 75.3437 20.5 76.05L20.2478 75.3437C19.9493 75.4503 19.75 75.733 19.75 76.05V92.75C19.75 93.1642 20.0858 93.5 20.5 93.5C20.9142 93.5 21.25 93.1642 21.25 92.75V87.0808Z" fill="#5F5F6A"/>
<path opacity="0.5" d="M20.5 76.05C20.5 76.05 22.7405 75.25 24.25 75.25C26.8467 75.25 29.1533 76.85 31.75 76.85C32.7401 76.85 34.0447 76.5058 34.8253 76.269C35.1561 76.1686 35.5 76.4137 35.5 76.7595V86.0976C35.5 86.3089 35.3681 86.4968 35.1671 86.5619C34.4869 86.782 32.9046 87.25 31.75 87.25C29.1533 87.25 26.8467 85.65 24.25 85.65C22.7405 85.65 20.5 86.5619 20.5 86.5619V76.05Z" fill="#5F5F6A"/>
<path fill-rule="evenodd" clip-rule="evenodd" d="M21.25 132.593V141.496C21.358 141.461 21.472 141.425 21.5905 141.388C22.3511 141.157 23.3779 140.9 24.25 140.9C25.6682 140.9 26.9907 141.332 28.1842 141.721L28.2327 141.737C29.4781 142.143 30.5907 142.5 31.75 142.5C32.6864 142.5 34.0063 142.139 34.75 141.907V133.073C33.944 133.305 32.7346 133.6 31.75 133.6C30.3318 133.6 29.0093 133.168 27.8158 132.779L27.7673 132.763C26.5219 132.357 25.4093 132 24.25 132C23.5983 132 22.7398 132.178 22.0025 132.375C21.7155 132.451 21.4569 132.528 21.25 132.593ZM21.25 143.081C21.4606 143.006 21.7285 142.914 22.0274 142.823C22.7644 142.599 23.6126 142.4 24.25 142.4C25.4093 142.4 26.5219 142.757 27.7673 143.163L27.8158 143.179C29.0093 143.568 30.3318 144 31.75 144C33.0386 144 34.7266 143.493 35.398 143.275C35.9199 143.107 36.25 142.622 36.25 142.098V132.759C36.25 131.889 35.3997 131.311 34.6075 131.551C33.8266 131.788 32.6175 132.1 31.75 132.1C30.5907 132.1 29.4781 131.743 28.2327 131.337L28.1842 131.321C26.9907 130.932 25.6682 130.5 24.25 130.5C23.3921 130.5 22.3756 130.722 21.6154 130.925C21.2263 131.029 20.8869 131.133 20.6444 131.211C20.523 131.25 20.4253 131.283 20.3574 131.306C20.3234 131.317 20.2968 131.326 20.2783 131.333L20.2567 131.341L20.2506 131.343L20.2488 131.343C20.2487 131.343 20.2478 131.344 20.5 132.05L20.2478 131.344C19.9493 131.45 19.75 131.733 19.75 132.05V148.75C19.75 149.164 20.0858 149.5 20.5 149.5C20.9142 149.5 21.25 149.164 21.25 148.75V143.081Z" fill="#5F5F6A"/>
<path fill-rule="evenodd" clip-rule="evenodd" d="M21 188.41V197.844C21.1932 197.777 21.4183 197.702 21.6633 197.628C22.42 197.397 23.417 197.15 24.25 197.15C25.6281 197.15 26.9182 197.571 28.1213 197.964L28.1551 197.975C29.394 198.379 30.5443 198.75 31.75 198.75C32.8086 198.75 34.3079 198.314 35 198.09V188.759C35 188.759 35 188.758 35 188.758C34.9995 188.757 34.9978 188.755 34.994 188.752C34.9897 188.749 34.985 188.747 34.9812 188.747C34.9781 188.746 34.975 188.746 34.9705 188.747C34.1901 188.984 32.8219 189.35 31.75 189.35C30.3719 189.35 29.0818 188.929 27.8787 188.536L27.8449 188.525C26.606 188.121 25.4557 187.75 24.25 187.75C23.564 187.75 22.6791 187.935 21.9379 188.133C21.5733 188.23 21.2542 188.328 21.0265 188.401C21.0175 188.404 21.0087 188.407 21 188.41ZM21 198.906C21.0147 198.9 21.0299 198.895 21.0455 198.889C21.2726 198.806 21.5909 198.695 21.9545 198.584C22.6955 198.359 23.5735 198.15 24.25 198.15C25.4557 198.15 26.606 198.521 27.8449 198.925L27.8787 198.936C29.0818 199.329 30.3719 199.75 31.75 199.75C32.9939 199.75 34.6467 199.256 35.321 199.038C35.736 198.903 36 198.518 36 198.098V188.759C36 188.064 35.3185 187.597 34.6801 187.791C33.8993 188.027 32.6583 188.35 31.75 188.35C30.5443 188.35 29.394 187.979 28.1551 187.575L28.1213 187.564C26.9182 187.171 25.6281 186.75 24.25 186.75C23.4265 186.75 22.4363 186.965 21.6799 187.167C21.2957 187.27 20.9604 187.372 20.7208 187.449C20.6009 187.487 20.5047 187.52 20.438 187.542C20.4046 187.554 20.3786 187.563 20.3607 187.569L20.3399 187.576L20.3343 187.578L20.3327 187.579C20.3326 187.579 20.3319 187.579 20.5 188.05L20.3327 187.579C20.1337 187.65 20 187.839 20 188.05V204.75C20 205.026 20.2239 205.25 20.5 205.25C20.7761 205.25 21 205.026 21 204.75V198.906Z" fill="#5F5F6A"/>
</svg>
