<svg width="56" height="224" viewBox="0 0 56 224" fill="none" xmlns="http://www.w3.org/2000/svg">
<path d="M25.0004 21.125C25.0004 20.5037 25.5041 20 26.1254 20H29.8754C30.4967 20 31.0004 20.5037 31.0004 21.125V24.875C31.0004 25.4963 30.4967 26 29.8754 26H26.1254C25.5041 26 25.0004 25.4963 25.0004 24.875V21.125Z" fill="#5F5F6A"/>
<path d="M20.4004 30.875C20.4004 30.2537 20.9041 29.75 21.5254 29.75H25.2754C25.8967 29.75 26.4004 30.2537 26.4004 30.875V34.625C26.4004 35.2463 25.8967 35.75 25.2754 35.75H21.5254C20.9041 35.75 20.4004 35.2463 20.4004 34.625V30.875Z" fill="#5F5F6A"/>
<path d="M30.6254 29.75C30.0041 29.75 29.5004 30.2537 29.5004 30.875V34.625C29.5004 35.2463 30.0041 35.75 30.6254 35.75H34.3754C34.9967 35.75 35.5004 35.2463 35.5004 34.625V30.875C35.5004 30.2537 34.9967 29.75 34.3754 29.75H30.6254Z" fill="#5F5F6A"/>
<path d="M31.5004 27.05H28.7504V26.5H27.2504V27.05H24.5004C23.5339 27.05 22.7504 27.8335 22.7504 28.8V29.3H24.2504V28.8C24.2504 28.6619 24.3623 28.55 24.5004 28.55H31.5004C31.6385 28.55 31.7504 28.6619 31.7504 28.8V29.3H33.2504V28.8C33.2504 27.8335 32.4669 27.05 31.5004 27.05Z" fill="#5F5F6A"/>
<g opacity="0.5">
<path d="M26.1254 76C25.5041 76 25.0004 76.5037 25.0004 77.125V80.875C25.0004 81.4963 25.5041 82 26.1254 82H29.8754C30.4967 82 31.0004 81.4963 31.0004 80.875V77.125C31.0004 76.5037 30.4967 76 29.8754 76H26.1254Z" fill="#5F5F6A"/>
<path d="M21.5254 85.75C20.9041 85.75 20.4004 86.2537 20.4004 86.875V90.625C20.4004 91.2463 20.9041 91.75 21.5254 91.75H25.2754C25.8967 91.75 26.4004 91.2463 26.4004 90.625V86.875C26.4004 86.2537 25.8967 85.75 25.2754 85.75H21.5254Z" fill="#5F5F6A"/>
<path d="M29.5004 86.875C29.5004 86.2537 30.0041 85.75 30.6254 85.75H34.3754C34.9967 85.75 35.5004 86.2537 35.5004 86.875V90.625C35.5004 91.2463 34.9967 91.75 34.3754 91.75H30.6254C30.0041 91.75 29.5004 91.2463 29.5004 90.625V86.875Z" fill="#5F5F6A"/>
</g>
<path d="M28.75 83.05H31.5C32.4665 83.05 33.25 83.8335 33.25 84.8V85.3H31.75V84.8C31.75 84.6619 31.6381 84.55 31.5 84.55H24.5C24.3619 84.55 24.25 84.6619 24.25 84.8V85.3H22.75V84.8C22.75 83.8335 23.5335 83.05 24.5 83.05H27.25V82.5H28.75V83.05Z" fill="#5F5F6A"/>
<path fill-rule="evenodd" clip-rule="evenodd" d="M26.1254 131.75C25.366 131.75 24.7504 132.366 24.7504 133.125V136.875C24.7504 137.634 25.366 138.25 26.1254 138.25H29.8754C30.6348 138.25 31.2504 137.634 31.2504 136.875V133.125C31.2504 132.366 30.6348 131.75 29.8754 131.75H26.1254ZM26.2504 136.75V133.25H29.7504V136.75H26.2504Z" fill="#5F5F6A"/>
<path fill-rule="evenodd" clip-rule="evenodd" d="M21.5254 141.5C20.766 141.5 20.1504 142.116 20.1504 142.875V146.625C20.1504 147.384 20.766 148 21.5254 148H25.2754C26.0348 148 26.6504 147.384 26.6504 146.625V142.875C26.6504 142.116 26.0348 141.5 25.2754 141.5H21.5254ZM21.6504 146.5V143H25.1504V146.5H21.6504Z" fill="#5F5F6A"/>
<path fill-rule="evenodd" clip-rule="evenodd" d="M29.2504 142.875C29.2504 142.116 29.866 141.5 30.6254 141.5H34.3754C35.1348 141.5 35.7504 142.116 35.7504 142.875V146.625C35.7504 147.384 35.1348 148 34.3754 148H30.6254C29.866 148 29.2504 147.384 29.2504 146.625V142.875ZM30.7504 143V146.5H34.2504V143H30.7504Z" fill="#5F5F6A"/>
<path d="M31.5004 139.05H28.7504V138.5H27.2504V139.05H24.5004C23.5339 139.05 22.7504 139.833 22.7504 140.8V141.3H24.2504V140.8C24.2504 140.662 24.3623 140.55 24.5004 140.55H31.5004C31.6385 140.55 31.7504 140.662 31.7504 140.8V141.3H33.2504V140.8C33.2504 139.833 32.4669 139.05 31.5004 139.05Z" fill="#5F5F6A"/>
<path fill-rule="evenodd" clip-rule="evenodd" d="M26.1254 188C25.5041 188 25.0004 188.504 25.0004 189.125V192.875C25.0004 193.496 25.5041 194 26.1254 194H29.8754C30.4967 194 31.0004 193.496 31.0004 192.875V189.125C31.0004 188.504 30.4967 188 29.8754 188H26.1254ZM26.0004 189.125C26.0004 189.056 26.0564 189 26.1254 189H29.8754C29.9444 189 30.0004 189.056 30.0004 189.125V192.875C30.0004 192.944 29.9444 193 29.8754 193H26.1254C26.0564 193 26.0004 192.944 26.0004 192.875V189.125Z" fill="#5F5F6A"/>
<path fill-rule="evenodd" clip-rule="evenodd" d="M21.5254 197.75C20.9041 197.75 20.4004 198.254 20.4004 198.875V202.625C20.4004 203.246 20.9041 203.75 21.5254 203.75H25.2754C25.8967 203.75 26.4004 203.246 26.4004 202.625V198.875C26.4004 198.254 25.8967 197.75 25.2754 197.75H21.5254ZM21.4004 198.875C21.4004 198.806 21.4564 198.75 21.5254 198.75H25.2754C25.3444 198.75 25.4004 198.806 25.4004 198.875V202.625C25.4004 202.694 25.3444 202.75 25.2754 202.75H21.5254C21.4564 202.75 21.4004 202.694 21.4004 202.625V198.875Z" fill="#5F5F6A"/>
<path fill-rule="evenodd" clip-rule="evenodd" d="M29.5004 198.875C29.5004 198.254 30.0041 197.75 30.6254 197.75H34.3754C34.9967 197.75 35.5004 198.254 35.5004 198.875V202.625C35.5004 203.246 34.9967 203.75 34.3754 203.75H30.6254C30.0041 203.75 29.5004 203.246 29.5004 202.625V198.875ZM30.6254 198.75C30.5564 198.75 30.5004 198.806 30.5004 198.875V202.625C30.5004 202.694 30.5564 202.75 30.6254 202.75H34.3754C34.4444 202.75 34.5004 202.694 34.5004 202.625V198.875C34.5004 198.806 34.4444 198.75 34.3754 198.75H30.6254Z" fill="#5F5F6A"/>
<path d="M31.5004 195.3H28.5004V194.25H27.5004V195.3H24.5004C23.672 195.3 23.0004 195.972 23.0004 196.8V197.5H24.0004V196.8C24.0004 196.524 24.2242 196.3 24.5004 196.3H31.5004C31.7765 196.3 32.0004 196.524 32.0004 196.8V197.5H33.0004V196.8C33.0004 195.972 32.3288 195.3 31.5004 195.3Z" fill="#5F5F6A"/>
</svg>
