<svg width="56" height="224" viewBox="0 0 56 224" fill="none" xmlns="http://www.w3.org/2000/svg">
<path d="M26.8346 19.25C26.9865 19.25 27.1052 19.2499 27.219 19.2594C28.111 19.3331 28.9113 19.8363 29.3642 20.6083C29.422 20.7068 29.4734 20.8137 29.5392 20.9506L29.5509 20.975C29.6339 21.1476 29.6571 21.1945 29.6795 21.2326C29.8854 21.5835 30.2491 21.8122 30.6546 21.8457C30.6986 21.8494 30.751 21.85 30.9424 21.85L33.8304 21.85C34.3646 21.85 34.8104 21.85 35.1747 21.8797C35.5546 21.9108 35.9112 21.9779 36.2485 22.1497C36.7659 22.4134 37.1866 22.8341 37.4503 23.3515C37.6221 23.6888 37.6892 24.0454 37.7203 24.4253C37.75 24.7896 37.75 25.2354 37.75 25.7696V29.8304C37.75 30.3646 37.75 30.8104 37.7203 31.1747C37.6892 31.5546 37.6221 31.9112 37.4503 32.2485C37.1866 32.7659 36.7659 33.1866 36.2485 33.4503C35.9112 33.6221 35.5546 33.6892 35.1747 33.7203C34.8104 33.75 34.3646 33.75 33.8305 33.75H25.1695C24.6354 33.75 24.1895 33.75 23.8253 33.7203C23.4454 33.6892 23.0888 33.6221 22.7515 33.4503C22.2341 33.1866 21.8134 32.7659 21.5497 32.2485C21.3779 31.9112 21.3108 31.5546 21.2797 31.1747C21.25 30.8104 21.25 30.3646 21.25 29.8304V23.1696C21.25 22.6354 21.25 22.1896 21.2797 21.8253C21.3108 21.4455 21.3779 21.0888 21.5497 20.7515C21.8134 20.2341 22.2341 19.8134 22.7515 19.5497C23.0888 19.3779 23.4454 19.3108 23.8253 19.2797C24.1896 19.25 24.6354 19.25 25.1696 19.25L26.8346 19.25Z" fill="#5F5F6A"/>
<path d="M20.25 23.5C20.25 23.0858 19.9142 22.75 19.5 22.75C19.0858 22.75 18.75 23.0858 18.75 23.5V29.133C18.75 30.2252 18.75 31.0907 18.807 31.7883C18.8653 32.5017 18.9869 33.1053 19.2677 33.6565C19.7231 34.5502 20.4498 35.2769 21.3435 35.7323C21.8947 36.0131 22.4983 36.1347 23.2117 36.193C23.9094 36.25 24.7748 36.25 25.867 36.25H33.5C33.9142 36.25 34.25 35.9142 34.25 35.5C34.25 35.0858 33.9142 34.75 33.5 34.75H25.9C24.7675 34.75 23.9633 34.7494 23.3339 34.698C22.7133 34.6473 22.329 34.5509 22.0245 34.3958C21.413 34.0842 20.9158 33.587 20.6042 32.9755C20.4491 32.671 20.3527 32.2868 20.302 31.6661C20.2506 31.0367 20.25 30.2325 20.25 29.1V23.5Z" fill="#5F5F6A"/>
<path opacity="0.5" d="M28.875 77.3C28.7978 77.1393 28.7591 77.059 28.7174 76.9878C28.3879 76.4264 27.8059 76.0604 27.1572 76.0068C27.075 76 26.9858 76 26.8076 76H25.2C24.0799 76 23.5198 76 23.092 76.218C22.7157 76.4097 22.4097 76.7157 22.218 77.092C22 77.5198 22 78.0799 22 79.2V85.8C22 86.9201 22 87.4802 22.218 87.908C22.4097 88.2843 22.7157 88.5903 23.092 88.782C23.5198 89 24.0799 89 25.2 89H33.8C34.9201 89 35.4802 89 35.908 88.782C36.2843 88.5903 36.5903 88.2843 36.782 87.908C37 87.4802 37 86.9201 37 85.8V81.8C37 80.6799 37 80.1198 36.782 79.692C36.5903 79.3157 36.2843 79.0097 35.908 78.818C35.4802 78.6 34.9201 78.6 33.8 78.6H30.9424C30.7642 78.6 30.675 78.6 30.5928 78.5932C29.9441 78.5395 29.3621 78.1736 29.0326 77.6122C28.9909 77.541 28.9522 77.4606 28.875 77.3Z" fill="#5F5F6A"/>
<path fill-rule="evenodd" clip-rule="evenodd" d="M27.0954 76.7543C27.0514 76.7506 26.999 76.75 26.8076 76.75H25.2C24.6276 76.75 24.2434 76.7506 23.9475 76.7748C23.6604 76.7982 23.5231 76.8401 23.4325 76.8862C23.1973 77.0061 23.0061 77.1973 22.8862 77.4325C22.8401 77.5231 22.7982 77.6604 22.7748 77.9475C22.7506 78.2434 22.75 78.6276 22.75 79.2V85.8C22.75 86.3724 22.7506 86.7567 22.7748 87.0525C22.7982 87.3397 22.8401 87.4769 22.8862 87.5675C23.0061 87.8027 23.1973 87.9939 23.4325 88.1138C23.5231 88.1599 23.6604 88.2018 23.9475 88.2253C24.2434 88.2494 24.6276 88.25 25.2 88.25H33.8C34.3724 88.25 34.7566 88.2494 35.0525 88.2253C35.3396 88.2018 35.4769 88.1599 35.5675 88.1138C35.8027 87.9939 35.9939 87.8027 36.1138 87.5675C36.1599 87.4769 36.2018 87.3397 36.2252 87.0525C36.2494 86.7567 36.25 86.3724 36.25 85.8V81.8C36.25 81.2276 36.2494 80.8434 36.2252 80.5475C36.2018 80.2604 36.1599 80.1231 36.1138 80.0325C35.9939 79.7973 35.8027 79.6061 35.5675 79.4862C35.4769 79.4401 35.3396 79.3982 35.0525 79.3748C34.7566 79.3506 34.3724 79.35 33.8 79.35L30.9154 79.35C30.7635 79.35 30.6448 79.3501 30.531 79.3406C29.639 79.2669 28.8387 78.7637 28.3858 77.9917C28.328 77.8932 28.2766 77.7863 28.2107 77.6493C28.2069 77.6413 28.203 77.6332 28.1991 77.625C28.1161 77.4524 28.0929 77.4055 28.0705 77.3674C27.8646 77.0165 27.5009 76.7878 27.0954 76.7543ZM26.8346 75.25C26.9865 75.25 27.1052 75.2499 27.219 75.2594C28.111 75.3331 28.9113 75.8363 29.3642 76.6083C29.422 76.7068 29.4734 76.8137 29.5392 76.9507C29.5431 76.9587 29.547 76.9668 29.5509 76.975C29.6339 77.1476 29.6571 77.1945 29.6795 77.2326C29.8854 77.5835 30.2491 77.8122 30.6546 77.8457C30.6986 77.8494 30.751 77.85 30.9424 77.85L33.8304 77.85C34.3646 77.85 34.8104 77.85 35.1747 77.8797C35.5546 77.9108 35.9112 77.9779 36.2485 78.1497C36.7659 78.4134 37.1866 78.8341 37.4503 79.3515C37.6221 79.6888 37.6892 80.0454 37.7203 80.4253C37.75 80.7896 37.75 81.2354 37.75 81.7695V85.8305C37.75 86.3646 37.75 86.8104 37.7203 87.1747C37.6892 87.5546 37.6221 87.9112 37.4503 88.2485C37.1866 88.7659 36.7659 89.1866 36.2485 89.4503C35.9112 89.6221 35.5546 89.6892 35.1747 89.7203C34.8104 89.75 34.3646 89.75 33.8305 89.75H25.1695C24.6354 89.75 24.1896 89.75 23.8253 89.7203C23.4454 89.6892 23.0888 89.6221 22.7515 89.4503C22.2341 89.1866 21.8134 88.7659 21.5497 88.2485C21.3779 87.9112 21.3108 87.5546 21.2797 87.1747C21.25 86.8104 21.25 86.3646 21.25 85.8304V79.1696C21.25 78.6354 21.25 78.1896 21.2797 77.8253C21.3108 77.4455 21.3779 77.0888 21.5497 76.7515C21.8134 76.2341 22.2341 75.8134 22.7515 75.5497C23.0888 75.3779 23.4454 75.3108 23.8253 75.2797C24.1896 75.25 24.6354 75.25 25.1696 75.25L26.8076 75.25C26.8167 75.25 26.8257 75.25 26.8346 75.25ZM19.5 78.75C19.9142 78.75 20.25 79.0858 20.25 79.5V85.1C20.25 86.2325 20.2506 87.0367 20.302 87.6661C20.3527 88.2868 20.4491 88.671 20.6042 88.9755C20.9158 89.587 21.413 90.0842 22.0245 90.3958C22.329 90.5509 22.7133 90.6473 23.3339 90.698C23.9633 90.7494 24.7675 90.75 25.9 90.75H33.5C33.9142 90.75 34.25 91.0858 34.25 91.5C34.25 91.9142 33.9142 92.25 33.5 92.25H25.867C24.7748 92.25 23.9094 92.25 23.2117 92.193C22.4983 92.1347 21.8947 92.0131 21.3435 91.7323C20.4498 91.2769 19.7231 90.5502 19.2677 89.6565C18.9869 89.1053 18.8653 88.5017 18.807 87.7883C18.75 87.0907 18.75 86.2252 18.75 85.133L18.75 79.5C18.75 79.0858 19.0858 78.75 19.5 78.75Z" fill="#5F5F6A"/>
<path fill-rule="evenodd" clip-rule="evenodd" d="M27.0954 132.754C27.0514 132.751 26.999 132.75 26.8076 132.75H25.2C24.6276 132.75 24.2434 132.751 23.9475 132.775C23.6604 132.798 23.5231 132.84 23.4325 132.886C23.1973 133.006 23.0061 133.197 22.8862 133.433C22.8401 133.523 22.7982 133.66 22.7748 133.947C22.7506 134.243 22.75 134.628 22.75 135.2V141.8C22.75 142.372 22.7506 142.757 22.7748 143.053C22.7982 143.34 22.8401 143.477 22.8862 143.567C23.0061 143.803 23.1973 143.994 23.4325 144.114C23.5231 144.16 23.6604 144.202 23.9475 144.225C24.2434 144.249 24.6276 144.25 25.2 144.25H33.8C34.3724 144.25 34.7566 144.249 35.0525 144.225C35.3396 144.202 35.4769 144.16 35.5675 144.114C35.8027 143.994 35.9939 143.803 36.1138 143.567C36.1599 143.477 36.2018 143.34 36.2252 143.053C36.2494 142.757 36.25 142.372 36.25 141.8V137.8C36.25 137.228 36.2494 136.843 36.2252 136.547C36.2018 136.26 36.1599 136.123 36.1138 136.033C35.9939 135.797 35.8027 135.606 35.5675 135.486C35.4769 135.44 35.3396 135.398 35.0525 135.375C34.7566 135.351 34.3724 135.35 33.8 135.35H30.9424C30.9333 135.35 30.9243 135.35 30.9154 135.35C30.7635 135.35 30.6448 135.35 30.531 135.341C29.639 135.267 28.8387 134.764 28.3858 133.992C28.328 133.893 28.2766 133.786 28.2107 133.649C28.2069 133.641 28.203 133.633 28.1991 133.625C28.1161 133.452 28.0929 133.406 28.0705 133.367C27.8646 133.017 27.5009 132.788 27.0954 132.754ZM26.8346 131.25C26.9865 131.25 27.1052 131.25 27.219 131.259C28.111 131.333 28.9113 131.836 29.3642 132.608C29.422 132.707 29.4734 132.814 29.5392 132.951C29.5431 132.959 29.547 132.967 29.5509 132.975C29.6339 133.148 29.6571 133.194 29.6795 133.233C29.8854 133.583 30.2491 133.812 30.6546 133.846C30.6986 133.849 30.751 133.85 30.9424 133.85L33.8304 133.85C34.3646 133.85 34.8104 133.85 35.1747 133.88C35.5546 133.911 35.9112 133.978 36.2485 134.15C36.7659 134.413 37.1866 134.834 37.4503 135.352C37.6221 135.689 37.6892 136.045 37.7203 136.425C37.75 136.79 37.75 137.235 37.75 137.77V141.83C37.75 142.365 37.75 142.81 37.7203 143.175C37.6892 143.555 37.6221 143.911 37.4503 144.248C37.1866 144.766 36.7659 145.187 36.2485 145.45C35.9112 145.622 35.5546 145.689 35.1747 145.72C34.8104 145.75 34.3646 145.75 33.8305 145.75H25.1695C24.6354 145.75 24.1896 145.75 23.8253 145.72C23.4454 145.689 23.0888 145.622 22.7515 145.45C22.2341 145.187 21.8134 144.766 21.5497 144.248C21.3779 143.911 21.3108 143.555 21.2797 143.175C21.25 142.81 21.25 142.365 21.25 141.83V135.17C21.25 134.635 21.25 134.19 21.2797 133.825C21.3108 133.445 21.3779 133.089 21.5497 132.752C21.8134 132.234 22.2341 131.813 22.7515 131.55C23.0888 131.378 23.4454 131.311 23.8253 131.28C24.1896 131.25 24.6354 131.25 25.1696 131.25L26.8076 131.25C26.8167 131.25 26.8257 131.25 26.8346 131.25Z" fill="#5F5F6A"/>
<path fill-rule="evenodd" clip-rule="evenodd" d="M19.5 134.75C19.9142 134.75 20.25 135.086 20.25 135.5V141.1C20.25 142.232 20.2506 143.037 20.302 143.666C20.3527 144.287 20.4491 144.671 20.6042 144.975C20.9158 145.587 21.413 146.084 22.0245 146.396C22.329 146.551 22.7133 146.647 23.3339 146.698C23.9633 146.749 24.7675 146.75 25.9 146.75H33.5C33.9142 146.75 34.25 147.086 34.25 147.5C34.25 147.914 33.9142 148.25 33.5 148.25H25.867C24.7748 148.25 23.9094 148.25 23.2117 148.193C22.4983 148.135 21.8947 148.013 21.3435 147.732C20.4498 147.277 19.7231 146.55 19.2677 145.656C18.9869 145.105 18.8653 144.502 18.807 143.788C18.75 143.091 18.75 142.225 18.75 141.133L18.75 135.5C18.75 135.086 19.0858 134.75 19.5 134.75Z" fill="#5F5F6A"/>
<path fill-rule="evenodd" clip-rule="evenodd" d="M27.116 188.505C27.0592 188.5 26.9946 188.5 26.8076 188.5H25.2C24.6317 188.5 24.2355 188.5 23.9271 188.526C23.6245 188.55 23.4507 188.596 23.319 188.663C23.0368 188.807 22.8073 189.037 22.6635 189.319C22.5964 189.451 22.5503 189.625 22.5256 189.927C22.5004 190.236 22.5 190.632 22.5 191.2V197.8C22.5 198.368 22.5004 198.764 22.5256 199.073C22.5503 199.375 22.5964 199.549 22.6635 199.681C22.8073 199.963 23.0368 200.193 23.319 200.337C23.4507 200.404 23.6245 200.45 23.9271 200.474C24.2355 200.5 24.6317 200.5 25.2 200.5H33.8C34.3683 200.5 34.7645 200.5 35.0729 200.474C35.3755 200.45 35.5493 200.404 35.681 200.337C35.9632 200.193 36.1927 199.963 36.3365 199.681C36.4036 199.549 36.4497 199.375 36.4744 199.073C36.4996 198.764 36.5 198.368 36.5 197.8V193.8C36.5 193.232 36.4996 192.836 36.4744 192.527C36.4497 192.225 36.4036 192.051 36.3365 191.919C36.1927 191.637 35.9632 191.407 35.681 191.263C35.5493 191.196 35.3755 191.15 35.0729 191.126C34.7645 191.1 34.3683 191.1 33.8 191.1L30.9212 191.1C30.7633 191.1 30.6548 191.1 30.5516 191.091C29.7407 191.024 29.0132 190.567 28.6014 189.865C28.549 189.776 28.502 189.678 28.4336 189.536L28.4244 189.517C28.3433 189.348 28.315 189.29 28.2861 189.241C28.0391 188.82 27.6025 188.545 27.116 188.505ZM26.8288 187.5C26.9867 187.5 27.0952 187.5 27.1984 187.509C28.0093 187.576 28.7368 188.033 29.1486 188.735C29.201 188.824 29.248 188.922 29.3164 189.064L29.3256 189.083C29.4067 189.252 29.435 189.31 29.4639 189.359C29.7109 189.78 30.1475 190.055 30.634 190.095C30.6908 190.1 30.7554 190.1 30.9424 190.1H33.8214C34.3633 190.1 34.8004 190.1 35.1543 190.129C35.5187 190.159 35.8388 190.222 36.135 190.372C36.6054 190.612 36.9878 190.995 37.2275 191.465C37.3784 191.761 37.4413 192.081 37.4711 192.446C37.5 192.8 37.5 193.237 37.5 193.779V197.821C37.5 198.363 37.5 198.8 37.4711 199.154C37.4413 199.519 37.3784 199.839 37.2275 200.135C36.9878 200.605 36.6054 200.988 36.135 201.228C35.8388 201.378 35.5187 201.441 35.1543 201.471C34.8004 201.5 34.3633 201.5 33.8214 201.5H25.1786C24.6367 201.5 24.1996 201.5 23.8457 201.471C23.4813 201.441 23.1612 201.378 22.865 201.228C22.3946 200.988 22.0122 200.605 21.7725 200.135C21.6216 199.839 21.5587 199.519 21.5289 199.154C21.5 198.8 21.5 198.363 21.5 197.821V191.179C21.5 190.637 21.5 190.2 21.5289 189.846C21.5587 189.481 21.6216 189.161 21.7725 188.865C22.0122 188.395 22.3946 188.012 22.865 187.772C23.1612 187.622 23.4813 187.559 23.8457 187.529C24.1996 187.5 24.6367 187.5 25.1786 187.5L26.8288 187.5Z" fill="#5F5F6A"/>
<path fill-rule="evenodd" clip-rule="evenodd" d="M19.5 191C19.7761 191 20 191.224 20 191.5V197.1C20 198.228 20.0004 199.045 20.0528 199.686C20.1048 200.323 20.2054 200.743 20.3815 201.089C20.717 201.748 21.2525 202.283 21.911 202.619C22.2566 202.795 22.6774 202.895 23.3135 202.947C23.9554 203 24.7716 203 25.9 203H33.5C33.7761 203 34 203.224 34 203.5C34 203.776 33.7761 204 33.5 204H25.8774C24.7764 204 23.9195 204 23.2321 203.944C22.5342 203.887 21.9671 203.769 21.457 203.51C20.6103 203.078 19.9219 202.39 19.4905 201.543C19.2306 201.033 19.1132 200.466 19.0562 199.768C19 199.081 19 198.224 19 197.123V191.5C19 191.224 19.2239 191 19.5 191Z" fill="#5F5F6A"/>
</svg>
