<svg width="56" height="224" viewBox="0 0 56 224" fill="none" xmlns="http://www.w3.org/2000/svg">
<path d="M27.0959 27.3787V27.8699H28.7199V27.3787C28.7199 26.8788 28.3349 26.5132 27.9079 26.5132C27.4809 26.5132 27.0959 26.8788 27.0959 27.3787Z" fill="#5F5F6A"/>
<path d="M27.9079 29.8816C27.5591 29.8816 27.2763 30.1643 27.2763 30.5132V30.9342C27.2763 31.283 27.5591 31.5658 27.9079 31.5658C28.2567 31.5658 28.5395 31.283 28.5395 30.9342V30.5132C28.5395 30.1643 28.2567 29.8816 27.9079 29.8816Z" fill="#5F5F6A"/>
<path fill-rule="evenodd" clip-rule="evenodd" d="M25.8035 19.8034C25.5347 19.7496 25.2505 19.7498 24.8874 19.75L22.1696 19.75C21.6354 19.75 21.1896 19.75 20.8253 19.7797C20.4454 19.8108 20.0888 19.8779 19.7515 20.0497C19.2341 20.3134 18.8134 20.7341 18.5497 21.2515C18.3779 21.5888 18.3108 21.9454 18.2797 22.3253C18.25 22.6895 18.25 23.1354 18.25 23.6695V32.3304C18.25 32.8645 18.25 33.3104 18.2797 33.6746C18.3108 34.0545 18.3779 34.4112 18.5497 34.7484C18.8134 35.2659 19.2341 35.6866 19.7515 35.9502C20.0888 36.1221 20.4454 36.1892 20.8253 36.2202C21.1895 36.25 21.6354 36.25 22.1695 36.25H33.8305C34.3646 36.25 34.8105 36.25 35.1747 36.2202C35.5546 36.1892 35.9112 36.1221 36.2485 35.9502C36.7659 35.6866 37.1866 35.2659 37.4503 34.7484C37.6221 34.4112 37.6892 34.0545 37.7203 33.6746C37.75 33.3104 37.75 32.8646 37.75 32.3304V26.6695C37.75 26.1354 37.75 25.6895 37.7203 25.3253C37.6892 24.9454 37.6221 24.5888 37.4503 24.2515C37.1866 23.734 36.7659 23.3134 36.2485 23.0497C35.9112 22.8779 35.5546 22.8107 35.1747 22.7797C34.8104 22.7499 34.3646 22.75 33.8304 22.75L29.677 22.75C29.2193 22.75 29.0948 22.7465 28.9908 22.7257C28.6967 22.6668 28.4336 22.5042 28.2494 22.2675C28.1843 22.1837 28.1255 22.074 27.9208 21.6646L27.892 21.6069C27.7298 21.282 27.6028 21.0278 27.4345 20.8114C27.0294 20.2907 26.4505 19.9329 25.8035 19.8034ZM25.8327 27.3787C25.8327 26.2249 26.7403 25.25 27.9079 25.25C29.0754 25.25 29.9831 26.2249 29.9831 27.3787V27.9955C30.035 28.0152 30.0867 28.0383 30.1381 28.0654C30.4624 28.2368 30.7218 28.5079 30.8831 28.836C30.9921 29.0579 31.0314 29.2864 31.0491 29.5109C31.0658 29.7232 31.0658 29.9802 31.0658 30.2749V30.845C31.0658 31.1397 31.0658 31.3967 31.0491 31.609C31.0314 31.8335 30.9921 32.062 30.8831 32.2839C30.7218 32.612 30.4624 32.8831 30.1381 33.0545C29.9164 33.1716 29.6878 33.2137 29.4663 33.2324C29.2588 33.25 29.0086 33.25 28.7261 33.25H27.0897C26.8073 33.25 26.5569 33.25 26.3495 33.2324C26.128 33.2137 25.8994 33.1716 25.6777 33.0545C25.3534 32.8831 25.094 32.612 24.9327 32.2839C24.8237 32.062 24.7844 31.8335 24.7667 31.609C24.75 31.3967 24.75 31.1397 24.75 30.8451V30.2748C24.75 29.9802 24.75 29.7231 24.7667 29.5109C24.7844 29.2864 24.8237 29.0579 24.9327 28.836C25.094 28.5079 25.3534 28.2368 25.6777 28.0654C25.729 28.0383 25.7808 28.0152 25.8327 27.9955V27.3787Z" fill="#5F5F6A"/>
<path opacity="0.5" d="M24.8232 76.5C25.2491 76.5 25.462 76.5002 25.6562 76.5391C26.1267 76.6332 26.5481 76.8928 26.8428 77.2715C26.9036 77.3497 26.9576 77.4369 27.0205 77.5518L27.4795 78.4482C27.5422 78.5629 27.5965 78.6494 27.6572 78.7275C27.9519 79.1063 28.3732 79.3668 28.8438 79.4609C29.038 79.4998 29.2509 79.5 29.6768 79.5H33.7998C34.9199 79.5 35.4804 79.4998 35.9082 79.7178C36.2845 79.9095 36.5905 80.2155 36.7822 80.5918C37.0002 81.0196 37 81.5801 37 82.7002V88.2998C37 89.4199 37.0002 89.9804 36.7822 90.4082C36.5905 90.7845 36.2845 91.0905 35.9082 91.2822C35.4804 91.5002 34.9199 91.5 33.7998 91.5H22.2002C21.0801 91.5 20.5196 91.5002 20.0918 91.2822C19.7155 91.0905 19.4095 90.7845 19.2178 90.4082C18.9998 89.9804 19 89.4199 19 88.2998V79.7002C19 78.5801 18.9998 78.0196 19.2178 77.5918C19.4095 77.2155 19.7155 76.9095 20.0918 76.7178C20.5196 76.4998 21.0801 76.5 22.2002 76.5H24.8232ZM27.9082 81.25C26.7407 81.25 25.833 82.2251 25.833 83.3789V83.9951C25.7811 84.0148 25.7291 84.0383 25.6777 84.0654C25.3534 84.2368 25.0938 84.5078 24.9326 84.8359C24.8236 85.0578 24.7843 85.2863 24.7666 85.5107C24.7499 85.7229 24.75 85.9799 24.75 86.2744V86.8447C24.75 87.1394 24.7499 87.3971 24.7666 87.6094C24.7843 87.8338 24.8236 88.0624 24.9326 88.2842C25.0939 88.6122 25.3535 88.8834 25.6777 89.0547C25.8994 89.1718 26.1282 89.2137 26.3496 89.2324C26.5571 89.25 26.8074 89.25 27.0898 89.25H28.7256C29.0081 89.25 29.2593 89.25 29.4668 89.2324C29.688 89.2136 29.9163 89.1716 30.1377 89.0547C30.4619 88.8834 30.7216 88.6122 30.8828 88.2842C30.9918 88.0624 31.0311 87.8338 31.0488 87.6094C31.0656 87.3971 31.0654 87.1394 31.0654 86.8447V86.2744C31.0654 85.9799 31.0655 85.7229 31.0488 85.5107C31.0311 85.2863 30.9918 85.0578 30.8828 84.8359C30.7216 84.5079 30.4619 84.2368 30.1377 84.0654C30.0865 84.0384 30.0352 84.0148 29.9834 83.9951V83.3789C29.9834 82.2252 29.0756 81.2502 27.9082 81.25ZM27.9082 85.8818C28.2567 85.882 28.5388 86.1642 28.5391 86.5127V86.9346C28.5389 87.2831 28.2568 87.5653 27.9082 87.5654C27.5595 87.5654 27.2766 87.2832 27.2764 86.9346V86.5127C27.2766 86.1641 27.5595 85.8818 27.9082 85.8818ZM27.9082 82.5127C28.3351 82.5129 28.7197 82.8792 28.7197 83.3789V83.8701H27.0957V83.3789C27.0957 82.8791 27.4812 82.5127 27.9082 82.5127Z" fill="#5F5F6A"/>
<path fill-rule="evenodd" clip-rule="evenodd" d="M25.5092 77.2743C25.4052 77.2535 25.2807 77.25 24.823 77.25H22.2C21.6276 77.25 21.2434 77.2506 20.9475 77.2748C20.6604 77.2982 20.5231 77.3401 20.4325 77.3862C20.1973 77.5061 20.0061 77.6973 19.8862 77.9325C19.8401 78.0231 19.7982 78.1603 19.7748 78.4475C19.7506 78.7434 19.75 79.1276 19.75 79.7V88.3C19.75 88.8724 19.7506 89.2566 19.7748 89.5525C19.7982 89.8396 19.8401 89.9769 19.8862 90.0675C20.0061 90.3027 20.1973 90.4939 20.4325 90.6137C20.5231 90.6599 20.6604 90.7018 20.9475 90.7252C21.2434 90.7494 21.6276 90.75 22.2 90.75H33.8C34.3724 90.75 34.7566 90.7494 35.0525 90.7252C35.3396 90.7018 35.4769 90.6599 35.5675 90.6137C35.8027 90.4939 35.9939 90.3027 36.1138 90.0675C36.1599 89.9769 36.2018 89.8396 36.2252 89.5525C36.2494 89.2566 36.25 88.8724 36.25 88.3V82.7C36.25 82.1276 36.2494 81.7433 36.2252 81.4475C36.2018 81.1603 36.1599 81.0231 36.1138 80.9325C35.9939 80.6973 35.8027 80.5061 35.5675 80.3862C35.4769 80.3401 35.3396 80.2982 35.0525 80.2747C34.7566 80.2506 34.3724 80.25 33.8 80.25H29.677C29.6553 80.25 29.6338 80.25 29.6126 80.25C29.2494 80.2502 28.9653 80.2503 28.6965 80.1965C28.0495 80.0671 27.4706 79.7093 27.0655 79.1885C26.8972 78.9721 26.7702 78.7179 26.608 78.393C26.5985 78.3741 26.5889 78.3549 26.5792 78.3354C26.3745 77.9259 26.3157 77.8162 26.2505 77.7325C26.0664 77.4958 25.8033 77.3331 25.5092 77.2743ZM24.8874 75.75C25.2505 75.7498 25.5347 75.7497 25.8035 75.8035C26.4505 75.9329 27.0294 76.2907 27.4345 76.8115C27.6028 77.0278 27.7298 77.282 27.892 77.6069C27.9015 77.6259 27.9111 77.6451 27.9208 77.6646C28.1255 78.074 28.1843 78.1838 28.2494 78.2675C28.4336 78.5042 28.6967 78.6668 28.9908 78.7257C29.0948 78.7465 29.2193 78.75 29.677 78.75L33.8304 78.75C34.3646 78.75 34.8104 78.75 35.1747 78.7797C35.5546 78.8108 35.9112 78.8779 36.2485 79.0497C36.7659 79.3134 37.1866 79.7341 37.4503 80.2515C37.6221 80.5888 37.6892 80.9454 37.7203 81.3253C37.75 81.6895 37.75 82.1354 37.75 82.6695V88.3304C37.75 88.8646 37.75 89.3104 37.7203 89.6747C37.6892 90.0545 37.6221 90.4112 37.4503 90.7485C37.1866 91.2659 36.7659 91.6866 36.2485 91.9503C35.9112 92.1221 35.5546 92.1892 35.1747 92.2202C34.8104 92.25 34.3646 92.25 33.8305 92.25H22.1695C21.6354 92.25 21.1896 92.25 20.8253 92.2202C20.4454 92.1892 20.0888 92.1221 19.7515 91.9503C19.2341 91.6866 18.8134 91.2659 18.5497 90.7485C18.3779 90.4112 18.3108 90.0545 18.2797 89.6747C18.25 89.3104 18.25 88.8646 18.25 88.3304V79.6696C18.25 79.1354 18.25 78.6896 18.2797 78.3253C18.3108 77.9454 18.3779 77.5888 18.5497 77.2515C18.8134 76.7341 19.2341 76.3134 19.7515 76.0497C20.0888 75.8779 20.4454 75.8108 20.8253 75.7797C21.1896 75.75 21.6354 75.75 22.1696 75.75L24.823 75.75C24.8447 75.75 24.8662 75.75 24.8874 75.75Z" fill="#5F5F6A"/>
<path d="M28.7763 142.592C28.7763 142.221 28.4759 141.921 28.1053 141.921C27.7347 141.921 27.4342 142.221 27.4342 142.592V143.039C27.4342 143.41 27.7347 143.711 28.1053 143.711C28.4759 143.711 28.7763 143.41 28.7763 143.039V142.592Z" fill="#5F5F6A"/>
<path fill-rule="evenodd" clip-rule="evenodd" d="M28.1053 137C26.8647 137 25.9004 138.036 25.9004 139.262V139.917C25.8452 139.938 25.7902 139.963 25.7357 139.991C25.3911 140.173 25.1155 140.461 24.9442 140.81C24.8283 141.046 24.7865 141.289 24.7677 141.527C24.75 141.753 24.75 142.026 24.75 142.339V142.945C24.75 143.258 24.75 143.531 24.7677 143.756C24.7865 143.995 24.8283 144.238 24.9442 144.473C25.1155 144.822 25.3911 145.11 25.7357 145.292C25.9712 145.417 26.2141 145.461 26.4494 145.481C26.6699 145.5 26.9358 145.5 27.2359 145.5H28.9746C29.2747 145.5 29.5406 145.5 29.7611 145.481C29.9964 145.461 30.2393 145.417 30.4749 145.292C30.8194 145.11 31.0951 144.822 31.2664 144.473C31.3822 144.238 31.424 143.995 31.4428 143.756C31.4605 143.531 31.4605 143.258 31.4605 142.945V142.339C31.4605 142.026 31.4605 141.753 31.4428 141.527C31.424 141.289 31.3822 141.046 31.2664 140.81C31.0951 140.461 30.8194 140.173 30.4749 139.991C30.4203 139.963 30.3653 139.938 30.3102 139.917V139.262C30.3102 138.036 29.3458 137 28.1053 137ZM27.2425 139.784V139.262C27.2425 138.731 27.6516 138.342 28.1053 138.342C28.559 138.342 28.968 138.731 28.968 139.262V139.784H27.2425ZM26.3627 141.178C26.3732 141.172 26.4144 141.152 26.5627 141.14C26.7197 141.126 26.928 141.126 27.2617 141.126H28.9489C29.2825 141.126 29.4909 141.126 29.6478 141.14C29.7961 141.152 29.8373 141.172 29.8479 141.178C29.9362 141.225 30.0125 141.302 30.0618 141.402C30.0714 141.421 30.0923 141.473 30.1048 141.633C30.1179 141.799 30.1184 142.019 30.1184 142.363V142.92C30.1184 143.265 30.1179 143.485 30.1048 143.651C30.0923 143.81 30.0714 143.862 30.0618 143.882C30.0125 143.982 29.9362 144.059 29.8479 144.106C29.8373 144.111 29.7961 144.131 29.6478 144.144C29.4909 144.157 29.2825 144.158 28.9489 144.158H27.2617C26.928 144.158 26.7197 144.157 26.5627 144.144C26.4144 144.131 26.3732 144.111 26.3627 144.106C26.2743 144.059 26.198 143.982 26.1487 143.882C26.1392 143.862 26.1183 143.81 26.1057 143.651C26.0926 143.485 26.0921 143.265 26.0921 142.92V142.363C26.0921 142.019 26.0926 141.799 26.1057 141.633C26.1183 141.473 26.1392 141.421 26.1487 141.402C26.198 141.302 26.2743 141.225 26.3627 141.178Z" fill="#5F5F6A"/>
<path fill-rule="evenodd" clip-rule="evenodd" d="M25.8035 131.803C25.5347 131.75 25.2505 131.75 24.8874 131.75L22.1696 131.75C21.6354 131.75 21.1896 131.75 20.8253 131.78C20.4454 131.811 20.0888 131.878 19.7515 132.05C19.2341 132.313 18.8134 132.734 18.5497 133.252C18.3779 133.589 18.3108 133.945 18.2797 134.325C18.25 134.69 18.25 135.135 18.25 135.67V144.33C18.25 144.865 18.25 145.31 18.2797 145.675C18.3108 146.055 18.3779 146.411 18.5497 146.748C18.8134 147.266 19.2341 147.687 19.7515 147.95C20.0888 148.122 20.4454 148.189 20.8253 148.22C21.1895 148.25 21.6354 148.25 22.1695 148.25H33.8305C34.3646 148.25 34.8105 148.25 35.1747 148.22C35.5546 148.189 35.9112 148.122 36.2485 147.95C36.7659 147.687 37.1866 147.266 37.4503 146.748C37.6221 146.411 37.6892 146.055 37.7203 145.675C37.75 145.31 37.75 144.865 37.75 144.33V138.67C37.75 138.135 37.75 137.69 37.7203 137.325C37.6892 136.945 37.6221 136.589 37.4503 136.251C37.1866 135.734 36.7659 135.313 36.2485 135.05C35.9112 134.878 35.5546 134.811 35.1747 134.78C34.8104 134.75 34.3646 134.75 33.8304 134.75L29.677 134.75C29.2193 134.75 29.0948 134.746 28.9908 134.726C28.6967 134.667 28.4336 134.504 28.2494 134.267C28.1843 134.184 28.1255 134.074 27.9208 133.665L27.892 133.607C27.7298 133.282 27.6028 133.028 27.4345 132.811C27.0294 132.291 26.4505 131.933 25.8035 131.803ZM24.823 133.25C25.2807 133.25 25.4052 133.253 25.5092 133.274C25.8033 133.333 26.0664 133.496 26.2505 133.732C26.3157 133.816 26.3745 133.926 26.5792 134.335L26.608 134.393C26.7702 134.718 26.8972 134.972 27.0655 135.189C27.4706 135.709 28.0495 136.067 28.6965 136.197C28.9653 136.25 29.2494 136.25 29.6126 136.25L33.8 136.25C34.3724 136.25 34.7566 136.251 35.0525 136.275C35.3396 136.298 35.4769 136.34 35.5675 136.386C35.8027 136.506 35.9939 136.697 36.1138 136.932C36.1599 137.023 36.2018 137.16 36.2252 137.447C36.2494 137.743 36.25 138.128 36.25 138.7V144.3C36.25 144.872 36.2494 145.257 36.2252 145.552C36.2018 145.84 36.1599 145.977 36.1138 146.067C35.9939 146.303 35.8027 146.494 35.5675 146.614C35.4769 146.66 35.3396 146.702 35.0525 146.725C34.7566 146.749 34.3724 146.75 33.8 146.75H22.2C21.6276 146.75 21.2434 146.749 20.9475 146.725C20.6604 146.702 20.5231 146.66 20.4325 146.614C20.1973 146.494 20.0061 146.303 19.8862 146.067C19.8401 145.977 19.7982 145.84 19.7748 145.552C19.7506 145.257 19.75 144.872 19.75 144.3V135.7C19.75 135.128 19.7506 134.743 19.7748 134.447C19.7982 134.16 19.8401 134.023 19.8862 133.932C20.0061 133.697 20.1973 133.506 20.4325 133.386C20.5231 133.34 20.6604 133.298 20.9475 133.275C21.2434 133.251 21.6276 133.25 22.2 133.25H24.823Z" fill="#5F5F6A"/>
<path d="M28.4286 198.333C28.4286 198.088 28.2367 197.889 28 197.889C27.7633 197.889 27.5714 198.088 27.5714 198.333V198.778C27.5714 199.023 27.7633 199.222 28 199.222C28.2367 199.222 28.4286 199.023 28.4286 198.778V198.333Z" fill="#5F5F6A"/>
<path fill-rule="evenodd" clip-rule="evenodd" d="M28 193C26.9372 193 26.102 193.922 26.102 195.025V195.838C26.009 195.863 25.9184 195.898 25.8301 195.946C25.5409 196.105 25.3087 196.356 25.164 196.661C25.07 196.859 25.0333 197.069 25.0163 197.293C25 197.508 25 197.772 25 198.089V198.677C25 198.994 25 199.257 25.0163 199.473C25.0333 199.696 25.07 199.906 25.164 200.104C25.3087 200.41 25.5409 200.661 25.8301 200.819C26.0198 200.923 26.2203 200.964 26.4318 200.982C26.6338 201 26.8806 201 27.174 201H28.826C29.1194 201 29.3662 201 29.5682 200.982C29.7797 200.964 29.9802 200.923 30.1699 200.819C30.4591 200.661 30.6913 200.41 30.836 200.104C30.93 199.906 30.9667 199.696 30.9837 199.473C31 199.257 31 198.994 31 198.677V198.089C31 197.772 31 197.508 30.9837 197.293C30.9667 197.069 30.93 196.859 30.836 196.661C30.6913 196.356 30.4591 196.105 30.1699 195.946C30.0816 195.898 29.991 195.863 29.898 195.838V195.025C29.898 193.922 29.0628 193 28 193ZM27.1739 195.765C27.0993 195.765 27.0277 195.765 26.9592 195.766V195.025C26.9592 194.382 27.4397 193.889 28 193.889C28.5603 193.889 29.0408 194.382 29.0408 195.025V195.766C28.9723 195.765 28.9007 195.765 28.8262 195.765H27.1739ZM26.2305 196.732C26.2766 196.707 26.3482 196.683 26.5042 196.669C26.6657 196.655 26.8759 196.654 27.1918 196.654H28.8082C29.1241 196.654 29.3343 196.655 29.4958 196.669C29.6518 196.683 29.7235 196.707 29.7695 196.732C29.895 196.801 30 196.912 30.0667 197.053C30.0928 197.108 30.1161 197.191 30.1292 197.363C30.1425 197.539 30.1429 197.767 30.1429 198.106V198.659C30.1429 198.998 30.1425 199.227 30.1292 199.403C30.1161 199.574 30.0928 199.657 30.0667 199.712C30 199.853 29.895 199.965 29.7695 200.033C29.7235 200.059 29.6518 200.083 29.4958 200.097C29.3343 200.111 29.1241 200.111 28.8082 200.111H27.1918C26.8759 200.111 26.6657 200.111 26.5042 200.097C26.3482 200.083 26.2766 200.059 26.2305 200.033C26.105 199.965 26 199.853 25.9333 199.712C25.9072 199.657 25.8839 199.574 25.8708 199.403C25.8575 199.227 25.8571 198.998 25.8571 198.659V198.106C25.8571 197.767 25.8575 197.539 25.8708 197.363C25.8839 197.191 25.9072 197.108 25.9333 197.053C26 196.912 26.105 196.801 26.2305 196.732Z" fill="#5F5F6A"/>
<path fill-rule="evenodd" clip-rule="evenodd" d="M25.7545 188.049C25.5108 188 25.2509 188 24.8737 188L22.1786 188C21.6367 188 21.1996 188 20.8457 188.029C20.4813 188.059 20.1612 188.122 19.865 188.272C19.3946 188.512 19.0122 188.895 18.7725 189.365C18.6216 189.661 18.5587 189.981 18.5289 190.346C18.5 190.7 18.5 191.137 18.5 191.679V200.321C18.5 200.863 18.5 201.3 18.5289 201.654C18.5587 202.019 18.6216 202.339 18.7725 202.635C19.0122 203.105 19.3946 203.488 19.865 203.728C20.1612 203.878 20.4813 203.941 20.8457 203.971C21.1996 204 21.6367 204 22.1786 204H33.8214C34.3633 204 34.8004 204 35.1543 203.971C35.5187 203.941 35.8388 203.878 36.135 203.728C36.6054 203.488 36.9878 203.105 37.2275 202.635C37.3784 202.339 37.4413 202.019 37.4711 201.654C37.5 201.3 37.5 200.863 37.5 200.321V194.679C37.5 194.137 37.5 193.7 37.4711 193.346C37.4413 192.981 37.3784 192.661 37.2275 192.365C36.9878 191.895 36.6054 191.512 36.135 191.272C35.8388 191.122 35.5187 191.059 35.1543 191.029C34.8004 191 34.3633 191 33.8214 191H29.677C29.2298 191 29.0759 190.998 28.9417 190.971C28.5888 190.9 28.2731 190.705 28.0521 190.421C27.9681 190.313 27.8972 190.176 27.6972 189.776L27.6745 189.731C27.5059 189.394 27.3898 189.161 27.2372 188.965C26.8689 188.492 26.3426 188.166 25.7545 188.049ZM24.823 189C25.2702 189 25.4241 189.002 25.5582 189.029C25.9111 189.1 26.2269 189.295 26.4479 189.579C26.5319 189.687 26.6028 189.824 26.8028 190.224L26.8255 190.269C26.9941 190.606 27.1102 190.839 27.2628 191.035C27.6311 191.508 28.1574 191.834 28.7455 191.951C28.9892 192 29.2491 192 29.6263 192L33.8 192C34.3683 192 34.7645 192 35.0729 192.026C35.3755 192.05 35.5493 192.096 35.681 192.163C35.9632 192.307 36.1927 192.537 36.3365 192.819C36.4036 192.951 36.4497 193.125 36.4744 193.427C36.4996 193.736 36.5 194.132 36.5 194.7V200.3C36.5 200.868 36.4996 201.264 36.4744 201.573C36.4497 201.875 36.4036 202.049 36.3365 202.181C36.1927 202.463 35.9632 202.693 35.681 202.836C35.5493 202.904 35.3755 202.95 35.0729 202.974C34.7645 203 34.3683 203 33.8 203H22.2C21.6317 203 21.2355 203 20.9271 202.974C20.6245 202.95 20.4507 202.904 20.319 202.836C20.0368 202.693 19.8073 202.463 19.6635 202.181C19.5964 202.049 19.5503 201.875 19.5256 201.573C19.5004 201.264 19.5 200.868 19.5 200.3V191.7C19.5 191.132 19.5004 190.736 19.5256 190.427C19.5503 190.125 19.5964 189.951 19.6635 189.819C19.8073 189.537 20.0368 189.307 20.319 189.163C20.4507 189.096 20.6245 189.05 20.9271 189.026C21.2355 189 21.6317 189 22.2 189H24.823Z" fill="#5F5F6A"/>
</svg>
