<svg width="56" height="224" viewBox="0 0 56 224" fill="none" xmlns="http://www.w3.org/2000/svg">
<path fill-rule="evenodd" clip-rule="evenodd" d="M25.8035 19.8034C25.5347 19.7496 25.2505 19.7498 24.8874 19.75L22.1696 19.75C21.6354 19.75 21.1896 19.75 20.8253 19.7797C20.4454 19.8108 20.0888 19.8779 19.7515 20.0497C19.2341 20.3134 18.8134 20.7341 18.5497 21.2515C18.3779 21.5888 18.3108 21.9454 18.2797 22.3253C18.25 22.6895 18.25 23.1354 18.25 23.6695V32.3304C18.25 32.8645 18.25 33.3104 18.2797 33.6746C18.3108 34.0545 18.3779 34.4112 18.5497 34.7484C18.8134 35.2659 19.2341 35.6866 19.7515 35.9502C20.0888 36.1221 20.4454 36.1892 20.8253 36.2202C21.1895 36.25 21.6354 36.25 22.1695 36.25H33.8305C34.3646 36.25 34.8105 36.25 35.1747 36.2202C35.5546 36.1892 35.9112 36.1221 36.2485 35.9502C36.7659 35.6866 37.1866 35.2659 37.4503 34.7484C37.6221 34.4112 37.6892 34.0545 37.7203 33.6746C37.75 33.3104 37.75 32.8646 37.75 32.3304V26.6695C37.75 26.1354 37.75 25.6895 37.7203 25.3253C37.6892 24.9454 37.6221 24.5888 37.4503 24.2515C37.1866 23.734 36.7659 23.3134 36.2485 23.0497C35.9112 22.8779 35.5546 22.8107 35.1747 22.7797C34.8104 22.7499 34.3646 22.75 33.8304 22.75L29.677 22.75C29.2193 22.75 29.0948 22.7465 28.9908 22.7257C28.6967 22.6668 28.4336 22.5042 28.2494 22.2675C28.1843 22.1837 28.1255 22.074 27.9208 21.6646L27.892 21.6069C27.7298 21.282 27.6028 21.0278 27.4345 20.8114C27.0294 20.2907 26.4505 19.9329 25.8035 19.8034ZM31 30C31.4142 30 31.75 29.6642 31.75 29.25C31.75 28.8358 31.4142 28.5 31 28.5H26.8107L28.0303 27.2803C28.3232 26.9874 28.3232 26.5126 28.0303 26.2197C27.7374 25.9268 27.2626 25.9268 26.9697 26.2197L24.4697 28.7197C24.1768 29.0126 24.1768 29.4874 24.4697 29.7803L26.9697 32.2803C27.2626 32.5732 27.7374 32.5732 28.0303 32.2803C28.3232 31.9874 28.3232 31.5126 28.0303 31.2197L26.8107 30H31Z" fill="#5F5F6A"/>
<path opacity="0.5" fill-rule="evenodd" clip-rule="evenodd" d="M26.8425 77.272C26.9642 77.4284 27.0595 77.6189 27.25 78C27.4405 78.3811 27.5358 78.5716 27.6575 78.728C27.9521 79.1068 28.3731 79.367 28.8436 79.4611C29.0379 79.5 29.251 79.5 29.677 79.5H33.8C34.9201 79.5 35.4802 79.5 35.908 79.718C36.2843 79.9097 36.5903 80.2157 36.782 80.592C37 81.0198 37 81.5799 37 82.7V88.3C37 89.4201 37 89.9801 36.782 90.408C36.5903 90.7843 36.2843 91.0903 35.908 91.282C35.4802 91.5 34.9201 91.5 33.8 91.5H22.2C21.0799 91.5 20.5198 91.5 20.092 91.282C19.7157 91.0903 19.4097 90.7843 19.218 90.408C19 89.9801 19 89.4201 19 88.3V79.7C19 78.5799 19 78.0198 19.218 77.592C19.4097 77.2157 19.7157 76.9097 20.092 76.718C20.5198 76.5 21.0799 76.5 22.2 76.5H24.823C25.249 76.5 25.4621 76.5 25.6564 76.5389C26.1269 76.633 26.5479 76.8932 26.8425 77.272ZM31.75 85.25C31.75 85.6642 31.4142 86 31 86H26.8107L28.0303 87.2197C28.3232 87.5126 28.3232 87.9874 28.0303 88.2803C27.7374 88.5732 27.2626 88.5732 26.9697 88.2803L24.4697 85.7803C24.1768 85.4874 24.1768 85.0126 24.4697 84.7197L26.9697 82.2197C27.2626 81.9268 27.7374 81.9268 28.0303 82.2197C28.3232 82.5126 28.3232 82.9874 28.0303 83.2803L26.8107 84.5H31C31.4142 84.5 31.75 84.8358 31.75 85.25Z" fill="#5F5F6A"/>
<path fill-rule="evenodd" clip-rule="evenodd" d="M25.5092 77.2743C25.4052 77.2535 25.2807 77.25 24.823 77.25H22.2C21.6276 77.25 21.2434 77.2506 20.9475 77.2748C20.6604 77.2982 20.5231 77.3401 20.4325 77.3862C20.1973 77.5061 20.0061 77.6973 19.8862 77.9325C19.8401 78.0231 19.7982 78.1603 19.7748 78.4475C19.7506 78.7434 19.75 79.1276 19.75 79.7V88.3C19.75 88.8724 19.7506 89.2566 19.7748 89.5525C19.7982 89.8396 19.8401 89.9769 19.8862 90.0675C20.0061 90.3027 20.1973 90.4939 20.4325 90.6137C20.5231 90.6599 20.6604 90.7018 20.9475 90.7252C21.2434 90.7494 21.6276 90.75 22.2 90.75H33.8C34.3724 90.75 34.7566 90.7494 35.0525 90.7252C35.3396 90.7018 35.4769 90.6599 35.5675 90.6137C35.8027 90.4939 35.9939 90.3027 36.1138 90.0675C36.1599 89.9769 36.2018 89.8396 36.2252 89.5525C36.2494 89.2566 36.25 88.8724 36.25 88.3V82.7C36.25 82.1276 36.2494 81.7433 36.2252 81.4475C36.2018 81.1603 36.1599 81.0231 36.1138 80.9325C35.9939 80.6973 35.8027 80.5061 35.5675 80.3862C35.4769 80.3401 35.3396 80.2982 35.0525 80.2747C34.7566 80.2506 34.3724 80.25 33.8 80.25H29.677C29.6553 80.25 29.6338 80.25 29.6126 80.25C29.2494 80.2502 28.9653 80.2503 28.6965 80.1965C28.0495 80.0671 27.4706 79.7093 27.0655 79.1885C26.8972 78.9721 26.7702 78.7179 26.608 78.393C26.5985 78.3741 26.5889 78.3549 26.5792 78.3354C26.3745 77.9259 26.3157 77.8162 26.2505 77.7325C26.0664 77.4958 25.8033 77.3331 25.5092 77.2743ZM24.8874 75.75C25.2505 75.7498 25.5347 75.7497 25.8035 75.8035C26.4505 75.9329 27.0294 76.2907 27.4345 76.8115C27.6028 77.0278 27.7298 77.282 27.892 77.6069C27.9015 77.6259 27.9111 77.6451 27.9208 77.6646C28.1255 78.074 28.1843 78.1838 28.2494 78.2675C28.4336 78.5042 28.6967 78.6668 28.9908 78.7257C29.0948 78.7465 29.2193 78.75 29.677 78.75L33.8304 78.75C34.3646 78.75 34.8104 78.75 35.1747 78.7797C35.5546 78.8108 35.9112 78.8779 36.2485 79.0497C36.7659 79.3134 37.1866 79.7341 37.4503 80.2515C37.6221 80.5888 37.6892 80.9454 37.7203 81.3253C37.75 81.6895 37.75 82.1354 37.75 82.6695V88.3304C37.75 88.8646 37.75 89.3104 37.7203 89.6747C37.6892 90.0545 37.6221 90.4112 37.4503 90.7485C37.1866 91.2659 36.7659 91.6866 36.2485 91.9503C35.9112 92.1221 35.5546 92.1892 35.1747 92.2202C34.8104 92.25 34.3646 92.25 33.8305 92.25H22.1695C21.6354 92.25 21.1896 92.25 20.8253 92.2202C20.4454 92.1892 20.0888 92.1221 19.7515 91.9503C19.2341 91.6866 18.8134 91.2659 18.5497 90.7485C18.3779 90.4112 18.3108 90.0545 18.2797 89.6747C18.25 89.3104 18.25 88.8646 18.25 88.3304V79.6696C18.25 79.1354 18.25 78.6896 18.2797 78.3253C18.3108 77.9454 18.3779 77.5888 18.5497 77.2515C18.8134 76.7341 19.2341 76.3134 19.7515 76.0497C20.0888 75.8779 20.4454 75.8108 20.8253 75.7797C21.1896 75.75 21.6354 75.75 22.1696 75.75L24.823 75.75C24.8447 75.75 24.8662 75.75 24.8874 75.75Z" fill="#5F5F6A"/>
<path d="M31.75 141.25C31.75 141.664 31.4142 142 31 142H26.8107L28.0303 143.22C28.3232 143.513 28.3232 143.987 28.0303 144.28C27.7374 144.573 27.2626 144.573 26.9697 144.28L24.4697 141.78C24.1768 141.487 24.1768 141.013 24.4697 140.72L26.9697 138.22C27.2626 137.927 27.7374 137.927 28.0303 138.22C28.3232 138.513 28.3232 138.987 28.0303 139.28L26.8107 140.5H31C31.4142 140.5 31.75 140.836 31.75 141.25Z" fill="#5F5F6A"/>
<path fill-rule="evenodd" clip-rule="evenodd" d="M25.8035 131.803C25.5347 131.75 25.2505 131.75 24.8874 131.75L22.1696 131.75C21.6354 131.75 21.1896 131.75 20.8253 131.78C20.4454 131.811 20.0888 131.878 19.7515 132.05C19.2341 132.313 18.8134 132.734 18.5497 133.252C18.3779 133.589 18.3108 133.945 18.2797 134.325C18.25 134.69 18.25 135.135 18.25 135.67V144.33C18.25 144.865 18.25 145.31 18.2797 145.675C18.3108 146.055 18.3779 146.411 18.5497 146.748C18.8134 147.266 19.2341 147.687 19.7515 147.95C20.0888 148.122 20.4454 148.189 20.8253 148.22C21.1895 148.25 21.6354 148.25 22.1695 148.25H33.8305C34.3646 148.25 34.8105 148.25 35.1747 148.22C35.5546 148.189 35.9112 148.122 36.2485 147.95C36.7659 147.687 37.1866 147.266 37.4503 146.748C37.6221 146.411 37.6892 146.055 37.7203 145.675C37.75 145.31 37.75 144.865 37.75 144.33V138.67C37.75 138.135 37.75 137.69 37.7203 137.325C37.6892 136.945 37.6221 136.589 37.4503 136.251C37.1866 135.734 36.7659 135.313 36.2485 135.05C35.9112 134.878 35.5546 134.811 35.1747 134.78C34.8104 134.75 34.3646 134.75 33.8304 134.75L29.677 134.75C29.2193 134.75 29.0948 134.746 28.9908 134.726C28.6967 134.667 28.4336 134.504 28.2494 134.267C28.1843 134.184 28.1255 134.074 27.9208 133.665L27.892 133.607C27.7298 133.282 27.6028 133.028 27.4345 132.811C27.0294 132.291 26.4505 131.933 25.8035 131.803ZM24.823 133.25C25.2807 133.25 25.4052 133.253 25.5092 133.274C25.8033 133.333 26.0664 133.496 26.2505 133.732C26.3157 133.816 26.3745 133.926 26.5792 134.335L26.608 134.393C26.7702 134.718 26.8972 134.972 27.0655 135.189C27.4706 135.709 28.0495 136.067 28.6965 136.197C28.9653 136.25 29.2494 136.25 29.6126 136.25L33.8 136.25C34.3724 136.25 34.7566 136.251 35.0525 136.275C35.3396 136.298 35.4769 136.34 35.5675 136.386C35.8027 136.506 35.9939 136.697 36.1138 136.932C36.1599 137.023 36.2018 137.16 36.2252 137.447C36.2494 137.743 36.25 138.128 36.25 138.7V144.3C36.25 144.872 36.2494 145.257 36.2252 145.552C36.2018 145.84 36.1599 145.977 36.1138 146.067C35.9939 146.303 35.8027 146.494 35.5675 146.614C35.4769 146.66 35.3396 146.702 35.0525 146.725C34.7566 146.749 34.3724 146.75 33.8 146.75H22.2C21.6276 146.75 21.2434 146.749 20.9475 146.725C20.6604 146.702 20.5231 146.66 20.4325 146.614C20.1973 146.494 20.0061 146.303 19.8862 146.067C19.8401 145.977 19.7982 145.84 19.7748 145.552C19.7506 145.257 19.75 144.872 19.75 144.3V135.7C19.75 135.128 19.7506 134.743 19.7748 134.447C19.7982 134.16 19.8401 134.023 19.8862 133.932C20.0061 133.697 20.1973 133.506 20.4325 133.386C20.5231 133.34 20.6604 133.298 20.9475 133.275C21.2434 133.251 21.6276 133.25 22.2 133.25H24.823Z" fill="#5F5F6A"/>
<path d="M31.5 197.5C31.5 197.776 31.2761 198 31 198H26.2071L27.8536 199.646C28.0488 199.842 28.0488 200.158 27.8536 200.354C27.6583 200.549 27.3417 200.549 27.1464 200.354L24.6464 197.854C24.4512 197.658 24.4512 197.342 24.6464 197.146L27.1464 194.646C27.3417 194.451 27.6583 194.451 27.8536 194.646C28.0488 194.842 28.0488 195.158 27.8536 195.354L26.2071 197H31C31.2761 197 31.5 197.224 31.5 197.5Z" fill="#5F5F6A"/>
<path fill-rule="evenodd" clip-rule="evenodd" d="M25.7545 188.049C25.5108 188 25.2509 188 24.8737 188L22.1786 188C21.6367 188 21.1996 188 20.8457 188.029C20.4813 188.059 20.1612 188.122 19.865 188.272C19.3946 188.512 19.0122 188.895 18.7725 189.365C18.6216 189.661 18.5587 189.981 18.5289 190.346C18.5 190.7 18.5 191.137 18.5 191.679V200.321C18.5 200.863 18.5 201.3 18.5289 201.654C18.5587 202.019 18.6216 202.339 18.7725 202.635C19.0122 203.105 19.3946 203.488 19.865 203.728C20.1612 203.878 20.4813 203.941 20.8457 203.971C21.1996 204 21.6366 204 22.1784 204H33.8214C34.3632 204 34.8004 204 35.1543 203.971C35.5187 203.941 35.8388 203.878 36.135 203.728C36.6054 203.488 36.9878 203.105 37.2275 202.635C37.3784 202.339 37.4413 202.019 37.4711 201.654C37.5 201.3 37.5 200.863 37.5 200.321V194.679C37.5 194.137 37.5 193.7 37.4711 193.346C37.4413 192.981 37.3784 192.661 37.2275 192.365C36.9878 191.895 36.6054 191.512 36.135 191.272C35.8388 191.122 35.5187 191.059 35.1543 191.029C34.8004 191 34.3633 191 33.8214 191H29.677C29.2298 191 29.0759 190.998 28.9417 190.971C28.5888 190.9 28.2731 190.705 28.0521 190.421C27.9681 190.313 27.8972 190.176 27.6972 189.776L27.6745 189.731C27.5059 189.394 27.3898 189.161 27.2372 188.965C26.8689 188.492 26.3426 188.166 25.7545 188.049ZM24.823 189C25.2702 189 25.4241 189.002 25.5582 189.029C25.9111 189.1 26.2269 189.295 26.4479 189.579C26.5319 189.687 26.6028 189.824 26.8028 190.224L26.8255 190.269C26.9941 190.606 27.1102 190.839 27.2628 191.035C27.6311 191.508 28.1574 191.834 28.7455 191.951C28.9892 192 29.2491 192 29.6263 192L33.8 192C34.3683 192 34.7645 192 35.0729 192.026C35.3755 192.05 35.5493 192.096 35.681 192.163C35.9632 192.307 36.1927 192.537 36.3365 192.819C36.4036 192.951 36.4497 193.125 36.4744 193.427C36.4996 193.736 36.5 194.132 36.5 194.7V200.3C36.5 200.868 36.4996 201.264 36.4744 201.573C36.4497 201.875 36.4036 202.049 36.3365 202.181C36.1927 202.463 35.9632 202.693 35.681 202.837C35.5493 202.904 35.3755 202.95 35.0729 202.974C34.7645 203 34.3683 203 33.8 203H22.2C21.6317 203 21.2355 203 20.9271 202.974C20.6245 202.95 20.4507 202.904 20.319 202.837C20.0368 202.693 19.8073 202.463 19.6635 202.181C19.5964 202.049 19.5503 201.875 19.5256 201.573C19.5004 201.264 19.5 200.868 19.5 200.3V191.7C19.5 191.132 19.5004 190.736 19.5256 190.427C19.5503 190.125 19.5964 189.951 19.6635 189.819C19.8073 189.537 20.0368 189.307 20.319 189.164C20.4507 189.096 20.6245 189.05 20.9271 189.026C21.2355 189 21.6317 189 22.2 189H24.823Z" fill="#5F5F6A"/>
</svg>
