<svg width="56" height="224" viewBox="0 0 56 224" fill="none" xmlns="http://www.w3.org/2000/svg">
<path d="M25.8035 19.8034C25.5347 19.7496 25.2505 19.7498 24.8874 19.75L22.1696 19.75C21.6354 19.75 21.1896 19.75 20.8253 19.7797C20.4454 19.8108 20.0888 19.8779 19.7515 20.0497C19.2341 20.3134 18.8134 20.7341 18.5497 21.2515C18.3779 21.5888 18.3108 21.9454 18.2797 22.3253C18.25 22.6895 18.25 23.1354 18.25 23.6695V32.3304C18.25 32.8645 18.25 33.3104 18.2797 33.6746C18.3108 34.0545 18.3779 34.4112 18.5497 34.7484C18.8134 35.2659 19.2341 35.6866 19.7515 35.9502C20.0888 36.1221 20.4454 36.1892 20.8253 36.2202C21.1895 36.25 21.6353 36.25 22.1694 36.25H33.8305C34.3645 36.25 34.8105 36.25 35.1747 36.2202C35.5546 36.1892 35.9112 36.1221 36.2485 35.9502C36.7659 35.6866 37.1866 35.2659 37.4503 34.7484C37.6221 34.4112 37.6892 34.0545 37.7203 33.6746C37.75 33.3104 37.75 32.8646 37.75 32.3304V26.6695C37.75 26.1354 37.75 25.6895 37.7203 25.3253C37.6892 24.9454 37.6221 24.5888 37.4503 24.2515C37.1866 23.734 36.7659 23.3134 36.2485 23.0497C35.9112 22.8779 35.5546 22.8107 35.1747 22.7797C34.8104 22.7499 34.3646 22.75 33.8304 22.75L29.677 22.75C29.2193 22.75 29.0948 22.7465 28.9908 22.7257C28.6967 22.6668 28.4336 22.5042 28.2494 22.2675C28.1843 22.1837 28.1255 22.074 27.9208 21.6646L27.892 21.6069C27.7298 21.282 27.6028 21.0278 27.4345 20.8114C27.0294 20.2907 26.4505 19.9329 25.8035 19.8034Z" fill="#5F5F6A"/>
<path opacity="0.5" d="M27.25 78C27.0595 77.6189 26.9642 77.4284 26.8425 77.272C26.5479 76.8932 26.1269 76.633 25.6564 76.5389C25.4621 76.5 25.249 76.5 24.823 76.5H22.2C21.0799 76.5 20.5198 76.5 20.092 76.718C19.7157 76.9097 19.4097 77.2157 19.218 77.592C19 78.0198 19 78.5799 19 79.7V88.3C19 89.4201 19 89.9801 19.218 90.408C19.4097 90.7843 19.7157 91.0903 20.092 91.282C20.5198 91.5 21.0799 91.5 22.2 91.5H33.8C34.9201 91.5 35.4802 91.5 35.908 91.282C36.2843 91.0903 36.5903 90.7843 36.782 90.408C37 89.9801 37 89.4201 37 88.3V82.7C37 81.5799 37 81.0198 36.782 80.592C36.5903 80.2157 36.2843 79.9097 35.908 79.718C35.4802 79.5 34.9201 79.5 33.8 79.5H29.677C29.251 79.5 29.0379 79.5 28.8436 79.4611C28.3731 79.367 27.9521 79.1068 27.6575 78.728C27.5358 78.5716 27.4405 78.3811 27.25 78Z" fill="#5F5F6A"/>
<path fill-rule="evenodd" clip-rule="evenodd" d="M25.5092 77.2743C25.4052 77.2535 25.2807 77.25 24.823 77.25H22.2C21.6276 77.25 21.2434 77.2506 20.9475 77.2748C20.6604 77.2982 20.5231 77.3401 20.4325 77.3862C20.1973 77.5061 20.0061 77.6973 19.8862 77.9325C19.8401 78.0231 19.7982 78.1603 19.7748 78.4475C19.7506 78.7434 19.75 79.1276 19.75 79.7V88.3C19.75 88.8724 19.7506 89.2566 19.7748 89.5525C19.7982 89.8396 19.8401 89.9769 19.8862 90.0675C20.0061 90.3027 20.1973 90.4939 20.4325 90.6137C20.5231 90.6599 20.6604 90.7018 20.9475 90.7252C21.2434 90.7494 21.6276 90.75 22.2 90.75H33.8C34.3724 90.75 34.7566 90.7494 35.0525 90.7252C35.3396 90.7018 35.4769 90.6599 35.5675 90.6137C35.8027 90.4939 35.9939 90.3027 36.1138 90.0675C36.1599 89.9769 36.2018 89.8396 36.2252 89.5525C36.2494 89.2566 36.25 88.8724 36.25 88.3V82.7C36.25 82.1276 36.2494 81.7433 36.2252 81.4475C36.2018 81.1603 36.1599 81.0231 36.1138 80.9325C35.9939 80.6973 35.8027 80.5061 35.5675 80.3862C35.4769 80.3401 35.3396 80.2982 35.0525 80.2747C34.7566 80.2506 34.3724 80.25 33.8 80.25H29.677C29.6553 80.25 29.6338 80.25 29.6126 80.25C29.2494 80.2502 28.9653 80.2503 28.6965 80.1965C28.0495 80.0671 27.4706 79.7093 27.0655 79.1885C26.8972 78.9721 26.7702 78.7179 26.608 78.393C26.5985 78.3741 26.5889 78.3549 26.5792 78.3354C26.3744 77.9259 26.3157 77.8162 26.2505 77.7325C26.0664 77.4958 25.8033 77.3331 25.5092 77.2743ZM24.8874 75.75C25.2505 75.7498 25.5347 75.7497 25.8035 75.8035C26.4505 75.9329 27.0294 76.2907 27.4345 76.8115C27.6028 77.0278 27.7298 77.282 27.892 77.6069C27.9015 77.6259 27.9111 77.6451 27.9208 77.6646C28.1255 78.074 28.1843 78.1838 28.2494 78.2675C28.4336 78.5042 28.6967 78.6668 28.9908 78.7257C29.0948 78.7465 29.2193 78.75 29.677 78.75L33.8304 78.75C34.3646 78.75 34.8104 78.75 35.1747 78.7797C35.5546 78.8108 35.9112 78.8779 36.2485 79.0497C36.7659 79.3134 37.1866 79.7341 37.4503 80.2515C37.6221 80.5888 37.6892 80.9454 37.7203 81.3253C37.75 81.6895 37.75 82.1354 37.75 82.6695V88.3304C37.75 88.8646 37.75 89.3104 37.7203 89.6747C37.6892 90.0545 37.6221 90.4112 37.4503 90.7485C37.1866 91.2659 36.7659 91.6866 36.2485 91.9503C35.9112 92.1221 35.5546 92.1892 35.1747 92.2202C34.8104 92.25 34.3646 92.25 33.8305 92.25H22.1695C21.6354 92.25 21.1896 92.25 20.8253 92.2202C20.4454 92.1892 20.0888 92.1221 19.7515 91.9503C19.2341 91.6866 18.8134 91.2659 18.5497 90.7485C18.3779 90.4112 18.3108 90.0545 18.2797 89.6747C18.25 89.3104 18.25 88.8646 18.25 88.3304V79.6696C18.25 79.1354 18.25 78.6896 18.2797 78.3253C18.3108 77.9454 18.3779 77.5888 18.5497 77.2515C18.8134 76.7341 19.2341 76.3134 19.7515 76.0497C20.0888 75.8779 20.4454 75.8108 20.8253 75.7797C21.1896 75.75 21.6354 75.75 22.1696 75.75L24.823 75.75C24.8447 75.75 24.8662 75.75 24.8874 75.75Z" fill="#5F5F6A"/>
<path fill-rule="evenodd" clip-rule="evenodd" d="M25.5092 133.274C25.4052 133.253 25.2807 133.25 24.823 133.25H22.2C21.6276 133.25 21.2434 133.251 20.9475 133.275C20.6604 133.298 20.5231 133.34 20.4325 133.386C20.1973 133.506 20.0061 133.697 19.8862 133.933C19.8401 134.023 19.7982 134.16 19.7748 134.447C19.7506 134.743 19.75 135.128 19.75 135.7V144.3C19.75 144.872 19.7506 145.257 19.7748 145.553C19.7982 145.84 19.8401 145.977 19.8862 146.067C20.0061 146.303 20.1973 146.494 20.4325 146.614C20.5231 146.66 20.6604 146.702 20.9475 146.725C21.2434 146.749 21.6276 146.75 22.2 146.75H33.8C34.3724 146.75 34.7566 146.749 35.0525 146.725C35.3396 146.702 35.4769 146.66 35.5675 146.614C35.8027 146.494 35.9939 146.303 36.1138 146.067C36.1599 145.977 36.2018 145.84 36.2252 145.553C36.2494 145.257 36.25 144.872 36.25 144.3V138.7C36.25 138.128 36.2494 137.743 36.2252 137.447C36.2018 137.16 36.1599 137.023 36.1138 136.932C35.9939 136.697 35.8027 136.506 35.5675 136.386C35.4769 136.34 35.3396 136.298 35.0525 136.275C34.7566 136.251 34.3724 136.25 33.8 136.25H29.677C29.2827 136.25 28.981 136.253 28.6965 136.197C28.0495 136.067 27.4706 135.709 27.0655 135.189C26.5684 134.55 26.425 133.458 25.5092 133.274ZM24.8874 131.75C25.2505 131.75 25.5347 131.75 25.8035 131.803C26.4505 131.933 27.0294 132.291 27.4345 132.811C27.6127 133.04 27.7444 133.312 27.9208 133.665C28.1652 134.153 28.3998 134.607 28.9908 134.726C29.0948 134.747 29.2193 134.75 29.677 134.75L33.8304 134.75C34.3646 134.75 34.8104 134.75 35.1747 134.78C35.5546 134.811 35.9112 134.878 36.2485 135.05C36.7659 135.313 37.1866 135.734 37.4503 136.252C37.6221 136.589 37.6892 136.945 37.7203 137.325C37.75 137.69 37.75 138.135 37.75 138.67V144.33C37.75 144.865 37.75 145.31 37.7203 145.675C37.6892 146.055 37.6221 146.411 37.4503 146.748C37.1866 147.266 36.7659 147.687 36.2485 147.95C35.9112 148.122 35.5546 148.189 35.1747 148.22C34.8104 148.25 34.3646 148.25 33.8305 148.25H22.1695C21.6354 148.25 21.1896 148.25 20.8253 148.22C20.4454 148.189 20.0888 148.122 19.7515 147.95C19.2341 147.687 18.8134 147.266 18.5497 146.748C18.3779 146.411 18.3108 146.055 18.2797 145.675C18.25 145.31 18.25 144.865 18.25 144.33V135.67C18.25 135.135 18.25 134.69 18.2797 134.325C18.3108 133.945 18.3779 133.589 18.5497 133.252C18.8134 132.734 19.2341 132.313 19.7515 132.05C20.0888 131.878 20.4454 131.811 20.8253 131.78C21.1896 131.75 21.6354 131.75 22.1696 131.75C23.0755 131.75 23.9814 131.75 24.8874 131.75Z" fill="#5F5F6A"/>
<path fill-rule="evenodd" clip-rule="evenodd" d="M25.5582 189.029C25.4241 189.002 25.2702 189 24.823 189H22.2C21.6317 189 21.2355 189 20.9271 189.026C20.6245 189.05 20.4507 189.096 20.319 189.163C20.0368 189.307 19.8073 189.537 19.6635 189.819C19.5964 189.951 19.5503 190.125 19.5256 190.427C19.5004 190.736 19.5 191.132 19.5 191.7V200.3C19.5 200.868 19.5004 201.264 19.5256 201.573C19.5503 201.875 19.5964 202.049 19.6635 202.181C19.8073 202.463 20.0368 202.693 20.319 202.836C20.4507 202.904 20.6245 202.95 20.9271 202.974C21.2355 203 21.6317 203 22.2 203H33.8C34.3683 203 34.7645 203 35.0729 202.974C35.3755 202.95 35.5493 202.904 35.681 202.836C35.9632 202.693 36.1927 202.463 36.3365 202.181C36.4036 202.049 36.4497 201.875 36.4744 201.573C36.4996 201.264 36.5 200.868 36.5 200.3V194.7C36.5 194.132 36.4996 193.736 36.4744 193.427C36.4497 193.125 36.4036 192.951 36.3365 192.819C36.1927 192.537 35.9632 192.307 35.681 192.163C35.5493 192.096 35.3755 192.05 35.0729 192.026C34.7645 192 34.3683 192 33.8 192H29.677C29.6599 192 29.643 192 29.6263 192C29.2491 192 28.9892 192 28.7455 191.951C28.1574 191.834 27.6311 191.508 27.2628 191.035C27.1102 190.839 26.9941 190.606 26.8255 190.269C26.818 190.254 26.8105 190.239 26.8028 190.224C26.6028 189.824 26.5319 189.687 26.4479 189.579C26.2269 189.295 25.9111 189.1 25.5582 189.029ZM24.8737 188C25.2509 188 25.5108 188 25.7545 188.049C26.3426 188.166 26.8689 188.492 27.2372 188.965C27.3898 189.161 27.5059 189.394 27.6745 189.731C27.682 189.746 27.6895 189.761 27.6972 189.776C27.8972 190.176 27.9681 190.313 28.0521 190.421C28.2731 190.705 28.5888 190.9 28.9417 190.971C29.0759 190.998 29.2298 191 29.677 191H33.8214C34.3633 191 34.8004 191 35.1543 191.029C35.5187 191.059 35.8388 191.122 36.135 191.272C36.6054 191.512 36.9878 191.895 37.2275 192.365C37.3784 192.661 37.4413 192.981 37.4711 193.346C37.5 193.7 37.5 194.137 37.5 194.679V200.321C37.5 200.863 37.5 201.3 37.4711 201.654C37.4413 202.019 37.3784 202.339 37.2275 202.635C36.9878 203.105 36.6054 203.488 36.135 203.728C35.8388 203.878 35.5187 203.941 35.1543 203.971C34.8004 204 34.3633 204 33.8214 204H22.1786C21.6367 204 21.1996 204 20.8457 203.971C20.4813 203.941 20.1612 203.878 19.865 203.728C19.3946 203.488 19.0122 203.105 18.7725 202.635C18.6216 202.339 18.5587 202.019 18.5289 201.654C18.5 201.3 18.5 200.863 18.5 200.321V191.679C18.5 191.137 18.5 190.7 18.5289 190.346C18.5587 189.981 18.6216 189.661 18.7725 189.365C19.0122 188.895 19.3946 188.512 19.865 188.272C20.1612 188.122 20.4813 188.059 20.8457 188.029C21.1996 188 21.6367 188 22.1786 188L24.823 188C24.8401 188 24.857 188 24.8737 188Z" fill="#5F5F6A"/>
</svg>
