<svg width="56" height="224" viewBox="0 0 56 224" fill="none" xmlns="http://www.w3.org/2000/svg">
<g opacity="0.8">
<path d="M23.5 23.25H32.5C32.7761 23.25 33 23.4739 33 23.75C33 24.0261 32.7761 24.25 32.5 24.25H23.5C23.2239 24.25 23 24.0261 23 23.75C23 23.4739 23.2239 23.25 23.5 23.25Z" fill="#5F5F6A"/>
<path d="M32.5 27.5H23.5C23.2239 27.5 23 27.7239 23 28C23 28.2761 23.2239 28.5 23.5 28.5H32.5C32.7761 28.5 33 28.2761 33 28C33 27.7239 32.7761 27.5 32.5 27.5Z" fill="#5F5F6A"/>
<path d="M25 32.25C25 31.9739 25.2239 31.75 25.5 31.75H30.5C30.7761 31.75 31 31.9739 31 32.25C31 32.5261 30.7761 32.75 30.5 32.75H25.5C25.2239 32.75 25 32.5261 25 32.25Z" fill="#5F5F6A"/>
<path fill-rule="evenodd" clip-rule="evenodd" d="M23 18.5H33C35.4853 18.5 37.5 20.5147 37.5 23V33C37.5 35.4853 35.4853 37.5 33 37.5H23C20.5147 37.5 18.5 35.4853 18.5 33V23C18.5 20.5147 20.5147 18.5 23 18.5ZM22 23.75C22 22.9216 22.6716 22.25 23.5 22.25H32.5C33.3284 22.25 34 22.9216 34 23.75C34 24.5784 33.3284 25.25 32.5 25.25H23.5C22.6716 25.25 22 24.5784 22 23.75ZM23.5 26.5C22.6716 26.5 22 27.1716 22 28C22 28.8284 22.6716 29.5 23.5 29.5H32.5C33.3284 29.5 34 28.8284 34 28C34 27.1716 33.3284 26.5 32.5 26.5H23.5ZM22 32.25C22 31.4216 22.6716 30.75 23.5 30.75H32.5C33.3284 30.75 34 31.4216 34 32.25C34 33.0784 33.3284 33.75 32.5 33.75H23.5C22.6716 33.75 22 33.0784 22 32.25Z" fill="#5F5F6A"/>
<g opacity="0.5">
<path fill-rule="evenodd" clip-rule="evenodd" d="M22 79.75C22 78.9216 22.6716 78.25 23.5 78.25H32.5C33.3284 78.25 34 78.9216 34 79.75C34 80.5784 33.3284 81.25 32.5 81.25H23.5C22.6716 81.25 22 80.5784 22 79.75ZM23.5 79.25H32.5C32.7761 79.25 33 79.4739 33 79.75C33 80.0261 32.7761 80.25 32.5 80.25H23.5C23.2239 80.25 23 80.0261 23 79.75C23 79.4739 23.2239 79.25 23.5 79.25Z" fill="#5F5F6A"/>
<path fill-rule="evenodd" clip-rule="evenodd" d="M22 84C22 83.1716 22.6716 82.5 23.5 82.5H32.5C33.3284 82.5 34 83.1716 34 84C34 84.8284 33.3284 85.5 32.5 85.5H23.5C22.6716 85.5 22 84.8284 22 84ZM23.5 83.5H32.5C32.7761 83.5 33 83.7239 33 84C33 84.2761 32.7761 84.5 32.5 84.5H23.5C23.2239 84.5 23 84.2761 23 84C23 83.7239 23.2239 83.5 23.5 83.5Z" fill="#5F5F6A"/>
</g>
<path fill-rule="evenodd" clip-rule="evenodd" d="M33 74.5H23C20.5147 74.5 18.5 76.5147 18.5 79V89C18.5 91.4853 20.5147 93.5 23 93.5H33C35.4853 93.5 37.5 91.4853 37.5 89V79C37.5 76.5147 35.4853 74.5 33 74.5ZM20 79C20 77.3431 21.3431 76 23 76H33C34.6569 76 36 77.3431 36 79V89C36 90.6569 34.6569 92 33 92H23C21.3431 92 20 90.6569 20 89V79Z" fill="#5F5F6A"/>
<path opacity="0.5" fill-rule="evenodd" clip-rule="evenodd" d="M22 88.25C22 87.4216 22.6716 86.75 23.5 86.75H32.5C33.3284 86.75 34 87.4216 34 88.25C34 89.0784 33.3284 89.75 32.5 89.75H23.5C22.6716 89.75 22 89.0784 22 88.25ZM25 88.25C25 87.9739 25.2239 87.75 25.5 87.75H30.5C30.7761 87.75 31 87.9739 31 88.25C31 88.5261 30.7761 88.75 30.5 88.75H25.5C25.2239 88.75 25 88.5261 25 88.25Z" fill="#5F5F6A"/>
<path fill-rule="evenodd" clip-rule="evenodd" d="M22 140C22 139.172 22.6716 138.5 23.5 138.5H32.5C33.3284 138.5 34 139.172 34 140C34 140.828 33.3284 141.5 32.5 141.5H23.5C22.6716 141.5 22 140.828 22 140ZM23.5 139.5H32.5C32.7761 139.5 33 139.724 33 140C33 140.276 32.7761 140.5 32.5 140.5H23.5C23.2239 140.5 23 140.276 23 140C23 139.724 23.2239 139.5 23.5 139.5Z" fill="#5F5F6A"/>
<path fill-rule="evenodd" clip-rule="evenodd" d="M23.5 134.25C22.6716 134.25 22 134.922 22 135.75C22 136.578 22.6716 137.25 23.5 137.25H32.5C33.3284 137.25 34 136.578 34 135.75C34 134.922 33.3284 134.25 32.5 134.25H23.5ZM32.5 135.25H23.5C23.2239 135.25 23 135.474 23 135.75C23 136.026 23.2239 136.25 23.5 136.25H32.5C32.7761 136.25 33 136.026 33 135.75C33 135.474 32.7761 135.25 32.5 135.25Z" fill="#5F5F6A"/>
<path fill-rule="evenodd" clip-rule="evenodd" d="M22 144.25C22 143.422 22.6716 142.75 23.5 142.75H32.5C33.3284 142.75 34 143.422 34 144.25C34 145.078 33.3284 145.75 32.5 145.75H23.5C22.6716 145.75 22 145.078 22 144.25ZM25 144.25C25 143.974 25.2239 143.75 25.5 143.75H30.5C30.7761 143.75 31 143.974 31 144.25C31 144.526 30.7761 144.75 30.5 144.75H25.5C25.2239 144.75 25 144.526 25 144.25Z" fill="#5F5F6A"/>
<path fill-rule="evenodd" clip-rule="evenodd" d="M33 130.5H23C20.5147 130.5 18.5 132.515 18.5 135V145C18.5 147.485 20.5147 149.5 23 149.5H33C35.4853 149.5 37.5 147.485 37.5 145V135C37.5 132.515 35.4853 130.5 33 130.5ZM20 135C20 133.343 21.3431 132 23 132H33C34.6569 132 36 133.343 36 135V145C36 146.657 34.6569 148 33 148H23C21.3431 148 20 146.657 20 145V135Z" fill="#5F5F6A"/>
<path fill-rule="evenodd" clip-rule="evenodd" d="M22 196C22 195.172 22.6716 194.5 23.5 194.5H32.5C33.3284 194.5 34 195.172 34 196C34 196.828 33.3284 197.5 32.5 197.5H23.5C22.6716 197.5 22 196.828 22 196ZM23.5 195.5H32.5C32.7761 195.5 33 195.724 33 196C33 196.276 32.7761 196.5 32.5 196.5H23.5C23.2239 196.5 23 196.276 23 196C23 195.724 23.2239 195.5 23.5 195.5Z" fill="#5F5F6A"/>
<path fill-rule="evenodd" clip-rule="evenodd" d="M23.5 190.25C22.6716 190.25 22 190.922 22 191.75C22 192.578 22.6716 193.25 23.5 193.25H32.5C33.3284 193.25 34 192.578 34 191.75C34 190.922 33.3284 190.25 32.5 190.25H23.5ZM32.5 191.25H23.5C23.2239 191.25 23 191.474 23 191.75C23 192.026 23.2239 192.25 23.5 192.25H32.5C32.7761 192.25 33 192.026 33 191.75C33 191.474 32.7761 191.25 32.5 191.25Z" fill="#5F5F6A"/>
<path fill-rule="evenodd" clip-rule="evenodd" d="M22 200.25C22 199.422 22.6716 198.75 23.5 198.75H32.5C33.3284 198.75 34 199.422 34 200.25C34 201.078 33.3284 201.75 32.5 201.75H23.5C22.6716 201.75 22 201.078 22 200.25ZM25 200.25C25 199.974 25.2239 199.75 25.5 199.75H30.5C30.7761 199.75 31 199.974 31 200.25C31 200.526 30.7761 200.75 30.5 200.75H25.5C25.2239 200.75 25 200.526 25 200.25Z" fill="#5F5F6A"/>
<path fill-rule="evenodd" clip-rule="evenodd" d="M33 187H23C20.7909 187 19 188.791 19 191V201C19 203.209 20.7909 205 23 205H33C35.2091 205 37 203.209 37 201V191C37 188.791 35.2091 187 33 187ZM20 191C20 189.343 21.3431 188 23 188H33C34.6569 188 36 189.343 36 191V201C36 202.657 34.6569 204 33 204H23C21.3431 204 20 202.657 20 201V191Z" fill="#5F5F6A"/>
</g>
</svg>
