<svg width="64" height="224" viewBox="0 0 64 224" fill="none" xmlns="http://www.w3.org/2000/svg">
<path d="M40.5451 26.8111C40.4487 27.0922 40.294 27.3574 40.0811 27.5868L33.5984 34.5675C32.7891 35.4388 31.445 35.4942 30.5689 34.7319L30.4009 34.5675L23.9181 27.5868C23.7054 27.3575 23.5518 27.0921 23.4554 26.8111H40.5451Z" fill="#5F5F6A"/>
<path d="M40.2273 24.7935L40.3381 24.9554C40.4567 25.1472 40.5413 25.353 40.595 25.5643H33.3427L37.7408 21.4778L40.2273 24.7935Z" fill="#5F5F6A"/>
<path d="M30.6566 25.5643H23.4043C23.4735 25.2922 23.595 25.0296 23.772 24.7935L26.2572 21.4778L30.6566 25.5643Z" fill="#5F5F6A"/>
<path d="M35.7402 20.2651C36.1447 20.2652 36.5344 20.3794 36.8714 20.5841L31.9996 25.1089L27.1254 20.5841C27.4629 20.3791 27.854 20.2652 28.259 20.2651H35.7402Z" fill="#5F5F6A"/>
<path d="M27.2624 77.699C27.4979 77.385 27.8675 77.2003 28.2599 77.2003H35.7411C36.1335 77.2003 36.5031 77.385 36.7386 77.699L39.4801 81.3544C39.8419 81.8368 39.8067 82.5091 39.3963 82.951L32.9142 89.9317C32.4209 90.463 31.5801 90.463 31.0868 89.9317L24.6047 82.951C24.1943 82.5091 24.159 81.8368 24.5209 81.3544L27.2624 77.699Z" fill="#5F5F6A"/>
<path fill-rule="evenodd" clip-rule="evenodd" d="M35.7403 76.2651C36.4269 76.2652 37.0744 76.5889 37.4864 77.1382L40.2273 80.7935L40.3381 80.9554C40.8502 81.7829 40.7539 82.8618 40.0812 83.5868L33.5985 90.5675C32.7892 91.4388 31.4451 91.4943 30.569 90.7318L30.401 90.5675L23.9183 83.5868C23.2009 82.8135 23.1394 81.6375 23.7722 80.7935L26.5131 77.1382L26.6787 76.9421C27.0878 76.5125 27.6586 76.2653 28.2592 76.2651H35.7403ZM26.3292 83.4345L31.7708 89.295L31.8207 89.3389C31.9452 89.4262 32.1206 89.4111 32.2287 89.295L37.6703 83.4345H26.3292ZM25.5317 81.5643H30.1307L27.5018 78.9354L25.5317 81.5643ZM33.8688 81.5643H38.4678L36.4965 78.9366L33.8688 81.5643ZM31.9997 80.7886L34.6542 78.1354H29.3465L31.9997 80.7886Z" fill="#5F5F6A"/>
<path fill-rule="evenodd" clip-rule="evenodd" d="M35.7403 132.265C36.427 132.265 37.0743 132.589 37.4864 133.138L40.2272 136.794L40.338 136.955C40.8502 137.783 40.7539 138.862 40.0811 139.587L33.5985 146.567C32.7891 147.439 31.445 147.494 30.569 146.732L30.401 146.567L23.9183 139.587C23.2009 138.814 23.1394 137.637 23.7722 136.794L26.5131 133.138L26.6787 132.942C27.0878 132.512 27.6585 132.265 28.2591 132.265H35.7403ZM31.7708 145.295L31.8207 145.339C31.9452 145.426 32.1206 145.411 32.2286 145.295L37.6702 139.435H26.3292L31.7708 145.295ZM25.5316 137.564H30.1306L27.5018 134.937L25.5316 137.564ZM33.87 137.564H38.4678L36.4964 134.937L33.87 137.564ZM31.9997 136.789L34.6541 134.135H29.3465L31.9997 136.789Z" fill="#5F5F6A"/>
<path fill-rule="evenodd" clip-rule="evenodd" d="M35.9022 188.265C36.5162 188.265 37.095 188.554 37.4636 189.045L40.3233 192.859L40.4224 193.005C40.8499 193.696 40.8033 194.582 40.3055 195.225L40.1925 195.358L33.4299 202.641C32.706 203.421 31.5035 203.47 30.72 202.788L30.5688 202.641L23.8063 195.358C23.1643 194.666 23.1093 193.614 23.6754 192.859L26.5352 189.045L26.6825 188.871C27.0485 188.486 27.5591 188.265 28.0966 188.265H35.9022ZM31.5229 201.757L31.6271 201.847C31.8868 202.029 32.2506 201.999 32.4758 201.757L38.3592 195.42H25.6395L31.5229 201.757ZM24.7159 193.64C24.6099 193.782 24.5712 193.954 24.5939 194.119H30.6997L27.0738 190.495L24.7159 193.64ZM33.3003 194.119H39.4061C39.4238 193.991 39.404 193.858 39.3438 193.738L39.2828 193.64L36.9236 190.495L33.3003 194.119ZM27.9962 189.577L31.9994 193.579L36.0013 189.577C35.9686 189.572 35.9357 189.566 35.9022 189.566H28.0966C28.0625 189.566 28.0293 189.572 27.9962 189.577Z" fill="#5F5F6A"/>
</svg>
