<svg width="56" height="224" viewBox="0 0 56 224" fill="none" xmlns="http://www.w3.org/2000/svg">
<path d="M26.999 30.0005V36.3501H23.1992C21.9566 36.3501 20.9492 35.3427 20.9492 34.1001V30.0005H26.999ZM35.1494 34.1001C35.1494 35.3426 34.1419 36.35 32.8994 36.3501H28.999V30.0005H35.1494V34.1001ZM29.3613 21.104C30.1509 19.9199 31.7317 19.5651 32.9521 20.2973C34.6027 21.2879 34.5787 23.3782 33.4521 24.5005H34.6992C35.2515 24.5005 35.6992 24.9482 35.6992 25.5005V28.0005C35.699 28.5525 35.2514 29.0005 34.6992 29.0005H21.1992C20.6471 29.0005 20.1995 28.5525 20.1992 28.0005V25.5005C20.1992 24.9482 20.6469 24.5005 21.1992 24.5005H22.5469C21.4204 23.3783 21.3956 21.2879 23.0459 20.2973C24.2663 19.5651 25.8471 19.92 26.6367 21.104L27.999 23.1479L29.3613 21.104ZM25.3887 21.936C25.0432 21.4183 24.3521 21.2633 23.8184 21.5835C22.804 22.1921 23.2351 23.7502 24.418 23.7505H26.5977L25.3887 21.936ZM32.1807 21.5835C31.6468 21.2632 30.9548 21.4181 30.6094 21.936L29.4004 23.7505H31.5801C32.763 23.7505 33.1947 22.1923 32.1807 21.5835Z" fill="#5F5F6A"/>
<path opacity="0.5" d="M34.749 90.5C34.749 91.7426 33.7417 92.75 32.499 92.75H23.499C22.2565 92.7499 21.249 91.7426 21.249 90.5V86H34.749V90.5ZM34.6992 80.5C35.2515 80.5 35.6992 80.9477 35.6992 81.5V84C35.6992 84.5523 35.2515 85 34.6992 85H21.1992C20.6469 85 20.1992 84.5523 20.1992 84V81.5C20.1992 80.9477 20.6469 80.5 21.1992 80.5H34.6992Z" fill="#5F5F6A"/>
<path fill-rule="evenodd" clip-rule="evenodd" d="M23.0472 76.297C24.2677 75.5647 25.8482 75.9201 26.6378 77.1044L28.0001 79.1479L29.3624 77.1044C30.1519 75.9201 31.7324 75.5647 32.9529 76.297C35.2719 77.6884 34.2854 81.25 31.581 81.25H29.0001V92.75H27.0001V81.25H24.4191C21.7147 81.25 20.7282 77.6884 23.0472 76.297ZM25.3897 77.9365C25.0443 77.4184 24.3529 77.2629 23.819 77.5833C22.8045 78.192 23.2361 79.75 24.4191 79.75H26.5987L25.3897 77.9365ZM30.6105 77.9365C30.9559 77.4184 31.6472 77.2629 32.1812 77.5833C33.1956 78.192 32.7641 79.75 31.581 79.75H29.4015L30.6105 77.9365Z" fill="#5F5F6A"/>
<path fill-rule="evenodd" clip-rule="evenodd" d="M26.6385 133.104C25.8489 131.92 24.2685 131.565 23.0479 132.297C21.619 133.154 21.4451 134.836 22.1548 136H21.8008C20.9724 136 20.3008 136.672 20.3008 137.5V139.5C20.3008 140.013 20.5582 140.466 20.9508 140.736V146.1C20.9508 147.343 21.9581 148.35 23.2008 148.35H32.9008C34.1434 148.35 35.1508 147.343 35.1508 146.1V140.736C35.5434 140.466 35.8008 140.013 35.8008 139.5V137.5C35.8008 136.672 35.1292 136 34.3008 136H33.8467C34.5564 134.836 34.3825 133.154 32.9536 132.297C31.7331 131.565 30.1526 131.92 29.3631 133.104L28.0008 135.148L26.6385 133.104ZM27.0008 137.5H21.8008V139.5H27.0008V137.5ZM29.0008 139.5V137.5H34.3008V139.5H29.0008ZM27.0008 141H22.4508V146.1C22.4508 146.514 22.7866 146.85 23.2008 146.85H27.0008V141ZM29.0008 146.85V141H33.6508V146.1C33.6508 146.514 33.315 146.85 32.9008 146.85H29.0008ZM23.8197 133.583C24.3536 133.263 25.045 133.418 25.3904 133.936L26.5994 135.75H24.4198C23.2368 135.75 22.8052 134.192 23.8197 133.583ZM32.1819 133.583C31.648 133.263 30.9566 133.418 30.6112 133.936L29.4022 135.75H31.5817C32.7648 135.75 33.1963 134.192 32.1819 133.583Z" fill="#5F5F6A"/>
<path fill-rule="evenodd" clip-rule="evenodd" d="M23.1766 188.511C24.2826 187.848 25.715 188.17 26.4305 189.243L28.0008 191.599L29.5711 189.243C30.2866 188.17 31.7189 187.848 32.825 188.511C34.1753 189.322 34.2889 190.944 33.5475 192H34.3008C35.1292 192 35.8008 192.672 35.8008 193.5V195.5C35.8008 196.115 35.4306 196.644 34.9008 196.875V202.1C34.9008 203.205 34.0054 204.1 32.9008 204.1H23.2008C22.0962 204.1 21.2008 203.205 21.2008 202.1V196.875C20.671 196.644 20.3008 196.115 20.3008 195.5V193.5C20.3008 192.672 20.9724 192 21.8008 192H22.4541C21.7126 190.944 21.8262 189.322 23.1766 188.511ZM28.5008 193H31.5817C31.5844 193 31.5872 193 31.5899 193H34.3008C34.5769 193 34.8008 193.224 34.8008 193.5V195.5C34.8008 195.591 34.7764 195.676 34.7339 195.75H28.5008V193ZM31.5879 192C33.0198 191.995 33.5406 190.107 32.3105 189.369C31.6621 188.98 30.8226 189.169 30.4032 189.798L28.935 192H31.5879ZM24.4198 193L24.4117 193H21.8008C21.5246 193 21.3008 193.224 21.3008 193.5V195.5C21.3008 195.591 21.3251 195.676 21.3677 195.75H27.5008V193H24.4198ZM25.5984 189.798L27.0665 192H24.4137C22.9817 191.995 22.461 190.107 23.6911 189.369C24.3394 188.98 25.179 189.169 25.5984 189.798ZM27.5008 197H22.2008V202.1C22.2008 202.652 22.6485 203.1 23.2008 203.1H27.5008V197ZM28.5008 203.1V197H33.9008V202.1C33.9008 202.652 33.4531 203.1 32.9008 203.1H28.5008Z" fill="#5F5F6A"/>
</svg>
