<svg width="56" height="224" viewBox="0 0 56 224" fill="none" xmlns="http://www.w3.org/2000/svg">
<path d="M27.2962 21.25H28.8638L28.0942 22.5496L27.2962 21.25ZM31.1915 22.2257L35.0523 29.4517H32.3328L29.5734 24.9582L31.1915 22.2257ZM35.5817 31.9517C35.5675 31.9821 35.5524 32.0122 35.5365 32.042L34.786 33.4466L33.868 31.9517H35.5817ZM35.5249 36.7044C35.8881 36.4502 36.1959 36.113 36.4141 35.7046L37.7415 33.2201C38.4195 31.9512 38.4195 30.4488 37.7415 29.1799L33.2308 20.7376C32.5648 19.4911 31.2363 18.75 29.8345 18.75H26.1655C24.7637 18.75 23.4352 19.4911 22.7692 20.7376L18.2585 29.1799C17.5805 30.4488 17.5805 31.9512 18.2585 33.2201L19.5859 35.7046C20.1071 36.6801 21.1397 37.25 22.2177 37.25H33.7823C34.2916 37.25 34.7907 37.1228 35.2306 36.8857C35.2822 36.863 35.3329 36.8365 35.3823 36.8062C35.4328 36.7751 35.4804 36.7411 35.5249 36.7044ZM32.6527 34.75H23.7751L25.4321 31.9517H30.9343L32.6527 34.75ZM21.4167 33.8261L20.4635 32.042C20.4476 32.0122 20.4325 31.9821 20.4183 31.9517H22.5267L21.4167 33.8261ZM20.9477 29.4517L24.8798 22.0924L26.654 24.9817L24.0071 29.4517H20.9477ZM28.1332 27.3903L29.399 29.4517H26.9125L28.1332 27.3903Z" fill="#5F5F6A"/>
<path d="M24.876 77.6087L26.946 80.9794L24.1496 85.7017H20.5307L24.7537 77.7979C24.7889 77.732 24.8299 77.6687 24.876 77.6087ZM26.8493 77H29.3024L28.0981 79.0337L26.8493 77ZM31.2008 77.7193C31.2169 77.745 31.2321 77.7713 31.2463 77.7979L35.4693 85.7017H32.1929L29.2814 80.9606L31.2008 77.7193ZM35.9361 87.7017C35.8956 87.8584 35.8359 88.0121 35.757 88.1598L34.8011 89.9489L33.4211 87.7017H35.9361ZM35.3732 92.5054C35.7091 92.2721 35.9931 91.9619 36.1936 91.5868L37.521 89.1023C38.1597 87.907 38.1597 86.493 37.521 85.2977L33.0103 76.8554C32.3907 75.6956 31.1502 75 29.8345 75H26.1655C24.8498 75 23.6093 75.6956 22.9897 76.8554L18.479 85.2977C17.8403 86.493 17.8403 87.907 18.479 89.1023L19.8064 91.5868C20.2813 92.4756 21.2257 93 22.2177 93H33.7823C34.2547 93 34.7162 92.8811 35.1214 92.6605C35.1657 92.6415 35.2092 92.6191 35.2514 92.5931C35.2948 92.5665 35.3354 92.5371 35.3732 92.5054ZM33.0996 91H23.3365L25.2896 87.7017H31.0741L33.0996 91ZM21.4055 90.3356L20.243 88.1598C20.1641 88.0121 20.1044 87.8584 20.0639 87.7017H22.9653L21.4055 90.3356ZM26.4739 85.7017L28.1293 82.9063L29.8459 85.7017H26.4739Z" fill="#5F5F6A"/>
<path d="M24.9194 133.202L27.2379 136.977L24.2921 141.952H20.1137L24.5332 133.68C24.6297 133.499 24.7612 133.338 24.9194 133.202ZM26.4024 132.75H29.741L28.102 135.518L26.4024 132.75ZM31.1688 133.283C31.288 133.401 31.3889 133.534 31.4668 133.68L35.8863 141.952H32.0531L28.9895 136.963L31.1688 133.283ZM36.2359 143.452C36.2039 143.735 36.1178 144.015 35.9775 144.278L34.8162 146.451L32.9742 143.452H36.2359ZM35.2205 148.307C35.5296 148.094 35.7903 147.811 35.9731 147.469L37.3005 144.985C37.8998 143.863 37.8998 142.537 37.3005 141.415L32.7898 132.973C32.2165 131.9 31.0641 131.25 29.8345 131.25H26.1655C24.9359 131.25 23.7835 131.9 23.2102 132.973L18.6995 141.415C18.1002 142.537 18.1002 143.863 18.6995 144.985L20.0269 147.469C20.4555 148.271 21.3118 148.75 22.2177 148.75H33.7823C34.2181 148.75 34.6423 148.639 35.0131 148.435C35.0497 148.42 35.0857 148.402 35.1206 148.38C35.1565 148.358 35.1898 148.334 35.2205 148.307ZM33.5465 147.25H22.8979L25.1471 143.452H31.214L33.5465 147.25ZM21.3974 146.84C21.3801 146.815 21.3642 146.789 21.3499 146.762L20.0225 144.278C19.8822 144.015 19.7961 143.735 19.7641 143.452H23.4038L21.3974 146.84ZM26.0353 141.952L28.1254 138.422L30.2928 141.952H26.0353Z" fill="#5F5F6A"/>
<path d="M24.9899 188.839L27.5298 192.975L24.4346 198.202H19.7071C19.7357 198.135 19.7674 198.069 19.802 198.005L24.3127 189.562C24.4695 189.269 24.7044 189.021 24.9899 188.839ZM25.9612 188.509C26.0285 188.503 26.0967 188.5 26.1655 188.5H29.8345C29.9467 188.5 30.0571 188.508 30.1651 188.524L28.1059 192.002L25.9612 188.509ZM31.1037 188.902C31.347 189.077 31.548 189.301 31.6873 189.562L36.198 198.005C36.2326 198.069 36.2643 198.135 36.2929 198.202H31.9132L28.6976 192.965L31.1037 188.902ZM36.5 199.202C36.4997 199.61 36.3991 200.019 36.198 200.395L34.8706 202.88C34.8577 202.904 34.844 202.927 34.8294 202.95L32.5273 199.202H36.5ZM35.0663 204.109C35.3493 203.918 35.5871 203.661 35.7526 203.351L37.08 200.867C37.64 199.819 37.64 198.581 37.08 197.533L32.5693 189.091C32.0423 188.105 30.978 187.5 29.8345 187.5H26.1655C25.022 187.5 23.9577 188.105 23.4307 189.091L18.92 197.533C18.36 198.581 18.36 199.819 18.92 200.867L20.2474 203.351C20.6297 204.067 21.3979 204.5 22.2177 204.5H33.7823C34.182 204.5 34.5695 204.397 34.906 204.208C34.9346 204.197 34.9627 204.184 34.9898 204.167C35.0176 204.15 35.0431 204.131 35.0663 204.109ZM33.984 203.485C33.9183 203.495 33.8509 203.5 33.7823 203.5H22.4593L25.0046 199.202H31.3538L33.984 203.485ZM21.4468 203.247C21.3145 203.147 21.2056 203.022 21.1294 202.88L19.802 200.395C19.6009 200.019 19.5003 199.61 19.5 199.202H23.8424L21.4468 203.247ZM25.5968 198.202L28.1215 193.938L30.7397 198.202H25.5968Z" fill="#5F5F6A"/>
</svg>
