<svg width="56" height="224" viewBox="0 0 56 224" fill="none" xmlns="http://www.w3.org/2000/svg">
<path d="M26.5131 22.4906C27.4756 22.1537 28.5239 22.1537 29.4863 22.4906L37.0862 25.1505C37.8898 25.4318 37.8898 26.5682 37.0862 26.8495L29.4863 29.5094C28.5239 29.8463 27.4756 29.8463 26.5131 29.5094L21.0045 27.5814C20.7802 27.7489 20.6584 27.9497 20.5889 28.1232C20.5816 28.1416 20.5748 28.1597 20.5686 28.1775C20.8291 28.358 20.9997 28.6591 20.9997 29C20.9997 29.3353 20.8347 29.6321 20.5814 29.8135L20.5854 29.8308L21.4608 33.7698C21.544 34.1445 21.2589 34.5 20.875 34.5H19.1244C18.7405 34.5 18.4554 34.1445 18.5387 33.7698L19.414 29.8308L19.4181 29.8135C19.1648 29.6321 18.9997 29.3353 18.9997 29C18.9997 28.6093 19.2237 28.271 19.5503 28.1064C19.5739 28.0017 19.6088 27.8809 19.6605 27.7518C19.7285 27.5816 19.8259 27.3972 19.9634 27.217L18.9132 26.8495C18.1097 26.5682 18.1097 25.4318 18.9132 25.1505L26.5131 22.4906Z" fill="#5F5F6A"/>
<path d="M22.3922 28.8292L22.0604 31.4836C22.0038 31.9362 22.1872 32.4032 22.58 32.6799C23.7372 33.4951 25.6236 34.5 27.9997 34.5C30.3941 34.5 32.2756 33.5878 33.4736 32.6664C33.8383 32.3859 33.9959 31.9386 33.9429 31.5141L33.6072 28.8292L29.4863 30.2715C28.5239 30.6084 27.4756 30.6084 26.5131 30.2715L22.3922 28.8292Z" fill="#5F5F6A"/>
<path d="M28.4922 81.4178C28.5376 81.6902 28.3536 81.9478 28.0812 81.9932L28.0145 82.0044L27.8233 82.0368C27.658 82.065 27.4206 82.1059 27.1324 82.1565C26.5559 82.2578 25.7775 82.3979 24.9684 82.5535C24.1585 82.7093 23.3221 82.8797 22.6283 83.0416C21.9094 83.2093 21.4095 83.3538 21.2226 83.4472C20.8536 83.6317 20.6775 83.9 20.5883 84.1232C20.5809 84.1416 20.5741 84.1597 20.5679 84.1775C20.8284 84.358 20.999 84.6591 20.999 85C20.999 85.3353 20.834 85.6321 20.5807 85.8135C20.5821 85.8192 20.5834 85.825 20.5847 85.8308L21.4601 89.7698C21.5433 90.1445 21.2582 90.5 20.8744 90.5H19.1237C18.7398 90.5 18.4547 90.1445 18.538 89.7698L19.4133 85.8308C19.4146 85.825 19.416 85.8192 19.4174 85.8135C19.1641 85.6321 18.999 85.3353 18.999 85C18.999 84.6093 19.223 84.271 19.5496 84.1064C19.5732 84.0017 19.6081 83.8809 19.6598 83.7518C19.8205 83.35 20.1445 82.8683 20.7754 82.5528C21.0885 82.3962 21.7137 82.2282 22.401 82.0678C23.1135 81.9015 23.9645 81.7282 24.7796 81.5715C25.5956 81.4146 26.3796 81.2735 26.9594 81.1716C27.2494 81.1207 27.4885 81.0795 27.6552 81.0511L27.8483 81.0183L27.9167 81.0068C28.1891 80.9614 28.4468 81.1454 28.4922 81.4178Z" fill="#5F5F6A"/>
<g opacity="0.5">
<path d="M26.5131 78.4906C27.4756 78.1537 28.5239 78.1537 29.4863 78.4906L37.0862 81.1505C37.8898 81.4318 37.8898 82.5682 37.0862 82.8495L29.4863 85.5094C28.5239 85.8463 27.4756 85.8463 26.5131 85.5094L21.0045 83.5814L19.9634 83.217L18.9132 82.8495C18.1097 82.5682 18.1097 81.4318 18.9132 81.1505L26.5131 78.4906Z" fill="#5F5F6A"/>
<path d="M22.3922 84.8292L22.0604 87.4836C22.0038 87.9362 22.1872 88.4032 22.58 88.6799C23.7372 89.4951 25.6236 90.5 27.9997 90.5C30.3941 90.5 32.2756 89.5878 33.4736 88.6664C33.8383 88.3859 33.9959 87.9386 33.9429 87.5141L33.6072 84.8292L29.4863 86.2715C28.5239 86.6084 27.4756 86.6084 26.5131 86.2715L22.3922 84.8292Z" fill="#5F5F6A"/>
</g>
<path fill-rule="evenodd" clip-rule="evenodd" d="M26.9261 135.67C27.6212 135.427 28.3783 135.427 29.0734 135.67L35.7294 138L29.0733 140.33C28.3783 140.573 27.6212 140.573 26.9261 140.33L23.4536 139.114C23.9539 139.007 24.4902 138.9 25.0163 138.799C25.8236 138.644 26.6007 138.504 27.1764 138.403C27.464 138.352 27.7011 138.311 27.8661 138.283L28.0567 138.251L28.123 138.24C28.5316 138.172 28.8076 137.785 28.7395 137.377C28.6714 136.968 28.285 136.692 27.8764 136.76L27.8075 136.772L27.6138 136.805C27.4468 136.833 27.2073 136.874 26.9168 136.925C26.3362 137.027 25.5508 137.169 24.7331 137.326C23.9167 137.483 23.062 137.657 22.3449 137.824C21.8034 137.951 21.2765 138.087 20.9104 138.224L20.27 138L26.9261 135.67ZM19.5784 139.347L18.8306 139.085C17.8038 138.726 17.8038 137.274 18.8306 136.915L26.4305 134.255C27.4464 133.899 28.553 133.899 29.5689 134.255L37.1688 136.915C38.1956 137.274 38.1956 138.726 37.1688 139.085L33.7891 140.268L34.1909 143.483C34.254 143.987 34.0672 144.525 33.626 144.865C32.3929 145.813 30.4591 146.75 27.9997 146.75C25.5525 146.75 23.6159 145.715 22.436 144.884C21.9628 144.551 21.745 143.991 21.8123 143.453L22.2103 140.268L21.0564 139.864C20.9362 139.98 20.8655 140.105 20.8211 140.216C20.7993 140.27 20.784 140.322 20.7732 140.366C20.9148 140.539 20.9997 140.759 20.9997 141C20.9997 141.335 20.8347 141.632 20.5814 141.814C20.5828 141.819 20.5841 141.825 20.5854 141.831L21.4608 145.77C21.544 146.145 21.2589 146.5 20.875 146.5H19.1244C18.7405 146.5 18.4554 146.145 18.5387 145.77L19.414 141.831C19.4153 141.825 19.4166 141.819 19.4181 141.814C19.1648 141.632 18.9997 141.335 18.9997 141C18.9997 140.741 19.0984 140.504 19.2603 140.327C19.2637 140.295 19.2682 140.26 19.2741 140.222C19.2965 140.076 19.3406 139.878 19.4284 139.659C19.4685 139.558 19.518 139.453 19.5784 139.347ZM23.6586 140.775L23.3007 143.639C23.2994 143.649 23.3013 143.657 23.3026 143.66C24.3465 144.395 25.9809 145.25 27.9997 145.25C30.0628 145.25 31.6796 144.466 32.7026 143.682C32.7028 143.68 32.703 143.678 32.7029 143.675L32.7025 143.669L32.3408 140.775L29.5689 141.745C28.553 142.101 27.4464 142.101 26.4305 141.745L23.6586 140.775Z" fill="#5F5F6A"/>
<path fill-rule="evenodd" clip-rule="evenodd" d="M21.0045 195.581L22.4834 196.099L22.0604 199.484C22.0038 199.936 22.1872 200.403 22.58 200.68C23.7372 201.495 25.6236 202.5 27.9997 202.5C30.3941 202.5 32.2756 201.588 33.4736 200.666C33.8383 200.386 33.9959 199.939 33.9429 199.514L33.516 196.099L37.0862 194.849C37.8898 194.568 37.8898 193.432 37.0862 193.151L29.4863 190.491C28.5239 190.154 27.4756 190.154 26.5131 190.491L18.9132 193.151C18.1097 193.432 18.1097 194.568 18.9132 194.849L19.9634 195.217C19.8259 195.397 19.7285 195.582 19.6605 195.752C19.6148 195.866 19.5761 195.986 19.5482 196.108C19.2227 196.272 18.9997 196.61 18.9997 197C18.9997 197.335 19.1648 197.632 19.4181 197.814C19.4166 197.819 19.4153 197.825 19.414 197.831L18.5387 201.77C18.4554 202.145 18.7405 202.5 19.1244 202.5H20.875C21.2589 202.5 21.544 202.145 21.4608 201.77L20.5854 197.831C20.5841 197.825 20.5828 197.819 20.5814 197.814C20.8347 197.632 20.9997 197.335 20.9997 197C20.9997 196.659 20.8291 196.358 20.5686 196.177C20.5748 196.16 20.5816 196.142 20.5889 196.123C20.6584 195.95 20.7802 195.749 21.0045 195.581ZM29.1559 191.434C28.4074 191.172 27.592 191.172 26.8435 191.434L19.7829 193.906C19.6936 193.937 19.6936 194.063 19.7829 194.094L20.915 194.491C21.2544 194.352 21.8046 194.207 22.4017 194.068C23.1141 193.902 23.9652 193.728 24.7803 193.571C25.5962 193.415 26.3803 193.273 26.9601 193.172C27.279 193.116 27.5981 193.061 27.9174 193.007C28.1898 192.961 28.4475 193.145 28.4929 193.418C28.5383 193.69 28.3543 193.948 28.0819 193.993C27.7654 194.046 27.4492 194.101 27.1331 194.157C26.5566 194.258 25.7782 194.398 24.9691 194.554C24.1592 194.709 23.3228 194.88 22.6289 195.042L22.5454 195.061L26.8435 196.566C27.592 196.828 28.4074 196.828 29.1559 196.566L36.2165 194.094C36.3058 194.063 36.3058 193.937 36.2165 193.906L29.1559 191.434ZM29.4863 197.509L32.5504 196.437L32.9506 199.638C32.9637 199.743 32.9225 199.829 32.864 199.874C31.8065 200.687 30.1339 201.5 27.9997 201.5C25.908 201.5 24.2224 200.614 23.1559 199.862C23.0849 199.812 23.0388 199.718 23.0526 199.608L23.449 196.437L26.5131 197.509C27.4756 197.846 28.5239 197.846 29.4863 197.509ZM19.623 201.5L19.9997 199.805L20.3764 201.5H19.623Z" fill="#5F5F6A"/>
</svg>
