<svg width="56" height="224" viewBox="0 0 56 224" fill="none" xmlns="http://www.w3.org/2000/svg">
<path d="M26.9647 21.6914C25.7446 21.2847 24.7342 21.7129 24.002 22.262C23.5798 22.5787 23.2272 22.9641 22.8744 23.3499C22.6927 23.5485 22.5109 23.7473 22.3194 23.9368L22.3194 31.8176L22.8398 32.0559L23.912 33.3961C24.7323 34.4215 26.2005 34.6494 27.2931 33.921C27.3867 33.8586 27.5065 33.8511 27.6071 33.9014C28.7982 34.497 30.4208 34.8813 30.9898 33.2111C31.6899 33.3861 32.4129 33.3429 33.015 32.9036C33.4153 32.6115 33.6711 32.1897 33.748 31.7252V31.4213L29.9076 27.0322L28.2433 28.6965C27.5017 29.4381 26.2065 29.9819 25.079 29.2949C24.7109 29.0706 24.421 28.7982 24.1948 28.4605C24.147 28.3891 24.105 28.3167 24.0684 28.2434C23.8124 27.7306 23.8216 27.1779 23.9705 26.6929C24.1376 26.1482 24.4866 25.6556 24.8978 25.29L27.0659 23.3628C27.4159 23.0517 27.8031 22.8051 28.2121 22.6232C27.8867 22.2181 27.4759 21.8618 26.9647 21.6914Z" fill="#5F5F6A"/>
<path d="M35.0179 24.8323V31.1827V33.0875H36.2877C37.1643 33.0875 37.875 32.3768 37.875 31.5002V25.1509C37.875 24.2743 37.1643 23.5636 36.2877 23.5636H35.0179V24.8323Z" fill="#5F5F6A"/>
<path d="M33.748 29.4929V25.4684C33.5995 25.4684 33.4557 25.4164 33.3416 25.3213L32.051 24.2458C30.8443 23.2402 29.0836 23.2683 27.9096 24.3119L25.7414 26.2391C25.4748 26.4761 25.2726 26.778 25.1844 27.0655C25.0991 27.3435 25.1272 27.5707 25.2498 27.7537C25.3661 27.9273 25.517 28.0748 25.7397 28.2105C26.1537 28.4628 26.8107 28.3333 27.3454 27.7985L29.4895 25.6544C29.6138 25.5301 29.784 25.4629 29.9596 25.4688C30.1353 25.4746 30.3006 25.553 30.4163 25.6853L33.748 29.4929Z" fill="#5F5F6A"/>
<path d="M21.0496 33.0557L21.0496 23.5954C20.947 23.5746 20.8409 23.5636 20.7321 23.5636H19.4623C18.5857 23.5636 17.875 24.2743 17.875 25.1509V31.5002C17.875 32.3768 18.5857 33.0875 19.4623 33.0875H20.7321C20.8409 33.0875 20.947 33.0765 21.0496 33.0557Z" fill="#5F5F6A"/>
<path d="M26.9636 77.6914C25.7435 77.2847 24.7331 77.7128 24.0009 78.262C23.5787 78.5786 23.2262 78.9641 22.8733 79.3499C22.6916 79.5485 22.5098 79.7473 22.3184 79.9368L22.3184 87.8176L22.8388 88.0559L23.9109 89.396C24.7312 90.4214 26.1994 90.6494 27.292 89.921C27.3856 89.8586 27.5054 89.8511 27.606 89.9014C28.7971 90.4969 30.4198 90.8812 30.9887 89.211C31.6888 89.3861 32.4119 89.3429 33.0139 88.9036C33.4142 88.6115 33.67 88.1897 33.7469 87.7252V87.4213L29.9065 83.0322L28.2422 84.6964C27.5006 85.4381 26.2054 85.9819 25.0779 85.2949C24.7098 85.0706 24.42 84.7981 24.1937 84.4604C24.1459 84.3891 24.1039 84.3167 24.0674 84.2434C23.8113 83.7306 23.8205 83.1779 23.9694 82.6929C24.1365 82.1482 24.4855 81.6555 24.8967 81.29L27.0649 79.3628C27.4148 79.0517 27.802 78.8051 28.211 78.6232C27.8856 78.2181 27.4748 77.8618 26.9636 77.6914Z" fill="#5F5F6A"/>
<path d="M33.7469 85.4929V81.4684C33.5984 81.4684 33.4546 81.4163 33.3405 81.3212L32.0499 80.2458C30.8432 79.2402 29.0825 79.2683 27.9085 80.3119L25.7404 82.2391C25.4737 82.4761 25.2716 82.778 25.1833 83.0655C25.098 83.3434 25.1261 83.5707 25.2487 83.7536C25.365 83.9273 25.5159 84.0748 25.7387 84.2105C26.1526 84.4627 26.8096 84.3332 27.3443 83.7985L29.4885 81.6544C29.6127 81.5301 29.7829 81.4629 29.9585 81.4688C30.1342 81.4746 30.2995 81.553 30.4152 81.6852L33.7469 85.4929Z" fill="#5F5F6A"/>
<g opacity="0.5">
<path d="M35.0179 80.8322V87.1827V89.0874H36.2877C37.1643 89.0874 37.875 88.3768 37.875 87.5001V81.1509C37.875 80.2743 37.1643 79.5636 36.2877 79.5636H35.0179V80.8322Z" fill="#5F5F6A"/>
<path d="M21.0496 89.0557L21.0496 79.5954C20.947 79.5745 20.8409 79.5636 20.7321 79.5636H19.4623C18.5857 79.5636 17.875 80.2743 17.875 81.1509V87.5001C17.875 88.3768 18.5857 89.0874 19.4623 89.0874H20.7321C20.8409 89.0874 20.947 89.0765 21.0496 89.0557Z" fill="#5F5F6A"/>
</g>
<path fill-rule="evenodd" clip-rule="evenodd" d="M23.4951 136.757C23.5931 136.659 23.7208 136.516 23.8495 136.371C23.9305 136.28 24.0119 136.189 24.0865 136.108C24.3057 135.87 24.5448 135.633 24.808 135.436C25.3268 135.047 25.8835 134.847 26.5441 135.067C26.8651 135.174 27.2121 135.001 27.3191 134.68C27.4261 134.359 27.2526 134.012 26.9316 133.905C25.7543 133.513 24.7793 133.926 24.0728 134.456C23.7233 134.718 23.4263 135.017 23.1861 135.277C23.0666 135.406 22.9716 135.514 22.89 135.606C22.7898 135.719 22.7096 135.81 22.6287 135.891C22.4506 136.069 22.2671 136.187 22.0934 136.262C21.8124 135.926 21.3898 135.712 20.9171 135.712H19.6918C18.8459 135.712 18.1602 136.397 18.1602 137.243V143.37C18.1602 144.216 18.8459 144.901 19.6918 144.901H20.9171C21.6581 144.901 22.2762 144.375 22.4181 143.676H22.4725C22.6586 143.676 22.8347 143.761 22.9509 143.906L23.9855 145.199C24.777 146.189 26.1937 146.409 27.248 145.706C27.3383 145.646 27.454 145.638 27.551 145.687L28.2903 146.057C29.2727 146.548 30.4616 146.059 30.8151 145.021L30.9773 145.061C31.6144 145.221 32.2795 145.081 32.7693 144.724C33.2719 144.357 33.606 143.74 33.477 143.009C33.4732 142.987 33.4691 142.965 33.4648 142.943C33.3378 142.309 32.9918 141.739 32.5932 141.258C32.1913 140.774 31.7068 140.345 31.2508 139.994C30.7928 139.641 30.3502 139.355 30.0228 139.157C29.9418 139.108 29.8675 139.065 29.8015 139.027L30.2328 138.595C30.472 138.356 30.472 137.968 30.2328 137.729C29.9935 137.49 29.6056 137.49 29.3663 137.729L27.2974 139.798C26.7814 140.314 26.1475 140.439 25.748 140.195C25.5331 140.065 25.3875 139.922 25.2752 139.755C25.1569 139.578 25.1299 139.359 25.2122 139.091C25.2973 138.813 25.4924 138.522 25.7497 138.293L27.8418 136.434C28.9746 135.427 30.6736 135.399 31.838 136.37L33.0833 137.408C33.1934 137.499 33.3322 137.55 33.4755 137.55H33.8715V143.37C33.8715 144.216 34.5573 144.901 35.4032 144.901H36.6285C37.4744 144.901 38.1602 144.216 38.1602 143.37V137.243C38.1602 136.397 37.4744 135.712 36.6285 135.712H35.4032C34.9021 135.712 34.4572 135.952 34.1778 136.324H33.6973L32.6224 135.428C30.9923 134.07 28.6137 134.108 27.0277 135.518L24.9356 137.377C24.5388 137.73 24.2021 138.205 24.0408 138.731C23.8766 139.266 23.8884 139.886 24.2572 140.437C24.4756 140.763 24.7553 141.025 25.1104 141.242C26.1984 141.905 27.4482 141.38 28.1638 140.664L28.9218 139.906C28.9084 139.933 28.9085 139.933 28.9084 139.933L28.9136 139.935L28.9371 139.948C28.9585 139.959 28.9911 139.977 29.0333 140C29.1178 140.047 29.2406 140.116 29.39 140.207C29.6897 140.387 30.0914 140.647 30.5026 140.964C30.9158 141.283 31.3254 141.649 31.6501 142.04C31.9781 142.436 32.1911 142.823 32.2632 143.184C32.2656 143.196 32.268 143.208 32.2703 143.221C32.3066 143.427 32.2286 143.602 32.047 143.734C31.8525 143.876 31.5612 143.944 31.2745 143.873L31.1005 143.829C30.486 143.675 29.8569 144.021 29.6566 144.622C29.5438 144.96 29.1574 145.12 28.8383 144.961L28.099 144.591C27.6087 144.346 27.0245 144.382 26.5684 144.686C26.0429 145.037 25.3368 144.927 24.9423 144.434L23.9077 143.141C23.5589 142.705 23.0309 142.451 22.4725 142.451H22.4488V137.439C22.8116 137.304 23.1717 137.081 23.4951 136.757Z" fill="#5F5F6A"/>
<path fill-rule="evenodd" clip-rule="evenodd" d="M23.3477 192.655C23.4488 192.554 23.5805 192.406 23.7133 192.257C23.7969 192.163 23.8808 192.068 23.9577 191.985C24.1839 191.74 24.4306 191.495 24.7021 191.292C25.2372 190.89 25.8115 190.684 26.4931 190.912C26.8242 191.022 27.1821 190.843 27.2925 190.512C27.4029 190.181 27.2239 189.823 26.8928 189.712C25.6783 189.308 24.6725 189.734 23.9436 190.28C23.5831 190.551 23.2767 190.859 23.0289 191.128C22.9056 191.261 22.8077 191.372 22.7235 191.467C22.6201 191.584 22.5373 191.678 22.4539 191.761C22.1479 192.067 21.8263 192.202 21.5618 192.243C21.3349 192.025 21.0271 191.892 20.6882 191.892H19.4242C18.7261 191.892 18.1602 192.458 18.1602 193.156V199.476C18.1602 200.174 18.7261 200.74 19.4242 200.74H20.6882C21.2772 200.74 21.7721 200.338 21.9125 199.792H22.2928C22.4848 199.792 22.6664 199.88 22.7863 200.03L23.8535 201.364C24.6701 202.384 26.1316 202.611 27.2192 201.886C27.3124 201.824 27.4317 201.817 27.5318 201.867L28.2944 202.248C29.3079 202.755 30.5343 202.25 30.899 201.179L31.0663 201.221C31.7235 201.386 32.4097 201.242 32.915 200.873C33.4335 200.495 33.778 199.858 33.645 199.104C33.6411 199.081 33.6369 199.059 33.6324 199.036C33.5015 198.382 33.1445 197.794 32.7333 197.298C32.3187 196.798 31.8189 196.356 31.3485 195.994C30.876 195.629 30.4194 195.334 30.0817 195.131C29.9981 195.08 29.9215 195.035 29.8533 194.996L30.2983 194.551C30.5451 194.304 30.5451 193.904 30.2983 193.657C30.0515 193.41 29.6513 193.41 29.4045 193.657L27.2701 195.792C26.7378 196.324 26.0839 196.453 25.6718 196.202C25.4501 196.067 25.2998 195.92 25.1841 195.747C25.062 195.565 25.0341 195.339 25.119 195.062C25.2068 194.776 25.408 194.475 25.6735 194.239L27.8317 192.321C29.0004 191.282 30.753 191.254 31.9542 192.255L33.2389 193.326C33.3525 193.42 33.4956 193.472 33.6435 193.472H34.368V199.476C34.368 200.174 34.934 200.74 35.6321 200.74H36.8961C37.5942 200.74 38.1602 200.174 38.1602 199.476V193.156C38.1602 192.458 37.5942 191.892 36.8961 191.892H35.6321C35.3115 191.892 35.0188 192.011 34.796 192.208H33.8723L32.7634 191.284C31.0818 189.883 28.6281 189.922 26.9919 191.376L24.8337 193.295C24.4243 193.658 24.077 194.149 23.9106 194.691C23.7413 195.243 23.7534 195.883 24.1339 196.451C24.3591 196.787 24.6477 197.058 25.0141 197.281C26.1364 197.965 27.4257 197.424 28.1639 196.685L28.9458 195.904C28.932 195.931 28.9321 195.931 28.9321 195.931L28.9374 195.933L28.9617 195.946C28.9837 195.958 29.0173 195.976 29.0609 196C29.148 196.048 29.2748 196.12 29.4289 196.213C29.738 196.4 30.1524 196.668 30.5767 196.995C31.0029 197.323 31.4255 197.701 31.7604 198.105C32.0988 198.513 32.3185 198.912 32.3929 199.284C32.3954 199.297 32.3978 199.31 32.4002 199.323C32.4376 199.536 32.3572 199.716 32.1698 199.852C31.9692 199.999 31.6687 200.069 31.3729 199.995L31.1934 199.95C30.5595 199.792 29.9105 200.148 29.7039 200.768C29.5875 201.117 29.1889 201.282 28.8597 201.117L28.0971 200.736C27.5912 200.483 26.9886 200.521 26.5181 200.834C25.976 201.196 25.2476 201.083 24.8406 200.574L23.7734 199.24C23.4135 198.79 22.8688 198.528 22.2928 198.528H21.9523V193.454C22.4305 193.341 22.9201 193.083 23.3477 192.655ZM20.6882 193.156L19.4242 193.156V199.476H20.6882V193.156ZM35.6321 193.156L36.8961 193.156V199.476H35.6321V193.156Z" fill="#5F5F6A"/>
</svg>
