<svg width="56" height="224" viewBox="0 0 56 224" fill="none" xmlns="http://www.w3.org/2000/svg">
<path d="M28.7528 20C28.7528 19.5845 28.4159 19.2476 28.0004 19.2476C27.5849 19.2476 27.248 19.5845 27.248 20V20.4638H27.1968C26.1476 20.4638 25.5375 21.2593 25.4155 22.0237C25.2949 22.7792 25.6155 23.724 26.5814 24.0721L28.9425 24.923C29.0248 24.9527 29.0555 24.9921 29.0716 25.0229C29.0924 25.0629 29.1046 25.1233 29.0924 25.1931C29.0803 25.2628 29.0486 25.3149 29.0159 25.3449C28.9908 25.368 28.9471 25.3963 28.8541 25.3963H27.1968C27.027 25.3963 26.8778 25.2555 26.8778 25.0675C26.8778 24.652 26.5409 24.3152 26.1254 24.3152C25.7099 24.3152 25.373 24.652 25.373 25.0675C25.373 26.0738 26.1832 26.901 27.1968 26.901H27.2731V27.5C27.2731 27.9155 27.6099 28.2523 28.0255 28.2523C28.441 28.2523 28.7778 27.9155 28.7778 27.5V26.901H28.8541C30.8175 26.901 31.2799 24.1658 29.4527 23.5074L27.0915 22.6565C27.0063 22.6258 26.9627 22.5789 26.9348 22.5237C26.902 22.4584 26.8849 22.3643 26.9014 22.2608C26.9179 22.1574 26.9622 22.0799 27.0078 22.0356C27.0442 22.0001 27.0967 21.9686 27.1968 21.9686H28.804C28.9738 21.9686 29.123 22.1094 29.123 22.2973C29.123 22.7128 29.4599 23.0496 29.8754 23.0496C30.2909 23.0496 30.6278 22.7128 30.6278 22.2973C30.6278 21.2911 29.8176 20.4638 28.804 20.4638H28.7528V20Z" fill="#5F5F6A"/>
<path d="M25.4334 28.9976C24.5702 28.9976 23.9113 29.2035 23.3702 29.5417C22.8708 29.8539 22.5049 30.2622 22.2129 30.5881L22.1819 30.6226C21.8659 30.975 21.6233 31.2365 21.3095 31.4288C21.0171 31.6079 20.6242 31.7476 20.0004 31.7476C19.5849 31.7476 19.248 32.0845 19.248 32.5V36C19.248 36.4155 19.5849 36.7523 20.0004 36.7523H29.5017C31.2458 36.7523 32.9285 35.8121 34.1052 34.9679C34.7082 34.5352 35.2108 34.104 35.5627 33.781C35.7391 33.6192 35.8787 33.4835 35.9754 33.3871C36.0238 33.3389 36.0614 33.3005 36.0877 33.2734L36.092 33.2688C36.4557 32.9688 36.6822 32.5806 36.7389 32.1523C36.7968 31.7159 36.6695 31.302 36.4392 30.9813C35.9738 30.3331 35.0372 30.0095 34.1565 30.5277C34.1384 30.5384 34.1207 30.5499 34.1035 30.562C33.907 30.7011 33.7148 30.8404 33.525 30.9781C32.9537 31.3923 32.4026 31.7918 31.8124 32.127C31.0428 32.5639 30.2894 32.8387 29.5017 32.8387H26.5004C26.2996 32.8387 26.2174 32.7766 26.1875 32.7468C26.1507 32.7102 26.1278 32.6573 26.1278 32.5955C26.1278 32.5338 26.1507 32.4809 26.1875 32.4443C26.2174 32.4145 26.2996 32.3523 26.5004 32.3523H28.5017C29.0349 32.3523 29.5082 32.1849 29.8559 31.863C30.2003 31.5441 30.3781 31.1113 30.3781 30.675C30.3781 30.2387 30.2003 29.8058 29.8559 29.487C29.5082 29.1651 29.0349 28.9976 28.5017 28.9976H25.4334Z" fill="#5F5F6A"/>
<path opacity="0.5" fill-rule="evenodd" clip-rule="evenodd" d="M23.3702 85.5417C23.9113 85.2035 24.5702 84.9976 25.4334 84.9976H28.5017C29.0349 84.9976 29.5082 85.1651 29.8559 85.487C30.2003 85.8059 30.3781 86.2387 30.3781 86.675C30.3781 87.1113 30.2003 87.5441 29.8559 87.863C29.5082 88.1849 29.0349 88.3524 28.5017 88.3524H26.5004C26.2996 88.3524 26.2174 88.4145 26.1875 88.4443C26.1507 88.4809 26.1278 88.5338 26.1278 88.5956C26.1278 88.6573 26.1507 88.7102 26.1875 88.7468C26.2174 88.7766 26.2996 88.8387 26.5004 88.8387H29.5017C30.2894 88.8387 31.0428 88.5639 31.8124 88.127C32.4027 87.7918 32.9537 87.3923 33.5249 86.9782C33.7148 86.8405 33.9069 86.7012 34.1035 86.5621C34.1207 86.5499 34.1384 86.5384 34.1565 86.5278C35.0372 86.0095 35.9738 86.3331 36.4392 86.9813C36.6695 87.302 36.7968 87.7159 36.7389 88.1524C36.6822 88.5806 36.4557 88.9688 36.092 89.2688L36.0877 89.2734C36.0614 89.3005 36.0238 89.3389 35.9754 89.3872C35.8787 89.4835 35.7391 89.6192 35.5627 89.7811C35.2108 90.104 34.7082 90.5352 34.1052 90.9679C32.9285 91.8121 31.2458 92.7524 29.5017 92.7524H20.0004C19.5849 92.7524 19.248 92.4155 19.248 92V88.5C19.248 88.0845 19.5849 87.7476 20.0004 87.7476C20.6242 87.7476 21.0171 87.6079 21.3095 87.4288C21.6233 87.2365 21.8659 86.975 22.1819 86.6227C22.1922 86.6112 22.2025 86.5997 22.2129 86.5881C22.5049 86.2622 22.8708 85.8539 23.3702 85.5417Z" fill="#5F5F6A"/>
<path d="M28.0004 75.2476C28.4159 75.2476 28.7528 75.5845 28.7528 76V76.4639H28.804C29.8176 76.4639 30.6278 77.2911 30.6278 78.2973C30.6278 78.7128 30.2909 79.0497 29.8754 79.0497C29.4599 79.0497 29.123 78.7128 29.123 78.2973C29.123 78.1094 28.9738 77.9686 28.804 77.9686H27.1968C27.0967 77.9686 27.0442 78.0002 27.0078 78.0356C26.9622 78.08 26.9179 78.1574 26.9014 78.2609C26.8849 78.3643 26.902 78.4585 26.9348 78.5237C26.9627 78.5789 27.0063 78.6258 27.0915 78.6565L29.4527 79.5074C31.2799 80.1659 30.8175 82.901 28.8541 82.901H28.7778V83.5C28.7778 83.9155 28.441 84.2524 28.0255 84.2524C27.6099 84.2524 27.2731 83.9155 27.2731 83.5V82.901H27.1968C26.1832 82.901 25.373 82.0738 25.373 81.0676C25.373 80.652 25.7099 80.3152 26.1254 80.3152C26.5409 80.3152 26.8778 80.652 26.8778 81.0676C26.8778 81.2555 27.027 81.3963 27.1968 81.3963H28.8541C28.9471 81.3963 28.9908 81.368 29.0159 81.3449C29.0486 81.3149 29.0803 81.2628 29.0924 81.1931C29.1046 81.1234 29.0924 81.0629 29.0716 81.0229C29.0555 80.9921 29.0248 80.9527 28.9425 80.923L26.5814 80.0722C25.6155 79.7241 25.2949 78.7792 25.4155 78.0237C25.5375 77.2593 26.1476 76.4639 27.1968 76.4639H27.248V76C27.248 75.5845 27.5849 75.2476 28.0004 75.2476Z" fill="#5F5F6A"/>
<path fill-rule="evenodd" clip-rule="evenodd" d="M28.0004 131.248C28.4159 131.248 28.7528 131.584 28.7528 132V132.464H28.804C29.8176 132.464 30.6278 133.291 30.6278 134.297C30.6278 134.713 30.2909 135.05 29.8754 135.05C29.4599 135.05 29.123 134.713 29.123 134.297C29.123 134.109 28.9738 133.969 28.804 133.969H27.1968C27.0967 133.969 27.0442 134 27.0078 134.036C26.9622 134.08 26.9179 134.157 26.9014 134.261C26.8849 134.364 26.902 134.458 26.9348 134.524C26.9627 134.579 27.0063 134.626 27.0915 134.657L29.4527 135.507C31.2799 136.166 30.8175 138.901 28.8541 138.901H28.7778V139.5C28.7778 139.916 28.441 140.252 28.0255 140.252C27.6099 140.252 27.2731 139.916 27.2731 139.5V138.901H27.1968C26.1832 138.901 25.373 138.074 25.373 137.068C25.373 136.652 25.7099 136.315 26.1254 136.315C26.5409 136.315 26.8778 136.652 26.8778 137.068C26.8778 137.255 27.027 137.396 27.1968 137.396H28.8541C28.9471 137.396 28.9908 137.368 29.0159 137.345C29.0486 137.315 29.0803 137.263 29.0924 137.193C29.1046 137.123 29.0924 137.063 29.0716 137.023C29.0555 136.992 29.0248 136.953 28.9425 136.923L26.5814 136.072C25.6155 135.724 25.2949 134.779 25.4155 134.024C25.5375 133.259 26.1476 132.464 27.1968 132.464H27.248V132C27.248 131.584 27.5849 131.248 28.0004 131.248ZM23.3702 141.542C23.9113 141.203 24.5702 140.998 25.4334 140.998H28.5017C29.0349 140.998 29.5082 141.165 29.8559 141.487C30.2003 141.806 30.3781 142.239 30.3781 142.675C30.3781 143.111 30.2003 143.544 29.8559 143.863C29.5082 144.185 29.0349 144.352 28.5017 144.352H26.5004C26.2996 144.352 26.2174 144.415 26.1875 144.444C26.1507 144.481 26.1278 144.534 26.1278 144.596C26.1278 144.657 26.1507 144.71 26.1875 144.747C26.2174 144.777 26.2996 144.839 26.5004 144.839H29.5017C30.2894 144.839 31.0428 144.564 31.8124 144.127C32.4027 143.792 32.9537 143.392 33.5249 142.978C33.7148 142.84 33.9069 142.701 34.1035 142.562C34.1207 142.55 34.1384 142.538 34.1565 142.528C35.0372 142.01 35.9738 142.333 36.4392 142.981C36.6695 143.302 36.7968 143.716 36.7389 144.152C36.6822 144.581 36.4557 144.969 36.092 145.269L36.0877 145.273C36.0614 145.3 36.0238 145.339 35.9754 145.387C35.8787 145.484 35.7391 145.619 35.5627 145.781C35.2108 146.104 34.7082 146.535 34.1052 146.968C32.9285 147.812 31.2458 148.752 29.5017 148.752H20.0004C19.5849 148.752 19.248 148.415 19.248 148V144.5C19.248 144.084 19.5849 143.748 20.0004 143.748C20.6242 143.748 21.0171 143.608 21.3095 143.429C21.6233 143.237 21.8659 142.975 22.1819 142.623C22.1922 142.611 22.2025 142.6 22.2129 142.588C22.5049 142.262 22.8708 141.854 23.3702 141.542ZM35.0338 144.198C35.0605 144.17 35.0893 144.144 35.12 144.12C35.237 144.028 35.2458 143.965 35.2473 143.955C35.25 143.934 35.246 143.899 35.217 143.859C35.1873 143.818 35.1451 143.79 35.1048 143.781C35.0773 143.774 35.0249 143.769 34.9413 143.813C34.7858 143.923 34.6244 144.04 34.4581 144.161C33.8724 144.586 33.2255 145.055 32.5553 145.435C31.6651 145.941 30.6494 146.343 29.5017 146.343H26.5004C25.9512 146.343 25.471 146.157 25.1258 145.813C24.7876 145.476 24.623 145.032 24.623 144.596C24.623 144.159 24.7876 143.715 25.1258 143.378C25.471 143.034 25.9512 142.848 26.5004 142.848H28.5017C28.718 142.848 28.8066 142.784 28.8336 142.759C28.8638 142.731 28.8734 142.701 28.8734 142.675C28.8734 142.649 28.8638 142.619 28.8336 142.591C28.8066 142.566 28.718 142.502 28.5017 142.502H25.4334C24.83 142.502 24.4516 142.64 24.1678 142.818C23.8602 143.01 23.6217 143.271 23.3021 143.627L23.2877 143.643C22.9895 143.976 22.615 144.394 22.0955 144.712C21.7152 144.945 21.2771 145.114 20.7528 145.197V147.248H29.5017C30.7564 147.248 32.114 146.544 33.228 145.745C33.7703 145.356 34.2257 144.966 34.5453 144.672C34.7047 144.526 34.8293 144.405 34.9129 144.322C34.9547 144.28 34.9862 144.248 35.0065 144.227L35.0287 144.204L35.0338 144.198Z" fill="#5F5F6A"/>
<path fill-rule="evenodd" clip-rule="evenodd" d="M28 187.5C28.2761 187.5 28.5 187.724 28.5 188V188.716H28.8036C29.6757 188.716 30.375 189.428 30.375 190.297C30.375 190.573 30.1511 190.797 29.875 190.797C29.5989 190.797 29.375 190.573 29.375 190.297C29.375 189.972 29.1149 189.716 28.8036 189.716H27.1964C26.9006 189.716 26.7003 189.917 26.6518 190.221C26.6024 190.531 26.7359 190.797 27.0056 190.894L29.3667 191.745C30.929 192.308 30.5331 194.649 28.8537 194.649H28.5251V195.5C28.5251 195.776 28.3012 196 28.0251 196C27.7489 196 27.5251 195.776 27.5251 195.5V194.649H27.1964C26.3243 194.649 25.625 193.937 25.625 193.068C25.625 192.791 25.8489 192.568 26.125 192.568C26.4011 192.568 26.625 192.791 26.625 193.068C26.625 193.393 26.8851 193.649 27.1964 193.649H28.8537C29.4076 193.649 29.5404 192.87 29.0277 192.686L26.6666 191.835C25.8409 191.537 25.558 190.729 25.6643 190.063C25.7715 189.392 26.299 188.716 27.1964 188.716H27.5V188C27.5 187.724 27.7239 187.5 28 187.5ZM23.5036 197.756C24.0015 197.444 24.6134 197.25 25.4329 197.25H28.5013C28.9813 197.25 29.3901 197.4 29.684 197.672C29.9758 197.942 30.1253 198.307 30.1253 198.675C30.1253 199.043 29.9758 199.408 29.684 199.678C29.3901 199.95 28.9813 200.1 28.5013 200.1H26.5C26.2408 200.1 26.0918 200.183 26.009 200.265C25.9217 200.352 25.875 200.471 25.875 200.596C25.875 200.72 25.9217 200.839 26.009 200.926C26.0918 201.008 26.2408 201.091 26.5 201.091H29.5013C30.3494 201.091 31.1467 200.795 31.9366 200.346C32.5401 200.004 33.107 199.593 33.6812 199.176C33.8691 199.04 34.0578 198.903 34.2489 198.768C34.2603 198.76 34.2721 198.752 34.2841 198.745C35.0423 198.299 35.8376 198.577 36.2338 199.128C36.4304 199.402 36.537 199.752 36.4884 200.119C36.4404 200.481 36.2467 200.818 35.9201 201.083L35.9059 201.098C35.8807 201.124 35.844 201.161 35.7968 201.208C35.7023 201.303 35.5652 201.436 35.3917 201.595C35.0451 201.913 34.5505 202.338 33.9576 202.763C32.7915 203.599 31.1633 204.5 29.5013 204.5H20C19.7239 204.5 19.5 204.276 19.5 204V200.5C19.5 200.224 19.7239 200 20 200C20.6661 200 21.1054 199.849 21.4409 199.644C21.7906 199.43 22.056 199.141 22.3694 198.791C22.3779 198.782 22.3864 198.772 22.3949 198.763C22.6901 198.433 23.035 198.049 23.5036 197.756ZM35.2174 200.371C35.2351 200.352 35.2543 200.335 35.2747 200.319C35.4377 200.192 35.4859 200.072 35.497 199.988C35.509 199.897 35.4843 199.799 35.4216 199.712C35.3017 199.545 35.0733 199.45 34.8073 199.598C34.6431 199.714 34.4743 199.837 34.3014 199.962C33.7176 200.386 33.087 200.843 32.4303 201.216C31.5604 201.71 30.5886 202.091 29.5013 202.091H26.5C26.0092 202.091 25.5957 201.925 25.3035 201.634C25.0158 201.348 24.875 200.969 24.875 200.596C24.875 200.222 25.0158 199.843 25.3035 199.557C25.5957 199.266 26.0092 199.1 26.5 199.1H28.5013C28.7707 199.1 28.9239 199.019 29.0046 198.944C29.0876 198.867 29.1253 198.77 29.1253 198.675C29.1253 198.58 29.0876 198.483 29.0046 198.406C28.9239 198.331 28.7707 198.25 28.5013 198.25H25.4329C24.7861 198.25 24.3606 198.399 24.0336 198.604C23.6908 198.818 23.4296 199.107 23.1138 199.459L23.1062 199.467C22.8047 199.804 22.4511 200.198 21.9633 200.497C21.5637 200.741 21.0914 200.913 20.5 200.975V203.5H29.5013C30.838 203.5 32.2502 202.757 33.3747 201.95C33.9272 201.554 34.3905 201.157 34.7156 200.858C34.8778 200.709 35.0049 200.586 35.0907 200.5C35.1336 200.458 35.1661 200.424 35.1875 200.402L35.211 200.378L35.2164 200.372L35.2174 200.371Z" fill="#5F5F6A"/>
</svg>
