<svg width="56" height="224" viewBox="0 0 56 224" fill="none" xmlns="http://www.w3.org/2000/svg">
<path d="M26.5388 21.767C27.2198 21.8805 27.6798 22.5245 27.5663 23.2055L27.3922 24.25L29.8578 24.25L30.1003 22.7945C30.2138 22.1136 30.8579 21.6535 31.5388 21.767C32.2198 21.8805 32.6798 22.5245 32.5663 23.2055L32.3922 24.25L33 24.25C33.6904 24.25 34.25 24.8097 34.25 25.5C34.25 26.1904 33.6904 26.75 33 26.75H31.9756L31.5589 29.25H32.1667C32.857 29.25 33.4167 29.8097 33.4167 30.5C33.4167 31.1904 32.857 31.75 32.1667 31.75H31.1422L30.8997 33.2055C30.7862 33.8865 30.1421 34.3465 29.4612 34.233C28.7802 34.1195 28.3202 33.4755 28.4337 32.7945L28.6078 31.75L26.1422 31.75L25.8997 33.2055C25.7862 33.8865 25.1421 34.3465 24.4612 34.233C23.7802 34.1195 23.3202 33.4755 23.4337 32.7945L23.6078 31.75H23C22.3096 31.75 21.75 31.1904 21.75 30.5C21.75 29.8097 22.3096 29.25 23 29.25H24.0244L24.4411 26.75L23.8333 26.75C23.143 26.75 22.5833 26.1904 22.5833 25.5C22.5833 24.8097 23.143 24.25 23.8333 24.25L24.8578 24.25L25.1003 22.7945C25.2138 22.1136 25.8579 21.6535 26.5388 21.767ZM26.9756 26.75L26.5589 29.25L29.0244 29.25L29.4411 26.75L26.9756 26.75Z" fill="#5F5F6A"/>
<path d="M26.4977 78.0136C27.0425 78.1044 27.4105 78.6196 27.3197 79.1644L27.0971 80.5L30.0695 80.5L30.3469 78.8356C30.4377 78.2908 30.953 77.9228 31.4977 78.0136C32.0425 78.1044 32.4105 78.6196 32.3197 79.1644L32.0971 80.5H33C33.5523 80.5 34 80.9477 34 81.5C34 82.0523 33.5523 82.5 33 82.5H31.7638L31.2638 85.5H32.1667C32.719 85.5 33.1667 85.9477 33.1667 86.5C33.1667 87.0523 32.719 87.5 32.1667 87.5H30.9305L30.6531 89.1644C30.5623 89.7092 30.047 90.0772 29.5023 89.9864C28.9575 89.8956 28.5895 89.3804 28.6803 88.8356L28.9029 87.5L25.9305 87.5L25.6531 89.1644C25.5623 89.7092 25.047 90.0772 24.5023 89.9864C23.9575 89.8956 23.5895 89.3804 23.6803 88.8356L23.9029 87.5H23C22.4477 87.5 22 87.0523 22 86.5C22 85.9477 22.4477 85.5 23 85.5L24.2362 85.5L24.7362 82.5L23.8333 82.5C23.281 82.5 22.8333 82.0523 22.8333 81.5C22.8333 80.9477 23.281 80.5 23.8333 80.5L25.0695 80.5L25.3469 78.8356C25.4377 78.2908 25.953 77.9228 26.4977 78.0136ZM26.7638 82.5L26.2638 85.5L29.2362 85.5L29.7362 82.5L26.7638 82.5Z" fill="#5F5F6A"/>
<path d="M26.4566 134.26C26.8652 134.328 27.1412 134.715 27.0731 135.123L26.802 136.75L30.2813 136.75L30.5935 134.877C30.6616 134.468 31.0481 134.192 31.4566 134.26C31.8652 134.328 32.1412 134.715 32.0731 135.123L31.802 136.75L33 136.75C33.4142 136.75 33.75 137.086 33.75 137.5C33.75 137.914 33.4142 138.25 33 138.25H31.552L30.9687 141.75L32.1667 141.75C32.5809 141.75 32.9167 142.086 32.9167 142.5C32.9167 142.914 32.5809 143.25 32.1667 143.25H30.7187L30.4065 145.123C30.3384 145.532 29.9519 145.808 29.5434 145.74C29.1348 145.672 28.8588 145.285 28.9269 144.877L29.198 143.25L25.7187 143.25L25.4065 145.123C25.3384 145.532 24.9519 145.808 24.5434 145.74C24.1348 145.672 23.8588 145.285 23.9269 144.877L24.198 143.25H23C22.5858 143.25 22.25 142.914 22.25 142.5C22.25 142.086 22.5858 141.75 23 141.75L24.448 141.75L25.0313 138.25L23.8333 138.25C23.4191 138.25 23.0833 137.914 23.0833 137.5C23.0833 137.086 23.4191 136.75 23.8333 136.75L25.2813 136.75L25.5935 134.877C25.6616 134.468 26.0481 134.192 26.4566 134.26ZM26.552 138.25L25.9687 141.75L29.448 141.75L30.0313 138.25L26.552 138.25Z" fill="#5F5F6A"/>
<path d="M26.4155 190.507C26.6879 190.552 26.8719 190.81 26.8265 191.082L26.5069 193L30.4931 193L30.8401 190.918C30.8855 190.645 31.1431 190.461 31.4155 190.507C31.6879 190.552 31.8719 190.81 31.8265 191.082L31.5069 193L33 193C33.2761 193 33.5 193.224 33.5 193.5C33.5 193.776 33.2761 194 33 194L31.3402 194L30.6736 198L32.1667 198C32.4428 198 32.6667 198.224 32.6667 198.5C32.6667 198.776 32.4428 199 32.1667 199H30.5069L30.1599 201.082C30.1145 201.355 29.8569 201.539 29.5845 201.493C29.3121 201.448 29.1281 201.19 29.1735 200.918L29.4931 199L25.5069 199L25.1599 201.082C25.1145 201.355 24.8569 201.539 24.5845 201.493C24.3121 201.448 24.1281 201.19 24.1735 200.918L24.4931 199H23C22.7239 199 22.5 198.776 22.5 198.5C22.5 198.224 22.7239 198 23 198L24.6598 198L25.3264 194L23.8333 194C23.5572 194 23.3333 193.776 23.3333 193.5C23.3333 193.224 23.5572 193 23.8333 193L25.4931 193L25.8401 190.918C25.8855 190.645 26.1431 190.461 26.4155 190.507ZM26.3402 194L25.6736 198L29.6598 198L30.3264 194L26.3402 194Z" fill="#5F5F6A"/>
</svg>
