<svg width="56" height="224" viewBox="0 0 56 224" fill="none" xmlns="http://www.w3.org/2000/svg">
<path fill-rule="evenodd" clip-rule="evenodd" d="M28 19.6815C23.9915 19.6815 20.7419 22.931 20.7419 26.9395V28.6815C20.7419 29.1625 20.352 29.5524 19.871 29.5524C19.3899 29.5524 19 29.1625 19 28.6815V26.9395C19 21.969 23.0294 17.9395 28 17.9395C32.9706 17.9395 37 21.969 37 26.9395V31.5847C37 33.9898 35.0503 35.9395 32.6452 35.9395H30.0119C29.6103 36.4602 28.8597 36.8105 28 36.8105C26.7173 36.8105 25.6774 36.0306 25.6774 35.0686C25.6774 34.1065 26.7173 33.3266 28 33.3266C28.8597 33.3266 29.6103 33.6769 30.0119 34.1976H32.6452C34.0882 34.1976 35.2581 33.0277 35.2581 31.5847V26.9395C35.2581 22.931 32.0085 19.6815 28 19.6815ZM23.9355 25.7782C22.6528 25.7782 21.6129 26.8181 21.6129 28.1008V29.8427C21.6129 31.1255 22.6528 32.1653 23.9355 32.1653H24.5161C25.1575 32.1653 25.6774 31.6454 25.6774 31.004V26.9395C25.6774 26.2982 25.1575 25.7782 24.5161 25.7782H23.9355ZM32.0645 25.7782C33.3472 25.7782 34.3871 26.8181 34.3871 28.1008V29.8427C34.3871 31.1255 33.3472 32.1653 32.0645 32.1653H31.4839C30.8425 32.1653 30.3226 31.6454 30.3226 31.004V26.9395C30.3226 26.2982 30.8425 25.7782 31.4839 25.7782H32.0645Z" fill="#5F5F6A"/>
<path opacity="0.5" fill-rule="evenodd" clip-rule="evenodd" d="M20.7419 82.9395C20.7419 78.931 23.9915 75.6814 28 75.6814C32.0085 75.6814 35.2581 78.931 35.2581 82.9395V87.5847C35.2581 89.0277 34.0882 90.1976 32.6452 90.1976H30.0119C29.6103 89.6769 28.8597 89.3266 28 89.3266C26.7173 89.3266 25.6774 90.1065 25.6774 91.0685C25.6774 92.0306 26.7173 92.8105 28 92.8105C28.8597 92.8105 29.6103 92.4602 30.0119 91.9395H32.6452C35.0503 91.9395 37 89.9898 37 87.5847V82.9395C37 77.9689 32.9706 73.9395 28 73.9395C23.0294 73.9395 19 77.9689 19 82.9395V84.6814C19 85.1625 19.3899 85.5524 19.871 85.5524C20.352 85.5524 20.7419 85.1625 20.7419 84.6814V82.9395Z" fill="#5F5F6A"/>
<path d="M21.6133 84.1008C21.6133 82.8181 22.6531 81.7782 23.9359 81.7782H24.5165C25.1579 81.7782 25.6778 82.2982 25.6778 82.9395V87.004C25.6778 87.6454 25.1579 88.1653 24.5165 88.1653H23.9359C22.6531 88.1653 21.6133 87.1255 21.6133 85.8427V84.1008Z" fill="#5F5F6A"/>
<path d="M34.3875 84.1008C34.3875 82.8181 33.3476 81.7782 32.0649 81.7782H31.4842C30.8429 81.7782 30.323 82.2982 30.323 82.9395V87.004C30.323 87.6454 30.8429 88.1653 31.4842 88.1653H32.0649C33.3476 88.1653 34.3875 87.1255 34.3875 85.8427V84.1008Z" fill="#5F5F6A"/>
<path fill-rule="evenodd" clip-rule="evenodd" d="M28 132.536C24.4369 132.536 21.5484 135.425 21.5484 138.988V140.536C21.5484 140.964 21.2018 141.31 20.7742 141.31C20.3466 141.31 20 140.964 20 140.536V138.988C20 134.57 23.5817 130.988 28 130.988C32.4183 130.988 36 134.57 36 138.988V143.117C36 145.255 34.2669 146.988 32.129 146.988H29.7883C29.4314 147.451 28.7642 147.762 28 147.762C26.8598 147.762 25.9355 147.069 25.9355 146.214C25.9355 145.359 26.8598 144.665 28 144.665C28.7642 144.665 29.4314 144.977 29.7883 145.44H32.129C33.4118 145.44 34.4516 144.4 34.4516 143.117V138.988C34.4516 135.425 31.5631 132.536 28 132.536ZM24.3871 139.504V142.085C24.102 142.085 23.871 141.854 23.871 141.569V140.02C23.871 139.735 24.102 139.504 24.3871 139.504ZM22.3226 140.02C22.3226 138.88 23.2469 137.956 24.3871 137.956H24.9032C25.4733 137.956 25.9355 138.418 25.9355 138.988V142.601C25.9355 143.171 25.4733 143.633 24.9032 143.633H24.3871C23.2469 143.633 22.3226 142.709 22.3226 141.569V140.02ZM31.6129 139.504V142.085C31.898 142.085 32.129 141.854 32.129 141.569V140.02C32.129 139.735 31.898 139.504 31.6129 139.504ZM33.6774 140.02C33.6774 138.88 32.7531 137.956 31.6129 137.956H31.0968C30.5267 137.956 30.0645 138.418 30.0645 138.988V142.601C30.0645 143.171 30.5267 143.633 31.0968 143.633H31.6129C32.7531 143.633 33.6774 142.709 33.6774 141.569V140.02Z" fill="#5F5F6A"/>
<path fill-rule="evenodd" clip-rule="evenodd" d="M28 188.033C24.1708 188.033 21.0667 191.137 21.0667 194.967V196.567C21.0667 196.861 20.8279 197.1 20.5333 197.1C20.2388 197.1 20 196.861 20 196.567V194.967C20 190.548 23.5817 186.967 28 186.967C32.4183 186.967 36 190.548 36 194.967V199.233C36 201.295 34.3285 202.967 32.2667 202.967H30.0119C29.7191 203.588 28.9289 204.033 28 204.033C26.8218 204.033 25.8667 203.317 25.8667 202.433C25.8667 201.55 26.8218 200.833 28 200.833C28.9289 200.833 29.7191 201.279 30.0119 201.9H32.2667C33.7394 201.9 34.9333 200.706 34.9333 199.233V194.967C34.9333 191.137 31.8292 188.033 28 188.033ZM28.8685 202.155C29.0525 202.293 29.0667 202.403 29.0667 202.433C29.0667 202.464 29.0525 202.573 28.8685 202.711C28.6842 202.85 28.3806 202.967 28 202.967C27.6194 202.967 27.3158 202.85 27.1315 202.711C26.9475 202.573 26.9333 202.464 26.9333 202.433C26.9333 202.403 26.9475 202.293 27.1315 202.155C27.3158 202.017 27.6194 201.9 28 201.9C28.3806 201.9 28.6842 202.017 28.8685 202.155ZM24.2667 194.967H24.8V198.7H24.2667C23.6776 198.7 23.2 198.222 23.2 197.633V196.033C23.2 195.444 23.6776 194.967 24.2667 194.967ZM22.1333 196.033C22.1333 194.855 23.0885 193.9 24.2667 193.9H24.8C25.3891 193.9 25.8667 194.378 25.8667 194.967V198.7C25.8667 199.289 25.3891 199.767 24.8 199.767H24.2667C23.0885 199.767 22.1333 198.812 22.1333 197.633V196.033ZM31.7333 194.967H31.2V198.7H31.7333C32.3224 198.7 32.8 198.222 32.8 197.633V196.033C32.8 195.444 32.3224 194.967 31.7333 194.967ZM33.8667 196.033C33.8667 194.855 32.9115 193.9 31.7333 193.9H31.2C30.6109 193.9 30.1333 194.378 30.1333 194.967V198.7C30.1333 199.289 30.6109 199.767 31.2 199.767H31.7333C32.9115 199.767 33.8667 198.812 33.8667 197.633V196.033Z" fill="#5F5F6A"/>
</svg>
