<svg width="56" height="168" viewBox="0 0 56 168" fill="none" xmlns="http://www.w3.org/2000/svg">
<path d="M28 20.0499L37.4605 27.408C37.7875 27.6623 37.8464 28.1335 37.592 28.4605C37.3377 28.7874 36.8665 28.8463 36.5396 28.592L35.75 27.9779V36C35.75 36.4142 35.4142 36.75 35 36.75C34.5858 36.75 34.25 36.4142 34.25 36V26.8113L28 21.9501L21.75 26.8113V36C21.75 36.4142 21.4142 36.75 21 36.75C20.5858 36.75 20.25 36.4142 20.25 36V27.9779L19.4605 28.592C19.1335 28.8463 18.6623 28.7874 18.408 28.4605C18.1537 28.1335 18.2126 27.6623 18.5396 27.408L20.25 26.0776V23.5C20.25 22.8096 20.8097 22.25 21.5 22.25H22.5C23.1435 22.25 23.6734 22.7362 23.7424 23.3613L28 20.0499ZM22.25 24.425V23.75H21.75V24.8L22.25 24.425Z" fill="#5F5F6A"/>
<path opacity="0.5" d="M26.5 30.75C26.3619 30.75 26.25 30.8619 26.25 31V36C26.25 36.4142 25.9142 36.75 25.5 36.75C25.0858 36.75 24.75 36.4142 24.75 36V31C24.75 30.0335 25.5335 29.25 26.5 29.25H29.5C30.4665 29.25 31.25 30.0335 31.25 31V36C31.25 36.4142 30.9142 36.75 30.5 36.75C30.0858 36.75 29.75 36.4142 29.75 36V31C29.75 30.8619 29.6381 30.75 29.5 30.75H26.5Z" fill="#5F5F6A"/>
<path d="M28 76.0499L37.4605 83.408C37.7875 83.6623 37.8464 84.1335 37.592 84.4605C37.3377 84.7874 36.8665 84.8463 36.5396 84.592L35.75 83.9779V92C35.75 92.4142 35.4142 92.75 35 92.75C34.5858 92.75 34.25 92.4142 34.25 92V82.8113L28 77.9501L21.75 82.8113V92C21.75 92.4142 21.4142 92.75 21 92.75C20.5858 92.75 20.25 92.4142 20.25 92V83.9779L19.4605 84.592C19.1335 84.8463 18.6623 84.7874 18.408 84.4605C18.1537 84.1335 18.2126 83.6623 18.5396 83.408L20.25 82.0776V79.5C20.25 78.8096 20.8097 78.25 21.5 78.25H22.5C23.1435 78.25 23.6734 78.7362 23.7424 79.3613L28 76.0499ZM22.25 80.425V79.75H21.75V80.8L22.25 80.425Z" fill="#5F5F6A"/>
<path d="M26.5 86.75C26.362 86.75 26.25 86.8619 26.25 87V92C26.25 92.4142 25.9142 92.75 25.5 92.75C25.0858 92.75 24.75 92.4142 24.75 92V87C24.75 86.0335 25.5335 85.25 26.5 85.25H29.5C30.4665 85.25 31.25 86.0335 31.25 87V92C31.25 92.4142 30.9142 92.75 30.5 92.75C30.0858 92.75 29.75 92.4142 29.75 92V87C29.75 86.8619 29.6381 86.75 29.5 86.75H26.5Z" fill="#5F5F6A"/>
<path d="M28 132.367L37.307 139.605C37.525 139.775 37.5642 140.089 37.3947 140.307C37.2252 140.525 36.911 140.564 36.6931 140.395L35.5 139.467V148C35.5 148.276 35.2762 148.5 35 148.5C34.7239 148.5 34.5 148.276 34.5 148V138.689L28 133.633L21.5 138.689V148C21.5 148.276 21.2762 148.5 21 148.5C20.7239 148.5 20.5 148.276 20.5 148V139.467L19.307 140.395C19.089 140.564 18.7749 140.525 18.6053 140.307C18.4358 140.089 18.4751 139.775 18.6931 139.605L20.5 138.2V135.5C20.5 134.948 20.9477 134.5 21.5 134.5H22.5C23.0523 134.5 23.5 134.948 23.5 135.5V135.867L28 132.367ZM22.5 136.55V135.5L21.5 135.5V137.3L22.5 136.55Z" fill="#5F5F6A"/>
<path d="M26.5 142.5C26.2239 142.5 26 142.724 26 143V148C26 148.276 25.7762 148.5 25.5 148.5C25.2239 148.5 25 148.276 25 148V143C25 142.172 25.6716 141.5 26.5 141.5H29.5C30.3285 141.5 31 142.172 31 143V148C31 148.276 30.7762 148.5 30.5 148.5C30.2239 148.5 30 148.276 30 148V143C30 142.724 29.7762 142.5 29.5 142.5H26.5Z" fill="#5F5F6A"/>
</svg>
