<svg width="56" height="168" viewBox="0 0 56 168" fill="none" xmlns="http://www.w3.org/2000/svg">
<path d="M28.633 19.25H25.367C24.2749 19.25 23.4094 19.25 22.7117 19.307C21.9983 19.3653 21.3947 19.4869 20.8435 19.7677C19.9498 20.2231 19.2231 20.9498 18.7677 21.8435C18.4869 22.3947 18.3653 22.9983 18.307 23.7117C18.25 24.4094 18.25 25.2748 18.25 26.367V29.633C18.25 30.5703 18.25 31.3407 18.286 31.9813C18.2887 32.0504 18.2938 32.1169 18.2987 32.1812L18.3 32.1981C18.3022 32.2285 18.3046 32.2585 18.307 32.2883C18.3653 33.0017 18.4869 33.6053 18.7677 34.1565C18.9954 34.6033 19.2909 35.0084 19.6412 35.3588C19.9916 35.7091 20.3967 36.0046 20.8435 36.2323C20.9124 36.2674 20.9822 36.3 21.0528 36.3303C21.1582 36.3755 21.2657 36.4156 21.3756 36.4513C21.7814 36.5827 22.2206 36.6529 22.7118 36.693C23.4094 36.75 24.2748 36.75 25.3669 36.75H29.2499C29.6642 36.75 30 36.4142 30 36C30 35.5858 29.6642 35.25 29.2499 35.25H25.4C24.2675 35.25 23.4633 35.2494 22.8339 35.198C22.2133 35.1473 21.829 35.0509 21.5245 34.8958C21.2856 34.774 21.064 34.6239 20.8643 34.4497C20.5528 34.1782 20.2941 33.848 20.1043 33.4755C19.944 33.1609 19.8467 32.7618 19.7973 32.1055C19.7964 32.0935 19.7955 32.0821 19.7947 32.0714C19.7912 32.0215 19.7879 31.9705 19.7848 31.9183C19.7846 31.9122 19.7844 31.9065 19.7843 31.9009C19.7835 31.8705 19.785 31.8618 19.7854 31.859C19.7885 31.8392 19.7998 31.8039 19.8088 31.786C19.8088 31.786 19.8097 31.7841 19.8126 31.7796C19.816 31.7743 19.8228 31.7643 19.8359 31.7469C19.8658 31.7075 19.9073 31.6574 19.9842 31.5651L20.0464 31.4904C20.4772 30.9736 20.7697 30.6236 21.0156 30.3758C21.2567 30.1328 21.3965 30.048 21.4995 30.0104C21.7766 29.9091 22.0806 29.9091 22.3577 30.0104C22.4606 30.048 22.6005 30.1328 22.8416 30.3758C23.0875 30.6236 23.38 30.9736 23.8107 31.4904C24.4129 32.2131 25.5091 32.2532 26.1625 31.5764L29.1661 28.4656C29.5763 28.0407 29.8526 27.7553 30.0829 27.5533C30.3067 27.3568 30.436 27.2862 30.534 27.2536C30.7902 27.1684 31.067 27.1684 31.3232 27.2536C31.4537 27.2971 31.6248 27.4016 31.98 27.7434C32.2784 28.0307 32.7532 28.0215 33.0404 27.7231C33.3277 27.4246 33.3186 26.9499 33.0201 26.6626C32.6379 26.2947 32.2641 25.9858 31.7967 25.8303C31.2332 25.6428 30.624 25.6428 30.0605 25.8303C29.6923 25.9528 29.3877 26.1677 29.0935 26.4258C28.811 26.6738 28.4917 27.0045 28.1086 27.4013L25.0834 30.5345C25.0499 30.5692 24.9939 30.5671 24.9631 30.5301L24.9416 30.5044C24.5378 30.0198 24.2037 29.6189 23.9063 29.3192C23.599 29.0095 23.2751 28.7486 22.8727 28.6015C22.263 28.3787 21.5942 28.3787 20.9845 28.6015C20.5821 28.7486 20.2582 29.0095 19.9508 29.3192C19.8858 29.3848 19.8189 29.4552 19.75 29.5303V26.4C19.75 25.2675 19.7506 24.4633 19.802 23.8339C19.8527 23.2133 19.9491 22.829 20.1042 22.5245C20.4158 21.913 20.913 21.4158 21.5245 21.1042C21.829 20.9491 22.2133 20.8527 22.8339 20.802C23.4633 20.7506 24.2675 20.75 25.4 20.75H28.6C29.7325 20.75 30.5367 20.7506 31.1661 20.802C31.7867 20.8527 32.171 20.9491 32.4755 21.1042C33.087 21.4158 33.5842 21.913 33.8958 22.5245C34.0509 22.829 34.1473 23.2133 34.198 23.8339C34.2494 24.4633 34.25 25.2675 34.25 26.4C34.25 26.8142 34.5858 27.15 35 27.15C35.4142 27.15 35.75 26.8142 35.75 26.4V26.367C35.75 25.2748 35.75 24.4094 35.693 23.7117C35.6347 22.9983 35.5131 22.3947 35.2323 21.8435C34.7769 20.9498 34.0502 20.2231 33.1565 19.7677C32.6053 19.4869 32.0017 19.3653 31.2883 19.307C30.5906 19.25 29.7251 19.25 28.633 19.25Z" fill="#5F5F6A"/>
<g opacity="0.5">
<path d="M25 22.25C23.4812 22.25 22.25 23.4812 22.25 25C22.25 26.5188 23.4812 27.75 25 27.75C26.5188 27.75 27.75 26.5188 27.75 25C27.75 23.4812 26.5188 22.25 25 22.25ZM23.75 25C23.75 24.3096 24.3096 23.75 25 23.75C25.6904 23.75 26.25 24.3096 26.25 25C26.25 25.6904 25.6904 26.25 25 26.25C24.3096 26.25 23.75 25.6904 23.75 25Z" fill="#5F5F6A"/>
<path d="M33.5303 30.4697C33.2374 30.1768 32.7626 30.1768 32.4697 30.4697C32.1768 30.7626 32.1768 31.2374 32.4697 31.5303L33.9393 33L32.4697 34.4697C32.1768 34.7626 32.1768 35.2374 32.4697 35.5303C32.7626 35.8232 33.2374 35.8232 33.5303 35.5303L35 34.0607L36.4697 35.5303C36.7626 35.8232 37.2374 35.8232 37.5303 35.5303C37.8232 35.2374 37.8232 34.7626 37.5303 34.4697L36.0607 33L37.5303 31.5303C37.8232 31.2374 37.8232 30.7626 37.5303 30.4697C37.2374 30.1768 36.7626 30.1768 36.4697 30.4697L35 31.9393L33.5303 30.4697Z" fill="#5F5F6A"/>
</g>
<path d="M25.367 75.25H28.633C29.7251 75.25 30.5907 75.25 31.2883 75.307C32.0017 75.3653 32.6053 75.4869 33.1565 75.7677C34.0502 76.2231 34.7769 76.9498 35.2323 77.8435C35.5131 78.3947 35.6347 78.9983 35.693 79.7117C35.75 80.4094 35.75 81.2748 35.75 82.367V82.4C35.75 82.8142 35.4142 83.15 35 83.15C34.5858 83.15 34.25 82.8142 34.25 82.4C34.25 81.2675 34.2494 80.4633 34.198 79.8339C34.1473 79.2133 34.0509 78.829 33.8958 78.5245C33.5842 77.913 33.087 77.4158 32.4755 77.1042C32.171 76.9491 31.7867 76.8527 31.1661 76.802C30.5367 76.7506 29.7325 76.75 28.6 76.75H25.4C24.2675 76.75 23.4633 76.7506 22.8339 76.802C22.2133 76.8527 21.829 76.9491 21.5245 77.1042C20.913 77.4158 20.4158 77.913 20.1042 78.5245C19.9491 78.829 19.8527 79.2133 19.802 79.8339C19.7506 80.4633 19.75 81.2675 19.75 82.4V85.5303C19.8189 85.4552 19.8858 85.3848 19.9508 85.3192C20.2582 85.0095 20.5821 84.7486 20.9845 84.6015C21.5942 84.3787 22.263 84.3787 22.8727 84.6015C23.2751 84.7486 23.599 85.0095 23.9063 85.3192C24.2037 85.6189 24.5378 86.0198 24.9416 86.5044L24.9631 86.5301C24.9939 86.5671 25.0499 86.5692 25.0834 86.5345L28.1086 83.4013C28.4917 83.0045 28.811 82.6738 29.0935 82.4258C29.3877 82.1677 29.6923 81.9528 30.0605 81.8303C30.624 81.6428 31.2332 81.6428 31.7967 81.8303C32.2641 81.9858 32.6379 82.2947 33.0201 82.6626C33.3186 82.9499 33.3277 83.4246 33.0404 83.7231C32.7532 84.0215 32.2784 84.0307 31.98 83.7434C31.6248 83.4016 31.4537 83.2971 31.3232 83.2536C31.067 83.1684 30.7902 83.1684 30.534 83.2536C30.436 83.2862 30.3067 83.3568 30.0829 83.5533C29.8526 83.7553 29.5763 84.0407 29.1661 84.4656L26.1625 87.5764C25.5091 88.2532 24.4129 88.2131 23.8107 87.4904C23.38 86.9736 23.0875 86.6236 22.8416 86.3758C22.6005 86.1328 22.4606 86.048 22.3577 86.0104C22.0806 85.9091 21.7766 85.9091 21.4995 86.0104C21.3965 86.048 21.2567 86.1328 21.0156 86.3758C20.7697 86.6236 20.4772 86.9736 20.0464 87.4904L19.9842 87.5651C19.9073 87.6574 19.8658 87.7075 19.8359 87.7469C19.8228 87.7643 19.816 87.7743 19.8126 87.7796C19.8097 87.7841 19.8088 87.786 19.8088 87.786C19.7998 87.8039 19.7885 87.8392 19.7854 87.859C19.785 87.8618 19.7835 87.8705 19.7843 87.9009L19.7848 87.9183C19.7879 87.9705 19.7912 88.0215 19.7947 88.0714L19.7973 88.1055C19.8467 88.7618 19.944 89.1609 20.1043 89.4755C20.2941 89.848 20.5528 90.1782 20.8643 90.4497C21.064 90.6239 21.2856 90.774 21.5245 90.8958C21.829 91.0509 22.2133 91.1473 22.8339 91.198C23.4633 91.2494 24.2675 91.25 25.4 91.25H28C28.4142 91.25 28.7501 91.5858 28.7501 92C28.7501 92.4142 28.4143 92.75 28.0001 92.75H25.3668C24.2748 92.75 23.4093 92.75 22.7118 92.693C22.2206 92.6529 21.7814 92.5827 21.3756 92.4513C21.2657 92.4156 21.1582 92.3755 21.0528 92.3303C20.9822 92.3 20.9124 92.2674 20.8435 92.2323C20.3967 92.0046 19.9916 91.7091 19.6412 91.3588C19.2909 91.0084 18.9954 90.6033 18.7677 90.1565C18.4869 89.6053 18.3653 89.0017 18.307 88.2883C18.3046 88.2585 18.3022 88.2285 18.3 88.1981L18.2987 88.1812C18.2938 88.1169 18.2887 88.0504 18.286 87.9813C18.25 87.3407 18.25 86.5703 18.25 85.633V82.367C18.25 81.2748 18.25 80.4093 18.307 79.7117C18.3653 78.9983 18.4869 78.3947 18.7677 77.8435C19.2231 76.9498 19.9498 76.2231 20.8435 75.7677C21.3947 75.4869 21.9983 75.3653 22.7117 75.307C23.4093 75.25 24.2749 75.25 25.367 75.25Z" fill="#5F5F6A"/>
<path d="M22.25 81C22.25 79.4812 23.4812 78.25 25 78.25C26.5188 78.25 27.75 79.4812 27.75 81C27.75 82.5188 26.5188 83.75 25 83.75C23.4812 83.75 22.25 82.5188 22.25 81ZM25 79.75C24.3096 79.75 23.75 80.3096 23.75 81C23.75 81.6904 24.3096 82.25 25 82.25C25.6904 82.25 26.25 81.6904 26.25 81C26.25 80.3096 25.6904 79.75 25 79.75Z" fill="#5F5F6A"/>
<path d="M33.5303 86.4697C33.2374 86.1768 32.7626 86.1768 32.4697 86.4697C32.1768 86.7626 32.1768 87.2374 32.4697 87.5303L33.9393 89L32.4697 90.4697C32.1768 90.7626 32.1768 91.2374 32.4697 91.5303C32.7626 91.8232 33.2374 91.8232 33.5303 91.5303L35 90.0607L36.4697 91.5303C36.7626 91.8232 37.2374 91.8232 37.5303 91.5303C37.8232 91.2374 37.8232 90.7626 37.5303 90.4697L36.0607 89L37.5303 87.5303C37.8232 87.2374 37.8232 86.7626 37.5303 86.4697C37.2374 86.1768 36.7626 86.1768 36.4697 86.4697L35 87.9393L33.5303 86.4697Z" fill="#5F5F6A"/>
<path fill-rule="evenodd" clip-rule="evenodd" d="M31.6464 141.646C31.8417 141.451 32.1583 141.451 32.3536 141.646L34.5 143.793L36.6464 141.646C36.8417 141.451 37.1583 141.451 37.3536 141.646C37.5488 141.842 37.5488 142.158 37.3536 142.354L35.2071 144.5L37.3536 146.646C37.5488 146.842 37.5488 147.158 37.3536 147.354C37.1583 147.549 36.8417 147.549 36.6464 147.354L34.5 145.207L32.3536 147.354C32.1583 147.549 31.8417 147.549 31.6464 147.354C31.4512 147.158 31.4512 146.842 31.6464 146.646L33.7929 144.5L31.6464 142.354C31.4512 142.158 31.4512 141.842 31.6464 141.646Z" fill="#5F5F6A"/>
<path d="M25.3774 131.5H28.6226C29.7236 131.5 30.5805 131.5 31.2679 131.556C31.9658 131.613 32.5329 131.731 33.043 131.99C33.8897 132.422 34.5781 133.11 35.0095 133.957C35.2694 134.467 35.3868 135.034 35.4438 135.732C35.5 136.419 35.5 137.276 35.5 138.377V138.4C35.5 138.676 35.2761 138.9 35 138.9C34.7239 138.9 34.5 138.676 34.5 138.4C34.5 137.272 34.4996 136.455 34.4472 135.814C34.3952 135.177 34.2946 134.757 34.1185 134.411C33.783 133.752 33.2475 133.217 32.589 132.881C32.2434 132.705 31.8226 132.605 31.1865 132.553C30.5446 132.5 29.7284 132.5 28.6 132.5H25.4C24.2716 132.5 23.4554 132.5 22.8135 132.553C22.1774 132.605 21.7566 132.705 21.411 132.881C20.7525 133.217 20.217 133.752 19.8815 134.411C19.7054 134.757 19.6048 135.177 19.5528 135.814C19.5004 136.455 19.5 137.272 19.5 138.4V141.6C19.5 141.809 19.5 142.007 19.5004 142.196C19.734 141.92 19.9394 141.686 20.1283 141.495C20.4246 141.197 20.7179 140.965 21.0704 140.836C21.6246 140.634 22.2326 140.634 22.7869 140.836C23.1394 140.965 23.4326 141.197 23.7289 141.495C24.0185 141.787 24.3467 142.181 24.756 142.672L24.771 142.69C24.8971 142.841 25.1265 142.85 25.2632 142.708L28.282 139.582C28.6707 139.179 28.9838 138.855 29.2584 138.614C29.5409 138.366 29.8163 138.175 30.1394 138.068C30.6518 137.897 31.2055 137.897 31.7178 138.068C32.1291 138.204 32.469 138.479 32.8468 138.843C33.0458 139.034 33.0518 139.351 32.8604 139.55C32.6689 139.749 32.3524 139.755 32.1534 139.563C31.7936 139.217 31.5889 139.079 31.4022 139.016C31.0948 138.914 30.7625 138.914 30.4551 139.016C30.3121 139.064 30.1536 139.159 29.918 139.365C29.6782 139.576 29.3936 139.87 28.9863 140.292L25.9826 143.403C25.4326 143.972 24.5098 143.939 24.0028 143.33C23.575 142.817 23.2744 142.457 23.0191 142.2C22.767 141.946 22.5964 141.831 22.4436 141.776C22.111 141.654 21.7462 141.654 21.4137 141.776C21.2608 141.831 21.0903 141.946 20.8382 142.2C20.5828 142.457 20.2823 142.817 19.8544 143.33L19.7922 143.405C19.6332 143.596 19.6054 143.634 19.5852 143.674C19.5648 143.715 19.5456 143.775 19.5385 143.82C19.534 143.849 19.5324 143.874 19.5358 143.942C19.5383 143.984 19.5409 144.025 19.5436 144.065L19.548 144.124C19.5985 144.795 19.6997 145.232 19.8816 145.589C20.2171 146.248 20.7526 146.783 21.4111 147.119C21.4558 147.141 21.5017 147.163 21.5492 147.183C21.6394 147.222 21.7353 147.256 21.8389 147.286C22.1025 147.363 22.416 147.415 22.8135 147.447C23.4554 147.5 24.2716 147.5 25.4 147.5H29C29.0293 147.5 29.058 147.503 29.0859 147.507C29.1237 147.514 29.1602 147.525 29.1946 147.539C29.3741 147.615 29.5001 147.793 29.5001 148C29.5001 148.276 29.2762 148.5 29.0001 148.5H25.3774C24.2765 148.5 23.4196 148.5 22.7322 148.444C22.4892 148.424 22.2621 148.397 22.0478 148.359C21.7233 148.301 21.428 148.219 21.1511 148.1C21.0854 148.072 21.0208 148.042 20.957 148.01C20.1103 147.578 19.4219 146.89 18.9905 146.043C18.7306 145.533 18.6132 144.966 18.5562 144.268C18.5533 144.233 18.5506 144.198 18.5481 144.163C18.5432 144.098 18.5385 144.036 18.536 143.975C18.5 143.34 18.5 142.572 18.5 141.623V138.377C18.5 137.276 18.5 136.419 18.5562 135.732C18.6132 135.034 18.7306 134.467 18.9905 133.957C19.4219 133.11 20.1103 132.422 20.957 131.99C21.4671 131.731 22.0342 131.613 22.7321 131.556C23.4195 131.5 24.2764 131.5 25.3774 131.5Z" fill="#5F5F6A"/>
<path d="M25 134.5C23.6193 134.5 22.5 135.619 22.5 137C22.5 138.381 23.6193 139.5 25 139.5C26.3807 139.5 27.5 138.381 27.5 137C27.5 135.619 26.3807 134.5 25 134.5ZM23.5 137C23.5 136.172 24.1716 135.5 25 135.5C25.8284 135.5 26.5 136.172 26.5 137C26.5 137.828 25.8284 138.5 25 138.5C24.1716 138.5 23.5 137.828 23.5 137Z" fill="#5F5F6A"/>
</svg>
