<svg width="56" height="168" viewBox="0 0 56 168" fill="none" xmlns="http://www.w3.org/2000/svg">
<path d="M31.6497 25.3707C32.1568 25.2098 32.7039 25.2098 33.2109 25.3707C33.5467 25.4773 33.8237 25.6644 34.0873 25.8851C34.3383 26.0954 34.621 26.3748 34.9549 26.7048L34.9762 26.7259L36.134 27.8702C36.1438 27.8798 36.1538 27.8897 36.164 27.8997C36.2784 28.0123 36.4133 28.145 36.514 28.3066C36.6018 28.4475 36.6674 28.6028 36.7067 28.7649C36.7522 28.9521 36.751 29.141 36.75 29.2966C36.7499 29.3104 36.7498 29.324 36.7497 29.3373C36.7442 30.7165 36.7162 31.7085 36.2799 32.5257C35.8669 33.2992 35.2114 33.9216 34.4134 34.3097C33.918 34.5505 33.3791 34.6531 32.7505 34.7021C32.1364 34.75 31.3754 34.75 30.4197 34.75H27.5511C26.5954 34.75 25.8344 34.75 25.2203 34.7021C24.5917 34.6531 24.0528 34.5505 23.5574 34.3097C22.7593 33.9216 22.1039 33.2992 21.6909 32.5257C21.424 32.0258 21.3157 31.48 21.2658 30.8471C21.2649 30.8364 21.2641 30.8255 21.2632 30.8144C21.2519 30.676 21.238 30.5044 21.2691 30.3155C21.2955 30.1555 21.3519 29.9878 21.4269 29.8448C21.5151 29.6764 21.6361 29.5386 21.7373 29.4232C21.746 29.4133 21.7546 29.4035 21.763 29.3938L21.8176 29.3313L21.839 29.3068C22.1909 28.9038 22.4867 28.5651 22.7509 28.311C23.0263 28.0462 23.3214 27.8186 23.6892 27.6903C24.2379 27.4989 24.8386 27.4989 25.3873 27.6903C25.7551 27.8186 26.0501 28.0462 26.3256 28.311C26.5898 28.5651 26.8855 28.9038 27.2374 29.3068L27.2531 29.3248L27.2549 29.3248L29.9058 26.7048C30.2397 26.3748 30.5224 26.0954 30.7734 25.8851C31.037 25.6644 31.314 25.4773 31.6497 25.3707ZM32.757 26.8004C32.5453 26.7332 32.3154 26.7332 32.1036 26.8004C32.0306 26.8236 31.9271 26.8755 31.7365 27.0351C31.5386 27.2009 31.2998 27.436 30.9388 27.7927L28.305 30.3959C27.6982 30.9956 26.6927 30.9635 26.129 30.318C25.75 29.884 25.4972 29.5955 25.2858 29.3922C25.0803 29.1946 24.9687 29.1329 24.8933 29.1066C24.6644 29.0268 24.412 29.0268 24.1832 29.1066C24.1078 29.1329 23.9962 29.1946 23.7906 29.3922C23.5793 29.5955 23.3264 29.884 22.9474 30.318L22.8928 30.3805C22.8247 30.4585 22.7904 30.498 22.7664 30.5284C22.7606 30.5357 22.7567 30.5408 22.7544 30.544C22.7536 30.546 22.7528 30.5483 22.7519 30.5509C22.7511 30.5531 22.75 30.5569 22.75 30.5569C22.75 30.5592 22.75 30.5622 22.7501 30.5661C22.7504 30.5784 22.7513 30.5962 22.7532 30.6244C22.7551 30.6528 22.7577 30.6856 22.7612 30.7292C22.8036 31.2684 22.8863 31.5798 23.0141 31.8192C23.2736 32.3053 23.6914 32.7069 24.2133 32.9607C24.4683 33.0847 24.7957 33.1645 25.3369 33.2067C25.8858 33.2495 26.5883 33.25 27.5823 33.25H30.3884C31.3825 33.25 32.0849 33.2495 32.6339 33.2067C33.1751 33.1645 33.5025 33.0847 33.7575 32.9607C34.2794 32.7069 34.6971 32.3053 34.9567 31.8192C35.1848 31.3919 35.2439 30.8051 35.2497 29.3313C35.2502 29.2253 35.2502 29.1715 35.2485 29.1319C35.2481 29.1232 35.2477 29.1172 35.2474 29.1132C35.2463 29.1103 35.245 29.1072 35.2433 29.104C35.2405 29.1006 35.2352 29.0945 35.2264 29.0851C35.1976 29.0539 35.157 29.0135 35.0796 28.937L33.9218 27.7927C33.5609 27.436 33.3221 27.2009 33.1242 27.0351C32.9335 26.8755 32.8301 26.8236 32.757 26.8004Z" fill="#5F5F6A"/>
<path d="M27.5674 19.25H30.4326C31.3851 19.25 32.1456 19.25 32.7599 19.3002C33.3899 19.3516 33.9318 19.4596 34.4295 19.7132C35.2291 20.1207 35.8793 20.7709 36.2868 21.5705C36.5404 22.0682 36.6484 22.6101 36.6998 23.2401C36.75 23.8544 36.75 24.6149 36.75 25.5674V28.4326C36.75 29.3851 36.75 30.1456 36.6998 30.7599C36.6484 31.3899 36.5404 31.9318 36.2868 32.4295C35.8793 33.2291 35.2291 33.8793 34.4295 34.2868C33.9318 34.5404 33.3899 34.6484 32.7599 34.6998C32.1456 34.75 31.3851 34.75 30.4326 34.75H27.5674C26.6149 34.75 25.8544 34.75 25.2401 34.6998C24.6101 34.6484 24.0682 34.5404 23.5705 34.2868C22.7709 33.8793 22.1207 33.2291 21.7132 32.4295C21.4596 31.9318 21.3516 31.3899 21.3002 30.7599C21.25 30.1456 21.25 29.3851 21.25 28.4326V25.5674C21.25 24.6149 21.25 23.8544 21.3002 23.2401C21.3516 22.6101 21.4596 22.0682 21.7132 21.5705C22.1207 20.7709 22.7709 20.1207 23.5705 19.7132C24.0682 19.4596 24.6101 19.3516 25.2401 19.3002C25.8544 19.25 26.6149 19.25 27.5674 19.25ZM25.3623 20.7952C24.825 20.8391 24.5025 20.9218 24.2515 21.0497C23.7341 21.3134 23.3134 21.7341 23.0497 22.2515C22.9218 22.5025 22.8391 22.825 22.7952 23.3623C22.7506 23.9083 22.75 24.6075 22.75 25.6V28.4C22.75 29.3925 22.7506 30.0917 22.7952 30.6377C22.8391 31.175 22.9218 31.4975 23.0497 31.7485C23.3134 32.2659 23.7341 32.6866 24.2515 32.9503C24.5025 33.0782 24.825 33.1609 25.3623 33.2048C25.9083 33.2494 26.6075 33.25 27.6 33.25H30.4C31.3925 33.25 32.0917 33.2494 32.6377 33.2048C33.175 33.1609 33.4975 33.0782 33.7485 32.9503C34.2659 32.6866 34.6866 32.2659 34.9503 31.7485C35.0782 31.4975 35.1609 31.175 35.2048 30.6377C35.2494 30.0917 35.25 29.3925 35.25 28.4V25.6C35.25 24.6075 35.2494 23.9083 35.2048 23.3623C35.1609 22.825 35.0782 22.5025 34.9503 22.2515C34.6866 21.7341 34.2659 21.3134 33.7485 21.0497C33.4975 20.9218 33.175 20.8391 32.6377 20.7952C32.0917 20.7506 31.3925 20.75 30.4 20.75H27.6C26.6075 20.75 25.9083 20.7506 25.3623 20.7952Z" fill="#5F5F6A"/>
<g opacity="0.5">
<path d="M27.5 23.75C27.0858 23.75 26.75 24.0858 26.75 24.5C26.75 24.9142 27.0858 25.25 27.5 25.25C27.9142 25.25 28.25 24.9142 28.25 24.5C28.25 24.0858 27.9142 23.75 27.5 23.75ZM25.25 24.5C25.25 23.2574 26.2574 22.25 27.5 22.25C28.7427 22.25 29.75 23.2574 29.75 24.5C29.75 25.7426 28.7427 26.75 27.5 26.75C26.2574 26.75 25.25 25.7426 25.25 24.5Z" fill="#5F5F6A"/>
<path d="M22.9522 21.9616C23.1 22.3486 22.9061 22.7821 22.5191 22.9299C21.4835 23.3254 20.75 24.328 20.75 25.5V29C20.75 30.9197 20.7593 31.7016 20.958 32.3133C21.3784 33.6072 22.3928 34.6216 23.6867 35.042C24.2984 35.2407 25.0804 35.25 27 35.25H30.5C31.6598 35.25 32.6537 34.5318 33.0576 33.5131C33.2103 33.1281 33.6462 32.9397 34.0313 33.0924C34.4163 33.2451 34.6047 33.681 34.452 34.066C33.8291 35.637 32.2954 36.75 30.5 36.75H27C26.9454 36.75 26.8915 36.75 26.8382 36.75C25.1319 36.7503 24.0907 36.7505 23.2232 36.4686C21.4727 35.8998 20.1002 34.5274 19.5315 32.7768C19.2496 31.9093 19.2497 30.8681 19.25 29.1618C19.25 29.1085 19.25 29.0546 19.25 29V25.5C19.25 23.6857 20.3866 22.1387 21.984 21.5286C22.3709 21.3808 22.8044 21.5747 22.9522 21.9616Z" fill="#5F5F6A"/>
</g>
<path d="M31.6498 81.3707C32.1569 81.2098 32.7039 81.2098 33.211 81.3707C33.5467 81.4773 33.8237 81.6644 34.0873 81.8851C34.3384 82.0954 34.6211 82.3748 34.9549 82.7048L36.1341 83.8702C36.1439 83.8798 36.1539 83.8897 36.164 83.8997C36.2785 84.0123 36.4133 84.145 36.514 84.3066C36.6018 84.4475 36.6674 84.6028 36.7068 84.7649C36.7522 84.9521 36.751 85.141 36.75 85.2966C36.7499 85.3104 36.7498 85.324 36.7498 85.3373C36.7443 86.7165 36.7163 87.7085 36.2799 88.5257C35.8669 89.2992 35.2115 89.9216 34.4134 90.3097C33.9181 90.5505 33.3792 90.6531 32.7506 90.7021C32.1364 90.75 31.3754 90.75 30.4197 90.75H27.5511C26.5954 90.75 25.8344 90.75 25.2203 90.7021C24.5917 90.6531 24.0528 90.5505 23.5574 90.3097C22.7594 89.9216 22.1039 89.2992 21.6909 88.5257C21.424 88.0258 21.3157 87.48 21.2658 86.8471C21.265 86.8364 21.2641 86.8255 21.2632 86.8144C21.252 86.676 21.2381 86.5044 21.2692 86.3155C21.2955 86.1555 21.352 85.9878 21.4269 85.8448C21.5152 85.6764 21.6361 85.5386 21.7373 85.4232C21.746 85.4133 21.7546 85.4035 21.7631 85.3938L21.8391 85.3068C22.191 84.9038 22.4867 84.5651 22.7509 84.311C23.0264 84.0462 23.3214 83.8186 23.6892 83.6903C24.2379 83.4989 24.8386 83.4989 25.3873 83.6903C25.7551 83.8186 26.0502 84.0462 26.3256 84.311C26.5898 84.5651 26.8856 84.9038 27.2375 85.3068L27.2532 85.3248L27.2549 85.3248L29.9058 82.7048C30.2397 82.3748 30.5224 82.0954 30.7734 81.8851C31.0371 81.6644 31.314 81.4773 31.6498 81.3707ZM32.7571 82.8004C32.5453 82.7332 32.3154 82.7332 32.1037 82.8004C32.0306 82.8236 31.9272 82.8755 31.7365 83.0351C31.5386 83.2009 31.2998 83.436 30.9389 83.7927L28.305 86.3959C27.6982 86.9956 26.6927 86.9635 26.129 86.318C25.7501 85.884 25.4972 85.5955 25.2859 85.3922C25.0803 85.1946 24.9687 85.1329 24.8933 85.1066C24.6645 85.0268 24.412 85.0268 24.1832 85.1066C24.1078 85.1329 23.9962 85.1946 23.7907 85.3922C23.5793 85.5955 23.3264 85.884 22.9475 86.318L22.8929 86.3805C22.8248 86.4585 22.7905 86.498 22.7664 86.5284C22.7606 86.5357 22.7568 86.5408 22.7544 86.544C22.7536 86.546 22.7528 86.5483 22.7519 86.5509C22.7512 86.5531 22.75 86.5569 22.75 86.5569C22.75 86.5592 22.7501 86.5622 22.7502 86.5661C22.7505 86.5784 22.7513 86.5962 22.7532 86.6244C22.7552 86.6528 22.7577 86.6856 22.7612 86.7292C22.8037 87.2684 22.8863 87.5798 23.0141 87.8192C23.2737 88.3053 23.6914 88.7069 24.2134 88.9607C24.4683 89.0847 24.7957 89.1645 25.3369 89.2067C25.8859 89.2495 26.5883 89.25 27.5824 89.25H30.3885C31.3825 89.25 32.085 89.2495 32.634 89.2067C33.1752 89.1645 33.5025 89.0847 33.7575 88.9607C34.2794 88.7069 34.6972 88.3053 34.9567 87.8192C35.1849 87.3919 35.2439 86.8051 35.2498 85.3313C35.2502 85.2253 35.2502 85.1715 35.2485 85.1319C35.2481 85.1232 35.2477 85.1172 35.2474 85.1132C35.2464 85.1103 35.245 85.1072 35.2433 85.104C35.2405 85.1006 35.2352 85.0945 35.2265 85.0851C35.1977 85.0539 35.1571 85.0135 35.0796 84.937L33.9219 83.7927C33.5609 83.436 33.3222 83.2009 33.1243 83.0351C32.9336 82.8755 32.8301 82.8236 32.7571 82.8004Z" fill="#5F5F6A"/>
<path d="M27.5674 75.25H30.4326C31.3851 75.25 32.1456 75.25 32.7599 75.3002C33.3899 75.3516 33.9318 75.4596 34.4295 75.7132C35.2292 76.1207 35.8793 76.7709 36.2868 77.5705C36.5404 78.0682 36.6484 78.6101 36.6999 79.2401C36.75 79.8544 36.75 80.6149 36.75 81.5674V84.4326C36.75 85.3851 36.75 86.1456 36.6999 86.7599C36.6484 87.3899 36.5404 87.9318 36.2868 88.4295C35.8793 89.2291 35.2292 89.8793 34.4295 90.2868C33.9318 90.5404 33.3899 90.6484 32.7599 90.6998C32.1456 90.75 31.3851 90.75 30.4327 90.75H27.5674C26.615 90.75 25.8544 90.75 25.2402 90.6998C24.6102 90.6484 24.0683 90.5404 23.5706 90.2868C22.7709 89.8793 22.1207 89.2291 21.7133 88.4295C21.4597 87.9318 21.3517 87.3899 21.3002 86.7599C21.25 86.1456 21.25 85.3851 21.25 84.4326V81.5674C21.25 80.6149 21.25 79.8544 21.3002 79.2401C21.3517 78.6101 21.4597 78.0682 21.7133 77.5705C22.1207 76.7709 22.7709 76.1207 23.5706 75.7132C24.0683 75.4596 24.6102 75.3516 25.2402 75.3002C25.8544 75.25 26.615 75.25 27.5674 75.25ZM25.3623 76.7952C24.8251 76.8391 24.5026 76.9218 24.2516 77.0497C23.7341 77.3134 23.3134 77.7341 23.0498 78.2515C22.9219 78.5025 22.8391 78.825 22.7952 79.3623C22.7506 79.9083 22.75 80.6075 22.75 81.6V84.4C22.75 85.3925 22.7506 86.0917 22.7952 86.6377C22.8391 87.175 22.9219 87.4975 23.0498 87.7485C23.3134 88.2659 23.7341 88.6866 24.2516 88.9503C24.5026 89.0782 24.8251 89.1609 25.3623 89.2048C25.9083 89.2494 26.6076 89.25 27.6 89.25H30.4C31.3925 89.25 32.0917 89.2494 32.6378 89.2048C33.175 89.1609 33.4975 89.0782 33.7485 88.9503C34.266 88.6866 34.6866 88.2659 34.9503 87.7485C35.0782 87.4975 35.1609 87.175 35.2048 86.6377C35.2494 86.0917 35.25 85.3925 35.25 84.4V81.6C35.25 80.6075 35.2494 79.9083 35.2048 79.3623C35.1609 78.825 35.0782 78.5025 34.9503 78.2515C34.6866 77.7341 34.266 77.3134 33.7485 77.0497C33.4975 76.9218 33.175 76.8391 32.6378 76.7952C32.0917 76.7506 31.3925 76.75 30.4 76.75H27.6C26.6076 76.75 25.9083 76.7506 25.3623 76.7952Z" fill="#5F5F6A"/>
<path d="M27.5 79.75C27.0858 79.75 26.75 80.0858 26.75 80.5C26.75 80.9142 27.0858 81.25 27.5 81.25C27.9142 81.25 28.25 80.9142 28.25 80.5C28.25 80.0858 27.9142 79.75 27.5 79.75ZM25.25 80.5C25.25 79.2574 26.2574 78.25 27.5 78.25C28.7427 78.25 29.75 79.2574 29.75 80.5C29.75 81.7426 28.7427 82.75 27.5 82.75C26.2574 82.75 25.25 81.7426 25.25 80.5Z" fill="#5F5F6A"/>
<path d="M22.9522 77.9616C23.1 78.3486 22.9061 78.7821 22.5191 78.9299C21.4835 79.3254 20.75 80.328 20.75 81.5V85C20.75 86.9197 20.7593 87.7016 20.958 88.3133C21.3784 89.6072 22.3928 90.6216 23.6867 91.042C24.2984 91.2407 25.0804 91.25 27 91.25H30.5C31.6598 91.25 32.6537 90.5318 33.0576 89.5131C33.2103 89.1281 33.6462 88.9397 34.0313 89.0924C34.4163 89.2451 34.6047 89.681 34.452 90.066C33.8291 91.637 32.2954 92.75 30.5 92.75H27C26.9454 92.75 26.8915 92.75 26.8382 92.75C25.1319 92.7503 24.0907 92.7505 23.2232 92.4686C21.4727 91.8998 20.1002 90.5274 19.5315 88.7768C19.2496 87.9093 19.2497 86.8681 19.25 85.1618C19.25 85.1085 19.25 85.0546 19.25 85V81.5C19.25 79.6857 20.3866 78.1387 21.984 77.5286C22.3709 77.3808 22.8044 77.5747 22.9522 77.9616Z" fill="#5F5F6A"/>
<path d="M27.5776 131.5H30.4225C31.3835 131.5 32.1355 131.5 32.7395 131.549C33.3541 131.6 33.8594 131.703 34.316 131.936C35.0686 132.319 35.6805 132.931 36.064 133.684C36.2967 134.141 36.4005 134.646 36.4507 135.26C36.5 135.865 36.5 136.616 36.5 137.578V140.422C36.5 141.384 36.5 142.135 36.4507 142.74C36.4005 143.354 36.2967 143.859 36.064 144.316C35.6805 145.069 35.0686 145.681 34.316 146.064C33.8594 146.297 33.3541 146.4 32.7395 146.451C32.1355 146.5 31.3836 146.5 30.4225 146.5H27.5776C26.6165 146.5 25.8645 146.5 25.2605 146.451C24.646 146.4 24.1406 146.297 23.6841 146.064C22.9314 145.681 22.3195 145.069 21.936 144.316C21.7033 143.859 21.5996 143.354 21.5494 142.74C21.5 142.135 21.5 141.384 21.5 140.422V137.578C21.5 136.616 21.5 135.865 21.5494 135.26C21.5996 134.646 21.7033 134.141 21.936 133.684C22.3195 132.931 22.9314 132.319 23.6841 131.936C24.1406 131.703 24.646 131.6 25.2605 131.549C25.8645 131.5 26.6165 131.5 27.5776 131.5ZM25.3419 132.546C24.7892 132.591 24.4302 132.678 24.138 132.827C23.5736 133.115 23.1146 133.574 22.827 134.138C22.6782 134.43 22.5912 134.789 22.546 135.342C22.5004 135.9 22.5 136.612 22.5 137.6V140.4C22.5 141.388 22.5004 142.1 22.546 142.658C22.5912 143.211 22.6782 143.57 22.827 143.862C23.1146 144.426 23.5736 144.885 24.138 145.173C24.4302 145.322 24.7892 145.409 25.3419 145.454C25.9005 145.5 26.6117 145.5 27.6 145.5H30.4C31.3884 145.5 32.0995 145.5 32.6581 145.454C33.2108 145.409 33.5699 145.322 33.862 145.173C34.4265 144.885 34.8854 144.426 35.173 143.862C35.3219 143.57 35.4088 143.211 35.454 142.658C35.4996 142.1 35.5 141.388 35.5 140.4V137.6C35.5 136.612 35.4996 135.9 35.454 135.342C35.4088 134.789 35.3219 134.43 35.173 134.138C34.8854 133.574 34.4265 133.115 33.862 132.827C33.5699 132.678 33.2108 132.591 32.6581 132.546C32.0995 132.5 31.3884 132.5 30.4 132.5H27.6C26.6117 132.5 25.9005 132.5 25.3419 132.546Z" fill="#5F5F6A"/>
<path d="M27.5 135.5C26.9477 135.5 26.5 135.948 26.5 136.5C26.5 137.052 26.9477 137.5 27.5 137.5C28.0523 137.5 28.5 137.052 28.5 136.5C28.5 135.948 28.0523 135.5 27.5 135.5ZM25.5 136.5C25.5 135.395 26.3954 134.5 27.5 134.5C28.6046 134.5 29.5 135.395 29.5 136.5C29.5 137.605 28.6046 138.5 27.5 138.5C26.3954 138.5 25.5 137.605 25.5 136.5Z" fill="#5F5F6A"/>
<path d="M22.7186 134.051C22.8171 134.309 22.6879 134.598 22.4299 134.696C21.3007 135.128 20.5 136.221 20.5 137.5V141C20.5 142.9 20.5062 143.732 20.7203 144.391C21.1654 145.761 22.2395 146.835 23.6094 147.28C24.2683 147.494 25.0998 147.5 27 147.5H30.5C31.7657 147.5 32.8496 146.716 33.29 145.605C33.3918 145.349 33.6824 145.223 33.9391 145.325C34.1958 145.427 34.3214 145.717 34.2196 145.974C33.6331 147.453 32.1895 148.5 30.5 148.5H27C26.9606 148.5 26.9215 148.5 26.8828 148.5C25.1332 148.5 24.1295 148.5 23.3004 148.231C21.626 147.687 20.3132 146.374 19.7692 144.7C19.4998 143.87 19.4999 142.867 19.5 141.117C19.5 141.079 19.5 141.039 19.5 141V137.5C19.5 135.793 20.5694 134.336 22.0731 133.762C22.3311 133.664 22.6201 133.793 22.7186 134.051Z" fill="#5F5F6A"/>
<path d="M31.7254 137.609C32.1833 137.464 32.6775 137.464 33.1353 137.609C33.4273 137.702 33.6753 137.866 33.9268 138.077C34.1698 138.28 34.4462 138.553 34.7854 138.889L35.9583 140.048C35.9673 140.057 35.9762 140.066 35.9851 140.074C36.1041 140.192 36.2177 140.304 36.3018 140.439C36.3757 140.557 36.4308 140.688 36.4638 140.824C36.5017 140.98 36.5008 141.138 36.5 141.3C36.4999 141.312 36.4998 141.324 36.4998 141.336C36.4942 142.731 36.461 143.656 36.0594 144.408C35.672 145.134 35.0561 145.719 34.3041 146.085C33.8488 146.306 33.3452 146.405 32.7311 146.453C32.1268 146.5 31.374 146.5 30.4099 146.5H27.5609C26.5969 146.5 25.8441 146.5 25.2397 146.453C24.6257 146.405 24.1221 146.306 23.6668 146.085C22.9147 145.719 22.2989 145.134 21.9115 144.408C21.6677 143.951 21.5637 143.445 21.5151 142.827C21.5143 142.818 21.5135 142.808 21.5128 142.799C21.5013 142.656 21.4899 142.514 21.5159 142.356C21.5378 142.223 21.5857 142.08 21.6484 141.961C21.7221 141.82 21.8234 141.704 21.9284 141.584C21.9361 141.576 21.9437 141.567 21.9514 141.558L22.0211 141.478C22.3784 141.069 22.668 140.738 22.9242 140.491C23.188 140.238 23.4525 140.038 23.7715 139.926C24.267 139.754 24.8096 139.754 25.305 139.926C25.624 140.038 25.8885 140.238 26.1523 140.491C26.4086 140.738 26.6981 141.069 27.0555 141.478L27.0706 141.496C27.1573 141.595 27.329 141.603 27.4263 141.507L30.0753 138.889C30.4146 138.553 30.6909 138.28 30.934 138.077C31.1854 137.866 31.4335 137.702 31.7254 137.609ZM32.8327 138.562C32.5718 138.479 32.289 138.479 32.028 138.562C31.9112 138.599 31.7788 138.674 31.576 138.843C31.3683 139.017 31.1212 139.261 30.7632 139.615L28.1293 142.218C27.6244 142.717 26.7857 142.69 26.3173 142.154C25.9413 141.723 25.6802 141.425 25.4591 141.212C25.242 141.003 25.0998 140.914 24.9757 140.871C24.6935 140.772 24.383 140.772 24.1009 140.871C23.9767 140.914 23.8346 141.003 23.6174 141.212C23.3963 141.425 23.1352 141.723 22.7592 142.154L22.7046 142.216C22.5626 142.379 22.546 142.402 22.5341 142.425C22.5205 142.451 22.507 142.491 22.5026 142.519C22.4986 142.542 22.4972 142.561 22.512 142.749C22.5557 143.304 22.6426 143.654 22.7936 143.937C23.0787 144.471 23.5361 144.909 24.104 145.186C24.3991 145.329 24.7617 145.413 25.3175 145.456C25.8784 145.5 26.5923 145.5 27.5824 145.5H30.3885C31.3786 145.5 32.0924 145.5 32.6534 145.456C33.2092 145.413 33.5718 145.329 33.8668 145.186C34.4348 144.909 34.8921 144.471 35.1773 143.937C35.4401 143.445 35.494 142.79 35.4998 141.332C35.5007 141.11 35.4974 141.082 35.4921 141.06C35.4845 141.029 35.4712 140.997 35.4531 140.968C35.4393 140.945 35.418 140.92 35.2554 140.759L34.0976 139.615C33.7396 139.261 33.4924 139.017 33.2848 138.843C33.0819 138.674 32.9496 138.599 32.8327 138.562Z" fill="#5F5F6A"/>
</svg>
