<svg width="56" height="168" viewBox="0 0 56 168" fill="none" xmlns="http://www.w3.org/2000/svg">
<path d="M19.25 28.1455C19.2102 27.4995 19.2703 26.8227 19.4514 26.1888L20.2839 23.2753C20.3033 23.2071 20.323 23.1373 20.343 23.0662C20.6873 21.8426 21.1429 20.2235 22.8447 19.5284C23.5287 19.249 24.3183 19.2494 25.4635 19.25H30.5358C31.681 19.2494 32.4706 19.249 33.1547 19.5284C34.8565 20.2235 35.3121 21.8426 35.6563 23.0662C35.6764 23.1373 35.696 23.2071 35.7155 23.2753L36.5479 26.1888C36.728 26.8191 36.7884 27.4918 36.75 28.1344C36.7499 28.9868 36.7479 30.3478 36.7088 31.5939C36.6881 32.2498 36.6569 32.8851 36.6088 33.4028C36.5849 33.661 36.5557 33.9011 36.5193 34.1052C36.4867 34.2875 36.4363 34.516 36.3413 34.7025C35.9818 35.4081 35.4081 35.9817 34.7025 36.3413C34.2582 36.5676 33.7781 36.662 33.2315 36.7066C32.7006 36.75 32.045 36.75 31.2322 36.75H24.7679C23.9551 36.75 23.2994 36.75 22.7685 36.7066C22.2219 36.662 21.7418 36.5676 21.2975 36.3413C20.5919 35.9817 20.0183 35.4081 19.6587 34.7025C19.5637 34.516 19.5133 34.2875 19.4807 34.1052C19.4443 33.9011 19.4151 33.661 19.3912 33.4028C19.3431 32.8851 19.3119 32.2498 19.2912 31.5939C19.2522 30.3532 19.2501 28.9986 19.25 28.1455ZM23.4118 20.917C22.4052 21.3282 22.1357 22.2541 21.7261 23.6874L20.8937 26.6008C20.7686 27.0386 20.7203 27.5237 20.7442 28H20.75C20.75 28.0312 20.75 28.0633 20.75 28.0961C20.7529 28.1368 20.7563 28.1774 20.7602 28.218C20.8644 29.2883 21.7114 30.1353 22.7817 30.2394C22.9689 30.2576 23.166 30.2635 23.3775 30.2634L23.4234 30.2633C23.6021 30.2628 23.7905 30.2624 23.9681 30.2988C24.4574 30.3991 24.8809 30.7041 25.1311 31.1363C25.2219 31.2931 25.2792 31.466 25.3331 31.6284L25.3465 31.6688C25.4688 32.0358 25.5673 32.1286 25.6112 32.1596C25.6578 32.1924 25.7765 32.25 26.1529 32.25H29.8464C30.2333 32.25 30.3524 32.1859 30.3957 32.154C30.4417 32.1202 30.5338 32.0258 30.6528 31.6688L30.6663 31.6284C30.7201 31.466 30.7775 31.2931 30.8682 31.1363C31.1185 30.7041 31.542 30.3991 32.0312 30.2988C32.2088 30.2624 32.3973 30.2628 32.576 30.2633L32.6218 30.2634C32.8334 30.2635 33.0304 30.2576 33.2176 30.2394C34.2879 30.1353 35.1349 29.2883 35.2391 28.218C35.2433 28.1743 35.247 28.1304 35.25 28.0865C35.25 28.057 35.25 28.0282 35.25 28H35.2551C35.2791 27.5237 35.2307 27.0386 35.1056 26.6008L34.2732 23.6874C33.8637 22.2541 33.5942 21.3282 32.5875 20.917C32.2117 20.7636 31.744 20.75 30.379 20.75H25.6203C24.2553 20.75 23.7876 20.7636 23.4118 20.917ZM20.7762 31.0199C20.7803 31.1968 20.785 31.373 20.7905 31.5468C20.8108 32.1912 20.8408 32.7913 20.8847 33.2641C20.9067 33.5012 20.9312 33.6951 20.9574 33.8414C20.9765 33.9484 20.992 34.0027 20.9973 34.0213C20.9988 34.0264 20.9995 34.0288 20.9992 34.0289C20.999 34.029 20.9977 34.0264 20.9952 34.0215C21.211 34.4448 21.5552 34.789 21.9785 35.0048C22.176 35.1054 22.4368 35.1745 22.8907 35.2116C23.3533 35.2494 23.9475 35.25 24.8 35.25H31.2C32.0525 35.25 32.6467 35.2494 33.1093 35.2116C33.5632 35.1745 33.824 35.1054 34.0215 35.0048C34.4429 34.7901 34.7858 34.4481 35.0017 34.0274C35.002 34.027 35.0022 34.0265 35.0026 34.0258C35.0031 34.0247 35.0039 34.0232 35.0048 34.0215C35.0038 34.0235 35.0027 34.0254 35.0017 34.0274C35.0012 34.0284 35.0009 34.029 35.0008 34.0289C35.0005 34.0288 35.0012 34.0264 35.0027 34.0213C35.008 34.0027 35.0235 33.9483 35.0426 33.8414C35.0688 33.6951 35.0933 33.5012 35.1153 33.2641C35.1592 32.7913 35.1892 32.1912 35.2095 31.5468C35.215 31.3728 35.2197 31.1965 35.2238 31.0194C34.6937 31.4103 34.0564 31.6649 33.3629 31.7324C33.1084 31.7571 32.8579 31.7636 32.6206 31.7634C32.502 31.7633 32.4332 31.7633 32.3813 31.7652C32.3488 31.7664 32.3349 31.768 32.3314 31.7685C32.3318 31.7684 32.3321 31.7683 32.3325 31.7683C32.331 31.7686 32.3312 31.7685 32.3314 31.7685C32.3309 31.7685 32.3315 31.7685 32.3314 31.7685C32.2621 31.783 32.2018 31.8266 32.1664 31.8879C32.1687 31.8838 32.164 31.8902 32.1489 31.9303C32.1319 31.9755 32.1116 32.036 32.0759 32.1432C31.9238 32.5993 31.7061 33.0519 31.2853 33.3618C30.8619 33.6736 30.3577 33.75 29.8464 33.75H26.1529C25.6721 33.75 25.1738 33.6866 24.7468 33.3854C24.317 33.0824 24.0851 32.6281 23.9235 32.1431C23.8877 32.036 23.8675 31.9755 23.8504 31.9303C23.8398 31.902 23.8343 31.8905 23.8328 31.8876C23.7973 31.8265 23.7371 31.783 23.6679 31.7685C23.6645 31.768 23.6506 31.7664 23.618 31.7652C23.5661 31.7633 23.4974 31.7633 23.3788 31.7634C23.1415 31.7636 22.8909 31.7571 22.6364 31.7324C21.9432 31.6649 21.3062 31.4105 20.7762 31.0199Z" fill="#5F5F6A"/>
<path opacity="0.5" d="M28 22.25C28.4142 22.25 28.75 22.5858 28.75 23V27.1893L29.4697 26.4697C29.7626 26.1768 30.2374 26.1768 30.5303 26.4697C30.8232 26.7626 30.8232 27.2374 30.5303 27.5303L28.5303 29.5303C28.2374 29.8232 27.7626 29.8232 27.4697 29.5303L25.4697 27.5303C25.1768 27.2374 25.1768 26.7626 25.4697 26.4697C25.7626 26.1768 26.2374 26.1768 26.5303 26.4697L27.25 27.1893V23C27.25 22.5858 27.5858 22.25 28 22.25Z" fill="#5F5F6A"/>
<path d="M28.75 79C28.75 78.5858 28.4142 78.25 28 78.25C27.5858 78.25 27.25 78.5858 27.25 79V83.1893L26.5303 82.4697C26.2374 82.1768 25.7626 82.1768 25.4697 82.4697C25.1768 82.7626 25.1768 83.2374 25.4697 83.5303L27.4697 85.5303C27.7626 85.8232 28.2374 85.8232 28.5303 85.5303L30.5303 83.5303C30.8232 83.2374 30.8232 82.7626 30.5303 82.4697C30.2374 82.1768 29.7626 82.1768 29.4697 82.4697L28.75 83.1893V79Z" fill="#5F5F6A"/>
<path d="M19.4514 82.1888C19.2703 82.8227 19.2102 83.4995 19.25 84.1455C19.2501 84.9986 19.2522 86.3532 19.2912 87.5939C19.3119 88.2498 19.3431 88.8851 19.3912 89.4028C19.4151 89.661 19.4443 89.9011 19.4807 90.1052C19.5133 90.2875 19.5637 90.516 19.6587 90.7025C20.0183 91.4081 20.5919 91.9817 21.2975 92.3413C21.7418 92.5676 22.2219 92.662 22.7685 92.7066C23.2994 92.75 23.955 92.75 24.7678 92.75H31.2321C32.0449 92.75 32.7006 92.75 33.2315 92.7066C33.7781 92.662 34.2582 92.5676 34.7025 92.3413C35.4081 91.9817 35.9818 91.4081 36.3413 90.7025C36.4363 90.516 36.4867 90.2875 36.5193 90.1052C36.5557 89.9011 36.5849 89.661 36.6088 89.4028C36.6569 88.8851 36.6881 88.2498 36.7088 87.5939C36.7479 86.3478 36.7499 84.9868 36.75 84.1344C36.7884 83.4918 36.728 82.8191 36.5479 82.1888L35.7155 79.2753C35.696 79.2071 35.6764 79.1373 35.6563 79.0662C35.3121 77.8426 34.8565 76.2235 33.1547 75.5284C32.4706 75.249 31.681 75.2494 30.5358 75.25H25.4635C24.3183 75.2494 23.5287 75.249 22.8447 75.5284C21.1429 76.2235 20.6873 77.8426 20.343 79.0662C20.323 79.1373 20.3033 79.2071 20.2839 79.2753L19.4514 82.1888ZM25.6203 76.75H30.379C31.744 76.75 32.2117 76.7636 32.5875 76.917C33.5942 77.3282 33.8637 78.2541 34.2732 79.6874L35.1056 82.6008C35.2307 83.0386 35.2791 83.5237 35.2551 84H35.25L35.25 84.0865C35.247 84.1304 35.2433 84.1743 35.2391 84.218C35.1349 85.2883 34.2879 86.1353 33.2176 86.2394C33.0304 86.2576 32.8334 86.2635 32.6218 86.2634L32.576 86.2633C32.3973 86.2628 32.2088 86.2624 32.0312 86.2988C31.542 86.3991 31.1185 86.7041 30.8682 87.1363C30.7775 87.2931 30.7201 87.466 30.6663 87.6284L30.6528 87.6688C30.5338 88.0258 30.4417 88.1202 30.3957 88.154C30.3524 88.1859 30.2333 88.25 29.8464 88.25H26.1529C25.7765 88.25 25.6578 88.1924 25.6112 88.1596C25.5673 88.1286 25.4688 88.0358 25.3465 87.6688L25.3331 87.6284C25.2792 87.466 25.2219 87.2931 25.1311 87.1363C24.8809 86.7041 24.4574 86.3991 23.9681 86.2988C23.7905 86.2624 23.6021 86.2628 23.4234 86.2633L23.3775 86.2634C23.166 86.2635 22.9689 86.2576 22.7817 86.2394C21.7114 86.1353 20.8644 85.2883 20.7602 84.218C20.7563 84.1774 20.7529 84.1368 20.75 84.0961L20.75 84H20.7442C20.7203 83.5237 20.7686 83.0386 20.8937 82.6008L21.7261 79.6874C22.1357 78.2541 22.4052 77.3282 23.4118 76.917C23.7876 76.7636 24.2553 76.75 25.6203 76.75ZM20.7905 87.5468C20.785 87.373 20.7803 87.1968 20.7762 87.0199C21.3062 87.4105 21.9432 87.6649 22.6364 87.7324C22.8909 87.7571 23.1415 87.7636 23.3788 87.7634C23.4974 87.7633 23.5661 87.7633 23.618 87.7652C23.6506 87.7664 23.6645 87.768 23.6679 87.7685C23.7371 87.783 23.7973 87.8265 23.8328 87.8876C23.8343 87.8905 23.8398 87.902 23.8504 87.9303C23.8675 87.9755 23.8877 88.036 23.9235 88.1431C24.0851 88.6281 24.317 89.0824 24.7468 89.3854C25.1738 89.6866 25.6721 89.75 26.1529 89.75H29.8464C30.3577 89.75 30.8619 89.6736 31.2853 89.3618C31.7061 89.0519 31.9238 88.5993 32.0759 88.1432C32.1116 88.036 32.1319 87.9755 32.1489 87.9303C32.164 87.8902 32.1687 87.8838 32.1664 87.8879C32.2018 87.8266 32.2621 87.783 32.3314 87.7685C32.3349 87.768 32.3488 87.7664 32.3813 87.7652C32.4332 87.7633 32.502 87.7633 32.6206 87.7634C32.8579 87.7636 33.1084 87.7571 33.3629 87.7324C34.0564 87.6649 34.6937 87.4103 35.2238 87.0194C35.2197 87.1965 35.215 87.3728 35.2095 87.5468C35.1892 88.1912 35.1592 88.7913 35.1153 89.2641C35.0933 89.5012 35.0688 89.6951 35.0426 89.8414C35.0235 89.9483 35.008 90.0027 35.0027 90.0213C35.002 90.0236 35.0015 90.0253 35.0012 90.0266C34.7853 90.4472 34.4429 90.7901 34.0215 91.0048C33.824 91.1054 33.5632 91.1745 33.1093 91.2116C32.6467 91.2494 32.0525 91.25 31.2 91.25H24.8C23.9475 91.25 23.3533 91.2494 22.8907 91.2116C22.4368 91.1745 22.176 91.1054 21.9785 91.0048C21.5552 90.789 21.211 90.4448 20.9952 90.0215C20.9977 90.0264 20.999 90.029 20.9992 90.0289C20.9995 90.0288 20.9988 90.0264 20.9973 90.0213C20.992 90.0027 20.9765 89.9484 20.9574 89.8414C20.9312 89.6951 20.9067 89.5012 20.8847 89.2641C20.8408 88.7913 20.8108 88.1912 20.7905 87.5468ZM32.3314 87.7685C32.331 87.7685 32.3313 87.7685 32.3314 87.7685V87.7685Z" fill="#5F5F6A"/>
<path d="M28.5 135C28.5 134.724 28.2761 134.5 28 134.5C27.7239 134.5 27.5 134.724 27.5 135V139.793L26.3536 138.646C26.1583 138.451 25.8417 138.451 25.6464 138.646C25.4512 138.842 25.4512 139.158 25.6464 139.354L27.6464 141.354C27.8417 141.549 28.1583 141.549 28.3536 141.354L30.3536 139.354C30.5488 139.158 30.5488 138.842 30.3536 138.646C30.1583 138.451 29.8417 138.451 29.6464 138.646L28.5 139.793V135Z" fill="#5F5F6A"/>
<path d="M19.6918 138.257C19.5185 138.864 19.4608 139.515 19.5 140.138C19.5001 140.99 19.5021 142.346 19.5411 143.586C19.5617 144.24 19.5927 144.869 19.6401 145.38C19.6637 145.634 19.6921 145.867 19.7268 146.061C19.759 146.241 19.8045 146.438 19.8815 146.589C20.217 147.248 20.7525 147.783 21.411 148.119C21.8141 148.324 22.2577 148.414 22.7889 148.457C23.3095 148.5 23.9565 148.5 24.7777 148.5H31.2222C32.0434 148.5 32.6905 148.5 33.2111 148.457C33.7423 148.414 34.1859 148.324 34.589 148.119C35.2475 147.783 35.783 147.248 36.1185 146.589C36.1955 146.438 36.241 146.241 36.2732 146.061C36.3079 145.867 36.3363 145.634 36.3599 145.38C36.4073 144.869 36.4383 144.24 36.4589 143.586C36.498 142.341 36.4999 140.979 36.5 140.127C36.5378 139.507 36.4798 138.86 36.3075 138.257L35.4751 135.344C35.4569 135.28 35.4387 135.216 35.4203 135.151C35.0699 133.91 34.6452 132.407 33.0601 131.76C32.4228 131.5 31.681 131.5 30.4974 131.5H25.502C24.3183 131.5 23.5765 131.5 22.9392 131.76C21.3541 132.407 20.9295 133.91 20.579 135.151C20.5606 135.216 20.5424 135.28 20.5242 135.344L19.6918 138.257ZM25.6203 132.5H30.379C31.7216 132.5 32.2497 132.509 32.682 132.686C33.8071 133.145 34.1059 134.191 34.4989 135.567L35.346 138.532C35.4782 138.995 35.5291 139.503 35.5054 140H35.5L35.5 140.095C35.4967 140.144 35.4927 140.193 35.4879 140.242C35.3722 141.431 34.4311 142.373 33.2418 142.488C33.0434 142.508 32.8375 142.514 32.6216 142.513L32.5817 142.513C32.3951 142.513 32.2326 142.513 32.0814 142.544C31.6621 142.63 31.2991 142.891 31.0846 143.262C31.0073 143.395 30.9579 143.544 30.9017 143.713L30.89 143.748C30.7655 144.121 30.6524 144.276 30.544 144.355C30.4374 144.434 30.254 144.5 29.8465 144.5H26.1529C25.7591 144.5 25.5772 144.441 25.4672 144.364C25.3589 144.288 25.2382 144.134 25.1093 143.748L25.0977 143.713C25.0414 143.544 24.992 143.395 24.9147 143.262C24.7003 142.891 24.3372 142.63 23.9179 142.544C23.7667 142.513 23.6042 142.513 23.4176 142.513L23.3777 142.513C23.1619 142.514 22.9559 142.508 22.7575 142.488C21.5683 142.373 20.6272 141.431 20.5114 140.242C20.507 140.197 20.5032 140.151 20.5 140.105L20.5 140H20.4939C20.4702 139.503 20.5211 138.995 20.6533 138.532L21.5004 135.567C21.8934 134.191 22.1922 133.145 23.3173 132.686C23.7496 132.509 24.2777 132.5 25.6203 132.5ZM20.5406 143.555C20.5294 143.197 20.5212 142.828 20.5154 142.465C21.0741 143.028 21.8235 143.402 22.6606 143.484C22.9039 143.507 23.1456 143.514 23.3786 143.513C23.6278 143.513 23.6793 143.516 23.7171 143.523C23.8567 143.552 23.9779 143.639 24.0493 143.763C24.0688 143.796 24.086 143.84 24.1606 144.064C24.3158 144.529 24.5254 144.923 24.8908 145.181C25.2545 145.438 25.6895 145.5 26.1529 145.5H29.8465C30.3369 145.5 30.777 145.426 31.137 145.161C31.4953 144.897 31.6921 144.504 31.8387 144.064C31.9133 143.84 31.9305 143.796 31.95 143.763C32.0214 143.639 32.1426 143.552 32.2823 143.523C32.32 143.516 32.3716 143.513 32.6208 143.513C32.8538 143.514 33.0954 143.507 33.3387 143.484C34.1762 143.402 34.9258 143.028 35.4847 142.465C35.4788 142.828 35.4706 143.196 35.4594 143.555C35.4391 144.201 35.4088 144.807 35.3642 145.287C35.3419 145.528 35.3166 145.729 35.2887 145.885C35.2748 145.963 35.2612 146.024 35.2485 146.071C35.2368 146.113 35.2288 146.132 35.2275 146.135C34.9878 146.605 34.6054 146.988 34.135 147.228C33.8963 147.349 33.599 147.422 33.1297 147.461C32.6545 147.5 32.0483 147.5 31.2 147.5H24.8C23.9517 147.5 23.3455 147.5 22.8703 147.461C22.401 147.422 22.1037 147.349 21.865 147.228C21.3946 146.988 21.0121 146.605 20.7724 146.135C20.7711 146.132 20.7632 146.113 20.7515 146.071C20.7388 146.024 20.7252 145.963 20.7113 145.885C20.6834 145.729 20.6581 145.528 20.6358 145.287C20.5912 144.807 20.5609 144.201 20.5406 143.555Z" fill="#5F5F6A"/>
</svg>
