<svg width="56" height="224" viewBox="0 0 56 224" fill="none" xmlns="http://www.w3.org/2000/svg">
<path d="M22.8134 26.991L23.2861 28.4965H22.1352L22.6229 26.9902C22.6529 26.8975 22.7842 26.898 22.8134 26.991Z" fill="#5F5F6A"/>
<path d="M27.0162 29.3082C27.0162 29.4187 27.1056 29.5091 27.2159 29.5135L27.2577 29.5152C27.7897 29.5372 28.5574 29.569 28.5574 28.934C28.5574 28.2463 27.7901 28.2718 27.2428 28.2899L27.2159 28.2908C27.1055 28.2944 27.0162 28.3847 27.0162 28.4951V29.3082Z" fill="#5F5F6A"/>
<path d="M27.0162 27.3022C27.0162 27.4126 27.1056 27.5031 27.216 27.5065C27.7009 27.5214 28.3883 27.5398 28.3883 26.9354C28.3883 26.3397 27.7022 26.3639 27.2205 26.381L27.216 26.3811C27.1056 26.385 27.0162 26.4756 27.0162 26.586V27.3022Z" fill="#5F5F6A"/>
<path fill-rule="evenodd" clip-rule="evenodd" d="M17.5 25C17.5 23.6193 18.6193 22.5 20 22.5H36C37.3807 22.5 38.5 23.6193 38.5 25V31C38.5 32.3807 37.3807 33.5 36 33.5H20C18.6193 33.5 17.5 32.3807 17.5 31V25ZM21.6263 30.0684C21.5429 30.3257 21.3033 30.5 21.0328 30.5C20.6061 30.5 20.3054 30.0812 20.4418 29.6769L21.6522 26.0894C21.7894 25.6829 22.1706 25.4091 22.5997 25.4091H22.8019C23.231 25.4091 23.6122 25.6829 23.7494 26.0894L24.9607 29.6795C25.0967 30.0825 24.7969 30.5 24.3716 30.5C24.1 30.5 23.8598 30.3237 23.7784 30.0645L23.5795 29.4311H21.8326L21.6263 30.0684ZM26.7857 30.5C26.2334 30.5 25.7857 30.0523 25.7857 29.5V26.4091C25.7857 25.8568 26.2334 25.4091 26.7857 25.4091H27.9086C29.0577 25.4091 29.6436 25.9345 29.6436 26.6968C29.6436 27.2752 29.255 27.6808 28.6916 27.8005V27.8502C29.3096 27.8801 29.8425 28.3383 29.8425 29.0757C29.8425 29.8924 29.2026 30.5 28.0701 30.5H26.7857Z" fill="#5F5F6A"/>
<path opacity="0.5" d="M36 78.5C37.3807 78.5 38.5 79.6193 38.5 81V87C38.5 88.3807 37.3807 89.5 36 89.5H20C18.6193 89.5 17.5 88.3807 17.5 87V81C17.5 79.6193 18.6193 78.5 20 78.5H36Z" fill="#5F5F6A"/>
<path d="M22.8018 81.4091C23.2307 81.4092 23.6119 81.6833 23.749 82.0898L24.96 85.6796C25.0959 86.0826 24.7964 86.4999 24.3711 86.4999C24.0995 86.4999 23.8597 86.3235 23.7783 86.0644L23.5801 85.4316H21.832L21.626 86.0683C21.5427 86.3256 21.3027 86.4999 21.0322 86.4999C20.6056 86.4998 20.305 86.0809 20.4414 85.6767L21.6514 82.0898C21.7885 81.6832 22.1705 81.4091 22.5996 81.4091H22.8018ZM27.9082 81.4091C29.0574 81.4091 29.6436 81.935 29.6436 82.6972C29.6434 83.2753 29.2546 83.6811 28.6914 83.8007V83.8505C29.3093 83.8805 29.8418 84.3388 29.8418 85.0761C29.8416 85.8926 29.2016 86.4999 28.0693 86.4999H26.7852C26.2329 86.4999 25.7852 86.0522 25.7852 85.4999V82.4091C25.7852 81.8569 26.2329 81.4092 26.7852 81.4091H27.9082ZM27.2158 84.291C27.1054 84.2946 27.0157 84.3846 27.0156 84.4951V85.3085C27.0158 85.4188 27.1056 85.5091 27.2158 85.5136C27.7484 85.5352 28.5566 85.5852 28.5566 84.9335C28.5563 84.2351 27.7644 84.273 27.2158 84.291ZM22.8135 82.9911C22.7843 82.8982 22.6521 82.8975 22.6221 82.9902L22.1348 84.496H23.2861L22.8135 82.9911ZM27.2158 82.3808C27.1055 82.3847 27.0157 82.4755 27.0156 82.5859V83.3017C27.0156 83.4122 27.1054 83.5034 27.2158 83.5068C27.7007 83.5217 28.3876 83.5397 28.3877 82.9355C28.3877 82.338 27.6977 82.3638 27.2158 82.3808Z" fill="#5F5F6A"/>
<path fill-rule="evenodd" clip-rule="evenodd" d="M26.7857 142.5C26.2334 142.5 25.7857 142.052 25.7857 141.5V138.409C25.7857 137.857 26.2334 137.409 26.7857 137.409H27.9086C29.0577 137.409 29.6436 137.935 29.6436 138.697C29.6436 139.275 29.255 139.681 28.6916 139.8V139.85C29.3096 139.88 29.8425 140.338 29.8425 141.076C29.8425 141.892 29.2026 142.5 28.0701 142.5H26.7857ZM27.0162 141.308C27.0162 141.419 27.1056 141.509 27.2159 141.514L27.2577 141.515C27.7897 141.537 28.5574 141.569 28.5574 140.934C28.5574 140.246 27.7901 140.272 27.2428 140.29L27.2159 140.291C27.1055 140.294 27.0162 140.385 27.0162 140.495V141.308ZM27.0162 139.302C27.0162 139.413 27.1056 139.503 27.216 139.507C27.7009 139.521 28.3883 139.54 28.3883 138.935C28.3883 138.34 27.7022 138.364 27.2205 138.381L27.216 138.381C27.1056 138.385 27.0162 138.476 27.0162 138.586V139.302Z" fill="#5F5F6A"/>
<path fill-rule="evenodd" clip-rule="evenodd" d="M21.0328 142.5C21.3033 142.5 21.5429 142.326 21.6262 142.068L21.8326 141.431H23.5795L23.7784 142.065C23.8598 142.324 24.1 142.5 24.3716 142.5C24.7969 142.5 25.0967 142.083 24.9607 141.679L23.7494 138.089C23.6122 137.683 23.231 137.409 22.8019 137.409H22.5997C22.1706 137.409 21.7894 137.683 21.6522 138.089L20.4418 141.677C20.3054 142.081 20.6061 142.5 21.0328 142.5ZM23.2861 140.496L22.8134 138.991C22.7842 138.898 22.6529 138.897 22.6229 138.99L22.1352 140.496H23.2861Z" fill="#5F5F6A"/>
<path fill-rule="evenodd" clip-rule="evenodd" d="M17.25 137C17.25 135.481 18.4812 134.25 20 134.25H36C37.5188 134.25 38.75 135.481 38.75 137V143C38.75 144.519 37.5188 145.75 36 145.75H20C18.4812 145.75 17.25 144.519 17.25 143V137ZM20 135.75C19.3096 135.75 18.75 136.31 18.75 137V143C18.75 143.69 19.3096 144.25 20 144.25H36C36.6904 144.25 37.25 143.69 37.25 143V137C37.25 136.31 36.6904 135.75 36 135.75H20Z" fill="#5F5F6A"/>
<path fill-rule="evenodd" clip-rule="evenodd" d="M26.7857 198.5C26.2334 198.5 25.7857 198.052 25.7857 197.5V194.409C25.7857 193.857 26.2334 193.409 26.7857 193.409H27.9086C29.0577 193.409 29.6436 193.935 29.6436 194.697C29.6436 195.275 29.255 195.681 28.6916 195.8V195.85C29.3096 195.88 29.8425 196.338 29.8425 197.076C29.8425 197.892 29.2026 198.5 28.0701 198.5H26.7857ZM27.0162 197.308C27.0162 197.419 27.1056 197.509 27.2159 197.514L27.2577 197.515C27.7897 197.537 28.5574 197.569 28.5574 196.934C28.5574 196.246 27.7901 196.272 27.2428 196.29L27.2159 196.291C27.1055 196.294 27.0162 196.385 27.0162 196.495V197.308ZM27.0162 195.302C27.0162 195.413 27.1056 195.503 27.216 195.507C27.7009 195.521 28.3883 195.54 28.3883 194.935C28.3883 194.34 27.7022 194.364 27.2205 194.381L27.216 194.381C27.1056 194.385 27.0162 194.476 27.0162 194.586V195.302Z" fill="#5F5F6A"/>
<path fill-rule="evenodd" clip-rule="evenodd" d="M21.0328 198.5C21.3033 198.5 21.5429 198.326 21.6262 198.068L21.8326 197.431H23.5795L23.7784 198.065C23.8598 198.324 24.1 198.5 24.3716 198.5C24.7969 198.5 25.0967 198.083 24.9607 197.679L23.7494 194.089C23.6122 193.683 23.231 193.409 22.8019 193.409H22.5997C22.1706 193.409 21.7894 193.683 21.6522 194.089L20.4418 197.677C20.3054 198.081 20.6061 198.5 21.0328 198.5ZM23.2861 196.496L22.8134 194.991C22.7842 194.898 22.6529 194.897 22.6229 194.99L22.1352 196.496H23.2861Z" fill="#5F5F6A"/>
<path fill-rule="evenodd" clip-rule="evenodd" d="M20 191C18.8954 191 18 191.895 18 193V199C18 200.105 18.8954 201 20 201H36C37.1046 201 38 200.105 38 199V193C38 191.895 37.1046 191 36 191H20ZM36 192H20C19.4477 192 19 192.448 19 193V199C19 199.552 19.4477 200 20 200H36C36.5523 200 37 199.552 37 199V193C37 192.448 36.5523 192 36 192Z" fill="#5F5F6A"/>
</svg>
