<svg width="56" height="168" viewBox="0 0 56 168" fill="none" xmlns="http://www.w3.org/2000/svg">
<path d="M23.5 20.75C23.0858 20.75 22.75 21.0858 22.75 21.5C22.75 21.9142 23.0858 22.25 23.5 22.25C23.9142 22.25 24.25 21.9142 24.25 21.5C24.25 21.0858 23.9142 20.75 23.5 20.75ZM21.25 21.5C21.25 20.2574 22.2574 19.25 23.5 19.25C24.7426 19.25 25.75 20.2574 25.75 21.5C25.75 22.4797 25.1239 23.3131 24.25 23.622V27.5279C24.3374 27.4644 24.4273 27.4051 24.5195 27.3496C25.4686 26.7784 26.6848 26.6113 27.7183 26.4692C27.7785 26.461 27.838 26.4528 27.8968 26.4446C29.0581 26.2833 29.9995 26.1234 30.6737 25.6677C31.1793 25.326 31.6106 24.7585 31.7221 23.6119C30.8628 23.2953 30.25 22.4692 30.25 21.5C30.25 20.2574 31.2574 19.25 32.5 19.25C33.7426 19.25 34.75 20.2574 34.75 21.5C34.75 22.4887 34.1123 23.3285 33.2257 23.6304C33.0997 25.2067 32.4883 26.2517 31.5138 26.9104C30.5005 27.5953 29.1919 27.7792 28.1032 27.9304L28.0791 27.9337C26.9099 28.0961 25.9715 28.2264 25.293 28.6348C24.9781 28.8243 24.7312 29.0702 24.5556 29.4163C24.3761 29.7703 24.25 30.272 24.25 31V32.378C25.1239 32.6869 25.75 33.5203 25.75 34.5C25.75 35.7426 24.7426 36.75 23.5 36.75C22.2574 36.75 21.25 35.7426 21.25 34.5C21.25 33.5203 21.8761 32.6869 22.75 32.378V23.622C21.8761 23.3131 21.25 22.4797 21.25 21.5ZM32.5 20.75C32.0858 20.75 31.75 21.0858 31.75 21.5C31.75 21.9142 32.0858 22.25 32.5 22.25C32.9142 22.25 33.25 21.9142 33.25 21.5C33.25 21.0858 32.9142 20.75 32.5 20.75ZM23.5 33.75C23.0858 33.75 22.75 34.0858 22.75 34.5C22.75 34.9142 23.0858 35.25 23.5 35.25C23.9142 35.25 24.25 34.9142 24.25 34.5C24.25 34.0858 23.9142 33.75 23.5 33.75Z" fill="#5F5F6A"/>
<path d="M23.5 76.75C23.0858 76.75 22.75 77.0858 22.75 77.5C22.75 77.9142 23.0858 78.25 23.5 78.25C23.9142 78.25 24.25 77.9142 24.25 77.5C24.25 77.0858 23.9142 76.75 23.5 76.75ZM21.25 77.5C21.25 76.2574 22.2574 75.25 23.5 75.25C24.7426 75.25 25.75 76.2574 25.75 77.5C25.75 78.4797 25.1239 79.3131 24.25 79.622V83.5279C24.3374 83.4644 24.4273 83.4051 24.5195 83.3496C25.4686 82.7784 26.6848 82.6113 27.7183 82.4692C27.7785 82.461 27.838 82.4528 27.8968 82.4446C29.0581 82.2833 29.9995 82.1234 30.6737 81.6677C31.1793 81.326 31.6106 80.7585 31.7221 79.6119C30.8628 79.2953 30.25 78.4692 30.25 77.5C30.25 76.2574 31.2574 75.25 32.5 75.25C33.7426 75.25 34.75 76.2574 34.75 77.5C34.75 78.4887 34.1123 79.3285 33.2257 79.6304C33.0997 81.2067 32.4883 82.2517 31.5138 82.9104C30.5005 83.5953 29.1919 83.7792 28.1032 83.9304L28.0791 83.9337C26.9099 84.0961 25.9715 84.2264 25.293 84.6348C24.9781 84.8243 24.7312 85.0702 24.5556 85.4163C24.3761 85.7703 24.25 86.272 24.25 87V88.378C25.1239 88.6869 25.75 89.5203 25.75 90.5C25.75 91.7426 24.7426 92.75 23.5 92.75C22.2574 92.75 21.25 91.7426 21.25 90.5C21.25 89.5203 21.8761 88.6869 22.75 88.378V79.622C21.8761 79.3131 21.25 78.4797 21.25 77.5ZM32.5 76.75C32.0858 76.75 31.75 77.0858 31.75 77.5C31.75 77.9142 32.0858 78.25 32.5 78.25C32.9142 78.25 33.25 77.9142 33.25 77.5C33.25 77.0858 32.9142 76.75 32.5 76.75ZM23.5 89.75C23.0858 89.75 22.75 90.0858 22.75 90.5C22.75 90.9142 23.0858 91.25 23.5 91.25C23.9142 91.25 24.25 90.9142 24.25 90.5C24.25 90.0858 23.9142 89.75 23.5 89.75Z" fill="#5F5F6A"/>
<path d="M23.5 132.5C22.9477 132.5 22.5 132.948 22.5 133.5C22.5 134.052 22.9477 134.5 23.5 134.5C24.0523 134.5 24.5 134.052 24.5 133.5C24.5 132.948 24.0523 132.5 23.5 132.5ZM21.5 133.5C21.5 132.395 22.3954 131.5 23.5 131.5C24.6046 131.5 25.5 132.395 25.5 133.5C25.5 134.432 24.8626 135.215 24 135.437V140.071C24.1959 139.872 24.414 139.705 24.6484 139.564C25.5517 139.02 26.7196 138.859 27.7671 138.715C27.8222 138.707 27.8769 138.7 27.9312 138.692C29.0804 138.533 30.083 138.369 30.8138 137.875C31.4245 137.462 31.9031 136.772 31.9869 135.434C31.131 135.207 30.5 134.427 30.5 133.5C30.5 132.395 31.3954 131.5 32.5 131.5C33.6046 131.5 34.5 132.395 34.5 133.5C34.5 134.436 33.8567 135.222 32.9881 135.44C32.8984 137.055 32.3057 138.073 31.3737 138.703C30.417 139.35 29.1696 139.53 28.0688 139.683C28.0469 139.686 28.025 139.689 28.0032 139.692C26.869 139.849 25.8869 139.986 25.1641 140.421C24.8135 140.632 24.5317 140.911 24.3327 141.303C24.131 141.701 24 142.244 24 143V144.563C24.8626 144.785 25.5 145.568 25.5 146.5C25.5 147.605 24.6046 148.5 23.5 148.5C22.3954 148.5 21.5 147.605 21.5 146.5C21.5 145.568 22.1374 144.785 23 144.563V135.437C22.1374 135.215 21.5 134.432 21.5 133.5ZM32.5 132.5C31.9477 132.5 31.5 132.948 31.5 133.5C31.5 134.052 31.9477 134.5 32.5 134.5C33.0523 134.5 33.5 134.052 33.5 133.5C33.5 132.948 33.0523 132.5 32.5 132.5ZM23.5 145.5C22.9477 145.5 22.5 145.948 22.5 146.5C22.5 147.052 22.9477 147.5 23.5 147.5C24.0523 147.5 24.5 147.052 24.5 146.5C24.5 145.948 24.0523 145.5 23.5 145.5Z" fill="#5F5F6A"/>
</svg>
