<svg width="56" height="168" viewBox="0 0 56 168" fill="none" xmlns="http://www.w3.org/2000/svg">
<path opacity="0.5" d="M33.5 30.75C31.9812 30.75 30.75 31.9812 30.75 33.5C30.75 35.0188 31.9812 36.25 33.5 36.25C35.0188 36.25 36.25 35.0188 36.25 33.5C36.25 31.9812 35.0188 30.75 33.5 30.75ZM29.25 33.5C29.25 31.1528 31.1528 29.25 33.5 29.25C35.8472 29.25 37.75 31.1528 37.75 33.5C37.75 35.8472 35.8472 37.75 33.5 37.75C31.1528 37.75 29.25 35.8472 29.25 33.5ZM35.3428 32.0947C35.6357 32.3876 35.6357 32.8624 35.3428 33.1553L33.0625 35.4357L31.6572 34.0303C31.3643 33.7374 31.3643 33.2626 31.6572 32.9697C31.9501 32.6768 32.4249 32.6768 32.7178 32.9697L33.0625 33.3143L34.2822 32.0947C34.5751 31.8018 35.0499 31.8018 35.3428 32.0947Z" fill="#5F5F6A"/>
<path d="M22 18.25C20.4812 18.25 19.25 19.4812 19.25 21V35.382C19.25 36.6829 20.619 37.529 21.7826 36.9472L22.7826 36.4472C22.8673 36.4049 22.9687 36.414 23.0444 36.4708L23.95 37.15C24.5722 37.6167 25.4278 37.6167 26.05 37.15L26.9121 36.5034C26.9934 36.4425 27.1035 36.4368 27.1907 36.4891L27.8641 36.8931C28.2193 37.1062 28.68 36.9911 28.8931 36.6359C29.1062 36.2807 28.9911 35.82 28.6359 35.6069L27.9624 35.2028C27.3523 34.8368 26.5813 34.8765 26.0121 35.3034L25.15 35.95C25.0611 36.0167 24.9389 36.0167 24.85 35.95L23.9444 35.2708C23.4141 34.8731 22.7047 34.8091 22.1118 35.1056L21.1118 35.6056C20.9456 35.6887 20.75 35.5678 20.75 35.382V21C20.75 20.3096 21.3096 19.75 22 19.75H32C32.6904 19.75 33.25 20.3096 33.25 21V26.5C33.25 26.9142 33.5858 27.25 34 27.25C34.4142 27.25 34.75 26.9142 34.75 26.5V21C34.75 19.4812 33.5188 18.25 32 18.25H22Z" fill="#5F5F6A"/>
<path d="M23 22.25C22.5858 22.25 22.25 22.5858 22.25 23C22.25 23.4142 22.5858 23.75 23 23.75H29.5C29.9142 23.75 30.25 23.4142 30.25 23C30.25 22.5858 29.9142 22.25 29.5 22.25H23Z" fill="#5F5F6A"/>
<path d="M23 25.25C22.5858 25.25 22.25 25.5858 22.25 26C22.25 26.4142 22.5858 26.75 23 26.75H31C31.4142 26.75 31.75 26.4142 31.75 26C31.75 25.5858 31.4142 25.25 31 25.25H23Z" fill="#5F5F6A"/>
<path d="M23 28.25C22.5858 28.25 22.25 28.5858 22.25 29C22.25 29.4142 22.5858 29.75 23 29.75H26.5C26.9142 29.75 27.25 29.4142 27.25 29C27.25 28.5858 26.9142 28.25 26.5 28.25H23Z" fill="#5F5F6A"/>
<path d="M23 31.25C22.5858 31.25 22.25 31.5858 22.25 32C22.25 32.4142 22.5858 32.75 23 32.75H26.5C26.9142 32.75 27.25 32.4142 27.25 32C27.25 31.5858 26.9142 31.25 26.5 31.25H23Z" fill="#5F5F6A"/>
<path d="M19.25 77C19.25 75.4812 20.4812 74.25 22 74.25H32C33.5188 74.25 34.75 75.4812 34.75 77V82.5C34.75 82.9142 34.4142 83.25 34 83.25C33.5858 83.25 33.25 82.9142 33.25 82.5V77C33.25 76.3096 32.6904 75.75 32 75.75H22C21.3096 75.75 20.75 76.3096 20.75 77V91.382C20.75 91.5678 20.9456 91.6887 21.1118 91.6056L22.1118 91.1056C22.7047 90.8091 23.4141 90.8731 23.9444 91.2708L24.85 91.95C24.9389 92.0167 25.0611 92.0167 25.15 91.95L26.0121 91.3034C26.5813 90.8765 27.3523 90.8368 27.9624 91.2028L28.6359 91.6069C28.9911 91.82 29.1062 92.2807 28.8931 92.6359C28.68 92.9911 28.2193 93.1062 27.8641 92.8931L27.1907 92.4891C27.1035 92.4368 26.9934 92.4425 26.9121 92.5034L26.05 93.15C25.4278 93.6167 24.5722 93.6167 23.95 93.15L23.0444 92.4708C22.9687 92.414 22.8673 92.4049 22.7826 92.4472L21.7826 92.9472C20.619 93.529 19.25 92.6829 19.25 91.382V77Z" fill="#5F5F6A"/>
<path d="M33.5 86.75C31.9812 86.75 30.75 87.9812 30.75 89.5C30.75 91.0188 31.9812 92.25 33.5 92.25C35.0188 92.25 36.25 91.0188 36.25 89.5C36.25 87.9812 35.0188 86.75 33.5 86.75ZM29.25 89.5C29.25 87.1528 31.1528 85.25 33.5 85.25C35.8472 85.25 37.75 87.1528 37.75 89.5C37.75 91.8472 35.8472 93.75 33.5 93.75C31.1528 93.75 29.25 91.8472 29.25 89.5ZM35.3428 88.0947C35.6357 88.3876 35.6357 88.8624 35.3428 89.1553L33.0625 91.4357L31.6572 90.0303C31.3643 89.7374 31.3643 89.2626 31.6572 88.9697C31.9501 88.6768 32.4249 88.6768 32.7178 88.9697L33.0625 89.3143L34.2822 88.0947C34.5751 87.8018 35.0499 87.8018 35.3428 88.0947Z" fill="#5F5F6A"/>
<path d="M22.25 79C22.25 78.5858 22.5858 78.25 23 78.25H29.5C29.9142 78.25 30.25 78.5858 30.25 79C30.25 79.4142 29.9142 79.75 29.5 79.75H23C22.5858 79.75 22.25 79.4142 22.25 79ZM22.25 82C22.25 81.5858 22.5858 81.25 23 81.25H31C31.4142 81.25 31.75 81.5858 31.75 82C31.75 82.4142 31.4142 82.75 31 82.75H23C22.5858 82.75 22.25 82.4142 22.25 82ZM22.25 85C22.25 84.5858 22.5858 84.25 23 84.25H26.5C26.9142 84.25 27.25 84.5858 27.25 85C27.25 85.4142 26.9142 85.75 26.5 85.75H23C22.5858 85.75 22.25 85.4142 22.25 85ZM22.25 88C22.25 87.5858 22.5858 87.25 23 87.25H26.5C26.9142 87.25 27.25 87.5858 27.25 88C27.25 88.4142 26.9142 88.75 26.5 88.75H23C22.5858 88.75 22.25 88.4142 22.25 88Z" fill="#5F5F6A"/>
<path d="M19.5 133C19.5 131.619 20.6193 130.5 22 130.5H32C33.3807 130.5 34.5 131.619 34.5 133V138.5C34.5 138.776 34.2761 139 34 139C33.7239 139 33.5 138.776 33.5 138.5V133C33.5 132.172 32.8284 131.5 32 131.5H22C21.1716 131.5 20.5 132.172 20.5 133V147.382C20.5 147.754 20.8912 147.995 21.2236 147.829L22.2236 147.329C22.7318 147.075 23.3399 147.13 23.7944 147.471L24.7 148.15C24.8778 148.283 25.1222 148.283 25.3 148.15L26.1621 147.503C26.65 147.138 27.3109 147.103 27.8338 147.417L28.5072 147.821C28.744 147.963 28.8208 148.27 28.6787 148.507C28.5367 148.744 28.2295 148.821 27.9928 148.679L27.3193 148.275C27.145 148.17 26.9247 148.181 26.7621 148.303L25.9 148.95C25.3667 149.35 24.6333 149.35 24.1 148.95L23.1944 148.271C23.0429 148.157 22.8402 148.139 22.6708 148.224L21.6708 148.724C20.6735 149.222 19.5 148.497 19.5 147.382V133Z" fill="#5F5F6A"/>
<path d="M22.5 135C22.5 134.724 22.7239 134.5 23 134.5H29.5C29.7761 134.5 30 134.724 30 135C30 135.276 29.7761 135.5 29.5 135.5H23C22.7239 135.5 22.5 135.276 22.5 135ZM22.5 138C22.5 137.724 22.7239 137.5 23 137.5H31C31.2761 137.5 31.5 137.724 31.5 138C31.5 138.276 31.2761 138.5 31 138.5H23C22.7239 138.5 22.5 138.276 22.5 138ZM22.5 141C22.5 140.724 22.7239 140.5 23 140.5H26.5C26.7761 140.5 27 140.724 27 141C27 141.276 26.7761 141.5 26.5 141.5H23C22.7239 141.5 22.5 141.276 22.5 141ZM22.5 144C22.5 143.724 22.7239 143.5 23 143.5H26.5C26.7761 143.5 27 143.724 27 144C27 144.276 26.7761 144.5 26.5 144.5H23C22.7239 144.5 22.5 144.276 22.5 144Z" fill="#5F5F6A"/>
<path d="M33.5 142.5C31.8431 142.5 30.5 143.843 30.5 145.5C30.5 147.157 31.8431 148.5 33.5 148.5C35.1569 148.5 36.5 147.157 36.5 145.5C36.5 143.843 35.1569 142.5 33.5 142.5ZM29.5 145.5C29.5 143.291 31.2909 141.5 33.5 141.5C35.7091 141.5 37.5 143.291 37.5 145.5C37.5 147.709 35.7091 149.5 33.5 149.5C31.2909 149.5 29.5 147.709 29.5 145.5ZM35.1661 144.271C35.3613 144.467 35.3613 144.783 35.1661 144.979L33.0625 147.082L31.8339 145.854C31.6387 145.658 31.6387 145.342 31.8339 145.146C32.0292 144.951 32.3458 144.951 32.5411 145.146L33.0625 145.668L34.4589 144.271C34.6542 144.076 34.9708 144.076 35.1661 144.271Z" fill="#5F5F6A"/>
</svg>
