<svg width="64" height="168" viewBox="0 0 64 168" fill="none" xmlns="http://www.w3.org/2000/svg">
<g opacity="0.5">
<path d="M27.3535 24.2258C27.3535 23.7448 27.7435 23.3549 28.2245 23.3549C28.7055 23.3549 29.0955 23.7448 29.0955 24.2258V31.7742C29.0955 32.2552 28.7055 32.6452 28.2245 32.6452C27.7435 32.6452 27.3535 32.2552 27.3535 31.7742V24.2258Z" fill="#5F5F6A"/>
<path d="M31.1277 24.2258C31.1277 23.7448 31.5177 23.3549 31.9987 23.3549C32.4797 23.3549 32.8696 23.7448 32.8696 24.2258V29.4516C32.8696 29.9327 32.4797 30.3226 31.9987 30.3226C31.5177 30.3226 31.1277 29.9327 31.1277 29.4516V24.2258Z" fill="#5F5F6A"/>
<path d="M34.9019 24.2258C34.9019 23.7448 35.2918 23.3549 35.7729 23.3549C36.2539 23.3549 36.6438 23.7448 36.6438 24.2258V27.1291C36.6438 27.6101 36.2539 28 35.7729 28C35.2918 28 34.9019 27.6101 34.9019 27.1291V24.2258Z" fill="#5F5F6A"/>
<path d="M42.0549 33.9767C41.8256 34.1842 41.4786 34.179 41.2557 33.9734C41.2529 34.289 41.2458 34.5643 41.2271 34.8049C41.1959 35.2053 41.13 35.5597 40.9701 35.8893C40.7168 36.4112 40.31 36.8409 39.8031 37.1121C39.4717 37.2894 39.0904 37.3575 38.6883 37.3896C38.2901 37.4214 37.8056 37.4214 37.2393 37.4214H37.2163C36.8889 37.4214 36.6234 37.156 36.6234 36.8285C36.6234 36.5011 36.8889 36.2357 37.2163 36.2357C37.8105 36.2357 38.2483 36.2353 38.594 36.2077C38.9412 36.18 39.1282 36.1285 39.2438 36.0666C39.5233 35.9171 39.7559 35.6755 39.9033 35.3716C39.9711 35.2318 40.0191 35.0444 40.0449 34.7129C40.0626 34.4858 40.0686 34.2151 40.0706 33.8723C39.8161 34.1267 39.4395 34.2477 39.1481 33.9563C38.9166 33.7248 38.9166 33.3494 39.1481 33.1179L40.2453 32.0208C40.3601 31.9059 40.517 31.8432 40.6793 31.8473C40.8416 31.8513 40.9952 31.9218 41.1041 32.0422L42.0967 33.1394C42.3164 33.3822 42.2977 33.7571 42.0549 33.9767Z" fill="#5F5F6A"/>
</g>
<path d="M23 24.5161C23 21.4697 25.4697 19 28.5161 19H35.4839C38.5303 19 41 21.4697 41 24.5161V28.129C41 28.6101 40.6101 29 40.129 29C39.648 29 39.2581 28.6101 39.2581 28.129V24.5161C39.2581 22.4317 37.5683 20.7419 35.4839 20.7419H28.5161C26.4317 20.7419 24.7419 22.4317 24.7419 24.5161V31.4839C24.7419 33.5683 26.4317 35.2581 28.5161 35.2581H32.129C32.6101 35.2581 33 35.648 33 36.129C33 36.6101 32.6101 37 32.129 37H28.5161C25.4697 37 23 34.5303 23 31.4839V24.5161Z" fill="#5F5F6A"/>
<path d="M34.8959 36.1292C35.0048 36.2496 35.1584 36.32 35.3207 36.3241C35.483 36.3282 35.6399 36.2655 35.7547 36.1506L36.8519 35.0535C37.0834 34.822 37.0834 34.4466 36.8519 34.2151C36.5605 33.9237 36.1839 34.0447 35.9294 34.2991C35.9314 33.9563 35.9374 33.6856 35.9551 33.4585C35.9808 33.127 36.0288 32.9396 36.0967 32.7998C36.2441 32.4959 36.4767 32.2543 36.7562 32.1048C36.8718 32.0429 37.0587 31.9914 37.406 31.9637C37.7517 31.9361 38.1895 31.9357 38.7837 31.9357C39.1111 31.9357 39.3765 31.6703 39.3765 31.3429C39.3765 31.0154 39.1111 30.75 38.7837 30.75H38.7607C38.1944 30.75 37.7099 30.75 37.3117 30.7818C36.9095 30.8139 36.5283 30.882 36.1969 31.0593C35.69 31.3305 35.2832 31.7602 35.0299 32.2821C34.87 32.6117 34.8041 32.9661 34.7729 33.3665C34.7542 33.6071 34.7471 33.8824 34.7443 34.198C34.5214 33.9924 34.1744 33.9872 33.9451 34.1947C33.7023 34.4143 33.6836 34.7892 33.9032 35.032L34.8959 36.1292Z" fill="#5F5F6A"/>
<path d="M28.5161 75C25.4697 75 23 77.4697 23 80.5161V87.4839C23 90.5303 25.4697 93 28.5161 93H32.129C32.6101 93 33 92.6101 33 92.129C33 91.648 32.6101 91.2581 32.129 91.2581H28.5161C26.4317 91.2581 24.7419 89.5683 24.7419 87.4839V80.5161C24.7419 78.4317 26.4317 76.7419 28.5161 76.7419H35.4839C37.5683 76.7419 39.2581 78.4317 39.2581 80.5161V84.129C39.2581 84.6101 39.648 85 40.129 85C40.6101 85 41 84.6101 41 84.129V80.5161C41 77.4697 38.5303 75 35.4839 75H28.5161Z" fill="#5F5F6A"/>
<path d="M28.2258 79.3548C27.7448 79.3548 27.3548 79.7448 27.3548 80.2258V87.7742C27.3548 88.2552 27.7448 88.6452 28.2258 88.6452C28.7068 88.6452 29.0968 88.2552 29.0968 87.7742V80.2258C29.0968 79.7448 28.7068 79.3548 28.2258 79.3548Z" fill="#5F5F6A"/>
<path d="M32 79.3548C31.519 79.3548 31.129 79.7448 31.129 80.2258V85.4516C31.129 85.9326 31.519 86.3226 32 86.3226C32.481 86.3226 32.871 85.9326 32.871 85.4516V80.2258C32.871 79.7448 32.481 79.3548 32 79.3548Z" fill="#5F5F6A"/>
<path d="M34.9032 80.2258C34.9032 79.7448 35.2932 79.3548 35.7742 79.3548C36.2552 79.3548 36.6452 79.7448 36.6452 80.2258V83.129C36.6452 83.6101 36.2552 84 35.7742 84C35.2932 84 34.9032 83.6101 34.9032 83.129V80.2258Z" fill="#5F5F6A"/>
<path d="M34.8959 92.1292C35.0048 92.2496 35.1584 92.32 35.3207 92.3241C35.483 92.3282 35.6399 92.2655 35.7547 92.1506L36.8519 91.0535C37.0834 90.822 37.0834 90.4466 36.8519 90.2151C36.5605 89.9237 36.1839 90.0447 35.9294 90.2991C35.9314 89.9563 35.9374 89.6856 35.9551 89.4585C35.9808 89.127 36.0288 88.9396 36.0967 88.7998C36.2441 88.4959 36.4767 88.2543 36.7562 88.1048C36.8718 88.0429 37.0587 87.9914 37.406 87.9637C37.7517 87.9361 38.1895 87.9357 38.7837 87.9357C39.1111 87.9357 39.3765 87.6703 39.3765 87.3429C39.3765 87.0154 39.1111 86.75 38.7837 86.75H38.7607C38.1944 86.75 37.7099 86.75 37.3117 86.7818C36.9095 86.8139 36.5283 86.882 36.1969 87.0593C35.69 87.3305 35.2832 87.7602 35.0299 88.2821C34.87 88.6117 34.8041 88.9661 34.7729 89.3665C34.7542 89.6071 34.7471 89.8824 34.7443 90.198C34.5214 89.9924 34.1744 89.9872 33.9451 90.1947C33.7023 90.4143 33.6836 90.7892 33.9032 91.032L34.8959 92.1292Z" fill="#5F5F6A"/>
<path d="M41.2557 89.9734C41.4786 90.179 41.8256 90.1842 42.0549 89.9767C42.2977 89.7571 42.3164 89.3822 42.0967 89.1394L41.1041 88.0422C40.9952 87.9218 40.8416 87.8513 40.6793 87.8473C40.517 87.8432 40.3601 87.9059 40.2453 88.0208L39.1481 89.1179C38.9166 89.3494 38.9166 89.7248 39.1481 89.9563C39.4395 90.2477 39.8161 90.1267 40.0706 89.8723C40.0686 90.2151 40.0626 90.4858 40.0449 90.7129C40.0191 91.0444 39.9711 91.2318 39.9033 91.3716C39.7559 91.6755 39.5233 91.9171 39.2438 92.0666C39.1282 92.1285 38.9412 92.18 38.594 92.2077C38.2483 92.2353 37.8105 92.2357 37.2163 92.2357C36.8889 92.2357 36.6234 92.5011 36.6234 92.8285C36.6234 93.156 36.8889 93.4214 37.2163 93.4214H37.2393C37.8056 93.4214 38.2901 93.4214 38.6883 93.3896C39.0904 93.3575 39.4717 93.2894 39.8031 93.1121C40.31 92.8409 40.7168 92.4112 40.9701 91.8893C41.13 91.5597 41.1959 91.2053 41.2271 90.8049C41.2458 90.5643 41.2529 90.289 41.2557 89.9734Z" fill="#5F5F6A"/>
<path d="M28.4 131C25.4177 131 23 133.418 23 136.4V143.6C23 146.582 25.4177 149 28.4 149H32.4C32.7314 149 33 148.731 33 148.4C33 148.069 32.7314 147.8 32.4 147.8H28.4C26.0804 147.8 24.2 145.92 24.2 143.6V136.4C24.2 134.08 26.0804 132.2 28.4 132.2H35.6C37.9196 132.2 39.8 134.08 39.8 136.4V140.4C39.8 140.731 40.0686 141 40.4 141C40.7314 141 41 140.731 41 140.4V136.4C41 133.418 38.5823 131 35.6 131H28.4Z" fill="#5F5F6A"/>
<path d="M27.8 135.2C27.4686 135.2 27.2 135.469 27.2 135.8V144.2C27.2 144.531 27.4686 144.8 27.8 144.8C28.1314 144.8 28.4 144.531 28.4 144.2V135.8C28.4 135.469 28.1314 135.2 27.8 135.2Z" fill="#5F5F6A"/>
<path d="M32 135.2C31.6686 135.2 31.4 135.469 31.4 135.8V141.8C31.4 142.131 31.6686 142.4 32 142.4C32.3314 142.4 32.6 142.131 32.6 141.8V135.8C32.6 135.469 32.3314 135.2 32 135.2Z" fill="#5F5F6A"/>
<path d="M35.6 135.8C35.6 135.469 35.8686 135.2 36.2 135.2C36.5314 135.2 36.8 135.469 36.8 135.8V139.4C36.8 139.731 36.5314 140 36.2 140C35.8686 140 35.6 139.731 35.6 139.4V135.8Z" fill="#5F5F6A"/>
<path d="M39.1765 143.343C39.1765 143.126 39.0007 142.95 38.7837 142.95H38.7681C38.1958 142.95 37.7178 142.95 37.3276 142.981C36.9348 143.013 36.5863 143.078 36.2912 143.236C35.8227 143.486 35.4453 143.884 35.2099 144.369C35.0655 144.667 35.0026 144.993 34.9723 145.382C34.9448 145.736 34.9428 146.17 34.9427 146.712L34.6342 146.371C34.4886 146.21 34.2402 146.197 34.0793 146.343C33.9184 146.489 33.906 146.737 34.0516 146.898L35.0442 147.995C35.1164 148.075 35.2181 148.121 35.3257 148.124C35.4333 148.127 35.5372 148.085 35.6133 148.009L36.7105 146.912C36.8639 146.759 36.8639 146.51 36.7105 146.357C36.557 146.203 36.3083 146.203 36.1549 146.357L35.7284 146.783C35.7284 146.199 35.7297 145.777 35.7557 145.443C35.7824 145.1 35.8334 144.884 35.9167 144.712C36.082 144.372 36.344 144.099 36.6619 143.928C36.8139 143.847 37.0337 143.793 37.3901 143.764C37.7456 143.736 38.1925 143.736 38.7837 143.736C39.0007 143.736 39.1765 143.56 39.1765 143.343Z" fill="#5F5F6A"/>
<path d="M40.9558 144.176C40.8836 144.097 40.7819 144.05 40.6743 144.047C40.5667 144.045 40.4628 144.086 40.3867 144.162L39.2895 145.259C39.1361 145.413 39.1361 145.661 39.2895 145.815C39.443 145.968 39.6917 145.968 39.8451 145.815L40.2716 145.388C40.2716 145.972 40.2703 146.395 40.2443 146.728C40.2176 147.071 40.1666 147.287 40.0833 147.459C39.918 147.8 39.656 148.073 39.3381 148.243C39.1861 148.324 38.9663 148.379 38.6099 148.407C38.2544 148.435 37.8075 148.436 37.2163 148.436C36.9993 148.436 36.8235 148.612 36.8235 148.829C36.8235 149.046 36.9993 149.221 37.2163 149.221L37.4193 149.222C37.837 149.223 38.256 149.223 38.6724 149.19C39.0652 149.159 39.4138 149.094 39.7088 148.936C40.1773 148.685 40.5547 148.287 40.7902 147.802C40.9346 147.504 40.9974 147.178 41.0277 146.789C41.0553 146.435 41.0572 146.001 41.0573 145.46L41.3658 145.801C41.5114 145.962 41.7598 145.974 41.9207 145.828C42.0816 145.683 42.094 145.434 41.9485 145.274L40.9558 144.176Z" fill="#5F5F6A"/>
</svg>
