<svg width="56" height="224" viewBox="0 0 56 224" fill="none" xmlns="http://www.w3.org/2000/svg">
<path d="M20.5786 24.4949L19.9862 23.4689C19.71 22.9906 19.0985 22.8267 18.6202 23.1028C18.1419 23.379 17.978 23.9906 18.2541 24.4689L20.0041 27.5C20.2803 27.9783 20.8919 28.1421 21.3702 27.866L24.4013 26.116C24.8795 25.8398 25.0434 25.2283 24.7673 24.75C24.4911 24.2717 23.8795 24.1078 23.4013 24.3839L22.6265 24.8313C23.7828 22.5576 26.1453 21 28.8702 21C32.7362 21 35.8702 24.134 35.8702 28C35.8702 31.866 32.7362 35 28.8702 35C26.8682 35 25.0638 34.1609 23.7867 32.8124C23.407 32.4114 22.7741 32.3942 22.3731 32.7739C21.9721 33.1537 21.9548 33.7866 22.3346 34.1876C23.9737 35.9183 26.2964 37 28.8702 37C33.8407 37 37.8702 32.9706 37.8702 28C37.8702 23.0294 33.8407 19 28.8702 19C25.1424 19 21.9453 21.2657 20.5786 24.4949Z" fill="#5F5F6A"/>
<path d="M28.8702 23C29.4225 23 29.8702 23.4477 29.8702 24V27.5858L31.5773 29.2929C31.9678 29.6834 31.9678 30.3166 31.5773 30.7071C31.1867 31.0976 30.5536 31.0976 30.1631 30.7071L28.1631 28.7071C27.9755 28.5196 27.8702 28.2652 27.8702 28V24C27.8702 23.4477 28.3179 23 28.8702 23Z" fill="#5F5F6A"/>
<path opacity="0.5" fill-rule="evenodd" clip-rule="evenodd" d="M28.8702 79C29.4225 79 29.8702 79.4477 29.8702 80V83.5858L31.5773 85.2929C31.9678 85.6834 31.9678 86.3166 31.5773 86.7071C31.1868 87.0976 30.5536 87.0976 30.1631 86.7071L28.1631 84.7071C27.9755 84.5196 27.8702 84.2652 27.8702 84V80C27.8702 79.4477 28.3179 79 28.8702 79Z" fill="#5F5F6A"/>
<path d="M22.6264 80.8313C23.7827 78.5576 26.1452 77 28.8701 77C32.7361 77 35.8701 80.134 35.8701 84C35.8701 87.866 32.7361 91 28.8701 91C26.8682 91 25.0638 90.1609 23.7867 88.8124C23.407 88.4114 22.774 88.3942 22.373 88.7739C21.972 89.1537 21.9548 89.7866 22.3346 90.1876C23.9737 91.9183 26.2964 93 28.8701 93C33.8407 93 37.8701 88.9706 37.8701 84C37.8701 79.0294 33.8407 75 28.8701 75C25.1424 75 21.9453 77.2657 20.5785 80.4949L19.9862 79.4689C19.71 78.9906 19.0985 78.8267 18.6202 79.1028C18.1419 79.379 17.978 79.9906 18.2541 80.4689L20.0041 83.5C20.2803 83.9783 20.8919 84.1421 21.3702 83.866L24.4013 82.116C24.8795 81.8398 25.0434 81.2283 24.7673 80.75C24.4911 80.2717 23.8795 80.1078 23.4013 80.3839L22.6264 80.8313Z" fill="#5F5F6A"/>
<path d="M20.5026 137.071L19.6496 135.594C19.4425 135.235 18.9838 135.112 18.6251 135.319C18.2664 135.526 18.1435 135.985 18.3506 136.344L20.1006 139.375C20.3077 139.734 20.7664 139.857 21.1251 139.649L24.1562 137.899C24.5149 137.692 24.6378 137.234 24.4307 136.875C24.2236 136.516 23.7649 136.393 23.4062 136.6L21.9684 137.431C23.0054 134.695 25.6513 132.75 28.7501 132.75C32.7542 132.75 36.0001 135.996 36.0001 140C36.0001 144.004 32.7542 147.25 28.7501 147.25C26.6767 147.25 24.8075 146.381 23.4852 144.984C23.2003 144.684 22.7256 144.671 22.4249 144.955C22.1241 145.24 22.1112 145.715 22.3961 146.016C23.9899 147.699 26.2478 148.75 28.7501 148.75C33.5826 148.75 37.5001 144.832 37.5001 140C37.5001 135.168 33.5826 131.25 28.7501 131.25C24.9444 131.25 21.7073 133.679 20.5026 137.071Z" fill="#5F5F6A"/>
<path d="M28.7501 135.25C29.1643 135.25 29.5001 135.586 29.5001 136V139.689L31.2804 141.47C31.5733 141.763 31.5733 142.237 31.2804 142.53C30.9875 142.823 30.5127 142.823 30.2198 142.53L28.2198 140.53C28.0791 140.39 28.0001 140.199 28.0001 140V136C28.0001 135.586 28.3359 135.25 28.7501 135.25Z" fill="#5F5F6A"/>
<path d="M21.6467 193.974L23.6512 192.817C23.8903 192.679 24.1961 192.761 24.3342 193C24.4723 193.239 24.3903 193.545 24.1512 193.683L21.1201 195.433C20.8809 195.571 20.5751 195.489 20.4371 195.25L18.6871 192.219C18.549 191.98 18.6309 191.674 18.8701 191.536C19.1092 191.398 19.415 191.48 19.5531 191.719L20.6889 193.686C21.6967 190.116 24.9774 187.5 28.8701 187.5C33.5645 187.5 37.3701 191.306 37.3701 196C37.3701 200.694 33.5645 204.5 28.8701 204.5C26.4393 204.5 24.2461 203.479 22.6975 201.844C22.5076 201.643 22.5163 201.327 22.7168 201.137C22.9173 200.947 23.2337 200.956 23.4236 201.156C24.7912 202.6 26.7251 203.5 28.8701 203.5C33.0122 203.5 36.3701 200.142 36.3701 196C36.3701 191.858 33.0122 188.5 28.8701 188.5C25.4302 188.5 22.5304 190.816 21.6467 193.974Z" fill="#5F5F6A"/>
<path d="M28.8701 191.5C29.1462 191.5 29.3701 191.724 29.3701 192V195.793L31.2236 197.646C31.4189 197.842 31.4189 198.158 31.2236 198.354C31.0284 198.549 30.7118 198.549 30.5165 198.354L28.5165 196.354C28.4228 196.26 28.3701 196.133 28.3701 196V192C28.3701 191.724 28.5939 191.5 28.8701 191.5Z" fill="#5F5F6A"/>
</svg>
