<svg width="56" height="224" viewBox="0 0 56 224" fill="none" xmlns="http://www.w3.org/2000/svg">
<path fill-rule="evenodd" clip-rule="evenodd" d="M35.981 20.019C35.711 19.749 35.3372 19.59 34.9864 19.4885C34.6179 19.3818 34.1856 19.3139 33.7187 19.2788C32.7832 19.2086 31.6363 19.2654 30.4316 19.4641C28.0439 19.858 25.2738 20.8366 23.4427 22.6677C21.6778 24.4325 21.3091 26.5606 21.5595 28.3913C21.7549 29.8204 22.3322 31.1142 22.9583 31.981L19.4697 35.4697C19.1768 35.7626 19.1768 36.2374 19.4697 36.5303C19.7626 36.8232 20.2374 36.8232 20.5303 36.5303L24.019 33.0417C24.8858 33.6678 26.1796 34.2451 27.6087 34.4405C29.4394 34.6909 31.5675 34.3222 33.3323 32.5573C35.1634 30.7262 36.142 27.9561 36.5359 25.5684C36.7346 24.3637 36.7914 23.2168 36.7212 22.2813C36.6861 21.8144 36.6182 21.3821 36.5115 21.0136C36.41 20.6628 36.251 20.289 35.981 20.019ZM24.0054 30.8526C24.1755 31.1218 24.3473 31.3406 24.5034 31.4966C24.6399 31.6332 24.8244 31.7817 25.0487 31.9306L26.8239 30.1555L29.0328 30.8918C29.4258 31.0228 29.8505 30.8104 29.9815 30.4174C30.1125 30.0245 29.9001 29.5997 29.5072 29.4688L28.0097 28.9696L29.5165 27.4628L31.3301 27.8256C31.7363 27.9068 32.1314 27.6434 32.2127 27.2372C32.2939 26.8311 32.0305 26.4359 31.6243 26.3547L30.7912 26.1881L32.449 24.5303C32.7419 24.2374 32.7419 23.7626 32.449 23.4697C32.1561 23.1768 31.6812 23.1768 31.3883 23.4697L29.7306 25.1274L29.564 24.2944C29.4827 23.8882 29.0876 23.6248 28.6814 23.706C28.2753 23.7872 28.0119 24.1824 28.0931 24.5885L28.4558 26.4022L26.9491 27.909L26.4499 26.4115C26.3189 26.0186 25.8942 25.8062 25.5012 25.9372C25.1083 26.0682 24.8959 26.4929 25.0269 26.8859L25.7632 29.0948L24.0054 30.8526Z" fill="#5F5F6A"/>
<path opacity="0.5" d="M32.8016 88.027C29.6713 91.1572 25.2969 89.3513 23.9726 88.027C22.6483 86.7026 20.8423 82.3283 23.9726 79.198C27.3211 75.8495 34.3466 75.4457 35.4502 76.5493C36.5539 77.6529 36.15 84.6785 32.8016 88.027Z" fill="#5F5F6A"/>
<path fill-rule="evenodd" clip-rule="evenodd" d="M30.6758 76.9441C28.4377 77.3133 26.0208 78.2109 24.5034 79.7283C23.1379 81.0938 22.8446 82.718 23.0456 84.1881C23.1952 85.2815 23.6144 86.2495 24.0371 86.9022L25.7636 85.1757L25.0273 82.9668C24.8963 82.5738 25.1087 82.1491 25.5017 82.0181C25.8946 81.8871 26.3193 82.0995 26.4503 82.4924L26.9495 83.9899L28.4563 82.4831L28.0935 80.6694C28.0123 80.2633 28.2757 79.8682 28.6819 79.7869C29.088 79.7057 29.4832 79.9691 29.5644 80.3753L29.731 81.2083L31.3888 79.5506C31.6817 79.2577 32.1565 79.2577 32.4494 79.5506C32.7423 79.8435 32.7423 80.3183 32.4494 80.6112L30.7917 82.269L31.6247 82.4356C32.0309 82.5168 32.2943 82.912 32.2131 83.3181C32.1318 83.7243 31.7367 83.9877 31.3306 83.9065L29.5169 83.5437L28.0101 85.0505L29.5076 85.5497C29.9005 85.6806 30.1129 86.1054 29.9819 86.4983C29.8509 86.8913 29.4262 87.1037 29.0332 86.9727L26.8243 86.2364L25.0978 87.9629C25.7505 88.3856 26.7185 88.8048 27.8119 88.9544C29.282 89.1554 30.9062 88.8621 32.2717 87.4966C33.7891 85.9792 34.6867 83.5623 35.0559 81.3242C35.2387 80.216 35.2852 79.1903 35.2254 78.3936C35.1954 77.9943 35.1401 77.6705 35.0706 77.4305C35.0361 77.3112 35.001 77.2227 34.9697 77.1606C34.9415 77.1046 34.9226 77.0824 34.9203 77.0797C34.9176 77.0773 34.8954 77.0585 34.8394 77.0303C34.7773 76.999 34.6888 76.9639 34.5695 76.9294C34.3295 76.8599 34.0057 76.8046 33.6064 76.7746C32.8097 76.7148 31.784 76.7613 30.6758 76.9441ZM24.019 89.0417C24.8858 89.6678 26.1796 90.2451 27.6087 90.4405C29.4394 90.6909 31.5675 90.3222 33.3323 88.5573C35.1634 86.7262 36.142 83.9561 36.5359 81.5684C36.7346 80.3637 36.7914 79.2168 36.7212 78.2813C36.6861 77.8144 36.6182 77.3821 36.5115 77.0136C36.41 76.6628 36.251 76.289 35.981 76.019C35.711 75.749 35.3372 75.59 34.9864 75.4885C34.6179 75.3818 34.1856 75.3139 33.7187 75.2788C32.7832 75.2086 31.6363 75.2654 30.4316 75.4641C28.0439 75.858 25.2738 76.8366 23.4427 78.6677C21.6778 80.4325 21.3091 82.5606 21.5595 84.3913C21.7549 85.8204 22.3322 87.1142 22.9583 87.981L19.4697 91.4697C19.1768 91.7626 19.1768 92.2374 19.4697 92.5303C19.7626 92.8232 20.2374 92.8232 20.5303 92.5303L24.019 89.0417Z" fill="#5F5F6A"/>
<path fill-rule="evenodd" clip-rule="evenodd" d="M30.6758 132.944C28.4377 133.313 26.0208 134.211 24.5034 135.728C23.1379 137.094 22.8446 138.718 23.0456 140.188C23.1952 141.282 23.6144 142.249 24.0371 142.902L25.7636 141.176L25.0273 138.967C24.8963 138.574 25.1087 138.149 25.5017 138.018C25.8946 137.887 26.3193 138.099 26.4503 138.492L26.9495 139.99L28.4563 138.483L28.0935 136.669C28.0123 136.263 28.2757 135.868 28.6819 135.787C29.088 135.706 29.4832 135.969 29.5644 136.375L29.731 137.208L31.3888 135.551C31.6817 135.258 32.1565 135.258 32.4494 135.551C32.7423 135.843 32.7423 136.318 32.4494 136.611L30.7917 138.269L31.6247 138.436C32.0309 138.517 32.2943 138.912 32.2131 139.318C32.1318 139.724 31.7367 139.988 31.3306 139.906L29.5169 139.544L28.0101 141.051L29.5076 141.55C29.9005 141.681 30.1129 142.105 29.9819 142.498C29.8509 142.891 29.4262 143.104 29.0332 142.973L26.8243 142.236L25.0978 143.963C25.7505 144.386 26.7185 144.805 27.8119 144.954C29.282 145.155 30.9062 144.862 32.2717 143.497C33.7891 141.979 34.6867 139.562 35.0559 137.324C35.2387 136.216 35.2852 135.19 35.2254 134.394C35.1954 133.994 35.1401 133.67 35.0706 133.43C35.0361 133.311 35.001 133.223 34.9697 133.161C34.9415 133.105 34.9226 133.082 34.9203 133.08C34.9176 133.077 34.8954 133.058 34.8394 133.03C34.7773 132.999 34.6888 132.964 34.5695 132.929C34.3295 132.86 34.0057 132.805 33.6064 132.775C32.8097 132.715 31.784 132.761 30.6758 132.944ZM24.019 145.042C24.8858 145.668 26.1796 146.245 27.6087 146.441C29.4394 146.691 31.5675 146.322 33.3323 144.557C35.1634 142.726 36.142 139.956 36.5359 137.568C36.7346 136.364 36.7914 135.217 36.7212 134.281C36.6861 133.814 36.6182 133.382 36.5115 133.014C36.41 132.663 36.251 132.289 35.981 132.019C35.711 131.749 35.3372 131.59 34.9864 131.488C34.6179 131.382 34.1856 131.314 33.7187 131.279C32.7832 131.209 31.6363 131.265 30.4316 131.464C28.0439 131.858 25.2738 132.837 23.4427 134.668C21.6778 136.433 21.3091 138.561 21.5595 140.391C21.7549 141.82 22.3322 143.114 22.9583 143.981L19.4697 147.47C19.1768 147.763 19.1768 148.237 19.4697 148.53C19.7626 148.823 20.2374 148.823 20.5303 148.53L24.019 145.042Z" fill="#5F5F6A"/>
<path fill-rule="evenodd" clip-rule="evenodd" d="M30.6351 188.697C28.3721 189.071 25.8963 189.982 24.3266 191.552C22.8946 192.984 22.5886 194.692 22.7979 196.222C22.9721 197.495 23.4998 198.612 24.002 199.291L26.0497 197.243L25.2645 194.888C25.1772 194.626 25.3187 194.343 25.5807 194.255C25.8427 194.168 26.1258 194.31 26.2132 194.571L26.8402 196.453L28.7276 194.565L28.3387 192.62C28.2845 192.35 28.4601 192.086 28.7309 192.032C29.0017 191.978 29.2651 192.154 29.3193 192.424L29.5775 193.715L31.5655 191.727C31.7608 191.532 32.0774 191.532 32.2726 191.727C32.4679 191.923 32.4679 192.239 32.2726 192.434L30.2846 194.423L31.5757 194.681C31.8465 194.735 32.0221 194.998 31.9679 195.269C31.9138 195.54 31.6504 195.715 31.3796 195.661L29.4347 195.272L27.5473 197.16L29.4285 197.787C29.6905 197.874 29.8321 198.157 29.7447 198.419C29.6574 198.681 29.3743 198.823 29.1123 198.736L26.7568 197.95L24.7091 199.998C25.3882 200.5 26.5046 201.028 27.778 201.202C29.3083 201.411 31.0164 201.105 32.4484 199.673C34.0181 198.104 34.9292 195.628 35.3025 193.365C35.488 192.241 35.5362 191.195 35.4747 190.375C35.4439 189.964 35.3864 189.622 35.3108 189.361C35.2317 189.088 35.147 188.953 35.0971 188.903C35.0472 188.853 34.9123 188.768 34.639 188.689C34.3776 188.614 34.0357 188.556 33.6252 188.525C32.8052 188.464 31.7594 188.512 30.6351 188.697ZM23.9957 200.711C24.8188 201.357 26.1514 201.989 27.6425 202.193C29.4132 202.435 31.4573 202.079 33.1555 200.381C34.9344 198.602 35.8994 195.89 36.2892 193.528C36.4853 192.339 36.5404 191.212 36.4719 190.3C36.4377 189.844 36.3718 189.43 36.2714 189.083C36.1744 188.748 36.0302 188.422 35.8042 188.196C35.5782 187.97 35.2522 187.826 34.917 187.729C34.5698 187.628 34.1557 187.562 33.7 187.528C32.7876 187.46 31.6609 187.515 30.4723 187.711C28.1095 188.101 25.3983 189.066 23.6195 190.844C21.9212 192.543 21.565 194.587 21.8072 196.357C22.0111 197.849 22.6429 199.181 23.2886 200.004L19.6464 203.646C19.4512 203.842 19.4512 204.158 19.6464 204.354C19.8417 204.549 20.1583 204.549 20.3536 204.354L23.9957 200.711Z" fill="#5F5F6A"/>
</svg>
