<svg width="56" height="168" viewBox="0 0 56 168" fill="none" xmlns="http://www.w3.org/2000/svg">
<g opacity="0.5">
<path d="M28 22C27.4109 22 26.9495 22.5192 27.0045 23.1201L27.3997 26.44C27.4288 26.7574 27.6888 27 28 27C28.3112 27 28.5712 26.7574 28.6003 26.44L28.9955 23.1201C29.0505 22.5192 28.5891 22 28 22Z" fill="#5F5F6A"/>
<path d="M28 30C28.5523 30 29 29.5523 29 29C29 28.4477 28.5523 28 28 28C27.4477 28 27 28.4477 27 29C27 29.5523 27.4477 30 28 30Z" fill="#5F5F6A"/>
</g>
<path fill-rule="evenodd" clip-rule="evenodd" d="M28 19.75C25.0725 19.75 22.75 22.0246 22.75 24.7692C22.75 26.4803 23.1907 27.3512 23.7478 28.1427C23.8737 28.3215 24.015 28.5064 24.165 28.7026C24.6892 29.3883 25.3191 30.2123 25.766 31.4016C25.8611 31.6547 25.9803 31.8891 26.119 32.0999L26.1747 32.1792C26.3022 32.3607 26.4426 32.5222 26.5935 32.6613C27.0003 33.0335 27.4889 33.25 28 33.25C28.5112 33.25 28.9998 33.0334 29.4066 32.6612C29.5574 32.5221 29.6978 32.3606 29.8253 32.1792L29.881 32.0999C30.0197 31.8891 30.1389 31.6547 30.234 31.4016C30.6809 30.2123 31.3108 29.3883 31.835 28.7026C31.985 28.5064 32.1263 28.3215 32.2522 28.1427C32.8093 27.3512 33.25 26.4803 33.25 24.7692C33.25 22.0246 30.9275 19.75 28 19.75ZM31.1669 32.8688C31.3589 32.5694 31.517 32.2516 31.6382 31.9292C32 30.9662 32.4563 30.3674 32.9558 29.7118C33.1258 29.4886 33.3008 29.2589 33.4788 29.0061C34.1886 27.9976 34.75 26.8305 34.75 24.7692C34.75 21.1413 31.6999 18.25 28 18.25C24.3001 18.25 21.25 21.1413 21.25 24.7692C21.25 26.8305 21.8114 27.9976 22.5212 29.0061C22.6992 29.2589 22.8742 29.4886 23.0442 29.7118C23.5437 30.3674 24 30.9662 24.3618 31.9292C24.483 32.2516 24.6411 32.5694 24.8331 32.8688L25.0547 35.0846C25.206 36.5977 26.4793 37.75 28 37.75C29.5207 37.75 30.794 36.5977 30.9453 35.0846L31.1669 32.8688ZM29.5064 34.3989C29.0555 34.6206 28.5507 34.75 28 34.75C27.4493 34.75 26.9445 34.6206 26.4936 34.3989L26.5473 34.9353C26.6219 35.6816 27.2499 36.25 28 36.25C28.7501 36.25 29.3781 35.6816 29.4527 34.9353L29.5064 34.3989Z" fill="#5F5F6A"/>
<path d="M28 78C27.4109 78 26.9495 78.5192 27.0045 79.1201L27.3997 82.44C27.4288 82.7574 27.6888 83 28 83C28.3112 83 28.5712 82.7574 28.6003 82.44L28.9955 79.1201C29.0505 78.5192 28.5891 78 28 78Z" fill="#5F5F6A"/>
<path d="M28 86C28.5523 86 29 85.5523 29 85C29 84.4477 28.5523 84 28 84C27.4477 84 27 84.4477 27 85C27 85.5523 27.4477 86 28 86Z" fill="#5F5F6A"/>
<path fill-rule="evenodd" clip-rule="evenodd" d="M28 75.75C25.0725 75.75 22.75 78.0246 22.75 80.7692C22.75 82.4803 23.1907 83.3512 23.7478 84.1427C23.8737 84.3215 24.015 84.5064 24.165 84.7026C24.6892 85.3883 25.3191 86.2123 25.766 87.4016C25.8611 87.6547 25.9803 87.8891 26.119 88.0999L26.1747 88.1792C26.3022 88.3607 26.4426 88.5222 26.5935 88.6613C27.0003 89.0335 27.4889 89.25 28 89.25C28.5112 89.25 28.9998 89.0334 29.4066 88.6612C29.5574 88.5221 29.6978 88.3606 29.8253 88.1792L29.881 88.0999C30.0197 87.8891 30.1389 87.6547 30.234 87.4016C30.6809 86.2123 31.3108 85.3883 31.835 84.7026C31.985 84.5064 32.1263 84.3215 32.2522 84.1427C32.8093 83.3512 33.25 82.4803 33.25 80.7692C33.25 78.0246 30.9275 75.75 28 75.75ZM31.1669 88.8688C31.3589 88.5694 31.517 88.2516 31.6382 87.9292C32 86.9662 32.4563 86.3674 32.9558 85.7118C33.1258 85.4886 33.3008 85.2589 33.4788 85.0061C34.1886 83.9976 34.75 82.8305 34.75 80.7692C34.75 77.1413 31.6999 74.25 28 74.25C24.3001 74.25 21.25 77.1413 21.25 80.7692C21.25 82.8305 21.8114 83.9976 22.5212 85.0061C22.6992 85.2589 22.8742 85.4886 23.0442 85.7118C23.5437 86.3674 24 86.9662 24.3618 87.9292C24.483 88.2516 24.6411 88.5694 24.8331 88.8688L25.0547 91.0846C25.206 92.5977 26.4793 93.75 28 93.75C29.5207 93.75 30.794 92.5977 30.9453 91.0846L31.1669 88.8688ZM29.5064 90.3989C29.0555 90.6206 28.5507 90.75 28 90.75C27.4493 90.75 26.9445 90.6206 26.4936 90.3989L26.5473 90.9353C26.6219 91.6816 27.2499 92.25 28 92.25C28.7501 92.25 29.3781 91.6816 29.4527 90.9353L29.5064 90.3989Z" fill="#5F5F6A"/>
<path d="M28 134C27.4109 134 26.9495 134.519 27.0045 135.12L27.3997 138.44C27.4288 138.757 27.6888 139 28 139C28.3112 139 28.5712 138.757 28.6003 138.44L28.9955 135.12C29.0505 134.519 28.5891 134 28 134Z" fill="#5F5F6A"/>
<path d="M28 142C28.5523 142 29 141.552 29 141C29 140.448 28.5523 140 28 140C27.4477 140 27 140.448 27 141C27 141.552 27.4477 142 28 142Z" fill="#5F5F6A"/>
<path fill-rule="evenodd" clip-rule="evenodd" d="M28 131.5C24.9438 131.5 22.5 133.877 22.5 136.769C22.5 138.539 22.9608 139.459 23.5434 140.287C23.6773 140.477 23.8241 140.669 23.9778 140.87C24.4996 141.553 25.0995 142.339 25.5319 143.49C25.6354 143.765 25.7672 144.022 25.9227 144.255L25.9702 144.323C26.1066 144.517 26.2584 144.692 26.4233 144.844C26.8689 145.253 27.4134 145.5 28 145.5C28.5868 145.5 29.1314 145.253 29.5771 144.844C29.7418 144.692 29.8936 144.517 30.0298 144.323L30.0773 144.255C30.2328 144.022 30.3646 143.765 30.4681 143.49C30.9005 142.339 31.5004 141.553 32.0222 140.87C32.1759 140.669 32.3227 140.477 32.4566 140.287C33.0392 139.459 33.5 138.539 33.5 136.769C33.5 133.877 31.0562 131.5 28 131.5ZM30.9241 144.784C31.1201 144.487 31.2814 144.168 31.4041 143.841C31.7799 142.841 32.2641 142.206 32.7695 141.543C32.9365 141.324 33.1058 141.102 33.2743 140.862C33.9587 139.89 34.5 138.772 34.5 136.769C34.5 133.289 31.5712 130.5 28 130.5C24.4288 130.5 21.5 133.289 21.5 136.769C21.5 138.772 22.0413 139.89 22.7257 140.862C22.8942 141.102 23.0635 141.324 23.2305 141.543C23.7359 142.206 24.2201 142.841 24.5959 143.841C24.7186 144.168 24.8799 144.487 25.0759 144.784L25.3035 147.06C25.442 148.445 26.6077 149.5 28 149.5C29.3923 149.5 30.558 148.445 30.6965 147.06L30.9241 144.784ZM29.8038 145.937C29.2867 146.286 28.6787 146.5 28 146.5C27.3213 146.5 26.7133 146.286 26.1962 145.937L26.2985 146.96C26.3859 147.834 27.1215 148.5 28 148.5C28.8785 148.5 29.6141 147.834 29.7015 146.96L29.8038 145.937Z" fill="#5F5F6A"/>
</svg>
