<svg width="56" height="224" viewBox="0 0 56 224" fill="none" xmlns="http://www.w3.org/2000/svg">
<path fill-rule="evenodd" clip-rule="evenodd" d="M25.3978 22.6745L24.6643 22.9889C24.2679 23.1588 23.8089 22.9751 23.639 22.5788C23.4691 22.1824 23.6528 21.7234 24.0491 21.5535L27.0778 20.2555C27.6671 20.0029 28.3341 20.0029 28.9234 20.2555L31.9521 21.5535C32.3484 21.7234 32.5321 22.1824 32.3622 22.5788C32.1923 22.9751 31.7333 23.1588 31.3369 22.9889L30.6554 22.6968V24.6137H31.1239C31.5552 24.6137 31.9048 24.9633 31.9048 25.3945C31.9048 25.8258 31.5552 26.1753 31.1239 26.1753H30.9405L32.7914 34.5042H33.2061C33.6374 34.5042 33.987 34.8538 33.987 35.2851C33.987 35.7163 33.6374 36.0659 33.2061 36.0659H32.1812C32.1754 36.066 32.1696 36.0661 32.1638 36.0661C32.1583 36.0661 32.1529 36.066 32.1474 36.0659H29.5623V32.6823C29.5623 31.8198 28.8631 31.1206 28.0006 31.1206C27.1381 31.1206 26.4389 31.8198 26.4389 32.6823V36.0659H23.8538C23.8425 36.0661 23.8313 36.0661 23.82 36.0659H22.7951C22.3638 36.0659 22.0142 35.7163 22.0142 35.2851C22.0142 34.8538 22.3638 34.5042 22.7951 34.5042H23.2098L25.0607 26.1753H24.8773C24.446 26.1753 24.0964 25.8258 24.0964 25.3945C24.0964 24.9633 24.446 24.6137 24.8773 24.6137H25.3978V22.6745ZM27.693 21.6909C27.8894 21.6067 28.1118 21.6067 28.3082 21.6909L29.0938 22.0275V24.6137H26.9595V22.0052L27.693 21.6909Z" fill="#5F5F6A"/>
<path d="M23.4934 24.182C23.3006 24.5678 22.8316 24.7241 22.4459 24.5312L18.2814 22.449C17.8957 22.2562 17.7394 21.7871 17.9322 21.4014C18.1251 21.0157 18.5941 20.8594 18.9798 21.0522L23.1442 23.1344C23.53 23.3273 23.6863 23.7963 23.4934 24.182Z" fill="#5F5F6A"/>
<path d="M32.5077 24.182C32.7006 24.5678 33.1696 24.7241 33.5553 24.5312L37.7198 22.449C38.1055 22.2562 38.2618 21.7871 38.069 21.4014C37.8761 21.0157 37.4071 20.8594 37.0214 21.0522L32.8569 23.1344C32.4712 23.3273 32.3149 23.7963 32.5077 24.182Z" fill="#5F5F6A"/>
<path d="M22.4459 26.2578C22.8316 26.0649 23.3006 26.2213 23.4934 26.607C23.6863 26.9927 23.53 27.4617 23.1442 27.6546L18.9798 29.7368C18.5941 29.9297 18.1251 29.7733 17.9322 29.3876C17.7394 29.0019 17.8957 28.5329 18.2814 28.34L22.4459 26.2578Z" fill="#5F5F6A"/>
<path d="M32.5077 26.607C32.7006 26.2213 33.1696 26.0649 33.5553 26.2578L37.7198 28.34C38.1055 28.5329 38.2618 29.0019 38.069 29.3876C37.8761 29.7733 37.4071 29.9297 37.0214 29.7368L32.8569 27.6546C32.4712 27.4617 32.3149 26.9927 32.5077 26.607Z" fill="#5F5F6A"/>
<g opacity="0.5">
<path d="M22.4459 80.5312C22.8316 80.7241 23.3006 80.5678 23.4934 80.182C23.6863 79.7963 23.53 79.3273 23.1442 79.1344L18.9798 77.0522C18.5941 76.8594 18.1251 77.0157 17.9322 77.4014C17.7394 77.7871 17.8957 78.2562 18.2814 78.449L22.4459 80.5312Z" fill="#5F5F6A"/>
<path d="M33.5553 80.5312C33.1696 80.7241 32.7006 80.5678 32.5077 80.182C32.3149 79.7963 32.4712 79.3273 32.8569 79.1344L37.0214 77.0522C37.4071 76.8594 37.8761 77.0157 38.069 77.4014C38.2618 77.7871 38.1055 78.2562 37.7198 78.449L33.5553 80.5312Z" fill="#5F5F6A"/>
<path d="M23.4934 82.607C23.3006 82.2213 22.8316 82.0649 22.4459 82.2578L18.2814 84.34C17.8957 84.5329 17.7394 85.0019 17.9322 85.3876C18.1251 85.7733 18.5941 85.9297 18.9798 85.7368L23.1442 83.6546C23.53 83.4617 23.6863 82.9927 23.4934 82.607Z" fill="#5F5F6A"/>
<path d="M33.5553 82.2578C33.1696 82.0649 32.7006 82.2213 32.5077 82.607C32.3149 82.9927 32.4712 83.4617 32.8569 83.6546L37.0214 85.7368C37.4071 85.9297 37.8761 85.7733 38.069 85.3876C38.2618 85.0019 38.1055 84.5329 37.7198 84.34L33.5553 82.2578Z" fill="#5F5F6A"/>
</g>
<path fill-rule="evenodd" clip-rule="evenodd" d="M24.6638 78.9889L25.3973 78.6745L25.3973 80.6137H24.8767C24.4455 80.6137 24.0959 80.9633 24.0959 81.3945C24.0959 81.8258 24.4455 82.1753 24.8767 82.1753H25.0601L23.2093 90.5042H22.7945C22.3633 90.5042 22.0137 90.8538 22.0137 91.2851C22.0137 91.7163 22.3633 92.0659 22.7945 92.0659H23.8195C23.8308 92.0661 23.842 92.0661 23.8532 92.0659H26.4384V88.6823C26.4384 87.8198 27.1376 87.1206 28.0001 87.1206C28.8625 87.1206 29.5617 87.8198 29.5617 88.6823V92.0659H32.1469C32.1581 92.0661 32.1693 92.0661 32.1806 92.0659H33.2056C33.6368 92.0659 33.9864 91.7163 33.9864 91.2851C33.9864 90.8538 33.6368 90.5042 33.2056 90.5042H32.7908L30.94 82.1753H31.1234C31.5546 82.1753 31.9042 81.8258 31.9042 81.3945C31.9042 80.9633 31.5546 80.6137 31.1234 80.6137H30.6549L30.6549 78.6968L31.3364 78.9889C31.7327 79.1588 32.1918 78.9751 32.3616 78.5788C32.5315 78.1824 32.3479 77.7234 31.9515 77.5535L28.9228 76.2555C28.3336 76.0029 27.6666 76.0029 27.0773 76.2555L24.0486 77.5535C23.6522 77.7234 23.4686 78.1824 23.6385 78.5788C23.8083 78.9751 24.2674 79.1588 24.6638 78.9889ZM28.3076 77.6909C28.1112 77.6067 27.8889 77.6067 27.6925 77.6909L26.9589 78.0052L26.9589 80.6137H29.0932L29.0932 78.0275L28.3076 77.6909Z" fill="#5F5F6A"/>
<path fill-rule="evenodd" clip-rule="evenodd" d="M25.3978 134.675L24.6643 134.989C24.2679 135.159 23.8089 134.975 23.639 134.579C23.4691 134.182 23.6528 133.723 24.0491 133.553L27.0778 132.255C27.6671 132.003 28.3341 132.003 28.9234 132.255L31.9521 133.553C32.3484 133.723 32.5321 134.182 32.3622 134.579C32.1923 134.975 31.7333 135.159 31.3369 134.989L30.6554 134.697L30.6554 136.614H31.1239C31.5552 136.614 31.9048 136.963 31.9048 137.395C31.9048 137.826 31.5552 138.175 31.1239 138.175H30.9405L32.7914 146.504H33.2061C33.6374 146.504 33.987 146.854 33.987 147.285C33.987 147.716 33.6374 148.066 33.2061 148.066H32.1812L32.1638 148.066L32.1474 148.066H23.8538C23.8425 148.066 23.8313 148.066 23.82 148.066H22.7951C22.3638 148.066 22.0142 147.716 22.0142 147.285C22.0142 146.854 22.3638 146.504 22.7951 146.504H23.2098L25.0607 138.175H24.8773C24.446 138.175 24.0964 137.826 24.0964 137.395C24.0964 136.963 24.446 136.614 24.8773 136.614H25.3978L25.3978 134.675ZM27.693 133.691C27.8894 133.607 28.1118 133.607 28.3082 133.691L29.0938 134.028L29.0938 136.614H26.9595L26.9595 134.005L27.693 133.691ZM29.3408 138.175H26.6604L24.8096 146.504H25.9203V144.418C25.9203 143.27 26.8509 142.34 27.9988 142.34C29.1467 142.34 30.0773 143.27 30.0773 144.418V146.504H31.1916L29.3408 138.175ZM27.9988 143.901C27.7134 143.901 27.482 144.133 27.482 144.418V146.244H28.5157V144.418C28.5157 144.133 28.2843 143.901 27.9988 143.901Z" fill="#5F5F6A"/>
<path d="M23.4934 136.182C23.3006 136.568 22.8316 136.724 22.4459 136.531L18.2814 134.449C17.8957 134.256 17.7394 133.787 17.9322 133.401C18.1251 133.016 18.5941 132.859 18.9798 133.052L23.1443 135.134C23.53 135.327 23.6863 135.796 23.4934 136.182Z" fill="#5F5F6A"/>
<path d="M33.5553 136.531C33.1696 136.724 32.7006 136.568 32.5077 136.182C32.3149 135.796 32.4712 135.327 32.8569 135.134L37.0214 133.052C37.4071 132.859 37.8761 133.016 38.069 133.401C38.2618 133.787 38.1055 134.256 37.7198 134.449L33.5553 136.531Z" fill="#5F5F6A"/>
<path d="M23.4934 138.607C23.3006 138.221 22.8316 138.065 22.4459 138.258L18.2814 140.34C17.8957 140.533 17.7394 141.002 17.9322 141.388C18.1251 141.773 18.5941 141.93 18.9798 141.737L23.1443 139.655C23.53 139.462 23.6863 138.993 23.4934 138.607Z" fill="#5F5F6A"/>
<path d="M33.5553 138.258C33.1696 138.065 32.7006 138.221 32.5077 138.607C32.3149 138.993 32.4712 139.462 32.8569 139.655L37.0214 141.737C37.4071 141.93 37.8761 141.773 38.069 141.388C38.2618 141.002 38.1055 140.533 37.7198 140.34L33.5553 138.258Z" fill="#5F5F6A"/>
<path fill-rule="evenodd" clip-rule="evenodd" d="M24.4462 190.571L25.5794 190.085L25.5794 192.767H24.7723C24.4751 192.767 24.2342 193.007 24.2342 193.305C24.2342 193.602 24.4751 193.843 24.7723 193.843H25.2972L23.2645 202.99H22.62C22.3229 202.99 22.082 203.231 22.082 203.528C22.082 203.825 22.3229 204.066 22.62 204.066H23.685C23.6928 204.066 23.7006 204.066 23.7083 204.066H32.293C32.3007 204.066 32.3085 204.066 32.3163 204.066H33.3813C33.6784 204.066 33.9193 203.825 33.9193 203.528C33.9193 203.231 33.6784 202.99 33.3813 202.99H32.7368L30.7041 193.843H31.229C31.5262 193.843 31.7671 193.602 31.7671 193.305C31.7671 193.007 31.5262 192.767 31.229 192.767H30.4757L30.4757 190.108L31.5551 190.571C31.8283 190.688 32.1446 190.561 32.2616 190.288C32.3787 190.015 32.2522 189.699 31.979 189.582L28.8485 188.24C28.3071 188.008 27.6942 188.008 27.1528 188.24L24.0223 189.582C23.7491 189.699 23.6226 190.015 23.7397 190.288C23.8567 190.561 24.173 190.688 24.4462 190.571ZM28.4246 189.229C28.1539 189.113 27.8474 189.113 27.5767 189.229L26.6555 189.624V192.767H29.3996L29.3996 189.647L28.4246 189.229ZM26.3866 193.843H29.6147C29.6148 193.881 29.619 193.92 29.6277 193.959L31.6344 202.99H29.8782V200.565C29.8782 199.527 29.0368 198.685 27.9988 198.685C26.9608 198.685 26.1194 199.527 26.1194 200.565V202.99H24.3669L26.3737 193.959C26.3823 193.92 26.3865 193.881 26.3866 193.843ZM27.1955 200.565C27.1955 200.121 27.5552 199.761 27.9988 199.761C28.4424 199.761 28.8021 200.121 28.8021 200.565V202.721H27.1955V200.565Z" fill="#5F5F6A"/>
<path d="M23.1013 191.931C22.9684 192.197 22.6452 192.305 22.3794 192.172L18.0749 190.02C17.8091 189.887 17.7014 189.563 17.8343 189.298C17.9672 189.032 18.2904 188.924 18.5562 189.057L22.8607 191.209C23.1264 191.342 23.2342 191.665 23.1013 191.931Z" fill="#5F5F6A"/>
<path d="M32.9 191.931C33.0329 192.197 33.3561 192.305 33.6219 192.172L37.9264 190.02C38.1922 189.887 38.2999 189.563 38.167 189.298C38.0341 189.032 37.7109 188.924 37.4452 189.057L33.1406 191.209C32.8749 191.342 32.7671 191.665 32.9 191.931Z" fill="#5F5F6A"/>
<path d="M22.3794 194.438C22.6452 194.305 22.9684 194.412 23.1013 194.678C23.2342 194.944 23.1264 195.267 22.8607 195.4L18.5562 197.552C18.2904 197.685 17.9672 197.578 17.8343 197.312C17.7014 197.046 17.8091 196.723 18.0749 196.59L22.3794 194.438Z" fill="#5F5F6A"/>
<path d="M32.9 194.678C33.0329 194.412 33.3561 194.305 33.6219 194.438L37.9264 196.59C38.1922 196.723 38.2999 197.046 38.167 197.312C38.0341 197.578 37.7109 197.685 37.4452 197.552L33.1406 195.4C32.8749 195.267 32.7671 194.944 32.9 194.678Z" fill="#5F5F6A"/>
</svg>
