<svg width="56" height="168" viewBox="0 0 56 168" fill="none" xmlns="http://www.w3.org/2000/svg">
<path d="M21 22C20.4477 22 20 22.4477 20 23C20 23.5523 20.4477 24 21 24C21.5523 24 22 23.5523 22 23C22 22.4477 21.5523 22 21 22Z" fill="#5F5F6A"/>
<path d="M24.5 22C23.9477 22 23.5 22.4477 23.5 23C23.5 23.5523 23.9477 24 24.5 24H34.5C35.0523 24 35.5 23.5523 35.5 23C35.5 22.4477 35.0523 22 34.5 22H24.5Z" fill="#5F5F6A"/>
<path d="M24.6 27C23.9925 27 23.5 27.4925 23.5 28.1C23.5 28.7075 23.9925 29.2 24.6 29.2H34.4C35.0075 29.2 35.5 28.7075 35.5 28.1C35.5 27.4925 35.0075 27 34.4 27H24.6Z" fill="#5F5F6A"/>
<path d="M23.5 33C23.5 32.4477 23.9477 32 24.5 32H34.5C35.0523 32 35.5 32.4477 35.5 33C35.5 33.5523 35.0523 34 34.5 34H24.5C23.9477 34 23.5 33.5523 23.5 33Z" fill="#5F5F6A"/>
<path d="M20 28C20 27.4477 20.4477 27 21 27C21.5523 27 22 27.4477 22 28C22 28.5523 21.5523 29 21 29C20.4477 29 20 28.5523 20 28Z" fill="#5F5F6A"/>
<path d="M21 32C20.4477 32 20 32.4477 20 33C20 33.5523 20.4477 34 21 34C21.5523 34 22 33.5523 22 33C22 32.4477 21.5523 32 21 32Z" fill="#5F5F6A"/>
<path d="M21 78C20.4477 78 20 78.4477 20 79C20 79.5523 20.4477 80 21 80C21.5523 80 22 79.5523 22 79C22 78.4477 21.5523 78 21 78Z" fill="#5F5F6A"/>
<path d="M20 84C20 83.4477 20.4477 83 21 83C21.5523 83 22 83.4477 22 84C22 84.5523 21.5523 85 21 85C20.4477 85 20 84.5523 20 84Z" fill="#5F5F6A"/>
<path d="M21 88C20.4477 88 20 88.4477 20 89C20 89.5523 20.4477 90 21 90C21.5523 90 22 89.5523 22 89C22 88.4477 21.5523 88 21 88Z" fill="#5F5F6A"/>
<g opacity="0.5">
<path d="M24.5 78C23.9477 78 23.5 78.4477 23.5 79C23.5 79.5523 23.9477 80 24.5 80H34.5C35.0523 80 35.5 79.5523 35.5 79C35.5 78.4477 35.0523 78 34.5 78H24.5Z" fill="#5F5F6A"/>
<path d="M24.6 83C23.9925 83 23.5 83.4925 23.5 84.1C23.5 84.7075 23.9925 85.2 24.6 85.2H34.4C35.0075 85.2 35.5 84.7075 35.5 84.1C35.5 83.4925 35.0075 83 34.4 83H24.6Z" fill="#5F5F6A"/>
<path d="M23.5 89C23.5 88.4477 23.9477 88 24.5 88H34.5C35.0523 88 35.5 88.4477 35.5 89C35.5 89.5523 35.0523 90 34.5 90H24.5C23.9477 90 23.5 89.5523 23.5 89Z" fill="#5F5F6A"/>
</g>
<path d="M20.75 134C20.3358 134 20 134.336 20 134.75C20 135.164 20.3358 135.5 20.75 135.5C21.1642 135.5 21.5 135.164 21.5 134.75C21.5 134.336 21.1642 134 20.75 134Z" fill="#5F5F6A"/>
<path d="M23.75 134C23.3358 134 23 134.336 23 134.75C23 135.164 23.3358 135.5 23.75 135.5H34.25C34.6642 135.5 35 135.164 35 134.75C35 134.336 34.6642 134 34.25 134H23.75Z" fill="#5F5F6A"/>
<path d="M23.75 139C23.3358 139 23 139.336 23 139.75C23 140.164 23.3358 140.5 23.75 140.5H34.25C34.6642 140.5 35 140.164 35 139.75C35 139.336 34.6642 139 34.25 139H23.75Z" fill="#5F5F6A"/>
<path d="M23 144.75C23 144.336 23.3358 144 23.75 144H34.25C34.6642 144 35 144.336 35 144.75C35 145.164 34.6642 145.5 34.25 145.5H23.75C23.3358 145.5 23 145.164 23 144.75Z" fill="#5F5F6A"/>
<path d="M20 139.75C20 139.336 20.3358 139 20.75 139C21.1642 139 21.5 139.336 21.5 139.75C21.5 140.164 21.1642 140.5 20.75 140.5C20.3358 140.5 20 140.164 20 139.75Z" fill="#5F5F6A"/>
<path d="M20.75 144C20.3358 144 20 144.336 20 144.75C20 145.164 20.3358 145.5 20.75 145.5C21.1642 145.5 21.5 145.164 21.5 144.75C21.5 144.336 21.1642 144 20.75 144Z" fill="#5F5F6A"/>
</svg>
