<svg width="56" height="168" viewBox="0 0 56 168" fill="none" xmlns="http://www.w3.org/2000/svg">
<path d="M19 23C19 22.4477 19.4477 22 20 22C20.5523 22 21 22.4477 21 23C21 23.5523 20.5523 24 20 24C19.4477 24 19 23.5523 19 23Z" fill="#5F5F6A"/>
<path d="M22.5 23C22.5 22.4477 22.9477 22 23.5 22H33.5C34.0523 22 34.5 22.4477 34.5 23C34.5 23.5523 34.0523 24 33.5 24H23.5C22.9477 24 22.5 23.5523 22.5 23Z" fill="#5F5F6A"/>
<path d="M23.6 27C22.9925 27 22.5 27.4925 22.5 28.1C22.5 28.7075 22.9925 29.2 23.6 29.2H29.4C30.0075 29.2 30.5 28.7075 30.5 28.1C30.5 27.4925 30.0075 27 29.4 27H23.6Z" fill="#5F5F6A"/>
<path d="M23.5 32C22.9477 32 22.5 32.4477 22.5 33C22.5 33.5523 22.9477 34 23.5 34H26.5C27.0523 34 27.5 33.5523 27.5 33C27.5 32.4477 27.0523 32 26.5 32H23.5Z" fill="#5F5F6A"/>
<path d="M19 28C19 27.4477 19.4477 27 20 27C20.5523 27 21 27.4477 21 28C21 28.5523 20.5523 29 20 29C19.4477 29 19 28.5523 19 28Z" fill="#5F5F6A"/>
<path d="M19 33C19 32.4477 19.4477 32 20 32C20.5523 32 21 32.4477 21 33C21 33.5523 20.5523 34 20 34C19.4477 34 19 33.5523 19 33Z" fill="#5F5F6A"/>
<path d="M31.5 31.55C30.9477 31.55 30.5 31.9977 30.5 32.55C30.5 33.1023 30.9477 33.55 31.5 33.55H37.5C38.0523 33.55 38.5 33.1023 38.5 32.55C38.5 31.9977 38.0523 31.55 37.5 31.55H31.5Z" fill="#5F5F6A"/>
<path d="M20 78C19.4477 78 19 78.4477 19 79C19 79.5523 19.4477 80 20 80C20.5523 80 21 79.5523 21 79C21 78.4477 20.5523 78 20 78Z" fill="#5F5F6A"/>
<path d="M23.5 78C22.9477 78 22.5 78.4477 22.5 79C22.5 79.5523 22.9477 80 23.5 80H33.5C34.0523 80 34.5 79.5523 34.5 79C34.5 78.4477 34.0523 78 33.5 78H23.5Z" fill="#5F5F6A"/>
<path d="M23.6 83C22.9925 83 22.5 83.4925 22.5 84.1C22.5 84.7075 22.9925 85.2 23.6 85.2H29.4C30.0075 85.2 30.5 84.7075 30.5 84.1C30.5 83.4925 30.0075 83 29.4 83H23.6Z" fill="#5F5F6A"/>
<path d="M22.5 89C22.5 88.4477 22.9477 88 23.5 88H26.5C27.0523 88 27.5 88.4477 27.5 89C27.5 89.5523 27.0523 90 26.5 90H23.5C22.9477 90 22.5 89.5523 22.5 89Z" fill="#5F5F6A"/>
<path d="M19 84C19 83.4477 19.4477 83 20 83C20.5523 83 21 83.4477 21 84C21 84.5523 20.5523 85 20 85C19.4477 85 19 84.5523 19 84Z" fill="#5F5F6A"/>
<path d="M20 88C19.4477 88 19 88.4477 19 89C19 89.5523 19.4477 90 20 90C20.5523 90 21 89.5523 21 89C21 88.4477 20.5523 88 20 88Z" fill="#5F5F6A"/>
<path opacity="0.5" d="M30.5 88.55C30.5 87.9977 30.9477 87.55 31.5 87.55H33.5H35.5H37.5C38.0523 87.55 38.5 87.9977 38.5 88.55C38.5 89.1023 38.0523 89.55 37.5 89.55H35.5H33.5H31.5C30.9477 89.55 30.5 89.1023 30.5 88.55Z" fill="#5F5F6A"/>
<path d="M19 134.75C19 134.336 19.3358 134 19.75 134C20.1642 134 20.5 134.336 20.5 134.75C20.5 135.164 20.1642 135.5 19.75 135.5C19.3358 135.5 19 135.164 19 134.75Z" fill="#5F5F6A"/>
<path d="M22 134.75C22 134.336 22.3358 134 22.75 134H33.25C33.6642 134 34 134.336 34 134.75C34 135.164 33.6642 135.5 33.25 135.5H22.75C22.3358 135.5 22 135.164 22 134.75Z" fill="#5F5F6A"/>
<path d="M22.75 139C22.3358 139 22 139.336 22 139.75C22 140.164 22.3358 140.5 22.75 140.5H29.25C29.6642 140.5 30 140.164 30 139.75C30 139.336 29.6642 139 29.25 139H22.75Z" fill="#5F5F6A"/>
<path d="M22.75 144C22.3358 144 22 144.336 22 144.75C22 145.164 22.3358 145.5 22.75 145.5H26.25C26.6642 145.5 27 145.164 27 144.75C27 144.336 26.6642 144 26.25 144H22.75Z" fill="#5F5F6A"/>
<path d="M19 139.75C19 139.336 19.3358 139 19.75 139C20.1642 139 20.5 139.336 20.5 139.75C20.5 140.164 20.1642 140.5 19.75 140.5C19.3358 140.5 19 140.164 19 139.75Z" fill="#5F5F6A"/>
<path d="M19 144.75C19 144.336 19.3358 144 19.75 144C20.1642 144 20.5 144.336 20.5 144.75C20.5 145.164 20.1642 145.5 19.75 145.5C19.3358 145.5 19 145.164 19 144.75Z" fill="#5F5F6A"/>
<path d="M31.25 143.7C30.8358 143.7 30.5 144.036 30.5 144.45C30.5 144.864 30.8358 145.2 31.25 145.2H37.75C38.1642 145.2 38.5 144.864 38.5 144.45C38.5 144.036 38.1642 143.7 37.75 143.7H31.25Z" fill="#5F5F6A"/>
</svg>
