<svg width="56" height="168" viewBox="0 0 56 168" fill="none" xmlns="http://www.w3.org/2000/svg">
<path opacity="0.5" d="M34 29C35.6569 29 37 30.2792 37 31.8571C37 34.7143 34 37 34 37C34 37 31 35.0001 31 31.8571C31 30.2792 32.3431 29 34 29ZM34 33C34.5523 33 35 32.5523 35 32C35 31.4477 34.5523 31 34 31C33.4477 31 33 31.4477 33 32C33 32.5523 33.4477 33 34 33Z" fill="#5F5F6A"/>
<path d="M26 19.75C24.6953 19.75 23.671 20.7756 23.671 22C23.671 23.2244 24.6953 24.25 26 24.25C27.3047 24.25 28.3289 23.2244 28.3289 22C28.3289 20.7756 27.3047 19.75 26 19.75ZM22.171 22C22.171 19.9107 23.9038 18.25 26 18.25C28.0961 18.25 29.8289 19.9107 29.8289 22C29.8289 24.0893 28.0961 25.75 26 25.75C23.9038 25.75 22.171 24.0893 22.171 22ZM23.4706 27.9663C23.289 27.8489 23.1514 27.8417 23.0875 27.8593C22.9438 27.8989 22.8008 27.9414 22.6586 27.9869L21.6742 28.3021C20.9669 28.5284 20.4304 29.0566 20.206 29.7059C20.1842 29.769 20.1676 29.8527 20.1544 29.9777L19.7634 33.6766L19.7615 33.6898C19.6867 34.2167 19.9675 34.62 20.3945 34.7191C21.4718 34.9691 23.2859 35.25 26 35.25C26.4142 35.25 26.75 35.5858 26.75 36C26.75 36.4142 26.4142 36.75 26 36.75C23.1821 36.75 21.2535 36.4583 20.0555 36.1803C18.7667 35.8812 18.114 34.6695 18.2744 33.4933L18.6627 29.82C18.6809 29.6478 18.7125 29.4351 18.7883 29.2158C19.1724 28.1048 20.0749 27.239 21.2169 26.8735L22.2013 26.5583C22.3631 26.5065 22.5258 26.4581 22.6893 26.4131C23.3008 26.2448 23.8819 26.446 24.2851 26.7068C24.6552 26.9461 25.2593 27.2356 26 27.2356C26.7407 27.2356 27.3448 26.9461 27.7148 26.7068C28.1181 26.446 28.6992 26.2448 29.3107 26.4131C29.4741 26.4581 29.6368 26.5065 29.7986 26.5583L30.783 26.8735C31.1775 26.9997 31.395 27.4219 31.2687 27.8164C31.1424 28.2109 30.7203 28.4283 30.3258 28.3021L29.3414 27.9869C29.1991 27.9414 29.0561 27.8989 28.9125 27.8593C28.8485 27.8417 28.7109 27.8489 28.5294 27.9663C28.0165 28.298 27.1292 28.7356 26 28.7356C24.8707 28.7356 23.9835 28.298 23.4706 27.9663Z" fill="#5F5F6A"/>
<path d="M30.25 87.8571C30.25 85.8309 31.9638 84.25 34 84.25C36.0361 84.25 37.75 85.8309 37.75 87.8571C37.75 89.5393 36.8749 90.9914 36.0834 91.9713C35.6799 92.4708 35.2779 92.8727 34.9767 93.15C34.8256 93.2891 34.6987 93.398 34.6079 93.4733C34.5624 93.511 34.526 93.5404 34.4999 93.5611L34.4689 93.5855L34.4595 93.5927L34.4565 93.5951L34.4554 93.5959L33.5835 93.6237L33.5817 93.6225L33.5782 93.6202L33.5682 93.6133L33.5356 93.5907C33.5085 93.5718 33.4709 93.5449 33.4244 93.5104C33.3314 93.4414 33.202 93.3415 33.0484 93.2123C32.7422 92.9547 32.3346 92.5763 31.9257 92.0896C31.1154 91.1249 30.25 89.6731 30.25 87.8571ZM33.5835 93.6237L34.029 93.9207L34.4545 93.5966L33.5835 93.6237ZM33.9761 92.0323C34.2355 91.7924 34.5768 91.4494 34.9165 91.0287C35.6251 90.1515 36.25 89.0322 36.25 87.8571C36.25 86.7275 35.2775 85.75 34 85.75C32.7224 85.75 31.75 86.7275 31.75 87.8571C31.75 89.1841 32.3846 90.3037 33.0743 91.1248C33.3988 91.5111 33.7245 91.8177 33.9761 92.0323ZM34 88.25C34.138 88.25 34.25 88.1381 34.25 88C34.25 87.8619 34.138 87.75 34 87.75C33.8619 87.75 33.75 87.8619 33.75 88C33.75 88.1381 33.8619 88.25 34 88.25ZM32.75 88C32.75 87.3096 33.3096 86.75 34 86.75C34.6903 86.75 35.25 87.3096 35.25 88C35.25 88.6904 34.6903 89.25 34 89.25C33.3096 89.25 32.75 88.6904 32.75 88Z" fill="#5F5F6A"/>
<path fill-rule="evenodd" clip-rule="evenodd" d="M26 75.75C24.6953 75.75 23.671 76.7756 23.671 78C23.671 79.2244 24.6953 80.25 26 80.25C27.3047 80.25 28.3289 79.2244 28.3289 78C28.3289 76.7756 27.3047 75.75 26 75.75ZM22.171 78C22.171 75.9107 23.9038 74.25 26 74.25C28.0961 74.25 29.8289 75.9107 29.8289 78C29.8289 80.0893 28.0961 81.75 26 81.75C23.9038 81.75 22.171 80.0893 22.171 78ZM23.4706 83.9663C23.289 83.8489 23.1514 83.8417 23.0875 83.8593C22.9438 83.8989 22.8008 83.9414 22.6586 83.9869L21.6742 84.3021C20.9669 84.5284 20.4304 85.0566 20.206 85.7059C20.1842 85.769 20.1676 85.8527 20.1544 85.9777L19.7634 89.6766L19.7615 89.6898C19.6867 90.2167 19.9675 90.62 20.3945 90.7191C21.4718 90.9691 23.2859 91.25 26 91.25C26.4142 91.25 26.75 91.5858 26.75 92C26.75 92.4142 26.4142 92.75 26 92.75C23.1821 92.75 21.2535 92.4583 20.0555 92.1803C18.7667 91.8812 18.114 90.6695 18.2744 89.4933L18.6627 85.82C18.6809 85.6478 18.7125 85.4351 18.7883 85.2158C19.1724 84.1048 20.0749 83.239 21.2169 82.8735L22.2013 82.5583C22.3631 82.5065 22.5258 82.4581 22.6893 82.4131C23.3008 82.2448 23.8819 82.446 24.2851 82.7068C24.6552 82.9461 25.2593 83.2356 26 83.2356C26.7407 83.2356 27.3448 82.9461 27.7148 82.7068C28.1181 82.446 28.6992 82.2448 29.3107 82.4131C29.4741 82.4581 29.6368 82.5065 29.7986 82.5583L30.783 82.8735C31.1775 82.9997 31.395 83.4219 31.2687 83.8164C31.1424 84.2109 30.7203 84.4283 30.3258 84.3021L29.3414 83.9869C29.1991 83.9414 29.0561 83.8989 28.9125 83.8593C28.8485 83.8417 28.7109 83.8489 28.5294 83.9663C28.0165 84.298 27.1292 84.7356 26 84.7356C24.8707 84.7356 23.9835 84.298 23.4706 83.9663Z" fill="#5F5F6A"/>
<path d="M30.4999 143.857C30.4999 141.98 32.0902 140.5 33.9999 140.5C35.9096 140.5 37.4999 141.98 37.4999 143.857C37.4999 145.455 36.6665 146.851 35.8889 147.814C35.4949 148.302 35.1019 148.695 34.8073 148.966C34.6597 149.102 34.536 149.208 34.4481 149.281C34.4042 149.317 34.3691 149.346 34.3444 149.365L34.3154 149.388L34.307 149.395L34.3044 149.397L34.3035 149.397C34.3034 149.397 34.3029 149.398 33.9999 149C33.7226 149.416 33.7224 149.416 33.7222 149.416L33.7208 149.415L33.718 149.413L33.7092 149.407L33.6791 149.386C33.6537 149.368 33.6179 149.343 33.5732 149.31C33.4838 149.243 33.3585 149.147 33.2093 149.021C32.9114 148.77 32.5146 148.402 32.1171 147.929C31.3268 146.988 30.4999 145.592 30.4999 143.857ZM33.9999 149L33.7222 149.416L34.0193 149.614L34.3035 149.397L33.9999 149ZM33.9831 148.363C34.028 148.323 34.0772 148.279 34.13 148.23C34.3979 147.984 34.755 147.627 35.1109 147.186C35.8333 146.291 36.4999 145.117 36.4999 143.857C36.4999 142.578 35.4039 141.5 33.9999 141.5C32.5959 141.5 31.4999 142.578 31.4999 143.857C31.4999 145.266 32.173 146.441 32.8828 147.286C33.2352 147.705 33.5884 148.033 33.853 148.256C33.8994 148.295 33.9429 148.33 33.9831 148.363ZM32.9999 144C32.9999 143.448 33.4476 143 33.9999 143C34.5522 143 34.9999 143.448 34.9999 144C34.9999 144.552 34.5522 145 33.9999 145C33.4476 145 32.9999 144.552 32.9999 144Z" fill="#5F5F6A"/>
<path d="M25.9999 131.5C24.5633 131.5 23.421 132.631 23.421 134C23.421 135.369 24.5633 136.5 25.9999 136.5C27.4365 136.5 28.5788 135.369 28.5788 134C28.5788 132.631 27.4365 131.5 25.9999 131.5ZM22.421 134C22.421 132.055 24.0356 130.5 25.9999 130.5C27.9642 130.5 29.5788 132.055 29.5788 134C29.5788 135.945 27.9642 137.5 25.9999 137.5C24.0356 137.5 22.421 135.945 22.421 134ZM23.6063 139.756C23.3878 139.615 23.1763 139.576 23.021 139.618C22.8741 139.659 22.7278 139.702 22.5823 139.749L21.5979 140.064C20.8642 140.299 20.2917 140.83 20.0176 141.497C20.0121 141.516 20.0037 141.544 19.9903 141.588C19.9903 141.588 19.99 141.589 19.9892 141.592L19.9863 141.602L19.9777 141.634C19.9711 141.66 19.9634 141.69 19.9558 141.721C19.9481 141.752 19.9408 141.782 19.9349 141.808L19.9275 141.84L19.9253 141.85C19.9247 141.853 19.9245 141.854 19.9245 141.854C19.9053 141.955 19.9016 141.991 19.8919 142.083L19.5152 145.646L19.5139 145.655C19.4236 146.29 19.7664 146.83 20.338 146.963C21.4353 147.217 23.2686 147.5 25.9999 147.5C26.276 147.5 26.4999 147.724 26.4999 148C26.4999 148.276 26.276 148.5 25.9999 148.5C23.1994 148.5 21.2898 148.21 20.1119 147.937C18.9657 147.671 18.375 146.592 18.5225 145.523L18.8971 141.98C18.9084 141.874 18.9154 141.808 18.9421 141.668C18.9566 141.591 19.0113 141.37 19.0342 141.295C19.0507 141.241 19.0566 141.221 19.0583 141.215C19.06 141.208 19.0643 141.192 19.0713 141.172C19.0742 141.163 19.0767 141.157 19.0778 141.154L19.0791 141.151L19.0796 141.149C19.4638 140.186 20.275 139.437 21.293 139.112L22.2774 138.796C22.436 138.746 22.5954 138.698 22.7556 138.654C23.2758 138.511 23.783 138.68 24.1493 138.917C24.5431 139.171 25.1944 139.486 25.9999 139.486C26.8054 139.486 27.4567 139.171 27.8505 138.917C28.2168 138.68 28.724 138.511 29.2442 138.654C29.4044 138.698 29.5638 138.746 29.7224 138.796L30.7068 139.112C30.9698 139.196 31.1147 139.477 31.0305 139.74C30.9463 140.003 30.6649 140.148 30.4019 140.064L29.4175 139.749C29.272 139.702 29.1257 139.659 28.9787 139.618C28.8235 139.576 28.612 139.615 28.3935 139.756C27.9045 140.073 27.0644 140.486 25.9999 140.486C24.9354 140.486 24.0953 140.073 23.6063 139.756Z" fill="#5F5F6A"/>
</svg>
