<svg width="56" height="168" viewBox="0 0 56 168" fill="none" xmlns="http://www.w3.org/2000/svg">
<path fill-rule="evenodd" clip-rule="evenodd" d="M18.75 28C18.75 26.1728 20.1576 24.75 21.8235 24.75H24C24.4142 24.75 24.75 24.4142 24.75 24C24.75 23.5858 24.4142 23.25 24 23.25H21.8235C19.2661 23.25 17.25 25.4089 17.25 28V31.2321C17.25 32.0449 17.25 32.7006 17.2934 33.2315C17.338 33.7781 17.4324 34.2582 17.6587 34.7025C18.0183 35.4081 18.5919 35.9817 19.2975 36.3413C19.7418 36.5676 20.2219 36.662 20.7685 36.7066C21.2994 36.75 21.955 36.75 22.7679 36.75H34C34.011 36.75 34.0219 36.7498 34.0328 36.7493C34.1715 36.75 34.3174 36.75 34.471 36.75H34.5289C35.0479 36.75 35.4803 36.75 35.835 36.7224C36.2053 36.6935 36.5501 36.6313 36.8805 36.4749C37.6494 36.1109 38.2306 35.4286 38.5275 34.6094C38.6515 34.2674 38.7023 33.9083 38.7265 33.5038C38.75 33.1095 38.75 32.6248 38.75 32.0234V28C38.75 25.4739 36.9382 23.25 34.5 23.25C34.3823 23.25 34.2662 23.2552 34.1516 23.2653C34.1026 23.2553 34.0519 23.25 34 23.25H30.5C30.0858 23.25 29.75 23.5858 29.75 24C29.75 24.4142 30.0858 24.75 30.5 24.75H31.3991C30.6785 25.6145 30.25 26.7715 30.25 28V32.0234C30.25 32.6248 30.25 33.1094 30.2735 33.5038C30.2977 33.9083 30.3485 34.2674 30.4725 34.6094C30.5541 34.8345 30.6572 35.0493 30.7797 35.25H22.8C21.9475 35.25 21.3533 35.2494 20.8907 35.2116C20.4368 35.1745 20.176 35.1054 19.9785 35.0048C19.5552 34.789 19.211 34.4448 18.9952 34.0215C18.8946 33.824 18.8255 33.5632 18.7884 33.1093C18.7506 32.6467 18.75 32.0525 18.75 31.2V28ZM31.75 28C31.75 26.1079 33.0722 24.75 34.5 24.75C35.9278 24.75 37.25 26.1079 37.25 28V32C37.25 32.6302 37.2497 33.07 37.2291 33.4144C37.2089 33.7537 37.1709 33.9502 37.1173 34.0983C36.9405 34.5859 36.6132 34.9418 36.2387 35.1191C36.1403 35.1657 35.9989 35.205 35.7184 35.2269C35.4289 35.2495 35.0553 35.25 34.5 35.25C33.9447 35.25 33.5711 35.2495 33.2816 35.2269C33.0011 35.205 32.8597 35.1657 32.7613 35.1191C32.3868 34.9418 32.0595 34.5859 31.8827 34.0983C31.8291 33.9502 31.7911 33.7537 31.7709 33.4144C31.7503 33.07 31.75 32.6302 31.75 32V28Z" fill="#5F5F6A"/>
<g opacity="0.5">
<path d="M25.8059 19.2505C25.4039 19.251 25.0019 19.2516 24.5999 19.2499C24.516 19.2496 24.3817 19.2491 24.2562 19.274C23.5481 19.4149 23.2506 20.0336 23.25 20.6879C23.2498 20.9734 23.2496 21.2193 23.2933 21.439C23.4708 22.3315 24.1686 23.0292 25.0611 23.2068C25.2808 23.2505 25.5266 23.2503 25.8122 23.25L27.2501 23.25L27.2501 27C27.2501 27.4142 27.5859 27.75 28.0001 27.75C28.4143 27.75 28.7501 27.4142 28.7501 27L28.7501 21.5738C28.7501 21.3163 28.7501 21.0798 28.734 20.8821C28.7165 20.669 28.6767 20.4358 28.5593 20.2055C28.3915 19.8762 28.1238 19.6085 27.7945 19.4407C27.5642 19.3234 27.3311 19.2835 27.1179 19.2661C26.9203 19.25 26.6838 19.25 26.4263 19.25L26.4001 19.25C26.202 19.25 26.004 19.2503 25.8059 19.2505ZM27.2501 21.6V21.75L25.3537 21.7356C25.0562 21.6764 24.8237 21.4438 24.7645 21.1463C24.755 21.0986 24.751 21.0287 24.7502 20.75H26.4001C26.6925 20.75 26.8667 20.7506 26.9958 20.7611C27.0746 20.7676 27.1077 20.7761 27.1166 20.7788C27.1612 20.8023 27.1977 20.8388 27.2212 20.8835C27.224 20.8923 27.2325 20.9255 27.2389 21.0043C27.2495 21.1334 27.2501 21.3076 27.2501 21.6Z" fill="#5F5F6A"/>
<path d="M31.7499 29.3693L33.6312 27.7568C33.5881 27.7523 33.5443 27.75 33.4999 27.75H31.7577C31.7928 27.1894 31.9453 26.6817 32.1809 26.25H33.4999C35.0187 26.25 36.2499 27.4812 36.2499 29V33.5C36.2499 34.1567 36.0197 34.7597 35.6356 35.2326C35.358 35.2496 35.0038 35.25 34.4999 35.25C33.9446 35.25 33.571 35.2495 33.2815 35.2269C33.001 35.205 32.8596 35.1657 32.7612 35.1191C32.5831 35.0348 32.4157 34.9101 32.27 34.75H33.4999C34.1903 34.75 34.7499 34.1904 34.7499 33.5V29C34.7499 28.928 34.7438 28.8574 34.7321 28.7888L31.7499 31.345V29.3693Z" fill="#5F5F6A"/>
</g>
<path d="M18.75 28C18.75 26.1728 20.1576 24.75 21.8235 24.75H24C24.4142 24.75 24.75 24.4142 24.75 24C24.75 23.5858 24.4142 23.25 24 23.25H21.8235C19.2661 23.25 17.25 25.4089 17.25 28V31.2321C17.25 32.0449 17.25 32.7006 17.2934 33.2315C17.338 33.7781 17.4324 34.2582 17.6587 34.7025C18.0183 35.4081 18.5919 35.9817 19.2975 36.3413C19.7418 36.5676 20.2219 36.662 20.7685 36.7066C21.2994 36.75 21.955 36.75 22.7679 36.75H34C34.011 36.75 34.0219 36.7498 34.0328 36.7493C34.1715 36.75 34.3174 36.75 34.471 36.75H34.5289C35.0479 36.75 35.4803 36.75 35.835 36.7224C36.2053 36.6935 36.5501 36.6313 36.8805 36.4749C37.6494 36.1109 38.2306 35.4286 38.5275 34.6094C38.6515 34.2674 38.7023 33.9083 38.7265 33.5038C38.75 33.1095 38.75 32.6248 38.75 32.0234V28C38.75 25.4739 36.9382 23.25 34.5 23.25C34.3823 23.25 34.2662 23.2552 34.1516 23.2653C34.1026 23.2553 34.0519 23.25 34 23.25H30.5C30.0858 23.25 29.75 23.5858 29.75 24C29.75 24.4142 30.0858 24.75 30.5 24.75H31.3991C30.6785 25.6145 30.25 26.7715 30.25 28V32.0234C30.25 32.6248 30.25 33.1094 30.2735 33.5038C30.2977 33.9083 30.3485 34.2674 30.4725 34.6094C30.5541 34.8345 30.6572 35.0493 30.7797 35.25H22.8C21.9475 35.25 21.3533 35.2494 20.8907 35.2116C20.4368 35.1745 20.176 35.1054 19.9785 35.0048C19.5552 34.789 19.211 34.4448 18.9952 34.0215C18.8946 33.824 18.8255 33.5632 18.7884 33.1093C18.7506 32.6467 18.75 32.0525 18.75 31.2V28ZM31.75 28C31.75 26.1079 33.0722 24.75 34.5 24.75C35.9278 24.75 37.25 26.1079 37.25 28V32C37.25 32.6302 37.2497 33.07 37.2291 33.4144C37.2089 33.7537 37.1709 33.9502 37.1173 34.0983C36.9405 34.5859 36.6132 34.9418 36.2387 35.1191C36.1403 35.1657 35.9989 35.205 35.7184 35.2269C35.4289 35.2495 35.0553 35.25 34.5 35.25C33.9447 35.25 33.5711 35.2495 33.2816 35.2269C33.0011 35.205 32.8597 35.1657 32.7613 35.1191C32.3868 34.9418 32.0595 34.5859 31.8827 34.0983C31.8291 33.9502 31.7911 33.7537 31.7709 33.4144C31.7503 33.07 31.75 32.6302 31.75 32V28Z" fill="#5F5F6A"/>
<path d="M24.6 75.2499C24.609 75.25 24.6174 75.25 24.6252 75.25L26.4002 75.25C26.4089 75.25 26.4177 75.25 26.4264 75.25C26.6839 75.25 26.9203 75.25 27.118 75.2661C27.3312 75.2835 27.5643 75.3234 27.7946 75.4407C28.1239 75.6085 28.3916 75.8762 28.5594 76.2055C28.6768 76.4358 28.7166 76.669 28.734 76.8821C28.7502 77.0798 28.7502 77.3163 28.7502 77.5738L28.7502 83C28.7502 83.4142 28.4144 83.75 28.0002 83.75C27.5859 83.75 27.2502 83.4142 27.2502 83V79.25H25.8752C25.854 79.25 25.833 79.25 25.8122 79.25C25.5267 79.2503 25.2808 79.2505 25.0612 79.2068C24.1687 79.0292 23.4709 78.3315 23.2934 77.439C23.2497 77.2193 23.2499 76.9734 23.2501 76.6879C23.2501 76.6672 23.2502 76.6462 23.2502 76.625C23.2502 76.6172 23.2501 76.6088 23.2501 76.5998C23.2497 76.5159 23.2492 76.3817 23.2742 76.2561C23.3728 75.7603 23.7604 75.3727 24.2563 75.274C24.3818 75.2491 24.516 75.2496 24.6 75.2499ZM27.2502 77.75V77.6C27.2502 77.3076 27.2496 77.1334 27.239 77.0043C27.2326 76.9255 27.2241 76.8923 27.2213 76.8835C27.1978 76.8388 27.1613 76.8023 27.1167 76.7788C27.1078 76.7761 27.0747 76.7676 26.9959 76.7611C26.8668 76.7506 26.6926 76.75 26.4002 76.75H24.7503C24.7511 77.0287 24.7551 77.0986 24.7646 77.1463C24.8237 77.4438 25.0563 77.6764 25.3538 77.7356C25.408 77.7464 25.4907 77.75 25.8752 77.75H27.2502ZM27.1193 76.7797L27.1178 76.7792L27.1193 76.7797ZM27.2204 76.8809L27.221 76.8824L27.2204 76.8809ZM21.8235 80.75C20.1576 80.75 18.75 82.1728 18.75 84V87.2C18.75 88.0525 18.7506 88.6467 18.7884 89.1093C18.8255 89.5632 18.8946 89.824 18.9952 90.0215C19.211 90.4448 19.5552 90.7891 19.9785 91.0048C20.176 91.1054 20.4368 91.1745 20.8907 91.2116C21.3533 91.2494 21.9475 91.25 22.8 91.25H30.7797C30.6572 91.0493 30.5541 90.8345 30.4725 90.6094C30.3485 90.2674 30.2977 89.9083 30.2735 89.5038C30.25 89.1095 30.25 88.6248 30.25 88.0234V84C30.25 82.7715 30.6785 81.6145 31.3991 80.75H30.5C30.0858 80.75 29.75 80.4142 29.75 80C29.75 79.5858 30.0858 79.25 30.5 79.25H34C34.0519 79.25 34.1026 79.2553 34.1516 79.2653C34.2662 79.2552 34.3823 79.25 34.5 79.25C36.9382 79.25 38.75 81.4739 38.75 84V88.0234C38.75 88.6248 38.75 89.1095 38.7265 89.5038C38.7023 89.9083 38.6515 90.2674 38.5275 90.6094C38.2306 91.4286 37.6494 92.1109 36.8805 92.4749C36.5501 92.6313 36.2053 92.6935 35.835 92.7224C35.4803 92.75 35.048 92.75 34.529 92.75H34.4711C34.3175 92.75 34.1714 92.75 34.0328 92.7493C34.0219 92.7498 34.011 92.75 34 92.75H22.7679C21.955 92.75 21.2994 92.75 20.7685 92.7066C20.2219 92.662 19.7418 92.5676 19.2975 92.3413C18.5919 91.9818 18.0183 91.4081 17.6587 90.7025C17.4324 90.2582 17.338 89.7781 17.2934 89.2315C17.25 88.7006 17.25 88.045 17.25 87.2321V84C17.25 81.4089 19.2661 79.25 21.8235 79.25H24C24.4142 79.25 24.75 79.5858 24.75 80C24.75 80.4142 24.4142 80.75 24 80.75H21.8235ZM31.7578 83.75C31.7526 83.8322 31.75 83.9156 31.75 84V85.3694L33.6313 83.7568C33.5881 83.7523 33.5443 83.75 33.5 83.75L31.7578 83.75ZM32.181 82.25H33.5C35.0188 82.25 36.25 83.4812 36.25 85V89.5C36.25 90.1567 36.0198 90.7597 35.6357 91.2326C35.664 91.2309 35.6916 91.229 35.7184 91.2269C35.9989 91.205 36.1403 91.1657 36.2387 91.1191C36.6132 90.9418 36.9405 90.5859 37.1173 90.0983C37.1709 89.9502 37.2089 89.7537 37.2291 89.4144C37.2497 89.0701 37.25 88.6303 37.25 88V84C37.25 82.1079 35.9278 80.75 34.5 80.75C33.5702 80.75 32.6852 81.3258 32.181 82.25ZM32.2701 90.75H33.5C34.1904 90.75 34.75 90.1904 34.75 89.5V85C34.75 84.928 34.7439 84.8574 34.7322 84.7888L31.75 87.345V88C31.75 88.6303 31.7503 89.0701 31.7709 89.4144C31.7911 89.7537 31.8291 89.9502 31.8827 90.0983C31.9754 90.354 32.1095 90.5735 32.2701 90.75Z" fill="#5F5F6A"/>
<path d="M24.5996 131.5C24.6083 131.5 24.6168 131.5 24.625 131.5L26.4193 131.5C26.6828 131.5 26.9102 131.5 27.0975 131.515C27.2952 131.531 27.4918 131.567 27.681 131.663C27.9632 131.807 28.1927 132.037 28.3365 132.319C28.4329 132.508 28.4686 132.705 28.4847 132.902C28.5 133.09 28.5 133.317 28.5 133.581L28.5 139C28.5 139.276 28.2761 139.5 28 139.5C27.7239 139.5 27.5 139.276 27.5 139L27.5 135H25.875C25.8576 135 25.8404 135 25.8234 135C25.5253 135 25.3041 135 25.1098 134.962C24.3164 134.804 23.6962 134.184 23.5384 133.39C23.4998 133.196 23.4999 132.975 23.5 132.677C23.5 132.66 23.5 132.642 23.5 132.625C23.5 132.617 23.5 132.608 23.5 132.6C23.4998 132.512 23.4995 132.404 23.5192 132.305C23.5981 131.908 23.9082 131.598 24.3049 131.519C24.404 131.5 24.5116 131.5 24.5996 131.5ZM27.5 134V133.6C27.5 133.312 27.4996 133.126 27.488 132.984C27.4769 132.848 27.4581 132.798 27.4455 132.773C27.3976 132.679 27.3211 132.602 27.227 132.554C27.2023 132.542 27.1519 132.523 27.0161 132.512C26.8744 132.5 26.6883 132.5 26.4 132.5L24.625 132.5C24.5635 132.5 24.5299 132.5 24.5054 132.501C24.5038 132.501 24.5024 132.501 24.5011 132.501C24.501 132.502 24.501 132.504 24.5009 132.505C24.5001 132.53 24.5 132.564 24.5 132.625C24.5 132.997 24.5024 133.111 24.5192 133.195C24.5981 133.592 24.9082 133.902 25.3049 133.981C25.3893 133.998 25.5025 134 25.875 134H27.5Z" fill="#5F5F6A"/>
<path d="M21.8235 136.5C20.009 136.5 18.5 138.045 18.5 140V143.2C18.5 144.048 18.5004 144.654 18.5392 145.13C18.5776 145.599 18.6509 145.896 18.7725 146.135C19.0122 146.605 19.3946 146.988 19.865 147.228C20.1037 147.349 20.401 147.422 20.8703 147.461C21.3455 147.5 21.9517 147.5 22.8 147.5H31.2658C31.028 147.216 30.8385 146.885 30.7075 146.524C30.5953 146.215 30.5466 145.883 30.5231 145.489C30.5 145.102 30.5 144.624 30.5 144.016V140C30.5 138.612 31.069 137.336 31.9826 136.5H30.5C30.2239 136.5 30 136.276 30 136C30 135.724 30.2239 135.5 30.5 135.5H34C34.0465 135.5 34.0915 135.506 34.1342 135.518C34.2544 135.506 34.3764 135.5 34.5 135.5C36.7698 135.5 38.5 137.58 38.5 140V144.016C38.5 144.624 38.5 145.102 38.4769 145.489C38.4534 145.883 38.4047 146.215 38.2925 146.524C38.0156 147.288 37.4767 147.916 36.7735 148.249C36.4818 148.387 36.1709 148.445 35.8156 148.473C35.4707 148.5 35.0467 148.5 34.5203 148.5H34.4797C34.3197 148.5 34.1692 148.5 34.0276 148.499C34.0184 148.5 34.0092 148.5 34 148.5H22.7778C21.9565 148.5 21.3095 148.5 20.7889 148.457C20.2577 148.414 19.8141 148.324 19.411 148.119C18.7525 147.783 18.217 147.248 17.8815 146.589C17.6761 146.186 17.5859 145.742 17.5425 145.211C17.5 144.69 17.5 144.043 17.5 143.222V140C17.5 137.536 19.4147 135.5 21.8235 135.5H24C24.2761 135.5 24.5 135.724 24.5 136C24.5 136.276 24.2761 136.5 24 136.5H21.8235ZM31.5 143.23V144C31.5 144.627 31.5002 145.076 31.5213 145.429C31.5422 145.779 31.5823 146.003 31.6477 146.183C31.7653 146.508 31.9446 146.785 32.1639 147H33.5C34.3284 147 35 146.328 35 145.5V141C35 140.768 34.9475 140.549 34.8538 140.353C34.8448 140.362 34.8353 140.371 34.8254 140.38L31.5 143.23ZM35.0016 147.499C35.3001 147.497 35.5374 147.492 35.7378 147.476C36.0333 147.453 36.2086 147.41 36.3457 147.345C36.7859 147.137 37.1555 146.726 37.3523 146.183C37.4177 146.003 37.4578 145.779 37.4787 145.429C37.4998 145.076 37.5 144.627 37.5 144V140C37.5 138.002 36.0962 136.5 34.5 136.5C33.338 136.5 32.2779 137.296 31.7872 138.5H33.5C34.8807 138.5 36 139.619 36 141V145.5C36 146.317 35.6079 147.043 35.0016 147.499ZM31.5299 139.5C31.5102 139.663 31.5 139.83 31.5 140V141.913L34.1453 139.646C33.9498 139.552 33.731 139.5 33.5 139.5H31.5299Z" fill="#5F5F6A"/>
</svg>
