<svg width="56" height="224" viewBox="0 0 56 224" fill="none" xmlns="http://www.w3.org/2000/svg">
<path fill-rule="evenodd" clip-rule="evenodd" d="M37.8272 21.4488C37.5823 21.0077 37.1444 20.4982 36.3808 20.0573C35.6171 19.6164 34.9569 19.4919 34.4525 19.5004C34.0494 19.5072 33.5061 19.5809 33.2682 19.9501L27.7102 28.5769C27.3908 29.0727 27.3434 29.6978 27.3149 30.2703C27.2864 30.8445 27.2255 31.4146 26.9322 31.9227C26.7333 32.2672 26.8622 32.7483 27.2067 32.9472L29.8048 34.4472C30.1635 34.6543 30.6222 34.5314 30.8293 34.1727C31.1226 33.6647 31.5859 33.327 32.0689 33.0151C32.5508 32.7039 33.0756 32.3477 33.3412 31.8194L38.0298 22.6992C38.2307 22.3086 38.0228 21.8012 37.8272 21.4488ZM34.372 21.0065L29.3977 28.7273L32.3639 30.4398L36.5631 22.2715C36.4779 22.08 36.26 21.7196 35.6308 21.3563C35.0015 20.993 34.5805 20.9845 34.372 21.0065Z" fill="#5F5F6A"/>
<path d="M27.4119 33.5919C27.1748 33.455 26.8717 33.5343 26.7319 33.7697L26.5946 34.001H18.6397C18.2288 34.001 17.9926 34.4925 18.2493 34.8134L19.2493 36.0634C19.3442 36.182 19.4879 36.251 19.6397 36.251C22.5504 36.251 25.4611 36.2468 28.3718 36.2468C28.5322 36.2468 28.6829 36.1698 28.7769 36.0398L29.2991 35.318C29.4649 35.0886 29.389 34.7334 29.1439 34.5919L27.4119 33.5919Z" fill="#5F5F6A"/>
<path opacity="0.5" d="M26.1406 91.7507H19.6406L18.6406 90.5007H26.8906L26.1406 91.7507ZM32.6719 87.4831C32.1719 88.3491 30.9307 88.4986 30.1807 89.7975L27.583 88.2975C28.3328 86.9986 27.8418 85.8491 28.3418 84.9831L32.6719 87.4831Z" fill="#5F5F6A"/>
<path fill-rule="evenodd" clip-rule="evenodd" d="M36.3808 76.0573C37.1444 76.4982 37.5823 77.0077 37.8272 77.4488C38.0233 77.8021 38.234 78.3022 38.0298 78.6992L33.3412 87.8195C33.0755 88.3477 32.5509 88.7039 32.069 89.015C31.5859 89.3269 31.1226 89.6646 30.8293 90.1727C30.6222 90.5314 30.1635 90.6543 29.8048 90.4472L27.2067 88.9472C26.8622 88.7483 26.7333 88.2672 26.9322 87.9227C27.2255 87.4147 27.2864 86.8445 27.3149 86.2703C27.3433 85.7005 27.3924 85.0702 27.7102 84.5769L33.2682 75.9501C33.5059 75.5812 34.05 75.5072 34.4525 75.5004C34.9569 75.4919 35.6171 75.6164 36.3808 76.0573ZM29.3977 84.7273L34.372 77.0065C34.5805 76.9845 35.0015 76.993 35.6308 77.3563C36.26 77.7196 36.4779 78.08 36.5631 78.2715L32.3639 86.4398L29.3977 84.7273ZM28.8276 86.1302L31.4339 87.635C31.325 87.7081 31.2153 87.7799 31.1058 87.8521C30.7575 88.0821 30.3437 88.3713 29.9664 88.8085L28.5451 87.9879C28.7351 87.4425 28.7786 86.9396 28.8036 86.5229C28.8114 86.392 28.8188 86.2611 28.8276 86.1302Z" fill="#5F5F6A"/>
<path fill-rule="evenodd" clip-rule="evenodd" d="M26.7319 89.7697C26.8717 89.5343 27.1748 89.455 27.4119 89.5919L29.1439 90.5919C29.389 90.7334 29.4649 91.0886 29.2991 91.318L28.7769 92.0398C28.6829 92.1698 28.5322 92.2468 28.3718 92.2468C25.4611 92.2468 22.5504 92.251 19.6397 92.251C19.4879 92.251 19.3442 92.182 19.2493 92.0634L18.2493 90.8134C17.9926 90.4925 18.2288 90.001 18.6397 90.001H26.5946L26.7319 89.7697ZM27.0254 91.2468C27.1314 91.0702 27.2596 90.8957 27.3449 90.708L28.164 91.1809L28.1164 91.2468H27.0254ZM26.001 91.001H19.6801L19.8801 91.251H25.8526L26.001 91.001Z" fill="#5F5F6A"/>
<path fill-rule="evenodd" clip-rule="evenodd" d="M37.8279 133.449C37.583 133.008 37.1451 132.498 36.3815 132.057C35.6178 131.616 34.9576 131.492 34.4532 131.5C34.0664 131.507 33.4998 131.592 33.269 131.95L27.7109 140.577C27.3583 141.124 27.3447 141.806 27.307 142.433C27.2752 142.963 27.2177 143.429 26.9329 143.923C26.734 144.267 26.8629 144.748 27.2074 144.947L29.8055 146.447C30.1642 146.654 30.6229 146.531 30.83 146.173C31.1148 145.679 31.4903 145.396 31.933 145.104C32.4575 144.758 33.0489 144.402 33.342 143.819L38.0306 134.699C38.1474 134.472 38.0038 133.766 37.8279 133.449ZM34.3727 133.006L29.3984 140.727L32.3646 142.44L36.5638 134.272C36.4786 134.08 36.2607 133.72 35.6315 133.356C35.0022 132.993 34.5812 132.985 34.3727 133.006Z" fill="#5F5F6A"/>
<path fill-rule="evenodd" clip-rule="evenodd" d="M26.8401 145.833C26.9449 145.657 27.1723 145.597 27.3501 145.7L29.0821 146.7C29.266 146.806 29.3229 147.073 29.1985 147.245L28.6764 147.967C28.6058 148.064 28.4928 148.122 28.3725 148.122C25.4585 148.122 22.5567 148.126 19.6405 148.126C19.5265 148.126 19.4188 148.074 19.3476 147.985L18.3476 146.735C18.1551 146.495 18.3323 146.126 18.6405 146.126H26.6665L26.8401 145.833ZM26.8053 147.372C26.9717 147.094 27.1311 146.813 27.2959 146.535L28.3472 147.142L28.1809 147.372H26.8053ZM26.2212 146.876H19.4207L19.8207 147.376H25.9244L26.2212 146.876Z" fill="#5F5F6A"/>
<path fill-rule="evenodd" clip-rule="evenodd" d="M37.6093 189.57C37.3871 189.17 36.9821 188.693 36.2565 188.274C35.5309 187.855 34.9151 187.743 34.4574 187.75C34.1442 187.756 33.6709 187.788 33.4791 188.086L27.9211 196.712C27.6264 197.17 27.5928 197.754 27.5656 198.281C27.5339 198.897 27.4636 199.503 27.1494 200.048C27.0168 200.277 27.1028 200.598 27.3324 200.731L29.9305 202.231C30.1697 202.369 30.4755 202.287 30.6135 202.048C30.9284 201.502 31.3446 201.193 31.7953 200.895C32.2804 200.575 32.8476 200.247 33.1187 199.707L37.8082 190.585C37.9708 190.269 37.763 189.847 37.6093 189.57ZM34.2231 188.777L29.0461 196.813L32.4669 198.788L36.8372 190.286C36.7693 190.077 36.5546 189.601 35.7565 189.14C34.9583 188.679 34.4383 188.731 34.2231 188.777ZM28.6174 197.72C28.5902 197.898 28.5782 198.106 28.5634 198.361C28.5285 198.955 28.4653 199.543 28.2367 200.098L30.0262 201.131C30.3931 200.656 30.8701 200.307 31.3669 199.98C31.581 199.839 31.7549 199.725 31.8956 199.612L28.6174 197.72Z" fill="#5F5F6A"/>
<path fill-rule="evenodd" clip-rule="evenodd" d="M26.8401 201.833C26.9449 201.657 27.1723 201.597 27.3501 201.7L29.0821 202.7C29.266 202.806 29.3229 203.073 29.1985 203.245L28.6764 203.967C28.6058 204.064 28.4928 204.122 28.3725 204.122C25.4618 204.122 22.5511 204.126 19.6405 204.126C19.5265 204.126 19.4188 204.074 19.3476 203.985L18.3476 202.735C18.1551 202.495 18.3323 202.126 18.6405 202.126H26.6665L26.8401 201.833ZM26.2212 202.876H19.4207L19.8207 203.376H25.9244L26.2212 202.876Z" fill="#5F5F6A"/>
</svg>
