<svg width="56" height="224" viewBox="0 0 56 224" fill="none" xmlns="http://www.w3.org/2000/svg">
<path d="M32.4745 22.7227C31.8028 22.541 31.2063 22.6808 30.4709 22.8532L23.3582 24.5129L22.0461 24.7126C21.7022 24.7649 21.2991 24.9462 21.067 25.2139L21.0642 25.2171L21.0632 25.2182C20.6771 25.67 20.25 26.5171 20.25 28C20.25 29.4829 20.6774 30.3302 21.0635 30.7821L21.0642 30.7828L21.067 30.7861C21.0694 30.7888 21.0742 30.7944 21.0804 30.8012C21.3161 31.0588 21.7063 31.2357 22.0461 31.2874L23.3581 31.487L24.4029 31.7308C24.2402 33.2078 24.8532 34.7745 25.913 35.7117C26.2805 36.0367 26.8005 35.9535 27.0897 35.6401C27.4478 35.252 27.3593 34.6949 27.0543 34.3799C26.5917 33.9023 26.1212 33.0755 26.1601 32.1408L30.4709 33.1468C31.2063 33.3192 31.8028 33.459 32.4745 33.2772C32.7599 33.2 33.0472 33.0491 33.2844 32.8891C33.5217 32.7291 33.7693 32.5194 33.9479 32.2838C34.3673 31.7303 34.4468 31.2193 34.5441 30.5944L34.5548 30.5253C34.5735 30.4059 34.5913 30.2832 34.608 30.1573L35.4013 30.0223C35.7666 29.9601 36.112 29.7849 36.3193 29.4314C36.4951 29.1316 36.5 28.8106 36.5 28.6512V27.3488C36.5 27.1894 36.4951 26.8684 36.3193 26.5686C36.112 26.2151 35.7666 26.0399 35.4013 25.9777L34.608 25.8427C34.5913 25.7168 34.5735 25.5941 34.5548 25.4747L34.5441 25.4056C34.4468 24.7806 34.3673 24.2696 33.9479 23.7162C33.7693 23.4806 33.5217 23.2709 33.2844 23.1109C33.0472 22.9509 32.7599 22.7999 32.4745 22.7227ZM23.5 28C23.5 28.8119 23.5973 29.4894 23.7277 30.033C23.3786 29.9515 23.0229 29.9187 22.6691 29.8649C22.5675 29.3304 22.5 28.7087 22.5 28C22.5 27.2913 22.5675 26.6696 22.6691 26.1351C23.0229 26.0812 23.3786 26.0484 23.7277 25.967C23.5973 26.5106 23.5 27.1881 23.5 28ZM34.7386 27.3865C34.746 27.5862 34.75 27.7908 34.75 28C34.75 28.2092 34.746 28.4138 34.7386 28.6135L35 28.569V27.431L34.7386 27.3865Z" fill="#5F5F6A"/>
<path opacity="0.5" d="M21.6357 81.7035C21.6341 81.7046 21.6341 81.7046 21.6334 81.7055C21.3794 82.0026 21 82.6693 21 84C21 85.3307 21.3794 85.9973 21.6334 86.2945C21.6341 86.2953 21.6341 86.2953 21.6357 86.2964C21.6398 86.2992 21.6541 86.3087 21.7151 86.3551C21.7552 86.3855 21.9165 86.4752 21.9634 86.4931C22.0637 86.5314 22.0954 86.5362 22.1589 86.5459L22.5861 86.6109C22.3966 85.9273 22.25 85.0564 22.25 84C22.25 82.9436 22.3966 82.0727 22.5862 81.389L22.1589 81.4541C22.0954 81.4637 22.0637 81.4686 21.9634 81.5068C21.9165 81.5248 21.7552 81.6144 21.7151 81.6449C21.6541 81.6912 21.6398 81.7008 21.6357 81.7035ZM24.1391 81.1009C24.1678 81.2285 24.1634 81.3653 24.1196 81.4986C23.9277 82.0834 23.75 82.9163 23.75 84C23.75 85.0837 23.9277 85.9166 24.1196 86.5014C24.1634 86.6347 24.1678 86.7715 24.1391 86.8991L30.531 88.3905C31.3719 88.5868 31.7924 88.6849 32.2786 88.5533C32.6401 88.4555 33.124 88.1292 33.3502 87.8308C33.6545 87.4293 33.7076 87.0893 33.8138 86.4095C33.9224 85.7151 34 84.9028 34 84C34 83.0972 33.9224 82.2849 33.8138 81.5905C33.7076 80.9106 33.6545 80.5707 33.3502 80.1692C33.124 79.8708 32.6401 79.5445 32.2786 79.4467C31.7924 79.3151 31.3719 79.4132 30.531 79.6094L24.1391 81.1009Z" fill="#5F5F6A"/>
<path d="M30.4709 78.8532C31.2063 78.6808 31.8028 78.541 32.4745 78.7227C32.7599 78.7999 33.0472 78.9509 33.2844 79.1109C33.5217 79.2709 33.7693 79.4806 33.9479 79.7162C34.3673 80.2696 34.4468 80.7806 34.5441 81.4056L34.5548 81.4747C34.5735 81.5941 34.5913 81.7168 34.608 81.8427L35.4013 81.9777C35.7666 82.0399 36.112 82.2151 36.3193 82.5686C36.4951 82.8684 36.5 83.1894 36.5 83.3488V84.6512C36.5 84.8106 36.4951 85.1316 36.3193 85.4314C36.112 85.7849 35.7666 85.9601 35.4013 86.0223L34.608 86.1573C34.5913 86.2832 34.5735 86.4059 34.5548 86.5253L34.5441 86.5944C34.4468 87.2193 34.3673 87.7303 33.9479 88.2838C33.7693 88.5194 33.5217 88.7291 33.2844 88.8891C33.0472 89.0491 32.7599 89.2 32.4745 89.2772C31.8028 89.459 31.2063 89.3192 30.4709 89.1468L26.1601 88.1408C26.1212 89.0755 26.5917 89.9023 27.0543 90.3799C27.3593 90.6949 27.4478 91.252 27.0897 91.6401C26.8005 91.9535 26.2805 92.0367 25.913 91.7117C24.8532 90.7745 24.2402 89.2078 24.4029 87.7308L23.3581 87.487L22.0461 87.2874C21.9397 87.2712 21.8547 87.2544 21.6959 87.1938C21.614 87.1625 21.5156 87.1084 21.4723 87.0843C21.429 87.0603 21.3311 87.0052 21.2613 86.9522C21.2309 86.9291 21.2168 86.9187 21.2121 86.9154C21.2084 86.9128 21.2022 86.9085 21.1952 86.9035C21.1831 86.8947 21.1629 86.8796 21.1393 86.8589C21.1143 86.8369 21.0946 86.8167 21.0804 86.8012C21.0742 86.7944 21.0694 86.7888 21.067 86.7861L21.0642 86.7828L21.0635 86.7821C20.6774 86.3302 20.25 85.4829 20.25 84C20.25 82.5171 20.6771 81.67 21.0632 81.2182L21.0642 81.2171L21.067 81.2139C21.0694 81.2111 21.0742 81.2056 21.0804 81.1988C21.0946 81.1833 21.1143 81.1631 21.1393 81.1411C21.1629 81.1204 21.1831 81.1052 21.1952 81.0965C21.2022 81.0914 21.2084 81.0872 21.2121 81.0846C21.2168 81.0812 21.2309 81.0708 21.2613 81.0477C21.3311 80.9947 21.429 80.9397 21.4723 80.9156C21.5156 80.8916 21.614 80.8374 21.6959 80.8062C21.8547 80.7455 21.9397 80.7288 22.0461 80.7126L23.3582 80.5129L30.4709 78.8532ZM32.0827 80.1706C31.8152 80.0982 31.5965 80.131 30.7014 80.3398L23.6704 81.9804C23.6514 81.9848 23.6322 81.9885 23.6128 81.9914L22.2718 82.1955L22.2574 82.1977L22.2503 82.2003C22.2376 82.2068 22.2202 82.216 22.2011 82.2267C22.1841 82.2361 22.1688 82.245 22.157 82.252C22.0134 82.4494 21.75 82.9498 21.75 84C21.75 85.0501 22.0134 85.5506 22.157 85.748C22.1688 85.755 22.1841 85.7638 22.2011 85.7733C22.2202 85.7839 22.2376 85.7932 22.2503 85.7997L22.2574 85.8022L22.2718 85.8044L23.6128 86.0085C23.6322 86.0115 23.6514 86.0152 23.6704 86.0196L30.7014 87.6602C31.5965 87.869 31.8152 87.9017 32.0827 87.8293C32.1588 87.8087 32.2943 87.7476 32.4458 87.6454C32.5974 87.5432 32.7048 87.4406 32.7525 87.3777C32.9262 87.1484 32.963 86.9967 33.0728 86.2937C33.176 85.6333 33.25 84.8599 33.25 84C33.25 83.14 33.176 82.3666 33.0728 81.7063C32.963 81.0033 32.9262 80.8515 32.7525 80.6222C32.7048 80.5594 32.5974 80.4568 32.4458 80.3546C32.2943 80.2523 32.1588 80.1912 32.0827 80.1706ZM34.75 84C34.75 84.2092 34.746 84.4138 34.7386 84.6135L35 84.569V83.431L34.7386 83.3865C34.746 83.5862 34.75 83.7908 34.75 84Z" fill="#5F5F6A"/>
<path d="M32.4745 134.723C31.8028 134.541 31.2063 134.681 30.4709 134.853L23.3582 136.513L22.0461 136.713C21.9397 136.729 21.8547 136.746 21.6959 136.806C21.614 136.837 21.5156 136.892 21.4723 136.916C21.429 136.94 21.3311 136.995 21.2613 137.048C21.2309 137.071 21.2168 137.081 21.2121 137.085C21.2084 137.087 21.2022 137.091 21.1952 137.096C21.1831 137.105 21.1629 137.12 21.1393 137.141C21.1143 137.163 21.0946 137.183 21.0804 137.199C21.0742 137.206 21.0694 137.211 21.067 137.214L21.0642 137.217L21.0632 137.218C20.6771 137.67 20.25 138.517 20.25 140C20.25 141.483 20.6774 142.33 21.0635 142.782L21.0642 142.783L21.067 142.786C21.0694 142.789 21.0742 142.794 21.0804 142.801C21.0946 142.817 21.1143 142.837 21.1393 142.859C21.1629 142.88 21.1831 142.895 21.1952 142.903C21.2022 142.909 21.2084 142.913 21.2121 142.915C21.2168 142.919 21.2309 142.929 21.2613 142.952C21.3311 143.005 21.429 143.06 21.4723 143.084C21.5156 143.108 21.614 143.163 21.6959 143.194C21.8547 143.254 21.9397 143.271 22.0461 143.287L23.3581 143.487L24.4029 143.731C24.2402 145.208 24.8532 146.774 25.913 147.712C26.2805 148.037 26.8006 147.953 27.0898 147.64C27.4478 147.252 27.3593 146.695 27.0543 146.38C26.5917 145.902 26.1212 145.076 26.1601 144.141L30.4709 145.147C31.2063 145.319 31.8028 145.459 32.4745 145.277C32.7599 145.2 33.0472 145.049 33.2844 144.889C33.5217 144.729 33.7693 144.519 33.9479 144.284C34.3673 143.73 34.4468 143.219 34.5441 142.594L34.5548 142.525C34.5735 142.406 34.5913 142.283 34.608 142.157L35.4013 142.022C35.7666 141.96 36.112 141.785 36.3193 141.431C36.4951 141.132 36.5 140.811 36.5 140.651V139.349C36.5 139.189 36.4951 138.868 36.3193 138.569C36.112 138.215 35.7666 138.04 35.4013 137.978L34.608 137.843C34.5913 137.717 34.5735 137.594 34.5548 137.475L34.5441 137.406C34.4468 136.781 34.3673 136.27 33.9479 135.716C33.7693 135.481 33.5217 135.271 33.2844 135.111C33.0472 134.951 32.7599 134.8 32.4745 134.723ZM30.7014 136.34C31.5965 136.131 31.8152 136.098 32.0827 136.171C32.1588 136.191 32.2943 136.252 32.4458 136.355C32.5974 136.457 32.7048 136.559 32.7525 136.622C32.9262 136.852 32.963 137.003 33.0728 137.706C33.176 138.367 33.25 139.14 33.25 140C33.25 140.86 33.176 141.633 33.0728 142.294C32.963 142.997 32.9262 143.148 32.7525 143.378C32.7048 143.441 32.5974 143.543 32.4458 143.645C32.2943 143.748 32.1588 143.809 32.0827 143.829C31.8152 143.902 31.5965 143.869 30.7014 143.66L24.0012 142.097C23.8604 141.553 23.75 140.854 23.75 140C23.75 139.146 23.8604 138.447 24.0012 137.903L30.7014 136.34ZM22.25 140C22.25 140.687 22.312 141.296 22.4075 141.825L22.2718 141.804L22.2574 141.802L22.2503 141.8C22.2376 141.793 22.2202 141.784 22.2011 141.773C22.1841 141.764 22.1688 141.755 22.157 141.748C22.0134 141.551 21.75 141.05 21.75 140C21.75 138.95 22.0134 138.449 22.157 138.252C22.1688 138.245 22.1841 138.236 22.2011 138.227C22.2202 138.216 22.2376 138.207 22.2503 138.2L22.2574 138.198L22.2718 138.196L22.4075 138.175C22.312 138.704 22.25 139.313 22.25 140ZM34.7386 139.386C34.746 139.586 34.75 139.791 34.75 140C34.75 140.209 34.746 140.414 34.7386 140.614L35 140.569V139.431L34.7386 139.386Z" fill="#5F5F6A"/>
<path d="M32.4092 190.964C31.7999 190.799 31.2623 190.925 30.5034 191.102L23.4054 192.759L22.0837 192.96C21.9916 192.974 21.9244 192.987 21.7851 193.04C21.7227 193.064 21.6397 193.109 21.5938 193.134C21.5478 193.16 21.4658 193.206 21.4126 193.247C21.3748 193.276 21.3595 193.287 21.3555 193.29C21.3555 193.29 21.3484 193.294 21.3417 193.299C21.3335 193.305 21.32 193.315 21.3042 193.329C21.2875 193.344 21.2744 193.357 21.2649 193.368L21.2559 193.378L21.2533 193.381C20.9112 193.781 20.5 194.568 20.5 196C20.5 197.432 20.9119 198.22 21.2539 198.62L21.2559 198.622L21.2649 198.632C21.2744 198.643 21.2875 198.656 21.3042 198.671C21.32 198.685 21.3335 198.695 21.3417 198.701C21.3484 198.706 21.3555 198.711 21.3555 198.711C21.3596 198.713 21.3748 198.725 21.4126 198.753C21.4658 198.794 21.5478 198.84 21.5938 198.866C21.6397 198.891 21.7227 198.936 21.7851 198.96C21.9244 199.013 21.9916 199.026 22.0837 199.04L23.4054 199.241L24.4379 199.482C24.1726 201.029 24.7935 202.722 25.913 203.712C26.2805 204.037 26.8005 203.953 27.0897 203.64C27.4478 203.252 27.3593 202.695 27.0543 202.38C26.5507 201.86 26.0375 200.926 26.1829 199.889L30.5034 200.898C31.2623 201.075 31.7999 201.201 32.4092 201.036C32.6597 200.968 32.9217 200.832 33.1447 200.682C33.3677 200.531 33.5919 200.34 33.7487 200.133C34.1295 199.63 34.2004 199.176 34.2996 198.539L34.3078 198.487C34.3351 198.312 34.3605 198.13 34.3833 197.942L35.3593 197.776C35.6738 197.722 35.9436 197.578 36.1037 197.305C36.2427 197.068 36.25 196.807 36.25 196.651V195.349C36.25 195.193 36.2427 194.932 36.1037 194.695C35.9436 194.422 35.6738 194.278 35.3593 194.224L34.3833 194.058C34.3605 193.87 34.3351 193.688 34.3078 193.513L34.2996 193.461C34.2004 192.824 34.1295 192.37 33.7487 191.867C33.5919 191.66 33.3677 191.469 33.1447 191.318C32.9217 191.168 32.6597 191.032 32.4092 190.964ZM30.6446 192.096C31.5216 191.892 31.8076 191.837 32.148 191.929C32.259 191.959 32.4198 192.035 32.5856 192.147C32.7515 192.259 32.8823 192.38 32.9517 192.471C33.169 192.758 33.2112 192.972 33.3198 193.668C33.4248 194.339 33.5 195.126 33.5 196C33.5 196.874 33.4248 197.661 33.3198 198.332C33.2112 199.028 33.169 199.242 32.9517 199.529C32.8823 199.62 32.7515 199.741 32.5856 199.853C32.4198 199.965 32.259 200.041 32.148 200.071C31.8076 200.163 31.5216 200.108 30.6446 199.904L23.7989 198.306C23.6344 197.723 23.5 196.954 23.5 196C23.5 195.046 23.6344 194.277 23.7989 193.694L30.6446 192.096ZM22.5 196C22.5 196.827 22.5919 197.536 22.7229 198.126L22.2342 198.052C22.2022 198.047 22.1978 198.046 22.1978 198.046C22.1978 198.046 22.1851 198.042 22.1507 198.029L22.1377 198.023C22.1217 198.015 22.1012 198.004 22.0796 197.992C22.058 197.98 22.0379 197.968 22.0225 197.959L22.0098 197.951L21.9801 197.929C21.8052 197.704 21.5 197.152 21.5 196C21.5 194.848 21.8052 194.296 21.9801 194.071L22.0098 194.049L22.0225 194.041C22.0379 194.032 22.058 194.02 22.0796 194.008C22.1012 193.996 22.1217 193.985 22.1377 193.977L22.1508 193.971C22.1851 193.958 22.1981 193.954 22.1981 193.954C22.1981 193.954 22.2022 193.953 22.2342 193.948L22.7229 193.874C22.5919 194.464 22.5 195.173 22.5 196ZM34.4744 195.088L35.1915 195.21C35.2143 195.214 35.2312 195.218 35.2434 195.222C35.2475 195.249 35.25 195.289 35.25 195.349V196.651C35.25 196.711 35.2475 196.751 35.2434 196.778C35.2312 196.782 35.2143 196.786 35.1915 196.79L34.4744 196.912C34.4908 196.619 34.5 196.315 34.5 196C34.5 195.685 34.4908 195.381 34.4744 195.088Z" fill="#5F5F6A"/>
</svg>
