<svg width="56" height="224" viewBox="0 0 56 224" fill="none" xmlns="http://www.w3.org/2000/svg">
<path fill-rule="evenodd" clip-rule="evenodd" d="M28 19C28.5751 19 28.6597 19.82 28.1782 20.1344C26.2646 21.3838 25 23.5442 25 26C25 29.866 28.134 33 32 33C32.9227 33 33.8037 32.8215 34.6103 32.4971C35.0887 32.3047 35.6331 32.7982 35.3337 33.2181C33.702 35.5073 31.0253 37 28 37C23.0294 37 19 32.9706 19 28C19 23.0294 23.0294 19 28 19Z" fill="#5F5F6A"/>
<path opacity="0.5" fill-rule="evenodd" clip-rule="evenodd" d="M28 75C28.5751 75 28.6597 75.82 28.1782 76.1344C26.2646 77.3838 25 79.5442 25 82C25 85.866 28.134 89 32 89C32.9227 89 33.8037 88.8215 34.6103 88.4971C35.0887 88.3047 35.6331 88.7982 35.3337 89.2181C33.702 91.5073 31.0253 93 28 93C23.0294 93 19 88.9706 19 84C19 79.0294 23.0294 75 28 75Z" fill="#5F5F6A"/>
<path fill-rule="evenodd" clip-rule="evenodd" d="M27.1771 75.0371C27.1565 75.039 27.136 75.0409 27.1154 75.0429C22.5601 75.4873 19 79.3279 19 84C19 88.9706 23.0294 93 28 93C30.6246 93 32.9868 91.8765 34.632 90.0842C34.6722 90.0404 34.7121 89.9961 34.7514 89.9515C34.8544 89.8348 34.9543 89.7154 35.0512 89.5935C35.1486 89.4709 35.2428 89.3458 35.3337 89.2181C35.6331 88.7982 35.0887 88.3047 34.6103 88.4971C34.5484 88.522 34.4861 88.546 34.4233 88.5692C34.2666 88.627 34.1073 88.6794 33.9456 88.7261C33.8935 88.7411 33.8411 88.7556 33.7885 88.7694C33.2176 88.9199 32.6181 89 32 89C28.134 89 25 85.866 25 82C25 79.7734 26.0396 77.7897 27.6598 76.5076C27.6806 76.4911 27.7014 76.4748 27.7224 76.4586C27.8132 76.3884 27.9058 76.3204 28 76.2547C28.0587 76.2137 28.1181 76.1736 28.1782 76.1344C28.6597 75.82 28.5751 75 28 75C27.8148 75 27.6308 75.0056 27.4484 75.0166C27.3576 75.0221 27.2671 75.029 27.1771 75.0371ZM25.0532 77.1011C24.0755 78.4851 23.5 80.1752 23.5 82C23.5 86.6111 27.1717 90.3647 31.751 90.4964C30.6472 91.1351 29.3662 91.5 28 91.5C23.8579 91.5 20.5 88.1421 20.5 84C20.5 80.904 22.376 78.2461 25.0532 77.1011Z" fill="#5F5F6A"/>
<path fill-rule="evenodd" clip-rule="evenodd" d="M27.1771 131.037C27.1565 131.039 27.136 131.041 27.1154 131.043C22.5601 131.487 19 135.328 19 140C19 144.971 23.0294 149 28 149C30.6246 149 32.9868 147.877 34.632 146.084C34.6722 146.04 34.7121 145.996 34.7514 145.951C34.8544 145.835 34.9543 145.715 35.0512 145.593C35.1486 145.471 35.2428 145.346 35.3337 145.218C35.6331 144.798 35.0887 144.305 34.6103 144.497C34.5484 144.522 34.4861 144.546 34.4233 144.569C34.2666 144.627 34.1073 144.679 33.9456 144.726C33.8935 144.741 33.8411 144.756 33.7885 144.769C33.2176 144.92 32.6181 145 32 145C28.134 145 25 141.866 25 138C25 135.773 26.0396 133.79 27.6598 132.508C27.6806 132.491 27.7014 132.475 27.7224 132.459C27.8132 132.388 27.9058 132.32 28 132.255C28.0587 132.214 28.1181 132.174 28.1782 132.134C28.6597 131.82 28.5751 131 28 131C27.8148 131 27.6308 131.006 27.4484 131.017C27.3576 131.022 27.2671 131.029 27.1771 131.037ZM25.0532 133.101C24.0755 134.485 23.5 136.175 23.5 138C23.5 142.611 27.1717 146.365 31.751 146.496C30.6472 147.135 29.3662 147.5 28 147.5C23.8579 147.5 20.5 144.142 20.5 140C20.5 136.904 22.376 134.246 25.0532 133.101Z" fill="#5F5F6A"/>
<path fill-rule="evenodd" clip-rule="evenodd" d="M26.5669 188.128C24.9894 189.588 24 191.678 24 194C24 198.418 27.5817 202 32 202C32.4889 202 32.9681 201.956 33.4337 201.872C32.0062 203.194 30.0973 204 28 204C23.5817 204 20 200.418 20 196C20 192.071 22.8325 188.803 26.5669 188.128ZM28.1782 188.134C28.6597 187.82 28.5751 187 28 187C23.0294 187 19 191.029 19 196C19 200.971 23.0294 205 28 205C31.0253 205 33.702 203.507 35.3337 201.218C35.6331 200.798 35.0887 200.305 34.6103 200.497C33.8037 200.821 32.9227 201 32 201C28.134 201 25 197.866 25 194C25 191.544 26.2646 189.384 28.1782 188.134Z" fill="#5F5F6A"/>
</svg>
