<svg width="56" height="168" viewBox="0 0 56 168" fill="none" xmlns="http://www.w3.org/2000/svg">
<path d="M26.7679 21.25H29.2321C30.0449 21.25 30.7006 21.25 31.2315 21.2934C31.7781 21.338 32.2582 21.4324 32.7025 21.6587C33.4081 22.0183 33.9817 22.5919 34.3413 23.2975C34.5676 23.7418 34.662 24.2219 34.7066 24.7685C34.75 25.2994 34.75 25.955 34.75 26.7679V29.2321C34.75 30.045 34.75 30.7006 34.7066 31.2315C34.662 31.7781 34.5676 32.2582 34.3413 32.7025C33.9817 33.4081 33.4081 33.9817 32.7025 34.3413C32.2582 34.5676 31.7781 34.662 31.2315 34.7066C30.7006 34.75 30.045 34.75 29.2321 34.75H25.6213C23.6168 34.75 22.6129 32.3264 24.0303 30.909L28.4393 26.5H26.875C26.4608 26.5 26.125 26.1642 26.125 25.75C26.125 25.3358 26.4608 25 26.875 25H30.25C30.6642 25 31 25.3358 31 25.75V29.125C31 29.5392 30.6642 29.875 30.25 29.875C29.8358 29.875 29.5 29.5392 29.5 29.125V27.5607L25.091 31.9697C24.6185 32.4421 24.9531 33.25 25.6213 33.25H29.2C30.0525 33.25 30.6467 33.2494 31.1093 33.2116C31.5632 33.1745 31.824 33.1054 32.0215 33.0048C32.4448 32.789 32.789 32.4448 33.0048 32.0215C33.1054 31.824 33.1745 31.5632 33.2116 31.1093C33.2494 30.6467 33.25 30.0525 33.25 29.2V26.8C33.25 25.9475 33.2494 25.3533 33.2116 24.8907C33.1745 24.4368 33.1054 24.176 33.0048 23.9785C32.789 23.5552 32.4448 23.211 32.0215 22.9952C31.824 22.8946 31.5632 22.8255 31.1093 22.7884C30.6467 22.7506 30.0525 22.75 29.2 22.75H26.8C25.9475 22.75 25.3533 22.7506 24.8907 22.7884C24.4368 22.8255 24.176 22.8946 23.9785 22.9952C23.5552 23.211 23.211 23.5552 22.9952 23.9785C22.8946 24.176 22.8255 24.4368 22.7884 24.8907C22.7506 25.3533 22.75 25.9475 22.75 26.8V29.5C22.75 29.9142 22.4142 30.25 22 30.25C21.5858 30.25 21.25 29.9142 21.25 29.5L21.25 26.7679C21.25 25.9551 21.25 25.2994 21.2934 24.7685C21.338 24.2219 21.4324 23.7418 21.6587 23.2975C22.0183 22.5919 22.5919 22.0183 23.2975 21.6587C23.7418 21.4324 24.2219 21.338 24.7685 21.2934C25.2994 21.25 25.9551 21.25 26.7679 21.25Z" fill="#5F5F6A"/>
<path d="M26.7679 77.25H29.2321C30.0449 77.25 30.7006 77.25 31.2315 77.2934C31.7781 77.338 32.2582 77.4324 32.7025 77.6587C33.4081 78.0183 33.9817 78.5919 34.3413 79.2975C34.5676 79.7418 34.662 80.2219 34.7066 80.7685C34.75 81.2994 34.75 81.955 34.75 82.7679V85.2321C34.75 86.045 34.75 86.7006 34.7066 87.2315C34.662 87.7781 34.5676 88.2582 34.3413 88.7025C33.9817 89.4081 33.4081 89.9817 32.7025 90.3413C32.2582 90.5676 31.7781 90.662 31.2315 90.7066C30.7006 90.75 30.045 90.75 29.2321 90.75H25.6213C23.6168 90.75 22.6129 88.3264 24.0303 86.909L28.4393 82.5H26.875C26.4608 82.5 26.125 82.1642 26.125 81.75C26.125 81.3358 26.4608 81 26.875 81H30.25C30.6642 81 31 81.3358 31 81.75V85.125C31 85.5392 30.6642 85.875 30.25 85.875C29.8358 85.875 29.5 85.5392 29.5 85.125V83.5607L25.091 87.9697C24.6185 88.4421 24.9531 89.25 25.6213 89.25H29.2C30.0525 89.25 30.6467 89.2494 31.1093 89.2116C31.5632 89.1745 31.824 89.1054 32.0215 89.0048C32.4448 88.789 32.789 88.4448 33.0048 88.0215C33.1054 87.824 33.1745 87.5632 33.2116 87.1093C33.2494 86.6467 33.25 86.0525 33.25 85.2V82.8C33.25 81.9475 33.2494 81.3533 33.2116 80.8907C33.1745 80.4368 33.1054 80.176 33.0048 79.9785C32.789 79.5552 32.4448 79.211 32.0215 78.9952C31.824 78.8946 31.5632 78.8255 31.1093 78.7884C30.6467 78.7506 30.0525 78.75 29.2 78.75H26.8C25.9475 78.75 25.3533 78.7506 24.8907 78.7884C24.4368 78.8255 24.176 78.8946 23.9785 78.9952C23.5552 79.211 23.211 79.5552 22.9952 79.9785C22.8946 80.176 22.8255 80.4368 22.7884 80.8907C22.7506 81.3533 22.75 81.9475 22.75 82.8V85.5C22.75 85.9142 22.4142 86.25 22 86.25C21.5858 86.25 21.25 85.9142 21.25 85.5L21.25 82.7679C21.25 81.9551 21.25 81.2994 21.2934 80.7685C21.338 80.2219 21.4324 79.7418 21.6587 79.2975C22.0183 78.5919 22.5919 78.0183 23.2975 77.6587C23.7418 77.4324 24.2219 77.338 24.7685 77.2934C25.2994 77.25 25.9551 77.25 26.7679 77.25Z" fill="#5F5F6A"/>
<path d="M26.7778 133.5H29.2222C30.0435 133.5 30.6905 133.5 31.2111 133.543C31.7423 133.586 32.1859 133.676 32.589 133.881C33.2475 134.217 33.783 134.752 34.1185 135.411C34.3239 135.814 34.4141 136.258 34.4575 136.789C34.5 137.31 34.5 137.957 34.5 138.778V141.222C34.5 142.043 34.5 142.69 34.4575 143.211C34.4141 143.742 34.3239 144.186 34.1185 144.589C33.783 145.248 33.2475 145.783 32.589 146.119C32.1859 146.324 31.7423 146.414 31.2111 146.457C30.6905 146.5 30.0435 146.5 29.2222 146.5H25.6213C23.8395 146.5 22.9472 144.346 24.2071 143.086L29.0429 138.25H26.5C26.2239 138.25 26 138.026 26 137.75C26 137.474 26.2239 137.25 26.5 137.25H30.25C30.5261 137.25 30.75 137.474 30.75 137.75V141.5C30.75 141.776 30.5261 142 30.25 142C29.9739 142 29.75 141.776 29.75 141.5V138.957L24.9142 143.793C24.2842 144.423 24.7304 145.5 25.6213 145.5H29.2C30.0483 145.5 30.6545 145.5 31.1297 145.461C31.599 145.422 31.8963 145.349 32.135 145.228C32.6054 144.988 32.9878 144.605 33.2275 144.135C33.3491 143.896 33.4224 143.599 33.4608 143.13C33.4996 142.655 33.5 142.048 33.5 141.2V138.8C33.5 137.952 33.4996 137.345 33.4608 136.87C33.4224 136.401 33.3491 136.104 33.2275 135.865C32.9878 135.395 32.6054 135.012 32.135 134.772C31.8963 134.651 31.599 134.578 31.1297 134.539C30.6545 134.5 30.0483 134.5 29.2 134.5H26.8C25.9517 134.5 25.3455 134.5 24.8703 134.539C24.401 134.578 24.1037 134.651 23.865 134.772C23.3946 135.012 23.0122 135.395 22.7725 135.865C22.6509 136.104 22.5776 136.401 22.5392 136.87C22.5004 137.345 22.5 137.952 22.5 138.8V141.5C22.5 141.776 22.2761 142 22 142C21.7239 142 21.5 141.776 21.5 141.5L21.5 138.778C21.5 137.957 21.5 137.31 21.5425 136.789C21.5859 136.258 21.6761 135.814 21.8815 135.411C22.217 134.752 22.7525 134.217 23.411 133.881C23.8141 133.676 24.2577 133.586 24.7889 133.543C25.3095 133.5 25.9565 133.5 26.7778 133.5Z" fill="#5F5F6A"/>
</svg>
