<svg width="56" height="224" viewBox="0 0 56 224" fill="none" xmlns="http://www.w3.org/2000/svg">
<path d="M23.2448 19.3557C23.6173 19.2494 24.0114 19.2496 24.5125 19.25H31.4876C31.9887 19.2496 32.3827 19.2494 32.7552 19.3557C33.0831 19.4494 33.3907 19.6032 33.6623 19.8093C33.9709 20.0435 34.2072 20.3589 34.5075 20.7599L35.995 22.7433C36.1987 23.0146 36.3591 23.2283 36.4757 23.4694C36.5786 23.6821 36.6536 23.9072 36.6989 24.1391C36.7503 24.402 36.7502 24.6692 36.7501 25.0084L36.75 32.8305C36.75 33.3646 36.7501 33.8105 36.7203 34.1747C36.6893 34.5546 36.6221 34.9112 36.4503 35.2485C36.1867 35.7659 35.766 36.1866 35.2485 36.4503C34.9112 36.6221 34.5546 36.6892 34.1747 36.7203C33.8105 36.75 33.3646 36.75 32.8305 36.75H23.1696C22.6354 36.75 22.1896 36.75 21.8254 36.7203C21.4455 36.6892 21.0888 36.6221 20.7516 36.4503C20.2341 36.1866 19.8134 35.7659 19.5498 35.2485C19.3779 34.9112 19.3108 34.5546 19.2798 34.1747C19.25 33.8105 19.25 33.3646 19.25 32.8305L19.25 25.0084C19.2499 24.6692 19.2497 24.402 19.3011 24.1391C19.3465 23.9072 19.4215 23.6821 19.5243 23.4694C19.641 23.2283 19.8014 23.0146 20.0051 22.7433L21.4925 20.7599C21.7929 20.3589 22.0291 20.0435 22.3377 19.8093C22.6094 19.6032 22.917 19.4494 23.2448 19.3557ZM26.5 28.5C26.5 29.0523 26.9478 29.5 27.5 29.5H28.5C29.0523 29.5 29.5 29.0523 29.5 28.5V24.75H35.9989C35.9965 24.549 35.9885 24.4141 35.9629 24.283C35.9299 24.1143 35.8754 23.9506 35.8005 23.7959C35.7259 23.6417 35.6244 23.4999 35.4375 23.25H29.4063L29.1241 20.9923C29.0532 20.4254 28.5713 20 28 20C27.4287 20 26.9469 20.4254 26.876 20.9923L26.5938 23.25H20.5626C20.3757 23.4999 20.2741 23.6417 20.1995 23.7959C20.1247 23.9506 20.0702 24.1143 20.0372 24.283C20.0116 24.4141 20.0036 24.549 20.0011 24.75H26.5V28.5ZM22 33C22 33.5523 22.4477 34 23 34H26C26.5523 34 27 33.5523 27 33C27 32.4477 26.5523 32 26 32H23C22.4477 32 22 32.4477 22 33Z" fill="#5F5F6A"/>
<g opacity="0.5">
<path d="M26.5 80V84.5C26.5 85.0523 26.9477 85.5 27.5 85.5H28.5C29.0523 85.5 29.5 85.0523 29.5 84.5V80L29 76H27L26.5 80Z" fill="#5F5F6A"/>
<path d="M23 88C22.4477 88 22 88.4477 22 89C22 89.5523 22.4477 90 23 90H26C26.5523 90 27 89.5523 27 89C27 88.4477 26.5523 88 26 88H23Z" fill="#5F5F6A"/>
</g>
<path d="M24.5125 75.25L26.9949 75.25C26.9966 75.25 26.9983 75.25 27 75.25H29C29.0017 75.25 29.0035 75.25 29.0052 75.25L31.4876 75.25C31.9887 75.2496 32.3827 75.2494 32.7552 75.3557C33.0831 75.4494 33.3907 75.6032 33.6623 75.8093C33.9709 76.0435 34.2072 76.3589 34.5075 76.7599L35.995 78.7433C36.1987 79.0146 36.3591 79.2283 36.4757 79.4694C36.5786 79.6821 36.6536 79.9072 36.6989 80.1391C36.7503 80.402 36.7502 80.6692 36.7501 81.0084L36.75 88.8305C36.75 89.3646 36.7501 89.8105 36.7203 90.1747C36.6893 90.5546 36.6221 90.9112 36.4503 91.2485C36.1867 91.7659 35.766 92.1866 35.2485 92.4503C34.9112 92.6221 34.5546 92.6892 34.1747 92.7203C33.8105 92.75 33.3646 92.75 32.8305 92.75H23.1696C22.6354 92.75 22.1896 92.75 21.8254 92.7203C21.4455 92.6892 21.0888 92.6221 20.7516 92.4503C20.2341 92.1866 19.8134 91.7659 19.5498 91.2485C19.3779 90.9112 19.3108 90.5546 19.2798 90.1747C19.25 89.8105 19.25 89.3646 19.25 88.8305L19.25 81.0084C19.2499 80.6692 19.2497 80.402 19.3011 80.1391C19.3465 79.9072 19.4215 79.6821 19.5243 79.4694C19.641 79.2283 19.8014 79.0146 20.0051 78.7433L21.4925 76.7599C21.7929 76.3589 22.0291 76.0435 22.3377 75.8093C22.6094 75.6032 22.917 75.4494 23.2448 75.3557C23.6173 75.2494 24.0114 75.2496 24.5125 75.25ZM27.6621 76.75L27.3496 79.25H28.6504L28.3379 76.75H27.6621ZM26.1504 76.75H24.6C23.9699 76.75 23.8013 76.7568 23.6568 76.7981C23.5077 76.8406 23.3679 76.9105 23.2444 77.0042C23.1247 77.0951 23.0181 77.2259 22.64 77.73L21.5 79.25H25.8379L26.1504 76.75ZM25.75 80.75H20.7514C20.7504 80.8311 20.75 80.9336 20.75 81.0667V88.8C20.75 89.3724 20.7506 89.7567 20.7748 90.0525C20.7983 90.3397 20.8401 90.4769 20.8863 90.5675C21.0061 90.8027 21.1973 90.9939 21.4325 91.1138C21.5231 91.1599 21.6604 91.2018 21.9475 91.2253C22.2434 91.2494 22.6276 91.25 23.2 91.25H32.8C33.3725 91.25 33.7567 91.2494 34.0526 91.2253C34.3397 91.2018 34.477 91.1599 34.5675 91.1138C34.8027 90.9939 34.994 90.8027 35.1138 90.5675C35.1599 90.4769 35.2018 90.3397 35.2253 90.0525C35.2495 89.7567 35.25 89.3724 35.25 88.8V81.0667C35.25 80.9336 35.2497 80.8311 35.2487 80.75H30.25V84.5C30.25 85.4665 29.4665 86.25 28.5 86.25H27.5C26.5335 86.25 25.75 85.4665 25.75 84.5V80.75ZM28.75 80.75H27.25V84.5C27.25 84.6381 27.362 84.75 27.5 84.75H28.5C28.6381 84.75 28.75 84.6381 28.75 84.5V80.75ZM30.1621 79.25H34.5L33.36 77.73C32.982 77.2259 32.8754 77.0951 32.7556 77.0042C32.6322 76.9105 32.4923 76.8406 32.3433 76.7981C32.1988 76.7568 32.0302 76.75 31.4 76.75H29.8496L30.1621 79.25Z" fill="#5F5F6A"/>
<path d="M26 143.5H23C22.1716 143.5 21.5 144.172 21.5 145C21.5 145.828 22.1716 146.5 23 146.5H26C26.8285 146.5 27.5 145.828 27.5 145C27.5 144.172 26.8285 143.5 26 143.5ZM22.5 145C22.5 144.724 22.7239 144.5 23 144.5H26C26.2762 144.5 26.5 144.724 26.5 145C26.5 145.276 26.2762 145.5 26 145.5H23C22.7239 145.5 22.5 145.276 22.5 145Z" fill="#5F5F6A"/>
<path d="M24.5125 131.25C24.0114 131.25 23.6173 131.249 23.2448 131.356C22.917 131.449 22.6094 131.603 22.3377 131.809C22.0291 132.043 21.7929 132.359 21.4925 132.76L20.0051 134.743C19.8014 135.015 19.641 135.228 19.5243 135.469C19.4215 135.682 19.3465 135.907 19.3011 136.139C19.2497 136.402 19.2499 136.669 19.25 137.008L19.25 144.83C19.25 145.365 19.25 145.81 19.2798 146.175C19.3108 146.555 19.3779 146.911 19.5498 147.248C19.8134 147.766 20.2341 148.187 20.7516 148.45C21.0888 148.622 21.4455 148.689 21.8254 148.72C22.1896 148.75 22.6354 148.75 23.1696 148.75H32.8305C33.3646 148.75 33.8105 148.75 34.1747 148.72C34.5546 148.689 34.9112 148.622 35.2485 148.45C35.766 148.187 36.1867 147.766 36.4503 147.248C36.6221 146.911 36.6893 146.555 36.7203 146.175C36.7501 145.81 36.75 145.365 36.75 144.83L36.7501 137.008C36.7502 136.669 36.7503 136.402 36.6989 136.139C36.6536 135.907 36.5786 135.682 36.4757 135.469C36.3591 135.228 36.1987 135.015 35.995 134.743L34.5075 132.76C34.2072 132.359 33.9709 132.043 33.6623 131.809C33.3907 131.603 33.0831 131.449 32.7552 131.356C32.3827 131.249 31.9887 131.25 31.4876 131.25L29.0052 131.25L29 131.25H27L26.9949 131.25L24.5125 131.25ZM28.3379 132.75L28.6504 135.25H27.3496L27.6621 132.75H28.3379ZM24.6 132.75H26.1504L25.8379 135.25H21.5L22.64 133.73C23.0181 133.226 23.1247 133.095 23.2444 133.004C23.3679 132.911 23.5077 132.841 23.6568 132.798C23.8013 132.757 23.9699 132.75 24.6 132.75ZM20.7514 136.75H25.75V140.5C25.75 141.466 26.5335 142.25 27.5 142.25H28.5C29.4665 142.25 30.25 141.466 30.25 140.5V136.75H35.2487C35.2497 136.831 35.25 136.934 35.25 137.067V144.8C35.25 145.372 35.2495 145.757 35.2253 146.053C35.2018 146.34 35.1599 146.477 35.1138 146.568C34.994 146.803 34.8027 146.994 34.5675 147.114C34.477 147.16 34.3397 147.202 34.0526 147.225C33.7567 147.249 33.3725 147.25 32.8 147.25H23.2C22.6276 147.25 22.2434 147.249 21.9475 147.225C21.6604 147.202 21.5231 147.16 21.4325 147.114C21.1973 146.994 21.0061 146.803 20.8863 146.568C20.8401 146.477 20.7983 146.34 20.7748 146.053C20.7506 145.757 20.75 145.372 20.75 144.8V137.067C20.75 136.934 20.7504 136.831 20.7514 136.75ZM27.25 136.75H28.75V140.5C28.75 140.638 28.6381 140.75 28.5 140.75H27.5C27.362 140.75 27.25 140.638 27.25 140.5V136.75ZM34.5 135.25H30.1621L29.8496 132.75H31.4C32.0302 132.75 32.1988 132.757 32.3433 132.798C32.4923 132.841 32.6322 132.911 32.7556 133.004C32.8754 133.095 32.982 133.226 33.36 133.73L34.5 135.25Z" fill="#5F5F6A"/>
<path d="M26 199.5H23C22.1716 199.5 21.5 200.172 21.5 201C21.5 201.828 22.1716 202.5 23 202.5H26C26.8284 202.5 27.5 201.828 27.5 201C27.5 200.172 26.8284 199.5 26 199.5ZM22.5 201C22.5 200.724 22.7239 200.5 23 200.5H26C26.2762 200.5 26.5 200.724 26.5 201C26.5 201.276 26.2762 201.5 26 201.5H23C22.7239 201.5 22.5 201.276 22.5 201Z" fill="#5F5F6A"/>
<path d="M24.5311 187.5C24.0109 187.5 23.6511 187.5 23.3135 187.596C23.0154 187.681 22.7358 187.821 22.4888 188.008C22.2091 188.221 21.9933 188.509 21.6813 188.925L20.2125 190.883C20.0014 191.165 19.8551 191.36 19.7494 191.578C19.6559 191.772 19.5877 191.976 19.5465 192.187C19.4999 192.425 19.4999 192.669 19.5 193.021L19.5 200.821C19.5 201.363 19.5 201.8 19.5289 202.154C19.5587 202.519 19.6216 202.839 19.7725 203.135C20.0122 203.605 20.3946 203.988 20.865 204.227C21.1612 204.378 21.4813 204.441 21.8457 204.471C22.1996 204.5 22.6367 204.5 23.1786 204.5H32.8214C33.3633 204.5 33.8004 204.5 34.1543 204.471C34.5188 204.441 34.8388 204.378 35.135 204.227C35.6054 203.988 35.9878 203.605 36.2275 203.135C36.3784 202.839 36.4413 202.519 36.4711 202.154C36.5 201.8 36.5 201.363 36.5 200.821L36.5 193.021C36.5001 192.669 36.5002 192.425 36.4536 192.187C36.4124 191.976 36.3442 191.772 36.2506 191.578C36.1449 191.36 35.9987 191.165 35.7875 190.883L34.3187 188.925C34.0067 188.509 33.7909 188.221 33.5112 188.008C33.2643 187.821 32.9846 187.681 32.6866 187.596C32.3489 187.5 31.9891 187.5 31.4689 187.5H24.5311ZM23.5881 188.558C23.7742 188.504 23.9844 188.5 24.6 188.5H26.4336L26.0586 191.5H21L22.44 189.58C22.8094 189.087 22.9391 188.922 23.0933 188.805C23.2415 188.693 23.4093 188.609 23.5881 188.558ZM29.9414 191.5L29.5664 188.5H31.4C32.0157 188.5 32.2258 188.504 32.4119 188.558C32.5908 188.609 32.7586 188.693 32.9067 188.805C33.0609 188.922 33.1906 189.087 33.56 189.58L35 191.5H29.9414ZM28.5586 188.5L28.9336 191.5H27.0664L27.4414 188.5H28.5586ZM29 192.5V196.5C29 196.776 28.7762 197 28.5 197H27.5C27.2239 197 27 196.776 27 196.5V192.5H29ZM26 196.5C26 197.328 26.6716 198 27.5 198H28.5C29.3284 198 30 197.328 30 196.5V192.5H35.4889C35.4989 192.613 35.5 192.77 35.5 193.067V200.8C35.5 201.368 35.4996 201.764 35.4744 202.073C35.4497 202.375 35.4036 202.549 35.3365 202.681C35.1927 202.963 34.9632 203.193 34.681 203.336C34.5493 203.404 34.3755 203.45 34.0729 203.474C33.7645 203.5 33.3683 203.5 32.8 203.5H23.2C22.6317 203.5 22.2356 203.5 21.9271 203.474C21.6246 203.45 21.4507 203.404 21.319 203.336C21.0368 203.193 20.8073 202.963 20.6635 202.681C20.5964 202.549 20.5503 202.375 20.5256 202.073C20.5004 201.764 20.5 201.368 20.5 200.8V193.067C20.5 192.77 20.5011 192.613 20.5111 192.5H26V196.5Z" fill="#5F5F6A"/>
</svg>
