<svg width="56" height="224" viewBox="0 0 56 224" fill="none" xmlns="http://www.w3.org/2000/svg">
<path d="M24.75 21.5C23.7835 21.5 23 22.2835 23 23.25V32.75C23 33.7165 23.7835 34.5 24.75 34.5C25.7165 34.5 26.5 33.7165 26.5 32.75V23.25C26.5 22.2835 25.7165 21.5 24.75 21.5Z" fill="#5F5F6A"/>
<path d="M31.25 21.5C30.2835 21.5 29.5 22.2835 29.5 23.25V32.75C29.5 33.7165 30.2835 34.5 31.25 34.5C32.2165 34.5 33 33.7165 33 32.75V23.25C33 22.2835 32.2165 21.5 31.25 21.5Z" fill="#5F5F6A"/>
<path d="M24.75 77.25C23.6454 77.25 22.75 78.1454 22.75 79.25V88.75C22.75 89.8546 23.6454 90.75 24.75 90.75C25.8546 90.75 26.75 89.8546 26.75 88.75V79.25C26.75 78.1454 25.8546 77.25 24.75 77.25ZM24.25 79.25C24.25 78.9739 24.4739 78.75 24.75 78.75C25.0261 78.75 25.25 78.9739 25.25 79.25V88.75C25.25 89.0261 25.0261 89.25 24.75 89.25C24.4739 89.25 24.25 89.0261 24.25 88.75V79.25Z" fill="#5F5F6A"/>
<path d="M31.25 77.25C30.1454 77.25 29.25 78.1454 29.25 79.25V88.75C29.25 89.8546 30.1454 90.75 31.25 90.75C32.3546 90.75 33.25 89.8546 33.25 88.75V79.25C33.25 78.1454 32.3546 77.25 31.25 77.25ZM30.75 79.25C30.75 78.9739 30.9739 78.75 31.25 78.75C31.5261 78.75 31.75 78.9739 31.75 79.25V88.75C31.75 89.0261 31.5261 89.25 31.25 89.25C30.9739 89.25 30.75 89.0261 30.75 88.75V79.25Z" fill="#5F5F6A"/>
<g opacity="0.5">
<path d="M24.75 78.75C24.4739 78.75 24.25 78.9739 24.25 79.25V88.75C24.25 89.0261 24.4739 89.25 24.75 89.25C25.0261 89.25 25.25 89.0261 25.25 88.75V79.25C25.25 78.9739 25.0261 78.75 24.75 78.75Z" fill="#5F5F6A"/>
<path d="M31.25 78.75C30.9739 78.75 30.75 78.9739 30.75 79.25V88.75C30.75 89.0261 30.9739 89.25 31.25 89.25C31.5261 89.25 31.75 89.0261 31.75 88.75V79.25C31.75 78.9739 31.5261 78.75 31.25 78.75Z" fill="#5F5F6A"/>
</g>
<path d="M24.75 133.25C23.6454 133.25 22.75 134.145 22.75 135.25V144.75C22.75 145.855 23.6454 146.75 24.75 146.75C25.8546 146.75 26.75 145.855 26.75 144.75V135.25C26.75 134.145 25.8546 133.25 24.75 133.25ZM24.25 135.25C24.25 134.974 24.4739 134.75 24.75 134.75C25.0261 134.75 25.25 134.974 25.25 135.25V144.75C25.25 145.026 25.0261 145.25 24.75 145.25C24.4739 145.25 24.25 145.026 24.25 144.75V135.25Z" fill="#5F5F6A"/>
<path d="M31.25 133.25C30.1454 133.25 29.25 134.145 29.25 135.25V144.75C29.25 145.855 30.1454 146.75 31.25 146.75C32.3546 146.75 33.25 145.855 33.25 144.75V135.25C33.25 134.145 32.3546 133.25 31.25 133.25ZM30.75 135.25C30.75 134.974 30.9739 134.75 31.25 134.75C31.5261 134.75 31.75 134.974 31.75 135.25V144.75C31.75 145.026 31.5261 145.25 31.25 145.25C30.9739 145.25 30.75 145.026 30.75 144.75V135.25Z" fill="#5F5F6A"/>
<path d="M23 191.25C23 190.284 23.7835 189.5 24.75 189.5C25.7165 189.5 26.5 190.284 26.5 191.25V200.75C26.5 201.716 25.7165 202.5 24.75 202.5C23.7835 202.5 23 201.716 23 200.75V191.25ZM24.75 190.5C24.3358 190.5 24 190.836 24 191.25V200.75C24 201.164 24.3358 201.5 24.75 201.5C25.1642 201.5 25.5 201.164 25.5 200.75V191.25C25.5 190.836 25.1642 190.5 24.75 190.5Z" fill="#5F5F6A"/>
<path d="M29.5 191.25C29.5 190.284 30.2835 189.5 31.25 189.5C32.2165 189.5 33 190.284 33 191.25V200.75C33 201.716 32.2165 202.5 31.25 202.5C30.2835 202.5 29.5 201.716 29.5 200.75V191.25ZM31.25 190.5C30.8358 190.5 30.5 190.836 30.5 191.25V200.75C30.5 201.164 30.8358 201.5 31.25 201.5C31.6642 201.5 32 201.164 32 200.75V191.25C32 190.836 31.6642 190.5 31.25 190.5Z" fill="#5F5F6A"/>
</svg>
