<svg width="56" height="224" viewBox="0 0 56 224" fill="none" xmlns="http://www.w3.org/2000/svg">
<path d="M26.75 19.0861C22.3711 19.6946 19 23.4536 19 28C19 29.6886 19.465 31.2686 20.274 32.6189C20.3025 32.5834 20.3332 32.5491 20.3661 32.5161L26.75 26.1322V19.0861Z" fill="#5F5F6A"/>
<path d="M21.7993 34.5232C23.1286 35.7872 24.8438 36.649 26.75 36.9139V29.6678L22.1339 34.2839C22.0334 34.3843 21.9202 34.4641 21.7993 34.5232Z" fill="#5F5F6A"/>
<path d="M29.25 36.9139C31.1562 36.649 32.8714 35.7872 34.2007 34.5232C34.0798 34.4641 33.9666 34.3843 33.8661 34.2839L29.25 29.6678V36.9139Z" fill="#5F5F6A"/>
<path d="M35.726 32.6189C36.535 31.2686 37 29.6886 37 28C37 23.4536 33.6289 19.6946 29.25 19.0861V26.1322L35.6339 32.5161C35.6668 32.5491 35.6975 32.5834 35.726 32.6189Z" fill="#5F5F6A"/>
<path d="M26.75 19.0861C22.3711 19.6946 19 23.4536 19 28C19 29.6886 19.465 31.2686 20.274 32.6189C20.3025 32.5834 20.3332 32.5491 20.3661 32.5161L26.75 26.1322V19.0861Z" stroke="#71717A" stroke-linecap="round" stroke-linejoin="round"/>
<path d="M21.7993 34.5232C23.1286 35.7872 24.8438 36.649 26.75 36.9139V29.6678L22.1339 34.2839C22.0334 34.3843 21.9202 34.4641 21.7993 34.5232Z" stroke="#71717A" stroke-linecap="round" stroke-linejoin="round"/>
<path d="M29.25 36.9139C31.1562 36.649 32.8714 35.7872 34.2007 34.5232C34.0798 34.4641 33.9666 34.3843 33.8661 34.2839L29.25 29.6678V36.9139Z" stroke="#71717A" stroke-linecap="round" stroke-linejoin="round"/>
<path d="M35.726 32.6189C36.535 31.2686 37 29.6886 37 28C37 23.4536 33.6289 19.6946 29.25 19.0861V26.1322L35.6339 32.5161C35.6668 32.5491 35.6975 32.5834 35.726 32.6189Z" stroke="#71717A" stroke-linecap="round" stroke-linejoin="round"/>
<path fill-rule="evenodd" clip-rule="evenodd" d="M27.25 75.7836C23.0451 76.1626 19.75 79.6965 19.75 84C19.75 85.6615 20.2412 87.2083 21.0862 88.5031L27.25 82.3393V75.7836ZM28.75 75.7836V82.3393L34.9138 88.5031C35.7588 87.2083 36.25 85.6615 36.25 84C36.25 79.6965 32.9549 76.1626 28.75 75.7836ZM33.9765 89.6872L28.75 84.4607V92.2164C30.8008 92.0316 32.6353 91.0962 33.9765 89.6872ZM27.25 92.2164V84.4607L22.0235 89.6872C23.3647 91.0962 25.1992 92.0316 27.25 92.2164ZM18.25 84C18.25 78.6152 22.6152 74.25 28 74.25C33.3848 74.25 37.75 78.6152 37.75 84C37.75 89.3848 33.3848 93.75 28 93.75C22.6152 93.75 18.25 89.3848 18.25 84Z" fill="#5F5F6A"/>
<path opacity="0.5" d="M37 84C37 88.9706 32.9706 93 28 93C23.0294 93 19 88.9706 19 84C19 79.0294 23.0294 75 28 75C32.9706 75 37 79.0294 37 84Z" fill="#5F5F6A"/>
<path fill-rule="evenodd" clip-rule="evenodd" d="M27.25 131.784C23.0451 132.163 19.75 135.696 19.75 140C19.75 141.662 20.2412 143.208 21.0862 144.503L27.25 138.339V131.784ZM28.75 131.784V138.339L34.9138 144.503C35.7588 143.208 36.25 141.662 36.25 140C36.25 135.696 32.9549 132.163 28.75 131.784ZM33.9765 145.687L28.75 140.461V148.216C30.8008 148.032 32.6353 147.096 33.9765 145.687ZM27.25 148.216V140.461L22.0235 145.687C23.3647 147.096 25.1992 148.032 27.25 148.216ZM18.25 140C18.25 134.615 22.6152 130.25 28 130.25C33.3848 130.25 37.75 134.615 37.75 140C37.75 145.385 33.3848 149.75 28 149.75C22.6152 149.75 18.25 145.385 18.25 140Z" fill="#5F5F6A"/>
<path fill-rule="evenodd" clip-rule="evenodd" d="M27.5 187.514C23.0383 187.773 19.5 191.473 19.5 196C19.5 197.822 20.0732 199.51 21.0492 200.894L27.5 194.443V187.514ZM28.5 187.514V194.443L34.9508 200.894C35.9268 199.51 36.5 197.822 36.5 196C36.5 191.473 32.9617 187.773 28.5 187.514ZM34.3233 201.68L28.5 195.857V204.486C30.8093 204.352 32.8713 203.296 34.3233 201.68ZM27.5 204.486V195.857L21.6767 201.68C23.1287 203.296 25.1907 204.352 27.5 204.486ZM18.5 196C18.5 190.753 22.7533 186.5 28 186.5C33.2467 186.5 37.5 190.753 37.5 196C37.5 201.247 33.2467 205.5 28 205.5C22.7533 205.5 18.5 201.247 18.5 196Z" fill="#5F5F6A"/>
</svg>
