<svg width="56" height="168" viewBox="0 0 56 168" fill="none" xmlns="http://www.w3.org/2000/svg">
<path d="M30.9887 19.7848C31.5338 19.3669 32.2226 19.1826 32.9035 19.2721C33.1993 19.3111 33.4661 19.4146 33.7315 19.5445C33.9857 19.6689 34.2829 19.8403 34.6359 20.0439L34.679 20.0688C35.032 20.2724 35.3293 20.4439 35.5642 20.6016C35.8095 20.7663 36.0327 20.9453 36.2144 21.182C36.6328 21.7267 36.8175 22.4152 36.7278 23.0962C36.6888 23.392 36.5851 23.6587 36.455 23.9239C36.3305 24.1779 36.1589 24.4749 35.9551 24.8275L30.8289 33.6979C30.4711 34.3171 30.0586 34.7269 29.4223 35.0798L27.5607 36.1122C27.2315 36.2948 26.9406 36.4562 26.6954 36.5642C26.4451 36.6745 26.1347 36.7805 25.7887 36.7419C25.3263 36.6902 24.9062 36.448 24.63 36.0734C24.4232 35.793 24.3598 35.4711 24.3303 35.1993C24.3013 34.933 24.2957 34.6006 24.2894 34.2246L24.2536 32.0976C24.2414 31.37 24.3906 30.8081 24.7483 30.1892L29.8745 21.3188C30.0783 20.9661 30.2499 20.6692 30.4078 20.4344C30.5727 20.1893 30.7519 19.9663 30.9887 19.7848ZM32.7079 20.7593C32.421 20.7216 32.1308 20.7993 31.9013 20.9752C31.8477 21.0163 31.7745 21.0901 31.6524 21.2717C31.5434 21.4337 31.4192 21.6445 31.2454 21.9446C31.2526 21.9474 31.2598 21.9502 31.2671 21.9531C31.6507 22.103 32.2253 22.3692 33.047 22.8431C33.8581 23.311 34.3655 23.7145 34.6835 24.03C34.8811 23.6878 35.015 23.4536 35.1082 23.2636C35.2045 23.0671 35.2319 22.967 35.2407 22.9002C35.2784 22.6141 35.2008 22.3247 35.0248 22.0956C34.9837 22.0421 34.9098 21.969 34.7281 21.8469C34.5407 21.7211 34.2882 21.575 33.908 21.3557C33.5278 21.1364 33.2749 20.991 33.0722 20.8918C32.8755 20.7956 32.7751 20.7682 32.7079 20.7593ZM33.8036 25.2784L33.8041 25.2796L33.805 25.282L33.8069 25.2865L33.8104 25.2949L33.8166 25.3088C33.8203 25.3168 33.8231 25.3222 33.8247 25.3252C33.827 25.3295 33.8266 25.3284 33.8227 25.3223C33.816 25.308 33.8095 25.2932 33.8036 25.2784ZM33.8794 25.4214C33.8583 25.3903 33.8393 25.3572 33.8227 25.3223C33.8212 25.3199 33.8192 25.3168 33.8166 25.313C33.7979 25.2852 33.7488 25.2184 33.6493 25.1172C33.4492 24.9139 33.0499 24.5765 32.2975 24.1425C31.5253 23.6971 31.0194 23.4668 30.7211 23.3502C30.6152 23.3088 30.5364 23.2821 30.4821 23.2653L26.047 30.9398C25.824 31.3256 25.7458 31.6196 25.7534 32.0724L25.7887 34.1664C25.7957 34.5854 25.8009 34.8477 25.8215 35.0371C25.8317 35.1311 25.8435 35.1786 25.849 35.1974C25.8724 35.2228 25.9032 35.2405 25.9372 35.2481C25.9561 35.2435 26.0033 35.23 26.0906 35.1916C26.2651 35.1146 26.4952 34.9879 26.8619 34.7845L28.6947 33.768C29.0911 33.5482 29.3071 33.3333 29.5301 32.9474L33.8794 25.4214ZM31.8972 24.834C32.2558 25.0412 32.3786 25.5 32.1713 25.8586L28.754 31.7718C28.5468 32.1305 28.088 32.2532 27.7294 32.0459C27.3708 31.8387 27.2481 31.3799 27.4553 31.0213L30.8726 25.1081C31.0798 24.7495 31.5386 24.6267 31.8972 24.834Z" fill="#5F5F6A"/>
<path opacity="0.5" d="M25.4999 34C26.3764 34 27.1212 34.5638 27.3914 35.3485L27.2256 35.4404C27.0235 35.5525 26.8503 35.6486 26.6991 35.7279C26.732 35.8122 26.75 35.904 26.75 36C26.75 36.4142 26.4142 36.75 26 36.75H20C19.5858 36.75 19.25 36.4142 19.25 36C19.25 35.5858 19.5858 35.25 20 35.25H25.0937C25.0526 35.0048 25.0469 34.6649 25.0387 34.179L25.0366 34.0539C25.1853 34.0187 25.3405 34 25.4999 34Z" fill="#5F5F6A"/>
<path d="M31.8972 80.834C32.2558 81.0412 32.3786 81.5 32.1713 81.8586L28.754 87.7718C28.5468 88.1305 28.088 88.2532 27.7294 88.0459C27.3708 87.8387 27.2481 87.3799 27.4553 87.0213L30.8726 81.1081C31.0798 80.7495 31.5386 80.6267 31.8972 80.834Z" fill="#5F5F6A"/>
<path d="M30.9888 75.7848C31.5338 75.3669 32.2226 75.1826 32.9035 75.2721C33.1993 75.3111 33.4661 75.4146 33.7315 75.5445C33.9857 75.6689 34.2829 75.8403 34.6359 76.0439L34.679 76.0688C35.032 76.2724 35.3293 76.4439 35.5642 76.6016C35.8095 76.7663 36.0327 76.9453 36.2144 77.182C36.6328 77.7267 36.8175 78.4152 36.7278 79.0962C36.6888 79.392 36.5851 79.6587 36.455 79.9239C36.3305 80.1779 36.1589 80.4749 35.9551 80.8275L30.8289 89.6979C30.4711 90.3171 30.0586 90.7269 29.4223 91.0798L27.5607 92.1122C27.2315 92.2948 26.9406 92.4562 26.6954 92.5642C26.5422 92.6317 26.3666 92.6976 26.174 92.7297C26.1182 92.743 26.0599 92.75 26 92.75H20C19.5858 92.75 19.25 92.4142 19.25 92C19.25 91.5858 19.5858 91.25 20 91.25H24.3362C24.334 91.2329 24.3321 91.216 24.3303 91.1993C24.3013 90.933 24.2957 90.6006 24.2894 90.2246L24.2536 88.0976C24.2414 87.37 24.3906 86.8081 24.7483 86.1892L29.8745 77.3188C30.0783 76.9661 30.2499 76.6692 30.4078 76.4344C30.5727 76.1893 30.7519 75.9663 30.9888 75.7848ZM32.7079 76.7593C32.421 76.7216 32.1308 76.7993 31.9013 76.9752C31.8477 77.0163 31.7745 77.0901 31.6524 77.2717C31.5434 77.4337 31.4192 77.6445 31.2454 77.9446L31.2671 77.9531C31.6507 78.103 32.2253 78.3692 33.047 78.8431C33.8581 79.311 34.3655 79.7145 34.6835 80.03C34.8811 79.6878 35.015 79.4536 35.1082 79.2636C35.2045 79.0671 35.2319 78.967 35.2407 78.9002C35.2784 78.6141 35.2008 78.3247 35.0248 78.0956C34.9837 78.0421 34.9098 77.969 34.7281 77.8469C34.5407 77.7211 34.2882 77.575 33.908 77.3557C33.5278 77.1364 33.2749 76.991 33.0722 76.8918C32.8755 76.7956 32.7751 76.7682 32.7079 76.7593ZM33.8069 81.2865L33.8104 81.2949L33.8166 81.3088C33.8203 81.3168 33.8231 81.3222 33.8247 81.3252C33.827 81.3295 33.8266 81.3284 33.8227 81.3223C33.8165 81.3093 33.8106 81.2958 33.8051 81.2822L33.8069 81.2865ZM33.8051 81.2822C33.805 81.282 33.8052 81.2825 33.8051 81.2822V81.2822ZM33.8051 81.2822C33.8047 81.2812 33.804 81.2794 33.8036 81.2784L33.8041 81.2796M33.8166 81.313C33.7979 81.2852 33.7488 81.2184 33.6493 81.1172C33.4492 80.9139 33.0499 80.5765 32.2975 80.1425C31.5253 79.6971 31.0194 79.4668 30.7211 79.3502C30.6152 79.3088 30.5364 79.2821 30.4821 79.2653L26.047 86.9398C25.824 87.3256 25.7458 87.6196 25.7534 88.0724L25.7862 90.0203C26.2768 90.0907 26.71 90.339 27.0181 90.6979L28.6947 89.768C29.0911 89.5482 29.3071 89.3333 29.5301 88.9474L33.8794 81.4214C33.8583 81.3903 33.8393 81.3572 33.8227 81.3223L33.8166 81.313Z" fill="#5F5F6A"/>
<path d="M31.7721 137.05C32.0112 137.189 32.093 137.494 31.9548 137.734L28.5376 143.647C28.3994 143.886 28.0936 143.968 27.8545 143.829C27.6154 143.691 27.5336 143.385 27.6718 143.146L31.089 137.233C31.2272 136.994 31.533 136.912 31.7721 137.05Z" fill="#5F5F6A"/>
<path d="M31.1409 131.983C30.9346 132.141 30.773 132.339 30.6152 132.574C30.4622 132.802 30.2942 133.092 30.0873 133.45L24.9647 142.314C24.6295 142.894 24.4921 143.412 24.5036 144.093L24.5393 146.211C24.5457 146.595 24.5511 146.918 24.5788 147.172C24.5907 147.281 24.6077 147.392 24.6359 147.5H20C19.7239 147.5 19.5 147.724 19.5 148C19.5 148.276 19.7239 148.5 20 148.5H26C26.0425 148.5 26.0837 148.495 26.1231 148.485C26.2885 148.458 26.446 148.401 26.5946 148.335C26.8291 148.232 27.1113 148.076 27.4474 147.889L29.301 146.861C29.8973 146.53 30.2771 146.153 30.6124 145.573L35.735 136.709C35.9419 136.351 36.1099 136.06 36.2306 135.814C36.355 135.56 36.446 135.321 36.48 135.064C36.561 134.448 36.3941 133.826 36.0162 133.334C35.8579 133.128 35.6595 132.967 35.4248 132.809C35.1971 132.656 34.9062 132.488 34.5478 132.282L34.5173 132.264C34.1589 132.057 33.868 131.89 33.6216 131.769C33.3677 131.645 33.1286 131.554 32.8709 131.52C32.2556 131.439 31.6333 131.606 31.1409 131.983ZM32.7405 132.511C32.8458 132.525 32.9739 132.565 33.1821 132.667C33.3942 132.771 33.6557 132.922 34.0329 133.139C34.4102 133.357 34.6713 133.508 34.8674 133.639C35.0598 133.769 35.1585 133.859 35.2231 133.943C35.4395 134.225 35.5349 134.581 35.4885 134.933C35.4747 135.038 35.4346 135.166 35.3327 135.374C35.2288 135.586 35.0782 135.847 34.8604 136.224L34.7297 136.45C34.6778 136.387 34.6153 136.317 34.5403 136.24C34.2441 135.94 33.7488 135.537 32.9221 135.06C32.1086 134.59 31.5455 134.33 31.1761 134.186C31.0583 134.14 30.9597 134.105 30.8785 134.08L30.9443 133.966C31.1621 133.589 31.3132 133.328 31.445 133.132C31.5742 132.94 31.6651 132.841 31.7492 132.777C32.0313 132.561 32.3879 132.465 32.7405 132.511ZM34.1865 137.39L29.7466 145.072C29.5011 145.497 29.2524 145.745 28.816 145.987L27.1702 146.899C26.8185 146.367 26.2189 146.012 25.5358 146L25.5034 144.077C25.4951 143.578 25.5851 143.239 25.8305 142.815L30.3601 134.977C30.3846 134.984 30.4101 134.99 30.4362 134.994L30.4388 134.995C30.4463 134.996 30.4642 135 30.4936 135.008C30.5524 135.024 30.6561 135.056 30.8121 135.117C31.1246 135.239 31.642 135.476 32.4224 135.926C33.1897 136.368 33.6082 136.719 33.8275 136.942C33.9368 137.053 33.9958 137.132 34.0239 137.173C34.0353 137.19 34.0416 137.201 34.0442 137.206C34.0775 137.28 34.1269 137.342 34.1865 137.39Z" fill="#5F5F6A"/>
</svg>
