<svg width="56" height="168" viewBox="0 0 56 168" fill="none" xmlns="http://www.w3.org/2000/svg">
<g opacity="0.5">
<path d="M31.1521 25.0323C31.6286 25.4984 32.2808 25.7857 33 25.7857C34.4596 25.7857 35.6429 24.6025 35.6429 23.1429C35.6429 21.6832 34.4596 20.5 33 20.5C32.3351 20.5 31.7276 20.7455 31.2631 21.1509C31.4447 21.4706 31.5807 21.8197 31.6621 22.1892C31.96 21.772 32.4483 21.5 33 21.5C33.9074 21.5 34.6429 22.2355 34.6429 23.1429C34.6429 24.0502 33.9074 24.7857 33 24.7857C32.4147 24.7857 31.9009 24.4796 31.6099 24.0188C31.5077 24.382 31.352 24.7228 31.1521 25.0323Z" fill="#5F5F6A"/>
<path d="M24.7369 21.1508C24.2724 20.7455 23.6649 20.5 23 20.5C21.5404 20.5 20.3572 21.6832 20.3572 23.1429C20.3572 24.6025 21.5404 25.7857 23 25.7857C23.7193 25.7857 24.3714 25.4984 24.8479 25.0323C24.648 24.7228 24.4924 24.382 24.3901 24.0189C24.0991 24.4797 23.5853 24.7857 23 24.7857C22.0927 24.7857 21.3572 24.0502 21.3572 23.1429C21.3572 22.2355 22.0927 21.5 23 21.5C23.5518 21.5 24.04 21.772 24.3379 22.1892C24.4193 21.8196 24.5553 21.4706 24.7369 21.1508Z" fill="#5F5F6A"/>
<path d="M20.7011 26.2973C20.4004 26.3775 20.1049 26.4763 19.8096 26.5749C19.7252 26.6031 19.6408 26.6314 19.5563 26.6591C18.7011 26.94 18.0468 27.6337 17.8265 28.5025L17.5282 30.6346C17.4152 31.4513 17.8535 32.3091 18.7476 32.522C18.9963 32.5812 19.2904 32.6413 19.6328 32.6965C19.9054 32.7405 20.162 32.5551 20.206 32.2825C20.2499 32.0099 20.0645 31.7532 19.7919 31.7093C19.4733 31.6579 19.2035 31.6026 18.9792 31.5492C18.6755 31.4769 18.463 31.1746 18.5188 30.7717L18.8023 28.7234C18.9434 28.2027 19.3419 27.673 19.8684 27.5C20.1815 27.3971 20.9617 27.25 20.9617 27.25C21.3821 27.5 21.5324 27.6014 21.5324 27.6014C21.7811 27.7215 22.08 27.6173 22.2001 27.3686C22.3202 27.12 22.216 26.821 21.9674 26.7009C21.8646 26.6513 21.7673 26.5937 21.6715 26.537C21.374 26.361 21.0908 26.1934 20.7011 26.2973Z" fill="#5F5F6A"/>
<path d="M36.1904 26.575C35.8951 26.4763 35.5996 26.3775 35.2988 26.2973C34.9092 26.1934 34.626 26.361 34.3285 26.537C34.2327 26.5937 34.1354 26.6513 34.0326 26.7009C33.784 26.821 33.6798 27.12 33.7999 27.3686C33.92 27.6173 34.2189 27.7215 34.4676 27.6014C34.4676 27.6014 34.6179 27.5 35.0383 27.25C35.0383 27.25 35.8185 27.3971 36.1316 27.5C36.6581 27.673 37.0565 28.2027 37.1977 28.7234L37.4812 30.7717C37.537 31.1746 37.3245 31.4769 37.0208 31.5492C36.7965 31.6026 36.5266 31.6579 36.2081 31.7093C35.9354 31.7532 35.7501 32.0099 35.794 32.2825C35.8379 32.5551 36.0946 32.7405 36.3672 32.6965C36.7096 32.6413 37.0037 32.5812 37.2524 32.522C38.1465 32.3091 38.5848 31.4513 38.4718 30.6346L38.1735 28.5025C37.9531 27.6337 37.2989 26.94 36.4437 26.6591C36.3592 26.6313 36.2748 26.6032 36.1904 26.575Z" fill="#5F5F6A"/>
</g>
<path d="M28 19.25C25.9289 19.25 24.25 20.9289 24.25 23C24.25 25.0711 25.9289 26.75 28 26.75C30.0711 26.75 31.75 25.0711 31.75 23C31.75 20.9289 30.0711 19.25 28 19.25ZM25.75 23C25.75 21.7574 26.7574 20.75 28 20.75C29.2426 20.75 30.25 21.7574 30.25 23C30.25 24.2426 29.2426 25.25 28 25.25C26.7574 25.25 25.75 24.2426 25.75 23Z" fill="#5F5F6A"/>
<path d="M31.2359 27.4145C30.6257 27.2421 30.0486 27.4491 29.653 27.7117C29.294 27.95 28.7116 28.2356 28.0001 28.2356C27.2885 28.2356 26.7062 27.95 26.3471 27.7117C25.9516 27.4491 25.3744 27.2421 24.7643 27.4145C24.6046 27.4596 24.4456 27.5082 24.2875 27.5601L23.3283 27.8752C22.1151 28.2738 21.1865 29.258 20.8737 30.4912L20.8634 30.5316L20.4551 33.4815C20.294 34.6453 20.9178 35.874 22.1994 36.1793C23.3696 36.458 25.2518 36.75 28.0001 36.75C30.7484 36.75 32.6305 36.458 33.8008 36.1793C35.0824 35.874 35.7061 34.6453 35.545 33.4815L35.1367 30.5316L35.1265 30.4912C34.8137 29.258 33.8851 28.2738 32.6718 27.8752L31.7127 27.5601C31.5545 27.5082 31.3956 27.4596 31.2359 27.4145ZM30.4825 28.9614C30.6568 28.8458 30.78 28.8444 30.8279 28.858C30.9675 28.8974 31.1063 28.9398 31.2445 28.9852L32.2037 29.3003C32.924 29.5369 33.4689 30.1117 33.6627 30.8228L34.0592 33.6872C34.1345 34.231 33.8486 34.6259 33.4532 34.7201C32.4066 34.9694 30.6418 35.25 28.0001 35.25C25.3584 35.25 23.5936 34.9694 22.5469 34.7201C22.1516 34.6259 21.8657 34.231 21.9409 33.6872L22.3374 30.8228C22.5313 30.1117 23.0762 29.5369 23.7965 29.3003L24.7557 28.9852C24.8938 28.9398 25.0327 28.8974 25.1722 28.858C25.2202 28.8444 25.3434 28.8458 25.5176 28.9614C26.0188 29.2941 26.8896 29.7356 28.0001 29.7356C29.1105 29.7356 29.9813 29.2941 30.4825 28.9614Z" fill="#5F5F6A"/>
<path d="M24.7369 77.1508C24.2724 76.7455 23.6649 76.5 23 76.5C21.5404 76.5 20.3572 77.6832 20.3572 79.1429C20.3572 80.6025 21.5404 81.7857 23 81.7857C23.7193 81.7857 24.3714 81.4984 24.8479 81.0323C25.5157 82.0659 26.6779 82.75 28 82.75C29.3221 82.75 30.4843 82.0658 31.1521 81.0323C31.6286 81.4984 32.2808 81.7857 33 81.7857C34.4596 81.7857 35.6429 80.6025 35.6429 79.1429C35.6429 77.6832 34.4596 76.5 33 76.5C32.3351 76.5 31.7276 76.7455 31.2631 77.1509C30.6185 76.0157 29.3987 75.25 28 75.25C26.6013 75.25 25.3815 76.0157 24.7369 77.1508ZM25.75 79C25.75 77.7574 26.7574 76.75 28 76.75C29.2426 76.75 30.25 77.7574 30.25 79C30.25 80.2426 29.2426 81.25 28 81.25C26.7574 81.25 25.75 80.2426 25.75 79ZM24.3379 78.1892C24.2803 78.4503 24.25 78.7216 24.25 79C24.25 79.3532 24.2988 79.6949 24.3901 80.0189C24.0991 80.4797 23.5853 80.7857 23 80.7857C22.0927 80.7857 21.3572 80.0502 21.3572 79.1429C21.3572 78.2355 22.0927 77.5 23 77.5C23.5518 77.5 24.04 77.772 24.3379 78.1892ZM31.6099 80.0188C31.7012 79.6949 31.75 79.3531 31.75 79C31.75 78.7216 31.7197 78.4503 31.6621 78.1892C31.96 77.772 32.4483 77.5 33 77.5C33.9074 77.5 34.6429 78.2355 34.6429 79.1429C34.6429 80.0502 33.9074 80.7857 33 80.7857C32.4147 80.7857 31.9009 80.4796 31.6099 80.0188Z" fill="#5F5F6A"/>
<path d="M20.9511 82.2973C21.2982 82.2048 21.6263 82.3191 21.8523 82.483C21.9423 82.5483 22.0659 82.6278 22.2174 82.7009C22.466 82.821 22.5702 83.12 22.4501 83.3686C22.33 83.6173 22.0311 83.7215 21.7824 83.6014C21.5685 83.4981 21.3941 83.386 21.2652 83.2926C21.2434 83.2767 21.2239 83.2689 21.2117 83.2659C21.2085 83.2651 21.2048 83.2646 21.2048 83.2646C21.0702 83.3006 20.9364 83.3404 20.8035 83.3841L20.1184 83.6091C19.5919 83.7821 19.1934 84.2027 19.0523 84.7234L18.7688 86.7717C18.713 87.1746 18.9255 87.4769 19.2292 87.5492C19.4535 87.6026 19.7233 87.6579 20.0419 87.7093C20.3145 87.7532 20.4999 88.0098 20.456 88.2825C20.412 88.5551 20.1554 88.7405 19.8828 88.6965C19.5404 88.6413 19.2463 88.5812 18.9976 88.522C18.1035 88.3091 17.6652 87.4513 17.7782 86.6346L18.0696 84.5294L18.0765 84.5025C18.2968 83.6337 18.9511 82.94 19.8063 82.6591L20.4914 82.434C20.6436 82.384 20.7969 82.3384 20.9511 82.2973Z" fill="#5F5F6A"/>
<path d="M35.1809 82.2973C34.8339 82.2048 34.5058 82.3191 34.2797 82.483C34.1898 82.5483 34.0661 82.6278 33.9147 82.7009C33.6661 82.821 33.5619 83.12 33.682 83.3686C33.8021 83.6173 34.101 83.7215 34.3497 83.6014C34.5635 83.4981 34.738 83.386 34.8668 83.2926C34.8887 83.2767 34.9081 83.2689 34.9203 83.2659C34.9236 83.2651 34.9272 83.2646 34.9272 83.2646C35.0618 83.3006 35.1957 83.3404 35.3285 83.3841L36.0137 83.6091C36.5402 83.7821 36.9386 84.2027 37.0798 84.7234L37.3633 86.7717C37.4191 87.1746 37.2066 87.4769 36.9028 87.5492C36.6786 87.6026 36.4087 87.6579 36.0902 87.7093C35.8175 87.7532 35.6321 88.0098 35.6761 88.2825C35.72 88.5551 35.9767 88.7405 36.2493 88.6965C36.5917 88.6413 36.8858 88.5812 37.1345 88.522C38.0286 88.3091 38.4669 87.4513 38.3538 86.6346L38.0624 84.5294L38.0556 84.5025C37.8352 83.6337 37.1809 82.94 36.3258 82.6591L35.6407 82.434C35.4884 82.384 35.3351 82.3384 35.1809 82.2973Z" fill="#5F5F6A"/>
<path d="M29.653 83.7117C30.0486 83.4491 30.6257 83.2421 31.2359 83.4145C31.3956 83.4596 31.5545 83.5082 31.7127 83.5601L32.6718 83.8752C33.8851 84.2738 34.8136 85.258 35.1265 86.4912L35.1367 86.5316L35.545 89.4815C35.7061 90.6453 35.0824 91.874 33.8007 92.1793C32.6305 92.458 30.7484 92.75 28.0001 92.75C25.2518 92.75 23.3696 92.458 22.1994 92.1793C20.9178 91.874 20.294 90.6453 20.4551 89.4815L20.8634 86.5316L20.8737 86.4912C21.1865 85.258 22.1151 84.2738 23.3283 83.8752L24.2875 83.5601C24.4456 83.5082 24.6046 83.4596 24.7643 83.4145C25.3744 83.2421 25.9515 83.4491 26.3471 83.7117C26.7062 83.95 27.2885 84.2356 28.0001 84.2356C28.7116 84.2356 29.294 83.95 29.653 83.7117ZM30.8279 84.858C30.7799 84.8444 30.6568 84.8458 30.4825 84.9614C29.9813 85.2941 29.1105 85.7356 28.0001 85.7356C26.8896 85.7356 26.0188 85.2941 25.5176 84.9614C25.3434 84.8458 25.2202 84.8444 25.1722 84.858C25.0327 84.8974 24.8938 84.9398 24.7556 84.9852L23.7965 85.3003C23.0761 85.5369 22.5313 86.1117 22.3374 86.8228L21.9409 89.6872C21.8657 90.231 22.1516 90.6259 22.5469 90.7201C23.5936 90.9694 25.3584 91.25 28.0001 91.25C30.6418 91.25 32.4065 90.9694 33.4532 90.7201C33.8485 90.6259 34.1345 90.231 34.0592 89.6872L33.6627 86.8228C33.4689 86.1117 32.924 85.5369 32.2037 85.3003L31.2445 84.9852C31.1063 84.9398 30.9675 84.8974 30.8279 84.858Z" fill="#5F5F6A"/>
<path d="M24.9233 133.33C25.5162 132.24 26.6717 131.5 28 131.5C29.3283 131.5 30.4838 132.24 31.0767 133.33C31.5587 132.819 32.2421 132.5 33 132.5C34.4596 132.5 35.6429 133.683 35.6429 135.143C35.6429 136.602 34.4596 137.786 33 137.786C32.1877 137.786 31.461 137.419 30.9762 136.843C30.359 137.837 29.2569 138.5 28 138.5C26.7431 138.5 25.641 137.838 25.0238 136.843C24.539 137.419 23.8123 137.786 23 137.786C21.5404 137.786 20.3572 136.602 20.3572 135.143C20.3572 133.683 21.5404 132.5 23 132.5C23.7579 132.5 24.4413 132.819 24.9233 133.33ZM25.5564 134.47C25.6128 134.685 25.6429 134.91 25.6429 135.143C25.6429 135.323 25.6249 135.499 25.5905 135.669C25.883 136.725 26.851 137.5 28 137.5C29.149 137.5 30.117 136.725 30.4095 135.669C30.3752 135.499 30.3572 135.323 30.3572 135.143C30.3572 134.91 30.3872 134.685 30.4437 134.47C30.2005 133.344 29.1988 132.5 28 132.5C26.8013 132.5 25.7996 133.344 25.5564 134.47ZM24.5297 134.542C24.2899 133.932 23.6954 133.5 23 133.5C22.0927 133.5 21.3572 134.236 21.3572 135.143C21.3572 136.05 22.0927 136.786 23 136.786C23.7283 136.786 24.3459 136.312 24.5613 135.656C24.521 135.443 24.5 135.224 24.5 135C24.5 134.845 24.5101 134.692 24.5297 134.542ZM31.4387 135.655C31.6541 136.312 32.2717 136.786 33 136.786C33.9074 136.786 34.6429 136.05 34.6429 135.143C34.6429 134.236 33.9074 133.5 33 133.5C32.3046 133.5 31.7101 133.932 31.4704 134.542C31.4899 134.692 31.5 134.845 31.5 135C31.5 135.224 31.4789 135.443 31.4387 135.655Z" fill="#5F5F6A"/>
<path d="M20.9511 138.297C21.2982 138.205 21.6263 138.319 21.8523 138.483C21.9423 138.548 22.0659 138.628 22.2174 138.701C22.466 138.821 22.5702 139.12 22.4501 139.369C22.33 139.617 22.0311 139.721 21.7824 139.601C21.5685 139.498 21.3941 139.386 21.2652 139.293C21.2434 139.277 21.2239 139.269 21.2117 139.266C21.2085 139.265 21.2048 139.265 21.2048 139.265C21.0702 139.301 20.9364 139.34 20.8035 139.384L20.1184 139.609C19.5919 139.782 19.1934 140.203 19.0523 140.723L18.7688 142.772C18.713 143.175 18.9255 143.477 19.2292 143.549C19.4535 143.603 19.7233 143.658 20.0419 143.709C20.3145 143.753 20.4999 144.01 20.456 144.282C20.412 144.555 20.1554 144.74 19.8828 144.697C19.5404 144.641 19.2463 144.581 18.9976 144.522C18.1035 144.309 17.6652 143.451 17.7782 142.635L18.0696 140.529L18.0765 140.503C18.2968 139.634 18.9511 138.94 19.8063 138.659L20.4914 138.434C20.6436 138.384 20.7969 138.338 20.9511 138.297Z" fill="#5F5F6A"/>
<path d="M35.1809 138.297C34.8339 138.205 34.5058 138.319 34.2797 138.483C34.1898 138.548 34.0661 138.628 33.9147 138.701C33.6661 138.821 33.5619 139.12 33.682 139.369C33.8021 139.617 34.101 139.721 34.3497 139.601C34.5635 139.498 34.738 139.386 34.8668 139.293C34.8887 139.277 34.9081 139.269 34.9203 139.266L34.9249 139.265L34.9272 139.265C35.0618 139.301 35.1957 139.34 35.3285 139.384L36.0137 139.609C36.5402 139.782 36.9386 140.203 37.0798 140.723L37.3633 142.772C37.4191 143.175 37.2066 143.477 36.9028 143.549C36.6786 143.603 36.4087 143.658 36.0902 143.709C35.8175 143.753 35.6321 144.01 35.6761 144.282C35.72 144.555 35.9767 144.74 36.2493 144.697C36.5917 144.641 36.8858 144.581 37.1345 144.522C38.0286 144.309 38.4669 143.451 38.3538 142.635L38.0624 140.529L38.0556 140.503C37.8352 139.634 37.1809 138.94 36.3258 138.659L35.6407 138.434C35.4884 138.384 35.3351 138.338 35.1809 138.297Z" fill="#5F5F6A"/>
<path d="M29.7912 139.92C30.1499 139.682 30.6514 139.509 31.1678 139.655C31.3242 139.699 31.4798 139.747 31.6346 139.798L32.5938 140.113C33.727 140.485 34.5926 141.404 34.8841 142.553L34.8909 142.58L35.2974 145.516C35.4441 146.576 34.8767 147.666 33.7428 147.936C32.5931 148.21 30.7306 148.5 28 148.5C25.2695 148.5 23.4069 148.21 22.2573 147.936C21.1234 147.666 20.5559 146.576 20.7027 145.516L21.1091 142.58L21.116 142.553C21.4074 141.404 22.2731 140.485 23.4063 140.113L24.3655 139.798C24.5203 139.747 24.6759 139.699 24.8322 139.655C25.3487 139.509 25.8501 139.682 26.2088 139.92C26.5916 140.174 27.222 140.486 28 140.486C28.7781 140.486 29.4085 140.174 29.7912 139.92ZM30.8959 140.617C30.7542 140.577 30.5554 140.613 30.3442 140.753C29.8667 141.07 29.044 141.486 28 141.486C26.9561 141.486 26.1333 141.07 25.6558 140.753C25.4447 140.613 25.2459 140.577 25.1042 140.617C24.9613 140.658 24.8191 140.701 24.6776 140.748L23.7184 141.063C22.914 141.327 22.3043 141.972 22.0919 142.773L21.6933 145.653C21.6037 146.3 21.9459 146.834 22.489 146.963C23.5562 147.217 25.3406 147.5 28 147.5C30.6595 147.5 32.4438 147.217 33.5111 146.963C34.0542 146.834 34.3964 146.3 34.3068 145.653L33.9082 142.773C33.6958 141.972 33.086 141.327 32.2817 141.063L31.3225 140.748C31.181 140.701 31.0388 140.658 30.8959 140.617Z" fill="#5F5F6A"/>
</svg>
