<svg width="56" height="168" viewBox="0 0 56 168" fill="none" xmlns="http://www.w3.org/2000/svg">
<path d="M28.0001 20.75C26.7574 20.75 25.7501 21.7574 25.7501 23C25.7501 24.2426 26.7574 25.25 28.0001 25.25C29.2427 25.25 30.2501 24.2426 30.2501 23C30.2501 21.7574 29.2427 20.75 28.0001 20.75ZM24.2501 23C24.2501 20.9289 25.929 19.25 28.0001 19.25C30.0711 19.25 31.7501 20.9289 31.7501 23C31.7501 25.0711 30.0711 26.75 28.0001 26.75C25.929 26.75 24.2501 25.0711 24.2501 23ZM25.3145 28.8188C25.4468 28.9171 25.6164 29.0319 25.8195 29.1463C26.3327 29.4353 27.0847 29.7356 28.0001 29.7356C28.9154 29.7356 29.6675 29.4353 30.1806 29.1463C30.3837 29.0319 30.5533 28.9171 30.6856 28.8188C30.8731 28.8689 31.0594 28.9244 31.2445 28.9852L32.2037 29.3003C32.924 29.5369 33.4689 30.1117 33.6627 30.8228L34.0592 33.6872C34.1345 34.231 33.8486 34.6259 33.4532 34.7201C32.4066 34.9694 30.6418 35.25 28.0001 35.25C25.3584 35.25 23.5936 34.9694 22.5469 34.7201C22.1516 34.6259 21.8657 34.231 21.9409 33.6872L22.3374 30.8228C22.5313 30.1117 23.0762 29.5369 23.7965 29.3003L24.7557 28.9852C24.9407 28.9244 25.1271 28.8689 25.3145 28.8188ZM26.025 27.4642C26.0245 27.4638 26.0241 27.4635 26.0238 27.4632L25.7333 27.1768L25.3319 27.2691C24.9806 27.3499 24.632 27.4469 24.2875 27.5601L23.3283 27.8752C22.1151 28.2738 21.1865 29.258 20.8737 30.4912L20.8634 30.5316L20.4551 33.4815C20.294 34.6452 20.9178 35.874 22.1994 36.1793C23.3696 36.458 25.2518 36.75 28.0001 36.75C30.7484 36.75 32.6305 36.458 33.8008 36.1793C35.0824 35.874 35.7061 34.6452 35.545 33.4815L35.1367 30.5316L35.1265 30.4912C34.8137 29.258 33.8851 28.2738 32.6718 27.8752L31.7127 27.5601C31.3681 27.4469 31.0196 27.3499 30.6682 27.2691L30.2669 27.1768L29.9763 27.4632C29.976 27.4635 29.9756 27.4638 29.9752 27.4642C29.9721 27.4671 29.9655 27.4732 29.9555 27.4822C29.9354 27.5 29.9019 27.5288 29.856 27.565C29.7637 27.6378 29.624 27.7382 29.4445 27.8393C29.0827 28.0431 28.5847 28.2356 28.0001 28.2356C27.4154 28.2356 26.9175 28.0431 26.5556 27.8393C26.3762 27.7382 26.2364 27.6378 26.1441 27.565C26.0982 27.5288 26.0647 27.5 26.0447 27.4822C26.0346 27.4732 26.028 27.4671 26.025 27.4642Z" fill="#5F5F6A"/>
<path d="M28.0001 76.75C26.7574 76.75 25.7501 77.7574 25.7501 79C25.7501 80.2426 26.7574 81.25 28.0001 81.25C29.2427 81.25 30.2501 80.2426 30.2501 79C30.2501 77.7574 29.2427 76.75 28.0001 76.75ZM24.2501 79C24.2501 76.9289 25.929 75.25 28.0001 75.25C30.0711 75.25 31.7501 76.9289 31.7501 79C31.7501 81.0711 30.0711 82.75 28.0001 82.75C25.929 82.75 24.2501 81.0711 24.2501 79ZM25.3145 84.8188C25.4468 84.9171 25.6164 85.0319 25.8195 85.1463C26.3327 85.4353 27.0847 85.7356 28.0001 85.7356C28.9154 85.7356 29.6675 85.4353 30.1806 85.1463C30.3837 85.0319 30.5533 84.9171 30.6856 84.8188C30.8731 84.8689 31.0594 84.9244 31.2445 84.9852L32.2037 85.3003C32.924 85.5369 33.4689 86.1117 33.6627 86.8228L34.0592 89.6872C34.1345 90.231 33.8486 90.6259 33.4532 90.7201C32.4066 90.9694 30.6418 91.25 28.0001 91.25C25.3584 91.25 23.5936 90.9694 22.5469 90.7201C22.1516 90.6259 21.8657 90.231 21.9409 89.6872L22.3374 86.8228C22.5313 86.1117 23.0762 85.5369 23.7965 85.3003L24.7557 84.9852C24.9407 84.9244 25.1271 84.8689 25.3145 84.8188ZM26.025 83.4642C26.0245 83.4638 26.0241 83.4635 26.0238 83.4632L25.7333 83.1768L25.3319 83.2691C24.9806 83.3499 24.632 83.4469 24.2875 83.5601L23.3283 83.8752C22.1151 84.2738 21.1865 85.258 20.8737 86.4912L20.8634 86.5316L20.4551 89.4815C20.294 90.6452 20.9178 91.874 22.1994 92.1793C23.3696 92.458 25.2518 92.75 28.0001 92.75C30.7484 92.75 32.6305 92.458 33.8008 92.1793C35.0824 91.874 35.7061 90.6452 35.545 89.4815L35.1367 86.5316L35.1265 86.4912C34.8137 85.258 33.8851 84.2738 32.6718 83.8752L31.7127 83.5601C31.3681 83.4469 31.0196 83.3499 30.6682 83.2691L30.2669 83.1768L29.9763 83.4632C29.976 83.4635 29.9756 83.4638 29.9752 83.4642C29.9721 83.4671 29.9655 83.4732 29.9555 83.4822C29.9354 83.5 29.9019 83.5288 29.856 83.565C29.7637 83.6378 29.624 83.7382 29.4445 83.8393C29.0827 84.0431 28.5847 84.2356 28.0001 84.2356C27.4154 84.2356 26.9175 84.0431 26.5556 83.8393C26.3762 83.7382 26.2364 83.6378 26.1441 83.565C26.0982 83.5288 26.0647 83.5 26.0447 83.4822C26.0346 83.4732 26.028 83.4671 26.025 83.4642Z" fill="#5F5F6A"/>
<path d="M28 132.5C26.6193 132.5 25.5 133.619 25.5 135C25.5 136.381 26.6193 137.5 28 137.5C29.3808 137.5 30.5 136.381 30.5 135C30.5 133.619 29.3808 132.5 28 132.5ZM24.5 135C24.5 133.067 26.067 131.5 28 131.5C29.933 131.5 31.5 133.067 31.5 135C31.5 136.933 29.933 138.5 28 138.5C26.067 138.5 24.5 136.933 24.5 135ZM25.3695 140.546C25.1372 140.605 24.9064 140.673 24.6776 140.748L23.7184 141.063C22.914 141.327 22.3043 141.972 22.0919 142.773L21.6933 145.653C21.6037 146.3 21.9459 146.834 22.489 146.963C23.5562 147.217 25.3406 147.5 28 147.5C30.6595 147.5 32.4438 147.217 33.5111 146.963C34.0542 146.834 34.3964 146.3 34.3068 145.653L33.9082 142.773C33.6958 141.972 33.086 141.327 32.2817 141.063L31.3225 140.748C31.0937 140.673 30.8629 140.605 30.6306 140.546C30.6304 140.546 30.6308 140.546 30.6306 140.546C30.4968 140.652 30.3029 140.79 30.0579 140.928C29.57 141.203 28.8603 141.486 28 141.486C27.1398 141.486 26.4301 141.203 25.9422 140.928C25.6972 140.79 25.5033 140.652 25.3695 140.546C25.3697 140.546 25.3693 140.546 25.3695 140.546ZM25.6555 139.451L25.8496 139.643C25.8494 139.642 25.8494 139.642 25.8496 139.643L25.8538 139.647C25.8584 139.651 25.8667 139.658 25.8784 139.669C25.9019 139.69 25.9392 139.722 25.9893 139.761C26.0899 139.841 26.2404 139.949 26.4329 140.057C26.82 140.275 27.3603 140.486 28 140.486C28.6398 140.486 29.1801 140.275 29.5672 140.057C29.7597 139.949 29.9102 139.841 30.0108 139.761C30.0609 139.722 30.0982 139.69 30.1217 139.669C30.1334 139.658 30.1416 139.651 30.1463 139.647L30.1499 139.643C30.1502 139.643 30.1502 139.643 30.1499 139.643L30.3446 139.451L30.6121 139.513C30.9561 139.592 31.2973 139.687 31.6346 139.798L32.5938 140.113C33.727 140.485 34.5926 141.404 34.8841 142.553L34.8909 142.58L35.2974 145.516C35.4442 146.576 34.8767 147.666 33.7428 147.936C32.5931 148.21 30.7306 148.5 28 148.5C25.2695 148.5 23.4069 148.21 22.2573 147.936C21.1234 147.666 20.5559 146.576 20.7027 145.516L21.1092 142.58L21.116 142.553C21.4074 141.404 22.2731 140.485 23.4063 140.113L24.3655 139.798C24.7028 139.687 25.044 139.592 25.388 139.513L25.6555 139.451Z" fill="#5F5F6A"/>
</svg>
