<svg width="56" height="224" viewBox="0 0 56 224" fill="none" xmlns="http://www.w3.org/2000/svg">
<path d="M23.2497 20.5C23.2497 19.5335 24.0332 18.75 24.9997 18.75H30.9997C31.9662 18.75 32.7497 19.5335 32.7497 20.5C32.7497 21.5627 31.8604 22.25 30.8589 22.25L31.4218 26.378C33.2566 26.8989 34.373 28.5426 34.7351 30.3529C34.8265 30.8098 34.4657 31.25 33.9997 31.25H21.9997C21.5337 31.25 21.1728 30.8098 21.2642 30.3529C21.6263 28.5426 22.7428 26.8989 24.5775 26.378L25.1405 22.25C24.1389 22.25 23.2497 21.5627 23.2497 20.5Z" fill="#5F5F6A"/>
<path d="M28.7497 32.5C28.7497 32.0858 28.4139 31.75 27.9997 31.75C27.5855 31.75 27.2497 32.0858 27.2497 32.5V36.5C27.2497 36.9142 27.5855 37.25 27.9997 37.25C28.4139 37.25 28.7497 36.9142 28.7497 36.5V32.5Z" fill="#5F5F6A"/>
<path opacity="0.5" d="M25 75.5C24.4477 75.5 24 75.9477 24 76.5C24 77.0523 24.4477 77.5 25 77.5H26L25.25 83C24.0833 83.1667 22.5 84 22 86.5H34C33.5 84 31.9167 83.1667 30.75 83L30 77.5H31C31.5523 77.5 32 77.0523 32 76.5C32 75.9477 31.5523 75.5 31 75.5H25Z" fill="#5F5F6A"/>
<path fill-rule="evenodd" clip-rule="evenodd" d="M24.9997 76.25C24.8616 76.25 24.7497 76.3619 24.7497 76.5C24.7497 76.6381 24.8616 76.75 24.9997 76.75H25.9997C26.4474 76.75 26.8033 77.1577 26.7428 77.6013L25.9928 83.1013C25.9475 83.4334 25.6875 83.6951 25.3557 83.7425C24.2319 83.903 23.3984 84.7218 22.994 85.75H33.0053C32.6009 84.7218 31.7674 83.903 30.6436 83.7425C30.3119 83.6951 30.0518 83.4334 30.0065 83.1013L29.2565 77.6013C29.1961 77.1577 29.552 76.75 29.9997 76.75H30.9997C31.1377 76.75 31.2497 76.6381 31.2497 76.5C31.2497 76.3619 31.1377 76.25 30.9997 76.25H24.9997ZM23.2497 76.5C23.2497 75.5335 24.0332 74.75 24.9997 74.75H30.9997C31.9662 74.75 32.7497 75.5335 32.7497 76.5C32.7497 77.5627 31.8604 78.25 30.8589 78.25L31.4218 82.378C33.2566 82.8989 34.373 84.5426 34.7351 86.3529C34.8265 86.8098 34.4657 87.25 33.9997 87.25H21.9997C21.5337 87.25 21.1728 86.8098 21.2642 86.3529C21.6263 84.5426 22.7428 82.8989 24.5775 82.378L25.1405 78.25C24.1389 78.25 23.2497 77.5627 23.2497 76.5ZM27.9997 87.75C28.4139 87.75 28.7497 88.0858 28.7497 88.5V92.5C28.7497 92.9142 28.4139 93.25 27.9997 93.25C27.5855 93.25 27.2497 92.9142 27.2497 92.5V88.5C27.2497 88.0858 27.5855 87.75 27.9997 87.75Z" fill="#5F5F6A"/>
<path fill-rule="evenodd" clip-rule="evenodd" d="M24.9997 132.25C24.8616 132.25 24.7497 132.362 24.7497 132.5C24.7497 132.638 24.8616 132.75 24.9997 132.75H25.9997C26.4474 132.75 26.8033 133.158 26.7428 133.601L25.9928 139.101C25.9475 139.433 25.6875 139.695 25.3557 139.742C24.2319 139.903 23.3984 140.722 22.994 141.75H33.0053C32.6009 140.722 31.7674 139.903 30.6436 139.742C30.3119 139.695 30.0518 139.433 30.0065 139.101L29.2565 133.601C29.1961 133.158 29.552 132.75 29.9997 132.75H30.9997C31.1377 132.75 31.2497 132.638 31.2497 132.5C31.2497 132.362 31.1377 132.25 30.9997 132.25H24.9997ZM23.2497 132.5C23.2497 131.534 24.0332 130.75 24.9997 130.75H30.9997C31.9662 130.75 32.7497 131.534 32.7497 132.5C32.7497 133.466 31.9662 134.25 30.9997 134.25H30.8589L31.4218 138.378C33.2566 138.899 34.373 140.543 34.7351 142.353C34.8265 142.81 34.4657 143.25 33.9997 143.25H21.9997C21.5337 143.25 21.1728 142.81 21.2642 142.353C21.6263 140.543 22.7428 138.899 24.5775 138.378L25.1405 134.25H24.9997C24.0332 134.25 23.2497 133.466 23.2497 132.5ZM27.9997 143.75C28.4139 143.75 28.7497 144.086 28.7497 144.5V148.5C28.7497 148.914 28.4139 149.25 27.9997 149.25C27.5855 149.25 27.2497 148.914 27.2497 148.5V144.5C27.2497 144.086 27.5855 143.75 27.9997 143.75Z" fill="#5F5F6A"/>
<path fill-rule="evenodd" clip-rule="evenodd" d="M24.9998 188C24.7236 188 24.4998 188.224 24.4998 188.5C24.4998 188.776 24.7236 189 24.9998 189H25.9998C26.2886 189 26.5342 189.281 26.4952 189.568L25.7452 195.068C25.715 195.289 25.5416 195.463 25.3205 195.495C23.9683 195.688 23.034 196.742 22.6415 198H33.358C32.9656 196.742 32.0312 195.688 30.6791 195.495C30.4579 195.463 30.2845 195.289 30.2544 195.068L29.5044 189.568C29.4653 189.281 29.711 189 29.9998 189H30.9998C31.2759 189 31.4998 188.776 31.4998 188.5C31.4998 188.224 31.2759 188 30.9998 188H24.9998ZM23.4998 188.5C23.4998 187.672 24.1714 187 24.9998 187H30.9998C31.8282 187 32.4998 187.672 32.4998 188.5C32.4998 189.328 31.8282 190 30.9998 190H30.5726L31.1968 194.577C33.0235 195.018 34.135 196.627 34.4901 198.402C34.551 198.707 34.3104 199 33.9998 199H21.9998C21.6891 199 21.4486 198.707 21.5095 198.402C21.8645 196.627 22.976 195.018 24.8028 194.577L25.427 190H24.9998C24.1714 190 23.4998 189.328 23.4998 188.5ZM27.9998 200C28.2759 200 28.4998 200.224 28.4998 200.5V204.5C28.4998 204.776 28.2759 205 27.9998 205C27.7236 205 27.4998 204.776 27.4998 204.5V200.5C27.4998 200.224 27.7236 200 27.9998 200Z" fill="#5F5F6A"/>
</svg>
