<svg width="56" height="168" viewBox="0 0 56 168" fill="none" xmlns="http://www.w3.org/2000/svg">
<path opacity="0.5" d="M26.2429 31.8968C26.2999 32.3071 26.0136 32.6859 25.6033 32.7429C22.9716 33.1085 20.5299 34.068 18.4173 35.4821C18.0731 35.7126 17.6072 35.6203 17.3768 35.2761C17.1464 34.9319 17.2387 34.466 17.5829 34.2356C19.8792 32.6985 22.5347 31.6548 25.3969 31.2571C25.8071 31.2001 26.1859 31.4865 26.2429 31.8968ZM29.7572 31.8968C29.8142 31.4865 30.193 31.2001 30.6033 31.2571C33.4654 31.6548 36.121 32.6985 38.4173 34.2356C38.7615 34.466 38.8537 34.9319 38.6233 35.2761C38.3929 35.6203 37.9271 35.7126 37.5829 35.4821C35.4703 34.068 33.0286 33.1085 30.3969 32.7429C29.9866 32.6859 29.7002 32.3071 29.7572 31.8968Z" fill="#5F5F6A"/>
<path d="M23.25 24C23.25 21.3766 25.3766 19.25 28 19.25C30.6234 19.25 32.75 21.3766 32.75 24C32.75 26.3682 31.017 28.3315 28.75 28.6911L28.75 35C28.75 35.4142 28.4142 35.75 28 35.75C27.5858 35.75 27.25 35.4142 27.25 35L27.25 28.6911C24.983 28.3315 23.25 26.3682 23.25 24ZM28 20.75C26.2051 20.75 24.75 22.2051 24.75 24C24.75 25.7949 26.2051 27.25 28 27.25C29.7949 27.25 31.25 25.7949 31.25 24C31.25 23.5374 31.1533 23.0973 30.9791 22.6989C30.8247 22.7324 30.6644 22.75 30.5 22.75C29.3455 22.75 28.3941 21.8805 28.2649 20.7606C28.1776 20.7536 28.0892 20.75 28 20.75Z" fill="#5F5F6A"/>
<path d="M28.75 84.6911C31.017 84.3315 32.75 82.3682 32.75 80C32.75 77.3766 30.6234 75.25 28 75.25C25.3766 75.25 23.25 77.3766 23.25 80C23.25 82.3682 24.983 84.3315 27.25 84.6911L27.25 91C27.25 91.4142 27.5858 91.75 28 91.75C28.4142 91.75 28.75 91.4142 28.75 91L28.75 84.6911ZM24.75 80C24.75 78.2051 26.2051 76.75 28 76.75C28.0892 76.75 28.1776 76.7536 28.2649 76.7606C28.3941 77.8805 29.3455 78.75 30.5 78.75C30.6644 78.75 30.8247 78.7324 30.9791 78.6989C31.1533 79.0973 31.25 79.5374 31.25 80C31.25 81.7949 29.7949 83.25 28 83.25C26.2051 83.25 24.75 81.7949 24.75 80Z" fill="#5F5F6A"/>
<path d="M26.2429 87.8968C26.2999 88.3071 26.0136 88.6859 25.6033 88.7429C22.9716 89.1085 20.5299 90.068 18.4173 91.4821C18.0731 91.7126 17.6072 91.6203 17.3768 91.2761C17.1464 90.9319 17.2387 90.466 17.5829 90.2356C19.8792 88.6985 22.5347 87.6548 25.3969 87.2571C25.8071 87.2001 26.1859 87.4865 26.2429 87.8968Z" fill="#5F5F6A"/>
<path d="M29.7572 87.8968C29.8142 87.4865 30.193 87.2001 30.6033 87.2571C33.4654 87.6548 36.121 88.6985 38.4173 90.2356C38.7615 90.466 38.8537 90.9319 38.6233 91.2761C38.3929 91.6203 37.9271 91.7126 37.5829 91.4821C35.4703 90.068 33.0286 89.1085 30.3969 88.7429C29.9866 88.6859 29.7002 88.3071 29.7572 87.8968Z" fill="#5F5F6A"/>
<path d="M28.5 140.473C30.75 140.224 32.5 138.316 32.5 136C32.5 133.515 30.4853 131.5 28 131.5C25.5147 131.5 23.5 133.515 23.5 136C23.5 138.316 25.25 140.224 27.5 140.473L27.5 147C27.5 147.276 27.7239 147.5 28 147.5C28.2761 147.5 28.5 147.276 28.5 147L28.5 140.473ZM24.5 136C24.5 134.067 26.067 132.5 28 132.5C28.1699 132.5 28.3369 132.512 28.5003 132.535C28.5192 133.624 29.4073 134.5 30.5 134.5C30.7148 134.5 30.9216 134.466 31.1155 134.404C31.3613 134.882 31.5 135.425 31.5 136C31.5 137.933 29.933 139.5 28 139.5C26.067 139.5 24.5 137.933 24.5 136ZM30.4481 133.499C30.1912 133.247 29.8957 133.035 29.5714 132.872C29.7128 133.225 30.0497 133.478 30.4481 133.499Z" fill="#5F5F6A"/>
<path d="M25.9953 143.931C26.0333 144.205 25.8424 144.457 25.5689 144.495C22.8988 144.866 20.4214 145.84 18.2782 147.274C18.0487 147.428 17.7382 147.366 17.5845 147.137C17.4309 146.908 17.4924 146.597 17.7219 146.443C19.9876 144.927 22.6075 143.897 25.4312 143.505C25.7048 143.467 25.9573 143.658 25.9953 143.931Z" fill="#5F5F6A"/>
<path d="M30.0048 143.931C30.0428 143.658 30.2954 143.467 30.5689 143.505C33.3926 143.897 36.0125 144.927 38.2782 146.443C38.5077 146.597 38.5692 146.908 38.4156 147.137C38.2619 147.366 37.9514 147.428 37.7219 147.274C35.5787 145.84 33.1013 144.866 30.4312 144.495C30.1577 144.457 29.9668 144.205 30.0048 143.931Z" fill="#5F5F6A"/>
</svg>
