<svg width="56" height="168" viewBox="0 0 56 168" fill="none" xmlns="http://www.w3.org/2000/svg">
<path opacity="0.5" fill-rule="evenodd" clip-rule="evenodd" d="M25.7397 31.8759C25.8083 32.2844 25.5327 32.6711 25.1242 32.7397C22.6752 33.1505 20.4012 34.0775 18.4173 35.4055C18.0731 35.6359 17.6072 35.5436 17.3768 35.1994C17.1464 34.8552 17.2387 34.3894 17.5829 34.159C19.7392 32.7156 22.2123 31.7072 24.876 31.2603C25.2845 31.1918 25.6712 31.4674 25.7397 31.8759ZM30.2604 31.8759C30.3289 31.4674 30.7157 31.1918 31.1242 31.2603C33.7878 31.7072 36.2609 32.7156 38.4173 34.159C38.7615 34.3894 38.8537 34.8552 38.6233 35.1994C38.3929 35.5436 37.9271 35.6359 37.5829 35.4055C35.599 34.0775 33.3249 33.1505 30.876 32.7397C30.4675 32.6711 30.1919 32.2844 30.2604 31.8759Z" fill="#5F5F6A"/>
<path fill-rule="evenodd" clip-rule="evenodd" d="M22.25 26C22.25 22.8244 24.8244 20.25 28 20.25C31.1756 20.25 33.75 22.8244 33.75 26C33.75 28.7417 32.386 31.1533 31.0945 32.8323C30.442 33.6804 29.7909 34.364 29.3025 34.8361C29.0579 35.0726 28.853 35.2571 28.7076 35.3838C28.6349 35.4472 28.5769 35.4962 28.5363 35.53C28.516 35.547 28.5 35.5601 28.4886 35.5694L28.475 35.5805L28.4708 35.5838L28.4694 35.5849C28.4692 35.5851 28.4685 35.5857 28 35C27.5699 35.6144 27.5697 35.6143 27.5694 35.6141L27.5672 35.6125L27.5627 35.6093L27.5483 35.5991C27.5364 35.5905 27.5199 35.5786 27.499 35.5632C27.4573 35.5325 27.3983 35.4882 27.3244 35.4307C27.1767 35.3157 26.9694 35.1476 26.7222 34.9293C26.2288 34.4934 25.572 33.8531 24.9144 33.031C23.6049 31.3942 22.25 28.9827 22.25 26ZM28 35L27.5694 35.6141C27.8421 35.805 28.2086 35.7936 28.4685 35.5857L28 35ZM27.9739 34.0274C28.0597 33.9486 28.1557 33.8585 28.26 33.7576C28.7091 33.3235 29.308 32.6946 29.9055 31.9177C31.114 30.3467 32.25 28.2583 32.25 26C32.25 23.6528 30.3472 21.75 28 21.75C25.6528 21.75 23.75 23.6528 23.75 26C23.75 28.5173 24.8951 30.6058 26.0857 32.094C26.678 32.8344 27.2712 33.4128 27.7153 33.8051C27.8088 33.8877 27.8955 33.9619 27.9739 34.0274ZM28 24.75C27.3096 24.75 26.75 25.3096 26.75 26C26.75 26.6904 27.3096 27.25 28 27.25C28.6904 27.25 29.25 26.6904 29.25 26C29.25 25.3096 28.6904 24.75 28 24.75ZM25.25 26C25.25 24.4812 26.4812 23.25 28 23.25C29.5188 23.25 30.75 24.4812 30.75 26C30.75 27.5188 29.5188 28.75 28 28.75C26.4812 28.75 25.25 27.5188 25.25 26Z" fill="#5F5F6A"/>
<path fill-rule="evenodd" clip-rule="evenodd" d="M25.7397 87.8759C25.8083 88.2844 25.5327 88.6711 25.1242 88.7397C22.6752 89.1505 20.4012 90.0775 18.4173 91.4055C18.0731 91.6359 17.6072 91.5436 17.3768 91.1994C17.1464 90.8552 17.2387 90.3894 17.5829 90.159C19.7392 88.7156 22.2123 87.7072 24.876 87.2603C25.2845 87.1918 25.6712 87.4674 25.7397 87.8759ZM30.2604 87.8759C30.3289 87.4674 30.7157 87.1918 31.1242 87.2603C33.7878 87.7072 36.2609 88.7156 38.4173 90.159C38.7615 90.3894 38.8537 90.8552 38.6233 91.1994C38.3929 91.5436 37.9271 91.6359 37.5829 91.4055C35.599 90.0775 33.3249 89.1505 30.876 88.7397C30.4675 88.6711 30.1919 88.2844 30.2604 87.8759Z" fill="#5F5F6A"/>
<path fill-rule="evenodd" clip-rule="evenodd" d="M22.25 82C22.25 78.8244 24.8244 76.25 28 76.25C31.1756 76.25 33.75 78.8244 33.75 82C33.75 84.7417 32.386 87.1533 31.0945 88.8323C30.442 89.6804 29.7909 90.364 29.3025 90.8361C29.0579 91.0726 28.853 91.2571 28.7076 91.3838C28.6349 91.4472 28.5769 91.4962 28.5363 91.53C28.516 91.547 28.5 91.5601 28.4886 91.5694L28.475 91.5805L28.4708 91.5838L28.4694 91.5849C28.4692 91.5851 28.4685 91.5857 28 91C27.5699 91.6144 27.5697 91.6143 27.5694 91.6141L27.5672 91.6125L27.5627 91.6093L27.5483 91.5991C27.5364 91.5905 27.5199 91.5786 27.499 91.5632C27.4573 91.5325 27.3983 91.4882 27.3244 91.4307C27.1767 91.3157 26.9694 91.1476 26.7222 90.9293C26.2288 90.4934 25.572 89.8531 24.9144 89.031C23.6049 87.3942 22.25 84.9827 22.25 82ZM28 91L27.5694 91.6141C27.8421 91.805 28.2086 91.7936 28.4685 91.5857L28 91ZM27.9739 90.0274C28.0597 89.9486 28.1557 89.8585 28.26 89.7576C28.7091 89.3235 29.308 88.6946 29.9055 87.9177C31.114 86.3467 32.25 84.2583 32.25 82C32.25 79.6528 30.3472 77.75 28 77.75C25.6528 77.75 23.75 79.6528 23.75 82C23.75 84.5173 24.8951 86.6058 26.0857 88.094C26.678 88.8344 27.2712 89.4128 27.7153 89.8051C27.8088 89.8877 27.8955 89.9619 27.9739 90.0274ZM28 80.75C27.3096 80.75 26.75 81.3096 26.75 82C26.75 82.6904 27.3096 83.25 28 83.25C28.6904 83.25 29.25 82.6904 29.25 82C29.25 81.3096 28.6904 80.75 28 80.75ZM25.25 82C25.25 80.4812 26.4812 79.25 28 79.25C29.5188 79.25 30.75 80.4812 30.75 82C30.75 83.5188 29.5188 84.75 28 84.75C26.4812 84.75 25.25 83.5188 25.25 82Z" fill="#5F5F6A"/>
<path fill-rule="evenodd" clip-rule="evenodd" d="M25.4932 143.917C25.5389 144.19 25.3551 144.447 25.0828 144.493C22.5981 144.91 20.2908 145.851 18.2782 147.198C18.0487 147.351 17.7382 147.29 17.5845 147.06C17.4309 146.831 17.4924 146.52 17.7219 146.367C19.8495 144.943 22.2895 143.948 24.9173 143.507C25.1897 143.461 25.4475 143.645 25.4932 143.917ZM30.5069 143.917C30.5526 143.645 30.8104 143.461 31.0828 143.507C33.7106 143.948 36.1506 144.943 38.2782 146.367C38.5077 146.52 38.5692 146.831 38.4156 147.06C38.2619 147.29 37.9514 147.351 37.7219 147.198C35.7093 145.851 33.402 144.91 30.9173 144.493C30.645 144.447 30.4613 144.19 30.5069 143.917Z" fill="#5F5F6A"/>
<path fill-rule="evenodd" clip-rule="evenodd" d="M22.5 138C22.5 134.962 24.9624 132.5 28 132.5C31.0376 132.5 33.5 134.962 33.5 138C33.5 140.661 32.174 143.019 30.8963 144.68C30.253 145.516 29.6106 146.191 29.1288 146.656C28.8876 146.89 28.6858 147.071 28.5433 147.195C28.4721 147.257 28.4155 147.305 28.3762 147.338C28.3566 147.354 28.3412 147.367 28.3305 147.376L28.3179 147.386L28.3142 147.389L28.313 147.39C28.3129 147.39 28.3123 147.39 28 147C27.7133 147.41 27.7131 147.41 27.7129 147.409L27.7112 147.408L27.7073 147.405L27.6941 147.396C27.683 147.388 27.6673 147.377 27.6473 147.362C27.6073 147.332 27.55 147.289 27.478 147.233C27.334 147.121 27.1306 146.956 26.8877 146.742C26.4025 146.313 25.7563 145.683 25.1096 144.875C23.8199 143.263 22.5 140.905 22.5 138ZM28 147L27.7129 147.409C27.8947 147.537 28.1397 147.529 28.313 147.39L28 147ZM27.982 146.357C28.1032 146.249 28.2568 146.108 28.4337 145.937C28.8894 145.497 29.497 144.859 30.1037 144.07C31.326 142.481 32.5 140.339 32.5 138C32.5 135.515 30.4853 133.5 28 133.5C25.5147 133.5 23.5 135.515 23.5 138C23.5 140.595 24.6801 142.737 25.8904 144.25C26.4937 145.004 27.0975 145.593 27.5498 145.992C27.7179 146.141 27.8646 146.263 27.982 146.357ZM28 136.5C27.1716 136.5 26.5 137.172 26.5 138C26.5 138.828 27.1716 139.5 28 139.5C28.8284 139.5 29.5 138.828 29.5 138C29.5 137.172 28.8284 136.5 28 136.5ZM25.5 138C25.5 136.619 26.6193 135.5 28 135.5C29.3807 135.5 30.5 136.619 30.5 138C30.5 139.381 29.3807 140.5 28 140.5C26.6193 140.5 25.5 139.381 25.5 138Z" fill="#5F5F6A"/>
</svg>
