<svg width="56" height="168" viewBox="0 0 56 168" fill="none" xmlns="http://www.w3.org/2000/svg">
<path d="M22 18.25C20.4812 18.25 19.25 19.4812 19.25 21V35C19.25 36.5188 20.4812 37.75 22 37.75H29C29.4142 37.75 29.75 37.4142 29.75 37C29.75 36.5858 29.4142 36.25 29 36.25H22C21.3096 36.25 20.75 35.6904 20.75 35V21C20.75 20.3096 21.3096 19.75 22 19.75H32C32.6904 19.75 33.25 20.3096 33.25 21V26.5C33.25 26.9142 33.5858 27.25 34 27.25C34.4142 27.25 34.75 26.9142 34.75 26.5V21C34.75 19.4812 33.5188 18.25 32 18.25H22Z" fill="#5F5F6A"/>
<path d="M23 26.25C22.5858 26.25 22.25 26.5858 22.25 27C22.25 27.4142 22.5858 27.75 23 27.75H23.5C23.9142 27.75 24.25 27.4142 24.25 27C24.25 26.5858 23.9142 26.25 23.5 26.25H23Z" fill="#5F5F6A"/>
<path d="M26 26.25C25.5858 26.25 25.25 26.5858 25.25 27C25.25 27.4142 25.5858 27.75 26 27.75H31C31.4142 27.75 31.75 27.4142 31.75 27C31.75 26.5858 31.4142 26.25 31 26.25H26Z" fill="#5F5F6A"/>
<path d="M23 29.25C22.5858 29.25 22.25 29.5858 22.25 30C22.25 30.4142 22.5858 30.75 23 30.75H23.5C23.9142 30.75 24.25 30.4142 24.25 30C24.25 29.5858 23.9142 29.25 23.5 29.25H23Z" fill="#5F5F6A"/>
<path d="M26 29.25C25.5858 29.25 25.25 29.5858 25.25 30C25.25 30.4142 25.5858 30.75 26 30.75H29.5C29.9142 30.75 30.25 30.4142 30.25 30C30.25 29.5858 29.9142 29.25 29.5 29.25H26Z" fill="#5F5F6A"/>
<path d="M23 32.25C22.5858 32.25 22.25 32.5858 22.25 33C22.25 33.4142 22.5858 33.75 23 33.75H23.5C23.9142 33.75 24.25 33.4142 24.25 33C24.25 32.5858 23.9142 32.25 23.5 32.25H23Z" fill="#5F5F6A"/>
<path d="M26 32.25C25.5858 32.25 25.25 32.5858 25.25 33C25.25 33.4142 25.5858 33.75 26 33.75H28C28.4142 33.75 28.75 33.4142 28.75 33C28.75 32.5858 28.4142 32.25 28 32.25H26Z" fill="#5F5F6A"/>
<g opacity="0.5">
<path d="M22.0761 21.6173C22 21.8011 22 22.0341 22 22.5C22 22.9659 22 23.1989 22.0761 23.3827C22.1776 23.6277 22.3723 23.8224 22.6173 23.9239C22.8011 24 23.0341 24 23.5 24H30.5C30.9659 24 31.1989 24 31.3827 23.9239C31.6277 23.8224 31.8224 23.6277 31.9239 23.3827C32 23.1989 32 22.9659 32 22.5C32 22.0341 32 21.8011 31.9239 21.6173C31.8224 21.3723 31.6277 21.1776 31.3827 21.0761C31.1989 21 30.9659 21 30.5 21H23.5C23.0341 21 22.8011 21 22.6173 21.0761C22.3723 21.1776 22.1776 21.3723 22.0761 21.6173Z" fill="#5F5F6A"/>
<path d="M34.75 30C34.75 29.5858 34.4142 29.25 34 29.25C33.5858 29.25 33.25 29.5858 33.25 30V30.4167H33.1634C32.2059 30.4167 31.25 31.1161 31.25 32.1831C31.25 32.6269 31.3702 33.0354 31.6714 33.3562C31.9487 33.6515 32.3035 33.7872 32.5788 33.8687L34.9973 34.5702C35.0894 34.5975 35.1497 34.6216 35.1897 34.6421C35.2147 34.6549 35.2273 34.6641 35.2324 34.6683L35.2336 34.6716C35.2384 34.6853 35.25 34.7281 35.25 34.8169C35.25 34.8541 35.2344 34.9104 35.1655 34.9706C35.0952 35.032 34.981 35.0833 34.8366 35.0833H33.3313C32.912 35.0833 32.75 34.8086 32.75 34.6667C32.75 34.2525 32.4142 33.9167 32 33.9167C31.5858 33.9167 31.25 34.2525 31.25 34.6667C31.25 35.787 32.2233 36.5437 33.25 36.5818V37C33.25 37.4142 33.5858 37.75 34 37.75C34.4142 37.75 34.75 37.4142 34.75 37V36.5833H34.8366C35.794 36.5833 36.75 35.8839 36.75 34.8169C36.75 34.3731 36.6298 33.9646 36.3286 33.6438C36.0513 33.3485 35.6965 33.2128 35.4212 33.1313L33.0026 32.4298C32.9106 32.4025 32.8503 32.3784 32.8103 32.3579C32.7853 32.3451 32.7727 32.3359 32.7676 32.3317L32.7664 32.3284C32.7616 32.3147 32.75 32.2719 32.75 32.1831C32.75 32.1459 32.7656 32.0896 32.8345 32.0294C32.9048 31.968 33.019 31.9167 33.1634 31.9167H34.6687C35.088 31.9167 35.25 32.1914 35.25 32.3333C35.25 32.7475 35.5858 33.0833 36 33.0833C36.4142 33.0833 36.75 32.7475 36.75 32.3333C36.75 31.213 35.7767 30.4563 34.75 30.4182V30Z" fill="#5F5F6A"/>
</g>
<path d="M19.25 77C19.25 75.4812 20.4812 74.25 22 74.25H32C33.5188 74.25 34.75 75.4812 34.75 77V82.5C34.75 82.9142 34.4142 83.25 34 83.25C33.5858 83.25 33.25 82.9142 33.25 82.5V77C33.25 76.3096 32.6904 75.75 32 75.75H22C21.3096 75.75 20.75 76.3096 20.75 77V91C20.75 91.6904 21.3096 92.25 22 92.25H29.5C29.9142 92.25 30.25 92.5858 30.25 93C30.25 93.4142 29.9142 93.75 29.5 93.75H22C20.4812 93.75 19.25 92.5188 19.25 91V77Z" fill="#5F5F6A"/>
<path d="M34 85.25C34.4142 85.25 34.75 85.5858 34.75 86V86.4182C35.7767 86.4563 36.75 87.213 36.75 88.3333C36.75 88.7475 36.4142 89.0833 36 89.0833C35.5858 89.0833 35.25 88.7475 35.25 88.3333C35.25 88.1914 35.088 87.9167 34.6687 87.9167H33.1634C33.019 87.9167 32.9048 87.968 32.8345 88.0294C32.7656 88.0896 32.75 88.1459 32.75 88.1831C32.75 88.2719 32.7616 88.3147 32.7664 88.3284C32.7668 88.3298 32.7672 88.3309 32.7676 88.3317C32.7727 88.3359 32.7853 88.3451 32.8103 88.3579C32.8503 88.3784 32.9106 88.4025 33.0026 88.4298L35.4212 89.1313C35.6965 89.2128 36.0513 89.3485 36.3286 89.6438C36.6298 89.9646 36.75 90.3731 36.75 90.8169C36.75 91.8839 35.794 92.5833 34.8366 92.5833H34.75V93C34.75 93.4142 34.4142 93.75 34 93.75C33.5858 93.75 33.25 93.4142 33.25 93V92.5818C32.2233 92.5437 31.25 91.787 31.25 90.6667C31.25 90.2525 31.5858 89.9167 32 89.9167C32.4142 89.9167 32.75 90.2525 32.75 90.6667C32.75 90.8086 32.912 91.0833 33.3313 91.0833H34.8366C34.981 91.0833 35.0952 91.032 35.1655 90.9706C35.2344 90.9104 35.25 90.8541 35.25 90.8169C35.25 90.7281 35.2384 90.6853 35.2336 90.6716C35.2332 90.6702 35.2328 90.6691 35.2324 90.6683C35.2273 90.6641 35.2147 90.6549 35.1897 90.6421C35.1497 90.6216 35.0894 90.5975 34.9973 90.5702L32.5788 89.8687C32.3035 89.7872 31.9487 89.6515 31.6714 89.3562C31.3702 89.0354 31.25 88.6269 31.25 88.1831C31.25 87.1161 32.2059 86.4167 33.1634 86.4167H33.25V86C33.25 85.5858 33.5858 85.25 34 85.25Z" fill="#5F5F6A"/>
<path d="M22.25 83C22.25 82.5858 22.5858 82.25 23 82.25H23.5C23.9142 82.25 24.25 82.5858 24.25 83C24.25 83.4142 23.9142 83.75 23.5 83.75H23C22.5858 83.75 22.25 83.4142 22.25 83ZM25.25 83C25.25 82.5858 25.5858 82.25 26 82.25H31C31.4142 82.25 31.75 82.5858 31.75 83C31.75 83.4142 31.4142 83.75 31 83.75H26C25.5858 83.75 25.25 83.4142 25.25 83ZM22.25 86C22.25 85.5858 22.5858 85.25 23 85.25H23.5C23.9142 85.25 24.25 85.5858 24.25 86C24.25 86.4142 23.9142 86.75 23.5 86.75H23C22.5858 86.75 22.25 86.4142 22.25 86ZM25.25 86C25.25 85.5858 25.5858 85.25 26 85.25H29.5C29.9142 85.25 30.25 85.5858 30.25 86C30.25 86.4142 29.9142 86.75 29.5 86.75H26C25.5858 86.75 25.25 86.4142 25.25 86ZM22.25 89C22.25 88.5858 22.5858 88.25 23 88.25H23.5C23.9142 88.25 24.25 88.5858 24.25 89C24.25 89.4142 23.9142 89.75 23.5 89.75H23C22.5858 89.75 22.25 89.4142 22.25 89ZM25.25 89C25.25 88.5858 25.5858 88.25 26 88.25H28C28.4142 88.25 28.75 88.5858 28.75 89C28.75 89.4142 28.4142 89.75 28 89.75H26C25.5858 89.75 25.25 89.4142 25.25 89Z" fill="#5F5F6A"/>
<path d="M22 78.5C22 78.0341 22 77.8011 22.0761 77.6173C22.1776 77.3723 22.3723 77.1776 22.6173 77.0761C22.8011 77 23.0341 77 23.5 77H30.5C30.9659 77 31.1989 77 31.3827 77.0761C31.6277 77.1776 31.8224 77.3723 31.9239 77.6173C32 77.8011 32 78.0341 32 78.5C32 78.9659 32 79.1989 31.9239 79.3827C31.8224 79.6277 31.6277 79.8224 31.3827 79.9239C31.1989 80 30.9659 80 30.5 80H23.5C23.0341 80 22.8011 80 22.6173 79.9239C22.3723 79.8224 22.1776 79.6277 22.0761 79.3827C22 79.1989 22 78.9659 22 78.5Z" fill="#5F5F6A"/>
<path d="M19.5 133C19.5 131.619 20.6193 130.5 22 130.5H32C33.3807 130.5 34.5 131.619 34.5 133V138.5C34.5 138.776 34.2761 139 34 139C33.7239 139 33.5 138.776 33.5 138.5V133C33.5 132.172 32.8284 131.5 32 131.5H22C21.1716 131.5 20.5 132.172 20.5 133V147C20.5 147.828 21.1716 148.5 22 148.5H29C29.2761 148.5 29.5 148.724 29.5 149C29.5 149.276 29.2761 149.5 29 149.5H22C20.6193 149.5 19.5 148.381 19.5 147V133Z" fill="#5F5F6A"/>
<path d="M34 141.5C34.2761 141.5 34.5 141.724 34.5 142V142.667H34.6687C35.6185 142.667 36.5 143.351 36.5 144.333C36.5 144.609 36.2761 144.833 36 144.833C35.7239 144.833 35.5 144.609 35.5 144.333C35.5 144.023 35.1941 143.667 34.6687 143.667H33.1634C32.7323 143.667 32.5 143.96 32.5 144.183C32.5 144.396 32.5523 144.468 32.5827 144.501C32.6288 144.55 32.7219 144.607 32.9323 144.67L35.3503 145.371C35.6128 145.449 35.9153 145.569 36.1464 145.815C36.3934 146.078 36.5 146.419 36.5 146.817C36.5 147.715 35.6888 148.333 34.8366 148.333H34.5V149C34.5 149.276 34.2761 149.5 34 149.5C33.7239 149.5 33.5 149.276 33.5 149V148.333H33.3313C32.3815 148.333 31.5 147.649 31.5 146.667C31.5 146.391 31.7239 146.167 32 146.167C32.2761 146.167 32.5 146.391 32.5 146.667C32.5 146.977 32.8059 147.333 33.3313 147.333H34.8366C35.2677 147.333 35.5 147.04 35.5 146.817C35.5 146.604 35.4477 146.532 35.4173 146.499C35.3712 146.45 35.2781 146.393 35.0677 146.33L35.0665 146.33L32.6497 145.629C32.3872 145.551 32.0847 145.431 31.8536 145.185C31.6066 144.922 31.5 144.581 31.5 144.183C31.5 143.285 32.3112 142.667 33.1634 142.667H33.5V142C33.5 141.724 33.7239 141.5 34 141.5Z" fill="#5F5F6A"/>
<path d="M22.5 139C22.5 138.724 22.7239 138.5 23 138.5H23.5C23.7761 138.5 24 138.724 24 139C24 139.276 23.7761 139.5 23.5 139.5H23C22.7239 139.5 22.5 139.276 22.5 139ZM25.5 139C25.5 138.724 25.7239 138.5 26 138.5H31C31.2761 138.5 31.5 138.724 31.5 139C31.5 139.276 31.2761 139.5 31 139.5H26C25.7239 139.5 25.5 139.276 25.5 139ZM22.5 142C22.5 141.724 22.7239 141.5 23 141.5H23.5C23.7761 141.5 24 141.724 24 142C24 142.276 23.7761 142.5 23.5 142.5H23C22.7239 142.5 22.5 142.276 22.5 142ZM25.5 142C25.5 141.724 25.7239 141.5 26 141.5H29.5C29.7761 141.5 30 141.724 30 142C30 142.276 29.7761 142.5 29.5 142.5H26C25.7239 142.5 25.5 142.276 25.5 142ZM22.5 145C22.5 144.724 22.7239 144.5 23 144.5H23.5C23.7761 144.5 24 144.724 24 145C24 145.276 23.7761 145.5 23.5 145.5H23C22.7239 145.5 22.5 145.276 22.5 145ZM25.5 145C25.5 144.724 25.7239 144.5 26 144.5H28C28.2761 144.5 28.5 144.724 28.5 145C28.5 145.276 28.2761 145.5 28 145.5H26C25.7239 145.5 25.5 145.276 25.5 145Z" fill="#5F5F6A"/>
<path d="M22.7841 132.5C22.7894 132.5 22.7947 132.5 22.8 132.5L31.216 132.5C31.3421 132.5 31.465 132.5 31.5691 132.508C31.6834 132.518 31.8183 132.54 31.954 132.609C32.1422 132.705 32.2951 132.858 32.391 133.046C32.4602 133.182 32.4822 133.317 32.4915 133.431C32.5 133.535 32.5 133.658 32.5 133.784V135.216C32.5 135.342 32.5 135.465 32.4915 135.569C32.4822 135.683 32.4602 135.818 32.391 135.954C32.2951 136.142 32.1422 136.295 31.954 136.391C31.8183 136.46 31.6834 136.482 31.5691 136.492C31.465 136.5 31.3421 136.5 31.216 136.5L22.8 136.5C22.7947 136.5 22.7894 136.5 22.7841 136.5C22.6579 136.5 22.535 136.5 22.4309 136.492C22.3166 136.482 22.1817 136.46 22.046 136.391C21.8578 136.295 21.7049 136.142 21.609 135.954C21.5398 135.818 21.5178 135.683 21.5085 135.569C21.5 135.465 21.5 135.342 21.5 135.216C21.5 135.211 21.5 135.205 21.5 135.2V133.8C21.5 133.795 21.5 133.789 21.5 133.784C21.5 133.658 21.5 133.535 21.5085 133.431C21.5178 133.317 21.5398 133.182 21.609 133.046C21.7049 132.858 21.8578 132.705 22.046 132.609C22.1817 132.54 22.3166 132.518 22.4309 132.508C22.535 132.5 22.6579 132.5 22.7841 132.5ZM22.5057 133.506C22.5055 133.508 22.5053 133.51 22.5052 133.512C22.5004 133.571 22.5 133.652 22.5 133.8V135.2C22.5 135.348 22.5004 135.429 22.5052 135.488C22.5053 135.49 22.5055 135.492 22.5057 135.494C22.5078 135.494 22.51 135.495 22.5123 135.495C22.5706 135.5 22.6517 135.5 22.8 135.5H31.2C31.3483 135.5 31.4294 135.5 31.4877 135.495C31.49 135.495 31.4922 135.494 31.4943 135.494C31.4945 135.492 31.4947 135.49 31.4948 135.488C31.4996 135.429 31.5 135.348 31.5 135.2V133.8C31.5 133.652 31.4996 133.571 31.4948 133.512C31.4947 133.51 31.4945 133.508 31.4943 133.506C31.4922 133.506 31.49 133.505 31.4877 133.505C31.4294 133.5 31.3483 133.5 31.2 133.5H22.8C22.6517 133.5 22.5706 133.5 22.5123 133.505C22.51 133.505 22.5078 133.506 22.5057 133.506Z" fill="#5F5F6A"/>
</svg>
