<svg width="56" height="224" viewBox="0 0 56 224" fill="none" xmlns="http://www.w3.org/2000/svg">
<path d="M26.0097 21.8873C24.343 20.9151 22.25 22.1173 22.25 24.0468V31.9532C22.25 33.8826 24.343 35.0848 26.0097 34.1126L32.7866 30.1594C34.4403 29.1947 34.4403 26.8052 32.7866 25.8405L26.0097 21.8873Z" fill="#5F5F6A"/>
<path d="M22.25 80.0468C22.25 78.1173 24.343 76.9152 26.0097 77.8874L32.7866 81.8405C34.4403 82.8052 34.4403 85.1947 32.7866 86.1594L26.0097 90.1126C24.343 91.0848 22.25 89.8827 22.25 87.9532V80.0468ZM25.2539 79.183C24.5872 78.7941 23.75 79.275 23.75 80.0468V87.9532C23.75 88.725 24.5872 89.2058 25.2539 88.817L32.0308 84.8638C32.6923 84.4779 32.6923 83.5221 32.0308 83.1362L25.2539 79.183Z" fill="#5F5F6A"/>
<path opacity="0.5" d="M23.75 80.0468C23.75 79.275 24.5872 78.7941 25.2539 79.183L32.0308 83.1362C32.6923 83.5221 32.6923 84.4779 32.0308 84.8638L25.2539 88.8169C24.5872 89.2058 23.75 88.725 23.75 87.9532V80.0468Z" fill="#5F5F6A"/>
<path d="M22.25 136.047C22.25 134.117 24.343 132.915 26.0097 133.887L32.7866 137.841C34.4403 138.805 34.4403 141.195 32.7866 142.159L26.0097 146.113C24.343 147.085 22.25 145.883 22.25 143.953V136.047ZM25.2539 135.183C24.5872 134.794 23.75 135.275 23.75 136.047V143.953C23.75 144.725 24.5872 145.206 25.2539 144.817L32.0308 140.864C32.6923 140.478 32.6923 139.522 32.0308 139.136L25.2539 135.183Z" fill="#5F5F6A"/>
<path d="M22.5 192.047C22.5 190.31 24.3837 189.228 25.8837 190.103L32.6606 194.057C34.149 194.925 34.149 197.075 32.6606 197.944L25.8837 201.897C24.3837 202.772 22.5 201.69 22.5 199.953V192.047ZM25.3798 190.967C24.5465 190.481 23.5 191.082 23.5 192.047V199.953C23.5 200.918 24.5465 201.519 25.3798 201.033L32.1567 197.08C32.9836 196.597 32.9836 195.403 32.1567 194.92L25.3798 190.967Z" fill="#5F5F6A"/>
</svg>
