<svg width="56" height="224" viewBox="0 0 56 224" fill="none" xmlns="http://www.w3.org/2000/svg">
<path fill-rule="evenodd" clip-rule="evenodd" d="M32.5648 20.25H23.4339C22.6211 20.25 21.9655 20.25 21.4345 20.2934C20.8879 20.338 20.4078 20.4324 19.9636 20.6587C19.2579 21.0183 18.6843 21.5919 18.3247 22.2975C18.0984 22.7418 18.004 23.2219 17.9594 23.7685C17.916 24.2994 17.916 24.9551 17.916 25.7679V30.2321C17.916 31.0449 17.916 31.7006 17.9594 32.2315C18.004 32.7781 18.0984 33.2582 18.3247 33.7025C18.6843 34.4081 19.2579 34.9817 19.9636 35.3413C20.4078 35.5676 20.8879 35.662 21.4345 35.7066C21.9655 35.75 22.6211 35.75 23.4339 35.75H32.5648C33.3776 35.75 34.0332 35.75 34.5641 35.7066C35.1108 35.662 35.5909 35.5676 36.0351 35.3413C36.7408 34.9817 37.3144 34.4081 37.674 33.7025C37.9003 33.2582 37.9947 32.7781 38.0393 32.2315C38.0827 31.7006 38.0827 31.045 38.0827 30.2321V25.7679C38.0827 24.955 38.0827 24.2994 38.0393 23.7685C37.9947 23.2219 37.9003 22.7418 37.674 22.2975C37.3144 21.5919 36.7408 21.0183 36.0351 20.6587C35.5909 20.4324 35.1108 20.338 34.5641 20.2934C34.0332 20.25 33.3776 20.25 32.5648 20.25ZM26.0135 25.8963C26.0135 25.51 26.4348 25.2715 26.766 25.4702L30.2722 27.5739C30.5939 27.7669 30.5939 28.2331 30.2722 28.4261L26.766 30.5298C26.4348 30.7285 26.0135 30.49 26.0135 30.1037V25.8963Z" fill="#5F5F6A"/>
<path opacity="0.5" fill-rule="evenodd" clip-rule="evenodd" d="M20.6445 77.9952C20.8421 77.8946 21.1028 77.8255 21.5567 77.7884C22.0193 77.7506 22.6136 77.75 23.466 77.75H32.5327C33.3851 77.75 33.9794 77.7506 34.442 77.7884C34.8959 77.8255 35.1566 77.8946 35.3542 77.9952C35.7775 78.211 36.1217 78.5552 36.3374 78.9785C36.4381 79.176 36.5072 79.4368 36.5443 79.8907C36.5821 80.3533 36.5827 80.9475 36.5827 81.8V86.2C36.5827 87.0525 36.5821 87.6467 36.5443 88.1093C36.5072 88.5632 36.4381 88.824 36.3374 89.0215C36.1217 89.4448 35.7775 89.789 35.3542 90.0048C35.1566 90.1054 34.8959 90.1745 34.442 90.2116C33.9794 90.2494 33.3851 90.25 32.5327 90.25H23.466C22.6136 90.25 22.0193 90.2494 21.5567 90.2116C21.1028 90.1745 20.8421 90.1054 20.6445 90.0048C20.2212 89.789 19.877 89.4448 19.6613 89.0215C19.5606 88.824 19.4915 88.5632 19.4544 88.1093C19.4166 87.6467 19.416 87.0525 19.416 86.2V81.8C19.416 80.9475 19.4166 80.3533 19.4544 79.8907C19.4915 79.4368 19.5606 79.176 19.6613 78.9785C19.877 78.5552 20.2212 78.211 20.6445 77.9952ZM27.5377 80.184C26.2068 79.3854 24.5135 80.3441 24.5135 81.8963V86.1037C24.5135 87.6559 26.2068 88.6147 27.5377 87.8161L31.044 85.7123C32.3366 84.9367 32.3366 83.0633 31.044 82.2877L27.5377 80.184Z" fill="#5F5F6A"/>
<path fill-rule="evenodd" clip-rule="evenodd" d="M21.5567 77.7884C21.1028 77.8255 20.8421 77.8946 20.6445 77.9952C20.2212 78.211 19.877 78.5552 19.6613 78.9785C19.5606 79.176 19.4915 79.4368 19.4544 79.8907C19.4166 80.3533 19.416 80.9475 19.416 81.8V86.2C19.416 87.0525 19.4166 87.6467 19.4544 88.1093C19.4915 88.5632 19.5606 88.824 19.6613 89.0215C19.877 89.4448 20.2212 89.7891 20.6445 90.0048C20.8421 90.1054 21.1028 90.1745 21.5567 90.2116C22.0193 90.2494 22.6136 90.25 23.466 90.25H32.5327C33.3851 90.25 33.9794 90.2494 34.442 90.2116C34.8959 90.1745 35.1566 90.1054 35.3542 90.0048C35.7775 89.7891 36.1217 89.4448 36.3374 89.0215C36.4381 88.824 36.5072 88.5632 36.5443 88.1093C36.5821 87.6467 36.5827 87.0525 36.5827 86.2V81.8C36.5827 80.9475 36.5821 80.3533 36.5443 79.8907C36.5072 79.4368 36.4381 79.176 36.3374 78.9785C36.1217 78.5552 35.7775 78.211 35.3542 77.9952C35.1566 77.8946 34.8959 77.8255 34.442 77.7884C33.9794 77.7506 33.3851 77.75 32.5327 77.75H23.466C22.6136 77.75 22.0193 77.7506 21.5567 77.7884ZM23.4339 76.25H32.5648C33.3776 76.25 34.0332 76.25 34.5641 76.2934C35.1108 76.338 35.5909 76.4324 36.0351 76.6587C36.7408 77.0183 37.3144 77.5919 37.674 78.2975C37.9003 78.7418 37.9947 79.2219 38.0393 79.7685C38.0827 80.2994 38.0827 80.955 38.0827 81.7679V86.2321C38.0827 87.045 38.0827 87.7006 38.0393 88.2315C37.9947 88.7781 37.9003 89.2582 37.674 89.7025C37.3144 90.4081 36.7408 90.9817 36.0351 91.3413C35.5909 91.5676 35.1108 91.662 34.5641 91.7066C34.0332 91.75 33.3776 91.75 32.5648 91.75H23.4339C22.6211 91.75 21.9655 91.75 21.4345 91.7066C20.8879 91.662 20.4078 91.5676 19.9636 91.3413C19.2579 90.9817 18.6843 90.4081 18.3247 89.7025C18.0984 89.2582 18.004 88.7781 17.9594 88.2315C17.916 87.7006 17.916 87.0449 17.916 86.2321V81.7679C17.916 80.9551 17.916 80.2994 17.9594 79.7685C18.004 79.2219 18.0984 78.7418 18.3247 78.2975C18.6843 77.5919 19.2579 77.0183 19.9636 76.6587C20.4078 76.4324 20.8879 76.338 21.4345 76.2934C21.9655 76.25 22.6211 76.25 23.4339 76.25ZM24.5135 81.8963C24.5135 80.3441 26.2068 79.3854 27.5377 80.184L31.044 82.2877C32.3366 83.0633 32.3366 84.9367 31.044 85.7123L27.5377 87.8161C26.2068 88.6147 24.5135 87.6559 24.5135 86.1037V81.8963ZM26.766 81.4702C26.4348 81.2715 26.0135 81.51 26.0135 81.8963V86.1037C26.0135 86.49 26.4348 86.7285 26.766 86.5298L30.2722 84.4261C30.5939 84.2331 30.5939 83.7669 30.2722 83.5739L26.766 81.4702Z" fill="#5F5F6A"/>
<path fill-rule="evenodd" clip-rule="evenodd" d="M21.5567 133.788C21.1028 133.825 20.8421 133.895 20.6445 133.995C20.2212 134.211 19.877 134.555 19.6613 134.979C19.5606 135.176 19.4915 135.437 19.4544 135.891C19.4166 136.353 19.416 136.948 19.416 137.8V142.2C19.416 143.052 19.4166 143.647 19.4544 144.109C19.4915 144.563 19.5606 144.824 19.6613 145.021C19.877 145.445 20.2212 145.789 20.6445 146.005C20.8421 146.105 21.1028 146.175 21.5567 146.212C22.0193 146.249 22.6136 146.25 23.466 146.25H32.5327C33.3851 146.25 33.9794 146.249 34.442 146.212C34.8959 146.175 35.1566 146.105 35.3542 146.005C35.7775 145.789 36.1217 145.445 36.3374 145.021C36.4381 144.824 36.5072 144.563 36.5443 144.109C36.5821 143.647 36.5827 143.052 36.5827 142.2V137.8C36.5827 136.948 36.5821 136.353 36.5443 135.891C36.5072 135.437 36.4381 135.176 36.3374 134.979C36.1217 134.555 35.7775 134.211 35.3542 133.995C35.1566 133.895 34.8959 133.825 34.442 133.788C33.9794 133.751 33.3851 133.75 32.5327 133.75H23.466C22.6136 133.75 22.0193 133.751 21.5567 133.788ZM23.4339 132.25H32.5648C33.3776 132.25 34.0332 132.25 34.5641 132.293C35.1108 132.338 35.5909 132.432 36.0351 132.659C36.7408 133.018 37.3144 133.592 37.674 134.298C37.9003 134.742 37.9947 135.222 38.0393 135.769C38.0827 136.299 38.0827 136.955 38.0827 137.768V142.232C38.0827 143.045 38.0827 143.701 38.0393 144.231C37.9947 144.778 37.9003 145.258 37.674 145.702C37.3144 146.408 36.7408 146.982 36.0351 147.341C35.5909 147.568 35.1108 147.662 34.5641 147.707C34.0332 147.75 33.3776 147.75 32.5648 147.75H23.4339C22.6211 147.75 21.9655 147.75 21.4345 147.707C20.8879 147.662 20.4078 147.568 19.9636 147.341C19.2579 146.982 18.6843 146.408 18.3247 145.702C18.0984 145.258 18.004 144.778 17.9594 144.231C17.916 143.701 17.916 143.045 17.916 142.232V137.768C17.916 136.955 17.916 136.299 17.9594 135.769C18.004 135.222 18.0984 134.742 18.3247 134.298C18.6843 133.592 19.2579 133.018 19.9636 132.659C20.4078 132.432 20.8879 132.338 21.4345 132.293C21.9655 132.25 22.6211 132.25 23.4339 132.25ZM24.5135 137.896C24.5135 136.344 26.2068 135.385 27.5377 136.184L31.044 138.288C32.3366 139.063 32.3366 140.937 31.044 141.712L27.5377 143.816C26.2068 144.615 24.5135 143.656 24.5135 142.104V137.896ZM26.766 137.47C26.4348 137.271 26.0135 137.51 26.0135 137.896V142.104C26.0135 142.49 26.4348 142.729 26.766 142.53L30.2722 140.426C30.5939 140.233 30.5939 139.767 30.2722 139.574L26.766 137.47Z" fill="#5F5F6A"/>
<path fill-rule="evenodd" clip-rule="evenodd" d="M21.5363 189.539C21.067 189.578 20.7697 189.651 20.531 189.772C20.0606 190.012 19.6782 190.395 19.4385 190.865C19.3169 191.104 19.2436 191.401 19.2052 191.87C19.1664 192.345 19.166 192.952 19.166 193.8V198.2C19.166 199.048 19.1664 199.655 19.2052 200.13C19.2436 200.599 19.3169 200.896 19.4385 201.135C19.6782 201.605 20.0606 201.988 20.531 202.228C20.7697 202.349 21.067 202.422 21.5363 202.461C22.0115 202.5 22.6177 202.5 23.466 202.5H32.5327C33.381 202.5 33.9872 202.5 34.4624 202.461C34.9317 202.422 35.229 202.349 35.4677 202.228C35.9381 201.988 36.3205 201.605 36.5602 201.135C36.6818 200.896 36.7551 200.599 36.7935 200.13C36.8323 199.655 36.8327 199.048 36.8327 198.2V193.8C36.8327 192.952 36.8323 192.345 36.7935 191.87C36.7551 191.401 36.6818 191.104 36.5602 190.865C36.3205 190.395 35.9381 190.012 35.4677 189.772C35.229 189.651 34.9317 189.578 34.4624 189.539C33.9872 189.5 33.381 189.5 32.5327 189.5H23.466C22.6177 189.5 22.0115 189.5 21.5363 189.539ZM23.4438 188.5H32.5549C33.3762 188.5 34.0231 188.5 34.5438 188.543C35.075 188.586 35.5185 188.676 35.9216 188.881C36.5802 189.217 37.1156 189.752 37.4512 190.411C37.6566 190.814 37.7467 191.258 37.7901 191.789C37.8327 192.31 37.8327 192.957 37.8327 193.778V198.222C37.8327 199.043 37.8327 199.69 37.7901 200.211C37.7467 200.742 37.6566 201.186 37.4512 201.589C37.1156 202.248 36.5802 202.783 35.9216 203.119C35.5185 203.324 35.075 203.414 34.5438 203.457C34.0231 203.5 33.3762 203.5 32.5549 203.5H23.4438C22.6225 203.5 21.9756 203.5 21.4549 203.457C20.9237 203.414 20.4802 203.324 20.077 203.119C19.4185 202.783 18.883 202.248 18.5475 201.589C18.3421 201.186 18.2519 200.742 18.2085 200.211C18.166 199.69 18.166 199.043 18.166 198.222V193.778C18.166 192.957 18.166 192.31 18.2085 191.789C18.2519 191.258 18.3421 190.814 18.5475 190.411C18.883 189.752 19.4185 189.217 20.077 188.881C20.4802 188.676 20.9237 188.586 21.4549 188.543C21.9756 188.5 22.6225 188.5 23.4438 188.5ZM24.7635 193.896C24.7635 192.538 26.2448 191.7 27.4091 192.398L30.9153 194.502C32.0462 195.181 32.0462 196.819 30.9153 197.498L27.4091 199.602C26.2448 200.3 24.7635 199.462 24.7635 198.104V193.896ZM26.8946 193.256C26.3968 192.957 25.7635 193.316 25.7635 193.896V198.104C25.7635 198.684 26.3968 199.043 26.8946 198.744L30.4008 196.64C30.8843 196.35 30.8843 195.65 30.4008 195.36L26.8946 193.256Z" fill="#5F5F6A"/>
</svg>
