<svg width="56" height="224" viewBox="0 0 56 224" fill="none" xmlns="http://www.w3.org/2000/svg">
<path d="M28 20.75C28.6904 20.75 29.25 21.3096 29.25 22V26.75H34C34.6904 26.75 35.25 27.3096 35.25 28C35.25 28.6904 34.6904 29.25 34 29.25H29.25V34C29.25 34.6904 28.6904 35.25 28 35.25C27.3096 35.25 26.75 34.6904 26.75 34V29.25H22C21.3096 29.25 20.75 28.6904 20.75 28C20.75 27.3096 21.3096 26.75 22 26.75H26.75V22C26.75 21.3096 27.3096 20.75 28 20.75Z" fill="#5F5F6A"/>
<path d="M28 77C28.5523 77 29 77.4477 29 78V83H34C34.5523 83 35 83.4477 35 84C35 84.5523 34.5523 85 34 85H29V90C29 90.5523 28.5523 91 28 91C27.4477 91 27 90.5523 27 90V85H22C21.4477 85 21 84.5523 21 84C21 83.4477 21.4477 83 22 83H27V78C27 77.4477 27.4477 77 28 77Z" fill="#5F5F6A"/>
<path d="M28 133.25C28.4142 133.25 28.75 133.586 28.75 134V139.25H34C34.4142 139.25 34.75 139.586 34.75 140C34.75 140.414 34.4142 140.75 34 140.75H28.75V146C28.75 146.414 28.4142 146.75 28 146.75C27.5858 146.75 27.25 146.414 27.25 146V140.75H22C21.5858 140.75 21.25 140.414 21.25 140C21.25 139.586 21.5858 139.25 22 139.25H27.25V134C27.25 133.586 27.5858 133.25 28 133.25Z" fill="#5F5F6A"/>
<path d="M28 189.5C28.2761 189.5 28.5 189.724 28.5 190V195.5H34C34.2761 195.5 34.5 195.724 34.5 196C34.5 196.276 34.2761 196.5 34 196.5H28.5V202C28.5 202.276 28.2761 202.5 28 202.5C27.7239 202.5 27.5 202.276 27.5 202V196.5H22C21.7239 196.5 21.5 196.276 21.5 196C21.5 195.724 21.7239 195.5 22 195.5H27.5V190C27.5 189.724 27.7239 189.5 28 189.5Z" fill="#5F5F6A"/>
</svg>
