<svg width="56" height="224" viewBox="0 0 56 224" fill="none" xmlns="http://www.w3.org/2000/svg">
<path d="M28 17.25C26.0716 17.25 24.1866 17.8218 22.5832 18.8932C20.9798 19.9645 19.7301 21.4873 18.9922 23.2688C18.2542 25.0504 18.0611 27.0108 18.4373 28.9021C18.8136 30.7934 19.7422 32.5307 21.1057 33.8943C21.3986 34.1872 21.8735 34.1872 22.1664 33.8943C22.4593 33.6014 22.4593 33.1265 22.1664 32.8336C21.0126 31.6798 20.2269 30.2098 19.9085 28.6095C19.5902 27.0092 19.7536 25.3504 20.378 23.8429C21.0024 22.3354 22.0598 21.0469 23.4166 20.1404C24.7733 19.2339 26.3683 18.75 28 18.75C29.6317 18.75 31.2268 19.2339 32.5835 20.1404C33.9402 21.0469 34.9976 22.3354 35.622 23.8429C36.2464 25.3504 36.4098 27.0092 36.0915 28.6095C35.7732 30.2098 34.9874 31.6798 33.8336 32.8336C33.5407 33.1265 33.5407 33.6014 33.8336 33.8943C34.1265 34.1872 34.6014 34.1872 34.8943 33.8943C36.2579 32.5307 37.1865 30.7934 37.5627 28.9021C37.9389 27.0108 37.7458 25.0504 37.0078 23.2688C36.2699 21.4873 35.0202 19.9645 33.4168 18.8932C31.8134 17.8218 29.9284 17.25 28 17.25Z" fill="#5F5F6A"/>
<path d="M28 21.25C26.9907 21.25 25.9991 21.5157 25.125 22.0204C24.2509 22.525 23.525 23.2509 23.0204 24.125C22.5157 24.9991 22.25 25.9907 22.25 27C22.25 28.0093 22.5157 29.0009 23.0204 29.875C23.2275 30.2337 23.6862 30.3566 24.0449 30.1495C24.4036 29.9424 24.5265 29.4837 24.3194 29.125C23.9464 28.4789 23.75 27.746 23.75 27C23.75 26.254 23.9464 25.5211 24.3194 24.875C24.6924 24.2289 25.2289 23.6924 25.875 23.3194C26.5211 22.9464 27.254 22.75 28 22.75C28.746 22.75 29.4789 22.9464 30.125 23.3194C30.7711 23.6924 31.3076 24.2289 31.6806 24.875C32.0536 25.5211 32.25 26.254 32.25 27C32.25 27.746 32.0536 28.4789 31.6806 29.125C31.4735 29.4837 31.5964 29.9424 31.9551 30.1495C32.3139 30.3566 32.7725 30.2337 32.9797 29.875C33.4843 29.0009 33.75 28.0093 33.75 27C33.75 25.9907 33.4843 24.9991 32.9797 24.125C32.475 23.2509 31.7491 22.525 30.875 22.0204C30.0009 21.5157 29.0093 21.25 28 21.25Z" fill="#5F5F6A"/>
<path d="M28 24.75C26.7574 24.75 25.75 25.7574 25.75 27C25.75 28.2426 26.7574 29.25 28 29.25C29.2426 29.25 30.25 28.2426 30.25 27C30.25 25.7574 29.2426 24.75 28 24.75Z" fill="#5F5F6A"/>
<path d="M28 30.25C26.7574 30.25 25.75 31.2574 25.75 32.5L25.75 36.5C25.75 37.7426 26.7574 38.75 28 38.75C29.2426 38.75 30.25 37.7426 30.25 36.5L30.25 32.5C30.25 31.2574 29.2426 30.25 28 30.25Z" fill="#5F5F6A"/>
<path fill-rule="evenodd" clip-rule="evenodd" d="M22.5832 74.8932C24.1866 73.8218 26.0716 73.25 28 73.25C29.9284 73.25 31.8134 73.8218 33.4168 74.8932C35.0202 75.9645 36.2699 77.4873 37.0078 79.2688C37.7458 81.0504 37.9389 83.0108 37.5627 84.9021C37.1865 86.7934 36.2579 88.5307 34.8943 89.8943C34.6014 90.1872 34.1265 90.1872 33.8336 89.8943C33.5407 89.6014 33.5407 89.1265 33.8336 88.8336C34.9874 87.6798 35.7732 86.2098 36.0915 84.6095C36.4098 83.0092 36.2464 81.3504 35.622 79.8429C34.9976 78.3354 33.9402 77.0469 32.5835 76.1404C31.2268 75.2339 29.6317 74.75 28 74.75C26.3683 74.75 24.7733 75.2339 23.4166 76.1404C22.0598 77.0469 21.0024 78.3354 20.378 79.8429C19.7536 81.3504 19.5902 83.0092 19.9085 84.6095C20.2269 86.2098 21.0126 87.6798 22.1664 88.8336C22.4593 89.1265 22.4593 89.6014 22.1664 89.8943C21.8735 90.1872 21.3986 90.1872 21.1057 89.8943C19.7422 88.5307 18.8136 86.7934 18.4373 84.9021C18.0611 83.0108 18.2542 81.0504 18.9922 79.2688C19.7301 77.4873 20.9798 75.9645 22.5832 74.8932ZM25.125 78.0204C25.9991 77.5157 26.9907 77.25 28 77.25C29.0093 77.25 30.0009 77.5157 30.875 78.0204C31.7491 78.525 32.475 79.2509 32.9797 80.125C33.4843 80.9991 33.75 81.9907 33.75 83C33.75 84.0093 33.4843 85.0009 32.9797 85.875C32.7725 86.2337 32.3139 86.3566 31.9551 86.1495C31.5964 85.9424 31.4735 85.4837 31.6806 85.125C32.0536 84.4789 32.25 83.746 32.25 83C32.25 82.254 32.0536 81.5211 31.6806 80.875C31.3076 80.2289 30.7711 79.6924 30.125 79.3194C29.4789 78.9464 28.746 78.75 28 78.75C27.254 78.75 26.5211 78.9464 25.875 79.3194C25.2289 79.6924 24.6924 80.2289 24.3194 80.875C23.9464 81.5211 23.75 82.254 23.75 83C23.75 83.746 23.9464 84.4789 24.3194 85.125C24.5265 85.4837 24.4036 85.9424 24.0449 86.1495C23.6862 86.3566 23.2275 86.2337 23.0204 85.875C22.5157 85.0009 22.25 84.0093 22.25 83C22.25 81.9907 22.5157 80.9991 23.0204 80.125C23.525 79.2509 24.2509 78.525 25.125 78.0204ZM28 82.25C27.5858 82.25 27.25 82.5858 27.25 83C27.25 83.4142 27.5858 83.75 28 83.75C28.4142 83.75 28.75 83.4142 28.75 83C28.75 82.5858 28.4142 82.25 28 82.25ZM25.75 83C25.75 81.7574 26.7574 80.75 28 80.75C29.2426 80.75 30.25 81.7574 30.25 83C30.25 84.2426 29.2426 85.25 28 85.25C26.7574 85.25 25.75 84.2426 25.75 83ZM28 87.75C27.5858 87.75 27.25 88.0858 27.25 88.5L27.25 92.5C27.25 92.9142 27.5858 93.25 28 93.25C28.4142 93.25 28.75 92.9142 28.75 92.5L28.75 88.5C28.75 88.0858 28.4142 87.75 28 87.75ZM25.75 88.5C25.75 87.2574 26.7574 86.25 28 86.25C29.2426 86.25 30.25 87.2574 30.25 88.5L30.25 92.5C30.25 93.7426 29.2426 94.75 28 94.75C26.7574 94.75 25.75 93.7426 25.75 92.5L25.75 88.5Z" fill="#5F5F6A"/>
<g opacity="0.5">
<path d="M29.5 92.5C29.5 93.3284 28.8284 94 28 94C27.1716 94 26.5 93.3284 26.5 92.5L26.5 88.5C26.5 87.6716 27.1716 87 28 87C28.8284 87 29.5 87.6716 29.5 88.5L29.5 92.5Z" fill="#5F5F6A"/>
<path d="M29.5 83C29.5 83.8284 28.8284 84.5 28 84.5C27.1716 84.5 26.5 83.8284 26.5 83C26.5 82.1716 27.1716 81.5 28 81.5C28.8284 81.5 29.5 82.1716 29.5 83Z" fill="#5F5F6A"/>
</g>
<path fill-rule="evenodd" clip-rule="evenodd" d="M22.5832 130.893C24.1866 129.822 26.0716 129.25 28 129.25C29.9284 129.25 31.8134 129.822 33.4168 130.893C35.0202 131.965 36.2699 133.487 37.0078 135.269C37.7458 137.05 37.9389 139.011 37.5627 140.902C37.1865 142.793 36.2579 144.531 34.8943 145.894C34.6014 146.187 34.1265 146.187 33.8336 145.894C33.5407 145.601 33.5407 145.127 33.8336 144.834C34.9874 143.68 35.7732 142.21 36.0915 140.609C36.4098 139.009 36.2464 137.35 35.622 135.843C34.9976 134.335 33.9402 133.047 32.5835 132.14C31.2268 131.234 29.6317 130.75 28 130.75C26.3683 130.75 24.7733 131.234 23.4166 132.14C22.0598 133.047 21.0024 134.335 20.378 135.843C19.7536 137.35 19.5902 139.009 19.9085 140.609C20.2269 142.21 21.0126 143.68 22.1664 144.834C22.4593 145.127 22.4593 145.601 22.1664 145.894C21.8735 146.187 21.3986 146.187 21.1057 145.894C19.7422 144.531 18.8136 142.793 18.4373 140.902C18.0611 139.011 18.2542 137.05 18.9922 135.269C19.7301 133.487 20.9798 131.965 22.5832 130.893ZM25.125 134.02C25.9991 133.516 26.9907 133.25 28 133.25C29.0093 133.25 30.0009 133.516 30.875 134.02C31.7491 134.525 32.475 135.251 32.9797 136.125C33.4843 136.999 33.75 137.991 33.75 139C33.75 140.009 33.4843 141.001 32.9797 141.875C32.7725 142.234 32.3139 142.357 31.9551 142.15C31.5964 141.942 31.4735 141.484 31.6806 141.125C32.0536 140.479 32.25 139.746 32.25 139C32.25 138.254 32.0536 137.521 31.6806 136.875C31.3076 136.229 30.7711 135.692 30.125 135.319C29.4789 134.946 28.746 134.75 28 134.75C27.254 134.75 26.5211 134.946 25.875 135.319C25.2289 135.692 24.6924 136.229 24.3194 136.875C23.9464 137.521 23.75 138.254 23.75 139C23.75 139.746 23.9464 140.479 24.3194 141.125C24.5265 141.484 24.4036 141.942 24.0449 142.15C23.6862 142.357 23.2275 142.234 23.0204 141.875C22.5157 141.001 22.25 140.009 22.25 139C22.25 137.991 22.5157 136.999 23.0204 136.125C23.525 135.251 24.2509 134.525 25.125 134.02ZM28 138.25C27.5858 138.25 27.25 138.586 27.25 139C27.25 139.414 27.5858 139.75 28 139.75C28.4142 139.75 28.75 139.414 28.75 139C28.75 138.586 28.4142 138.25 28 138.25ZM25.75 139C25.75 137.757 26.7574 136.75 28 136.75C29.2426 136.75 30.25 137.757 30.25 139C30.25 140.243 29.2426 141.25 28 141.25C26.7574 141.25 25.75 140.243 25.75 139ZM28 143.75C27.5858 143.75 27.25 144.086 27.25 144.5L27.25 148.5C27.25 148.914 27.5858 149.25 28 149.25C28.4142 149.25 28.75 148.914 28.75 148.5L28.75 144.5C28.75 144.086 28.4142 143.75 28 143.75ZM25.75 144.5C25.75 143.257 26.7574 142.25 28 142.25C29.2426 142.25 30.25 143.257 30.25 144.5L30.25 148.5C30.25 149.743 29.2426 150.75 28 150.75C26.7574 150.75 25.75 149.743 25.75 148.5L25.75 144.5Z" fill="#5F5F6A"/>
<path fill-rule="evenodd" clip-rule="evenodd" d="M22.7221 187.101C24.2844 186.057 26.1211 185.5 28 185.5C29.8789 185.5 31.7157 186.057 33.2779 187.101C34.8402 188.145 36.0578 189.629 36.7769 191.365C37.4959 193.1 37.684 195.011 37.3175 196.853C36.9509 198.696 36.0461 200.389 34.7175 201.718C34.5223 201.913 34.2057 201.913 34.0104 201.718C33.8152 201.522 33.8152 201.206 34.0104 201.01C35.1992 199.822 36.0087 198.307 36.3367 196.658C36.6647 195.009 36.4963 193.3 35.853 191.747C35.2096 190.194 34.1202 188.867 32.7224 187.933C31.3245 186.999 29.6811 186.5 28 186.5C26.3189 186.5 24.6755 186.999 23.2777 187.933C21.8798 188.866 20.7904 190.194 20.147 191.747C19.5037 193.3 19.3354 195.009 19.6633 196.658C19.9913 198.307 20.8009 199.822 21.9896 201.01C22.1849 201.206 22.1849 201.522 21.9896 201.718C21.7943 201.913 21.4778 201.913 21.2825 201.718C19.9539 200.389 19.0491 198.696 18.6825 196.853C18.316 195.011 18.5041 193.1 19.2231 191.365C19.9422 189.629 21.1598 188.145 22.7221 187.101ZM25.25 190.237C26.0861 189.754 27.0346 189.5 28 189.5C28.9655 189.5 29.9139 189.754 30.75 190.237C31.5861 190.72 32.2804 191.414 32.7631 192.25C33.2459 193.086 33.5 194.035 33.5 195C33.5 195.965 33.2459 196.914 32.7631 197.75C32.6251 197.989 32.3193 198.071 32.0801 197.933C31.841 197.795 31.759 197.489 31.8971 197.25C32.2921 196.566 32.5 195.79 32.5 195C32.5 194.21 32.2921 193.434 31.8971 192.75C31.5022 192.066 30.9341 191.498 30.25 191.103C29.5659 190.708 28.7899 190.5 28 190.5C27.2101 190.5 26.4341 190.708 25.75 191.103C25.0659 191.498 24.4978 192.066 24.1029 192.75C23.7079 193.434 23.5 194.21 23.5 195C23.5 195.79 23.7079 196.566 24.1029 197.25C24.241 197.489 24.159 197.795 23.9199 197.933C23.6807 198.071 23.3749 197.989 23.2369 197.75C22.7541 196.914 22.5 195.965 22.5 195C22.5 194.035 22.7541 193.086 23.2369 192.25C23.7196 191.414 24.4139 190.72 25.25 190.237ZM28 194C27.4477 194 27 194.448 27 195C27 195.552 27.4477 196 28 196C28.5523 196 29 195.552 29 195C29 194.448 28.5523 194 28 194ZM26 195C26 193.895 26.8954 193 28 193C29.1046 193 30 193.895 30 195C30 196.105 29.1046 197 28 197C26.8954 197 26 196.105 26 195ZM28 199.5C27.4477 199.5 27 199.948 27 200.5L27 204.5C27 205.052 27.4477 205.5 28 205.5C28.5523 205.5 29 205.052 29 204.5L29 200.5C29 199.948 28.5523 199.5 28 199.5ZM26 200.5C26 199.395 26.8954 198.5 28 198.5C29.1046 198.5 30 199.395 30 200.5L30 204.5C30 205.605 29.1046 206.5 28 206.5C26.8954 206.5 26 205.605 26 204.5L26 200.5Z" fill="#5F5F6A"/>
</svg>
