<svg width="56" height="224" viewBox="0 0 56 224" fill="none" xmlns="http://www.w3.org/2000/svg">
<path d="M22.8326 33.946C22.6616 33.8502 22.5095 33.7399 22.3432 33.618C22.0656 33.4168 21.7979 33.1958 21.5421 32.9549C21.4823 32.8986 21.4232 32.8412 21.3648 32.7828C18.2117 29.6298 18.2117 24.5178 21.3648 21.3648C24.5178 18.2117 29.6298 18.2117 32.7828 21.3648C32.8252 21.4071 32.8669 21.4498 32.9081 21.4928C33.1673 21.7635 33.404 22.0478 33.6182 22.3434C33.74 22.5096 33.8502 22.6616 33.946 22.8326C35.5549 25.4344 35.5479 28.7512 33.9257 31.3474L36.4661 33.8878C37.178 34.5997 37.178 35.7541 36.4661 36.466C35.7541 37.178 34.5998 37.178 33.8878 36.466L31.3474 33.9257C28.7513 35.5479 25.4344 35.5549 22.8326 33.946ZM33.0691 26.6034L26.6033 33.0692C26.4423 33.2305 26.292 33.381 26.1388 33.5178C27.5197 33.7171 28.9523 33.4726 30.2059 32.7842L30.2045 32.7828C29.9013 32.4796 29.7272 32.0961 29.6823 31.7007C29.6481 31.3998 29.6887 31.0921 29.8041 30.8076C29.8931 30.5882 30.0265 30.3825 30.2045 30.2045C30.9165 29.4925 32.0708 29.4925 32.7828 30.2045L32.7842 30.2059C33.4726 28.9523 33.7171 27.5197 33.5178 26.1388C33.381 26.292 33.2305 26.4423 33.0691 26.6034ZM31.2332 31.4937C31.2332 31.5603 31.2587 31.627 31.3095 31.6778L34.9928 35.361C35.0945 35.4628 35.2594 35.4628 35.3611 35.361C35.4628 35.2593 35.4628 35.0944 35.3611 34.9927L32.3665 31.9981L32.3623 31.9939L31.6778 31.3095C31.5761 31.2078 31.4112 31.2078 31.3095 31.3095C31.2887 31.3303 31.2722 31.3537 31.2599 31.3786C31.2421 31.4148 31.2332 31.4542 31.2332 31.4937Z" fill="#5F5F6A"/>
<path d="M22.3432 89.618C22.5095 89.7399 22.6616 89.8502 22.8326 89.946C25.4344 91.5549 28.7513 91.5479 31.3474 89.9257L33.8878 92.466C34.5998 93.178 35.7541 93.178 36.4661 92.466C37.178 91.7541 37.178 90.5997 36.4661 89.8878L33.9257 87.3474C35.5479 84.7512 35.5549 81.4344 33.946 78.8326C33.8502 78.6616 33.74 78.5096 33.6182 78.3434C33.404 78.0478 33.1673 77.7635 32.9081 77.4928C32.8669 77.4498 32.8252 77.4071 32.7828 77.3648C29.6298 74.2117 24.5178 74.2117 21.3648 77.3648C18.2117 80.5178 18.2117 85.6298 21.3648 88.7828C21.4232 88.8412 21.4823 88.8986 21.5421 88.9549C21.7979 89.1958 22.0656 89.4168 22.3432 89.618ZM31.6778 78.4697C31.7106 78.5025 31.7429 78.5355 31.7748 78.5687C32.0909 78.8983 32.3656 79.253 32.5989 79.6262C32.6466 79.7174 32.6719 79.8008 32.6988 79.9285C32.7097 79.9806 32.7193 80.1154 32.7056 80.2945C32.6919 80.4736 32.6619 80.6053 32.6432 80.6552C32.555 80.8895 32.4375 81.025 31.9016 81.5609L25.5609 87.9016C25.025 88.4375 24.8895 88.555 24.6552 88.6432C24.6053 88.6619 24.4736 88.6919 24.2945 88.7056C24.1154 88.7193 23.9806 88.7097 23.9285 88.6988C23.8008 88.6719 23.7174 88.6466 23.6262 88.5989C23.2701 88.3763 22.9308 88.116 22.6142 87.818C22.5655 87.7721 22.5173 87.7254 22.4697 87.6778C19.927 85.1351 19.927 81.0125 22.4697 78.4697C25.0125 75.927 29.1351 75.927 31.6778 78.4697ZM33.5178 82.1388C33.7171 83.5197 33.4726 84.9523 32.7842 86.2059L32.7828 86.2045C32.0708 85.4925 30.9165 85.4925 30.2045 86.2045C30.0265 86.3825 29.8931 86.5882 29.8041 86.8076C29.6887 87.0921 29.6481 87.3998 29.6823 87.7007C29.7272 88.0961 29.9013 88.4796 30.2045 88.7828L30.2059 88.7842C28.9523 89.4726 27.5197 89.7171 26.1388 89.5178C26.292 89.381 26.4423 89.2305 26.6034 89.0691L33.0691 82.6034C33.2305 82.4423 33.381 82.292 33.5178 82.1388ZM31.3095 87.6778C31.2587 87.627 31.2332 87.5603 31.2332 87.4937C31.2332 87.4542 31.2421 87.4148 31.2599 87.3786C31.2722 87.3537 31.2887 87.3303 31.3095 87.3095C31.4112 87.2078 31.5761 87.2078 31.6778 87.3095L32.3623 87.9939L32.3665 87.9981L35.3611 90.9927C35.4628 91.0944 35.4628 91.2593 35.3611 91.361C35.2594 91.4628 35.0945 91.4628 34.9928 91.361L31.3095 87.6778Z" fill="#5F5F6A"/>
<path opacity="0.5" d="M22.4696 78.4697C25.0123 75.927 29.1349 75.927 31.6777 78.4697C31.7104 78.5025 31.7427 78.5355 31.7746 78.5687C32.0907 78.8983 32.3654 79.253 32.5987 79.6262C32.6464 79.7174 32.6717 79.8008 32.6986 79.9285C32.7095 79.9806 32.7192 80.1154 32.7055 80.2945C32.6918 80.4736 32.6618 80.6053 32.643 80.6552C32.5548 80.8895 32.4373 81.025 31.9015 81.5609L25.5607 87.9016C25.0248 88.4375 24.8893 88.555 24.655 88.6432C24.6051 88.6619 24.4734 88.6919 24.2943 88.7056C24.1152 88.7193 23.9804 88.7097 23.9283 88.6988C23.8006 88.6719 23.7172 88.6466 23.626 88.5989C23.2699 88.3763 22.9307 88.116 22.614 87.818C22.5653 87.7721 22.5172 87.7254 22.4696 87.6778C19.9268 85.1351 19.9268 81.0125 22.4696 78.4697Z" fill="#5F5F6A"/>
<path d="M22.3432 145.618C22.5095 145.74 22.6616 145.85 22.8326 145.946C25.4344 147.555 28.7513 147.548 31.3474 145.926L33.8878 148.466C34.5998 149.178 35.7541 149.178 36.4661 148.466C37.178 147.754 37.178 146.6 36.4661 145.888L33.9257 143.347C35.5479 140.751 35.5549 137.434 33.946 134.833C33.8502 134.662 33.74 134.51 33.6182 134.343C33.404 134.048 33.1673 133.764 32.9081 133.493C32.8669 133.45 32.8252 133.407 32.7828 133.365C29.6298 130.212 24.5178 130.212 21.3648 133.365C18.2117 136.518 18.2117 141.63 21.3648 144.783C21.4232 144.841 21.4823 144.899 21.5421 144.955C21.7979 145.196 22.0656 145.417 22.3432 145.618ZM31.6778 134.47C31.7106 134.502 31.7429 134.535 31.7748 134.569C32.0909 134.898 32.3656 135.253 32.5989 135.626C32.6466 135.717 32.6719 135.801 32.6988 135.928C32.7097 135.981 32.7193 136.115 32.7056 136.294C32.6919 136.474 32.6619 136.605 32.6432 136.655C32.555 136.889 32.4375 137.025 31.9016 137.561L25.5609 143.902C25.025 144.437 24.8895 144.555 24.6552 144.643C24.6053 144.662 24.4736 144.692 24.2945 144.706C24.1154 144.719 23.9806 144.71 23.9285 144.699C23.8008 144.672 23.7174 144.647 23.6262 144.599C23.2701 144.376 22.9308 144.116 22.6142 143.818C22.5655 143.772 22.5173 143.725 22.4697 143.678C19.927 141.135 19.927 137.012 22.4697 134.47C25.0125 131.927 29.1351 131.927 31.6778 134.47ZM33.5178 138.139C33.7171 139.52 33.4726 140.952 32.7842 142.206L32.7828 142.205C32.0708 141.493 30.9165 141.493 30.2045 142.205C30.0265 142.383 29.8931 142.588 29.8041 142.808C29.6887 143.092 29.6481 143.4 29.6823 143.701C29.7272 144.096 29.9013 144.48 30.2045 144.783L30.2059 144.784C28.9523 145.473 27.5197 145.717 26.1388 145.518C26.292 145.381 26.4423 145.23 26.6034 145.069L33.0691 138.603C33.2305 138.442 33.381 138.292 33.5178 138.139ZM31.3095 143.678C31.2587 143.627 31.2332 143.56 31.2332 143.494C31.2332 143.454 31.2421 143.415 31.2599 143.379C31.2722 143.354 31.2887 143.33 31.3095 143.31C31.4112 143.208 31.5761 143.208 31.6778 143.31L32.3623 143.994L32.3665 143.998L35.3611 146.993C35.4628 147.094 35.4628 147.259 35.3611 147.361C35.2594 147.463 35.0945 147.463 34.9928 147.361L31.3095 143.678Z" fill="#5F5F6A"/>
<path d="M22.641 201.255C22.8046 201.375 22.9469 201.478 23.1038 201.565C25.6099 203.117 28.8221 203.075 31.2904 201.44L33.9055 204.055C34.499 204.648 35.4613 204.648 36.0549 204.055C36.6484 203.461 36.6484 202.499 36.0549 201.905L33.4397 199.29C35.0748 196.822 35.1168 193.61 33.5653 191.104C33.4779 190.947 33.3746 190.805 33.2547 190.641C33.0712 190.388 32.8702 190.144 32.6516 189.911C32.5932 189.848 32.5335 189.787 32.4726 189.726C29.5049 186.758 24.6934 186.758 21.7257 189.726C18.7581 192.693 18.7581 197.505 21.7257 200.473C21.7916 200.538 21.8584 200.603 21.926 200.666C22.1549 200.879 22.3938 201.075 22.641 201.255ZM31.7561 190.442C31.8077 190.494 31.8583 190.546 31.9079 190.599C32.207 190.918 32.4684 191.26 32.6921 191.619C32.7501 191.727 32.7851 191.832 32.8178 191.988C32.8354 192.072 32.8435 192.229 32.8292 192.415C32.815 192.601 32.7831 192.756 32.753 192.836C32.6444 193.125 32.4859 193.295 31.9738 193.807L25.8068 199.974C25.2947 200.486 25.1245 200.644 24.8361 200.753C24.756 200.783 24.6013 200.815 24.4154 200.829C24.2294 200.843 24.0716 200.835 23.9879 200.818C23.8324 200.785 23.7274 200.75 23.6187 200.692C23.2661 200.472 22.9298 200.216 22.6151 199.923C22.5567 199.869 22.4991 199.813 22.4422 199.756C19.8702 197.184 19.8702 193.014 22.4422 190.442C25.0142 187.87 29.1842 187.87 31.7561 190.442ZM33.5096 193.585C33.903 195.257 33.6353 197.054 32.7063 198.557L32.4726 198.323C31.8791 197.73 30.9168 197.73 30.3232 198.323C30.1748 198.472 30.0636 198.643 29.9894 198.826C29.9021 199.041 29.8662 199.272 29.8815 199.5C29.9053 199.855 30.0525 200.202 30.3232 200.473L30.5569 200.706C29.0535 201.635 27.2572 201.903 25.5849 201.51C25.8949 201.319 26.1516 201.062 26.4762 200.737L32.7374 194.476C33.0623 194.152 33.3191 193.895 33.5096 193.585ZM31.0397 199.756C30.9408 199.657 30.8913 199.528 30.8913 199.398C30.8913 199.325 30.907 199.252 30.9383 199.185C30.9626 199.132 30.9964 199.083 31.0397 199.04C31.2375 198.842 31.5583 198.842 31.7561 199.04L32.4218 199.705L32.4252 199.709L35.3384 202.622C35.5363 202.82 35.5363 203.141 35.3384 203.338C35.1406 203.536 34.8198 203.536 34.622 203.338L31.0397 199.756Z" fill="#5F5F6A"/>
</svg>
