<svg width="56" height="224" viewBox="0 0 56 224" fill="none" xmlns="http://www.w3.org/2000/svg">
<path d="M24.2027 33.946C24.0317 33.8502 23.8796 33.7399 23.7133 33.618C23.4357 33.4168 23.168 33.1958 22.9122 32.9549C22.8524 32.8986 22.7933 32.8412 22.7349 32.7828C21.5625 31.6104 20.826 30.1672 20.5255 28.6545C18.8612 28.2714 17.6201 26.7806 17.6201 25C17.6201 22.9289 19.299 21.25 21.3701 21.25C21.8134 21.25 22.2386 21.3269 22.6334 21.4681C22.6668 21.4334 22.7007 21.399 22.7349 21.3648C25.8879 18.2117 30.9999 18.2117 34.1529 21.3648C34.1953 21.4071 34.237 21.4498 34.2783 21.4928C34.5374 21.7635 34.7741 22.0478 34.9883 22.3434C35.1101 22.5096 35.2204 22.6616 35.3162 22.8326C36.925 25.4344 36.918 28.7512 35.2958 31.3474L37.8362 33.8878C38.5482 34.5997 38.5482 35.7541 37.8362 36.466C37.1242 37.178 35.9699 37.178 35.2579 36.466L32.7175 33.9257C30.1214 35.5479 26.8045 35.5549 24.2027 33.946ZM34.4393 26.6034L27.9734 33.0692C27.8124 33.2304 27.6621 33.3811 27.509 33.5178C28.8898 33.7171 30.3224 33.4726 31.5761 32.7842L31.5747 32.7828C31.2714 32.4796 31.0973 32.0961 31.0524 31.7007C31.0182 31.3998 31.0588 31.0921 31.1742 30.8076C31.2632 30.5882 31.3967 30.3825 31.5747 30.2045C32.2866 29.4925 33.441 29.4925 34.1529 30.2045L34.1543 30.2059C34.8428 28.9523 35.0872 27.5197 34.8879 26.1388C34.7511 26.292 34.6006 26.4423 34.4393 26.6034ZM32.6034 31.4937C32.6034 31.5603 32.6288 31.627 32.6796 31.6778L36.3629 35.361C36.4646 35.4628 36.6295 35.4628 36.7312 35.361C36.8329 35.2593 36.8329 35.0944 36.7312 34.9927L33.7366 31.9981L33.7324 31.9939L33.048 31.3095C32.9463 31.2078 32.7813 31.2078 32.6796 31.3095C32.6589 31.3303 32.6424 31.3537 32.6301 31.3786C32.6123 31.4148 32.6034 31.4542 32.6034 31.4937ZM19.1201 25C19.1201 26.2426 20.1275 27.25 21.3701 27.25C22.6128 27.25 23.6201 26.2426 23.6201 25C23.6201 23.7574 22.6128 22.75 21.3701 22.75C20.1275 22.75 19.1201 23.7574 19.1201 25Z" fill="#5F5F6A"/>
<path opacity="0.5" d="M33.0474 78.4697C30.5047 75.927 26.3821 75.927 23.8393 78.4697C23.7118 78.5973 23.5907 78.7287 23.476 78.8638C24.0276 79.4078 24.3696 80.164 24.3696 81C24.3696 82.4444 23.3488 83.6504 21.9893 83.9359C22.171 85.3045 22.7877 86.6263 23.8393 87.6778C23.8869 87.7254 23.9351 87.7722 23.9838 87.818C24.3004 88.116 24.6397 88.3763 24.9958 88.5989C25.087 88.6466 25.1704 88.6719 25.2981 88.6988C25.3502 88.7097 25.485 88.7194 25.6641 88.7057C25.8432 88.692 25.9749 88.6619 26.0248 88.6432C26.2591 88.555 26.3946 88.4375 26.9305 87.9016L33.2712 81.5609C33.8071 81.025 33.9246 80.8895 34.0128 80.6552C34.0315 80.6053 34.0615 80.4736 34.0752 80.2945C34.0889 80.1154 34.0793 79.9806 34.0684 79.9285C34.0415 79.8008 34.0162 79.7174 33.9685 79.6262C33.7352 79.253 33.4605 78.8983 33.1444 78.5687C33.1125 78.5355 33.0802 78.5025 33.0474 78.4697Z" fill="#5F5F6A"/>
<path d="M23.7133 89.618C23.8796 89.7399 24.0317 89.8502 24.2027 89.946C26.8045 91.5549 30.1214 91.5479 32.7176 89.9257L35.2579 92.466C35.9699 93.178 37.1242 93.178 37.8362 92.466C38.5482 91.7541 38.5482 90.5997 37.8362 89.8878L35.2958 87.3474C36.918 84.7512 36.925 81.4344 35.3162 78.8326C35.2204 78.6616 35.1101 78.5096 34.9883 78.3434C34.7741 78.0478 34.5374 77.7635 34.2783 77.4928C34.237 77.4498 34.1953 77.4071 34.1529 77.3648C30.9999 74.2117 25.8879 74.2117 22.7349 77.3648C22.7007 77.399 22.6668 77.4334 22.6334 77.4681C22.2386 77.3269 21.8134 77.25 21.3701 77.25C19.299 77.25 17.6201 78.9289 17.6201 81C17.6201 82.7806 18.8612 84.2714 20.5255 84.6545C20.826 86.1672 21.5625 87.6104 22.7349 88.7828C22.7933 88.8412 22.8524 88.8986 22.9122 88.9549C23.168 89.1958 23.4357 89.4168 23.7133 89.618ZM22.1311 84.6727C23.8373 84.321 25.1201 82.8103 25.1201 81C25.1201 79.9503 24.6888 79.0014 23.9938 78.3207C26.5464 75.928 30.5559 75.9777 33.048 78.4697C33.0807 78.5025 33.113 78.5355 33.1449 78.5687C33.461 78.8983 33.7357 79.253 33.969 79.6262C34.0167 79.7174 34.042 79.8008 34.0689 79.9285C34.0798 79.9806 34.0895 80.1154 34.0758 80.2945C34.0621 80.4736 34.0321 80.6053 34.0133 80.6552C33.9251 80.8895 33.8076 81.025 33.2718 81.5609L26.931 87.9016C26.3951 88.4375 26.2596 88.555 26.0253 88.6432C25.9754 88.6619 25.8437 88.6919 25.6646 88.7056C25.4855 88.7193 25.3507 88.7097 25.2986 88.6988C25.1709 88.6719 25.0875 88.6466 24.9963 88.5989C24.6402 88.3763 24.301 88.116 23.9843 87.818C23.9356 87.7721 23.8875 87.7254 23.8399 87.6778C22.9785 86.8165 22.4089 85.7738 22.1311 84.6727ZM34.8879 82.1388C35.0872 83.5197 34.8428 84.9523 34.1543 86.2059L34.1529 86.2045C33.441 85.4925 32.2866 85.4925 31.5747 86.2045C31.3967 86.3825 31.2632 86.5882 31.1742 86.8076C31.0588 87.0921 31.0182 87.3998 31.0524 87.7007C31.0973 88.0961 31.2714 88.4796 31.5747 88.7828L31.5761 88.7842C30.3224 89.4726 28.8898 89.7171 27.509 89.5178C27.6621 89.381 27.8124 89.2305 27.9735 89.0691L34.4393 82.6034C34.6006 82.4423 34.7511 82.292 34.8879 82.1388ZM32.6796 87.6778C32.6288 87.627 32.6034 87.5603 32.6034 87.4937C32.6034 87.4542 32.6123 87.4148 32.6301 87.3786C32.6424 87.3537 32.6589 87.3303 32.6796 87.3095C32.7813 87.2078 32.9463 87.2078 33.048 87.3095L33.7324 87.9939L33.7366 87.9981L36.7312 90.9927C36.8329 91.0944 36.8329 91.2593 36.7312 91.361C36.6295 91.4628 36.4646 91.4628 36.3629 91.361L32.6796 87.6778ZM19.1201 81C19.1201 79.7574 20.1275 78.75 21.3701 78.75C22.6128 78.75 23.6201 79.7574 23.6201 81C23.6201 82.2426 22.6128 83.25 21.3701 83.25C20.1275 83.25 19.1201 82.2426 19.1201 81Z" fill="#5F5F6A"/>
<path d="M23.3432 145.618C23.5095 145.74 23.6616 145.85 23.8325 145.946C26.4344 147.555 29.7512 147.548 32.3474 145.926L34.8878 148.466C35.5997 149.178 36.7541 149.178 37.466 148.466C38.178 147.754 38.178 146.6 37.466 145.888L34.9257 143.347C36.5478 140.751 36.5549 137.434 34.946 134.833C34.8502 134.662 34.74 134.51 34.6181 134.343C34.404 134.048 34.1673 133.764 33.9081 133.493C33.8669 133.45 33.8251 133.407 33.7828 133.365C30.6298 130.212 25.5177 130.212 22.3647 133.365C22.3305 133.399 22.2967 133.433 22.2632 133.468C21.8685 133.327 21.4432 133.25 21 133.25C18.9289 133.25 17.25 134.929 17.25 137C17.25 138.781 18.4911 140.271 20.1554 140.654C20.4559 142.167 21.1923 143.61 22.3647 144.783C22.4232 144.841 22.4823 144.899 22.542 144.955C22.7979 145.196 23.0656 145.417 23.3432 145.618ZM21.761 140.673C23.4672 140.321 24.75 138.81 24.75 137C24.75 135.95 24.3187 135.001 23.6237 134.321C26.1762 131.928 30.1858 131.978 32.6778 134.47C32.7105 134.502 32.7429 134.535 32.7748 134.569C33.0909 134.898 33.3656 135.253 33.5989 135.626C33.6466 135.717 33.6719 135.801 33.6987 135.928C33.7097 135.981 33.7193 136.115 33.7056 136.294C33.6919 136.474 33.6619 136.605 33.6431 136.655C33.555 136.889 33.4374 137.025 32.9016 137.561L26.5608 143.902C26.025 144.437 25.8894 144.555 25.6551 144.643C25.6053 144.662 25.4736 144.692 25.2944 144.706C25.1153 144.719 24.9806 144.71 24.9284 144.699C24.8007 144.672 24.7174 144.647 24.6262 144.599C24.2701 144.376 23.9308 144.116 23.6141 143.818C23.5655 143.772 23.5173 143.725 23.4697 143.678C22.6084 142.816 22.0388 141.774 21.761 140.673ZM34.5178 138.139C34.7171 139.52 34.4726 140.952 33.7842 142.206L33.7828 142.205C33.0708 141.493 31.9165 141.493 31.2045 142.205C31.0265 142.383 30.893 142.588 30.804 142.808C30.6887 143.092 30.6481 143.4 30.6823 143.701C30.7272 144.096 30.9013 144.48 31.2045 144.783L31.2059 144.784C29.9523 145.473 28.5197 145.717 27.1388 145.518C27.292 145.381 27.4422 145.231 27.6033 145.069L34.0691 138.603C34.2305 138.442 34.381 138.292 34.5178 138.139ZM32.3095 143.678C32.2586 143.627 32.2332 143.56 32.2332 143.494C32.2332 143.454 32.2421 143.415 32.2599 143.379C32.2722 143.354 32.2887 143.33 32.3095 143.31C32.4112 143.208 32.5761 143.208 32.6778 143.31L33.3622 143.994L33.3665 143.998L36.3611 146.993C36.4628 147.094 36.4628 147.259 36.3611 147.361C36.2594 147.463 36.0944 147.463 35.9927 147.361L32.3095 143.678ZM18.75 137C18.75 135.757 19.7574 134.75 21 134.75C22.2426 134.75 23.25 135.757 23.25 137C23.25 138.243 22.2426 139.25 21 139.25C19.7574 139.25 18.75 138.243 18.75 137Z" fill="#5F5F6A"/>
<path d="M23.641 201.255C23.8046 201.375 23.9469 201.478 24.1038 201.565C26.6099 203.117 29.8221 203.075 32.2904 201.44L34.9055 204.055C35.499 204.648 36.4613 204.648 37.0549 204.055C37.6484 203.461 37.6484 202.499 37.0549 201.905L34.4397 199.29C36.0748 196.822 36.1168 193.61 34.5653 191.104C34.4779 190.947 34.3746 190.805 34.2547 190.641C34.0712 190.388 33.8702 190.144 33.6516 189.911C33.5932 189.848 33.5335 189.787 33.4726 189.726C30.5049 186.758 25.6934 186.758 22.7257 189.726C22.6762 189.775 22.6275 189.825 22.5796 189.876C22.1051 189.635 21.5684 189.5 21 189.5C19.067 189.5 17.5 191.067 17.5 193C17.5 194.807 18.8688 196.293 20.6258 196.48C20.8948 197.943 21.5947 199.342 22.7257 200.473C22.7916 200.538 22.8584 200.603 22.926 200.666C23.1549 200.879 23.3938 201.075 23.641 201.255ZM21.6503 196.44C23.2726 196.135 24.5 194.711 24.5 193C24.5 192.004 24.0841 191.105 23.4165 190.468C23.425 190.459 23.4336 190.451 23.4422 190.442C26.0142 187.87 30.1842 187.87 32.7561 190.442C32.8077 190.494 32.8583 190.546 32.9079 190.599C33.207 190.918 33.4684 191.26 33.6921 191.619C33.7501 191.727 33.7851 191.832 33.8178 191.988C33.8354 192.072 33.8435 192.229 33.8292 192.415C33.815 192.601 33.7831 192.756 33.753 192.836C33.6444 193.125 33.4859 193.295 32.9738 193.807L26.8068 199.974C26.2947 200.486 26.1245 200.644 25.8361 200.753C25.756 200.783 25.6013 200.815 25.4154 200.829C25.2294 200.843 25.0716 200.835 24.9879 200.818C24.8324 200.785 24.7274 200.75 24.6188 200.692C24.2661 200.472 23.9298 200.216 23.6151 199.923C23.5567 199.869 23.4991 199.813 23.4422 199.756C22.4991 198.813 21.9018 197.655 21.6503 196.44ZM34.5096 193.585C34.903 195.257 34.6353 197.054 33.7063 198.557L33.4726 198.323C32.8791 197.73 31.9168 197.73 31.3232 198.323C31.1748 198.472 31.0636 198.643 30.9894 198.826C30.9021 199.041 30.8662 199.272 30.8815 199.5C30.9053 199.855 31.0525 200.202 31.3232 200.473L31.5569 200.706C30.0535 201.635 28.2572 201.903 26.5849 201.51C26.8949 201.319 27.1516 201.062 27.4762 200.737L33.7374 194.476C34.0623 194.152 34.3191 193.895 34.5096 193.585ZM32.0397 199.756C31.9408 199.657 31.8913 199.528 31.8913 199.398C31.8913 199.325 31.907 199.252 31.9383 199.185C31.9626 199.132 31.9964 199.083 32.0397 199.04C32.2375 198.842 32.5583 198.842 32.7561 199.04L33.4218 199.705L33.4252 199.709L36.3384 202.622C36.5363 202.82 36.5363 203.141 36.3384 203.338C36.1406 203.536 35.8198 203.536 35.622 203.338L32.0397 199.756ZM18.5 193C18.5 191.619 19.6193 190.5 21 190.5C22.3807 190.5 23.5 191.619 23.5 193C23.5 194.381 22.3807 195.5 21 195.5C19.6193 195.5 18.5 194.381 18.5 193Z" fill="#5F5F6A"/>
</svg>
