<svg width="56" height="168" viewBox="0 0 56 168" fill="none" xmlns="http://www.w3.org/2000/svg">
<path opacity="0.5" d="M28 23.75C25.6528 23.75 23.75 25.6528 23.75 28C23.75 30.3472 25.6528 32.25 28 32.25C30.3472 32.25 32.25 30.3472 32.25 28C32.25 27.5858 32.5858 27.25 33 27.25C33.4142 27.25 33.75 27.5858 33.75 28C33.75 31.1756 31.1756 33.75 28 33.75C24.8244 33.75 22.25 31.1756 22.25 28C22.25 24.8244 24.8244 22.25 28 22.25C28.8164 22.25 29.5949 22.4206 30.3003 22.7288C30.6798 22.8946 30.8531 23.3368 30.6873 23.7163C30.5214 24.0959 30.0793 24.2691 29.6997 24.1033C29.1802 23.8763 28.6058 23.75 28 23.75Z" fill="#5F5F6A"/>
<path d="M28 20.75C23.9959 20.75 20.75 23.9959 20.75 28C20.75 31.5837 23.3502 34.5602 26.767 35.1456C27.0378 34.7554 27.4891 34.5 28 34.5C28.5109 34.5 28.9622 34.7554 29.233 35.1456C32.6498 34.5602 35.25 31.5837 35.25 28C35.25 27.5858 35.5858 27.25 36 27.25C36.4142 27.25 36.75 27.5858 36.75 28C36.75 32.3719 33.5437 35.9949 29.3542 36.6458C29.1129 37.151 28.5972 37.5 28 37.5C27.4028 37.5 26.8871 37.151 26.6458 36.6458C22.4563 35.9949 19.25 32.3719 19.25 28C19.25 23.1675 23.1675 19.25 28 19.25C29.159 19.25 30.2671 19.4757 31.2814 19.8863C31.6654 20.0417 31.8506 20.479 31.6952 20.8629C31.5398 21.2469 31.1025 21.4321 30.7186 21.2767C29.88 20.9373 28.9628 20.75 28 20.75Z" fill="#5F5F6A"/>
<path d="M30 28C30 29.1046 29.1046 30 28 30C26.8954 30 26 29.1046 26 28C26 26.8954 26.8954 26 28 26C28.2771 26 28.5411 26.0564 28.7811 26.1583L33.9697 20.9697C34.2626 20.6768 34.7374 20.6768 35.0303 20.9697C35.3232 21.2626 35.3232 21.7374 35.0303 22.0303L29.8417 27.2189C29.9436 27.4589 30 27.7229 30 28Z" fill="#5F5F6A"/>
<path d="M23 29.5C23.8284 29.5 24.5 28.8284 24.5 28C24.5 27.1716 23.8284 26.5 23 26.5C22.1716 26.5 21.5 27.1716 21.5 28C21.5 28.8284 22.1716 29.5 23 29.5Z" fill="#5F5F6A"/>
<path d="M28 76.75C23.9959 76.75 20.75 79.9959 20.75 84C20.75 87.5837 23.3502 90.5602 26.767 91.1456C27.0378 90.7554 27.4891 90.5 28 90.5C28.5109 90.5 28.9622 90.7554 29.233 91.1456C32.6498 90.5602 35.25 87.5837 35.25 84C35.25 83.5858 35.5858 83.25 36 83.25C36.4142 83.25 36.75 83.5858 36.75 84C36.75 88.3719 33.5437 91.9949 29.3542 92.6458C29.1129 93.151 28.5972 93.5 28 93.5C27.4028 93.5 26.8871 93.151 26.6458 92.6458C22.4563 91.9949 19.25 88.3719 19.25 84C19.25 79.1675 23.1675 75.25 28 75.25C29.159 75.25 30.2671 75.4757 31.2814 75.8863C31.6654 76.0417 31.8506 76.479 31.6952 76.8629C31.5398 77.2469 31.1025 77.4321 30.7186 77.2767C29.88 76.9373 28.9628 76.75 28 76.75Z" fill="#5F5F6A"/>
<path d="M30 84C30 85.1046 29.1046 86 28 86C26.8954 86 26 85.1046 26 84C26 82.8954 26.8954 82 28 82C28.2771 82 28.5411 82.0564 28.7811 82.1583L33.9697 76.9697C34.2626 76.6768 34.7374 76.6768 35.0303 76.9697C35.3232 77.2626 35.3232 77.7374 35.0303 78.0303L29.8417 83.2189C29.9436 83.4589 30 83.7229 30 84Z" fill="#5F5F6A"/>
<path d="M22.4173 82.6174C21.8783 82.8448 21.5 83.3782 21.5 84C21.5 84.6218 21.8783 85.1552 22.4173 85.3826C23.0363 87.8904 25.301 89.75 28 89.75C31.1756 89.75 33.75 87.1756 33.75 84C33.75 83.5858 33.4142 83.25 33 83.25C32.5858 83.25 32.25 83.5858 32.25 84C32.25 86.3472 30.3472 88.25 28 88.25C26.0646 88.25 24.4314 86.9563 23.9178 85.1865C24.272 84.9121 24.5 84.4827 24.5 84C24.5 83.5173 24.272 83.0879 23.9178 82.8135C24.4314 81.0437 26.0646 79.75 28 79.75C28.6058 79.75 29.1802 79.8763 29.6997 80.1033C30.0793 80.2691 30.5214 80.0959 30.6873 79.7163C30.8531 79.3368 30.6798 78.8946 30.3003 78.7288C29.5949 78.4206 28.8164 78.25 28 78.25C25.301 78.25 23.0363 80.1096 22.4173 82.6174Z" fill="#5F5F6A"/>
<path d="M28 132.5C23.8579 132.5 20.5 135.858 20.5 140C20.5 143.499 22.8968 146.44 26.1385 147.267C26.4308 146.525 27.1541 146 28 146C28.8459 146 29.5692 146.525 29.8615 147.267C33.1032 146.44 35.5 143.499 35.5 140C35.5 139.724 35.7239 139.5 36 139.5C36.2761 139.5 36.5 139.724 36.5 140C36.5 144.012 33.7206 147.374 29.9823 148.268C29.8515 149.246 29.0139 150 28 150C26.9861 150 26.1485 149.246 26.0177 148.268C22.2794 147.374 19.5 144.012 19.5 140C19.5 135.306 23.3056 131.5 28 131.5C29.1263 131.5 30.2026 131.719 31.1876 132.118C31.4436 132.222 31.5671 132.513 31.4635 132.769C31.3599 133.025 31.0684 133.149 30.8124 133.045C29.9446 132.694 28.9955 132.5 28 132.5ZM28 147C27.4477 147 27 147.448 27 148C27 148.552 27.4477 149 28 149C28.5523 149 29 148.552 29 148C29 147.448 28.5523 147 28 147Z" fill="#5F5F6A"/>
<path d="M22.8736 138.004C21.8279 138.069 21 138.938 21 140C21 141.062 21.8279 141.931 22.8736 141.996C23.6725 144.046 25.6659 145.5 28 145.5C31.0376 145.5 33.5 143.038 33.5 140C33.5 139.724 33.2761 139.5 33 139.5C32.7239 139.5 32.5 139.724 32.5 140C32.5 142.485 30.4853 144.5 28 144.5C26.1551 144.5 24.5684 143.389 23.874 141.799C24.5406 141.475 25 140.791 25 140C25 139.209 24.5406 138.525 23.874 138.201C24.5684 136.611 26.1551 135.5 28 135.5C28.6409 135.5 29.2493 135.634 29.7998 135.874C30.0529 135.985 30.3476 135.869 30.4582 135.616C30.5687 135.363 30.4532 135.068 30.2002 134.958C29.5258 134.663 28.7813 134.5 28 134.5C25.6659 134.5 23.6725 135.954 22.8736 138.004ZM22 140C22 139.448 22.4477 139 23 139C23.5523 139 24 139.448 24 140C24 140.552 23.5523 141 23 141C22.4477 141 22 140.552 22 140Z" fill="#5F5F6A"/>
<path d="M30 140C30 141.105 29.1046 142 28 142C26.8954 142 26 141.105 26 140C26 138.895 26.8954 138 28 138C28.3709 138 28.7182 138.101 29.016 138.277L34.1464 133.146C34.3417 132.951 34.6583 132.951 34.8536 133.146C35.0488 133.342 35.0488 133.658 34.8536 133.854L29.7231 138.984C29.899 139.282 30 139.629 30 140Z" fill="#5F5F6A"/>
</svg>
