<svg width="56" height="224" viewBox="0 0 56 224" fill="none" xmlns="http://www.w3.org/2000/svg">
<path d="M17.75 20.25C17.75 19.8358 18.0858 19.5 18.5 19.5H36.5C36.9142 19.5 37.25 19.8358 37.25 20.25C37.25 20.6642 36.9142 21 36.5 21H18.5C18.0858 21 17.75 20.6642 17.75 20.25Z" fill="#5F5F6A"/>
<path d="M17.75 25.25C17.75 24.8358 18.0858 24.5 18.5 24.5H24C24.4142 24.5 24.75 24.8358 24.75 25.25C24.75 25.6642 24.4142 26 24 26H18.5C18.0858 26 17.75 25.6642 17.75 25.25Z" fill="#5F5F6A"/>
<path d="M17.75 30.25C17.75 29.8358 18.0858 29.5 18.5 29.5H24C24.4142 29.5 24.75 29.8358 24.75 30.25C24.75 30.6642 24.4142 31 24 31H18.5C18.0858 31 17.75 30.6642 17.75 30.25Z" fill="#5F5F6A"/>
<path d="M17.75 35.25C17.75 34.8358 18.0858 34.5 18.5 34.5H24C24.4142 34.5 24.75 34.8358 24.75 35.25C24.75 35.6642 24.4142 36 24 36H18.5C18.0858 36 17.75 35.6642 17.75 35.25Z" fill="#5F5F6A"/>
<path fill-rule="evenodd" clip-rule="evenodd" d="M25.75 30.25C25.75 26.7982 28.5482 24 32 24C35.4518 24 38.25 26.7982 38.25 30.25C38.25 33.7018 35.4518 36.5 32 36.5C28.5482 36.5 25.75 33.7018 25.75 30.25ZM32 27C31.4655 27 30.9393 27.1318 30.468 27.3838C29.9966 27.6357 29.5947 28 29.2977 28.4444C29.0008 28.8888 28.818 29.3996 28.7656 29.9314C28.7133 30.4633 28.7929 30.9999 28.9974 31.4937C29.2019 31.9875 29.5251 32.4232 29.9382 32.7623C30.3514 33.1013 30.8418 33.3333 31.366 33.4376C31.8902 33.5418 32.432 33.5152 32.9434 33.3601C33.4549 33.2049 33.9202 32.926 34.2981 32.5481L32 30.25V27Z" fill="#5F5F6A"/>
<path fill-rule="evenodd" clip-rule="evenodd" d="M17.75 76.25C17.75 75.8358 18.0858 75.5 18.5 75.5H36.5C36.9142 75.5 37.25 75.8358 37.25 76.25C37.25 76.6642 36.9142 77 36.5 77H18.5C18.0858 77 17.75 76.6642 17.75 76.25ZM32 81.5C29.3766 81.5 27.25 83.6266 27.25 86.25C27.25 88.8734 29.3766 91 32 91C34.6234 91 36.75 88.8734 36.75 86.25C36.75 83.6266 34.6234 81.5 32 81.5ZM25.75 86.25C25.75 82.7982 28.5482 80 32 80C35.4518 80 38.25 82.7982 38.25 86.25C38.25 89.7018 35.4518 92.5 32 92.5C28.5482 92.5 25.75 89.7018 25.75 86.25ZM17.75 81.25C17.75 80.8358 18.0858 80.5 18.5 80.5H24C24.4142 80.5 24.75 80.8358 24.75 81.25C24.75 81.6642 24.4142 82 24 82H18.5C18.0858 82 17.75 81.6642 17.75 81.25ZM17.75 86.25C17.75 85.8358 18.0858 85.5 18.5 85.5H24C24.4142 85.5 24.75 85.8358 24.75 86.25C24.75 86.6642 24.4142 87 24 87H18.5C18.0858 87 17.75 86.6642 17.75 86.25ZM17.75 91.25C17.75 90.8358 18.0858 90.5 18.5 90.5H24C24.4142 90.5 24.75 90.8358 24.75 91.25C24.75 91.6642 24.4142 92 24 92H18.5C18.0858 92 17.75 91.6642 17.75 91.25Z" fill="#5F5F6A"/>
<path opacity="0.5" d="M32 83C31.4655 83 30.9393 83.1318 30.468 83.3838C29.9966 83.6357 29.5947 84 29.2977 84.4444C29.0008 84.8888 28.818 85.3996 28.7657 85.9314C28.7133 86.4633 28.7929 86.9999 28.9974 87.4937C29.2019 87.9875 29.5251 88.4232 29.9382 88.7623C30.3514 89.1013 30.8418 89.3333 31.366 89.4376C31.8902 89.5418 32.432 89.5152 32.9434 89.3601C33.4549 89.2049 33.9202 88.926 34.2981 88.5481L32 86.25L32 83Z" fill="#5F5F6A"/>
<path d="M18.5 131.5C18.0858 131.5 17.75 131.836 17.75 132.25C17.75 132.664 18.0858 133 18.5 133H36.5C36.9142 133 37.25 132.664 37.25 132.25C37.25 131.836 36.9142 131.5 36.5 131.5H18.5Z" fill="#5F5F6A"/>
<path fill-rule="evenodd" clip-rule="evenodd" d="M32 138.25C31.3422 138.25 30.6945 138.412 30.1144 138.722C29.5343 139.032 29.0396 139.481 28.6741 140.028C28.3087 140.575 28.0837 141.203 28.0193 141.858C27.9548 142.513 28.0528 143.173 28.3045 143.781C28.5562 144.388 28.9539 144.925 29.4624 145.342C29.9709 145.759 30.5745 146.045 31.2196 146.173C31.8648 146.301 32.5317 146.269 33.1611 146.078C33.7906 145.887 34.3633 145.544 34.8284 145.078C35.1213 144.786 35.1213 144.311 34.8284 144.018L32.75 141.939V139C32.75 138.801 32.671 138.61 32.5303 138.47C32.3897 138.329 32.1989 138.25 32 138.25ZM30.8215 140.045C30.9589 139.972 31.1024 139.912 31.25 139.865V142.25C31.25 142.449 31.329 142.64 31.4697 142.78L33.156 144.467C33.0188 144.538 32.8748 144.597 32.7257 144.642C32.3323 144.762 31.9155 144.782 31.5123 144.702C31.109 144.622 30.7318 144.443 30.414 144.183C30.0962 143.922 29.8476 143.587 29.6903 143.207C29.533 142.827 29.4717 142.414 29.512 142.005C29.5523 141.596 29.6929 141.203 29.9213 140.861C30.1497 140.519 30.4589 140.239 30.8215 140.045Z" fill="#5F5F6A"/>
<path fill-rule="evenodd" clip-rule="evenodd" d="M32 136C28.5482 136 25.75 138.798 25.75 142.25C25.75 145.702 28.5482 148.5 32 148.5C35.4518 148.5 38.25 145.702 38.25 142.25C38.25 138.798 35.4518 136 32 136ZM27.25 142.25C27.25 139.627 29.3766 137.5 32 137.5C34.6234 137.5 36.75 139.627 36.75 142.25C36.75 144.873 34.6234 147 32 147C29.3766 147 27.25 144.873 27.25 142.25Z" fill="#5F5F6A"/>
<path d="M18.5 136.5C18.0858 136.5 17.75 136.836 17.75 137.25C17.75 137.664 18.0858 138 18.5 138H24C24.4142 138 24.75 137.664 24.75 137.25C24.75 136.836 24.4142 136.5 24 136.5H18.5Z" fill="#5F5F6A"/>
<path d="M18.5 141.5C18.0858 141.5 17.75 141.836 17.75 142.25C17.75 142.664 18.0858 143 18.5 143H24C24.4142 143 24.75 142.664 24.75 142.25C24.75 141.836 24.4142 141.5 24 141.5H18.5Z" fill="#5F5F6A"/>
<path d="M18.5 146.5C18.0858 146.5 17.75 146.836 17.75 147.25C17.75 147.664 18.0858 148 18.5 148H24C24.4142 148 24.75 147.664 24.75 147.25C24.75 146.836 24.4142 146.5 24 146.5H18.5Z" fill="#5F5F6A"/>
<path fill-rule="evenodd" clip-rule="evenodd" d="M18 188.25C18 187.974 18.2239 187.75 18.5 187.75H36.5C36.7761 187.75 37 187.974 37 188.25C37 188.526 36.7761 188.75 36.5 188.75H18.5C18.2239 188.75 18 188.526 18 188.25ZM32 193.25C29.2386 193.25 27 195.489 27 198.25C27 201.011 29.2386 203.25 32 203.25C34.7614 203.25 37 201.011 37 198.25C37 195.489 34.7614 193.25 32 193.25ZM26 198.25C26 194.936 28.6863 192.25 32 192.25C35.3137 192.25 38 194.936 38 198.25C38 201.564 35.3137 204.25 32 204.25C28.6863 204.25 26 201.564 26 198.25ZM18 193.25C18 192.974 18.2239 192.75 18.5 192.75H24C24.2761 192.75 24.5 192.974 24.5 193.25C24.5 193.526 24.2761 193.75 24 193.75H18.5C18.2239 193.75 18 193.526 18 193.25ZM18 198.25C18 197.974 18.2239 197.75 18.5 197.75H24C24.2761 197.75 24.5 197.974 24.5 198.25C24.5 198.526 24.2761 198.75 24 198.75H18.5C18.2239 198.75 18 198.526 18 198.25ZM18 203.25C18 202.974 18.2239 202.75 18.5 202.75H24C24.2761 202.75 24.5 202.974 24.5 203.25C24.5 203.526 24.2761 203.75 24 203.75H18.5C18.2239 203.75 18 203.526 18 203.25Z" fill="#5F5F6A"/>
<path fill-rule="evenodd" clip-rule="evenodd" d="M30.2637 195.002C30.7979 194.716 31.3943 194.567 32 194.567C32.1149 194.567 32.2251 194.612 32.3064 194.694C32.3877 194.775 32.4333 194.885 32.4333 195V198.071L34.6045 200.242C34.7737 200.411 34.7737 200.685 34.6045 200.855C34.1762 201.283 33.6489 201.599 33.0692 201.775C32.4896 201.951 31.8755 201.981 31.2814 201.863C30.6873 201.744 30.1316 201.482 29.6633 201.097C29.1951 200.713 28.8288 200.219 28.597 199.66C28.3652 199.1 28.275 198.492 28.3344 197.889C28.3938 197.286 28.6009 196.707 28.9374 196.204C29.2739 195.7 29.7295 195.287 30.2637 195.002ZM31.5667 195.467C31.2548 195.515 30.9524 195.616 30.6722 195.766C30.2637 195.984 29.9154 196.3 29.658 196.685C29.4007 197.07 29.2423 197.513 29.1969 197.974C29.1515 198.435 29.2205 198.9 29.3977 199.328C29.575 199.756 29.8551 200.133 30.2131 200.427C30.5712 200.721 30.9962 200.922 31.4505 201.013C31.9048 201.103 32.3744 201.08 32.8176 200.945C33.1216 200.853 33.4067 200.711 33.6616 200.524L31.6936 198.556C31.6123 198.475 31.5667 198.365 31.5667 198.25V195.467Z" fill="#5F5F6A"/>
</svg>
