<svg width="56" height="224" viewBox="0 0 56 224" fill="none" xmlns="http://www.w3.org/2000/svg">
<path fill-rule="evenodd" clip-rule="evenodd" d="M28 18.7814C27.4121 18.7814 26.9355 19.258 26.9355 19.8459V21.975H23.0323C21.4645 21.975 20.1935 23.2459 20.1935 24.8137V33.3298C20.1935 34.8976 21.4645 36.1685 23.0323 36.1685H32.9677C34.5355 36.1685 35.8065 34.8976 35.8065 33.3298V24.8137C35.8065 23.2459 34.5355 21.975 32.9677 21.975H29.0645V19.8459C29.0645 19.258 28.5879 18.7814 28 18.7814ZM26.1548 27.3686C26.1548 28.1525 25.5194 28.7879 24.7355 28.7879C23.9516 28.7879 23.3161 28.1525 23.3161 27.3686C23.3161 26.5847 23.9516 25.9492 24.7355 25.9492C25.5194 25.9492 26.1548 26.5847 26.1548 27.3686ZM31.3355 28.7879C32.1194 28.7879 32.7548 28.1525 32.7548 27.3686C32.7548 26.5847 32.1194 25.9492 31.3355 25.9492C30.5516 25.9492 29.9161 26.5847 29.9161 27.3686C29.9161 28.1525 30.5516 28.7879 31.3355 28.7879ZM23.7419 32.4782C23.7419 32.0863 24.0597 31.7686 24.4516 31.7686H31.5484C31.9403 31.7686 32.2581 32.0863 32.2581 32.4782C32.2581 32.8702 31.9403 33.1879 31.5484 33.1879H24.4516C24.0597 33.1879 23.7419 32.8702 23.7419 32.4782ZM17 27.8653C17 27.0814 17.6355 26.446 18.4194 26.446H19.129V32.8331H18.4194C17.6355 32.8331 17 32.1976 17 31.4137V27.8653ZM39 27.8653C39 27.0814 38.3645 26.446 37.5806 26.446H36.871V32.8331H37.5806C38.3645 32.8331 39 32.1976 39 31.4137V27.8653Z" fill="#5F5F6A"/>
<path d="M17 83.8653C17 83.0814 17.6355 82.446 18.4194 82.446H19.129V88.8331H18.4194C17.6355 88.8331 17 88.1976 17 87.4137V83.8653Z" fill="#5F5F6A"/>
<path d="M39 83.8653C39 83.0814 38.3645 82.446 37.5806 82.446H36.871V88.8331H37.5806C38.3645 88.8331 39 88.1976 39 87.4137V83.8653Z" fill="#5F5F6A"/>
<path opacity="0.5" d="M28 74.7814C28.5878 74.7815 29.0644 75.258 29.0645 75.8459V77.9748H32.9678C34.5354 77.9749 35.8066 79.246 35.8066 80.8136V89.3302C35.8064 90.8977 34.5353 92.168 32.9678 92.1681H23.0322C21.4646 92.1681 20.1936 90.8978 20.1934 89.3302V80.8136C20.1934 79.2459 21.4645 77.9748 23.0322 77.9748H26.9355V75.8459C26.9356 75.258 27.4121 74.7814 28 74.7814ZM24.4521 87.7687C24.0603 87.7688 23.7422 88.0868 23.7422 88.4787C23.7424 88.8704 24.0604 89.1876 24.4521 89.1877H31.5488C31.9406 89.1877 32.2585 88.8704 32.2588 88.4787C32.2588 88.0867 31.9408 87.7687 31.5488 87.7687H24.4521ZM24.7344 81.9494C23.9506 81.9494 23.3146 82.5846 23.3145 83.3683C23.3145 84.1522 23.9505 84.7883 24.7344 84.7883C25.5182 84.7882 26.1533 84.1522 26.1533 83.3683C26.1532 82.5846 25.5181 81.9495 24.7344 81.9494ZM31.334 81.9494C30.5504 81.9496 29.9152 82.5847 29.915 83.3683C29.915 84.1521 30.5503 84.788 31.334 84.7883C32.1179 84.7883 32.7539 84.1522 32.7539 83.3683C32.7538 82.5846 32.1178 81.9494 31.334 81.9494Z" fill="#5F5F6A"/>
<path fill-rule="evenodd" clip-rule="evenodd" d="M26.9355 131.846C26.9355 131.258 27.4121 130.781 28 130.781C28.5879 130.781 29.0645 131.258 29.0645 131.846V133.975H32.9677C34.5355 133.975 35.8065 135.246 35.8065 136.814V145.33C35.8065 146.898 34.5355 148.169 32.9677 148.169H23.0323C21.4645 148.169 20.1935 146.898 20.1935 145.33V136.814C20.1935 135.246 21.4645 133.975 23.0323 133.975H26.9355V131.846ZM23.0323 135.394C22.2484 135.394 21.6129 136.03 21.6129 136.814V145.33C21.6129 146.114 22.2484 146.749 23.0323 146.749H32.9677C33.7516 146.749 34.3871 146.114 34.3871 145.33V136.814C34.3871 136.03 33.7516 135.394 32.9677 135.394H23.0323ZM26.1548 139.369C26.1548 140.152 25.5194 140.788 24.7355 140.788C23.9516 140.788 23.3161 140.152 23.3161 139.369C23.3161 138.585 23.9516 137.949 24.7355 137.949C25.5194 137.949 26.1548 138.585 26.1548 139.369ZM18.4194 138.446C17.6355 138.446 17 139.081 17 139.865V143.414C17 144.198 17.6355 144.833 18.4194 144.833H19.129V138.446H18.4194ZM37.5806 138.446C38.3645 138.446 39 139.081 39 139.865V143.414C39 144.198 38.3645 144.833 37.5806 144.833H36.871V138.446H37.5806ZM31.3355 140.788C32.1194 140.788 32.7548 140.152 32.7548 139.369C32.7548 138.585 32.1194 137.949 31.3355 137.949C30.5516 137.949 29.9161 138.585 29.9161 139.369C29.9161 140.152 30.5516 140.788 31.3355 140.788ZM23.7419 144.123C23.7419 143.731 24.0597 143.414 24.4516 143.414H31.5484C31.9403 143.414 32.2581 143.731 32.2581 144.123C32.2581 144.515 31.9403 144.833 31.5484 144.833H24.4516C24.0597 144.833 23.7419 144.515 23.7419 144.123Z" fill="#5F5F6A"/>
<path fill-rule="evenodd" clip-rule="evenodd" d="M26.625 188.25C26.625 187.491 27.2406 186.875 28 186.875C28.7594 186.875 29.375 187.491 29.375 188.25V190.175H32.8125C34.3313 190.175 35.5625 191.406 35.5625 192.925V201.175C35.5625 202.694 34.3313 203.925 32.8125 203.925H23.1875C21.6687 203.925 20.4375 202.694 20.4375 201.175V192.925C20.4375 191.406 21.6687 190.175 23.1875 190.175H26.625V188.25ZM28 187.563C27.6203 187.563 27.3125 187.87 27.3125 188.25V189.969H28.6875V188.25C28.6875 187.87 28.3797 187.563 28 187.563ZM23.1875 190.862C22.0484 190.862 21.125 191.786 21.125 192.925V201.175C21.125 202.314 22.0484 203.237 23.1875 203.237H32.8125C33.9516 203.237 34.875 202.314 34.875 201.175V192.925C34.875 191.786 33.9516 190.862 32.8125 190.862H23.1875ZM17 195.881C17 194.932 17.7695 194.162 18.7188 194.162H19.75V201.037H18.7188C17.7695 201.037 17 200.268 17 199.319V195.881ZM18.7188 194.85C18.1492 194.85 17.6875 195.312 17.6875 195.881V199.319C17.6875 199.888 18.1492 200.35 18.7188 200.35H19.0625V194.85H18.7188ZM37.2812 194.162C38.2305 194.162 39 194.932 39 195.881V199.319C39 200.268 38.2305 201.037 37.2812 201.037H36.25V194.162H37.2812ZM38.3125 195.881C38.3125 195.312 37.8508 194.85 37.2812 194.85H36.9375V200.35H37.2812C37.8508 200.35 38.3125 199.888 38.3125 199.319V195.881ZM24.5625 199.662C24.1828 199.662 23.875 199.97 23.875 200.35C23.875 200.73 24.1828 201.037 24.5625 201.037H31.4375C31.8172 201.037 32.125 200.73 32.125 200.35C32.125 199.97 31.8172 199.662 31.4375 199.662H24.5625ZM26.2125 195.4C26.2125 196.159 25.5969 196.775 24.8375 196.775C24.0781 196.775 23.4625 196.159 23.4625 195.4C23.4625 194.641 24.0781 194.025 24.8375 194.025C25.5969 194.025 26.2125 194.641 26.2125 195.4ZM31.2313 196.775C31.9907 196.775 32.6063 196.159 32.6063 195.4C32.6063 194.641 31.9907 194.025 31.2313 194.025C30.4719 194.025 29.8563 194.641 29.8563 195.4C29.8563 196.159 30.4719 196.775 31.2313 196.775Z" fill="#5F5F6A"/>
</svg>
