<svg width="56" height="224" viewBox="0 0 56 224" fill="none" xmlns="http://www.w3.org/2000/svg">
<path fill-rule="evenodd" clip-rule="evenodd" d="M35.1974 19.2003C32.3046 19.0907 30.0213 19.4944 28.1823 20.8507C27.3242 21.4835 26.5843 22.3082 25.9288 23.3455H22.4726C22.05 23.3455 21.6598 23.572 21.4501 23.9389L19.5161 27.3236C19.1797 27.9125 19.6048 28.6451 20.283 28.6451H24.5828C24.5962 28.6464 24.6098 28.6474 24.6235 28.648C25.3048 28.6764 25.8358 28.915 26.2022 29.2803C26.5511 29.6282 26.7852 30.1255 26.8326 30.7598L26.9479 35.321C26.965 35.999 27.7081 36.4055 28.2882 36.0543L31.6228 34.0353C31.9843 33.8164 32.2008 33.4206 32.1902 32.9981L32.0998 29.4216C33.129 28.7684 33.9731 28.0508 34.6314 27.2268C36.0717 25.424 36.5588 23.1972 36.309 20.2594C36.2592 19.6745 35.7798 19.2224 35.1974 19.2003ZM31.7286 25.1121C32.5416 25.1121 33.2006 24.453 33.2006 23.6399C33.2006 22.8269 32.5416 22.1678 31.7286 22.1678C30.9156 22.1678 30.2565 22.8269 30.2565 23.6399C30.2565 24.453 30.9156 25.1121 31.7286 25.1121Z" fill="#5F5F6A"/>
<path fill-rule="evenodd" clip-rule="evenodd" d="M24.8001 30.3019C23.821 29.4454 22.333 29.5449 21.4766 30.524C20.8525 31.2376 20.7002 33.3118 20.6635 34.3845C20.6514 34.7364 20.9573 35.004 21.3045 34.9453C22.3627 34.7661 24.3981 34.339 25.0222 33.6255C25.4614 33.1233 25.6492 32.4872 25.5959 31.8711C25.5452 31.2861 25.277 30.719 24.8001 30.3019ZM22.8375 31.6539C22.8257 31.6786 22.801 31.7337 22.7692 31.8301C22.7056 32.0233 22.6451 32.2851 22.5933 32.6033C22.579 32.6912 22.5658 32.7804 22.5537 32.8701C22.6411 32.8462 22.7277 32.8213 22.8129 32.7954C23.1214 32.7018 23.3728 32.6069 23.5558 32.5181C23.6472 32.4738 23.6986 32.4419 23.7214 32.4269C23.8107 32.3079 23.8484 32.1663 23.836 32.0236C23.8231 31.875 23.7569 31.7363 23.6371 31.6315C23.4038 31.4275 23.0551 31.4405 22.8375 31.6539Z" fill="#5F5F6A"/>
<g opacity="0.5">
<path d="M22.4568 79.3362C22.0328 79.3362 21.6414 79.5633 21.4311 79.9314L19.4911 83.3265C19.1536 83.9172 19.5801 84.6521 20.2603 84.6521H24.866L27.1442 79.3362H22.4568Z" fill="#5F5F6A"/>
<path d="M32.1524 89.0995C32.1503 89.5234 31.9212 89.9137 31.5521 90.1222L28.1474 92.0452C27.555 92.3798 26.8223 91.9496 26.8257 91.2694L26.8488 86.6636L32.1759 84.412L32.1524 89.0995Z" fill="#5F5F6A"/>
<path fill-rule="evenodd" clip-rule="evenodd" d="M21.4577 86.5368C22.3167 85.5546 23.8093 85.4549 24.7914 86.3139C25.2698 86.7324 25.5389 87.3012 25.5897 87.888C25.6432 88.506 25.4549 89.144 25.0143 89.6478C24.3882 90.3635 22.3465 90.7919 21.285 90.9716C20.9368 91.0306 20.6299 90.7622 20.642 90.4092C20.6788 89.3332 20.8316 87.2525 21.4577 86.5368ZM22.7543 87.8469C22.7861 87.7502 22.8109 87.695 22.8228 87.6702C23.041 87.456 23.3909 87.443 23.6248 87.6477C23.745 87.7528 23.8115 87.8919 23.8244 88.041C23.8368 88.1841 23.799 88.3262 23.7094 88.4456C23.6865 88.4606 23.635 88.4925 23.5433 88.537C23.3597 88.6261 23.1075 88.7212 22.7981 88.8152C22.7127 88.8411 22.6257 88.8661 22.5381 88.8901C22.5503 88.8001 22.5635 88.7106 22.5778 88.6224C22.6297 88.3033 22.6904 88.0407 22.7543 87.8469Z" fill="#5F5F6A"/>
</g>
<path fill-rule="evenodd" clip-rule="evenodd" d="M28.1398 76.8661C29.9917 75.4798 32.2952 75.0673 35.2203 75.1782C35.8045 75.2004 36.2854 75.6539 36.3353 76.2406C36.5881 79.2133 36.0885 81.4595 34.6155 83.2754C33.1672 85.0608 30.8404 86.3479 27.6392 87.5668L26.8384 87.8717V87.0148C26.8384 86.263 26.5904 85.6824 26.1992 85.2913C25.8081 84.9001 25.2275 84.6521 24.4758 84.6521H23.6641L23.9138 83.8797C25.0028 80.5119 26.2989 78.2441 28.1398 76.8661ZM31.7407 81.1082C32.5562 81.1082 33.2173 80.447 33.2173 79.6315C33.2173 78.816 32.5562 78.1549 31.7407 78.1549C30.9252 78.1549 30.2641 78.816 30.2641 79.6315C30.2641 80.447 30.9252 81.1082 31.7407 81.1082Z" fill="#5F5F6A"/>
<path d="M31.6018 137.198C32.3876 137.198 33.0247 136.561 33.0247 135.775C33.0247 134.99 32.3876 134.353 31.6018 134.353C30.816 134.353 30.1789 134.99 30.1789 135.775C30.1789 136.561 30.816 137.198 31.6018 137.198Z" fill="#5F5F6A"/>
<path fill-rule="evenodd" clip-rule="evenodd" d="M24.6013 140.897C25.261 140.897 25.7444 141.114 26.0607 141.43C26.341 141.71 26.5426 142.121 26.585 142.67L26.5933 142.998L26.6216 144.117L26.6963 147.072C26.7183 147.946 27.6761 148.47 28.4237 148.017L31.647 146.066C32.0838 145.801 32.3454 145.323 32.3325 144.813L32.2491 141.516C33.1865 140.906 33.9695 140.234 34.593 139.466C36.0739 137.64 36.5603 135.394 36.3128 132.484C36.2525 131.775 35.6711 131.227 34.9656 131.2C32.1186 131.092 29.8214 131.491 27.9614 132.883C27.1549 133.487 26.4577 134.257 25.8402 135.206H22.6549C22.1443 135.206 21.6729 135.48 21.4195 135.923L19.5501 139.194C19.1165 139.953 19.6644 140.897 20.5384 140.897L24.6013 140.897ZM25.821 139.365L27.0567 136.482C27.6418 135.502 28.2772 134.779 28.9846 134.25C30.3438 133.232 32.1004 132.832 34.6322 132.898C34.8036 135.386 34.3411 137.066 33.267 138.39C32.2493 139.644 30.6082 140.676 28.1344 141.699C27.9678 141.135 27.6771 140.632 27.2681 140.223C26.8661 139.821 26.3733 139.533 25.821 139.365Z" fill="#5F5F6A"/>
<path fill-rule="evenodd" clip-rule="evenodd" d="M24.9047 142.214C23.9583 141.386 22.52 141.482 21.6922 142.429C21.089 143.118 20.9417 145.123 20.9062 146.16C20.8946 146.5 21.1903 146.759 21.5258 146.702C22.5487 146.529 24.5161 146.116 25.1194 145.426C25.544 144.941 25.7255 144.326 25.6739 143.731C25.6249 143.165 25.3657 142.617 24.9047 142.214ZM23.0077 143.521C22.9962 143.545 22.9723 143.598 22.9416 143.691C22.8801 143.878 22.8216 144.131 22.7716 144.438C22.7578 144.523 22.7451 144.61 22.7334 144.696C22.8178 144.673 22.9015 144.649 22.9839 144.624C23.282 144.534 23.5251 144.442 23.702 144.356C23.7903 144.313 23.8399 144.282 23.862 144.268C23.9484 144.153 23.9848 144.016 23.9728 143.878C23.9604 143.735 23.8963 143.6 23.7805 143.499C23.5551 143.302 23.218 143.315 23.0077 143.521Z" fill="#5F5F6A"/>
<path fill-rule="evenodd" clip-rule="evenodd" d="M31.7286 189.579C30.5904 189.579 29.6677 190.502 29.6677 191.64C29.6677 192.778 30.5904 193.701 31.7286 193.701C32.8667 193.701 33.7894 192.778 33.7894 191.64C33.7894 190.502 32.8667 189.579 31.7286 189.579ZM30.8454 191.64C30.8454 191.152 31.2408 190.757 31.7286 190.757C32.2164 190.757 32.6118 191.152 32.6118 191.64C32.6118 192.128 32.2164 192.523 31.7286 192.523C31.2408 192.523 30.8454 192.128 30.8454 191.64Z" fill="#5F5F6A"/>
<path fill-rule="evenodd" clip-rule="evenodd" d="M24.4862 196.645C25.2356 196.645 25.8143 196.892 26.2043 197.282C26.5512 197.629 26.7852 198.126 26.8326 198.759L26.8414 199.109L26.8601 199.848L26.9479 203.321C26.965 203.999 27.7081 204.406 28.2882 204.054L31.6228 202.035C31.9843 201.816 32.2008 201.421 32.1902 200.998L32.0998 197.422C33.1101 196.78 33.9418 196.077 34.5945 195.273C36.063 193.462 36.561 191.223 36.309 188.259C36.2592 187.675 35.7798 187.222 35.1974 187.2C32.2814 187.09 29.985 187.501 28.1388 188.883C27.2992 189.511 26.5733 190.326 25.9288 191.346H22.4726C22.05 191.346 21.6598 191.572 21.4501 191.939L19.5161 195.324C19.1797 195.912 19.6048 196.645 20.283 196.645H24.4862ZM25.3421 195.554L26.7635 192.237C27.3876 191.188 28.0724 190.404 28.8445 189.826C30.3752 188.68 32.3465 188.273 35.1371 188.377C35.3696 191.143 34.8917 193.037 33.68 194.531C32.5377 195.939 30.6884 197.063 27.9379 198.17C27.8018 197.498 27.4962 196.909 27.037 196.45C26.5835 195.996 26.0033 195.692 25.3421 195.554ZM22.4726 192.523H25.2653C24.83 193.386 24.4328 194.365 24.0606 195.467H20.7903L22.4726 192.523ZM31.0129 201.028L30.94 198.142L28.0287 199.477L28.1123 202.784L31.0129 201.028Z" fill="#5F5F6A"/>
<path fill-rule="evenodd" clip-rule="evenodd" d="M24.8001 198.302C23.821 197.445 22.333 197.545 21.4766 198.524C20.8525 199.238 20.7002 201.312 20.6635 202.385C20.6514 202.736 20.9573 203.004 21.3045 202.945C22.3627 202.766 24.3981 202.339 25.0222 201.625C25.4614 201.123 25.6492 200.487 25.5959 199.871C25.5452 199.286 25.277 198.719 24.8001 198.302ZM24.0247 199.188C23.5352 198.76 22.7912 198.81 22.363 199.299C22.3606 199.303 22.3432 199.326 22.3159 199.38C22.2842 199.443 22.2479 199.531 22.21 199.646C22.1333 199.879 22.0667 200.173 22.0121 200.509C21.9514 200.882 21.9105 201.274 21.8832 201.637C22.2392 201.561 22.622 201.469 22.984 201.359C23.3095 201.26 23.5924 201.155 23.8128 201.048C23.9218 200.995 24.0037 200.947 24.062 200.908C24.1121 200.873 24.133 200.853 24.136 200.85C24.3558 200.599 24.4495 200.283 24.4226 199.973C24.3972 199.679 24.2636 199.397 24.0247 199.188Z" fill="#5F5F6A"/>
</svg>
