<svg width="56" height="224" viewBox="0 0 56 224" fill="none" xmlns="http://www.w3.org/2000/svg">
<path d="M19 21.7C19 20.7611 19.7611 20 20.7 20H23.5333C24.4722 20 25.2333 20.7611 25.2333 21.7V22.8333C25.2333 23.7722 24.4722 24.5333 23.5333 24.5333H22.9667V26.8C22.9667 27.5824 23.6009 28.2167 24.3833 28.2167H25.5402C25.6751 27.4126 26.3743 26.8 27.2167 26.8H35.15C36.0889 26.8 36.85 27.5611 36.85 28.5V29.6333C36.85 30.5722 36.0889 31.3333 35.15 31.3333H27.2167C26.3743 31.3333 25.6751 30.7207 25.5402 29.9167H24.3833C23.8732 29.9167 23.3917 29.7941 22.9667 29.5768V32.4667C22.9667 33.2491 23.6009 33.8833 24.3833 33.8833H25.5402C25.6751 33.0793 26.3743 32.4667 27.2167 32.4667H35.15C36.0889 32.4667 36.85 33.2278 36.85 34.1667V35.3C36.85 36.2389 36.0889 37 35.15 37H27.2167C26.3743 37 25.6751 36.3874 25.5402 35.5833H24.3833C22.662 35.5833 21.2667 34.188 21.2667 32.4667V24.5333H20.7C19.7611 24.5333 19 23.7722 19 22.8333V21.7Z" fill="#5F5F6A"/>
<g opacity="0.5">
<path d="M21.6452 76C20.7366 76 20 76.7366 20 77.6452V78.7419C20 79.6505 20.7366 80.3871 21.6452 80.3871H24.3871C25.2957 80.3871 26.0323 79.6505 26.0323 78.7419V77.6452C26.0323 76.7366 25.2957 76 24.3871 76H21.6452Z" fill="#5F5F6A"/>
<path d="M27.6774 83.129C26.7688 83.129 26.0323 83.8656 26.0323 84.7742V85.871C26.0323 86.7796 26.7688 87.5161 27.6774 87.5161H35.3548C36.2634 87.5161 37 86.7796 37 85.871V84.7742C37 83.8656 36.2634 83.129 35.3548 83.129H27.6774Z" fill="#5F5F6A"/>
<path d="M26.0323 90.2581C26.0323 89.3495 26.7688 88.6129 27.6774 88.6129H35.3548C36.2634 88.6129 37 89.3495 37 90.2581V91.3548C37 92.2634 36.2634 93 35.3548 93H27.6774C26.7688 93 26.0323 92.2634 26.0323 91.3548V90.2581Z" fill="#5F5F6A"/>
</g>
<path d="M21.918 80.3871V88.6129C21.918 90.2787 23.2683 91.629 24.9341 91.629H26.0309V89.9839H24.9341C24.1769 89.9839 23.5631 89.3701 23.5631 88.6129V85.8163C23.9745 86.0265 24.4404 86.1451 24.9341 86.1451H26.0309V84.5H24.9341C24.1769 84.5 23.5631 83.8862 23.5631 83.129V80.3871H21.918Z" fill="#5F5F6A"/>
<path fill-rule="evenodd" clip-rule="evenodd" d="M20 133.859C20 132.832 20.8325 132 21.8594 132H24.5156C25.5425 132 26.375 132.832 26.375 133.859V134.922C26.375 135.949 25.5425 136.781 24.5156 136.781H23.7188V139.172C23.7188 139.905 24.3134 140.5 25.0469 140.5H25.3313C25.4602 139.599 26.2352 138.906 27.1719 138.906H34.6094C35.6363 138.906 36.4688 139.739 36.4688 140.766V141.828C36.4688 142.855 35.6363 143.688 34.6094 143.688H27.1719C26.2352 143.688 25.4602 142.995 25.3313 142.094H25.0469C24.5686 142.094 24.1172 141.979 23.7188 141.775V144.484C23.7188 145.218 24.3134 145.812 25.0469 145.812H25.3313C25.4602 144.911 26.2352 144.219 27.1719 144.219H34.6094C35.6363 144.219 36.4688 145.051 36.4688 146.078V147.141C36.4688 148.168 35.6363 149 34.6094 149H27.1719C26.2352 149 25.4602 148.307 25.3313 147.406H25.0469C23.4332 147.406 22.125 146.098 22.125 144.484V136.781H21.8594C20.8325 136.781 20 135.949 20 134.922V133.859ZM21.8594 133.594C21.7127 133.594 21.5938 133.713 21.5938 133.859V134.922C21.5938 135.069 21.7127 135.188 21.8594 135.188H24.5156C24.6623 135.188 24.7812 135.069 24.7812 134.922V133.859C24.7812 133.713 24.6623 133.594 24.5156 133.594H21.8594ZM27.1719 140.5C27.0252 140.5 26.9062 140.619 26.9062 140.766V141.828C26.9062 141.975 27.0252 142.094 27.1719 142.094H34.6094C34.7561 142.094 34.875 141.975 34.875 141.828V140.766C34.875 140.619 34.7561 140.5 34.6094 140.5H27.1719ZM26.9062 146.078C26.9062 145.931 27.0252 145.812 27.1719 145.812H34.6094C34.7561 145.812 34.875 145.931 34.875 146.078V147.141C34.875 147.287 34.7561 147.406 34.6094 147.406H27.1719C27.0252 147.406 26.9062 147.287 26.9062 147.141V146.078Z" fill="#5F5F6A"/>
<path fill-rule="evenodd" clip-rule="evenodd" d="M20 189.645C20 188.737 20.7366 188 21.6452 188H24.3871C25.2957 188 26.0323 188.737 26.0323 189.645V190.742C26.0323 191.651 25.2957 192.387 24.3871 192.387H23.2903V195.129C23.2903 196.038 24.0269 196.774 24.9355 196.774H25.4839C25.4839 195.866 26.2204 195.129 27.129 195.129H34.8065C35.715 195.129 36.4516 195.866 36.4516 196.774V197.871C36.4516 198.78 35.715 199.516 34.8065 199.516H27.129C26.2204 199.516 25.4839 198.78 25.4839 197.871H24.9355C24.3182 197.871 23.7486 197.667 23.2903 197.323V200.613C23.2903 201.522 24.0269 202.258 24.9355 202.258H25.4839C25.4839 201.349 26.2204 200.613 27.129 200.613H34.8065C35.715 200.613 36.4516 201.349 36.4516 202.258V203.355C36.4516 204.263 35.715 205 34.8065 205H27.129C26.2204 205 25.4839 204.263 25.4839 203.355H24.9355C23.4212 203.355 22.1935 202.127 22.1935 200.613V192.387H21.6452C20.7366 192.387 20 191.651 20 190.742V189.645ZM21.6452 189.097C21.3423 189.097 21.0968 189.342 21.0968 189.645V190.742C21.0968 191.045 21.3423 191.29 21.6452 191.29H24.3871C24.69 191.29 24.9355 191.045 24.9355 190.742V189.645C24.9355 189.342 24.69 189.097 24.3871 189.097H21.6452ZM27.129 196.226C26.8262 196.226 26.5806 196.471 26.5806 196.774V197.871C26.5806 198.174 26.8262 198.419 27.129 198.419H34.8065C35.1093 198.419 35.3548 198.174 35.3548 197.871V196.774C35.3548 196.471 35.1093 196.226 34.8065 196.226H27.129ZM26.5806 202.258C26.5806 201.955 26.8262 201.71 27.129 201.71H34.8065C35.1093 201.71 35.3548 201.955 35.3548 202.258V203.355C35.3548 203.658 35.1093 203.903 34.8065 203.903H27.129C26.8262 203.903 26.5806 203.658 26.5806 203.355V202.258Z" fill="#5F5F6A"/>
</svg>
