<svg width="56" height="168" viewBox="0 0 56 168" fill="none" xmlns="http://www.w3.org/2000/svg">
<path d="M26.0572 19.25C26.0967 19.25 26.1367 19.25 26.1773 19.25L29.8227 19.25C29.8633 19.25 29.9033 19.25 29.9428 19.25C30.8913 19.2497 31.5335 19.2494 32.1221 19.4356C32.6416 19.5999 33.1212 19.8691 33.5293 20.2269C33.9929 20.6332 34.3168 21.1797 34.7895 21.9774C34.8096 22.0114 34.83 22.0459 34.8507 22.0808L36.6734 25.154C36.6947 25.1899 36.7157 25.2252 36.7364 25.2601C37.208 26.0546 37.5332 26.6024 37.6636 27.1998C37.7788 27.7273 37.7788 28.2727 37.6636 28.8002C37.5332 29.3976 37.208 29.9454 36.7364 30.7399C36.7157 30.7747 36.6947 30.8101 36.6734 30.8459L34.8507 33.9192C34.83 33.9541 34.8096 33.9886 34.7895 34.0226C34.3168 34.8203 33.9929 35.3668 33.5293 35.7731C33.1212 36.1308 32.6416 36.4 32.1221 36.5644C31.5335 36.7505 30.8913 36.7503 29.9428 36.75C29.9033 36.75 29.8633 36.75 29.8227 36.75H26.1773C26.1367 36.75 26.0967 36.75 26.0573 36.75C25.1087 36.7503 24.4665 36.7505 23.8779 36.5644C23.3584 36.4 22.8788 36.1308 22.4707 35.7731C22.0071 35.3668 21.6832 34.8203 21.2105 34.0226C21.1904 33.9886 21.17 33.9541 21.1493 33.9192L19.3266 30.8459C19.3053 30.8101 19.2843 30.7748 19.2636 30.7399C18.792 29.9454 18.4668 29.3976 18.3364 28.8002C18.2212 28.2727 18.2212 27.7273 18.3364 27.1998C18.4668 26.6024 18.792 26.0546 19.2636 25.2601C19.2843 25.2252 19.3053 25.1899 19.3266 25.154L21.1493 22.0808C21.17 22.0459 21.1904 22.0114 21.2105 21.9774C21.6832 21.1797 22.0071 20.6332 22.4707 20.2269C22.8788 19.8691 23.3584 19.5999 23.8779 19.4356C24.4665 19.2494 25.1087 19.2496 26.0572 19.25ZM26.1773 20.75C25.0634 20.75 24.6701 20.7583 24.3303 20.8658C24.0066 20.9682 23.7101 21.1352 23.4594 21.3549C23.1981 21.5839 22.9973 21.9053 22.4394 22.8459L20.6167 25.9192C20.0579 26.8615 19.874 27.1893 19.8019 27.5198C19.7327 27.8364 19.7327 28.1635 19.8019 28.4802C19.874 28.8106 20.0579 29.1385 20.6167 30.0808L22.4394 33.154C22.9973 34.0947 23.1981 34.416 23.4594 34.6451C23.7101 34.8648 24.0066 35.0318 24.3303 35.1342C24.6701 35.2417 25.0634 35.25 26.1773 35.25H29.8227C30.9366 35.25 31.3299 35.2417 31.6697 35.1342C31.9934 35.0318 32.2899 34.8648 32.5406 34.6451C32.8019 34.416 33.0027 34.0947 33.5606 33.154L35.3833 30.0808C35.9421 29.1385 36.126 28.8107 36.1981 28.4802C36.2673 28.1635 36.2673 27.8364 36.1981 27.5198C36.126 27.1893 35.9421 26.8615 35.3833 25.9192L33.5606 22.8459C33.0027 21.9053 32.8019 21.5839 32.5406 21.3549C32.2899 21.1352 31.9934 20.9682 31.6697 20.8658C31.3299 20.7583 30.9366 20.75 29.8227 20.75L26.1773 20.75Z" fill="#5F5F6A"/>
<path opacity="0.5" d="M28 24.75C26.2051 24.75 24.75 26.2051 24.75 28C24.75 29.7949 26.2051 31.25 28 31.25C29.7949 31.25 31.25 29.7949 31.25 28C31.25 26.2051 29.7949 24.75 28 24.75ZM23.25 28C23.25 25.3766 25.3766 23.25 28 23.25C30.6234 23.25 32.75 25.3766 32.75 28C32.75 30.6234 30.6234 32.75 28 32.75C25.3766 32.75 23.25 30.6234 23.25 28Z" fill="#5F5F6A"/>
<path d="M28 79.25C25.3766 79.25 23.25 81.3766 23.25 84C23.25 86.6234 25.3766 88.75 28 88.75C30.6234 88.75 32.75 86.6234 32.75 84C32.75 81.3766 30.6234 79.25 28 79.25ZM24.75 84C24.75 82.2051 26.2051 80.75 28 80.75C29.7949 80.75 31.25 82.2051 31.25 84C31.25 85.7949 29.7949 87.25 28 87.25C26.2051 87.25 24.75 85.7949 24.75 84Z" fill="#5F5F6A"/>
<path d="M26.0572 75.25C25.1087 75.2496 24.4665 75.2494 23.8779 75.4356C23.3584 75.5999 22.8788 75.8691 22.4707 76.2269C22.0071 76.6332 21.6832 77.1797 21.2105 77.9774L19.2636 81.2601C18.792 82.0546 18.4668 82.6024 18.3364 83.1998C18.2212 83.7273 18.2212 84.2727 18.3364 84.8002C18.4668 85.3976 18.792 85.9454 19.2636 86.7399L21.2105 90.0226C21.6832 90.8203 22.0071 91.3668 22.4707 91.7731C22.8788 92.1308 23.3584 92.4 23.8779 92.5644C24.4665 92.7505 25.1087 92.7503 26.0573 92.75H29.9428C30.8913 92.7503 31.5335 92.7505 32.1221 92.5644C32.6416 92.4 33.1212 92.1308 33.5293 91.7731C33.9929 91.3668 34.3168 90.8203 34.7895 90.0226L36.7364 86.7399C37.208 85.9454 37.5332 85.3976 37.6636 84.8002C37.7788 84.2727 37.7788 83.7273 37.6636 83.1998C37.5332 82.6024 37.208 82.0546 36.7364 81.2601L34.7895 77.9774C34.3168 77.1797 33.9929 76.6332 33.5293 76.2269C33.1212 75.8691 32.6416 75.5999 32.1221 75.4356C31.5335 75.2494 30.8913 75.2497 29.9428 75.25L26.0572 75.25ZM24.3303 76.8658C24.6701 76.7583 25.0634 76.75 26.1773 76.75L29.8227 76.75C30.9366 76.75 31.3299 76.7583 31.6697 76.8658C31.9934 76.9682 32.2899 77.1352 32.5406 77.3549C32.8019 77.5839 33.0027 77.9053 33.5606 78.8459L35.3833 81.9192C35.9421 82.8615 36.126 83.1893 36.1981 83.5198C36.2673 83.8364 36.2673 84.1635 36.1981 84.4802C36.126 84.8107 35.9421 85.1385 35.3833 86.0808L33.5606 89.154C33.0027 90.0947 32.8019 90.416 32.5406 90.6451C32.2899 90.8648 31.9934 91.0318 31.6697 91.1342C31.3299 91.2417 30.9366 91.25 29.8227 91.25H26.1773C25.0634 91.25 24.6701 91.2417 24.3303 91.1342C24.0066 91.0318 23.7101 90.8648 23.4594 90.6451C23.1981 90.416 22.9973 90.0947 22.4394 89.154L20.6167 86.0808C20.0579 85.1385 19.874 84.8106 19.8019 84.4802C19.7327 84.1635 19.7327 83.8364 19.8019 83.5198C19.874 83.1893 20.0579 82.8615 20.6167 81.9192L22.4394 78.8459C22.9973 77.9053 23.1981 77.5839 23.4594 77.3549C23.7101 77.1352 24.0066 76.9682 24.3303 76.8658Z" fill="#5F5F6A"/>
<path d="M28 135.5C25.5147 135.5 23.5 137.515 23.5 140C23.5 142.485 25.5147 144.5 28 144.5C30.4853 144.5 32.5 142.485 32.5 140C32.5 137.515 30.4853 135.5 28 135.5ZM24.5 140C24.5 138.067 26.067 136.5 28 136.5C29.933 136.5 31.5 138.067 31.5 140C31.5 141.933 29.933 143.5 28 143.5C26.067 143.5 24.5 141.933 24.5 140Z" fill="#5F5F6A"/>
<path d="M26.0874 131.5C25.1091 131.5 24.5042 131.5 23.9533 131.674C23.4665 131.828 23.0174 132.08 22.6354 132.415C22.2026 132.794 21.8982 133.308 21.4103 134.131L19.4942 137.361C19.0073 138.182 18.7022 138.696 18.5806 139.253C18.4731 139.745 18.4731 140.254 18.5806 140.747C18.7022 141.304 19.0073 141.818 19.4942 142.638L21.4103 145.869C21.8982 146.692 22.2026 147.206 22.6354 147.585C23.0174 147.92 23.4665 148.172 23.9533 148.326C24.5042 148.5 25.1091 148.5 26.0874 148.5H29.9126C30.8909 148.5 31.4958 148.5 32.0467 148.326C32.5335 148.172 32.9826 147.92 33.3646 147.585C33.7974 147.206 34.1018 146.692 34.5897 145.869L36.5058 142.639C36.9927 141.818 37.2978 141.304 37.4194 140.747C37.5269 140.254 37.5269 139.745 37.4194 139.253C37.2978 138.696 36.9927 138.182 36.5058 137.362L34.5897 134.131C34.1018 133.308 33.7974 132.794 33.3646 132.415C32.9826 132.08 32.5335 131.828 32.0467 131.674C31.4958 131.5 30.8909 131.5 29.9126 131.5L26.0874 131.5ZM24.2549 132.627C24.6403 132.506 25.0798 132.5 26.1773 132.5L29.8227 132.5C30.9202 132.5 31.3597 132.506 31.7451 132.627C32.1014 132.74 32.4285 132.924 32.7054 133.167C33.0037 133.428 33.2263 133.792 33.7756 134.718L35.5983 137.792C36.1483 138.719 36.3596 139.087 36.4424 139.466C36.5192 139.818 36.5192 140.182 36.4424 140.534C36.3596 140.913 36.1483 141.281 35.5983 142.208L33.7756 145.282C33.2263 146.208 33.0037 146.572 32.7054 146.833C32.4285 147.076 32.1014 147.26 31.7451 147.373C31.3597 147.494 30.9202 147.5 29.8227 147.5H26.1773C25.0798 147.5 24.6403 147.494 24.2549 147.373C23.8986 147.26 23.5715 147.076 23.2946 146.833C22.9963 146.572 22.7737 146.208 22.2244 145.282L20.4017 142.208C19.8517 141.281 19.6404 140.913 19.5576 140.534C19.4808 140.182 19.4808 139.818 19.5576 139.466C19.6404 139.087 19.8517 138.719 20.4017 137.792L22.2244 134.718C22.7737 133.792 22.9963 133.428 23.2946 133.167C23.5715 132.924 23.8986 132.74 24.2549 132.627Z" fill="#5F5F6A"/>
</svg>
