<svg width="56" height="224" viewBox="0 0 56 224" fill="none" xmlns="http://www.w3.org/2000/svg">
<path d="M22.6696 19.75H32.3304C32.8646 19.75 33.3104 19.75 33.6747 19.7797C35.0837 19.8949 36.0427 20.8996 36.1557 22.3238C36.2201 23.1352 36.2397 24.2716 36.2466 24.9419C36.2485 25.1276 36.2497 25.3134 36.25 25.4992C36.25 25.9134 35.9142 26.25 35.5 26.25C35.0858 26.25 34.75 25.9142 34.75 25.5C34.7488 25.0833 34.7444 24.6666 34.7359 24.25H20.25V32.3C20.25 32.8724 20.2506 33.2566 20.2748 33.5525C20.2982 33.8396 20.3401 33.9769 20.3862 34.0675C20.5061 34.3027 20.6973 34.4939 20.9325 34.6138C21.0231 34.6599 21.1604 34.7018 21.4475 34.7252C21.7434 34.7494 22.1276 34.75 22.7 34.75H32.3C32.8724 34.75 33.2566 34.7494 33.5525 34.7252C33.8396 34.7018 33.9769 34.6599 34.0675 34.6138C34.4366 34.4257 34.8882 34.5725 35.0762 34.9415C35.2643 35.3106 35.1175 35.7622 34.7485 35.9503C34.4112 36.1221 34.0546 36.1892 33.6747 36.2203C33.3105 36.25 32.8646 36.25 32.3305 36.25H22.6695C22.1354 36.25 21.6895 36.25 21.3253 36.2203C20.9454 36.1892 20.5888 36.1221 20.2515 35.9503C19.7341 35.6866 19.3134 35.2659 19.0497 34.7485C18.8779 34.4112 18.8108 34.0546 18.7797 33.6747C18.75 33.3104 18.75 32.8646 18.75 32.3305V23.6696C18.75 23.137 18.75 22.6896 18.7797 22.3253C18.8926 20.944 19.9139 19.8951 21.3253 19.7797C21.6896 19.75 22.1354 19.75 22.6696 19.75Z" fill="#5F5F6A"/>
<path d="M21.75 26C21.75 25.5858 22.0858 25.25 22.5 25.25H28.5C28.9142 25.25 29.25 25.5858 29.25 26C29.25 26.4142 28.9142 26.75 28.5 26.75H22.5C22.0858 26.75 21.75 26.4142 21.75 26Z" fill="#5F5F6A"/>
<path fill-rule="evenodd" clip-rule="evenodd" d="M33 26.25C31.2051 26.25 29.75 27.7051 29.75 29.5C29.75 31.2949 31.2051 32.75 33 32.75C33.6257 32.75 34.2102 32.5732 34.7061 32.2667L35.9697 33.5303C36.2626 33.8232 36.7374 33.8232 37.0303 33.5303C37.3232 33.2374 37.3232 32.7626 37.0303 32.4697L35.7667 31.2061C36.0732 30.7102 36.25 30.1257 36.25 29.5C36.25 27.7051 34.7949 26.25 33 26.25ZM31.25 29.5C31.25 28.5335 32.0335 27.75 33 27.75C33.9665 27.75 34.75 28.5335 34.75 29.5C34.75 30.4665 33.9665 31.25 33 31.25C32.0335 31.25 31.25 30.4665 31.25 29.5Z" fill="#5F5F6A"/>
<path d="M21.75 28C21.75 27.5858 22.0858 27.25 22.5 27.25H25.5C25.9142 27.25 26.25 27.5858 26.25 28C26.25 28.4142 25.9142 28.75 25.5 28.75H22.5C22.0858 28.75 21.75 28.4142 21.75 28Z" fill="#5F5F6A"/>
<path d="M22.5 30.25C22.0858 30.25 21.75 30.5858 21.75 31C21.75 31.4142 22.0858 31.75 22.5 31.75H27.5C27.9142 31.75 28.25 31.4142 28.25 31C28.25 30.5858 27.9142 30.25 27.5 30.25H22.5Z" fill="#5F5F6A"/>
<path d="M21.75 33C21.75 32.5858 22.0858 32.25 22.5 32.25H25.5C25.9142 32.25 26.25 32.5858 26.25 33C26.25 33.4142 25.9142 33.75 25.5 33.75H22.5C22.0858 33.75 21.75 33.4142 21.75 33Z" fill="#5F5F6A"/>
<path opacity="0.5" d="M35.4999 79.5H19.5C19.5008 78.5116 19.5133 77.9936 19.7179 77.592C19.9097 77.2157 20.2156 76.9097 20.592 76.718C21.0198 76.5 21.5798 76.5 22.6999 76.5H32.2999C33.4201 76.5 33.9801 76.5 34.4079 76.718C34.7843 76.9097 35.0902 77.2157 35.282 77.592C35.4866 77.9936 35.4991 78.5116 35.4999 79.5Z" fill="#5F5F6A"/>
<path fill-rule="evenodd" clip-rule="evenodd" d="M32.3304 75.75H22.6696C22.1354 75.75 21.6896 75.75 21.3253 75.7797C19.9139 75.8951 18.8926 76.944 18.7797 78.3253C18.75 78.6897 18.75 79.1368 18.75 79.6696V88.3304C18.75 88.8646 18.75 89.3104 18.7797 89.6747C18.8108 90.0546 18.8779 90.4112 19.0497 90.7485C19.3134 91.2659 19.7341 91.6866 20.2515 91.9503C20.5888 92.1221 20.9454 92.1892 21.3253 92.2203C21.6895 92.25 22.1354 92.25 22.6695 92.25H32.3305C32.8646 92.25 33.3105 92.25 33.6747 92.2203C34.0546 92.1892 34.4112 92.1221 34.7485 91.9503C35.1175 91.7622 35.2643 91.3106 35.0762 90.9415C34.8882 90.5725 34.4366 90.4257 34.0675 90.6138C33.9769 90.6599 33.8396 90.7018 33.5525 90.7252C33.2566 90.7494 32.8724 90.75 32.3 90.75H22.7C22.1276 90.75 21.7434 90.7494 21.4475 90.7252C21.1604 90.7018 21.0231 90.6599 20.9325 90.6138C20.6973 90.4939 20.5061 90.3027 20.3862 90.0675C20.3401 89.9769 20.2982 89.8396 20.2748 89.5525C20.2506 89.2566 20.25 88.8724 20.25 88.3V80.25H34.7359C34.7444 80.6666 34.7488 81.0833 34.75 81.5C34.75 81.9142 35.0858 82.25 35.5 82.25C35.9142 82.25 36.25 81.9134 36.25 81.4992C36.2497 81.3134 36.2485 81.1276 36.2466 80.9419C36.2397 80.2716 36.2201 79.1352 36.1557 78.3238C36.0427 76.8996 35.0837 75.8949 33.6747 75.7797C33.3104 75.75 32.8646 75.75 32.3304 75.75ZM34.6815 78.75C34.6338 77.9528 34.4042 77.3443 33.5525 77.2748C33.2566 77.2506 32.8724 77.25 32.3 77.25H22.7C22.1276 77.25 21.7434 77.2506 21.4475 77.2748C20.6285 77.3417 20.2845 77.9554 20.2584 78.75H34.6815Z" fill="#5F5F6A"/>
<path d="M22.5 81.25C22.0858 81.25 21.75 81.5858 21.75 82C21.75 82.4142 22.0858 82.75 22.5 82.75H28.5C28.9142 82.75 29.25 82.4142 29.25 82C29.25 81.5858 28.9142 81.25 28.5 81.25H22.5Z" fill="#5F5F6A"/>
<path fill-rule="evenodd" clip-rule="evenodd" d="M33 82.25C31.2051 82.25 29.75 83.7051 29.75 85.5C29.75 87.2949 31.2051 88.75 33 88.75C33.6257 88.75 34.2102 88.5732 34.7061 88.2667L35.9697 89.5303C36.2626 89.8232 36.7374 89.8232 37.0303 89.5303C37.3232 89.2374 37.3232 88.7626 37.0303 88.4697L35.7667 87.2061C36.0732 86.7102 36.25 86.1257 36.25 85.5C36.25 83.7051 34.7949 82.25 33 82.25ZM31.25 85.5C31.25 84.5335 32.0335 83.75 33 83.75C33.9665 83.75 34.75 84.5335 34.75 85.5C34.75 86.4665 33.9665 87.25 33 87.25C32.0335 87.25 31.25 86.4665 31.25 85.5Z" fill="#5F5F6A"/>
<path d="M22.5 83.25C22.0858 83.25 21.75 83.5858 21.75 84C21.75 84.4142 22.0858 84.75 22.5 84.75H25.5C25.9142 84.75 26.25 84.4142 26.25 84C26.25 83.5858 25.9142 83.25 25.5 83.25H22.5Z" fill="#5F5F6A"/>
<path d="M22.5 86.25C22.0858 86.25 21.75 86.5858 21.75 87C21.75 87.4142 22.0858 87.75 22.5 87.75H27.5C27.9142 87.75 28.25 87.4142 28.25 87C28.25 86.5858 27.9142 86.25 27.5 86.25H22.5Z" fill="#5F5F6A"/>
<path d="M22.5 88.25C22.0858 88.25 21.75 88.5858 21.75 89C21.75 89.4142 22.0858 89.75 22.5 89.75H25.5C25.9142 89.75 26.25 89.4142 26.25 89C26.25 88.5858 25.9142 88.25 25.5 88.25H22.5Z" fill="#5F5F6A"/>
<path fill-rule="evenodd" clip-rule="evenodd" d="M32.3304 131.75H22.6696C22.1354 131.75 21.6896 131.75 21.3253 131.78C19.9139 131.895 18.8926 132.944 18.7797 134.325C18.75 134.69 18.75 135.137 18.75 135.67V144.33C18.75 144.865 18.75 145.31 18.7797 145.675C18.8108 146.055 18.8779 146.411 19.0497 146.748C19.3134 147.266 19.7341 147.687 20.2515 147.95C20.5888 148.122 20.9454 148.189 21.3253 148.22C21.6895 148.25 22.1354 148.25 22.6695 148.25H32.3305C32.8646 148.25 33.3105 148.25 33.6747 148.22C34.0546 148.189 34.4112 148.122 34.7485 147.95C35.1175 147.762 35.2643 147.311 35.0762 146.942C34.8882 146.572 34.4366 146.426 34.0675 146.614C33.9769 146.66 33.8396 146.702 33.5525 146.725C33.2566 146.749 32.8724 146.75 32.3 146.75H22.7C22.1276 146.75 21.7434 146.749 21.4475 146.725C21.1604 146.702 21.0231 146.66 20.9325 146.614C20.6973 146.494 20.5061 146.303 20.3862 146.067C20.3401 145.977 20.2982 145.84 20.2748 145.553C20.2506 145.257 20.25 144.872 20.25 144.3V136.25H34.7359C34.7444 136.667 34.7488 137.083 34.75 137.5C34.75 137.914 35.0858 138.25 35.5 138.25C35.9142 138.25 36.25 137.913 36.25 137.499C36.2497 137.313 36.2485 137.128 36.2466 136.942C36.2397 136.272 36.2201 135.135 36.1557 134.324C36.0427 132.9 35.0837 131.895 33.6747 131.78C33.3104 131.75 32.8646 131.75 32.3304 131.75ZM34.6815 134.75C34.6338 133.953 34.4042 133.344 33.5525 133.275C33.2566 133.251 32.8724 133.25 32.3 133.25H22.7C22.1276 133.25 21.7434 133.251 21.4475 133.275C20.6285 133.342 20.2845 133.955 20.2584 134.75H34.6815Z" fill="#5F5F6A"/>
<path d="M22.5 137.25C22.0858 137.25 21.75 137.586 21.75 138C21.75 138.414 22.0858 138.75 22.5 138.75H28.5C28.9142 138.75 29.25 138.414 29.25 138C29.25 137.586 28.9142 137.25 28.5 137.25H22.5Z" fill="#5F5F6A"/>
<path fill-rule="evenodd" clip-rule="evenodd" d="M33 138.25C31.2051 138.25 29.75 139.705 29.75 141.5C29.75 143.295 31.2051 144.75 33 144.75C33.6257 144.75 34.2102 144.573 34.7061 144.267L35.9697 145.53C36.2626 145.823 36.7374 145.823 37.0303 145.53C37.3232 145.237 37.3232 144.763 37.0303 144.47L35.7667 143.206C36.0732 142.71 36.25 142.126 36.25 141.5C36.25 139.705 34.7949 138.25 33 138.25ZM31.25 141.5C31.25 140.534 32.0335 139.75 33 139.75C33.9665 139.75 34.75 140.534 34.75 141.5C34.75 142.466 33.9665 143.25 33 143.25C32.0335 143.25 31.25 142.466 31.25 141.5Z" fill="#5F5F6A"/>
<path d="M22.5 139.25C22.0858 139.25 21.75 139.586 21.75 140C21.75 140.414 22.0858 140.75 22.5 140.75H25.5C25.9142 140.75 26.25 140.414 26.25 140C26.25 139.586 25.9142 139.25 25.5 139.25H22.5Z" fill="#5F5F6A"/>
<path d="M22.5 142.25C22.0858 142.25 21.75 142.586 21.75 143C21.75 143.414 22.0858 143.75 22.5 143.75H27.5C27.9142 143.75 28.25 143.414 28.25 143C28.25 142.586 27.9142 142.25 27.5 142.25H22.5Z" fill="#5F5F6A"/>
<path d="M22.5 144.25C22.0858 144.25 21.75 144.586 21.75 145C21.75 145.414 22.0858 145.75 22.5 145.75H25.5C25.9142 145.75 26.25 145.414 26.25 145C26.25 144.586 25.9142 144.25 25.5 144.25H22.5Z" fill="#5F5F6A"/>
<path d="M32.2998 188C32.8516 188 33.2957 188 33.6543 188.029C34.0186 188.059 34.3387 188.122 34.6348 188.272C35.0462 188.482 35.3907 188.801 35.6309 189.192L35.7275 189.365L35.8203 189.578C35.8994 189.795 35.9409 190.026 35.9648 190.278C35.9963 190.609 35.9996 191.011 36 191.5C36.0137 191.966 35.9927 192.609 35.9961 192.944C35.9978 193.112 35.9996 193.251 36 193.348V193.5C36 193.776 35.7761 194 35.5 194C35.2583 194 35.0563 193.829 35.0098 193.601L35 193.5V193.352C34.9996 193.256 34.9988 193.12 34.9971 192.955C34.9944 192.692 34.9872 192.356 34.9785 192H20V200.3C20 200.868 20.0002 201.265 20.0254 201.573C20.0501 201.875 20.0961 202.049 20.1631 202.181C20.3069 202.463 20.5371 202.693 20.8193 202.837C20.9509 202.904 21.1247 202.95 21.4268 202.975C21.7352 203 22.1319 203 22.7002 203H32.2998C32.8681 203 33.2648 203 33.5732 202.975C33.8753 202.95 34.0491 202.904 34.1807 202.837C34.4266 202.712 34.7281 202.809 34.8535 203.055C34.9789 203.301 34.8808 203.602 34.6348 203.728C34.3387 203.878 34.0186 203.941 33.6543 203.971C33.2957 204 32.8516 204 32.2998 204H22.7002C22.1484 204 21.7043 204 21.3457 203.971C20.9814 203.941 20.6613 203.878 20.3652 203.728C19.8948 203.488 19.5121 203.105 19.2725 202.635C19.1216 202.339 19.0591 202.019 19.0293 201.654C19 201.296 19 200.852 19 200.3V191.7C19 191.635 19.0019 191.572 19.002 191.51C19.0019 191.507 19 191.503 19 191.5C19.0001 191.322 19.0018 191.155 19.0039 191C19.0046 190.95 19.0048 190.901 19.0059 190.853C19.0066 190.818 19.0078 190.784 19.0088 190.751C19.0106 190.688 19.0128 190.627 19.0156 190.568C19.0179 190.52 19.0213 190.473 19.0244 190.427C19.0263 190.399 19.0271 190.372 19.0293 190.346C19.0301 190.336 19.0324 190.327 19.0332 190.317C19.0343 190.304 19.0339 190.291 19.0352 190.278C19.039 190.238 19.0459 190.198 19.0508 190.159C19.0549 190.125 19.0575 190.092 19.0625 190.059C19.0714 190 19.0837 189.943 19.0957 189.887C19.1005 189.864 19.1031 189.841 19.1084 189.819C19.1225 189.761 19.1408 189.704 19.1592 189.647C19.1661 189.626 19.1711 189.604 19.1787 189.583C19.1807 189.577 19.1835 189.572 19.1855 189.566C19.2109 189.498 19.239 189.431 19.2725 189.365C19.5121 188.895 19.8948 188.512 20.3652 188.272C20.6613 188.122 20.9814 188.059 21.3457 188.029C21.7043 188 22.1484 188 22.7002 188H32.2998ZM33 195C34.6569 195 36 196.343 36 198C36 198.648 35.7924 199.246 35.4434 199.736L36.8535 201.146C37.0488 201.342 37.0488 201.658 36.8535 201.854C36.6583 202.049 36.3417 202.049 36.1465 201.854L34.7363 200.443C34.246 200.792 33.6478 201 33 201C31.3431 201 30 199.657 30 198C30 196.343 31.3431 195 33 195ZM25 200.75C25.2761 200.75 25.5 200.974 25.5 201.25C25.5 201.526 25.2761 201.75 25 201.75H23C22.7239 201.75 22.5 201.526 22.5 201.25C22.5 200.974 22.7239 200.75 23 200.75H25ZM33 196C31.8954 196 31 196.895 31 198C31 199.105 31.8954 200 33 200C34.1046 200 35 199.105 35 198C35 196.895 34.1046 196 33 196ZM28 198.5C28.2761 198.5 28.5 198.724 28.5 199C28.5 199.276 28.2761 199.5 28 199.5H22.5C22.2239 199.5 22 199.276 22 199C22 198.724 22.2239 198.5 22.5 198.5H28ZM25 195.75C25.2761 195.75 25.5 195.974 25.5 196.25C25.5 196.526 25.2761 196.75 25 196.75H23C22.7239 196.75 22.5 196.526 22.5 196.25C22.5 195.974 22.7239 195.75 23 195.75H25ZM28 193.75C28.2761 193.75 28.5 193.974 28.5 194.25C28.5 194.526 28.2761 194.75 28 194.75H22.5C22.2239 194.75 22 194.526 22 194.25C22 193.974 22.2239 193.75 22.5 193.75H28ZM22.7002 189C22.1319 189 21.7352 189 21.4268 189.025C21.1247 189.05 20.9509 189.096 20.8193 189.163C20.5371 189.307 20.3069 189.537 20.1631 189.819C20.1401 189.864 20.1206 189.915 20.1025 189.974C20.0697 190.08 20.0446 190.215 20.0283 190.398C20.0135 190.566 20.0082 190.761 20.0049 191H34.9443C34.9343 190.794 34.9231 190.598 34.9092 190.423C34.8943 190.235 34.8776 190.078 34.8594 189.959C34.8436 189.856 34.8314 189.814 34.8311 189.81L34.8369 189.819C34.6931 189.537 34.4629 189.307 34.1807 189.163C34.0491 189.096 33.8753 189.05 33.5732 189.025C33.2648 189 32.8681 189 32.2998 189H22.7002Z" fill="#5F5F6A"/>
</svg>
