<svg width="56" height="168" viewBox="0 0 56 168" fill="none" xmlns="http://www.w3.org/2000/svg">
<path d="M28.5584 18.9818C28.1944 18.8586 27.8 18.8586 27.4361 18.9819L20.6599 21.2767C20.1979 21.4332 19.88 21.8378 19.8434 22.2958C19.5055 26.5216 20.0909 29.6471 21.4799 32.0084C22.8238 34.2931 24.9741 35.9542 27.9973 37.1918C31.0231 35.9541 33.1747 34.293 34.5193 32.0084C35.9089 29.6472 36.4944 26.5218 36.1565 22.296C36.1199 21.838 35.802 21.4334 35.3398 21.2769L28.5584 18.9818ZM26.9549 17.5611C27.6308 17.3322 28.3633 17.3321 29.0393 17.5609L35.8207 19.8561C36.8235 20.1955 37.5651 21.0929 37.6518 22.1765C38.0043 26.5854 37.4111 30.0521 35.812 32.7692C34.2083 35.4942 31.6509 37.367 28.272 38.6978C28.0953 38.7674 27.8988 38.7674 27.7221 38.6977C24.3459 37.3669 21.7899 35.494 20.187 32.7689C18.5887 30.0519 17.9956 26.5852 18.3482 22.1762C18.4348 21.0928 19.1763 20.1955 20.1788 19.856L26.9549 17.5611Z" fill="#5F5F6A"/>
<path opacity="0.5" d="M31.7803 24.9697C32.0732 25.2626 32.0732 25.7374 31.7803 26.0303L27.25 30.5607L24.7197 28.0303C24.4268 27.7374 24.4268 27.2626 24.7197 26.9697C25.0126 26.6768 25.4874 26.6768 25.7803 26.9697L27.25 28.4393L30.7197 24.9697C31.0126 24.6768 31.4874 24.6768 31.7803 24.9697Z" fill="#5F5F6A"/>
<path d="M31.7803 82.0303C32.0732 81.7374 32.0732 81.2626 31.7803 80.9697C31.4874 80.6768 31.0126 80.6768 30.7197 80.9697L27.25 84.4393L25.7803 82.9697C25.4874 82.6768 25.0126 82.6768 24.7197 82.9697C24.4268 83.2626 24.4268 83.7374 24.7197 84.0303L27.25 86.5607L31.7803 82.0303Z" fill="#5F5F6A"/>
<path d="M29.0393 73.5609C28.3633 73.3321 27.6308 73.3322 26.9549 73.5611L20.1788 75.856C19.1763 76.1955 18.4348 77.0928 18.3482 78.1762C17.9956 82.5852 18.5887 86.0519 20.187 88.7689C21.7899 91.494 24.3459 93.3669 27.7221 94.6977C27.8988 94.7674 28.0953 94.7674 28.272 94.6978C31.6509 93.367 34.2083 91.4942 35.812 88.7692C37.4111 86.0521 38.0043 82.5854 37.6518 78.1765C37.5651 77.0929 36.8235 76.1955 35.8207 75.8561L29.0393 73.5609ZM27.4361 74.9819C27.8 74.8586 28.1944 74.8586 28.5584 74.9818L35.3398 77.2769C35.802 77.4334 36.1199 77.838 36.1565 78.296C36.4944 82.5218 35.9089 85.6472 34.5193 88.0084C33.1747 90.293 31.0231 91.9541 27.9973 93.1918C24.9741 91.9542 22.8238 90.2931 21.4799 88.0084C20.0909 85.6471 19.5055 82.5216 19.8434 78.2958C19.88 77.8378 20.1979 77.4332 20.6599 77.2767L27.4361 74.9819Z" fill="#5F5F6A"/>
<path d="M31.7803 138.03C32.0732 137.737 32.0732 137.263 31.7803 136.97C31.4874 136.677 31.0126 136.677 30.7197 136.97L27.25 140.439L25.7803 138.97C25.4874 138.677 25.0126 138.677 24.7197 138.97C24.4268 139.263 24.4268 139.737 24.7197 140.03L27.25 142.561L31.7803 138.03Z" fill="#5F5F6A"/>
<path d="M29.0393 129.561C28.3633 129.332 27.6308 129.332 26.9549 129.561L20.1788 131.856C19.1763 132.196 18.4348 133.093 18.3482 134.176C17.9956 138.585 18.5887 142.052 20.187 144.769C21.7899 147.494 24.3459 149.367 27.7221 150.698C27.8988 150.767 28.0953 150.767 28.272 150.698C31.6509 149.367 34.2083 147.494 35.812 144.769C37.4111 142.052 38.0043 138.585 37.6518 134.176C37.5651 133.093 36.8235 132.195 35.8207 131.856L29.0393 129.561ZM27.4361 130.982C27.8 130.859 28.1944 130.859 28.5584 130.982L35.3398 133.277C35.802 133.433 36.1199 133.838 36.1565 134.296C36.4944 138.522 35.9089 141.647 34.5193 144.008C33.1747 146.293 31.0231 147.954 27.9973 149.192C24.9741 147.954 22.8238 146.293 21.4799 144.008C20.0909 141.647 19.5055 138.522 19.8434 134.296C19.88 133.838 20.1979 133.433 20.6599 133.277L27.4361 130.982Z" fill="#5F5F6A"/>
</svg>
