<svg width="56" height="224" viewBox="0 0 56 224" fill="none" xmlns="http://www.w3.org/2000/svg">
<path d="M33.9316 21C34.2828 21 34.6083 21.1843 34.7891 21.4854L37.0439 25.2432C37.2435 25.5763 37.0037 25.9999 36.6152 26H35.5V34.5C35.5 35.0522 35.0521 35.4998 34.5 35.5H27.5C26.9477 35.5 26.5 35.0523 26.5 34.5V29.2002C26.5 29.0898 26.4102 29.0001 26.2998 29H23.1992C23.089 29.0002 23 29.0899 23 29.2002V34.5C23 35.0522 22.5521 35.4998 22 35.5H21.5C20.9477 35.5 20.5 35.0523 20.5 34.5V26H19.3809C18.9927 25.9997 18.7528 25.5762 18.9521 25.2432L21.207 21.4854C21.3878 21.1842 21.7133 21 22.0645 21H33.9316ZM28.916 28.75C28.686 28.7502 28.5 28.937 28.5 29.167V32.083C28.5 32.313 28.686 32.4998 28.916 32.5H33.083C33.3131 32.5 33.5 32.3131 33.5 32.083V29.167C33.5 28.9369 33.3131 28.75 33.083 28.75H28.916Z" fill="#5F5F6A"/>
<path d="M21.2072 77.4855C21.388 77.1843 21.7135 77 22.0647 77L33.9323 77C34.2836 77 34.6091 77.1843 34.7898 77.4855L37.0442 81.2428C37.2441 81.576 37.0041 82 36.6154 82H19.3816C18.993 82 18.7529 81.576 18.9529 81.2428L21.2072 77.4855Z" fill="#5F5F6A"/>
<path opacity="0.5" fill-rule="evenodd" clip-rule="evenodd" d="M20.5 82V90.5C20.5 91.0523 20.9477 91.5 21.5 91.5H22C22.5523 91.5 23 91.0523 23 90.5V85.2C23 85.0895 23.0895 85 23.2 85H26.3C26.4105 85 26.5 85.0895 26.5 85.2V90.5C26.5 91.0523 26.9477 91.5 27.5 91.5H34.5C35.0523 91.5 35.5 91.0523 35.5 90.5V82H20.5ZM28.5 85.1667C28.5 84.9365 28.6865 84.75 28.9167 84.75H33.0833C33.3135 84.75 33.5 84.9365 33.5 85.1667V88.0833C33.5 88.3135 33.3135 88.5 33.0833 88.5H28.9167C28.6865 88.5 28.5 88.3135 28.5 88.0833V85.1667Z" fill="#5F5F6A"/>
<path fill-rule="evenodd" clip-rule="evenodd" d="M22.0639 133.75C21.9761 133.75 21.8947 133.796 21.8496 133.871L19.8224 137.25H36.1731L34.1459 133.871C34.1007 133.796 34.0194 133.75 33.9316 133.75H22.0639ZM19.3808 138.75H19.75V146.5C19.75 147.466 20.5335 148.25 21.5 148.25H22C22.9665 148.25 23.75 147.466 23.75 146.5V141.75H25.75V146.5C25.75 147.466 26.5335 148.25 27.5 148.25H34.5C35.4665 148.25 36.25 147.466 36.25 146.5V138.75H36.6146C37.5863 138.75 38.1864 137.69 37.6865 136.857L35.4322 133.1C35.1159 132.573 34.5463 132.25 33.9316 132.25H22.0639C21.4492 132.25 20.8796 132.573 20.5633 133.1L18.309 136.857C17.8091 137.69 18.4092 138.75 19.3808 138.75ZM21.25 146.5V138.75H34.75V146.5C34.75 146.638 34.6381 146.75 34.5 146.75H27.5C27.3619 146.75 27.25 146.638 27.25 146.5V141.2C27.25 140.675 26.8247 140.25 26.3 140.25H23.2C22.6753 140.25 22.25 140.675 22.25 141.2V146.5C22.25 146.638 22.1381 146.75 22 146.75H21.5C21.3619 146.75 21.25 146.638 21.25 146.5ZM29.25 143.75V141.5H32.75V143.75H29.25ZM28.9167 140C28.2723 140 27.75 140.522 27.75 141.167V144.083C27.75 144.728 28.2723 145.25 28.9167 145.25H33.0833C33.7277 145.25 34.25 144.728 34.25 144.083V141.167C34.25 140.522 33.7277 140 33.0833 140H28.9167Z" fill="#5F5F6A"/>
<path fill-rule="evenodd" clip-rule="evenodd" d="M22.0655 189.5C21.8899 189.5 21.7271 189.592 21.6368 189.743L19.3824 193.5L36.6162 193.5L34.3619 189.743C34.2715 189.592 34.1088 189.5 33.9331 189.5H22.0655ZM19.3824 194.5H20V202.5C20 203.328 20.6716 204 21.5 204H22C22.8284 204 23.5 203.328 23.5 202.5V197.5H26V202.5C26 203.328 26.6716 204 27.5 204H34.5C35.3284 204 36 203.328 36 202.5V194.5H36.6162C37.3935 194.5 37.8736 193.652 37.4737 192.986L35.2194 189.228C34.9483 188.776 34.46 188.5 33.9331 188.5H22.0655C21.5386 188.5 21.0503 188.776 20.7793 189.228L18.5249 192.986C18.125 193.652 18.6051 194.5 19.3824 194.5ZM21 202.5V194.5H35V202.5C35 202.776 34.7761 203 34.5 203H27.5C27.2239 203 27 202.776 27 202.5V197.2C27 196.813 26.6866 196.5 26.3 196.5H23.2C22.8134 196.5 22.5 196.813 22.5 197.2V202.5C22.5 202.776 22.2761 203 22 203H21.5C21.2239 203 21 202.776 21 202.5ZM29 200V197.25H33V200H29ZM28.9167 196.25C28.4104 196.25 28 196.66 28 197.167V200.083C28 200.59 28.4104 201 28.9167 201H33.0833C33.5896 201 34 200.59 34 200.083V197.167C34 196.66 33.5896 196.25 33.0833 196.25H28.9167Z" fill="#5F5F6A"/>
</svg>
