<svg width="56" height="224" viewBox="0 0 56 224" fill="none" xmlns="http://www.w3.org/2000/svg">
<path d="M29.6161 22.1161C30.1043 21.628 30.8957 21.628 31.3839 22.1161C31.872 22.6043 31.872 23.3957 31.3839 23.8839L29.4318 25.836C29.3493 25.9185 29.2417 26.0263 29.1376 26.1146C29.0147 26.219 28.8173 26.3674 28.5408 26.4572C28.1893 26.5714 27.8107 26.5714 27.4592 26.4572C27.1827 26.3674 26.9853 26.219 26.8624 26.1146C26.7583 26.0263 26.6507 25.9186 26.5682 25.836L24.6161 23.8839C24.128 23.3957 24.128 22.6043 24.6161 22.1161C25.1043 21.628 25.8957 21.628 26.3839 22.1161L28 23.7322L29.6161 22.1161Z" fill="#5F5F6A"/>
<path d="M26.3839 33.8839C25.8957 34.372 25.1043 34.372 24.6161 33.8839C24.128 33.3957 24.128 32.6043 24.6161 32.1161L26.5682 30.164C26.6507 30.0815 26.7583 29.9737 26.8624 29.8854C26.9853 29.781 27.1827 29.6326 27.4592 29.5428C27.8107 29.4286 28.1893 29.4286 28.5408 29.5428C28.8173 29.6326 29.0147 29.781 29.1376 29.8854C29.2417 29.9737 29.3493 30.0814 29.4318 30.164L31.3839 32.1161C31.872 32.6043 31.872 33.3957 31.3839 33.8839C30.8957 34.372 30.1043 34.372 29.6161 33.8839L28 32.2678L26.3839 33.8839Z" fill="#5F5F6A"/>
<path d="M29.7929 78.2929C30.1834 77.9024 30.8166 77.9024 31.2071 78.2929C31.5976 78.6834 31.5976 79.3166 31.2071 79.7071L29.2564 81.6578C29.1722 81.742 29.0717 81.8427 28.9758 81.9241C28.8648 82.0183 28.6962 82.1439 28.4635 82.2195C28.1623 82.3174 27.8377 82.3174 27.5365 82.2195C27.3038 82.1439 27.1352 82.0183 27.0242 81.9241C26.9283 81.8427 26.8278 81.7421 26.7436 81.6578L24.7929 79.7071C24.4024 79.3166 24.4024 78.6834 24.7929 78.2929C25.1834 77.9024 25.8166 77.9024 26.2071 78.2929L28 80.0858L29.7929 78.2929Z" fill="#5F5F6A"/>
<path d="M26.2071 89.7071C25.8166 90.0976 25.1834 90.0976 24.7929 89.7071C24.4024 89.3166 24.4024 88.6834 24.7929 88.2929L26.7436 86.3422C26.8278 86.258 26.9283 86.1573 27.0242 86.0759C27.1352 85.9817 27.3038 85.8561 27.5365 85.7805C27.8377 85.6826 28.1623 85.6826 28.4635 85.7805C28.6962 85.8561 28.8648 85.9817 28.9758 86.0759C29.0717 86.1573 29.1722 86.2579 29.2564 86.3422L31.2071 88.2929C31.5976 88.6834 31.5976 89.3166 31.2071 89.7071C30.8166 90.0976 30.1834 90.0976 29.7929 89.7071L28 87.9142L26.2071 89.7071Z" fill="#5F5F6A"/>
<path d="M29.9697 134.47C30.2626 134.177 30.7374 134.177 31.0303 134.47C31.3232 134.763 31.3232 135.237 31.0303 135.53L29.0817 137.479C28.9954 137.565 28.9017 137.659 28.814 137.733C28.7148 137.818 28.575 137.92 28.3863 137.982C28.1352 138.063 27.8648 138.063 27.6137 137.982C27.425 137.92 27.2852 137.818 27.186 137.733C27.0983 137.659 27.0046 137.565 26.9183 137.479L24.9697 135.53C24.6768 135.237 24.6768 134.763 24.9697 134.47C25.2626 134.177 25.7374 134.177 26.0303 134.47L28 136.439L29.9697 134.47Z" fill="#5F5F6A"/>
<path d="M26.0303 145.53C25.7374 145.823 25.2626 145.823 24.9697 145.53C24.6768 145.237 24.6768 144.763 24.9697 144.47L26.9183 142.521C27.0046 142.435 27.0983 142.341 27.186 142.267C27.2852 142.182 27.425 142.08 27.6137 142.018C27.8648 141.937 28.1352 141.937 28.3863 142.018C28.575 142.08 28.7148 142.182 28.814 142.267C28.9017 142.341 28.9954 142.435 29.0817 142.521L31.0303 144.47C31.3232 144.763 31.3232 145.237 31.0303 145.53C30.7374 145.823 30.2626 145.823 29.9697 145.53L28 143.561L26.0303 145.53Z" fill="#5F5F6A"/>
<path d="M30.1464 190.646C30.3417 190.451 30.6583 190.451 30.8536 190.646C31.0488 190.842 31.0488 191.158 30.8536 191.354L28.908 193.299C28.8187 193.388 28.7319 193.475 28.6522 193.543C28.5648 193.617 28.4539 193.697 28.309 193.744C28.1082 193.809 27.8918 193.809 27.691 193.744C27.5461 193.697 27.4352 193.617 27.3478 193.543C27.2681 193.475 27.1813 193.388 27.092 193.299L25.1464 191.354C24.9512 191.158 24.9512 190.842 25.1464 190.646C25.3417 190.451 25.6583 190.451 25.8536 190.646L27.7879 192.581C27.8927 192.686 27.9503 192.743 27.9949 192.781L28 192.785L28.0051 192.781C28.0497 192.743 28.1073 192.686 28.2121 192.581L30.1464 190.646Z" fill="#5F5F6A"/>
<path d="M25.8536 201.354C25.6583 201.549 25.3417 201.549 25.1464 201.354C24.9512 201.158 24.9512 200.842 25.1464 200.646L27.092 198.701C27.1813 198.612 27.2681 198.525 27.3478 198.457C27.4352 198.383 27.5461 198.303 27.691 198.256C27.8918 198.191 28.1082 198.191 28.309 198.256C28.4539 198.303 28.5648 198.383 28.6522 198.457C28.7318 198.525 28.8187 198.612 28.908 198.701L30.8536 200.646C31.0488 200.842 31.0488 201.158 30.8536 201.354C30.6583 201.549 30.3417 201.549 30.1464 201.354L28.2121 199.419C28.1073 199.314 28.0497 199.257 28.0051 199.219L28 199.215L27.9949 199.219C27.9503 199.257 27.8927 199.314 27.7879 199.419L25.8536 201.354Z" fill="#5F5F6A"/>
</svg>
