<svg width="56" height="224" viewBox="0 0 56 224" fill="none" xmlns="http://www.w3.org/2000/svg">
<path fill-rule="evenodd" clip-rule="evenodd" d="M24.3572 19H31.6428C32.7266 19 33.6007 19 34.3086 19.0578C35.0375 19.1174 35.6777 19.2432 36.27 19.545C37.2108 20.0243 37.9757 20.7892 38.455 21.73C38.7568 22.3223 38.8826 22.9625 38.9422 23.6914C39 24.3992 39 25.2734 39 26.3572V29.6429C39 30.7267 39 31.6008 38.9422 32.3086C38.8826 33.0375 38.7568 33.6777 38.455 34.27C37.9757 35.2108 37.2108 35.9757 36.27 36.455C35.6777 36.7568 35.0375 36.8826 34.3086 36.9422C33.6008 37 32.7266 37 31.6428 37H24.3571C23.2733 37 22.3992 37 21.6914 36.9422C20.9625 36.8826 20.3223 36.7568 19.73 36.455C18.7892 35.9757 18.0243 35.2108 17.545 34.27C17.2432 33.6777 17.1174 33.0375 17.0578 32.3086C17 31.6007 17 30.7266 17 29.6428V26.3572C17 25.2734 17 24.3993 17.0578 23.6914C17.1174 22.9625 17.2432 22.3223 17.545 21.73C18.0243 20.7892 18.7892 20.0243 19.73 19.545C20.3223 19.2432 20.9625 19.1174 21.6914 19.0578C22.3993 19 23.2734 19 24.3572 19ZM27.109 22.546C27 22.7599 27 23.0399 27 23.6V32.4C27 32.9601 27 33.2401 27.109 33.454C27.2049 33.6422 27.3578 33.7951 27.546 33.891C27.7599 34 28.0399 34 28.6 34H32.8C33.9201 34 34.4802 34 34.908 33.782C35.2843 33.5903 35.5903 33.2843 35.782 32.908C36 32.4802 36 31.9201 36 30.8V25.2C36 24.0799 36 23.5198 35.782 23.092C35.5903 22.7157 35.2843 22.4097 34.908 22.218C34.4802 22 33.9201 22 32.8 22H28.6C28.0399 22 27.7599 22 27.546 22.109C27.3578 22.2049 27.2049 22.3578 27.109 22.546Z" fill="#5F5F6A"/>
<path fill-rule="evenodd" clip-rule="evenodd" d="M24.3572 75H31.6428C32.7266 75 33.6007 75 34.3086 75.0578C35.0375 75.1174 35.6777 75.2432 36.27 75.545C37.2108 76.0243 37.9757 76.7892 38.455 77.73C38.7568 78.3223 38.8826 78.9625 38.9422 79.6914C39 80.3993 39 81.2734 39 82.3572V85.6428C39 86.7266 39 87.6008 38.9422 88.3086C38.8826 89.0375 38.7568 89.6777 38.455 90.27C37.9757 91.2108 37.2108 91.9757 36.27 92.455C35.6777 92.7568 35.0375 92.8826 34.3086 92.9422C33.6007 93 32.7266 93 31.6428 93H24.3572C23.2734 93 22.3993 93 21.6914 92.9422C20.9625 92.8826 20.3223 92.7568 19.73 92.455C18.7892 91.9757 18.0243 91.2108 17.545 90.27C17.2432 89.6777 17.1174 89.0375 17.0578 88.3086C17 87.6007 17 86.7266 17 85.6428V82.3572C17 81.2734 17 80.3993 17.0578 79.6914C17.1174 78.9625 17.2432 78.3223 17.545 77.73C18.0243 76.7892 18.7892 76.0243 19.73 75.545C20.3223 75.2432 20.9625 75.1174 21.6914 75.0578C22.3993 75 23.2734 75 24.3572 75ZM21.8542 77.0512C21.2491 77.1006 20.9014 77.1928 20.638 77.327C20.0735 77.6146 19.6146 78.0735 19.327 78.638C19.1928 78.9014 19.1006 79.2491 19.0512 79.8542C19.0008 80.4711 19 81.2634 19 82.4V85.6C19 86.7366 19.0008 87.5289 19.0512 88.1458C19.1006 88.7509 19.1928 89.0986 19.327 89.362C19.6146 89.9265 20.0735 90.3854 20.638 90.673C20.9014 90.8072 21.2491 90.8994 21.8542 90.9488C22.4711 90.9992 23.2634 91 24.4 91H31.6C32.7366 91 33.5289 90.9992 34.1458 90.9488C34.7509 90.8994 35.0986 90.8072 35.362 90.673C35.9265 90.3854 36.3854 89.9265 36.673 89.362C36.8072 89.0986 36.8994 88.7509 36.9488 88.1458C36.9992 87.5289 37 86.7366 37 85.6V82.4C37 81.2634 36.9992 80.4711 36.9488 79.8542C36.8994 79.2491 36.8072 78.9014 36.673 78.638C36.3854 78.0735 35.9265 77.6146 35.362 77.327C35.0986 77.1928 34.7509 77.1006 34.1458 77.0512C33.5289 77.0008 32.7366 77 31.6 77H24.4C23.2634 77 22.4711 77.0008 21.8542 77.0512Z" fill="#5F5F6A"/>
<path opacity="0.5" d="M27 79.6C27 79.0399 27 78.7599 27.109 78.546C27.2049 78.3578 27.3578 78.2049 27.546 78.109C27.7599 78 28.0399 78 28.6 78H32.8C33.9201 78 34.4802 78 34.908 78.218C35.2843 78.4097 35.5903 78.7157 35.782 79.092C36 79.5198 36 80.0799 36 81.2V86.8C36 87.9201 36 88.4802 35.782 88.908C35.5903 89.2843 35.2843 89.5903 34.908 89.782C34.4802 90 33.9201 90 32.8 90H28.6C28.0399 90 27.7599 90 27.546 89.891C27.3578 89.7951 27.2049 89.6422 27.109 89.454C27 89.2401 27 88.9601 27 88.4V79.6Z" fill="#5F5F6A"/>
<path d="M27.109 134.546C27 134.76 27 135.04 27 135.6V144.4C27 144.96 27 145.24 27.109 145.454C27.2049 145.642 27.3578 145.795 27.546 145.891C27.7599 146 28.0399 146 28.6 146H32.8C33.9201 146 34.4802 146 34.908 145.782C35.2843 145.59 35.5903 145.284 35.782 144.908C36 144.48 36 143.92 36 142.8V137.2C36 136.08 36 135.52 35.782 135.092C35.5903 134.716 35.2843 134.41 34.908 134.218C34.4802 134 33.9201 134 32.8 134H28.6C28.0399 134 27.7599 134 27.546 134.109C27.3578 134.205 27.2049 134.358 27.109 134.546Z" fill="#5F5F6A"/>
<path fill-rule="evenodd" clip-rule="evenodd" d="M31.633 131.25H24.367C23.2749 131.25 22.4094 131.25 21.7117 131.307C20.9983 131.365 20.3947 131.487 19.8435 131.768C18.9498 132.223 18.2231 132.95 17.7677 133.844C17.4869 134.395 17.3653 134.998 17.307 135.712C17.25 136.409 17.25 137.275 17.25 138.367V141.633C17.25 142.725 17.25 143.591 17.307 144.288C17.3653 145.002 17.4869 145.605 17.7677 146.156C18.2231 147.05 18.9498 147.777 19.8435 148.232C20.3947 148.513 20.9983 148.635 21.7117 148.693C22.4094 148.75 23.2748 148.75 24.367 148.75H31.633C32.7252 148.75 33.5906 148.75 34.2883 148.693C35.0017 148.635 35.6053 148.513 36.1565 148.232C37.0502 147.777 37.7769 147.05 38.2323 146.156C38.5131 145.605 38.6347 145.002 38.693 144.288C38.75 143.591 38.75 142.725 38.75 141.633V138.367C38.75 137.275 38.75 136.409 38.693 135.712C38.6347 134.998 38.5131 134.395 38.2323 133.844C37.7769 132.95 37.0502 132.223 36.1565 131.768C35.6053 131.487 35.0017 131.365 34.2883 131.307C33.5906 131.25 32.7251 131.25 31.633 131.25ZM20.5245 133.104C20.829 132.949 21.2133 132.853 21.8339 132.802C22.4633 132.751 23.2675 132.75 24.4 132.75H31.6C32.7325 132.75 33.5367 132.751 34.1661 132.802C34.7867 132.853 35.171 132.949 35.4755 133.104C36.087 133.416 36.5842 133.913 36.8958 134.525C37.0509 134.829 37.1473 135.213 37.198 135.834C37.2494 136.463 37.25 137.268 37.25 138.4V141.6C37.25 142.732 37.2494 143.537 37.198 144.166C37.1473 144.787 37.0509 145.171 36.8958 145.475C36.5842 146.087 36.087 146.584 35.4755 146.896C35.171 147.051 34.7867 147.147 34.1661 147.198C33.5367 147.249 32.7325 147.25 31.6 147.25H24.4C23.2675 147.25 22.4633 147.249 21.8339 147.198C21.2133 147.147 20.829 147.051 20.5245 146.896C19.913 146.584 19.4158 146.087 19.1042 145.475C18.9491 145.171 18.8527 144.787 18.802 144.166C18.7506 143.537 18.75 142.732 18.75 141.6V138.4C18.75 137.268 18.7506 136.463 18.802 135.834C18.8527 135.213 18.9491 134.829 19.1042 134.525C19.4158 133.913 19.913 133.416 20.5245 133.104Z" fill="#5F5F6A"/>
<path fill-rule="evenodd" clip-rule="evenodd" d="M32.8214 189.5L28.5807 189.5C28.3172 189.5 28.0898 189.5 27.9025 189.515C27.7048 189.531 27.5082 189.567 27.319 189.663C27.0368 189.807 26.8073 190.037 26.6635 190.319C26.5671 190.508 26.5314 190.705 26.5153 190.902C26.5 191.09 26.5 191.317 26.5 191.581V200.419C26.5 200.683 26.5 200.91 26.5153 201.098C26.5314 201.295 26.5671 201.492 26.6635 201.681C26.8073 201.963 27.0368 202.193 27.319 202.337C27.5082 202.433 27.7048 202.469 27.9025 202.485C28.0898 202.5 28.3171 202.5 28.5807 202.5H32.8214C33.3633 202.5 33.8004 202.5 34.1543 202.471C34.5187 202.441 34.8388 202.378 35.135 202.228C35.6054 201.988 35.9878 201.605 36.2275 201.135C36.3784 200.839 36.4413 200.519 36.4711 200.154C36.5 199.8 36.5 199.363 36.5 198.821V193.179C36.5 192.637 36.5 192.2 36.4711 191.846C36.4413 191.481 36.3784 191.161 36.2275 190.865C35.9878 190.395 35.6054 190.012 35.135 189.772C34.8388 189.622 34.5187 189.559 34.1543 189.529C33.8004 189.5 33.3633 189.5 32.8214 189.5ZM27.773 190.554C27.7977 190.542 27.8481 190.523 27.9839 190.512C28.1256 190.5 28.3117 190.5 28.6 190.5H32.8C33.3683 190.5 33.7645 190.5 34.0729 190.526C34.3755 190.55 34.5493 190.596 34.681 190.663C34.9632 190.807 35.1927 191.037 35.3365 191.319C35.4036 191.451 35.4497 191.625 35.4744 191.927C35.4996 192.236 35.5 192.632 35.5 193.2V198.8C35.5 199.368 35.4996 199.764 35.4744 200.073C35.4497 200.375 35.4036 200.549 35.3365 200.681C35.1927 200.963 34.9632 201.193 34.681 201.337C34.5493 201.404 34.3755 201.45 34.0729 201.474C33.7645 201.5 33.3683 201.5 32.8 201.5H28.6C28.3117 201.5 28.1256 201.5 27.9839 201.488C27.8481 201.477 27.7977 201.458 27.773 201.446C27.6789 201.398 27.6024 201.321 27.5545 201.227C27.5419 201.202 27.5231 201.152 27.512 201.016C27.5004 200.874 27.5 200.688 27.5 200.4V191.6C27.5 191.312 27.5004 191.126 27.512 190.984C27.5231 190.848 27.5419 190.798 27.5545 190.773C27.6024 190.679 27.6789 190.602 27.773 190.554Z" fill="#5F5F6A"/>
<path fill-rule="evenodd" clip-rule="evenodd" d="M31.6226 187.5H24.3774C23.2764 187.5 22.4195 187.5 21.7321 187.556C21.0342 187.613 20.4671 187.731 19.957 187.99C19.1103 188.422 18.4219 189.11 17.9905 189.957C17.7306 190.467 17.6132 191.034 17.5562 191.732C17.5 192.419 17.5 193.276 17.5 194.377V197.623C17.5 198.724 17.5 199.581 17.5562 200.268C17.6132 200.966 17.7306 201.533 17.9905 202.043C18.4219 202.89 19.1103 203.578 19.957 204.01C20.4671 204.269 21.0342 204.387 21.7321 204.444C22.4195 204.5 23.2764 204.5 24.3773 204.5H31.6226C32.7236 204.5 33.5805 204.5 34.2679 204.444C34.9658 204.387 35.5329 204.269 36.043 204.01C36.8897 203.578 37.5781 202.89 38.0095 202.043C38.2694 201.533 38.3868 200.966 38.4438 200.268C38.5 199.581 38.5 198.724 38.5 197.623V194.377C38.5 193.276 38.5 192.419 38.4438 191.732C38.3868 191.034 38.2694 190.467 38.0095 189.957C37.5781 189.11 36.8897 188.422 36.043 187.99C35.5329 187.731 34.9658 187.613 34.2679 187.556C33.5805 187.5 32.7236 187.5 31.6226 187.5ZM20.411 188.881C20.7566 188.705 21.1774 188.605 21.8135 188.553C22.4554 188.5 23.2716 188.5 24.4 188.5H31.6C32.7284 188.5 33.5446 188.5 34.1865 188.553C34.8226 188.605 35.2434 188.705 35.589 188.881C36.2475 189.217 36.783 189.752 37.1185 190.411C37.2946 190.757 37.3952 191.177 37.4472 191.814C37.4996 192.455 37.5 193.272 37.5 194.4V197.6C37.5 198.728 37.4996 199.545 37.4472 200.186C37.3952 200.823 37.2946 201.243 37.1185 201.589C36.783 202.248 36.2475 202.783 35.589 203.119C35.2434 203.295 34.8226 203.395 34.1865 203.447C33.5446 203.5 32.7284 203.5 31.6 203.5H24.4C23.2716 203.5 22.4554 203.5 21.8135 203.447C21.1774 203.395 20.7566 203.295 20.411 203.119C19.7525 202.783 19.217 202.248 18.8815 201.589C18.7054 201.243 18.6048 200.823 18.5528 200.186C18.5004 199.545 18.5 198.728 18.5 197.6V194.4C18.5 193.272 18.5004 192.455 18.5528 191.814C18.6048 191.177 18.7054 190.757 18.8815 190.411C19.217 189.752 19.7525 189.217 20.411 188.881Z" fill="#5F5F6A"/>
</svg>
