<svg width="56" height="168" viewBox="0 0 56 168" fill="none" xmlns="http://www.w3.org/2000/svg">
<path opacity="0.5" d="M26.4697 24.4697C26.7626 24.1768 27.2374 24.1768 27.5303 24.4697L30.5303 27.4697C30.8232 27.7626 30.8232 28.2374 30.5303 28.5303L27.5303 31.5303C27.2374 31.8232 26.7626 31.8232 26.4697 31.5303C26.1768 31.2374 26.1768 30.7626 26.4697 30.4697L28.1893 28.75H20C19.5858 28.75 19.25 28.4142 19.25 28C19.25 27.5858 19.5858 27.25 20 27.25H28.1893L26.4697 25.5303C26.1768 25.2374 26.1768 24.7626 26.4697 24.4697Z" fill="#5F5F6A"/>
<path d="M27.7679 19.25H30.2321C31.0449 19.25 31.7006 19.25 32.2315 19.2934C32.7781 19.338 33.2582 19.4324 33.7025 19.6587C34.4081 20.0183 34.9817 20.5919 35.3413 21.2975C35.5676 21.7418 35.662 22.2219 35.7066 22.7685C35.75 23.2994 35.75 23.955 35.75 24.7679V31.2321C35.75 32.045 35.75 32.7006 35.7066 33.2315C35.662 33.7781 35.5676 34.2582 35.3413 34.7025C34.9817 35.4081 34.4081 35.9818 33.7025 36.3413C33.2582 36.5676 32.7781 36.662 32.2315 36.7066C31.7006 36.75 31.045 36.75 30.2321 36.75H27.7679C26.955 36.75 26.2994 36.75 25.7685 36.7066C25.2219 36.662 24.7418 36.5676 24.2975 36.3413C23.5919 35.9818 23.0183 35.4081 22.6587 34.7025C22.4324 34.2582 22.338 33.7781 22.2934 33.2315C22.25 32.7006 22.25 32.0449 22.25 31.2321L22.25 31C22.25 30.5858 22.5858 30.25 23 30.25C23.4142 30.25 23.75 30.5858 23.75 31V31.2C23.75 32.0525 23.7506 32.6467 23.7884 33.1093C23.8255 33.5632 23.8946 33.824 23.9952 34.0215C24.211 34.4448 24.5552 34.7891 24.9785 35.0048C25.176 35.1054 25.4368 35.1745 25.8907 35.2116C26.3533 35.2494 26.9475 35.25 27.8 35.25H30.2C31.0525 35.25 31.6467 35.2494 32.1093 35.2116C32.5632 35.1745 32.824 35.1054 33.0215 35.0048C33.4448 34.7891 33.7891 34.4448 34.0048 34.0215C34.1054 33.824 34.1745 33.5632 34.2116 33.1093C34.2494 32.6467 34.25 32.0525 34.25 31.2V24.8C34.25 23.9475 34.2494 23.3533 34.2116 22.8907C34.1745 22.4368 34.1054 22.176 34.0048 21.9785C33.7891 21.5552 33.4448 21.211 33.0215 20.9952C32.824 20.8946 32.5632 20.8255 32.1093 20.7884C31.6467 20.7506 31.0525 20.75 30.2 20.75H27.8C26.9475 20.75 26.3533 20.7506 25.8907 20.7884C25.4368 20.8255 25.176 20.8946 24.9785 20.9952C24.5552 21.211 24.211 21.5552 23.9952 21.9785C23.8946 22.176 23.8255 22.4368 23.7884 22.8907C23.7506 23.3533 23.75 23.9475 23.75 24.8V25C23.75 25.4142 23.4142 25.75 23 25.75C22.5858 25.75 22.25 25.4142 22.25 25L22.25 24.7679C22.25 23.9551 22.25 23.2994 22.2934 22.7685C22.338 22.2219 22.4324 21.7418 22.6587 21.2975C23.0183 20.5919 23.5919 20.0183 24.2975 19.6587C24.7418 19.4324 25.2219 19.338 25.7685 19.2934C26.2994 19.25 26.9551 19.25 27.7679 19.25Z" fill="#5F5F6A"/>
<path d="M26.4697 80.4697C26.7626 80.1768 27.2374 80.1768 27.5303 80.4697L30.5303 83.4697C30.8232 83.7626 30.8232 84.2374 30.5303 84.5303L27.5303 87.5303C27.2374 87.8232 26.7626 87.8232 26.4697 87.5303C26.1768 87.2374 26.1768 86.7626 26.4697 86.4697L28.1893 84.75H20C19.5858 84.75 19.25 84.4142 19.25 84C19.25 83.5858 19.5858 83.25 20 83.25H28.1893L26.4697 81.5303C26.1768 81.2374 26.1768 80.7626 26.4697 80.4697Z" fill="#5F5F6A"/>
<path d="M27.7679 75.25H30.2321C31.0449 75.25 31.7006 75.25 32.2315 75.2934C32.7781 75.338 33.2582 75.4324 33.7025 75.6587C34.4081 76.0183 34.9817 76.5919 35.3413 77.2975C35.5676 77.7418 35.662 78.2219 35.7066 78.7685C35.75 79.2994 35.75 79.955 35.75 80.7679V87.2321C35.75 88.045 35.75 88.7006 35.7066 89.2315C35.662 89.7781 35.5676 90.2582 35.3413 90.7025C34.9817 91.4081 34.4081 91.9818 33.7025 92.3413C33.2582 92.5676 32.7781 92.662 32.2315 92.7066C31.7006 92.75 31.045 92.75 30.2321 92.75H27.7679C26.955 92.75 26.2994 92.75 25.7685 92.7066C25.2219 92.662 24.7418 92.5676 24.2975 92.3413C23.5919 91.9818 23.0183 91.4081 22.6587 90.7025C22.4324 90.2582 22.338 89.7781 22.2934 89.2315C22.25 88.7006 22.25 88.0449 22.25 87.2321L22.25 87C22.25 86.5858 22.5858 86.25 23 86.25C23.4142 86.25 23.75 86.5858 23.75 87V87.2C23.75 88.0525 23.7506 88.6467 23.7884 89.1093C23.8255 89.5632 23.8946 89.824 23.9952 90.0215C24.211 90.4448 24.5552 90.7891 24.9785 91.0048C25.176 91.1054 25.4368 91.1745 25.8907 91.2116C26.3533 91.2494 26.9475 91.25 27.8 91.25H30.2C31.0525 91.25 31.6467 91.2494 32.1093 91.2116C32.5632 91.1745 32.824 91.1054 33.0215 91.0048C33.4448 90.7891 33.7891 90.4448 34.0048 90.0215C34.1054 89.824 34.1745 89.5632 34.2116 89.1093C34.2494 88.6467 34.25 88.0525 34.25 87.2V80.8C34.25 79.9475 34.2494 79.3533 34.2116 78.8907C34.1745 78.4368 34.1054 78.176 34.0048 77.9785C33.7891 77.5552 33.4448 77.211 33.0215 76.9952C32.824 76.8946 32.5632 76.8255 32.1093 76.7884C31.6467 76.7506 31.0525 76.75 30.2 76.75H27.8C26.9475 76.75 26.3533 76.7506 25.8907 76.7884C25.4368 76.8255 25.176 76.8946 24.9785 76.9952C24.5552 77.211 24.211 77.5552 23.9952 77.9785C23.8946 78.176 23.8255 78.4368 23.7884 78.8907C23.7506 79.3533 23.75 79.9475 23.75 80.8V81C23.75 81.4142 23.4142 81.75 23 81.75C22.5858 81.75 22.25 81.4142 22.25 81L22.25 80.7679C22.25 79.9551 22.25 79.2994 22.2934 78.7685C22.338 78.2219 22.4324 77.7418 22.6587 77.2975C23.0183 76.5919 23.5919 76.0183 24.2975 75.6587C24.7418 75.4324 25.2219 75.338 25.7685 75.2934C26.2994 75.25 26.9551 75.25 27.7679 75.25Z" fill="#5F5F6A"/>
<path d="M26.6464 136.646C26.8417 136.451 27.1583 136.451 27.3536 136.646L30.3536 139.646C30.5488 139.842 30.5488 140.158 30.3536 140.354L27.3536 143.354C27.1583 143.549 26.8417 143.549 26.6464 143.354C26.4512 143.158 26.4512 142.842 26.6464 142.646L28.7929 140.5H20C19.7239 140.5 19.5 140.276 19.5 140C19.5 139.724 19.7239 139.5 20 139.5H28.7929L26.6464 137.354C26.4512 137.158 26.4512 136.842 26.6464 136.646Z" fill="#5F5F6A"/>
<path d="M27.7778 131.5H30.2222C31.0435 131.5 31.6905 131.5 32.2111 131.543C32.7423 131.586 33.1859 131.676 33.589 131.881C34.2475 132.217 34.783 132.752 35.1185 133.411C35.3239 133.814 35.4141 134.258 35.4575 134.789C35.5 135.31 35.5 135.957 35.5 136.778V143.222C35.5 144.043 35.5 144.69 35.4575 145.211C35.4141 145.742 35.3239 146.186 35.1185 146.589C34.783 147.248 34.2475 147.783 33.589 148.119C33.1859 148.324 32.7423 148.414 32.2111 148.457C31.6905 148.5 31.0435 148.5 30.2222 148.5H27.7778C26.9565 148.5 26.3095 148.5 25.7889 148.457C25.2577 148.414 24.8141 148.324 24.411 148.119C23.7525 147.783 23.217 147.248 22.8815 146.589C22.6761 146.186 22.5859 145.742 22.5425 145.211C22.5 144.69 22.5 144.043 22.5 143.222L22.5 143C22.5 142.724 22.7239 142.5 23 142.5C23.2761 142.5 23.5 142.724 23.5 143V143.2C23.5 144.048 23.5004 144.655 23.5392 145.13C23.5776 145.599 23.6509 145.896 23.7725 146.135C24.0122 146.605 24.3946 146.988 24.865 147.228C25.1037 147.349 25.401 147.422 25.8703 147.461C26.3455 147.5 26.9517 147.5 27.8 147.5H30.2C31.0483 147.5 31.6545 147.5 32.1297 147.461C32.599 147.422 32.8963 147.349 33.135 147.228C33.6054 146.988 33.9878 146.605 34.2275 146.135C34.3491 145.896 34.4224 145.599 34.4608 145.13C34.4996 144.655 34.5 144.048 34.5 143.2V136.8C34.5 135.952 34.4996 135.345 34.4608 134.87C34.4224 134.401 34.3491 134.104 34.2275 133.865C33.9878 133.395 33.6054 133.012 33.135 132.772C32.8963 132.651 32.599 132.578 32.1297 132.539C31.6545 132.5 31.0483 132.5 30.2 132.5H27.8C26.9517 132.5 26.3455 132.5 25.8703 132.539C25.401 132.578 25.1037 132.651 24.865 132.772C24.3946 133.012 24.0122 133.395 23.7725 133.865C23.6509 134.104 23.5776 134.401 23.5392 134.87C23.5004 135.345 23.5 135.952 23.5 136.8V137C23.5 137.276 23.2761 137.5 23 137.5C22.7239 137.5 22.5 137.276 22.5 137L22.5 136.778C22.5 135.957 22.5 135.31 22.5425 134.789C22.5859 134.258 22.6761 133.814 22.8815 133.411C23.217 132.752 23.7525 132.217 24.411 131.881C24.8141 131.676 25.2577 131.586 25.7889 131.543C26.3095 131.5 26.9565 131.5 27.7778 131.5Z" fill="#5F5F6A"/>
</svg>
