<svg width="56" height="168" viewBox="0 0 56 168" fill="none" xmlns="http://www.w3.org/2000/svg">
<path opacity="0.5" d="M28.5303 24.4697C28.8232 24.7626 28.8232 25.2374 28.5303 25.5303L26.8107 27.25H36C36.4142 27.25 36.75 27.5858 36.75 28C36.75 28.4142 36.4142 28.75 36 28.75H26.8107L28.5303 30.4697C28.8232 30.7626 28.8232 31.2374 28.5303 31.5303C28.2374 31.8232 27.7626 31.8232 27.4697 31.5303L24.4697 28.5303C24.1768 28.2374 24.1768 27.7626 24.4697 27.4697L27.4697 24.4697C27.7626 24.1768 28.2374 24.1768 28.5303 24.4697Z" fill="#5F5F6A"/>
<path d="M19.25 28C19.25 23.7198 22.7198 20.25 27 20.25C29.1114 20.25 31.0269 21.0953 32.4239 22.4643C32.7198 22.7542 32.7246 23.2291 32.4347 23.5249C32.1448 23.8208 31.6699 23.8256 31.3741 23.5357C30.246 22.4303 28.7032 21.75 27 21.75C23.5482 21.75 20.75 24.5482 20.75 28C20.75 31.4518 23.5482 34.25 27 34.25C28.7032 34.25 30.246 33.5697 31.3741 32.4643C31.6699 32.1744 32.1448 32.1792 32.4347 32.4751C32.7246 32.7709 32.7198 33.2458 32.4239 33.5357C31.0269 34.9047 29.1114 35.75 27 35.75C22.7198 35.75 19.25 32.2802 19.25 28Z" fill="#5F5F6A"/>
<path d="M27 76.25C22.7198 76.25 19.25 79.7198 19.25 84C19.25 88.2802 22.7198 91.75 27 91.75C29.1114 91.75 31.0269 90.9047 32.4239 89.5357C32.7198 89.2458 32.7246 88.7709 32.4347 88.4751C32.1448 88.1792 31.6699 88.1744 31.3741 88.4643C30.246 89.5697 28.7032 90.25 27 90.25C23.5482 90.25 20.75 87.4518 20.75 84C20.75 80.5482 23.5482 77.75 27 77.75C28.7032 77.75 30.246 78.4303 31.3741 79.5357C31.6699 79.8256 32.1448 79.8208 32.4347 79.5249C32.7246 79.2291 32.7198 78.7542 32.4239 78.4643C31.0269 77.0953 29.1114 76.25 27 76.25Z" fill="#5F5F6A"/>
<path d="M28.5303 81.5303C28.8232 81.2374 28.8232 80.7626 28.5303 80.4697C28.2374 80.1768 27.7626 80.1768 27.4697 80.4697L24.4697 83.4697C24.1768 83.7626 24.1768 84.2374 24.4697 84.5303L27.4697 87.5303C27.7626 87.8232 28.2374 87.8232 28.5303 87.5303C28.8232 87.2374 28.8232 86.7626 28.5303 86.4697L26.8107 84.75H36C36.4142 84.75 36.75 84.4142 36.75 84C36.75 83.5858 36.4142 83.25 36 83.25H26.8107L28.5303 81.5303Z" fill="#5F5F6A"/>
<path d="M28.3535 136.646C28.5488 136.842 28.5488 137.158 28.3535 137.354L26.2071 139.5H36C36.2761 139.5 36.5 139.724 36.5 140C36.5 140.276 36.2761 140.5 36 140.5H26.2071L28.3535 142.646C28.5488 142.842 28.5488 143.158 28.3535 143.354C28.1583 143.549 27.8417 143.549 27.6464 143.354L24.6464 140.354C24.4512 140.158 24.4512 139.842 24.6464 139.646L27.6464 136.646C27.8417 136.451 28.1583 136.451 28.3535 136.646Z" fill="#5F5F6A"/>
<path d="M19.5 140C19.5 135.858 22.8579 132.5 27 132.5C29.0434 132.5 30.8967 133.318 32.2489 134.643C32.4462 134.836 32.4494 135.153 32.2561 135.35C32.0628 135.547 31.7463 135.55 31.549 135.357C30.3762 134.208 28.7712 133.5 27 133.5C23.4101 133.5 20.5 136.41 20.5 140C20.5 143.59 23.4101 146.5 27 146.5C28.7712 146.5 30.3762 145.792 31.549 144.643C31.7463 144.45 32.0628 144.453 32.2561 144.65C32.4494 144.847 32.4462 145.164 32.2489 145.357C30.8967 146.682 29.0434 147.5 27 147.5C22.8579 147.5 19.5 144.142 19.5 140Z" fill="#5F5F6A"/>
</svg>
