<svg width="56" height="168" viewBox="0 0 56 168" fill="none" xmlns="http://www.w3.org/2000/svg">
<path opacity="0.5" d="M27.4697 24.4697C27.7626 24.1768 28.2374 24.1768 28.5303 24.4697L31.5303 27.4697C31.8232 27.7626 31.8232 28.2374 31.5303 28.5303L28.5303 31.5303C28.2374 31.8232 27.7626 31.8232 27.4697 31.5303C27.1768 31.2374 27.1768 30.7626 27.4697 30.4697L29.1893 28.75H20C19.5858 28.75 19.25 28.4142 19.25 28C19.25 27.5858 19.5858 27.25 20 27.25H29.1893L27.4697 25.5303C27.1768 25.2374 27.1768 24.7626 27.4697 24.4697Z" fill="#5F5F6A"/>
<path d="M29.0001 21.75C27.2968 21.75 25.754 22.4303 24.626 23.5357C24.3302 23.8256 23.8553 23.8208 23.5654 23.5249C23.2755 23.2291 23.2803 22.7542 23.5761 22.4643C24.9732 21.0953 26.8887 20.25 29.0001 20.25C33.2803 20.25 36.7501 23.7198 36.7501 28C36.7501 32.2802 33.2803 35.75 29.0001 35.75C26.8887 35.75 24.9732 34.9047 23.5761 33.5357C23.2803 33.2458 23.2755 32.7709 23.5654 32.4751C23.8553 32.1792 24.3302 32.1744 24.626 32.4643C25.754 33.5697 27.2968 34.25 29.0001 34.25C32.4518 34.25 35.2501 31.4518 35.2501 28C35.2501 24.5482 32.4518 21.75 29.0001 21.75Z" fill="#5F5F6A"/>
<path d="M24.626 79.5357C25.754 78.4303 27.2968 77.75 29.0001 77.75C32.4518 77.75 35.2501 80.5482 35.2501 84C35.2501 87.4518 32.4518 90.25 29.0001 90.25C27.2968 90.25 25.754 89.5697 24.626 88.4643C24.3302 88.1744 23.8553 88.1792 23.5654 88.4751C23.2755 88.7709 23.2803 89.2458 23.5761 89.5357C24.9732 90.9047 26.8887 91.75 29.0001 91.75C33.2803 91.75 36.7501 88.2802 36.7501 84C36.7501 79.7198 33.2803 76.25 29.0001 76.25C26.8887 76.25 24.9732 77.0953 23.5761 78.4643C23.2803 78.7542 23.2755 79.2291 23.5654 79.5249C23.8553 79.8208 24.3302 79.8256 24.626 79.5357Z" fill="#5F5F6A"/>
<path d="M28.5303 80.4697C28.2374 80.1768 27.7626 80.1768 27.4697 80.4697C27.1768 80.7626 27.1768 81.2374 27.4697 81.5303L29.1893 83.25H20C19.5858 83.25 19.25 83.5858 19.25 84C19.25 84.4142 19.5858 84.75 20 84.75H29.1893L27.4697 86.4697C27.1768 86.7626 27.1768 87.2374 27.4697 87.5303C27.7626 87.8232 28.2374 87.8232 28.5303 87.5303L31.5303 84.5303C31.8232 84.2374 31.8232 83.7626 31.5303 83.4697L28.5303 80.4697Z" fill="#5F5F6A"/>
<path d="M27.6464 136.646C27.8417 136.451 28.1583 136.451 28.3536 136.646L31.3536 139.646C31.5488 139.842 31.5488 140.158 31.3536 140.354L28.3536 143.354C28.1583 143.549 27.8417 143.549 27.6464 143.354C27.4512 143.158 27.4512 142.842 27.6464 142.646L29.7929 140.5H20C19.7239 140.5 19.5 140.276 19.5 140C19.5 139.724 19.7239 139.5 20 139.5H29.7929L27.6464 137.354C27.4512 137.158 27.4512 136.842 27.6464 136.646Z" fill="#5F5F6A"/>
<path d="M29 133.5C27.2288 133.5 25.6238 134.208 24.451 135.357C24.2537 135.55 23.9372 135.547 23.7439 135.35C23.5506 135.153 23.5538 134.836 23.7511 134.643C25.1033 133.318 26.9566 132.5 29 132.5C33.1421 132.5 36.5 135.858 36.5 140C36.5 144.142 33.1421 147.5 29 147.5C26.9566 147.5 25.1033 146.682 23.7511 145.357C23.5538 145.164 23.5506 144.847 23.7439 144.65C23.9372 144.453 24.2537 144.45 24.451 144.643C25.6238 145.792 27.2288 146.5 29 146.5C32.5899 146.5 35.5 143.59 35.5 140C35.5 136.41 32.5899 133.5 29 133.5Z" fill="#5F5F6A"/>
</svg>
