<svg width="56" height="168" viewBox="0 0 56 168" fill="none" xmlns="http://www.w3.org/2000/svg">
<path opacity="0.5" d="M29.5303 24.4697C29.2374 24.1768 28.7626 24.1768 28.4697 24.4697L25.4697 27.4697C25.1768 27.7626 25.1768 28.2374 25.4697 28.5303L28.4697 31.5303C28.7626 31.8232 29.2374 31.8232 29.5303 31.5303C29.8232 31.2374 29.8232 30.7626 29.5303 30.4697L27.8107 28.75H36C36.4142 28.75 36.75 28.4142 36.75 28C36.75 27.5858 36.4142 27.25 36 27.25H27.8107L29.5303 25.5303C29.8232 25.2374 29.8232 24.7626 29.5303 24.4697Z" fill="#5F5F6A"/>
<path d="M25.7679 19.25H28.2321C29.0449 19.25 29.7006 19.25 30.2315 19.2934C30.7781 19.338 31.2582 19.4324 31.7025 19.6587C32.4081 20.0183 32.9817 20.5919 33.3413 21.2975C33.5676 21.7418 33.662 22.2219 33.7066 22.7685C33.75 23.2994 33.75 23.955 33.75 24.7679V25C33.75 25.4142 33.4142 25.75 33 25.75C32.5858 25.75 32.25 25.4142 32.25 25V24.8C32.25 23.9475 32.2494 23.3533 32.2116 22.8907C32.1745 22.4368 32.1054 22.176 32.0048 21.9785C31.789 21.5552 31.4448 21.211 31.0215 20.9952C30.824 20.8946 30.5632 20.8255 30.1093 20.7884C29.6467 20.7506 29.0525 20.75 28.2 20.75H25.8C24.9475 20.75 24.3533 20.7506 23.8907 20.7884C23.4368 20.8255 23.176 20.8946 22.9785 20.9952C22.5552 21.211 22.211 21.5552 21.9952 21.9785C21.8946 22.176 21.8255 22.4368 21.7884 22.8907C21.7506 23.3533 21.75 23.9475 21.75 24.8V31.2C21.75 32.0525 21.7506 32.6467 21.7884 33.1093C21.8255 33.5632 21.8946 33.824 21.9952 34.0215C22.211 34.4448 22.5552 34.7891 22.9785 35.0048C23.176 35.1054 23.4368 35.1745 23.8907 35.2116C24.3533 35.2494 24.9475 35.25 25.8 35.25H28.2C29.0525 35.25 29.6467 35.2494 30.1093 35.2116C30.5632 35.1745 30.824 35.1054 31.0215 35.0048C31.4448 34.7891 31.789 34.4448 32.0048 34.0215C32.1054 33.824 32.1745 33.5632 32.2116 33.1093C32.2494 32.6467 32.25 32.0525 32.25 31.2V31C32.25 30.5858 32.5858 30.25 33 30.25C33.4142 30.25 33.75 30.5858 33.75 31V31.2321C33.75 32.045 33.75 32.7006 33.7066 33.2315C33.662 33.7781 33.5676 34.2582 33.3413 34.7025C32.9817 35.4081 32.4081 35.9818 31.7025 36.3413C31.2582 36.5676 30.7781 36.662 30.2315 36.7066C29.7006 36.75 29.045 36.75 28.2321 36.75H25.7679C24.955 36.75 24.2994 36.75 23.7685 36.7066C23.2219 36.662 22.7418 36.5676 22.2975 36.3413C21.5919 35.9818 21.0183 35.4081 20.6587 34.7025C20.4324 34.2582 20.338 33.7781 20.2934 33.2315C20.25 32.7006 20.25 32.0449 20.25 31.2321V24.7679C20.25 23.9551 20.25 23.2994 20.2934 22.7685C20.338 22.2219 20.4324 21.7418 20.6587 21.2975C21.0183 20.5919 21.5919 20.0183 22.2975 19.6587C22.7418 19.4324 23.2219 19.338 23.7685 19.2934C24.2994 19.25 24.9551 19.25 25.7679 19.25Z" fill="#5F5F6A"/>
<path d="M28.2321 75.25H25.7679C24.9551 75.25 24.2994 75.25 23.7685 75.2934C23.2219 75.338 22.7418 75.4324 22.2975 75.6587C21.5919 76.0183 21.0183 76.5919 20.6587 77.2975C20.4324 77.7418 20.338 78.2219 20.2934 78.7685C20.25 79.2994 20.25 79.955 20.25 80.7679V87.2321C20.25 88.0449 20.25 88.7006 20.2934 89.2315C20.338 89.7781 20.4324 90.2582 20.6587 90.7025C21.0183 91.4081 21.5919 91.9817 22.2975 92.3413C22.7418 92.5676 23.2219 92.662 23.7685 92.7066C24.2994 92.75 24.955 92.75 25.7679 92.75H28.2321C29.045 92.75 29.7006 92.75 30.2315 92.7066C30.7781 92.662 31.2582 92.5676 31.7025 92.3413C32.4081 91.9817 32.9817 91.4081 33.3413 90.7025C33.5676 90.2582 33.662 89.7781 33.7066 89.2315C33.75 88.7006 33.75 88.045 33.75 87.2321V87C33.75 86.5858 33.4142 86.25 33 86.25C32.5858 86.25 32.25 86.5858 32.25 87V87.2C32.25 88.0525 32.2494 88.6467 32.2116 89.1093C32.1745 89.5632 32.1054 89.824 32.0048 90.0215C31.789 90.4448 31.4448 90.7891 31.0215 91.0048C30.824 91.1054 30.5632 91.1745 30.1093 91.2116C29.6467 91.2494 29.0525 91.25 28.2 91.25H25.8C24.9475 91.25 24.3533 91.2494 23.8907 91.2116C23.4368 91.1745 23.176 91.1054 22.9785 91.0048C22.5552 90.7891 22.211 90.4448 21.9952 90.0215C21.8946 89.824 21.8255 89.5632 21.7884 89.1093C21.7506 88.6467 21.75 88.0525 21.75 87.2V80.8C21.75 79.9475 21.7506 79.3533 21.7884 78.8907C21.8255 78.4368 21.8946 78.176 21.9952 77.9785C22.211 77.5552 22.5552 77.211 22.9785 76.9952C23.176 76.8946 23.4368 76.8255 23.8907 76.7884C24.3533 76.7506 24.9475 76.75 25.8 76.75H28.2C29.0525 76.75 29.6467 76.7506 30.1093 76.7884C30.5632 76.8255 30.824 76.8946 31.0215 76.9952C31.4448 77.211 31.789 77.5552 32.0048 77.9785C32.1054 78.176 32.1745 78.4368 32.2116 78.8907C32.2494 79.3533 32.25 79.9475 32.25 80.8V81C32.25 81.4142 32.5858 81.75 33 81.75C33.4142 81.75 33.75 81.4142 33.75 81V80.7679C33.75 79.955 33.75 79.2994 33.7066 78.7685C33.662 78.2219 33.5676 77.7418 33.3413 77.2975C32.9817 76.5919 32.4081 76.0183 31.7025 75.6587C31.2582 75.4324 30.7781 75.338 30.2315 75.2934C29.7006 75.25 29.0449 75.25 28.2321 75.25Z" fill="#5F5F6A"/>
<path d="M28.4697 80.4697C28.7626 80.1768 29.2374 80.1768 29.5303 80.4697C29.8232 80.7626 29.8232 81.2374 29.5303 81.5303L27.8107 83.25H36C36.4142 83.25 36.75 83.5858 36.75 84C36.75 84.4142 36.4142 84.75 36 84.75H27.8107L29.5303 86.4697C29.8232 86.7626 29.8232 87.2374 29.5303 87.5303C29.2374 87.8232 28.7626 87.8232 28.4697 87.5303L25.4697 84.5303C25.1768 84.2374 25.1768 83.7626 25.4697 83.4697L28.4697 80.4697Z" fill="#5F5F6A"/>
<path d="M29.3536 136.646C29.1583 136.451 28.8417 136.451 28.6464 136.646L25.6464 139.646C25.4512 139.842 25.4512 140.158 25.6464 140.354L28.6464 143.354C28.8417 143.549 29.1583 143.549 29.3536 143.354C29.5488 143.158 29.5488 142.842 29.3536 142.646L27.2071 140.5H36C36.2761 140.5 36.5 140.276 36.5 140C36.5 139.724 36.2761 139.5 36 139.5H27.2071L29.3536 137.354C29.5488 137.158 29.5488 136.842 29.3536 136.646Z" fill="#5F5F6A"/>
<path d="M25.7778 131.5H28.2222C29.0435 131.5 29.6905 131.5 30.2111 131.543C30.7423 131.586 31.1859 131.676 31.589 131.881C32.2475 132.217 32.783 132.752 33.1185 133.411C33.3239 133.814 33.4141 134.258 33.4575 134.789C33.5 135.31 33.5 135.957 33.5 136.778V137C33.5 137.276 33.2761 137.5 33 137.5C32.7239 137.5 32.5 137.276 32.5 137V136.8C32.5 135.952 32.4996 135.345 32.4608 134.87C32.4224 134.401 32.3491 134.104 32.2275 133.865C31.9878 133.395 31.6054 133.012 31.135 132.772C30.8963 132.651 30.599 132.578 30.1297 132.539C29.6545 132.5 29.0483 132.5 28.2 132.5H25.8C24.9517 132.5 24.3455 132.5 23.8703 132.539C23.401 132.578 23.1037 132.651 22.865 132.772C22.3946 133.012 22.0122 133.395 21.7725 133.865C21.6509 134.104 21.5776 134.401 21.5392 134.87C21.5004 135.345 21.5 135.952 21.5 136.8V143.2C21.5 144.048 21.5004 144.655 21.5392 145.13C21.5776 145.599 21.6509 145.896 21.7725 146.135C22.0122 146.605 22.3946 146.988 22.865 147.228C23.1037 147.349 23.401 147.422 23.8703 147.461C24.3455 147.5 24.9517 147.5 25.8 147.5H28.2C29.0483 147.5 29.6545 147.5 30.1297 147.461C30.599 147.422 30.8963 147.349 31.135 147.228C31.6054 146.988 31.9878 146.605 32.2275 146.135C32.3491 145.896 32.4224 145.599 32.4608 145.13C32.4996 144.655 32.5 144.048 32.5 143.2V143C32.5 142.724 32.7239 142.5 33 142.5C33.2761 142.5 33.5 142.724 33.5 143V143.222C33.5 144.043 33.5 144.69 33.4575 145.211C33.4141 145.742 33.3239 146.186 33.1185 146.589C32.783 147.248 32.2475 147.783 31.589 148.119C31.1859 148.324 30.7423 148.414 30.2111 148.457C29.6905 148.5 29.0435 148.5 28.2222 148.5H25.7778C24.9565 148.5 24.3095 148.5 23.7889 148.457C23.2577 148.414 22.8141 148.324 22.411 148.119C21.7525 147.783 21.217 147.248 20.8815 146.589C20.6761 146.186 20.5859 145.742 20.5425 145.211C20.5 144.69 20.5 144.043 20.5 143.222V136.778C20.5 135.957 20.5 135.31 20.5425 134.789C20.5859 134.258 20.6761 133.814 20.8815 133.411C21.217 132.752 21.7525 132.217 22.411 131.881C22.8141 131.676 23.2577 131.586 23.7889 131.543C24.3095 131.5 24.9565 131.5 25.7778 131.5Z" fill="#5F5F6A"/>
</svg>
