<svg width="56" height="168" viewBox="0 0 56 168" fill="none" xmlns="http://www.w3.org/2000/svg">
<path fill-rule="evenodd" clip-rule="evenodd" d="M24 20.5C23.1716 20.5 22.5 21.1716 22.5 22C22.5 22.8284 23.1716 23.5 24 23.5C24.8284 23.5 25.5 22.8284 25.5 22C25.5 21.1716 24.8284 20.5 24 20.5ZM21.5 22C21.5 20.6193 22.6193 19.5 24 19.5C25.3807 19.5 26.5 20.6193 26.5 22C26.5 23.3807 25.3807 24.5 24 24.5C22.6193 24.5 21.5 23.3807 21.5 22Z" fill="#5F5F6A"/>
<path fill-rule="evenodd" clip-rule="evenodd" d="M24 32.5C23.1716 32.5 22.5 33.1716 22.5 34C22.5 34.8284 23.1716 35.5 24 35.5C24.8284 35.5 25.5 34.8284 25.5 34C25.5 33.1716 24.8284 32.5 24 32.5ZM21.5 34C21.5 32.6193 22.6193 31.5 24 31.5C25.3807 31.5 26.5 32.6193 26.5 34C26.5 35.3807 25.3807 36.5 24 36.5C22.6193 36.5 21.5 35.3807 21.5 34Z" fill="#5F5F6A"/>
<g opacity="0.5">
<path d="M33.8546 28.75C33.9484 28.5184 34 28.2652 34 28C34 27.7348 33.9484 27.4816 33.8546 27.25H36C36.4142 27.25 36.75 27.5858 36.75 28C36.75 28.4142 36.4142 28.75 36 28.75H33.8546ZM30.1454 28.75H20C19.5858 28.75 19.25 28.4142 19.25 28C19.25 27.5858 19.5858 27.25 20 27.25H30.1454C30.0516 27.4816 30 27.7348 30 28C30 28.2652 30.0516 28.5184 30.1454 28.75Z" fill="#5F5F6A"/>
<path d="M25.8546 22.75C25.9484 22.5184 26 22.2652 26 22C26 21.7348 25.9484 21.4816 25.8546 21.25H36C36.4142 21.25 36.75 21.5858 36.75 22C36.75 22.4142 36.4142 22.75 36 22.75H25.8546ZM22.1454 22.75H20C19.5858 22.75 19.25 22.4142 19.25 22C19.25 21.5858 19.5858 21.25 20 21.25H22.1454C22.0516 21.4816 22 21.7348 22 22C22 22.2652 22.0516 22.5184 22.1454 22.75Z" fill="#5F5F6A"/>
<path d="M25.8546 34.75C25.9484 34.5184 26 34.2652 26 34C26 33.7348 25.9484 33.4816 25.8546 33.25H36C36.4142 33.25 36.75 33.5858 36.75 34C36.75 34.4142 36.4142 34.75 36 34.75H25.8546ZM22.1454 34.75H20C19.5858 34.75 19.25 34.4142 19.25 34C19.25 33.5858 19.5858 33.25 20 33.25H22.1454C22.0516 33.4816 22 33.7348 22 34C22 34.2652 22.0516 34.5184 22.1454 34.75Z" fill="#5F5F6A"/>
</g>
<path fill-rule="evenodd" clip-rule="evenodd" d="M32 26.5C31.1716 26.5 30.5 27.1716 30.5 28C30.5 28.8284 31.1716 29.5 32 29.5C32.8284 29.5 33.5 28.8284 33.5 28C33.5 27.1716 32.8284 26.5 32 26.5ZM29.5 28C29.5 26.6193 30.6193 25.5 32 25.5C33.3807 25.5 34.5 26.6193 34.5 28C34.5 29.3807 33.3807 30.5 32 30.5C30.6193 30.5 29.5 29.3807 29.5 28Z" fill="#5F5F6A"/>
<path d="M24 75.5C22.8806 75.5 21.933 76.2357 21.6145 77.25H20C19.5858 77.25 19.25 77.5858 19.25 78C19.25 78.4142 19.5858 78.75 20 78.75H21.6145C21.933 79.7643 22.8806 80.5 24 80.5C25.1194 80.5 26.067 79.7643 26.3855 78.75H36C36.4142 78.75 36.75 78.4142 36.75 78C36.75 77.5858 36.4142 77.25 36 77.25H26.3855C26.067 76.2357 25.1194 75.5 24 75.5ZM22.5 78C22.5 77.1716 23.1716 76.5 24 76.5C24.8284 76.5 25.5 77.1716 25.5 78C25.5 78.8284 24.8284 79.5 24 79.5C23.1716 79.5 22.5 78.8284 22.5 78Z" fill="#5F5F6A"/>
<path d="M34.3855 84.75C34.067 85.7643 33.1194 86.5 32 86.5C30.8806 86.5 29.933 85.7643 29.6145 84.75H20C19.5858 84.75 19.25 84.4142 19.25 84C19.25 83.5858 19.5858 83.25 20 83.25H29.6145C29.933 82.2357 30.8806 81.5 32 81.5C33.1194 81.5 34.067 82.2357 34.3855 83.25H36C36.4142 83.25 36.75 83.5858 36.75 84C36.75 84.4142 36.4142 84.75 36 84.75H34.3855ZM30.5 84C30.5 84.8284 31.1716 85.5 32 85.5C32.8284 85.5 33.5 84.8284 33.5 84C33.5 83.1716 32.8284 82.5 32 82.5C31.1716 82.5 30.5 83.1716 30.5 84Z" fill="#5F5F6A"/>
<path d="M24 87.5C22.8806 87.5 21.933 88.2357 21.6145 89.25H20C19.5858 89.25 19.25 89.5858 19.25 90C19.25 90.4142 19.5858 90.75 20 90.75H21.6145C21.933 91.7643 22.8806 92.5 24 92.5C25.1194 92.5 26.067 91.7643 26.3855 90.75H36C36.4142 90.75 36.75 90.4142 36.75 90C36.75 89.5858 36.4142 89.25 36 89.25H26.3855C26.067 88.2357 25.1194 87.5 24 87.5ZM22.5 90C22.5 89.1716 23.1716 88.5 24 88.5C24.8284 88.5 25.5 89.1716 25.5 90C25.5 90.8284 24.8284 91.5 24 91.5C23.1716 91.5 22.5 90.8284 22.5 90Z" fill="#5F5F6A"/>
<path d="M24 131.5C22.7905 131.5 21.7816 132.359 21.55 133.5H20C19.7239 133.5 19.5 133.724 19.5 134C19.5 134.276 19.7239 134.5 20 134.5H21.55C21.7816 135.641 22.7905 136.5 24 136.5C25.2095 136.5 26.2184 135.641 26.45 134.5H36C36.2761 134.5 36.5 134.276 36.5 134C36.5 133.724 36.2761 133.5 36 133.5H26.45C26.2184 132.359 25.2095 131.5 24 131.5ZM22.5 134C22.5 133.172 23.1716 132.5 24 132.5C24.8284 132.5 25.5 133.172 25.5 134C25.5 134.828 24.8284 135.5 24 135.5C23.1716 135.5 22.5 134.828 22.5 134Z" fill="#5F5F6A"/>
<path d="M34.45 140.5C34.2184 141.641 33.2095 142.5 32 142.5C30.7905 142.5 29.7816 141.641 29.55 140.5H20C19.7239 140.5 19.5 140.276 19.5 140C19.5 139.724 19.7239 139.5 20 139.5H29.55C29.7816 138.359 30.7905 137.5 32 137.5C33.2095 137.5 34.2184 138.359 34.45 139.5H36C36.2761 139.5 36.5 139.724 36.5 140C36.5 140.276 36.2761 140.5 36 140.5H34.45ZM30.5 140C30.5 140.828 31.1716 141.5 32 141.5C32.8284 141.5 33.5 140.828 33.5 140C33.5 139.172 32.8284 138.5 32 138.5C31.1716 138.5 30.5 139.172 30.5 140Z" fill="#5F5F6A"/>
<path d="M24 143.5C22.7905 143.5 21.7816 144.359 21.55 145.5H20C19.7239 145.5 19.5 145.724 19.5 146C19.5 146.276 19.7239 146.5 20 146.5H21.55C21.7816 147.641 22.7905 148.5 24 148.5C25.2095 148.5 26.2184 147.641 26.45 146.5H36C36.2761 146.5 36.5 146.276 36.5 146C36.5 145.724 36.2761 145.5 36 145.5H26.45C26.2184 144.359 25.2095 143.5 24 143.5ZM22.5 146C22.5 145.172 23.1716 144.5 24 144.5C24.8284 144.5 25.5 145.172 25.5 146C25.5 146.828 24.8284 147.5 24 147.5C23.1716 147.5 22.5 146.828 22.5 146Z" fill="#5F5F6A"/>
</svg>
