<svg width="56" height="224" viewBox="0 0 56 224" fill="none" xmlns="http://www.w3.org/2000/svg">
<path d="M26.1696 18.25H29.8304C30.3646 18.25 30.8104 18.25 31.1747 18.2797C31.5546 18.3108 31.9112 18.3779 32.2485 18.5497C32.7659 18.8134 33.1866 19.2341 33.4503 19.7515C33.6221 20.0888 33.6892 20.4454 33.7203 20.8253C33.75 21.1896 33.75 21.6354 33.75 22.1695V33.8305C33.75 34.3646 33.75 34.8104 33.7203 35.1747C33.6892 35.5546 33.6221 35.9112 33.4503 36.2485C33.1866 36.7659 32.7659 37.1866 32.2485 37.4503C31.9112 37.6221 31.5546 37.6892 31.1747 37.7203C30.8104 37.75 30.3646 37.75 29.8305 37.75H26.1695C25.6354 37.75 25.1896 37.75 24.8253 37.7203C24.4454 37.6892 24.0888 37.6221 23.7515 37.4503C23.2341 37.1866 22.8134 36.7659 22.5497 36.2485C22.3779 35.9112 22.3108 35.5546 22.2797 35.1747C22.25 34.8104 22.25 34.3646 22.25 33.8305V22.1696C22.25 21.6354 22.25 21.1896 22.2797 20.8253C22.3108 20.4454 22.3779 20.0888 22.5497 19.7515C22.8134 19.2341 23.2341 18.8134 23.7515 18.5497C24.0888 18.3779 24.4454 18.3108 24.8253 18.2797C25.1896 18.25 25.6354 18.25 26.1696 18.25ZM29.8 19.75H26.2C26.0354 19.75 25.8863 19.75 25.7504 19.7507C25.8291 19.9838 25.8796 20.1136 25.9629 20.2132C26.0488 20.316 26.1592 20.3955 26.2838 20.4445C26.4249 20.5 26.5908 20.5 26.9226 20.5H29.0774C29.4092 20.5 29.5751 20.5 29.7162 20.4445C29.8408 20.3955 29.9512 20.316 30.0371 20.2132C30.1204 20.1136 30.1709 19.9838 30.2496 19.7507C30.1137 19.75 29.9646 19.75 29.8 19.75ZM26.25 34.5C25.9739 34.5 25.75 34.7239 25.75 35C25.75 35.2761 25.9739 35.5 26.25 35.5H29.75C30.0261 35.5 30.25 35.2761 30.25 35C30.25 34.7239 30.0261 34.5 29.75 34.5H26.25Z" fill="#5F5F6A"/>
<path opacity="0.5" d="M23 78.2C23 77.0799 23 76.5198 23.218 76.092C23.4097 75.7157 23.7157 75.4097 24.092 75.218C24.5198 75 25.0799 75 26.2 75H29.8C30.9201 75 31.4802 75 31.908 75.218C32.2843 75.4097 32.5903 75.7157 32.782 76.092C33 76.5198 33 77.0799 33 78.2V89.8C33 90.9201 33 91.4802 32.782 91.908C32.5903 92.2843 32.2843 92.5903 31.908 92.782C31.4802 93 30.9201 93 29.8 93H26.2C25.0799 93 24.5198 93 24.092 92.782C23.7157 92.5903 23.4097 92.2843 23.218 91.908C23 91.4802 23 90.9201 23 89.8V78.2Z" fill="#5F5F6A"/>
<path d="M25.75 91C25.75 90.7239 25.9739 90.5 26.25 90.5H29.75C30.0261 90.5 30.25 90.7239 30.25 91C30.25 91.2761 30.0261 91.5 29.75 91.5H26.25C25.9739 91.5 25.75 91.2761 25.75 91Z" fill="#5F5F6A"/>
<path d="M26.1696 74.25H29.8304C30.3646 74.25 30.8104 74.25 31.1747 74.2797C31.5546 74.3108 31.9112 74.3779 32.2485 74.5497C32.7659 74.8134 33.1866 75.2341 33.4503 75.7515C33.6221 76.0888 33.6892 76.4454 33.7203 76.8253C33.75 77.1896 33.75 77.6354 33.75 78.1695V89.8305C33.75 90.3646 33.75 90.8104 33.7203 91.1747C33.6892 91.5546 33.6221 91.9112 33.4503 92.2485C33.1866 92.7659 32.7659 93.1866 32.2485 93.4503C31.9112 93.6221 31.5546 93.6892 31.1747 93.7203C30.8104 93.75 30.3646 93.75 29.8305 93.75H26.1695C25.6354 93.75 25.1896 93.75 24.8253 93.7203C24.4454 93.6892 24.0888 93.6221 23.7515 93.4503C23.2341 93.1866 22.8134 92.7659 22.5497 92.2485C22.3779 91.9112 22.3108 91.5546 22.2797 91.1747C22.25 90.8104 22.25 90.3646 22.25 89.8304V78.1696C22.25 77.6354 22.25 77.1896 22.2797 76.8253C22.3108 76.4454 22.3779 76.0888 22.5497 75.7515C22.8134 75.2341 23.2341 74.8134 23.7515 74.5497C24.0888 74.3779 24.4454 74.3108 24.8253 74.2797C25.1896 74.25 25.6354 74.25 26.1696 74.25ZM24.9475 75.7748C24.6604 75.7982 24.5231 75.8401 24.4325 75.8862C24.1973 76.0061 24.0061 76.1973 23.8862 76.4325C23.8401 76.5231 23.7982 76.6604 23.7748 76.9475C23.7506 77.2434 23.75 77.6276 23.75 78.2V89.8C23.75 90.3724 23.7506 90.7566 23.7748 91.0525C23.7982 91.3396 23.8401 91.4769 23.8862 91.5675C24.0061 91.8027 24.1973 91.9939 24.4325 92.1138C24.5231 92.1599 24.6604 92.2018 24.9475 92.2252C25.2434 92.2494 25.6276 92.25 26.2 92.25H29.8C30.3724 92.25 30.7566 92.2494 31.0525 92.2252C31.3396 92.2018 31.4769 92.1599 31.5675 92.1138C31.8027 91.9939 31.9939 91.8027 32.1138 91.5675C32.1599 91.4769 32.2018 91.3396 32.2252 91.0525C32.2494 90.7566 32.25 90.3724 32.25 89.8V78.2C32.25 77.6276 32.2494 77.2434 32.2252 76.9475C32.2018 76.6604 32.1599 76.5231 32.1138 76.4325C31.9939 76.1973 31.8027 76.0061 31.5675 75.8862C31.4769 75.8401 31.3396 75.7982 31.0525 75.7748C30.878 75.7605 30.6726 75.7544 30.416 75.7519L30.2917 76.1248C30.1868 76.4395 30.1344 76.5969 30.0371 76.7132C29.9512 76.8159 29.8408 76.8955 29.7162 76.9445C29.5751 77 29.4092 77 29.0774 77H26.9226C26.5908 77 26.4249 77 26.2838 76.9445C26.1592 76.8955 26.0488 76.8159 25.9629 76.7132C25.8656 76.5969 25.8132 76.4395 25.7083 76.1248L25.584 75.7519C25.3274 75.7544 25.1221 75.7605 24.9475 75.7748Z" fill="#5F5F6A"/>
<path d="M25.75 147C25.75 146.724 25.9739 146.5 26.25 146.5H29.75C30.0261 146.5 30.25 146.724 30.25 147C30.25 147.276 30.0261 147.5 29.75 147.5H26.25C25.9739 147.5 25.75 147.276 25.75 147Z" fill="#5F5F6A"/>
<path d="M26.1696 130.25H29.8304C30.3646 130.25 30.8104 130.25 31.1747 130.28C31.5546 130.311 31.9112 130.378 32.2485 130.55C32.7659 130.813 33.1866 131.234 33.4503 131.752C33.6221 132.089 33.6892 132.445 33.7203 132.825C33.75 133.19 33.75 133.635 33.75 134.17V145.83C33.75 146.365 33.75 146.81 33.7203 147.175C33.6892 147.555 33.6221 147.911 33.4503 148.248C33.1866 148.766 32.7659 149.187 32.2485 149.45C31.9112 149.622 31.5546 149.689 31.1747 149.72C30.8104 149.75 30.3646 149.75 29.8305 149.75H26.1695C25.6354 149.75 25.1896 149.75 24.8253 149.72C24.4454 149.689 24.0888 149.622 23.7515 149.45C23.2341 149.187 22.8134 148.766 22.5497 148.248C22.3779 147.911 22.3108 147.555 22.2797 147.175C22.25 146.81 22.25 146.365 22.25 145.83V134.17C22.25 133.635 22.25 133.19 22.2797 132.825C22.3108 132.445 22.3779 132.089 22.5497 131.752C22.8134 131.234 23.2341 130.813 23.7515 130.55C24.0888 130.378 24.4454 130.311 24.8253 130.28C25.1896 130.25 25.6354 130.25 26.1696 130.25ZM24.9475 131.775C24.6604 131.798 24.5231 131.84 24.4325 131.886C24.1973 132.006 24.0061 132.197 23.8862 132.433C23.8401 132.523 23.7982 132.66 23.7748 132.947C23.7506 133.243 23.75 133.628 23.75 134.2V145.8C23.75 146.372 23.7506 146.757 23.7748 147.053C23.7982 147.34 23.8401 147.477 23.8862 147.567C24.0061 147.803 24.1973 147.994 24.4325 148.114C24.5231 148.16 24.6604 148.202 24.9475 148.225C25.2434 148.249 25.6276 148.25 26.2 148.25H29.8C30.3724 148.25 30.7566 148.249 31.0525 148.225C31.3396 148.202 31.4769 148.16 31.5675 148.114C31.8027 147.994 31.9939 147.803 32.1138 147.567C32.1599 147.477 32.2018 147.34 32.2252 147.053C32.2494 146.757 32.25 146.372 32.25 145.8V134.2C32.25 133.628 32.2494 133.243 32.2252 132.947C32.2018 132.66 32.1599 132.523 32.1138 132.433C31.9939 132.197 31.8027 132.006 31.5675 131.886C31.4769 131.84 31.3396 131.798 31.0525 131.775C30.878 131.76 30.6726 131.754 30.416 131.752L30.2917 132.125C30.1868 132.439 30.1344 132.597 30.0371 132.713C29.9512 132.816 29.8408 132.895 29.7162 132.944C29.5751 133 29.4092 133 29.0774 133H26.9226C26.5908 133 26.4249 133 26.2838 132.944C26.1592 132.895 26.0488 132.816 25.9629 132.713C25.8656 132.597 25.8132 132.44 25.7083 132.125L25.584 131.752C25.3274 131.754 25.1221 131.76 24.9475 131.775Z" fill="#5F5F6A"/>
<path d="M25.75 203C25.75 202.724 25.9739 202.5 26.25 202.5H29.75C30.0261 202.5 30.25 202.724 30.25 203C30.25 203.276 30.0261 203.5 29.75 203.5H26.25C25.9739 203.5 25.75 203.276 25.75 203Z" fill="#5F5F6A"/>
<path d="M26.1423 186.5C26.1543 186.5 26.1664 186.5 26.1786 186.5H29.8214C29.8336 186.5 29.8457 186.5 29.8577 186.5H30.5C30.5203 186.5 30.5404 186.501 30.5603 186.504C30.7807 186.507 30.9779 186.514 31.1543 186.529C31.5187 186.559 31.8388 186.622 32.135 186.772C32.6054 187.012 32.9878 187.395 33.2275 187.865C33.3784 188.161 33.4413 188.481 33.4711 188.846C33.5 189.2 33.5 189.637 33.5 190.179V201.821C33.5 202.363 33.5 202.8 33.4711 203.154C33.4413 203.519 33.3784 203.839 33.2275 204.135C32.9878 204.605 32.6054 204.988 32.135 205.228C31.8388 205.378 31.5187 205.441 31.1543 205.471C30.8004 205.5 30.3633 205.5 29.8214 205.5H26.1786C25.6367 205.5 25.1996 205.5 24.8457 205.471C24.4813 205.441 24.1612 205.378 23.865 205.228C23.3946 204.988 23.0122 204.605 22.7725 204.135C22.6216 203.839 22.5587 203.519 22.5289 203.154C22.5 202.8 22.5 202.363 22.5 201.821V190.179C22.5 189.637 22.5 189.2 22.5289 188.846C22.5587 188.481 22.6216 188.161 22.7725 187.865C23.0122 187.395 23.3946 187.012 23.865 186.772C24.1612 186.622 24.4813 186.559 24.8457 186.529C25.0221 186.514 25.2193 186.507 25.4397 186.504C25.4596 186.501 25.4797 186.5 25.5 186.5H26.1423ZM25.1437 187.512C25.0667 187.516 24.9948 187.52 24.9271 187.526C24.6245 187.55 24.4507 187.596 24.319 187.663C24.0368 187.807 23.8073 188.037 23.6635 188.319C23.5964 188.451 23.5503 188.625 23.5256 188.927C23.5004 189.236 23.5 189.632 23.5 190.2V201.8C23.5 202.368 23.5004 202.764 23.5256 203.073C23.5503 203.375 23.5964 203.549 23.6635 203.681C23.8073 203.963 24.0368 204.193 24.319 204.337C24.4507 204.404 24.6245 204.45 24.9271 204.474C25.2355 204.5 25.6317 204.5 26.2 204.5H29.8C30.3683 204.5 30.7645 204.5 31.0729 204.474C31.3755 204.45 31.5493 204.404 31.681 204.337C31.9632 204.193 32.1927 203.963 32.3365 203.681C32.4036 203.549 32.4497 203.375 32.4744 203.073C32.4996 202.764 32.5 202.368 32.5 201.8V190.2C32.5 189.632 32.4996 189.236 32.4744 188.927C32.4497 188.625 32.4036 188.451 32.3365 188.319C32.1927 188.037 31.9632 187.807 31.681 187.663C31.5493 187.596 31.3755 187.55 31.0729 187.526C31.0052 187.52 30.9333 187.516 30.8563 187.512L30.7661 187.783L30.7462 187.843C30.6623 188.096 30.5809 188.342 30.4206 188.534C30.281 188.701 30.1017 188.83 29.8992 188.91C29.6668 189.001 29.4075 189.001 29.1406 189L29.0774 189H26.9226L26.8594 189C26.5925 189.001 26.3332 189.001 26.1008 188.91C25.8983 188.83 25.719 188.701 25.5794 188.534C25.4191 188.342 25.3377 188.096 25.2538 187.843L25.2339 187.783L25.1437 187.512ZM26.1937 187.5C26.3025 187.825 26.3254 187.867 26.3465 187.892C26.3787 187.931 26.4201 187.961 26.4668 187.979C26.4984 187.992 26.5482 188 26.9226 188H29.0774C29.4518 188 29.5016 187.992 29.5332 187.979C29.5799 187.961 29.6213 187.931 29.6535 187.892C29.6746 187.867 29.6975 187.825 29.8063 187.5C29.8042 187.5 29.8021 187.5 29.8 187.5H26.2C26.1979 187.5 26.1958 187.5 26.1937 187.5Z" fill="#5F5F6A"/>
</svg>
