<svg width="56" height="224" viewBox="0 0 56 224" fill="none" xmlns="http://www.w3.org/2000/svg">
<path d="M36.8897 22.3717C36.7681 22.2273 36.6007 22.1382 36.4231 22.1126C36.4775 21.9874 36.5259 21.8591 36.5682 21.7282C36.6638 21.4315 36.566 21.1065 36.3224 20.912C36.0787 20.7174 35.7401 20.6939 35.4719 20.8529C34.9806 21.1441 34.4523 21.365 33.902 21.5096C32.3011 20.1308 29.8842 20.1561 28.3104 21.6354C27.4743 22.4212 27.0093 23.5038 26.9934 24.6226C24.7853 24.2936 22.7668 23.1512 21.3457 21.4026C21.1903 21.2113 20.9508 21.1087 20.7051 21.1279C20.4594 21.1472 20.2388 21.2859 20.1151 21.499C19.4071 22.7185 19.382 24.1554 19.9345 25.3542C19.919 25.362 19.9037 25.3702 19.8886 25.3791C19.6594 25.5138 19.5186 25.7605 19.5186 26.0264V26.0692C19.5186 27.2524 20.0147 28.3378 20.8269 29.1062C20.7179 29.2893 20.6908 29.5126 20.7574 29.7196C21.0974 30.7762 21.8307 31.6262 22.7658 32.127C22.0259 32.4329 21.2284 32.5931 20.4173 32.5925C20.1731 32.5919 19.9303 32.5773 19.6893 32.5483C19.3421 32.5065 19.0122 32.7102 18.8939 33.0392C18.7756 33.3683 18.9004 33.7354 19.1947 33.9242C20.8658 34.9963 22.8068 35.5706 24.7911 35.5803C24.8127 35.5822 24.8346 35.5832 24.8567 35.5832C31.6654 35.5832 35.365 29.9292 35.365 25.0749L35.3649 24.9942C35.973 24.504 36.5046 23.9236 36.94 23.2712C37.1253 22.9936 37.1048 22.6269 36.8897 22.3717Z" fill="#5F5F6A"/>
<path opacity="0.5" d="M29.3385 78.7284C30.4183 77.7134 32.1162 77.7657 33.1308 78.8445C33.2715 78.9941 33.4655 79.0777 33.6664 79.0806C33.588 79.2507 33.5736 79.4491 33.6375 79.6367C33.7115 79.8538 33.8773 80.0183 34.0806 80.0958C33.9251 80.2482 33.842 80.4624 33.8573 80.6832C33.8654 80.8004 33.8657 80.9219 33.8657 81.075C33.8657 85.2693 30.6881 90.0492 24.9191 90.083C24.8983 90.0813 24.8774 90.0805 24.8564 90.0805C24.079 90.0816 23.309 89.9816 22.5648 89.7858C23.4932 89.5144 24.3681 89.0671 25.1394 88.4614C25.3888 88.2655 25.488 87.9339 25.3873 87.6332C25.2865 87.3325 25.0074 87.1277 24.6904 87.1217C23.939 87.1074 23.2483 86.7817 22.7624 86.2518C22.9156 86.2279 23.0678 86.1954 23.2181 86.1543C23.5533 86.0627 23.7817 85.7529 23.77 85.4056C23.7583 85.0583 23.5096 84.7645 23.169 84.6957C22.2934 84.5188 21.59 83.9271 21.247 83.1504C21.4305 83.1808 21.6164 83.199 21.8035 83.2046C22.1378 83.2146 22.4384 83.002 22.5402 82.6834C22.6421 82.3648 22.5207 82.0172 22.2426 81.8314C21.3858 81.2587 20.9601 80.2734 21.0656 79.3071C22.8762 81.0419 25.2618 82.0811 27.7952 82.2077C28.0302 82.2195 28.2571 82.1203 28.4081 81.9397C28.559 81.7592 28.6164 81.5183 28.5633 81.2891C28.3472 80.358 28.6425 79.3825 29.3385 78.7284Z" fill="#5F5F6A"/>
<path fill-rule="evenodd" clip-rule="evenodd" d="M36.4231 78.1126C36.6007 78.1382 36.7681 78.2273 36.8897 78.3717C37.1048 78.6269 37.1253 78.9936 36.94 79.2712C36.5046 79.9236 35.973 80.504 35.3649 80.9942L35.365 81.0749C35.365 85.9292 31.6654 91.5832 24.8567 91.5832C24.8346 91.5832 24.8127 91.5822 24.7911 91.5803C22.8068 91.5706 20.8658 90.9963 19.1947 89.9242C18.9004 89.7354 18.7756 89.3683 18.8939 89.0392C19.0122 88.7102 19.3421 88.5065 19.6893 88.5483C19.9303 88.5773 20.1731 88.5919 20.4173 88.5925C21.2284 88.5931 22.0259 88.4329 22.7658 88.127C21.8307 87.6262 21.0974 86.7762 20.7574 85.7196C20.6908 85.5126 20.7179 85.2893 20.8269 85.1062C20.0147 84.3378 19.5186 83.2524 19.5186 82.0692V82.0264C19.5186 81.7605 19.6594 81.5138 19.8886 81.3791C19.9037 81.3702 19.919 81.362 19.9345 81.3542C19.382 80.1554 19.4071 78.7185 20.1151 77.499C20.2388 77.2859 20.4594 77.1472 20.7051 77.1279C20.9508 77.1087 21.1903 77.2113 21.3457 77.4026C22.7668 79.1512 24.7853 80.2936 26.9934 80.6226C27.0093 79.5038 27.4743 78.4212 28.3104 77.6354C29.8842 76.1561 32.3011 76.1308 33.902 77.5096C34.4523 77.365 34.9806 77.1441 35.4719 76.8529C35.7401 76.6939 36.0787 76.7174 36.3224 76.912C36.566 77.1065 36.6638 77.4315 36.5682 77.7282C36.5259 77.8591 36.4775 77.9874 36.4231 78.1126ZM33.1301 78.8445C32.1155 77.7657 30.4176 77.7134 29.3378 78.7284C28.6418 79.3825 28.3465 80.358 28.5626 81.2891C28.6157 81.5183 28.5583 81.7592 28.4073 81.9397C28.2564 82.1203 28.0295 82.2195 27.7945 82.2077C25.2611 82.0811 22.8755 81.0419 21.0649 79.3071C20.9594 80.2734 21.3851 81.2587 22.2419 81.8314C22.52 82.0172 22.6414 82.3648 22.5395 82.6834C22.4377 83.002 22.1371 83.2146 21.8028 83.2046C21.6157 83.199 21.4298 83.1808 21.2463 83.1504C21.5893 83.9271 22.2927 84.5188 23.1683 84.6957C23.5089 84.7645 23.7576 85.0583 23.7693 85.4056C23.781 85.7529 23.5526 86.0627 23.2174 86.1543C23.0671 86.1954 22.9149 86.2279 22.7617 86.2518C23.2476 86.7817 23.9383 87.1074 24.6897 87.1217C25.0067 87.1277 25.2858 87.3325 25.3866 87.6332C25.4873 87.9339 25.3881 88.2655 25.1387 88.4614C24.3674 89.0671 23.4925 89.5144 22.5641 89.7858C23.3083 89.9816 24.0783 90.0816 24.8557 90.0805C24.8767 90.0805 24.8976 90.0813 24.9184 90.083C30.6874 90.0492 33.865 85.2693 33.865 81.075C33.865 80.9219 33.8647 80.8004 33.8566 80.6832C33.8413 80.4624 33.9244 80.2482 34.0799 80.0958C33.8766 80.0183 33.7108 79.8538 33.6368 79.6367C33.5729 79.4491 33.5873 79.2507 33.6657 79.0806C33.4648 79.0777 33.2708 78.9941 33.1301 78.8445Z" fill="#5F5F6A"/>
<path fill-rule="evenodd" clip-rule="evenodd" d="M36.4231 134.113C36.6007 134.138 36.7681 134.227 36.8897 134.372C37.1048 134.627 37.1253 134.994 36.94 135.271C36.5046 135.924 35.973 136.504 35.3649 136.994L35.365 137.075C35.365 141.929 31.6654 147.583 24.8567 147.583C24.8346 147.583 24.8127 147.582 24.7911 147.58C22.8068 147.571 20.8658 146.996 19.1947 145.924C18.9004 145.735 18.7756 145.368 18.8939 145.039C19.0122 144.71 19.3421 144.507 19.6893 144.548C19.9303 144.577 20.1731 144.592 20.4173 144.593C21.2284 144.593 22.0259 144.433 22.7658 144.127C21.8307 143.626 21.0974 142.776 20.7574 141.72C20.6908 141.513 20.7179 141.289 20.8269 141.106C20.0147 140.338 19.5186 139.252 19.5186 138.069V138.026C19.5186 137.76 19.6594 137.514 19.8886 137.379C19.9037 137.37 19.919 137.362 19.9345 137.354C19.382 136.155 19.4071 134.719 20.1151 133.499C20.2388 133.286 20.4594 133.147 20.7051 133.128C20.9508 133.109 21.1903 133.211 21.3457 133.403C22.7668 135.151 24.7853 136.294 26.9934 136.623C27.0093 135.504 27.4743 134.421 28.3104 133.635C29.8842 132.156 32.3011 132.131 33.902 133.51C34.4523 133.365 34.9806 133.144 35.4719 132.853C35.7401 132.694 36.0787 132.717 36.3224 132.912C36.566 133.107 36.6638 133.431 36.5682 133.728C36.5259 133.859 36.4775 133.987 36.4231 134.113ZM33.1301 134.844C32.1155 133.766 30.4176 133.713 29.3378 134.728C28.6418 135.383 28.3465 136.358 28.5626 137.289C28.6157 137.518 28.5583 137.759 28.4073 137.94C28.2564 138.12 28.0295 138.219 27.7945 138.208C25.2611 138.081 22.8755 137.042 21.0649 135.307C20.9594 136.273 21.3851 137.259 22.2419 137.831C22.52 138.017 22.6414 138.365 22.5395 138.683C22.4377 139.002 22.1371 139.215 21.8028 139.205C21.6157 139.199 21.4298 139.181 21.2463 139.15C21.5893 139.927 22.2927 140.519 23.1683 140.696C23.5089 140.764 23.7576 141.058 23.7693 141.406C23.781 141.753 23.5526 142.063 23.2174 142.154C23.0671 142.195 22.9149 142.228 22.7617 142.252C23.2476 142.782 23.9383 143.107 24.6897 143.122C25.0067 143.128 25.2858 143.333 25.3866 143.633C25.4873 143.934 25.3881 144.266 25.1387 144.461C24.3674 145.067 23.4925 145.514 22.5641 145.786C23.3083 145.982 24.0783 146.082 24.8557 146.08C24.8767 146.08 24.8976 146.081 24.9184 146.083C30.6874 146.049 33.865 141.269 33.865 137.075C33.865 136.922 33.8647 136.8 33.8566 136.683C33.8413 136.462 33.9244 136.248 34.0799 136.096C33.8766 136.018 33.7108 135.854 33.6368 135.637C33.5729 135.449 33.5873 135.251 33.6657 135.081C33.4648 135.078 33.2708 134.994 33.1301 134.844Z" fill="#5F5F6A"/>
<path fill-rule="evenodd" clip-rule="evenodd" d="M33.3122 190.673C32.2029 189.494 30.3468 189.437 29.1666 190.546C28.4055 191.261 28.0828 192.328 28.319 193.346C28.3544 193.498 28.3161 193.659 28.2155 193.779C28.1149 193.9 27.9636 193.966 27.807 193.958C25.178 193.827 22.7122 192.689 20.9104 190.798C20.5696 191.996 21.023 193.317 22.103 194.039C22.5105 194.312 22.3002 194.969 21.8102 194.955C21.4885 194.945 21.1705 194.896 20.8632 194.809C21.1402 195.871 22.0013 196.715 23.1187 196.941C23.6223 197.042 23.6471 197.778 23.1515 197.913C22.8685 197.99 22.5786 198.036 22.2872 198.048C22.8097 198.844 23.6996 199.353 24.6849 199.372C25.1445 199.38 25.3457 199.981 24.9842 200.265C23.9985 201.039 22.8377 201.546 21.6137 201.746C22.6457 202.132 23.7436 202.332 24.856 202.33C24.8733 202.33 24.8905 202.331 24.9076 202.333C30.8501 202.305 34.1149 197.379 34.1149 193.075C34.1149 192.923 34.1147 192.793 34.1059 192.666C34.094 192.494 34.1718 192.328 34.3116 192.226C34.4818 192.103 34.6457 191.972 34.8028 191.833C34.6709 191.856 34.5383 191.876 34.4052 191.891C34.1711 191.919 33.9494 191.779 33.8734 191.556C33.7974 191.333 33.8876 191.087 34.0899 190.966C34.2562 190.866 34.4112 190.751 34.5532 190.623C34.2974 190.703 34.037 190.769 33.7731 190.821C33.6042 190.855 33.4301 190.799 33.3122 190.673ZM24.8037 203.33C22.8628 203.323 20.9641 202.762 19.3297 201.714C19.1335 201.588 19.0503 201.343 19.1291 201.124C19.208 200.904 19.4279 200.769 19.6594 200.797C19.9105 200.827 20.1633 200.842 20.4172 200.843C20.4169 200.981 20.4163 201.197 20.4163 201.197M20.4163 201.197C20.4163 201.197 20.4169 200.981 20.4172 200.843C21.449 200.843 22.4587 200.594 23.3644 200.124C22.2586 199.711 21.3713 198.811 20.9953 197.643C20.9298 197.439 21.0091 197.207 21.1785 197.085C20.3089 196.357 19.7686 195.267 19.7686 194.069C19.7686 193.768 19.9908 193.505 20.3029 193.527C19.6425 192.349 19.6099 190.867 20.3313 189.625C20.4138 189.483 20.5608 189.39 20.7246 189.377C20.8884 189.364 21.0481 189.433 21.1517 189.56C22.6749 191.435 24.866 192.631 27.2495 192.909C27.183 191.758 27.6253 190.622 28.4817 189.818C29.9931 188.397 32.3315 188.403 33.8346 189.784C34.4547 189.635 35.0494 189.394 35.5994 189.068C35.7782 188.962 36.0039 188.978 36.1663 189.107C36.3287 189.237 36.394 189.454 36.3302 189.652C36.2382 189.937 36.1147 190.208 35.9632 190.462C36.0135 190.441 36.0635 190.42 36.1132 190.398C36.3166 190.308 36.5551 190.363 36.6985 190.533C36.8419 190.703 36.8555 190.947 36.732 191.132C36.2886 191.797 35.7418 192.384 35.114 192.874C35.1149 192.941 35.1149 193.008 35.1149 193.075C35.1149 197.822 31.4986 203.333 24.8567 203.333C24.8388 203.333 24.8211 203.332 24.8037 203.33" fill="#5F5F6A"/>
</svg>
