<svg width="56" height="224" viewBox="0 0 56 224" fill="none" xmlns="http://www.w3.org/2000/svg">
<path d="M25.7798 20.25C25.6576 20.25 25.5252 20.2499 25.4105 20.2593C25.2808 20.2699 25.1093 20.2961 24.9325 20.3862C24.6973 20.5061 24.5061 20.6973 24.3862 20.9325C24.2961 21.1093 24.2699 21.2808 24.2593 21.4105C24.2499 21.5252 24.25 21.6576 24.25 21.7798V24.2202C24.25 24.3424 24.2499 24.4748 24.2593 24.5895C24.2699 24.7192 24.2961 24.8907 24.3862 25.0675C24.5061 25.3027 24.6973 25.4939 24.9325 25.6138C25.1093 25.7039 25.2808 25.7301 25.4105 25.7407C25.5252 25.7501 25.6576 25.75 25.7798 25.75H30.2202C30.3424 25.75 30.4748 25.7501 30.5895 25.7407C30.7192 25.7301 30.8907 25.7039 31.0675 25.6138C31.3027 25.4939 31.4939 25.3027 31.6138 25.0675C31.7039 24.8907 31.7301 24.7192 31.7407 24.5895C31.7501 24.4748 31.75 24.3424 31.75 24.2203V21.7798C31.75 21.6576 31.7501 21.5252 31.7407 21.4105C31.7301 21.2808 31.7039 21.1093 31.6138 20.9325C31.4939 20.6973 31.3027 20.5061 31.0675 20.3862C30.8907 20.2961 30.7192 20.2699 30.5895 20.2593C30.4748 20.2499 30.3424 20.25 30.2202 20.25H25.7798Z" fill="#5F5F6A"/>
<path d="M21.7798 26.25C21.6576 26.25 21.5252 26.2499 21.4105 26.2593C21.2808 26.2699 21.1093 26.2961 20.9325 26.3862C20.6973 26.5061 20.5061 26.6973 20.3862 26.9325C20.2961 27.1093 20.2699 27.2808 20.2593 27.4105C20.2499 27.5252 20.25 27.6576 20.25 27.7798V34.2202C20.25 34.3424 20.2499 34.4748 20.2593 34.5895C20.2699 34.7192 20.2961 34.8907 20.3862 35.0675C20.5061 35.3027 20.6973 35.4939 20.9325 35.6138C21.1093 35.7039 21.2808 35.7301 21.4105 35.7407C21.5252 35.7501 21.6576 35.75 21.7798 35.75H34.2202C34.3424 35.75 34.4748 35.7501 34.5895 35.7407C34.7192 35.7301 34.8907 35.7039 35.0675 35.6138C35.3027 35.4939 35.4939 35.3027 35.6138 35.0675C35.7039 34.8907 35.7301 34.7192 35.7407 34.5895C35.7501 34.4748 35.75 34.3424 35.75 34.2203V27.7798C35.75 27.6576 35.7501 27.5252 35.7407 27.4105C35.7301 27.2808 35.7039 27.1093 35.6138 26.9325C35.4939 26.6973 35.3027 26.5061 35.0675 26.3862C34.8907 26.2961 34.7192 26.2699 34.5895 26.2593C34.4748 26.2499 34.3424 26.25 34.2202 26.25H31.7798C31.6576 26.25 31.5252 26.2499 31.4105 26.2593C31.2808 26.2699 31.1093 26.2961 30.9325 26.3862C30.6973 26.5061 30.5061 26.6973 30.3862 26.9325C30.2961 27.1093 30.2699 27.2808 30.2593 27.4105C30.2499 27.5252 30.25 27.6576 30.25 27.7798L30.25 30.25H25.75L25.75 27.7798C25.75 27.6576 25.7501 27.5252 25.7407 27.4105C25.7301 27.2808 25.7039 27.1093 25.6138 26.9325C25.4939 26.6973 25.3027 26.5061 25.0675 26.3862C24.8907 26.2961 24.7192 26.2699 24.5895 26.2593C24.4748 26.2499 24.3424 26.25 24.2202 26.25H21.7798Z" fill="#5F5F6A"/>
<g opacity="0.5">
<path d="M25.7798 76.25C25.6576 76.25 25.5252 76.2499 25.4105 76.2593C25.2808 76.2699 25.1093 76.2961 24.9325 76.3862C24.6973 76.5061 24.5061 76.6973 24.3862 76.9325C24.2961 77.1093 24.2699 77.2808 24.2593 77.4105C24.2499 77.5252 24.25 77.6576 24.25 77.7798V80.2202C24.25 80.3424 24.2499 80.4748 24.2593 80.5895C24.2699 80.7192 24.2961 80.8907 24.3862 81.0675C24.5061 81.3027 24.6973 81.4939 24.9325 81.6138C25.1093 81.7039 25.2808 81.7301 25.4105 81.7407C25.5252 81.7501 25.6576 81.75 25.7798 81.75H30.2202C30.3424 81.75 30.4748 81.7501 30.5895 81.7407C30.7192 81.7301 30.8907 81.7039 31.0675 81.6138C31.3027 81.4939 31.4939 81.3027 31.6138 81.0675C31.7039 80.8907 31.7301 80.7192 31.7407 80.5895C31.7501 80.4748 31.75 80.3424 31.75 80.2203V77.7798C31.75 77.6576 31.7501 77.5252 31.7407 77.4105C31.7301 77.2808 31.7039 77.1093 31.6138 76.9325C31.4939 76.6973 31.3027 76.5061 31.0675 76.3862C30.8907 76.2961 30.7192 76.2699 30.5895 76.2593C30.4748 76.2499 30.3424 76.25 30.2202 76.25H25.7798Z" fill="#5F5F6A"/>
<path d="M21.7798 82.25C21.6576 82.25 21.5252 82.2499 21.4105 82.2593C21.2808 82.2699 21.1093 82.2961 20.9325 82.3862C20.6973 82.5061 20.5061 82.6973 20.3862 82.9325C20.2961 83.1093 20.2699 83.2808 20.2593 83.4105C20.2499 83.5252 20.25 83.6576 20.25 83.7798V90.2202C20.25 90.3424 20.2499 90.4748 20.2593 90.5895C20.2699 90.7192 20.2961 90.8907 20.3862 91.0675C20.5061 91.3027 20.6973 91.4939 20.9325 91.6138C21.1093 91.7039 21.2808 91.7301 21.4105 91.7407C21.5252 91.7501 21.6576 91.75 21.7798 91.75H34.2202C34.3424 91.75 34.4748 91.7501 34.5895 91.7407C34.7192 91.7301 34.8907 91.7039 35.0675 91.6138C35.3027 91.4939 35.4939 91.3027 35.6138 91.0675C35.7039 90.8907 35.7301 90.7192 35.7407 90.5895C35.7501 90.4748 35.75 90.3424 35.75 90.2203V83.7798C35.75 83.6576 35.7501 83.5252 35.7407 83.4105C35.7301 83.2808 35.7039 83.1093 35.6138 82.9325C35.4939 82.6973 35.3027 82.5061 35.0675 82.3862C34.8907 82.2961 34.7192 82.2699 34.5895 82.2593C34.4748 82.2499 34.3424 82.25 34.2202 82.25H31.7798C31.6576 82.25 31.5252 82.2499 31.4105 82.2593C31.2808 82.2699 31.1093 82.2961 30.9325 82.3862C30.6973 82.5061 30.5061 82.6973 30.3862 82.9325C30.2961 83.1093 30.2699 83.2808 30.2593 83.4105C30.2499 83.5252 30.25 83.6576 30.25 83.7798L30.25 86.25H25.75L25.75 83.7798C25.75 83.6576 25.7501 83.5252 25.7407 83.4105C25.7301 83.2808 25.7039 83.1093 25.6138 82.9325C25.4939 82.6973 25.3027 82.5061 25.0675 82.3862C24.8907 82.2961 24.7192 82.2699 24.5895 82.2593C24.4748 82.2499 24.3424 82.25 24.2202 82.25H21.7798Z" fill="#5F5F6A"/>
</g>
<path fill-rule="evenodd" clip-rule="evenodd" d="M25.7798 76.25C25.7866 76.25 25.7933 76.25 25.8 76.25L30.2202 76.25C30.3424 76.25 30.4748 76.2499 30.5895 76.2593C30.7192 76.2699 30.8907 76.2961 31.0675 76.3862C31.3027 76.5061 31.4939 76.6973 31.6138 76.9325C31.7039 77.1093 31.7301 77.2808 31.7407 77.4105C31.7501 77.5252 31.75 77.6576 31.75 77.7798V80.2202C31.75 80.3424 31.7501 80.4748 31.7407 80.5895C31.7301 80.7192 31.7039 80.8907 31.6138 81.0675C31.4939 81.3027 31.3027 81.4939 31.0675 81.6138C30.8907 81.7039 30.7192 81.7301 30.5895 81.7407C30.4748 81.7501 30.3424 81.75 30.2202 81.75L25.8 81.75C25.7933 81.75 25.7866 81.75 25.7798 81.75C25.6576 81.75 25.5252 81.7501 25.4105 81.7407C25.2808 81.7301 25.1093 81.7039 24.9325 81.6138C24.6973 81.4939 24.5061 81.3027 24.3862 81.0675C24.2961 80.8907 24.2699 80.7192 24.2593 80.5895C24.2499 80.4748 24.25 80.3424 24.25 80.2202C24.25 80.2134 24.25 80.2067 24.25 80.2V77.8C24.25 77.7933 24.25 77.7866 24.25 77.7798C24.25 77.6576 24.2499 77.5252 24.2593 77.4105C24.2699 77.2808 24.2961 77.1093 24.3862 76.9325C24.5061 76.6973 24.6973 76.5061 24.9325 76.3862C25.1093 76.2961 25.2808 76.2699 25.4105 76.2593C25.5252 76.2499 25.6576 76.25 25.7798 76.25ZM25.75 77.75C25.75 77.7658 25.75 77.7824 25.75 77.8V80.2C25.75 80.2176 25.75 80.2343 25.75 80.25C25.7658 80.25 25.7824 80.25 25.8 80.25H30.2C30.2176 80.25 30.2343 80.25 30.25 80.25C30.25 80.2343 30.25 80.2176 30.25 80.2V77.8C30.25 77.7824 30.25 77.7658 30.25 77.75C30.2343 77.75 30.2176 77.75 30.2 77.75H25.8C25.7824 77.75 25.7658 77.75 25.75 77.75ZM21.7798 82.25C21.7866 82.25 21.7933 82.25 21.8 82.25H24.2C24.2067 82.25 24.2134 82.25 24.2202 82.25C24.3424 82.25 24.4748 82.2499 24.5895 82.2593C24.7192 82.2699 24.8907 82.2961 25.0675 82.3862C25.3027 82.5061 25.4939 82.6973 25.6138 82.9325C25.7039 83.1093 25.7301 83.2808 25.7407 83.4105C25.7501 83.5252 25.75 83.6576 25.75 83.7798C25.75 83.7866 25.75 83.7933 25.75 83.8V86.2C25.75 86.2176 25.75 86.2343 25.75 86.25C25.7658 86.25 25.7824 86.25 25.8 86.25H30.2C30.2176 86.25 30.2343 86.25 30.25 86.25C30.25 86.2343 30.25 86.2176 30.25 86.2V83.8C30.25 83.7933 30.25 83.7866 30.25 83.7798C30.25 83.6576 30.2499 83.5252 30.2593 83.4105C30.2699 83.2808 30.2961 83.1093 30.3862 82.9325C30.5061 82.6973 30.6973 82.5061 30.9325 82.3862C31.1093 82.2961 31.2808 82.2699 31.4105 82.2593C31.5252 82.2499 31.6576 82.25 31.7798 82.25H34.2202C34.3424 82.25 34.4748 82.2499 34.5895 82.2593C34.7192 82.2699 34.8907 82.2961 35.0675 82.3862C35.3027 82.5061 35.4939 82.6973 35.6138 82.9325C35.7039 83.1093 35.7301 83.2808 35.7407 83.4105C35.7501 83.5252 35.75 83.6576 35.75 83.7798V90.2202C35.75 90.3424 35.7501 90.4748 35.7407 90.5895C35.7301 90.7192 35.7039 90.8907 35.6138 91.0675C35.4939 91.3027 35.3027 91.4939 35.0675 91.6138C34.8907 91.7039 34.7192 91.7301 34.5895 91.7407C34.4748 91.7501 34.3424 91.75 34.2202 91.75H21.7798C21.6576 91.75 21.5252 91.7501 21.4105 91.7407C21.2808 91.7301 21.1093 91.7039 20.9325 91.6138C20.6973 91.4939 20.5061 91.3027 20.3862 91.0675C20.2961 90.8907 20.2699 90.7192 20.2593 90.5895C20.2499 90.4748 20.25 90.3424 20.25 90.2202L20.25 83.8C20.25 83.7933 20.25 83.7866 20.25 83.7798C20.25 83.6576 20.2499 83.5252 20.2593 83.4105C20.2699 83.2808 20.2961 83.1093 20.3862 82.9325C20.5061 82.6973 20.6973 82.5061 20.9325 82.3862C21.1093 82.2961 21.2808 82.2699 21.4105 82.2593C21.5252 82.2499 21.6576 82.25 21.7798 82.25ZM21.75 83.75C21.75 83.7658 21.75 83.7824 21.75 83.8V90.2C21.75 90.2176 21.75 90.2343 21.75 90.25C21.7658 90.25 21.7824 90.25 21.8 90.25H34.2C34.2176 90.25 34.2343 90.25 34.25 90.25C34.25 90.2343 34.25 90.2176 34.25 90.2V83.8C34.25 83.7824 34.25 83.7658 34.25 83.75C34.2343 83.75 34.2176 83.75 34.2 83.75H31.8C31.7824 83.75 31.7658 83.75 31.75 83.75C31.75 83.7658 31.75 83.7824 31.75 83.8L31.75 86.2202C31.75 86.3424 31.7501 86.4748 31.7407 86.5895C31.7301 86.7192 31.7039 86.8907 31.6138 87.0675C31.4939 87.3027 31.3027 87.4939 31.0675 87.6138C30.8907 87.7039 30.7192 87.7301 30.5895 87.7407C30.4748 87.7501 30.3424 87.75 30.2202 87.75H25.7798C25.6576 87.75 25.5252 87.7501 25.4105 87.7407C25.2808 87.7301 25.1093 87.7039 24.9325 87.6138C24.6973 87.4939 24.5061 87.3027 24.3862 87.0675C24.2961 86.8907 24.2699 86.7192 24.2593 86.5895C24.2499 86.4748 24.25 86.3424 24.25 86.2202C24.25 86.2134 24.25 86.2067 24.25 86.2V83.8C24.25 83.7824 24.25 83.7658 24.25 83.75C24.2343 83.75 24.2176 83.75 24.2 83.75H21.8C21.7824 83.75 21.7658 83.75 21.75 83.75Z" fill="#5F5F6A"/>
<path fill-rule="evenodd" clip-rule="evenodd" d="M25.7798 131.25C25.7866 131.25 25.7933 131.25 25.8 131.25L30.2202 131.25C30.3424 131.25 30.4748 131.25 30.5895 131.259C30.7192 131.27 30.8907 131.296 31.0675 131.386C31.3027 131.506 31.4939 131.697 31.6138 131.933C31.7039 132.109 31.7301 132.281 31.7407 132.411C31.7501 132.525 31.75 132.658 31.75 132.78V135.22C31.75 135.342 31.7501 135.475 31.7407 135.589C31.7301 135.719 31.7039 135.891 31.6138 136.067C31.4939 136.303 31.3027 136.494 31.0675 136.614C30.8907 136.704 30.7192 136.73 30.5895 136.741C30.4748 136.75 30.3424 136.75 30.2202 136.75L25.8 136.75C25.7933 136.75 25.7866 136.75 25.7798 136.75C25.6576 136.75 25.5252 136.75 25.4105 136.741C25.2808 136.73 25.1093 136.704 24.9325 136.614C24.6973 136.494 24.5061 136.303 24.3862 136.067C24.2961 135.891 24.2699 135.719 24.2593 135.589C24.2499 135.475 24.25 135.342 24.25 135.22C24.25 135.213 24.25 135.207 24.25 135.2V132.8C24.25 132.793 24.25 132.787 24.25 132.78C24.25 132.658 24.2499 132.525 24.2593 132.411C24.2699 132.281 24.2961 132.109 24.3862 131.933C24.5061 131.697 24.6973 131.506 24.9325 131.386C25.1093 131.296 25.2808 131.27 25.4105 131.259C25.5252 131.25 25.6576 131.25 25.7798 131.25ZM25.75 132.75C25.75 132.766 25.75 132.782 25.75 132.8V135.2C25.75 135.218 25.75 135.234 25.75 135.25C25.7658 135.25 25.7824 135.25 25.8 135.25H30.2C30.2176 135.25 30.2343 135.25 30.25 135.25C30.25 135.234 30.25 135.218 30.25 135.2V132.8C30.25 132.782 30.25 132.766 30.25 132.75C30.2343 132.75 30.2176 132.75 30.2 132.75H25.8C25.7824 132.75 25.7658 132.75 25.75 132.75ZM21.7798 138.25C21.7866 138.25 21.7933 138.25 21.8 138.25H24.2C24.2067 138.25 24.2134 138.25 24.2202 138.25C24.3424 138.25 24.4748 138.25 24.5895 138.259C24.7192 138.27 24.8907 138.296 25.0675 138.386C25.3027 138.506 25.4939 138.697 25.6138 138.933C25.7039 139.109 25.7301 139.281 25.7407 139.411C25.7501 139.525 25.75 139.658 25.75 139.78C25.75 139.787 25.75 139.793 25.75 139.8V142.2C25.75 142.218 25.75 142.234 25.75 142.25C25.7658 142.25 25.7824 142.25 25.8 142.25H30.2C30.2176 142.25 30.2343 142.25 30.25 142.25C30.25 142.234 30.25 142.218 30.25 142.2V139.8C30.25 139.793 30.25 139.787 30.25 139.78C30.25 139.658 30.2499 139.525 30.2593 139.411C30.2699 139.281 30.2961 139.109 30.3862 138.933C30.5061 138.697 30.6973 138.506 30.9325 138.386C31.1093 138.296 31.2808 138.27 31.4105 138.259C31.5252 138.25 31.6576 138.25 31.7798 138.25H34.2202C34.3424 138.25 34.4748 138.25 34.5895 138.259C34.7192 138.27 34.8907 138.296 35.0675 138.386C35.3027 138.506 35.4939 138.697 35.6138 138.933C35.7039 139.109 35.7301 139.281 35.7407 139.411C35.7501 139.525 35.75 139.658 35.75 139.78V146.22C35.75 146.342 35.7501 146.475 35.7407 146.589C35.7301 146.719 35.7039 146.891 35.6138 147.067C35.4939 147.303 35.3027 147.494 35.0675 147.614C34.8907 147.704 34.7192 147.73 34.5895 147.741C34.4748 147.75 34.3424 147.75 34.2202 147.75H21.7798C21.6576 147.75 21.5252 147.75 21.4105 147.741C21.2808 147.73 21.1093 147.704 20.9325 147.614C20.6973 147.494 20.5061 147.303 20.3862 147.067C20.2961 146.891 20.2699 146.719 20.2593 146.589C20.2499 146.475 20.25 146.342 20.25 146.22L20.25 139.8C20.25 139.793 20.25 139.787 20.25 139.78C20.25 139.658 20.2499 139.525 20.2593 139.411C20.2699 139.281 20.2961 139.109 20.3862 138.933C20.5061 138.697 20.6973 138.506 20.9325 138.386C21.1093 138.296 21.2808 138.27 21.4105 138.259C21.5252 138.25 21.6576 138.25 21.7798 138.25ZM30.2443 142.48L30.2445 142.479L30.2443 142.48ZM21.75 139.75C21.75 139.766 21.75 139.782 21.75 139.8V146.2C21.75 146.218 21.75 146.234 21.75 146.25C21.7658 146.25 21.7824 146.25 21.8 146.25H34.2C34.2176 146.25 34.2343 146.25 34.25 146.25C34.25 146.234 34.25 146.218 34.25 146.2V139.8C34.25 139.782 34.25 139.766 34.25 139.75C34.2343 139.75 34.2176 139.75 34.2 139.75H31.8C31.7824 139.75 31.7658 139.75 31.75 139.75C31.75 139.766 31.75 139.782 31.75 139.8L31.75 142.22C31.75 142.342 31.7501 142.475 31.7407 142.589C31.7301 142.719 31.7039 142.891 31.6138 143.067C31.4939 143.303 31.3027 143.494 31.0675 143.614C30.8907 143.704 30.7192 143.73 30.5895 143.741C30.4748 143.75 30.3424 143.75 30.2202 143.75H25.7798C25.6576 143.75 25.5252 143.75 25.4105 143.741C25.2808 143.73 25.1093 143.704 24.9325 143.614C24.6973 143.494 24.5061 143.303 24.3862 143.067C24.2961 142.891 24.2699 142.719 24.2593 142.589C24.2499 142.475 24.25 142.342 24.25 142.22L24.25 139.8C24.25 139.782 24.25 139.766 24.25 139.75C24.2343 139.75 24.2176 139.75 24.2 139.75H21.8C21.7824 139.75 21.7658 139.75 21.75 139.75Z" fill="#5F5F6A"/>
<path fill-rule="evenodd" clip-rule="evenodd" d="M25.7841 188.5H30.216C30.3421 188.5 30.465 188.5 30.5691 188.508C30.6834 188.518 30.8183 188.54 30.954 188.609C31.1422 188.705 31.2951 188.858 31.391 189.046C31.4602 189.182 31.4822 189.317 31.4915 189.431C31.5 189.535 31.5 189.658 31.5 189.784V192.216C31.5 192.342 31.5 192.465 31.4915 192.569C31.4822 192.683 31.4602 192.818 31.391 192.954C31.2951 193.142 31.1422 193.295 30.954 193.391C30.8183 193.46 30.6834 193.482 30.5691 193.492C30.465 193.5 30.3421 193.5 30.2159 193.5H25.7841C25.6579 193.5 25.535 193.5 25.4309 193.492C25.3166 193.482 25.1817 193.46 25.046 193.391C24.8579 193.295 24.7049 193.142 24.609 192.954C24.5398 192.818 24.5178 192.683 24.5085 192.569C24.5 192.465 24.5 192.342 24.5 192.216C24.5 192.211 24.5 192.205 24.5 192.2V189.8C24.5 189.795 24.5 189.789 24.5 189.784C24.5 189.658 24.5 189.535 24.5085 189.431C24.5178 189.317 24.5398 189.182 24.609 189.046C24.7049 188.858 24.8579 188.705 25.046 188.609C25.1817 188.54 25.3166 188.518 25.4309 188.508C25.535 188.5 25.6579 188.5 25.7841 188.5ZM25.5057 189.506C25.5055 189.508 25.5053 189.51 25.5052 189.512C25.5004 189.571 25.5 189.652 25.5 189.8V192.2C25.5 192.348 25.5004 192.429 25.5052 192.488C25.5053 192.49 25.5055 192.492 25.5057 192.494C25.5078 192.494 25.51 192.495 25.5123 192.495C25.5706 192.5 25.6517 192.5 25.8 192.5H30.2C30.3483 192.5 30.4294 192.5 30.4877 192.495C30.49 192.495 30.4922 192.494 30.4943 192.494C30.4945 192.492 30.4947 192.49 30.4949 192.488C30.4996 192.429 30.5 192.348 30.5 192.2V189.8C30.5 189.652 30.4996 189.571 30.4949 189.512C30.4947 189.51 30.4945 189.508 30.4943 189.506C30.4922 189.506 30.49 189.505 30.4877 189.505C30.4294 189.5 30.3483 189.5 30.2 189.5H25.8C25.6517 189.5 25.5706 189.5 25.5123 189.505C25.51 189.505 25.5078 189.506 25.5057 189.506ZM21.7841 194.5H24.2159C24.3421 194.5 24.465 194.5 24.5691 194.508C24.6834 194.518 24.8183 194.54 24.954 194.609C25.1422 194.705 25.2951 194.858 25.391 195.046C25.4602 195.182 25.4822 195.317 25.4915 195.431C25.5 195.535 25.5 195.658 25.5 195.784L25.5 198.2C25.5 198.348 25.5004 198.429 25.5052 198.488C25.5053 198.49 25.5055 198.492 25.5057 198.494C25.5078 198.494 25.51 198.495 25.5123 198.495C25.5706 198.5 25.6517 198.5 25.8 198.5H30.2C30.3483 198.5 30.4294 198.5 30.4877 198.495C30.49 198.495 30.4922 198.494 30.4943 198.494C30.4945 198.492 30.4947 198.49 30.4949 198.488C30.4996 198.429 30.5 198.348 30.5 198.2L30.5 195.784C30.5 195.658 30.5 195.535 30.5085 195.431C30.5178 195.317 30.5398 195.182 30.609 195.046C30.7049 194.858 30.8579 194.705 31.046 194.609C31.1817 194.54 31.3166 194.518 31.4309 194.508C31.535 194.5 31.6579 194.5 31.7841 194.5H34.2159C34.3421 194.5 34.465 194.5 34.5691 194.508C34.6834 194.518 34.8183 194.54 34.954 194.609C35.1422 194.705 35.2951 194.858 35.391 195.046C35.4602 195.182 35.4822 195.317 35.4915 195.431C35.5 195.535 35.5 195.658 35.5 195.784V202.216C35.5 202.342 35.5 202.465 35.4915 202.569C35.4822 202.683 35.4602 202.818 35.391 202.954C35.2951 203.142 35.1422 203.295 34.954 203.391C34.8183 203.46 34.6834 203.482 34.5691 203.492C34.465 203.5 34.3421 203.5 34.216 203.5H21.784C21.6579 203.5 21.535 203.5 21.4309 203.492C21.3166 203.482 21.1817 203.46 21.046 203.391C20.8578 203.295 20.7049 203.142 20.609 202.954C20.5398 202.818 20.5178 202.683 20.5085 202.569C20.5 202.465 20.5 202.342 20.5 202.216V195.784C20.5 195.658 20.5 195.535 20.5085 195.431C20.5178 195.317 20.5398 195.182 20.609 195.046C20.7049 194.858 20.8578 194.705 21.046 194.609C21.1817 194.54 21.3166 194.518 21.4309 194.508C21.535 194.5 21.6579 194.5 21.7841 194.5ZM21.5057 195.506C21.5055 195.508 21.5053 195.51 21.5052 195.512C21.5004 195.571 21.5 195.652 21.5 195.8V202.2C21.5 202.348 21.5004 202.429 21.5052 202.488C21.5053 202.49 21.5055 202.492 21.5057 202.494C21.5078 202.494 21.51 202.495 21.5123 202.495C21.5706 202.5 21.6517 202.5 21.8 202.5H34.2C34.3483 202.5 34.4294 202.5 34.4877 202.495C34.49 202.495 34.4922 202.494 34.4943 202.494C34.4945 202.492 34.4947 202.49 34.4949 202.488C34.4996 202.429 34.5 202.348 34.5 202.2V195.8C34.5 195.652 34.4996 195.571 34.4949 195.512C34.4947 195.51 34.4945 195.508 34.4943 195.506C34.4922 195.506 34.49 195.505 34.4877 195.505C34.4294 195.5 34.3483 195.5 34.2 195.5H31.8C31.6517 195.5 31.5706 195.5 31.5123 195.505C31.51 195.505 31.5078 195.506 31.5057 195.506C31.5055 195.508 31.5053 195.51 31.5052 195.512C31.5004 195.571 31.5 195.652 31.5 195.8L31.5 198.216C31.5 198.342 31.5 198.465 31.4915 198.569C31.4822 198.683 31.4602 198.818 31.391 198.954C31.2951 199.142 31.1422 199.295 30.954 199.391C30.8183 199.46 30.6834 199.482 30.5691 199.492C30.465 199.5 30.3421 199.5 30.216 199.5H25.784C25.6579 199.5 25.535 199.5 25.4309 199.492C25.3166 199.482 25.1817 199.46 25.046 199.391C24.8579 199.295 24.7049 199.142 24.609 198.954C24.5398 198.818 24.5178 198.683 24.5085 198.569C24.5 198.465 24.5 198.342 24.5 198.216L24.5 195.8C24.5 195.652 24.4996 195.571 24.4949 195.512C24.4947 195.51 24.4945 195.508 24.4943 195.506C24.4922 195.506 24.49 195.505 24.4877 195.505C24.4294 195.5 24.3483 195.5 24.2 195.5H21.8C21.6517 195.5 21.5706 195.5 21.5123 195.505C21.51 195.505 21.5078 195.506 21.5057 195.506Z" fill="#5F5F6A"/>
</svg>
