<svg width="56" height="224" viewBox="0 0 56 224" fill="none" xmlns="http://www.w3.org/2000/svg">
<path d="M20.3083 19.1459C19.5731 18.8266 18.8269 19.5728 19.1462 20.308L20.1102 22.5276L19.1462 24.7471C18.8269 25.4823 19.5731 26.2285 20.3083 25.9092L22.5279 24.9452L24.7474 25.9092C25.4826 26.2285 26.2288 25.4823 25.9095 24.7471L24.9455 22.5276L25.9095 20.308C26.2288 19.5728 25.4826 18.8266 24.7474 19.1459L22.5279 20.1099L20.3083 19.1459Z" fill="#5F5F6A"/>
<path d="M30.9401 23.539C30.5572 22.5682 29.1834 22.5682 28.8005 23.539L27.3122 27.3126L23.5386 28.8009C22.5679 29.1837 22.5679 30.5576 23.5386 30.9405L27.3122 32.4288L28.8005 36.2024C29.1834 37.1731 30.5572 37.1731 30.9401 36.2024L32.4284 32.4288L36.202 30.9405C37.1728 30.5576 37.1727 29.1837 36.202 28.8009L32.4284 27.3126L30.9401 23.539Z" fill="#5F5F6A"/>
<path opacity="0.5" d="M20.3083 75.1459C19.5731 74.8266 18.8269 75.5728 19.1462 76.308L20.1102 78.5276L19.1462 80.7471C18.8269 81.4823 19.5731 82.2285 20.3083 81.9092L22.5279 80.9452L24.7474 81.9092C25.4826 82.2285 26.2288 81.4823 25.9095 80.7471L24.9455 78.5276L25.9095 76.308C26.2288 75.5728 25.4826 74.8266 24.7474 75.1459L22.5279 76.1099L20.3083 75.1459Z" fill="#5F5F6A"/>
<path d="M30.9401 79.539C30.5572 78.5682 29.1834 78.5682 28.8005 79.539L27.3122 83.3126L23.5386 84.8009C22.5679 85.1837 22.5679 86.5576 23.5386 86.9405L27.3122 88.4288L28.8005 92.2024C29.1834 93.1731 30.5572 93.1731 30.9401 92.2023L32.4284 88.4288L36.202 86.9405C37.1728 86.5576 37.1727 85.1837 36.202 84.8009L32.4284 83.3126L30.9401 79.539Z" fill="#5F5F6A"/>
<path fill-rule="evenodd" clip-rule="evenodd" d="M20.3083 131.146C19.5731 130.827 18.8269 131.573 19.1462 132.308L20.1102 134.528L19.1462 136.747C18.8269 137.482 19.5731 138.229 20.3083 137.909L22.5279 136.945L24.7474 137.909C25.4826 138.229 26.2288 137.482 25.9095 136.747L24.9455 134.528L25.9095 132.308C26.2288 131.573 25.4826 130.827 24.7474 131.146L22.5279 132.11L20.3083 131.146ZM21.5927 134.176L21.1449 133.145L22.176 133.592C22.4004 133.69 22.6553 133.69 22.8798 133.592L23.9108 133.145L23.463 134.176C23.3655 134.4 23.3655 134.655 23.463 134.879L23.9108 135.91L22.8798 135.463C22.6553 135.365 22.4004 135.365 22.176 135.463L21.1449 135.91L21.5927 134.879C21.6902 134.655 21.6902 134.4 21.5927 134.176Z" fill="#5F5F6A"/>
<path fill-rule="evenodd" clip-rule="evenodd" d="M30.943 135.539C30.5602 134.568 29.1863 134.568 28.8034 135.539L27.3151 139.313L23.5415 140.801C22.5708 141.184 22.5708 142.558 23.5415 142.94L27.3151 144.429L28.8034 148.202C29.1863 149.173 30.5602 149.173 30.943 148.202L32.4313 144.429L36.2049 142.94C37.1757 142.558 37.1757 141.184 36.2049 140.801L32.4313 139.313L30.943 135.539ZM28.6548 140.004L29.8732 136.915L31.0917 140.004C31.2086 140.301 31.4432 140.535 31.7396 140.652L34.829 141.871L31.7396 143.089C31.4432 143.206 31.2086 143.441 31.0917 143.737L29.8732 146.826L28.6548 143.737C28.5379 143.441 28.3033 143.206 28.0069 143.089L24.9174 141.871L28.0069 140.652C28.3033 140.535 28.5379 140.301 28.6548 140.004Z" fill="#5F5F6A"/>
<path fill-rule="evenodd" clip-rule="evenodd" d="M20.2079 187.374C19.6808 187.145 19.1458 187.68 19.3747 188.208L20.382 190.527L19.3747 192.846C19.1458 193.373 19.6808 193.908 20.2079 193.679L22.5271 192.672L24.8462 193.679C25.3734 193.908 25.9084 193.373 25.6794 192.846L24.6722 190.527L25.6794 188.208C25.9084 187.68 25.3734 187.145 24.8462 187.374L22.5271 188.382L20.2079 187.374ZM21.3626 190.274L20.6623 188.662L22.2748 189.362C22.4357 189.432 22.6184 189.432 22.7794 189.362L24.3919 188.662L23.6915 190.274C23.6216 190.435 23.6216 190.618 23.6915 190.779L24.3919 192.392L22.7794 191.691C22.6184 191.621 22.4357 191.621 22.2748 191.691L20.6623 192.392L21.3626 190.779C21.4325 190.618 21.4325 190.435 21.3626 190.274Z" fill="#5F5F6A"/>
<path fill-rule="evenodd" clip-rule="evenodd" d="M30.7078 191.63C30.4081 190.87 29.3329 190.87 29.0333 191.63L27.5052 195.505L23.6306 197.033C22.8708 197.332 22.8708 198.408 23.6306 198.707L27.5052 200.235L29.0333 204.11C29.3329 204.87 30.4081 204.87 30.7078 204.11L32.2359 200.235L36.1105 198.707C36.8702 198.408 36.8702 197.332 36.1105 197.033L32.2359 195.505L30.7078 191.63ZM28.4195 195.912L29.8705 192.233L31.3216 195.912C31.413 196.144 31.5966 196.327 31.8286 196.419L35.5077 197.87L31.8286 199.321C31.5966 199.412 31.413 199.596 31.3216 199.828L29.8705 203.507L28.4195 199.828C28.328 199.596 28.1444 199.412 27.9125 199.321L24.2333 197.87L27.9125 196.419C28.1444 196.327 28.328 196.144 28.4195 195.912Z" fill="#5F5F6A"/>
</svg>
