<svg width="56" height="168" viewBox="0 0 56 168" fill="none" xmlns="http://www.w3.org/2000/svg">
<path d="M23.8459 24.8219C24.2729 23.7953 25.7272 23.7953 26.1542 24.8219L27.3681 27.7406L30.519 27.9932C31.6274 28.0821 32.0768 29.4652 31.2323 30.1885L28.8317 32.245L29.5651 35.3198C29.8231 36.4013 28.6465 37.2561 27.6977 36.6766L25 35.0288L22.3024 36.6766C21.3535 37.2561 20.1769 36.4013 20.4349 35.3198L21.1684 32.245L18.7677 30.1885C17.9233 29.4652 18.3727 28.0821 19.481 27.9932L22.6319 27.7406L23.8459 24.8219ZM25 25.953L23.9583 28.4576C23.7782 28.8904 23.3712 29.1862 22.904 29.2236L20.2 29.4404L22.2602 31.2051C22.6161 31.5101 22.7716 31.9885 22.6629 32.4445L22.0334 35.0831L24.3484 33.6691C24.7485 33.4248 25.2516 33.4248 25.6516 33.6691L27.9666 35.0831L27.3372 32.4445C27.2284 31.9885 27.3839 31.5101 27.7399 31.2051L29.8 29.4404L27.096 29.2236C26.6288 29.1862 26.2218 28.8904 26.0418 28.4576L25 25.953Z" fill="#5F5F6A"/>
<g opacity="0.5">
<path d="M29.5381 19.11C29.7089 18.6993 30.2906 18.6993 30.4614 19.11L30.9405 20.2618C31.0125 20.4349 31.1753 20.5532 31.3622 20.5682L32.6057 20.6679C33.049 20.7034 33.2288 21.2567 32.891 21.546L31.9436 22.3576C31.8012 22.4795 31.739 22.6709 31.7825 22.8533L32.072 24.0667C32.1752 24.4993 31.7046 24.8413 31.325 24.6095L30.2604 23.9592C30.1004 23.8615 29.8992 23.8615 29.7392 23.9592L28.6746 24.6095C28.295 24.8413 27.8244 24.4993 27.9276 24.0667L28.217 22.8533C28.2605 22.6709 28.1983 22.4795 28.0559 22.3576L27.1085 21.546C26.7708 21.2567 26.9505 20.7034 27.3939 20.6679L28.6373 20.5682C28.8242 20.5532 28.987 20.4349 29.0591 20.2618L29.5381 19.11Z" fill="#5F5F6A"/>
<path d="M34.5467 25.9708C34.7262 25.5861 35.2733 25.5861 35.4529 25.9708L35.8775 26.8807C35.9272 26.9871 36.0127 27.0726 36.1191 27.1223L37.029 27.5469C37.4137 27.7265 37.4137 28.2735 37.029 28.4531L36.1191 28.8777C36.0127 28.9274 35.9272 29.0129 35.8775 29.1193L35.4529 30.0292C35.2733 30.4139 34.7262 30.4139 34.5467 30.0292L34.1221 29.1193C34.0724 29.0129 33.9869 28.9274 33.8804 28.8777L32.9706 28.4531C32.5859 28.2735 32.5859 27.7265 32.9706 27.5469L33.8804 27.1223C33.9869 27.0726 34.0724 26.9871 34.1221 26.8807L34.5467 25.9708Z" fill="#5F5F6A"/>
</g>
<path d="M23.8459 80.8219C24.2729 79.7953 25.7272 79.7953 26.1542 80.8219L27.3681 83.7406L30.519 83.9932C31.6274 84.0821 32.0768 85.4652 31.2323 86.1885L28.8317 88.245L29.5651 91.3198C29.8231 92.4013 28.6465 93.2561 27.6977 92.6766L25 91.0288L22.3024 92.6766C21.3535 93.2561 20.1769 92.4013 20.4349 91.3198L21.1684 88.245L18.7677 86.1885C17.9233 85.4652 18.3727 84.0821 19.481 83.9932L22.6319 83.7406L23.8459 80.8219ZM25 81.953L23.9583 84.4576C23.7782 84.8904 23.3712 85.1862 22.904 85.2236L20.2 85.4404L22.2602 87.2051C22.6161 87.5101 22.7716 87.9885 22.6629 88.4445L22.0334 91.0831L24.3484 89.6691C24.7485 89.4248 25.2516 89.4248 25.6516 89.6691L27.9666 91.0831L27.3372 88.4445C27.2284 87.9885 27.3839 87.5101 27.7399 87.2051L29.8 85.4404L27.096 85.2236C26.6288 85.1862 26.2218 84.8904 26.0418 84.4576L25 81.953Z" fill="#5F5F6A"/>
<path d="M29.0767 74.918C29.4183 74.0967 30.5817 74.0967 30.9233 74.918L31.4024 76.0698L32.6459 76.1695C33.5325 76.2406 33.8921 77.3471 33.2165 77.9257L32.2691 78.7373L32.5586 79.9507C32.765 80.8159 31.8237 81.4998 31.0646 81.0362L30 80.3859L28.9354 81.0362C28.1763 81.4998 27.2351 80.816 27.4414 79.9507L27.7309 78.7373L26.7835 77.9257C26.1079 77.3471 26.4675 76.2406 27.3541 76.1695L28.5976 76.0698L29.0767 74.918ZM30.4791 76.4538L30 75.302L29.5209 76.4538C29.3769 76.8 29.0513 77.0366 28.6775 77.0666L27.434 77.1663L28.3814 77.9778C28.6662 78.2218 28.7906 78.6046 28.7036 78.9693L28.4142 80.1828L29.4788 79.5325C29.7988 79.337 30.2012 79.337 30.5213 79.5325L31.5859 80.1828L31.2964 78.9693C31.2094 78.6046 31.3338 78.2218 31.6186 77.9778L32.566 77.1663L31.3225 77.0666C30.9487 77.0366 30.6231 76.8 30.4791 76.4538Z" fill="#5F5F6A"/>
<path d="M34.5469 81.9708C34.7265 81.5861 35.2735 81.5861 35.4531 81.9708L35.8777 82.8807C35.9274 82.9871 36.0129 83.0726 36.1193 83.1223L37.0292 83.5469C37.4139 83.7265 37.4139 84.2735 37.0292 84.4531L36.1193 84.8777C36.0129 84.9274 35.9274 85.0129 35.8777 85.1193L35.4531 86.0292C35.2735 86.4139 34.7265 86.4139 34.5469 86.0292L34.1223 85.1193C34.0726 85.0129 33.9871 84.9274 33.8807 84.8777L32.9708 84.4531C32.5861 84.2735 32.5861 83.7265 32.9708 83.5469L33.8807 83.1223C33.9871 83.0726 34.0726 82.9871 34.1223 82.8807L34.5469 81.9708Z" fill="#5F5F6A"/>
<path d="M29.0767 130.918C29.4183 130.097 30.5817 130.097 30.9233 130.918L31.4024 132.07L32.6459 132.169C33.5325 132.241 33.8921 133.347 33.2165 133.926L32.2691 134.737L32.5586 135.951C32.765 136.816 31.8237 137.5 31.0646 137.036L30 136.386L28.9354 137.036C28.1763 137.5 27.235 136.816 27.4414 135.951L27.7309 134.737L26.7835 133.926C26.1079 133.347 26.4675 132.241 27.3541 132.169L28.5976 132.07L29.0767 130.918ZM30.4791 132.454L30 131.302L29.5209 132.454C29.3769 132.8 29.0513 133.037 28.6775 133.067L27.434 133.166L28.3814 133.978C28.6662 134.222 28.7906 134.605 28.7036 134.969L28.4141 136.183L29.4787 135.532C29.7988 135.337 30.2012 135.337 30.5213 135.532L31.5859 136.183L31.2964 134.969C31.2094 134.605 31.3338 134.222 31.6186 133.978L32.566 133.166L31.3225 133.067C30.9487 133.037 30.6231 132.8 30.4791 132.454Z" fill="#5F5F6A"/>
<path d="M24.0768 136.918C24.4184 136.097 25.5819 136.097 25.9235 136.918L27.196 139.978L30.4992 140.242C31.3858 140.314 31.7454 141.42 31.0698 141.999L28.5532 144.154L29.3221 147.378C29.5285 148.243 28.5872 148.927 27.8281 148.463L25.0001 146.736L22.1722 148.463C21.4131 148.927 20.4718 148.243 20.6782 147.378L21.4471 144.154L18.9304 141.999C18.2549 141.42 18.6144 140.314 19.5011 140.242L22.8042 139.978L24.0768 136.918ZM26.2727 140.362L25.0001 137.302L23.7276 140.362C23.5836 140.708 23.2579 140.944 22.8842 140.974L19.581 141.239L22.0977 143.395C22.3824 143.639 22.5068 144.022 22.4198 144.386L21.6509 147.61L24.4789 145.882C24.7989 145.687 25.2014 145.687 25.5214 145.882L28.3494 147.61L27.5805 144.386C27.4935 144.022 27.6178 143.639 27.9026 143.395L30.4193 141.239L27.1161 140.974C26.7423 140.944 26.4167 140.708 26.2727 140.362Z" fill="#5F5F6A"/>
<path d="M35.4531 136.789C35.3709 136.613 35.1943 136.5 35 136.5C34.8057 136.5 34.6291 136.613 34.5469 136.789L33.6692 138.669L31.7885 139.547C31.6125 139.629 31.5 139.806 31.5 140C31.5 140.194 31.6125 140.371 31.7885 140.453L33.6692 141.331L34.5469 143.211C34.6291 143.387 34.8057 143.5 35 143.5C35.1943 143.5 35.3709 143.387 35.4531 143.211L36.3308 141.331L38.2115 140.453C38.3875 140.371 38.5 140.194 38.5 140C38.5 139.806 38.3875 139.629 38.2115 139.547L36.3308 138.669L35.4531 136.789ZM34.4985 139.257L35 138.182L35.5015 139.257C35.5512 139.363 35.6367 139.449 35.7431 139.498L36.8177 140L35.7431 140.502C35.6367 140.551 35.5512 140.637 35.5015 140.743L35 141.818L34.4985 140.743C34.4488 140.637 34.3633 140.551 34.2569 140.502L33.1823 140L34.2569 139.498C34.3633 139.449 34.4488 139.363 34.4985 139.257Z" fill="#5F5F6A"/>
</svg>
