<svg width="56" height="224" viewBox="0 0 56 224" fill="none" xmlns="http://www.w3.org/2000/svg">
<path d="M26.8456 19.8219C27.2726 18.7953 28.7269 18.7953 29.1539 19.8219L30.8969 24.0125L35.4209 24.3752C36.5292 24.464 36.9786 25.8472 36.1342 26.5705L32.6874 29.5231L33.7404 33.9378C33.9984 35.0193 32.8219 35.8741 31.873 35.2946L27.9998 32.9288L24.1266 35.2946C23.1777 35.8741 22.0011 35.0193 22.2591 33.9378L23.3122 29.5231L19.8653 26.5705C19.0209 25.8472 19.4703 24.464 20.5786 24.3752L25.1027 24.0125L26.8456 19.8219Z" fill="#5F5F6A"/>
<path d="M26.8456 75.8219C27.2726 74.7953 28.7269 74.7953 29.1539 75.8219L30.8969 80.0125L35.4209 80.3752C36.5292 80.464 36.9786 81.8472 36.1342 82.5705L32.6874 85.5231L33.7404 89.9378C33.9984 91.0193 32.8219 91.8741 31.873 91.2946L27.9998 88.9288L24.1266 91.2946C23.1777 91.8741 22.0011 91.0193 22.2591 89.9378L23.3122 85.5231L19.8653 82.5705C19.0209 81.8472 19.4703 80.464 20.5786 80.3752L25.1027 80.0125L26.8456 75.8219ZM27.9998 76.953L26.429 80.7295C26.249 81.1623 25.842 81.458 25.3748 81.4955L21.2977 81.8223L24.404 84.4832C24.76 84.7882 24.9154 85.2667 24.8067 85.7226L23.8576 89.7012L27.3482 87.5691C27.7482 87.3248 28.2513 87.3248 28.6513 87.5691L32.1419 89.7012L31.1929 85.7226C31.0841 85.2667 31.2396 84.7882 31.5956 84.4832L34.7019 81.8223L30.6248 81.4955C30.1576 81.458 29.7505 81.1623 29.5705 80.7295L27.9998 76.953Z" fill="#5F5F6A"/>
<path d="M26.8456 131.822C27.2726 130.795 28.7269 130.795 29.1539 131.822L30.8969 136.012L35.4209 136.375C36.5292 136.464 36.9786 137.847 36.1342 138.57L32.6874 141.523L33.7404 145.938C33.9984 147.019 32.8219 147.874 31.873 147.295L27.9998 144.929L24.1266 147.295C23.1777 147.874 22.0011 147.019 22.2591 145.938L23.3122 141.523L19.8653 138.57C19.0209 137.847 19.4703 136.464 20.5786 136.375L25.1027 136.012L26.8456 131.822ZM27.9998 132.953L26.429 136.73C26.249 137.162 25.842 137.458 25.3748 137.495L21.2977 137.822L24.404 140.483C24.76 140.788 24.9154 141.267 24.8067 141.723L23.8576 145.701L27.3482 143.569C27.7482 143.325 28.2513 143.325 28.6513 143.569L32.1419 145.701L31.1929 141.723C31.0841 141.267 31.2396 140.788 31.5956 140.483L34.7019 137.822L30.6248 137.495C30.1576 137.458 29.7505 137.162 29.5705 136.73L27.9998 132.953Z" fill="#5F5F6A"/>
<path d="M27.0766 187.918C27.4182 187.097 28.5816 187.097 28.9232 187.918L30.7248 192.249L35.4011 192.624C36.2877 192.695 36.6473 193.802 35.9717 194.381L32.4089 197.433L33.4974 201.996C33.7038 202.861 32.7625 203.545 32.0034 203.081L27.9999 200.636L23.9964 203.081C23.2373 203.545 22.296 202.861 22.5024 201.996L23.5909 197.433L20.0281 194.381C19.3526 193.802 19.7121 192.695 20.5987 192.624L25.275 192.249L27.0766 187.918ZM27.9999 188.302L26.1983 192.634C26.0543 192.98 25.7287 193.216 25.3549 193.246L20.6787 193.621L24.2415 196.673C24.5263 196.917 24.6506 197.3 24.5636 197.665L23.4751 202.228L27.4787 199.782C27.7987 199.587 28.2012 199.587 28.5212 199.782L32.5247 202.228L31.4362 197.665C31.3492 197.3 31.4736 196.917 31.7584 196.673L35.3212 193.621L30.6449 193.246C30.2711 193.216 29.9455 192.98 29.8015 192.634L27.9999 188.302Z" fill="#5F5F6A"/>
</svg>
