<svg width="64" height="224" viewBox="0 0 64 224" fill="none" xmlns="http://www.w3.org/2000/svg">
<path d="M26 20C24.3431 20 23 21.3431 23 23V24.5H41V23C41 21.3431 39.6569 20 38 20H26Z" fill="#5F5F6A"/>
<path d="M41 26H32.75V29.5H41V26Z" fill="#5F5F6A"/>
<path d="M41 31H32.75L32.75 36H38C39.6569 36 41 34.6569 41 33V31Z" fill="#5F5F6A"/>
<path d="M31.25 36L31.25 31H23V33C23 34.6569 24.3431 36 26 36H31.25Z" fill="#5F5F6A"/>
<path d="M23 29.5H31.25V26H23V29.5Z" fill="#5F5F6A"/>
<path fill-rule="evenodd" clip-rule="evenodd" d="M23 79C23 77.3431 24.3431 76 26 76H38C39.6569 76 41 77.3431 41 79V89C41 90.6569 39.6569 92 38 92H26C24.3431 92 23 90.6569 23 89V79ZM26 77.5H38C38.8284 77.5 39.5 78.1716 39.5 79V80.5H24.5V79C24.5 78.1716 25.1716 77.5 26 77.5ZM39.5 82V89C39.5 89.8284 38.8284 90.5 38 90.5H26C25.1716 90.5 24.5 89.8284 24.5 89V82H39.5Z" fill="#5F5F6A"/>
<path opacity="0.5" d="M31.25 87V92H32.75V87H41V85.5H32.75V81H31.25V85.5H23V87H31.25Z" fill="#5F5F6A"/>
<path fill-rule="evenodd" clip-rule="evenodd" d="M41 135C41 133.343 39.6569 132 38 132H26C24.3431 132 23 133.343 23 135V145C23 146.657 24.3431 148 26 148H38C39.6569 148 41 146.657 41 145V135ZM26 133.5H38C38.8284 133.5 39.5 134.172 39.5 135V136.5H24.5V135C24.5 134.172 25.1716 133.5 26 133.5ZM39.5 141.5V138H32.75V141.5H39.5ZM31.25 141.5V138H24.5V141.5H31.25ZM24.5 143H31.25V146.5H26C25.1716 146.5 24.5 145.828 24.5 145V143ZM32.75 143H39.5V145C39.5 145.828 38.8284 146.5 38 146.5H32.75V143Z" fill="#5F5F6A"/>
<path fill-rule="evenodd" clip-rule="evenodd" d="M41 191C41 189.343 39.6569 188 38 188H26C24.3431 188 23 189.343 23 191V201C23 202.657 24.3431 204 26 204H38C39.6569 204 41 202.657 41 201V191ZM26 189H38C39.1046 189 40 189.895 40 191V193H24V191C24 189.895 24.8954 189 26 189ZM40 198V194H32.5V198H40ZM31.5 198V194H24V198H31.5ZM24 199H31.5V203H26C24.8954 203 24 202.105 24 201V199ZM32.5 199H40V201C40 202.105 39.1046 203 38 203H32.5V199Z" fill="#5F5F6A"/>
</svg>
