<svg width="56" height="224" viewBox="0 0 56 224" fill="none" xmlns="http://www.w3.org/2000/svg">
<path fill-rule="evenodd" clip-rule="evenodd" d="M21.3892 26.8982C21.3221 27.502 21.5331 28.1037 21.9628 28.5333L29.0612 35.6317C29.8423 36.4128 31.1086 36.4128 31.8896 35.6317L36.1323 31.3891C36.9133 30.6081 36.9133 29.3417 36.1323 28.5607L29.0338 21.4622C28.6042 21.0326 28.0026 20.8216 27.3987 20.8886L23.5804 21.3129C22.6507 21.4162 21.9168 22.1501 21.8135 23.0798L21.3892 26.8982ZM23.7579 25.3786C23.1721 24.7929 23.1721 23.8431 23.7579 23.2573C24.3437 22.6715 25.2934 22.6715 25.8792 23.2573C26.465 23.8431 26.465 24.7929 25.8792 25.3786C25.2934 25.9644 24.3437 25.9644 23.7579 25.3786Z" fill="#5F5F6A"/>
<path d="M27.3975 76.8886C28.0011 76.8216 28.6027 77.0325 29.0322 77.4619L36.1309 84.5605C36.9119 85.3415 36.9119 86.6086 36.1309 87.3896L31.8887 91.6318C31.1076 92.4128 29.8406 92.4128 29.0596 91.6318L21.9609 84.5331C21.5316 84.1036 21.3207 83.502 21.3877 82.8984L21.8125 79.08C21.9158 78.1503 22.6494 77.4167 23.5791 77.3134L27.3975 76.8886ZM25.8779 79.2578C25.2921 78.672 24.3426 78.672 23.7568 79.2578C23.1711 79.8435 23.1711 80.7931 23.7568 81.3788C24.3426 81.9643 25.2922 81.9645 25.8779 81.3788C26.4636 80.7932 26.4634 79.8436 25.8779 79.2578Z" fill="#5F5F6A"/>
<path opacity="0.5" d="M23.7577 79.2573C23.1719 79.8431 23.1719 80.7929 23.7577 81.3787C24.3435 81.9644 25.2932 81.9644 25.879 81.3787C26.4648 80.7929 26.4648 79.8431 25.879 79.2573C25.2932 78.6715 24.3435 78.6715 23.7577 79.2573Z" fill="#5F5F6A"/>
<path d="M23.7579 137.379C23.1721 136.793 23.1721 135.843 23.7579 135.257C24.3437 134.672 25.2935 134.672 25.8792 135.257C26.465 135.843 26.465 136.793 25.8792 137.379C25.2935 137.964 24.3437 137.964 23.7579 137.379Z" fill="#5F5F6A"/>
<path fill-rule="evenodd" clip-rule="evenodd" d="M23.4975 132.568C22.2192 132.71 21.2101 133.719 21.0681 134.997L20.6438 138.815C20.5515 139.646 20.8417 140.473 21.4324 141.064L28.5309 148.162C29.6048 149.236 31.346 149.236 32.42 148.162L36.6626 143.919C37.7366 142.845 37.7366 141.104 36.6626 140.03L29.5642 132.932C28.9734 132.341 28.1462 132.051 27.3159 132.143L23.4975 132.568ZM22.5589 135.163C22.6234 134.582 23.0821 134.123 23.6632 134.058L27.4816 133.634C27.859 133.592 28.235 133.724 28.5035 133.993L35.602 141.091C36.0901 141.579 36.0901 142.371 35.602 142.859L31.3593 147.101C30.8712 147.59 30.0797 147.59 29.5916 147.101L22.4931 140.003C22.2246 139.734 22.0927 139.358 22.1346 138.981L22.5589 135.163Z" fill="#5F5F6A"/>
<path fill-rule="evenodd" clip-rule="evenodd" d="M23.7579 191.257C23.1721 191.843 23.1721 192.793 23.7579 193.379C24.3437 193.964 25.2935 193.964 25.8792 193.379C26.465 192.793 26.465 191.843 25.8792 191.257C25.2935 190.672 24.3437 190.672 23.7579 191.257ZM24.465 192.672C24.2698 192.476 24.2698 192.16 24.465 191.964C24.6603 191.769 24.9769 191.769 25.1721 191.964C25.3674 192.16 25.3674 192.476 25.1721 192.672C24.9769 192.867 24.6603 192.867 24.465 192.672Z" fill="#5F5F6A"/>
<path fill-rule="evenodd" clip-rule="evenodd" d="M23.5252 188.816C22.363 188.945 21.4456 189.862 21.3165 191.025L20.8923 194.843C20.8084 195.598 21.0722 196.35 21.6092 196.887L28.7077 203.985C29.684 204.962 31.2669 204.962 32.2432 203.985L36.4858 199.743C37.4622 198.766 37.4622 197.183 36.4858 196.207L29.3874 189.109C28.8504 188.572 28.0983 188.308 27.3435 188.392L23.5252 188.816ZM22.3104 191.135C22.3879 190.438 22.9383 189.887 23.6356 189.81L27.454 189.386C27.9069 189.335 28.3581 189.494 28.6803 189.816L35.7787 196.914C36.3645 197.5 36.3645 198.45 35.7787 199.036L31.5361 203.278C30.9503 203.864 30.0006 203.864 29.4148 203.278L22.3163 196.18C21.9941 195.858 21.8358 195.406 21.8861 194.953L22.3104 191.135Z" fill="#5F5F6A"/>
</svg>
