<svg width="56" height="168" viewBox="0 0 56 168" fill="none" xmlns="http://www.w3.org/2000/svg">
<path d="M29.7314 19.25C28.8174 19.25 28.0258 19.8523 27.7486 20.7142L26.9474 23.2051C26.8556 23.4904 26.7042 23.7495 26.5054 23.9643C25.8938 24.6251 25.3793 25.3727 24.9771 26.1833H24.3247C24.0262 25.7698 23.5907 25.4629 23.0825 25.3267C22.7933 25.2492 22.4648 25.2495 22.084 25.2499L22.0001 25.25L21.9162 25.2499C21.5354 25.2495 21.2069 25.2492 20.9178 25.3267C20.1413 25.5347 19.5348 26.1412 19.3268 26.9177C19.2493 27.2068 19.2497 27.5353 19.2501 27.9161V34.0839C19.2497 34.4647 19.2493 34.7932 19.3268 35.0823C19.5348 35.8588 20.1413 36.4653 20.9178 36.6733C21.2069 36.7508 21.5354 36.7505 21.9162 36.7501L22.0001 36.75L22.084 36.7501C22.4648 36.7505 22.7933 36.7508 23.0825 36.6733C23.6177 36.5299 24.0721 36.1972 24.371 35.75H31C32.3414 35.75 33.2558 35.6916 33.984 35.3826C34.609 35.1174 35.1528 34.6895 35.5632 34.1438C36.0287 33.5247 36.2441 32.7166 36.5628 31.5206L36.6022 31.373L37.2945 29.0061L37.3034 28.9765C37.4633 28.4425 37.5972 27.9954 37.6733 27.6269C37.7519 27.247 37.7899 26.8623 37.6894 26.4758C37.5417 25.9082 37.1897 25.4132 36.6971 25.0944C36.3584 24.8752 35.9796 24.7977 35.5994 24.7626C35.2324 24.7288 34.7758 24.7288 34.2354 24.7288L31.9327 24.7288C32.4664 23.0345 32.2912 21.6628 32.0037 20.752C31.6697 19.6941 30.6612 19.25 29.782 19.25H29.7314ZM24.7501 34.25C24.7503 34.1957 24.7502 34.1404 24.7502 34.0839V27.9161C24.7503 27.8363 24.7503 27.7587 24.7497 27.6833H25.9319L26.2263 27.0472C26.5779 26.2875 27.0438 25.5909 27.6063 24.9831C27.9553 24.606 28.2174 24.1554 28.3753 23.6644L29.1765 21.1735C29.2617 20.9086 29.4929 20.75 29.7314 20.75H29.782C30.2311 20.75 30.4964 20.9602 30.5732 21.2036C30.8193 21.9829 30.997 23.3534 30.1568 25.163C30.049 25.3952 30.0671 25.6664 30.2049 25.8823C30.3426 26.0981 30.581 26.2288 30.8371 26.2288H34.2006C34.7851 26.2288 35.1718 26.2295 35.4617 26.2563C35.7463 26.2825 35.8419 26.3276 35.8821 26.3536C36.053 26.4643 36.1825 26.6413 36.2377 26.8535C36.253 26.9122 36.2649 27.0306 36.2044 27.3232C36.1431 27.6199 36.0288 28.004 35.8569 28.5781L35.8555 28.5827L35.1575 30.9689L35.1552 30.9775C34.7781 32.3903 34.6317 32.8867 34.3643 33.2423C34.1102 33.5802 33.7765 33.8412 33.3981 34.0017C32.9895 34.1751 32.3722 34.25 31 34.25H24.7501ZM21.306 26.7755C21.3773 26.7564 21.4868 26.75 22.0001 26.75C22.5134 26.75 22.6229 26.7564 22.6942 26.7755C22.953 26.8449 23.1552 27.0471 23.2246 27.3059C23.2437 27.3772 23.2501 27.4867 23.2501 28V34C23.2501 34.5133 23.2437 34.6228 23.2246 34.6941C23.1552 34.9529 22.953 35.1551 22.6942 35.2244C22.6229 35.2436 22.5134 35.25 22.0001 35.25C21.4868 35.25 21.3773 35.2436 21.306 35.2244C21.0472 35.1551 20.845 34.9529 20.7757 34.6941C20.7566 34.6228 20.7501 34.5133 20.7501 34V28C20.7501 27.4867 20.7566 27.3772 20.7757 27.3059C20.845 27.0471 21.0472 26.8449 21.306 26.7755Z" fill="#5F5F6A"/>
<path d="M29.7314 75.25C28.8174 75.25 28.0258 75.8523 27.7486 76.7142L26.9474 79.2051C26.8556 79.4904 26.7042 79.7495 26.5054 79.9643C25.8938 80.6251 25.3793 81.3727 24.9771 82.1833H24.3247C24.0262 81.7698 23.5907 81.4629 23.0825 81.3267C22.7933 81.2492 22.4648 81.2495 22.084 81.2499L22.0001 81.25L21.9162 81.2499C21.5354 81.2495 21.2069 81.2492 20.9178 81.3267C20.1413 81.5347 19.5348 82.1412 19.3268 82.9177C19.2493 83.2068 19.2497 83.5353 19.2501 83.9161V90.0839C19.2497 90.4647 19.2493 90.7932 19.3268 91.0823C19.5348 91.8588 20.1413 92.4653 20.9178 92.6733C21.2069 92.7508 21.5354 92.7505 21.9162 92.7501L22.0001 92.75L22.084 92.7501C22.4648 92.7505 22.7933 92.7508 23.0825 92.6733C23.6177 92.5299 24.0721 92.1972 24.371 91.75H31C32.3414 91.75 33.2558 91.6916 33.984 91.3826C34.609 91.1174 35.1528 90.6895 35.5632 90.1438C36.0287 89.5247 36.2441 88.7166 36.5628 87.5206L36.6022 87.373L37.2945 85.0061L37.3034 84.9765C37.4633 84.4425 37.5972 83.9954 37.6733 83.6269C37.7519 83.247 37.7899 82.8623 37.6894 82.4758C37.5417 81.9082 37.1897 81.4132 36.6971 81.0944C36.3584 80.8752 35.9796 80.7977 35.5994 80.7626C35.2324 80.7288 34.7758 80.7288 34.2354 80.7288L31.9327 80.7288C32.4664 79.0345 32.2912 77.6628 32.0037 76.752C31.6697 75.6941 30.6612 75.25 29.782 75.25H29.7314ZM24.7501 90.25C24.7503 90.1957 24.7502 90.1404 24.7502 90.0839V83.9161C24.7503 83.8363 24.7503 83.7587 24.7497 83.6833H25.9319L26.2263 83.0472C26.5779 82.2875 27.0438 81.5909 27.6063 80.9831C27.9553 80.606 28.2174 80.1554 28.3753 79.6644L29.1765 77.1735C29.2617 76.9086 29.4929 76.75 29.7314 76.75H29.782C30.2311 76.75 30.4964 76.9602 30.5732 77.2036C30.8193 77.9829 30.997 79.3534 30.1568 81.163C30.049 81.3952 30.0671 81.6664 30.2049 81.8823C30.3426 82.0981 30.581 82.2288 30.8371 82.2288H34.2006C34.7851 82.2288 35.1718 82.2295 35.4617 82.2563C35.7463 82.2825 35.8419 82.3276 35.8821 82.3536C36.053 82.4643 36.1825 82.6413 36.2377 82.8535C36.253 82.9122 36.2649 83.0306 36.2044 83.3232C36.1431 83.6199 36.0288 84.004 35.8569 84.5781L35.8555 84.5827L35.1575 86.9689L35.1552 86.9775C34.7781 88.3903 34.6317 88.8867 34.3643 89.2423C34.1102 89.5802 33.7765 89.8412 33.3981 90.0017C32.9895 90.1751 32.3722 90.25 31 90.25H24.7501ZM21.306 82.7755C21.3773 82.7564 21.4868 82.75 22.0001 82.75C22.5134 82.75 22.6229 82.7564 22.6942 82.7755C22.953 82.8449 23.1552 83.0471 23.2246 83.3059C23.2437 83.3772 23.2501 83.4867 23.2501 84V90C23.2501 90.5133 23.2437 90.6228 23.2246 90.6941C23.1552 90.9529 22.953 91.1551 22.6942 91.2244C22.6229 91.2436 22.5134 91.25 22.0001 91.25C21.4868 91.25 21.3773 91.2436 21.306 91.2244C21.0472 91.1551 20.845 90.9529 20.7757 90.6941C20.7566 90.6228 20.7501 90.5133 20.7501 90V84C20.7501 83.4867 20.7566 83.3772 20.7757 83.3059C20.845 83.0471 21.0472 82.8449 21.306 82.7755Z" fill="#5F5F6A"/>
<path d="M29.7314 131.5C28.93 131.5 28.2318 132.028 27.9865 132.791L27.1854 135.282C27.0826 135.601 26.9127 135.892 26.6888 136.134C26.0589 136.815 25.5345 137.59 25.1336 138.433H24.1919C23.9271 138.013 23.511 137.7 23.0177 137.568C22.7619 137.5 22.4665 137.5 22.0688 137.5H21.9313C21.5336 137.5 21.2382 137.5 20.9824 137.568C20.2922 137.753 19.7531 138.292 19.5682 138.982C19.4996 139.238 19.4998 139.534 19.5 139.931V146.069C19.4998 146.466 19.4996 146.762 19.5682 147.018C19.7531 147.708 20.2922 148.247 20.9824 148.432C21.2382 148.5 21.5336 148.5 21.9313 148.5H22.0688C22.4665 148.5 22.7619 148.5 23.0177 148.432C23.5368 148.293 23.9704 147.953 24.2322 147.5H31C32.3466 147.5 33.2114 147.439 33.8864 147.152C34.4702 146.905 34.979 146.505 35.3634 145.994C35.7989 145.414 36.0023 144.652 36.3317 143.417L36.3614 143.306L37.0543 140.937L37.0552 140.934L37.0611 140.914C37.2234 140.372 37.3546 139.934 37.4285 139.576C37.5041 139.211 37.5338 138.871 37.4474 138.539C37.3152 138.03 37.0003 137.588 36.5613 137.304C36.2723 137.117 35.9407 137.045 35.5765 137.012C35.221 136.979 34.7744 136.979 34.2252 136.979H31.5842C32.2331 135.187 32.0567 133.75 31.7653 132.827C31.4741 131.905 30.5895 131.5 29.782 131.5H29.7314ZM24.4959 146.5C24.5002 146.37 24.5002 146.227 24.5001 146.069V139.931C24.5002 139.745 24.5003 139.581 24.4933 139.433H25.7722L25.9994 138.942C26.3619 138.159 26.8424 137.44 27.4228 136.813C27.7467 136.463 27.9905 136.045 28.1374 135.588L28.9385 133.097C29.0557 132.733 29.3803 132.5 29.7314 132.5H29.782C30.3028 132.5 30.6919 132.749 30.8116 133.128C31.0743 133.96 31.2529 135.396 30.3836 137.268C30.3117 137.423 30.3238 137.604 30.4156 137.748C30.5074 137.892 30.6664 137.979 30.8371 137.979H34.2006C34.7803 137.979 35.1806 137.979 35.4846 138.007C35.7851 138.035 35.928 138.086 36.0179 138.144C36.2425 138.289 36.409 138.519 36.4796 138.791C36.5091 138.904 36.5127 139.067 36.4492 139.374C36.3852 139.684 36.267 140.08 36.0964 140.65L36.0955 140.653L35.3998 143.031L35.3968 143.042C35.0254 144.433 34.8679 144.989 34.5641 145.393C34.2839 145.765 33.9152 146.054 33.4958 146.232C33.0339 146.428 32.3671 146.5 31 146.5H24.4959ZM21.2412 138.534C21.3524 138.504 21.5029 138.5 22 138.5C22.4972 138.5 22.6477 138.504 22.7589 138.534C23.104 138.627 23.3735 138.896 23.466 139.241C23.4958 139.352 23.5 139.503 23.5 140V146C23.5 146.497 23.4958 146.648 23.466 146.759C23.3735 147.104 23.104 147.373 22.7589 147.466C22.6477 147.496 22.4972 147.5 22 147.5C21.5029 147.5 21.3524 147.496 21.2412 147.466C20.8961 147.373 20.6266 147.104 20.5341 146.759C20.5043 146.648 20.5 146.497 20.5 146V140C20.5 139.503 20.5043 139.352 20.5341 139.241C20.6266 138.896 20.8961 138.627 21.2412 138.534Z" fill="#5F5F6A"/>
</svg>
