<svg width="56" height="224" viewBox="0 0 56 224" fill="none" xmlns="http://www.w3.org/2000/svg">
<path d="M28 36C23.5817 36 20 32.4183 20 28C20 23.5817 23.5817 20 28 20C32.4183 20 36 23.5817 36 28C36 32.4183 32.4183 36 28 36ZM25.7071 24.2929C25.3166 23.9024 24.6834 23.9024 24.2929 24.2929C23.9024 24.6834 23.9024 25.3166 24.2929 25.7071L26.5858 28L24.2929 30.2929C23.9024 30.6834 23.9024 31.3166 24.2929 31.7071C24.6834 32.0976 25.3166 32.0976 25.7071 31.7071L28 29.4142L30.2929 31.7071C30.6834 32.0976 31.3166 32.0976 31.7071 31.7071C32.0976 31.3166 32.0976 30.6834 31.7071 30.2929L29.4142 28L31.7071 25.7071C32.0976 25.3166 32.0976 24.6834 31.7071 24.2929C31.3166 23.9024 30.6834 23.9024 30.2929 24.2929L28 26.5858L25.7071 24.2929Z" fill="#5F5F6A"/>
<path d="M28 76.75C23.9959 76.75 20.75 79.9959 20.75 84C20.75 88.0041 23.9959 91.25 28 91.25C32.0041 91.25 35.25 88.0041 35.25 84C35.25 79.9959 32.0041 76.75 28 76.75ZM19.25 84C19.25 79.1675 23.1675 75.25 28 75.25C32.8325 75.25 36.75 79.1675 36.75 84C36.75 88.8325 32.8325 92.75 28 92.75C23.1675 92.75 19.25 88.8325 19.25 84Z" fill="#5F5F6A"/>
<path opacity="0.5" d="M24.4697 80.4697C24.7626 80.1768 25.2374 80.1768 25.5303 80.4697L28 82.9393L30.4697 80.4697C30.7626 80.1768 31.2374 80.1768 31.5303 80.4697C31.8232 80.7626 31.8232 81.2374 31.5303 81.5303L29.0607 84L31.5303 86.4697C31.8232 86.7626 31.8232 87.2374 31.5303 87.5303C31.2374 87.8232 30.7626 87.8232 30.4697 87.5303L28 85.0607L25.5303 87.5303C25.2374 87.8232 24.7626 87.8232 24.4697 87.5303C24.1768 87.2374 24.1768 86.7626 24.4697 86.4697L26.9393 84L24.4697 81.5303C24.1768 81.2374 24.1768 80.7626 24.4697 80.4697Z" fill="#5F5F6A"/>
<path d="M28 131.25C32.8325 131.25 36.75 135.168 36.75 140C36.75 144.832 32.8325 148.75 28 148.75C23.1675 148.75 19.25 144.832 19.25 140C19.25 135.168 23.1675 131.25 28 131.25ZM28 132.75C23.9959 132.75 20.75 135.996 20.75 140C20.75 144.004 23.9959 147.25 28 147.25C32.0041 147.25 35.25 144.004 35.25 140C35.25 135.996 32.0041 132.75 28 132.75ZM30.4697 136.47C30.7626 136.177 31.2374 136.177 31.5303 136.47C31.8232 136.763 31.8232 137.237 31.5303 137.53L29.0605 140L31.5303 142.47C31.8232 142.763 31.8232 143.237 31.5303 143.53C31.2374 143.823 30.7626 143.823 30.4697 143.53L28 141.061L25.5303 143.53C25.2374 143.823 24.7626 143.823 24.4697 143.53C24.1768 143.237 24.1768 142.763 24.4697 142.47L26.9395 140L24.4697 137.53C24.1768 137.237 24.1768 136.763 24.4697 136.47C24.7626 136.177 25.2374 136.177 25.5303 136.47L28 138.939L30.4697 136.47Z" fill="#5F5F6A"/>
<path d="M28 188.5C23.8579 188.5 20.5 191.858 20.5 196C20.5 200.142 23.8579 203.5 28 203.5C32.1421 203.5 35.5 200.142 35.5 196C35.5 191.858 32.1421 188.5 28 188.5ZM19.5 196C19.5 191.306 23.3056 187.5 28 187.5C32.6944 187.5 36.5 191.306 36.5 196C36.5 200.694 32.6944 204.5 28 204.5C23.3056 204.5 19.5 200.694 19.5 196ZM24.6464 192.646C24.8417 192.451 25.1583 192.451 25.3536 192.646L28 195.293L30.6464 192.646C30.8417 192.451 31.1583 192.451 31.3536 192.646C31.5488 192.842 31.5488 193.158 31.3536 193.354L28.7071 196L31.3536 198.646C31.5488 198.842 31.5488 199.158 31.3536 199.354C31.1583 199.549 30.8417 199.549 30.6464 199.354L28 196.707L25.3536 199.354C25.1583 199.549 24.8417 199.549 24.6464 199.354C24.4512 199.158 24.4512 198.842 24.6464 198.646L27.2929 196L24.6464 193.354C24.4512 193.158 24.4512 192.842 24.6464 192.646Z" fill="#5F5F6A"/>
</svg>
