<svg width="56" height="168" viewBox="0 0 56 168" fill="none" xmlns="http://www.w3.org/2000/svg">
<path d="M21.9697 21.4697C22.2626 21.1768 22.7374 21.1768 23.0303 21.4697L25.5303 23.9697C25.8232 24.2626 25.8232 24.7374 25.5303 25.0303C25.2374 25.3232 24.7626 25.3232 24.4697 25.0303L23.25 23.8107L23.25 34C23.25 34.4142 22.9142 34.75 22.5 34.75C22.0858 34.75 21.75 34.4142 21.75 34L21.75 23.8107L20.5303 25.0303C20.2374 25.3232 19.7626 25.3232 19.4697 25.0303C19.1768 24.7374 19.1768 24.2626 19.4697 23.9697L21.9697 21.4697Z" fill="#5F5F6A"/>
<path opacity="0.5" d="M28.25 23C28.25 22.5858 28.5858 22.25 29 22.25H36C36.4142 22.25 36.75 22.5858 36.75 23C36.75 23.4142 36.4142 23.75 36 23.75H29C28.5858 23.75 28.25 23.4142 28.25 23ZM27.25 26.5C27.25 26.0858 27.5858 25.75 28 25.75H33C33.4142 25.75 33.75 26.0858 33.75 26.5C33.75 26.9142 33.4142 27.25 33 27.25H28C27.5858 27.25 27.25 26.9142 27.25 26.5ZM27.25 30C27.25 29.5858 27.5858 29.25 28 29.25H31C31.4142 29.25 31.75 29.5858 31.75 30C31.75 30.4142 31.4142 30.75 31 30.75H28C27.5858 30.75 27.25 30.4142 27.25 30ZM27.25 33C27.25 32.5858 27.5858 32.25 28 32.25H29C29.4142 32.25 29.75 32.5858 29.75 33C29.75 33.4142 29.4142 33.75 29 33.75H28C27.5858 33.75 27.25 33.4142 27.25 33Z" fill="#5F5F6A"/>
<path d="M23.0303 77.4697C22.7374 77.1768 22.2626 77.1768 21.9697 77.4697L19.4697 79.9697C19.1768 80.2626 19.1768 80.7374 19.4697 81.0303C19.7626 81.3232 20.2374 81.3232 20.5303 81.0303L21.75 79.8107L21.75 90C21.75 90.4142 22.0858 90.75 22.5 90.75C22.9142 90.75 23.25 90.4142 23.25 90L23.25 79.8107L24.4697 81.0303C24.7626 81.3232 25.2374 81.3232 25.5303 81.0303C25.8232 80.7374 25.8232 80.2626 25.5303 79.9697L23.0303 77.4697Z" fill="#5F5F6A"/>
<path d="M29 78.25C28.5858 78.25 28.25 78.5858 28.25 79C28.25 79.4142 28.5858 79.75 29 79.75H36C36.4142 79.75 36.75 79.4142 36.75 79C36.75 78.5858 36.4142 78.25 36 78.25H29Z" fill="#5F5F6A"/>
<path d="M28 81.75C27.5858 81.75 27.25 82.0858 27.25 82.5C27.25 82.9142 27.5858 83.25 28 83.25H33C33.4142 83.25 33.75 82.9142 33.75 82.5C33.75 82.0858 33.4142 81.75 33 81.75H28Z" fill="#5F5F6A"/>
<path d="M28 85.25C27.5858 85.25 27.25 85.5858 27.25 86C27.25 86.4142 27.5858 86.75 28 86.75H31C31.4142 86.75 31.75 86.4142 31.75 86C31.75 85.5858 31.4142 85.25 31 85.25H28Z" fill="#5F5F6A"/>
<path d="M28 88.25C27.5858 88.25 27.25 88.5858 27.25 89C27.25 89.4142 27.5858 89.75 28 89.75H29C29.4142 89.75 29.75 89.4142 29.75 89C29.75 88.5858 29.4142 88.25 29 88.25H28Z" fill="#5F5F6A"/>
<path d="M22.8536 133.646C22.6583 133.451 22.3417 133.451 22.1464 133.646L19.6464 136.146C19.4512 136.342 19.4512 136.658 19.6464 136.854C19.8417 137.049 20.1583 137.049 20.3536 136.854L22 135.207L22 146C22 146.276 22.2239 146.5 22.5 146.5C22.7761 146.5 23 146.276 23 146L23 135.207L24.6464 136.854C24.8417 137.049 25.1583 137.049 25.3536 136.854C25.5488 136.658 25.5488 136.342 25.3536 136.146L22.8536 133.646Z" fill="#5F5F6A"/>
<path d="M29 134.5C28.7239 134.5 28.5 134.724 28.5 135C28.5 135.276 28.7239 135.5 29 135.5H36C36.2761 135.5 36.5 135.276 36.5 135C36.5 134.724 36.2761 134.5 36 134.5H29Z" fill="#5F5F6A"/>
<path d="M28 138C27.7239 138 27.5 138.224 27.5 138.5C27.5 138.776 27.7239 139 28 139H33C33.2761 139 33.5 138.776 33.5 138.5C33.5 138.224 33.2761 138 33 138H28Z" fill="#5F5F6A"/>
<path d="M28 141.5C27.7239 141.5 27.5 141.724 27.5 142C27.5 142.276 27.7239 142.5 28 142.5H31C31.2761 142.5 31.5 142.276 31.5 142C31.5 141.724 31.2761 141.5 31 141.5H28Z" fill="#5F5F6A"/>
<path d="M28 144.5C27.7239 144.5 27.5 144.724 27.5 145C27.5 145.276 27.7239 145.5 28 145.5H29C29.2761 145.5 29.5 145.276 29.5 145C29.5 144.724 29.2761 144.5 29 144.5H28Z" fill="#5F5F6A"/>
</svg>
