<svg width="56" height="168" viewBox="0 0 56 168" fill="none" xmlns="http://www.w3.org/2000/svg">
<path opacity="0.5" d="M29.5 33.2667C29.5 31.1864 31.1864 29.5 33.2667 29.5H34.2C36.0225 29.5 37.5 30.9775 37.5 32.8V34.2292C37.5 35.0691 36.8191 35.75 35.9792 35.75C35.4897 35.75 35.0542 35.5188 34.776 35.1596C34.4074 35.5231 33.9132 35.75 33.3542 35.75C32.152 35.75 31.25 34.7008 31.25 33.5C31.25 32.2992 32.152 31.25 33.3542 31.25C33.7756 31.25 34.1601 31.3789 34.4818 31.5981C34.5461 31.3962 34.7351 31.25 34.9583 31.25C35.2345 31.25 35.4583 31.4739 35.4583 31.75V34.2292C35.4583 34.5168 35.6915 34.75 35.9792 34.75C36.2668 34.75 36.5 34.5168 36.5 34.2292V32.8C36.5 31.5297 35.4703 30.5 34.2 30.5H33.2667C31.7387 30.5 30.5 31.7387 30.5 33.2667V33.5C30.5 35.1568 31.843 36.4998 33.4997 36.5L33.5015 36.5C33.7433 36.4979 33.9861 36.4772 34.2253 36.4426C34.4245 36.4139 34.6266 36.3723 34.8022 36.3143C34.9845 36.2541 35.1005 36.1883 35.1609 36.1326C35.3638 35.9453 35.6801 35.9579 35.8674 36.1609C36.0547 36.3638 36.0421 36.6801 35.8391 36.8674C35.6286 37.0617 35.3593 37.1834 35.1158 37.2638C34.8656 37.3465 34.6016 37.3986 34.3684 37.4324C34.0836 37.4735 33.7949 37.4975 33.5069 37.5L33.5024 37.5L33.5009 37.5C33.4994 36.6653 33.4999 37.5 33.5009 37.5C31.2918 37.5 29.5 35.7091 29.5 33.5V33.2667ZM34.4583 33.5C34.4583 32.7678 33.9239 32.25 33.3542 32.25C32.7844 32.25 32.25 32.7678 32.25 33.5C32.25 34.2322 32.7844 34.75 33.3542 34.75C33.9239 34.75 34.4583 34.2322 34.4583 33.5Z" fill="#5F5F6A"/>
<path d="M26 19.75C24.6953 19.75 23.671 20.7756 23.671 22C23.671 23.2244 24.6953 24.25 26 24.25C27.3047 24.25 28.3289 23.2244 28.3289 22C28.3289 20.7756 27.3047 19.75 26 19.75ZM22.171 22C22.171 19.9107 23.9038 18.25 26 18.25C28.0961 18.25 29.8289 19.9107 29.8289 22C29.8289 24.0893 28.0961 25.75 26 25.75C23.9038 25.75 22.171 24.0893 22.171 22ZM23.4706 27.9663C23.289 27.8489 23.1514 27.8417 23.0875 27.8593C22.9438 27.8989 22.8008 27.9414 22.6586 27.9869L21.6742 28.3021C20.9669 28.5284 20.4304 29.0566 20.206 29.7059C20.1842 29.769 20.1676 29.8527 20.1544 29.9777L19.7634 33.6766L19.7615 33.6898C19.6867 34.2167 19.9675 34.62 20.3945 34.7191C21.4718 34.9691 23.2859 35.25 26 35.25C26.4142 35.25 26.75 35.5858 26.75 36C26.75 36.4142 26.4142 36.75 26 36.75C23.1821 36.75 21.2535 36.4583 20.0555 36.1803C18.7667 35.8812 18.114 34.6695 18.2744 33.4933L18.6627 29.82C18.6809 29.6478 18.7125 29.4351 18.7883 29.2158C19.1724 28.1048 20.0749 27.239 21.2169 26.8735L22.2013 26.5583C22.3631 26.5065 22.5258 26.4581 22.6893 26.4131C23.3008 26.2448 23.8819 26.446 24.2851 26.7068C24.6552 26.9461 25.2593 27.2356 26 27.2356C26.7407 27.2356 27.3448 26.9461 27.7148 26.7068C28.1181 26.446 28.6992 26.2448 29.3107 26.4131C29.4741 26.4581 29.6368 26.5065 29.7986 26.5583L30.783 26.8735C31.1775 26.9997 31.395 27.4219 31.2687 27.8164C31.1424 28.2109 30.7203 28.4283 30.3258 28.3021L29.3414 27.9869C29.1991 27.9414 29.0561 27.8989 28.9125 27.8593C28.8485 27.8417 28.7109 27.8489 28.5294 27.9663C28.0165 28.298 27.1292 28.7356 26 28.7356C24.8707 28.7356 23.9835 28.298 23.4706 27.9663Z" fill="#5F5F6A"/>
<path d="M29.5 89.2667C29.5 87.1864 31.1864 85.5 33.2667 85.5H34.2C36.0225 85.5 37.5 86.9775 37.5 88.8V90.2292C37.5 91.0691 36.8191 91.75 35.9792 91.75C35.4897 91.75 35.0542 91.5188 34.776 91.1596C34.4074 91.5231 33.9132 91.75 33.3542 91.75C32.152 91.75 31.25 90.7008 31.25 89.5C31.25 88.2992 32.152 87.25 33.3542 87.25C33.7756 87.25 34.1601 87.3789 34.4818 87.5981C34.5461 87.3962 34.7351 87.25 34.9583 87.25C35.2345 87.25 35.4583 87.4739 35.4583 87.75V90.2292C35.4583 90.5168 35.6915 90.75 35.9792 90.75C36.2668 90.75 36.5 90.5168 36.5 90.2292V88.8C36.5 87.5297 35.4703 86.5 34.2 86.5H33.2667C31.7387 86.5 30.5 87.7387 30.5 89.2667V89.5C30.5 91.1568 31.843 92.4998 33.4997 92.5L33.5015 92.5C33.7433 92.4979 33.9861 92.4772 34.2253 92.4426C34.4245 92.4139 34.6266 92.3723 34.8022 92.3143C34.9845 92.2541 35.1005 92.1883 35.1609 92.1326C35.3638 91.9453 35.6801 91.958 35.8674 92.1609C36.0547 92.3638 36.042 92.6801 35.8391 92.8674C35.6286 93.0617 35.3593 93.1834 35.1158 93.2638C34.8656 93.3465 34.6016 93.3986 34.3684 93.4324C34.0836 93.4735 33.7949 93.4975 33.5069 93.5L33.5024 93.5L33.5009 93.5C33.4994 92.6653 33.5009 93.5 33.5009 93.5C31.2918 93.5 29.5 91.7091 29.5 89.5V89.2667ZM34.4583 89.5C34.4583 88.7678 33.9239 88.25 33.3542 88.25C32.7844 88.25 32.25 88.7678 32.25 89.5C32.25 90.2322 32.7844 90.75 33.3542 90.75C33.9239 90.75 34.4583 90.2322 34.4583 89.5Z" fill="#5F5F6A"/>
<path d="M26 75.75C24.6953 75.75 23.671 76.7756 23.671 78C23.671 79.2244 24.6953 80.25 26 80.25C27.3047 80.25 28.3289 79.2244 28.3289 78C28.3289 76.7756 27.3047 75.75 26 75.75ZM22.171 78C22.171 75.9107 23.9038 74.25 26 74.25C28.0961 74.25 29.8289 75.9107 29.8289 78C29.8289 80.0893 28.0961 81.75 26 81.75C23.9038 81.75 22.171 80.0893 22.171 78ZM23.4706 83.9663C23.289 83.8489 23.1514 83.8417 23.0875 83.8593C22.9438 83.8989 22.8008 83.9414 22.6586 83.9869L21.6742 84.3021C20.9669 84.5284 20.4304 85.0566 20.206 85.7059C20.1842 85.769 20.1676 85.8527 20.1544 85.9777L19.7634 89.6766L19.7615 89.6898C19.6867 90.2167 19.9675 90.62 20.3945 90.7191C21.4718 90.9691 23.2859 91.25 26 91.25C26.4142 91.25 26.75 91.5858 26.75 92C26.75 92.4142 26.4142 92.75 26 92.75C23.1821 92.75 21.2535 92.4583 20.0555 92.1803C18.7667 91.8812 18.114 90.6695 18.2744 89.4933L18.6627 85.82C18.6809 85.6478 18.7125 85.4351 18.7883 85.2158C19.1724 84.1048 20.0749 83.239 21.2169 82.8735L22.2013 82.5583C22.3631 82.5065 22.5258 82.4581 22.6893 82.4131C23.3008 82.2448 23.8819 82.446 24.2851 82.7068C24.6552 82.9461 25.2593 83.2356 26 83.2356C26.7407 83.2356 27.3448 82.9461 27.7148 82.7068C28.1181 82.446 28.6992 82.2448 29.3107 82.4131C29.4741 82.4581 29.6368 82.5065 29.7986 82.5583L30.783 82.8735C31.1775 82.9997 31.395 83.4219 31.2687 83.8164C31.1424 84.2109 30.7203 84.4283 30.3258 84.3021L29.3414 83.9869C29.1991 83.9414 29.0561 83.8989 28.9125 83.8593C28.8485 83.8417 28.7109 83.8489 28.5294 83.9663C28.0165 84.298 27.1292 84.7356 26 84.7356C24.8707 84.7356 23.9835 84.298 23.4706 83.9663Z" fill="#5F5F6A"/>
<path d="M29.4999 145.267C29.4999 143.186 31.1863 141.5 33.2666 141.5H34.1999C36.0224 141.5 37.4999 142.977 37.4999 144.8V146.229C37.4999 147.069 36.819 147.75 35.9791 147.75C35.4896 147.75 35.0541 147.519 34.7759 147.16C34.4072 147.523 33.9131 147.75 33.3541 147.75C32.1519 147.75 31.2499 146.701 31.2499 145.5C31.2499 144.299 32.1519 143.25 33.3541 143.25C33.7755 143.25 34.16 143.379 34.4817 143.598C34.546 143.396 34.735 143.25 34.9582 143.25C35.2344 143.25 35.4582 143.474 35.4582 143.75V146.229C35.4582 146.517 35.6914 146.75 35.9791 146.75C36.2667 146.75 36.4999 146.517 36.4999 146.229V144.8C36.4999 143.53 35.4701 142.5 34.1999 142.5H33.2666C31.7386 142.5 30.4999 143.739 30.4999 145.267V145.5C30.4999 147.157 31.8429 148.5 33.4996 148.5L33.5013 148.5L33.5108 148.5C33.5196 148.5 33.5334 148.5 33.5517 148.499C33.5883 148.498 33.6423 148.497 33.7094 148.493C33.8441 148.486 34.0278 148.471 34.2252 148.443C34.4244 148.414 34.6264 148.372 34.8021 148.314C34.9844 148.254 35.1004 148.188 35.1608 148.133C35.3637 147.945 35.68 147.958 35.8673 148.161C36.0546 148.364 36.0419 148.68 35.839 148.867C35.6285 149.062 35.3592 149.183 35.1157 149.264C34.8655 149.346 34.6015 149.399 34.3683 149.432C34.1334 149.466 33.9187 149.483 33.7631 149.491C33.6849 149.496 33.6208 149.498 33.5755 149.499C33.5529 149.499 33.5348 149.5 33.522 149.5L33.5068 149.5L33.5023 149.5L33.5008 149.5C33.5008 149.5 33.4999 149.5 33.4999 149L33.5008 149.5C31.2917 149.5 29.4999 147.709 29.4999 145.5V145.267ZM34.4582 145.5C34.4582 144.768 33.9238 144.25 33.3541 144.25C32.7843 144.25 32.2499 144.768 32.2499 145.5C32.2499 146.232 32.7843 146.75 33.3541 146.75C33.9238 146.75 34.4582 146.232 34.4582 145.5Z" fill="#5F5F6A"/>
<path d="M25.9999 131.5C24.5633 131.5 23.421 132.631 23.421 134C23.421 135.369 24.5633 136.5 25.9999 136.5C27.4365 136.5 28.5788 135.369 28.5788 134C28.5788 132.631 27.4365 131.5 25.9999 131.5ZM22.421 134C22.421 132.055 24.0356 130.5 25.9999 130.5C27.9642 130.5 29.5788 132.055 29.5788 134C29.5788 135.945 27.9642 137.5 25.9999 137.5C24.0356 137.5 22.421 135.945 22.421 134ZM23.6063 139.756C23.3878 139.615 23.1763 139.576 23.021 139.618C22.8741 139.659 22.7278 139.702 22.5823 139.749L21.5979 140.064C20.8642 140.299 20.2917 140.83 20.0176 141.497C20.0121 141.516 20.0037 141.544 19.9903 141.588C19.9903 141.588 19.99 141.589 19.9892 141.592L19.9863 141.602L19.9777 141.634C19.9711 141.66 19.9634 141.69 19.9558 141.721C19.9481 141.752 19.9408 141.782 19.9349 141.808L19.9275 141.84L19.9253 141.85C19.9247 141.853 19.9245 141.854 19.9245 141.854C19.9053 141.955 19.9016 141.991 19.8919 142.083L19.5152 145.646L19.5139 145.655C19.4236 146.29 19.7664 146.83 20.338 146.963C21.4353 147.217 23.2686 147.5 25.9999 147.5C26.276 147.5 26.4999 147.724 26.4999 148C26.4999 148.276 26.276 148.5 25.9999 148.5C23.1994 148.5 21.2898 148.21 20.1119 147.937C18.9657 147.671 18.375 146.592 18.5225 145.523L18.8971 141.98C18.9084 141.874 18.9154 141.808 18.9421 141.668C18.9566 141.591 19.0113 141.37 19.0342 141.295C19.0507 141.241 19.0566 141.221 19.0583 141.215C19.06 141.208 19.0643 141.192 19.0713 141.172C19.0742 141.163 19.0767 141.157 19.0778 141.154L19.0791 141.151L19.0796 141.149C19.4638 140.186 20.275 139.437 21.293 139.112L22.2774 138.796C22.436 138.746 22.5954 138.698 22.7556 138.654C23.2758 138.511 23.783 138.68 24.1493 138.917C24.5431 139.171 25.1944 139.486 25.9999 139.486C26.8054 139.486 27.4567 139.171 27.8505 138.917C28.2168 138.68 28.724 138.511 29.2442 138.654C29.4044 138.698 29.5638 138.746 29.7224 138.796L30.7068 139.112C30.9698 139.196 31.1147 139.477 31.0305 139.74C30.9463 140.003 30.6649 140.148 30.4019 140.064L29.4175 139.749C29.272 139.702 29.1257 139.659 28.9787 139.618C28.8235 139.576 28.612 139.615 28.3935 139.756C27.9045 140.073 27.0644 140.486 25.9999 140.486C24.9354 140.486 24.0953 140.073 23.6063 139.756Z" fill="#5F5F6A"/>
</svg>
