<svg width="64" height="168" viewBox="0 0 64 168" fill="none" xmlns="http://www.w3.org/2000/svg">
<path fill-rule="evenodd" clip-rule="evenodd" d="M32.6241 26.3623C33.0135 26.1516 33.5254 26.0158 34.0606 26.1631L34.5479 26.3086L35.5332 26.623C35.9133 26.7688 36.1483 27.1612 36.0186 27.5664C35.889 27.9712 35.469 28.1554 35.0752 28.0518L34.0909 27.7373L33.6621 27.6094C33.5265 27.5721 33.3935 27.6544 33.2793 27.7168C32.7665 28.0484 31.8791 28.4853 30.75 28.4854C29.8392 28.4853 28.989 28.1871 28.2207 27.7168C28.0856 27.6294 27.974 27.6029 27.8994 27.6025L26.4239 28.0518C25.7898 28.2547 25.1796 28.7582 24.9795 29.4111L24.9785 29.4102V29.4121L24.9766 29.416C24.9403 29.5635 24.9117 29.708 24.8907 29.8584L24.5137 33.4219L24.5127 33.4307L24.5108 33.4395C24.4363 33.964 24.7156 34.3692 25.1446 34.4688L25.583 34.5635C26.689 34.7847 28.3753 35 30.75 35C31.1641 35.0002 31.5 35.3359 31.5 35.75C31.5 36.1641 31.1641 36.4998 30.75 36.5C28.2845 36.5 26.4994 36.2763 25.2891 36.0342L24.8047 35.9307C23.5137 35.6308 22.8622 34.4154 23.0244 33.2393L23.416 29.5527C23.4502 29.3046 23.505 29.047 23.5948 28.8135L23.5967 28.8096C24.0405 27.7707 24.8824 26.9702 25.9668 26.623L27.4385 26.1631C27.9951 26.031 28.5556 26.1469 29.0352 26.457C29.5573 26.7744 30.131 26.9853 30.75 26.9854C31.4484 26.9853 32.0399 26.7099 32.6241 26.3623Z" fill="#5F5F6A"/>
<path fill-rule="evenodd" clip-rule="evenodd" d="M30.75 18C32.8458 18.0002 34.5782 19.6605 34.5782 21.75C34.5782 23.8395 32.8458 25.4998 30.75 25.5C28.6542 25.5 26.9209 23.8395 26.9209 21.75C26.9209 19.6605 28.6542 18 30.75 18ZM30.75 19.5C29.4457 19.5 28.4209 20.5253 28.4209 21.75C28.4209 22.9747 29.4457 24 30.75 24C32.0542 23.9998 33.0782 22.9746 33.0782 21.75C33.0782 20.5254 32.0542 19.5002 30.75 19.5Z" fill="#5F5F6A"/>
<path opacity="0.5" fill-rule="evenodd" clip-rule="evenodd" d="M37.2305 30.25C38.8761 30.2503 40.21 31.5848 40.21 33.2305C40.2099 33.7547 40.072 34.2466 39.834 34.6748L41.0098 35.8506C41.2903 36.1553 41.3371 36.6151 41.0664 36.9473C40.7427 37.3044 40.2137 37.3441 39.8506 37.0098L38.6748 35.834C38.2466 36.072 37.7547 36.2099 37.2305 36.21C35.5848 36.21 34.2503 34.8761 34.25 33.2305C34.25 31.5847 35.5847 30.25 37.2305 30.25ZM37.2305 31.7305C36.402 31.7305 35.7305 32.402 35.7305 33.2305C35.7307 34.0587 36.4022 34.7305 37.2305 34.7305C38.0585 34.7302 38.7302 34.0585 38.7305 33.2305C38.7305 32.4022 38.0587 31.7307 37.2305 31.7305Z" fill="#5F5F6A"/>
<path fill-rule="evenodd" clip-rule="evenodd" d="M37.2305 86.25C38.8761 86.2503 40.21 87.5848 40.21 89.2305C40.2099 89.7547 40.072 90.2466 39.834 90.6748L41.0098 91.8506C41.2903 92.1553 41.3371 92.6151 41.0664 92.9473C40.7428 93.3044 40.2137 93.3441 39.8506 93.0098L38.6748 91.834C38.2466 92.072 37.7547 92.2099 37.2305 92.21C35.5849 92.2099 34.2503 90.8761 34.25 89.2305C34.25 87.5847 35.5847 86.25 37.2305 86.25ZM37.2305 87.7305C36.4021 87.7305 35.7305 88.4021 35.7305 89.2305C35.7308 90.0587 36.4022 90.7305 37.2305 90.7305C38.0586 90.7302 38.7302 90.0585 38.7305 89.2305C38.7305 88.4022 38.0587 87.7307 37.2305 87.7305Z" fill="#5F5F6A"/>
<path d="M32.6241 82.3623C33.0135 82.1516 33.5255 82.0158 34.0606 82.1631L34.5479 82.3086L35.5332 82.623C35.9133 82.7688 36.1483 83.1612 36.0186 83.5664C35.889 83.9712 35.469 84.1554 35.0752 84.0518L34.0909 83.7373L33.6621 83.6094C33.5265 83.5721 33.3935 83.6545 33.2793 83.7168C32.7665 84.0484 31.879 84.4853 30.75 84.4854C29.8392 84.4853 28.989 84.1871 28.2207 83.7168C28.0856 83.6294 27.9739 83.6029 27.8994 83.6025L26.4239 84.0518C25.7898 84.2548 25.1796 84.7582 24.9795 85.4111L24.9785 85.4102V85.4121L24.9766 85.416C24.9403 85.5635 24.9117 85.708 24.8907 85.8584L24.5137 89.4219L24.5127 89.4307L24.5108 89.4395C24.4363 89.9639 24.7156 90.3691 25.1446 90.4688L25.583 90.5635C26.689 90.7847 28.3753 91 30.75 91C31.1641 91.0002 31.5 91.3359 31.5 91.75C31.5 92.1641 31.1641 92.4998 30.75 92.5C28.2845 92.5 26.4993 92.2763 25.2891 92.0342L24.8047 91.9307C23.5138 91.6308 22.8622 90.4154 23.0244 89.2393L23.416 85.5527C23.4502 85.3046 23.505 85.047 23.5948 84.8135L23.5967 84.8096C24.0405 83.7707 24.8824 82.9702 25.9668 82.623L27.4385 82.1631C27.995 82.031 28.5557 82.1469 29.0352 82.457C29.5573 82.7744 30.1311 82.9853 30.75 82.9854C31.4484 82.9853 32.0399 82.7099 32.6241 82.3623Z" fill="#5F5F6A"/>
<path fill-rule="evenodd" clip-rule="evenodd" d="M30.75 74C32.8458 74.0002 34.5782 75.6605 34.5782 77.75C34.5782 79.8395 32.8458 81.4998 30.75 81.5C28.6542 81.4999 26.9209 79.8395 26.9209 77.75C26.9209 75.6605 28.6542 74.0001 30.75 74ZM30.75 75.5C29.4458 75.5001 28.4209 76.5253 28.4209 77.75C28.4209 78.9747 29.4458 79.9999 30.75 80C32.0542 79.9998 33.0782 78.9746 33.0782 77.75C33.0782 76.5254 32.0542 75.5002 30.75 75.5Z" fill="#5F5F6A"/>
<path d="M32.3494 139.417C32.7158 139.18 33.2237 139.011 33.744 139.154C33.904 139.198 34.0631 139.246 34.2215 139.297L35.2059 139.611C35.4689 139.696 35.6143 139.977 35.5301 140.24C35.4459 140.503 35.1642 140.648 34.9012 140.563L33.9168 140.249C33.7714 140.202 33.6253 140.159 33.4784 140.118C33.3232 140.075 33.1119 140.116 32.8934 140.257C32.4043 140.573 31.5633 140.985 30.4989 140.985C29.4346 140.985 28.5943 140.573 28.1053 140.257C27.8868 140.116 27.6755 140.075 27.5203 140.118C27.3734 140.159 27.2273 140.202 27.0819 140.249L26.0975 140.563C25.406 140.785 24.6731 141.356 24.4891 142.092C24.4659 142.177 24.4405 142.264 24.4246 142.351L24.4237 142.354C24.4045 142.455 24.4011 142.491 24.3914 142.582L24.0145 146.146L24.0135 146.154C23.9232 146.79 24.2662 147.33 24.8377 147.463C25.9351 147.718 27.7681 148 30.4989 148C30.775 148 30.9989 148.224 30.9989 148.5C30.9989 148.776 30.775 149 30.4989 149C27.6986 149 25.789 148.71 24.6112 148.437C23.4651 148.17 22.8748 147.092 23.0223 146.023L23.3963 142.48C23.4076 142.374 23.4146 142.308 23.4412 142.168C23.6723 140.951 24.6241 139.985 25.7928 139.611L26.7772 139.297C26.9356 139.246 27.0947 139.198 27.2547 139.154C27.7749 139.011 28.282 139.18 28.6483 139.417C29.042 139.672 29.6936 139.985 30.4989 139.985C31.304 139.985 31.9556 139.672 32.3494 139.417Z" fill="#5F5F6A"/>
<path fill-rule="evenodd" clip-rule="evenodd" d="M36.9803 143.25C38.4877 143.25 39.7098 144.473 39.7098 145.98C39.7097 146.529 39.5444 147.039 39.2655 147.467C39.7339 147.862 40.1492 148.344 40.5828 148.777C40.7531 148.984 40.8139 149.254 40.6561 149.493C40.4263 149.775 40.0697 149.824 39.7772 149.583C39.3435 149.149 38.8621 148.734 38.4666 148.266C38.0386 148.545 37.5291 148.71 36.9803 148.71C35.4727 148.71 34.2501 147.488 34.2498 145.98C34.2498 144.473 35.4726 143.25 36.9803 143.25ZM36.9803 144.23C36.0138 144.23 35.2303 145.014 35.2303 145.98C35.2306 146.947 36.014 147.73 36.9803 147.73C37.9464 147.73 38.7301 146.947 38.7303 145.98C38.7303 145.014 37.9465 144.231 36.9803 144.23Z" fill="#5F5F6A"/>
<path fill-rule="evenodd" clip-rule="evenodd" d="M30.4989 131C32.4631 131 34.078 132.555 34.078 134.5C34.078 136.445 32.4631 138 30.4989 138C28.5348 138 26.9207 136.445 26.9207 134.5C26.9207 132.555 28.5348 131 30.4989 131ZM30.4989 132C29.0624 132 27.9207 133.132 27.9207 134.5C27.9207 135.868 29.0624 137 30.4989 137C31.9355 137 33.078 135.869 33.078 134.5C33.078 133.131 31.9355 132 30.4989 132Z" fill="#5F5F6A"/>
</svg>
