<svg width="56" height="168" viewBox="0 0 56 168" fill="none" xmlns="http://www.w3.org/2000/svg">
<path d="M26 20.75C24.6953 20.75 23.671 21.7756 23.671 23C23.671 24.2244 24.6953 25.25 26 25.25C27.3047 25.25 28.3289 24.2244 28.3289 23C28.3289 21.7756 27.3047 20.75 26 20.75ZM22.171 23C22.171 20.9107 23.9038 19.25 26 19.25C28.0961 19.25 29.8289 20.9107 29.8289 23C29.8289 25.0893 28.0961 26.75 26 26.75C23.9038 26.75 22.171 25.0893 22.171 23ZM23.4706 28.9663C23.289 28.8489 23.1514 28.8417 23.0875 28.8593C22.9438 28.8989 22.8008 28.9414 22.6586 28.9869L21.6742 29.3021C20.9669 29.5284 20.4304 30.0566 20.206 30.7059C20.1842 30.769 20.1676 30.8527 20.1544 30.9777L19.7634 34.6766L19.7615 34.6898C19.6867 35.2167 19.9675 35.62 20.3945 35.7191C21.4718 35.9691 23.2859 36.25 26 36.25C26.4142 36.25 26.75 36.5858 26.75 37C26.75 37.4142 26.4142 37.75 26 37.75C23.1821 37.75 21.2535 37.4583 20.0555 37.1803C18.7667 36.8812 18.114 35.6695 18.2744 34.4933L18.6627 30.82C18.6809 30.6478 18.7125 30.4351 18.7883 30.2158C19.1724 29.1048 20.0749 28.239 21.2169 27.8735L22.2013 27.5583C22.3631 27.5065 22.5258 27.4581 22.6893 27.4131C23.3008 27.2448 23.8819 27.446 24.2851 27.7068C24.6552 27.9461 25.2593 28.2356 26 28.2356C26.7407 28.2356 27.3448 27.9461 27.7148 27.7068C28.1181 27.446 28.6992 27.2448 29.3107 27.4131C29.4741 27.4581 29.6368 27.5065 29.7986 27.5583L30.783 27.8735C31.1775 27.9997 31.395 28.4219 31.2687 28.8164C31.1424 29.2109 30.7203 29.4283 30.3258 29.3021L29.3414 28.9869C29.1991 28.9414 29.0561 28.8989 28.9125 28.8593C28.8485 28.8417 28.7109 28.8489 28.5294 28.9663C28.0165 29.298 27.1292 29.7356 26 29.7356C24.8707 29.7356 23.9835 29.298 23.4706 28.9663Z" fill="#5F5F6A"/>
<path opacity="0.5" d="M34.75 31C34.75 30.5858 34.4142 30.25 34 30.25C33.5858 30.25 33.25 30.5858 33.25 31V33.25H31C30.5858 33.25 30.25 33.5858 30.25 34C30.25 34.4142 30.5858 34.75 31 34.75H33.25V37C33.25 37.4142 33.5858 37.75 34 37.75C34.4142 37.75 34.75 37.4142 34.75 37V34.75H37C37.4142 34.75 37.75 34.4142 37.75 34C37.75 33.5858 37.4142 33.25 37 33.25H34.75V31Z" fill="#5F5F6A"/>
<path fill-rule="evenodd" clip-rule="evenodd" d="M26 75.25C23.9038 75.25 22.171 76.9107 22.171 79C22.171 81.0893 23.9038 82.75 26 82.75C28.0961 82.75 29.8289 81.0893 29.8289 79C29.8289 76.9107 28.0961 75.25 26 75.25ZM23.671 79C23.671 77.7756 24.6953 76.75 26 76.75C27.3047 76.75 28.3289 77.7756 28.3289 79C28.3289 80.2244 27.3047 81.25 26 81.25C24.6953 81.25 23.671 80.2244 23.671 79Z" fill="#5F5F6A"/>
<path d="M23.0875 84.8593C23.1514 84.8417 23.289 84.8489 23.4706 84.9663C23.9835 85.298 24.8707 85.7356 26 85.7356C27.1292 85.7356 28.0165 85.298 28.5294 84.9663C28.7109 84.8489 28.8485 84.8417 28.9125 84.8593C29.0561 84.8989 29.1991 84.9414 29.3414 84.9869L30.3258 85.3021C30.7203 85.4283 31.1424 85.2109 31.2687 84.8164C31.395 84.4219 31.1775 83.9997 30.783 83.8735L29.7986 83.5583C29.6368 83.5065 29.4741 83.4581 29.3107 83.4131C28.6992 83.2448 28.1181 83.446 27.7148 83.7068C27.3448 83.9461 26.7407 84.2356 26 84.2356C25.2593 84.2356 24.6552 83.9461 24.2851 83.7068C23.8819 83.446 23.3008 83.2448 22.6893 83.4131C22.5258 83.4581 22.3631 83.5065 22.2013 83.5583L21.2169 83.8735C20.0749 84.239 19.1724 85.1048 18.7883 86.2158C18.7125 86.4351 18.6809 86.6478 18.6627 86.82L18.2744 90.4933C18.114 91.6695 18.7667 92.8812 20.0555 93.1803C21.2535 93.4583 23.1821 93.75 26 93.75C26.4142 93.75 26.75 93.4142 26.75 93C26.75 92.5858 26.4142 92.25 26 92.25C23.2859 92.25 21.4718 91.9691 20.3945 91.7191C19.9675 91.62 19.6867 91.2167 19.7615 90.6898L19.7634 90.6766L20.1544 86.9777C20.1676 86.8527 20.1842 86.769 20.206 86.7059C20.4304 86.0566 20.9669 85.5284 21.6742 85.3021L22.6586 84.9869C22.8008 84.9414 22.9438 84.8989 23.0875 84.8593Z" fill="#5F5F6A"/>
<path d="M34 86.25C34.4142 86.25 34.75 86.5858 34.75 87V89.25H37C37.4142 89.25 37.75 89.5858 37.75 90C37.75 90.4142 37.4142 90.75 37 90.75H34.75V93C34.75 93.4142 34.4142 93.75 34 93.75C33.5858 93.75 33.25 93.4142 33.25 93V90.75H31C30.5858 90.75 30.25 90.4142 30.25 90C30.25 89.5858 30.5858 89.25 31 89.25H33.25V87C33.25 86.5858 33.5858 86.25 34 86.25Z" fill="#5F5F6A"/>
<path fill-rule="evenodd" clip-rule="evenodd" d="M26.0001 130.5C24.0359 130.5 22.4212 132.055 22.4212 134C22.4212 135.945 24.0359 137.5 26.0001 137.5C27.9644 137.5 29.5791 135.945 29.5791 134C29.5791 132.055 27.9644 130.5 26.0001 130.5ZM23.4212 134C23.4212 132.631 24.5635 131.5 26.0001 131.5C27.4368 131.5 28.5791 132.631 28.5791 134C28.5791 135.369 27.4368 136.5 26.0001 136.5C24.5635 136.5 23.4212 135.369 23.4212 134Z" fill="#5F5F6A"/>
<path d="M23.0213 139.618C23.1765 139.576 23.388 139.615 23.6065 139.756C24.0956 140.073 24.9357 140.486 26.0001 140.486C27.0646 140.486 27.9047 140.073 28.3938 139.756C28.6123 139.615 28.8238 139.576 28.979 139.618C29.126 139.659 29.2722 139.702 29.4177 139.749L30.4021 140.064C30.6651 140.148 30.9466 140.003 31.0308 139.74C31.115 139.477 30.97 139.196 30.707 139.112L29.7226 138.796C29.564 138.746 29.4046 138.698 29.2445 138.654C28.7242 138.511 28.217 138.68 27.8507 138.917C27.4569 139.171 26.8056 139.486 26.0001 139.486C25.1947 139.486 24.5434 139.171 24.1495 138.917C23.7832 138.68 23.276 138.511 22.7558 138.654C22.5957 138.698 22.4363 138.746 22.2777 138.796L21.2933 139.112C20.2753 139.437 19.4641 140.186 19.0799 141.149L19.0793 141.151L19.078 141.154C19.0769 141.157 19.0744 141.163 19.0716 141.172C19.0645 141.192 19.0602 141.208 19.0585 141.215C19.0569 141.221 19.0509 141.241 19.0344 141.295C19.0116 141.37 18.9569 141.591 18.9423 141.668C18.9156 141.808 18.9086 141.874 18.8974 141.98L18.5228 145.523C18.3753 146.592 18.9659 147.671 20.1121 147.937C21.29 148.21 23.1996 148.5 26.0001 148.5C26.2763 148.5 26.5001 148.276 26.5001 148C26.5001 147.724 26.2763 147.5 26.0001 147.5C23.2688 147.5 21.4356 147.217 20.3382 146.963C19.7667 146.83 19.4238 146.29 19.5142 145.655L19.5154 145.646L19.8921 142.083C19.9018 141.991 19.9056 141.955 19.9248 141.854L19.9255 141.85L19.9278 141.84L19.9351 141.808C19.941 141.782 19.9484 141.752 19.956 141.721C19.9637 141.69 19.9713 141.66 19.978 141.634L19.9866 141.602L19.9894 141.592L19.9906 141.588C20.004 141.544 20.0123 141.516 20.0179 141.497C20.2919 140.83 20.8645 140.299 21.5981 140.064L22.5825 139.749C22.728 139.702 22.8743 139.659 23.0213 139.618Z" fill="#5F5F6A"/>
<path d="M34.5001 142C34.5001 141.724 34.2763 141.5 34.0001 141.5C33.724 141.5 33.5001 141.724 33.5001 142V144.5H31.0001C30.724 144.5 30.5001 144.724 30.5001 145C30.5001 145.276 30.724 145.5 31.0001 145.5H33.5001V148C33.5001 148.276 33.724 148.5 34.0001 148.5C34.2763 148.5 34.5001 148.276 34.5001 148V145.5H37.0001C37.2763 145.5 37.5001 145.276 37.5001 145C37.5001 144.724 37.2763 144.5 37.0001 144.5H34.5001V142Z" fill="#5F5F6A"/>
</svg>
