<svg width="56" height="168" viewBox="0 0 56 168" fill="none" xmlns="http://www.w3.org/2000/svg">
<path d="M26 19.75C24.6953 19.75 23.671 20.7756 23.671 22C23.671 23.2244 24.6953 24.25 26 24.25C27.3047 24.25 28.3289 23.2244 28.3289 22C28.3289 20.7756 27.3047 19.75 26 19.75ZM22.171 22C22.171 19.9107 23.9038 18.25 26 18.25C28.0961 18.25 29.8289 19.9107 29.8289 22C29.8289 24.0893 28.0961 25.75 26 25.75C23.9038 25.75 22.171 24.0893 22.171 22ZM23.4706 27.9663C23.289 27.8489 23.1514 27.8417 23.0875 27.8593C22.9438 27.8989 22.8008 27.9414 22.6586 27.9869L21.6742 28.3021C20.9669 28.5284 20.4304 29.0566 20.206 29.7059C20.1842 29.769 20.1676 29.8527 20.1544 29.9777L19.7634 33.6766L19.7615 33.6898C19.6867 34.2167 19.9675 34.62 20.3945 34.7191C21.4718 34.9691 23.2859 35.25 26 35.25C26.4142 35.25 26.75 35.5858 26.75 36C26.75 36.4142 26.4142 36.75 26 36.75C23.1821 36.75 21.2535 36.4583 20.0555 36.1803C18.7667 35.8812 18.114 34.6695 18.2744 33.4933L18.6627 29.82C18.6809 29.6478 18.7125 29.4351 18.7883 29.2158C19.1724 28.1048 20.0749 27.239 21.2169 26.8735L22.2013 26.5583C22.3631 26.5065 22.5258 26.4581 22.6893 26.4131C23.3008 26.2448 23.8819 26.446 24.2851 26.7068C24.6552 26.9461 25.2593 27.2356 26 27.2356C26.7407 27.2356 27.3448 26.9461 27.7148 26.7068C28.1181 26.446 28.6992 26.2448 29.3107 26.4131C29.4741 26.4581 29.6368 26.5065 29.7986 26.5583L30.783 26.8735C31.1775 26.9997 31.395 27.4219 31.2687 27.8164C31.1424 28.2109 30.7203 28.4283 30.3258 28.3021L29.3414 27.9869C29.1991 27.9414 29.0561 27.8989 28.9125 27.8593C28.8485 27.8417 28.7109 27.8489 28.5294 27.9663C28.0165 28.298 27.1292 28.7356 26 28.7356C24.8707 28.7356 23.9835 28.298 23.4706 27.9663Z" fill="#5F5F6A"/>
<path opacity="0.5" d="M34 28.25C34.4142 28.25 34.75 28.5858 34.75 29V29.5849C35.8651 29.6275 36.75 30.5427 36.75 31.6667C36.75 32.0809 36.4142 32.4167 36 32.4167C35.5858 32.4167 35.25 32.0809 35.25 31.6667C35.25 31.3414 34.9908 31.0833 34.6687 31.0833H33.1634C32.9348 31.0833 32.75 31.2694 32.75 31.495C32.75 31.614 32.7637 31.685 32.7753 31.7236C32.7857 31.7583 32.7952 31.7699 32.7976 31.7728C32.8046 31.7813 32.8446 31.8254 33.0299 31.8883L35.4487 32.6901C35.7354 32.7871 36.091 32.9459 36.3614 33.275C36.6427 33.6174 36.75 34.0413 36.75 34.505C36.75 35.5613 35.8913 36.4167 34.8366 36.4167H34.75V37C34.75 37.4142 34.4142 37.75 34 37.75C33.5858 37.75 33.25 37.4142 33.25 37V36.4151C32.1349 36.3725 31.25 35.4573 31.25 34.3333C31.25 33.9191 31.5858 33.5833 32 33.5833C32.4142 33.5833 32.75 33.9191 32.75 34.3333C32.75 34.6586 33.0092 34.9167 33.3313 34.9167H34.8366C35.0652 34.9167 35.25 34.7306 35.25 34.505C35.25 34.386 35.2363 34.315 35.2247 34.2764C35.2143 34.2417 35.2048 34.2301 35.2024 34.2272C35.1954 34.2187 35.1554 34.1746 34.9701 34.1117L32.5513 33.3099C32.2646 33.2129 31.909 33.0541 31.6386 32.725C31.3573 32.3826 31.25 31.9587 31.25 31.495C31.25 30.4387 32.1087 29.5833 33.1634 29.5833H33.25V29C33.25 28.5858 33.5858 28.25 34 28.25Z" fill="#5F5F6A"/>
<path d="M26 74.25C23.9038 74.25 22.171 75.9107 22.171 78C22.171 80.0893 23.9038 81.75 26 81.75C28.0961 81.75 29.8289 80.0893 29.8289 78C29.8289 75.9107 28.0961 74.25 26 74.25ZM23.671 78C23.671 76.7756 24.6953 75.75 26 75.75C27.3047 75.75 28.3289 76.7756 28.3289 78C28.3289 79.2244 27.3047 80.25 26 80.25C24.6953 80.25 23.671 79.2244 23.671 78Z" fill="#5F5F6A"/>
<path d="M23.0875 83.8593C23.1514 83.8417 23.289 83.8489 23.4706 83.9663C23.9835 84.298 24.8707 84.7356 26 84.7356C27.1292 84.7356 28.0165 84.298 28.5294 83.9663C28.7109 83.8489 28.8485 83.8417 28.9125 83.8593C29.0561 83.8989 29.1991 83.9414 29.3414 83.9869L30.3258 84.3021C30.7203 84.4283 31.1424 84.2109 31.2687 83.8164C31.395 83.4219 31.1775 82.9997 30.783 82.8735L29.7986 82.5583C29.6368 82.5065 29.4741 82.4581 29.3107 82.4131C28.6992 82.2448 28.1181 82.446 27.7148 82.7068C27.3448 82.9461 26.7407 83.2356 26 83.2356C25.2593 83.2356 24.6552 82.9461 24.2851 82.7068C23.8819 82.446 23.3008 82.2448 22.6893 82.4131C22.5258 82.4581 22.3631 82.5065 22.2013 82.5583L21.2169 82.8735C20.0749 83.239 19.1724 84.1048 18.7883 85.2158C18.7125 85.4351 18.6809 85.6478 18.6627 85.82L18.2744 89.4933C18.114 90.6695 18.7667 91.8812 20.0555 92.1803C21.2535 92.4583 23.1821 92.75 26 92.75C26.4142 92.75 26.75 92.4142 26.75 92C26.75 91.5858 26.4142 91.25 26 91.25C23.2859 91.25 21.4718 90.9691 20.3945 90.7191C19.9675 90.62 19.6867 90.2167 19.7615 89.6898L19.7634 89.6766L20.1544 85.9777C20.1676 85.8527 20.1842 85.769 20.206 85.7059C20.4304 85.0566 20.9669 84.5284 21.6742 84.3021L22.6586 83.9869C22.8008 83.9414 22.9438 83.8989 23.0875 83.8593Z" fill="#5F5F6A"/>
<path d="M34.75 85C34.75 84.5858 34.4142 84.25 34 84.25C33.5858 84.25 33.25 84.5858 33.25 85V85.5833H33.1634C32.1087 85.5833 31.25 86.4387 31.25 87.495C31.25 87.9587 31.3573 88.3826 31.6386 88.725C31.909 89.0541 32.2646 89.2129 32.5513 89.3099L34.9701 90.1117C35.1554 90.1746 35.1954 90.2187 35.2024 90.2272C35.2048 90.2301 35.2143 90.2417 35.2247 90.2764C35.2363 90.315 35.25 90.386 35.25 90.505C35.25 90.7306 35.0652 90.9167 34.8366 90.9167H33.3313C33.0092 90.9167 32.75 90.6586 32.75 90.3333C32.75 89.9191 32.4142 89.5833 32 89.5833C31.5858 89.5833 31.25 89.9191 31.25 90.3333C31.25 91.4573 32.1349 92.3725 33.25 92.4151V93C33.25 93.4142 33.5858 93.75 34 93.75C34.4142 93.75 34.75 93.4142 34.75 93V92.4167H34.8366C35.8913 92.4167 36.75 91.5613 36.75 90.505C36.75 90.0413 36.6427 89.6174 36.3614 89.275C36.091 88.9459 35.7354 88.7871 35.4487 88.6901L33.0299 87.8883C32.8446 87.8254 32.8046 87.7813 32.7976 87.7728C32.7952 87.7699 32.7857 87.7583 32.7753 87.7236C32.7637 87.685 32.75 87.614 32.75 87.495C32.75 87.2694 32.9348 87.0833 33.1634 87.0833H34.6687C34.9908 87.0833 35.25 87.3414 35.25 87.6667C35.25 88.0809 35.5858 88.4167 36 88.4167C36.4142 88.4167 36.75 88.0809 36.75 87.6667C36.75 86.5427 35.8651 85.6275 34.75 85.5849V85Z" fill="#5F5F6A"/>
<path d="M25.9997 130.5C24.0354 130.5 22.4207 132.055 22.4207 134C22.4207 135.945 24.0354 137.5 25.9997 137.5C27.9639 137.5 29.5786 135.945 29.5786 134C29.5786 132.055 27.9639 130.5 25.9997 130.5ZM23.4207 134C23.4207 132.631 24.563 131.5 25.9997 131.5C27.4363 131.5 28.5786 132.631 28.5786 134C28.5786 135.369 27.4363 136.5 25.9997 136.5C24.563 136.5 23.4207 135.369 23.4207 134Z" fill="#5F5F6A"/>
<path d="M23.0208 139.618C23.176 139.576 23.3875 139.615 23.606 139.756C24.0951 140.073 24.9352 140.486 25.9997 140.486C27.0641 140.486 27.9042 140.073 28.3933 139.756C28.6118 139.615 28.8233 139.576 28.9785 139.618C29.1255 139.659 29.2718 139.702 29.4173 139.749L30.4017 140.064C30.6647 140.148 30.9461 140.003 31.0303 139.74C31.1145 139.477 30.9695 139.196 30.7065 139.112L29.7221 138.796C29.5635 138.746 29.4041 138.698 29.244 138.654C28.7238 138.511 28.2165 138.68 27.8502 138.917C27.4564 139.171 26.8051 139.486 25.9997 139.486C25.1942 139.486 24.5429 139.171 24.1491 138.917C23.7828 138.68 23.2756 138.511 22.7553 138.654C22.5952 138.698 22.4358 138.746 22.2772 138.796L21.2928 139.112C20.2748 139.437 19.4636 140.186 19.0794 141.149L19.0789 141.151L19.0775 141.154C19.0765 141.157 19.074 141.163 19.0711 141.172C19.064 141.192 19.0597 141.208 19.058 141.215C19.0564 141.221 19.0504 141.241 19.034 141.295C19.0111 141.37 18.9564 141.591 18.9418 141.668C18.9151 141.808 18.9081 141.874 18.8969 141.98L18.5223 145.523C18.3748 146.592 18.9655 147.671 20.1117 147.937C21.2896 148.21 23.1991 148.5 25.9997 148.5C26.2758 148.5 26.4997 148.276 26.4997 148C26.4997 147.724 26.2758 147.5 25.9997 147.5C23.2683 147.5 21.4351 147.217 20.3377 146.963C19.7662 146.83 19.4233 146.29 19.5137 145.655L19.5149 145.646L19.8916 142.083C19.9013 141.991 19.9051 141.955 19.9243 141.854C19.9243 141.854 19.9245 141.853 19.9251 141.85L19.9273 141.84L19.9346 141.808C19.9406 141.782 19.9479 141.752 19.9555 141.721C19.9632 141.69 19.9709 141.66 19.9775 141.634L19.9861 141.602L19.989 141.592C19.9897 141.589 19.9901 141.588 19.9901 141.588C20.0035 141.544 20.0119 141.516 20.0174 141.497C20.2914 140.83 20.864 140.299 21.5976 140.064L22.5821 139.749C22.7276 139.702 22.8738 139.659 23.0208 139.618Z" fill="#5F5F6A"/>
<path d="M34.4998 141C34.4998 140.724 34.2759 140.5 33.9998 140.5C33.7236 140.5 33.4998 140.724 33.4998 141V141.833H33.1632C32.2461 141.833 31.4998 142.577 31.4998 143.495C31.4998 143.92 31.5978 144.282 31.8315 144.566C32.058 144.842 32.361 144.982 32.6312 145.073L35.0493 145.875C35.252 145.943 35.3445 146.007 35.3953 146.068C35.4389 146.122 35.4998 146.232 35.4998 146.505C35.4998 146.869 35.2026 147.167 34.8363 147.167H33.3311C32.8704 147.167 32.4998 146.796 32.4998 146.333C32.4998 146.057 32.2759 145.833 31.9998 145.833C31.7236 145.833 31.4998 146.057 31.4998 146.333C31.4998 147.347 32.3165 148.167 33.3311 148.167H33.4998V149C33.4998 149.276 33.7236 149.5 33.9998 149.5C34.2759 149.5 34.4998 149.276 34.4998 149V148.167H34.8363C35.7534 148.167 36.4998 147.423 36.4998 146.505C36.4998 146.08 36.4017 145.718 36.168 145.434C35.9415 145.158 35.6385 145.018 35.3683 144.927L32.9502 144.125C32.7475 144.057 32.655 143.993 32.6042 143.932C32.5607 143.878 32.4998 143.768 32.4998 143.495C32.4998 143.131 32.7969 142.833 33.1632 142.833H34.6684C35.1291 142.833 35.4998 143.204 35.4998 143.667C35.4998 143.943 35.7236 144.167 35.9998 144.167C36.2759 144.167 36.4998 143.943 36.4998 143.667C36.4998 142.653 35.683 141.833 34.6684 141.833H34.4998V141Z" fill="#5F5F6A"/>
</svg>
