<svg width="64" height="168" viewBox="0 0 64 168" fill="none" xmlns="http://www.w3.org/2000/svg">
<path fill-rule="evenodd" clip-rule="evenodd" d="M29.9995 19.25C27.9033 19.25 26.1705 20.9107 26.1705 23C26.1705 25.0893 27.9033 26.75 29.9995 26.75C32.0957 26.75 33.8284 25.0893 33.8284 23C33.8284 20.9107 32.0957 19.25 29.9995 19.25ZM27.6705 23C27.6705 21.7756 28.6948 20.75 29.9995 20.75C31.3042 20.75 32.3284 21.7756 32.3284 23C32.3284 24.2244 31.3042 25.25 29.9995 25.25C28.6948 25.25 27.6705 24.2244 27.6705 23Z" fill="#5F5F6A"/>
<path d="M27.087 28.8593C27.151 28.8417 27.2885 28.8489 27.4701 28.9663C27.983 29.298 28.8703 29.7356 29.9995 29.7356C31.1287 29.7356 32.016 29.298 32.5289 28.9663C32.7104 28.8489 32.848 28.8417 32.912 28.8593C33.0556 28.8989 33.1986 28.9414 33.3409 28.9869L34.3253 29.3021C34.7198 29.4283 35.1419 29.2109 35.2682 28.8164C35.3945 28.4219 35.1771 27.9997 34.7826 27.8735L33.7982 27.5583C33.6363 27.5065 33.4736 27.4581 33.3102 27.4131C32.6987 27.2448 32.1176 27.446 31.7143 27.7068C31.3443 27.9461 30.7402 28.2356 29.9995 28.2356C29.2588 28.2356 28.6547 27.9461 28.2846 27.7068C27.8814 27.446 27.3003 27.2448 26.6888 27.4131C26.5253 27.4581 26.3626 27.5065 26.2008 27.5583L25.2164 27.8735C24.0744 28.239 23.1719 29.1048 22.7878 30.2158C22.712 30.4351 22.6804 30.6478 22.6622 30.82L22.2739 34.4933C22.1135 35.6695 22.7662 36.8812 24.055 37.1803C25.253 37.4583 27.1817 37.75 29.9995 37.75C30.4137 37.75 30.7495 37.4142 30.7495 37C30.7495 36.5858 30.4137 36.25 29.9995 36.25C27.2855 36.25 25.4713 35.9691 24.394 35.7191C23.9671 35.62 23.6862 35.2167 23.761 34.6898L23.7629 34.6766L24.1539 30.9777C24.1671 30.8527 24.1837 30.769 24.2055 30.7059C24.4299 30.0566 24.9664 29.5284 25.6737 29.3021L26.6581 28.9869C26.8003 28.9414 26.9433 28.8989 27.087 28.8593Z" fill="#5F5F6A"/>
<path d="M35.3202 36.3241C35.1579 36.32 35.0043 36.2496 34.8954 36.1292L33.9027 35.032C33.683 34.7892 33.7018 34.4143 33.9446 34.1947C34.1738 33.9872 34.5209 33.9924 34.7438 34.198C34.7465 33.8824 34.7537 33.6071 34.7724 33.3665C34.8035 32.9661 34.8695 32.6117 35.0294 32.2821C35.2827 31.7602 35.6895 31.3305 36.1964 31.0593C36.5277 30.882 36.909 30.8139 37.3112 30.7818C37.7094 30.75 38.1939 30.75 38.7602 30.75H38.7832C39.1106 30.75 39.376 31.0154 39.376 31.3429C39.376 31.6703 39.1106 31.9357 38.7832 31.9357C38.189 31.9357 37.7512 31.9361 37.4055 31.9637C37.0582 31.9914 36.8713 32.0429 36.7557 32.1048C36.4762 32.2543 36.2436 32.4959 36.0961 32.7998C36.0283 32.9396 35.9803 33.127 35.9545 33.4585C35.9369 33.6856 35.9309 33.9563 35.9289 34.2991C36.1833 34.0447 36.56 33.9237 36.8514 34.2151C37.0829 34.4466 37.0829 34.822 36.8514 35.0535L35.7542 36.1506C35.6394 36.2655 35.4825 36.3282 35.3202 36.3241Z" fill="#5F5F6A"/>
<path opacity="0.5" fill-rule="evenodd" clip-rule="evenodd" d="M41.2553 33.9734C41.4782 34.179 41.8252 34.1842 42.0545 33.9767C42.2973 33.7571 42.316 33.3822 42.0963 33.1394L41.1037 32.0422C40.9948 31.9218 40.8412 31.8513 40.6789 31.8473C40.5166 31.8432 40.3597 31.9059 40.2449 32.0207L39.1477 33.1179C38.9162 33.3494 38.9162 33.7248 39.1477 33.9563C39.4391 34.2477 39.8157 34.1267 40.0702 33.8723C40.0682 34.2151 40.0622 34.4858 40.0445 34.7129C40.0187 35.0444 39.9708 35.2318 39.9029 35.3716C39.7555 35.6755 39.5229 35.9171 39.2434 36.0666C39.1278 36.1285 38.9408 36.18 38.5936 36.2077C38.2479 36.2353 37.8101 36.2357 37.2159 36.2357C36.8885 36.2357 36.623 36.5011 36.623 36.8285C36.623 37.156 36.8885 37.4214 37.2159 37.4214H37.2389C37.8052 37.4214 38.2897 37.4214 38.6879 37.3896C39.09 37.3575 39.4713 37.2894 39.8027 37.1121C40.3096 36.8409 40.7164 36.4112 40.9697 35.8893C41.1296 35.5597 41.1955 35.2053 41.2267 34.8049C41.2454 34.5643 41.2525 34.289 41.2553 33.9734Z" fill="#5F5F6A"/>
<path fill-rule="evenodd" clip-rule="evenodd" d="M29.9995 75.25C27.9033 75.25 26.1705 76.9107 26.1705 79C26.1705 81.0893 27.9033 82.75 29.9995 82.75C32.0957 82.75 33.8284 81.0893 33.8284 79C33.8284 76.9107 32.0957 75.25 29.9995 75.25ZM27.6705 79C27.6705 77.7756 28.6948 76.75 29.9995 76.75C31.3042 76.75 32.3284 77.7756 32.3284 79C32.3284 80.2244 31.3042 81.25 29.9995 81.25C28.6948 81.25 27.6705 80.2244 27.6705 79Z" fill="#5F5F6A"/>
<path d="M27.087 84.8593C27.151 84.8417 27.2885 84.8489 27.4701 84.9663C27.983 85.298 28.8703 85.7356 29.9995 85.7356C31.1287 85.7356 32.016 85.298 32.5289 84.9663C32.7104 84.8489 32.848 84.8417 32.912 84.8593C33.0556 84.8989 33.1986 84.9414 33.3409 84.9869L34.3253 85.3021C34.7198 85.4283 35.1419 85.2109 35.2682 84.8164C35.3945 84.4219 35.1771 83.9997 34.7826 83.8735L33.7982 83.5583C33.6363 83.5065 33.4736 83.4581 33.3102 83.4131C32.6987 83.2448 32.1176 83.446 31.7143 83.7068C31.3443 83.9461 30.7402 84.2356 29.9995 84.2356C29.2588 84.2356 28.6547 83.9461 28.2846 83.7068C27.8814 83.446 27.3003 83.2448 26.6888 83.4131C26.5253 83.4581 26.3626 83.5065 26.2008 83.5583L25.2164 83.8735C24.0744 84.239 23.1719 85.1048 22.7878 86.2158C22.712 86.4351 22.6804 86.6478 22.6622 86.82L22.2739 90.4933C22.1135 91.6695 22.7662 92.8812 24.055 93.1803C25.253 93.4583 27.1817 93.75 29.9995 93.75C30.4137 93.75 30.7495 93.4142 30.7495 93C30.7495 92.5858 30.4137 92.25 29.9995 92.25C27.2855 92.25 25.4713 91.9691 24.394 91.7191C23.9671 91.62 23.6862 91.2167 23.761 90.6898L23.7629 90.6766L24.1539 86.9777C24.1671 86.8527 24.1837 86.769 24.2055 86.7059C24.4299 86.0566 24.9664 85.5284 25.6737 85.3021L26.6581 84.9869C26.8003 84.9414 26.9433 84.8989 27.087 84.8593Z" fill="#5F5F6A"/>
<path d="M35.3202 92.3241C35.1579 92.32 35.0043 92.2496 34.8954 92.1292L33.9027 91.032C33.683 90.7892 33.7018 90.4143 33.9446 90.1947C34.1738 89.9872 34.5209 89.9924 34.7438 90.198C34.7465 89.8824 34.7537 89.6071 34.7724 89.3665C34.8035 88.9661 34.8695 88.6117 35.0294 88.2821C35.2827 87.7602 35.6895 87.3305 36.1964 87.0593C36.5277 86.882 36.909 86.8139 37.3112 86.7818C37.7094 86.75 38.1939 86.75 38.7602 86.75H38.7832C39.1106 86.75 39.376 87.0154 39.376 87.3429C39.376 87.6703 39.1106 87.9357 38.7832 87.9357C38.189 87.9357 37.7512 87.9361 37.4055 87.9637C37.0582 87.9914 36.8713 88.0429 36.7557 88.1048C36.4762 88.2543 36.2436 88.4959 36.0961 88.7998C36.0283 88.9396 35.9803 89.127 35.9545 89.4585C35.9369 89.6856 35.9309 89.9563 35.9289 90.2991C36.1833 90.0447 36.56 89.9237 36.8514 90.2151C37.0829 90.4466 37.0829 90.822 36.8514 91.0535L35.7542 92.1506C35.6394 92.2655 35.4825 92.3282 35.3202 92.3241Z" fill="#5F5F6A"/>
<path d="M42.0544 89.9767C41.8251 90.1842 41.4781 90.179 41.2551 89.9734C41.2524 90.289 41.2453 90.5643 41.2266 90.8049C41.1954 91.2053 41.1295 91.5597 40.9696 91.8893C40.7163 92.4112 40.3095 92.8409 39.8026 93.1121C39.4712 93.2894 39.0899 93.3575 38.6878 93.3896C38.2896 93.4214 37.8051 93.4214 37.2388 93.4214H37.2158C36.8884 93.4214 36.6229 93.156 36.6229 92.8285C36.6229 92.5011 36.8884 92.2357 37.2158 92.2357C37.81 92.2357 38.2478 92.2353 38.5934 92.2077C38.9407 92.18 39.1277 92.1285 39.2432 92.0666C39.5228 91.9171 39.7554 91.6755 39.9028 91.3716C39.9706 91.2318 40.0186 91.0444 40.0444 90.7129C40.0621 90.4858 40.0681 90.2151 40.0701 89.8723C39.8156 90.1267 39.439 90.2477 39.1476 89.9563C38.9161 89.7248 38.9161 89.3494 39.1476 89.1179L40.2447 88.0208C40.3596 87.9059 40.5164 87.8432 40.6788 87.8473C40.8411 87.8513 40.9946 87.9218 41.1036 88.0422L42.0962 89.1394C42.3159 89.3822 42.2972 89.7571 42.0544 89.9767Z" fill="#5F5F6A"/>
<path fill-rule="evenodd" clip-rule="evenodd" d="M26.4207 134C26.4207 132.055 28.0354 130.5 29.9997 130.5C31.9639 130.5 33.5786 132.055 33.5786 134C33.5786 135.945 31.9639 137.5 29.9997 137.5C28.0354 137.5 26.4207 135.945 26.4207 134ZM29.9997 131.5C28.563 131.5 27.4207 132.631 27.4207 134C27.4207 135.369 28.563 136.5 29.9997 136.5C31.4363 136.5 32.5786 135.369 32.5786 134C32.5786 132.631 31.4363 131.5 29.9997 131.5Z" fill="#5F5F6A"/>
<path d="M27.606 139.756C27.3875 139.615 27.176 139.576 27.0208 139.618C26.8738 139.659 26.7276 139.702 26.5821 139.749L25.5976 140.064C24.864 140.299 24.2914 140.83 24.0174 141.497C24.0119 141.516 24.0035 141.544 23.9901 141.588L23.989 141.592L23.9861 141.602L23.9775 141.634C23.9709 141.66 23.9632 141.69 23.9555 141.721C23.9479 141.752 23.9406 141.782 23.9346 141.808L23.9273 141.84L23.9251 141.85L23.9243 141.854C23.9051 141.955 23.9013 141.991 23.8916 142.083L23.5149 145.646L23.5137 145.655C23.4233 146.29 23.7662 146.83 24.3377 146.963C25.4351 147.217 27.2683 147.5 29.9997 147.5C30.2758 147.5 30.4997 147.724 30.4997 148C30.4997 148.276 30.2758 148.5 29.9997 148.5C27.1991 148.5 25.2896 148.21 24.1117 147.937C22.9655 147.671 22.3748 146.592 22.5223 145.523L22.8969 141.98C22.9081 141.874 22.9151 141.808 22.9418 141.668C22.9564 141.591 23.0111 141.37 23.034 141.295C23.0504 141.241 23.0564 141.221 23.058 141.215C23.0597 141.208 23.064 141.192 23.0711 141.172C23.074 141.163 23.0765 141.157 23.0775 141.154L23.0789 141.151L23.0794 141.149C23.4636 140.186 24.2748 139.437 25.2928 139.112L26.2772 138.796C26.4358 138.746 26.5952 138.698 26.7553 138.654C27.2756 138.511 27.7828 138.68 28.1491 138.917C28.5429 139.171 29.1942 139.486 29.9997 139.486C30.8051 139.486 31.4564 139.171 31.8502 138.917C32.2165 138.68 32.7238 138.511 33.244 138.654C33.4041 138.698 33.5635 138.746 33.7221 138.796L34.7065 139.112C34.9695 139.196 35.1145 139.477 35.0303 139.74C34.9461 140.003 34.6647 140.148 34.4017 140.064L33.4173 139.749C33.2718 139.702 33.1255 139.659 32.9785 139.618C32.8233 139.576 32.6118 139.615 32.3933 139.756C31.9042 140.073 31.0641 140.486 29.9997 140.486C28.9352 140.486 28.0951 140.073 27.606 139.756Z" fill="#5F5F6A"/>
<path d="M38.7833 142.95C39.0003 142.95 39.1762 143.126 39.1762 143.343C39.1762 143.56 39.0003 143.736 38.7833 143.736C38.1922 143.736 37.7452 143.736 37.3898 143.764C37.0333 143.793 36.8135 143.847 36.6615 143.928C36.3436 144.099 36.0817 144.372 35.9164 144.712C35.833 144.884 35.782 145.1 35.7553 145.443C35.7293 145.777 35.7281 146.199 35.728 146.783L36.1545 146.357C36.3079 146.203 36.5567 146.203 36.7101 146.357C36.8635 146.51 36.8635 146.759 36.7101 146.912L35.6129 148.009C35.5369 148.085 35.4329 148.127 35.3253 148.124C35.2178 148.121 35.116 148.075 35.0438 147.995L34.0512 146.898C33.9056 146.737 33.918 146.489 34.0789 146.343C34.2398 146.197 34.4883 146.21 34.6338 146.371L34.9423 146.712C34.9424 146.17 34.9444 145.736 34.972 145.382C35.0022 144.993 35.0651 144.667 35.2095 144.369C35.4449 143.884 35.8223 143.486 36.2909 143.236C36.5859 143.078 36.9344 143.013 37.3273 142.981C37.7175 142.95 38.1954 142.95 38.7678 142.95H38.7833Z" fill="#5F5F6A"/>
<path d="M40.6739 144.047C40.7815 144.05 40.8833 144.097 40.9554 144.176L41.9481 145.274C42.0937 145.434 42.0812 145.683 41.9203 145.828C41.7595 145.974 41.511 145.962 41.3655 145.801L41.057 145.46C41.0568 146.001 41.0549 146.435 41.0273 146.789C40.9971 147.178 40.9342 147.504 40.7898 147.802C40.5544 148.287 40.1769 148.685 39.7084 148.936C39.4134 149.094 39.0648 149.159 38.672 149.19C38.2557 149.223 37.8367 149.223 37.4189 149.222C37.3512 149.222 37.2836 149.221 37.216 149.221C36.999 149.221 36.8231 149.046 36.8231 148.829C36.8231 148.612 36.999 148.436 37.216 148.436C37.8071 148.436 38.2541 148.435 38.6095 148.407C38.966 148.379 39.1857 148.324 39.3377 148.243C39.6556 148.073 39.9176 147.8 40.0829 147.459C40.1663 147.287 40.2173 147.071 40.244 146.728C40.27 146.395 40.2712 145.972 40.2713 145.388L39.8448 145.815C39.6913 145.968 39.4426 145.968 39.2892 145.815C39.1358 145.661 39.1358 145.413 39.2892 145.259L40.3863 144.162C40.4624 144.086 40.5664 144.045 40.6739 144.047Z" fill="#5F5F6A"/>
</svg>
