<svg width="56" height="168" viewBox="0 0 56 168" fill="none" xmlns="http://www.w3.org/2000/svg">
<path opacity="0.5" d="M34 29.25C34.4142 29.25 34.75 29.5858 34.75 30V34.7248L36.4772 33.0456C36.7742 32.7568 37.249 32.7635 37.5377 33.0605C37.8265 33.3575 37.8198 33.8323 37.5228 34.1211L34 37.546L30.4772 34.1211C30.1802 33.8323 30.1735 33.3575 30.4623 33.0605C30.751 32.7635 31.2258 32.7568 31.5228 33.0456L33.25 34.7248V30C33.25 29.5858 33.5858 29.25 34 29.25Z" fill="#5F5F6A"/>
<path d="M26 19.75C24.6953 19.75 23.671 20.7756 23.671 22C23.671 23.2244 24.6953 24.25 26 24.25C27.3047 24.25 28.3289 23.2244 28.3289 22C28.3289 20.7756 27.3047 19.75 26 19.75ZM22.171 22C22.171 19.9107 23.9038 18.25 26 18.25C28.0961 18.25 29.8289 19.9107 29.8289 22C29.8289 24.0893 28.0961 25.75 26 25.75C23.9038 25.75 22.171 24.0893 22.171 22ZM23.4706 27.9663C23.289 27.8489 23.1514 27.8417 23.0875 27.8593C22.9438 27.8989 22.8008 27.9414 22.6586 27.9869L21.6742 28.3021C20.9669 28.5284 20.4304 29.0566 20.206 29.7059C20.1842 29.769 20.1676 29.8527 20.1544 29.9777L19.7634 33.6766L19.7615 33.6898C19.6867 34.2167 19.9675 34.62 20.3945 34.7191C21.4718 34.9691 23.2859 35.25 26 35.25C26.4142 35.25 26.75 35.5858 26.75 36C26.75 36.4142 26.4142 36.75 26 36.75C23.1821 36.75 21.2535 36.4583 20.0555 36.1803C18.7667 35.8812 18.114 34.6695 18.2744 33.4933L18.6627 29.82C18.6809 29.6478 18.7125 29.4351 18.7883 29.2158C19.1724 28.1048 20.0749 27.239 21.2169 26.8735L22.2013 26.5583C22.3631 26.5065 22.5258 26.4581 22.6893 26.4131C23.3008 26.2448 23.8819 26.446 24.2851 26.7068C24.6552 26.9461 25.2593 27.2356 26 27.2356C26.7407 27.2356 27.3448 26.9461 27.7148 26.7068C28.1181 26.446 28.6992 26.2448 29.3107 26.4131C29.4741 26.4581 29.6368 26.5065 29.7986 26.5583L30.783 26.8735C31.1775 26.9997 31.395 27.4219 31.2687 27.8164C31.1424 28.2109 30.7203 28.4283 30.3258 28.3021L29.3414 27.9869C29.1991 27.9414 29.0561 27.8989 28.9125 27.8593C28.8485 27.8417 28.7109 27.8489 28.5294 27.9663C28.0165 28.298 27.1292 28.7356 26 28.7356C24.8707 28.7356 23.9835 28.298 23.4706 27.9663Z" fill="#5F5F6A"/>
<path d="M34 85.25C34.4142 85.25 34.75 85.5858 34.75 86V90.7248L36.4772 89.0456C36.7741 88.7568 37.249 88.7635 37.5377 89.0605C37.8265 89.3575 37.8198 89.8323 37.5228 90.1211L34 93.546L30.4772 90.1211C30.1802 89.8323 30.1735 89.3575 30.4622 89.0605C30.751 88.7635 31.2258 88.7568 31.5228 89.0456L33.25 90.7248V86C33.25 85.5858 33.5858 85.25 34 85.25Z" fill="#5F5F6A"/>
<path d="M26 75.75C24.6953 75.75 23.671 76.7756 23.671 78C23.671 79.2244 24.6953 80.25 26 80.25C27.3047 80.25 28.3289 79.2244 28.3289 78C28.3289 76.7756 27.3047 75.75 26 75.75ZM22.171 78C22.171 75.9107 23.9038 74.25 26 74.25C28.0961 74.25 29.8289 75.9107 29.8289 78C29.8289 80.0893 28.0961 81.75 26 81.75C23.9038 81.75 22.171 80.0893 22.171 78ZM23.4706 83.9663C23.289 83.8489 23.1514 83.8417 23.0875 83.8593C22.9438 83.8989 22.8008 83.9414 22.6586 83.9869L21.6742 84.3021C20.9669 84.5284 20.4304 85.0566 20.206 85.7059C20.1842 85.769 20.1676 85.8527 20.1544 85.9777L19.7634 89.6766L19.7615 89.6898C19.6867 90.2167 19.9675 90.62 20.3945 90.7191C21.4718 90.9691 23.2859 91.25 26 91.25C26.4142 91.25 26.75 91.5858 26.75 92C26.75 92.4142 26.4142 92.75 26 92.75C23.1821 92.75 21.2535 92.4583 20.0555 92.1803C18.7667 91.8812 18.114 90.6695 18.2744 89.4933L18.6627 85.82C18.6809 85.6478 18.7125 85.4351 18.7883 85.2158C19.1724 84.1048 20.0749 83.239 21.2169 82.8735L22.2013 82.5583C22.3631 82.5065 22.5258 82.4581 22.6893 82.4131C23.3008 82.2448 23.8819 82.446 24.2851 82.7068C24.6552 82.9461 25.2593 83.2356 26 83.2356C26.7407 83.2356 27.3448 82.9461 27.7148 82.7068C28.1181 82.446 28.6992 82.2448 29.3107 82.4131C29.4741 82.4581 29.6368 82.5065 29.7986 82.5583L30.783 82.8735C31.1775 82.9997 31.395 83.4219 31.2687 83.8164C31.1424 84.2109 30.7203 84.4283 30.3258 84.3021L29.3414 83.9869C29.1991 83.9414 29.0561 83.8989 28.9125 83.8593C28.8485 83.8417 28.7109 83.8489 28.5294 83.9663C28.0165 84.298 27.1292 84.7356 26 84.7356C24.8707 84.7356 23.9835 84.298 23.4706 83.9663Z" fill="#5F5F6A"/>
<path d="M34.0001 141.5C34.2763 141.5 34.5001 141.724 34.5001 142V147.317L36.6516 145.225C36.8496 145.032 37.1661 145.037 37.3586 145.235C37.5511 145.433 37.5467 145.749 37.3487 145.942L34.0001 149.197L30.6516 145.942C30.4536 145.749 30.4492 145.433 30.6416 145.235C30.8341 145.037 31.1507 145.032 31.3487 145.225L33.5001 147.317V142C33.5001 141.724 33.724 141.5 34.0001 141.5Z" fill="#5F5F6A"/>
<path d="M26.0001 131.5C24.5635 131.5 23.4212 132.631 23.4212 134C23.4212 135.369 24.5635 136.5 26.0001 136.5C27.4368 136.5 28.5791 135.369 28.5791 134C28.5791 132.631 27.4368 131.5 26.0001 131.5ZM22.4212 134C22.4212 132.055 24.0359 130.5 26.0001 130.5C27.9644 130.5 29.5791 132.055 29.5791 134C29.5791 135.945 27.9644 137.5 26.0001 137.5C24.0359 137.5 22.4212 135.945 22.4212 134ZM23.6065 139.756C23.388 139.615 23.1765 139.576 23.0213 139.618C22.8743 139.659 22.728 139.702 22.5825 139.749L21.5981 140.064C20.8645 140.299 20.2919 140.83 20.0179 141.497C20.0123 141.516 20.004 141.544 19.9906 141.588C19.9906 141.588 19.9902 141.589 19.9894 141.592L19.9866 141.602L19.978 141.634C19.9713 141.66 19.9637 141.69 19.956 141.721C19.9484 141.752 19.941 141.782 19.9351 141.808L19.9278 141.84L19.9255 141.85C19.925 141.853 19.9248 141.854 19.9248 141.854C19.9056 141.955 19.9018 141.991 19.8921 142.083L19.5154 145.646L19.5142 145.655C19.4238 146.29 19.7667 146.83 20.3382 146.963C21.4356 147.217 23.2688 147.5 26.0001 147.5C26.2763 147.5 26.5001 147.724 26.5001 148C26.5001 148.276 26.2763 148.5 26.0001 148.5C23.1996 148.5 21.29 148.21 20.1121 147.937C18.9659 147.671 18.3753 146.592 18.5228 145.523L18.8974 141.98C18.9086 141.874 18.9156 141.808 18.9423 141.668C18.9569 141.591 19.0116 141.37 19.0344 141.295C19.0509 141.241 19.0569 141.221 19.0585 141.215C19.0602 141.208 19.0645 141.192 19.0716 141.172C19.0744 141.163 19.0769 141.157 19.078 141.154L19.0793 141.151L19.0799 141.149C19.4641 140.186 20.2753 139.437 21.2933 139.112L22.2777 138.796C22.4363 138.746 22.5957 138.698 22.7558 138.654C23.276 138.511 23.7832 138.68 24.1495 138.917C24.5434 139.171 25.1947 139.486 26.0001 139.486C26.8056 139.486 27.4569 139.171 27.8507 138.917C28.217 138.68 28.7242 138.511 29.2445 138.654C29.4046 138.698 29.564 138.746 29.7226 138.796L30.707 139.112C30.97 139.196 31.115 139.477 31.0308 139.74C30.9466 140.003 30.6651 140.148 30.4021 140.064L29.4177 139.749C29.2722 139.702 29.126 139.659 28.979 139.618C28.8238 139.576 28.6123 139.615 28.3938 139.756C27.9047 140.073 27.0646 140.486 26.0001 140.486C24.9357 140.486 24.0956 140.073 23.6065 139.756Z" fill="#5F5F6A"/>
</svg>
