<svg width="56" height="168" viewBox="0 0 56 168" fill="none" xmlns="http://www.w3.org/2000/svg">
<g opacity="0.5">
<path d="M32.0003 20.5C30.5407 20.5 29.3574 21.6832 29.3574 23.1429C29.3574 24.6025 30.5407 25.7857 32.0003 25.7857C33.4599 25.7857 34.6431 24.6025 34.6431 23.1429C34.6431 21.6832 33.4599 20.5 32.0003 20.5ZM30.3574 23.1429C30.3574 22.2355 31.093 21.5 32.0003 21.5C32.9076 21.5 33.6431 22.2355 33.6431 23.1429C33.6431 24.0502 32.9076 24.7857 32.0003 24.7857C31.093 24.7857 30.3574 24.0502 30.3574 23.1429Z" fill="#5F5F6A"/>
<path d="M34.1834 26.298C33.8334 26.2045 33.4992 26.3206 33.2689 26.4996C32.9984 26.7099 32.5211 27 32 27C31.7239 27 31.5 27.2239 31.5 27.5C31.5 27.7761 31.7239 28 32 28C32.8582 28 33.5563 27.5428 33.8826 27.2891C33.9004 27.2753 33.9165 27.2686 33.9261 27.2662L33.93 27.2654C34.0637 27.3011 34.1966 27.3407 34.3286 27.3841L35.0137 27.6091C35.5402 27.7821 35.9387 28.2027 36.0798 28.7234L36.3633 30.7717C36.4191 31.1746 36.2066 31.4769 35.9029 31.5492C35.6787 31.6026 35.4088 31.6579 35.0902 31.7093C34.8176 31.7532 34.6322 32.0098 34.6762 32.2825C34.7201 32.5551 34.9767 32.7405 35.2493 32.6965C35.5917 32.6413 35.8858 32.5812 36.1345 32.522C37.0286 32.3091 37.467 31.4513 37.3539 30.6346L37.0625 28.5294L37.0557 28.5025C36.8353 27.6337 36.181 26.94 35.3258 26.6591L34.6407 26.434C34.4893 26.3843 34.3368 26.3389 34.1834 26.298Z" fill="#5F5F6A"/>
</g>
<path d="M26 20.75C24.6953 20.75 23.671 21.7756 23.671 23C23.671 24.2244 24.6953 25.25 26 25.25C27.3047 25.25 28.3289 24.2244 28.3289 23C28.3289 21.7756 27.3047 20.75 26 20.75ZM22.171 23C22.171 20.9107 23.9038 19.25 26 19.25C28.0961 19.25 29.8289 20.9107 29.8289 23C29.8289 25.0893 28.0961 26.75 26 26.75C23.9038 26.75 22.171 25.0893 22.171 23ZM23.4706 28.9663C23.289 28.8489 23.1514 28.8417 23.0875 28.8593C22.9438 28.8989 22.8008 28.9414 22.6586 28.9869L21.6742 29.3021C20.9235 29.5424 20.3658 30.122 20.1683 30.8265L19.7615 33.6898C19.6867 34.2167 19.9675 34.62 20.3945 34.7191C21.4718 34.9691 23.2859 35.25 26 35.25C28.714 35.25 30.5282 34.9691 31.6054 34.7191C32.0324 34.62 32.3133 34.2167 32.2384 33.6898L31.8317 30.8265C31.6341 30.122 31.0765 29.5424 30.3258 29.3021L29.3414 28.9869C29.1991 28.9414 29.0561 28.8989 28.9125 28.8593C28.8485 28.8417 28.7109 28.8489 28.5294 28.9663C28.0165 29.298 27.1292 29.7356 26 29.7356C24.8707 29.7356 23.9835 29.298 23.4706 28.9663ZM22.6893 27.4131C23.3008 27.2448 23.8819 27.446 24.2851 27.7068C24.6552 27.9461 25.2593 28.2356 26 28.2356C26.7407 28.2356 27.3448 27.9461 27.7148 27.7068C28.1181 27.446 28.6992 27.2448 29.3107 27.4131C29.4741 27.4581 29.6368 27.5065 29.7986 27.5583L30.783 27.8735C32.0162 28.2682 32.9708 29.2469 33.2936 30.4867L33.3043 30.5279L33.7235 33.4789C33.8913 34.6596 33.2385 35.88 31.9445 36.1803C30.7464 36.4583 28.8178 36.75 26 36.75C23.1821 36.75 21.2535 36.4583 20.0555 36.1803C18.7614 35.88 18.1087 34.6596 18.2764 33.4789L18.6956 30.5279L18.7064 30.4867C19.0291 29.2469 19.9837 28.2682 21.2169 27.8735L22.2013 27.5583C22.3631 27.5065 22.5258 27.4581 22.6893 27.4131Z" fill="#5F5F6A"/>
<path d="M26 75.25C23.9038 75.25 22.171 76.9107 22.171 79C22.171 81.0893 23.9038 82.75 26 82.75C27.6498 82.75 29.0746 81.7212 29.6065 80.2643C30.0283 81.1632 30.9416 81.7857 32.0003 81.7857C33.4599 81.7857 34.6431 80.6025 34.6431 79.1429C34.6431 77.6832 33.4599 76.5 32.0003 76.5C30.9875 76.5 30.1077 77.0697 29.664 77.9062C29.1842 76.3597 27.7135 75.25 26 75.25ZM23.671 79C23.671 77.7756 24.6953 76.75 26 76.75C27.3047 76.75 28.3289 77.7756 28.3289 79C28.3289 80.2244 27.3047 81.25 26 81.25C24.6953 81.25 23.671 80.2244 23.671 79ZM30.3574 79.1429C30.3574 78.2355 31.093 77.5 32.0003 77.5C32.9076 77.5 33.6431 78.2355 33.6431 79.1429C33.6431 80.0502 32.9076 80.7857 32.0003 80.7857C31.093 80.7857 30.3574 80.0502 30.3574 79.1429Z" fill="#5F5F6A"/>
<path d="M24.2851 83.7068C23.8819 83.446 23.3008 83.2448 22.6893 83.4131C22.5258 83.4581 22.3631 83.5065 22.2013 83.5583L21.2169 83.8735C19.9837 84.2682 19.0291 85.2469 18.7064 86.4867L18.6956 86.5279L18.2764 89.4789C18.1087 90.6596 18.7614 91.88 20.0555 92.1803C21.2535 92.4583 23.1821 92.75 26 92.75C28.8178 92.75 30.7464 92.4583 31.9445 92.1803C33.2385 91.88 33.8913 90.6596 33.7235 89.4789L33.3043 86.5279L33.2936 86.4867C32.9708 85.2469 32.0162 84.2682 30.783 83.8735L29.7986 83.5583C29.6368 83.5065 29.4741 83.4581 29.3107 83.4131C28.6992 83.2448 28.1181 83.446 27.7148 83.7068C27.3448 83.9461 26.7407 84.2356 26 84.2356C25.2593 84.2356 24.6552 83.9461 24.2851 83.7068ZM23.0875 84.8593C23.1514 84.8417 23.289 84.8489 23.4706 84.9663C23.9835 85.298 24.8707 85.7356 26 85.7356C27.1292 85.7356 28.0165 85.298 28.5294 84.9663C28.7109 84.8489 28.8485 84.8417 28.9125 84.8593C29.0561 84.8989 29.1991 84.9414 29.3414 84.9869L30.3258 85.3021C31.0765 85.5424 31.6341 86.122 31.8317 86.8265L32.2384 89.6898C32.3133 90.2167 32.0324 90.62 31.6054 90.7191C30.5282 90.9691 28.714 91.25 26 91.25C23.2859 91.25 21.4718 90.9691 20.3945 90.7191C19.9675 90.62 19.6867 90.2167 19.7615 89.6898L20.1683 86.8265C20.3658 86.122 20.9235 85.5424 21.6742 85.3021L22.6586 84.9869C22.8008 84.9414 22.9438 84.8989 23.0875 84.8593Z" fill="#5F5F6A"/>
<path d="M34.1834 82.298C33.8334 82.2045 33.4992 82.3206 33.2689 82.4996C32.9984 82.7099 32.5211 83 32 83C31.7239 83 31.5 83.2239 31.5 83.5C31.5 83.7761 31.7239 84 32 84C32.8582 84 33.5563 83.5428 33.8826 83.2891C33.9004 83.2753 33.9165 83.2686 33.9261 83.2662L33.93 83.2654C34.0637 83.3011 34.1966 83.3407 34.3286 83.3841L35.0137 83.6091C35.5402 83.7821 35.9387 84.2027 36.0798 84.7234L36.3633 86.7717C36.4191 87.1746 36.2066 87.4769 35.9029 87.5492C35.6787 87.6026 35.4088 87.6579 35.0902 87.7093C34.8176 87.7532 34.6322 88.0098 34.6761 88.2825C34.7201 88.5551 34.9767 88.7405 35.2493 88.6965C35.5917 88.6413 35.8858 88.5812 36.1345 88.522C37.0286 88.3091 37.467 87.4513 37.3539 86.6346L37.0625 84.5294L37.0557 84.5025C36.8353 83.6337 36.181 82.94 35.3258 82.6591L34.6407 82.434C34.4893 82.3843 34.3368 82.3389 34.1834 82.298Z" fill="#5F5F6A"/>
<path d="M26.0001 131.5C24.0359 131.5 22.4212 133.055 22.4212 135C22.4212 136.945 24.0359 138.5 26.0001 138.5C27.6546 138.5 29.061 137.397 29.4635 135.887C29.7848 136.984 30.7989 137.786 32.0003 137.786C33.4599 137.786 34.6431 136.602 34.6431 135.143C34.6431 133.683 33.4599 132.5 32.0003 132.5C30.8442 132.5 29.8614 133.242 29.5027 134.276C29.161 132.683 27.7136 131.5 26.0001 131.5ZM23.4212 135C23.4212 133.631 24.5635 132.5 26.0001 132.5C27.4368 132.5 28.5791 133.631 28.5791 135C28.5791 136.369 27.4368 137.5 26.0001 137.5C24.5635 137.5 23.4212 136.369 23.4212 135ZM30.3574 135.143C30.3574 134.236 31.093 133.5 32.0003 133.5C32.9076 133.5 33.6431 134.236 33.6431 135.143C33.6431 136.05 32.9076 136.786 32.0003 136.786C31.093 136.786 30.3574 136.05 30.3574 135.143Z" fill="#5F5F6A"/>
<path d="M24.1495 139.917C23.7832 139.68 23.276 139.511 22.7558 139.654C22.5957 139.698 22.4363 139.746 22.2777 139.796L21.2933 140.112C20.1383 140.481 19.2487 141.396 18.9485 142.55L18.9413 142.577L18.5241 145.514C18.3718 146.586 18.9626 147.67 20.1121 147.937C21.29 148.21 23.1996 148.5 26.0001 148.5C28.8007 148.5 30.7102 148.21 31.8881 147.937C33.0377 147.67 33.6284 146.586 33.4762 145.514L33.059 142.577L33.0518 142.55C32.7515 141.396 31.862 140.481 30.707 140.112L29.7226 139.796C29.564 139.746 29.4046 139.698 29.2445 139.654C28.7242 139.511 28.217 139.68 27.8507 139.917C27.4569 140.171 26.8056 140.486 26.0001 140.486C25.1947 140.486 24.5434 140.171 24.1495 139.917ZM23.0213 140.618C23.1765 140.576 23.388 140.615 23.6065 140.756C24.0956 141.073 24.9357 141.486 26.0001 141.486C27.0646 141.486 27.9047 141.073 28.3938 140.756C28.6123 140.615 28.8238 140.576 28.979 140.618C29.126 140.659 29.2722 140.702 29.4177 140.749L30.4021 141.064C31.2354 141.331 31.8601 141.979 32.0771 142.775L32.4861 145.655C32.5765 146.29 32.2336 146.83 31.6621 146.963C30.5647 147.217 28.7315 147.5 26.0001 147.5C23.2688 147.5 21.4356 147.217 20.3382 146.963C19.7667 146.83 19.4238 146.29 19.5142 145.655L19.9232 142.775C20.1402 141.979 20.7649 141.331 21.5981 141.064L22.5825 140.749C22.728 140.702 22.8743 140.659 23.0213 140.618Z" fill="#5F5F6A"/>
<path d="M34.1834 138.298C33.8334 138.205 33.4992 138.321 33.2689 138.5C32.9984 138.71 32.5211 139 32 139C31.7239 139 31.5 139.224 31.5 139.5C31.5 139.776 31.7239 140 32 140C32.8582 140 33.5563 139.543 33.8826 139.289C33.9004 139.275 33.9165 139.269 33.9261 139.266L33.93 139.265C34.0637 139.301 34.1966 139.341 34.3286 139.384L35.0137 139.609C35.5402 139.782 35.9387 140.203 36.0798 140.723L36.3633 142.772C36.4191 143.175 36.2066 143.477 35.9029 143.549C35.6787 143.603 35.4088 143.658 35.0902 143.709C34.8176 143.753 34.6322 144.01 34.6761 144.282C34.7201 144.555 34.9767 144.74 35.2493 144.697C35.5917 144.641 35.8858 144.581 36.1345 144.522C37.0286 144.309 37.467 143.451 37.3539 142.635L37.0625 140.529L37.0557 140.503C36.8353 139.634 36.181 138.94 35.3258 138.659L34.6407 138.434C34.4893 138.384 34.3368 138.339 34.1834 138.298Z" fill="#5F5F6A"/>
</svg>
