<svg width="64" height="224" viewBox="0 0 64 224" fill="none" xmlns="http://www.w3.org/2000/svg">
<path d="M26.8809 19.1346C27.3588 18.8581 27.9704 19.021 28.2471 19.4988C28.5236 19.9769 28.3599 20.5895 27.8818 20.866C25.4179 22.2915 23.7637 24.953 23.7637 27.9998C23.7637 31.0468 25.4177 33.7091 27.8818 35.1346C28.3599 35.4111 28.5236 36.0227 28.2471 36.5008C27.9706 36.9787 27.3589 37.1423 26.8809 36.866C23.8241 35.0978 21.7637 31.7897 21.7637 27.9998C21.7637 24.21 23.8241 20.9028 26.8809 19.1346ZM35.751 19.4988C36.0276 19.0209 36.6401 18.8581 37.1182 19.1346C40.1747 20.9029 42.2343 24.2102 42.2344 27.9998C42.2344 31.7896 40.1749 35.0977 37.1182 36.866C36.6401 37.1426 36.0275 36.9789 35.751 36.5008C35.4746 36.0228 35.6383 35.4111 36.1162 35.1346C38.5804 33.7091 40.2344 31.0469 40.2344 27.9998C40.2343 24.9529 38.5803 22.2915 36.1162 20.866C35.6381 20.5895 35.4744 19.9769 35.751 19.4988ZM27.8057 22.3826C28.7345 22.3828 29.605 22.8365 30.1377 23.5975L31.999 26.2567L33.8613 23.5975C34.394 22.8365 35.2645 22.3828 36.1934 22.3826H36.6172C37.1693 22.3828 37.6172 22.8305 37.6172 23.3826C37.617 23.9346 37.1692 24.3824 36.6172 24.3826H36.1934C35.9171 24.3828 35.6584 24.5177 35.5 24.744L33.2197 27.9998L35.5 31.2567C35.6585 31.4827 35.9173 31.6178 36.1934 31.618H36.6172C37.1692 31.6182 37.6171 32.0659 37.6172 32.618C37.617 33.1699 37.1692 33.6178 36.6172 33.618H36.1934C35.2647 33.6178 34.3941 33.1647 33.8613 32.4041L31.999 29.744L30.1377 32.4041C29.605 33.1648 28.7343 33.6178 27.8057 33.618H27.3818C26.8297 33.618 26.3821 33.1701 26.3818 32.618C26.3819 32.0658 26.8296 31.618 27.3818 31.618H27.8057C28.0818 31.6178 28.3406 31.4828 28.499 31.2567L30.7783 27.9998L28.499 24.744C28.3406 24.5178 28.0818 24.3828 27.8057 24.3826H27.3818C26.8297 24.3826 26.3821 23.9347 26.3818 23.3826C26.3818 22.8303 26.8296 22.3826 27.3818 22.3826H27.8057Z" fill="#5F5F6A"/>
<path d="M27.757 76.6492C28.1155 76.4418 28.2381 75.983 28.0307 75.6245C27.8232 75.2659 27.3644 75.1434 27.0059 75.3508C24.0232 77.0762 22.0137 80.303 22.0137 84C22.0137 87.697 24.0232 90.9238 27.0059 92.6492C27.3644 92.8566 27.8232 92.7341 28.0307 92.3755C28.2381 92.017 28.1155 91.5582 27.757 91.3508C25.2187 89.8825 23.5137 87.1399 23.5137 84C23.5137 80.8601 25.2187 78.1175 27.757 76.6492Z" fill="#5F5F6A"/>
<path d="M36.2415 76.6492C35.8829 76.4418 35.7604 75.983 35.9678 75.6245C36.1752 75.2659 36.634 75.1434 36.9925 75.3508C39.9753 77.0762 41.9848 80.303 41.9848 84C41.9848 87.697 39.9753 90.9238 36.9925 92.6492C36.634 92.8566 36.1752 92.7341 35.9678 92.3755C35.7604 92.017 35.8829 91.5582 36.2415 91.3508C38.7797 89.8825 40.4848 87.1399 40.4848 84C40.4848 80.8601 38.7797 78.1175 36.2415 76.6492Z" fill="#5F5F6A"/>
<path opacity="0.5" d="M36.6184 78.6322C37.0326 78.6322 37.3684 78.968 37.3684 79.3822C37.3684 79.7964 37.0326 80.1322 36.6184 80.1322H36.1947C35.8367 80.1322 35.5013 80.3069 35.296 80.6002L32.9161 84L35.296 87.3998C35.5013 87.6931 35.8367 87.8678 36.1947 87.8678H36.6184C37.0326 87.8678 37.3684 88.2035 37.3684 88.6178C37.3684 89.032 37.0326 89.3678 36.6184 89.3678H36.1947C35.3473 89.3678 34.5531 88.9543 34.0671 88.26L32.0006 85.3078L29.9341 88.26C29.4481 88.9543 28.6539 89.3678 27.8064 89.3678H27.3828C26.9686 89.3678 26.6328 89.032 26.6328 88.6178C26.6328 88.2035 26.9686 87.8678 27.3828 87.8678H27.8064C28.1644 87.8678 28.4999 87.6931 28.7052 87.3998L31.0851 84L28.7052 80.6002C28.4999 80.3069 28.1644 80.1322 27.8064 80.1322H27.3828C26.9686 80.1322 26.6328 79.7964 26.6328 79.3822C26.6328 78.968 26.9686 78.6322 27.3828 78.6322H27.8064C28.6539 78.6322 29.4481 79.0457 29.9341 79.74L32.0006 82.6921L34.0671 79.74C34.5531 79.0457 35.3473 78.6322 36.1947 78.6322H36.6184Z" fill="#5F5F6A"/>
<path d="M27.757 132.649C28.1155 132.442 28.2381 131.983 28.0307 131.624C27.8232 131.266 27.3644 131.143 27.0059 131.351C24.0232 133.076 22.0137 136.303 22.0137 140C22.0137 143.697 24.0232 146.924 27.0059 148.649C27.3644 148.857 27.8232 148.734 28.0307 148.376C28.2381 148.017 28.1155 147.558 27.757 147.351C25.2187 145.882 23.5137 143.14 23.5137 140C23.5137 136.86 25.2187 134.118 27.757 132.649Z" fill="#5F5F6A"/>
<path d="M36.2415 132.649C35.8829 132.442 35.7604 131.983 35.9678 131.624C36.1752 131.266 36.634 131.143 36.9925 131.351C39.9753 133.076 41.9848 136.303 41.9848 140C41.9848 143.697 39.9753 146.924 36.9925 148.649C36.634 148.857 36.1752 148.734 35.9678 148.376C35.7604 148.017 35.8829 147.558 36.2415 147.351C38.7797 145.882 40.4848 143.14 40.4848 140C40.4848 136.86 38.7797 134.118 36.2415 132.649Z" fill="#5F5F6A"/>
<path d="M26.6314 135.382C26.6314 134.968 26.9672 134.632 27.3814 134.632H27.8051C28.6525 134.632 29.4467 135.046 29.9327 135.74L31.9992 138.692L34.0657 135.74C34.5517 135.046 35.3459 134.632 36.1934 134.632H36.617C37.0312 134.632 37.367 134.968 37.367 135.382C37.367 135.796 37.0312 136.132 36.617 136.132H36.1934C35.8354 136.132 35.4999 136.307 35.2946 136.6L32.9147 140L35.2946 143.4C35.4999 143.693 35.8354 143.868 36.1934 143.868H36.617C37.0312 143.868 37.367 144.204 37.367 144.618C37.367 145.032 37.0312 145.368 36.617 145.368H36.1934C35.3459 145.368 34.5517 144.954 34.0657 144.26L31.9992 141.308L29.9327 144.26C29.4467 144.954 28.6525 145.368 27.8051 145.368H27.3814C26.9672 145.368 26.6314 145.032 26.6314 144.618C26.6314 144.204 26.9672 143.868 27.3814 143.868H27.8051C28.1631 143.868 28.4986 143.693 28.7039 143.4L31.0837 140L28.7039 136.6C28.4986 136.307 28.1631 136.132 27.8051 136.132H27.3814C26.9672 136.132 26.6314 135.796 26.6314 135.382Z" fill="#5F5F6A"/>
<path d="M27.6318 188.433C27.8708 188.295 27.9525 187.989 27.8143 187.75C27.676 187.511 27.3701 187.429 27.1311 187.567C24.2224 189.25 22.2637 192.396 22.2637 196C22.2637 199.604 24.2224 202.75 27.1311 204.433C27.3701 204.571 27.676 204.489 27.8143 204.25C27.9525 204.011 27.8708 203.705 27.6318 203.567C25.0194 202.056 23.2637 199.233 23.2637 196C23.2637 192.767 25.0194 189.944 27.6318 188.433Z" fill="#5F5F6A"/>
<path d="M36.3666 188.433C36.1276 188.295 36.0459 187.989 36.1842 187.75C36.3225 187.511 36.6283 187.429 36.8674 187.567C39.776 189.25 41.7348 192.396 41.7348 196C41.7348 199.604 39.776 202.75 36.8674 204.433C36.6283 204.571 36.3225 204.489 36.1842 204.25C36.0459 204.011 36.1276 203.705 36.3666 203.567C38.979 202.056 40.7348 199.233 40.7348 196C40.7348 192.767 38.979 189.944 36.3666 188.433Z" fill="#5F5F6A"/>
<path d="M26.8814 191.382C26.8814 191.106 27.1053 190.882 27.3814 190.882H27.8051C28.571 190.882 29.2887 191.256 29.7279 191.883L31.9992 195.128L34.2705 191.883C34.7098 191.256 35.4275 190.882 36.1934 190.882H36.617C36.8931 190.882 37.117 191.106 37.117 191.382C37.117 191.658 36.8931 191.882 36.617 191.882H36.1934C35.7538 191.882 35.3419 192.097 35.0898 192.457L32.6095 196L35.0898 199.543C35.3419 199.903 35.7538 200.118 36.1934 200.118H36.617C36.8931 200.118 37.117 200.342 37.117 200.618C37.117 200.894 36.8931 201.118 36.617 201.118H36.1934C35.4275 201.118 34.7098 200.744 34.2705 200.117L31.9992 196.872L29.7279 200.117C29.2887 200.744 28.571 201.118 27.8051 201.118H27.3814C27.1053 201.118 26.8814 200.894 26.8814 200.618C26.8814 200.342 27.1053 200.118 27.3814 200.118H27.8051C28.2446 200.118 28.6566 199.903 28.9087 199.543L31.3889 196L28.9087 192.457C28.6566 192.097 28.2447 191.882 27.8051 191.882H27.3814C27.1053 191.882 26.8814 191.658 26.8814 191.382Z" fill="#5F5F6A"/>
</svg>
