<svg width="56" height="224" viewBox="0 0 56 224" fill="none" xmlns="http://www.w3.org/2000/svg">
<path fill-rule="evenodd" clip-rule="evenodd" d="M32.2429 23.7574C29.8998 21.4142 26.1008 21.4142 23.7576 23.7574C23.3813 24.1336 23.0657 24.547 22.8104 24.9857L23.5446 24.6099C24.0362 24.3582 24.6387 24.5527 24.8904 25.0443C25.1421 25.5359 24.9476 26.1385 24.456 26.3901L21.7515 27.7747L21.3132 26.9186L21.7514 27.7747C21.377 27.9664 20.9538 27.9441 20.6179 27.7645C20.3614 27.6273 20.1497 27.3957 20.0433 27.0974L19.0584 24.3359C18.8729 23.8158 19.1441 23.2436 19.6643 23.0581C20.1845 22.8726 20.7566 23.1439 20.9422 23.6641L21.0651 24.0087C21.4083 23.4129 21.8345 22.852 22.3434 22.3431C25.4676 19.219 30.5329 19.219 33.6571 22.3431C36.7813 25.4673 36.7813 30.5327 33.6571 33.6569C31.9495 35.3645 29.6604 36.1385 27.4293 35.9797C26.8784 35.9405 26.4636 35.4621 26.5028 34.9112C26.542 34.3603 27.0204 33.9455 27.5713 33.9848C29.2486 34.1041 30.9624 33.5231 32.2429 32.2426C34.5861 29.8995 34.5861 26.1005 32.2429 23.7574ZM28.0003 23.1111C28.5526 23.1111 29.0003 23.5588 29.0003 24.1111V27.9194C29.0003 28.2362 28.8744 28.54 28.6504 28.764L26.2074 31.2071C25.8169 31.5976 25.1837 31.5976 24.7932 31.2071C24.4026 30.8166 24.4026 30.1834 24.7932 29.7929L27.0003 27.5858V24.1111C27.0003 23.5588 27.448 23.1111 28.0003 23.1111ZM22.3434 32.2426C22.7339 31.8521 23.3671 31.8521 23.7576 32.2426C24.0138 32.4988 24.2867 32.7265 24.5726 32.926C25.0255 33.242 25.1364 33.8654 24.8203 34.3183C24.5043 34.7712 23.8809 34.8821 23.428 34.5661C23.0462 34.2996 22.683 33.9965 22.3434 33.6569C21.9529 33.2663 21.9529 32.6332 22.3434 32.2426Z" fill="#5F5F6A"/>
<path fill-rule="evenodd" clip-rule="evenodd" d="M32.4196 79.5806C29.9788 77.1398 26.0216 77.1398 23.5808 79.5806C22.9953 80.1661 22.5505 80.8381 22.2461 81.5554L23.6584 80.8324C24.0271 80.6436 24.479 80.7895 24.6678 81.1582C24.8566 81.5269 24.7107 81.9788 24.342 82.1676L21.6375 83.5522C21.3396 83.7047 21.0031 83.6869 20.7358 83.544C20.5317 83.4349 20.3634 83.2507 20.2787 83.0134L19.2938 80.252C19.1546 79.8618 19.3581 79.4327 19.7483 79.2936C20.1384 79.1544 20.5675 79.3579 20.7066 79.748L21.0203 80.6276C21.3885 79.8656 21.8885 79.1515 22.5201 78.5199C25.5467 75.4934 30.4537 75.4934 33.4803 78.5199C36.5068 81.5465 36.5068 86.4535 33.4803 89.4801C31.826 91.1343 29.6088 91.8842 27.447 91.7303C27.0338 91.7009 26.7227 91.3421 26.7521 90.929C26.7815 90.5158 27.1403 90.2047 27.5535 90.2341C29.3 90.3584 31.0857 89.7533 32.4196 88.4194C34.8604 85.9786 34.8604 82.0214 32.4196 79.5806ZM22.5201 88.4194C22.813 88.1265 23.2879 88.1265 23.5808 88.4194C23.8474 88.686 24.1316 88.9231 24.4294 89.131C24.7691 89.368 24.8523 89.8355 24.6152 90.1752C24.3782 90.5149 23.9107 90.5981 23.571 90.361C23.2012 90.103 22.8493 89.8092 22.5201 89.4801C22.2272 89.1872 22.2272 88.7123 22.5201 88.4194Z" fill="#5F5F6A"/>
<path opacity="0.5" fill-rule="evenodd" clip-rule="evenodd" d="M28 79.3611C28.4142 79.3611 28.75 79.6969 28.75 80.1111V83.9194C28.75 84.1699 28.6505 84.4101 28.4734 84.5873L26.0303 87.0303C25.7374 87.3232 25.2626 87.3232 24.9697 87.0303C24.6768 86.7374 24.6768 86.2625 24.9697 85.9696L27.25 83.6893V80.1111C27.25 79.6969 27.5858 79.3611 28 79.3611Z" fill="#5F5F6A"/>
<path fill-rule="evenodd" clip-rule="evenodd" d="M32.4196 135.581C29.9788 133.14 26.0216 133.14 23.5808 135.581C22.9953 136.166 22.5505 136.838 22.2461 137.555L23.6584 136.832C24.0271 136.644 24.479 136.79 24.6678 137.158C24.8566 137.527 24.7107 137.979 24.342 138.168L21.6375 139.552C21.3396 139.705 21.0031 139.687 20.7358 139.544C20.5317 139.435 20.3634 139.251 20.2787 139.013L19.2938 136.252C19.1546 135.862 19.3581 135.433 19.7483 135.294C20.1384 135.154 20.5675 135.358 20.7066 135.748L21.0203 136.628C21.3885 135.866 21.8885 135.152 22.5201 134.52C25.5467 131.493 30.4537 131.493 33.4803 134.52C36.5068 137.546 36.5068 142.454 33.4803 145.48C31.826 147.134 29.6088 147.884 27.447 147.73C27.0338 147.701 26.7227 147.342 26.7521 146.929C26.7815 146.516 27.1403 146.205 27.5535 146.234C29.3 146.358 31.0857 145.753 32.4196 144.419C34.8604 141.979 34.8604 138.021 32.4196 135.581ZM28.0002 135.361C28.4144 135.361 28.7502 135.697 28.7502 136.111V139.919C28.7502 140.17 28.6507 140.41 28.4736 140.587L26.0305 143.03C25.7376 143.323 25.2628 143.323 24.9699 143.03C24.677 142.737 24.677 142.263 24.9699 141.97L27.2502 139.689V136.111C27.2502 135.697 27.586 135.361 28.0002 135.361ZM22.5201 144.419C22.813 144.127 23.2879 144.127 23.5808 144.419C23.8474 144.686 24.1316 144.923 24.4294 145.131C24.7691 145.368 24.8523 145.836 24.6152 146.175C24.3782 146.515 23.9107 146.598 23.571 146.361C23.2012 146.103 22.8493 145.809 22.5201 145.48C22.2272 145.187 22.2272 144.712 22.5201 144.419Z" fill="#5F5F6A"/>
<path fill-rule="evenodd" clip-rule="evenodd" d="M32.5963 191.404C30.0579 188.865 25.9424 188.865 23.4039 191.404C22.6316 192.176 22.0945 193.094 21.7922 194.069L23.7723 193.055C24.0181 192.929 24.3194 193.026 24.4452 193.272C24.571 193.518 24.4738 193.819 24.228 193.945L21.5235 195.33C21.3022 195.443 21.0523 195.43 20.8536 195.324C20.7019 195.242 20.577 195.106 20.5141 194.929L19.5292 192.168C19.4364 191.908 19.5721 191.622 19.8322 191.529C20.0923 191.436 20.3783 191.572 20.4711 191.832L20.9978 193.309C21.3631 192.357 21.9296 191.464 22.6968 190.697C25.6258 187.768 30.3745 187.768 33.3034 190.697C36.2324 193.626 36.2324 198.374 33.3034 201.303C31.7026 202.904 29.5573 203.63 27.4646 203.481C27.1892 203.461 26.9818 203.222 27.0014 202.947C27.021 202.671 27.2602 202.464 27.5356 202.483C29.3514 202.613 31.209 201.983 32.5963 200.596C35.1347 198.058 35.1347 193.942 32.5963 191.404ZM28.0001 191.611C28.2763 191.611 28.5001 191.835 28.5001 192.111V195.919C28.5001 196.104 28.427 196.28 28.2967 196.41L25.8537 198.854C25.6584 199.049 25.3418 199.049 25.1466 198.854C24.9513 198.658 24.9513 198.342 25.1466 198.146L27.5001 195.793V192.111C27.5001 191.835 27.724 191.611 28.0001 191.611ZM22.6968 200.596C22.8921 200.401 23.2087 200.401 23.4039 200.596C23.681 200.873 23.9764 201.12 24.2863 201.336C24.5127 201.494 24.5682 201.806 24.4102 202.032C24.2521 202.259 23.9404 202.314 23.714 202.156C23.3562 201.906 23.0156 201.622 22.6968 201.303C22.5016 201.108 22.5016 200.791 22.6968 200.596Z" fill="#5F5F6A"/>
</svg>
