<svg width="56" height="168" viewBox="0 0 56 168" fill="none" xmlns="http://www.w3.org/2000/svg">
<path opacity="0.5" d="M29.5826 21.61C30.1371 21.5324 30.4543 21.5534 30.6917 21.6301C31.07 21.7523 31.4066 21.9717 31.6697 22.263C31.2684 22.2498 30.82 22.2499 30.3155 22.25C30.2773 22.25 30.2388 22.25 30.2 22.25H26.5854L27.2893 22.0876C28.3069 21.8527 29.0223 21.6883 29.5826 21.61ZM20.75 27.8C20.75 26.9475 20.7506 26.3533 20.7884 25.8907C20.8255 25.4368 20.8946 25.176 20.9952 24.9785C21.211 24.5552 21.5552 24.211 21.9785 23.9952C22.176 23.8946 22.4368 23.8255 22.8907 23.7884C23.3533 23.7506 23.9475 23.75 24.8 23.75H30.2C31.5458 23.75 32.225 23.7559 32.7017 23.8778L33.8204 24.1639L33.6269 23.0256C33.5536 22.5942 33.4316 22.2027 33.2178 21.8455C32.7512 21.0658 32.0174 20.4821 31.1528 20.2027C30.6013 20.0246 30.0219 20.034 29.3749 20.1244C28.7414 20.213 27.9615 20.393 26.987 20.6179L23.5249 21.4169C22.8837 21.5648 22.3631 21.6849 21.9428 21.8149C21.5074 21.9494 21.1311 22.1082 20.7907 22.3564C20.2444 22.7547 19.816 23.2933 19.5507 23.9152C19.3854 24.3027 19.3153 24.7051 19.2821 25.1595C19.25 25.5983 19.25 26.1326 19.25 26.7906L19.25 27.7031C19.25 27.7246 19.25 27.7462 19.25 27.7679L19.25 27.8H20.75Z" fill="#5F5F6A"/>
<path d="M23 31.25C22.5858 31.25 22.25 31.5858 22.25 32C22.25 32.4142 22.5858 32.75 23 32.75H25C25.4142 32.75 25.75 32.4142 25.75 32C25.75 31.5858 25.4142 31.25 25 31.25H23Z" fill="#5F5F6A"/>
<path d="M24.7679 22.25H30.5266C31.2029 22.25 31.7485 22.25 32.1925 22.2803C32.6491 22.3114 33.0528 22.3771 33.4351 22.5355C34.3539 22.9161 35.0839 23.6461 35.4645 24.5649C35.6229 24.9472 35.6886 25.3509 35.7197 25.8075C35.7492 26.2394 35.75 26.7674 35.75 27.4184C36.3412 27.6993 36.75 28.3019 36.75 29C36.75 29.6981 36.3412 30.3007 35.75 30.5816C35.75 31.2326 35.7492 31.7606 35.7197 32.1925C35.6886 32.6491 35.6229 33.0528 35.4645 33.4351C35.0839 34.3539 34.3539 35.0839 33.4351 35.4645C33.0528 35.6229 32.6491 35.6886 32.1925 35.7197C31.7485 35.75 31.203 35.75 30.5266 35.75H24.7679C23.955 35.75 23.2994 35.75 22.7685 35.7066C22.2219 35.662 21.7418 35.5676 21.2975 35.3413C20.5919 34.9817 20.0183 34.4081 19.6587 33.7025C19.4324 33.2582 19.338 32.7781 19.2934 32.2315C19.25 31.7006 19.25 31.045 19.25 30.2321V27.7679C19.25 26.9551 19.25 26.2994 19.2934 25.7685C19.338 25.2219 19.4324 24.7418 19.6587 24.2975C20.0183 23.5919 20.5919 23.0183 21.2975 22.6587C21.7418 22.4324 22.2219 22.338 22.7685 22.2934C23.2994 22.25 23.9551 22.25 24.7679 22.25ZM34.2232 25.9096C34.1973 25.5294 34.1487 25.308 34.0787 25.139C33.8504 24.5877 33.4124 24.1496 32.861 23.9213C32.692 23.8513 32.4706 23.8027 32.0904 23.7768C31.7035 23.7504 31.2092 23.75 30.5 23.75H24.8C23.9475 23.75 23.3533 23.7506 22.8907 23.7884C22.4368 23.8255 22.176 23.8946 21.9785 23.9952C21.5552 24.211 21.211 24.5552 20.9952 24.9785C20.8946 25.176 20.8255 25.4368 20.7884 25.8907C20.7506 26.3533 20.75 26.9475 20.75 27.8V30.2C20.75 31.0525 20.7506 31.6467 20.7884 32.1093C20.8255 32.5632 20.8946 32.824 20.9952 33.0215C21.211 33.4448 21.5552 33.789 21.9785 34.0048C22.176 34.1054 22.4368 34.1745 22.8907 34.2116C23.3533 34.2494 23.9475 34.25 24.8 34.25H30.5C31.2092 34.25 31.7035 34.2496 32.0904 34.2232C32.4706 34.1973 32.692 34.1487 32.861 34.0787C33.4124 33.8504 33.8504 33.4124 34.0787 32.861C34.1487 32.692 34.1973 32.4706 34.2232 32.0904C34.2464 31.7507 34.2495 31.3281 34.2499 30.75H33C32.0335 30.75 31.25 29.9665 31.25 29C31.25 28.0335 32.0335 27.25 33 27.25H34.2499C34.2495 26.6719 34.2464 26.2493 34.2232 25.9096ZM33 28.75C32.8619 28.75 32.75 28.8619 32.75 29C32.75 29.1381 32.8619 29.25 33 29.25H35C35.1381 29.25 35.25 29.1381 35.25 29C35.25 28.8619 35.1381 28.75 35 28.75H33Z" fill="#5F5F6A"/>
<path d="M22.25 88C22.25 87.5858 22.5858 87.25 23 87.25H25C25.4142 87.25 25.75 87.5858 25.75 88C25.75 88.4142 25.4142 88.75 25 88.75H23C22.5858 88.75 22.25 88.4142 22.25 88Z" fill="#5F5F6A"/>
<path d="M19.25 83.7148V82.7906C19.25 82.1326 19.25 81.5983 19.2821 81.1595C19.3153 80.7051 19.3854 80.3027 19.5507 79.9152C19.816 79.2933 20.2444 78.7547 20.7907 78.3564C21.1311 78.1082 21.5074 77.9494 21.9428 77.8149C22.3631 77.6849 22.8837 77.5648 23.5249 77.4169L26.987 76.6179C27.9615 76.393 28.7414 76.213 29.3749 76.1244C30.0219 76.034 30.6013 76.0246 31.1528 76.2027C32.0174 76.4821 32.7512 77.0658 33.2178 77.8455C33.3546 78.0741 33.4539 78.3168 33.5268 78.5749C34.4025 78.9652 35.0967 79.6769 35.4645 80.5649C35.6229 80.9472 35.6886 81.3509 35.7197 81.8075C35.7492 82.2394 35.75 82.7674 35.75 83.4184C36.3412 83.6993 36.75 84.3019 36.75 85C36.75 85.6981 36.3412 86.3007 35.75 86.5816C35.75 87.2326 35.7492 87.7606 35.7197 88.1925C35.6886 88.6491 35.6229 89.0528 35.4645 89.4351C35.0839 90.3539 34.3539 91.0839 33.4351 91.4645C33.0528 91.6229 32.6491 91.6886 32.1925 91.7197C31.7485 91.75 31.203 91.75 30.5266 91.75H24.7679C23.955 91.75 23.2994 91.75 22.7685 91.7066C22.2219 91.662 21.7418 91.5676 21.2975 91.3413C20.5919 90.9817 20.0183 90.4081 19.6587 89.7025C19.4324 89.2582 19.338 88.7781 19.2934 88.2315C19.25 87.7006 19.25 87.045 19.25 86.2321V83.7679C19.25 83.7501 19.25 83.7324 19.25 83.7148ZM27.2893 78.0876L26.5854 78.25L30.3155 78.25C30.3912 78.25 30.4657 78.25 30.5389 78.25C30.9635 78.25 31.3365 78.2501 31.665 78.2578C31.4026 77.9691 31.0678 77.7516 30.6917 77.6301C30.4543 77.5534 30.1371 77.5324 29.5826 77.61C29.0223 77.6883 28.3069 77.8527 27.2893 78.0876ZM30.2322 79.75L24.8 79.75C23.9475 79.75 23.3533 79.7506 22.8907 79.7884C22.4368 79.8255 22.176 79.8946 21.9785 79.9952C21.9521 80.0087 21.9259 80.0227 21.9001 80.0372C21.5126 80.2543 21.1975 80.5816 20.9952 80.9785C20.9827 81.0032 20.9706 81.0289 20.959 81.0558C20.8778 81.2442 20.8208 81.4935 20.7884 81.8907C20.7837 81.9485 20.7795 82.0084 20.7759 82.0706C20.7504 82.5059 20.75 83.0541 20.75 83.8L20.75 86.2C20.75 87.0525 20.7506 87.6467 20.7884 88.1093C20.8255 88.5632 20.8946 88.824 20.9952 89.0215C21.211 89.4448 21.5552 89.789 21.9785 90.0048C22.176 90.1054 22.4368 90.1745 22.8907 90.2116C23.3533 90.2494 23.9475 90.25 24.8 90.25H30.5C31.2092 90.25 31.7035 90.2496 32.0904 90.2232C32.4706 90.1973 32.692 90.1487 32.861 90.0787C33.4124 89.8504 33.8504 89.4124 34.0787 88.861C34.1487 88.692 34.1973 88.4706 34.2232 88.0904C34.2464 87.7507 34.2495 87.3281 34.2499 86.75H33C32.0335 86.75 31.25 85.9665 31.25 85C31.25 84.0335 32.0335 83.25 33 83.25H34.2499C34.2495 82.6719 34.2464 82.2493 34.2232 81.9096C34.1973 81.5294 34.1487 81.308 34.0787 81.139C33.8504 80.5877 33.4124 80.1496 32.861 79.9213C32.8551 79.9188 32.8491 79.9164 32.8431 79.914L32.7017 79.8778C32.2288 79.7569 31.5567 79.7501 30.2322 79.75ZM32.75 85C32.75 85.1381 32.8619 85.25 33 85.25H35C35.1381 85.25 35.25 85.1381 35.25 85C35.25 84.8619 35.1381 84.75 35 84.75H33C32.8619 84.75 32.75 84.8619 32.75 85Z" fill="#5F5F6A"/>
<path d="M23 143.5C22.7239 143.5 22.5 143.724 22.5 144C22.5 144.276 22.7239 144.5 23 144.5H25C25.2761 144.5 25.5 144.276 25.5 144C25.5 143.724 25.2761 143.5 25 143.5H23Z" fill="#5F5F6A"/>
<path d="M19.5 138.799C19.5 138.134 19.5 137.607 19.5314 137.178C19.5636 136.738 19.6304 136.366 19.7807 136.013C20.0282 135.433 20.4281 134.93 20.938 134.558C21.2475 134.333 21.595 134.184 22.0166 134.054C22.4281 133.927 22.9411 133.808 23.5894 133.659L27.0324 132.864C28.0162 132.637 28.787 132.459 29.4095 132.372C30.0411 132.284 30.5768 132.279 31.076 132.441C31.8829 132.701 32.5678 133.246 33.0033 133.974C33.1464 134.213 33.246 134.472 33.3164 134.757L33.3394 134.766C34.197 135.122 34.8783 135.803 35.2336 136.661C35.3772 137.007 35.44 137.381 35.4703 137.824C35.5 138.26 35.5 138.798 35.5 139.482V139.5H35C35.8284 139.5 36.5 140.172 36.5 141C36.5 141.828 35.8284 142.5 35 142.5H35.5V142.518C35.5 143.202 35.5 143.74 35.4703 144.176C35.44 144.619 35.3772 144.993 35.2336 145.339C34.8783 146.197 34.197 146.878 33.3394 147.234C32.9927 147.377 32.6193 147.44 32.1755 147.47C31.7401 147.5 31.2017 147.5 30.5184 147.5H24.7778C23.9565 147.5 23.3095 147.5 22.7889 147.457C22.2577 147.414 21.8141 147.324 21.411 147.119C20.7525 146.783 20.217 146.248 19.8815 145.589C19.6761 145.186 19.5859 144.742 19.5425 144.211C19.5 143.69 19.5 143.043 19.5 142.222V138.799ZM27.2331 133.844L24.3895 134.5C24.5142 134.5 24.644 134.5 24.7778 134.5L30.5184 134.5C31.1985 134.5 31.735 134.5 32.1694 134.529C32.1615 134.515 32.1534 134.501 32.1452 134.487C31.8341 133.968 31.345 133.578 30.7685 133.392C30.4788 133.299 30.1179 133.283 29.548 133.362C28.9742 133.443 28.2462 133.61 27.2331 133.844ZM34.4726 137.893C34.4458 137.5 34.3944 137.248 34.3097 137.043C34.056 136.431 33.5693 135.944 32.9567 135.69C32.9445 135.685 32.9322 135.68 32.9196 135.676L32.7637 135.636C32.2596 135.507 31.5605 135.5 30.2834 135.5H24.8C23.9517 135.5 23.3455 135.5 22.8703 135.539C22.401 135.578 22.1037 135.651 21.865 135.772C21.4534 135.982 21.1092 136.301 20.869 136.693C20.8346 136.749 20.8024 136.806 20.7725 136.865C20.7573 136.895 20.7428 136.926 20.7291 136.957C20.6331 137.181 20.5728 137.46 20.5392 137.87C20.5344 137.93 20.5301 137.991 20.5264 138.055C20.5003 138.501 20.5 139.058 20.5 139.8V142.2C20.5 143.048 20.5004 143.655 20.5392 144.13C20.5776 144.599 20.6509 144.896 20.7725 145.135C21.0122 145.605 21.3946 145.988 21.865 146.228C22.1037 146.349 22.401 146.422 22.8703 146.461C23.3455 146.5 23.9517 146.5 24.8 146.5H30.5C31.2058 146.5 31.71 146.5 32.1074 146.473C32.5003 146.446 32.7521 146.394 32.9567 146.31C33.5693 146.056 34.056 145.569 34.3097 144.957C34.3944 144.752 34.4458 144.5 34.4726 144.107C34.4997 143.71 34.5 143.206 34.5 142.5H33C32.1716 142.5 31.5 141.828 31.5 141C31.5 140.172 32.1716 139.5 33 139.5H34.5C34.5 138.794 34.4997 138.29 34.4726 137.893ZM33 140.5C32.7239 140.5 32.5 140.724 32.5 141C32.5 141.276 32.7239 141.5 33 141.5H35C35.2761 141.5 35.5 141.276 35.5 141C35.5 140.724 35.2761 140.5 35 140.5H33Z" fill="#5F5F6A"/>
</svg>
