<svg width="56" height="168" viewBox="0 0 56 168" fill="none" xmlns="http://www.w3.org/2000/svg">
<path d="M29.1976 25.7331L19.1695 35.7613C19.2276 35.9283 19.3449 36.1616 19.5874 36.404C19.8298 36.6465 20.0631 36.7638 20.2301 36.8219L30.2583 26.7938C30.2002 26.6268 30.0829 26.3934 29.8404 26.151C29.598 25.9085 29.3647 25.7912 29.1976 25.7331ZM31.0665 27.0463L31.8164 27.0582C31.8133 27.2529 31.7345 27.4389 31.5968 27.5766L21.013 38.1604C20.8753 38.2981 20.6893 38.3769 20.4946 38.38L20.4827 37.6301C20.4946 38.38 20.4949 38.38 20.4946 38.38L20.4931 38.38L20.4915 38.38L20.4881 38.38L20.4806 38.3801L20.4621 38.3799C20.4484 38.3797 20.4317 38.3792 20.4123 38.3782C20.3736 38.3762 20.3238 38.3723 20.2647 38.3648C20.1465 38.3498 19.9894 38.3201 19.807 38.2619C19.4394 38.1446 18.975 37.913 18.5267 37.4647C18.0784 37.0164 17.8468 36.552 17.7295 36.1844C17.6713 36.002 17.6416 35.8449 17.6266 35.7268C17.6191 35.6676 17.6152 35.6178 17.6132 35.5791C17.6122 35.5597 17.6117 35.543 17.6115 35.5293L17.6113 35.5108L17.6114 35.5033L17.6114 35.4999L17.6114 35.4983C17.6114 35.498 17.6114 35.4968 18.3613 35.5087L17.6114 35.4968C17.6145 35.3021 17.6933 35.1162 17.831 34.9784L28.4148 24.3946C28.5525 24.2569 28.7385 24.1781 28.9332 24.175L28.9451 24.925C28.9332 24.175 28.9329 24.1751 28.9332 24.175L28.9347 24.175L28.9363 24.175L28.9397 24.175L28.9472 24.1749L28.9657 24.1751C28.9794 24.1753 28.9961 24.1758 29.0155 24.1768C29.0542 24.1788 29.104 24.1827 29.1631 24.1902C29.2813 24.2053 29.4384 24.2349 29.6208 24.2931C29.9884 24.4105 30.4528 24.642 30.9011 25.0903C31.3494 25.5386 31.5809 26.003 31.6983 26.3706C31.7565 26.553 31.7861 26.7101 31.8012 26.8283C31.8087 26.8874 31.8126 26.9372 31.8146 26.9759C31.8156 26.9953 31.8161 27.012 31.8163 27.0257L31.8165 27.0442L31.8164 27.0517L31.8164 27.0551L31.8164 27.0567C31.8164 27.057 31.8164 27.0582 31.0665 27.0463Z" fill="#5F5F6A"/>
<g opacity="0.5">
<path d="M28.7624 18.1671C28.6585 17.9443 28.3417 17.9443 28.2378 18.1671L27.6234 19.4834C27.5947 19.545 27.5451 19.5946 27.4835 19.6233L26.1672 20.2377C25.9444 20.3416 25.9444 20.6584 26.1672 20.7623L27.4835 21.3767C27.5451 21.4054 27.5947 21.455 27.6234 21.5166L28.2378 22.8329C28.3417 23.0557 28.6585 23.0557 28.7624 22.8329L29.3768 21.5166C29.4055 21.455 29.4551 21.4054 29.5167 21.3767L30.833 20.7623C31.0558 20.6584 31.0558 20.3416 30.833 20.2377L29.5167 19.6233C29.4551 19.5946 29.4055 19.545 29.3768 19.4834L28.7624 18.1671Z" fill="#5F5F6A"/>
<path d="M21.6853 21.2005C21.8101 20.9332 22.1902 20.9332 22.3149 21.2005L23.0521 22.7801C23.0866 22.854 23.1461 22.9135 23.22 22.948L24.7996 23.6852C25.0669 23.8099 25.0669 24.1901 24.7996 24.3148L23.22 25.052C23.1461 25.0865 23.0866 25.146 23.0521 25.2199L22.3149 26.7995C22.1902 27.0668 21.8101 27.0668 21.6853 26.7995L20.9481 25.2199C20.9136 25.146 20.8541 25.0865 20.7802 25.052L19.2006 24.3148C18.9333 24.1901 18.9333 23.8099 19.2006 23.6852L20.7802 22.948C20.8541 22.9135 20.9136 22.854 20.9481 22.7801L21.6853 21.2005Z" fill="#5F5F6A"/>
<path d="M34.6853 27.2005C34.8101 26.9332 35.1902 26.9332 35.3149 27.2005L36.0521 28.7801C36.0866 28.854 36.1461 28.9135 36.22 28.948L37.7996 29.6852C38.0669 29.8099 38.0669 30.1901 37.7996 30.3148L36.22 31.052C36.1461 31.0865 36.0866 31.146 36.0521 31.2199L35.3149 32.7995C35.1902 33.0668 34.8101 33.0668 34.6853 32.7995L33.9481 31.2199C33.9136 31.146 33.8541 31.0865 33.7802 31.052L32.2006 30.3148C31.9333 30.1901 31.9333 29.8099 32.2006 29.6852L33.7802 28.948C33.8541 28.9135 33.9136 28.854 33.9481 28.7801L34.6853 27.2005Z" fill="#5F5F6A"/>
<path d="M26.8352 29.1562C26.1281 28.4491 25.4041 28.4659 25.4041 28.4659L18.3667 35.5033C18.3667 35.5033 18.3499 36.2273 19.057 36.9344C19.7641 37.6415 20.4881 37.6246 20.4881 37.6246L27.5254 30.5872C27.5254 30.5872 27.5423 29.8633 26.8352 29.1562Z" fill="#5F5F6A"/>
</g>
<path d="M29.2155 73.9556C28.9319 73.3481 28.0681 73.3481 27.7846 73.9556L27.2026 75.2026L25.9556 75.7846C25.3482 76.0681 25.3482 76.9319 25.9556 77.2154L27.2026 77.7974L27.7846 79.0444C28.0681 79.6519 28.9319 79.6519 29.2155 79.0444L29.7974 77.7974L31.0444 77.2154C31.6519 76.9319 31.6519 76.0681 31.0444 75.7846L29.7974 75.2026L29.2155 73.9556ZM28.0764 75.6949L28.5 74.7872L28.9236 75.6949C29.002 75.8629 29.1371 75.998 29.3052 76.0764L30.2128 76.5L29.3052 76.9236C29.1371 77.002 29.002 77.1371 28.9236 77.3051L28.5 78.2128L28.0764 77.3051C27.998 77.1371 27.8629 77.002 27.6949 76.9236L26.7873 76.5L27.6949 76.0764C27.8629 75.998 27.998 75.8629 28.0764 75.6949Z" fill="#5F5F6A"/>
<path d="M21.2321 76.989C21.5364 76.337 22.4636 76.337 22.7679 76.989L23.4817 78.5184L25.011 79.2321C25.663 79.5364 25.663 80.4636 25.011 80.7679L23.4817 81.4816L22.7679 83.011C22.4636 83.663 21.5364 83.663 21.2321 83.011L20.5184 81.4816L18.9891 80.7679C18.337 80.4636 18.337 79.5364 18.9891 79.2321L20.5184 78.5184L21.2321 76.989ZM22 77.7082L21.4011 78.9916C21.3169 79.1719 21.1719 79.3169 20.9916 79.4011L19.7083 80L20.9916 80.5989C21.1719 80.6831 21.3169 80.8281 21.4011 81.0084L22 82.2918L22.599 81.0084C22.6831 80.8281 22.8281 80.6831 23.0085 80.5989L24.2918 80L23.0085 79.4011C22.8281 79.3169 22.6831 79.1719 22.599 78.9916L22 77.7082Z" fill="#5F5F6A"/>
<path d="M34.2321 82.989C34.5364 82.337 35.4636 82.337 35.7679 82.989L36.4817 84.5184L38.011 85.2321C38.663 85.5364 38.663 86.4636 38.011 86.7679L36.4817 87.4816L35.7679 89.011C35.4636 89.663 34.5364 89.663 34.2321 89.011L33.5184 87.4816L31.9891 86.7679C31.337 86.4636 31.337 85.5364 31.9891 85.2321L33.5184 84.5184L34.2321 82.989ZM36.0085 85.4011C35.8281 85.3169 35.6831 85.1719 35.599 84.9916L35 83.7082L34.4011 84.9916C34.3169 85.1719 34.1719 85.3169 33.9916 85.4011L32.7083 86L33.9916 86.5989C34.1719 86.6831 34.3169 86.8281 34.4011 87.0084L35 88.2918L35.599 87.0084C35.6831 86.8281 35.8281 86.6831 36.0085 86.5989L37.2918 86L36.0085 85.4011Z" fill="#5F5F6A"/>
<path d="M24.8819 83.9275L28.4148 80.3946C28.5525 80.2569 28.7385 80.1781 28.9332 80.1751L28.9451 80.925C28.9332 80.1751 28.9329 80.1751 28.9332 80.1751L28.9347 80.175L28.9363 80.175L28.9397 80.175L28.9472 80.175L28.9657 80.1751C28.9794 80.1753 28.9961 80.1758 29.0155 80.1768C29.0542 80.1788 29.104 80.1827 29.1631 80.1902C29.2813 80.2053 29.4384 80.2349 29.6208 80.2932C29.9884 80.4105 30.4528 80.642 30.9011 81.0903C31.3494 81.5386 31.5809 82.003 31.6983 82.3706C31.7565 82.553 31.7861 82.7101 31.8012 82.8283C31.8087 82.8875 31.8126 82.9372 31.8146 82.9759C31.8156 82.9953 31.8161 83.012 31.8163 83.0257L31.8165 83.0442L31.8164 83.0518L31.8164 83.0551L31.8164 83.0567C31.8164 83.0571 31.8164 83.0582 31.0665 83.0463L31.8164 83.0582C31.8133 83.253 31.7345 83.4389 31.5968 83.5766L21.013 94.1604C20.8753 94.2981 20.6893 94.3769 20.4946 94.38L20.4827 93.6301C20.4946 94.38 20.4949 94.38 20.4946 94.38L20.4931 94.38L20.4915 94.38L20.4881 94.3801L20.4806 94.3801L20.4621 94.3799C20.4484 94.3797 20.4317 94.3792 20.4123 94.3782C20.3736 94.3762 20.3238 94.3723 20.2647 94.3648C20.1465 94.3498 19.9894 94.3201 19.807 94.2619C19.4394 94.1446 18.975 93.913 18.5267 93.4647C18.0784 93.0164 17.8468 92.552 17.7295 92.1844C17.6713 92.002 17.6416 91.845 17.6266 91.7268C17.6191 91.6676 17.6152 91.6178 17.6132 91.5791C17.6122 91.5597 17.6117 91.543 17.6115 91.5293L17.6113 91.5108L17.6114 91.5033L17.6114 91.4999L17.6114 91.4984C17.6114 91.498 17.6114 91.4969 18.3613 91.5088L17.6114 91.4968C17.6145 91.3021 17.6933 91.1162 17.831 90.9784L24.8658 83.9436C24.8711 83.9382 24.8765 83.9328 24.8819 83.9275ZM25.6596 85.2711L19.1695 91.7613C19.2276 91.9283 19.3449 92.1616 19.5874 92.404C19.8298 92.6465 20.0631 92.7639 20.2301 92.8219L26.7202 86.3319C26.6637 86.1644 26.5479 85.9296 26.3048 85.6865C26.0618 85.4435 25.8271 85.3277 25.6596 85.2711ZM29.1976 81.7331L26.7767 84.1541C26.9699 84.2754 27.1694 84.4298 27.3654 84.6259C27.5615 84.822 27.716 85.0214 27.8373 85.2147L30.2583 82.7938C30.2002 82.6268 30.0829 82.3934 29.8404 82.151C29.598 81.9085 29.3647 81.7912 29.1976 81.7331Z" fill="#5F5F6A"/>
<path d="M29.2155 129.956C28.9319 129.348 28.0681 129.348 27.7846 129.956L27.2026 131.203L25.9556 131.785C25.3482 132.068 25.3482 132.932 25.9556 133.215L27.2026 133.797L27.7846 135.044C28.0681 135.652 28.9319 135.652 29.2155 135.044L29.7974 133.797L31.0444 133.215C31.6519 132.932 31.6519 132.068 31.0444 131.785L29.7974 131.203L29.2155 129.956ZM28.0764 131.695L28.5 130.787L28.9236 131.695C29.0021 131.863 29.1371 131.998 29.3052 132.076L30.2128 132.5L29.3052 132.924C29.1371 133.002 29.0021 133.137 28.9236 133.305L28.5 134.213L28.0764 133.305C27.998 133.137 27.8629 133.002 27.6949 132.924L26.7873 132.5L27.6949 132.076C27.8629 131.998 27.998 131.863 28.0764 131.695Z" fill="#5F5F6A"/>
<path d="M21.2321 132.989C21.5364 132.337 22.4636 132.337 22.7679 132.989L23.4817 134.518L25.011 135.232C25.663 135.536 25.663 136.464 25.011 136.768L23.4817 137.482L22.7679 139.011C22.4636 139.663 21.5364 139.663 21.2321 139.011L20.5184 137.482L18.9891 136.768C18.337 136.464 18.337 135.536 18.9891 135.232L20.5184 134.518L21.2321 132.989ZM22 133.708L21.4011 134.992C21.3169 135.172 21.1719 135.317 20.9916 135.401L19.7083 136L20.9916 136.599C21.1719 136.683 21.3169 136.828 21.4011 137.008L22 138.292L22.599 137.008C22.6831 136.828 22.8281 136.683 23.0085 136.599L24.2918 136L23.0085 135.401C22.8281 135.317 22.6831 135.172 22.599 134.992L22 133.708Z" fill="#5F5F6A"/>
<path d="M34.2321 138.989C34.5364 138.337 35.4636 138.337 35.7679 138.989L36.4817 140.518L38.011 141.232C38.663 141.536 38.663 142.464 38.011 142.768L36.4817 143.482L35.7679 145.011C35.4636 145.663 34.5364 145.663 34.2321 145.011L33.5184 143.482L31.9891 142.768C31.337 142.464 31.337 141.536 31.9891 141.232L33.5184 140.518L34.2321 138.989ZM35 139.708L34.4011 140.992C34.3169 141.172 34.1719 141.317 33.9916 141.401L32.7083 142L33.9916 142.599C34.1719 142.683 34.3169 142.828 34.4011 143.008L35 144.292L35.599 143.008C35.6831 142.828 35.8281 142.683 36.0085 142.599L37.2918 142L36.0085 141.401C35.8281 141.317 35.6831 141.172 35.599 140.992L35 139.708Z" fill="#5F5F6A"/>
<path d="M18.3613 147.509L17.8614 147.501C17.8635 147.371 17.916 147.247 18.0078 147.155L25.0444 140.119C25.0485 140.114 25.0526 140.11 25.0568 140.106L28.5916 136.571C28.6834 136.48 28.8074 136.427 28.9372 136.425L28.9451 136.925C28.9372 136.425 28.9369 136.425 28.9372 136.425L28.9382 136.425L28.9393 136.425L28.9417 136.425L28.9472 136.425L28.9616 136.425C28.9726 136.425 28.9864 136.426 29.0028 136.426C29.0356 136.428 29.0791 136.432 29.1316 136.438C29.2365 136.452 29.3785 136.478 29.5448 136.531C29.8792 136.638 30.3076 136.85 30.7243 137.267C31.141 137.684 31.3534 138.112 31.4601 138.447C31.5132 138.613 31.5398 138.755 31.5532 138.86C31.5599 138.912 31.5632 138.956 31.5649 138.989C31.5658 139.005 31.5662 139.019 31.5663 139.03L31.5665 139.044L31.5664 139.05L31.5664 139.052L31.5664 139.053C31.5664 139.053 31.5664 139.054 31.0665 139.046L31.5664 139.054C31.5643 139.184 31.5118 139.308 31.42 139.4L20.8362 149.984C20.7444 150.075 20.6204 150.128 20.4906 150.13L20.4827 149.63C20.4906 150.13 20.4908 150.13 20.4906 150.13L20.4885 150.13L20.4861 150.13L20.4806 150.13L20.4662 150.13C20.4552 150.13 20.4414 150.129 20.425 150.129C20.3922 150.127 20.3487 150.123 20.2962 150.117C20.1913 150.103 20.0493 150.077 19.883 150.024C19.5486 149.917 19.1202 149.705 18.7035 149.288C18.2868 148.871 18.0744 148.443 17.9677 148.108C17.9146 147.942 17.888 147.8 17.8746 147.695C17.8679 147.643 17.8645 147.599 17.8629 147.566C17.862 147.55 17.8616 147.536 17.8615 147.525L17.8613 147.511L17.8614 147.505L17.8614 147.503L17.8614 147.502L17.8614 147.501C17.8614 147.501 17.8614 147.501 18.3613 147.509ZM29.1251 137.452L26.3654 140.212C26.6243 140.336 26.9094 140.523 27.1887 140.803C27.468 141.082 27.6549 141.367 27.7795 141.626L30.5394 138.866C30.5313 138.832 30.5209 138.793 30.5074 138.751C30.4431 138.549 30.3076 138.265 30.0172 137.974C29.7268 137.684 29.4424 137.548 29.2408 137.484C29.1985 137.471 29.1598 137.46 29.1251 137.452ZM27.0002 142.405C26.9922 142.37 26.9818 142.33 26.9682 142.286C26.9049 142.084 26.771 141.799 26.4816 141.51C26.1922 141.22 25.9076 141.086 25.7053 141.023C25.6616 141.009 25.6216 140.999 25.586 140.991L18.8884 147.689C18.8965 147.723 18.9069 147.762 18.9204 147.804C18.9847 148.006 19.1202 148.29 19.4106 148.581C19.701 148.871 19.9854 149.007 20.187 149.071C20.2292 149.085 20.268 149.095 20.3027 149.103L27.0002 142.405Z" fill="#5F5F6A"/>
</svg>
