<svg width="56" height="224" viewBox="0 0 56 224" fill="none" xmlns="http://www.w3.org/2000/svg">
<path d="M22.3795 27.8896C22.7649 27.7381 23.2005 27.9281 23.3521 28.3135C23.5035 28.6987 23.3145 29.1344 22.9293 29.2861C22.2499 29.5536 21.7158 30.143 21.5514 30.9072C21.2902 32.1221 22.063 33.3189 23.2779 33.5801C24.4927 33.8412 25.6895 33.0683 25.9508 31.8535C25.9778 31.7279 25.993 31.6027 25.9986 31.4795L26.0318 30.7627L30.3892 30.7637C30.6304 30.0858 31.277 29.5996 32.0377 29.5996C33.0039 29.5999 33.7875 30.3834 33.7877 31.3496C33.7877 32.316 33.004 33.0994 32.0377 33.0996C31.3983 33.0996 30.8401 32.7561 30.5348 32.2441C30.5099 32.2493 30.4853 32.2571 30.4596 32.2598L30.3824 32.2637L27.3932 32.2646C26.9161 34.2337 24.9549 35.4753 22.9625 35.0469C20.9377 34.6115 19.6492 32.6166 20.0846 30.5918C20.3589 29.3162 21.2528 28.3333 22.3795 27.8896Z" fill="#5F5F6A"/>
<path d="M27.7877 23C28.754 23.0002 29.5377 23.7837 29.5377 24.75C29.5377 25.0555 29.4575 25.3418 29.3199 25.5918C29.3492 25.6176 29.3794 25.643 29.4049 25.6738L29.4508 25.7363L30.816 27.7783C32.7389 27.1162 34.8466 28.1088 35.5533 30.0264C36.2692 31.9695 35.2747 34.1247 33.3316 34.8408C32.1071 35.2921 30.7978 35.064 29.8199 34.3496C29.4856 34.1052 29.4135 33.6352 29.6578 33.3008C29.9022 32.9668 30.3714 32.8936 30.7057 33.1377C31.2953 33.5684 32.0795 33.7039 32.8131 33.4336C33.9789 33.0039 34.5755 31.7108 34.1461 30.5449C33.7164 29.3789 32.4224 28.7812 31.2564 29.2109C31.1359 29.2554 31.0217 29.3099 30.9146 29.3711L30.3082 29.7168L28.2037 26.5693L28.1646 26.5029C28.1576 26.4897 28.1512 26.4763 28.1451 26.4629C28.0297 26.4869 27.9102 26.5 27.7877 26.5C26.8212 26.5 26.0377 25.7165 26.0377 24.75C26.0377 23.7835 26.8212 23 27.7877 23Z" fill="#5F5F6A"/>
<path d="M27.7867 21C29.8578 21 31.5367 22.6789 31.5367 24.75C31.5367 24.9621 31.5191 25.1706 31.485 25.374C31.4164 25.7824 31.03 26.0576 30.6217 25.9893C30.2134 25.9206 29.9371 25.5343 30.0055 25.126C30.0259 25.0042 30.0367 24.8786 30.0367 24.75C30.0367 23.5074 29.0293 22.5 27.7867 22.5C26.5443 22.5003 25.5367 23.5075 25.5367 24.75C25.5367 25.5318 25.9355 26.2206 26.5435 26.625L27.1451 27.0264L25.1578 30.2637C25.3947 30.5621 25.5376 30.939 25.5377 31.3496C25.5377 32.316 24.754 33.0994 23.7877 33.0996C22.8212 33.0996 22.0377 32.3161 22.0377 31.3496C22.0379 30.3833 22.8213 29.5996 23.7877 29.5996C23.7981 29.5996 23.8085 29.6004 23.8189 29.6006C23.8349 29.5596 23.8547 29.5193 23.8785 29.4805L25.1471 27.4121C24.4627 26.7333 24.0367 25.7916 24.0367 24.75C24.0367 22.6791 25.7159 21.0003 27.7867 21Z" fill="#5F5F6A"/>
<path d="M22.3799 82.8896C22.7652 82.7382 23.2009 82.9282 23.3525 83.3135C23.5038 83.6987 23.3147 84.1344 22.9297 84.2861C22.2503 84.5536 21.7162 85.1431 21.5518 85.9072C21.2906 87.1221 22.0634 88.3189 23.2783 88.5801C24.4931 88.8411 25.6899 88.0682 25.9512 86.8535C25.9782 86.7279 25.9934 86.6027 25.999 86.4795L26.0322 85.7627L30.3828 85.7637H30.3896C30.3244 85.947 30.2872 86.1439 30.2871 86.3496C30.2871 86.6769 30.3788 86.9822 30.5352 87.2441C30.5102 87.2493 30.4857 87.2571 30.46 87.2598L30.3828 87.2637L27.3936 87.2646C26.9166 89.2336 24.9553 90.4751 22.9629 90.0469C20.9381 89.6115 19.6496 87.6166 20.085 85.5918C20.3593 84.3162 21.2532 83.3333 22.3799 82.8896ZM29.4053 80.6738L29.4512 80.7363L30.8164 82.7783C32.7392 82.1164 34.8471 83.1089 35.5537 85.0264C36.2695 86.9695 35.275 89.1246 33.332 89.8408C32.1075 90.2921 30.7982 90.0639 29.8203 89.3496C29.486 89.1052 29.4139 88.6352 29.6582 88.3008C29.9027 87.9669 30.3718 87.8936 30.7061 88.1377C31.2957 88.5683 32.08 88.7039 32.8135 88.4336C33.9791 88.0038 34.5759 86.7107 34.1465 85.5449C33.7168 84.379 32.4228 83.7814 31.2568 84.2109C31.1363 84.2554 31.0221 84.3099 30.915 84.3711L30.3086 84.7168L28.2041 81.5693L28.165 81.5029C28.158 81.4897 28.1536 81.4754 28.1475 81.4619C28.6543 81.3558 29.0794 81.0307 29.3213 80.5898C29.3507 80.6157 29.3797 80.6429 29.4053 80.6738ZM27.7871 76C29.8581 76.0001 31.5371 77.679 31.5371 79.75C31.5371 79.9621 31.5195 80.1706 31.4854 80.374C31.4168 80.7823 31.0303 81.0574 30.6221 80.9893C30.2138 80.9206 29.9375 80.5343 30.0059 80.126C30.0263 80.0042 30.0371 79.8786 30.0371 79.75C30.0371 78.5074 29.0296 77.5001 27.7871 77.5C26.5447 77.5003 25.5371 78.5075 25.5371 79.75C25.5371 80.5318 25.9359 81.2206 26.5439 81.625L27.1455 82.0264L25.1582 85.2637C24.8436 84.8671 24.3616 84.61 23.8184 84.6006C23.8344 84.5595 23.855 84.5194 23.8789 84.4805L25.1475 82.4121C24.4631 81.7333 24.0371 80.7916 24.0371 79.75C24.0371 77.6791 25.7163 76.0003 27.7871 76Z" fill="#5F5F6A"/>
<g opacity="0.5">
<path fill-rule="evenodd" clip-rule="evenodd" d="M23.75 84.5996C24.7164 84.5996 25.4998 85.3833 25.5 86.3496C25.5 87.3161 24.7165 88.0996 23.75 88.0996C22.7835 88.0996 22 87.3161 22 86.3496C22.0002 85.3833 22.7836 84.5996 23.75 84.5996ZM23.75 86.0996C23.6121 86.0996 23.5002 86.2117 23.5 86.3496C23.5 86.4877 23.6119 86.5996 23.75 86.5996C23.8881 86.5996 24 86.4877 24 86.3496C23.9998 86.2117 23.8879 86.0996 23.75 86.0996Z" fill="#5F5F6A"/>
<path fill-rule="evenodd" clip-rule="evenodd" d="M32 84.5996C32.9664 84.5996 33.7498 85.3833 33.75 86.3496C33.75 87.3161 32.9665 88.0996 32 88.0996C31.0335 88.0996 30.25 87.3161 30.25 86.3496C30.2502 85.3833 31.0336 84.5996 32 84.5996ZM32 86.0996C31.8621 86.0996 31.7502 86.2117 31.75 86.3496C31.75 86.4877 31.8619 86.5996 32 86.5996C32.1381 86.5996 32.25 86.4877 32.25 86.3496C32.2498 86.2117 32.1379 86.0996 32 86.0996Z" fill="#5F5F6A"/>
<path fill-rule="evenodd" clip-rule="evenodd" d="M27.75 78C28.7165 78 29.5 78.7835 29.5 79.75C29.5 80.7165 28.7165 81.5 27.75 81.5C26.7835 81.5 26 80.7165 26 79.75C26 78.7835 26.7835 78 27.75 78ZM27.75 79.5C27.6119 79.5 27.5 79.6119 27.5 79.75C27.5 79.8881 27.6119 80 27.75 80C27.8881 80 28 79.8881 28 79.75C28 79.6119 27.8881 79.5 27.75 79.5Z" fill="#5F5F6A"/>
</g>
<path fill-rule="evenodd" clip-rule="evenodd" d="M22.3795 139.89C22.7649 139.738 23.2005 139.928 23.3521 140.313C23.5035 140.699 23.3145 141.134 22.9293 141.286C22.2499 141.554 21.7158 142.143 21.5514 142.907C21.2902 144.122 22.063 145.319 23.2779 145.58C24.4927 145.841 25.6895 145.068 25.9508 143.854C25.9778 143.728 25.993 143.603 25.9986 143.479L26.0318 142.763L30.3892 142.764C30.6304 142.086 31.277 141.6 32.0377 141.6C33.0039 141.6 33.7875 142.383 33.7877 143.35C33.7877 144.316 33.004 145.099 32.0377 145.1C31.3983 145.1 30.8401 144.756 30.5348 144.244C30.5099 144.249 30.4853 144.257 30.4596 144.26L30.3824 144.264L27.3932 144.265C26.9161 146.234 24.9549 147.475 22.9625 147.047C20.9377 146.612 19.6492 144.617 20.0846 142.592C20.3589 141.316 21.2528 140.333 22.3795 139.89ZM32.0377 143.1C31.8997 143.1 31.7879 143.212 31.7877 143.35C31.7877 143.488 31.8996 143.6 32.0377 143.6C32.1756 143.599 32.2877 143.488 32.2877 143.35C32.2875 143.212 32.1754 143.1 32.0377 143.1Z" fill="#5F5F6A"/>
<path fill-rule="evenodd" clip-rule="evenodd" d="M27.7877 135C28.754 135 29.5377 135.784 29.5377 136.75C29.5377 137.055 29.4575 137.342 29.3199 137.592C29.3492 137.618 29.3794 137.643 29.4049 137.674L29.4508 137.736L30.816 139.778C32.7389 139.116 34.8466 140.109 35.5533 142.026C36.2692 143.97 35.2747 146.125 33.3316 146.841C32.1071 147.292 30.7978 147.064 29.8199 146.35C29.4856 146.105 29.4135 145.635 29.6578 145.301C29.9022 144.967 30.3714 144.894 30.7057 145.138C31.2953 145.568 32.0795 145.704 32.8131 145.434C33.9789 145.004 34.5755 143.711 34.1461 142.545C33.7164 141.379 32.4224 140.781 31.2564 141.211C31.1359 141.255 31.0217 141.31 30.9146 141.371L30.3082 141.717L28.2037 138.569L28.1646 138.503C28.1576 138.49 28.1512 138.476 28.1451 138.463C28.0297 138.487 27.9102 138.5 27.7877 138.5C26.8212 138.5 26.0377 137.716 26.0377 136.75C26.0377 135.784 26.8212 135 27.7877 135ZM27.7877 136.5C27.6496 136.5 27.5377 136.612 27.5377 136.75C27.5377 136.888 27.6496 137 27.7877 137C27.9256 137 28.0377 136.888 28.0377 136.75C28.0377 136.612 27.9256 136.5 27.7877 136.5Z" fill="#5F5F6A"/>
<path fill-rule="evenodd" clip-rule="evenodd" d="M27.7867 133C29.8578 133 31.5367 134.679 31.5367 136.75C31.5367 136.962 31.5191 137.171 31.485 137.374C31.4164 137.782 31.03 138.058 30.6217 137.989C30.2134 137.921 29.9371 137.534 30.0055 137.126C30.0259 137.004 30.0367 136.879 30.0367 136.75C30.0367 135.507 29.0293 134.5 27.7867 134.5C26.5443 134.5 25.5367 135.508 25.5367 136.75C25.5367 137.532 25.9355 138.221 26.5435 138.625L27.1451 139.026L25.1578 142.264C25.3947 142.562 25.5376 142.939 25.5377 143.35C25.5377 144.316 24.754 145.099 23.7877 145.1C22.8212 145.1 22.0377 144.316 22.0377 143.35C22.0379 142.383 22.8213 141.6 23.7877 141.6C23.7981 141.6 23.8085 141.6 23.8189 141.601C23.8349 141.56 23.8547 141.519 23.8785 141.48L25.1471 139.412C24.4627 138.733 24.0367 137.792 24.0367 136.75C24.0367 134.679 25.7159 133 27.7867 133ZM23.7877 143.1C23.6497 143.1 23.5379 143.212 23.5377 143.35C23.5377 143.488 23.6496 143.6 23.7877 143.6C23.9256 143.599 24.0377 143.488 24.0377 143.35C24.0375 143.212 23.9254 143.1 23.7877 143.1Z" fill="#5F5F6A"/>
<path fill-rule="evenodd" clip-rule="evenodd" d="M22.2205 195.873C22.4775 195.772 22.7688 195.898 22.87 196.155C22.9703 196.412 22.844 196.702 22.5877 196.803C21.8337 197.1 21.2393 197.755 21.0565 198.604C20.7663 199.954 21.6248 201.284 22.9744 201.574C24.3242 201.864 25.6538 201.006 25.9442 199.656C25.9741 199.517 25.9926 199.378 25.9989 199.241L26.0203 198.764H30.0692C30.226 197.958 30.9355 197.35 31.7869 197.35C32.7532 197.35 33.5367 198.133 33.5369 199.1C33.5369 200.066 32.7534 200.85 31.7869 200.85C31.0536 200.85 30.4262 200.399 30.1659 199.759L30.1317 199.763L26.9393 199.764C26.933 199.798 26.929 199.832 26.9217 199.866C26.5153 201.756 24.6542 202.958 22.7645 202.552C20.8748 202.145 19.6726 200.284 20.0789 198.395C20.3349 197.204 21.1685 196.287 22.2205 195.873ZM31.7869 198.35C31.3729 198.35 31.0371 198.686 31.0369 199.1C31.0369 199.514 31.3727 199.85 31.7869 199.85C32.2011 199.85 32.5369 199.514 32.5369 199.1C32.5367 198.686 32.201 198.35 31.7869 198.35Z" fill="#5F5F6A"/>
<path fill-rule="evenodd" clip-rule="evenodd" d="M27.5369 190.75C28.5034 190.75 29.2869 191.534 29.2869 192.5C29.2869 192.896 29.1539 193.26 28.9325 193.553L28.992 193.625L30.4686 195.833C30.5038 195.819 30.5382 195.801 30.5741 195.788C32.3878 195.12 34.3997 196.049 35.0682 197.862C35.7366 199.676 34.8085 201.688 32.995 202.356C31.8523 202.778 30.6308 202.565 29.7176 201.897C29.4946 201.735 29.4463 201.421 29.6092 201.198C29.7721 200.976 30.0837 200.928 30.3065 201.09C30.9609 201.568 31.8338 201.718 32.6492 201.418C33.9445 200.94 34.608 199.503 34.1307 198.208C33.6533 196.912 32.2153 196.249 30.9198 196.727C30.7862 196.776 30.6599 196.835 30.5409 196.903L30.1356 197.135L28.1619 194.181C28.1532 194.168 28.1468 194.153 28.1395 194.14C27.9513 194.209 27.7491 194.25 27.5369 194.25C26.5704 194.25 25.7869 193.466 25.7869 192.5C25.7869 191.534 26.5704 190.75 27.5369 190.75ZM27.5369 191.75C27.1227 191.75 26.7869 192.086 26.7869 192.5C26.7869 192.914 27.1227 193.25 27.5369 193.25C27.9511 193.25 28.2869 192.914 28.2869 192.5C28.2869 192.086 27.9511 191.75 27.5369 191.75Z" fill="#5F5F6A"/>
<path fill-rule="evenodd" clip-rule="evenodd" d="M27.5369 189C29.4698 189 31.0369 190.567 31.0369 192.5C31.0369 192.698 31.0209 192.893 30.9891 193.083C30.9433 193.355 30.6851 193.539 30.4129 193.493C30.1406 193.447 29.9571 193.189 30.0028 192.917C30.0254 192.782 30.0369 192.642 30.0369 192.5C30.0369 191.119 28.9175 190 27.5369 190C26.1563 190 25.0369 191.119 25.0369 192.5C25.0369 193.369 25.4802 194.135 26.1551 194.584L26.5565 194.851L24.7313 197.823C25.0724 198.143 25.2868 198.596 25.2869 199.1C25.2869 200.066 24.5034 200.85 23.5369 200.85C22.5704 200.85 21.7869 200.066 21.7869 199.1C21.7871 198.133 22.5706 197.35 23.5369 197.35C23.6386 197.35 23.7379 197.36 23.8348 197.377C23.8376 197.372 23.8396 197.366 23.8426 197.361L25.2176 195.119C24.4947 194.478 24.0369 193.543 24.0369 192.5C24.0369 190.567 25.604 189 27.5369 189ZM23.5369 198.35C23.1229 198.35 22.7871 198.686 22.7869 199.1C22.7869 199.514 23.1227 199.85 23.5369 199.85C23.9511 199.85 24.2869 199.514 24.2869 199.1C24.2867 198.686 23.951 198.35 23.5369 198.35Z" fill="#5F5F6A"/>
</svg>
