<svg width="56" height="168" viewBox="0 0 56 168" fill="none" xmlns="http://www.w3.org/2000/svg">
<path d="M26.1635 24.9636C26.515 24.6121 27.0848 24.6121 27.4363 24.9636L29.8363 27.3636C30.1878 27.7151 30.1878 28.2849 29.8363 28.6364L27.4363 31.0364C27.0848 31.3879 26.515 31.3879 26.1635 31.0364C25.812 30.6849 25.812 30.1151 26.1635 29.7636L27.9271 28L26.1635 26.2364C25.812 25.8849 25.812 25.3151 26.1635 24.9636Z" fill="#5F5F6A"/>
<path d="M26.1635 80.9636C26.515 80.6121 27.0848 80.6121 27.4363 80.9636L29.8363 83.3636C30.1878 83.7151 30.1878 84.2849 29.8363 84.6364L27.4363 87.0364C27.0848 87.3879 26.515 87.3879 26.1635 87.0364C25.812 86.6849 25.812 86.1151 26.1635 85.7636L27.9271 84L26.1635 82.2364C25.812 81.8849 25.812 81.3151 26.1635 80.9636Z" fill="#5F5F6A"/>
<path d="M26.3759 137.176C26.6102 136.941 26.9901 136.941 27.2245 137.176L29.6245 139.576C29.8588 139.81 29.8588 140.19 29.6245 140.424L27.2245 142.824C26.9901 143.059 26.6102 143.059 26.3759 142.824C26.1416 142.59 26.1416 142.21 26.3759 141.976L28.3517 140L26.3759 138.024C26.1416 137.79 26.1416 137.41 26.3759 137.176Z" fill="#5F5F6A"/>
</svg>
