<svg width="56" height="168" viewBox="0 0 56 168" fill="none" xmlns="http://www.w3.org/2000/svg">
<path d="M24.9638 26.1636C25.3153 25.8121 25.8851 25.8121 26.2366 26.1636L28.0002 27.9272L29.7638 26.1636C30.1153 25.8121 30.6851 25.8121 31.0366 26.1636C31.3881 26.5151 31.3881 27.0849 31.0366 27.4364L28.6366 29.8364C28.2851 30.1879 27.7153 30.1879 27.3638 29.8364L24.9638 27.4364C24.6123 27.0849 24.6123 26.5151 24.9638 26.1636Z" fill="#5F5F6A"/>
<path d="M24.9638 82.1636C25.3153 81.8121 25.8851 81.8121 26.2366 82.1636L28.0002 83.9272L29.7638 82.1636C30.1153 81.8121 30.6851 81.8121 31.0366 82.1636C31.3881 82.5151 31.3881 83.0849 31.0366 83.4364L28.6366 85.8364C28.2851 86.1879 27.7153 86.1879 27.3638 85.8364L24.9638 83.4364C24.6123 83.0849 24.6123 82.5151 24.9638 82.1636Z" fill="#5F5F6A"/>
<path d="M25.1757 138.376C25.4101 138.141 25.7899 138.141 26.0243 138.376L28 140.351L29.9757 138.376C30.2101 138.141 30.5899 138.141 30.8243 138.376C31.0586 138.61 31.0586 138.99 30.8243 139.224L28.4243 141.624C28.1899 141.859 27.8101 141.859 27.5757 141.624L25.1757 139.224C24.9414 138.99 24.9414 138.61 25.1757 138.376Z" fill="#5F5F6A"/>
</svg>
