<svg width="56" height="168" viewBox="0 0 56 168" fill="none" xmlns="http://www.w3.org/2000/svg">
<path d="M29.8363 24.9636C30.1878 25.3151 30.1878 25.8849 29.8363 26.2364L28.0727 28L29.8363 29.7636C30.1878 30.1151 30.1878 30.6849 29.8363 31.0364C29.4848 31.3879 28.915 31.3879 28.5635 31.0364L26.1635 28.6364C25.812 28.2849 25.812 27.7151 26.1635 27.3636L28.5635 24.9636C28.915 24.6121 29.4848 24.6121 29.8363 24.9636Z" fill="#5F5F6A"/>
<path d="M29.8363 80.9636C30.1878 81.3151 30.1878 81.8849 29.8363 82.2364L28.0727 84L29.8363 85.7636C30.1878 86.1151 30.1878 86.6849 29.8363 87.0364C29.4848 87.3879 28.915 87.3879 28.5635 87.0364L26.1635 84.6364C25.812 84.2849 25.812 83.7151 26.1635 83.3636L28.5635 80.9636C28.915 80.6121 29.4848 80.6121 29.8363 80.9636Z" fill="#5F5F6A"/>
<path d="M29.6245 137.176C29.8588 137.41 29.8588 137.79 29.6245 138.024L27.6487 140L29.6245 141.976C29.8588 142.21 29.8588 142.59 29.6245 142.824C29.3901 143.059 29.0102 143.059 28.7759 142.824L26.3759 140.424C26.1416 140.19 26.1416 139.81 26.3759 139.576L28.7759 137.176C29.0102 136.941 29.3901 136.941 29.6245 137.176Z" fill="#5F5F6A"/>
</svg>
