<svg width="56" height="224" viewBox="0 0 56 224" fill="none" xmlns="http://www.w3.org/2000/svg">
<path d="M27.8839 22.1161C27.3957 21.628 26.6043 21.628 26.1161 22.1161L21.1161 27.1161C20.628 27.6043 20.628 28.3957 21.1161 28.8839L26.1161 33.8839C26.6043 34.372 27.3957 34.372 27.8839 33.8839C28.372 33.3957 28.372 32.6043 27.8839 32.1161L25.0178 29.25L34 29.25C34.6904 29.25 35.25 28.6904 35.25 28C35.25 27.3096 34.6904 26.75 34 26.75L25.0178 26.75L27.8839 23.8839C28.372 23.3957 28.372 22.6043 27.8839 22.1161Z" fill="#5F5F6A"/>
<path d="M27.5303 78.4697C27.8232 78.7626 27.8232 79.2374 27.5303 79.5303L23.8107 83.25L34 83.25C34.4142 83.25 34.75 83.5858 34.75 84C34.75 84.4142 34.4142 84.75 34 84.75L23.8107 84.75L27.5303 88.4697C27.8232 88.7626 27.8232 89.2374 27.5303 89.5303C27.2374 89.8232 26.7626 89.8232 26.4697 89.5303L21.4697 84.5303C21.1768 84.2374 21.1768 83.7626 21.4697 83.4697L26.4697 78.4697C26.7626 78.1768 27.2374 78.1768 27.5303 78.4697Z" fill="#5F5F6A"/>
<path d="M27.5303 134.47C27.8232 134.763 27.8232 135.237 27.5303 135.53L23.8107 139.25L34 139.25C34.4142 139.25 34.75 139.586 34.75 140C34.75 140.414 34.4142 140.75 34 140.75L23.8107 140.75L27.5303 144.47C27.8232 144.763 27.8232 145.237 27.5303 145.53C27.2374 145.823 26.7626 145.823 26.4697 145.53L21.4697 140.53C21.1768 140.237 21.1768 139.763 21.4697 139.47L26.4697 134.47C26.7626 134.177 27.2374 134.177 27.5303 134.47Z" fill="#5F5F6A"/>
<path d="M27.3536 190.646C27.5488 190.842 27.5488 191.158 27.3536 191.354L23.2071 195.5L34 195.5C34.2761 195.5 34.5 195.724 34.5 196C34.5 196.276 34.2761 196.5 34 196.5L23.2071 196.5L27.3536 200.646C27.5488 200.842 27.5488 201.158 27.3536 201.354C27.1583 201.549 26.8417 201.549 26.6464 201.354L21.6464 196.354C21.4512 196.158 21.4512 195.842 21.6464 195.646L26.6464 190.646C26.8417 190.451 27.1583 190.451 27.3536 190.646Z" fill="#5F5F6A"/>
</svg>
