<svg width="56" height="168" viewBox="0 0 56 168" fill="none" xmlns="http://www.w3.org/2000/svg">
<path d="M28 17.25C28.4142 17.25 28.75 17.5858 28.75 18L28.75 36.25L34.4828 30.7902C34.7827 30.5046 35.2574 30.5161 35.5431 30.8161C35.8288 31.116 35.8172 31.5908 35.5172 31.8764L28.5172 38.5431C28.2276 38.819 27.7724 38.819 27.4828 38.5431L20.4828 31.8764C20.1828 31.5908 20.1712 31.116 20.4569 30.8161C20.7426 30.5161 21.2173 30.5046 21.5172 30.7902L27.25 36.25L27.25 18C27.25 17.5858 27.5858 17.25 28 17.25Z" fill="#5F5F6A"/>
<path d="M28 73.25C28.4142 73.25 28.75 73.5858 28.75 74L28.75 92.25L34.4828 86.7902C34.7827 86.5046 35.2574 86.5161 35.5431 86.8161C35.8288 87.116 35.8172 87.5908 35.5172 87.8764L28.5172 94.5431C28.2276 94.819 27.7724 94.819 27.4828 94.5431L20.4828 87.8764C20.1828 87.5908 20.1712 87.116 20.4569 86.8161C20.7426 86.5161 21.2173 86.5046 21.5172 86.7902L27.25 92.25L27.25 74C27.25 73.5858 27.5858 73.25 28 73.25Z" fill="#5F5F6A"/>
<path d="M28 129.5C28.2761 129.5 28.5 129.724 28.5 130L28.5 148.833L34.6552 142.971C34.8551 142.781 35.1716 142.789 35.3621 142.989C35.5525 143.188 35.5448 143.505 35.3448 143.695L28.3448 150.362C28.1517 150.546 27.8483 150.546 27.6552 150.362L20.6552 143.695C20.4552 143.505 20.4475 143.188 20.6379 142.989C20.8284 142.789 21.1449 142.781 21.3448 142.971L27.5 148.833L27.5 130C27.5 129.724 27.7239 129.5 28 129.5Z" fill="#5F5F6A"/>
</svg>
