<svg width="56" height="168" viewBox="0 0 56 168" fill="none" xmlns="http://www.w3.org/2000/svg">
<path d="M27.4828 17.4569C27.7724 17.181 28.2276 17.181 28.5172 17.4569L35.5172 24.1236C35.8172 24.4092 35.8288 24.884 35.5431 25.1839C35.2574 25.4839 34.7827 25.4954 34.4828 25.2098L28.75 19.75L28.75 38C28.75 38.4142 28.4142 38.75 28 38.75C27.5858 38.75 27.25 38.4142 27.25 38L27.25 19.75L21.5172 25.2098C21.2173 25.4954 20.7426 25.4839 20.4569 25.1839C20.1712 24.884 20.1828 24.4092 20.4828 24.1236L27.4828 17.4569Z" fill="#5F5F6A"/>
<path d="M27.4828 73.4569C27.7724 73.181 28.2276 73.181 28.5172 73.4569L35.5172 80.1236C35.8172 80.4092 35.8288 80.884 35.5431 81.1839C35.2574 81.4839 34.7827 81.4954 34.4828 81.2098L28.75 75.75L28.75 94C28.75 94.4142 28.4142 94.75 28 94.75C27.5858 94.75 27.25 94.4142 27.25 94L27.25 75.75L21.5172 81.2098C21.2173 81.4954 20.7426 81.4839 20.4569 81.1839C20.1712 80.884 20.1828 80.4092 20.4828 80.1236L27.4828 73.4569Z" fill="#5F5F6A"/>
<path d="M27.6552 129.638C27.8483 129.454 28.1517 129.454 28.3448 129.638L35.3448 136.305C35.5448 136.495 35.5525 136.812 35.3621 137.011C35.1716 137.211 34.8551 137.219 34.6552 137.029L28.5 131.167L28.5 150C28.5 150.276 28.2761 150.5 28 150.5C27.7239 150.5 27.5 150.276 27.5 150L27.5 131.167L21.3448 137.029C21.1449 137.219 20.8284 137.211 20.6379 137.011C20.4475 136.812 20.4552 136.495 20.6552 136.305L27.6552 129.638Z" fill="#5F5F6A"/>
</svg>
