<svg width="56" height="224" viewBox="0 0 56 224" fill="none" xmlns="http://www.w3.org/2000/svg">
<path d="M28.8835 21.1157C28.3996 20.633 27.6059 20.6264 27.1161 21.1161L22.1161 26.1161C21.628 26.6043 21.628 27.3957 22.1161 27.8839C22.6043 28.3721 23.3957 28.3721 23.8839 27.8839L26.75 25.0178V34C26.75 34.6904 27.3096 35.25 28 35.25C28.6904 35.25 29.25 34.6904 29.25 34V25.0178L32.1161 27.8839C32.6043 28.3721 33.3957 28.3721 33.8839 27.8839C34.372 27.3957 34.372 26.6043 33.8839 26.1161L28.8835 21.1157Z" fill="#5F5F6A"/>
<path d="M27.4697 77.4697C27.7626 77.1768 28.24 77.18 28.5303 77.4697L33.5303 82.4697C33.8232 82.7626 33.8232 83.2374 33.5303 83.5303C33.2374 83.8232 32.7626 83.8232 32.4697 83.5303L28.75 79.8107V90C28.75 90.4142 28.4142 90.75 28 90.75C27.5858 90.75 27.25 90.4142 27.25 90V79.8107L23.5303 83.5303C23.2374 83.8232 22.7626 83.8232 22.4697 83.5303C22.1768 83.2374 22.1768 82.7626 22.4697 82.4697L27.4697 77.4697Z" fill="#5F5F6A"/>
<path d="M27.4697 133.47C27.7626 133.177 28.24 133.18 28.5303 133.47L33.5303 138.47C33.8232 138.763 33.8232 139.237 33.5303 139.53C33.2374 139.823 32.7626 139.823 32.4697 139.53L28.75 135.811V146C28.75 146.414 28.4142 146.75 28 146.75C27.5858 146.75 27.25 146.414 27.25 146V135.811L23.5303 139.53C23.2374 139.823 22.7626 139.823 22.4697 139.53C22.1768 139.237 22.1768 138.763 22.4697 138.47L27.4697 133.47Z" fill="#5F5F6A"/>
<path d="M28.3536 189.646L33.3536 194.646C33.5488 194.842 33.5488 195.158 33.3536 195.354C33.1583 195.549 32.8417 195.549 32.6464 195.354L28.5 191.207V202C28.5 202.276 28.2761 202.5 28 202.5C27.7239 202.5 27.5 202.276 27.5 202V191.207L23.3536 195.354C23.1583 195.549 22.8417 195.549 22.6464 195.354C22.4512 195.158 22.4512 194.842 22.6464 194.646L27.6464 189.646C27.8417 189.451 28.1583 189.451 28.3536 189.646Z" fill="#5F5F6A"/>
</svg>
