<svg width="56" height="224" viewBox="0 0 56 224" fill="none" xmlns="http://www.w3.org/2000/svg">
<path d="M21.1615 18H32.3385C32.8657 18 33.3205 18 33.695 18.0306C34.0904 18.0629 34.4836 18.1342 34.862 18.327C35.4265 18.6146 35.8854 19.0735 36.173 19.638C36.3658 20.0164 36.4371 20.4096 36.4694 20.805C36.5 21.1795 36.5 21.6343 36.5 22.1614V28.5C36.5 29.0523 36.0523 29.5 35.5 29.5C34.9477 29.5 34.5 29.0523 34.5 28.5V22.2C34.5 21.6235 34.4992 21.2512 34.4761 20.9678C34.4539 20.6962 34.4162 20.5955 34.391 20.546C34.2951 20.3579 34.1422 20.2049 33.954 20.109C33.9045 20.0838 33.8038 20.0461 33.5322 20.0239C33.2488 20.0008 32.8766 20 32.3 20H21.2C20.6235 20 20.2512 20.0008 19.9678 20.0239C19.6962 20.0461 19.5955 20.0838 19.546 20.109C19.3579 20.2049 19.2049 20.3579 19.109 20.546C19.0838 20.5955 19.0461 20.6962 19.0239 20.9678C19.0008 21.2512 19 21.6235 19 22.2V37C19 37.5523 18.5523 38 18 38C17.4477 38 17 37.5523 17 37V22.1615C17 21.6343 17 21.1795 17.0306 20.805C17.0629 20.4096 17.1342 20.0164 17.327 19.638C17.6146 19.0735 18.0735 18.6146 18.638 18.327C19.0164 18.1342 19.4096 18.0629 19.805 18.0306C20.1795 18 20.6343 18 21.1615 18Z" fill="#5F5F6A"/>
<path d="M22.5 22.5C21.9477 22.5 21.5 22.9477 21.5 23.5C21.5 24.0523 21.9477 24.5 22.5 24.5H31.5C32.0523 24.5 32.5 24.0523 32.5 23.5C32.5 22.9477 32.0523 22.5 31.5 22.5H22.5Z" fill="#5F5F6A"/>
<path d="M27.6605 26.0093C27.7752 25.9999 27.9076 26 28.0298 26H29.9702C30.0924 26 30.2248 25.9999 30.3395 26.0093C30.4692 26.0199 30.6407 26.0462 30.8175 26.1363C31.0527 26.2561 31.2439 26.4473 31.3638 26.6825C31.4539 26.8593 31.4801 27.0308 31.4907 27.1605C31.5001 27.2751 31.5 27.4076 31.5 27.5297V28.7205C31.5 28.8426 31.5001 28.975 31.4907 29.0895C31.4801 29.2192 31.4539 29.3907 31.3638 29.5675C31.2439 29.8027 31.0527 29.9939 30.8175 30.1138C30.6407 30.2039 30.4692 30.2301 30.3395 30.2407C30.2249 30.2501 30.0924 30.25 29.9703 30.25H28.0296C27.9075 30.25 27.7751 30.2501 27.6605 30.2407C27.5308 30.2301 27.3593 30.2039 27.1825 30.1138C26.9473 29.9939 26.7561 29.8027 26.6362 29.5675C26.5461 29.3907 26.5199 29.2192 26.5093 29.0895C26.4999 28.9748 26.5 28.8424 26.5 28.7202V27.5298C26.5 27.4076 26.4999 27.2752 26.5093 27.1605C26.5199 27.0308 26.5461 26.8593 26.6362 26.6825C26.7561 26.4473 26.9473 26.2561 27.1825 26.1363C27.3593 26.0462 27.5308 26.0199 27.6605 26.0093Z" fill="#5F5F6A"/>
<path d="M22.5 27C22.5 26.5858 22.8358 26.25 23.25 26.25H24.75C25.1642 26.25 25.5 26.5858 25.5 27C25.5 27.4142 25.1642 27.75 24.75 27.75H23.25C22.8358 27.75 22.5 27.4142 22.5 27Z" fill="#5F5F6A"/>
<path d="M23.25 28.5C22.8358 28.5 22.5 28.8358 22.5 29.25C22.5 29.6642 22.8358 30 23.25 30H24.75C25.1642 30 25.5 29.6642 25.5 29.25C25.5 28.8358 25.1642 28.5 24.75 28.5H23.25Z" fill="#5F5F6A"/>
<path d="M22.5 32C22.5 31.5858 22.8358 31.25 23.25 31.25H30.75C31.1642 31.25 31.5 31.5858 31.5 32C31.5 32.4142 31.1642 32.75 30.75 32.75H23.25C22.8358 32.75 22.5 32.4142 22.5 32Z" fill="#5F5F6A"/>
<path d="M23.25 33.75C22.8358 33.75 22.5 34.0858 22.5 34.5C22.5 34.9142 22.8358 35.25 23.25 35.25H28.05C28.4642 35.25 28.8 34.9142 28.8 34.5C28.8 34.0858 28.4642 33.75 28.05 33.75H23.25Z" fill="#5F5F6A"/>
<path d="M35.6108 30.5189L38.9888 33.4213C39.4315 33.8016 39.4347 34.5644 38.9987 34.9524L35.6191 37.9605C34.9196 38.6496 33.805 37.9495 33.9664 37.033L34.1127 36.2029C33.3312 36.2577 32.7205 36.3931 32.2282 36.6279C31.5926 36.9312 31.089 37.4322 30.6808 38.3149C30.3314 39.0702 29.154 38.7343 29.2557 37.9083C29.4991 35.9319 30.1292 34.4783 31.1668 33.5252C31.9932 32.7661 33.0088 32.3877 34.1191 32.2632L33.9722 31.4669C33.8042 30.5565 34.9027 29.8451 35.6108 30.5189Z" fill="#5F5F6A"/>
<g opacity="0.5">
<path d="M28.0298 82C27.9076 82 27.7752 81.9999 27.6605 82.0093C27.5308 82.0199 27.3593 82.0461 27.1825 82.1362C26.9473 82.2561 26.7561 82.4473 26.6362 82.6825C26.5461 82.8593 26.5199 83.0308 26.5093 83.1605C26.4999 83.2752 26.5 83.4076 26.5 83.5298V84.7202C26.5 84.8424 26.4999 84.9748 26.5093 85.0895C26.5199 85.2192 26.5461 85.3907 26.6362 85.5675C26.7561 85.8027 26.9473 85.9939 27.1825 86.1138C27.3593 86.2039 27.5308 86.2301 27.6605 86.2407C27.7752 86.2501 27.9076 86.25 28.0298 86.25H29.9702C30.0924 86.25 30.2248 86.2501 30.3395 86.2407C30.4692 86.2301 30.6407 86.2039 30.8175 86.1138C31.0527 85.9939 31.2439 85.8027 31.3638 85.5675C31.4539 85.3907 31.4801 85.2192 31.4907 85.0895C31.5001 84.9749 31.5 84.8425 31.5 84.7204V83.5298C31.5 83.4077 31.5001 83.2751 31.4907 83.1605C31.4801 83.0308 31.4539 82.8593 31.3638 82.6825C31.2439 82.4473 31.0527 82.2561 30.8175 82.1362C30.6407 82.0461 30.4692 82.0199 30.3395 82.0093C30.2248 81.9999 30.0924 82 29.9702 82H28.0298Z" fill="#5F5F6A"/>
<path d="M23.25 82.25C22.8358 82.25 22.5 82.5858 22.5 83C22.5 83.4142 22.8358 83.75 23.25 83.75H24.75C25.1642 83.75 25.5 83.4142 25.5 83C25.5 82.5858 25.1642 82.25 24.75 82.25H23.25Z" fill="#5F5F6A"/>
<path d="M22.5 85.25C22.5 84.8358 22.8358 84.5 23.25 84.5H24.75C25.1642 84.5 25.5 84.8358 25.5 85.25C25.5 85.6642 25.1642 86 24.75 86H23.25C22.8358 86 22.5 85.6642 22.5 85.25Z" fill="#5F5F6A"/>
<path d="M23.25 87.25C22.8358 87.25 22.5 87.5858 22.5 88C22.5 88.4142 22.8358 88.75 23.25 88.75H30.75C31.1642 88.75 31.5 88.4142 31.5 88C31.5 87.5858 31.1642 87.25 30.75 87.25H23.25Z" fill="#5F5F6A"/>
<path d="M22.5 90.5C22.5 90.0858 22.8358 89.75 23.25 89.75H28.05C28.4642 89.75 28.8 90.0858 28.8 90.5C28.8 90.9142 28.4642 91.25 28.05 91.25H23.25C22.8358 91.25 22.5 90.9142 22.5 90.5Z" fill="#5F5F6A"/>
<path d="M30 94C30.4614 90.253 32.3324 88.9654 35.0113 88.9654L34.7097 87.3307C34.6619 87.0717 34.9317 86.894 35.1032 87.0717L38.5 89.9901C38.6035 90.0973 38.6019 90.283 38.5 90.3922L35.102 93.4166C34.9324 93.5983 34.6591 93.4238 34.705 93.1632L35.0113 91.4241C32.4714 91.4241 30.9387 91.9705 30 94Z" fill="#5F5F6A"/>
</g>
<path d="M32.3304 74.25H21.1696C20.6354 74.25 20.1896 74.25 19.8253 74.2797C19.4454 74.3108 19.0888 74.3779 18.7515 74.5497C18.2341 74.8134 17.8134 75.2341 17.5497 75.7515C17.3779 76.0888 17.3108 76.4454 17.2797 76.8253C17.25 77.1896 17.25 77.6354 17.25 78.1695V93C17.25 93.4142 17.5858 93.75 18 93.75C18.4142 93.75 18.75 93.4142 18.75 93V78.2C18.75 77.6276 18.7506 77.2434 18.7748 76.9475C18.7982 76.6604 18.8401 76.5231 18.8862 76.4325C19.0061 76.1973 19.1973 76.0061 19.4325 75.8862C19.5231 75.8401 19.6604 75.7982 19.9475 75.7748C20.2434 75.7506 20.6276 75.75 21.2 75.75H32.3C32.8724 75.75 33.2566 75.7506 33.5525 75.7748C33.8396 75.7982 33.9769 75.8401 34.0675 75.8862C34.3027 76.0061 34.4939 76.1973 34.6138 76.4325C34.6599 76.5231 34.7018 76.6604 34.7252 76.9475C34.7494 77.2434 34.75 77.6276 34.75 78.2V84.5C34.75 84.9142 35.0858 85.25 35.5 85.25C35.9142 85.25 36.25 84.9142 36.25 84.5V78.1695C36.25 77.6354 36.25 77.1896 36.2203 76.8253C36.1892 76.4454 36.1221 76.0888 35.9503 75.7515C35.6866 75.2341 35.2659 74.8134 34.7485 74.5497C34.4112 74.3779 34.0546 74.3108 33.6747 74.2797C33.3104 74.25 32.8646 74.25 32.3304 74.25Z" fill="#5F5F6A"/>
<path d="M22.5 78.5C21.9477 78.5 21.5 78.9477 21.5 79.5C21.5 80.0523 21.9477 80.5 22.5 80.5H31.5C32.0523 80.5 32.5 80.0523 32.5 79.5C32.5 78.9477 32.0523 78.5 31.5 78.5H22.5Z" fill="#5F5F6A"/>
<path fill-rule="evenodd" clip-rule="evenodd" d="M38.9888 89.4213L35.6108 86.5189C35.2559 86.1812 34.7606 86.1814 34.4119 86.411C34.0738 86.6335 33.8943 87.0448 33.9722 87.4669L34.1191 88.2632C33.0088 88.3877 31.9932 88.7661 31.1667 89.5252C30.1292 90.4783 29.4991 91.9319 29.2557 93.9083C29.2105 94.275 29.4391 94.6199 29.7943 94.7212C30.1496 94.8226 30.5257 94.6501 30.6808 94.3149C31.089 93.4322 31.5926 92.9312 32.2282 92.6279C32.7205 92.3931 33.3312 92.2577 34.1127 92.2029L33.9664 93.033C33.8917 93.4572 34.076 93.8688 34.4191 94.0879C34.7734 94.3141 35.27 94.3044 35.6191 93.9605L38.9987 90.9524C39.016 90.937 39.0326 90.9208 39.0484 90.9039C39.4119 90.5143 39.431 89.8745 39.0396 89.4691C39.0234 89.4524 39.0065 89.4364 38.9888 89.4213ZM35.7489 88.8293L35.702 88.5749L37.5906 90.1976L35.6912 91.8882L35.75 91.5543C35.7885 91.336 35.7284 91.1118 35.5859 90.942C35.4434 90.7722 35.2331 90.6742 35.0114 90.6742C33.7409 90.6742 32.6177 90.804 31.6663 91.2351C31.8252 90.9984 31.9981 90.7984 32.1815 90.6299C32.8588 90.0078 33.7888 89.7154 35.0114 89.7154C35.2341 89.7154 35.4453 89.6164 35.5878 89.4452C35.7303 89.274 35.7894 89.0483 35.7489 88.8293Z" fill="#5F5F6A"/>
<path d="M21.1696 130.25H32.3304C32.8646 130.25 33.3104 130.25 33.6747 130.28C34.0546 130.311 34.4112 130.378 34.7485 130.55C35.2659 130.813 35.6866 131.234 35.9503 131.752C36.1221 132.089 36.1892 132.445 36.2203 132.825C36.25 133.19 36.25 133.635 36.25 134.17V140.5C36.25 140.914 35.9142 141.25 35.5 141.25C35.0858 141.25 34.75 140.914 34.75 140.5V134.2C34.75 133.628 34.7494 133.243 34.7252 132.947C34.7018 132.66 34.6599 132.523 34.6138 132.433C34.4939 132.197 34.3027 132.006 34.0675 131.886C33.9769 131.84 33.8396 131.798 33.5525 131.775C33.2566 131.751 32.8724 131.75 32.3 131.75H21.2C20.6276 131.75 20.2434 131.751 19.9475 131.775C19.6604 131.798 19.5231 131.84 19.4325 131.886C19.1973 132.006 19.0061 132.197 18.8862 132.433C18.8401 132.523 18.7982 132.66 18.7748 132.947C18.7506 133.243 18.75 133.628 18.75 134.2V149C18.75 149.414 18.4142 149.75 18 149.75C17.5858 149.75 17.25 149.414 17.25 149V134.17C17.25 133.635 17.25 133.19 17.2797 132.825C17.3108 132.445 17.3779 132.089 17.5497 131.752C17.8134 131.234 18.2341 130.813 18.7515 130.55C19.0888 130.378 19.4454 130.311 19.8253 130.28C20.1896 130.25 20.6354 130.25 21.1696 130.25Z" fill="#5F5F6A"/>
<path fill-rule="evenodd" clip-rule="evenodd" d="M27.6605 138.009C27.7752 138 27.9076 138 28.0298 138H29.9702C30.0924 138 30.2248 138 30.3395 138.009C30.4692 138.02 30.6407 138.046 30.8175 138.136C31.0527 138.256 31.2439 138.447 31.3638 138.683C31.4539 138.859 31.4801 139.031 31.4907 139.161C31.5001 139.275 31.5 139.407 31.5 139.53V140.72C31.5 140.842 31.5001 140.975 31.4907 141.089C31.4801 141.219 31.4539 141.391 31.3638 141.567C31.2439 141.803 31.0527 141.994 30.8175 142.114C30.6407 142.204 30.4692 142.23 30.3395 142.241C30.2249 142.25 30.0926 142.25 29.9705 142.25H28.0298C27.9077 142.25 27.7751 142.25 27.6605 142.241C27.5308 142.23 27.3593 142.204 27.1825 142.114C26.9473 141.994 26.7561 141.803 26.6362 141.567C26.5461 141.391 26.5199 141.219 26.5093 141.089C26.4999 140.975 26.5 140.843 26.5 140.72V139.53C26.5 139.408 26.4999 139.275 26.5093 139.161C26.5199 139.031 26.5461 138.859 26.6362 138.683C26.7561 138.447 26.9473 138.256 27.1825 138.136C27.3593 138.046 27.5308 138.02 27.6605 138.009ZM30 139.5H28L28 140.75H30V139.5Z" fill="#5F5F6A"/>
<path d="M22.5 139C22.5 138.586 22.8358 138.25 23.25 138.25H24.75C25.1642 138.25 25.5 138.586 25.5 139C25.5 139.414 25.1642 139.75 24.75 139.75H23.25C22.8358 139.75 22.5 139.414 22.5 139Z" fill="#5F5F6A"/>
<path d="M22.5 141.25C22.5 140.836 22.8358 140.5 23.25 140.5H24.75C25.1642 140.5 25.5 140.836 25.5 141.25C25.5 141.664 25.1642 142 24.75 142H23.25C22.8358 142 22.5 141.664 22.5 141.25Z" fill="#5F5F6A"/>
<path d="M22.5 144C22.5 143.586 22.8358 143.25 23.25 143.25H30.75C31.1642 143.25 31.5 143.586 31.5 144C31.5 144.414 31.1642 144.75 30.75 144.75H23.25C22.8358 144.75 22.5 144.414 22.5 144Z" fill="#5F5F6A"/>
<path d="M22.5 146.5C22.5 146.086 22.8358 145.75 23.25 145.75H28.05C28.4642 145.75 28.8 146.086 28.8 146.5C28.8 146.914 28.4642 147.25 28.05 147.25H23.25C22.8358 147.25 22.5 146.914 22.5 146.5Z" fill="#5F5F6A"/>
<path d="M21.5 135.5C21.5 134.948 21.9477 134.5 22.5 134.5H31.5C32.0523 134.5 32.5 134.948 32.5 135.5C32.5 136.052 32.0523 136.5 31.5 136.5H22.5C21.9477 136.5 21.5 136.052 21.5 135.5Z" fill="#5F5F6A"/>
<path fill-rule="evenodd" clip-rule="evenodd" d="M38.9888 145.421L35.6108 142.519C35.2559 142.181 34.7606 142.181 34.4119 142.411C34.0738 142.634 33.8943 143.045 33.9722 143.467L34.1191 144.263C33.0088 144.388 31.9932 144.766 31.1667 145.525C30.1292 146.478 29.4991 147.932 29.2557 149.908C29.2105 150.275 29.4391 150.62 29.7943 150.721C30.1496 150.823 30.5257 150.65 30.6808 150.315C31.089 149.432 31.5926 148.931 32.2282 148.628C32.7205 148.393 33.3312 148.258 34.1127 148.203L33.9664 149.033C33.8917 149.457 34.076 149.869 34.4191 150.088C34.7734 150.314 35.27 150.304 35.6191 149.961L38.9987 146.952C39.016 146.937 39.0326 146.921 39.0484 146.904C39.4119 146.514 39.431 145.875 39.0396 145.469C39.0234 145.452 39.0065 145.436 38.9888 145.421ZM35.7489 144.829L35.702 144.575L37.5906 146.198L35.6912 147.888L35.75 147.554C35.7885 147.336 35.7284 147.112 35.5859 146.942C35.4434 146.772 35.2331 146.674 35.0114 146.674C33.7409 146.674 32.6177 146.804 31.6663 147.235C31.8252 146.998 31.9981 146.798 32.1815 146.63C32.8588 146.008 33.7888 145.715 35.0114 145.715C35.2341 145.715 35.4453 145.616 35.5878 145.445C35.7303 145.274 35.7894 145.048 35.7489 144.829Z" fill="#5F5F6A"/>
<path d="M21.1786 186.5H32.3214C32.8633 186.5 33.3004 186.5 33.6543 186.529C34.0187 186.559 34.3388 186.622 34.635 186.772C35.1054 187.012 35.4878 187.395 35.7275 187.865C35.8784 188.161 35.9413 188.481 35.9711 188.846C36 189.2 36 189.637 36 190.179V196.5C36 196.776 35.7761 197 35.5 197C35.2239 197 35 196.776 35 196.5V190.2C35 189.632 34.9996 189.236 34.9744 188.927C34.9497 188.625 34.9036 188.451 34.8365 188.319C34.6927 188.037 34.4632 187.807 34.181 187.663C34.0493 187.596 33.8755 187.55 33.5729 187.526C33.2645 187.5 32.8683 187.5 32.3 187.5H21.2C20.6317 187.5 20.2355 187.5 19.9271 187.526C19.6245 187.55 19.4507 187.596 19.319 187.663C19.0368 187.807 18.8073 188.037 18.6635 188.319C18.5964 188.451 18.5503 188.625 18.5256 188.927C18.5004 189.236 18.5 189.632 18.5 190.2V205C18.5 205.276 18.2761 205.5 18 205.5C17.7239 205.5 17.5 205.276 17.5 205V190.179C17.5 189.637 17.5 189.2 17.5289 188.846C17.5587 188.481 17.6216 188.161 17.7725 187.865C18.0122 187.395 18.3946 187.012 18.865 186.772C19.1612 186.622 19.4813 186.559 19.8457 186.529C20.1996 186.5 20.6367 186.5 21.1786 186.5Z" fill="#5F5F6A"/>
<path d="M21.75 191.5C21.75 191.086 22.0858 190.75 22.5 190.75H31.5C31.9142 190.75 32.25 191.086 32.25 191.5C32.25 191.914 31.9142 192.25 31.5 192.25H22.5C22.0858 192.25 21.75 191.914 21.75 191.5Z" fill="#5F5F6A"/>
<path fill-rule="evenodd" clip-rule="evenodd" d="M29.9659 194.25H28.0341C27.9079 194.25 27.785 194.25 27.6809 194.258C27.5666 194.268 27.4317 194.29 27.296 194.359C27.1078 194.455 26.9549 194.608 26.859 194.796C26.7898 194.932 26.7678 195.067 26.7585 195.181C26.75 195.285 26.75 195.408 26.75 195.534V196.716C26.75 196.842 26.75 196.965 26.7585 197.069C26.7678 197.183 26.7898 197.318 26.859 197.454C26.9549 197.642 27.1078 197.795 27.296 197.891C27.4317 197.96 27.5666 197.982 27.6809 197.992C27.785 198 27.9079 198 28.0341 198H29.9659C30.0921 198 30.215 198 30.3191 197.992C30.4334 197.982 30.5683 197.96 30.704 197.891C30.8922 197.795 31.0451 197.642 31.141 197.454C31.2102 197.318 31.2322 197.183 31.2415 197.069C31.25 196.965 31.25 196.842 31.25 196.716V195.534C31.25 195.408 31.25 195.285 31.2415 195.181C31.2322 195.067 31.2102 194.932 31.141 194.796C31.0451 194.608 30.8922 194.455 30.704 194.359C30.5683 194.29 30.4334 194.268 30.3191 194.258C30.215 194.25 30.0921 194.25 29.9659 194.25ZM27.7552 195.262L27.7557 195.256L27.7623 195.255C27.8206 195.25 27.9017 195.25 28.05 195.25H29.95C30.0983 195.25 30.1794 195.25 30.2377 195.255L30.2443 195.256L30.2448 195.262C30.2496 195.321 30.25 195.402 30.25 195.55V196.7C30.25 196.848 30.2496 196.929 30.2448 196.988L30.2443 196.994L30.2377 196.995C30.1794 197 30.0983 197 29.95 197H28.05C27.9017 197 27.8206 197 27.7623 196.995L27.7557 196.994L27.7552 196.988C27.7504 196.929 27.75 196.848 27.75 196.7V195.55C27.75 195.402 27.7504 195.321 27.7552 195.262Z" fill="#5F5F6A"/>
<path d="M22.75 195C22.75 194.724 22.9739 194.5 23.25 194.5H24.75C25.0261 194.5 25.25 194.724 25.25 195C25.25 195.276 25.0261 195.5 24.75 195.5H23.25C22.9739 195.5 22.75 195.276 22.75 195Z" fill="#5F5F6A"/>
<path d="M23.25 196.75C22.9739 196.75 22.75 196.974 22.75 197.25C22.75 197.526 22.9739 197.75 23.25 197.75H24.75C25.0261 197.75 25.25 197.526 25.25 197.25C25.25 196.974 25.0261 196.75 24.75 196.75H23.25Z" fill="#5F5F6A"/>
<path d="M22.75 200C22.75 199.724 22.9739 199.5 23.25 199.5H30.75C31.0261 199.5 31.25 199.724 31.25 200C31.25 200.276 31.0261 200.5 30.75 200.5H23.25C22.9739 200.5 22.75 200.276 22.75 200Z" fill="#5F5F6A"/>
<path d="M23.25 202C22.9739 202 22.75 202.224 22.75 202.5C22.75 202.776 22.9739 203 23.25 203H28.05C28.3261 203 28.55 202.776 28.55 202.5C28.55 202.224 28.3261 202 28.05 202H23.25Z" fill="#5F5F6A"/>
<path fill-rule="evenodd" clip-rule="evenodd" d="M38.8259 201.611L35.4426 198.704C35.1776 198.448 34.8098 198.448 34.5493 198.62C34.2963 198.786 34.1581 199.097 34.218 199.421L34.4146 200.487C33.2364 200.574 32.1782 200.936 31.3359 201.709C30.3574 202.608 29.7429 203.997 29.5038 205.939C29.4737 206.183 29.626 206.413 29.8629 206.481C30.0997 206.548 30.3505 206.433 30.4538 206.21C30.8825 205.283 31.4241 204.735 32.1206 204.402C32.718 204.117 33.4623 203.975 34.4135 203.936L34.2126 205.076C34.1551 205.403 34.297 205.713 34.5537 205.877C34.8181 206.046 35.1868 206.039 35.4477 205.778L38.8325 202.766C38.844 202.755 38.855 202.745 38.8656 202.733C39.1419 202.437 39.1552 201.949 38.8597 201.643C38.8489 201.632 38.8376 201.621 38.8259 201.611ZM35.5031 200.875L35.3276 199.924L37.9704 202.194L35.3202 204.553L35.5038 203.511C35.5551 203.22 35.3069 202.924 35.0114 202.924C33.716 202.924 32.6087 203.061 31.6899 203.5C31.457 203.611 31.2392 203.74 31.0355 203.888C31.2978 203.267 31.6298 202.797 32.0124 202.446C32.7506 201.768 33.7498 201.465 35.0114 201.465C35.1599 201.465 35.3007 201.399 35.3957 201.285C35.4907 201.171 35.53 201.021 35.5031 200.875Z" fill="#5F5F6A"/>
</svg>
