<svg width="56" height="224" viewBox="0 0 56 224" fill="none" xmlns="http://www.w3.org/2000/svg">
<path d="M27.9997 23C28.5519 23 28.9997 23.4477 28.9997 24V26.2678L30.9635 25.134C31.4418 24.8578 32.0534 25.0217 32.3296 25.5C32.6057 25.9783 32.4418 26.5899 31.9635 26.866L29.9997 27.9999L31.964 29.134C32.4423 29.4101 32.6062 30.0217 32.33 30.5C32.0539 30.9783 31.4423 31.1422 30.964 30.866L28.9997 29.7319V32C28.9997 32.5523 28.5519 33 27.9997 33C27.4474 33 26.9997 32.5523 26.9997 32V29.7319L25.0353 30.866C24.557 31.1422 23.9454 30.9783 23.6693 30.5C23.3932 30.0217 23.557 29.4101 24.0353 29.134L25.9997 27.9999L24.0358 26.866C23.5575 26.5899 23.3936 25.9783 23.6698 25.5C23.9459 25.0217 24.5575 24.8578 25.0358 25.134L26.9997 26.2678V24C26.9997 23.4477 27.4474 23 27.9997 23Z" fill="#5F5F6A"/>
<path d="M27.9997 79.25C28.4139 79.25 28.7497 79.5858 28.7497 80V82.7008L31.0885 81.3505C31.4472 81.1434 31.9059 81.2663 32.113 81.625C32.3201 81.9837 32.1972 82.4424 31.8385 82.6495L29.4997 83.9998L31.8392 85.3505C32.1979 85.5576 32.3208 86.0163 32.1137 86.375C31.9066 86.7337 31.4479 86.8566 31.0892 86.6495L28.7497 85.2988V88C28.7497 88.4142 28.4139 88.75 27.9997 88.75C27.5855 88.75 27.2497 88.4142 27.2497 88L27.2497 85.2988L24.9103 86.6495C24.5516 86.8566 24.0929 86.7337 23.8858 86.375C23.6787 86.0163 23.8016 85.5576 24.1603 85.3505L26.4997 83.9998L24.161 82.6495C23.8022 82.4424 23.6793 81.9837 23.8864 81.625C24.0935 81.2663 24.5522 81.1434 24.911 81.3505L27.2497 82.7008L27.2497 80C27.2497 79.5858 27.5855 79.25 27.9997 79.25Z" fill="#5F5F6A"/>
<path d="M27.9997 135.25C28.4139 135.25 28.7497 135.586 28.7497 136V138.701L31.0885 137.35C31.4472 137.143 31.9059 137.266 32.113 137.625C32.3201 137.984 32.1972 138.442 31.8385 138.65L29.4997 140L31.8392 141.35C32.1979 141.558 32.3208 142.016 32.1137 142.375C31.9066 142.734 31.4479 142.857 31.0892 142.65L28.7497 141.299V144C28.7497 144.414 28.4139 144.75 27.9997 144.75C27.5855 144.75 27.2497 144.414 27.2497 144L27.2497 141.299L24.9103 142.65C24.5516 142.857 24.0929 142.734 23.8858 142.375C23.6787 142.016 23.8016 141.558 24.1603 141.35L26.4997 140L24.161 138.65C23.8022 138.442 23.6793 137.984 23.8864 137.625C24.0935 137.266 24.5522 137.143 24.911 137.35L27.2497 138.701L27.2497 136C27.2497 135.586 27.5855 135.25 27.9997 135.25Z" fill="#5F5F6A"/>
<path d="M27.9996 191.5C28.2757 191.5 28.4996 191.724 28.4996 192V195.134L31.2134 193.567C31.4526 193.429 31.7584 193.511 31.8965 193.75C32.0345 193.989 31.9526 194.295 31.7134 194.433L28.9996 196L31.7139 197.567C31.9531 197.705 32.035 198.011 31.8969 198.25C31.7589 198.489 31.4531 198.571 31.2139 198.433L28.4996 196.866V200C28.4996 200.276 28.2757 200.5 27.9996 200.5C27.7234 200.5 27.4996 200.276 27.4996 200V196.866L24.7852 198.433C24.5461 198.571 24.2403 198.489 24.1022 198.25C23.9642 198.011 24.0461 197.705 24.2852 197.567L26.9996 196L24.2857 194.433C24.0466 194.295 23.9646 193.989 24.1027 193.75C24.2408 193.511 24.5466 193.429 24.7857 193.567L27.4996 195.134V192C27.4996 191.724 27.7234 191.5 27.9996 191.5Z" fill="#5F5F6A"/>
</svg>
