<svg width="56" height="224" viewBox="0 0 56 224" fill="none" xmlns="http://www.w3.org/2000/svg">
<path d="M19 27.4667C19 22.7907 22.7907 19 27.4667 19H29.6C33.6869 19 37 22.3131 37 26.4V29.6667C37 31.5076 35.5076 33 33.6667 33C32.5348 33 31.5347 32.4359 30.9322 31.5734C30.1026 32.4486 28.9616 33 27.6667 33C25.0092 33 23 30.6777 23 28C23 25.3223 25.0092 23 27.6667 23C28.6756 23 29.5911 23.3347 30.3386 23.8965C30.3904 23.3929 30.816 23 31.3333 23C31.8856 23 32.3333 23.4477 32.3333 24V29.6667C32.3333 30.403 32.9303 31 33.6667 31C34.403 31 35 30.403 35 29.6667V26.4C35 23.4177 32.5823 21 29.6 21H27.4667C23.8952 21 21 23.8952 21 27.4667V28C21 31.866 24.134 35 28 35H32.6667C33.219 35 33.6667 35.4477 33.6667 36C33.6667 36.5523 33.219 37 32.6667 37H28C23.0294 37 19 32.9706 19 28V27.4667ZM30.3333 28C30.3333 26.2595 29.0593 25 27.6667 25C26.274 25 25 26.2595 25 28C25 29.7405 26.274 31 27.6667 31C29.0593 31 30.3333 29.7405 30.3333 28Z" fill="#5F5F6A"/>
<path d="M19.25 83.4667C19.25 78.9287 22.9287 75.25 27.4667 75.25H29.6C33.5488 75.25 36.75 78.4512 36.75 82.4V85.6667C36.75 87.3695 35.3695 88.75 33.6667 88.75C32.5043 88.75 31.4922 88.1069 30.9668 87.157C30.1675 88.127 28.9999 88.75 27.6667 88.75C25.1673 88.75 23.25 86.5606 23.25 84C23.25 81.4394 25.1673 79.25 27.6667 79.25C28.8001 79.25 29.8138 79.7003 30.5833 80.4312V80C30.5833 79.5858 30.9191 79.25 31.3333 79.25C31.7475 79.25 32.0833 79.5858 32.0833 80V85.6667C32.0833 86.5411 32.7922 87.25 33.6667 87.25C34.5411 87.25 35.25 86.5411 35.25 85.6667V82.4C35.25 79.2796 32.7204 76.75 29.6 76.75H27.4667C23.7572 76.75 20.75 79.7572 20.75 83.4667V84C20.75 88.0041 23.9959 91.25 28 91.25H32.6667C33.0809 91.25 33.4167 91.5858 33.4167 92C33.4167 92.4142 33.0809 92.75 32.6667 92.75H28C23.1675 92.75 19.25 88.8325 19.25 84V83.4667ZM30.5833 84C30.5833 82.1423 29.2174 80.75 27.6667 80.75C26.1159 80.75 24.75 82.1423 24.75 84C24.75 85.8577 26.1159 87.25 27.6667 87.25C29.2174 87.25 30.5833 85.8577 30.5833 84Z" fill="#5F5F6A"/>
<path d="M19.25 139.467C19.25 134.929 22.9287 131.25 27.4667 131.25H29.6C33.5488 131.25 36.75 134.451 36.75 138.4V141.667C36.75 143.37 35.3695 144.75 33.6667 144.75C32.5043 144.75 31.4922 144.107 30.9668 143.157C30.1675 144.127 28.9999 144.75 27.6667 144.75C25.1673 144.75 23.25 142.561 23.25 140C23.25 137.439 25.1673 135.25 27.6667 135.25C28.8001 135.25 29.8138 135.7 30.5833 136.431V136C30.5833 135.586 30.9191 135.25 31.3333 135.25C31.7475 135.25 32.0833 135.586 32.0833 136V141.667C32.0833 142.541 32.7922 143.25 33.6667 143.25C34.5411 143.25 35.25 142.541 35.25 141.667V138.4C35.25 135.28 32.7204 132.75 29.6 132.75H27.4667C23.7572 132.75 20.75 135.757 20.75 139.467V140C20.75 144.004 23.9959 147.25 28 147.25H32.6667C33.0809 147.25 33.4167 147.586 33.4167 148C33.4167 148.414 33.0809 148.75 32.6667 148.75H28C23.1675 148.75 19.25 144.832 19.25 140V139.467ZM30.5833 140C30.5833 138.142 29.2174 136.75 27.6667 136.75C26.1159 136.75 24.75 138.142 24.75 140C24.75 141.858 26.1159 143.25 27.6667 143.25C29.2174 143.25 30.5833 141.858 30.5833 140Z" fill="#5F5F6A"/>
<path d="M19.5 195.467C19.5 191.067 23.0668 187.5 27.4667 187.5H29.6C33.4108 187.5 36.5 190.589 36.5 194.4V197.667C36.5 199.231 35.2315 200.5 33.6667 200.5C32.4567 200.5 31.4238 199.741 31.0176 198.674C30.2654 199.775 29.057 200.5 27.6667 200.5C25.3254 200.5 23.5 198.443 23.5 196C23.5 193.557 25.3254 191.5 27.6667 191.5C28.9485 191.5 30.0757 192.116 30.8333 193.075V192C30.8333 191.724 31.0572 191.5 31.3333 191.5C31.6095 191.5 31.8333 191.724 31.8333 192V197.667C31.8333 198.679 32.6541 199.5 33.6667 199.5C34.6792 199.5 35.5 198.679 35.5 197.667V194.4C35.5 191.142 32.8585 188.5 29.6 188.5H27.4667C23.6191 188.5 20.5 191.619 20.5 195.467V196C20.5 200.142 23.8579 203.5 28 203.5H32.6667C32.9428 203.5 33.1667 203.724 33.1667 204C33.1667 204.276 32.9428 204.5 32.6667 204.5H28C23.3056 204.5 19.5 200.694 19.5 196V195.467ZM30.8333 196C30.8333 194.025 29.3755 192.5 27.6667 192.5C25.9578 192.5 24.5 194.025 24.5 196C24.5 197.975 25.9578 199.5 27.6667 199.5C29.3755 199.5 30.8333 197.975 30.8333 196Z" fill="#5F5F6A"/>
</svg>
