<svg width="56" height="224" viewBox="0 0 56 224" fill="none" xmlns="http://www.w3.org/2000/svg">
<path d="M24 33.4999V34.9999C24 35.138 23.8881 35.2499 23.75 35.2499H21.75C21.6119 35.2499 21.5 35.138 21.5 34.9999V33.4999H24ZM29 33.4999V34.9999C29 35.138 28.8881 35.2499 28.75 35.2499H26.75C26.6119 35.2499 26.5 35.138 26.5 34.9999V33.4999H29ZM36.7715 34.4384C36.8069 34.5716 36.728 34.7084 36.5947 34.7441L34.6631 35.2617C34.5297 35.2974 34.3922 35.2183 34.3564 35.0849L33.9131 33.4296L36.3193 32.7499L36.7715 34.4384ZM35.542 29.8515L33.1357 30.5312L31.8252 25.6386L34.2012 24.8466L35.542 29.8515ZM29 25.4999V30.4999H26.5V25.4999H29ZM24 25.4999V30.4999H21.5V25.4999H24ZM32.8418 20.7382C32.9752 20.7025 33.1127 20.7816 33.1484 20.915L33.4229 21.9433L31.5 22.5849V21.0976L32.8418 20.7382ZM26.75 20.7499H28.75C28.8881 20.7499 29 20.8619 29 20.9999V22.4999H26.5V20.9999C26.5 20.8619 26.6119 20.7499 26.75 20.7499ZM21.75 20.7499H23.75C23.8881 20.7499 24 20.8619 24 20.9999V22.4999H21.5V20.9999C21.5 20.8619 21.6119 20.7499 21.75 20.7499Z" fill="#5F5F6A" stroke="#71717A" stroke-width="1.5"/>
<g opacity="0.5">
<path d="M21 80.5C21 79.6789 25 79.5895 25 80.5C25 79.6789 29 79.5895 29 80.5V87.5C29 88.3288 25 88.4089 25 87.5C25 88.3211 21 88.4105 21 87.5V80.5Z" fill="#5F5F6A"/>
<path d="M34.0235 80.5964C33.7998 79.7614 29.9577 80.8773 30.1598 81.6317L31.8717 88.0207C32.0739 88.7751 35.9592 87.8205 35.7354 86.9854L34.0235 80.5964Z" fill="#5F5F6A"/>
</g>
<path fill-rule="evenodd" clip-rule="evenodd" d="M29.75 82.487V91C29.75 91.9665 28.9665 92.75 28 92.75H26C25.5716 92.75 25.1792 92.5961 24.875 92.3405C24.5708 92.5961 24.1784 92.75 23.75 92.75H21.75C20.7835 92.75 20 91.9665 20 91V77C20 76.0335 20.7835 75.25 21.75 75.25H23.75C24.1784 75.25 24.5708 75.4039 24.875 75.6595C25.1792 75.4039 25.5716 75.25 26 75.25H28C28.5736 75.25 29.0828 75.526 29.4019 75.9524C29.5169 75.8913 29.6406 75.8421 29.7718 75.807L31.7037 75.2893C32.6372 75.0392 33.5968 75.5932 33.847 76.5267L37.4704 90.0497C37.7206 90.9833 37.1666 91.9429 36.233 92.193L34.3011 92.7107C33.3676 92.9608 32.408 92.4068 32.1578 91.4732L29.75 82.487ZM29.9833 77.562C29.9475 77.4287 30.0267 77.2916 30.16 77.2558L32.0919 76.7382C32.2253 76.7025 32.3623 76.7816 32.3981 76.915L32.9804 79.0883L30.5656 79.7354L29.9833 77.562ZM30.9538 81.1843L32.6362 87.4628L35.051 86.8158L33.3687 80.5372L30.9538 81.1843ZM33.6067 91.085L33.0244 88.9117L35.4392 88.2646L36.0215 90.4379C36.0573 90.5713 35.9781 90.7084 35.8448 90.7441L33.9129 91.2618C33.7795 91.2975 33.6425 91.2184 33.6067 91.085ZM21.75 76.75C21.6119 76.75 21.5 76.8619 21.5 77V79.25H24V77C24 76.8619 23.8881 76.75 23.75 76.75H21.75ZM21.5 87.25V80.75H24V87.25H21.5ZM21.5 88.75V91C21.5 91.1381 21.6119 91.25 21.75 91.25H23.75C23.8881 91.25 24 91.1381 24 91V88.75H21.5ZM26 76.75C25.8619 76.75 25.75 76.8619 25.75 77V79.25H28.25V77C28.25 76.8619 28.1381 76.75 28 76.75H26ZM25.75 87.25V80.75H28.25V87.25H25.75ZM25.75 88.75V91C25.75 91.1381 25.8619 91.25 26 91.25H28C28.1381 91.25 28.25 91.1381 28.25 91V88.75H25.75Z" fill="#5F5F6A"/>
<path fill-rule="evenodd" clip-rule="evenodd" d="M29.75 138.487V147C29.75 147.966 28.9665 148.75 28 148.75H26C25.5716 148.75 25.1792 148.596 24.875 148.341C24.5708 148.596 24.1784 148.75 23.75 148.75H21.75C20.7835 148.75 20 147.966 20 147V133C20 132.033 20.7835 131.25 21.75 131.25H23.75C24.1784 131.25 24.5708 131.404 24.875 131.659C25.1792 131.404 25.5716 131.25 26 131.25H28C28.5736 131.25 29.0828 131.526 29.4019 131.952C29.5169 131.891 29.6406 131.842 29.7718 131.807L31.7037 131.289C32.6372 131.039 33.5968 131.593 33.847 132.527L37.4704 146.05C37.7206 146.983 37.1666 147.943 36.233 148.193L34.3011 148.711C33.3676 148.961 32.408 148.407 32.1578 147.473L29.75 138.487ZM29.9833 133.562C29.9475 133.429 30.0267 133.292 30.16 133.256L32.0919 132.738C32.2253 132.702 32.3623 132.782 32.3981 132.915L32.9804 135.088L30.5656 135.735L29.9833 133.562ZM30.9538 137.184L33.3687 136.537L35.051 142.816L32.6362 143.463L30.9538 137.184ZM33.0244 144.912L33.6067 147.085C33.6425 147.218 33.7795 147.297 33.9129 147.262L35.8448 146.744C35.9781 146.708 36.0573 146.571 36.0215 146.438L35.4392 144.265L33.0244 144.912ZM21.75 132.75C21.6119 132.75 21.5 132.862 21.5 133V135.25H24V133C24 132.862 23.8881 132.75 23.75 132.75H21.75ZM24 136.75H21.5V143.25H24V136.75ZM24 144.75H21.5V147C21.5 147.138 21.6119 147.25 21.75 147.25H23.75C23.8881 147.25 24 147.138 24 147V144.75ZM26 132.75C25.8619 132.75 25.75 132.862 25.75 133V135.25H28.25V133C28.25 132.862 28.1381 132.75 28 132.75H26ZM25.75 147V144.75H28.25V147C28.25 147.138 28.1381 147.25 28 147.25H26C25.8619 147.25 25.75 147.138 25.75 147ZM28.25 143.25H25.75V136.75H28.25V143.25Z" fill="#5F5F6A"/>
<path fill-rule="evenodd" clip-rule="evenodd" d="M29.5 192.588V203C29.5 203.828 28.8284 204.5 28 204.5H26C25.552 204.5 25.1499 204.304 24.875 203.992C24.6002 204.304 24.198 204.5 23.75 204.5H21.75C20.9216 204.5 20.25 203.828 20.25 203V189C20.25 188.172 20.9216 187.5 21.75 187.5H23.75C24.198 187.5 24.6001 187.696 24.875 188.008C25.1499 187.696 25.552 187.5 26 187.5H28C28.5742 187.5 29.073 187.823 29.3251 188.297C29.4739 188.185 29.646 188.099 29.8365 188.048L31.7684 187.531C32.5686 187.316 33.3911 187.791 33.6055 188.591L37.229 202.114C37.4434 202.915 36.9685 203.737 36.1683 203.952L34.2364 204.469C33.4362 204.684 32.6137 204.209 32.3993 203.408L29.5 192.588ZM29.7418 189.627C29.6703 189.36 29.8286 189.086 30.0953 189.014L32.0272 188.497C32.2939 188.425 32.5681 188.584 32.6396 188.85L33.2866 191.265L30.3888 192.042L29.7418 189.627ZM30.6477 193.007L33.5454 192.231L35.3572 198.993L32.4594 199.769L30.6477 193.007ZM32.7182 200.735L33.3652 203.15C33.4367 203.416 33.7109 203.575 33.9776 203.503L35.9095 202.986C36.1762 202.914 36.3345 202.64 36.263 202.373L35.616 199.958L32.7182 200.735ZM21.75 188.5C21.4739 188.5 21.25 188.724 21.25 189V191.5H24.25V189C24.25 188.724 24.0261 188.5 23.75 188.5H21.75ZM24.25 192.5H21.25V199.5H24.25V192.5ZM24.25 200.5H21.25V203C21.25 203.276 21.4739 203.5 21.75 203.5H23.75C24.0261 203.5 24.25 203.276 24.25 203V200.5ZM26 188.5C25.7239 188.5 25.5 188.724 25.5 189V191.5H28.5V189C28.5 188.724 28.2761 188.5 28 188.5H26ZM25.5 203V200.5H28.5V203C28.5 203.276 28.2761 203.5 28 203.5H26C25.7239 203.5 25.5 203.276 25.5 203ZM28.5 199.5H25.5V192.5H28.5V199.5Z" fill="#5F5F6A"/>
</svg>
