<svg width="56" height="224" viewBox="0 0 56 224" fill="none" xmlns="http://www.w3.org/2000/svg">
<path d="M19.7927 21.4976C20.0366 21.1317 20.4724 20.943 20.9061 21.0152L28 22.1976L35.0939 21.0152C35.5276 20.943 35.9634 21.1317 36.2073 21.4976L37.8117 23.9041C38.2347 24.5387 37.9117 25.4012 37.176 25.6019L32.1538 26.9716C31.7026 27.0946 31.2224 26.9236 30.9506 26.543L28 22.4122L25.0494 26.543C24.7776 26.9236 24.2974 27.0946 23.8462 26.9716L18.824 25.6019C18.0883 25.4012 17.7653 24.5387 18.1883 23.9041L19.7927 21.4976Z" fill="#5F5F6A"/>
<path d="M32.4478 28.0495L36.1007 27.0533V32.2677C36.1007 32.7582 35.7808 33.1914 35.312 33.3356L28 35.4977L20.7096 33.3333C20.23 33.1962 19.8993 32.7578 19.8993 32.2589V27.0533L23.5522 28.0495C24.4547 28.2956 25.4149 27.9536 25.9586 27.1925L28 24.3346L30.0414 27.1925C30.5851 27.9536 31.5453 28.2956 32.4478 28.0495Z" fill="#5F5F6A"/>
<path d="M30.9521 82.5431C31.2239 82.9236 31.7041 83.0947 32.1553 82.9718L36.1016 81.8946V88.2677C36.1016 88.7581 35.7822 89.1917 35.3135 89.336L28.2861 91.4982L20.7109 89.3331C20.2313 89.1961 19.9004 88.7578 19.9004 88.2589V81.8946L23.8477 82.9718C24.2988 83.0948 24.7789 82.9235 25.0508 82.5431L28.002 78.4122L30.9521 82.5431Z" fill="#5F5F6A"/>
<path opacity="0.5" d="M20.9061 77.0152C20.4724 76.943 20.0366 77.1317 19.7927 77.4976L18.1883 79.9041C17.7653 80.5387 18.0883 81.4012 18.824 81.6019L23.8462 82.9716C24.2974 83.0946 24.7776 82.9236 25.0494 82.543L28 78.4122L30.9506 82.543C31.2224 82.9236 31.7026 83.0946 32.1538 82.9716L37.176 81.6019C37.9117 81.4012 38.2347 80.5387 37.8117 79.9041L36.2073 77.4976C35.9634 77.1317 35.5276 76.943 35.0939 77.0152L28 78.1976L20.9061 77.0152Z" fill="#5F5F6A"/>
<path fill-rule="evenodd" clip-rule="evenodd" d="M19.8988 132.527C20.1571 132.14 20.6187 131.94 21.078 132.016L28 133.17L34.922 132.016C35.3813 131.94 35.8429 132.14 36.1012 132.527L37.8005 135.076C38.2486 135.748 37.9065 136.662 37.1272 136.874L31.8079 138.325C31.3299 138.455 30.8214 138.274 30.5334 137.871L28 134.324L25.4666 137.871C25.1786 138.274 24.6701 138.455 24.1921 138.325L18.8728 136.874C18.0935 136.662 17.7514 135.748 18.1995 135.076L19.8988 132.527Z" fill="#5F5F6A"/>
<path d="M19.4199 137.862V143.925C19.4199 144.454 19.7702 144.918 20.2782 145.063L28.3021 147.356L35.7447 145.066C36.2412 144.913 36.5801 144.454 36.5801 143.934V137.862L35.3966 138.218V143.934L28.8876 145.937V138.454C28.8876 138.127 28.6227 137.862 28.2959 137.862C27.9691 137.862 27.7041 138.127 27.7041 138.454V145.954L20.6034 143.925V138.218L19.4199 137.862Z" fill="#5F5F6A"/>
<path fill-rule="evenodd" clip-rule="evenodd" d="M19.8988 188.527C20.1571 188.14 20.6187 187.94 21.078 188.016L28 189.17L34.922 188.016C35.3813 187.94 35.8429 188.14 36.1012 188.527L37.8005 191.076C38.2486 191.748 37.9065 192.662 37.1272 192.874L31.8079 194.325C31.3299 194.455 30.8214 194.274 30.5334 193.871L28 190.324L25.4666 193.871C25.1786 194.274 24.6701 194.455 24.1921 194.325L18.8728 192.874C18.0935 192.662 17.7514 191.748 18.1995 191.076L19.8988 188.527ZM26.6714 190.148L20.8835 189.184L19.1842 191.732L24.5035 193.183L26.6714 190.148ZM29.3286 190.148L35.1165 189.184L36.8158 191.732L31.4965 193.183L29.3286 190.148Z" fill="#5F5F6A"/>
<path d="M19.4199 193.862V199.925C19.4199 200.454 19.7702 200.918 20.2782 201.063L28.3021 203.356L35.7447 201.066C36.2412 200.913 36.5801 200.454 36.5801 199.934V193.862L35.3966 194.218V199.934L28.8876 201.937V194.454C28.8876 194.127 28.6227 193.862 28.2959 193.862C27.9691 193.862 27.7041 194.127 27.7041 194.454V201.954L20.6034 199.925V194.218L19.4199 193.862Z" fill="#5F5F6A"/>
</svg>
