<svg width="56" height="224" viewBox="0 0 56 224" fill="none" xmlns="http://www.w3.org/2000/svg">
<path d="M35.5448 23.9967L32.9958 19.4084C32.8729 19.1872 32.6397 19.05 32.3867 19.05H29.6086H22.9113C22.6583 19.05 22.4252 19.1872 22.3023 19.4084L19.7532 23.9967H25.6539L25.9667 19.05L29.6086 19.05C29.6086 19.05 29.7249 21.4801 29.8738 23.9967H35.5448Z" fill="#5F5F6A"/>
<path d="M25.5657 25.3902L25.3499 28.8041C25.3499 29.5737 25.9737 30.1976 26.7433 30.1976H28.8335C29.603 30.1976 30.2269 29.5737 30.2269 28.8041C30.1422 28.0526 30.0481 26.7762 29.9594 25.3902H35.8703V32.5664C35.8703 34.4904 34.3107 36.05 32.3867 36.05H22.9113C20.9874 36.05 19.4277 34.4904 19.4277 32.5664V25.3902H25.5657Z" fill="#5F5F6A"/>
<path d="M25.3564 80.6238L25.3535 82.6296C25.3526 83.3566 25.3516 84.2282 25.3516 84.8044C25.3518 85.5738 25.9757 86.1979 26.7451 86.198H28.835C29.6044 86.198 30.2283 85.5739 30.2285 84.8044V80.6238H35.8721V88.5662C35.8721 90.4901 34.3126 92.0496 32.3887 92.0496H22.9131C20.9892 92.0494 19.4297 90.49 19.4297 88.5662V80.6238H25.3564Z" fill="#5F5F6A"/>
<path opacity="0.5" d="M30.2286 80.6238H25.3561L25.3533 82.6296C25.3524 83.3565 25.3516 84.2278 25.3516 84.8041C25.3516 85.5737 25.9754 86.1975 26.745 86.1975H28.8352C29.6047 86.1975 30.2286 85.5737 30.2286 84.8041V80.6238Z" fill="#5F5F6A"/>
<path opacity="0.5" d="M25.9697 75.05C25.7165 76.8222 25.5347 78.8274 25.3682 80.6096H30.2119L29.6104 75.05H32.3887C32.6415 75.0502 32.8742 75.1874 32.9971 75.4084L35.7842 80.425C35.8192 80.4881 35.8434 80.5556 35.8574 80.6243H19.4434C19.4574 80.5556 19.4817 80.488 19.5166 80.425L22.3037 75.4084C22.4266 75.1872 22.6601 75.05 22.9131 75.05H25.9697Z" fill="#5F5F6A"/>
<path fill-rule="evenodd" clip-rule="evenodd" d="M19.5443 136.385C19.4405 136.572 19.4008 136.784 19.4247 136.989C19.4203 137.039 19.418 137.09 19.418 137.141V144.369C19.418 146.402 21.0661 148.05 23.0991 148.05H32.2014C34.2344 148.05 35.8825 146.402 35.8825 144.369V137.141C35.8825 137.089 35.8802 137.039 35.8757 136.989C35.8997 136.784 35.86 136.572 35.7562 136.385L33.079 131.566C32.9019 131.248 32.566 131.05 32.2014 131.05H23.0991C22.7345 131.05 22.3985 131.248 22.2215 131.566L19.5443 136.385ZM21.4258 144.369V137.877H25.1069V140.152C25.1069 141.076 25.8561 141.826 26.7802 141.826H28.788C29.7121 141.826 30.4613 141.076 30.4613 140.152V137.877H33.8746V144.369C33.8746 145.293 33.1255 146.042 32.2014 146.042H23.0991C22.175 146.042 21.4258 145.293 21.4258 144.369ZM30.2802 135.467H32.9493L31.6107 133.058L29.936 133.058L30.2802 135.467ZM25.6322 133.058L23.6898 133.058L22.3512 135.467H25.288L25.6322 133.058Z" fill="#5F5F6A"/>
<path fill-rule="evenodd" clip-rule="evenodd" d="M23.1468 187C22.7809 187 22.4442 187.2 22.2689 187.521L19.4721 192.649C19.392 192.796 19.35 192.96 19.35 193.127V200C19.35 202.209 21.1409 204 23.35 204H31.9496C34.1587 204 35.9496 202.209 35.9496 200V193.127C35.9496 192.96 35.9076 192.796 35.8275 192.649L33.0307 187.521C32.8555 187.2 32.5187 187 32.1528 187H23.1468ZM23.1468 188H25.901L25.33 192.25H20.8286L23.1468 188ZM20.35 193.25V200C20.35 201.657 21.6931 203 23.35 203H31.9496C33.6065 203 34.9496 201.657 34.9496 200V193.25H30.2992V196.475C30.2992 197.303 29.6276 197.975 28.7992 197.975H26.7992C25.9708 197.975 25.2992 197.303 25.2992 196.475V193.25H20.35ZM26.2992 193.25V196.475C26.2992 196.751 26.5231 196.975 26.7992 196.975H28.7992C29.0754 196.975 29.2992 196.751 29.2992 196.475V193.25H26.2992ZM30.2564 192.25H34.471L32.1528 188H29.3999L30.2564 192.25ZM29.2363 192.25H26.339L26.9032 188.05L28.3899 188.05L29.2363 192.25Z" fill="#5F5F6A"/>
<path fill-rule="evenodd" clip-rule="evenodd" d="M22.1811 187.473C22.3739 187.12 22.7443 186.9 23.1468 186.9H32.1528C32.5553 186.9 32.9257 187.12 33.1185 187.473L35.9153 192.601C36.0034 192.762 36.0496 192.943 36.0496 193.127V200C36.0496 202.264 34.214 204.1 31.9496 204.1H23.35C21.0856 204.1 19.25 202.264 19.25 200V193.127C19.25 192.943 19.2962 192.762 19.3843 192.601L22.1811 187.473ZM23.2062 188.1L20.9971 192.15H25.2425L25.7866 188.1H23.2062ZM23.1468 188L20.8286 192.25H25.33L25.901 188H23.1468ZM20.45 193.35V200C20.45 201.602 21.7484 202.9 23.35 202.9H31.9496C33.5512 202.9 34.8496 201.602 34.8496 200V193.35H30.3992V196.475C30.3992 197.359 29.6829 198.075 28.7992 198.075H26.7992C25.9156 198.075 25.1992 197.359 25.1992 196.475V193.35H20.45ZM20.35 200C20.35 201.657 21.6931 203 23.35 203H31.9496C33.6065 203 34.9496 201.657 34.9496 200V193.25H30.2992V196.475C30.2992 197.303 29.6276 197.975 28.7992 197.975H26.7992C25.9708 197.975 25.2992 197.303 25.2992 196.475V193.25H20.35V200ZM26.3992 193.35V196.475C26.3992 196.696 26.5783 196.875 26.7992 196.875H28.7992C29.0201 196.875 29.1992 196.696 29.1992 196.475V193.35H26.3992ZM26.2992 196.475C26.2992 196.751 26.5231 196.975 26.7992 196.975H28.7992C29.0754 196.975 29.2992 196.751 29.2992 196.475V193.25H26.2992V196.475ZM34.471 192.25L32.1528 188H29.3999L30.2564 192.25H34.471ZM29.5221 188.1L30.3382 192.15H34.3025L32.0934 188.1H29.5221ZM29.2363 192.25L28.3899 188.05L26.9032 188.05L26.339 192.25H29.2363ZM26.4533 192.15H29.1141L28.3081 188.15L26.9907 188.15L26.4533 192.15ZM22.2689 187.521C22.4442 187.2 22.7809 187 23.1468 187H32.1528C32.5187 187 32.8555 187.2 33.0307 187.521L35.8275 192.649C35.9076 192.796 35.9496 192.96 35.9496 193.127V200C35.9496 202.209 34.1587 204 31.9496 204H23.35C21.1409 204 19.35 202.209 19.35 200V193.127C19.35 192.96 19.392 192.796 19.4721 192.649L22.2689 187.521Z" fill="#5F5F6A"/>
</svg>
