<svg width="56" height="224" viewBox="0 0 56 224" fill="none" xmlns="http://www.w3.org/2000/svg">
<path fill-rule="evenodd" clip-rule="evenodd" d="M23.9478 21.6078C24.432 20.1557 25.7255 19.5154 27.1518 19.6825C27.1383 19.7433 27.1315 19.8065 27.1314 19.8713V32.2069C26.5743 32.2748 26.0137 32.2119 25.5622 32.0068C24.9643 31.735 24.5266 31.2119 24.5266 30.2906C24.5265 29.9711 24.2673 29.7119 23.9478 29.7117C23.6281 29.7117 23.369 29.971 23.3689 30.2906C23.3689 31.6845 24.089 32.6087 25.0829 33.0605C25.711 33.3459 26.432 33.4352 27.1314 33.3714V36.5641C25.7979 36.9334 23.9478 36.194 23.9478 34.3425C21.0537 35.5001 19.3172 32.0272 21.0535 30.2906C19.5603 29.7928 18.9244 27.5841 20.2474 26.2386H21.0535C21.0852 26.2386 21.1172 26.2359 21.1485 26.2307C21.9161 26.1028 22.3596 26.2464 22.5945 26.4173C22.8248 26.5849 22.9347 26.8354 22.9348 27.1069C22.9347 27.3879 22.8156 27.6612 22.6227 27.8327C22.4685 27.9697 22.2404 28.0666 21.9173 28.0215L21.7726 27.9933L21.6572 27.9763C21.3881 27.9645 21.1385 28.1424 21.0705 28.4138C21.0028 28.6851 21.1387 28.96 21.3814 29.0764L21.4922 29.1159L21.7714 29.1691C22.4121 29.2543 22.9762 29.0667 23.3915 28.6976C23.8495 28.2904 24.0924 27.6938 24.0925 27.1069C24.0924 26.5106 23.8401 25.8922 23.2751 25.4812C22.726 25.0819 21.9601 24.9356 21.0196 25.0809H20.7675C20.1594 23.3547 21.3566 21.0897 23.9478 21.6078ZM23.3689 22.7655C23.0493 22.7655 22.7902 23.0248 22.7901 23.3444C22.7901 24.1277 22.9843 24.758 23.5622 25.047C23.8151 25.1734 24.0785 25.1965 24.2881 25.1951C24.4927 25.1937 24.7149 25.1658 24.8737 25.1499C25.2663 25.1107 25.3937 25.1381 25.4582 25.1872C25.5034 25.2219 25.6843 25.4102 25.6843 26.2386C25.6843 26.5583 25.9435 26.8175 26.2632 26.8175C26.5827 26.8173 26.842 26.5582 26.842 26.2386C26.842 25.3319 26.6609 24.6508 26.1637 24.2692C25.6855 23.9026 25.088 23.966 24.7584 23.999C24.556 24.0192 24.4154 24.0365 24.2813 24.0374C24.1523 24.0383 24.0985 24.0206 24.08 24.0114C24.074 24.0084 24.0703 24.0056 24.0653 24.0001C24.0596 23.9938 24.0445 23.9754 24.0269 23.9334C23.9889 23.8427 23.9478 23.6657 23.9478 23.3444C23.9477 23.0249 23.6884 22.7657 23.3689 22.7655Z" fill="#5F5F6A"/>
<path fill-rule="evenodd" clip-rule="evenodd" d="M28.8454 19.6825C30.2725 19.5146 31.5673 20.155 32.0517 21.6078C34.6424 21.09 35.8398 23.3547 35.2319 25.0809H34.9798C34.0393 24.9356 33.2735 25.082 32.7243 25.4812C32.1593 25.8922 31.907 26.5106 31.9069 27.1069C31.907 27.6939 32.1498 28.2904 32.6079 28.6976C33.0233 29.0667 33.5872 29.2544 34.228 29.1691L34.5072 29.1159L34.618 29.0764C34.8605 28.9599 34.9966 28.685 34.9289 28.4138C34.861 28.1424 34.6112 27.9646 34.3422 27.9763L34.2269 27.9933L34.0821 28.0215C33.7589 28.0667 33.531 27.9697 33.3767 27.8327C33.1837 27.6612 33.0647 27.388 33.0646 27.1069C33.0647 26.8353 33.1745 26.5849 33.4049 26.4173C33.64 26.2465 34.0834 26.1028 34.8509 26.2307C34.8822 26.2359 34.9142 26.2386 34.9459 26.2386H35.752C37.0747 27.5841 36.4388 29.7926 34.9459 30.2906C36.6822 32.0271 34.9456 35.4999 32.0517 34.3425C32.0516 36.1939 30.2015 36.9332 28.868 36.5641V29.74C29.425 29.6723 29.9859 29.7361 30.4372 29.9412C31.0349 30.213 31.4728 30.7363 31.4728 31.6574C31.473 31.977 31.7321 32.2363 32.0517 32.2363C32.3711 32.2361 32.6303 31.9769 32.6305 31.6574C32.6304 30.2637 31.9102 29.3394 30.9166 28.8876C30.2886 28.6021 29.5673 28.5129 28.868 28.5766V19.8713C28.868 19.8064 28.8589 19.7434 28.8454 19.6825ZM32.6305 22.7655C32.3109 22.7655 32.0517 23.0248 32.0517 23.3444C32.0517 23.6654 32.0105 23.8427 31.9725 23.9334C31.9551 23.9749 31.94 23.9936 31.9341 24.0001C31.9292 24.0055 31.9253 24.0085 31.9194 24.0114C31.9011 24.0205 31.8474 24.0383 31.7181 24.0374C31.584 24.0365 31.4434 24.0192 31.241 23.999C30.9115 23.966 30.314 23.9027 29.8357 24.2692C29.3385 24.6508 29.1574 25.3318 29.1574 26.2386C29.1574 26.5583 29.4166 26.8175 29.7363 26.8175C30.0558 26.8173 30.3151 26.5582 30.3151 26.2386C30.3151 25.4094 30.4963 25.2217 30.5412 25.1872C30.6058 25.1383 30.7334 25.1107 31.1257 25.1499C31.2846 25.1658 31.5067 25.1938 31.7114 25.1951C31.9209 25.1965 32.1844 25.1734 32.4372 25.047C33.0149 24.758 33.2093 24.1275 33.2093 23.3444C33.2093 23.0249 32.95 22.7657 32.6305 22.7655Z" fill="#5F5F6A"/>
<path fill-rule="evenodd" clip-rule="evenodd" d="M27.9993 75.8193C28.8557 75.5841 29.741 75.5956 30.5237 75.9085C31.2114 76.1837 31.7844 76.6782 32.1608 77.3651C33.4794 77.3053 34.4979 77.9255 35.0483 78.8689C35.5208 79.6793 35.6247 80.6983 35.3119 81.6066C36.1827 82.307 36.5387 83.3026 36.4659 84.25C36.4053 85.0353 36.0409 85.816 35.4278 86.3405C35.8994 87.3238 35.7612 88.4744 35.235 89.3295C34.8882 89.8927 34.357 90.3651 33.6758 90.6035C33.2512 90.7522 32.7891 90.8004 32.3064 90.741C31.997 91.6368 31.2696 92.2238 30.4806 92.4868C29.7006 92.7468 28.7532 92.7228 27.9993 92.3135C27.2453 92.7228 26.298 92.7468 25.518 92.4868C24.7289 92.2238 24.0016 91.6368 23.6921 90.741C23.2094 90.8004 22.7474 90.7522 22.3227 90.6035C21.6416 90.3651 21.1103 89.8927 20.7636 89.3295C20.2373 88.4744 20.0991 87.3238 20.5707 86.3405C19.9576 85.816 19.5932 85.0353 19.5327 84.25C19.4598 83.3026 19.8158 82.307 20.6866 81.6066C20.3738 80.6983 20.4777 79.6793 20.9503 78.8689C21.5006 77.9255 22.5191 77.3053 23.8378 77.3651C24.2141 76.6782 24.7871 76.1837 25.4749 75.9085C26.2575 75.5956 27.1428 75.5841 27.9993 75.8193ZM27.2115 77.2595C26.7783 77.1971 26.3836 77.2416 26.0596 77.3713C25.6215 77.5466 25.26 77.8938 25.0697 78.4647C24.9438 78.8412 24.5574 79.0657 24.1681 78.9879C23.171 78.7886 22.5942 79.1781 22.3114 79.6628C21.9962 80.2037 22.0026 80.93 22.3525 81.4548C22.4776 81.6427 22.5161 81.8756 22.4581 82.0939C22.4 82.312 22.2508 82.4955 22.0489 82.5965C21.2985 82.972 21.062 83.5803 21.1041 84.129C21.1503 84.7277 21.5139 85.2013 21.9463 85.3455C22.2052 85.4319 22.4005 85.6471 22.4633 85.9128C22.5256 86.1782 22.4468 86.4574 22.254 86.6503C21.7715 87.1331 21.7341 87.9007 22.1053 88.5038C22.2836 88.7933 22.54 89.0101 22.8428 89.1162C23.138 89.2195 23.5332 89.2371 24.0306 89.0382C24.2731 88.9414 24.5477 88.9709 24.764 89.1172C24.9805 89.2638 25.1107 89.5082 25.1107 89.7696C25.1109 90.4179 25.4867 90.8147 26.0165 90.9913C26.4664 91.1412 26.9112 91.0921 27.2115 90.9451V77.2595ZM29.939 77.3713C29.6149 77.2416 29.2203 77.1971 28.787 77.2595V90.9451C29.0873 91.0921 29.5321 91.1412 29.9821 90.9913C30.5118 90.8147 30.8876 90.4179 30.8878 89.7696C30.8878 89.5082 31.0181 89.2638 31.2345 89.1172C31.4508 88.9709 31.7254 88.9414 31.9679 89.0382C32.4654 89.2371 32.8605 89.2195 33.1557 89.1162C33.4585 89.0101 33.7149 88.7933 33.8933 88.5038C34.2644 87.9007 34.227 87.1331 33.7445 86.6503C33.5517 86.4574 33.4729 86.1782 33.5353 85.9128C33.598 85.6471 33.7933 85.4319 34.0523 85.3455C34.4847 85.2013 34.8482 84.7277 34.8944 84.129C34.9366 83.5803 34.7001 82.972 33.9497 82.5965C33.7477 82.4955 33.5985 82.312 33.5404 82.0939C33.4825 81.8756 33.5209 81.6427 33.6461 81.4548C33.996 80.93 34.0023 80.2037 33.6871 79.6628C33.4044 79.1781 32.8276 78.7886 31.8305 78.9879C31.4411 79.0657 31.0547 78.8412 30.9288 78.4647C30.7385 77.8938 30.3771 77.5466 29.939 77.3713Z" fill="#5F5F6A"/>
<path opacity="0.5" d="M24.3242 85.3056C24.759 85.3058 25.1112 85.6578 25.1113 86.0927C25.1113 86.8214 25.4448 87.2053 25.8975 87.411C26.4062 87.6421 27.1154 87.658 27.751 87.4462C28.1637 87.3086 28.6105 87.5315 28.748 87.9442C28.8856 88.357 28.6618 88.8037 28.249 88.9413C27.3093 89.2545 26.1805 89.2698 25.2451 88.8446C24.2536 88.3939 23.5361 87.4646 23.5361 86.0927C23.5362 85.6577 23.8892 85.3056 24.3242 85.3056ZM27.751 84.4843C28.6907 84.1711 29.8195 84.1558 30.7549 84.5809C31.7464 85.0317 32.4639 85.961 32.4639 87.3329C32.4637 87.7677 32.1116 88.1198 31.6768 88.12C31.2418 88.12 30.8888 87.7679 30.8887 87.3329C30.8887 86.6042 30.5552 86.2203 30.1025 86.0145C29.5938 85.7835 28.8846 85.7675 28.249 85.9794C27.8363 86.1169 27.3895 85.894 27.252 85.4813C27.1144 85.0686 27.3382 84.6219 27.751 84.4843ZM23.7988 79.0028C24.2338 79.003 24.5859 79.3559 24.5859 79.7909C24.586 79.9779 24.6052 80.091 24.6201 80.1561C24.6213 80.1561 24.6227 80.157 24.624 80.1571C24.7299 80.1564 24.8395 80.1423 25.0332 80.1229C25.3178 80.0945 25.9655 80.0173 26.4932 80.4218C27.0473 80.8467 27.2119 81.5762 27.2119 82.4169C27.2117 82.8517 26.8596 83.2038 26.4248 83.204C25.9898 83.204 25.6369 82.8518 25.6367 82.4169C25.6367 81.9187 25.5604 81.7316 25.5312 81.6776C25.4963 81.6739 25.4017 81.6691 25.1895 81.6903C25.0552 81.7038 24.8362 81.731 24.6348 81.7323C24.4657 81.7334 24.2457 81.7175 24.0176 81.6366C24.5011 82.0599 24.7177 82.644 24.7178 83.204C24.7178 83.806 24.47 84.4207 23.9941 84.8436C23.5268 85.259 22.8846 85.4491 22.1748 85.3134L22.0322 85.2811L21.9561 85.2577C21.5803 85.1223 21.36 84.7219 21.459 84.3261C21.5645 83.9042 21.9922 83.6476 22.4141 83.7528C22.6978 83.8237 22.8549 83.7479 22.9473 83.6659C23.0621 83.5637 23.1426 83.3896 23.1426 83.204C23.1425 83.0313 23.0747 82.8878 22.9414 82.7909C22.802 82.6897 22.4777 82.5604 21.8271 82.6688C21.3982 82.7399 20.9924 82.4493 20.9209 82.0204C20.8497 81.5914 21.1404 81.1866 21.5693 81.1151C22.302 80.9931 22.9512 81.0515 23.4795 81.2919C23.1214 80.9166 23.0108 80.3625 23.0107 79.7909C23.0107 79.3558 23.3637 79.0028 23.7988 79.0028ZM32.2012 79.0028C32.6363 79.0028 32.9893 79.3558 32.9893 79.7909C32.9892 80.363 32.8784 80.9176 32.5195 81.2929C33.0484 81.0514 33.6994 80.9928 34.4336 81.1151C34.8623 81.1869 35.1522 81.5916 35.0811 82.0204C35.0095 82.4494 34.6038 82.7401 34.1748 82.6688C33.5242 82.5604 33.2 82.6897 33.0605 82.7909C32.9274 82.8878 32.8595 83.0313 32.8594 83.204C32.8594 83.3896 32.9398 83.5637 33.0547 83.6659C33.147 83.7479 33.3041 83.8238 33.5879 83.7528C34.0098 83.6475 34.4374 83.9042 34.543 84.3261C34.6419 84.7217 34.4224 85.1222 34.0469 85.2577L33.9697 85.2811L33.8271 85.3134C33.1173 85.4491 32.4752 85.2591 32.0078 84.8436C31.532 84.4207 31.2842 83.806 31.2842 83.204C31.2843 82.6438 31.5006 82.059 31.9844 81.6356C31.7556 81.7171 31.5347 81.7334 31.3652 81.7323C31.1638 81.7309 30.9447 81.7038 30.8105 81.6903C30.5983 81.6691 30.5037 81.6739 30.4688 81.6776C30.4396 81.7316 30.3633 81.9187 30.3633 82.4169C30.3631 82.8518 30.0102 83.204 29.5752 83.204C29.1404 83.2038 28.7883 82.8517 28.7881 82.4169C28.7881 81.5763 28.9528 80.8467 29.5068 80.4218C30.0345 80.0173 30.6822 80.0945 30.9668 80.1229C31.1606 80.1423 31.2701 80.1564 31.376 80.1571C31.3773 80.1571 31.3786 80.1562 31.3799 80.1561C31.3948 80.091 31.414 79.9779 31.4141 79.7909C31.4141 79.356 31.7663 79.003 32.2012 79.0028Z" fill="#5F5F6A"/>
<path fill-rule="evenodd" clip-rule="evenodd" d="M27.9993 131.819C28.8557 131.584 29.741 131.596 30.5237 131.909C31.2114 132.184 31.7844 132.678 32.1608 133.365C33.4794 133.305 34.4979 133.925 35.0483 134.869C35.5208 135.679 35.6247 136.698 35.3119 137.607C36.1827 138.307 36.5387 139.303 36.4659 140.25C36.4053 141.035 36.0409 141.816 35.4278 142.34C35.8994 143.324 35.7612 144.474 35.235 145.33C34.8882 145.893 34.357 146.365 33.6758 146.604C33.2512 146.752 32.7891 146.8 32.3064 146.741C31.997 147.637 31.2696 148.224 30.4806 148.487C29.7006 148.747 28.7532 148.723 27.9993 148.313C27.2453 148.723 26.298 148.747 25.518 148.487C24.7289 148.224 24.0016 147.637 23.6921 146.741C23.2094 146.8 22.7474 146.752 22.3227 146.604C21.6416 146.365 21.1103 145.893 20.7636 145.33C20.2373 144.474 20.0991 143.324 20.5707 142.34C19.9576 141.816 19.5932 141.035 19.5327 140.25C19.4598 139.303 19.8158 138.307 20.6866 137.607C20.3738 136.698 20.4777 135.679 20.9503 134.869C21.5006 133.925 22.5191 133.305 23.8378 133.365C24.2141 132.678 24.7871 132.184 25.4749 131.909C26.2575 131.596 27.1428 131.584 27.9993 131.819ZM27.2115 133.259C26.7783 133.197 26.3836 133.242 26.0596 133.371C25.6215 133.547 25.26 133.894 25.0697 134.465C24.9438 134.841 24.5574 135.066 24.1681 134.988C23.171 134.789 22.5942 135.178 22.3114 135.663C22.0703 136.077 22.0176 136.598 22.1627 137.056C22.655 137.041 23.0982 137.118 23.4788 137.292C23.1208 136.916 23.01 136.363 23.01 135.791C23.01 135.356 23.3627 135.003 23.7978 135.003C24.2328 135.003 24.5855 135.356 24.5855 135.791C24.5856 135.978 24.6045 136.091 24.6194 136.156L24.6235 136.157C24.7294 136.157 24.8389 136.143 25.0328 136.123C25.3174 136.095 25.9648 136.017 26.4924 136.422C27.0465 136.847 27.2115 137.576 27.2115 138.417C27.2113 138.852 26.8586 139.205 26.4237 139.205C25.9888 139.205 25.6362 138.852 25.6359 138.417C25.6359 137.92 25.5596 137.733 25.5303 137.678C25.4954 137.675 25.401 137.67 25.1887 137.691C25.0544 137.704 24.8353 137.731 24.6338 137.733C24.4649 137.734 24.2451 137.718 24.0173 137.637C24.5001 138.061 24.7167 138.644 24.7168 139.204C24.7168 139.806 24.4684 140.42 23.9927 140.843C23.5253 141.258 22.8838 141.448 22.174 141.313L22.0314 141.281L21.9545 141.257C21.5788 141.122 21.3591 140.722 21.458 140.326C21.5637 139.904 21.9912 139.647 22.413 139.753C22.697 139.824 22.8541 139.747 22.9464 139.665C23.0612 139.563 23.1413 139.389 23.1413 139.204C23.1411 139.031 23.0734 138.887 22.9402 138.79C22.8094 138.695 22.5163 138.577 21.9442 138.652C21.2763 139.03 21.064 139.607 21.1041 140.129C21.1503 140.728 21.5139 141.201 21.9463 141.346C22.2052 141.432 22.4005 141.647 22.4633 141.913C22.5256 142.178 22.4468 142.457 22.254 142.65C21.7715 143.133 21.7341 143.901 22.1053 144.504C22.2836 144.793 22.54 145.01 22.8428 145.116C23.138 145.22 23.5332 145.237 24.0306 145.038C24.2731 144.941 24.5477 144.971 24.764 145.117C24.9805 145.264 25.1107 145.508 25.1107 145.77C25.1109 146.418 25.4867 146.815 26.0165 146.991C26.4664 147.141 26.9112 147.092 27.2115 146.945V145.153C26.5441 145.21 25.853 145.122 25.2441 144.845C24.2527 144.395 23.5353 143.465 23.5352 142.093C23.5352 141.658 23.8879 141.306 24.323 141.306C24.758 141.306 25.1107 141.658 25.1107 142.093C25.1109 142.822 25.4439 143.206 25.8965 143.411C26.2646 143.579 26.7374 143.63 27.2115 143.567V133.259ZM29.939 133.371C29.6149 133.242 29.2203 133.197 28.787 133.259V140.272C29.4545 140.214 30.1455 140.304 30.7544 140.58C31.7459 141.031 32.4633 141.961 32.4634 143.332C32.4634 143.767 32.1107 144.12 31.6756 144.12C31.2405 144.12 30.8878 143.767 30.8878 143.332C30.8877 142.604 30.5547 142.22 30.1021 142.014C29.734 141.847 29.2611 141.794 28.787 141.857V146.945C29.0873 147.092 29.5321 147.141 29.9821 146.991C30.5118 146.815 30.8876 146.418 30.8878 145.77C30.8878 145.508 31.0181 145.264 31.2345 145.117C31.4508 144.971 31.7254 144.941 31.9679 145.038C32.4654 145.237 32.8605 145.22 33.1557 145.116C33.4585 145.01 33.7149 144.793 33.8933 144.504C34.2644 143.901 34.227 143.133 33.7445 142.65C33.5517 142.457 33.4729 142.178 33.5353 141.913C33.598 141.647 33.7933 141.432 34.0523 141.346C34.4847 141.201 34.8482 140.728 34.8944 140.129C34.9346 139.606 34.7218 139.03 34.0533 138.652C33.4818 138.577 33.189 138.696 33.0583 138.79C32.9251 138.887 32.8574 139.031 32.8573 139.204C32.8573 139.389 32.9374 139.563 33.0521 139.665C33.1445 139.747 33.3015 139.824 33.5855 139.753C34.0074 139.647 34.4349 139.904 34.5405 140.326C34.6394 140.722 34.4198 141.122 34.0441 141.257L33.9671 141.281L33.8245 141.313C33.1147 141.448 32.4732 141.258 32.0059 140.843C31.5302 140.42 31.2817 139.806 31.2817 139.204C31.2818 138.644 31.4978 138.061 31.9802 137.637C31.7527 137.718 31.5334 137.734 31.3648 137.733C31.1633 137.731 30.9441 137.704 30.8098 137.691C30.5976 137.67 30.5032 137.675 30.4683 137.678C30.4389 137.733 30.3626 137.92 30.3626 138.417C30.3624 138.852 30.0098 139.205 29.5748 139.205C29.1399 139.205 28.7873 138.852 28.787 138.417C28.787 137.576 28.9521 136.847 29.5061 136.422C30.0337 136.017 30.6811 136.095 30.9658 136.123C31.1597 136.143 31.2691 136.157 31.375 136.157L31.3791 136.156C31.3941 136.091 31.413 135.978 31.413 135.791C31.413 135.356 31.7657 135.003 32.2008 135.003C32.6358 135.003 32.9885 135.356 32.9885 135.791C32.9885 136.363 32.8771 136.916 32.5188 137.292C32.8992 137.118 33.3426 137.041 33.8348 137.056C33.98 136.598 33.9283 136.077 33.6871 135.663C33.4044 135.178 32.8276 134.789 31.8305 134.988C31.4411 135.066 31.0547 134.841 30.9288 134.465C30.7385 133.894 30.3771 133.547 29.939 133.371Z" fill="#5F5F6A"/>
<path d="M23.6633 191.11C23.9626 191.11 24.2052 191.353 24.2052 191.652C24.2053 191.952 24.2438 192.119 24.2793 192.203C24.2957 192.242 24.31 192.26 24.3153 192.266C24.3199 192.271 24.3235 192.274 24.3291 192.276C24.3461 192.285 24.3965 192.302 24.5175 192.301C24.6431 192.3 24.7747 192.284 24.9641 192.265C25.2727 192.234 25.832 192.174 26.2798 192.518C26.7453 192.875 26.9149 193.513 26.9149 194.362C26.9146 194.661 26.6721 194.903 26.3729 194.903C26.0739 194.903 25.8313 194.661 25.831 194.362C25.831 193.586 25.6615 193.41 25.6193 193.377C25.5589 193.331 25.4399 193.305 25.0721 193.342C24.9233 193.357 24.7154 193.383 24.5238 193.385C24.3276 193.386 24.081 193.364 23.8443 193.246C23.3033 192.975 23.1214 192.385 23.1214 191.652C23.1214 191.353 23.3641 191.11 23.6633 191.11Z" fill="#5F5F6A"/>
<path d="M32.3342 191.11C32.6335 191.11 32.8761 191.353 32.8761 191.652C32.876 192.385 32.6942 192.975 32.1532 193.246C31.9165 193.364 31.6698 193.386 31.4736 193.385C31.282 193.383 31.0741 193.357 30.9254 193.342C30.5577 193.306 30.4385 193.331 30.3781 193.377C30.3354 193.41 30.1665 193.587 30.1665 194.362C30.1662 194.661 29.9237 194.903 29.6245 194.903C29.3255 194.903 29.0828 194.661 29.0826 194.362C29.0826 193.513 29.2524 192.875 29.7177 192.518C30.1654 192.174 30.7247 192.234 31.0333 192.265C31.2229 192.284 31.3544 192.3 31.48 192.301C31.6003 192.302 31.651 192.285 31.6684 192.276C31.6739 192.274 31.6777 192.271 31.6822 192.266C31.6875 192.26 31.7018 192.242 31.7182 192.203C31.7537 192.119 31.7922 191.952 31.7922 191.652C31.7922 191.353 32.035 191.11 32.3342 191.11Z" fill="#5F5F6A"/>
<path fill-rule="evenodd" clip-rule="evenodd" d="M27.9987 187.835C28.8576 187.584 29.7373 187.591 30.503 187.898C31.2028 188.178 31.779 188.696 32.1341 189.431C33.4831 189.31 34.4996 189.915 35.0375 190.837C35.5185 191.662 35.598 192.715 35.2195 193.62C36.1605 194.289 36.5379 195.287 36.4653 196.232C36.4022 197.051 35.9933 197.853 35.3201 198.336C35.8798 199.297 35.771 200.479 35.2343 201.352C34.9055 201.886 34.4043 202.33 33.7663 202.553C33.3058 202.714 32.794 202.751 32.2516 202.645C32.0116 203.604 31.2822 204.226 30.4734 204.495C29.6751 204.761 28.7155 204.709 27.9987 204.258C27.2819 204.709 26.3223 204.761 25.5241 204.495C24.7153 204.226 23.9858 203.604 23.7459 202.645C23.2036 202.751 22.6916 202.714 22.2312 202.553C21.5932 202.33 21.0919 201.886 20.7631 201.352C20.2265 200.479 20.1178 199.297 20.6774 198.336C20.0042 197.853 19.5953 197.051 19.5321 196.232C19.4596 195.287 19.8372 194.289 20.7779 193.62C20.3995 192.715 20.4791 191.662 20.96 190.837C21.4978 189.915 22.5146 189.31 23.8633 189.431C24.2184 188.696 24.7948 188.178 25.4944 187.898C26.26 187.591 27.14 187.584 27.9987 187.835ZM27.4568 188.814C26.8807 188.689 26.3408 188.725 25.8966 188.903C25.3696 189.114 24.9408 189.534 24.7196 190.198C24.633 190.457 24.3661 190.611 24.0983 190.557C22.9611 190.33 22.2482 190.779 21.8957 191.383C21.5739 191.935 21.5329 192.647 21.7941 193.237C22.5247 193.18 23.1272 193.326 23.5754 193.651C24.1045 194.036 24.3405 194.615 24.3407 195.173C24.3407 195.723 24.1134 196.281 23.6845 196.663C23.2955 197.008 22.7677 197.184 22.1677 197.104L21.9063 197.054L21.8025 197.017C21.5755 196.908 21.448 196.651 21.5115 196.397C21.5751 196.143 21.809 195.976 22.0608 195.987L22.1688 196.003L22.3042 196.03C22.607 196.072 22.8202 195.981 22.9647 195.853C23.1454 195.692 23.2569 195.437 23.2569 195.173C23.2567 194.919 23.154 194.685 22.9383 194.528C22.7266 194.374 22.3349 194.246 21.666 194.342C20.8444 194.785 20.5627 195.497 20.6128 196.149C20.6673 196.854 21.0989 197.451 21.6671 197.641C21.845 197.7 21.9795 197.848 22.0227 198.03C22.0657 198.213 22.0114 198.405 21.8787 198.538C21.2761 199.141 21.2502 200.076 21.6861 200.784C21.8991 201.13 22.2113 201.398 22.589 201.53C22.9613 201.661 23.4363 201.673 24.0041 201.446C24.171 201.379 24.3602 201.399 24.509 201.5C24.6578 201.601 24.7472 201.769 24.7472 201.949C24.7474 202.756 25.2318 203.255 25.867 203.466C26.4533 203.662 27.0698 203.579 27.4568 203.319V201.008C26.7201 201.121 25.9373 201.053 25.2679 200.748C24.3376 200.325 23.6635 199.46 23.6633 198.155C23.6633 197.856 23.906 197.613 24.2052 197.613C24.5045 197.613 24.7472 197.856 24.7472 198.155C24.7473 199.017 25.157 199.507 25.7167 199.762C26.2128 199.987 26.8498 200.029 27.4568 199.904V188.814ZM30.1008 188.903C29.6566 188.725 29.1169 188.689 28.5407 188.814V196.58C29.2774 196.467 30.0601 196.536 30.7296 196.84C31.6599 197.263 32.3341 198.129 32.3342 199.434C32.3342 199.733 32.0915 199.976 31.7922 199.976C31.4931 199.975 31.2503 199.733 31.2503 199.434C31.2502 198.571 30.8405 198.081 30.2808 197.827C29.7846 197.602 29.1477 197.559 28.5407 197.684V203.319C28.9276 203.58 29.544 203.662 30.1305 203.466C30.7658 203.255 31.2501 202.756 31.2503 201.949C31.2503 201.769 31.3398 201.601 31.4885 201.5C31.6373 201.399 31.8264 201.379 31.9933 201.446C32.5612 201.673 33.0361 201.661 33.4085 201.53C33.7862 201.398 34.0983 201.13 34.3114 200.784C34.7473 200.076 34.7216 199.141 34.1187 198.538C33.9861 198.406 33.9318 198.213 33.9748 198.03C34.018 197.848 34.1526 197.7 34.3304 197.641C34.8987 197.451 35.3301 196.855 35.3846 196.149C35.4349 195.496 35.1528 194.784 34.3294 194.341C33.6618 194.245 33.2705 194.374 33.0592 194.528C32.8435 194.685 32.7408 194.919 32.7406 195.173C32.7406 195.437 32.8522 195.692 33.0328 195.853C33.1772 195.981 33.3906 196.072 33.6932 196.03L33.8287 196.003L33.9367 195.987C34.1886 195.976 34.4223 196.143 34.486 196.397C34.5495 196.651 34.4222 196.908 34.1949 197.017L34.0912 197.054L33.8298 197.104C33.2299 197.184 32.7019 197.008 32.313 196.663C31.8843 196.281 31.6568 195.723 31.6568 195.173C31.6569 194.615 31.893 194.036 32.422 193.651C32.8702 193.325 33.4728 193.18 34.2034 193.237C34.4647 192.647 34.4237 191.935 34.1018 191.383C33.7493 190.779 33.0366 190.33 31.8991 190.557C31.6313 190.611 31.3644 190.457 31.2778 190.198C31.0566 189.534 30.628 189.114 30.1008 188.903Z" fill="#5F5F6A"/>
</svg>
