<svg width="56" height="224" viewBox="0 0 56 224" fill="none" xmlns="http://www.w3.org/2000/svg">
<path fill-rule="evenodd" clip-rule="evenodd" d="M26.3572 19H29.6428C30.7266 19 31.6008 19 32.3086 19.0578C33.0375 19.1174 33.6777 19.2432 34.27 19.545C35.2108 20.0243 35.9757 20.7892 36.455 21.73C36.7568 22.3223 36.8826 22.9625 36.9422 23.6914C37 24.3992 37 25.2734 37 26.3572V29.6429C37 30.7267 37 31.6008 36.9422 32.3086C36.8826 33.0375 36.7568 33.6777 36.455 34.27C35.9757 35.2108 35.2108 35.9757 34.27 36.455C33.6777 36.7568 33.0375 36.8826 32.3086 36.9422C31.6008 37 30.7266 37 29.6428 37H26.3571C25.2733 37 24.3992 37 23.6914 36.9422C22.9625 36.8826 22.3223 36.7568 21.73 36.455C20.7892 35.9757 20.0243 35.2108 19.545 34.27C19.2432 33.6777 19.1174 33.0375 19.0578 32.3086C19 31.6008 19 30.7266 19 29.6428V26.3572C19 25.2734 19 24.3993 19.0578 23.6914C19.1174 22.9625 19.2432 22.3223 19.545 21.73C20.0243 20.7892 20.7892 20.0243 21.73 19.545C22.3223 19.2432 22.9625 19.1174 23.6914 19.0578C24.3993 19 25.2734 19 26.3572 19ZM23 23.5C23 22.9477 23.4477 22.5 24 22.5C24.5523 22.5 25 22.9477 25 23.5C25 24.0523 24.5523 24.5 24 24.5C23.4477 24.5 23 24.0523 23 23.5ZM26 23.5C26 22.9477 26.4477 22.5 27 22.5H32C32.5523 22.5 33 22.9477 33 23.5C33 24.0523 32.5523 24.5 32 24.5H27C26.4477 24.5 26 24.0523 26 23.5Z" fill="#5F5F6A"/>
<path fill-rule="evenodd" clip-rule="evenodd" d="M26.4 76H29.6C31.8402 76 32.9603 76 33.816 76.436C34.5686 76.8195 35.1805 77.4314 35.564 78.184C36 79.0397 36 80.1598 36 82.4V82.5H20V82.4C20 80.1598 20 79.0397 20.436 78.184C20.8195 77.4314 21.4314 76.8195 22.184 76.436C23.0397 76 24.1598 76 26.4 76ZM23 79.5C23 78.9477 23.4477 78.5 24 78.5C24.5523 78.5 25 78.9477 25 79.5C25 80.0523 24.5523 80.5 24 80.5C23.4477 80.5 23 80.0523 23 79.5ZM26 79.5C26 78.9477 26.4477 78.5 27 78.5H32C32.5523 78.5 33 78.9477 33 79.5C33 80.0523 32.5523 80.5 32 80.5H27C26.4477 80.5 26 80.0523 26 79.5Z" fill="#5F5F6A"/>
<path fill-rule="evenodd" clip-rule="evenodd" d="M26.3572 75H29.6428C30.7266 75 31.6007 75 32.3086 75.0578C33.0375 75.1174 33.6777 75.2432 34.27 75.545C35.2108 76.0243 35.9757 76.7892 36.455 77.73C36.7568 78.3223 36.8826 78.9625 36.9422 79.6914C37 80.3993 37 81.2734 37 82.3572V85.6428C37 86.7266 37 87.6008 36.9422 88.3086C36.8826 89.0375 36.7568 89.6777 36.455 90.27C35.9757 91.2108 35.2108 91.9757 34.27 92.455C33.6777 92.7568 33.0375 92.8826 32.3086 92.9422C31.6008 93 30.7266 93 29.6428 93H26.3572C25.2734 93 24.3993 93 23.6914 92.9422C22.9625 92.8826 22.3223 92.7568 21.73 92.455C20.7892 91.9757 20.0243 91.2108 19.545 90.27C19.2432 89.6777 19.1174 89.0375 19.0578 88.3086C19 87.6007 19 86.7266 19 85.6428V82.3572C19 81.2734 19 80.3993 19.0578 79.6914C19.1174 78.9625 19.2432 78.3223 19.545 77.73C20.0243 76.7892 20.7892 76.0243 21.73 75.545C22.3223 75.2432 22.9625 75.1174 23.6914 75.0578C24.3993 75 25.2734 75 26.3572 75ZM23.8542 77.0512C23.2491 77.1006 22.9014 77.1928 22.638 77.327C22.0735 77.6146 21.6146 78.0735 21.327 78.638C21.1928 78.9014 21.1006 79.2491 21.0512 79.8542C21.0008 80.4711 21 81.2634 21 82.4V85.6C21 86.7366 21.0008 87.5289 21.0512 88.1458C21.1006 88.7509 21.1928 89.0986 21.327 89.362C21.6146 89.9265 22.0735 90.3854 22.638 90.673C22.9014 90.8072 23.2491 90.8994 23.8542 90.9488C24.4711 90.9992 25.2634 91 26.4 91H29.6C30.7366 91 31.5289 90.9992 32.1458 90.9488C32.7509 90.8994 33.0986 90.8072 33.362 90.673C33.9265 90.3854 34.3854 89.9265 34.673 89.362C34.8072 89.0986 34.8994 88.7509 34.9488 88.1458C34.9992 87.5289 35 86.7366 35 85.6V82.4C35 81.2634 34.9992 80.4711 34.9488 79.8542C34.8994 79.2491 34.8072 78.9014 34.673 78.638C34.3854 78.0735 33.9265 77.6146 33.362 77.327C33.0986 77.1928 32.7509 77.1006 32.1458 77.0512C31.5289 77.0008 30.7366 77 29.6 77H26.4C25.2634 77 24.4711 77.0008 23.8542 77.0512Z" fill="#5F5F6A"/>
<path d="M23 135.5C23 134.948 23.4477 134.5 24 134.5C24.5523 134.5 25 134.948 25 135.5C25 136.052 24.5523 136.5 24 136.5C23.4477 136.5 23 136.052 23 135.5Z" fill="#5F5F6A"/>
<path d="M26 135.5C26 134.948 26.4477 134.5 27 134.5H32C32.5523 134.5 33 134.948 33 135.5C33 136.052 32.5523 136.5 32 136.5H27C26.4477 136.5 26 136.052 26 135.5Z" fill="#5F5F6A"/>
<path fill-rule="evenodd" clip-rule="evenodd" d="M26.367 131.25H29.633C30.7251 131.25 31.5906 131.25 32.2883 131.307C33.0017 131.365 33.6053 131.487 34.1565 131.768C35.0502 132.223 35.7769 132.95 36.2323 133.844C36.5131 134.395 36.6347 134.998 36.693 135.712C36.75 136.409 36.75 137.275 36.75 138.367V141.633C36.75 142.725 36.75 143.591 36.693 144.288C36.6347 145.002 36.5131 145.605 36.2323 146.156C35.7769 147.05 35.0502 147.777 34.1565 148.232C33.6053 148.513 33.0017 148.635 32.2883 148.693C31.5906 148.75 30.7252 148.75 29.633 148.75H26.367C25.2748 148.75 24.4094 148.75 23.7117 148.693C22.9983 148.635 22.3947 148.513 21.8435 148.232C20.9498 147.777 20.2231 147.05 19.7677 146.156C19.4869 145.605 19.3653 145.002 19.307 144.288C19.25 143.591 19.25 142.725 19.25 141.633V138.367C19.25 137.275 19.25 136.409 19.307 135.712C19.3653 134.998 19.4869 134.395 19.7677 133.844C20.2231 132.95 20.9498 132.223 21.8435 131.768C22.3947 131.487 22.9983 131.365 23.7117 131.307C24.4094 131.25 25.2749 131.25 26.367 131.25ZM23.8339 132.802C23.2133 132.853 22.829 132.949 22.5245 133.104C21.913 133.416 21.4158 133.913 21.1042 134.525C20.9491 134.829 20.8527 135.213 20.802 135.834C20.7569 136.387 20.7509 137.074 20.7501 138H35.2499C35.2491 137.074 35.2431 136.387 35.198 135.834C35.1473 135.213 35.0509 134.829 34.8958 134.525C34.5842 133.913 34.087 133.416 33.4755 133.104C33.171 132.949 32.7867 132.853 32.1661 132.802C31.5367 132.751 30.7325 132.75 29.6 132.75H26.4C25.2675 132.75 24.4633 132.751 23.8339 132.802ZM20.75 141.6L20.75 139.5H35.25V141.6C35.25 142.732 35.2494 143.537 35.198 144.166C35.1473 144.787 35.0509 145.171 34.8958 145.475C34.5842 146.087 34.087 146.584 33.4755 146.896C33.171 147.051 32.7867 147.147 32.1661 147.198C31.5367 147.249 30.7325 147.25 29.6 147.25H26.4C25.2675 147.25 24.4633 147.249 23.8339 147.198C23.2133 147.147 22.829 147.051 22.5245 146.896C21.913 146.584 21.4158 146.087 21.1042 145.475C20.9491 145.171 20.8527 144.787 20.802 144.166C20.7506 143.537 20.75 142.732 20.75 141.6Z" fill="#5F5F6A"/>
<path d="M23 191.5C23 190.948 23.4477 190.5 24 190.5C24.5523 190.5 25 190.948 25 191.5C25 192.052 24.5523 192.5 24 192.5C23.4477 192.5 23 192.052 23 191.5Z" fill="#5F5F6A"/>
<path d="M26 191.5C26 190.948 26.4477 190.5 27 190.5H32C32.5523 190.5 33 190.948 33 191.5C33 192.052 32.5523 192.5 32 192.5H27C26.4477 192.5 26 192.052 26 191.5Z" fill="#5F5F6A"/>
<path fill-rule="evenodd" clip-rule="evenodd" d="M26.3774 187.5H29.6226C30.7236 187.5 31.5805 187.5 32.2679 187.556C32.9658 187.613 33.5329 187.731 34.043 187.99C34.8897 188.422 35.5781 189.11 36.0095 189.957C36.2694 190.467 36.3868 191.034 36.4438 191.732C36.5 192.419 36.5 193.276 36.5 194.377V197.623C36.5 198.724 36.5 199.581 36.4438 200.268C36.3868 200.966 36.2694 201.533 36.0095 202.043C35.5781 202.89 34.8897 203.578 34.043 204.01C33.5329 204.269 32.9658 204.387 32.2679 204.444C31.5805 204.5 30.7236 204.5 29.6227 204.5H26.3773C25.2764 204.5 24.4195 204.5 23.7321 204.444C23.0342 204.387 22.4671 204.269 21.957 204.01C21.1103 203.578 20.4219 202.89 19.9905 202.043C19.7306 201.533 19.6132 200.966 19.5562 200.268C19.5 199.581 19.5 198.724 19.5 197.623V194.377C19.5 193.276 19.5 192.419 19.5562 191.732C19.6132 191.034 19.7306 190.467 19.9905 189.957C20.4219 189.11 21.1103 188.422 21.957 187.99C22.4671 187.731 23.0342 187.613 23.7321 187.556C24.4195 187.5 25.2764 187.5 26.3774 187.5ZM23.8135 188.553C23.1774 188.605 22.7566 188.705 22.411 188.881C21.7525 189.217 21.217 189.752 20.8815 190.411C20.7054 190.757 20.6048 191.177 20.5528 191.814C20.4929 192.547 20.4958 193.287 20.4987 194.024C20.4994 194.183 20.5 194.341 20.5 194.5H35.5C35.5 194.341 35.5006 194.183 35.5013 194.024C35.5042 193.287 35.5071 192.547 35.4472 191.814C35.3952 191.177 35.2946 190.757 35.1185 190.411C34.783 189.752 34.2475 189.217 33.589 188.881C33.2434 188.705 32.8226 188.605 32.1865 188.553C31.5446 188.5 30.7284 188.5 29.6 188.5H26.4C25.2716 188.5 24.4554 188.5 23.8135 188.553ZM20.5 197.6V195.5H35.5V197.6C35.5 198.728 35.4996 199.545 35.4472 200.186C35.3952 200.823 35.2946 201.243 35.1185 201.589C34.783 202.248 34.2475 202.783 33.589 203.119C33.2434 203.295 32.8226 203.395 32.1865 203.447C31.5446 203.5 30.7284 203.5 29.6 203.5H26.4C25.2716 203.5 24.4554 203.5 23.8135 203.447C23.1774 203.395 22.7566 203.295 22.411 203.119C21.7525 202.783 21.217 202.248 20.8815 201.589C20.7054 201.243 20.6048 200.823 20.5528 200.186C20.5004 199.545 20.5 198.728 20.5 197.6Z" fill="#5F5F6A"/>
</svg>
