<svg width="56" height="224" viewBox="0 0 56 224" fill="none" xmlns="http://www.w3.org/2000/svg">
<path fill-rule="evenodd" clip-rule="evenodd" d="M24.8996 22.25C24.8996 20.7312 26.1308 19.5 27.6496 19.5H28.1496C29.6684 19.5 30.8996 20.7312 30.8996 22.25C30.8996 22.9404 30.34 23.5 29.6496 23.5H26.1496C25.4593 23.5 24.8996 22.9404 24.8996 22.25ZM20.8693 22.3697C21.1622 22.0768 21.637 22.0768 21.9299 22.3697L24.5737 25.0134C25.1053 24.6878 25.7305 24.5 26.3996 24.5H29.3996C30.0761 24.5 30.7078 24.6919 31.2431 25.0243L33.8977 22.3697C34.1906 22.0768 34.6655 22.0768 34.9584 22.3697C35.2513 22.6626 35.2513 23.1375 34.9584 23.4304L32.3194 26.0693C32.6429 26.5575 32.8472 27.1316 32.8908 27.75H35.2996C35.7138 27.75 36.0496 28.0858 36.0496 28.5C36.0496 28.9142 35.7138 29.25 35.2996 29.25H32.8996V29.5C32.8996 30.3165 32.7039 31.0874 32.3568 31.7681L34.9584 34.3697C35.2513 34.6626 35.2513 35.1375 34.9584 35.4304C34.6655 35.7232 34.1906 35.7232 33.8977 35.4304L31.4689 33.0015C30.6933 33.792 29.6572 34.3259 28.4996 34.4644V27.7C28.4996 27.4239 28.2757 27.2 27.9996 27.2C27.7235 27.2 27.4996 27.4239 27.4996 27.7V34.4842C26.2686 34.3868 25.1631 33.8435 24.3445 33.0158L21.9299 35.4304C21.637 35.7232 21.1622 35.7232 20.8693 35.4304C20.5764 35.1375 20.5764 34.6626 20.8693 34.3697L23.4521 31.7869C23.099 31.1016 22.8996 30.3241 22.8996 29.5V29.25H20.5996C20.1854 29.25 19.8496 28.9142 19.8496 28.5C19.8496 28.0858 20.1854 27.75 20.5996 27.75H22.9084C22.9526 27.1244 23.1611 26.5441 23.4912 26.0523L20.8693 23.4304C20.5764 23.1375 20.5764 22.6626 20.8693 22.3697Z" fill="#5F5F6A"/>
<path fill-rule="evenodd" clip-rule="evenodd" d="M28.5 90.4644V83.7C28.5 83.4239 28.2761 83.2 28 83.2C27.7239 83.2 27.5 83.4239 27.5 83.7V90.4842C27.632 90.4947 27.7654 90.5 27.9 90.5C28.1031 90.5 28.3033 90.4879 28.5 90.4644Z" fill="#5F5F6A"/>
<path d="M27.6504 75.5C26.1316 75.5 24.9004 76.7312 24.9004 78.25C24.9004 78.9404 25.46 79.5 26.1504 79.5H29.6504C30.3407 79.5 30.9004 78.9404 30.9004 78.25C30.9004 76.7312 29.6692 75.5 28.1504 75.5H27.6504Z" fill="#5F5F6A"/>
<path opacity="0.5" d="M21.9299 78.3697C21.637 78.0768 21.1622 78.0768 20.8693 78.3697C20.5764 78.6626 20.5764 79.1375 20.8693 79.4304L23.4912 82.0523C23.1611 82.5441 22.9526 83.1244 22.9084 83.75H20.5996C20.1854 83.75 19.8496 84.0858 19.8496 84.5C19.8496 84.9142 20.1854 85.25 20.5996 85.25H22.8996V85.5C22.8996 86.3241 23.099 87.1016 23.4521 87.7869L20.8693 90.3697C20.5764 90.6626 20.5764 91.1375 20.8693 91.4304C21.1622 91.7232 21.637 91.7232 21.9299 91.4304L24.3445 89.0158C25.1631 89.8435 26.2686 90.3868 27.4996 90.4842V83.7C27.4996 83.4239 27.7235 83.2 27.9996 83.2C28.2757 83.2 28.4996 83.4239 28.4996 83.7V90.4644C29.6572 90.3259 30.6933 89.792 31.4689 89.0015L33.8977 91.4304C34.1906 91.7232 34.6655 91.7232 34.9584 91.4304C35.2513 91.1375 35.2513 90.6626 34.9584 90.3697L32.3568 87.7681C32.7039 87.0874 32.8996 86.3165 32.8996 85.5V85.25H35.2996C35.7138 85.25 36.0496 84.9142 36.0496 84.5C36.0496 84.0858 35.7138 83.75 35.2996 83.75H32.8908C32.8472 83.1316 32.6429 82.5575 32.3194 82.0693L34.9584 79.4304C35.2513 79.1375 35.2513 78.6626 34.9584 78.3697C34.6655 78.0768 34.1906 78.0768 33.8977 78.3697L31.2431 81.0243C30.7078 80.6919 30.0761 80.5 29.3996 80.5H26.3996C25.7305 80.5 25.1053 80.6878 24.5737 81.0134L21.9299 78.3697Z" fill="#5F5F6A"/>
<path fill-rule="evenodd" clip-rule="evenodd" d="M27.6496 131.25C25.9928 131.25 24.6496 132.593 24.6496 134.25C24.6496 135.078 25.3212 135.75 26.1496 135.75H29.6496C30.478 135.75 31.1496 135.078 31.1496 134.25C31.1496 132.593 29.8065 131.25 28.1496 131.25H27.6496ZM26.1496 134.25C26.1496 133.422 26.8212 132.75 27.6496 132.75H28.1496C28.978 132.75 29.6496 133.422 29.6496 134.25H26.1496Z" fill="#5F5F6A"/>
<path fill-rule="evenodd" clip-rule="evenodd" d="M21.9299 134.37C21.637 134.077 21.1622 134.077 20.8693 134.37C20.5764 134.663 20.5764 135.137 20.8693 135.43L23.3112 137.872C22.9383 138.413 22.7035 139.055 22.6578 139.75H20.5996C20.1854 139.75 19.8496 140.086 19.8496 140.5C19.8496 140.914 20.1854 141.25 20.5996 141.25H22.6496V141.5C22.6496 142.394 22.873 143.235 23.2669 143.972L20.8693 146.37C20.5764 146.663 20.5764 147.137 20.8693 147.43C21.1622 147.723 21.637 147.723 21.9299 147.43L24.1677 145.193C25.1193 146.154 26.4399 146.75 27.8996 146.75C29.3666 146.75 30.693 146.148 31.6456 145.178L33.8977 147.43C34.1906 147.723 34.6655 147.723 34.9584 147.43C35.2513 147.137 35.2513 146.663 34.9584 146.37L32.5422 143.954C32.93 143.221 33.1496 142.386 33.1496 141.5V141.25H35.2996C35.7138 141.25 36.0496 140.914 36.0496 140.5C36.0496 140.086 35.7138 139.75 35.2996 139.75H33.1414C33.0962 139.063 32.8657 138.426 32.4996 137.889L34.9584 135.43C35.2513 135.137 35.2513 134.663 34.9584 134.37C34.6655 134.077 34.1906 134.077 33.8977 134.37L31.4244 136.843C30.8403 136.468 30.1454 136.25 29.3996 136.25H26.3996C25.6612 136.25 24.9726 136.463 24.3922 136.832L21.9299 134.37ZM24.9156 143.771C25.4759 144.506 26.3015 145.028 27.2496 145.194V139.7C27.2496 139.286 27.5854 138.95 27.9996 138.95C28.4138 138.95 28.7496 139.286 28.7496 139.7V145.153C30.4112 144.768 31.6496 143.279 31.6496 141.5V140C31.6496 138.757 30.6423 137.75 29.3996 137.75H26.3996C25.157 137.75 24.1496 138.757 24.1496 140V141.5C24.1496 142.247 24.3681 142.943 24.7447 143.528L24.7584 143.541C24.8267 143.61 24.8791 143.688 24.9156 143.771Z" fill="#5F5F6A"/>
<path d="M34.0742 190.547C34.2695 190.352 34.586 190.352 34.7812 190.547C34.9765 190.742 34.9765 191.059 34.7812 191.254L32.1719 193.863C32.6282 194.454 32.8994 195.196 32.8994 196H35.2998C35.5759 196 35.7998 196.224 35.7998 196.5C35.7998 196.776 35.5759 197 35.2998 197H32.8994V197.5C32.8994 198.41 32.6568 199.262 32.2324 199.997L34.7812 202.547C34.9765 202.742 34.9765 203.059 34.7812 203.254C34.586 203.449 34.2694 203.449 34.0742 203.254L31.6396 200.818C30.7237 201.85 29.3873 202.5 27.8994 202.5C26.4189 202.5 25.0883 201.857 24.1729 200.834L21.7529 203.254C21.5577 203.449 21.2411 203.449 21.0459 203.254C20.8507 203.059 20.8509 202.742 21.0459 202.547L23.5771 200.016C23.1463 199.277 22.8994 198.417 22.8994 197.5V197H20.5996C20.3235 197 20.0996 196.776 20.0996 196.5C20.0996 196.224 20.3235 196 20.5996 196H22.8994C22.8994 195.188 23.176 194.441 23.6396 193.848L21.0459 191.254C20.8507 191.059 20.8509 190.742 21.0459 190.547C21.2412 190.352 21.5577 190.352 21.7529 190.547L24.3613 193.154C24.9353 192.742 25.6391 192.5 26.3994 192.5H29.3994C30.167 192.5 30.8771 192.747 31.4541 193.166L34.0742 190.547ZM26.3994 193.5C25.0188 193.5 23.8994 194.619 23.8994 196V197.5C23.8994 198.309 24.1398 199.062 24.5527 199.691C24.5626 199.7 24.5727 199.708 24.582 199.718C24.6342 199.77 24.672 199.832 24.6963 199.896C25.3507 200.77 26.3546 201.367 27.5 201.48V195.7C27.5 195.424 27.7239 195.2 28 195.2C28.276 195.2 28.5 195.424 28.5 195.7V201.455C30.4243 201.165 31.8994 199.505 31.8994 197.5V196C31.8994 194.619 30.7801 193.5 29.3994 193.5H26.3994ZM28.1494 187.5C29.6682 187.5 30.8994 188.731 30.8994 190.25C30.8994 190.94 30.3398 191.5 29.6494 191.5H26.1494C25.4591 191.5 24.8994 190.94 24.8994 190.25C24.8994 188.731 26.1307 187.5 27.6494 187.5H28.1494ZM27.6494 188.5C26.683 188.5 25.8994 189.284 25.8994 190.25C25.8994 190.388 26.0114 190.5 26.1494 190.5H29.6494C29.7875 190.5 29.8994 190.388 29.8994 190.25C29.8994 189.284 29.1159 188.5 28.1494 188.5H27.6494Z" fill="#5F5F6A"/>
</svg>
