<svg width="56" height="168" viewBox="0 0 56 168" fill="none" xmlns="http://www.w3.org/2000/svg">
<g opacity="0.5">
<path d="M19 22C19 21.4477 19.4477 21 20 21H32C32.5523 21 33 21.4477 33 22C33 22.5523 32.5523 23 32 23H20C19.4477 23 19 22.5523 19 22Z" fill="#5F5F6A"/>
<path d="M19 34C19 33.4477 19.4477 33 20 33H32C32.5523 33 33 33.4477 33 34C33 34.5523 32.5523 35 32 35H20C19.4477 35 19 34.5523 19 34Z" fill="#5F5F6A"/>
</g>
<path d="M34.9697 24.9697C35.2626 24.6768 35.7374 24.6768 36.0303 24.9697L38.5303 27.4697C38.8232 27.7626 38.8232 28.2374 38.5303 28.5303L36.0303 31.0303C35.7374 31.3232 35.2626 31.3232 34.9697 31.0303C34.6768 30.7374 34.6768 30.2626 34.9697 29.9697L36.1893 28.75H21C20.5858 28.75 20.25 28.4142 20.25 28C20.25 27.5858 20.5858 27.25 21 27.25H36.1893L34.9697 26.0303C34.6768 25.7374 34.6768 25.2626 34.9697 24.9697Z" fill="#5F5F6A"/>
<path d="M19 78C19 77.4477 19.4477 77 20 77H32C32.5523 77 33 77.4477 33 78C33 78.5523 32.5523 79 32 79H20C19.4477 79 19 78.5523 19 78Z" fill="#5F5F6A"/>
<path d="M20.25 84C20.25 83.5858 20.5858 83.25 21 83.25H36.1893L34.9697 82.0303C34.6768 81.7374 34.6768 81.2626 34.9697 80.9697C35.2626 80.6768 35.7374 80.6768 36.0303 80.9697L38.5303 83.4697C38.8232 83.7626 38.8232 84.2374 38.5303 84.5303L36.0303 87.0303C35.7374 87.3232 35.2626 87.3232 34.9697 87.0303C34.6768 86.7374 34.6768 86.2626 34.9697 85.9697L36.1893 84.75H21C20.5858 84.75 20.25 84.4142 20.25 84Z" fill="#5F5F6A"/>
<path d="M20 89C19.4477 89 19 89.4477 19 90C19 90.5523 19.4477 91 20 91H32C32.5523 91 33 90.5523 33 90C33 89.4477 32.5523 89 32 89H20Z" fill="#5F5F6A"/>
<path d="M20 133.5C19.7239 133.5 19.5 133.724 19.5 134C19.5 134.276 19.7239 134.5 20 134.5H32C32.2761 134.5 32.5 134.276 32.5 134C32.5 133.724 32.2761 133.5 32 133.5H20Z" fill="#5F5F6A"/>
<path d="M21 139.5C20.7239 139.5 20.5 139.724 20.5 140C20.5 140.276 20.7239 140.5 21 140.5H36.7929L35.1464 142.146C34.9512 142.342 34.9512 142.658 35.1464 142.854C35.3417 143.049 35.6583 143.049 35.8536 142.854L38.3536 140.354C38.5488 140.158 38.5488 139.842 38.3536 139.646L35.8536 137.146C35.6583 136.951 35.3417 136.951 35.1464 137.146C34.9512 137.342 34.9512 137.658 35.1464 137.854L36.7929 139.5H21Z" fill="#5F5F6A"/>
<path d="M19.5 146C19.5 145.724 19.7239 145.5 20 145.5H32C32.2761 145.5 32.5 145.724 32.5 146C32.5 146.276 32.2761 146.5 32 146.5H20C19.7239 146.5 19.5 146.276 19.5 146Z" fill="#5F5F6A"/>
</svg>
