<svg width="56" height="224" viewBox="0 0 56 224" fill="none" xmlns="http://www.w3.org/2000/svg">
<path d="M28.6232 23.75C28.6232 24.4404 28.3434 25 27.9982 25C27.653 25 27.3732 24.4404 27.3732 23.75C27.3732 23.0596 27.653 22.5 27.9982 22.5C28.3434 22.5 28.6232 23.0596 28.6232 23.75Z" fill="#5F5F6A"/>
<path d="M32.3613 24.4395C32.0161 25.0374 31.494 25.3821 31.195 25.2096C30.8961 25.037 30.9336 24.4124 31.2788 23.8145C31.6239 23.2167 32.1461 22.8719 32.445 23.0445C32.744 23.2171 32.7065 23.8417 32.3613 24.4395Z" fill="#5F5F6A"/>
<path d="M24.8014 25.2096C24.5025 25.3821 23.9803 25.0374 23.6352 24.4395C23.29 23.8417 23.2525 23.2171 23.5514 23.0445C23.8504 22.8719 24.3725 23.2167 24.7177 23.8145C25.0629 24.4124 25.1004 25.037 24.8014 25.2096Z" fill="#5F5F6A"/>
<path fill-rule="evenodd" clip-rule="evenodd" d="M19.25 28.6145V26C19.25 24.0542 20.3034 22.3497 21.8931 21.1574C23.4827 19.9652 25.6443 19.25 28 19.25C30.3557 19.25 32.5173 19.9652 34.1069 21.1574C35.6966 22.3497 36.75 24.0542 36.75 26V28.6145C37.7643 28.933 38.5 29.8806 38.5 31C38.5 32.1194 37.7643 33.067 36.75 33.3855V34C36.75 35.5188 35.5188 36.75 34 36.75H22C20.4812 36.75 19.25 35.5188 19.25 34V33.3855C18.2357 33.067 17.5 32.1194 17.5 31C17.5 29.8806 18.2357 28.933 19.25 28.6145ZM20.75 26C20.75 24.6321 21.4875 23.3366 22.7931 22.3574C24.099 21.378 25.9374 20.75 28 20.75C30.0626 20.75 31.901 21.378 33.2069 22.3574C34.5125 23.3366 35.25 24.6321 35.25 26V26.25H20.75V26ZM20.75 28.25V27.75H35.25V28.25H32C31.5858 28.25 31.25 28.5858 31.25 29V30C31.25 30.4142 30.9142 30.75 30.5 30.75C30.0858 30.75 29.75 30.4142 29.75 30V29C29.75 28.5858 29.4142 28.25 29 28.25H20.75ZM20.75 33.75V34C20.75 34.6904 21.3096 35.25 22 35.25H34C34.6904 35.25 35.25 34.6904 35.25 34V33.75H20.75Z" fill="#5F5F6A"/>
<path opacity="0.5" d="M29 85H20C18.8954 85 18 85.8954 18 87C18 88.1046 18.8954 89 20 89H36C37.1046 89 38 88.1046 38 87C38 85.8954 37.1046 85 36 85H32V86C32 86.8284 31.3284 87.5 30.5 87.5C29.6716 87.5 29 86.8284 29 86V85Z" fill="#5F5F6A"/>
<path d="M28.6232 79.75C28.6232 80.4404 28.3434 81 27.9982 81C27.653 81 27.3732 80.4404 27.3732 79.75C27.3732 79.0596 27.653 78.5 27.9982 78.5C28.3434 78.5 28.6232 79.0596 28.6232 79.75Z" fill="#5F5F6A"/>
<path d="M32.3613 80.4395C32.0161 81.0374 31.494 81.3821 31.195 81.2096C30.8961 81.037 30.9336 80.4124 31.2788 79.8145C31.6239 79.2167 32.1461 78.8719 32.445 79.0445C32.744 79.2171 32.7065 79.8417 32.3613 80.4395Z" fill="#5F5F6A"/>
<path d="M24.8014 81.2096C24.5025 81.3821 23.9803 81.0374 23.6352 80.4395C23.29 79.8417 23.2525 79.2171 23.5514 79.0445C23.8504 78.8719 24.3725 79.2167 24.7177 79.8145C25.0629 80.4124 25.1004 81.037 24.8014 81.2096Z" fill="#5F5F6A"/>
<path fill-rule="evenodd" clip-rule="evenodd" d="M19.25 82V84.3535C18.0957 84.68 17.25 85.7412 17.25 87C17.25 88.2588 18.0957 89.32 19.25 89.6465V90C19.25 91.5188 20.4812 92.75 22 92.75H34C35.5188 92.75 36.75 91.5188 36.75 90V89.6465C37.9043 89.32 38.75 88.2588 38.75 87C38.75 85.7412 37.9043 84.68 36.75 84.3535V82C36.75 80.0542 35.6966 78.3497 34.1069 77.1574C32.5173 75.9652 30.3557 75.25 28 75.25C25.6443 75.25 23.4827 75.9652 21.8931 77.1574C20.3034 78.3497 19.25 80.0542 19.25 82ZM20.75 82C20.75 80.6321 21.4875 79.3366 22.7931 78.3574C24.099 77.378 25.9374 76.75 28 76.75C30.0626 76.75 31.901 77.378 33.2069 78.3574C34.5125 79.3366 35.25 80.6321 35.25 82V82.25H20.75V82ZM20.75 84.25V83.75H35.25V84.25H32C31.5858 84.25 31.25 84.5858 31.25 85V86C31.25 86.4142 30.9142 86.75 30.5 86.75C30.0858 86.75 29.75 86.4142 29.75 86V85C29.75 84.5858 29.4142 84.25 29 84.25H20.75ZM20 85.75C19.3096 85.75 18.75 86.3096 18.75 87C18.75 87.6904 19.3096 88.25 20 88.25H30.5H36C36.6904 88.25 37.25 87.6904 37.25 87C37.25 86.3096 36.6904 85.75 36 85.75H32.75V86C32.75 87.2426 31.7426 88.25 30.5 88.25C29.2574 88.25 28.25 87.2426 28.25 86V85.75H20ZM20.75 90V89.75H35.25V90C35.25 90.6904 34.6904 91.25 34 91.25H22C21.3096 91.25 20.75 90.6904 20.75 90Z" fill="#5F5F6A"/>
<path d="M28.6232 135.75C28.6232 136.44 28.3434 137 27.9982 137C27.653 137 27.3732 136.44 27.3732 135.75C27.3732 135.06 27.653 134.5 27.9982 134.5C28.3434 134.5 28.6232 135.06 28.6232 135.75Z" fill="#5F5F6A"/>
<path d="M32.3613 136.44C32.0161 137.037 31.494 137.382 31.195 137.21C30.8961 137.037 30.9336 136.412 31.2788 135.815C31.6239 135.217 32.1461 134.872 32.445 135.044C32.744 135.217 32.7065 135.842 32.3613 136.44Z" fill="#5F5F6A"/>
<path d="M24.8014 137.21C24.5025 137.382 23.9803 137.037 23.6352 136.44C23.29 135.842 23.2525 135.217 23.5514 135.044C23.8504 134.872 24.3725 135.217 24.7177 135.815C25.0629 136.412 25.1004 137.037 24.8014 137.21Z" fill="#5F5F6A"/>
<path fill-rule="evenodd" clip-rule="evenodd" d="M19.25 138V140.354C18.0957 140.68 17.25 141.741 17.25 143C17.25 144.259 18.0957 145.32 19.25 145.646V146C19.25 147.519 20.4812 148.75 22 148.75H34C35.5188 148.75 36.75 147.519 36.75 146V145.646C37.9043 145.32 38.75 144.259 38.75 143C38.75 141.741 37.9043 140.68 36.75 140.354V138C36.75 136.054 35.6966 134.35 34.1069 133.157C32.5173 131.965 30.3557 131.25 28 131.25C25.6443 131.25 23.4827 131.965 21.8931 133.157C20.3034 134.35 19.25 136.054 19.25 138ZM20.75 138C20.75 136.632 21.4875 135.337 22.7931 134.357C24.099 133.378 25.9374 132.75 28 132.75C30.0626 132.75 31.901 133.378 33.2069 134.357C34.5125 135.337 35.25 136.632 35.25 138V138.25H20.75V138ZM20.75 140.25V139.75H35.25V140.25H32C31.5858 140.25 31.25 140.586 31.25 141V142C31.25 142.414 30.9142 142.75 30.5 142.75C30.0858 142.75 29.75 142.414 29.75 142V141C29.75 140.586 29.4142 140.25 29 140.25H20.75ZM20 141.75C19.3096 141.75 18.75 142.31 18.75 143C18.75 143.69 19.3096 144.25 20 144.25H30.5H36C36.6904 144.25 37.25 143.69 37.25 143C37.25 142.31 36.6904 141.75 36 141.75H32.75V142C32.75 143.243 31.7426 144.25 30.5 144.25C29.2574 144.25 28.25 143.243 28.25 142V141.75H20ZM20.75 146V145.75H35.25V146C35.25 146.69 34.6904 147.25 34 147.25H22C21.3096 147.25 20.75 146.69 20.75 146Z" fill="#5F5F6A"/>
<path d="M28.6232 191.75C28.6232 192.44 28.3434 193 27.9982 193C27.653 193 27.3732 192.44 27.3732 191.75C27.3732 191.06 27.653 190.5 27.9982 190.5C28.3434 190.5 28.6232 191.06 28.6232 191.75Z" fill="#5F5F6A"/>
<path d="M32.3613 192.44C32.0161 193.037 31.494 193.382 31.195 193.21C30.8961 193.037 30.9336 192.412 31.2788 191.815C31.6239 191.217 32.1461 190.872 32.445 191.044C32.744 191.217 32.7065 191.842 32.3613 192.44Z" fill="#5F5F6A"/>
<path d="M24.8014 193.21C24.5025 193.382 23.9803 193.037 23.6352 192.44C23.29 191.842 23.2525 191.217 23.5514 191.044C23.8504 190.872 24.3725 191.217 24.7177 191.815C25.0629 192.412 25.1004 193.037 24.8014 193.21Z" fill="#5F5F6A"/>
<path fill-rule="evenodd" clip-rule="evenodd" d="M19.5 194V196.55C18.3589 196.782 17.5 197.791 17.5 199C17.5 200.209 18.3589 201.218 19.5 201.45V202C19.5 203.381 20.6193 204.5 22 204.5H34C35.3807 204.5 36.5 203.381 36.5 202V201.45C37.6411 201.218 38.5 200.209 38.5 199C38.5 197.791 37.6411 196.782 36.5 196.55V194C36.5 192.15 35.4993 190.514 33.9569 189.357C32.4146 188.201 30.3069 187.5 28 187.5C25.6931 187.5 23.5854 188.201 22.0431 189.357C20.5007 190.514 19.5 192.15 19.5 194ZM20.5 194C20.5 192.536 21.2901 191.172 22.6431 190.157C23.9963 189.142 25.8886 188.5 28 188.5C30.1114 188.5 32.0037 189.142 33.3569 190.157C34.7099 191.172 35.5 192.536 35.5 194V194.5H20.5V194ZM20.5 196.5V195.5H35.5V196.5H32C31.7239 196.5 31.5 196.724 31.5 197V198C31.5 198.552 31.0523 199 30.5 199C29.9477 199 29.5 198.552 29.5 198V197C29.5 196.724 29.2761 196.5 29 196.5H20.5ZM20 197.5C19.1716 197.5 18.5 198.172 18.5 199C18.5 199.828 19.1716 200.5 20 200.5H36C36.8284 200.5 37.5 199.828 37.5 199C37.5 198.172 36.8284 197.5 36 197.5H32.5V198C32.5 199.105 31.6046 200 30.5 200C29.3954 200 28.5 199.105 28.5 198V197.5H20ZM20.5 202V201.5H35.5V202C35.5 202.828 34.8284 203.5 34 203.5H22C21.1716 203.5 20.5 202.828 20.5 202Z" fill="#5F5F6A"/>
</svg>
