<svg width="56" height="224" viewBox="0 0 56 224" fill="none" xmlns="http://www.w3.org/2000/svg">
<path d="M24.25 27.5C23.5596 27.5 23 28.0596 23 28.75C23 29.4404 23.5596 30 24.25 30C24.9404 30 25.5 29.4404 25.5 28.75C25.5 28.0596 24.9404 27.5 24.25 27.5Z" fill="#5F5F6A"/>
<path d="M31.75 27.5C31.0596 27.5 30.5 28.0596 30.5 28.75C30.5 29.4404 31.0596 30 31.75 30C32.4404 30 33 29.4404 33 28.75C33 28.0596 32.4404 27.5 31.75 27.5Z" fill="#5F5F6A"/>
<path d="M26.75 28.75C26.75 28.0596 27.3096 27.5 28 27.5C28.6904 27.5 29.25 28.0596 29.25 28.75C29.25 29.4404 28.6904 30 28 30C27.3096 30 26.75 29.4404 26.75 28.75Z" fill="#5F5F6A"/>
<path d="M24.25 31.5C23.5596 31.5 23 32.0596 23 32.75C23 33.4404 23.5596 34 24.25 34C24.9404 34 25.5 33.4404 25.5 32.75C25.5 32.0596 24.9404 31.5 24.25 31.5Z" fill="#5F5F6A"/>
<path d="M26.75 32.75C26.75 32.0596 27.3096 31.5 28 31.5C28.6904 31.5 29.25 32.0596 29.25 32.75C29.25 33.4404 28.6904 34 28 34C27.3096 34 26.75 33.4404 26.75 32.75Z" fill="#5F5F6A"/>
<path d="M26.367 18.75H29.633C30.7251 18.75 31.5906 18.75 32.2883 18.807C33.0017 18.8653 33.6053 18.9869 34.1565 19.2677C35.0502 19.7231 35.7769 20.4498 36.2323 21.3435C36.5131 21.8947 36.6347 22.4983 36.693 23.2117C36.75 23.9094 36.75 24.7748 36.75 25.867V30.133C36.75 31.2252 36.75 32.0906 36.693 32.7883C36.6347 33.5017 36.5131 34.1053 36.2323 34.6565C35.7769 35.5502 35.0502 36.2769 34.1565 36.7323C33.6053 37.0131 33.0017 37.1347 32.2883 37.193C31.5906 37.25 30.7252 37.25 29.633 37.25H26.367C25.2748 37.25 24.4094 37.25 23.7117 37.193C22.9983 37.1347 22.3947 37.0131 21.8435 36.7323C20.9498 36.2769 20.2231 35.5502 19.7677 34.6565C19.4869 34.1053 19.3653 33.5017 19.307 32.7883C19.25 32.0906 19.25 31.2252 19.25 30.133V25.867C19.25 24.7749 19.25 23.9094 19.307 23.2117C19.3653 22.4983 19.4869 21.8947 19.7677 21.3435C20.2231 20.4498 20.9498 19.7231 21.8435 19.2677C22.3947 18.9869 22.9983 18.8653 23.7117 18.807C24.4094 18.75 25.2749 18.75 26.367 18.75ZM20.7501 25.5L20.75 30.1C20.75 31.2325 20.7506 32.0367 20.802 32.6661C20.8527 33.2867 20.9491 33.671 21.1042 33.9755C21.4158 34.587 21.913 35.0842 22.5245 35.3958C22.829 35.5509 23.2133 35.6473 23.8339 35.698C24.4633 35.7494 25.2675 35.75 26.4 35.75H29.6C30.7325 35.75 31.5367 35.7494 32.1661 35.698C32.7867 35.6473 33.171 35.5509 33.4755 35.3958C34.087 35.0842 34.5842 34.587 34.8958 33.9755C35.0509 33.671 35.1473 33.2867 35.198 32.6661C35.2494 32.0367 35.25 31.2325 35.25 30.1L35.2499 25.5H20.7501ZM25.5 21.75C24.9477 21.75 24.5 22.1977 24.5 22.75C24.5 23.3023 24.9477 23.75 25.5 23.75H30.5C31.0523 23.75 31.5 23.3023 31.5 22.75C31.5 22.1977 31.0523 21.75 30.5 21.75H25.5Z" fill="#5F5F6A"/>
<path d="M26.367 74.75H29.633C30.7251 74.75 31.5906 74.75 32.2883 74.807C33.0017 74.8653 33.6053 74.9869 34.1565 75.2677C35.0502 75.7231 35.7769 76.4498 36.2323 77.3435C36.5131 77.8947 36.6347 78.4983 36.693 79.2117C36.75 79.9094 36.75 80.7748 36.75 81.867V86.133C36.75 87.2252 36.75 88.0906 36.693 88.7883C36.6347 89.5017 36.5131 90.1053 36.2323 90.6565C35.7769 91.5502 35.0502 92.2769 34.1565 92.7323C33.6053 93.0131 33.0017 93.1347 32.2883 93.193C31.5906 93.25 30.7252 93.25 29.633 93.25H26.367C25.2748 93.25 24.4094 93.25 23.7117 93.193C22.9983 93.1347 22.3947 93.0131 21.8435 92.7323C20.9498 92.2769 20.2231 91.5502 19.7677 90.6565C19.4869 90.1053 19.3653 89.5017 19.307 88.7883C19.25 88.0906 19.25 87.2251 19.25 86.133V81.867C19.25 80.7749 19.25 79.9094 19.307 79.2117C19.3653 78.4983 19.4869 77.8947 19.7677 77.3435C20.2231 76.4498 20.9498 75.7231 21.8435 75.2677C22.3947 74.9869 22.9983 74.8653 23.7117 74.807C24.4094 74.75 25.2749 74.75 26.367 74.75ZM23.8339 76.302C23.2133 76.3527 22.829 76.4491 22.5245 76.6042C21.913 76.9158 21.4158 77.413 21.1042 78.0245C20.9491 78.329 20.8527 78.7133 20.802 79.3339C20.7506 79.9633 20.75 80.7675 20.75 81.9V86.1C20.75 87.2325 20.7506 88.0367 20.802 88.6661C20.8527 89.2867 20.9491 89.671 21.1042 89.9755C21.4158 90.587 21.913 91.0842 22.5245 91.3958C22.829 91.5509 23.2133 91.6473 23.8339 91.698C24.4633 91.7494 25.2675 91.75 26.4 91.75H29.6C30.7325 91.75 31.5367 91.7494 32.1661 91.698C32.7867 91.6473 33.171 91.5509 33.4755 91.3958C34.087 91.0842 34.5842 90.587 34.8958 89.9755C35.0509 89.671 35.1473 89.2867 35.198 88.6661C35.2494 88.0367 35.25 87.2325 35.25 86.1V81.9C35.25 80.7675 35.2494 79.9633 35.198 79.3339C35.1473 78.7133 35.0509 78.329 34.8958 78.0245C34.5842 77.413 34.087 76.9158 33.4755 76.6042C33.171 76.4491 32.7867 76.3527 32.1661 76.302C31.5367 76.2506 30.7325 76.25 29.6 76.25H26.4C25.2675 76.25 24.4633 76.2506 23.8339 76.302Z" fill="#5F5F6A"/>
<g opacity="0.5">
<path d="M22.5244 76.6042C22.8289 76.4491 23.2131 76.3527 23.8338 76.302C24.3845 76.257 25.0691 76.2509 25.9903 76.2501C26.1219 76.25 26.2582 76.25 26.3998 76.25C26.3997 76.25 26.3998 76.25 26.3998 76.25L29.5998 76.25C29.5997 76.25 29.5998 76.25 29.5998 76.25C29.7519 76.25 29.8982 76.25 30.0389 76.2502C30.9452 76.2511 31.6211 76.2575 32.1659 76.302C32.7865 76.3527 33.1708 76.4491 33.4752 76.6042C34.0868 76.9158 34.5839 77.413 34.8955 78.0245C35.0507 78.329 35.1471 78.7133 35.1978 79.3339C35.2429 79.8865 35.2489 80.5739 35.2496 81.5H20.75C20.7508 80.5739 20.7567 79.8865 20.8019 79.3339C20.8526 78.7133 20.949 78.329 21.1041 78.0245C21.4157 77.413 21.9129 76.9158 22.5244 76.6042ZM24.4998 78.75C24.4998 79.3023 24.9475 79.75 25.4998 79.75H30.4998C31.052 79.75 31.4998 79.3023 31.4998 78.75C31.4998 78.1977 31.0521 77.75 30.4998 77.75H25.4998C24.9475 77.75 24.4998 78.1977 24.4998 78.75Z" fill="#5F5F6A"/>
<path d="M24.2498 83.5C23.5594 83.5 22.9998 84.0596 22.9998 84.75C22.9998 85.4404 23.5594 86 24.2498 86C24.9401 86 25.4998 85.4404 25.4998 84.75C25.4998 84.0596 24.9401 83.5 24.2498 83.5Z" fill="#5F5F6A"/>
<path d="M30.4998 84.75C30.4998 84.0596 31.0594 83.5 31.7498 83.5C32.4401 83.5 32.9998 84.0596 32.9998 84.75C32.9998 85.4404 32.4401 86 31.7498 86C31.0594 86 30.4998 85.4404 30.4998 84.75Z" fill="#5F5F6A"/>
<path d="M26.7498 84.75C26.7498 84.0596 27.3094 83.5 27.9998 83.5C28.6901 83.5 29.2498 84.0596 29.2498 84.75C29.2498 85.4404 28.6901 86 27.9998 86C27.3094 86 26.7498 85.4404 26.7498 84.75Z" fill="#5F5F6A"/>
<path d="M22.9998 88.75C22.9998 88.0596 23.5594 87.5 24.2498 87.5C24.9401 87.5 25.4998 88.0596 25.4998 88.75C25.4998 89.4404 24.9401 90 24.2498 90C23.5594 90 22.9998 89.4404 22.9998 88.75Z" fill="#5F5F6A"/>
<path d="M26.7498 88.75C26.7498 88.0596 27.3094 87.5 27.9998 87.5C28.6901 87.5 29.2498 88.0596 29.2498 88.75C29.2498 89.4404 28.6901 90 27.9998 90C27.3094 90 26.7498 89.4404 26.7498 88.75Z" fill="#5F5F6A"/>
</g>
<path d="M24.5 134.5C24.5 134.224 24.7239 134 25 134H31C31.2761 134 31.5 134.224 31.5 134.5C31.5 134.776 31.2761 135 31 135H25C24.7239 135 24.5 134.776 24.5 134.5Z" fill="#5F5F6A"/>
<path d="M24 140C23.4477 140 23 140.448 23 141C23 141.552 23.4477 142 24 142C24.5523 142 25 141.552 25 141C25 140.448 24.5523 140 24 140Z" fill="#5F5F6A"/>
<path d="M32 140C31.4477 140 31 140.448 31 141C31 141.552 31.4477 142 32 142C32.5523 142 33 141.552 33 141C33 140.448 32.5523 140 32 140Z" fill="#5F5F6A"/>
<path d="M27 141C27 140.448 27.4477 140 28 140C28.5523 140 29 140.448 29 141C29 141.552 28.5523 142 28 142C27.4477 142 27 141.552 27 141Z" fill="#5F5F6A"/>
<path d="M24 144C23.4477 144 23 144.448 23 145C23 145.552 23.4477 146 24 146C24.5523 146 25 145.552 25 145C25 144.448 24.5523 144 24 144Z" fill="#5F5F6A"/>
<path d="M27 145C27 144.448 27.4477 144 28 144C28.5523 144 29 144.448 29 145C29 145.552 28.5523 146 28 146C27.4477 146 27 145.552 27 145Z" fill="#5F5F6A"/>
<path d="M29.6226 131H26.3774C25.2764 131 24.4195 131 23.7321 131.056C23.0342 131.113 22.4671 131.231 21.957 131.49C21.1103 131.922 20.4219 132.61 19.9905 133.457C19.7306 133.967 19.6132 134.534 19.5562 135.232C19.5 135.919 19.5 136.776 19.5 137.877V142.123C19.5 143.224 19.5 144.081 19.5562 144.768C19.6132 145.466 19.7306 146.033 19.9905 146.543C20.4219 147.39 21.1103 148.078 21.957 148.51C22.4671 148.769 23.0342 148.887 23.7321 148.944C24.4195 149 25.2764 149 26.3773 149H29.6226C30.7236 149 31.5805 149 32.2679 148.944C32.9658 148.887 33.5329 148.769 34.043 148.51C34.8897 148.078 35.5781 147.39 36.0095 146.543C36.2694 146.033 36.3868 145.466 36.4438 144.768C36.5 144.081 36.5 143.224 36.5 142.123V137.877C36.5 136.776 36.5 135.919 36.4438 135.232C36.3868 134.534 36.2694 133.967 36.0095 133.457C35.5781 132.61 34.8897 131.922 34.043 131.49C33.5329 131.231 32.9658 131.113 32.2679 131.056C31.5805 131 30.7236 131 29.6226 131ZM22.411 132.381C22.7566 132.205 23.1774 132.105 23.8135 132.053C24.4554 132 25.2716 132 26.4 132H29.6C30.7284 132 31.5446 132 32.1865 132.053C32.8226 132.105 33.2434 132.205 33.589 132.381C34.2475 132.717 34.783 133.252 35.1185 133.911C35.2946 134.257 35.3952 134.677 35.4472 135.314C35.4845 135.771 35.4955 136.316 35.4987 137H20.5013C20.5045 136.316 20.5155 135.771 20.5528 135.314C20.6048 134.677 20.7054 134.257 20.8815 133.911C21.217 133.252 21.7525 132.717 22.411 132.381ZM20.5 138H35.5V142.1C35.5 143.228 35.4996 144.045 35.4472 144.686C35.3952 145.323 35.2946 145.743 35.1185 146.089C34.783 146.748 34.2475 147.283 33.589 147.619C33.2434 147.795 32.8226 147.895 32.1865 147.947C31.5446 148 30.7284 148 29.6 148H26.4C25.2716 148 24.4554 148 23.8135 147.947C23.1774 147.895 22.7566 147.795 22.411 147.619C21.7525 147.283 21.217 146.748 20.8815 146.089C20.7054 145.743 20.6048 145.323 20.5528 144.686C20.5004 144.045 20.5 143.228 20.5 142.1V138Z" fill="#5F5F6A"/>
<path fill-rule="evenodd" clip-rule="evenodd" d="M24.25 134.5C24.25 134.086 24.5858 133.75 25 133.75H31C31.4142 133.75 31.75 134.086 31.75 134.5C31.75 134.914 31.4142 135.25 31 135.25H25C24.5858 135.25 24.25 134.914 24.25 134.5ZM22.75 141C22.75 140.31 23.3096 139.75 24 139.75C24.6904 139.75 25.25 140.31 25.25 141C25.25 141.69 24.6904 142.25 24 142.25C23.3096 142.25 22.75 141.69 22.75 141ZM30.75 141C30.75 140.31 31.3096 139.75 32 139.75C32.6904 139.75 33.25 140.31 33.25 141C33.25 141.69 32.6904 142.25 32 142.25C31.3096 142.25 30.75 141.69 30.75 141ZM26.75 141C26.75 140.31 27.3096 139.75 28 139.75C28.6904 139.75 29.25 140.31 29.25 141C29.25 141.69 28.6904 142.25 28 142.25C27.3096 142.25 26.75 141.69 26.75 141ZM22.75 145C22.75 144.31 23.3096 143.75 24 143.75C24.6904 143.75 25.25 144.31 25.25 145C25.25 145.69 24.6904 146.25 24 146.25C23.3096 146.25 22.75 145.69 22.75 145ZM26.75 145C26.75 144.31 27.3096 143.75 28 143.75C28.6904 143.75 29.25 144.31 29.25 145C29.25 145.69 28.6904 146.25 28 146.25C27.3096 146.25 26.75 145.69 26.75 145ZM29.6336 130.75C30.7254 130.75 31.5907 130.75 32.2883 130.807C33.0017 130.865 33.6053 130.987 34.1565 131.268C35.0502 131.723 35.7769 132.45 36.2323 133.344C36.5131 133.895 36.6347 134.498 36.693 135.212C36.75 135.909 36.75 136.775 36.75 137.866V142.134C36.75 143.225 36.75 144.091 36.693 144.788C36.6347 145.502 36.5131 146.105 36.2323 146.656C35.7769 147.55 35.0502 148.277 34.1565 148.732C33.6053 149.013 33.0017 149.135 32.2883 149.193C31.5907 149.25 30.7254 149.25 29.6336 149.25H26.3664C25.2746 149.25 24.4093 149.25 23.7117 149.193C22.9983 149.135 22.3947 149.013 21.8435 148.732C20.9498 148.277 20.2231 147.55 19.7677 146.656C19.4869 146.105 19.3653 145.502 19.307 144.788C19.25 144.091 19.25 143.225 19.25 142.134V137.866C19.25 136.775 19.25 135.909 19.307 135.212C19.3653 134.498 19.4869 133.895 19.7677 133.344C20.2231 132.45 20.9498 131.723 21.8435 131.268C22.3947 130.987 22.9983 130.865 23.7117 130.807C24.4093 130.75 25.2746 130.75 26.3665 130.75H29.6336ZM23.8339 132.302C23.2132 132.353 22.829 132.449 22.5245 132.604C21.913 132.916 21.4158 133.413 21.1042 134.025C20.9491 134.329 20.8527 134.713 20.802 135.334C20.7701 135.724 20.7577 136.184 20.7529 136.75H35.2471C35.2423 136.184 35.2299 135.724 35.198 135.334C35.1473 134.713 35.0509 134.329 34.8958 134.025C34.5842 133.413 34.087 132.916 33.4755 132.604C33.171 132.449 32.7868 132.353 32.1661 132.302C31.5367 132.251 30.7325 132.25 29.6 132.25H26.4C25.2675 132.25 24.4633 132.251 23.8339 132.302ZM35.4971 136.75C35.4923 136.181 35.4798 135.714 35.4472 135.314C35.3952 134.677 35.2946 134.257 35.1185 133.911C34.783 133.252 34.2475 132.717 33.589 132.381C33.2434 132.205 32.8226 132.105 32.1865 132.053C31.5446 132 30.7284 132 29.6 132H26.4C25.2716 132 24.4554 132 23.8135 132.053C23.1774 132.105 22.7566 132.205 22.411 132.381C21.7525 132.717 21.217 133.252 20.8815 133.911C20.7054 134.257 20.6048 134.677 20.5528 135.314C20.5202 135.714 20.5077 136.181 20.5029 136.75C20.5023 136.831 20.5017 136.915 20.5013 137H35.4987C35.4983 136.915 35.4977 136.831 35.4971 136.75ZM35.25 138.25H20.75V142.1C20.75 143.233 20.7506 144.037 20.802 144.666C20.8527 145.287 20.9491 145.671 21.1042 145.975C21.4158 146.587 21.913 147.084 22.5245 147.396C22.829 147.551 23.2132 147.647 23.8339 147.698C24.4633 147.749 25.2675 147.75 26.4 147.75H29.6C30.7325 147.75 31.5367 147.749 32.1661 147.698C32.7868 147.647 33.171 147.551 33.4755 147.396C34.087 147.084 34.5842 146.587 34.8958 145.975C35.0509 145.671 35.1473 145.287 35.198 144.666C35.2494 144.037 35.25 143.233 35.25 142.1V138.25ZM26.3774 131H29.6226C30.7236 131 31.5805 131 32.2679 131.056C32.9658 131.113 33.5329 131.231 34.043 131.49C34.8897 131.922 35.5781 132.61 36.0095 133.457C36.2694 133.967 36.3868 134.534 36.4438 135.232C36.5 135.919 36.5 136.776 36.5 137.877V142.123C36.5 143.224 36.5 144.081 36.4438 144.768C36.3868 145.466 36.2694 146.033 36.0095 146.543C35.5781 147.39 34.8897 148.078 34.043 148.51C33.5329 148.769 32.9658 148.887 32.2679 148.944C31.5805 149 30.7236 149 29.6226 149H26.3773C25.2764 149 24.4195 149 23.7321 148.944C23.0342 148.887 22.4671 148.769 21.957 148.51C21.1103 148.078 20.4219 147.39 19.9905 146.543C19.7306 146.033 19.6132 145.466 19.5562 144.768C19.5 144.081 19.5 143.224 19.5 142.123V137.877C19.5 136.776 19.5 135.919 19.5562 135.232C19.6132 134.534 19.7306 133.967 19.9905 133.457C20.4219 132.61 21.1103 131.922 21.957 131.49C22.4671 131.231 23.0342 131.113 23.7321 131.056C24.4195 131 25.2764 131 26.3774 131ZM20.5 138V142.1C20.5 143.228 20.5004 144.045 20.5528 144.686C20.6048 145.323 20.7054 145.743 20.8815 146.089C21.217 146.748 21.7525 147.283 22.411 147.619C22.7566 147.795 23.1774 147.895 23.8135 147.947C24.4554 148 25.2716 148 26.4 148H29.6C30.7284 148 31.5446 148 32.1865 147.947C32.8226 147.895 33.2434 147.795 33.589 147.619C34.2475 147.283 34.783 146.748 35.1185 146.089C35.2946 145.743 35.3952 145.323 35.4472 144.686C35.4996 144.045 35.5 143.228 35.5 142.1V138H20.5ZM24.5 134.5C24.5 134.224 24.7239 134 25 134H31C31.2761 134 31.5 134.224 31.5 134.5C31.5 134.776 31.2761 135 31 135H25C24.7239 135 24.5 134.776 24.5 134.5ZM24 140C23.4477 140 23 140.448 23 141C23 141.552 23.4477 142 24 142C24.5523 142 25 141.552 25 141C25 140.448 24.5523 140 24 140ZM31 141C31 140.448 31.4477 140 32 140C32.5523 140 33 140.448 33 141C33 141.552 32.5523 142 32 142C31.4477 142 31 141.552 31 141ZM27 141C27 140.448 27.4477 140 28 140C28.5523 140 29 140.448 29 141C29 141.552 28.5523 142 28 142C27.4477 142 27 141.552 27 141ZM23 145C23 144.448 23.4477 144 24 144C24.5523 144 25 144.448 25 145C25 145.552 24.5523 146 24 146C23.4477 146 23 145.552 23 145ZM27 145C27 144.448 27.4477 144 28 144C28.5523 144 29 144.448 29 145C29 145.552 28.5523 146 28 146C27.4477 146 27 145.552 27 145Z" fill="#5F5F6A"/>
<path d="M24.5 190.5C24.5 190.224 24.7239 190 25 190H31C31.2761 190 31.5 190.224 31.5 190.5C31.5 190.776 31.2761 191 31 191H25C24.7239 191 24.5 190.776 24.5 190.5Z" fill="#5F5F6A"/>
<path d="M24 196C23.4477 196 23 196.448 23 197C23 197.552 23.4477 198 24 198C24.5523 198 25 197.552 25 197C25 196.448 24.5523 196 24 196Z" fill="#5F5F6A"/>
<path d="M32 196C31.4477 196 31 196.448 31 197C31 197.552 31.4477 198 32 198C32.5523 198 33 197.552 33 197C33 196.448 32.5523 196 32 196Z" fill="#5F5F6A"/>
<path d="M27 197C27 196.448 27.4477 196 28 196C28.5523 196 29 196.448 29 197C29 197.552 28.5523 198 28 198C27.4477 198 27 197.552 27 197Z" fill="#5F5F6A"/>
<path d="M24 200C23.4477 200 23 200.448 23 201C23 201.552 23.4477 202 24 202C24.5523 202 25 201.552 25 201C25 200.448 24.5523 200 24 200Z" fill="#5F5F6A"/>
<path d="M27 201C27 200.448 27.4477 200 28 200C28.5523 200 29 200.448 29 201C29 201.552 28.5523 202 28 202C27.4477 202 27 201.552 27 201Z" fill="#5F5F6A"/>
<path d="M29.6226 187H26.3774C25.2764 187 24.4195 187 23.7321 187.056C23.0342 187.113 22.4671 187.231 21.957 187.49C21.1103 187.922 20.4219 188.61 19.9905 189.457C19.7306 189.967 19.6132 190.534 19.5562 191.232C19.5 191.919 19.5 192.776 19.5 193.877V198.123C19.5 199.224 19.5 200.081 19.5562 200.768C19.6132 201.466 19.7306 202.033 19.9905 202.543C20.4219 203.39 21.1103 204.078 21.957 204.51C22.4671 204.769 23.0342 204.887 23.7321 204.944C24.4195 205 25.2764 205 26.3773 205H29.6226C30.7236 205 31.5805 205 32.2679 204.944C32.9658 204.887 33.5329 204.769 34.043 204.51C34.8897 204.078 35.5781 203.39 36.0095 202.543C36.2694 202.033 36.3868 201.466 36.4438 200.768C36.5 200.081 36.5 199.224 36.5 198.123V193.877C36.5 192.776 36.5 191.919 36.4438 191.232C36.3868 190.534 36.2694 189.967 36.0095 189.457C35.5781 188.61 34.8897 187.922 34.043 187.49C33.5329 187.231 32.9658 187.113 32.2679 187.056C31.5805 187 30.7236 187 29.6226 187ZM22.411 188.381C22.7566 188.205 23.1774 188.105 23.8135 188.053C24.4554 188 25.2716 188 26.4 188H29.6C30.7284 188 31.5446 188 32.1865 188.053C32.8226 188.105 33.2434 188.205 33.589 188.381C34.2475 188.717 34.783 189.252 35.1185 189.911C35.2946 190.257 35.3952 190.677 35.4472 191.314C35.4845 191.771 35.4955 192.316 35.4987 193H20.5013C20.5045 192.316 20.5155 191.771 20.5528 191.314C20.6048 190.677 20.7054 190.257 20.8815 189.911C21.217 189.252 21.7525 188.717 22.411 188.381ZM20.5 194H35.5V198.1C35.5 199.228 35.4996 200.045 35.4472 200.686C35.3952 201.323 35.2946 201.743 35.1185 202.089C34.783 202.748 34.2475 203.283 33.589 203.619C33.2434 203.795 32.8226 203.895 32.1865 203.947C31.5446 204 30.7284 204 29.6 204H26.4C25.2716 204 24.4554 204 23.8135 203.947C23.1774 203.895 22.7566 203.795 22.411 203.619C21.7525 203.283 21.217 202.748 20.8815 202.089C20.7054 201.743 20.6048 201.323 20.5528 200.686C20.5004 200.045 20.5 199.228 20.5 198.1V194Z" fill="#5F5F6A"/>
</svg>
