<svg width="56" height="224" viewBox="0 0 56 224" fill="none" xmlns="http://www.w3.org/2000/svg">
<path d="M27.7733 27.3563C27.6091 27.4399 27.4932 27.7186 27.2614 28.2759L27.0635 28.7516C26.9954 28.9155 26.9613 28.9974 26.9064 29.0596C26.8578 29.1147 26.7977 29.1583 26.7304 29.1875C26.6542 29.2205 26.5657 29.2276 26.3888 29.2418L25.8753 29.283C25.2736 29.3312 24.9727 29.3553 24.8425 29.4857C24.7296 29.5988 24.6775 29.759 24.7024 29.9169C24.7311 30.0989 24.9603 30.2953 25.4188 30.688L25.81 31.0231C25.9448 31.1386 26.0122 31.1963 26.0544 31.2678C26.0918 31.331 26.1147 31.4016 26.1217 31.4747C26.1295 31.5573 26.1089 31.6436 26.0678 31.8163L25.9482 32.3174C25.8082 32.9046 25.7381 33.1982 25.8219 33.3622C25.8945 33.5046 26.0309 33.6037 26.1887 33.6288C26.3706 33.6577 26.6282 33.5004 27.1434 33.1857L27.583 32.9172C27.7345 32.8247 27.8102 32.7784 27.8912 32.7604C27.9629 32.7444 28.0372 32.7444 28.1088 32.7604C28.1898 32.7784 28.2656 32.8247 28.417 32.9172L28.8567 33.1857C29.3718 33.5004 29.6294 33.6577 29.8113 33.6288C29.9692 33.6037 30.1056 33.5046 30.1782 33.3622C30.2619 33.1982 30.1919 32.9046 30.0518 32.3174L29.9323 31.8163C29.8911 31.6437 29.8705 31.5573 29.8784 31.4747C29.8853 31.4016 29.9083 31.331 29.9456 31.2678C29.9878 31.1963 30.0552 31.1386 30.19 31.0231L30.5813 30.688C31.0397 30.2953 31.2689 30.0989 31.2977 29.9169C31.3226 29.759 31.2705 29.5988 31.1575 29.4857C31.0273 29.3553 30.7265 29.3312 30.1247 29.283L29.6112 29.2418C29.4343 29.2276 29.3459 29.2205 29.2697 29.1875C29.2024 29.1583 29.1423 29.1147 29.0937 29.0596C29.0388 28.9974 29.0047 28.9155 28.9365 28.7516L28.7387 28.2759C28.5069 27.7186 28.3909 27.4399 28.2268 27.3563C28.0843 27.2838 27.9158 27.2838 27.7733 27.3563Z" fill="#5F5F6A"/>
<path d="M26.367 18.75H29.633C30.7251 18.75 31.5906 18.75 32.2883 18.807C33.0017 18.8653 33.6053 18.9869 34.1565 19.2677C35.0502 19.7231 35.7769 20.4498 36.2323 21.3435C36.5131 21.8947 36.6347 22.4983 36.693 23.2117C36.75 23.9094 36.75 24.7748 36.75 25.867V30.133C36.75 31.2252 36.75 32.0906 36.693 32.7883C36.6347 33.5017 36.5131 34.1053 36.2323 34.6565C35.7769 35.5502 35.0502 36.2769 34.1565 36.7323C33.6053 37.0131 33.0017 37.1347 32.2883 37.193C31.5906 37.25 30.7252 37.25 29.633 37.25H26.367C25.2748 37.25 24.4094 37.25 23.7117 37.193C22.9983 37.1347 22.3947 37.0131 21.8435 36.7323C20.9498 36.2769 20.2231 35.5502 19.7677 34.6565C19.4869 34.1053 19.3653 33.5017 19.307 32.7883C19.25 32.0906 19.25 31.2252 19.25 30.133V25.867C19.25 24.7749 19.25 23.9094 19.307 23.2117C19.3653 22.4983 19.4869 21.8947 19.7677 21.3435C20.2231 20.4498 20.9498 19.7231 21.8435 19.2677C22.3947 18.9869 22.9983 18.8653 23.7117 18.807C24.4094 18.75 25.2749 18.75 26.367 18.75ZM20.7501 25.5L20.75 30.1C20.75 31.2325 20.7506 32.0367 20.802 32.6661C20.8527 33.2867 20.9491 33.671 21.1042 33.9755C21.4158 34.587 21.913 35.0842 22.5245 35.3958C22.829 35.5509 23.2133 35.6473 23.8339 35.698C24.4633 35.7494 25.2675 35.75 26.4 35.75H29.6C30.7325 35.75 31.5367 35.7494 32.1661 35.698C32.7867 35.6473 33.171 35.5509 33.4755 35.3958C34.087 35.0842 34.5842 34.587 34.8958 33.9755C35.0509 33.671 35.1473 33.2867 35.198 32.6661C35.2494 32.0367 35.25 31.2325 35.25 30.1L35.2499 25.5H20.7501ZM25.5 21.75C24.9477 21.75 24.5 22.1977 24.5 22.75C24.5 23.3023 24.9477 23.75 25.5 23.75H30.5C31.0523 23.75 31.5 23.3023 31.5 22.75C31.5 22.1977 31.0523 21.75 30.5 21.75H25.5Z" fill="#5F5F6A"/>
<path d="M26.367 74.75H29.633C30.7251 74.75 31.5906 74.75 32.2883 74.807C33.0017 74.8653 33.6053 74.9869 34.1565 75.2677C35.0502 75.7231 35.7769 76.4498 36.2323 77.3435C36.5131 77.8947 36.6347 78.4983 36.693 79.2117C36.75 79.9094 36.75 80.7748 36.75 81.867V86.133C36.75 87.2252 36.75 88.0906 36.693 88.7883C36.6347 89.5017 36.5131 90.1053 36.2323 90.6565C35.7769 91.5502 35.0502 92.2769 34.1565 92.7323C33.6053 93.0131 33.0017 93.1347 32.2883 93.193C31.5906 93.25 30.7252 93.25 29.633 93.25H26.367C25.2748 93.25 24.4094 93.25 23.7117 93.193C22.9983 93.1347 22.3947 93.0131 21.8435 92.7323C20.9498 92.2769 20.2231 91.5502 19.7677 90.6565C19.4869 90.1053 19.3653 89.5017 19.307 88.7883C19.25 88.0906 19.25 87.2251 19.25 86.133V81.867C19.25 80.7749 19.25 79.9094 19.307 79.2117C19.3653 78.4983 19.4869 77.8947 19.7677 77.3435C20.2231 76.4498 20.9498 75.7231 21.8435 75.2677C22.3947 74.9869 22.9983 74.8653 23.7117 74.807C24.4094 74.75 25.2749 74.75 26.367 74.75ZM23.8339 76.302C23.2133 76.3527 22.829 76.4491 22.5245 76.6042C21.913 76.9158 21.4158 77.413 21.1042 78.0245C20.9491 78.329 20.8527 78.7133 20.802 79.3339C20.7506 79.9633 20.75 80.7675 20.75 81.9V86.1C20.75 87.2325 20.7506 88.0367 20.802 88.6661C20.8527 89.2867 20.9491 89.671 21.1042 89.9755C21.4158 90.587 21.913 91.0842 22.5245 91.3958C22.829 91.5509 23.2133 91.6473 23.8339 91.698C24.4633 91.7494 25.2675 91.75 26.4 91.75H29.6C30.7325 91.75 31.5367 91.7494 32.1661 91.698C32.7867 91.6473 33.171 91.5509 33.4755 91.3958C34.087 91.0842 34.5842 90.587 34.8958 89.9755C35.0509 89.671 35.1473 89.2867 35.198 88.6661C35.2494 88.0367 35.25 87.2325 35.25 86.1V81.9C35.25 80.7675 35.2494 79.9633 35.198 79.3339C35.1473 78.7133 35.0509 78.329 34.8958 78.0245C34.5842 77.413 34.087 76.9158 33.4755 76.6042C33.171 76.4491 32.7867 76.3527 32.1661 76.302C31.5367 76.2506 30.7325 76.25 29.6 76.25H26.4C25.2675 76.25 24.4633 76.2506 23.8339 76.302Z" fill="#5F5F6A"/>
<g opacity="0.5">
<path fill-rule="evenodd" clip-rule="evenodd" d="M22.5244 76.6042C22.8289 76.4491 23.2131 76.3527 23.8338 76.302C24.4631 76.2506 25.2674 76.25 26.3999 76.25H29.5999C30.7324 76.25 31.5366 76.2506 32.166 76.302C32.7866 76.3527 33.1709 76.4491 33.4754 76.6042C34.0869 76.9158 34.5841 77.413 34.8957 78.0245C35.0508 78.329 35.1472 78.7133 35.1979 79.3339C35.243 79.8865 35.249 80.5739 35.2498 81.5H20.75C20.7508 80.5739 20.7567 79.8865 20.8019 79.3339C20.8526 78.7133 20.949 78.329 21.1041 78.0245C21.4157 77.413 21.9129 76.9158 22.5244 76.6042ZM25.4999 79.75C24.9476 79.75 24.4999 79.3023 24.4999 78.75C24.4999 78.1977 24.9476 77.75 25.4999 77.75H30.4999C31.0522 77.75 31.4999 78.1977 31.4999 78.75C31.4999 79.3023 31.0522 79.75 30.4999 79.75H25.4999Z" fill="#5F5F6A"/>
<path d="M27.2613 84.2759C27.4931 83.7186 27.609 83.4399 27.7732 83.3563C27.9156 83.2839 28.0842 83.2839 28.2266 83.3563C28.3908 83.4399 28.5067 83.7186 28.7386 84.2759L28.9364 84.7516C29.0046 84.9155 29.0386 84.9974 29.0936 85.0596C29.1421 85.1147 29.2022 85.1583 29.2696 85.1875C29.3457 85.2205 29.4342 85.2276 29.6111 85.2418L30.1246 85.283C30.7264 85.3312 31.0272 85.3553 31.1574 85.4857C31.2704 85.5988 31.3224 85.759 31.2975 85.9169C31.2688 86.0989 31.0396 86.2953 30.5811 86.688L30.1899 87.0231C30.0551 87.1386 29.9877 87.1963 29.9455 87.2678C29.9082 87.331 29.8852 87.4016 29.8783 87.4747C29.8704 87.5573 29.891 87.6436 29.9322 87.8163L30.0517 88.3174C30.1918 88.9046 30.2618 89.1982 30.1781 89.3622C30.1054 89.5046 29.9691 89.6037 29.8112 89.6288C29.6293 89.6577 29.3717 89.5004 28.8565 89.1857L28.4169 88.9172C28.2654 88.8247 28.1897 88.7784 28.1087 88.7604C28.0371 88.7444 27.9628 88.7444 27.8911 88.7604C27.8101 88.7784 27.7344 88.8247 27.5829 88.9172L27.1433 89.1857C26.6281 89.5004 26.3705 89.6577 26.1886 89.6288C26.0307 89.6037 25.8944 89.5046 25.8217 89.3622C25.738 89.1982 25.808 88.9046 25.9481 88.3174L26.0676 87.8163C26.1088 87.6436 26.1294 87.5573 26.1216 87.4747C26.1146 87.4016 26.0916 87.331 26.0543 87.2678C26.0121 87.1963 25.9447 87.1386 25.8099 87.0231L25.4187 86.688C24.9602 86.2953 24.731 86.0989 24.7023 85.9169C24.6774 85.759 24.7295 85.5988 24.8424 85.4857C24.9726 85.3553 25.2735 85.3312 25.8752 85.283L26.3887 85.2418C26.5656 85.2276 26.6541 85.2205 26.7302 85.1875C26.7976 85.1583 26.8577 85.1147 26.9063 85.0596C26.9612 84.9974 26.9953 84.9155 27.0634 84.7516L27.2613 84.2759Z" fill="#5F5F6A"/>
</g>
<path d="M24.5 134.5C24.5 134.224 24.7239 134 25 134H31C31.2761 134 31.5 134.224 31.5 134.5C31.5 134.776 31.2761 135 31 135H25C24.7239 135 24.5 134.776 24.5 134.5Z" fill="#5F5F6A"/>
<path d="M28.4535 139.161C28.1686 139.016 27.8315 139.016 27.5466 139.161C27.3143 139.279 27.1835 139.497 27.0998 139.656C27.0109 139.826 26.9169 140.052 26.8085 140.313L26.6019 140.81C26.5655 140.897 26.5466 140.942 26.5311 140.974L26.5297 140.976L26.5267 140.977C26.4918 140.982 26.4433 140.986 26.3489 140.993L25.8126 141.036C25.5312 141.059 25.287 141.078 25.0983 141.111C24.9205 141.141 24.6729 141.198 24.4888 141.382C24.2629 141.608 24.1587 141.929 24.2085 142.245C24.2491 142.502 24.4158 142.694 24.5419 142.823C24.6758 142.96 24.8618 143.119 25.0762 143.303L25.4848 143.653C25.5567 143.714 25.5935 143.746 25.6189 143.771L25.621 143.773L25.6205 143.776C25.6145 143.811 25.6034 143.858 25.5814 143.95L25.4566 144.474C25.3911 144.748 25.3342 144.986 25.3064 145.176C25.2802 145.354 25.2581 145.607 25.3765 145.84C25.5218 146.124 25.7945 146.322 26.1102 146.373C26.3676 146.414 26.6014 146.314 26.763 146.234C26.9346 146.149 27.1436 146.021 27.3845 145.874L27.8437 145.594C27.9245 145.545 27.9662 145.519 27.9973 145.503L28 145.501L28.0027 145.503C28.0339 145.519 28.0756 145.545 28.1564 145.594L28.6155 145.874C28.8564 146.021 29.0655 146.149 29.2371 146.234C29.3987 146.314 29.6325 146.414 29.8898 146.373C30.2056 146.322 30.4783 146.124 30.6236 145.84C30.742 145.607 30.7198 145.354 30.6936 145.176C30.6658 144.986 30.609 144.748 30.5435 144.474L30.4187 143.95C30.3967 143.858 30.3856 143.811 30.3795 143.776L30.379 143.773L30.3812 143.771C30.4065 143.746 30.4434 143.714 30.5153 143.653L30.9239 143.303C31.1383 143.119 31.3243 142.96 31.4582 142.823C31.5842 142.694 31.7509 142.502 31.7915 142.245C31.8414 141.929 31.7372 141.608 31.5113 141.382C31.3271 141.198 31.0796 141.141 30.9018 141.111C30.713 141.078 30.4688 141.059 30.1874 141.036L29.6512 140.993C29.5568 140.986 29.5083 140.982 29.4733 140.977L29.4703 140.976L29.469 140.974C29.4535 140.942 29.4346 140.897 29.3982 140.81L29.1916 140.313C29.0832 140.052 28.9891 139.826 28.9003 139.656C28.8166 139.497 28.6858 139.279 28.4535 139.161ZM27.723 140.718C27.8428 140.43 27.9199 140.246 27.9856 140.12C27.9907 140.111 27.9955 140.102 28 140.094C28.0045 140.102 28.0093 140.111 28.0145 140.12C28.0802 140.246 28.1573 140.43 28.277 140.718L28.4749 141.194L28.4891 141.228C28.5411 141.354 28.6064 141.513 28.7188 141.641C28.816 141.751 28.9362 141.838 29.0709 141.896C29.2267 141.964 29.3979 141.977 29.534 141.987L29.5713 141.99L30.0848 142.031C30.3955 142.056 30.5946 142.073 30.7341 142.096C30.745 142.098 30.755 142.1 30.7641 142.102C30.7578 142.109 30.7508 142.116 30.7431 142.124C30.6441 142.225 30.4927 142.355 30.256 142.558L29.8648 142.893L29.8363 142.918C29.7323 143.006 29.6015 143.117 29.5151 143.263C29.4404 143.39 29.3945 143.531 29.3806 143.677C29.3646 143.846 29.405 144.013 29.4372 144.146L29.446 144.182L29.5655 144.683C29.6378 144.987 29.6837 145.181 29.7042 145.321C29.7058 145.332 29.7072 145.342 29.7083 145.351C29.6999 145.347 29.6908 145.343 29.6809 145.338C29.554 145.275 29.3833 145.172 29.1173 145.009L28.6777 144.74L28.6458 144.721C28.5295 144.649 28.3834 144.559 28.2176 144.522C28.0743 144.49 27.9258 144.49 27.7825 144.522C27.6167 144.559 27.4705 144.649 27.3543 144.721L27.3224 144.74L26.8828 145.009C26.6167 145.172 26.4461 145.275 26.3192 145.338C26.3093 145.343 26.3001 145.347 26.2917 145.351C26.2929 145.342 26.2942 145.332 26.2958 145.321C26.3164 145.181 26.3623 144.987 26.4346 144.683L26.5541 144.182L26.5629 144.146C26.5951 144.013 26.6355 143.846 26.6194 143.677C26.6055 143.531 26.5596 143.39 26.485 143.263C26.3986 143.117 26.2678 143.006 26.1638 142.918L26.1353 142.893L25.7441 142.558C25.5073 142.355 25.356 142.225 25.257 142.124C25.2493 142.116 25.2423 142.109 25.236 142.102C25.2451 142.1 25.255 142.098 25.2659 142.096C25.4055 142.073 25.6045 142.056 25.9153 142.031L26.4288 141.99L26.4661 141.987C26.6022 141.977 26.7733 141.964 26.9292 141.896C27.0639 141.838 27.1841 141.751 27.2812 141.641C27.3937 141.513 27.459 141.354 27.5109 141.228L27.5252 141.194L27.723 140.718Z" fill="#5F5F6A"/>
<path d="M29.6226 131H26.3774C25.2764 131 24.4195 131 23.7321 131.056C23.0342 131.113 22.4671 131.231 21.957 131.49C21.1103 131.922 20.4219 132.61 19.9905 133.457C19.7306 133.967 19.6132 134.534 19.5562 135.232C19.5 135.919 19.5 136.776 19.5 137.877V142.123C19.5 143.224 19.5 144.081 19.5562 144.768C19.6132 145.466 19.7306 146.033 19.9905 146.543C20.4219 147.39 21.1103 148.078 21.957 148.51C22.4671 148.769 23.0342 148.887 23.7321 148.944C24.4195 149 25.2764 149 26.3773 149H29.6226C30.7236 149 31.5805 149 32.2679 148.944C32.9658 148.887 33.5329 148.769 34.043 148.51C34.8897 148.078 35.5781 147.39 36.0095 146.543C36.2694 146.033 36.3868 145.466 36.4438 144.768C36.5 144.081 36.5 143.224 36.5 142.123V137.877C36.5 136.776 36.5 135.919 36.4438 135.232C36.3868 134.534 36.2694 133.967 36.0095 133.457C35.5781 132.61 34.8897 131.922 34.043 131.49C33.5329 131.231 32.9658 131.113 32.2679 131.056C31.5805 131 30.7236 131 29.6226 131ZM22.411 132.381C22.7566 132.205 23.1774 132.105 23.8135 132.053C24.4554 132 25.2716 132 26.4 132H29.6C30.7284 132 31.5446 132 32.1865 132.053C32.8226 132.105 33.2434 132.205 33.589 132.381C34.2475 132.717 34.783 133.252 35.1185 133.911C35.2946 134.257 35.3952 134.677 35.4472 135.314C35.4845 135.771 35.4955 136.316 35.4987 137H20.5013C20.5045 136.316 20.5155 135.771 20.5528 135.314C20.6048 134.677 20.7054 134.257 20.8815 133.911C21.217 133.252 21.7525 132.717 22.411 132.381ZM20.5 138H35.5V142.1C35.5 143.228 35.4996 144.045 35.4472 144.686C35.3952 145.323 35.2946 145.743 35.1185 146.089C34.783 146.748 34.2475 147.283 33.589 147.619C33.2434 147.795 32.8226 147.895 32.1865 147.947C31.5446 148 30.7284 148 29.6 148H26.4C25.2716 148 24.4554 148 23.8135 147.947C23.1774 147.895 22.7566 147.795 22.411 147.619C21.7525 147.283 21.217 146.748 20.8815 146.089C20.7054 145.743 20.6048 145.323 20.5528 144.686C20.5004 144.045 20.5 143.228 20.5 142.1V138Z" fill="#5F5F6A"/>
<path fill-rule="evenodd" clip-rule="evenodd" d="M25.3221 143.843L24.906 143.486C24.6977 143.308 24.5048 143.143 24.3631 142.998C24.2326 142.864 24.0153 142.624 23.9616 142.284C23.8993 141.889 24.0295 141.488 24.3119 141.206C24.5553 140.962 24.8722 140.895 25.0564 140.864C25.2561 140.83 25.5093 140.81 25.7827 140.788L26.3289 140.744C26.3397 140.743 26.3499 140.743 26.3593 140.742C26.363 140.733 26.3669 140.724 26.3711 140.714L26.5815 140.208C26.6868 139.954 26.7843 139.72 26.8784 139.54C26.965 139.375 27.1262 139.094 27.4332 138.938C27.7894 138.757 28.2107 138.757 28.5669 138.938C28.8739 139.094 29.035 139.375 29.1217 139.54C29.2157 139.72 29.3133 139.954 29.4186 140.208L29.629 140.714C29.6332 140.724 29.6371 140.733 29.6408 140.742C29.6502 140.743 29.6603 140.743 29.6712 140.744L30.2174 140.788C30.4908 140.81 30.744 140.83 30.9437 140.864C31.1278 140.895 31.4448 140.962 31.6882 141.206C31.9706 141.488 32.1008 141.889 32.0385 142.284C31.9848 142.624 31.7675 142.864 31.6369 142.998C31.4953 143.143 31.3024 143.308 31.0941 143.486L30.6779 143.843C30.6697 143.85 30.662 143.856 30.6548 143.863C30.657 143.872 30.6593 143.882 30.6618 143.892L30.789 144.425C30.8526 144.692 30.9116 144.939 30.941 145.14C30.9681 145.324 31.0028 145.646 30.8463 145.953C30.6646 146.309 30.3238 146.557 29.9291 146.619C29.5889 146.674 29.2935 146.541 29.1261 146.458L29.2371 146.234C29.3987 146.314 29.6325 146.414 29.8898 146.373C30.2056 146.322 30.4783 146.124 30.6236 145.84C30.742 145.607 30.7198 145.354 30.6936 145.176C30.6658 144.986 30.609 144.748 30.5435 144.474L30.4187 143.95C30.3967 143.858 30.3856 143.811 30.3795 143.776L30.379 143.773L30.3812 143.771C30.4065 143.746 30.4434 143.714 30.5153 143.653L30.9239 143.303C31.1383 143.119 31.3243 142.96 31.4582 142.823C31.5842 142.694 31.7509 142.502 31.7915 142.245C31.8414 141.929 31.7372 141.608 31.5113 141.382C31.3271 141.198 31.0796 141.141 30.9018 141.111C30.713 141.078 30.4688 141.059 30.1874 141.036L29.6512 140.993C29.5568 140.986 29.5083 140.982 29.4733 140.977L29.4703 140.976L29.469 140.974C29.4535 140.942 29.4346 140.897 29.3982 140.81L29.1916 140.313C29.0832 140.052 28.9891 139.826 28.9003 139.656C28.8166 139.497 28.6858 139.279 28.4535 139.161C28.1686 139.016 27.8315 139.016 27.5466 139.161C27.3143 139.279 27.1835 139.497 27.0998 139.656C27.0109 139.826 26.9169 140.052 26.8085 140.313L26.6019 140.81C26.5655 140.897 26.5466 140.942 26.5311 140.974L26.5297 140.976L26.5267 140.977C26.4918 140.982 26.4433 140.986 26.3489 140.993L25.8126 141.036C25.5312 141.059 25.287 141.078 25.0983 141.111C24.9205 141.141 24.6729 141.198 24.4888 141.382C24.2629 141.608 24.1587 141.929 24.2085 142.245C24.2491 142.502 24.4158 142.694 24.5419 142.823C24.6758 142.96 24.8618 143.119 25.0762 143.303L25.4848 143.653C25.5567 143.714 25.5935 143.746 25.6189 143.771L25.621 143.773L25.6205 143.776C25.6145 143.811 25.6034 143.858 25.5814 143.95L25.4566 144.474C25.3911 144.748 25.3342 144.986 25.3064 145.176C25.2802 145.354 25.2581 145.607 25.3765 145.84C25.5218 146.124 25.7945 146.322 26.1102 146.373C26.3676 146.414 26.6014 146.314 26.763 146.234C26.9346 146.149 27.1436 146.021 27.3845 145.874L27.8437 145.594C27.9245 145.545 27.9662 145.519 27.9973 145.503L28 145.501L28.0027 145.503C28.0339 145.519 28.0756 145.545 28.1564 145.594L28.6155 145.874C28.8564 146.021 29.0655 146.149 29.2371 146.234L29.1261 146.458C28.9445 146.368 28.7278 146.236 28.4937 146.093L28.0261 145.807C28.0168 145.802 28.0081 145.796 28 145.791C27.9919 145.796 27.9833 145.802 27.974 145.807L27.5062 146.093C27.2722 146.236 27.0555 146.368 26.874 146.458C26.7066 146.541 26.4111 146.674 26.071 146.619C25.6763 146.557 25.3354 146.309 25.1538 145.953C24.9973 145.646 25.032 145.324 25.0591 145.14C25.0885 144.939 25.1474 144.692 25.2111 144.425L25.3382 143.892C25.3408 143.882 25.3431 143.872 25.3453 143.863C25.3381 143.856 25.3304 143.85 25.3221 143.843ZM25.6148 143.775L25.4106 143.739L25.6148 143.775ZM28.0252 140.141C28.0216 140.134 28.018 140.127 28.0145 140.12C28.0093 140.111 28.0045 140.102 28 140.094C27.9955 140.102 27.9907 140.111 27.9856 140.12C27.9821 140.127 27.9785 140.134 27.9749 140.141C27.9421 140.206 27.9062 140.285 27.8635 140.384C27.8236 140.476 27.7778 140.586 27.723 140.718L27.5252 141.194L27.5109 141.228C27.459 141.354 27.3937 141.513 27.2812 141.641C27.1841 141.751 27.0639 141.838 26.9292 141.896C26.7733 141.964 26.6022 141.977 26.4661 141.987L26.4288 141.99L25.9153 142.031C25.7732 142.043 25.6545 142.052 25.5541 142.062C25.4468 142.072 25.3604 142.081 25.289 142.093C25.2811 142.094 25.2734 142.095 25.2659 142.096C25.255 142.098 25.2451 142.1 25.236 142.102C25.2423 142.109 25.2493 142.116 25.257 142.124C25.2623 142.129 25.2678 142.135 25.2734 142.14C25.3246 142.192 25.3888 142.25 25.4697 142.321C25.5454 142.388 25.6358 142.466 25.7441 142.558L26.1353 142.893L26.1638 142.918C26.2678 143.006 26.3986 143.117 26.485 143.263C26.5596 143.39 26.6055 143.531 26.6194 143.677C26.6355 143.846 26.5951 144.013 26.5629 144.146L26.5541 144.182L26.4346 144.683C26.4015 144.822 26.374 144.938 26.3519 145.036C26.3282 145.141 26.3107 145.227 26.2994 145.298C26.2981 145.306 26.2969 145.314 26.2958 145.321C26.2942 145.332 26.2929 145.342 26.2917 145.351C26.3001 145.347 26.3093 145.343 26.3192 145.338C26.326 145.335 26.333 145.331 26.34 145.328C26.4044 145.295 26.48 145.252 26.5727 145.197C26.6594 145.145 26.7611 145.083 26.8828 145.009L27.3224 144.74L27.3543 144.721C27.4705 144.649 27.6167 144.559 27.7825 144.522C27.9258 144.49 28.0743 144.49 28.2176 144.522C28.3834 144.559 28.5295 144.649 28.6458 144.721L28.6777 144.74L29.1173 145.009C29.2389 145.083 29.3406 145.145 29.4273 145.197C29.5201 145.252 29.5956 145.295 29.66 145.328C29.6671 145.331 29.6741 145.335 29.6809 145.338C29.6908 145.343 29.6999 145.347 29.7083 145.351L29.7068 145.34L29.7042 145.321C29.7031 145.314 29.702 145.306 29.7007 145.298C29.6893 145.227 29.6719 145.141 29.6482 145.036C29.6261 144.938 29.5986 144.822 29.5655 144.683L29.446 144.182L29.4372 144.146C29.405 144.013 29.3646 143.846 29.3806 143.677C29.3945 143.531 29.4404 143.39 29.5151 143.263C29.6015 143.117 29.7323 143.006 29.8363 142.918L29.8648 142.893L30.256 142.558C30.3642 142.466 30.4546 142.388 30.5303 142.321C30.6113 142.25 30.6755 142.192 30.7266 142.14C30.7323 142.135 30.7377 142.129 30.7431 142.124C30.7508 142.116 30.7578 142.109 30.7641 142.102C30.755 142.1 30.745 142.098 30.7341 142.096C30.7266 142.095 30.719 142.094 30.7111 142.093C30.6397 142.081 30.5533 142.072 30.446 142.062C30.3456 142.052 30.2269 142.043 30.0848 142.031L29.5713 141.99L29.534 141.987C29.3979 141.977 29.2267 141.964 29.0709 141.896C28.9362 141.838 28.816 141.751 28.7188 141.641C28.6064 141.513 28.5411 141.354 28.4891 141.228L28.4749 141.194L28.277 140.718C28.2223 140.586 28.1765 140.476 28.1365 140.384C28.0939 140.285 28.0579 140.206 28.0252 140.141ZM28 140.703C27.9855 140.738 27.9701 140.775 27.9539 140.814L27.7563 141.289L27.7421 141.323L27.738 141.333C27.688 141.455 27.6092 141.647 27.4687 141.806C27.3472 141.944 27.197 142.053 27.0286 142.126C26.8338 142.21 26.6272 142.226 26.4959 142.236L26.4854 142.237L26.4488 142.239L25.9353 142.281C25.8931 142.284 25.8533 142.287 25.8156 142.29C25.8443 142.315 25.8746 142.341 25.9067 142.368L26.2975 142.703L26.3257 142.727L26.334 142.734C26.4343 142.819 26.5923 142.954 26.7002 143.136C26.7935 143.294 26.8509 143.471 26.8683 143.654C26.8884 143.865 26.8395 144.066 26.8084 144.194L26.8059 144.205L26.7973 144.24L26.6778 144.741C26.668 144.783 26.6587 144.821 26.65 144.858C26.6823 144.839 26.7164 144.818 26.7525 144.796L27.1915 144.527L27.2232 144.508L27.2324 144.502C27.3444 144.433 27.5208 144.325 27.7281 144.278C27.9072 144.238 28.0929 144.238 28.272 144.278C28.4792 144.325 28.6556 144.433 28.7677 144.502L28.7766 144.508L28.808 144.527L29.2476 144.796C29.2837 144.818 29.3178 144.839 29.3501 144.858C29.3414 144.821 29.3321 144.783 29.3223 144.741L29.2029 144.241L29.1942 144.205L29.1917 144.194C29.1606 144.066 29.1117 143.865 29.1318 143.654C29.1491 143.471 29.2065 143.294 29.2998 143.136C29.4078 142.954 29.5658 142.819 29.6661 142.734L29.6741 142.727L29.7021 142.704L30.0933 142.368C30.1255 142.341 30.1558 142.315 30.1845 142.29C30.1468 142.287 30.107 142.284 30.0648 142.281L29.5519 142.239L29.515 142.237L29.5041 142.236C29.3729 142.226 29.1662 142.21 28.9714 142.126C28.8031 142.053 28.6528 141.944 28.5314 141.806C28.3909 141.647 28.3121 141.455 28.2621 141.333L28.2581 141.324L28.244 141.29L28.0462 140.814C28.03 140.775 28.0146 140.738 28 140.703ZM29.6336 130.75C30.7254 130.75 31.5907 130.75 32.2883 130.807C33.0017 130.865 33.6053 130.987 34.1565 131.268C35.0502 131.723 35.7769 132.45 36.2323 133.344C36.5131 133.895 36.6347 134.498 36.693 135.212C36.75 135.909 36.75 136.775 36.75 137.866V142.134C36.75 143.225 36.75 144.091 36.693 144.788C36.6347 145.502 36.5131 146.105 36.2323 146.656C35.7769 147.55 35.0502 148.277 34.1565 148.732C33.6053 149.013 33.0017 149.135 32.2883 149.193C31.5907 149.25 30.7254 149.25 29.6336 149.25H26.3664C25.2746 149.25 24.4093 149.25 23.7117 149.193C22.9983 149.135 22.3947 149.013 21.8435 148.732C20.9498 148.277 20.2231 147.55 19.7677 146.656C19.4869 146.105 19.3653 145.502 19.307 144.788C19.25 144.091 19.25 143.225 19.25 142.134V137.866C19.25 136.775 19.25 135.909 19.307 135.212C19.3653 134.498 19.4869 133.895 19.7677 133.344C20.2231 132.45 20.9498 131.723 21.8435 131.268C22.3947 130.987 22.9983 130.865 23.7117 130.807C24.4093 130.75 25.2746 130.75 26.3665 130.75H29.6336ZM23.8339 132.302C23.2132 132.353 22.829 132.449 22.5245 132.604C21.913 132.916 21.4158 133.413 21.1042 134.025C20.9491 134.329 20.8527 134.713 20.802 135.334C20.7701 135.724 20.7577 136.184 20.7529 136.75H35.2471C35.2423 136.184 35.2299 135.724 35.198 135.334C35.1473 134.713 35.0509 134.329 34.8958 134.025C34.5842 133.413 34.087 132.916 33.4755 132.604C33.171 132.449 32.7868 132.353 32.1661 132.302C31.5367 132.251 30.7325 132.25 29.6 132.25H26.4C25.2675 132.25 24.4633 132.251 23.8339 132.302ZM35.4971 136.75C35.4923 136.181 35.4798 135.714 35.4472 135.314C35.3952 134.677 35.2946 134.257 35.1185 133.911C34.783 133.252 34.2475 132.717 33.589 132.381C33.2434 132.205 32.8226 132.105 32.1865 132.053C31.5446 132 30.7284 132 29.6 132H26.4C25.2716 132 24.4554 132 23.8135 132.053C23.1774 132.105 22.7566 132.205 22.411 132.381C21.7525 132.717 21.217 133.252 20.8815 133.911C20.7054 134.257 20.6048 134.677 20.5528 135.314C20.5202 135.714 20.5077 136.181 20.5029 136.75C20.5023 136.831 20.5017 136.915 20.5013 137H35.4987C35.4983 136.915 35.4977 136.831 35.4971 136.75ZM20.75 138.25V142.1C20.75 143.233 20.7506 144.037 20.802 144.666C20.8527 145.287 20.9491 145.671 21.1042 145.975C21.4158 146.587 21.913 147.084 22.5245 147.396C22.829 147.551 23.2132 147.647 23.8339 147.698C24.4633 147.749 25.2675 147.75 26.4 147.75H29.6C30.7325 147.75 31.5367 147.749 32.1661 147.698C32.7868 147.647 33.171 147.551 33.4755 147.396C34.087 147.084 34.5842 146.587 34.8958 145.975C35.0509 145.671 35.1473 145.287 35.198 144.666C35.2494 144.037 35.25 143.233 35.25 142.1V138.25H20.75ZM24.25 134.5C24.25 134.086 24.5858 133.75 25 133.75H31C31.4142 133.75 31.75 134.086 31.75 134.5C31.75 134.914 31.4142 135.25 31 135.25H25C24.5858 135.25 24.25 134.914 24.25 134.5ZM26.3774 131H29.6226C30.7236 131 31.5805 131 32.2679 131.056C32.9658 131.113 33.5329 131.231 34.043 131.49C34.8897 131.922 35.5781 132.61 36.0095 133.457C36.2694 133.967 36.3868 134.534 36.4438 135.232C36.5 135.919 36.5 136.776 36.5 137.877V142.123C36.5 143.224 36.5 144.081 36.4438 144.768C36.3868 145.466 36.2694 146.033 36.0095 146.543C35.5781 147.39 34.8897 148.078 34.043 148.51C33.5329 148.769 32.9658 148.887 32.2679 148.944C31.5805 149 30.7236 149 29.6226 149H26.3773C25.2764 149 24.4195 149 23.7321 148.944C23.0342 148.887 22.4671 148.769 21.957 148.51C21.1103 148.078 20.4219 147.39 19.9905 146.543C19.7306 146.033 19.6132 145.466 19.5562 144.768C19.5 144.081 19.5 143.224 19.5 142.123V137.877C19.5 136.776 19.5 135.919 19.5562 135.232C19.6132 134.534 19.7306 133.967 19.9905 133.457C20.4219 132.61 21.1103 131.922 21.957 131.49C22.4671 131.231 23.0342 131.113 23.7321 131.056C24.4195 131 25.2764 131 26.3774 131ZM20.5 138V142.1C20.5 143.228 20.5004 144.045 20.5528 144.686C20.6048 145.323 20.7054 145.743 20.8815 146.089C21.217 146.748 21.7525 147.283 22.411 147.619C22.7566 147.795 23.1774 147.895 23.8135 147.947C24.4554 148 25.2716 148 26.4 148H29.6C30.7284 148 31.5446 148 32.1865 147.947C32.8226 147.895 33.2434 147.795 33.589 147.619C34.2475 147.283 34.783 146.748 35.1185 146.089C35.2946 145.743 35.3952 145.323 35.4472 144.686C35.4996 144.045 35.5 143.228 35.5 142.1V138H20.5ZM24.5 134.5C24.5 134.224 24.7239 134 25 134H31C31.2761 134 31.5 134.224 31.5 134.5C31.5 134.776 31.2761 135 31 135H25C24.7239 135 24.5 134.776 24.5 134.5Z" fill="#5F5F6A"/>
<path d="M24.5 190.5C24.5 190.224 24.7239 190 25 190H31C31.2761 190 31.5 190.224 31.5 190.5C31.5 190.776 31.2761 191 31 191H25C24.7239 191 24.5 190.776 24.5 190.5Z" fill="#5F5F6A"/>
<path d="M28.4535 195.161C28.1686 195.016 27.8315 195.016 27.5466 195.161C27.3143 195.279 27.1835 195.497 27.0998 195.656C27.0109 195.826 26.9169 196.052 26.8085 196.313L26.6019 196.81C26.5655 196.897 26.5466 196.942 26.5311 196.974L26.5297 196.976L26.5267 196.977C26.4918 196.982 26.4433 196.986 26.3489 196.993L25.8126 197.036C25.5312 197.059 25.287 197.078 25.0983 197.111C24.9205 197.141 24.6729 197.198 24.4888 197.382C24.2629 197.608 24.1587 197.929 24.2085 198.245C24.2491 198.502 24.4158 198.694 24.5419 198.823C24.6758 198.96 24.8618 199.119 25.0762 199.303L25.4848 199.653C25.5567 199.714 25.5935 199.746 25.6189 199.771L25.621 199.773L25.6205 199.776C25.6145 199.811 25.6034 199.858 25.5814 199.95L25.4566 200.474C25.3911 200.748 25.3342 200.986 25.3064 201.176C25.2802 201.354 25.2581 201.607 25.3765 201.84C25.5218 202.124 25.7945 202.322 26.1102 202.373C26.3676 202.414 26.6014 202.314 26.763 202.234C26.9346 202.149 27.1436 202.021 27.3845 201.874L27.8437 201.594C27.9245 201.545 27.9662 201.519 27.9973 201.503L28 201.501L28.0027 201.503C28.0339 201.519 28.0756 201.545 28.1564 201.594L28.6155 201.874C28.8564 202.021 29.0655 202.149 29.2371 202.234C29.3987 202.314 29.6325 202.414 29.8898 202.373C30.2056 202.322 30.4783 202.124 30.6236 201.84C30.742 201.607 30.7198 201.354 30.6936 201.176C30.6658 200.986 30.609 200.748 30.5435 200.474L30.4187 199.95C30.3967 199.858 30.3856 199.811 30.3795 199.776L30.379 199.773L30.3812 199.771C30.4065 199.746 30.4434 199.714 30.5153 199.653L30.9239 199.303C31.1383 199.119 31.3243 198.96 31.4582 198.823C31.5842 198.694 31.7509 198.502 31.7915 198.245C31.8414 197.929 31.7372 197.608 31.5113 197.382C31.3271 197.198 31.0796 197.141 30.9018 197.111C30.713 197.078 30.4688 197.059 30.1874 197.036L29.6512 196.993C29.5568 196.986 29.5083 196.982 29.4733 196.977L29.4703 196.976L29.469 196.974C29.4535 196.942 29.4346 196.897 29.3982 196.81L29.1916 196.313C29.0832 196.052 28.9891 195.826 28.9003 195.656C28.8166 195.497 28.6858 195.279 28.4535 195.161ZM27.723 196.718C27.8428 196.43 27.9199 196.246 27.9856 196.12C27.9907 196.111 27.9955 196.102 28 196.094C28.0045 196.102 28.0093 196.111 28.0145 196.12C28.0802 196.246 28.1573 196.43 28.277 196.718L28.4749 197.194L28.4891 197.228C28.5411 197.354 28.6064 197.513 28.7188 197.641C28.816 197.751 28.9362 197.838 29.0709 197.896C29.2267 197.964 29.3979 197.977 29.534 197.987L29.5713 197.99L30.0848 198.031C30.3955 198.056 30.5946 198.073 30.7341 198.096C30.745 198.098 30.755 198.1 30.7641 198.102C30.7578 198.109 30.7508 198.116 30.7431 198.124C30.6441 198.225 30.4927 198.355 30.256 198.558L29.8648 198.893L29.8363 198.918C29.7323 199.006 29.6015 199.117 29.5151 199.263C29.4404 199.39 29.3945 199.531 29.3806 199.677C29.3646 199.846 29.405 200.013 29.4372 200.146L29.446 200.182L29.5655 200.683C29.6378 200.987 29.6837 201.181 29.7042 201.321C29.7058 201.332 29.7072 201.342 29.7083 201.351C29.6999 201.347 29.6908 201.343 29.6809 201.338C29.554 201.275 29.3833 201.172 29.1173 201.009L28.6777 200.74L28.6458 200.721C28.5295 200.649 28.3834 200.559 28.2176 200.522C28.0743 200.49 27.9258 200.49 27.7825 200.522C27.6167 200.559 27.4705 200.649 27.3543 200.721L27.3224 200.74L26.8828 201.009C26.6167 201.172 26.4461 201.275 26.3192 201.338C26.3093 201.343 26.3001 201.347 26.2917 201.351C26.2929 201.342 26.2942 201.332 26.2958 201.321C26.3164 201.181 26.3623 200.987 26.4346 200.683L26.5541 200.182L26.5629 200.146C26.5951 200.013 26.6355 199.846 26.6194 199.677C26.6055 199.531 26.5596 199.39 26.485 199.263C26.3986 199.117 26.2678 199.006 26.1638 198.918L26.1353 198.893L25.7441 198.558C25.5073 198.355 25.356 198.225 25.257 198.124C25.2493 198.116 25.2423 198.109 25.236 198.102C25.2451 198.1 25.255 198.098 25.2659 198.096C25.4055 198.073 25.6045 198.056 25.9153 198.031L26.4288 197.99L26.4661 197.987C26.6022 197.977 26.7733 197.964 26.9292 197.896C27.0639 197.838 27.1841 197.751 27.2812 197.641C27.3937 197.513 27.459 197.354 27.5109 197.228L27.5252 197.194L27.723 196.718Z" fill="#5F5F6A"/>
<path d="M29.6226 187H26.3774C25.2764 187 24.4195 187 23.7321 187.056C23.0342 187.113 22.4671 187.231 21.957 187.49C21.1103 187.922 20.4219 188.61 19.9905 189.457C19.7306 189.967 19.6132 190.534 19.5562 191.232C19.5 191.919 19.5 192.776 19.5 193.877V198.123C19.5 199.224 19.5 200.081 19.5562 200.768C19.6132 201.466 19.7306 202.033 19.9905 202.543C20.4219 203.39 21.1103 204.078 21.957 204.51C22.4671 204.769 23.0342 204.887 23.7321 204.944C24.4195 205 25.2764 205 26.3773 205H29.6226C30.7236 205 31.5805 205 32.2679 204.944C32.9658 204.887 33.5329 204.769 34.043 204.51C34.8897 204.078 35.5781 203.39 36.0095 202.543C36.2694 202.033 36.3868 201.466 36.4438 200.768C36.5 200.081 36.5 199.224 36.5 198.123V193.877C36.5 192.776 36.5 191.919 36.4438 191.232C36.3868 190.534 36.2694 189.967 36.0095 189.457C35.5781 188.61 34.8897 187.922 34.043 187.49C33.5329 187.231 32.9658 187.113 32.2679 187.056C31.5805 187 30.7236 187 29.6226 187ZM22.411 188.381C22.7566 188.205 23.1774 188.105 23.8135 188.053C24.4554 188 25.2716 188 26.4 188H29.6C30.7284 188 31.5446 188 32.1865 188.053C32.8226 188.105 33.2434 188.205 33.589 188.381C34.2475 188.717 34.783 189.252 35.1185 189.911C35.2946 190.257 35.3952 190.677 35.4472 191.314C35.4845 191.771 35.4955 192.316 35.4987 193H20.5013C20.5045 192.316 20.5155 191.771 20.5528 191.314C20.6048 190.677 20.7054 190.257 20.8815 189.911C21.217 189.252 21.7525 188.717 22.411 188.381ZM20.5 194H35.5V198.1C35.5 199.228 35.4996 200.045 35.4472 200.686C35.3952 201.323 35.2946 201.743 35.1185 202.089C34.783 202.748 34.2475 203.283 33.589 203.619C33.2434 203.795 32.8226 203.895 32.1865 203.947C31.5446 204 30.7284 204 29.6 204H26.4C25.2716 204 24.4554 204 23.8135 203.947C23.1774 203.895 22.7566 203.795 22.411 203.619C21.7525 203.283 21.217 202.748 20.8815 202.089C20.7054 201.743 20.6048 201.323 20.5528 200.686C20.5004 200.045 20.5 199.228 20.5 198.1V194Z" fill="#5F5F6A"/>
</svg>
