<svg width="56" height="224" viewBox="0 0 56 224" fill="none" xmlns="http://www.w3.org/2000/svg">
<path d="M19.25 24.5C19.25 23.2574 20.2574 22.25 21.5 22.25H28.75C29.9926 22.25 31 23.2574 31 24.5V31.5C31 32.7426 29.9926 33.75 28.75 33.75H21.5C20.2574 33.75 19.25 32.7426 19.25 31.5V24.5Z" fill="#5F5F6A"/>
<path d="M34.941 23.691C35.7721 23.2754 36.75 23.8798 36.75 24.809V31.191C36.75 32.1202 35.7721 32.7245 34.941 32.309L32.1646 30.9208C31.9105 30.7937 31.75 30.534 31.75 30.25V25.75C31.75 25.4659 31.9105 25.2062 32.1646 25.0791L34.941 23.691Z" fill="#5F5F6A"/>
<path opacity="0.5" d="M31 85.5L35.2764 87.6382C35.6088 87.8044 36 87.5627 36 87.191V80.809C36 80.4373 35.6088 80.1956 35.2764 80.3618L31 82.5V85.5Z" fill="#5F5F6A"/>
<path fill-rule="evenodd" clip-rule="evenodd" d="M21.5 78.25C20.2574 78.25 19.25 79.2574 19.25 80.5V87.5C19.25 88.7426 20.2574 89.75 21.5 89.75H29.5C30.7426 89.75 31.75 88.7426 31.75 87.5V86.7135L34.941 88.309C35.7721 88.7245 36.75 88.1202 36.75 87.191V80.809C36.75 79.8798 35.7721 79.2754 34.941 79.691L31.75 81.2864V80.5C31.75 79.2574 30.7426 78.25 29.5 78.25H21.5ZM31.75 82.9635V85.0364L35.25 86.7864V81.2135L31.75 82.9635ZM30.25 80.5C30.25 80.0858 29.9142 79.75 29.5 79.75H21.5C21.0858 79.75 20.75 80.0858 20.75 80.5V87.5C20.75 87.9142 21.0858 88.25 21.5 88.25H29.5C29.9142 88.25 30.25 87.9142 30.25 87.5V80.5Z" fill="#5F5F6A"/>
<path fill-rule="evenodd" clip-rule="evenodd" d="M21.5 134.25C20.2574 134.25 19.25 135.257 19.25 136.5V143.5C19.25 144.743 20.2574 145.75 21.5 145.75H29.5C30.7426 145.75 31.75 144.743 31.75 143.5V142.713L34.941 144.309C35.7721 144.725 36.75 144.12 36.75 143.191V136.809C36.75 135.88 35.7721 135.275 34.941 135.691L31.75 137.286V136.5C31.75 135.257 30.7426 134.25 29.5 134.25H21.5ZM31.75 138.963V141.036L35.25 142.786V137.213L31.75 138.963ZM30.25 136.5C30.25 136.086 29.9142 135.75 29.5 135.75H21.5C21.0858 135.75 20.75 136.086 20.75 136.5V143.5C20.75 143.914 21.0858 144.25 21.5 144.25H29.5C29.9142 144.25 30.25 143.914 30.25 143.5V136.5Z" fill="#5F5F6A"/>
<path fill-rule="evenodd" clip-rule="evenodd" d="M21.5 190.5C20.3954 190.5 19.5 191.395 19.5 192.5V199.5C19.5 200.605 20.3954 201.5 21.5 201.5H29.5C30.6046 201.5 31.5 200.605 31.5 199.5V198.309L35.0528 200.085C35.7177 200.418 36.5 199.934 36.5 199.191V192.809C36.5 192.066 35.7177 191.582 35.0528 191.915L31.5 193.691V192.5C31.5 191.395 30.6046 190.5 29.5 190.5H21.5ZM31.5 194.809V197.191L35.5 199.191V192.809L31.5 194.809ZM30.5 192.5C30.5 191.948 30.0523 191.5 29.5 191.5H21.5C20.9477 191.5 20.5 191.948 20.5 192.5V199.5C20.5 200.052 20.9477 200.5 21.5 200.5H29.5C30.0523 200.5 30.5 200.052 30.5 199.5V192.5Z" fill="#5F5F6A"/>
</svg>
