<svg width="56" height="224" viewBox="0 0 56 224" fill="none" xmlns="http://www.w3.org/2000/svg">
<circle cx="28" cy="26" r="6.5" fill="#5F5F6A" stroke="#71717A" stroke-width="1.5" stroke-linecap="round" stroke-linejoin="round"/>
<circle cx="28" cy="26" r="4" fill="#5F5F6A" stroke="#71717A" stroke-width="1.5" stroke-linecap="round" stroke-linejoin="round"/>
<path d="M23.1304 32.9683C22.5513 33.7389 21.7838 34.4853 21.1535 35.0447C20.7942 35.3637 21.0186 36 21.4991 36H34.4991C34.9796 36 35.2041 35.3637 34.8447 35.0447C34.2145 34.4853 33.4469 33.7389 32.8679 32.9683" stroke="#71717A" stroke-width="1.5" stroke-linecap="round" stroke-linejoin="round"/>
<circle cx="28" cy="82" r="6.5" fill="#5F5F6A" stroke="#71717A" stroke-width="1.5" stroke-linecap="round" stroke-linejoin="round"/>
<circle opacity="0.5" cx="28" cy="82" r="4" fill="#5F5F6A"/>
<circle cx="28" cy="82" r="4" fill="#5F5F6A" stroke="#71717A" stroke-width="1.5" stroke-linecap="round" stroke-linejoin="round"/>
<path d="M23.1304 88.9683C22.5513 89.7389 21.7838 90.4853 21.1535 91.0447C20.7942 91.3637 21.0186 92 21.4991 92H34.4991C34.9796 92 35.2041 91.3637 34.8447 91.0447C34.2145 90.4853 33.4469 89.7389 32.8679 88.9683" stroke="#71717A" stroke-width="1.5" stroke-linecap="round" stroke-linejoin="round"/>
<circle cx="28" cy="138" r="6.5" fill="#5F5F6A" stroke="#71717A" stroke-width="1.5" stroke-linecap="round" stroke-linejoin="round"/>
<path d="M28 134C30.2091 134 32 135.791 32 138C32 140.209 30.2091 142 28 142C25.7909 142 24 140.209 24 138C24 135.791 25.7909 134 28 134Z" fill="#5F5F6A"/>
<path d="M28 134V134.75C29.7949 134.75 31.25 136.205 31.25 138H32H32.75C32.75 135.377 30.6234 133.25 28 133.25V134ZM32 138H31.25C31.25 139.795 29.7949 141.25 28 141.25V142V142.75C30.6234 142.75 32.75 140.623 32.75 138H32ZM28 142V141.25C26.2051 141.25 24.75 139.795 24.75 138H24H23.25C23.25 140.623 25.3766 142.75 28 142.75V142ZM24 138H24.75C24.75 136.205 26.2051 134.75 28 134.75V134V133.25C25.3766 133.25 23.25 135.377 23.25 138H24Z" fill="#71717A"/>
<path d="M23.1304 144.968C22.5513 145.739 21.7838 146.485 21.1535 147.045C20.7942 147.364 21.0186 148 21.4991 148H34.4991C34.9796 148 35.2041 147.364 34.8447 147.045C34.2145 146.485 33.4469 145.739 32.8679 144.968" stroke="#71717A" stroke-width="1.5" stroke-linecap="round" stroke-linejoin="round"/>
<circle cx="28" cy="194" r="6.5" fill="#5F5F6A" stroke="#71717A" stroke-linecap="round" stroke-linejoin="round"/>
<path d="M28 190C30.2091 190 32 191.791 32 194C32 196.209 30.2091 198 28 198C25.7909 198 24 196.209 24 194C24 191.791 25.7909 190 28 190Z" fill="#5F5F6A"/>
<path d="M28 190V190.5C29.933 190.5 31.5 192.067 31.5 194H32H32.5C32.5 191.515 30.4853 189.5 28 189.5V190ZM32 194H31.5C31.5 195.933 29.933 197.5 28 197.5V198V198.5C30.4853 198.5 32.5 196.485 32.5 194H32ZM28 198V197.5C26.067 197.5 24.5 195.933 24.5 194H24H23.5C23.5 196.485 25.5147 198.5 28 198.5V198ZM24 194H24.5C24.5 192.067 26.067 190.5 28 190.5V190V189.5C25.5147 189.5 23.5 191.515 23.5 194H24Z" fill="#71717A"/>
<path d="M23.1304 200.968C22.5513 201.739 21.7838 202.485 21.1535 203.045C20.7942 203.364 21.0186 204 21.4991 204H34.4991C34.9796 204 35.2041 203.364 34.8447 203.045C34.2145 202.485 33.4469 201.739 32.8679 200.968" stroke="#71717A" stroke-linecap="round" stroke-linejoin="round"/>
</svg>
