<svg width="56" height="168" viewBox="0 0 56 168" fill="none" xmlns="http://www.w3.org/2000/svg">
<path d="M30.2273 28.6398L26.5909 31.8386C26.1414 32.234 25.5 31.8578 25.5 31.1988V24.8012C25.5 24.1422 26.1414 23.766 26.5909 24.1614L30.2273 27.3602C30.5909 27.6801 30.5909 28.3199 30.2273 28.6398Z" fill="#5F5F6A"/>
<path d="M30.2273 84.6398L26.5909 87.8386C26.1414 88.234 25.5 87.8578 25.5 87.1988V80.8012C25.5 80.1422 26.1414 79.766 26.5909 80.1614L30.2273 83.3602C30.5909 83.6801 30.5909 84.3199 30.2273 84.6398Z" fill="#5F5F6A"/>
<path d="M30.2273 140.64L26.5909 143.839C26.1414 144.234 25.5 143.858 25.5 143.199V136.801C25.5 136.142 26.1414 135.766 26.5909 136.161L30.2273 139.36C30.5909 139.68 30.5909 140.32 30.2273 140.64Z" fill="#5F5F6A"/>
</svg>
