<svg width="56" height="168" viewBox="0 0 56 168" fill="none" xmlns="http://www.w3.org/2000/svg">
<path d="M27.3602 25.7727L24.1614 29.4091C23.766 29.8586 24.1422 30.5 24.8012 30.5H31.1988C31.8578 30.5 32.234 29.8586 31.8386 29.4091L28.6398 25.7727C28.3199 25.4091 27.6801 25.4091 27.3602 25.7727Z" fill="#5F5F6A"/>
<path d="M27.3602 81.7727L24.1614 85.4091C23.766 85.8586 24.1422 86.5 24.8012 86.5H31.1988C31.8578 86.5 32.234 85.8586 31.8386 85.4091L28.6398 81.7727C28.3199 81.4091 27.6801 81.4091 27.3602 81.7727Z" fill="#5F5F6A"/>
<path d="M27.3602 137.773L24.1614 141.409C23.766 141.859 24.1422 142.5 24.8012 142.5H31.1988C31.8578 142.5 32.234 141.859 31.8386 141.409L28.6398 137.773C28.3199 137.409 27.6801 137.409 27.3602 137.773Z" fill="#5F5F6A"/>
</svg>
