<svg width="56" height="224" viewBox="0 0 56 224" fill="none" xmlns="http://www.w3.org/2000/svg">
<path fill-rule="evenodd" clip-rule="evenodd" d="M25.5 21C26.1904 21 26.75 20.4404 26.75 19.75C26.75 19.0596 26.1904 18.5 25.5 18.5C24.8096 18.5 24.25 19.0596 24.25 19.75C24.25 20.4404 24.8096 21 25.5 21ZM31.5 21.55C31.5 22.5165 30.7165 23.3 29.75 23.3C28.7835 23.3 28 22.5165 28 21.55C28 20.5835 28.7835 19.8 29.75 19.8C30.7165 19.8 31.5 20.5835 31.5 21.55ZM20.5 24.8C19.9477 24.8 19.5 25.2477 19.5 25.8V26.05C19.5 26.6023 19.9477 27.05 20.5 27.05H21.1058C19.265 30.1189 19.3273 32.9229 20.75 34.925V37.125C20.75 37.6082 21.1418 38 21.625 38C22.1082 38 22.5 37.6082 22.5 37.125V36.5729C23.9067 37.4795 25.7853 38 28 38C30.2147 38 32.0933 37.4795 33.5 36.5729V37.125C33.5 37.6082 33.8918 38 34.375 38C34.8582 38 35.25 37.6082 35.25 37.125V34.925C36.6728 32.9229 36.735 30.1189 34.8942 27.05H35.5C36.0523 27.05 36.5 26.6023 36.5 26.05V25.8C36.5 25.2477 36.0523 24.8 35.5 24.8H20.5Z" fill="#5F5F6A"/>
<path opacity="0.5" d="M29.75 75.7998C30.7164 75.7998 31.4999 76.5834 31.5 77.5498C31.5 78.5163 30.7165 79.2998 29.75 79.2998C28.7835 79.2998 28 78.5163 28 77.5498C28.0001 76.5834 28.7836 75.7998 29.75 75.7998ZM25.5 74.5C26.1904 74.5 26.75 75.0596 26.75 75.75C26.75 76.4404 26.1904 77 25.5 77C24.8096 77 24.25 76.4404 24.25 75.75C24.25 75.0596 24.8096 74.5 25.5 74.5Z" fill="#5F5F6A"/>
<path d="M35.5 80.8C36.0523 80.8 36.5 81.2477 36.5 81.8V82.05C36.5 82.6023 36.0523 83.05 35.5 83.05H34.8945C36.7352 86.1189 36.6727 88.9229 35.25 90.925V93.1252C35.2499 93.6083 34.8582 94.0002 34.375 94.0002C33.8918 94.0002 33.5001 93.6083 33.5 93.1252V92.5724C32.0933 93.4791 30.2147 94.0002 28 94.0002C25.7853 94.0002 23.9067 93.4791 22.5 92.5724V93.1252C22.4999 93.6083 22.1082 94.0002 21.625 94.0002C21.1418 94.0002 20.7501 93.6083 20.75 93.1252V90.925C19.3273 88.9229 19.2648 86.1189 21.1055 83.05H20.5C19.9477 83.05 19.5 82.6023 19.5 82.05V81.8C19.5 81.2477 19.9477 80.8 20.5 80.8H23.25V85.8C23.25 86.3523 23.6977 86.8 24.25 86.8H24.5C25.0523 86.8 25.5 86.3523 25.5 85.8V80.8H35.5Z" fill="#5F5F6A"/>
<path opacity="0.5" d="M25.5 80.8L25.5 85.8C25.5 86.3523 25.0523 86.8 24.5 86.8H24.25C23.6977 86.8 23.25 86.3523 23.25 85.8L23.25 80.8L25.5 80.8Z" fill="#5F5F6A"/>
<path fill-rule="evenodd" clip-rule="evenodd" d="M26.75 131.75C26.75 132.44 26.1904 133 25.5 133C24.8096 133 24.25 132.44 24.25 131.75C24.25 131.06 24.8096 130.5 25.5 130.5C26.1904 130.5 26.75 131.06 26.75 131.75ZM29.75 135.3C30.7165 135.3 31.5 134.516 31.5 133.55C31.5 132.583 30.7165 131.8 29.75 131.8C28.7835 131.8 28 132.583 28 133.55C28 134.516 28.7835 135.3 29.75 135.3ZM20.25 137.8C20.25 137.662 20.3619 137.55 20.5 137.55H35.5C35.6381 137.55 35.75 137.662 35.75 137.8V138.05C35.75 138.188 35.6381 138.3 35.5 138.3H33.5698L34.2511 139.436C35.937 142.246 35.8495 144.664 34.733 146.353C33.5975 148.07 31.2574 149.25 28 149.25C24.7426 149.25 22.4025 148.07 21.267 146.353C20.1505 144.664 20.063 142.246 21.7489 139.436L22.4302 138.3H20.5C20.3619 138.3 20.25 138.188 20.25 138.05V137.8ZM20.5 136.05C19.5335 136.05 18.75 136.833 18.75 137.8V138.05C18.75 138.808 19.2318 139.453 19.9058 139.697C18.568 142.49 18.6656 145.138 20.0158 147.18C20.2321 147.507 20.4777 147.814 20.7503 148.1C20.7501 148.109 20.75 148.117 20.75 148.125V149.375C20.75 149.858 21.1418 150.25 21.625 150.25C22.0839 150.25 22.4602 149.897 22.497 149.447C23.9909 150.292 25.8747 150.75 28 150.75C30.1253 150.75 32.0091 150.292 33.503 149.447C33.5398 149.897 33.9161 150.25 34.375 150.25C34.8582 150.25 35.25 149.858 35.25 149.375V148.125C35.25 148.117 35.2499 148.109 35.2497 148.1C35.5223 147.814 35.7679 147.507 35.9842 147.18C37.3344 145.138 37.432 142.49 36.0942 139.697C36.7682 139.453 37.25 138.808 37.25 138.05V137.8C37.25 136.833 36.4665 136.05 35.5 136.05H20.5Z" fill="#5F5F6A"/>
<path fill-rule="evenodd" clip-rule="evenodd" d="M25.75 187.75C25.75 187.888 25.6381 188 25.5 188C25.3619 188 25.25 187.888 25.25 187.75C25.25 187.612 25.3619 187.5 25.5 187.5C25.6381 187.5 25.75 187.612 25.75 187.75ZM26.75 187.75C26.75 188.44 26.1904 189 25.5 189C24.8096 189 24.25 188.44 24.25 187.75C24.25 187.06 24.8096 186.5 25.5 186.5C26.1904 186.5 26.75 187.06 26.75 187.75ZM29.75 190.3C30.1642 190.3 30.5 189.964 30.5 189.55C30.5 189.136 30.1642 188.8 29.75 188.8C29.3358 188.8 29 189.136 29 189.55C29 189.964 29.3358 190.3 29.75 190.3ZM29.75 191.3C30.7165 191.3 31.5 190.516 31.5 189.55C31.5 188.583 30.7165 187.8 29.75 187.8C28.7835 187.8 28 188.583 28 189.55C28 190.516 28.7835 191.3 29.75 191.3ZM20.5 193.3C20.2239 193.3 20 193.524 20 193.8V194.05C20 194.326 20.2239 194.55 20.5 194.55H21.9887L21.5345 195.307C19.7674 198.253 19.8789 200.836 21.1576 202.635L21.25 202.765V205.125C21.25 205.332 21.4179 205.5 21.625 205.5C21.8321 205.5 22 205.332 22 205.125V203.656L22.7709 204.153C24.0812 204.997 25.8609 205.5 28 205.5C30.1391 205.5 31.9188 204.997 33.2291 204.153L34 203.656V205.125C34 205.332 34.1679 205.5 34.375 205.5C34.5821 205.5 34.75 205.332 34.75 205.125V202.765L34.8424 202.635C36.1211 200.836 36.2326 198.253 34.4655 195.307L34.0113 194.55H35.5C35.7761 194.55 36 194.326 36 194.05V193.8C36 193.524 35.7761 193.3 35.5 193.3H20.5ZM19 193.8C19 192.972 19.6716 192.3 20.5 192.3H35.5C36.3284 192.3 37 192.972 37 193.8V194.05C37 194.799 36.4511 195.42 35.7337 195.532C37.1936 198.385 37.1075 201.062 35.75 203.081V205.125C35.75 205.884 35.1344 206.5 34.375 206.5C33.7154 206.5 33.1643 206.036 33.0308 205.416C31.641 206.117 29.9318 206.5 28 206.5C26.0682 206.5 24.359 206.117 22.9692 205.416C22.8357 206.036 22.2846 206.5 21.625 206.5C20.8656 206.5 20.25 205.884 20.25 205.125V203.081C18.8925 201.062 18.8064 198.385 20.2663 195.532C19.5489 195.42 19 194.799 19 194.05V193.8Z" fill="#5F5F6A"/>
</svg>
