<svg width="56" height="224" viewBox="0 0 56 224" fill="none" xmlns="http://www.w3.org/2000/svg">
<path d="M28 20C32.4183 20 36 23.5817 36 28C36 32.4183 32.4183 36 28 36C23.5817 36 20 32.4183 20 28C20 23.5817 23.5817 20 28 20ZM31.7071 26.7071C32.0976 26.3166 32.0976 25.6834 31.7071 25.2929C31.3166 24.9024 30.6834 24.9024 30.2929 25.2929L27 28.5858L25.7071 27.2929C25.3166 26.9024 24.6834 26.9024 24.2929 27.2929C23.9024 27.6834 23.9024 28.3166 24.2929 28.7071L26.2929 30.7071C26.6834 31.0976 27.3166 31.0976 27.7071 30.7071L31.7071 26.7071Z" fill="#5F5F6A"/>
<path opacity="0.5" d="M31.5303 81.4697C31.8232 81.7626 31.8232 82.2374 31.5303 82.5303L27.5303 86.5303C27.2374 86.8232 26.7626 86.8232 26.4697 86.5303L24.4697 84.5303C24.1768 84.2374 24.1768 83.7626 24.4697 83.4697C24.7626 83.1768 25.2374 83.1768 25.5303 83.4697L27 84.9393L30.4697 81.4697C30.7626 81.1768 31.2374 81.1768 31.5303 81.4697Z" fill="#5F5F6A"/>
<path d="M28 91.25C23.9959 91.25 20.75 88.0041 20.75 84C20.75 79.9959 23.9959 76.75 28 76.75C32.0041 76.75 35.25 79.9959 35.25 84C35.25 88.0041 32.0041 91.25 28 91.25ZM19.25 84C19.25 88.8325 23.1675 92.75 28 92.75C32.8325 92.75 36.75 88.8325 36.75 84C36.75 79.1675 32.8325 75.25 28 75.25C23.1675 75.25 19.25 79.1675 19.25 84Z" fill="#5F5F6A"/>
<path d="M31.5303 138.53C31.8232 138.237 31.8232 137.763 31.5303 137.47C31.2374 137.177 30.7626 137.177 30.4697 137.47L27 140.939L25.5303 139.47C25.2374 139.177 24.7626 139.177 24.4697 139.47C24.1768 139.763 24.1768 140.237 24.4697 140.53L26.4697 142.53C26.7626 142.823 27.2374 142.823 27.5303 142.53L31.5303 138.53Z" fill="#5F5F6A"/>
<path d="M28 148.75C23.1675 148.75 19.25 144.832 19.25 140C19.25 135.168 23.1675 131.25 28 131.25C32.8325 131.25 36.75 135.168 36.75 140C36.75 144.832 32.8325 148.75 28 148.75ZM20.75 140C20.75 144.004 23.9959 147.25 28 147.25C32.0041 147.25 35.25 144.004 35.25 140C35.25 135.996 32.0041 132.75 28 132.75C23.9959 132.75 20.75 135.996 20.75 140Z" fill="#5F5F6A"/>
<path d="M31.3536 194.354C31.5488 194.158 31.5488 193.842 31.3536 193.646C31.1583 193.451 30.8417 193.451 30.6464 193.646L27 197.293L25.3536 195.646C25.1583 195.451 24.8417 195.451 24.6464 195.646C24.4512 195.842 24.4512 196.158 24.6464 196.354L26.6464 198.354C26.8417 198.549 27.1583 198.549 27.3536 198.354L31.3536 194.354Z" fill="#5F5F6A"/>
<path d="M28 204.5C23.3056 204.5 19.5 200.694 19.5 196C19.5 191.306 23.3056 187.5 28 187.5C32.6944 187.5 36.5 191.306 36.5 196C36.5 200.694 32.6944 204.5 28 204.5ZM20.5 196C20.5 200.142 23.8579 203.5 28 203.5C32.1421 203.5 35.5 200.142 35.5 196C35.5 191.858 32.1421 188.5 28 188.5C23.8579 188.5 20.5 191.858 20.5 196Z" fill="#5F5F6A"/>
</svg>
