<svg width="56" height="224" viewBox="0 0 56 224" fill="none" xmlns="http://www.w3.org/2000/svg">
<path fill-rule="evenodd" clip-rule="evenodd" d="M21.3485 23.1161C21.8367 22.628 22.6281 22.628 23.1163 23.1161L28.0002 28L23.1163 32.8839C22.6281 33.372 21.8367 33.372 21.3485 32.8839C20.8604 32.3957 20.8604 31.6043 21.3485 31.1161L24.4647 28L21.3485 24.8839C20.8604 24.3957 20.8604 23.6043 21.3485 23.1161Z" fill="#5F5F6A"/>
<path fill-rule="evenodd" clip-rule="evenodd" d="M28.3663 23.1161C28.8545 22.628 29.6459 22.628 30.1341 23.1161L35.018 28L30.1341 32.8839C29.6459 33.372 28.8545 33.372 28.3663 32.8839C27.8781 32.3957 27.8781 31.6043 28.3663 31.1161L31.4824 28L28.3663 24.8839C27.8781 24.3957 27.8781 23.6043 28.3663 23.1161Z" fill="#5F5F6A"/>
<path fill-rule="evenodd" clip-rule="evenodd" d="M21.8788 79.2929C22.2694 78.9024 22.9025 78.9024 23.293 79.2929L28.0002 84L23.293 88.7071C22.9025 89.0976 22.2694 89.0976 21.8788 88.7071C21.4883 88.3166 21.4883 87.6834 21.8788 87.2929L25.1717 84L21.8788 80.7071C21.4883 80.3166 21.4883 79.6834 21.8788 79.2929Z" fill="#5F5F6A"/>
<path fill-rule="evenodd" clip-rule="evenodd" d="M28.293 79.2929C28.6836 78.9024 29.3167 78.9024 29.7073 79.2929L34.4144 84L29.7073 88.7071C29.3167 89.0976 28.6836 89.0976 28.293 88.7071C27.9025 88.3166 27.9025 87.6834 28.293 87.2929L31.5859 84L28.293 80.7071C27.9025 80.3166 27.9025 79.6834 28.293 79.2929Z" fill="#5F5F6A"/>
<path fill-rule="evenodd" clip-rule="evenodd" d="M22.4091 135.47C22.702 135.177 23.1769 135.177 23.4698 135.47L28.0001 140L23.4698 144.53C23.1769 144.823 22.702 144.823 22.4091 144.53C22.1162 144.237 22.1162 143.763 22.4091 143.47L25.8788 140L22.4091 136.53C22.1162 136.237 22.1162 135.763 22.4091 135.47Z" fill="#5F5F6A"/>
<path fill-rule="evenodd" clip-rule="evenodd" d="M28.2198 135.47C28.5127 135.177 28.9876 135.177 29.2804 135.47L33.8108 140L29.2804 144.53C28.9876 144.823 28.5127 144.823 28.2198 144.53C27.9269 144.237 27.9269 143.763 28.2198 143.47L31.6895 140L28.2198 136.53C27.9269 136.237 27.9269 135.763 28.2198 135.47Z" fill="#5F5F6A"/>
<path fill-rule="evenodd" clip-rule="evenodd" d="M22.9394 191.646C23.1347 191.451 23.4513 191.451 23.6465 191.646L28.0001 196L23.6465 200.354C23.4513 200.549 23.1347 200.549 22.9394 200.354C22.7442 200.158 22.7442 199.842 22.9394 199.646L26.5859 196L22.9394 192.354C22.7442 192.158 22.7442 191.842 22.9394 191.646Z" fill="#5F5F6A"/>
<path fill-rule="evenodd" clip-rule="evenodd" d="M28.1465 191.646C28.3418 191.451 28.6584 191.451 28.8536 191.646L33.2072 196L28.8536 200.354C28.6584 200.549 28.3418 200.549 28.1465 200.354C27.9513 200.158 27.9513 199.842 28.1465 199.646L31.793 196L28.1465 192.354C27.9513 192.158 27.9513 191.842 28.1465 191.646Z" fill="#5F5F6A"/>
</svg>
