<svg width="56" height="224" viewBox="0 0 56 224" fill="none" xmlns="http://www.w3.org/2000/svg">
<path fill-rule="evenodd" clip-rule="evenodd" d="M25.1161 23.1161C25.6043 22.628 26.3957 22.628 26.8839 23.1161L31.7678 28L26.8839 32.8839C26.3957 33.372 25.6043 33.372 25.1161 32.8839C24.628 32.3957 24.628 31.6043 25.1161 31.1161L28.2322 28L25.1161 24.8839C24.628 24.3957 24.628 23.6043 25.1161 23.1161Z" fill="#5F5F6A"/>
<path fill-rule="evenodd" clip-rule="evenodd" d="M25.2929 79.2929C25.6834 78.9024 26.3166 78.9024 26.7071 79.2929L31.4142 84L26.7071 88.7071C26.3166 89.0976 25.6834 89.0976 25.2929 88.7071C24.9024 88.3166 24.9024 87.6834 25.2929 87.2929L28.5858 84L25.2929 80.7071C24.9024 80.3166 24.9024 79.6834 25.2929 79.2929Z" fill="#5F5F6A"/>
<path fill-rule="evenodd" clip-rule="evenodd" d="M25.4697 135.47C25.7626 135.177 26.2374 135.177 26.5303 135.47L31.0607 140L26.5303 144.53C26.2374 144.823 25.7626 144.823 25.4697 144.53C25.1768 144.237 25.1768 143.763 25.4697 143.47L28.9393 140L25.4697 136.53C25.1768 136.237 25.1768 135.763 25.4697 135.47Z" fill="#5F5F6A"/>
<path fill-rule="evenodd" clip-rule="evenodd" d="M25.6464 191.646C25.8417 191.451 26.1583 191.451 26.3536 191.646L30.7071 196L26.3536 200.354C26.1583 200.549 25.8417 200.549 25.6464 200.354C25.4512 200.158 25.4512 199.842 25.6464 199.646L29.2929 196L25.6464 192.354C25.4512 192.158 25.4512 191.842 25.6464 191.646Z" fill="#5F5F6A"/>
</svg>
