<svg width="56" height="224" viewBox="0 0 56 224" fill="none" xmlns="http://www.w3.org/2000/svg">
<path fill-rule="evenodd" clip-rule="evenodd" d="M34.6518 32.8839C34.1637 33.372 33.3722 33.372 32.8841 32.8839L28.0002 28L32.8841 23.1161C33.3722 22.628 34.1637 22.628 34.6518 23.1161C35.14 23.6043 35.14 24.3957 34.6518 24.8839L31.5357 28L34.6518 31.1161C35.14 31.6043 35.14 32.3957 34.6518 32.8839Z" fill="#5F5F6A"/>
<path fill-rule="evenodd" clip-rule="evenodd" d="M27.6341 32.8839C27.1459 33.372 26.3545 33.372 25.8663 32.8839L20.9824 28L25.8663 23.1161C26.3545 22.628 27.1459 22.628 27.6341 23.1161C28.1222 23.6043 28.1222 24.3957 27.6341 24.8839L24.518 28L27.6341 31.1161C28.1222 31.6043 28.1222 32.3957 27.6341 32.8839Z" fill="#5F5F6A"/>
<path fill-rule="evenodd" clip-rule="evenodd" d="M34.1215 88.7071C33.7309 89.0976 33.0978 89.0976 32.7073 88.7071L28.0002 84L32.7073 79.2929C33.0978 78.9024 33.7309 78.9024 34.1215 79.2929C34.512 79.6834 34.512 80.3166 34.1215 80.7071L30.8286 84L34.1215 87.2929C34.512 87.6834 34.512 88.3166 34.1215 88.7071Z" fill="#5F5F6A"/>
<path fill-rule="evenodd" clip-rule="evenodd" d="M27.7073 88.7071C27.3167 89.0976 26.6836 89.0976 26.293 88.7071L21.5859 84L26.293 79.2929C26.6836 78.9024 27.3167 78.9024 27.7073 79.2929C28.0978 79.6834 28.0978 80.3166 27.7073 80.7071L24.4144 84L27.7073 87.2929C28.0978 87.6834 28.0978 88.3166 27.7073 88.7071Z" fill="#5F5F6A"/>
<path fill-rule="evenodd" clip-rule="evenodd" d="M33.5911 144.53C33.2982 144.823 32.8233 144.823 32.5304 144.53L28.0001 140L32.5304 135.47C32.8233 135.177 33.2982 135.177 33.5911 135.47C33.884 135.763 33.884 136.237 33.5911 136.53L30.1214 140L33.5911 143.47C33.884 143.763 33.884 144.237 33.5911 144.53Z" fill="#5F5F6A"/>
<path fill-rule="evenodd" clip-rule="evenodd" d="M27.7804 144.53C27.4876 144.823 27.0127 144.823 26.7198 144.53L22.1895 140L26.7198 135.47C27.0127 135.177 27.4876 135.177 27.7804 135.47C28.0733 135.763 28.0733 136.237 27.7804 136.53L24.3108 140L27.7804 143.47C28.0733 143.763 28.0733 144.237 27.7804 144.53Z" fill="#5F5F6A"/>
<path fill-rule="evenodd" clip-rule="evenodd" d="M33.0607 200.354C32.8655 200.549 32.5489 200.549 32.3536 200.354L28.0001 196L32.3536 191.646C32.5489 191.451 32.8655 191.451 33.0607 191.646C33.256 191.842 33.256 192.158 33.0607 192.354L29.4143 196L33.0607 199.646C33.256 199.842 33.256 200.158 33.0607 200.354Z" fill="#5F5F6A"/>
<path fill-rule="evenodd" clip-rule="evenodd" d="M27.8536 200.354C27.6584 200.549 27.3418 200.549 27.1465 200.354L22.793 196L27.1465 191.646C27.3418 191.451 27.6584 191.451 27.8536 191.646C28.0489 191.842 28.0489 192.158 27.8536 192.354L24.2072 196L27.8536 199.646C28.0489 199.842 28.0489 200.158 27.8536 200.354Z" fill="#5F5F6A"/>
</svg>
