<svg width="56" height="224" viewBox="0 0 56 224" fill="none" xmlns="http://www.w3.org/2000/svg">
<path fill-rule="evenodd" clip-rule="evenodd" d="M32.8839 25.1161C33.372 25.6043 33.372 26.3957 32.8839 26.8839L28 31.7678L23.1161 26.8839C22.628 26.3957 22.628 25.6043 23.1161 25.1161C23.6043 24.628 24.3957 24.628 24.8839 25.1161L28 28.2322L31.1161 25.1161C31.6043 24.628 32.3957 24.628 32.8839 25.1161Z" fill="#5F5F6A"/>
<path fill-rule="evenodd" clip-rule="evenodd" d="M32.7071 81.2929C33.0976 81.6834 33.0976 82.3166 32.7071 82.7071L28 87.4142L23.2929 82.7071C22.9024 82.3166 22.9024 81.6834 23.2929 81.2929C23.6834 80.9024 24.3166 80.9024 24.7071 81.2929L28 84.5858L31.2929 81.2929C31.6834 80.9024 32.3166 80.9024 32.7071 81.2929Z" fill="#5F5F6A"/>
<path fill-rule="evenodd" clip-rule="evenodd" d="M32.5303 137.47C32.8232 137.763 32.8232 138.237 32.5303 138.53L28 143.061L23.4697 138.53C23.1768 138.237 23.1768 137.763 23.4697 137.47C23.7626 137.177 24.2374 137.177 24.5303 137.47L28 140.939L31.4697 137.47C31.7626 137.177 32.2374 137.177 32.5303 137.47Z" fill="#5F5F6A"/>
<path fill-rule="evenodd" clip-rule="evenodd" d="M32.3536 193.646C32.5488 193.842 32.5488 194.158 32.3536 194.354L28 198.707L23.6464 194.354C23.4512 194.158 23.4512 193.842 23.6464 193.646C23.8417 193.451 24.1583 193.451 24.3536 193.646L28 197.293L31.6464 193.646C31.8417 193.451 32.1583 193.451 32.3536 193.646Z" fill="#5F5F6A"/>
</svg>
