<svg width="56" height="224" viewBox="0 0 56 224" fill="none" xmlns="http://www.w3.org/2000/svg">
<path fill-rule="evenodd" clip-rule="evenodd" d="M23.1161 30.8839C22.628 30.3957 22.628 29.6043 23.1161 29.1161L28 24.2322L32.8839 29.1161C33.372 29.6043 33.372 30.3957 32.8839 30.8839C32.3957 31.372 31.6043 31.372 31.1161 30.8839L28 27.7678L24.8839 30.8839C24.3957 31.372 23.6043 31.372 23.1161 30.8839Z" fill="#5F5F6A"/>
<path fill-rule="evenodd" clip-rule="evenodd" d="M23.2929 86.7071C22.9024 86.3166 22.9024 85.6834 23.2929 85.2929L28 80.5858L32.7071 85.2929C33.0976 85.6834 33.0976 86.3166 32.7071 86.7071C32.3166 87.0976 31.6834 87.0976 31.2929 86.7071L28 83.4142L24.7071 86.7071C24.3166 87.0976 23.6834 87.0976 23.2929 86.7071Z" fill="#5F5F6A"/>
<path fill-rule="evenodd" clip-rule="evenodd" d="M23.4697 142.53C23.1768 142.237 23.1768 141.763 23.4697 141.47L28 136.939L32.5303 141.47C32.8232 141.763 32.8232 142.237 32.5303 142.53C32.2374 142.823 31.7626 142.823 31.4697 142.53L28 139.061L24.5303 142.53C24.2374 142.823 23.7626 142.823 23.4697 142.53Z" fill="#5F5F6A"/>
<path fill-rule="evenodd" clip-rule="evenodd" d="M23.6464 198.354C23.4512 198.158 23.4512 197.842 23.6464 197.646L28 193.293L32.3536 197.646C32.5488 197.842 32.5488 198.158 32.3536 198.354C32.1583 198.549 31.8417 198.549 31.6464 198.354L28 194.707L24.3536 198.354C24.1583 198.549 23.8417 198.549 23.6464 198.354Z" fill="#5F5F6A"/>
</svg>
