<svg width="56" height="224" viewBox="0 0 56 224" fill="none" xmlns="http://www.w3.org/2000/svg">
<path d="M20 28C20 23.5817 23.5817 20 28 20C32.4183 20 36 23.5817 36 28C36 32.4183 32.4183 36 28 36C23.5817 36 20 32.4183 20 28Z" fill="#5F5F6A"/>
<path opacity="0.5" d="M20.25 84C20.25 79.7198 23.7198 76.25 28 76.25C32.2802 76.25 35.75 79.7198 35.75 84C35.75 88.2802 32.2802 91.75 28 91.75C23.7198 91.75 20.25 88.2802 20.25 84Z" fill="#5F5F6A"/>
<path d="M20.25 140C20.25 135.72 23.7198 132.25 28 132.25C32.2802 132.25 35.75 135.72 35.75 140C35.75 144.28 32.2802 147.75 28 147.75C23.7198 147.75 20.25 144.28 20.25 140ZM28 133.75C24.5482 133.75 21.75 136.548 21.75 140C21.75 143.452 24.5482 146.25 28 146.25C31.4518 146.25 34.25 143.452 34.25 140C34.25 136.548 31.4518 133.75 28 133.75Z" fill="#5F5F6A"/>
<path d="M20.5 196C20.5 191.858 23.8579 188.5 28 188.5C32.1421 188.5 35.5 191.858 35.5 196C35.5 200.142 32.1421 203.5 28 203.5C23.8579 203.5 20.5 200.142 20.5 196ZM28 189.5C24.4101 189.5 21.5 192.41 21.5 196C21.5 199.59 24.4101 202.5 28 202.5C31.5899 202.5 34.5 199.59 34.5 196C34.5 192.41 31.5899 189.5 28 189.5Z" fill="#5F5F6A"/>
</svg>
