<svg width="56" height="168" viewBox="0 0 56 168" fill="none" xmlns="http://www.w3.org/2000/svg">
<path d="M27 21.75C24.3265 21.75 22.1187 23.7491 21.7918 26.3336L21.733 26.7983L21.2897 26.9494C19.8115 27.4531 18.75 28.8536 18.75 30.5C18.75 31.6777 19.292 32.7283 20.1431 33.417C20.7873 33.9383 21.6063 34.25 22.5 34.25C22.9142 34.25 23.25 34.5858 23.25 35C23.25 35.4142 22.9142 35.75 22.5 35.75C21.2505 35.75 20.1011 35.3125 19.1995 34.583C18.0116 33.6218 17.25 32.1496 17.25 30.5C17.25 28.3556 18.5352 26.5131 20.3756 25.6978C20.9828 22.5927 23.7173 20.25 27 20.25C30.1231 20.25 32.7497 22.3703 33.5208 25.25C36.4107 25.2612 38.75 27.6074 38.75 30.5C38.75 32.1496 37.9884 33.6218 36.8005 34.583C35.8989 35.3125 34.7495 35.75 33.5 35.75C33.0858 35.75 32.75 35.4142 32.75 35C32.75 34.5858 33.0858 34.25 33.5 34.25C34.3937 34.25 35.2127 33.9383 35.8569 33.417C36.708 32.7283 37.25 31.6777 37.25 30.5C37.25 28.4289 35.5711 26.75 33.5 26.75C33.3365 26.75 33.1757 26.7604 33.0183 26.7806L32.2983 26.8727L32.1827 26.1561C31.7795 23.658 29.6118 21.75 27 21.75Z" fill="#5F5F6A"/>
<path opacity="0.5" d="M28.5303 37.5303L31.0303 35.0303C31.3232 34.7374 31.3232 34.2626 31.0303 33.9697C30.7374 33.6768 30.2626 33.6768 29.9697 33.9697L28.75 35.1893V29C28.75 28.5858 28.4142 28.25 28 28.25C27.5858 28.25 27.25 28.5858 27.25 29V35.1893L26.0303 33.9697C25.7374 33.6768 25.2626 33.6768 24.9697 33.9697C24.6768 34.2626 24.6768 34.7374 24.9697 35.0303L27.4697 37.5303C27.7626 37.8232 28.2374 37.8232 28.5303 37.5303Z" fill="#5F5F6A"/>
<path d="M27 77.75C24.3265 77.75 22.1187 79.7491 21.7918 82.3336L21.733 82.7983L21.2897 82.9494C19.8115 83.4531 18.75 84.8536 18.75 86.5C18.75 87.6777 19.292 88.7283 20.1431 89.417C20.7873 89.9383 21.6063 90.25 22.5 90.25C22.9142 90.25 23.25 90.5858 23.25 91C23.25 91.4142 22.9142 91.75 22.5 91.75C21.2505 91.75 20.1011 91.3125 19.1995 90.583C18.0116 89.6218 17.25 88.1496 17.25 86.5C17.25 84.3556 18.5352 82.5131 20.3756 81.6978C20.9828 78.5927 23.7173 76.25 27 76.25C30.1231 76.25 32.7497 78.3703 33.5208 81.25C36.4107 81.2612 38.75 83.6074 38.75 86.5C38.75 88.1496 37.9884 89.6218 36.8005 90.583C35.8989 91.3125 34.7495 91.75 33.5 91.75C33.0858 91.75 32.75 91.4142 32.75 91C32.75 90.5858 33.0858 90.25 33.5 90.25C34.3937 90.25 35.2127 89.9383 35.8569 89.417C36.708 88.7283 37.25 87.6777 37.25 86.5C37.25 84.4289 35.5711 82.75 33.5 82.75C33.3365 82.75 33.1757 82.7604 33.0183 82.7806L32.2983 82.8727L32.1827 82.1561C31.7795 79.658 29.6118 77.75 27 77.75Z" fill="#5F5F6A"/>
<path d="M28.5303 93.5303L31.0303 91.0303C31.3232 90.7374 31.3232 90.2626 31.0303 89.9697C30.7374 89.6768 30.2626 89.6768 29.9697 89.9697L28.75 91.1893V85C28.75 84.5858 28.4142 84.25 28 84.25C27.5858 84.25 27.25 84.5858 27.25 85V91.1893L26.0303 89.9697C25.7374 89.6768 25.2626 89.6768 24.9697 89.9697C24.6768 90.2626 24.6768 90.7374 24.9697 91.0303L27.4697 93.5303C27.7626 93.8232 28.2374 93.8232 28.5303 93.5303Z" fill="#5F5F6A"/>
<path d="M27 133.5C24.199 133.5 21.8863 135.594 21.5438 138.302L21.5046 138.612L21.209 138.713C19.6327 139.25 18.5 140.743 18.5 142.5C18.5 143.756 19.0786 144.877 19.9859 145.611C20.673 146.167 21.547 146.5 22.5 146.5C22.7761 146.5 23 146.724 23 147C23 147.276 22.7761 147.5 22.5 147.5C21.3098 147.5 20.2154 147.083 19.3568 146.389C18.225 145.473 17.5 144.071 17.5 142.5C17.5 140.412 18.78 138.623 20.5971 137.875C21.1302 134.821 23.7937 132.5 27 132.5C30.0749 132.5 32.6503 134.635 33.3267 137.503C33.3842 137.501 33.442 137.5 33.5 137.5C36.2614 137.5 38.5 139.739 38.5 142.5C38.5 144.071 37.775 145.473 36.6432 146.389C35.7846 147.083 34.6902 147.5 33.5 147.5C33.2239 147.5 33 147.276 33 147C33 146.724 33.2239 146.5 33.5 146.5C34.453 146.5 35.327 146.167 36.0141 145.611C36.9214 144.877 37.5 143.756 37.5 142.5C37.5 140.291 35.7091 138.5 33.5 138.5C33.3258 138.5 33.1545 138.511 32.9865 138.533L32.5066 138.594L32.4295 138.116C32.007 135.499 29.7365 133.5 27 133.5Z" fill="#5F5F6A"/>
<path d="M28.3536 149.354L30.8536 146.854C31.0488 146.658 31.0488 146.342 30.8536 146.146C30.6583 145.951 30.3417 145.951 30.1464 146.146L28.5 147.793V141C28.5 140.724 28.2761 140.5 28 140.5C27.7239 140.5 27.5 140.724 27.5 141V147.793L25.8536 146.146C25.6583 145.951 25.3417 145.951 25.1464 146.146C24.9512 146.342 24.9512 146.658 25.1464 146.854L27.6464 149.354C27.8417 149.549 28.1583 149.549 28.3536 149.354Z" fill="#5F5F6A"/>
</svg>
