<svg width="56" height="168" viewBox="0 0 56 168" fill="none" xmlns="http://www.w3.org/2000/svg">
<path d="M25.4145 19.3962C25.4684 18.7483 26.01 18.25 26.6601 18.25H29.34C29.9901 18.25 30.5317 18.7483 30.5857 19.3962L30.6787 20.5128C31.5887 20.8384 32.4215 21.3248 33.1431 21.9375L34.1584 21.4589C34.7465 21.1817 35.4488 21.4016 35.7739 21.9646L37.1138 24.2854C37.4389 24.8484 37.2781 25.5666 36.744 25.9373L35.8229 26.5766C35.9065 27.0389 35.9501 27.5146 35.9501 28C35.9501 28.4854 35.9065 28.9611 35.8229 29.4234L36.744 30.0627C37.2781 30.4334 37.4388 31.1516 37.1138 31.7146L35.7739 34.0354C35.4488 34.5984 34.7464 34.8183 34.1584 34.5411L33.1431 34.0626C32.4215 34.6752 31.5887 35.1616 30.6787 35.4872L30.5857 36.6038C30.5317 37.2517 29.9901 37.75 29.34 37.75H26.6601C26.01 37.75 25.4684 37.2517 25.4145 36.6038L25.3214 35.4872C24.4114 35.1616 23.5786 34.6752 22.8571 34.0626L21.8418 34.5411C21.2537 34.8183 20.5513 34.5984 20.2263 34.0354L18.8864 31.7146C18.5613 31.1516 18.7221 30.4334 19.2561 30.0627L20.1773 29.4234C20.0937 28.9611 20.0501 28.4854 20.0501 28C20.0501 27.5146 20.0937 27.0389 20.1773 26.5766L19.2561 25.9373C18.7221 25.5666 18.5613 24.8484 18.8863 24.2854L20.2263 21.9646C20.5513 21.4016 21.2537 21.1817 21.8418 21.4589L22.8571 21.9374C23.5786 21.3248 24.4114 20.8384 25.3214 20.5128L25.4145 19.3962ZM26.8902 19.75L26.7316 21.6531L26.2324 21.795C25.1964 22.0895 24.2657 22.6371 23.5118 23.3677L23.1393 23.7287L21.4103 22.9138L20.3004 24.8362L21.8688 25.9248L21.7429 26.4276C21.6171 26.9301 21.5501 27.4567 21.5501 28C21.5501 28.5433 21.6171 29.0699 21.7429 29.5724L21.8688 30.0752L20.3004 31.1638L21.4103 33.0862L23.1393 32.2713L23.5118 32.6323C24.2657 33.3629 25.1964 33.9105 26.2324 34.205L26.7316 34.3469L26.8902 36.25H29.11L29.2686 34.3469L29.7678 34.205C30.8037 33.9105 31.7344 33.3629 32.4884 32.6323L32.8609 32.2713L34.5898 33.0862L35.6997 31.1638L34.1313 30.0752L34.2572 29.5724C34.3831 29.0699 34.4501 28.5433 34.4501 28C34.4501 27.4567 34.3831 26.9301 34.2572 26.4276L34.1313 25.9248L35.6997 24.8362L34.5898 22.9138L32.8609 23.7287L32.4884 23.3677C31.7344 22.6371 30.8037 22.0895 29.7678 21.795L29.2686 21.6531L29.11 19.75H26.8902Z" fill="#5F5F6A"/>
<path opacity="0.5" d="M26.8751 26.0514C25.799 26.6727 25.4303 28.0488 26.0516 29.125C26.6729 30.2011 28.049 30.5699 29.1251 29.9485C30.2013 29.3272 30.57 27.9511 29.9487 26.875C29.3274 25.7988 27.9513 25.4301 26.8751 26.0514ZM24.7525 29.875C23.717 28.0814 24.3315 25.7879 26.1251 24.7524C27.9187 23.7169 30.2122 24.3314 31.2477 26.125C32.2833 27.9186 31.6687 30.212 29.8751 31.2476C28.0815 32.2831 25.7881 31.6686 24.7525 29.875Z" fill="#5F5F6A"/>
<path d="M25.4145 75.3962C25.4684 74.7483 26.01 74.25 26.6601 74.25H29.34C29.9901 74.25 30.5317 74.7483 30.5857 75.3962L30.6787 76.5128C31.5887 76.8384 32.4215 77.3248 33.1431 77.9375L34.1584 77.4589C34.7465 77.1817 35.4488 77.4016 35.7739 77.9646L37.1138 80.2854C37.4389 80.8484 37.2781 81.5666 36.744 81.9373L35.8229 82.5766C35.9065 83.0389 35.9501 83.5146 35.9501 84C35.9501 84.4854 35.9065 84.9611 35.8229 85.4234L36.744 86.0627C37.2781 86.4334 37.4388 87.1516 37.1138 87.7146L35.7739 90.0354C35.4488 90.5984 34.7464 90.8183 34.1584 90.5411L33.1431 90.0626C32.4215 90.6752 31.5887 91.1616 30.6787 91.4872L30.5857 92.6038C30.5317 93.2517 29.9901 93.75 29.34 93.75H26.6601C26.01 93.75 25.4684 93.2517 25.4145 92.6038L25.3214 91.4872C24.4114 91.1616 23.5786 90.6752 22.8571 90.0626L21.8418 90.5411C21.2537 90.8183 20.5513 90.5984 20.2263 90.0354L18.8864 87.7146C18.5613 87.1516 18.7221 86.4334 19.2561 86.0627L20.1773 85.4234C20.0937 84.9611 20.0501 84.4854 20.0501 84C20.0501 83.5146 20.0937 83.0389 20.1773 82.5766L19.2561 81.9373C18.7221 81.5666 18.5613 80.8484 18.8863 80.2854L20.2263 77.9646C20.5513 77.4016 21.2537 77.1817 21.8418 77.4589L22.8571 77.9374C23.5786 77.3248 24.4114 76.8384 25.3214 76.5128L25.4145 75.3962ZM26.8902 75.75L26.7316 77.6531L26.2324 77.795C25.1964 78.0895 24.2657 78.6371 23.5118 79.3677L23.1393 79.7287L21.4103 78.9138L20.3004 80.8362L21.8688 81.9248L21.7429 82.4276C21.6171 82.9301 21.5501 83.4567 21.5501 84C21.5501 84.5433 21.6171 85.0699 21.7429 85.5724L21.8688 86.0752L20.3004 87.1638L21.4103 89.0862L23.1393 88.2713L23.5118 88.6323C24.2657 89.3629 25.1964 89.9105 26.2324 90.205L26.7316 90.3469L26.8902 92.25H29.11L29.2686 90.3469L29.7678 90.205C30.8037 89.9105 31.7344 89.3629 32.4884 88.6323L32.8609 88.2713L34.5898 89.0862L35.6997 87.1638L34.1313 86.0752L34.2572 85.5724C34.3831 85.0699 34.4501 84.5433 34.4501 84C34.4501 83.4567 34.3831 82.9301 34.2572 82.4276L34.1313 81.9248L35.6997 80.8362L34.5898 78.9138L32.8609 79.7287L32.4884 79.3677C31.7344 78.6371 30.8037 78.0895 29.7678 77.795L29.2686 77.6531L29.11 75.75H26.8902ZM29.0909 75.5208C29.0909 75.5205 29.0909 75.521 29.0909 75.5208V75.5208ZM29.0909 92.4792C29.0909 92.4794 29.0909 92.479 29.0909 92.4792V92.4792ZM21.2022 89.1843C21.2021 89.1844 21.2024 89.1842 21.2022 89.1843V89.1843ZM29.9486 82.875C29.3273 81.7988 27.9512 81.4301 26.8751 82.0514C25.7989 82.6728 25.4302 84.0488 26.0515 85.125C26.6728 86.2012 28.0489 86.5699 29.1251 85.9486C30.2012 85.3272 30.57 83.9512 29.9486 82.875ZM26.1251 80.7524C27.9187 79.7169 30.2121 80.3314 31.2477 82.125C32.2832 83.9186 31.6687 86.2121 29.8751 87.2476C28.0815 88.2831 25.788 87.6686 24.7525 85.875C23.717 84.0814 24.3315 81.7879 26.1251 80.7524Z" fill="#5F5F6A"/>
<path d="M26.2498 136.969C24.5758 137.935 24.0023 140.076 24.9688 141.75C25.9352 143.424 28.0758 143.998 29.7498 143.031C31.4239 142.065 31.9974 139.924 31.0309 138.25C30.0644 136.576 27.9239 136.002 26.2498 136.969ZM25.8348 141.25C25.1444 140.054 25.5541 138.525 26.7498 137.835C27.9456 137.145 29.4745 137.554 30.1649 138.75C30.8553 139.946 30.4456 141.475 29.2498 142.165C28.0541 142.855 26.5251 142.446 25.8348 141.25Z" fill="#5F5F6A"/>
<path d="M26.6601 130.5C26.14 130.5 25.7068 130.899 25.6636 131.417L25.557 132.696C24.5649 133.027 23.6632 133.555 22.8978 134.233L21.7351 133.685C21.2647 133.463 20.7028 133.639 20.4428 134.09L19.1028 136.41C18.8428 136.861 18.9714 137.435 19.3987 137.732L20.4534 138.464C20.3528 138.961 20.3 139.474 20.3 140C20.3 140.526 20.3528 141.039 20.4534 141.536L19.3987 142.268C18.9714 142.565 18.8428 143.139 19.1028 143.59L20.4428 145.91C20.7028 146.361 21.2647 146.537 21.7351 146.315L22.8978 145.767C23.6632 146.445 24.5649 146.973 25.557 147.304L25.6636 148.583C25.7068 149.101 26.14 149.5 26.6601 149.5H29.34C29.8601 149.5 30.2933 149.101 30.3365 148.583L30.4431 147.304C31.4352 146.973 32.3369 146.445 33.1023 145.767L34.2649 146.315C34.7354 146.537 35.2973 146.361 35.5573 145.91L36.8973 143.59C37.1573 143.139 37.0287 142.565 36.6014 142.268L35.5467 141.536C35.6473 141.039 35.7 140.526 35.7 140C35.7 139.474 35.6473 138.961 35.5467 138.464L36.6014 137.732C37.0287 137.435 37.1573 136.861 36.8973 136.41L35.5573 134.09C35.2973 133.639 34.7354 133.463 34.265 133.685L33.1023 134.233C32.3369 133.555 31.4352 133.027 30.4431 132.696L30.3365 131.417C30.2933 130.899 29.8601 130.5 29.34 130.5H26.6601ZM26.6601 131.5L29.34 131.5L29.5033 133.46L29.8361 133.555C30.9127 133.861 31.8794 134.43 32.6623 135.188L32.9106 135.429L34.6913 134.59L36.0312 136.91L34.4158 138.032L34.4997 138.367C34.6305 138.889 34.7 139.436 34.7 140C34.7 140.564 34.6305 141.111 34.4997 141.633L34.4158 141.968L36.0312 143.09L34.6913 145.41L32.9106 144.571L32.6623 144.812C31.8794 145.57 30.9127 146.139 29.8361 146.445L29.5033 146.54L29.34 148.5H26.6601L26.4968 146.54L26.164 146.445C25.0874 146.139 24.1207 145.57 23.3378 144.812L23.0895 144.571L21.3088 145.41L19.9689 143.09L21.5843 141.968L21.5004 141.633C21.3696 141.111 21.3 140.564 21.3 140C21.3 139.436 21.3696 138.889 21.5004 138.367L21.5843 138.032L19.9689 136.91L21.3088 134.59L23.0894 135.429L23.3378 135.188C24.1207 134.43 25.0874 133.861 26.164 133.555L26.4968 133.46L26.6601 131.5Z" fill="#5F5F6A"/>
</svg>
