<svg width="64" height="224" viewBox="0 0 64 224" fill="none" xmlns="http://www.w3.org/2000/svg">
<path d="M28 20.75H30.5V35.25H28C26.7574 35.25 25.75 34.2426 25.75 33V23C25.75 21.7574 26.7574 20.75 28 20.75ZM36 20.75C37.2426 20.75 38.25 21.7574 38.25 23V33C38.25 34.2426 37.2426 35.25 36 35.25H33.5V20.75H36Z" fill="#5F5F6A" stroke="#71717A" stroke-width="1.5"/>
<path fill-rule="evenodd" clip-rule="evenodd" d="M36 77.5H28C27.1716 77.5 26.5 78.1716 26.5 79V89C26.5 89.8284 27.1716 90.5 28 90.5H36C36.8284 90.5 37.5 89.8284 37.5 89V79C37.5 78.1716 36.8284 77.5 36 77.5ZM28 76C26.3431 76 25 77.3431 25 79V89C25 90.6569 26.3431 92 28 92H36C37.6569 92 39 90.6569 39 89V79C39 77.3431 37.6569 76 36 76H28Z" fill="#5F5F6A"/>
<path opacity="0.5" fill-rule="evenodd" clip-rule="evenodd" d="M31.25 91V77H32.75V91H31.25Z" fill="#5F5F6A"/>
<path fill-rule="evenodd" clip-rule="evenodd" d="M25 135C25 133.343 26.3431 132 28 132H36C37.6569 132 39 133.343 39 135V145C39 146.657 37.6569 148 36 148H28C26.3431 148 25 146.657 25 145V135ZM32.75 133.5H36C36.8284 133.5 37.5 134.172 37.5 135V145C37.5 145.828 36.8284 146.5 36 146.5H32.75V133.5ZM31.25 133.5H28C27.1716 133.5 26.5 134.172 26.5 135V145C26.5 145.828 27.1716 146.5 28 146.5H31.25V133.5Z" fill="#5F5F6A"/>
<path fill-rule="evenodd" clip-rule="evenodd" d="M25 191C25 189.343 26.3431 188 28 188H36C37.6569 188 39 189.343 39 191V201C39 202.657 37.6569 204 36 204H28C26.3431 204 25 202.657 25 201V191ZM32.5 189H36C37.1046 189 38 189.895 38 191V201C38 202.105 37.1046 203 36 203H32.5V189ZM31.5 189H28C26.8954 189 26 189.895 26 191V201C26 202.105 26.8954 203 28 203H31.5V189Z" fill="#5F5F6A"/>
</svg>
