<svg width="56" height="168" viewBox="0 0 56 168" fill="none" xmlns="http://www.w3.org/2000/svg">
<path opacity="0.5" d="M28 19.75C27.5858 19.75 27.25 20.0858 27.25 20.5V22C27.25 22.4142 27.5858 22.75 28 22.75C28.4142 22.75 28.75 22.4142 28.75 22V20.5C28.75 20.0858 28.4142 19.75 28 19.75ZM19.75 28C19.75 27.5858 20.0858 27.25 20.5 27.25H22C22.4142 27.25 22.75 27.5858 22.75 28C22.75 28.4142 22.4142 28.75 22 28.75H20.5C20.0858 28.75 19.75 28.4142 19.75 28ZM33.25 28C33.25 27.5858 33.5858 27.25 34 27.25H35.5C35.9142 27.25 36.25 27.5858 36.25 28C36.25 28.4142 35.9142 28.75 35.5 28.75H34C33.5858 28.75 33.25 28.4142 33.25 28ZM28 33.25C28.4142 33.25 28.75 33.5858 28.75 34V35.5C28.75 35.9142 28.4142 36.25 28 36.25C27.5858 36.25 27.25 35.9142 27.25 35.5V34C27.25 33.5858 27.5858 33.25 28 33.25Z" fill="#5F5F6A"/>
<path d="M20.9503 22.011L21.4697 22.5303C21.7626 22.8232 22.2374 22.8232 22.5303 22.5303C22.8232 22.2374 22.8232 21.7626 22.5303 21.4697L22.011 20.9503C23.6247 19.578 25.7157 18.75 28 18.75C33.1086 18.75 37.25 22.8914 37.25 28C37.25 30.2843 36.422 32.3753 35.0497 33.989L34.5303 33.4697C34.2374 33.1768 33.7625 33.1768 33.4697 33.4697C33.1768 33.7625 33.1768 34.2374 33.4697 34.5303L33.989 35.0497C32.3753 36.422 30.2843 37.25 28 37.25C22.8914 37.25 18.75 33.1086 18.75 28C18.75 25.7157 19.578 23.6247 20.9503 22.011ZM20.3986 20.3986C18.4532 22.344 17.25 25.0315 17.25 28C17.25 33.9371 22.0629 38.75 28 38.75C30.9677 38.75 33.6544 37.5475 35.5997 35.6031L35.6014 35.6014M35.6021 35.6007C37.5471 33.6553 38.75 30.9682 38.75 28C38.75 22.0629 33.9371 17.25 28 17.25C25.0315 17.25 22.344 18.4532 20.3986 20.3986" fill="#5F5F6A"/>
<path d="M23.9421 33.1172L28.0651 31.2432C28.8736 30.8757 29.2779 30.6919 29.6241 30.4331C29.9311 30.2036 30.2036 29.9312 30.4331 29.6241C30.6919 29.2779 30.8756 28.8737 31.2431 28.0652L33.1172 23.9421C33.3904 23.3411 33.527 23.0406 33.4707 22.8589C33.4218 22.7015 33.2986 22.5782 33.1411 22.5294C32.9594 22.473 32.6589 22.6096 32.0579 22.8828L27.9349 24.7569C27.1264 25.1244 26.7221 25.3082 26.3759 25.5669C26.0689 25.7964 25.7964 26.0689 25.5669 26.3759C25.3081 26.7221 25.1244 27.1264 24.7569 27.9349L22.8828 32.0579C22.6096 32.6589 22.473 32.9594 22.5293 33.1411C22.5781 33.2986 22.7014 33.4219 22.8589 33.4707C23.0406 33.527 23.3411 33.3904 23.9421 33.1172ZM28 30C26.8954 30 26 29.1046 26 28C26 26.8954 26.8954 26 28 26C29.1046 26 30 26.8954 30 28C30 29.1046 29.1046 30 28 30Z" fill="#5F5F6A"/>
<path d="M20.9503 78.011C19.578 79.6247 18.75 81.7157 18.75 84C18.75 89.1086 22.8914 93.25 28 93.25C30.2843 93.25 32.3753 92.422 33.989 91.0497L33.4697 90.5303C33.1768 90.2374 33.1768 89.7625 33.4697 89.4697L35.6014 91.6014L35.5997 91.6031C33.6544 93.5475 30.9677 94.75 28 94.75C22.0629 94.75 17.25 89.9371 17.25 84C17.25 81.0315 18.4532 78.344 20.3986 76.3986L22.5303 78.5303C22.2374 78.8232 21.7626 78.8232 21.4697 78.5303L20.9503 78.011Z" fill="#5F5F6A"/>
<path d="M28 75.75C28.4142 75.75 28.75 76.0858 28.75 76.5V78C28.75 78.4142 28.4142 78.75 28 78.75C27.5858 78.75 27.25 78.4142 27.25 78V76.5C27.25 76.0858 27.5858 75.75 28 75.75Z" fill="#5F5F6A"/>
<path d="M33.25 84C33.25 83.5858 33.5858 83.25 34 83.25H35.5C35.9142 83.25 36.25 83.5858 36.25 84C36.25 84.4142 35.9142 84.75 35.5 84.75H34C33.5858 84.75 33.25 84.4142 33.25 84Z" fill="#5F5F6A"/>
<path d="M22.5303 78.5303L25.412 81.412C25.2515 81.5725 25.1024 81.7446 24.9662 81.9269C24.6583 82.3388 24.443 82.8126 24.1091 83.5475L22.187 87.7761C22.0616 88.052 21.9477 88.3024 21.8755 88.5064C21.812 88.6857 21.7055 89.0167 21.8129 89.3632C21.935 89.7568 22.2432 90.065 22.6368 90.1871C22.9833 90.2945 23.3143 90.188 23.4936 90.1245C23.6976 90.0523 23.948 89.9384 24.2239 89.813L28.3396 87.9422L28.3471 87.9397L28.3826 87.9227L28.4525 87.8909C29.1874 87.557 29.6612 87.3417 30.0731 87.0339C30.2554 86.8976 30.4275 86.7485 30.588 86.588L33.4697 89.4697L35.6021 91.6007C37.5471 89.6553 38.75 86.9682 38.75 84C38.75 78.0629 33.9371 73.25 28 73.25C25.0315 73.25 22.344 74.4532 20.3986 76.3986L22.5303 78.5303ZM25.412 81.412L22.5303 78.5303C22.8231 78.2374 22.8232 77.7625 22.5303 77.4697L22.011 76.9503C23.6247 75.578 25.7157 74.75 28 74.75C33.1086 74.75 37.25 78.8914 37.25 84C37.25 86.2843 36.422 88.3753 35.0497 89.989L34.5303 89.4697C34.2376 89.177 33.7626 89.1774 33.4697 89.4697L30.588 86.588C30.7483 86.4276 30.8977 86.2552 31.0338 86.0731C31.3417 85.6612 31.5569 85.1875 31.8909 84.4525L31.9226 84.3827L31.9397 84.3471L31.9422 84.3397L33.8129 80.224C33.9384 79.9481 34.0522 79.6976 34.1245 79.4937C34.188 79.3143 34.2944 78.9833 34.187 78.6368C34.065 78.2432 33.7568 77.935 33.3632 77.813C33.0167 77.7056 32.6857 77.812 32.5063 77.8755C32.3024 77.9478 32.052 78.0616 31.7761 78.1871L27.5475 80.1091C26.8125 80.4431 26.3388 80.6583 25.9269 80.9662C25.7447 81.1024 25.5725 81.2516 25.412 81.412ZM26.4727 82.4727L26.7626 82.7626C26.4459 83.0792 26.25 83.5167 26.25 84C26.25 84.9665 27.0335 85.75 28 85.75C28.4832 85.75 28.9207 85.5541 29.2374 85.2374L29.5273 85.5273C29.4175 85.6372 29.2998 85.7392 29.175 85.8324C28.9091 86.0311 28.5934 86.1792 27.758 86.5589L23.5105 88.4895L25.4396 84.2453C25.8205 83.4074 25.9686 83.0912 26.1676 82.825C26.2608 82.7002 26.3628 82.5825 26.4727 82.4727ZM26.7626 82.7626L26.4727 82.4727C26.5824 82.363 26.7003 82.2608 26.8249 82.1677C27.0912 81.9686 27.4074 81.8205 28.2452 81.4397L32.4895 79.5105L32.4344 79.6318L32.4331 79.6347L30.5603 83.7548C30.1795 84.5926 30.0314 84.9088 29.8324 85.1751C29.7393 85.2996 29.637 85.4176 29.5273 85.5273L29.2374 85.2374C29.5539 84.9208 29.75 84.483 29.75 84C29.75 83.0335 28.9665 82.25 28 82.25C27.5169 82.25 27.0792 82.4461 26.7626 82.7626ZM27.8232 83.8232C27.778 83.8685 27.75 83.931 27.75 84C27.75 84.1381 27.8619 84.25 28 84.25C28.069 84.25 28.1315 84.222 28.1768 84.1768L27.8232 83.8232ZM28.1768 84.1768C28.2218 84.1316 28.25 84.0688 28.25 84C28.25 83.8619 28.1381 83.75 28 83.75C27.9311 83.75 27.8684 83.7782 27.8232 83.8232L28.1768 84.1768Z" fill="#5F5F6A"/>
<path d="M19.75 84C19.75 83.5858 20.0858 83.25 20.5 83.25H22C22.4142 83.25 22.75 83.5858 22.75 84C22.75 84.4142 22.4142 84.75 22 84.75H20.5C20.0858 84.75 19.75 84.4142 19.75 84Z" fill="#5F5F6A"/>
<path d="M28 89.25C28.4142 89.25 28.75 89.5858 28.75 90V91.5C28.75 91.9142 28.4142 92.25 28 92.25C27.5858 92.25 27.25 91.9142 27.25 91.5V90C27.25 89.5858 27.5858 89.25 28 89.25Z" fill="#5F5F6A"/>
<path d="M20.9382 133.645L21.6465 134.354C21.8417 134.549 22.1583 134.549 22.3536 134.354C22.5488 134.158 22.5488 133.842 22.3536 133.646L21.6453 132.938C23.3286 131.422 25.5565 130.5 28 130.5C33.2467 130.5 37.5 134.753 37.5 140C37.5 142.443 36.5775 144.671 35.0618 146.355L34.3535 145.646C34.1583 145.451 33.8417 145.451 33.6464 145.646C33.4512 145.842 33.4512 146.158 33.6464 146.354L34.3547 147.062C32.6714 148.578 30.4435 149.5 28 149.5C22.7533 149.5 18.5 145.247 18.5 140C18.5 137.557 19.4225 135.329 20.9382 133.645ZM35.425 147.424C37.3249 145.524 38.5 142.899 38.5 140C38.5 134.201 33.799 129.5 28 129.5C22.201 129.5 17.5 134.201 17.5 140C17.5 145.799 22.201 150.5 28 150.5C30.8983 150.5 33.5224 149.326 35.4223 147.427C35.4231 147.426 35.4243 147.425 35.425 147.424Z" fill="#5F5F6A"/>
<path d="M28 132C28.2761 132 28.5 132.224 28.5 132.5V134C28.5 134.276 28.2761 134.5 28 134.5C27.7239 134.5 27.5 134.276 27.5 134V132.5C27.5 132.224 27.7239 132 28 132ZM20 140C20 139.724 20.2239 139.5 20.5 139.5H22C22.2761 139.5 22.5 139.724 22.5 140C22.5 140.276 22.2761 140.5 22 140.5H20.5C20.2239 140.5 20 140.276 20 140ZM33.5 140C33.5 139.724 33.7239 139.5 34 139.5H35.5C35.7761 139.5 36 139.724 36 140C36 140.276 35.7761 140.5 35.5 140.5H34C33.7239 140.5 33.5 140.276 33.5 140ZM28 145.5C28.2761 145.5 28.5 145.724 28.5 146V147.5C28.5 147.776 28.2761 148 28 148C27.7239 148 27.5 147.776 27.5 147.5V146C27.5 145.724 27.7239 145.5 28 145.5Z" fill="#5F5F6A"/>
<path d="M32.9236 135.054C32.776 135.106 32.5742 135.197 32.2648 135.338L28.1418 137.212C27.3137 137.588 26.9682 137.748 26.6753 137.967C26.4066 138.168 26.1682 138.407 25.9674 138.675C25.7485 138.968 25.5884 139.314 25.2121 140.142L23.338 144.265C23.1973 144.574 23.1061 144.776 23.0538 144.924C23.0494 144.936 23.0455 144.947 23.0421 144.958C23.0526 144.954 23.0639 144.951 23.0764 144.946C23.224 144.894 23.4258 144.803 23.7352 144.662L27.8535 142.79L27.8582 142.788C28.6862 142.411 29.0318 142.252 29.3247 142.033C29.5934 141.832 29.8318 141.593 30.0326 141.325C30.2515 141.032 30.4115 140.686 30.7879 139.858L32.6612 135.737L32.662 135.735C32.8026 135.426 32.8939 135.224 32.9462 135.076C32.9506 135.064 32.9544 135.053 32.9578 135.042C32.9474 135.046 32.936 135.049 32.9236 135.054ZM31.7092 140.248L31.7075 140.253L31.6961 140.277L31.6726 140.329C31.3296 141.083 31.125 141.534 30.8336 141.923C30.5754 142.269 30.2689 142.575 29.9234 142.834C29.5336 143.125 29.0833 143.33 28.3286 143.673L28.2768 143.696L28.2531 143.708L28.2481 143.709L24.128 145.582C23.8455 145.71 23.6037 145.82 23.4102 145.889C23.233 145.952 22.9721 146.029 22.7108 145.948C22.3959 145.851 22.1494 145.604 22.0518 145.289C21.9708 145.028 22.0484 144.767 22.1112 144.59C22.1797 144.396 22.2896 144.155 22.4181 143.872L24.3017 139.728C24.3103 139.709 24.3189 139.69 24.3274 139.671C24.6704 138.917 24.875 138.466 25.1664 138.077C25.4246 137.731 25.7311 137.425 26.0766 137.166C26.4664 136.875 26.9167 136.67 27.6714 136.327C27.6901 136.319 27.7089 136.31 27.728 136.302L31.8719 134.418C32.1545 134.29 32.3963 134.18 32.5898 134.111C32.767 134.048 33.0279 133.971 33.2892 134.052C33.6041 134.149 33.8506 134.396 33.9482 134.711C34.0292 134.972 33.9516 135.233 33.8888 135.41C33.8203 135.604 33.7104 135.845 33.5819 136.128L31.7092 140.248ZM28 139.5C27.7239 139.5 27.5 139.724 27.5 140C27.5 140.276 27.7239 140.5 28 140.5C28.2761 140.5 28.5 140.276 28.5 140C28.5 139.724 28.2761 139.5 28 139.5ZM26.5 140C26.5 139.172 27.1716 138.5 28 138.5C28.8284 138.5 29.5 139.172 29.5 140C29.5 140.828 28.8284 141.5 28 141.5C27.1716 141.5 26.5 140.828 26.5 140Z" fill="#5F5F6A"/>
</svg>
