<svg width="56" height="168" viewBox="0 0 56 168" fill="none" xmlns="http://www.w3.org/2000/svg">
<path d="M29.5689 20.2499C29.601 20.25 29.6336 20.25 29.6666 20.25C29.7096 20.25 29.7519 20.25 29.7937 20.25C30.9117 20.2498 31.6239 20.2496 32.2294 20.4118C33.8685 20.8511 35.1489 22.1314 35.5881 23.7706C35.7503 24.3761 35.7502 25.0883 35.75 26.2062C35.75 26.248 35.75 26.2904 35.75 26.3333V27.8304C35.75 28.3646 35.75 28.8104 35.7202 29.1747C35.6892 29.5545 35.6221 29.9112 35.4502 30.2485C35.1866 30.7659 34.7659 31.1866 34.2484 31.4503C33.9112 31.6221 33.5545 31.6892 33.1746 31.7203C32.8104 31.75 32.3646 31.75 31.8304 31.75H30.1695C29.6354 31.75 29.1895 31.75 28.8253 31.7203C28.4454 31.6892 28.0888 31.6221 27.7515 31.4503C27.234 31.1866 26.8133 30.7659 26.5497 30.2485C26.3778 29.9112 26.3107 29.5545 26.2797 29.1747C26.2499 28.8104 26.25 28.3646 26.25 27.8304V23.6667C26.25 23.6336 26.2499 23.6011 26.2499 23.5689C26.2496 23.0451 26.2493 22.6404 26.3437 22.2882C26.598 21.3392 27.3392 20.598 28.2882 20.3437C28.6404 20.2493 29.0451 20.2496 29.5689 20.2499ZM29.6666 21.75C28.9984 21.75 28.8114 21.7564 28.6764 21.7926C28.2451 21.9082 27.9081 22.2451 27.7926 22.6765C27.7564 22.8114 27.75 22.9984 27.75 23.6667V27.8C27.75 28.3724 27.7505 28.7566 27.7747 29.0525C27.7982 29.3396 27.8401 29.4769 27.8862 29.5675C28.006 29.8027 28.1973 29.9939 28.4325 30.1138C28.523 30.1599 28.6603 30.2018 28.9474 30.2252C29.2433 30.2494 29.6275 30.25 30.2 30.25H31.8C32.3724 30.25 32.7566 30.2494 33.0525 30.2252C33.3396 30.2018 33.4769 30.1599 33.5674 30.1138C33.8027 29.9939 33.9939 29.8027 34.1137 29.5675C34.1599 29.4769 34.2017 29.3396 34.2252 29.0525C34.2494 28.7566 34.25 28.3724 34.25 27.8V26.3333C34.25 25.8865 34.2492 25.5349 34.2438 25.25H32.5C31.5338 25.25 30.75 24.4671 30.75 23.5003V21.7561C30.465 21.7508 30.1134 21.75 29.6666 21.75ZM32.25 21.9999V23.5003C32.25 23.6381 32.3616 23.75 32.5 23.75H34C33.6706 22.9591 33.0409 22.3294 32.25 21.9999Z" fill="#5F5F6A"/>
<path opacity="0.5" d="M24.4963 24.25H24.5C24.9142 24.25 25.25 24.5858 25.25 25C25.25 25.4142 24.9142 25.75 24.5 25.75C23.8979 25.75 23.2857 25.7453 22.6884 25.8338C22.1015 25.9209 21.819 26.4056 21.7748 26.9475C21.7506 27.2433 21.75 27.6276 21.75 28.2V31.8C21.75 32.3724 21.7506 32.7566 21.7748 33.0525C21.829 33.7163 22.256 34.1687 22.9475 34.2252C23.2434 34.2494 23.6276 34.25 24.2 34.25H25.8C26.3252 34.25 27.0755 34.3644 27.5675 34.1137C27.9918 33.8975 28.2356 33.4672 28.2499 32.9986C28.2606 32.5906 28.5844 32.25 29 32.25C29.4151 32.25 29.7535 32.6056 29.7499 33.0165C29.7264 34.0373 29.1667 34.9824 28.2485 35.4503C27.5202 35.8213 26.6219 35.75 25.8305 35.75H24.1695C23.3781 35.75 22.4798 35.8213 21.7515 35.4503C21.2341 35.1866 20.8134 34.7659 20.5497 34.2485C20.3779 33.9112 20.3108 33.5545 20.2797 33.1747C20.25 32.8104 20.25 32.3646 20.25 31.8304V28.1695C20.25 27.6354 20.25 27.1895 20.2797 26.8253C20.3593 25.8521 20.8622 25.0029 21.7515 24.5497C22.192 24.3253 22.7429 24.3055 23.227 24.2784C23.734 24.25 24.2458 24.25 24.4963 24.25Z" fill="#5F5F6A"/>
<path d="M29.569 76.2499C29.6011 76.25 29.6336 76.25 29.6667 76.25C29.7096 76.25 29.752 76.25 29.7937 76.25C30.9117 76.2498 31.6239 76.2496 32.2294 76.4118C33.8686 76.8511 35.1489 78.1314 35.5881 79.7706C35.7504 80.3761 35.7502 81.0883 35.75 82.2062C35.75 82.248 35.75 82.2904 35.75 82.3333V83.8304C35.75 84.3646 35.75 84.8104 35.7203 85.1747C35.6892 85.5545 35.6221 85.9112 35.4503 86.2485C35.1866 86.7659 34.7659 87.1866 34.2485 87.4503C33.9112 87.6221 33.5546 87.6892 33.1747 87.7203C32.8104 87.75 32.3646 87.75 31.8305 87.75H30.1695C29.6354 87.75 29.1896 87.75 28.8253 87.7203C28.4454 87.6892 28.0888 87.6221 27.7515 87.4503C27.2341 87.1866 26.8134 86.7659 26.5497 86.2485C26.3779 85.9112 26.3108 85.5545 26.2797 85.1747C26.25 84.8104 26.25 84.3646 26.25 83.8304V79.6667C26.25 79.6336 26.25 79.6011 26.25 79.5689C26.2496 79.0451 26.2493 78.6404 26.3437 78.2882C26.598 77.3392 27.3392 76.598 28.2882 76.3437C28.6404 76.2493 29.0451 76.2496 29.569 76.2499ZM29.6667 77.75C28.9984 77.75 28.8114 77.7564 28.6765 77.7926C28.2451 77.9082 27.9082 78.2451 27.7926 78.6765C27.7564 78.8114 27.75 78.9984 27.75 79.6667V83.8C27.75 84.3724 27.7506 84.7566 27.7748 85.0525C27.7982 85.3396 27.8401 85.4769 27.8862 85.5675C28.0061 85.8027 28.1973 85.9939 28.4325 86.1138C28.5231 86.1599 28.6604 86.2018 28.9475 86.2252C29.2434 86.2494 29.6276 86.25 30.2 86.25H31.8C32.3724 86.25 32.7566 86.2494 33.0525 86.2252C33.3396 86.2018 33.4769 86.1599 33.5675 86.1138C33.8027 85.9939 33.9939 85.8027 34.1138 85.5675C34.1599 85.4769 34.2018 85.3396 34.2252 85.0525C34.2494 84.7566 34.25 84.3724 34.25 83.8V82.3333C34.25 81.8865 34.2492 81.5349 34.2439 81.25H32.5C31.5338 81.25 30.75 80.4671 30.75 79.5003V77.7561C30.4651 77.7508 30.1134 77.75 29.6667 77.75ZM32.25 77.9999V79.5003C32.25 79.6381 32.3616 79.75 32.5 79.75H34.0001C33.6706 78.9591 33.0409 78.3294 32.25 77.9999ZM24.4963 80.25H24.5C24.9142 80.25 25.25 80.5858 25.25 81C25.25 81.4142 24.9142 81.75 24.5 81.75C24.2491 81.75 23.7734 81.7501 23.3109 81.7761C23.0791 81.7891 22.8635 81.8079 22.6884 81.8338C22.5313 81.8571 22.4565 81.8795 22.4369 81.8854C22.4316 81.887 22.4303 81.8873 22.4325 81.8862C22.1973 82.0061 22.0061 82.1973 21.8862 82.4325C21.8401 82.5231 21.7982 82.6603 21.7748 82.9475C21.7506 83.2433 21.75 83.6276 21.75 84.2V87.8C21.75 88.3724 21.7506 88.7566 21.7748 89.0525C21.7982 89.3396 21.8401 89.4769 21.8862 89.5675C22.0061 89.8027 22.1973 89.9939 22.4325 90.1138C22.5231 90.1599 22.6604 90.2018 22.9475 90.2252C23.2434 90.2494 23.6276 90.25 24.2 90.25H25.8C26.3724 90.25 26.7566 90.2494 27.0525 90.2252C27.3396 90.2018 27.4769 90.1599 27.5675 90.1138C27.8027 89.9939 27.9939 89.8027 28.1138 89.5675C28.1744 89.4484 28.2117 89.3054 28.2318 89.1772C28.2414 89.1162 28.246 89.0655 28.2482 89.0324C28.2493 89.016 28.2497 89.0044 28.2499 88.9986C28.2499 88.9974 28.25 88.9963 28.25 88.9951C28.2527 88.5831 28.5874 88.25 29 88.25C29.4142 88.25 29.75 88.5858 29.75 89H29C29.75 89 29.75 88.9998 29.75 89L29.75 89.0014L29.75 89.003L29.75 89.0068L29.7499 89.0165L29.7492 89.0443C29.7486 89.0664 29.7473 89.0957 29.745 89.131C29.7403 89.2013 29.7313 89.2974 29.7137 89.4099C29.6793 89.6288 29.6076 89.9397 29.4503 90.2485C29.1866 90.7659 28.7659 91.1866 28.2485 91.4503C27.9112 91.6221 27.5546 91.6892 27.1747 91.7203C26.8104 91.75 26.3646 91.75 25.8305 91.75H24.1695C23.6354 91.75 23.1896 91.75 22.8253 91.7203C22.4454 91.6892 22.0888 91.6221 21.7515 91.4503C21.2341 91.1866 20.8134 90.7659 20.5497 90.2485C20.3779 89.9112 20.3108 89.5545 20.2797 89.1747C20.25 88.8104 20.25 88.3646 20.25 87.8304V84.1696C20.25 83.6354 20.25 83.1896 20.2797 82.8253C20.3108 82.4454 20.3779 82.0888 20.5497 81.7515C20.8134 81.2341 21.2341 80.8134 21.7515 80.5497C21.9757 80.4355 22.2542 80.3818 22.4684 80.3501C22.7069 80.3147 22.9728 80.2927 23.227 80.2784C23.734 80.25 24.2458 80.25 24.4963 80.25ZM28.25 88.9951C28.25 88.9963 28.2499 88.9974 28.2499 88.9986L28.25 88.9951C28.25 88.9947 28.25 88.9952 28.25 88.9951Z" fill="#5F5F6A"/>
<path d="M29.5895 132.5C29.6148 132.5 29.6406 132.5 29.6667 132.5C29.6982 132.5 29.7294 132.5 29.7603 132.5C30.911 132.5 31.5918 132.5 32.1647 132.653C33.7176 133.069 34.9306 134.282 35.3467 135.835C35.5002 136.408 35.5001 137.089 35.5 138.24C35.5 138.271 35.5 138.302 35.5 138.333V139.821C35.5 140.363 35.5 140.8 35.4711 141.154C35.4413 141.519 35.3784 141.839 35.2275 142.135C34.9878 142.605 34.6054 142.988 34.135 143.228C33.8388 143.378 33.5187 143.441 33.1543 143.471C32.8004 143.5 32.3633 143.5 31.8214 143.5H30.1786C29.6367 143.5 29.1996 143.5 28.8457 143.471C28.4813 143.441 28.1612 143.378 27.865 143.228C27.3946 142.988 27.0122 142.605 26.7725 142.135C26.6216 141.839 26.5587 141.519 26.5289 141.154C26.5 140.8 26.5 140.363 26.5 139.821V135.667C26.5 135.641 26.5 135.615 26.5 135.589C26.4998 135.044 26.4997 134.672 26.5852 134.353C26.8164 133.49 27.4902 132.816 28.353 132.585C28.6721 132.5 29.0442 132.5 29.5895 132.5ZM29.6667 133.5C29.0145 133.5 28.7865 133.504 28.6118 133.551C28.0941 133.69 27.6898 134.094 27.5511 134.612C27.5043 134.786 27.5 135.014 27.5 135.667V139.8C27.5 140.368 27.5004 140.764 27.5256 141.073C27.5503 141.375 27.5964 141.549 27.6635 141.681C27.8073 141.963 28.0368 142.193 28.319 142.337C28.4507 142.404 28.6245 142.45 28.9271 142.474C29.2355 142.5 29.6317 142.5 30.2 142.5H31.8C32.3683 142.5 32.7645 142.5 33.0729 142.474C33.3755 142.45 33.5493 142.404 33.681 142.337C33.9632 142.193 34.1927 141.963 34.3365 141.681C34.4036 141.549 34.4497 141.375 34.4744 141.073C34.4996 140.764 34.5 140.368 34.5 139.8V138.333C34.5 137.758 34.4991 137.333 34.4875 137H32.5C31.6718 137 31 136.329 31 135.5V133.512C30.6672 133.501 30.242 133.5 29.6667 133.5ZM32 133.646V135.5C32 135.776 32.2237 136 32.5 136H34.3541C34.0169 134.869 33.1314 133.983 32 133.646ZM24.4975 136.5H24.5C24.7761 136.5 25 136.724 25 137C25 137.276 24.7761 137.5 24.5 137.5C24.2494 137.5 23.7673 137.5 23.2969 137.526C23.0614 137.54 22.8374 137.559 22.6518 137.587C22.45 137.616 22.3478 137.649 22.319 137.663C22.0368 137.807 21.8073 138.037 21.6635 138.319C21.5964 138.451 21.5503 138.625 21.5256 138.927C21.5004 139.236 21.5 139.632 21.5 140.2V143.8C21.5 144.368 21.5004 144.764 21.5256 145.073C21.5503 145.375 21.5964 145.549 21.6635 145.681C21.8073 145.963 22.0368 146.193 22.319 146.337C22.4507 146.404 22.6245 146.45 22.9271 146.474C23.2355 146.5 23.6317 146.5 24.2 146.5H25.8C26.3683 146.5 26.7645 146.5 27.0729 146.474C27.3755 146.45 27.5493 146.404 27.681 146.337C27.9632 146.193 28.1927 145.963 28.3365 145.681C28.4133 145.53 28.4563 145.359 28.4788 145.216C28.4897 145.146 28.4951 145.088 28.4977 145.049C28.499 145.029 28.4995 145.015 28.4998 145.006L28.5 144.998C28.5 144.998 28.5 144.998 28.5 144.998V144.999C28.5001 144.723 28.7239 144.5 29 144.5C29.2761 144.5 29.5 144.724 29.5 145H29C29.5 145 29.5 145 29.5 145L29.5 145.002L29.5 145.005L29.4999 145.013L29.4993 145.037C29.4988 145.056 29.4976 145.082 29.4955 145.115C29.4913 145.179 29.483 145.267 29.4667 145.371C29.4347 145.575 29.3687 145.858 29.2275 146.135C28.9878 146.605 28.6054 146.988 28.135 147.228C27.8388 147.378 27.5187 147.441 27.1543 147.471C26.8004 147.5 26.3633 147.5 25.8214 147.5H24.1786C23.6367 147.5 23.1996 147.5 22.8457 147.471C22.4813 147.441 22.1612 147.378 21.865 147.228C21.3946 146.988 21.0122 146.605 20.7725 146.135C20.6216 145.839 20.5587 145.519 20.5289 145.154C20.5 144.8 20.5 144.363 20.5 143.821V140.179C20.5 139.637 20.5 139.2 20.5289 138.846C20.5587 138.481 20.6216 138.161 20.7725 137.865C21.0122 137.395 21.3946 137.012 21.865 136.772C22.0501 136.678 22.2934 136.629 22.5051 136.597C22.733 136.564 22.9905 136.542 23.241 136.528C23.741 136.5 24.2472 136.5 24.4975 136.5Z" fill="#5F5F6A"/>
</svg>
