<svg width="56" height="224" viewBox="0 0 56 224" fill="none" xmlns="http://www.w3.org/2000/svg">
<path fill-rule="evenodd" clip-rule="evenodd" d="M20 37C19.4477 37 19 36.5523 19 36V34.5556C19 32.913 19 31.6191 19.0851 30.5778C19.1719 29.5154 19.3522 28.6283 19.763 27.8221C20.4341 26.5049 21.5049 25.4341 22.8221 24.763C23.6283 24.3522 24.5154 24.1719 25.5778 24.0851C26.6191 24 27.9131 24 29.5556 24H33.5858L30.2929 20.7071C29.9024 20.3166 29.9024 19.6834 30.2929 19.2929C30.6834 18.9024 31.3166 18.9024 31.7071 19.2929L36.7071 24.2929C37.0976 24.6834 37.0976 25.3166 36.7071 25.7071L31.7071 30.7071C31.3166 31.0976 30.6834 31.0976 30.2929 30.7071C29.9024 30.3166 29.9024 29.6834 30.2929 29.2929L33.5858 26H29.6C27.9033 26 26.691 26.0008 25.7406 26.0784C24.802 26.1551 24.2073 26.3018 23.73 26.545C22.7892 27.0243 22.0243 27.7892 21.545 28.73C21.3018 29.2073 21.1551 29.802 21.0784 30.7406C21.0008 31.691 21 32.9033 21 34.6V36C21 36.5523 20.5523 37 20 37Z" fill="#5F5F6A"/>
<path fill-rule="evenodd" clip-rule="evenodd" d="M20 92.875C19.5168 92.875 19.125 92.4832 19.125 92V90.5608C19.125 88.9138 19.125 87.6242 19.2097 86.588C19.2958 85.5333 19.474 84.6645 19.8743 83.8788C20.5335 82.5852 21.5852 81.5335 22.8788 80.8743C23.6645 80.474 24.5333 80.2958 25.588 80.2097C26.6242 80.125 27.9138 80.125 29.5608 80.125H33.8876L30.3813 76.6187C30.0396 76.277 30.0396 75.723 30.3813 75.3813C30.723 75.0396 31.277 75.0396 31.6187 75.3813L36.6187 80.3813C36.9604 80.723 36.9604 81.277 36.6187 81.6187L31.6187 86.6187C31.277 86.9604 30.723 86.9604 30.3813 86.6187C30.0396 86.277 30.0396 85.723 30.3813 85.3813L33.8876 81.875H29.6C27.9054 81.875 26.6871 81.8757 25.7305 81.9538C24.7841 82.0312 24.1711 82.1799 23.6733 82.4336C22.709 82.9249 21.9249 83.709 21.4336 84.6733C21.1799 85.1711 21.0312 85.7841 20.9538 86.7305C20.8757 87.6871 20.875 88.9054 20.875 90.6V92C20.875 92.4832 20.4832 92.875 20 92.875Z" fill="#5F5F6A"/>
<path fill-rule="evenodd" clip-rule="evenodd" d="M20 148.75C19.5858 148.75 19.25 148.414 19.25 148V146.566C19.25 144.915 19.25 143.629 19.3342 142.598C19.4198 141.551 19.5959 140.701 19.9857 139.936C20.6329 138.665 21.6655 137.633 22.9356 136.986C23.7007 136.596 24.5512 136.42 25.5981 136.334C26.6292 136.25 27.9146 136.25 29.566 136.25H34.1893L30.4697 132.53C30.1768 132.237 30.1768 131.763 30.4697 131.47C30.7626 131.177 31.2374 131.177 31.5303 131.47L36.5303 136.47C36.8232 136.763 36.8232 137.237 36.5303 137.53L31.5303 142.53C31.2374 142.823 30.7626 142.823 30.4697 142.53C30.1768 142.237 30.1768 141.763 30.4697 141.47L34.1893 137.75H29.6C27.9075 137.75 26.6832 137.751 25.7203 137.829C24.7662 137.907 24.1349 138.058 23.6165 138.322C22.6287 138.826 21.8256 139.629 21.3222 140.617C21.0581 141.135 20.9072 141.766 20.8293 142.72C20.7506 143.683 20.75 144.907 20.75 146.6V148C20.75 148.414 20.4142 148.75 20 148.75Z" fill="#5F5F6A"/>
<path fill-rule="evenodd" clip-rule="evenodd" d="M20 204.5C19.7239 204.5 19.5 204.276 19.5 204V202.577C19.5 200.916 19.5 199.639 19.5834 198.618C19.6677 197.587 19.8396 196.773 20.2085 196.049C20.8316 194.826 21.826 193.832 23.0491 193.208C23.773 192.84 24.5871 192.668 25.6185 192.583C26.6394 192.5 27.9163 192.5 29.5769 192.5H34.7929L30.6464 188.354C30.4512 188.158 30.4512 187.842 30.6464 187.646C30.8417 187.451 31.1583 187.451 31.3536 187.646L36.3536 192.646C36.5488 192.842 36.5488 193.158 36.3536 193.354L31.3536 198.354C31.1583 198.549 30.8417 198.549 30.6464 198.354C30.4512 198.158 30.4512 197.842 30.6464 197.646L34.7929 193.5H29.6C27.9116 193.5 26.6754 193.5 25.6999 193.58C24.7303 193.659 24.0626 193.814 23.5031 194.099C22.4682 194.627 21.6268 195.468 21.0995 196.503C20.8144 197.063 20.6593 197.73 20.5801 198.7C20.5004 199.675 20.5 200.912 20.5 202.6V204C20.5 204.276 20.2761 204.5 20 204.5Z" fill="#5F5F6A"/>
</svg>
