<svg width="56" height="224" viewBox="0 0 56 224" fill="none" xmlns="http://www.w3.org/2000/svg">
<path fill-rule="evenodd" clip-rule="evenodd" d="M36 37C36.5523 37 37 36.5523 37 36V34.5556C37 32.913 37 31.6191 36.9149 30.5778C36.8281 29.5154 36.6478 28.6283 36.237 27.8221C35.5659 26.5049 34.4951 25.4341 33.1779 24.763C32.3717 24.3522 31.4846 24.1719 30.4222 24.0851C29.3809 24 28.0869 24 26.4444 24H22.4142L25.7071 20.7071C26.0976 20.3166 26.0976 19.6834 25.7071 19.2929C25.3166 18.9024 24.6834 18.9024 24.2929 19.2929L19.2929 24.2929C18.9024 24.6834 18.9024 25.3166 19.2929 25.7071L24.2929 30.7071C24.6834 31.0976 25.3166 31.0976 25.7071 30.7071C26.0976 30.3166 26.0976 29.6834 25.7071 29.2929L22.4142 26H26.4C28.0967 26 29.309 26.0008 30.2594 26.0784C31.198 26.1551 31.7927 26.3018 32.27 26.545C33.2108 27.0243 33.9757 27.7892 34.455 28.73C34.6982 29.2073 34.8449 29.802 34.9216 30.7406C34.9992 31.691 35 32.9033 35 34.6V36C35 36.5523 35.4477 37 36 37Z" fill="#5F5F6A"/>
<path fill-rule="evenodd" clip-rule="evenodd" d="M36 92.875C36.4832 92.875 36.875 92.4832 36.875 92V90.5608C36.875 88.9138 36.875 87.6242 36.7903 86.588C36.7042 85.5333 36.526 84.6645 36.1257 83.8788C35.4665 82.5852 34.4148 81.5335 33.1212 80.8743C32.3355 80.474 31.4667 80.2958 30.412 80.2097C29.3758 80.125 28.0862 80.125 26.4392 80.125H22.1124L25.6187 76.6187C25.9604 76.277 25.9604 75.723 25.6187 75.3813C25.277 75.0396 24.723 75.0396 24.3813 75.3813L19.3813 80.3813C19.0396 80.723 19.0396 81.277 19.3813 81.6187L24.3813 86.6187C24.723 86.9604 25.277 86.9604 25.6187 86.6187C25.9604 86.277 25.9604 85.723 25.6187 85.3813L22.1124 81.875H26.4C28.0946 81.875 29.3129 81.8757 30.2695 81.9538C31.2159 82.0312 31.8289 82.1799 32.3267 82.4336C33.291 82.9249 34.0751 83.709 34.5664 84.6733C34.8201 85.1711 34.9688 85.7841 35.0462 86.7305C35.1243 87.6871 35.125 88.9054 35.125 90.6V92C35.125 92.4832 35.5168 92.875 36 92.875Z" fill="#5F5F6A"/>
<path fill-rule="evenodd" clip-rule="evenodd" d="M36 148.75C36.4142 148.75 36.75 148.414 36.75 148V146.566C36.75 144.915 36.75 143.629 36.6658 142.598C36.5802 141.551 36.4041 140.701 36.0143 139.936C35.3671 138.665 34.3345 137.633 33.0644 136.986C32.2993 136.596 31.4488 136.42 30.4019 136.334C29.3708 136.25 28.0854 136.25 26.434 136.25H21.8107L25.5303 132.53C25.8232 132.237 25.8232 131.763 25.5303 131.47C25.2374 131.177 24.7626 131.177 24.4697 131.47L19.4697 136.47C19.1768 136.763 19.1768 137.237 19.4697 137.53L24.4697 142.53C24.7626 142.823 25.2374 142.823 25.5303 142.53C25.8232 142.237 25.8232 141.763 25.5303 141.47L21.8107 137.75H26.4C28.0925 137.75 29.3168 137.751 30.2797 137.829C31.2338 137.907 31.8651 138.058 32.3835 138.322C33.3713 138.826 34.1744 139.629 34.6778 140.617C34.9419 141.135 35.0928 141.766 35.1707 142.72C35.2494 143.683 35.25 144.907 35.25 146.6V148C35.25 148.414 35.5858 148.75 36 148.75Z" fill="#5F5F6A"/>
<path fill-rule="evenodd" clip-rule="evenodd" d="M36 204.5C36.2761 204.5 36.5 204.276 36.5 204V202.577C36.5 200.916 36.5 199.639 36.4166 198.618C36.3323 197.587 36.1604 196.773 35.7915 196.049C35.1684 194.826 34.174 193.832 32.9509 193.208C32.227 192.84 31.4129 192.668 30.3815 192.583C29.3606 192.5 28.0837 192.5 26.4231 192.5H21.2071L25.3536 188.354C25.5488 188.158 25.5488 187.842 25.3536 187.646C25.1583 187.451 24.8417 187.451 24.6464 187.646L19.6464 192.646C19.4512 192.842 19.4512 193.158 19.6464 193.354L24.6464 198.354C24.8417 198.549 25.1583 198.549 25.3536 198.354C25.5488 198.158 25.5488 197.842 25.3536 197.646L21.2071 193.5H26.4C28.0884 193.5 29.3246 193.5 30.3001 193.58C31.2697 193.659 31.9374 193.814 32.4969 194.099C33.5318 194.627 34.3732 195.468 34.9005 196.503C35.1856 197.063 35.3407 197.73 35.4199 198.7C35.4996 199.675 35.5 200.912 35.5 202.6V204C35.5 204.276 35.7239 204.5 36 204.5Z" fill="#5F5F6A"/>
</svg>
