<svg width="56" height="224" viewBox="0 0 56 224" fill="none" xmlns="http://www.w3.org/2000/svg">
<path fill-rule="evenodd" clip-rule="evenodd" d="M36 19C36.5523 19 37 19.4477 37 20V21.4444C37 23.087 37 24.3809 36.9149 25.4222C36.8281 26.4846 36.6478 27.3717 36.237 28.1779C35.5659 29.4951 34.4951 30.5659 33.1779 31.237C32.3717 31.6478 31.4846 31.8281 30.4222 31.9149C29.3809 32 28.0869 32 26.4444 32H22.4142L25.7071 35.2929C26.0976 35.6834 26.0976 36.3166 25.7071 36.7071C25.3166 37.0976 24.6834 37.0976 24.2929 36.7071L19.2929 31.7071C18.9024 31.3166 18.9024 30.6834 19.2929 30.2929L24.2929 25.2929C24.6834 24.9024 25.3166 24.9024 25.7071 25.2929C26.0976 25.6834 26.0976 26.3166 25.7071 26.7071L22.4142 30H26.4C28.0967 30 29.309 29.9992 30.2594 29.9216C31.198 29.8449 31.7927 29.6982 32.27 29.455C33.2108 28.9757 33.9757 28.2108 34.455 27.27C34.6982 26.7927 34.8449 26.198 34.9216 25.2594C34.9992 24.309 35 23.0967 35 21.4V20C35 19.4477 35.4477 19 36 19Z" fill="#5F5F6A"/>
<path fill-rule="evenodd" clip-rule="evenodd" d="M36 75.125C36.4832 75.125 36.875 75.5168 36.875 76V77.4392C36.875 79.0862 36.875 80.3758 36.7903 81.412C36.7042 82.4667 36.526 83.3355 36.1257 84.1212C35.4665 85.4148 34.4148 86.4665 33.1212 87.1257C32.3355 87.526 31.4667 87.7042 30.412 87.7903C29.3758 87.875 28.0862 87.875 26.4392 87.875H22.1124L25.6187 91.3813C25.9604 91.723 25.9604 92.277 25.6187 92.6187C25.277 92.9604 24.723 92.9604 24.3813 92.6187L19.3813 87.6187C19.0396 87.277 19.0396 86.723 19.3813 86.3813L24.3813 81.3813C24.723 81.0396 25.277 81.0396 25.6187 81.3813C25.9604 81.723 25.9604 82.277 25.6187 82.6187L22.1124 86.125H26.4C28.0946 86.125 29.3129 86.1243 30.2695 86.0462C31.2159 85.9688 31.8289 85.8201 32.3267 85.5664C33.291 85.0751 34.0751 84.291 34.5664 83.3267C34.8201 82.8289 34.9688 82.2159 35.0462 81.2695C35.1243 80.3129 35.125 79.0946 35.125 77.4V76C35.125 75.5168 35.5168 75.125 36 75.125Z" fill="#5F5F6A"/>
<path fill-rule="evenodd" clip-rule="evenodd" d="M36 131.25C36.4142 131.25 36.75 131.586 36.75 132V133.434C36.75 135.085 36.75 136.371 36.6658 137.402C36.5802 138.449 36.4041 139.299 36.0143 140.064C35.3671 141.335 34.3345 142.367 33.0644 143.014C32.2993 143.404 31.4488 143.58 30.4019 143.666C29.3708 143.75 28.0854 143.75 26.434 143.75H21.8107L25.5303 147.47C25.8232 147.763 25.8232 148.237 25.5303 148.53C25.2374 148.823 24.7626 148.823 24.4697 148.53L19.4697 143.53C19.1768 143.237 19.1768 142.763 19.4697 142.47L24.4697 137.47C24.7626 137.177 25.2374 137.177 25.5303 137.47C25.8232 137.763 25.8232 138.237 25.5303 138.53L21.8107 142.25H26.4C28.0925 142.25 29.3168 142.249 30.2797 142.171C31.2338 142.093 31.8651 141.942 32.3835 141.678C33.3713 141.174 34.1744 140.371 34.6778 139.383C34.9419 138.865 35.0928 138.234 35.1707 137.28C35.2494 136.317 35.25 135.093 35.25 133.4V132C35.25 131.586 35.5858 131.25 36 131.25Z" fill="#5F5F6A"/>
<path fill-rule="evenodd" clip-rule="evenodd" d="M36 187.5C36.2761 187.5 36.5 187.724 36.5 188V189.423C36.5 191.084 36.5 192.361 36.4166 193.382C36.3323 194.413 36.1604 195.227 35.7915 195.951C35.1684 197.174 34.174 198.168 32.9509 198.792C32.227 199.16 31.4129 199.332 30.3815 199.417C29.3606 199.5 28.0837 199.5 26.4231 199.5H21.2071L25.3536 203.646C25.5488 203.842 25.5488 204.158 25.3536 204.354C25.1583 204.549 24.8417 204.549 24.6464 204.354L19.6464 199.354C19.4512 199.158 19.4512 198.842 19.6464 198.646L24.6464 193.646C24.8417 193.451 25.1583 193.451 25.3536 193.646C25.5488 193.842 25.5488 194.158 25.3536 194.354L21.2071 198.5H26.4C28.0884 198.5 29.3246 198.5 30.3001 198.42C31.2697 198.341 31.9374 198.186 32.4969 197.901C33.5318 197.373 34.3732 196.532 34.9005 195.497C35.1856 194.937 35.3407 194.27 35.4199 193.3C35.4996 192.325 35.5 191.088 35.5 189.4V188C35.5 187.724 35.7239 187.5 36 187.5Z" fill="#5F5F6A"/>
</svg>
