<svg width="56" height="168" viewBox="0 0 56 168" fill="none" xmlns="http://www.w3.org/2000/svg">
<path d="M28.9202 19.8957C28.3221 19.7014 27.6779 19.7014 27.0798 19.8957C26.6562 20.0334 26.2189 20.347 25.4341 21.0968L25.2238 21.2977L24.9331 21.3043C23.8479 21.3291 23.3169 21.4166 22.9201 21.6187C22.3598 21.9042 21.9042 22.3598 21.6187 22.9201C21.4166 23.3169 21.3291 23.8479 21.3043 24.9331L21.2977 25.2238L21.0968 25.4341C20.347 26.2189 20.0334 26.6562 19.8957 27.0798C19.7014 27.6779 19.7014 28.3221 19.8957 28.9202C20.0334 29.3438 20.347 29.7811 21.0968 30.5659L21.2977 30.7762L21.3043 31.0669C21.3291 32.1521 21.4165 32.6831 21.6187 33.0799C21.9042 33.6402 22.3598 34.0958 22.9201 34.3813C23.3169 34.5835 23.8479 34.6709 24.9331 34.6957L25.2238 34.7023L25.4341 34.9032C26.2189 35.653 26.6562 35.9666 27.0798 36.1042C27.6779 36.2986 28.3221 36.2986 28.9202 36.1042C29.3438 35.9666 29.7811 35.653 30.5659 34.9032L30.7762 34.7023L31.0669 34.6957C32.1521 34.6709 32.6831 34.5835 33.0799 34.3813C33.6402 34.0958 34.0958 33.6402 34.3813 33.0799C34.5835 32.6831 34.6709 32.1521 34.6957 31.0669L34.7023 30.7762L34.9032 30.5659C35.653 29.7811 35.9666 29.3438 36.1042 28.9202C36.2986 28.3221 36.2986 27.6779 36.1042 27.0798C35.9666 26.6562 35.653 26.2189 34.9032 25.4341L34.7023 25.2238L34.6957 24.9331C34.6709 23.8479 34.5834 23.3169 34.3813 22.9201C34.0958 22.3598 33.6402 21.9042 33.0799 21.6187C32.6831 21.4166 32.1521 21.3291 31.0669 21.3043L30.7762 21.2977L30.5659 21.0968C29.7811 20.347 29.3438 20.0334 28.9202 19.8957ZM26.6162 18.4692C27.5156 18.1769 28.4844 18.1769 29.3838 18.4692C30.0911 18.699 30.694 19.1635 31.3912 19.813C32.3435 19.8467 33.0982 19.9446 33.7609 20.2822C34.6034 20.7115 35.2885 21.3966 35.7178 22.2392C36.0554 22.9018 36.1533 23.6566 36.187 24.6088C36.8365 25.306 37.301 25.9089 37.5308 26.6162C37.8231 27.5156 37.8231 28.4844 37.5308 29.3838C37.301 30.0911 36.8365 30.694 36.187 31.3912C36.1533 32.3435 36.0554 33.0982 35.7178 33.7609C35.2885 34.6034 34.6034 35.2885 33.7609 35.7178C33.0982 36.0554 32.3434 36.1533 31.3911 36.187C30.6939 36.8365 30.0911 37.301 29.3838 37.5308C28.4844 37.8231 27.5156 37.8231 26.6162 37.5308C25.9089 37.301 25.3061 36.8365 24.6089 36.187C23.6566 36.1533 22.9018 36.0554 22.2391 35.7178C21.3966 35.2885 20.7115 34.6034 20.2822 33.7609C19.9446 33.0982 19.8467 32.3435 19.813 31.3912C19.1635 30.694 18.699 30.0911 18.4692 29.3838C18.1769 28.4844 18.1769 27.5156 18.4692 26.6162C18.699 25.9089 19.1635 25.306 19.813 24.6088C19.8467 23.6566 19.9446 22.9018 20.2822 22.2392C20.7115 21.3966 21.3966 20.7115 22.2391 20.2822C22.9018 19.9446 23.6565 19.8467 24.6088 19.813C25.306 19.1635 25.9089 18.699 26.6162 18.4692Z" fill="#5F5F6A"/>
<path opacity="0.5" d="M30.3017 25.8874C29.0888 24.7042 27.1122 24.7042 25.8993 25.8874C24.7002 27.0571 24.7002 28.9429 25.8993 30.1126C27.1122 31.2958 29.0888 31.2958 30.3017 30.1126C30.6971 29.727 31.3302 29.7348 31.7158 30.1301C32.1015 30.5255 32.0936 31.1586 31.6983 31.5443C29.7085 33.4852 26.4925 33.4852 24.5027 31.5443C22.4991 29.5897 22.4991 26.4103 24.5027 24.4557C26.4925 22.5148 29.7085 22.5148 31.6983 24.4557C32.0936 24.8414 32.1015 25.4745 31.7158 25.8699C31.3302 26.2652 30.6971 26.273 30.3017 25.8874Z" fill="#5F5F6A"/>
<path d="M25.8993 81.8874C27.1122 80.7042 29.0888 80.7042 30.3017 81.8874C30.6971 82.273 31.3302 82.2652 31.7158 81.8699C32.1015 81.4745 32.0936 80.8414 31.6983 80.4557C29.7085 78.5148 26.4925 78.5148 24.5027 80.4557C22.4991 82.4103 22.4991 85.5897 24.5027 87.5443C26.4925 89.4852 29.7085 89.4852 31.6983 87.5443C32.0936 87.1586 32.1015 86.5255 31.7158 86.1301C31.3302 85.7348 30.6971 85.727 30.3017 86.1126C29.0888 87.2958 27.1122 87.2958 25.8993 86.1126C24.7002 84.9429 24.7002 83.0571 25.8993 81.8874Z" fill="#5F5F6A"/>
<path d="M29.3838 74.4692C28.4844 74.1769 27.5156 74.1769 26.6162 74.4692C25.9089 74.699 25.306 75.1635 24.6088 75.813C23.6565 75.8467 22.9018 75.9446 22.2391 76.2822C21.3966 76.7115 20.7115 77.3966 20.2822 78.2392C19.9446 78.9018 19.8467 79.6566 19.813 80.6088C19.1635 81.306 18.699 81.9089 18.4692 82.6162C18.1769 83.5156 18.1769 84.4844 18.4692 85.3838C18.699 86.0911 19.1635 86.694 19.813 87.3912C19.8467 88.3435 19.9446 89.0982 20.2822 89.7609C20.7115 90.6034 21.3966 91.2885 22.2391 91.7178C22.9018 92.0554 23.6566 92.1533 24.6089 92.187C25.3061 92.8365 25.9089 93.301 26.6162 93.5308C27.5156 93.8231 28.4844 93.8231 29.3838 93.5308C30.0911 93.301 30.6939 92.8365 31.3911 92.187C32.3434 92.1533 33.0982 92.0554 33.7609 91.7178C34.6034 91.2885 35.2885 90.6034 35.7178 89.7609C36.0554 89.0982 36.1533 88.3435 36.187 87.3912C36.8365 86.694 37.301 86.0911 37.5308 85.3838C37.8231 84.4844 37.8231 83.5156 37.5308 82.6162C37.301 81.9089 36.8365 81.306 36.187 80.6088C36.1533 79.6566 36.0554 78.9018 35.7178 78.2392C35.2885 77.3966 34.6034 76.7115 33.7609 76.2822C33.0982 75.9446 32.3435 75.8467 31.3912 75.813C30.694 75.1635 30.0911 74.699 29.3838 74.4692ZM27.0798 75.8957C27.6779 75.7014 28.3221 75.7014 28.9202 75.8957C29.3438 76.0334 29.7811 76.347 30.5659 77.0968L30.7762 77.2977L31.0669 77.3043C32.1521 77.3291 32.6831 77.4166 33.0799 77.6187C33.6402 77.9042 34.0958 78.3598 34.3813 78.9201C34.5834 79.3169 34.6709 79.8479 34.6957 80.9331L34.7023 81.2238L34.9032 81.4341C35.653 82.2189 35.9666 82.6562 36.1042 83.0798C36.2986 83.6779 36.2986 84.3221 36.1042 84.9202C35.9666 85.3438 35.653 85.7811 34.9032 86.5659L34.7023 86.7762L34.6957 87.0669C34.6709 88.1521 34.5835 88.6831 34.3813 89.0799C34.0958 89.6402 33.6402 90.0958 33.0799 90.3813C32.6831 90.5835 32.1521 90.6709 31.0669 90.6957L30.7762 90.7023L30.5659 90.9032C29.7811 91.653 29.3438 91.9666 28.9202 92.1042C28.3221 92.2986 27.6779 92.2986 27.0798 92.1042C26.6562 91.9666 26.2189 91.653 25.4341 90.9032L25.2238 90.7023L24.9331 90.6957C23.8479 90.6709 23.3169 90.5835 22.9201 90.3813C22.3598 90.0958 21.9042 89.6402 21.6187 89.0799C21.4165 88.6831 21.3291 88.1521 21.3043 87.0669L21.2977 86.7762L21.0968 86.5659C20.347 85.7811 20.0334 85.3438 19.8957 84.9202C19.7014 84.3221 19.7014 83.6779 19.8957 83.0798C20.0334 82.6562 20.347 82.2189 21.0968 81.4341L21.2977 81.2238L21.3043 80.9331C21.3291 79.8479 21.4166 79.3169 21.6187 78.9201C21.9042 78.3598 22.3598 77.9042 22.9201 77.6187C23.3169 77.4166 23.8479 77.3291 24.9331 77.3043L25.2238 77.2977L25.4341 77.0968C26.2189 76.347 26.6562 76.0334 27.0798 75.8957Z" fill="#5F5F6A"/>
<path d="M28.9975 131.658C28.3492 131.447 27.6508 131.447 27.0025 131.658C26.5509 131.805 26.1048 132.123 25.399 132.786C25.2194 132.954 24.9842 133.052 24.7378 133.06C23.7701 133.09 23.2297 133.18 22.8066 133.396C22.1993 133.705 21.7055 134.199 21.396 134.807C21.1804 135.23 21.0898 135.77 21.0595 136.738C21.0518 136.984 20.9544 137.219 20.7856 137.399C20.1228 138.105 19.8047 138.551 19.658 139.003C19.4473 139.651 19.4473 140.349 19.658 140.997C19.8047 141.449 20.1228 141.895 20.7856 142.601C20.9544 142.781 21.0518 143.016 21.0595 143.262C21.0898 144.23 21.1804 144.77 21.396 145.193C21.7055 145.801 22.1993 146.295 22.8066 146.604C23.2297 146.82 23.7701 146.91 24.7378 146.941C24.9842 146.948 25.2194 147.046 25.3991 147.214C26.1048 147.877 26.5509 148.195 27.0025 148.342C27.6508 148.553 28.3492 148.553 28.9975 148.342C29.4491 148.195 29.8952 147.877 30.6009 147.214C30.7806 147.046 31.0158 146.948 31.2622 146.941C32.2299 146.91 32.7703 146.82 33.1934 146.604C33.8007 146.295 34.2945 145.801 34.604 145.193C34.8196 144.77 34.9102 144.23 34.9405 143.262C34.9482 143.016 35.0456 142.781 35.2144 142.601C35.8772 141.895 36.1953 141.449 36.342 140.997C36.5527 140.349 36.5527 139.651 36.342 139.003C36.1953 138.551 35.8772 138.105 35.2144 137.399C35.0456 137.219 34.9482 136.984 34.9405 136.738C34.9102 135.77 34.8196 135.23 34.604 134.807C34.2945 134.199 33.8007 133.705 33.1934 133.396C32.7703 133.18 32.2299 133.09 31.2622 133.06C31.0158 133.052 30.7806 132.954 30.601 132.786C29.8952 132.123 29.4491 131.805 28.9975 131.658ZM26.6935 130.707C27.5427 130.431 28.4573 130.431 29.3065 130.707C29.9832 130.927 30.566 131.381 31.2856 132.057C31.2877 132.059 31.2906 132.06 31.2935 132.06C32.2802 132.091 33.0134 132.182 33.6474 132.505C34.4429 132.91 35.0897 133.557 35.495 134.353C35.818 134.987 35.9091 135.72 35.94 136.706C35.9401 136.709 35.9413 136.712 35.9433 136.714C36.6192 137.434 37.0732 138.017 37.2931 138.693C37.569 139.543 37.569 140.457 37.2931 141.306C37.0732 141.983 36.6192 142.566 35.9433 143.286C35.9413 143.288 35.9401 143.291 35.94 143.294C35.9091 144.28 35.818 145.013 35.495 145.647C35.0897 146.443 34.4429 147.09 33.6474 147.495C33.0134 147.818 32.2802 147.909 31.2935 147.94C31.2906 147.94 31.2877 147.941 31.2856 147.943C30.566 148.619 29.9832 149.073 29.3065 149.293C28.4573 149.569 27.5426 149.569 26.6935 149.293C26.0168 149.073 25.434 148.619 24.7144 147.943C24.7123 147.941 24.7094 147.94 24.7065 147.94C23.7198 147.909 22.9866 147.818 22.3526 147.495C21.5571 147.09 20.9103 146.443 20.505 145.647C20.182 145.013 20.0909 144.28 20.06 143.294C20.0599 143.291 20.0587 143.288 20.0567 143.286C19.3808 142.566 18.9268 141.983 18.7069 141.306C18.431 140.457 18.431 139.543 18.7069 138.693C18.9268 138.017 19.3808 137.434 20.0567 136.714C20.0587 136.712 20.0599 136.709 20.06 136.706C20.0909 135.72 20.182 134.987 20.505 134.353C20.9103 133.557 21.5571 132.91 22.3526 132.505C22.9866 132.182 23.7198 132.091 24.7065 132.06C24.7094 132.06 24.7123 132.059 24.7144 132.057C25.434 131.381 26.0168 130.927 26.6935 130.707Z" fill="#5F5F6A"/>
<path d="M30.6509 137.529C29.2437 136.157 26.9573 136.157 25.5502 137.529C24.15 138.895 24.15 141.105 25.5502 142.471C26.9573 143.843 29.2437 143.843 30.6509 142.471C30.8485 142.278 31.1651 142.282 31.3579 142.479C31.5507 142.677 31.5468 142.994 31.3491 143.186C29.5536 144.938 26.6474 144.938 24.8519 143.186C23.0494 141.428 23.0494 138.572 24.8519 136.814C26.6474 135.062 29.5536 135.062 31.3491 136.814C31.5468 137.006 31.5507 137.323 31.3579 137.521C31.1651 137.718 30.8485 137.722 30.6509 137.529Z" fill="#5F5F6A"/>
</svg>
