<svg width="56" height="224" viewBox="0 0 56 224" fill="none" xmlns="http://www.w3.org/2000/svg">
<path d="M32 34C32 35.1046 29.7614 36 27 36C24.2386 36 22 35.1046 22 34V32.1055C23.0749 32.6444 24.9129 33 27 33C29.0871 33 30.9251 32.6444 32 32.1055V34Z" fill="#5F5F6A"/>
<path d="M32 31H31.8984C31.7182 31.139 31.4021 31.3073 30.9268 31.4658C29.9679 31.7854 28.5793 32 27 32C25.4207 32 24.0321 31.7854 23.0732 31.4658C22.5973 31.3072 22.2807 31.1391 22.1006 31H22V28.1055C23.0749 28.6444 24.9129 29 27 29C29.0871 29 30.9251 28.6444 32 28.1055V31Z" fill="#5F5F6A"/>
<path d="M35 30C35 30.6542 34.2139 31.2318 33 31.5967V28.7305C33.8026 28.5756 34.488 28.3622 35 28.1055V30Z" fill="#5F5F6A"/>
<path d="M27 25C29.7614 25 32 25.8954 32 27H31.8984C31.7182 27.139 31.4021 27.3073 30.9268 27.4658C29.9679 27.7854 28.5793 28 27 28C25.4207 28 24.0321 27.7854 23.0732 27.4658C22.5973 27.3072 22.2807 27.1391 22.1006 27H22C22 25.8954 24.2386 25 27 25Z" fill="#5F5F6A"/>
<path d="M35 27H34.8984C34.7182 27.139 34.4021 27.3073 33.9268 27.4658C33.6515 27.5576 33.3404 27.6381 33 27.71V26C33 25.5805 32.6768 25.1917 32.125 24.8701C33.3069 24.7208 34.3105 24.4512 35 24.1055V27Z" fill="#5F5F6A"/>
<path d="M30 21C32.7614 21 35 21.8954 35 23H34.8984C34.7182 23.139 34.4021 23.3073 33.9268 23.4658C32.9679 23.7854 31.5793 24 30 24C28.4207 24 27.0321 23.7854 26.0732 23.4658C25.5973 23.3072 25.2807 23.1391 25.1006 23H25C25 21.8954 27.2386 21 30 21Z" fill="#5F5F6A"/>
<path opacity="0.5" fill-rule="evenodd" clip-rule="evenodd" d="M30 76C32.7614 76 35 76.8954 35 78V85.6094C34.9358 85.6973 34.8624 85.7817 34.7793 85.8604C34.4957 86.1285 34.0977 86.359 33.6279 86.5469C33.1606 86.7337 32.6089 86.8826 32 86.9863V85.459C32.4101 85.3762 32.7719 85.2731 33.0713 85.1533L33.3174 85.0449C33.3865 85.0113 33.4464 84.9767 33.5 84.9453V83.1924C33.061 83.3565 32.5541 83.4887 32 83.584V82.0586C32.4101 81.9758 32.7719 81.8727 33.0713 81.7529L33.3174 81.6445C33.3865 81.6109 33.4465 81.5763 33.5 81.5449V79.4268C32.8787 79.6705 32.0989 79.8471 31.2285 79.9355C30.3428 79.3748 28.7809 79 27 79C26.2889 79 25.6125 79.0599 25 79.167V78C25 76.8954 27.2386 76 30 76ZM30 77.5C28.7613 77.5 27.7088 77.7036 27.0215 77.9785C27.0046 77.9853 26.9887 77.9933 26.9727 78C26.9887 78.0067 27.0046 78.0147 27.0215 78.0215C27.7088 78.2964 28.7613 78.5 30 78.5C31.2387 78.5 32.2912 78.2964 32.9785 78.0215C32.9951 78.0149 33.0106 78.0066 33.0264 78C33.0106 77.9934 32.9951 77.9851 32.9785 77.9785C32.2912 77.7036 31.2387 77.5 30 77.5Z" fill="#5F5F6A"/>
<path fill-rule="evenodd" clip-rule="evenodd" d="M26 80C28.7614 80 31 80.8954 31 82V89.6094C30.9358 89.6973 30.8624 89.7817 30.7793 89.8604C30.4957 90.1285 30.0977 90.359 29.6279 90.5469C28.6869 90.9232 27.4041 91.1504 26 91.1504C24.5959 91.1504 23.3131 90.9232 22.3721 90.5469C21.9023 90.359 21.5043 90.1285 21.2207 89.8604C21.1376 89.7817 21.0642 89.6973 21 89.6094V82C21 80.8954 23.2386 80 26 80ZM29.5 87.1924C28.5721 87.5393 27.3421 87.75 26 87.75C24.6579 87.75 23.4279 87.5393 22.5 87.1924V88.9453C22.61 89.0097 22.7505 89.082 22.9287 89.1533L23.2168 89.2578C23.9265 89.4914 24.8955 89.6504 26 89.6504C27.2622 89.6504 28.3477 89.4427 29.0713 89.1533L29.3174 89.0449C29.3865 89.0113 29.4464 88.9767 29.5 88.9453V87.1924ZM29.5 83.4268C28.5981 83.7805 27.363 84 26 84C24.637 84 23.4019 83.7805 22.5 83.4268V85.5459C22.6099 85.6102 22.7507 85.6817 22.9287 85.7529L23.2168 85.8574C23.9266 86.091 24.8955 86.25 26 86.25C27.2623 86.25 28.3477 86.0424 29.0713 85.7529L29.3174 85.6445C29.3865 85.6109 29.4465 85.5763 29.5 85.5449V83.4268ZM26 81.5C24.7613 81.5 23.7088 81.7036 23.0215 81.9785C23.0046 81.9853 22.9887 81.9933 22.9727 82C22.9887 82.0067 23.0046 82.0147 23.0215 82.0215C23.7088 82.2964 24.7613 82.5 26 82.5C27.2387 82.5 28.2912 82.2964 28.9785 82.0215C28.9951 82.0149 29.0106 82.0066 29.0264 82C29.0106 81.9934 28.9951 81.9851 28.9785 81.9785C28.2912 81.7036 27.2387 81.5 26 81.5Z" fill="#5F5F6A"/>
<path fill-rule="evenodd" clip-rule="evenodd" d="M26 136C28.7614 136 31 136.895 31 138V145.609C30.9358 145.697 30.8624 145.782 30.7793 145.86C30.4957 146.129 30.0977 146.359 29.6279 146.547C28.6869 146.923 27.4041 147.15 26 147.15C24.5959 147.15 23.3131 146.923 22.3721 146.547C21.9023 146.359 21.5043 146.129 21.2207 145.86C21.1376 145.782 21.0642 145.697 21 145.609V138C21 136.895 23.2386 136 26 136ZM29.5 143.192C28.5721 143.539 27.3421 143.75 26 143.75C24.6579 143.75 23.4279 143.539 22.5 143.192V144.945C22.61 145.01 22.7505 145.082 22.9287 145.153L23.2168 145.258C23.9265 145.491 24.8955 145.65 26 145.65C27.2622 145.65 28.3477 145.443 29.0713 145.153L29.3174 145.045C29.3865 145.011 29.4464 144.977 29.5 144.945V143.192ZM29.5 139.427C28.5981 139.781 27.363 140 26 140C24.637 140 23.4019 139.781 22.5 139.427V141.546C22.6099 141.61 22.7507 141.682 22.9287 141.753L23.2168 141.857C23.9266 142.091 24.8955 142.25 26 142.25C27.2623 142.25 28.3477 142.042 29.0713 141.753L29.3174 141.645C29.3865 141.611 29.4465 141.576 29.5 141.545V139.427ZM26 137.5C24.7613 137.5 23.7088 137.704 23.0215 137.979C23.0046 137.985 22.9887 137.993 22.9727 138C22.9887 138.007 23.0046 138.015 23.0215 138.021C23.7088 138.296 24.7613 138.5 26 138.5C27.2387 138.5 28.2912 138.296 28.9785 138.021C28.9951 138.015 29.0106 138.007 29.0264 138C29.0106 137.993 28.9951 137.985 28.9785 137.979C28.2912 137.704 27.2387 137.5 26 137.5Z" fill="#5F5F6A"/>
<path fill-rule="evenodd" clip-rule="evenodd" d="M30 132C32.7614 132 35 132.895 35 134V141.609C34.9358 141.697 34.8624 141.782 34.7793 141.86C34.4957 142.129 34.0977 142.359 33.6279 142.547C33.1606 142.734 32.6089 142.883 32 142.986V141.459C32.4101 141.376 32.7719 141.273 33.0713 141.153L33.3174 141.045C33.3865 141.011 33.4464 140.977 33.5 140.945V139.192C33.061 139.357 32.5541 139.489 32 139.584V138.059C32.4101 137.976 32.7719 137.873 33.0713 137.753L33.3174 137.645C33.3865 137.611 33.4465 137.576 33.5 137.545V135.427C32.8787 135.67 32.0989 135.847 31.2285 135.936C30.3428 135.375 28.7809 135 27 135C26.2889 135 25.6125 135.06 25 135.167V134C25 132.895 27.2386 132 30 132ZM30 133.5C28.7613 133.5 27.7088 133.704 27.0215 133.979C27.0046 133.985 26.9887 133.993 26.9727 134C26.9887 134.007 27.0046 134.015 27.0215 134.021C27.7088 134.296 28.7613 134.5 30 134.5C31.2387 134.5 32.2912 134.296 32.9785 134.021C32.9951 134.015 33.0106 134.007 33.0264 134C33.0106 133.993 32.9951 133.985 32.9785 133.979C32.2912 133.704 31.2387 133.5 30 133.5Z" fill="#5F5F6A"/>
<path fill-rule="evenodd" clip-rule="evenodd" d="M26 193C28.7614 193 31 193.895 31 195V202C31 203.105 28.7614 204 26 204C23.2386 204 21 203.105 21 202V195C21 193.895 23.2386 193 26 193ZM30 199.696C29.0879 200.182 27.6366 200.5 26 200.5C24.3634 200.5 22.9121 200.182 22 199.696V202H22.0312C22.0437 202.014 22.0592 202.032 22.0801 202.052C22.2106 202.175 22.4533 202.332 22.8359 202.485C23.5958 202.789 24.7139 203 26 203C27.2861 203 28.4042 202.789 29.1641 202.485C29.5467 202.332 29.7894 202.175 29.9199 202.052C29.9406 202.032 29.9554 202.014 29.9678 202H30V199.696ZM30 196.196C29.0879 196.682 27.6366 197 26 197C24.3634 197 22.9121 196.682 22 196.196V198.5H22.0312C22.0438 198.514 22.0592 198.532 22.0801 198.552C22.2106 198.675 22.4533 198.832 22.8359 198.985C23.5958 199.289 24.7139 199.5 26 199.5C27.2861 199.5 28.4042 199.289 29.1641 198.985C29.5467 198.832 29.7894 198.675 29.9199 198.552C29.9406 198.532 29.9553 198.514 29.9678 198.5H30V196.196ZM26 194C24.7139 194 23.5958 194.211 22.8359 194.515C22.4533 194.668 22.2106 194.825 22.0801 194.948C22.0592 194.968 22.0438 194.986 22.0312 195C22.0438 195.014 22.0592 195.032 22.0801 195.052C22.2106 195.175 22.4533 195.332 22.8359 195.485C23.5958 195.789 24.7139 196 26 196C27.2861 196 28.4042 195.789 29.1641 195.485C29.5467 195.332 29.7894 195.175 29.9199 195.052C29.9406 195.032 29.9553 195.014 29.9678 195C29.9553 194.986 29.9406 194.968 29.9199 194.948C29.7894 194.825 29.5467 194.668 29.1641 194.515C28.4042 194.211 27.2861 194 26 194Z" fill="#5F5F6A"/>
<path fill-rule="evenodd" clip-rule="evenodd" d="M30 189C32.7614 189 35 189.895 35 191V198C35 198.82 33.7658 199.523 32 199.832V198.813C32.444 198.727 32.8374 198.616 33.1641 198.485C33.5467 198.332 33.7894 198.175 33.9199 198.052C33.9406 198.032 33.9554 198.014 33.9678 198H34V195.696C33.4845 195.971 32.7961 196.188 32 196.328V195.313C32.444 195.227 32.8374 195.116 33.1641 194.985C33.5467 194.832 33.7894 194.675 33.9199 194.552C33.9406 194.532 33.9553 194.514 33.9678 194.5H34V192.196C33.3244 192.556 32.3528 192.822 31.2295 192.937C30.3439 192.375 28.7816 192 27 192C26.2889 192 25.6125 192.06 25 192.167V191C25 189.895 27.2386 189 30 189ZM30 190C28.7139 190 27.5958 190.211 26.8359 190.515C26.4533 190.668 26.2106 190.825 26.0801 190.948C26.0592 190.968 26.0438 190.986 26.0312 191C26.0438 191.014 26.0592 191.032 26.0801 191.052C26.2106 191.175 26.4533 191.332 26.8359 191.485C27.5958 191.789 28.7139 192 30 192C31.2861 192 32.4042 191.789 33.1641 191.485C33.5467 191.332 33.7894 191.175 33.9199 191.052C33.9406 191.032 33.9553 191.014 33.9678 191C33.9553 190.986 33.9406 190.968 33.9199 190.948C33.7894 190.825 33.5467 190.668 33.1641 190.515C32.4042 190.211 31.2861 190 30 190Z" fill="#5F5F6A"/>
</svg>
