<svg width="56" height="224" viewBox="0 0 56 224" fill="none" xmlns="http://www.w3.org/2000/svg">
<path d="M27.9999 22.25C28.3065 22.25 28.5823 22.4367 28.6962 22.7215C29.0503 23.6067 29.4894 24.1661 29.9353 24.5194C30.3799 24.8718 30.8679 25.0485 31.3668 25.1132C32.3933 25.2462 33.4472 24.9014 34.0976 24.6142L34.115 24.6065C34.2075 24.5656 34.3118 24.5196 34.4012 24.4878L34.4057 24.4863C34.4754 24.4614 34.6986 24.382 34.9554 24.4401C35.2257 24.5014 35.4486 24.6703 35.5807 24.914C35.7053 25.144 35.6903 25.3764 35.6855 25.4517L35.6853 25.4543C35.6793 25.5477 35.6635 25.6579 35.6499 25.753C35.3881 27.5857 35.122 29.4177 34.8646 31.251C34.7354 32.171 34.2462 32.7445 33.3307 33.0089C32.261 33.3179 30.3471 33.75 27.9999 33.75C25.6526 33.75 23.7387 33.3179 22.669 33.0089C21.7535 32.7445 21.2643 32.171 21.1351 31.251C20.8778 29.4177 20.6122 27.5856 20.3498 25.753C20.3362 25.6579 20.3204 25.5477 20.3144 25.4543L20.3142 25.4517C20.3094 25.3763 20.2944 25.144 20.419 24.914C20.5511 24.6703 20.774 24.5014 21.0444 24.4401C21.3011 24.382 21.5243 24.4614 21.5941 24.4863L21.5985 24.4878C21.6879 24.5196 21.7922 24.5656 21.8847 24.6065C21.8906 24.6091 21.8964 24.6117 21.9021 24.6142C22.5526 24.9014 23.6065 25.2462 24.6329 25.1132C25.1318 25.0485 25.6199 24.8718 26.0645 24.5194C26.5103 24.1661 26.9494 23.6067 27.3035 22.7215C27.4174 22.4367 27.6932 22.25 27.9999 22.25Z" fill="#5F5F6A"/>
<path d="M27.9999 78.25C28.3065 78.25 28.5823 78.4367 28.6962 78.7215C29.0503 79.6067 29.4894 80.1661 29.9353 80.5194C30.3799 80.8718 30.8679 81.0485 31.3668 81.1132C32.3933 81.2462 33.4472 80.9014 34.0976 80.6142L34.115 80.6065C34.2075 80.5656 34.3118 80.5196 34.4012 80.4878L34.4057 80.4863C34.4754 80.4614 34.6986 80.382 34.9554 80.4401C35.2257 80.5014 35.4486 80.6703 35.5807 80.914C35.7053 81.144 35.6903 81.3764 35.6855 81.4517L35.6853 81.4543C35.6793 81.5477 35.6635 81.6579 35.6499 81.753L34.8731 87.1903C34.8703 87.2104 34.8674 87.2306 34.8646 87.251C34.8277 87.5135 34.7875 87.8001 34.6433 88.0729C34.5239 88.2988 34.3279 88.5242 34.1207 88.6738C33.8712 88.854 33.6132 88.9279 33.3796 88.9949C33.3632 88.9996 33.3469 89.0042 33.3307 89.0089C32.261 89.3179 30.3471 89.75 27.9999 89.75C25.6526 89.75 23.7387 89.3179 22.669 89.0089C22.6529 89.0042 22.6366 88.9996 22.6202 88.9949C22.3865 88.9279 22.1285 88.854 21.879 88.6738C21.6718 88.5242 21.4759 88.2988 21.3564 88.0729C21.2122 87.8001 21.172 87.5135 21.1351 87.251C21.1323 87.2306 21.1294 87.2104 21.1266 87.1903L20.3525 81.7716C20.3516 81.7655 20.3507 81.7593 20.3498 81.753C20.3362 81.6579 20.3204 81.5477 20.3144 81.4543L20.3142 81.4517C20.3094 81.3763 20.2944 81.144 20.419 80.914C20.5511 80.6703 20.774 80.5014 21.0444 80.4401C21.3011 80.382 21.5243 80.4614 21.5941 80.4863C21.5956 80.4868 21.5971 80.4873 21.5985 80.4878C21.6879 80.5196 21.7922 80.5656 21.8847 80.6065C21.8906 80.6091 21.8964 80.6117 21.9021 80.6142C22.5526 80.9014 23.6065 81.2462 24.6329 81.1132C25.1318 81.0485 25.6199 80.8718 26.0645 80.5194C26.5103 80.1661 26.9494 79.6067 27.3035 78.7215C27.4174 78.4367 27.6932 78.25 27.9999 78.25ZM21.9343 82.2379L22.6115 86.9782C22.636 87.1496 22.6494 87.2401 22.664 87.3078C22.6704 87.337 22.6751 87.3526 22.6778 87.3604C22.68 87.367 22.6814 87.3698 22.6826 87.372C22.6822 87.3712 22.6848 87.3762 22.6916 87.3859C22.6982 87.3952 22.7067 87.4062 22.7167 87.4177C22.7266 87.4291 22.7364 87.4391 22.7447 87.4469C22.7534 87.455 22.7579 87.4583 22.7572 87.4578C22.7633 87.4622 22.7728 87.4691 22.8101 87.4831C22.8636 87.5033 22.9358 87.5247 23.0852 87.5678C24.0611 87.8497 25.8309 88.25 27.9999 88.25C30.1688 88.25 31.9386 87.8497 32.9145 87.5678C33.0639 87.5247 33.1361 87.5033 33.1896 87.4831C33.2269 87.4691 33.2359 87.4626 33.2419 87.4582C33.2412 87.4587 33.2463 87.455 33.255 87.4469C33.2634 87.4391 33.2731 87.4291 33.283 87.4177C33.293 87.4062 33.3015 87.3952 33.3081 87.3859C33.314 87.3775 33.3167 87.3727 33.3171 87.372C33.3172 87.3719 33.3172 87.3719 33.3171 87.372C33.3183 87.3698 33.3197 87.367 33.3219 87.3604C33.3246 87.3526 33.3293 87.337 33.3357 87.3078C33.3504 87.2401 33.3637 87.1496 33.3882 86.9782L34.0654 82.2379C33.3028 82.5033 32.2597 82.7414 31.174 82.6007C30.4432 82.506 29.6899 82.2389 29.0036 81.695C28.6371 81.4045 28.3003 81.0435 27.9999 80.6046C27.6995 81.0435 27.3627 81.4045 26.9962 81.695C26.3099 82.2389 25.5565 82.506 24.8257 82.6007C23.74 82.7414 22.697 82.5033 21.9343 82.2379Z" fill="#5F5F6A"/>
<path d="M27.9999 134.25C28.3065 134.25 28.5823 134.437 28.6962 134.721C29.0503 135.607 29.4894 136.166 29.9353 136.519C30.3799 136.872 30.8679 137.049 31.3668 137.113C32.3933 137.246 33.4472 136.901 34.0976 136.614L34.115 136.607C34.2075 136.566 34.3118 136.52 34.4012 136.488L34.4057 136.486C34.4754 136.461 34.6986 136.382 34.9554 136.44C35.2257 136.501 35.4486 136.67 35.5807 136.914C35.7053 137.144 35.6903 137.376 35.6855 137.452L35.6853 137.454C35.6793 137.548 35.6635 137.658 35.6499 137.753L34.8731 143.19C34.8703 143.21 34.8674 143.231 34.8646 143.251C34.8277 143.514 34.7875 143.8 34.6433 144.073C34.5239 144.299 34.3279 144.524 34.1207 144.674C33.8712 144.854 33.6132 144.928 33.3796 144.995C33.3632 145 33.3469 145.004 33.3307 145.009C32.261 145.318 30.3471 145.75 27.9999 145.75C25.6526 145.75 23.7387 145.318 22.669 145.009C22.6529 145.004 22.6366 145 22.6202 144.995C22.3865 144.928 22.1285 144.854 21.879 144.674C21.6718 144.524 21.4759 144.299 21.3564 144.073C21.2122 143.8 21.172 143.514 21.1351 143.251C21.1323 143.231 21.1294 143.21 21.1266 143.19L20.3525 137.772C20.3516 137.765 20.3507 137.759 20.3498 137.753C20.3362 137.658 20.3204 137.548 20.3144 137.454L20.3142 137.452C20.3094 137.376 20.2944 137.144 20.419 136.914C20.5511 136.67 20.774 136.501 21.0444 136.44C21.3011 136.382 21.5243 136.461 21.5941 136.486C21.5956 136.487 21.5971 136.487 21.5985 136.488C21.6879 136.52 21.7922 136.566 21.8847 136.607C21.8906 136.609 21.8964 136.612 21.9021 136.614C22.5526 136.901 23.6065 137.246 24.6329 137.113C25.1318 137.049 25.6199 136.872 26.0645 136.519C26.5103 136.166 26.9494 135.607 27.3035 134.721C27.4174 134.437 27.6932 134.25 27.9999 134.25ZM21.9343 138.238L22.6115 142.978C22.636 143.15 22.6494 143.24 22.664 143.308C22.6704 143.337 22.6751 143.353 22.6778 143.36C22.68 143.367 22.6814 143.37 22.6826 143.372C22.6822 143.371 22.6848 143.376 22.6916 143.386C22.6982 143.395 22.7067 143.406 22.7167 143.418C22.7266 143.429 22.7364 143.439 22.7447 143.447C22.7534 143.455 22.7579 143.458 22.7572 143.458C22.7633 143.462 22.7728 143.469 22.8101 143.483C22.8636 143.503 22.9358 143.525 23.0852 143.568C24.0611 143.85 25.8309 144.25 27.9999 144.25C30.1688 144.25 31.9386 143.85 32.9145 143.568C33.0639 143.525 33.1361 143.503 33.1896 143.483C33.2269 143.469 33.2359 143.463 33.2419 143.458C33.2412 143.459 33.2463 143.455 33.255 143.447C33.2634 143.439 33.2731 143.429 33.283 143.418C33.293 143.406 33.3015 143.395 33.3081 143.386C33.314 143.377 33.3167 143.373 33.3171 143.372C33.3172 143.372 33.3172 143.372 33.3171 143.372C33.3183 143.37 33.3197 143.367 33.3219 143.36C33.3246 143.353 33.3293 143.337 33.3357 143.308C33.3504 143.24 33.3637 143.15 33.3882 142.978L34.0654 138.238C33.3028 138.503 32.2597 138.741 31.174 138.601C30.4432 138.506 29.6899 138.239 29.0036 137.695C28.6371 137.405 28.3003 137.044 27.9999 136.605C27.6995 137.044 27.3627 137.405 26.9962 137.695C26.3099 138.239 25.5565 138.506 24.8257 138.601C23.74 138.741 22.697 138.503 21.9343 138.238Z" fill="#5F5F6A"/>
<path d="M28.0002 190.5C28.2047 190.5 28.3885 190.624 28.4645 190.814C28.8318 191.733 29.2946 192.33 29.7803 192.715C30.2652 193.1 30.7975 193.291 31.3351 193.361C32.4293 193.503 33.534 193.136 34.1989 192.843L34.213 192.837C34.3089 192.794 34.405 192.752 34.4852 192.723C34.5489 192.701 34.7149 192.642 34.9005 192.684C35.1006 192.729 35.2635 192.853 35.3613 193.033C35.4506 193.198 35.4407 193.369 35.4362 193.438C35.4309 193.521 35.4164 193.622 35.4023 193.721L34.626 199.155C34.6235 199.172 34.6211 199.19 34.6186 199.207C34.5801 199.479 34.5455 199.724 34.4227 199.956C34.3212 200.148 34.1508 200.344 33.9747 200.471C33.7619 200.625 33.5437 200.688 33.3032 200.757C33.2894 200.761 33.2756 200.765 33.2617 200.769C32.2076 201.073 30.3178 201.5 28.0002 201.5C25.6827 201.5 23.7928 201.073 22.7388 200.769C22.7249 200.765 22.711 200.761 22.6973 200.757C22.4568 200.688 22.2386 200.625 22.0257 200.471C21.8497 200.344 21.6793 200.148 21.5778 199.956C21.4549 199.724 21.4204 199.479 21.3818 199.207C21.3794 199.19 21.3769 199.172 21.3744 199.155L20.6003 193.736C20.5996 193.731 20.5989 193.726 20.5982 193.721C20.5841 193.622 20.5696 193.521 20.5643 193.438C20.5598 193.369 20.5499 193.198 20.6392 193.033C20.737 192.853 20.8999 192.729 21.1 192.684C21.2855 192.642 21.4514 192.701 21.5151 192.723C21.5953 192.752 21.6916 192.794 21.7875 192.837C21.7922 192.839 21.7968 192.841 21.8015 192.843C22.4665 193.136 23.5712 193.503 24.6654 193.361C25.203 193.291 25.7352 193.1 26.2201 192.715C26.7059 192.33 27.1686 191.733 27.536 190.814C27.6119 190.624 27.7958 190.5 28.0002 190.5ZM21.6275 193.855L22.3644 199.014C22.4147 199.366 22.4301 199.429 22.4619 199.489C22.4916 199.545 22.5598 199.623 22.6112 199.66C22.6681 199.702 22.7159 199.721 23.0162 199.808C24.0078 200.094 25.8016 200.5 28.0002 200.5C30.1989 200.5 31.9927 200.094 32.9842 199.808C33.2846 199.721 33.3323 199.702 33.3892 199.66C33.4407 199.623 33.5089 199.545 33.5385 199.489C33.5704 199.429 33.5857 199.366 33.6361 199.014L34.373 193.855C33.6219 194.16 32.4375 194.512 31.2065 194.353C30.5144 194.263 29.8052 194.011 29.1592 193.499C28.7291 193.158 28.3378 192.711 28.0002 192.139C27.6626 192.711 27.2714 193.158 26.8413 193.499C26.1952 194.011 25.4861 194.263 24.7939 194.353C23.563 194.512 22.3786 194.16 21.6275 193.855Z" fill="#5F5F6A"/>
</svg>
