<svg width="56" height="168" viewBox="0 0 56 168" fill="none" xmlns="http://www.w3.org/2000/svg">
<g opacity="0.5">
<path d="M25 24.5C25 25.0523 24.5523 25.5 24 25.5C23.4477 25.5 23 25.0523 23 24.5C23 23.9477 23.4477 23.5 24 23.5C24.5523 23.5 25 23.9477 25 24.5Z" fill="#5F5F6A"/>
<path d="M22 29C22.5523 29 23 28.5523 23 28C23 27.4477 22.5523 27 22 27C21.4477 27 21 27.4477 21 28C21 28.5523 21.4477 29 22 29Z" fill="#5F5F6A"/>
<path d="M34 29C34.5523 29 35 28.5523 35 28C35 27.4477 34.5523 27 34 27C33.4477 27 33 27.4477 33 28C33 28.5523 33.4477 29 34 29Z" fill="#5F5F6A"/>
<path d="M32 25.5C32.5523 25.5 33 25.0523 33 24.5C33 23.9477 32.5523 23.5 32 23.5C31.4477 23.5 31 23.9477 31 24.5C31 25.0523 31.4477 25.5 32 25.5Z" fill="#5F5F6A"/>
</g>
<path d="M31.9425 26.4983L27.8882 31.0031C26.8357 31.0611 26 31.9329 26 33H30C30 32.439 29.7691 31.932 29.3971 31.5688L33.0575 27.5017C33.3346 27.1938 33.3096 26.7196 33.0017 26.4425C32.6938 26.1654 32.2196 26.1904 31.9425 26.4983Z" fill="#5F5F6A"/>
<path d="M21 31.25C20.5858 31.25 20.25 31.5858 20.25 32C20.25 32.4142 20.5858 32.75 21 32.75H22.5C22.9142 32.75 23.25 32.4142 23.25 32C23.25 31.5858 22.9142 31.25 22.5 31.25H21Z" fill="#5F5F6A"/>
<path d="M35.75 32C35.75 31.5858 35.4142 31.25 35 31.25H33.5C33.0858 31.25 32.75 31.5858 32.75 32C32.75 32.4142 33.0858 32.75 33.5 32.75H35C35.4142 32.75 35.75 32.4142 35.75 32Z" fill="#5F5F6A"/>
<path d="M28.75 22C28.75 21.5858 28.4142 21.25 28 21.25C27.5858 21.25 27.25 21.5858 27.25 22V23.5C27.25 23.9142 27.5858 24.25 28 24.25C28.4142 24.25 28.75 23.9142 28.75 23.5V22Z" fill="#5F5F6A"/>
<path d="M28 19.25C22.0629 19.25 17.25 24.0629 17.25 30C17.25 31.4982 17.5569 32.9266 18.112 34.2243L18.1171 34.2364C18.3315 34.7376 18.4798 35.0843 18.9338 35.5676C19.1172 35.7628 19.3727 35.9588 19.6108 36.1159C19.8488 36.2729 20.1295 36.4308 20.3811 36.5227C21.0052 36.7505 21.5492 36.7503 22.3177 36.75H33.6823C34.4508 36.7503 34.9948 36.7505 35.6189 36.5227C35.8705 36.4308 36.1512 36.2729 36.3892 36.1159C36.6273 35.9588 36.8828 35.7628 37.0662 35.5676C37.5202 35.0843 37.6685 34.7376 37.8829 34.2364L37.888 34.2243C38.4431 32.9266 38.75 31.4982 38.75 30C38.75 24.0629 33.9371 19.25 28 19.25ZM18.75 30C18.75 24.8914 22.8914 20.75 28 20.75C33.1086 20.75 37.25 24.8914 37.25 30C37.25 31.2917 36.9857 32.5197 36.5089 33.6344C36.3051 34.1108 36.2416 34.2545 35.973 34.5405C35.9019 34.6162 35.7531 34.7385 35.5631 34.8639C35.3731 34.9893 35.2021 35.078 35.1045 35.1136C34.7534 35.2418 34.4727 35.25 33.6029 35.25H22.3971C21.5273 35.25 21.2466 35.2418 20.8955 35.1136C20.7979 35.078 20.6269 34.9893 20.4369 34.8639C20.2469 34.7385 20.0981 34.6162 20.027 34.5405C19.7584 34.2545 19.6949 34.1108 19.4911 33.6344C19.0143 32.5197 18.75 31.2917 18.75 30Z" fill="#5F5F6A"/>
<path d="M31.9425 82.4983L27.8882 87.0031C26.8357 87.0611 26 87.9329 26 89H30C30 88.439 29.7691 87.932 29.3971 87.5688L33.0575 83.5017C33.3346 83.1938 33.3096 82.7196 33.0017 82.4425C32.6938 82.1654 32.2196 82.1904 31.9425 82.4983Z" fill="#5F5F6A"/>
<path d="M21 87.25C20.5858 87.25 20.25 87.5858 20.25 88C20.25 88.4142 20.5858 88.75 21 88.75H22.5C22.9142 88.75 23.25 88.4142 23.25 88C23.25 87.5858 22.9142 87.25 22.5 87.25H21Z" fill="#5F5F6A"/>
<path d="M35.75 88C35.75 87.5858 35.4142 87.25 35 87.25H33.5C33.0858 87.25 32.75 87.5858 32.75 88C32.75 88.4142 33.0858 88.75 33.5 88.75H35C35.4142 88.75 35.75 88.4142 35.75 88Z" fill="#5F5F6A"/>
<path d="M34 85C34.5523 85 35 84.5523 35 84C35 83.4477 34.5523 83 34 83C33.4477 83 33 83.4477 33 84C33 84.5523 33.4477 85 34 85Z" fill="#5F5F6A"/>
<path d="M23 84C23 84.5523 22.5523 85 22 85C21.4477 85 21 84.5523 21 84C21 83.4477 21.4477 83 22 83C22.5523 83 23 83.4477 23 84Z" fill="#5F5F6A"/>
<path d="M24 81.5C24.5523 81.5 25 81.0523 25 80.5C25 79.9477 24.5523 79.5 24 79.5C23.4477 79.5 23 79.9477 23 80.5C23 81.0523 23.4477 81.5 24 81.5Z" fill="#5F5F6A"/>
<path d="M33 80.5C33 81.0523 32.5523 81.5 32 81.5C31.4477 81.5 31 81.0523 31 80.5C31 79.9477 31.4477 79.5 32 79.5C32.5523 79.5 33 79.9477 33 80.5Z" fill="#5F5F6A"/>
<path d="M28.75 78C28.75 77.5858 28.4142 77.25 28 77.25C27.5858 77.25 27.25 77.5858 27.25 78V79.5C27.25 79.9142 27.5858 80.25 28 80.25C28.4142 80.25 28.75 79.9142 28.75 79.5V78Z" fill="#5F5F6A"/>
<path d="M28 75.25C22.0629 75.25 17.25 80.0629 17.25 86C17.25 87.4982 17.5569 88.9266 18.112 90.2243L18.1171 90.2364C18.3315 90.7376 18.4798 91.0843 18.9338 91.5676C19.1172 91.7628 19.3727 91.9588 19.6108 92.1159C19.8488 92.2729 20.1295 92.4308 20.3811 92.5227C21.0052 92.7505 21.5492 92.7503 22.3177 92.75H33.6823C34.4508 92.7503 34.9948 92.7505 35.6189 92.5227C35.8705 92.4308 36.1512 92.2729 36.3892 92.1159C36.6273 91.9588 36.8828 91.7628 37.0662 91.5676C37.5202 91.0843 37.6685 90.7376 37.8829 90.2364L37.888 90.2243C38.4431 88.9266 38.75 87.4982 38.75 86C38.75 80.0629 33.9371 75.25 28 75.25ZM18.75 86C18.75 80.8914 22.8914 76.75 28 76.75C33.1086 76.75 37.25 80.8914 37.25 86C37.25 87.2917 36.9857 88.5197 36.5089 89.6344C36.3051 90.1108 36.2416 90.2545 35.973 90.5405C35.9019 90.6162 35.7531 90.7385 35.5631 90.8639C35.3731 90.9893 35.2021 91.078 35.1045 91.1136C34.7534 91.2418 34.4727 91.25 33.6029 91.25H22.3971C21.5273 91.25 21.2466 91.2418 20.8955 91.1136C20.7979 91.078 20.6269 90.9893 20.4369 90.8639C20.2469 90.7385 20.0981 90.6162 20.027 90.5405C19.7584 90.2545 19.6949 90.1108 19.4911 89.6344C19.0143 88.5197 18.75 87.2917 18.75 86Z" fill="#5F5F6A"/>
<path d="M28 143C28.0733 143 28.1456 143.004 28.2169 143.012L32.1284 138.666C32.3131 138.46 32.6292 138.444 32.8345 138.628C33.0397 138.813 33.0564 139.129 32.8717 139.334L29.2076 143.406C29.6891 143.771 30 144.349 30 145H26C26 143.895 26.8954 143 28 143Z" fill="#5F5F6A"/>
<path d="M21 143.5C20.7239 143.5 20.5 143.724 20.5 144C20.5 144.276 20.7239 144.5 21 144.5H22.5C22.7761 144.5 23 144.276 23 144C23 143.724 22.7761 143.5 22.5 143.5H21Z" fill="#5F5F6A"/>
<path d="M35.5 144C35.5 143.724 35.2761 143.5 35 143.5H33.5C33.2239 143.5 33 143.724 33 144C33 144.276 33.2239 144.5 33.5 144.5H35C35.2761 144.5 35.5 144.276 35.5 144Z" fill="#5F5F6A"/>
<path d="M34 141C34.5523 141 35 140.552 35 140C35 139.448 34.5523 139 34 139C33.4477 139 33 139.448 33 140C33 140.552 33.4477 141 34 141Z" fill="#5F5F6A"/>
<path d="M23 140C23 140.552 22.5523 141 22 141C21.4477 141 21 140.552 21 140C21 139.448 21.4477 139 22 139C22.5523 139 23 139.448 23 140Z" fill="#5F5F6A"/>
<path d="M24 137.5C24.5523 137.5 25 137.052 25 136.5C25 135.948 24.5523 135.5 24 135.5C23.4477 135.5 23 135.948 23 136.5C23 137.052 23.4477 137.5 24 137.5Z" fill="#5F5F6A"/>
<path d="M33 136.5C33 137.052 32.5523 137.5 32 137.5C31.4477 137.5 31 137.052 31 136.5C31 135.948 31.4477 135.5 32 135.5C32.5523 135.5 33 135.948 33 136.5Z" fill="#5F5F6A"/>
<path d="M28.5 134C28.5 133.724 28.2761 133.5 28 133.5C27.7239 133.5 27.5 133.724 27.5 134V135.5C27.5 135.776 27.7239 136 28 136C28.2761 136 28.5 135.776 28.5 135.5V134Z" fill="#5F5F6A"/>
<path d="M28 131.5C22.201 131.5 17.5 136.201 17.5 142C17.5 143.464 17.7998 144.859 18.3418 146.126L18.3455 146.135C18.5583 146.632 18.6923 146.945 19.116 147.396C19.2807 147.572 19.5184 147.755 19.7485 147.907C19.9785 148.059 20.2409 148.205 20.4668 148.288C21.0487 148.5 21.5515 148.5 22.3381 148.5H33.6619C34.4485 148.5 34.9513 148.5 35.5332 148.288C35.7591 148.205 36.0215 148.059 36.2515 147.907C36.4816 147.755 36.7193 147.572 36.884 147.396C37.3077 146.945 37.4417 146.632 37.6545 146.135L37.6582 146.126C38.2002 144.859 38.5 143.464 38.5 142C38.5 136.201 33.799 131.5 28 131.5ZM18.5 142C18.5 136.753 22.7533 132.5 28 132.5C33.2467 132.5 37.5 136.753 37.5 142C37.5 143.326 37.2286 144.588 36.7387 145.733C36.5327 146.214 36.4553 146.392 36.1552 146.712C36.0654 146.807 35.8988 146.942 35.7008 147.073C35.5027 147.203 35.3135 147.303 35.1903 147.348C34.7901 147.495 34.4629 147.5 33.6029 147.5H22.3971C21.5371 147.5 21.2099 147.495 20.8097 147.348C20.6865 147.303 20.4973 147.203 20.2992 147.073C20.1012 146.942 19.9346 146.807 19.8448 146.712C19.5447 146.392 19.4673 146.214 19.2613 145.733C18.7714 144.588 18.5 143.326 18.5 142Z" fill="#5F5F6A"/>
</svg>
