<svg width="56" height="224" viewBox="0 0 56 224" fill="none" xmlns="http://www.w3.org/2000/svg">
<path d="M24.5 30C25.1904 30 25.75 29.4404 25.75 28.75C25.75 28.0596 25.1904 27.5 24.5 27.5C23.8096 27.5 23.25 28.0596 23.25 28.75C23.25 29.4404 23.8096 30 24.5 30Z" fill="#5F5F6A"/>
<path d="M24.5 33.5C25.1904 33.5 25.75 32.9404 25.75 32.25C25.75 31.5596 25.1904 31 24.5 31C23.8096 31 23.25 31.5596 23.25 32.25C23.25 32.9404 23.8096 33.5 24.5 33.5Z" fill="#5F5F6A"/>
<path d="M29.25 28.75C29.25 29.4404 28.6904 30 28 30C27.3096 30 26.75 29.4404 26.75 28.75C26.75 28.0596 27.3096 27.5 28 27.5C28.6904 27.5 29.25 28.0596 29.25 28.75Z" fill="#5F5F6A"/>
<path d="M28 33.5C28.6904 33.5 29.25 32.9404 29.25 32.25C29.25 31.5596 28.6904 31 28 31C27.3096 31 26.75 31.5596 26.75 32.25C26.75 32.9404 27.3096 33.5 28 33.5Z" fill="#5F5F6A"/>
<path d="M32.75 28.75C32.75 29.4404 32.1904 30 31.5 30C30.8096 30 30.25 29.4404 30.25 28.75C30.25 28.0596 30.8096 27.5 31.5 27.5C32.1904 27.5 32.75 28.0596 32.75 28.75Z" fill="#5F5F6A"/>
<path fill-rule="evenodd" clip-rule="evenodd" d="M24 19.25C24.4142 19.25 24.75 19.5858 24.75 20V20.75H31.25V20C31.25 19.5858 31.5858 19.25 32 19.25C32.4142 19.25 32.75 19.5858 32.75 20V20.7578C32.9023 20.7622 33.0438 20.769 33.1747 20.7797C33.5546 20.8108 33.9112 20.8779 34.2485 21.0497C34.7659 21.3134 35.1866 21.7341 35.4503 22.2515C35.6221 22.5888 35.6892 22.9454 35.7203 23.3253C35.75 23.6896 35.75 24.1354 35.75 24.6695V32.3305C35.75 32.8646 35.75 33.3105 35.7203 33.6747C35.6892 34.0546 35.6221 34.4112 35.4503 34.7485C35.1866 35.2659 34.7659 35.6866 34.2485 35.9503C33.9112 36.1221 33.5546 36.1892 33.1747 36.2203C32.8104 36.25 32.3646 36.25 31.8305 36.25H24.1695C23.6354 36.25 23.1896 36.25 22.8253 36.2203C22.4454 36.1892 22.0888 36.1221 21.7515 35.9503C21.2341 35.6866 20.8134 35.2659 20.5497 34.7485C20.3779 34.4112 20.3108 34.0546 20.2797 33.6747C20.25 33.3104 20.25 32.8646 20.25 32.3305V24.6696C20.25 24.1354 20.25 23.6896 20.2797 23.3253C20.3108 22.9454 20.3779 22.5888 20.5497 22.2515C20.8134 21.7341 21.2341 21.3134 21.7515 21.0497C22.0888 20.8779 22.4454 20.8108 22.8253 20.7797C22.9562 20.769 23.0977 20.7622 23.25 20.7578V20C23.25 19.5858 23.5858 19.25 24 19.25ZM34.25 26.25H21.75V32.3C21.75 32.8724 21.7506 33.2566 21.7748 33.5525C21.7982 33.8396 21.8401 33.9769 21.8862 34.0675C22.0061 34.3027 22.1973 34.4939 22.4325 34.6138C22.5231 34.6599 22.6604 34.7018 22.9475 34.7252C23.2434 34.7494 23.6276 34.75 24.2 34.75H31.8C32.3724 34.75 32.7566 34.7494 33.0525 34.7252C33.3396 34.7018 33.4769 34.6599 33.5675 34.6138C33.8027 34.4939 33.9939 34.3027 34.1138 34.0675C34.1599 33.9769 34.2018 33.8396 34.2252 33.5525C34.2494 33.2566 34.25 32.8724 34.25 32.3V26.25ZM26.5 23C26.0858 23 25.75 23.3358 25.75 23.75C25.75 24.1642 26.0858 24.5 26.5 24.5H29.5C29.9142 24.5 30.25 24.1642 30.25 23.75C30.25 23.3358 29.9142 23 29.5 23H26.5Z" fill="#5F5F6A"/>
<path opacity="0.5" fill-rule="evenodd" clip-rule="evenodd" d="M23.25 78.2584V78.5C23.25 78.9142 23.5858 79.25 24 79.25C24.4142 79.25 24.75 78.9142 24.75 78.5V78.25H31.25V78.5C31.25 78.9142 31.5858 79.25 32 79.25C32.4142 79.25 32.75 78.9142 32.75 78.5V78.2584C32.8612 78.2621 32.9611 78.2673 33.0525 78.2748C33.3396 78.2982 33.4769 78.3401 33.5675 78.3862C33.8027 78.5061 33.9939 78.6973 34.1138 78.9325C34.1599 79.0231 34.2018 79.1604 34.2252 79.4475C34.2494 79.7434 34.25 80.1276 34.25 80.7V81.25H21.75V80.7C21.75 80.1276 21.7506 79.7434 21.7748 79.4475C21.7982 79.1604 21.8401 79.0231 21.8862 78.9325C22.0061 78.6973 22.1973 78.5061 22.4325 78.3862C22.5231 78.3401 22.6604 78.2982 22.9475 78.2748C23.0389 78.2673 23.1388 78.2621 23.25 78.2584ZM26.5 79C26.0858 79 25.75 79.3358 25.75 79.75C25.75 80.1642 26.0858 80.5 26.5 80.5H29.5C29.9142 80.5 30.25 80.1642 30.25 79.75C30.25 79.3358 29.9142 79 29.5 79H26.5Z" fill="#5F5F6A"/>
<path d="M24.5 86C25.1904 86 25.75 85.4404 25.75 84.75C25.75 84.0596 25.1904 83.5 24.5 83.5C23.8096 83.5 23.25 84.0596 23.25 84.75C23.25 85.4404 23.8096 86 24.5 86Z" fill="#5F5F6A"/>
<path d="M24.5 89.5C25.1904 89.5 25.75 88.9404 25.75 88.25C25.75 87.5596 25.1904 87 24.5 87C23.8096 87 23.25 87.5596 23.25 88.25C23.25 88.9404 23.8096 89.5 24.5 89.5Z" fill="#5F5F6A"/>
<path d="M29.25 84.75C29.25 85.4404 28.6904 86 28 86C27.3096 86 26.75 85.4404 26.75 84.75C26.75 84.0596 27.3096 83.5 28 83.5C28.6904 83.5 29.25 84.0596 29.25 84.75Z" fill="#5F5F6A"/>
<path d="M28 89.5C28.6904 89.5 29.25 88.9404 29.25 88.25C29.25 87.5596 28.6904 87 28 87C27.3096 87 26.75 87.5596 26.75 88.25C26.75 88.9404 27.3096 89.5 28 89.5Z" fill="#5F5F6A"/>
<path d="M32.75 84.75C32.75 85.4404 32.1904 86 31.5 86C30.8096 86 30.25 85.4404 30.25 84.75C30.25 84.0596 30.8096 83.5 31.5 83.5C32.1904 83.5 32.75 84.0596 32.75 84.75Z" fill="#5F5F6A"/>
<path fill-rule="evenodd" clip-rule="evenodd" d="M24 75.25C24.4142 75.25 24.75 75.5858 24.75 76V76.75H31.25V76C31.25 75.5858 31.5858 75.25 32 75.25C32.4142 75.25 32.75 75.5858 32.75 76V76.7578C32.9023 76.7622 33.0438 76.769 33.1747 76.7797C33.5546 76.8108 33.9112 76.8779 34.2485 77.0497C34.7659 77.3134 35.1866 77.7341 35.4503 78.2515C35.6221 78.5888 35.6892 78.9454 35.7203 79.3253C35.75 79.6896 35.75 80.1354 35.75 80.6695V88.3305C35.75 88.8646 35.75 89.3105 35.7203 89.6747C35.6892 90.0546 35.6221 90.4112 35.4503 90.7485C35.1866 91.2659 34.7659 91.6866 34.2485 91.9503C33.9112 92.1221 33.5546 92.1892 33.1747 92.2203C32.8104 92.25 32.3646 92.25 31.8305 92.25H24.1695C23.6354 92.25 23.1896 92.25 22.8253 92.2203C22.4454 92.1892 22.0888 92.1221 21.7515 91.9503C21.2341 91.6866 20.8134 91.2659 20.5497 90.7485C20.3779 90.4112 20.3108 90.0546 20.2797 89.6747C20.25 89.3104 20.25 88.8646 20.25 88.3305V80.6696C20.25 80.1354 20.25 79.6896 20.2797 79.3253C20.3108 78.9454 20.3779 78.5888 20.5497 78.2515C20.8134 77.7341 21.2341 77.3134 21.7515 77.0497C22.0888 76.8779 22.4454 76.8108 22.8253 76.7797C22.9562 76.769 23.0977 76.7622 23.25 76.7578V76C23.25 75.5858 23.5858 75.25 24 75.25ZM23.25 78.5V78.2584C23.1388 78.2621 23.0389 78.2673 22.9475 78.2748C22.6604 78.2982 22.5231 78.3401 22.4325 78.3862C22.1973 78.5061 22.0061 78.6973 21.8862 78.9325C21.8401 79.0231 21.7982 79.1604 21.7748 79.4475C21.7506 79.7434 21.75 80.1276 21.75 80.7V81.25H34.25V80.7C34.25 80.1276 34.2494 79.7434 34.2252 79.4475C34.2018 79.1604 34.1599 79.0231 34.1138 78.9325C33.9939 78.6973 33.8027 78.5061 33.5675 78.3862C33.4769 78.3401 33.3396 78.2982 33.0525 78.2748C32.9611 78.2673 32.8612 78.2621 32.75 78.2584V78.5C32.75 78.9142 32.4142 79.25 32 79.25C31.5858 79.25 31.25 78.9142 31.25 78.5V78.25H24.75V78.5C24.75 78.9142 24.4142 79.25 24 79.25C23.5858 79.25 23.25 78.9142 23.25 78.5ZM34.25 82.25H21.75V88.3C21.75 88.8724 21.7506 89.2566 21.7748 89.5525C21.7982 89.8396 21.8401 89.9769 21.8862 90.0675C22.0061 90.3027 22.1973 90.4939 22.4325 90.6138C22.5231 90.6599 22.6604 90.7018 22.9475 90.7252C23.2434 90.7494 23.6276 90.75 24.2 90.75H31.8C32.3724 90.75 32.7566 90.7494 33.0525 90.7252C33.3396 90.7018 33.4769 90.6599 33.5675 90.6138C33.8027 90.4939 33.9939 90.3027 34.1138 90.0675C34.1599 89.9769 34.2018 89.8396 34.2252 89.5525C34.2494 89.2566 34.25 88.8724 34.25 88.3V82.25Z" fill="#5F5F6A"/>
<path d="M24.5 142C25.1904 142 25.75 141.44 25.75 140.75C25.75 140.06 25.1904 139.5 24.5 139.5C23.8096 139.5 23.25 140.06 23.25 140.75C23.25 141.44 23.8096 142 24.5 142Z" fill="#5F5F6A"/>
<path d="M24.5 145.5C25.1904 145.5 25.75 144.94 25.75 144.25C25.75 143.56 25.1904 143 24.5 143C23.8096 143 23.25 143.56 23.25 144.25C23.25 144.94 23.8096 145.5 24.5 145.5Z" fill="#5F5F6A"/>
<path d="M29.25 140.75C29.25 141.44 28.6904 142 28 142C27.3096 142 26.75 141.44 26.75 140.75C26.75 140.06 27.3096 139.5 28 139.5C28.6904 139.5 29.25 140.06 29.25 140.75Z" fill="#5F5F6A"/>
<path d="M28 145.5C28.6904 145.5 29.25 144.94 29.25 144.25C29.25 143.56 28.6904 143 28 143C27.3096 143 26.75 143.56 26.75 144.25C26.75 144.94 27.3096 145.5 28 145.5Z" fill="#5F5F6A"/>
<path d="M32.75 140.75C32.75 141.44 32.1904 142 31.5 142C30.8096 142 30.25 141.44 30.25 140.75C30.25 140.06 30.8096 139.5 31.5 139.5C32.1904 139.5 32.75 140.06 32.75 140.75Z" fill="#5F5F6A"/>
<path fill-rule="evenodd" clip-rule="evenodd" d="M24 131.25C24.4142 131.25 24.75 131.586 24.75 132V132.75H31.25V132C31.25 131.586 31.5858 131.25 32 131.25C32.4142 131.25 32.75 131.586 32.75 132V132.758C32.9023 132.762 33.0438 132.769 33.1747 132.78C33.5546 132.811 33.9112 132.878 34.2485 133.05C34.7659 133.313 35.1866 133.734 35.4503 134.252C35.6221 134.589 35.6892 134.945 35.7203 135.325C35.75 135.69 35.75 136.135 35.75 136.67V144.33C35.75 144.865 35.75 145.31 35.7203 145.675C35.6892 146.055 35.6221 146.411 35.4503 146.748C35.1866 147.266 34.7659 147.687 34.2485 147.95C33.9112 148.122 33.5546 148.189 33.1747 148.22C32.8104 148.25 32.3646 148.25 31.8305 148.25H24.1695C23.6354 148.25 23.1896 148.25 22.8253 148.22C22.4454 148.189 22.0888 148.122 21.7515 147.95C21.2341 147.687 20.8134 147.266 20.5497 146.748C20.3779 146.411 20.3108 146.055 20.2797 145.675C20.25 145.31 20.25 144.865 20.25 144.33V136.67C20.25 136.135 20.25 135.69 20.2797 135.325C20.3108 134.945 20.3779 134.589 20.5497 134.252C20.8134 133.734 21.2341 133.313 21.7515 133.05C22.0888 132.878 22.4454 132.811 22.8253 132.78C22.9562 132.769 23.0977 132.762 23.25 132.758V132C23.25 131.586 23.5858 131.25 24 131.25ZM23.25 134.5V134.258C23.1388 134.262 23.0389 134.267 22.9475 134.275C22.6604 134.298 22.5231 134.34 22.4325 134.386C22.1973 134.506 22.0061 134.697 21.8862 134.933C21.8401 135.023 21.7982 135.16 21.7748 135.447C21.7506 135.743 21.75 136.128 21.75 136.7V137.25H34.25V136.7C34.25 136.128 34.2494 135.743 34.2252 135.447C34.2018 135.16 34.1599 135.023 34.1138 134.933C33.9939 134.697 33.8027 134.506 33.5675 134.386C33.4769 134.34 33.3396 134.298 33.0525 134.275C32.9611 134.267 32.8612 134.262 32.75 134.258V134.5C32.75 134.914 32.4142 135.25 32 135.25C31.5858 135.25 31.25 134.914 31.25 134.5V134.25H24.75V134.5C24.75 134.914 24.4142 135.25 24 135.25C23.5858 135.25 23.25 134.914 23.25 134.5ZM34.25 138.25H21.75V144.3C21.75 144.872 21.7506 145.257 21.7748 145.553C21.7982 145.84 21.8401 145.977 21.8862 146.067C22.0061 146.303 22.1973 146.494 22.4325 146.614C22.5231 146.66 22.6604 146.702 22.9475 146.725C23.2434 146.749 23.6276 146.75 24.2 146.75H31.8C32.3724 146.75 32.7566 146.749 33.0525 146.725C33.3396 146.702 33.4769 146.66 33.5675 146.614C33.8027 146.494 33.9939 146.303 34.1138 146.067C34.1599 145.977 34.2018 145.84 34.2252 145.553C34.2494 145.257 34.25 144.872 34.25 144.3V138.25Z" fill="#5F5F6A"/>
<path fill-rule="evenodd" clip-rule="evenodd" d="M25.75 135.75C25.75 135.336 26.0858 135 26.5 135H29.5C29.9142 135 30.25 135.336 30.25 135.75C30.25 136.164 29.9142 136.5 29.5 136.5H26.5C26.0858 136.5 25.75 136.164 25.75 135.75Z" fill="#5F5F6A"/>
<path d="M26.5 191.25C26.2239 191.25 26 191.474 26 191.75C26 192.026 26.2239 192.25 26.5 192.25H29.5C29.7761 192.25 30 192.026 30 191.75C30 191.474 29.7761 191.25 29.5 191.25H26.5Z" fill="#5F5F6A"/>
<path d="M25.5 196.75C25.5 197.302 25.0523 197.75 24.5 197.75C23.9477 197.75 23.5 197.302 23.5 196.75C23.5 196.198 23.9477 195.75 24.5 195.75C25.0523 195.75 25.5 196.198 25.5 196.75Z" fill="#5F5F6A"/>
<path d="M25.5 200.25C25.5 200.802 25.0523 201.25 24.5 201.25C23.9477 201.25 23.5 200.802 23.5 200.25C23.5 199.698 23.9477 199.25 24.5 199.25C25.0523 199.25 25.5 199.698 25.5 200.25Z" fill="#5F5F6A"/>
<path d="M28 197.75C28.5523 197.75 29 197.302 29 196.75C29 196.198 28.5523 195.75 28 195.75C27.4477 195.75 27 196.198 27 196.75C27 197.302 27.4477 197.75 28 197.75Z" fill="#5F5F6A"/>
<path d="M29 200.25C29 200.802 28.5523 201.25 28 201.25C27.4477 201.25 27 200.802 27 200.25C27 199.698 27.4477 199.25 28 199.25C28.5523 199.25 29 199.698 29 200.25Z" fill="#5F5F6A"/>
<path d="M31.5 197.75C32.0523 197.75 32.5 197.302 32.5 196.75C32.5 196.198 32.0523 195.75 31.5 195.75C30.9477 195.75 30.5 196.198 30.5 196.75C30.5 197.302 30.9477 197.75 31.5 197.75Z" fill="#5F5F6A"/>
<path fill-rule="evenodd" clip-rule="evenodd" d="M24 187.5C24.2761 187.5 24.5 187.724 24.5 188V189H31.5V188C31.5 187.724 31.7239 187.5 32 187.5C32.2761 187.5 32.5 187.724 32.5 188V189.003C32.745 189.006 32.9619 189.013 33.1543 189.029C33.5187 189.059 33.8388 189.122 34.135 189.272C34.6054 189.512 34.9878 189.895 35.2275 190.365C35.3784 190.661 35.4413 190.981 35.4711 191.346C35.5 191.7 35.5 192.137 35.5 192.679V200.321C35.5 200.863 35.5 201.3 35.4711 201.654C35.4413 202.019 35.3784 202.339 35.2275 202.635C34.9878 203.105 34.6054 203.488 34.135 203.728C33.8388 203.878 33.5187 203.941 33.1543 203.971C32.8004 204 32.3635 204 31.8217 204H24.1786C23.6368 204 23.1996 204 22.8457 203.971C22.4813 203.941 22.1612 203.878 21.865 203.728C21.3946 203.488 21.0122 203.105 20.7725 202.635C20.6216 202.339 20.5587 202.019 20.5289 201.654C20.5 201.3 20.5 200.863 20.5 200.321V192.679C20.5 192.204 20.5 191.811 20.5194 191.482C20.5221 191.435 20.5253 191.39 20.5289 191.346C20.5587 190.981 20.6216 190.661 20.7725 190.365C21.0122 189.895 21.3946 189.512 21.865 189.272C22.1612 189.122 22.4813 189.059 22.8457 189.029C23.0381 189.013 23.255 189.006 23.5 189.003V188C23.5 187.724 23.7239 187.5 24 187.5ZM23.5 190.5V190.003C23.2765 190.006 23.0896 190.012 22.9271 190.026C22.6245 190.05 22.4507 190.096 22.319 190.163C22.0368 190.307 21.8073 190.537 21.6635 190.819C21.5964 190.951 21.5503 191.125 21.5256 191.427C21.5004 191.736 21.5 192.132 21.5 192.7V193.25H34.5V192.7C34.5 192.132 34.4996 191.736 34.4744 191.427C34.4497 191.125 34.4036 190.951 34.3365 190.819C34.1927 190.537 33.9632 190.307 33.681 190.163C33.5493 190.096 33.3755 190.05 33.0729 190.026C32.9104 190.012 32.7235 190.006 32.5 190.003V190.5C32.5 190.776 32.2761 191 32 191C31.7239 191 31.5 190.776 31.5 190.5V190H24.5V190.5C24.5 190.776 24.2761 191 24 191C23.7239 191 23.5 190.776 23.5 190.5ZM34.5 194.25H21.5V200.3C21.5 200.868 21.5004 201.264 21.5256 201.573C21.5503 201.875 21.5964 202.049 21.6635 202.181C21.8073 202.463 22.0368 202.693 22.319 202.837C22.4507 202.904 22.6245 202.95 22.9271 202.974C23.2355 203 23.6317 203 24.2 203H31.8C32.3683 203 32.7645 203 33.0729 202.974C33.3755 202.95 33.5493 202.904 33.681 202.837C33.9632 202.693 34.1927 202.463 34.3365 202.181C34.4036 202.049 34.4497 201.875 34.4744 201.573C34.4996 201.264 34.5 200.868 34.5 200.3V194.25Z" fill="#5F5F6A"/>
</svg>
