<svg width="56" height="224" viewBox="0 0 56 224" fill="none" xmlns="http://www.w3.org/2000/svg">
<path fill-rule="evenodd" clip-rule="evenodd" d="M38.25 21.5C38.25 19.2909 36.4591 17.5 34.25 17.5C32.0409 17.5 30.25 19.2909 30.25 21.5C30.25 23.7091 32.0409 25.5 34.25 25.5C36.4591 25.5 38.25 23.7091 38.25 21.5ZM36.1036 20.1464C36.2988 20.3417 36.2988 20.6583 36.1036 20.8536L34.1036 22.8536C33.9083 23.0488 33.5917 23.0488 33.3964 22.8536L32.3964 21.8536C32.2012 21.6583 32.2012 21.3417 32.3964 21.1464C32.5917 20.9512 32.9083 20.9512 33.1036 21.1464L33.75 21.7929L35.3964 20.1464C35.5917 19.9512 35.9083 19.9512 36.1036 20.1464Z" fill="#5F5F6A"/>
<path fill-rule="evenodd" clip-rule="evenodd" d="M34.25 27.5C34.504 27.5 34.7543 27.4842 35 27.4536L35 30.5C35 30.5259 34.9987 30.5515 34.9961 30.5768C34.9923 30.7964 34.9849 30.9954 34.9703 31.1747C34.9392 31.5546 34.8721 31.9112 34.7003 32.2485C34.4366 32.7659 34.0159 33.1866 33.4985 33.4503C33.1612 33.6221 32.8046 33.6892 32.4247 33.7203C32.0605 33.75 31.6146 33.75 31.0805 33.75H27.8316C27.5507 34.3412 26.9481 34.75 26.25 34.75C25.5519 34.75 24.9493 34.3412 24.6684 33.75H21.4195C20.8854 33.75 20.4396 33.75 20.0753 33.7203C19.6954 33.6892 19.3388 33.6221 19.0015 33.4503C18.4841 33.1866 18.0634 32.7659 17.7997 32.2485C17.6279 31.9112 17.5608 31.5546 17.5297 31.1747C17.5151 30.9954 17.5077 30.7964 17.5039 30.5768C17.5013 30.5516 17.5 30.5259 17.5 30.5V24.1696C17.5 23.6354 17.5 23.1896 17.5297 22.8253C17.5608 22.4454 17.6279 22.0888 17.7997 21.7515C18.0634 21.2341 18.4841 20.8134 19.0015 20.5497C19.3388 20.3779 19.6954 20.3108 20.0753 20.2797C20.4396 20.25 20.8854 20.25 21.4195 20.25H28.3804C28.295 20.6532 28.25 21.0713 28.25 21.5C28.25 24.8137 30.9363 27.5 34.25 27.5ZM31.05 32.25C31.6224 32.25 32.0066 32.2494 32.3025 32.2252C32.5896 32.2018 32.7269 32.1599 32.8175 32.1138C33.0527 31.9939 33.2439 31.8027 33.3638 31.5675C33.3978 31.5008 33.4294 31.4087 33.4531 31.25H19.0469C19.0706 31.4087 19.1022 31.5008 19.1362 31.5675C19.2561 31.8027 19.4473 31.9939 19.6825 32.1138C19.7731 32.1599 19.9104 32.2018 20.1975 32.2252C20.4934 32.2494 20.8776 32.25 21.45 32.25H31.05Z" fill="#5F5F6A"/>
<path d="M25 35C25 34.5858 24.6642 34.25 24.25 34.25C23.8358 34.25 23.5 34.5858 23.5 35V35.2842C23.5 35.6546 23.2479 35.9774 22.8886 36.0673L22.4935 36.1661C21.9096 36.312 21.5 36.8366 21.5 37.4384C21.5 38.1628 22.0872 38.75 22.8116 38.75H29.6884C30.4128 38.75 31 38.1628 31 37.4384C31 36.8366 30.5904 36.312 30.0065 36.1661L29.6114 36.0673C29.2521 35.9774 29 35.6546 29 35.2842V35C29 34.5858 28.6642 34.25 28.25 34.25C27.8358 34.25 27.5 34.5858 27.5 35V35.2842C27.5 36.102 27.9299 36.8387 28.599 37.25H23.901C24.5701 36.8387 25 36.102 25 35.2842V35Z" fill="#5F5F6A"/>
<path opacity="0.5" d="M34.25 83.5V86.5H18.25V80.2C18.25 79.0799 18.25 78.5198 18.468 78.092C18.6597 77.7157 18.9657 77.4097 19.342 77.218C19.7698 77 20.3299 77 21.45 77H28.2705C28.2569 77.1649 28.25 77.3316 28.25 77.5C28.25 80.8137 30.9363 83.5 34.25 83.5Z" fill="#5F5F6A"/>
<path fill-rule="evenodd" clip-rule="evenodd" d="M38.25 77.5C38.25 75.2909 36.4591 73.5 34.25 73.5C32.0409 73.5 30.25 75.2909 30.25 77.5C30.25 79.7091 32.0409 81.5 34.25 81.5C36.4591 81.5 38.25 79.7091 38.25 77.5ZM36.1036 76.1464C36.2988 76.3417 36.2988 76.6583 36.1036 76.8536L34.1036 78.8536C33.9083 79.0488 33.5917 79.0488 33.3964 78.8536L32.3964 77.8536C32.2012 77.6583 32.2012 77.3417 32.3964 77.1464C32.5917 76.9512 32.9083 76.9512 33.1036 77.1464L33.75 77.7929L35.3964 76.1464C35.5917 75.9512 35.9083 75.9512 36.1036 76.1464Z" fill="#5F5F6A"/>
<path fill-rule="evenodd" clip-rule="evenodd" d="M21.4196 76.25H28.3804C28.295 76.6532 28.25 77.0713 28.25 77.5C28.25 77.5837 28.2517 77.6671 28.2551 77.75H21.45C20.8776 77.75 20.4934 77.7506 20.1975 77.7748C19.9104 77.7982 19.7731 77.8401 19.6825 77.8862C19.4473 78.0061 19.2561 78.1973 19.1362 78.4325C19.0901 78.5231 19.0482 78.6604 19.0248 78.9475C19.0021 79.2249 19.0002 79.5799 19 80.0949L19 85.75H33.5V83.4536C33.7457 83.4842 33.996 83.5 34.25 83.5C34.504 83.5 34.7543 83.4842 35 83.4536L35 86.5C35 86.5259 34.9987 86.5515 34.9961 86.5768C34.9923 86.7964 34.9849 86.9954 34.9703 87.1747C34.9392 87.5546 34.8721 87.9112 34.7003 88.2485C34.4366 88.7659 34.0159 89.1866 33.4985 89.4503C33.1612 89.6221 32.8046 89.6892 32.4247 89.7203C32.0605 89.75 31.6146 89.75 31.0805 89.75H27.8316C27.5507 90.3412 26.9481 90.75 26.25 90.75C25.5519 90.75 24.9493 90.3412 24.6684 89.75H21.4195C20.8854 89.75 20.4396 89.75 20.0753 89.7203C19.6954 89.6892 19.3388 89.6221 19.0015 89.4503C18.4841 89.1866 18.0634 88.7659 17.7997 88.2485C17.6279 87.9112 17.5608 87.5546 17.5297 87.1747C17.5151 86.9954 17.5077 86.7964 17.5039 86.5768C17.5013 86.5516 17.5 86.5259 17.5 86.5V80.1695C17.5 79.6354 17.5 79.1896 17.5297 78.8253C17.5608 78.4454 17.6279 78.0888 17.7997 77.7515C18.0634 77.2341 18.4841 76.8134 19.0015 76.5497C19.3388 76.3779 19.6954 76.3108 20.0753 76.2797C20.4396 76.25 20.8854 76.25 21.4196 76.25ZM32.3025 88.2252C32.0066 88.2494 31.6224 88.25 31.05 88.25H21.45C20.8776 88.25 20.4934 88.2494 20.1975 88.2252C19.9104 88.2018 19.7731 88.1599 19.6825 88.1138C19.4473 87.9939 19.2561 87.8027 19.1362 87.5675C19.1022 87.5008 19.0706 87.4087 19.0469 87.25H33.4531C33.4294 87.4087 33.3978 87.5008 33.3638 87.5675C33.2439 87.8027 33.0527 87.9939 32.8175 88.1138C32.7269 88.1599 32.5896 88.2018 32.3025 88.2252Z" fill="#5F5F6A"/>
<path d="M24.25 90.25C24.6642 90.25 25 90.5858 25 91V91.2842C25 92.102 24.5701 92.8387 23.901 93.25H28.599C27.9299 92.8387 27.5 92.102 27.5 91.2842V91C27.5 90.5858 27.8358 90.25 28.25 90.25C28.6642 90.25 29 90.5858 29 91V91.2842C29 91.6546 29.2521 91.9774 29.6114 92.0673L30.0065 92.1661C30.5904 92.312 31 92.8366 31 93.4384C31 94.1628 30.4128 94.75 29.6884 94.75H22.8116C22.0872 94.75 21.5 94.1628 21.5 93.4384C21.5 92.8366 21.9096 92.312 22.4935 92.1661L22.8886 92.0673C23.2479 91.9774 23.5 91.6546 23.5 91.2842V91C23.5 90.5858 23.8358 90.25 24.25 90.25Z" fill="#5F5F6A"/>
<path fill-rule="evenodd" clip-rule="evenodd" d="M38.4004 133.35C38.4004 131.141 36.6095 129.35 34.4004 129.35C32.1913 129.35 30.4004 131.141 30.4004 133.35C30.4004 135.559 32.1913 137.35 34.4004 137.35C36.6095 137.35 38.4004 135.559 38.4004 133.35ZM36.2539 131.996C36.4492 132.192 36.4492 132.508 36.2539 132.704L34.2539 134.704C34.0587 134.899 33.7421 134.899 33.5468 134.704L32.5468 133.704C32.3516 133.508 32.3516 133.192 32.5468 132.996C32.7421 132.801 33.0587 132.801 33.2539 132.996L33.9004 133.643L35.5468 131.996C35.7421 131.801 36.0587 131.801 36.2539 131.996Z" fill="#5F5F6A"/>
<path fill-rule="evenodd" clip-rule="evenodd" d="M21.57 132.1H28.5308C28.4453 132.503 28.4004 132.921 28.4004 133.35C28.4004 133.434 28.4021 133.517 28.4055 133.6H21.6004C21.028 133.6 20.6437 133.601 20.3479 133.625C20.0607 133.648 19.9235 133.69 19.8329 133.736C19.5977 133.856 19.4065 134.047 19.2866 134.283C19.2405 134.373 19.1986 134.51 19.1751 134.797C19.1525 135.075 19.1506 135.43 19.1504 135.945L19.1504 141.6H33.6504V139.304C33.8961 139.334 34.1464 139.35 34.4004 139.35C34.6544 139.35 34.9047 139.334 35.1504 139.304L35.1504 142.35C35.1504 142.376 35.1491 142.402 35.1465 142.427C35.1427 142.646 35.1353 142.845 35.1207 143.025C35.0896 143.405 35.0225 143.761 34.8507 144.098C34.587 144.616 34.1663 145.037 33.6489 145.3C33.3116 145.472 32.9549 145.539 32.5751 145.57C32.2108 145.6 31.765 145.6 31.2308 145.6H27.982C27.7011 146.191 27.0985 146.6 26.4004 146.6C25.7023 146.6 25.0997 146.191 24.8188 145.6H21.5699C21.0358 145.6 20.5899 145.6 20.2257 145.57C19.8458 145.539 19.4892 145.472 19.1519 145.3C18.6345 145.037 18.2138 144.616 17.9501 144.098C17.7783 143.761 17.7112 143.405 17.6801 143.025C17.6655 142.845 17.658 142.646 17.6543 142.427C17.6517 142.402 17.6504 142.376 17.6504 142.35V136.02C17.6504 135.485 17.6504 135.04 17.6801 134.675C17.7112 134.295 17.7783 133.939 17.9501 133.602C18.2138 133.084 18.6345 132.663 19.1519 132.4C19.4892 132.228 19.8458 132.161 20.2257 132.13C20.59 132.1 21.0358 132.1 21.57 132.1ZM21.6004 144.1C21.028 144.1 20.6437 144.099 20.3479 144.075C20.0607 144.052 19.9235 144.01 19.8329 143.964C19.5977 143.844 19.4065 143.653 19.2866 143.417C19.2526 143.351 19.221 143.259 19.1972 143.1H33.6035C33.5798 143.259 33.5481 143.351 33.5141 143.417C33.3943 143.653 33.2031 143.844 32.9679 143.964C32.8773 144.01 32.74 144.052 32.4529 144.075C32.157 144.099 31.7728 144.1 31.2004 144.1H21.6004Z" fill="#5F5F6A"/>
<path d="M24.4004 146.1C24.8146 146.1 25.1504 146.436 25.1504 146.85V147.134C25.1504 147.952 24.7205 148.689 24.0514 149.1H28.7494C28.0803 148.689 27.6504 147.952 27.6504 147.134V146.85C27.6504 146.436 27.9862 146.1 28.4004 146.1C28.8146 146.1 29.1504 146.436 29.1504 146.85V147.134C29.1504 147.505 29.4025 147.827 29.7618 147.917L30.1569 148.016C30.7408 148.162 31.1504 148.687 31.1504 149.288C31.1504 150.013 30.5632 150.6 29.8388 150.6H22.9619C22.2376 150.6 21.6504 150.013 21.6504 149.288C21.6504 148.687 22.06 148.162 22.6438 148.016L23.039 147.917C23.3983 147.827 23.6504 147.505 23.6504 147.134V146.85C23.6504 146.436 23.9862 146.1 24.4004 146.1Z" fill="#5F5F6A"/>
<path fill-rule="evenodd" clip-rule="evenodd" d="M38.25 189.5C38.25 187.291 36.4591 185.5 34.25 185.5C32.0409 185.5 30.25 187.291 30.25 189.5C30.25 191.709 32.0409 193.5 34.25 193.5C36.4591 193.5 38.25 191.709 38.25 189.5ZM36.1036 188.146C36.2988 188.342 36.2988 188.658 36.1036 188.854L34.1036 190.854C33.9083 191.049 33.5917 191.049 33.3964 190.854L32.3964 189.854C32.2012 189.658 32.2012 189.342 32.3964 189.146C32.5917 188.951 32.9083 188.951 33.1036 189.146L33.75 189.793L35.3964 188.146C35.5917 187.951 35.9083 187.951 36.1036 188.146Z" fill="#5F5F6A"/>
<path fill-rule="evenodd" clip-rule="evenodd" d="M21.4286 188.5H28.333C28.2784 188.825 28.25 189.159 28.25 189.5H21.45C20.8817 189.5 20.4855 189.5 20.1771 189.526C19.8745 189.55 19.7007 189.596 19.569 189.663C19.2868 189.807 19.0573 190.037 18.9135 190.319C18.8506 190.442 18.8062 190.603 18.7805 190.872C18.7788 190.89 18.7771 190.908 18.7756 190.927C18.752 191.216 18.7501 191.583 18.75 192.095L18.7501 198H33.7499L33.75 195.479C33.9148 195.493 34.0816 195.5 34.25 195.5C34.4184 195.5 34.5851 195.493 34.75 195.479L34.75 198.5C34.75 198.521 34.7488 198.541 34.7464 198.561C34.7427 198.781 34.7355 198.978 34.7211 199.154C34.6913 199.519 34.6284 199.839 34.4775 200.135C34.2378 200.605 33.8554 200.988 33.385 201.228C33.0888 201.378 32.7687 201.441 32.4043 201.471C32.0504 201.5 31.6133 201.5 31.0715 201.5H27.6646C27.4587 202.083 26.9031 202.5 26.25 202.5C25.5969 202.5 25.0413 202.083 24.8354 201.5H21.4285C20.8867 201.5 20.4496 201.5 20.0957 201.471C19.7313 201.441 19.4112 201.378 19.115 201.228C18.6446 200.988 18.2622 200.605 18.0225 200.135C17.8716 199.839 17.8087 199.519 17.7789 199.154C17.7645 198.978 17.7573 198.781 17.7536 198.561C17.7512 198.541 17.75 198.521 17.75 198.5V192.179C17.75 191.637 17.75 191.2 17.7789 190.846C17.8087 190.481 17.8716 190.161 18.0225 189.865C18.2622 189.395 18.6446 189.012 19.115 188.772C19.4112 188.622 19.7313 188.559 20.0957 188.529C20.4496 188.5 20.8867 188.5 21.4286 188.5ZM31.05 200.5H21.45C20.8817 200.5 20.4855 200.5 20.1771 200.474C19.8745 200.45 19.7007 200.404 19.569 200.337C19.2868 200.193 19.0573 199.963 18.9135 199.681C18.8464 199.549 18.8003 199.375 18.7756 199.073C18.7736 199.049 18.7719 199.025 18.7702 199H33.7298L33.7275 199.033L33.7244 199.073C33.6997 199.375 33.6536 199.549 33.5865 199.681C33.4427 199.963 33.2132 200.193 32.931 200.337C32.7993 200.404 32.6255 200.45 32.3229 200.474C32.0145 200.5 31.6183 200.5 31.05 200.5Z" fill="#5F5F6A"/>
<path d="M24.25 202.5C24.5261 202.5 24.75 202.724 24.75 203V203.284C24.75 204.228 24.1076 205.051 23.1918 205.28L22.7966 205.379C22.7692 205.386 22.75 205.41 22.75 205.438C22.75 205.472 22.7776 205.5 22.8116 205.5H29.6884C29.7224 205.5 29.75 205.472 29.75 205.438C29.75 205.41 29.7308 205.386 29.7034 205.379L29.3082 205.28C28.3924 205.051 27.75 204.228 27.75 203.284V203C27.75 202.724 27.9739 202.5 28.25 202.5C28.5261 202.5 28.75 202.724 28.75 203V203.284C28.75 203.769 29.0801 204.192 29.5508 204.31L29.9459 204.409C30.4185 204.527 30.75 204.951 30.75 205.438C30.75 206.025 30.2747 206.5 29.6884 206.5H22.8116C22.2253 206.5 21.75 206.025 21.75 205.438C21.75 204.951 22.0815 204.527 22.5541 204.409L22.9492 204.31C23.4199 204.192 23.75 203.769 23.75 203.284V203C23.75 202.724 23.9739 202.5 24.25 202.5Z" fill="#5F5F6A"/>
</svg>
