<svg width="56" height="224" viewBox="0 0 56 224" fill="none" xmlns="http://www.w3.org/2000/svg">
<path d="M21.2798 22.75C21.1576 22.75 21.0252 22.7499 20.9105 22.7593C20.7808 22.7699 20.6093 22.7961 20.4325 22.8862C20.1973 23.0061 20.0061 23.1973 19.8862 23.4325C19.7961 23.6093 19.7699 23.7808 19.7593 23.9105C19.7499 24.0252 19.75 24.1576 19.75 24.2798L19.75 25.7202C19.75 25.8424 19.7499 25.9748 19.7593 26.0895C19.7699 26.2192 19.7961 26.3907 19.8862 26.5675C20.0061 26.8027 20.1973 26.9939 20.4325 27.1138C20.6093 27.2039 20.7808 27.2301 20.9105 27.2407C21.0252 27.2501 21.1576 27.25 21.2798 27.25H22.7202C22.8424 27.25 22.9748 27.2501 23.0895 27.2407C23.2192 27.2301 23.3907 27.2039 23.5675 27.1138C23.8027 26.9939 23.9939 26.8027 24.1138 26.5675C24.2039 26.3907 24.2301 26.2192 24.2407 26.0895C24.2501 25.9748 24.25 25.8424 24.25 25.7202V24.2798C24.25 24.1576 24.2501 24.0252 24.2407 23.9105C24.2301 23.7808 24.2039 23.6093 24.1138 23.4325C23.9939 23.1973 23.8027 23.0061 23.5675 22.8862C23.3907 22.7961 23.2192 22.7699 23.0895 22.7593C22.9748 22.7499 22.8424 22.75 22.7202 22.75L21.2798 22.75Z" fill="#5F5F6A"/>
<path d="M27.2798 22.75C27.1576 22.75 27.0252 22.7499 26.9105 22.7593C26.7808 22.7699 26.6093 22.7961 26.4325 22.8862C26.1973 23.0061 26.0061 23.1973 25.8862 23.4325C25.7961 23.6093 25.7699 23.7808 25.7593 23.9105C25.7499 24.0252 25.75 24.1576 25.75 24.2798V25.7202C25.75 25.8424 25.7499 25.9748 25.7593 26.0895C25.7699 26.2192 25.7961 26.3907 25.8862 26.5675C26.0061 26.8027 26.1973 26.9939 26.4325 27.1138C26.6093 27.2039 26.7808 27.2301 26.9105 27.2407C27.0252 27.2501 27.1576 27.25 27.2798 27.25H28.7202C28.8424 27.25 28.9748 27.2501 29.0895 27.2407C29.2192 27.2301 29.3907 27.2039 29.5675 27.1138C29.8027 26.9939 29.9939 26.8027 30.1138 26.5675C30.2039 26.3907 30.2301 26.2192 30.2407 26.0895C30.2501 25.9748 30.25 25.8424 30.25 25.7203V24.2798C30.25 24.1576 30.2501 24.0252 30.2407 23.9105C30.2301 23.7808 30.2039 23.6093 30.1138 23.4325C29.9939 23.1973 29.8027 23.0061 29.5675 22.8862C29.3907 22.7961 29.2192 22.7699 29.0895 22.7593C28.9748 22.7499 28.8424 22.75 28.7202 22.75H27.2798Z" fill="#5F5F6A"/>
<path d="M34.7202 22.75H33.2798C33.1576 22.75 33.0252 22.7499 32.9105 22.7593C32.7808 22.7699 32.6093 22.7961 32.4325 22.8862C32.1973 23.0061 32.0061 23.1973 31.8862 23.4325C31.7962 23.6093 31.7699 23.7808 31.7593 23.9105C31.7499 24.0252 31.75 24.1576 31.75 24.2798V25.7202C31.75 25.8424 31.7499 25.9748 31.7593 26.0895C31.7699 26.2192 31.7962 26.3907 31.8862 26.5675C32.0061 26.8027 32.1973 26.9939 32.4325 27.1138C32.6093 27.2039 32.7808 27.2301 32.9105 27.2407C33.0252 27.2501 33.1576 27.25 33.2798 27.25H34.7202C34.8424 27.25 34.9748 27.2501 35.0895 27.2407C35.2192 27.2301 35.3907 27.2039 35.5675 27.1138C35.8027 26.9939 35.9939 26.8027 36.1138 26.5675C36.2039 26.3907 36.2301 26.2192 36.2407 26.0895C36.2501 25.9749 36.25 25.8424 36.25 25.7203V24.2798C36.25 24.1576 36.2501 24.0252 36.2407 23.9105C36.2301 23.7808 36.2039 23.6093 36.1138 23.4325C35.9939 23.1973 35.8027 23.0061 35.5675 22.8862C35.3907 22.7961 35.2192 22.7699 35.0895 22.7593C34.9748 22.7499 34.8424 22.75 34.7202 22.75Z" fill="#5F5F6A"/>
<path d="M21.2798 28.75C21.1576 28.75 21.0252 28.7499 20.9105 28.7593C20.7808 28.7699 20.6093 28.7961 20.4325 28.8862C20.1973 29.0061 20.0061 29.1973 19.8862 29.4325C19.7961 29.6093 19.7699 29.7808 19.7593 29.9105C19.7499 30.0252 19.75 30.1576 19.75 30.2798V31.7202C19.75 31.8424 19.7499 31.9748 19.7593 32.0895C19.7699 32.2192 19.7961 32.3907 19.8862 32.5675C20.0061 32.8027 20.1973 32.9939 20.4325 33.1138C20.6093 33.2039 20.7808 33.2301 20.9105 33.2407C21.0252 33.2501 21.1576 33.25 21.2798 33.25H22.7202C22.8424 33.25 22.9748 33.2501 23.0895 33.2407C23.2192 33.2301 23.3907 33.2039 23.5675 33.1138C23.8027 32.9939 23.9939 32.8027 24.1138 32.5675C24.2039 32.3907 24.2301 32.2192 24.2407 32.0895C24.2501 31.9748 24.25 31.8424 24.25 31.7202V30.2798C24.25 30.1576 24.2501 30.0252 24.2407 29.9105C24.2301 29.7808 24.2039 29.6093 24.1138 29.4325C23.9939 29.1973 23.8027 29.0061 23.5675 28.8862C23.3907 28.7961 23.2192 28.7699 23.0895 28.7593C22.9748 28.7499 22.8424 28.75 22.7202 28.75H21.2798Z" fill="#5F5F6A"/>
<path d="M27.2798 28.75C27.1576 28.75 27.0252 28.7499 26.9105 28.7593C26.7808 28.7699 26.6093 28.7961 26.4325 28.8862C26.1973 29.0061 26.0061 29.1973 25.8862 29.4325C25.7961 29.6093 25.7699 29.7808 25.7593 29.9105C25.7499 30.0252 25.75 30.1576 25.75 30.2798V31.7202C25.75 31.8424 25.7499 31.9748 25.7593 32.0895C25.7699 32.2192 25.7961 32.3907 25.8862 32.5675C26.0061 32.8027 26.1973 32.9939 26.4325 33.1138C26.6093 33.2039 26.7808 33.2301 26.9105 33.2407C27.0252 33.2501 27.1576 33.25 27.2798 33.25H28.7202C28.8424 33.25 28.9748 33.2501 29.0895 33.2407C29.2192 33.2301 29.3907 33.2039 29.5675 33.1138C29.8027 32.9939 29.9939 32.8027 30.1138 32.5675C30.2039 32.3907 30.2301 32.2192 30.2407 32.0895C30.2501 31.9748 30.25 31.8424 30.25 31.7203V30.2798C30.25 30.1576 30.2501 30.0252 30.2407 29.9105C30.2301 29.7808 30.2039 29.6093 30.1138 29.4325C29.9939 29.1973 29.8027 29.0061 29.5675 28.8862C29.3907 28.7961 29.2192 28.7699 29.0895 28.7593C28.9748 28.7499 28.8424 28.75 28.7202 28.75H27.2798Z" fill="#5F5F6A"/>
<path d="M34.7202 28.75H33.2798C33.1576 28.75 33.0252 28.7499 32.9105 28.7593C32.7808 28.7699 32.6093 28.7961 32.4325 28.8862C32.1973 29.0061 32.0061 29.1973 31.8862 29.4325C31.7961 29.6093 31.7699 29.7808 31.7593 29.9105C31.7499 30.0252 31.75 30.1576 31.75 30.2798V31.7202C31.75 31.8424 31.7499 31.9748 31.7593 32.0895C31.7699 32.2192 31.7961 32.3907 31.8862 32.5675C32.0061 32.8027 32.1973 32.9939 32.4325 33.1138C32.6093 33.2039 32.7808 33.2301 32.9105 33.2407C33.0252 33.2501 33.1576 33.25 33.2798 33.25H34.7202C34.8424 33.25 34.9748 33.2501 35.0895 33.2407C35.2192 33.2301 35.3907 33.2039 35.5675 33.1138C35.8027 32.9939 35.9939 32.8027 36.1138 32.5675C36.2039 32.3907 36.2301 32.2192 36.2407 32.0895C36.2501 31.9749 36.25 31.8424 36.25 31.7203V30.2798C36.25 30.1576 36.2501 30.0252 36.2407 29.9105C36.2301 29.7808 36.2039 29.6093 36.1138 29.4325C35.9939 29.1973 35.8027 29.0061 35.5675 28.8862C35.3907 28.7961 35.2192 28.7699 35.0895 28.7593C34.9748 28.7499 34.8424 28.75 34.7202 28.75Z" fill="#5F5F6A"/>
<g opacity="0.5">
<path d="M21.25 80.25H22.75L22.75 81.75H21.25L21.25 80.25Z" fill="#5F5F6A"/>
<path d="M27.25 80.25H28.75V81.75H27.25L27.25 80.25Z" fill="#5F5F6A"/>
<path d="M33.25 80.25H34.75V81.75H33.25V80.25Z" fill="#5F5F6A"/>
<path d="M21.25 86.25H22.75L22.75 87.75H21.25L21.25 86.25Z" fill="#5F5F6A"/>
<path d="M27.25 86.25H28.75V87.75H27.25L27.25 86.25Z" fill="#5F5F6A"/>
<path d="M33.25 86.25H34.75V87.75H33.25V86.25Z" fill="#5F5F6A"/>
</g>
<path fill-rule="evenodd" clip-rule="evenodd" d="M21.2798 78.75C21.2866 78.75 21.2933 78.75 21.3 78.75H22.7C22.7067 78.75 22.7135 78.75 22.7202 78.75C22.8424 78.75 22.9748 78.7499 23.0895 78.7593C23.2192 78.7699 23.3907 78.7961 23.5675 78.8862C23.8027 79.0061 23.9939 79.1973 24.1138 79.4325C24.2039 79.6093 24.2301 79.7808 24.2407 79.9105C24.2501 80.0252 24.25 80.1576 24.25 80.2798C24.25 80.2866 24.25 80.2933 24.25 80.3V81.7C24.25 81.7067 24.25 81.7134 24.25 81.7202C24.25 81.8424 24.2501 81.9748 24.2407 82.0895C24.2301 82.2192 24.2039 82.3907 24.1138 82.5675C23.9939 82.8027 23.8027 82.9939 23.5675 83.1138C23.3907 83.2039 23.2192 83.2301 23.0895 83.2407C22.9748 83.2501 22.8424 83.25 22.7202 83.25C22.7134 83.25 22.7067 83.25 22.7 83.25H21.3C21.2933 83.25 21.2866 83.25 21.2798 83.25C21.1576 83.25 21.0252 83.2501 20.9105 83.2407C20.7808 83.2301 20.6093 83.2039 20.4325 83.1138C20.1973 82.9939 20.0061 82.8027 19.8862 82.5675C19.7961 82.3907 19.7699 82.2192 19.7593 82.0895C19.7499 81.9748 19.75 81.8424 19.75 81.7202C19.75 81.7135 19.75 81.7067 19.75 81.7V80.3C19.75 80.2933 19.75 80.2866 19.75 80.2798C19.75 80.1576 19.7499 80.0252 19.7593 79.9105C19.7699 79.7808 19.7961 79.6093 19.8862 79.4325C20.0061 79.1973 20.1973 79.0061 20.4325 78.8862C20.6093 78.7961 20.7808 78.7699 20.9105 78.7593C21.0252 78.7499 21.1576 78.75 21.2798 78.75ZM21.25 80.25C21.25 80.2658 21.25 80.2824 21.25 80.3V81.7C21.25 81.7176 21.25 81.7343 21.25 81.75C21.2658 81.75 21.2824 81.75 21.3 81.75H22.7C22.7176 81.75 22.7343 81.75 22.75 81.75C22.75 81.7343 22.75 81.7176 22.75 81.7V80.3C22.75 80.2824 22.75 80.2658 22.75 80.25C22.7343 80.25 22.7176 80.25 22.7 80.25H21.3C21.2824 80.25 21.2658 80.25 21.25 80.25ZM27.2798 78.75C27.2866 78.75 27.2933 78.75 27.3 78.75H28.7C28.7067 78.75 28.7135 78.75 28.7202 78.75C28.8424 78.75 28.9748 78.7499 29.0895 78.7593C29.2192 78.7699 29.3907 78.7961 29.5675 78.8862C29.8027 79.0061 29.9939 79.1973 30.1138 79.4325C30.2039 79.6093 30.2301 79.7808 30.2407 79.9105C30.2501 80.0252 30.25 80.1576 30.25 80.2798C30.25 80.2866 30.25 80.2933 30.25 80.3V81.7C30.25 81.7067 30.25 81.7135 30.25 81.7202C30.25 81.8424 30.2501 81.9748 30.2407 82.0895C30.2301 82.2192 30.2039 82.3907 30.1138 82.5675C29.9939 82.8027 29.8027 82.9939 29.5675 83.1138C29.3907 83.2039 29.2192 83.2301 29.0895 83.2407C28.9748 83.2501 28.8424 83.25 28.7202 83.25C28.7134 83.25 28.7067 83.25 28.7 83.25H27.3C27.2933 83.25 27.2866 83.25 27.2798 83.25C27.1576 83.25 27.0252 83.2501 26.9105 83.2407C26.7808 83.2301 26.6093 83.2039 26.4325 83.1138C26.1973 82.9939 26.0061 82.8027 25.8862 82.5675C25.7961 82.3907 25.7699 82.2192 25.7593 82.0895C25.7499 81.9748 25.75 81.8424 25.75 81.7202C25.75 81.7134 25.75 81.7067 25.75 81.7V80.3C25.75 80.2933 25.75 80.2866 25.75 80.2798C25.75 80.1576 25.7499 80.0252 25.7593 79.9105C25.7699 79.7808 25.7961 79.6093 25.8862 79.4325C26.0061 79.1973 26.1973 79.0061 26.4325 78.8862C26.6093 78.7961 26.7808 78.7699 26.9105 78.7593C27.0252 78.7499 27.1576 78.75 27.2798 78.75ZM27.25 80.25C27.25 80.2658 27.25 80.2824 27.25 80.3V81.7C27.25 81.7176 27.25 81.7343 27.25 81.75C27.2658 81.75 27.2824 81.75 27.3 81.75H28.7C28.7176 81.75 28.7343 81.75 28.75 81.75C28.75 81.7343 28.75 81.7176 28.75 81.7V80.3C28.75 80.2824 28.75 80.2658 28.75 80.25C28.7343 80.25 28.7176 80.25 28.7 80.25H27.3C27.2824 80.25 27.2658 80.25 27.25 80.25ZM33.2798 78.75H34.7202C34.8424 78.75 34.9748 78.7499 35.0895 78.7593C35.2192 78.7699 35.3907 78.7961 35.5675 78.8862C35.8027 79.0061 35.9939 79.1973 36.1138 79.4325C36.2039 79.6093 36.2301 79.7808 36.2407 79.9105C36.2501 80.0252 36.25 80.1576 36.25 80.2798V81.7202C36.25 81.8424 36.2501 81.9748 36.2407 82.0895C36.2301 82.2192 36.2039 82.3907 36.1138 82.5675C35.9939 82.8027 35.8027 82.9939 35.5675 83.1138C35.3907 83.2039 35.2192 83.2301 35.0895 83.2407C34.9748 83.2501 34.8424 83.25 34.7202 83.25H33.2798C33.1576 83.25 33.0252 83.2501 32.9105 83.2407C32.7808 83.2301 32.6093 83.2039 32.4325 83.1138C32.1973 82.9939 32.0061 82.8027 31.8862 82.5675C31.7962 82.3907 31.7699 82.2192 31.7593 82.0895C31.7499 81.9748 31.75 81.8424 31.75 81.7202V80.2798C31.75 80.1576 31.7499 80.0252 31.7593 79.9105C31.7699 79.7808 31.7962 79.6093 31.8862 79.4325C32.0061 79.1973 32.1973 79.0061 32.4325 78.8862C32.6093 78.7961 32.7808 78.7699 32.9105 78.7593C33.0252 78.7499 33.1576 78.75 33.2798 78.75ZM33.25 80.25C33.25 80.2658 33.25 80.2824 33.25 80.3V81.7C33.25 81.7176 33.25 81.7343 33.25 81.75C33.2658 81.75 33.2824 81.75 33.3 81.75H34.7C34.7176 81.75 34.7343 81.75 34.75 81.75C34.75 81.7343 34.75 81.7176 34.75 81.7V80.3C34.75 80.2824 34.75 80.2658 34.75 80.25C34.7343 80.25 34.7176 80.25 34.7 80.25H33.3C33.2824 80.25 33.2658 80.25 33.25 80.25ZM21.2798 84.75C21.2866 84.75 21.2933 84.75 21.3 84.75H22.7C22.7067 84.75 22.7134 84.75 22.7202 84.75C22.8424 84.75 22.9748 84.7499 23.0895 84.7593C23.2192 84.7699 23.3907 84.7961 23.5675 84.8862C23.8027 85.0061 23.9939 85.1973 24.1138 85.4325C24.2039 85.6093 24.2301 85.7808 24.2407 85.9105C24.2501 86.0252 24.25 86.1576 24.25 86.2798C24.25 86.2866 24.25 86.2933 24.25 86.3V87.7C24.25 87.7067 24.25 87.7134 24.25 87.7202C24.25 87.8424 24.2501 87.9748 24.2407 88.0895C24.2301 88.2192 24.2039 88.3907 24.1138 88.5675C23.9939 88.8027 23.8027 88.9939 23.5675 89.1138C23.3907 89.2039 23.2192 89.2301 23.0895 89.2407C22.9748 89.2501 22.8424 89.25 22.7202 89.25C22.7135 89.25 22.7067 89.25 22.7 89.25H21.3C21.2933 89.25 21.2866 89.25 21.2798 89.25C21.1576 89.25 21.0252 89.2501 20.9105 89.2407C20.7808 89.2301 20.6093 89.2039 20.4325 89.1138C20.1973 88.9939 20.0061 88.8027 19.8862 88.5675C19.7961 88.3907 19.7699 88.2192 19.7593 88.0895C19.7499 87.9748 19.75 87.8424 19.75 87.7202C19.75 87.7135 19.75 87.7067 19.75 87.7V86.3C19.75 86.2933 19.75 86.2866 19.75 86.2798C19.75 86.1576 19.7499 86.0252 19.7593 85.9105C19.7699 85.7808 19.7961 85.6093 19.8862 85.4325C20.0061 85.1973 20.1973 85.0061 20.4325 84.8862C20.6093 84.7961 20.7808 84.7699 20.9105 84.7593C21.0252 84.7499 21.1576 84.75 21.2798 84.75ZM21.25 86.25C21.25 86.2658 21.25 86.2824 21.25 86.3V87.7C21.25 87.7176 21.25 87.7343 21.25 87.75C21.2658 87.75 21.2824 87.75 21.3 87.75H22.7C22.7176 87.75 22.7343 87.75 22.75 87.75C22.75 87.7343 22.75 87.7176 22.75 87.7V86.3C22.75 86.2824 22.75 86.2658 22.75 86.25C22.7343 86.25 22.7176 86.25 22.7 86.25H21.3C21.2824 86.25 21.2658 86.25 21.25 86.25ZM27.2798 84.75C27.2866 84.75 27.2933 84.75 27.3 84.75L28.7202 84.75C28.8424 84.75 28.9748 84.7499 29.0895 84.7593C29.2192 84.7699 29.3907 84.7961 29.5675 84.8862C29.8027 85.0061 29.9939 85.1973 30.1138 85.4325C30.2039 85.6093 30.2301 85.7808 30.2407 85.9105C30.2501 86.0252 30.25 86.1576 30.25 86.2798C30.25 86.2866 30.25 86.2933 30.25 86.3V87.7C30.25 87.7067 30.25 87.7135 30.25 87.7202C30.25 87.8424 30.2501 87.9748 30.2407 88.0895C30.2301 88.2192 30.2039 88.3907 30.1138 88.5675C29.9939 88.8027 29.8027 88.9939 29.5675 89.1138C29.3907 89.2039 29.2192 89.2301 29.0895 89.2407C28.9748 89.2501 28.8424 89.25 28.7202 89.25C28.7135 89.25 28.7067 89.25 28.7 89.25H27.3C27.2933 89.25 27.2866 89.25 27.2798 89.25C27.1576 89.25 27.0252 89.2501 26.9105 89.2407C26.7808 89.2301 26.6093 89.2039 26.4325 89.1138C26.1973 88.9939 26.0061 88.8027 25.8862 88.5675C25.7961 88.3907 25.7699 88.2192 25.7593 88.0895C25.7499 87.9748 25.75 87.8424 25.75 87.7202L25.75 86.3C25.75 86.2933 25.75 86.2866 25.75 86.2798C25.75 86.1576 25.7499 86.0252 25.7593 85.9105C25.7699 85.7808 25.7961 85.6093 25.8862 85.4325C26.0061 85.1973 26.1973 85.0061 26.4325 84.8862C26.6093 84.7961 26.7808 84.7699 26.9105 84.7593C27.0252 84.7499 27.1576 84.75 27.2798 84.75ZM27.25 86.25C27.25 86.2658 27.25 86.2824 27.25 86.3V87.7C27.25 87.7176 27.25 87.7343 27.25 87.75C27.2658 87.75 27.2824 87.75 27.3 87.75H28.7C28.7176 87.75 28.7343 87.75 28.75 87.75C28.75 87.7343 28.75 87.7176 28.75 87.7V86.3C28.75 86.2824 28.75 86.2658 28.75 86.25C28.7343 86.25 28.7176 86.25 28.7 86.25H27.3C27.2824 86.25 27.2658 86.25 27.25 86.25ZM33.2798 84.75H34.7202C34.8424 84.75 34.9748 84.7499 35.0895 84.7593C35.2192 84.7699 35.3907 84.7961 35.5675 84.8862C35.8027 85.0061 35.9939 85.1973 36.1138 85.4325C36.2039 85.6093 36.2301 85.7808 36.2407 85.9105C36.2501 86.0252 36.25 86.1576 36.25 86.2798V87.7202C36.25 87.8424 36.2501 87.9748 36.2407 88.0895C36.2301 88.2192 36.2039 88.3907 36.1138 88.5675C35.9939 88.8027 35.8027 88.9939 35.5675 89.1138C35.3907 89.2039 35.2192 89.2301 35.0895 89.2407C34.9748 89.2501 34.8424 89.25 34.7202 89.25H33.2798C33.1576 89.25 33.0252 89.2501 32.9105 89.2407C32.7808 89.2301 32.6093 89.2039 32.4325 89.1138C32.1973 88.9939 32.0061 88.8027 31.8862 88.5675C31.7961 88.3907 31.7699 88.2192 31.7593 88.0895C31.7499 87.9748 31.75 87.8424 31.75 87.7202V86.2798C31.75 86.1576 31.7499 86.0252 31.7593 85.9105C31.7699 85.7808 31.7961 85.6093 31.8862 85.4325C32.0061 85.1973 32.1973 85.0061 32.4325 84.8862C32.6093 84.7961 32.7808 84.7699 32.9105 84.7593C33.0252 84.7499 33.1576 84.75 33.2798 84.75ZM33.25 86.25C33.25 86.2658 33.25 86.2824 33.25 86.3V87.7C33.25 87.7176 33.25 87.7343 33.25 87.75C33.2658 87.75 33.2824 87.75 33.3 87.75H34.7C34.7176 87.75 34.7343 87.75 34.75 87.75C34.75 87.7343 34.75 87.7176 34.75 87.7V86.3C34.75 86.2824 34.75 86.2658 34.75 86.25C34.7343 86.25 34.7176 86.25 34.7 86.25H33.3C33.2824 86.25 33.2658 86.25 33.25 86.25Z" fill="#5F5F6A"/>
<path fill-rule="evenodd" clip-rule="evenodd" d="M21.2798 134.75C21.2866 134.75 21.2933 134.75 21.3 134.75H22.7C22.7067 134.75 22.7135 134.75 22.7202 134.75C22.8424 134.75 22.9748 134.75 23.0895 134.759C23.2192 134.77 23.3907 134.796 23.5675 134.886C23.8027 135.006 23.9939 135.197 24.1138 135.433C24.2039 135.609 24.2301 135.781 24.2407 135.911C24.2501 136.025 24.25 136.158 24.25 136.28C24.25 136.287 24.25 136.293 24.25 136.3V137.7C24.25 137.707 24.25 137.713 24.25 137.72C24.25 137.842 24.2501 137.975 24.2407 138.089C24.2301 138.219 24.2039 138.391 24.1138 138.567C23.9939 138.803 23.8027 138.994 23.5675 139.114C23.3907 139.204 23.2192 139.23 23.0895 139.241C22.9748 139.25 22.8424 139.25 22.7202 139.25C22.7134 139.25 22.7067 139.25 22.7 139.25H21.3C21.2933 139.25 21.2866 139.25 21.2798 139.25C21.1576 139.25 21.0252 139.25 20.9105 139.241C20.7808 139.23 20.6093 139.204 20.4325 139.114C20.1973 138.994 20.0061 138.803 19.8862 138.567C19.7961 138.391 19.7699 138.219 19.7593 138.089C19.7499 137.975 19.75 137.842 19.75 137.72C19.75 137.713 19.75 137.707 19.75 137.7V136.3C19.75 136.293 19.75 136.287 19.75 136.28C19.75 136.158 19.7499 136.025 19.7593 135.911C19.7699 135.781 19.7961 135.609 19.8862 135.433C20.0061 135.197 20.1973 135.006 20.4325 134.886C20.6093 134.796 20.7808 134.77 20.9105 134.759C21.0252 134.75 21.1576 134.75 21.2798 134.75ZM21.25 136.25C21.25 136.266 21.25 136.282 21.25 136.3V137.7C21.25 137.718 21.25 137.734 21.25 137.75C21.2658 137.75 21.2824 137.75 21.3 137.75H22.7C22.7176 137.75 22.7343 137.75 22.75 137.75C22.75 137.734 22.75 137.718 22.75 137.7V136.3C22.75 136.282 22.75 136.266 22.75 136.25C22.7343 136.25 22.7176 136.25 22.7 136.25H21.3C21.2824 136.25 21.2658 136.25 21.25 136.25ZM27.2798 134.75C27.2866 134.75 27.2933 134.75 27.3 134.75H28.7C28.7067 134.75 28.7135 134.75 28.7202 134.75C28.8424 134.75 28.9748 134.75 29.0895 134.759C29.2192 134.77 29.3907 134.796 29.5675 134.886C29.8027 135.006 29.9939 135.197 30.1138 135.433C30.2039 135.609 30.2301 135.781 30.2407 135.911C30.2501 136.025 30.25 136.158 30.25 136.28C30.25 136.287 30.25 136.293 30.25 136.3V137.7C30.25 137.707 30.25 137.713 30.25 137.72C30.25 137.842 30.2501 137.975 30.2407 138.089C30.2301 138.219 30.2039 138.391 30.1138 138.567C29.9939 138.803 29.8027 138.994 29.5675 139.114C29.3907 139.204 29.2192 139.23 29.0895 139.241C28.9748 139.25 28.8424 139.25 28.7202 139.25C28.7134 139.25 28.7067 139.25 28.7 139.25H27.3C27.2933 139.25 27.2866 139.25 27.2798 139.25C27.1576 139.25 27.0252 139.25 26.9105 139.241C26.7808 139.23 26.6093 139.204 26.4325 139.114C26.1973 138.994 26.0061 138.803 25.8862 138.567C25.7961 138.391 25.7699 138.219 25.7593 138.089C25.7499 137.975 25.75 137.842 25.75 137.72C25.75 137.713 25.75 137.707 25.75 137.7V136.3C25.75 136.293 25.75 136.287 25.75 136.28C25.75 136.158 25.7499 136.025 25.7593 135.911C25.7699 135.781 25.7961 135.609 25.8862 135.433C26.0061 135.197 26.1973 135.006 26.4325 134.886C26.6093 134.796 26.7808 134.77 26.9105 134.759C27.0252 134.75 27.1576 134.75 27.2798 134.75ZM27.25 136.25C27.25 136.266 27.25 136.282 27.25 136.3V137.7C27.25 137.718 27.25 137.734 27.25 137.75C27.2658 137.75 27.2824 137.75 27.3 137.75H28.7C28.7176 137.75 28.7343 137.75 28.75 137.75C28.75 137.734 28.75 137.718 28.75 137.7V136.3C28.75 136.282 28.75 136.266 28.75 136.25C28.7343 136.25 28.7176 136.25 28.7 136.25H27.3C27.2824 136.25 27.2658 136.25 27.25 136.25ZM33.2798 134.75H34.7202C34.8424 134.75 34.9748 134.75 35.0895 134.759C35.2192 134.77 35.3907 134.796 35.5675 134.886C35.8027 135.006 35.9939 135.197 36.1138 135.433C36.2039 135.609 36.2301 135.781 36.2407 135.911C36.2501 136.025 36.25 136.158 36.25 136.28V137.72C36.25 137.842 36.2501 137.975 36.2407 138.089C36.2301 138.219 36.2039 138.391 36.1138 138.567C35.9939 138.803 35.8027 138.994 35.5675 139.114C35.3907 139.204 35.2192 139.23 35.0895 139.241C34.9748 139.25 34.8424 139.25 34.7202 139.25H33.2798C33.1576 139.25 33.0252 139.25 32.9105 139.241C32.7808 139.23 32.6093 139.204 32.4325 139.114C32.1973 138.994 32.0061 138.803 31.8862 138.567C31.7962 138.391 31.7699 138.219 31.7593 138.089C31.7499 137.975 31.75 137.842 31.75 137.72V136.28C31.75 136.158 31.7499 136.025 31.7593 135.911C31.7699 135.781 31.7962 135.609 31.8862 135.433C32.0061 135.197 32.1973 135.006 32.4325 134.886C32.6093 134.796 32.7808 134.77 32.9105 134.759C33.0252 134.75 33.1576 134.75 33.2798 134.75ZM33.25 136.25C33.25 136.266 33.25 136.282 33.25 136.3V137.7C33.25 137.718 33.25 137.734 33.25 137.75C33.2658 137.75 33.2824 137.75 33.3 137.75H34.7C34.7176 137.75 34.7343 137.75 34.75 137.75C34.75 137.734 34.75 137.718 34.75 137.7V136.3C34.75 136.282 34.75 136.266 34.75 136.25C34.7343 136.25 34.7176 136.25 34.7 136.25H33.3C33.2824 136.25 33.2658 136.25 33.25 136.25ZM21.2798 140.75C21.2866 140.75 21.2933 140.75 21.3 140.75H22.7C22.7067 140.75 22.7134 140.75 22.7202 140.75C22.8424 140.75 22.9748 140.75 23.0895 140.759C23.2192 140.77 23.3907 140.796 23.5675 140.886C23.8027 141.006 23.9939 141.197 24.1138 141.433C24.2039 141.609 24.2301 141.781 24.2407 141.911C24.2501 142.025 24.25 142.158 24.25 142.28C24.25 142.287 24.25 142.293 24.25 142.3V143.7C24.25 143.707 24.25 143.713 24.25 143.72C24.25 143.842 24.2501 143.975 24.2407 144.089C24.2301 144.219 24.2039 144.391 24.1138 144.567C23.9939 144.803 23.8027 144.994 23.5675 145.114C23.3907 145.204 23.2192 145.23 23.0895 145.241C22.9748 145.25 22.8424 145.25 22.7202 145.25C22.7135 145.25 22.7067 145.25 22.7 145.25H21.3C21.2933 145.25 21.2866 145.25 21.2798 145.25C21.1576 145.25 21.0252 145.25 20.9105 145.241C20.7808 145.23 20.6093 145.204 20.4325 145.114C20.1973 144.994 20.0061 144.803 19.8862 144.567C19.7961 144.391 19.7699 144.219 19.7593 144.089C19.7499 143.975 19.75 143.842 19.75 143.72C19.75 143.713 19.75 143.707 19.75 143.7V142.3C19.75 142.293 19.75 142.287 19.75 142.28C19.75 142.158 19.7499 142.025 19.7593 141.911C19.7699 141.781 19.7961 141.609 19.8862 141.433C20.0061 141.197 20.1973 141.006 20.4325 140.886C20.6093 140.796 20.7808 140.77 20.9105 140.759C21.0252 140.75 21.1576 140.75 21.2798 140.75ZM21.25 142.25C21.25 142.266 21.25 142.282 21.25 142.3V143.7C21.25 143.718 21.25 143.734 21.25 143.75C21.2658 143.75 21.2824 143.75 21.3 143.75H22.7C22.7176 143.75 22.7343 143.75 22.75 143.75C22.75 143.734 22.75 143.718 22.75 143.7V142.3C22.75 142.282 22.75 142.266 22.75 142.25C22.7343 142.25 22.7176 142.25 22.7 142.25H21.3C21.2824 142.25 21.2658 142.25 21.25 142.25ZM27.2798 140.75C27.2866 140.75 27.2933 140.75 27.3 140.75L28.7202 140.75C28.8424 140.75 28.9748 140.75 29.0895 140.759C29.2192 140.77 29.3907 140.796 29.5675 140.886C29.8027 141.006 29.9939 141.197 30.1138 141.433C30.2039 141.609 30.2301 141.781 30.2407 141.911C30.2501 142.025 30.25 142.158 30.25 142.28C30.25 142.287 30.25 142.293 30.25 142.3V143.7C30.25 143.707 30.25 143.713 30.25 143.72C30.25 143.842 30.2501 143.975 30.2407 144.089C30.2301 144.219 30.2039 144.391 30.1138 144.567C29.9939 144.803 29.8027 144.994 29.5675 145.114C29.3907 145.204 29.2192 145.23 29.0895 145.241C28.9748 145.25 28.8424 145.25 28.7202 145.25C28.7135 145.25 28.7067 145.25 28.7 145.25H27.3C27.2933 145.25 27.2866 145.25 27.2798 145.25C27.1576 145.25 27.0252 145.25 26.9105 145.241C26.7808 145.23 26.6093 145.204 26.4325 145.114C26.1973 144.994 26.0061 144.803 25.8862 144.567C25.7961 144.391 25.7699 144.219 25.7593 144.089C25.7499 143.975 25.75 143.842 25.75 143.72L25.75 142.3C25.75 142.293 25.75 142.287 25.75 142.28C25.75 142.158 25.7499 142.025 25.7593 141.911C25.7699 141.781 25.7961 141.609 25.8862 141.433C26.0061 141.197 26.1973 141.006 26.4325 140.886C26.6093 140.796 26.7808 140.77 26.9105 140.759C27.0252 140.75 27.1576 140.75 27.2798 140.75ZM27.25 142.25C27.25 142.266 27.25 142.282 27.25 142.3V143.7C27.25 143.718 27.25 143.734 27.25 143.75C27.2658 143.75 27.2824 143.75 27.3 143.75H28.7C28.7176 143.75 28.7343 143.75 28.75 143.75C28.75 143.734 28.75 143.718 28.75 143.7V142.3C28.75 142.282 28.75 142.266 28.75 142.25C28.7343 142.25 28.7176 142.25 28.7 142.25H27.3C27.2824 142.25 27.2658 142.25 27.25 142.25ZM33.2798 140.75H34.7202C34.8424 140.75 34.9748 140.75 35.0895 140.759C35.2192 140.77 35.3907 140.796 35.5675 140.886C35.8027 141.006 35.9939 141.197 36.1138 141.433C36.2039 141.609 36.2301 141.781 36.2407 141.911C36.2501 142.025 36.25 142.158 36.25 142.28V143.72C36.25 143.842 36.2501 143.975 36.2407 144.089C36.2301 144.219 36.2039 144.391 36.1138 144.567C35.9939 144.803 35.8027 144.994 35.5675 145.114C35.3907 145.204 35.2192 145.23 35.0895 145.241C34.9748 145.25 34.8424 145.25 34.7202 145.25H33.2798C33.1576 145.25 33.0252 145.25 32.9105 145.241C32.7808 145.23 32.6093 145.204 32.4325 145.114C32.1973 144.994 32.0061 144.803 31.8862 144.567C31.7961 144.391 31.7699 144.219 31.7593 144.089C31.7499 143.975 31.75 143.842 31.75 143.72V142.28C31.75 142.158 31.7499 142.025 31.7593 141.911C31.7699 141.781 31.7961 141.609 31.8862 141.433C32.0061 141.197 32.1973 141.006 32.4325 140.886C32.6093 140.796 32.7808 140.77 32.9105 140.759C33.0252 140.75 33.1576 140.75 33.2798 140.75ZM33.25 142.25C33.25 142.266 33.25 142.282 33.25 142.3V143.7C33.25 143.718 33.25 143.734 33.25 143.75C33.2658 143.75 33.2824 143.75 33.3 143.75H34.7C34.7176 143.75 34.7343 143.75 34.75 143.75C34.75 143.734 34.75 143.718 34.75 143.7V142.3C34.75 142.282 34.75 142.266 34.75 142.25C34.7343 142.25 34.7176 142.25 34.7 142.25H33.3C33.2824 142.25 33.2658 142.25 33.25 142.25Z" fill="#5F5F6A"/>
<path fill-rule="evenodd" clip-rule="evenodd" d="M21.2841 191C21.2894 191 21.2947 191 21.3 191H22.7C22.7053 191 22.7106 191 22.716 191C22.8421 191 22.965 191 23.0691 191.008C23.1834 191.018 23.3183 191.04 23.454 191.109C23.6422 191.205 23.7951 191.358 23.891 191.546C23.9602 191.682 23.9822 191.817 23.9915 191.931C24 192.035 24 192.158 24 192.284C24 192.289 24 192.295 24 192.3V193.7C24 193.705 24 193.711 24 193.716C24 193.842 24 193.965 23.9915 194.069C23.9822 194.183 23.9602 194.318 23.891 194.454C23.7951 194.642 23.6422 194.795 23.454 194.891C23.3183 194.96 23.1834 194.982 23.0691 194.992C22.965 195 22.8421 195 22.716 195C22.7106 195 22.7053 195 22.7 195H21.3C21.2947 195 21.2894 195 21.2841 195C21.1579 195 21.035 195 20.9309 194.992C20.8166 194.982 20.6817 194.96 20.546 194.891C20.3578 194.795 20.2049 194.642 20.109 194.454C20.0398 194.318 20.0178 194.183 20.0085 194.069C20 193.965 20 193.842 20 193.716C20 193.711 20 193.705 20 193.7V192.3C20 192.295 20 192.289 20 192.284C20 192.158 20 192.035 20.0085 191.931C20.0178 191.817 20.0398 191.682 20.109 191.546C20.2049 191.358 20.3578 191.205 20.546 191.109C20.6817 191.04 20.8166 191.018 20.9309 191.008C21.035 191 21.1579 191 21.2841 191ZM21.0057 192.006C21.0055 192.008 21.0053 192.01 21.0052 192.012C21.0004 192.071 21 192.152 21 192.3V193.7C21 193.848 21.0004 193.929 21.0052 193.988C21.0053 193.99 21.0055 193.992 21.0057 193.994C21.0078 193.994 21.01 193.995 21.0123 193.995C21.0706 194 21.1517 194 21.3 194H22.7C22.8483 194 22.9294 194 22.9877 193.995C22.99 193.995 22.9922 193.994 22.9943 193.994C22.9945 193.992 22.9947 193.99 22.9949 193.988C22.9996 193.929 23 193.848 23 193.7V192.3C23 192.152 22.9996 192.071 22.9949 192.012C22.9947 192.01 22.9945 192.008 22.9943 192.006C22.9922 192.006 22.99 192.005 22.9877 192.005C22.9294 192 22.8483 192 22.7 192H21.3C21.1517 192 21.0706 192 21.0123 192.005C21.01 192.005 21.0078 192.006 21.0057 192.006ZM27.2841 191H28.716C28.8421 191 28.965 191 29.0691 191.008C29.1834 191.018 29.3183 191.04 29.454 191.109C29.6422 191.205 29.7951 191.358 29.891 191.546C29.9602 191.682 29.9822 191.817 29.9915 191.931C30 192.035 30 192.158 30 192.284V193.716C30 193.842 30 193.965 29.9915 194.069C29.9822 194.183 29.9602 194.318 29.891 194.454C29.7951 194.642 29.6422 194.795 29.454 194.891C29.3183 194.96 29.1834 194.982 29.0691 194.992C28.965 195 28.8421 195 28.716 195H27.2841C27.1579 195 27.035 195 26.9309 194.992C26.8166 194.982 26.6817 194.96 26.546 194.891C26.3578 194.795 26.2049 194.642 26.109 194.454C26.0398 194.318 26.0178 194.183 26.0085 194.069C26 193.965 26 193.842 26 193.716V192.284C26 192.158 26 192.035 26.0085 191.931C26.0178 191.817 26.0398 191.682 26.109 191.546C26.2049 191.358 26.3578 191.205 26.546 191.109C26.6817 191.04 26.8166 191.018 26.9309 191.008C27.035 191 27.1579 191 27.2841 191ZM27.0057 192.006C27.0055 192.008 27.0053 192.01 27.0052 192.012C27.0004 192.071 27 192.152 27 192.3V193.7C27 193.848 27.0004 193.929 27.0052 193.988C27.0053 193.99 27.0055 193.992 27.0057 193.994C27.0078 193.994 27.01 193.995 27.0123 193.995C27.0706 194 27.1517 194 27.3 194H28.7C28.8483 194 28.9294 194 28.9877 193.995C28.99 193.995 28.9922 193.994 28.9943 193.994C28.9945 193.992 28.9947 193.99 28.9949 193.988C28.9996 193.929 29 193.848 29 193.7V192.3C29 192.152 28.9996 192.071 28.9949 192.012C28.9947 192.01 28.9945 192.008 28.9943 192.006C28.9922 192.006 28.99 192.005 28.9877 192.005C28.9294 192 28.8483 192 28.7 192H27.3C27.1517 192 27.0706 192 27.0123 192.005C27.01 192.005 27.0078 192.006 27.0057 192.006ZM33.2841 191H34.716C34.8421 191 34.965 191 35.0691 191.008C35.1834 191.018 35.3183 191.04 35.454 191.109C35.6422 191.205 35.7951 191.358 35.891 191.546C35.9602 191.682 35.9822 191.817 35.9915 191.931C36 192.035 36 192.158 36 192.284V193.716C36 193.842 36 193.965 35.9915 194.069C35.9822 194.183 35.9602 194.318 35.891 194.454C35.7951 194.642 35.6422 194.795 35.454 194.891C35.3183 194.96 35.1834 194.982 35.0691 194.992C34.965 195 34.8421 195 34.716 195H33.2841C33.1579 195 33.035 195 32.9309 194.992C32.8166 194.982 32.6817 194.96 32.546 194.891C32.3578 194.795 32.2049 194.642 32.109 194.454C32.0398 194.318 32.0178 194.183 32.0085 194.069C32 193.965 32 193.842 32 193.716V192.284C32 192.158 32 192.035 32.0085 191.931C32.0178 191.817 32.0398 191.682 32.109 191.546C32.2049 191.358 32.3578 191.205 32.546 191.109C32.6817 191.04 32.8166 191.018 32.9309 191.008C33.035 191 33.1579 191 33.2841 191ZM33.0057 192.006C33.0055 192.008 33.0053 192.01 33.0052 192.012C33.0004 192.071 33 192.152 33 192.3V193.7C33 193.848 33.0004 193.929 33.0052 193.988C33.0053 193.99 33.0055 193.992 33.0057 193.994C33.0078 193.994 33.01 193.995 33.0123 193.995C33.0706 194 33.1517 194 33.3 194H34.7C34.8483 194 34.9294 194 34.9877 193.995C34.99 193.995 34.9922 193.994 34.9943 193.994C34.9945 193.992 34.9947 193.99 34.9949 193.988C34.9996 193.929 35 193.848 35 193.7V192.3C35 192.152 34.9996 192.071 34.9949 192.012C34.9947 192.01 34.9945 192.008 34.9943 192.006C34.9922 192.006 34.99 192.005 34.9877 192.005C34.9294 192 34.8483 192 34.7 192H33.3C33.1517 192 33.0706 192 33.0123 192.005C33.01 192.005 33.0078 192.006 33.0057 192.006ZM21.2841 197H22.7159C22.8421 197 22.965 197 23.0691 197.008C23.1834 197.018 23.3183 197.04 23.454 197.109C23.6422 197.205 23.7951 197.358 23.891 197.546C23.9602 197.682 23.9822 197.817 23.9915 197.931C24 198.035 24 198.158 24 198.284V199.716C24 199.842 24 199.965 23.9915 200.069C23.9822 200.183 23.9602 200.318 23.891 200.454C23.7951 200.642 23.6422 200.795 23.454 200.891C23.3183 200.96 23.1834 200.982 23.0691 200.992C22.965 201 22.8421 201 22.716 201H21.284C21.1579 201 21.035 201 20.9309 200.992C20.8166 200.982 20.6817 200.96 20.546 200.891C20.3579 200.795 20.2049 200.642 20.109 200.454C20.0398 200.318 20.0178 200.183 20.0085 200.069C20 199.965 20 199.842 20 199.716V198.284C20 198.158 20 198.035 20.0085 197.931C20.0178 197.817 20.0398 197.682 20.109 197.546C20.2049 197.358 20.3579 197.205 20.546 197.109C20.6817 197.04 20.8166 197.018 20.9309 197.008C21.035 197 21.1579 197 21.2841 197ZM21.0057 198.006C21.0055 198.008 21.0053 198.01 21.0052 198.012C21.0004 198.071 21 198.152 21 198.3V199.7C21 199.848 21.0004 199.929 21.0052 199.988C21.0053 199.99 21.0055 199.992 21.0057 199.994C21.0078 199.994 21.01 199.995 21.0123 199.995C21.0706 200 21.1517 200 21.3 200H22.7C22.8483 200 22.9294 200 22.9877 199.995C22.99 199.995 22.9922 199.994 22.9943 199.994C22.9945 199.992 22.9947 199.99 22.9949 199.988C22.9996 199.929 23 199.848 23 199.7V198.3C23 198.152 22.9996 198.071 22.9949 198.012C22.9947 198.01 22.9945 198.008 22.9943 198.006C22.9922 198.006 22.99 198.005 22.9877 198.005C22.9294 198 22.8483 198 22.7 198H21.3C21.1517 198 21.0706 198 21.0123 198.005C21.01 198.005 21.0078 198.006 21.0057 198.006ZM27.2841 197H28.7159C28.8421 197 28.965 197 29.0691 197.008C29.1834 197.018 29.3183 197.04 29.454 197.109C29.6422 197.205 29.7951 197.358 29.891 197.546C29.9602 197.682 29.9822 197.817 29.9915 197.931C30 198.035 30 198.158 30 198.284V199.716C30 199.842 30 199.965 29.9915 200.069C29.9822 200.183 29.9602 200.318 29.891 200.454C29.7951 200.642 29.6422 200.795 29.454 200.891C29.3183 200.96 29.1834 200.982 29.0691 200.992C28.965 201 28.8421 201 28.716 201H27.284C27.1579 201 27.035 201 26.9309 200.992C26.8166 200.982 26.6817 200.96 26.546 200.891C26.3578 200.795 26.2049 200.642 26.109 200.454C26.0398 200.318 26.0178 200.183 26.0085 200.069C26 199.965 26 199.842 26 199.716V198.284C26 198.158 26 198.035 26.0085 197.931C26.0178 197.817 26.0398 197.682 26.109 197.546C26.2049 197.358 26.3578 197.205 26.546 197.109C26.6817 197.04 26.8166 197.018 26.9309 197.008C27.035 197 27.1579 197 27.2841 197ZM27.0057 198.006C27.0055 198.008 27.0053 198.01 27.0052 198.012C27.0004 198.071 27 198.152 27 198.3V199.7C27 199.848 27.0004 199.929 27.0052 199.988C27.0053 199.99 27.0055 199.992 27.0057 199.994C27.0078 199.994 27.01 199.995 27.0123 199.995C27.0706 200 27.1517 200 27.3 200H28.7C28.8483 200 28.9294 200 28.9877 199.995C28.99 199.995 28.9922 199.994 28.9943 199.994C28.9945 199.992 28.9947 199.99 28.9949 199.988C28.9996 199.929 29 199.848 29 199.7V198.3C29 198.152 28.9996 198.071 28.9949 198.012C28.9947 198.01 28.9945 198.008 28.9943 198.006C28.9922 198.006 28.99 198.005 28.9877 198.005C28.9294 198 28.8483 198 28.7 198H27.3C27.1517 198 27.0706 198 27.0123 198.005C27.01 198.005 27.0078 198.006 27.0057 198.006ZM33.2841 197H34.7159C34.8421 197 34.965 197 35.0691 197.008C35.1834 197.018 35.3183 197.04 35.454 197.109C35.6422 197.205 35.7951 197.358 35.891 197.546C35.9602 197.682 35.9822 197.817 35.9915 197.931C36 198.035 36 198.158 36 198.284V199.716C36 199.842 36 199.965 35.9915 200.069C35.9822 200.183 35.9602 200.318 35.891 200.454C35.7951 200.642 35.6422 200.795 35.454 200.891C35.3183 200.96 35.1834 200.982 35.0691 200.992C34.965 201 34.8421 201 34.716 201H33.284C33.1579 201 33.035 201 32.9309 200.992C32.8166 200.982 32.6817 200.96 32.546 200.891C32.3579 200.795 32.2049 200.642 32.109 200.454C32.0398 200.318 32.0178 200.183 32.0085 200.069C32 199.965 32 199.842 32 199.716V198.284C32 198.158 32 198.035 32.0085 197.931C32.0178 197.817 32.0398 197.682 32.109 197.546C32.2049 197.358 32.3579 197.205 32.546 197.109C32.6817 197.04 32.8166 197.018 32.9309 197.008C33.035 197 33.1579 197 33.2841 197ZM33.0057 198.006C33.0055 198.008 33.0053 198.01 33.0052 198.012C33.0004 198.071 33 198.152 33 198.3V199.7C33 199.848 33.0004 199.929 33.0052 199.988C33.0053 199.99 33.0055 199.992 33.0057 199.994C33.0078 199.994 33.01 199.995 33.0123 199.995C33.0706 200 33.1517 200 33.3 200H34.7C34.8483 200 34.9294 200 34.9877 199.995C34.99 199.995 34.9922 199.994 34.9943 199.994C34.9945 199.992 34.9947 199.99 34.9949 199.988C34.9996 199.929 35 199.848 35 199.7V198.3C35 198.152 34.9996 198.071 34.9949 198.012C34.9947 198.01 34.9945 198.008 34.9943 198.006C34.9922 198.006 34.99 198.005 34.9877 198.005C34.9294 198 34.8483 198 34.7 198H33.3C33.1517 198 33.0706 198 33.0123 198.005C33.01 198.005 33.0078 198.006 33.0057 198.006Z" fill="#5F5F6A"/>
</svg>
