<svg width="56" height="224" viewBox="0 0 56 224" fill="none" xmlns="http://www.w3.org/2000/svg">
<path d="M23.5 28C23.0858 28 22.75 28.3358 22.75 28.75C22.75 29.1642 23.0858 29.5 23.5 29.5H32.5C32.9142 29.5 33.25 29.1642 33.25 28.75C33.25 28.3358 32.9142 28 32.5 28H23.5Z" fill="#5F5F6A"/>
<path d="M22.75 32C22.75 31.5858 23.0858 31.25 23.5 31.25H32.5C32.9142 31.25 33.25 31.5858 33.25 32C33.25 32.4142 32.9142 32.75 32.5 32.75H23.5C23.0858 32.75 22.75 32.4142 22.75 32Z" fill="#5F5F6A"/>
<path fill-rule="evenodd" clip-rule="evenodd" d="M22 19.75C20.4812 19.75 19.25 20.9812 19.25 22.5V33.5C19.25 35.0188 20.4812 36.25 22 36.25H34C35.5188 36.25 36.75 35.0188 36.75 33.5V22.5C36.75 20.9812 35.5188 19.75 34 19.75H22ZM20.75 33.5V26.25H35.25V33.5C35.25 34.1904 34.6904 34.75 34 34.75H22C21.3096 34.75 20.75 34.1904 20.75 33.5ZM31.416 21.876C31.0714 21.6462 30.6057 21.7393 30.376 22.084C30.1462 22.4286 30.2393 22.8943 30.584 23.1241L31.8066 23.9392C32.2265 24.2191 32.7735 24.2191 33.1934 23.9392L34.416 23.1241C34.7607 22.8943 34.8538 22.4286 34.624 22.084C34.3943 21.7393 33.9286 21.6462 33.584 21.876L32.5 22.5986L31.416 21.876Z" fill="#5F5F6A"/>
<path d="M34 75.75C35.5188 75.75 36.75 76.9812 36.75 78.5V89.5C36.75 91.0188 35.5188 92.25 34 92.25H22C20.4812 92.25 19.25 91.0188 19.25 89.5V78.5C19.25 76.9812 20.4812 75.75 22 75.75H34ZM20.75 89.5C20.75 90.1904 21.3096 90.75 22 90.75H34C34.6904 90.75 35.25 90.1904 35.25 89.5V82.25H20.75V89.5ZM34.624 78.084C34.3943 77.7394 33.9286 77.6462 33.584 77.876L32.5 78.5986L31.416 77.876C31.0714 77.6462 30.6057 77.7394 30.376 78.084C30.1462 78.4286 30.2393 78.8943 30.584 79.124L31.8066 79.9395C32.2264 80.2192 32.7736 80.2192 33.1934 79.9395L34.416 79.124C34.7607 78.8943 34.8538 78.4286 34.624 78.084Z" fill="#5F5F6A"/>
<path opacity="0.5" fill-rule="evenodd" clip-rule="evenodd" d="M22.75 84.75C22.75 84.3358 23.0858 84 23.5 84H32.5C32.9142 84 33.25 84.3358 33.25 84.75C33.25 85.1642 32.9142 85.5 32.5 85.5H23.5C23.0858 85.5 22.75 85.1642 22.75 84.75Z" fill="#5F5F6A"/>
<path opacity="0.5" fill-rule="evenodd" clip-rule="evenodd" d="M22.75 88C22.75 87.5858 23.0858 87.25 23.5 87.25H32.5C32.9142 87.25 33.25 87.5858 33.25 88C33.25 88.4142 32.9142 88.75 32.5 88.75H23.5C23.0858 88.75 22.75 88.4142 22.75 88Z" fill="#5F5F6A"/>
<path d="M30.376 134.084C30.6057 133.739 31.0714 133.646 31.416 133.876L32.5 134.599L33.584 133.876C33.9286 133.646 34.3943 133.739 34.624 134.084C34.8538 134.429 34.7607 134.894 34.416 135.124L33.1934 135.939C32.7735 136.219 32.2265 136.219 31.8066 135.939L30.584 135.124C30.2393 134.894 30.1462 134.429 30.376 134.084Z" fill="#5F5F6A"/>
<path d="M22.75 140.75C22.75 140.336 23.0858 140 23.5 140H32.5C32.9142 140 33.25 140.336 33.25 140.75C33.25 141.164 32.9142 141.5 32.5 141.5H23.5C23.0858 141.5 22.75 141.164 22.75 140.75Z" fill="#5F5F6A"/>
<path d="M23.5 143.25C23.0858 143.25 22.75 143.586 22.75 144C22.75 144.414 23.0858 144.75 23.5 144.75H32.5C32.9142 144.75 33.25 144.414 33.25 144C33.25 143.586 32.9142 143.25 32.5 143.25H23.5Z" fill="#5F5F6A"/>
<path fill-rule="evenodd" clip-rule="evenodd" d="M19.25 134.5C19.25 132.981 20.4812 131.75 22 131.75H34C35.5188 131.75 36.75 132.981 36.75 134.5V145.5C36.75 147.019 35.5188 148.25 34 148.25H22C20.4812 148.25 19.25 147.019 19.25 145.5V134.5ZM22 133.25C21.3096 133.25 20.75 133.81 20.75 134.5V136.75H35.25V134.5C35.25 133.81 34.6904 133.25 34 133.25H22ZM35.25 138.25H20.75V145.5C20.75 146.19 21.3096 146.75 22 146.75H34C34.6904 146.75 35.25 146.19 35.25 145.5V138.25Z" fill="#5F5F6A"/>
<path d="M34 188C35.3807 188 36.5 189.119 36.5 190.5V201.5C36.5 202.881 35.3807 204 34 204H22C20.6193 204 19.5 202.881 19.5 201.5V190.5C19.5 189.119 20.6193 188 22 188H34ZM20.5 201.5C20.5 202.328 21.1716 203 22 203H34C34.8284 203 35.5 202.328 35.5 201.5V194.25H20.5V201.5ZM32.5 199.5C32.7761 199.5 33 199.724 33 200C33 200.276 32.7761 200.5 32.5 200.5H23.5C23.2239 200.5 23 200.276 23 200C23 199.724 23.2239 199.5 23.5 199.5H32.5ZM32.5 196.25C32.7761 196.25 33 196.474 33 196.75C33 197.026 32.7761 197.25 32.5 197.25H23.5C23.2239 197.25 23 197.026 23 196.75C23 196.474 23.2239 196.25 23.5 196.25H32.5ZM22 189C21.1716 189 20.5 189.672 20.5 190.5V193.25H35.5V190.5C35.5 189.672 34.8284 189 34 189H22ZM33.7227 190.084C33.9524 189.931 34.2628 189.993 34.416 190.223C34.5692 190.452 34.5071 190.763 34.2773 190.916L33.0547 191.731C32.7189 191.955 32.2811 191.955 31.9453 191.731L30.7227 190.916C30.4929 190.763 30.4308 190.452 30.584 190.223C30.7372 189.993 31.0476 189.931 31.2773 190.084L32.5 190.899L33.7227 190.084Z" fill="#5F5F6A"/>
</svg>
