<svg width="56" height="224" viewBox="0 0 56 224" fill="none" xmlns="http://www.w3.org/2000/svg">
<path d="M20.25 28C20.25 29.2426 21.2574 30.25 22.5 30.25C23.7426 30.25 24.75 29.2426 24.75 28C24.75 26.7574 23.7426 25.75 22.5 25.75C21.2574 25.75 20.25 26.7574 20.25 28Z" fill="#5F5F6A"/>
<path d="M25.75 28C25.75 29.2426 26.7574 30.25 28 30.25C29.2426 30.25 30.25 29.2426 30.25 28C30.25 26.7574 29.2426 25.75 28 25.75C26.7574 25.75 25.75 26.7574 25.75 28Z" fill="#5F5F6A"/>
<path d="M31.25 28C31.25 29.2426 32.2574 30.25 33.5 30.25C34.7426 30.25 35.75 29.2426 35.75 28C35.75 26.7574 34.7426 25.75 33.5 25.75C32.2574 25.75 31.25 26.7574 31.25 28Z" fill="#5F5F6A"/>
<g opacity="0.5">
<path d="M22.5 82.5C23.3284 82.5 24 83.1716 24 84C24 84.8284 23.3284 85.5 22.5 85.5C21.6716 85.5 21 84.8284 21 84C21 83.1716 21.6716 82.5 22.5 82.5Z" fill="#5F5F6A"/>
<path d="M28 82.5C28.8284 82.5 29.5 83.1716 29.5 84C29.5 84.8284 28.8284 85.5 28 85.5C27.1716 85.5 26.5 84.8284 26.5 84C26.5 83.1716 27.1716 82.5 28 82.5Z" fill="#5F5F6A"/>
<path d="M35 84C35 83.1716 34.3284 82.5 33.5 82.5C32.6716 82.5 32 83.1716 32 84C32 84.8284 32.6716 85.5 33.5 85.5C34.3284 85.5 35 84.8284 35 84Z" fill="#5F5F6A"/>
</g>
<path fill-rule="evenodd" clip-rule="evenodd" d="M22.5 86.25C21.2574 86.25 20.25 85.2426 20.25 84C20.25 82.7574 21.2574 81.75 22.5 81.75C23.7426 81.75 24.75 82.7574 24.75 84C24.75 85.2426 23.7426 86.25 22.5 86.25ZM21.75 84C21.75 84.4142 22.0858 84.75 22.5 84.75C22.9142 84.75 23.25 84.4142 23.25 84C23.25 83.5858 22.9142 83.25 22.5 83.25C22.0858 83.25 21.75 83.5858 21.75 84ZM28 86.25C26.7574 86.25 25.75 85.2426 25.75 84C25.75 82.7574 26.7574 81.75 28 81.75C29.2426 81.75 30.25 82.7574 30.25 84C30.25 85.2426 29.2426 86.25 28 86.25ZM27.25 84C27.25 84.4142 27.5858 84.75 28 84.75C28.4142 84.75 28.75 84.4142 28.75 84C28.75 83.5858 28.4142 83.25 28 83.25C27.5858 83.25 27.25 83.5858 27.25 84ZM32.75 84C32.75 84.4142 33.0858 84.75 33.5 84.75C33.9142 84.75 34.25 84.4142 34.25 84C34.25 83.5858 33.9142 83.25 33.5 83.25C33.0858 83.25 32.75 83.5858 32.75 84ZM33.5 86.25C32.2574 86.25 31.25 85.2426 31.25 84C31.25 82.7574 32.2574 81.75 33.5 81.75C34.7426 81.75 35.75 82.7574 35.75 84C35.75 85.2426 34.7426 86.25 33.5 86.25Z" fill="#5F5F6A"/>
<path d="M20.75 140C20.75 140.966 21.5335 141.75 22.5 141.75C23.4665 141.75 24.25 140.966 24.25 140C24.25 139.034 23.4665 138.25 22.5 138.25C21.5335 138.25 20.75 139.034 20.75 140Z" fill="#5F5F6A"/>
<path d="M26.25 140C26.25 140.966 27.0335 141.75 28 141.75C28.9665 141.75 29.75 140.966 29.75 140C29.75 139.034 28.9665 138.25 28 138.25C27.0335 138.25 26.25 139.034 26.25 140Z" fill="#5F5F6A"/>
<path d="M33.5 141.75C32.5335 141.75 31.75 140.966 31.75 140C31.75 139.034 32.5335 138.25 33.5 138.25C34.4665 138.25 35.25 139.034 35.25 140C35.25 140.966 34.4665 141.75 33.5 141.75Z" fill="#5F5F6A"/>
<path fill-rule="evenodd" clip-rule="evenodd" d="M22.5 198C21.3954 198 20.5 197.105 20.5 196C20.5 194.895 21.3954 194 22.5 194C23.6046 194 24.5 194.895 24.5 196C24.5 197.105 23.6046 198 22.5 198ZM21.5 196C21.5 196.552 21.9477 197 22.5 197C23.0523 197 23.5 196.552 23.5 196C23.5 195.448 23.0523 195 22.5 195C21.9477 195 21.5 195.448 21.5 196ZM28 198C26.8954 198 26 197.105 26 196C26 194.895 26.8954 194 28 194C29.1046 194 30 194.895 30 196C30 197.105 29.1046 198 28 198ZM27 196C27 196.552 27.4477 197 28 197C28.5523 197 29 196.552 29 196C29 195.448 28.5523 195 28 195C27.4477 195 27 195.448 27 196ZM32.5 196C32.5 196.552 32.9477 197 33.5 197C34.0523 197 34.5 196.552 34.5 196C34.5 195.448 34.0523 195 33.5 195C32.9477 195 32.5 195.448 32.5 196ZM33.5 198C32.3954 198 31.5 197.105 31.5 196C31.5 194.895 32.3954 194 33.5 194C34.6046 194 35.5 194.895 35.5 196C35.5 197.105 34.6046 198 33.5 198Z" fill="#5F5F6A"/>
</svg>
