<svg width="56" height="224" viewBox="0 0 56 224" fill="none" xmlns="http://www.w3.org/2000/svg">
<path d="M28 20.25C26.7574 20.25 25.75 21.2574 25.75 22.5C25.75 23.7426 26.7574 24.75 28 24.75C29.2426 24.75 30.25 23.7426 30.25 22.5C30.25 21.2574 29.2426 20.25 28 20.25Z" fill="#5F5F6A"/>
<path d="M28 25.75C26.7574 25.75 25.75 26.7574 25.75 28C25.75 29.2426 26.7574 30.25 28 30.25C29.2426 30.25 30.25 29.2426 30.25 28C30.25 26.7574 29.2426 25.75 28 25.75Z" fill="#5F5F6A"/>
<path d="M28 31.25C26.7574 31.25 25.75 32.2574 25.75 33.5C25.75 34.7426 26.7574 35.75 28 35.75C29.2426 35.75 30.25 34.7426 30.25 33.5C30.25 32.2574 29.2426 31.25 28 31.25Z" fill="#5F5F6A"/>
<g opacity="0.5">
<path d="M29.5 78.5C29.5 79.3284 28.8284 80 28 80C27.1716 80 26.5 79.3284 26.5 78.5C26.5 77.6716 27.1716 77 28 77C28.8284 77 29.5 77.6716 29.5 78.5Z" fill="#5F5F6A"/>
<path d="M29.5 84C29.5 84.8284 28.8284 85.5 28 85.5C27.1716 85.5 26.5 84.8284 26.5 84C26.5 83.1716 27.1716 82.5 28 82.5C28.8284 82.5 29.5 83.1716 29.5 84Z" fill="#5F5F6A"/>
<path d="M28 91C28.8284 91 29.5 90.3284 29.5 89.5C29.5 88.6716 28.8284 88 28 88C27.1716 88 26.5 88.6716 26.5 89.5C26.5 90.3284 27.1716 91 28 91Z" fill="#5F5F6A"/>
</g>
<path fill-rule="evenodd" clip-rule="evenodd" d="M25.75 78.5C25.75 77.2574 26.7574 76.25 28 76.25C29.2426 76.25 30.25 77.2574 30.25 78.5C30.25 79.7426 29.2426 80.75 28 80.75C26.7574 80.75 25.75 79.7426 25.75 78.5ZM28 77.75C27.5858 77.75 27.25 78.0858 27.25 78.5C27.25 78.9142 27.5858 79.25 28 79.25C28.4142 79.25 28.75 78.9142 28.75 78.5C28.75 78.0858 28.4142 77.75 28 77.75ZM25.75 84C25.75 82.7574 26.7574 81.75 28 81.75C29.2426 81.75 30.25 82.7574 30.25 84C30.25 85.2426 29.2426 86.25 28 86.25C26.7574 86.25 25.75 85.2426 25.75 84ZM28 83.25C27.5858 83.25 27.25 83.5858 27.25 84C27.25 84.4142 27.5858 84.75 28 84.75C28.4142 84.75 28.75 84.4142 28.75 84C28.75 83.5858 28.4142 83.25 28 83.25ZM28 88.75C27.5858 88.75 27.25 89.0858 27.25 89.5C27.25 89.9142 27.5858 90.25 28 90.25C28.4142 90.25 28.75 89.9142 28.75 89.5C28.75 89.0858 28.4142 88.75 28 88.75ZM25.75 89.5C25.75 88.2574 26.7574 87.25 28 87.25C29.2426 87.25 30.25 88.2574 30.25 89.5C30.25 90.7426 29.2426 91.75 28 91.75C26.7574 91.75 25.75 90.7426 25.75 89.5Z" fill="#5F5F6A"/>
<path d="M28 147.25C28.9665 147.25 29.75 146.466 29.75 145.5C29.75 144.534 28.9665 143.75 28 143.75C27.0335 143.75 26.25 144.534 26.25 145.5C26.25 146.466 27.0335 147.25 28 147.25Z" fill="#5F5F6A"/>
<path d="M28 141.75C28.9665 141.75 29.75 140.966 29.75 140C29.75 139.034 28.9665 138.25 28 138.25C27.0335 138.25 26.25 139.034 26.25 140C26.25 140.966 27.0335 141.75 28 141.75Z" fill="#5F5F6A"/>
<path d="M29.75 134.5C29.75 135.466 28.9665 136.25 28 136.25C27.0335 136.25 26.25 135.466 26.25 134.5C26.25 133.534 27.0335 132.75 28 132.75C28.9665 132.75 29.75 133.534 29.75 134.5Z" fill="#5F5F6A"/>
<path fill-rule="evenodd" clip-rule="evenodd" d="M26 190.5C26 189.395 26.8954 188.5 28 188.5C29.1046 188.5 30 189.395 30 190.5C30 191.605 29.1046 192.5 28 192.5C26.8954 192.5 26 191.605 26 190.5ZM28 189.5C27.4477 189.5 27 189.948 27 190.5C27 191.052 27.4477 191.5 28 191.5C28.5523 191.5 29 191.052 29 190.5C29 189.948 28.5523 189.5 28 189.5ZM26 196C26 194.895 26.8954 194 28 194C29.1046 194 30 194.895 30 196C30 197.105 29.1046 198 28 198C26.8954 198 26 197.105 26 196ZM28 195C27.4477 195 27 195.448 27 196C27 196.552 27.4477 197 28 197C28.5523 197 29 196.552 29 196C29 195.448 28.5523 195 28 195ZM28 200.5C27.4477 200.5 27 200.948 27 201.5C27 202.052 27.4477 202.5 28 202.5C28.5523 202.5 29 202.052 29 201.5C29 200.948 28.5523 200.5 28 200.5ZM26 201.5C26 200.395 26.8954 199.5 28 199.5C29.1046 199.5 30 200.395 30 201.5C30 202.605 29.1046 203.5 28 203.5C26.8954 203.5 26 202.605 26 201.5Z" fill="#5F5F6A"/>
</svg>
