<svg width="56" height="224" viewBox="0 0 56 224" fill="none" xmlns="http://www.w3.org/2000/svg">
<path fill-rule="evenodd" clip-rule="evenodd" d="M28 18.25C22.6152 18.25 18.25 22.6152 18.25 28C18.25 33.3848 22.6152 37.75 28 37.75C33.3848 37.75 37.75 33.3848 37.75 28C37.75 22.6152 33.3848 18.25 28 18.25ZM27 26.7719C27 26.4113 26.7883 26.1154 26.5875 25.9143C26.3731 25.6998 26.0923 25.513 25.7941 25.3669C25.2164 25.0838 24.4365 24.8896 23.778 25.0694C23.1117 25.2515 22.9461 25.9097 22.798 26.4983C22.7872 26.5411 22.7765 26.5836 22.7658 26.6254C22.7085 26.8481 22.8104 27.0812 23.0129 27.1902C23.2153 27.2993 23.466 27.2562 23.6204 27.0858C23.8529 26.8294 24.2056 26.7205 24.6986 26.7593C25.195 26.7984 25.7594 26.9849 26.2934 27.2273C26.4481 27.2975 26.628 27.2843 26.7708 27.1922C26.9137 27.1002 27 26.9419 27 26.7719ZM32.9871 27.1902C33.1896 27.0812 33.2915 26.8481 33.2342 26.6254C33.2235 26.5836 33.2128 26.5412 33.202 26.4984C33.0539 25.9098 32.8882 25.2515 32.222 25.0694C31.5635 24.8896 30.7836 25.0838 30.2058 25.3669C29.9076 25.513 29.6268 25.6998 29.4125 25.9143C29.2116 26.1154 29 26.4113 29 26.7719C29 26.9419 29.0863 27.1002 29.2292 27.1922C29.372 27.2843 29.5518 27.2975 29.7066 27.2273C30.2406 26.9849 30.805 26.7984 31.3014 26.7593C31.7943 26.7205 32.1471 26.8294 32.3795 27.0858C32.534 27.2562 32.7847 27.2993 32.9871 27.1902ZM23.1397 29.2631C22.7969 29.1981 22.4546 29.3781 22.3138 29.6973C22.173 30.0165 22.2709 30.3907 22.55 30.6C22.9136 30.8727 22.9612 31.0658 22.9713 31.1873C22.9875 31.3813 22.9243 31.6053 22.7885 32.0128C22.7047 32.2643 22.7598 32.5414 22.9336 32.7416C23.4903 33.3831 24.3097 33.8793 25.1817 34.2146C26.0613 34.5528 27.0519 34.7498 28 34.7498C28.9481 34.7498 29.9387 34.5528 30.8183 34.2146C31.6903 33.8793 32.5097 33.3831 33.0664 32.7416C33.2402 32.5414 33.2953 32.2643 33.2115 32.0128C33.0757 31.6053 33.0125 31.3813 33.0287 31.1873C33.0388 31.0658 33.0864 30.8727 33.45 30.6C33.7291 30.3907 33.827 30.0165 33.6862 29.6973C33.5454 29.3781 33.2031 29.1981 32.8603 29.2631L32.853 29.2645L32.8288 29.269L32.733 29.2866C32.6489 29.3018 32.526 29.3237 32.3719 29.35C32.0636 29.4027 31.6318 29.473 31.1393 29.5432C30.1447 29.685 28.9381 29.8214 28 29.8214C27.0619 29.8214 25.8553 29.685 24.8607 29.5432C24.3682 29.473 23.9364 29.4027 23.6281 29.35C23.474 29.3237 23.3511 29.3018 23.267 29.2866L23.1712 29.269L23.147 29.2645L23.1397 29.2631Z" fill="#5F5F6A"/>
<path opacity="0.5" fill-rule="evenodd" clip-rule="evenodd" d="M28 93C32.9706 93 37 88.9706 37 84C37 79.0294 32.9706 75 28 75C23.0294 75 19 79.0294 19 84C19 88.9706 23.0294 93 28 93ZM26.5875 81.9143C26.7883 82.1154 27 82.4113 27 82.7719C27 82.9419 26.9137 83.1002 26.7708 83.1922C26.628 83.2843 26.4481 83.2975 26.2934 83.2273C25.7594 82.9849 25.195 82.7984 24.6986 82.7593C24.2056 82.7205 23.8529 82.8294 23.6204 83.0858C23.466 83.2562 23.2153 83.2993 23.0129 83.1902C22.8104 83.0812 22.7085 82.8481 22.7658 82.6254C22.7765 82.5836 22.7872 82.5411 22.798 82.4983C22.9461 81.9097 23.1117 81.2515 23.778 81.0694C24.4365 80.8896 25.2164 81.0838 25.7941 81.3669C26.0923 81.513 26.3731 81.6998 26.5875 81.9143ZM33.2342 82.6254C33.2915 82.8481 33.1896 83.0812 32.9871 83.1902C32.7847 83.2993 32.534 83.2562 32.3795 83.0858C32.1471 82.8294 31.7943 82.7205 31.3014 82.7593C30.805 82.7984 30.2406 82.9849 29.7066 83.2273C29.5518 83.2975 29.372 83.2843 29.2292 83.1922C29.0863 83.1002 29 82.9419 29 82.7719C29 82.4113 29.2116 82.1154 29.4125 81.9143C29.6268 81.6998 29.9076 81.513 30.2058 81.3669C30.7836 81.0838 31.5635 80.8896 32.222 81.0694C32.8882 81.2515 33.0539 81.9098 33.202 82.4984C33.2128 82.5412 33.2235 82.5836 33.2342 82.6254ZM22.3138 85.6973C22.4546 85.3781 22.7969 85.1981 23.1397 85.2631L23.147 85.2645L23.1712 85.269L23.267 85.2866C23.3511 85.3018 23.474 85.3237 23.6281 85.35C23.9364 85.4027 24.3682 85.473 24.8607 85.5432C25.8553 85.685 27.0619 85.8214 28 85.8214C28.9381 85.8214 30.1447 85.685 31.1393 85.5432C31.6318 85.473 32.0636 85.4027 32.3719 85.35C32.526 85.3237 32.6489 85.3018 32.733 85.2866L32.8288 85.269L32.853 85.2645L32.8603 85.2631C33.2031 85.1981 33.5454 85.3781 33.6862 85.6973C33.827 86.0165 33.7291 86.3907 33.45 86.6C33.0864 86.8727 33.0388 87.0658 33.0287 87.1873C33.0125 87.3813 33.0757 87.6053 33.2115 88.0128C33.2953 88.2643 33.2402 88.5414 33.0664 88.7416C32.5097 89.3831 31.6903 89.8793 30.8183 90.2146C29.9387 90.5528 28.9481 90.7498 28 90.7498C27.0519 90.7498 26.0613 90.5528 25.1817 90.2146C24.3097 89.8793 23.4903 89.3831 22.9336 88.7416C22.7598 88.5414 22.7047 88.2643 22.7885 88.0128C22.9243 87.6053 22.9875 87.3813 22.9713 87.1873C22.9612 87.0658 22.9136 86.8727 22.55 86.6C22.2709 86.3907 22.173 86.0165 22.3138 85.6973Z" fill="#5F5F6A"/>
<path d="M26.5875 81.9143C26.7883 82.1154 27 82.4113 27 82.7719C27 82.9419 26.9137 83.1002 26.7708 83.1922C26.628 83.2843 26.4481 83.2975 26.2934 83.2273C25.7594 82.9849 25.195 82.7984 24.6986 82.7593C24.2056 82.7205 23.8529 82.8294 23.6204 83.0858C23.466 83.2562 23.2153 83.2993 23.0129 83.1902C22.8104 83.0812 22.7085 82.8481 22.7658 82.6254L22.9023 82.0949C22.9867 81.7584 23.2104 81.2245 23.778 81.0694C24.4365 80.8896 25.2164 81.0838 25.7941 81.3669C26.0923 81.513 26.3731 81.6998 26.5875 81.9143Z" fill="#5F5F6A"/>
<path d="M33.0982 82.0967L33.2342 82.6254C33.2915 82.8481 33.1896 83.0812 32.9871 83.1902C32.7847 83.2993 32.534 83.2562 32.3795 83.0858C32.1471 82.8294 31.7943 82.7205 31.3014 82.7593C30.805 82.7984 30.2406 82.9849 29.7066 83.2273C29.5518 83.2975 29.372 83.2843 29.2292 83.1922C29.0863 83.1002 29 82.9419 29 82.7719C29 82.4113 29.2116 82.1154 29.4125 81.9143C29.6268 81.6998 29.9076 81.513 30.2058 81.3669C30.7836 81.0838 31.5635 80.8896 32.222 81.0694C32.7896 81.2245 33.0133 81.7585 33.0977 82.095L33.0982 82.0967Z" fill="#5F5F6A"/>
<path fill-rule="evenodd" clip-rule="evenodd" d="M22.3138 85.6973C22.173 86.0165 22.2709 86.3907 22.55 86.6C22.9136 86.8727 22.9612 87.0658 22.9713 87.1873C22.9875 87.3813 22.9243 87.6053 22.7885 88.0128C22.7047 88.2643 22.7598 88.5414 22.9336 88.7416C23.4903 89.3831 24.3097 89.8793 25.1817 90.2146C26.0613 90.5528 27.0519 90.7498 28 90.7498C28.9481 90.7498 29.9387 90.5528 30.8183 90.2146C31.6903 89.8793 32.5097 89.3831 33.0664 88.7416C33.2402 88.5414 33.2953 88.2643 33.2115 88.0128C33.0757 87.6053 33.0125 87.3813 33.0287 87.1873C33.0388 87.0658 33.0864 86.8727 33.45 86.6C33.7291 86.3907 33.827 86.0165 33.6862 85.6973C33.5454 85.3781 33.2031 85.1981 32.8603 85.2631C32.2887 85.3683 31.7147 85.4611 31.1393 85.5432C30.1447 85.685 28.9381 85.8214 28 85.8214C27.0619 85.8214 25.8553 85.685 24.8607 85.5432C24.2958 85.4626 23.7324 85.3718 23.1712 85.269C22.8224 85.204 22.4608 85.3642 22.3138 85.6973ZM31.5399 87.0008C31.4781 87.0099 31.4151 87.019 31.3511 87.0282C30.3426 87.172 29.0492 87.3214 28 87.3214C26.9508 87.3214 25.6574 87.172 24.6489 87.0282C24.5849 87.019 24.5219 87.0099 24.4601 87.0008C24.5017 87.3688 24.4368 87.7339 24.3527 88.0389C24.6973 88.3313 25.1662 88.6016 25.7201 88.8145C26.4401 89.0914 27.2486 89.2498 28 89.2498C28.7514 89.2498 29.5599 89.0914 30.2799 88.8146C30.8338 88.6016 31.3027 88.3313 31.6473 88.0389C31.5632 87.7339 31.4983 87.3688 31.5399 87.0008Z" fill="#5F5F6A"/>
<path fill-rule="evenodd" clip-rule="evenodd" d="M28 74.25C22.6152 74.25 18.25 78.6152 18.25 84C18.25 89.3848 22.6152 93.75 28 93.75C33.3848 93.75 37.75 89.3848 37.75 84C37.75 78.6152 33.3848 74.25 28 74.25ZM19.75 84C19.75 79.4437 23.4437 75.75 28 75.75C32.5563 75.75 36.25 79.4437 36.25 84C36.25 88.5563 32.5563 92.25 28 92.25C23.4437 92.25 19.75 88.5563 19.75 84Z" fill="#5F5F6A"/>
<path d="M26.5875 137.914C26.7883 138.115 27 138.411 27 138.772C27 138.942 26.9137 139.1 26.7708 139.192C26.628 139.284 26.4481 139.297 26.2934 139.227C25.7594 138.985 25.195 138.798 24.6986 138.759C24.2056 138.72 23.8529 138.829 23.6204 139.086C23.466 139.256 23.2153 139.299 23.0129 139.19C22.8104 139.081 22.7085 138.848 22.7658 138.625L22.9023 138.095C22.9867 137.758 23.2104 137.225 23.778 137.069C24.4365 136.89 25.2164 137.084 25.7941 137.367C26.0923 137.513 26.3731 137.7 26.5875 137.914Z" fill="#5F5F6A"/>
<path d="M33.0982 138.097L33.2342 138.625C33.2915 138.848 33.1896 139.081 32.9871 139.19C32.7847 139.299 32.534 139.256 32.3795 139.086C32.1471 138.829 31.7943 138.72 31.3014 138.759C30.805 138.798 30.2406 138.985 29.7066 139.227C29.5518 139.297 29.372 139.284 29.2292 139.192C29.0863 139.1 29 138.942 29 138.772C29 138.411 29.2116 138.115 29.4125 137.914C29.6268 137.7 29.9076 137.513 30.2058 137.367C30.7836 137.084 31.5635 136.89 32.222 137.069C32.7896 137.225 33.0133 137.758 33.0977 138.095L33.0982 138.097Z" fill="#5F5F6A"/>
<path fill-rule="evenodd" clip-rule="evenodd" d="M22.3138 141.697C22.173 142.017 22.2709 142.391 22.55 142.6C22.9136 142.873 22.9612 143.066 22.9713 143.187C22.9875 143.381 22.9243 143.605 22.7885 144.013C22.7047 144.264 22.7598 144.541 22.9336 144.742C23.4903 145.383 24.3097 145.879 25.1817 146.215C26.0613 146.553 27.0519 146.75 28 146.75C28.9481 146.75 29.9387 146.553 30.8183 146.215C31.6903 145.879 32.5097 145.383 33.0664 144.742C33.2402 144.541 33.2953 144.264 33.2115 144.013C33.0757 143.605 33.0125 143.381 33.0287 143.187C33.0388 143.066 33.0864 142.873 33.45 142.6C33.7291 142.391 33.827 142.017 33.6862 141.697C33.5454 141.378 33.2031 141.198 32.8603 141.263C32.2887 141.368 31.7147 141.461 31.1393 141.543C30.1447 141.685 28.9381 141.821 28 141.821C27.0619 141.821 25.8553 141.685 24.8607 141.543C24.2958 141.463 23.7324 141.372 23.1712 141.269C22.8224 141.204 22.4608 141.364 22.3138 141.697ZM31.5399 143.001C31.4781 143.01 31.4151 143.019 31.3511 143.028C30.3426 143.172 29.0492 143.321 28 143.321C26.9508 143.321 25.6574 143.172 24.6489 143.028C24.5849 143.019 24.5219 143.01 24.4601 143.001C24.5017 143.369 24.4368 143.734 24.3527 144.039C24.6973 144.331 25.1662 144.602 25.7201 144.815C26.4401 145.091 27.2486 145.25 28 145.25C28.7514 145.25 29.5599 145.091 30.2799 144.815C30.8338 144.602 31.3027 144.331 31.6473 144.039C31.5632 143.734 31.4983 143.369 31.5399 143.001Z" fill="#5F5F6A"/>
<path fill-rule="evenodd" clip-rule="evenodd" d="M28 130.25C22.6152 130.25 18.25 134.615 18.25 140C18.25 145.385 22.6152 149.75 28 149.75C33.3848 149.75 37.75 145.385 37.75 140C37.75 134.615 33.3848 130.25 28 130.25ZM19.75 140C19.75 135.444 23.4437 131.75 28 131.75C32.5563 131.75 36.25 135.444 36.25 140C36.25 144.556 32.5563 148.25 28 148.25C23.4437 148.25 19.75 144.556 19.75 140Z" fill="#5F5F6A"/>
<path d="M26.875 194.772C26.875 194.461 26.6912 194.195 26.499 194.003C26.2968 193.8 26.0284 193.621 25.7392 193.479C25.1747 193.203 24.4279 193.021 23.811 193.19C23.3119 193.326 23.1051 193.8 23.0234 194.126L22.8868 194.657C22.8439 194.824 22.9203 194.998 23.0722 195.08C23.224 195.162 23.412 195.13 23.5278 195.002C23.7959 194.706 24.1939 194.594 24.7084 194.635C25.2255 194.675 25.805 194.868 26.345 195.113C26.4611 195.166 26.596 195.156 26.7031 195.087C26.8103 195.018 26.875 194.899 26.875 194.772Z" fill="#5F5F6A"/>
<path d="M33.1132 194.657L32.9769 194.127L32.9766 194.126C32.8948 193.8 32.6881 193.326 32.1891 193.19C31.5721 193.021 30.8253 193.203 30.2608 193.479C29.9716 193.621 29.7032 193.8 29.501 194.003C29.3088 194.195 29.125 194.461 29.125 194.772C29.125 194.899 29.1897 195.018 29.2969 195.087C29.404 195.156 29.5389 195.166 29.655 195.113C30.195 194.868 30.7745 194.675 31.2916 194.635C31.8061 194.594 32.2041 194.706 32.4722 195.002C32.588 195.13 32.776 195.162 32.9279 195.08C33.0797 194.998 33.1561 194.824 33.1132 194.657Z" fill="#5F5F6A"/>
<path fill-rule="evenodd" clip-rule="evenodd" d="M23.0931 197.509C22.8646 197.465 22.6364 197.585 22.5425 197.798C22.4487 198.011 22.5139 198.26 22.7 198.4C23.1091 198.707 23.2033 198.96 23.2205 199.167C23.2417 199.421 23.1579 199.695 23.0257 200.092C22.9698 200.26 23.0066 200.444 23.1224 200.578C23.6439 201.179 24.4235 201.655 25.2715 201.981C26.1245 202.309 27.0847 202.5 28 202.5C28.9154 202.5 29.8756 202.309 30.7286 201.981C31.5765 201.655 32.3561 201.179 32.8776 200.578C32.9935 200.444 33.0302 200.26 32.9743 200.092C32.8421 199.695 32.7583 199.421 32.7795 199.167C32.7967 198.96 32.8909 198.707 33.3 198.4C33.4861 198.26 33.5514 198.011 33.4575 197.798C33.3636 197.585 33.1354 197.465 32.9069 197.509C32.3319 197.616 31.7537 197.708 31.1746 197.791C30.1777 197.933 28.9566 198.071 28 198.071C27.0434 198.071 25.8223 197.933 24.8254 197.791C24.2463 197.708 23.6682 197.616 23.0931 197.509ZM24.1427 198.7C24.1817 198.825 24.2062 198.953 24.217 199.083C24.248 199.455 24.1626 199.814 24.0683 200.12C24.4506 200.48 24.9934 200.803 25.6303 201.048C26.377 201.335 27.2158 201.5 28 201.5C28.7842 201.5 29.623 201.335 30.3697 201.048C31.0066 200.803 31.5494 200.48 31.9317 200.12C31.8374 199.814 31.7521 199.455 31.783 199.083C31.7939 198.953 31.8183 198.825 31.8573 198.7C31.688 198.726 31.5064 198.753 31.3158 198.781C30.3096 198.924 29.0307 199.071 28 199.071C26.9694 199.071 25.6904 198.924 24.6842 198.781C24.4936 198.753 24.312 198.726 24.1427 198.7Z" fill="#5F5F6A"/>
<path fill-rule="evenodd" clip-rule="evenodd" d="M28 186.5C22.7533 186.5 18.5 190.753 18.5 196C18.5 201.247 22.7533 205.5 28 205.5C33.2467 205.5 37.5 201.247 37.5 196C37.5 190.753 33.2467 186.5 28 186.5ZM19.5 196C19.5 191.306 23.3056 187.5 28 187.5C32.6944 187.5 36.5 191.306 36.5 196C36.5 200.694 32.6944 204.5 28 204.5C23.3056 204.5 19.5 200.694 19.5 196Z" fill="#5F5F6A"/>
</svg>
