<svg width="56" height="224" viewBox="0 0 56 224" fill="none" xmlns="http://www.w3.org/2000/svg">
<path fill-rule="evenodd" clip-rule="evenodd" d="M28 18.25C22.6152 18.25 18.25 22.6152 18.25 28C18.25 33.3848 22.6152 37.75 28 37.75C33.3848 37.75 37.75 33.3848 37.75 28C37.75 22.6152 33.3848 18.25 28 18.25ZM27 26.7719C27 26.4113 26.7883 26.1154 26.5875 25.9143C26.3731 25.6998 26.0923 25.513 25.7941 25.3669C25.2164 25.0838 24.4365 24.8896 23.778 25.0694C23.1117 25.2515 22.9461 25.9097 22.798 26.4983C22.7872 26.5411 22.7765 26.5836 22.7658 26.6254C22.7085 26.8481 22.8104 27.0812 23.0129 27.1902C23.2153 27.2993 23.466 27.2562 23.6204 27.0858C23.8529 26.8294 24.2056 26.7205 24.6985 26.7593C25.195 26.7984 25.7594 26.9849 26.2934 27.2273C26.6186 27.3748 27 27.1291 27 26.7719ZM32.9871 27.1902C33.1896 27.0812 33.2915 26.8481 33.2342 26.6254C33.2234 26.5836 33.2128 26.5411 33.202 26.4983C33.0539 25.9097 32.8883 25.2515 32.222 25.0694C31.5635 24.8896 30.7836 25.0838 30.2058 25.3669C29.9076 25.513 29.6268 25.6998 29.4125 25.9143C29.2116 26.1154 29 26.4113 29 26.7719C29 27.1291 29.3814 27.3748 29.7066 27.2273C30.2406 26.9849 30.805 26.7984 31.3014 26.7593C31.7943 26.7205 32.1471 26.8294 32.3795 27.0858C32.534 27.2562 32.7847 27.2993 32.9871 27.1902ZM33.4394 29.9546C34.0221 31.3142 33.1796 32.5874 32.1553 33.3755C31.0891 34.1959 29.553 34.7498 28 34.7498C26.447 34.7498 24.911 34.196 23.8447 33.3755C22.8205 32.5874 21.9779 31.3142 22.5606 29.9546C22.7554 29.5001 23.2135 29.2983 23.6852 29.3042C23.9839 29.3079 24.3549 29.3808 24.7092 29.4503C25.7981 29.664 26.8873 29.8214 28 29.8214C29.1127 29.8214 30.2019 29.664 31.2909 29.4503C31.6451 29.3808 32.0161 29.3079 32.3148 29.3042C32.7865 29.2983 33.2446 29.5001 33.4394 29.9546Z" fill="#5F5F6A"/>
<path opacity="0.5" fill-rule="evenodd" clip-rule="evenodd" d="M28 93C32.9706 93 37 88.9706 37 84C37 79.0294 32.9706 75 28 75C23.0294 75 19 79.0294 19 84C19 88.9706 23.0294 93 28 93ZM26.5875 81.9143C26.7883 82.1154 27 82.4113 27 82.7719C27 83.1291 26.6186 83.3748 26.2934 83.2273C25.7594 82.9849 25.195 82.7984 24.6985 82.7593C24.2056 82.7205 23.8529 82.8294 23.6204 83.0858C23.466 83.2562 23.2153 83.2993 23.0129 83.1902C22.8104 83.0812 22.7085 82.8481 22.7658 82.6254C22.9246 82.0079 23.0632 81.2647 23.778 81.0694C24.4365 80.8896 25.2164 81.0838 25.7941 81.3669C26.0923 81.513 26.3731 81.6998 26.5875 81.9143ZM33.2342 82.6254C33.2915 82.8481 33.1896 83.0812 32.9871 83.1902C32.7847 83.2993 32.534 83.2562 32.3795 83.0858C32.1471 82.8294 31.7943 82.7205 31.3014 82.7593C30.805 82.7984 30.2406 82.9849 29.7066 83.2273C29.3814 83.3748 29 83.1291 29 82.7719C29 82.4113 29.2116 82.1154 29.4125 81.9143C29.6268 81.6998 29.9076 81.513 30.2058 81.3669C30.7836 81.0838 31.5635 80.8896 32.222 81.0694C32.9368 81.2647 33.0753 82.0079 33.2342 82.6254ZM32.1553 89.3755C33.1796 88.5874 34.0221 87.3142 33.4394 85.9546C33.2446 85.5001 32.7865 85.2983 32.3148 85.3042C32.0161 85.3079 31.6451 85.3808 31.2909 85.4503C30.2019 85.664 29.1127 85.8214 28 85.8214C26.8873 85.8214 25.7981 85.664 24.7092 85.4503C24.3549 85.3808 23.9839 85.3079 23.6852 85.3042C23.2135 85.2983 22.7554 85.5001 22.5606 85.9546C21.9779 87.3142 22.8205 88.5874 23.8447 89.3755C24.911 90.196 26.447 90.7498 28 90.7498C29.553 90.7498 31.0891 90.1959 32.1553 89.3755Z" fill="#5F5F6A"/>
<path d="M27 82.7719C27 82.4113 26.7883 82.1154 26.5875 81.9143C26.3731 81.6998 26.0923 81.513 25.7941 81.3669C25.2164 81.0838 24.4365 80.8896 23.778 81.0694C23.2104 81.2245 22.9867 81.7584 22.9023 82.0949L22.7658 82.6254C22.7085 82.8481 22.8104 83.0812 23.0129 83.1902C23.2153 83.2993 23.466 83.2562 23.6204 83.0858C23.8529 82.8294 24.2056 82.7205 24.6986 82.7593C25.195 82.7984 25.7594 82.9849 26.2934 83.2273C26.4481 83.2975 26.628 83.2843 26.7708 83.1922C26.9137 83.1002 27 82.9419 27 82.7719Z" fill="#5F5F6A"/>
<path d="M33.2342 82.6254L33.0982 82.0967L33.0977 82.095C33.0133 81.7585 32.7896 81.2245 32.222 81.0694C31.5635 80.8896 30.7836 81.0838 30.2058 81.3669C29.9076 81.513 29.6268 81.6998 29.4125 81.9143C29.2116 82.1154 29 82.4113 29 82.7719C29 82.9419 29.0863 83.1002 29.2292 83.1922C29.372 83.2843 29.5518 83.2975 29.7066 83.2273C30.2406 82.9849 30.805 82.7984 31.3014 82.7593C31.7943 82.7205 32.1471 82.8294 32.3795 83.0858C32.534 83.2562 32.7847 83.2993 32.9871 83.1902C33.1896 83.0812 33.2915 82.8481 33.2342 82.6254Z" fill="#5F5F6A"/>
<path fill-rule="evenodd" clip-rule="evenodd" d="M33.4394 85.9545C34.0221 87.3142 33.1796 88.5874 32.1553 89.3755C31.0891 90.1959 29.553 90.7498 28 90.7498C26.447 90.7498 24.911 90.1959 23.8447 89.3755C22.8205 88.5874 21.9779 87.3142 22.5606 85.9546C22.7554 85.5001 23.2135 85.2983 23.6852 85.3042C23.9839 85.3079 24.3549 85.3808 24.7092 85.4503L24.7744 85.4631C25.547 85.6147 26.6 85.8214 28 85.8214C29.1127 85.8214 30.2019 85.664 31.2908 85.4503C31.6451 85.3807 32.0161 85.3079 32.3148 85.3042C32.7865 85.2983 33.2446 85.5001 33.4394 85.9545ZM31.5033 86.9372C30.7166 87.0917 29.5466 87.3214 28 87.3214C26.4535 87.3214 25.2834 87.0917 24.4968 86.9372L24.4494 86.9279C24.1966 86.8783 24.014 86.8441 23.8785 86.8244C23.866 87.1962 24.0968 87.6768 24.7595 88.1867C25.5613 88.8037 26.7752 89.2498 28 89.2498C29.2248 89.2498 30.4387 88.8037 31.2406 88.1867C31.9032 87.6768 32.134 87.1962 32.1215 86.8244C31.9777 86.8453 31.7771 86.8834 31.5033 86.9372Z" fill="#5F5F6A"/>
<path fill-rule="evenodd" clip-rule="evenodd" d="M28 74.25C22.6152 74.25 18.25 78.6152 18.25 84C18.25 89.3848 22.6152 93.75 28 93.75C33.3848 93.75 37.75 89.3848 37.75 84C37.75 78.6152 33.3848 74.25 28 74.25ZM19.75 84C19.75 79.4437 23.4437 75.75 28 75.75C32.5563 75.75 36.25 79.4437 36.25 84C36.25 88.5563 32.5563 92.25 28 92.25C23.4437 92.25 19.75 88.5563 19.75 84Z" fill="#5F5F6A"/>
<path d="M27 138.772C27 138.411 26.7883 138.115 26.5875 137.914C26.3731 137.7 26.0923 137.513 25.7941 137.367C25.2164 137.084 24.4365 136.89 23.778 137.069C23.2104 137.225 22.9867 137.758 22.9023 138.095L22.7658 138.625C22.7085 138.848 22.8104 139.081 23.0129 139.19C23.2153 139.299 23.466 139.256 23.6204 139.086C23.8529 138.829 24.2056 138.72 24.6986 138.759C25.195 138.798 25.7594 138.985 26.2934 139.227C26.4481 139.297 26.628 139.284 26.7708 139.192C26.9137 139.1 27 138.942 27 138.772Z" fill="#5F5F6A"/>
<path d="M33.2342 138.625L33.0982 138.097L33.0977 138.095C33.0133 137.758 32.7896 137.225 32.222 137.069C31.5635 136.89 30.7836 137.084 30.2058 137.367C29.9076 137.513 29.6268 137.7 29.4125 137.914C29.2116 138.115 29 138.411 29 138.772C29 138.942 29.0863 139.1 29.2292 139.192C29.372 139.284 29.5518 139.297 29.7066 139.227C30.2406 138.985 30.805 138.798 31.3014 138.759C31.7943 138.72 32.1471 138.829 32.3795 139.086C32.534 139.256 32.7847 139.299 32.9871 139.19C33.1896 139.081 33.2915 138.848 33.2342 138.625Z" fill="#5F5F6A"/>
<path fill-rule="evenodd" clip-rule="evenodd" d="M33.4394 141.955C34.0221 143.314 33.1796 144.587 32.1553 145.376C31.0891 146.196 29.553 146.75 28 146.75C26.447 146.75 24.911 146.196 23.8447 145.376C22.8205 144.587 21.9779 143.314 22.5606 141.955C22.7554 141.5 23.2135 141.298 23.6852 141.304C23.9839 141.308 24.3549 141.381 24.7092 141.45L24.7744 141.463C25.547 141.615 26.6 141.821 28 141.821C29.1127 141.821 30.2019 141.664 31.2908 141.45C31.6451 141.381 32.0161 141.308 32.3148 141.304C32.7865 141.298 33.2446 141.5 33.4394 141.955ZM31.5033 142.937C30.7166 143.092 29.5466 143.321 28 143.321C26.4535 143.321 25.2834 143.092 24.4968 142.937L24.4494 142.928C24.1966 142.878 24.014 142.844 23.8785 142.824C23.866 143.196 24.0968 143.677 24.7595 144.187C25.5613 144.804 26.7752 145.25 28 145.25C29.2248 145.25 30.4387 144.804 31.2406 144.187C31.9032 143.677 32.134 143.196 32.1215 142.824C31.9777 142.845 31.7771 142.883 31.5033 142.937Z" fill="#5F5F6A"/>
<path fill-rule="evenodd" clip-rule="evenodd" d="M28 130.25C22.6152 130.25 18.25 134.615 18.25 140C18.25 145.385 22.6152 149.75 28 149.75C33.3848 149.75 37.75 145.385 37.75 140C37.75 134.615 33.3848 130.25 28 130.25ZM19.75 140C19.75 135.444 23.4437 131.75 28 131.75C32.5563 131.75 36.25 135.444 36.25 140C36.25 144.556 32.5563 148.25 28 148.25C23.4437 148.25 19.75 144.556 19.75 140Z" fill="#5F5F6A"/>
<path d="M26.875 194.772C26.875 194.461 26.6912 194.195 26.499 194.003C26.2968 193.8 26.0284 193.621 25.7392 193.479C25.1747 193.203 24.4279 193.021 23.811 193.19C23.3119 193.326 23.1051 193.8 23.0234 194.126L22.8868 194.657C22.8439 194.824 22.9203 194.998 23.0722 195.08C23.224 195.162 23.412 195.13 23.5278 195.002C23.7959 194.706 24.1939 194.594 24.7084 194.635C25.2255 194.675 25.805 194.868 26.345 195.113C26.4611 195.166 26.596 195.156 26.7031 195.087C26.8103 195.018 26.875 194.899 26.875 194.772Z" fill="#5F5F6A"/>
<path d="M33.1132 194.657L32.9769 194.127L32.9766 194.126C32.8948 193.8 32.6881 193.326 32.1891 193.19C31.5721 193.021 30.8253 193.203 30.2608 193.479C29.9716 193.621 29.7032 193.8 29.501 194.003C29.3088 194.195 29.125 194.461 29.125 194.772C29.125 194.899 29.1897 195.018 29.2969 195.087C29.404 195.156 29.5389 195.166 29.655 195.113C30.195 194.868 30.7745 194.675 31.2916 194.635C31.8061 194.594 32.2041 194.706 32.4722 195.002C32.588 195.13 32.776 195.162 32.9279 195.08C33.0797 194.998 33.1561 194.824 33.1132 194.657Z" fill="#5F5F6A"/>
<path fill-rule="evenodd" clip-rule="evenodd" d="M32.7982 197.639C32.9818 197.719 33.1269 197.86 33.2096 198.053C33.723 199.251 32.997 200.412 32.0028 201.177C30.9807 201.964 29.4983 202.5 28 202.5C26.5017 202.5 25.0193 201.964 23.9972 201.177C23.003 200.412 22.277 199.251 22.7904 198.053C22.8731 197.86 23.0182 197.719 23.2018 197.639C23.3661 197.566 23.5385 197.552 23.682 197.554C23.9576 197.558 24.3097 197.627 24.6773 197.699L24.7283 197.709C25.503 197.861 26.5756 198.071 28 198.071C29.4245 198.071 30.497 197.861 31.2718 197.709L31.3228 197.699C31.6903 197.627 32.0424 197.558 32.318 197.554C32.4615 197.552 32.6339 197.566 32.7982 197.639ZM31.4569 198.692C30.6727 198.845 29.5222 199.071 28 199.071C26.4779 199.071 25.3274 198.845 24.5432 198.692L24.4975 198.683C24.0892 198.603 23.8371 198.556 23.6705 198.554C23.5086 199.089 23.7887 199.755 24.607 200.385C25.4529 201.036 26.7205 201.5 28 201.5C29.2795 201.5 30.5471 201.036 31.393 200.385C32.2113 199.755 32.4914 199.089 32.3295 198.554C32.163 198.556 31.9108 198.602 31.5025 198.683L31.4569 198.692Z" fill="#5F5F6A"/>
<path fill-rule="evenodd" clip-rule="evenodd" d="M18.5 196C18.5 190.753 22.7533 186.5 28 186.5C33.2467 186.5 37.5 190.753 37.5 196C37.5 201.247 33.2467 205.5 28 205.5C22.7533 205.5 18.5 201.247 18.5 196ZM28 187.5C23.3056 187.5 19.5 191.306 19.5 196C19.5 200.694 23.3056 204.5 28 204.5C32.6944 204.5 36.5 200.694 36.5 196C36.5 191.306 32.6944 187.5 28 187.5Z" fill="#5F5F6A"/>
</svg>
