<svg width="56" height="168" viewBox="0 0 56 168" fill="none" xmlns="http://www.w3.org/2000/svg">
<path d="M18.75 23.5697C18.75 20.9594 21.047 18.75 24 18.75C26.1823 18.75 28.0245 19.9679 28.8215 21.6598C28.998 22.0346 29.4449 22.1952 29.8196 22.0187C30.1943 21.8422 30.355 21.3953 30.1785 21.0206C29.123 18.7801 26.7371 17.25 24 17.25C20.3256 17.25 17.25 20.0278 17.25 23.5697C17.25 24.8797 17.6761 26.0938 18.3986 27.0979L17.6868 29.1903C17.3268 30.2487 18.5045 31.1654 19.4422 30.5596L21.296 29.3619C21.6265 29.4973 21.9706 29.6085 22.3257 29.6934C22.7286 29.7896 23.1332 29.5411 23.2295 29.1382C23.3257 28.7353 23.0772 28.3307 22.6743 28.2344C22.2816 28.1406 21.9073 28.0062 21.5567 27.8365L21.1772 27.6528L19.4047 28.798L20.0831 26.8035L19.8161 26.4807C19.1432 25.6672 18.75 24.6588 18.75 23.5697Z" fill="#5F5F6A"/>
<path d="M31 23.25C26.7731 23.25 23.25 26.4446 23.25 30.5C23.25 34.5554 26.7731 37.75 31 37.75C32.126 37.75 33.1986 37.525 34.1674 37.1189L36.3851 38.5521C37.3804 39.1953 38.6286 38.2217 38.2471 37.0998L37.3957 34.5963C38.2473 33.4345 38.75 32.0236 38.75 30.5C38.75 26.4446 35.2269 23.25 31 23.25ZM24.75 30.5C24.75 27.3757 27.4949 24.75 31 24.75C34.5051 24.75 37.25 27.3757 37.25 30.5C37.25 31.8022 36.7798 33.0068 35.9775 33.9771L35.7105 34.2999L36.5954 36.902L34.2845 35.4085L33.9048 35.5923C33.0391 36.0114 32.0516 36.25 31 36.25C27.4949 36.25 24.75 33.6243 24.75 30.5Z" fill="#5F5F6A"/>
<g opacity="0.5">
<path d="M21.5 21.5C21.2239 21.5 21 21.7239 21 22C21 22.2761 21.2239 22.5 21.5 22.5H26.5C26.7761 22.5 27 22.2761 27 22C27 21.7239 26.7761 21.5 26.5 21.5H21.5Z" fill="#5F5F6A"/>
<path d="M29.3397 28.0701C28.2597 28.4101 27.8697 29.6301 28.1997 30.6201C28.7297 32.2001 30.4997 33.0001 30.9997 33.0001C31.4997 33.0001 33.2897 32.1901 33.7997 30.6201C34.1297 29.6301 33.7397 28.4001 32.6597 28.0701C32.0997 27.9001 31.3797 28.0201 30.9997 28.5701C30.5997 28.0401 29.8997 27.9001 29.3397 28.0701Z" fill="#5F5F6A"/>
<path d="M21 26C21 25.7239 21.2239 25.5 21.5 25.5H22.5C22.7761 25.5 23 25.7239 23 26C23 26.2761 22.7761 26.5 22.5 26.5H21.5C21.2239 26.5 21 26.2761 21 26Z" fill="#5F5F6A"/>
<path d="M21.5 23.5C21.2239 23.5 21 23.7239 21 24C21 24.2761 21.2239 24.5 21.5 24.5H24.5C24.7761 24.5 25 24.2761 25 24C25 23.7239 24.7761 23.5 24.5 23.5H21.5Z" fill="#5F5F6A"/>
</g>
<path d="M18.75 79.5697C18.75 76.9594 21.047 74.75 24 74.75C26.1823 74.75 28.0245 75.9679 28.8215 77.6598C28.998 78.0346 29.4449 78.1952 29.8196 78.0187C30.1943 77.8422 30.355 77.3953 30.1785 77.0206C29.123 74.7801 26.7371 73.25 24 73.25C20.3256 73.25 17.25 76.0278 17.25 79.5697C17.25 80.8797 17.6761 82.0938 18.3986 83.0979L17.6868 85.1903C17.3268 86.2487 18.5045 87.1654 19.4422 86.5596L21.296 85.3619C21.6265 85.4973 21.9706 85.6085 22.3257 85.6934C22.7286 85.7896 23.1332 85.5411 23.2295 85.1382C23.3257 84.7353 23.0772 84.3307 22.6743 84.2344C22.2816 84.1406 21.9073 84.0062 21.5567 83.8365L21.1772 83.6528L19.4047 84.798L20.0831 82.8035L19.8161 82.4807C19.1432 81.6672 18.75 80.6588 18.75 79.5697Z" fill="#5F5F6A"/>
<path d="M28.1997 86.6201C27.8697 85.6301 28.2597 84.4101 29.3397 84.0701C29.8997 83.9001 30.5997 84.0401 30.9997 84.5701C31.3797 84.0201 32.0997 83.9001 32.6597 84.0701C33.7397 84.4001 34.1297 85.6301 33.7997 86.6201C33.2897 88.1901 31.4997 89.0001 30.9997 89.0001C30.4997 89.0001 28.7297 88.2001 28.1997 86.6201Z" fill="#5F5F6A"/>
<path d="M31 79.25C26.7731 79.25 23.25 82.4446 23.25 86.5C23.25 90.5554 26.7731 93.75 31 93.75C32.126 93.75 33.1986 93.525 34.1674 93.1189L36.3851 94.5521C37.3804 95.1953 38.6286 94.2217 38.2471 93.0998L37.3957 90.5963C38.2473 89.4345 38.75 88.0236 38.75 86.5C38.75 82.4446 35.2269 79.25 31 79.25ZM24.75 86.5C24.75 83.3757 27.4949 80.75 31 80.75C34.5051 80.75 37.25 83.3757 37.25 86.5C37.25 87.8022 36.7798 89.0068 35.9775 89.9771L35.7105 90.2999L36.5954 92.902L34.2845 91.4085L33.9048 91.5923C33.0391 92.0114 32.0516 92.25 31 92.25C27.4949 92.25 24.75 89.6243 24.75 86.5Z" fill="#5F5F6A"/>
<path d="M21.5 77.5C21.2239 77.5 21 77.7239 21 78C21 78.2761 21.2239 78.5 21.5 78.5H26.5C26.7761 78.5 27 78.2761 27 78C27 77.7239 26.7761 77.5 26.5 77.5H21.5Z" fill="#5F5F6A"/>
<path d="M21 82C21 81.7239 21.2239 81.5 21.5 81.5H22.5C22.7761 81.5 23 81.7239 23 82C23 82.2761 22.7761 82.5 22.5 82.5H21.5C21.2239 82.5 21 82.2761 21 82Z" fill="#5F5F6A"/>
<path d="M21.5 79.5C21.2239 79.5 21 79.7239 21 80C21 80.2761 21.2239 80.5 21.5 80.5H24.5C24.7761 80.5 25 80.2761 25 80C25 79.7239 24.7761 79.5 24.5 79.5H21.5Z" fill="#5F5F6A"/>
<path d="M18.5 135.57C18.5 132.804 20.9267 130.5 24 130.5C26.2748 130.5 28.2076 131.77 29.0477 133.553C29.1654 133.803 29.4633 133.91 29.7131 133.793C29.9629 133.675 30.07 133.377 29.9523 133.127C28.9399 130.978 26.6447 129.5 24 129.5C20.4458 129.5 17.5 132.183 17.5 135.57C17.5 136.869 17.9375 138.071 18.6773 139.055L17.9235 141.271C17.6398 142.105 18.5676 142.827 19.3066 142.35L21.2712 141.08C21.6261 141.234 21.9982 141.358 22.3838 141.45C22.6524 141.514 22.9221 141.349 22.9863 141.08C23.0505 140.812 22.8848 140.542 22.6162 140.478C22.2059 140.38 21.8146 140.239 21.4478 140.062L21.1948 139.939L18.9365 141.398L19.8015 138.855L19.6234 138.64C18.916 137.785 18.5 136.721 18.5 135.57Z" fill="#5F5F6A"/>
<path d="M30.9898 139.87C31.5349 139.467 32.255 139.425 32.805 139.592C34.2329 140.028 34.6637 141.607 34.2747 142.776C33.9745 143.699 33.3093 144.373 32.6814 144.809C32.3643 145.03 32.0454 145.198 31.7655 145.312C31.5017 145.42 31.2234 145.5 30.9998 145.5C30.7767 145.5 30.5 145.421 30.2371 145.313C29.9584 145.2 29.6413 145.033 29.3254 144.813C28.6988 144.377 28.0357 143.703 27.7257 142.779C27.3345 141.605 27.7681 140.041 29.1896 139.593L29.1945 139.592C29.7576 139.421 30.4512 139.486 30.9898 139.87ZM32.5141 140.548C32.0949 140.421 31.6317 140.535 31.4111 140.854L31.0177 141.424L30.6007 140.871C30.3511 140.541 29.8865 140.428 29.4874 140.548C28.7508 140.781 28.4058 141.656 28.674 142.461C28.894 143.117 29.3809 143.633 29.8966 143.992C30.152 144.17 30.4042 144.302 30.6146 144.387C30.7197 144.43 30.8103 144.46 30.8819 144.478C30.9176 144.487 30.9462 144.493 30.9678 144.497C30.9888 144.5 30.9989 144.5 30.9997 144.5C31.0008 144.5 31.0109 144.5 31.0313 144.497C31.0531 144.493 31.0819 144.487 31.1179 144.478C31.1901 144.459 31.2815 144.429 31.3875 144.386C31.5997 144.299 31.854 144.167 32.1107 143.988C32.6299 143.627 33.1141 143.112 33.3242 142.466L33.3254 142.462C33.5954 141.652 33.2452 140.772 32.5141 140.548Z" fill="#5F5F6A"/>
<path d="M31 135.5C26.8934 135.5 23.5 138.6 23.5 142.5C23.5 146.4 26.8934 149.5 31 149.5C32.1395 149.5 33.2216 149.263 34.1913 148.837L36.5208 150.342C37.3171 150.857 38.3156 150.078 38.0104 149.18L37.1166 146.552C37.9857 145.411 38.5 144.013 38.5 142.5C38.5 138.6 35.1066 135.5 31 135.5ZM24.5 142.5C24.5 139.221 27.3746 136.5 31 136.5C34.6254 136.5 37.5 139.221 37.5 142.5C37.5 143.864 37.007 145.124 36.1702 146.136L35.9922 146.352L37.0636 149.502L34.2669 147.695L34.0138 147.817C33.1144 148.253 32.0897 148.5 31 148.5C27.3746 148.5 24.5 145.779 24.5 142.5Z" fill="#5F5F6A"/>
<path d="M21.5 133.5C21.2239 133.5 21 133.724 21 134C21 134.276 21.2239 134.5 21.5 134.5H26.5C26.7761 134.5 27 134.276 27 134C27 133.724 26.7761 133.5 26.5 133.5H21.5Z" fill="#5F5F6A"/>
<path d="M21 138C21 137.724 21.2239 137.5 21.5 137.5H22.5C22.7761 137.5 23 137.724 23 138C23 138.276 22.7761 138.5 22.5 138.5H21.5C21.2239 138.5 21 138.276 21 138Z" fill="#5F5F6A"/>
<path d="M21.5 135.5C21.2239 135.5 21 135.724 21 136C21 136.276 21.2239 136.5 21.5 136.5H24.5C24.7761 136.5 25 136.276 25 136C25 135.724 24.7761 135.5 24.5 135.5H21.5Z" fill="#5F5F6A"/>
</svg>
