<svg width="56" height="168" viewBox="0 0 56 168" fill="none" xmlns="http://www.w3.org/2000/svg">
<path d="M28.831 18.881C28.284 18.7567 27.7161 18.7567 27.1691 18.881C26.5484 19.022 25.9846 19.3747 25.1684 19.8853L21.7613 22.0148C21.0317 22.4704 20.5272 22.7854 20.1526 23.2225C19.8222 23.6081 19.5735 24.0568 19.4216 24.5414C19.2495 25.0908 19.2497 25.6855 19.25 26.5457L19.2501 32.2321C19.25 33.045 19.25 33.7006 19.2934 34.2315C19.3381 34.7781 19.4324 35.2583 19.6588 35.7025C20.0183 36.4081 20.592 36.9818 21.2976 37.3413C21.7418 37.5676 22.222 37.662 22.7686 37.7066C23.2995 37.75 23.9551 37.75 24.7679 37.75H31.2322C32.045 37.75 32.7006 37.75 33.2315 37.7066C33.7782 37.662 34.2583 37.5676 34.7025 37.3413C35.4081 36.9818 35.9818 36.4081 36.3413 35.7025C36.5677 35.2583 36.662 34.7781 36.7067 34.2315C36.7501 33.7006 36.7501 33.045 36.7501 32.2321L36.7501 26.5457C36.7504 25.6855 36.7506 25.0908 36.5785 24.5414C36.4266 24.0568 36.1779 23.6081 35.8475 23.2225C35.4729 22.7854 34.9684 22.4704 34.2388 22.0148L30.8317 19.8853C30.0155 19.3747 29.4517 19.022 28.831 18.881ZM27.5015 20.3437C27.8297 20.2691 28.1704 20.2691 28.4986 20.3437C28.8402 20.4213 29.177 20.62 30.1466 21.226L33.3466 23.226C34.2111 23.7664 34.5022 23.9578 34.7085 24.1986C34.9068 24.43 35.056 24.6992 35.1471 24.99C35.2003 25.1597 35.2262 25.3437 35.2387 25.6524L29.5452 30.2784C29.1771 30.5775 28.9321 30.776 28.7303 30.9165C28.5362 31.0517 28.4247 31.1023 28.3372 31.1268C28.1168 31.1885 27.8837 31.1885 27.6634 31.1268C27.5759 31.1023 27.4643 31.0517 27.2703 30.9165C27.0685 30.776 26.8235 30.5775 26.4553 30.2784L20.7614 25.6521C20.7739 25.3436 20.7998 25.1596 20.853 24.99C20.9441 24.6992 21.0933 24.43 21.2916 24.1986C21.4979 23.9578 21.789 23.7664 22.6536 23.226L25.8536 21.226C26.8231 20.62 27.1599 20.4213 27.5015 20.3437ZM20.7501 27.5755L25.5302 31.4594C25.8722 31.7373 26.1601 31.9713 26.4129 32.1473C26.6784 32.3323 26.9466 32.4838 27.259 32.5713C27.7439 32.707 28.2567 32.707 28.7416 32.5713C29.0539 32.4838 29.3221 32.3323 29.5877 32.1473C29.8404 31.9712 30.1284 31.7373 30.4704 31.4593L35.2501 27.5759V32.2C35.2501 33.0525 35.2495 33.6467 35.2117 34.1093C35.1746 34.5632 35.1055 34.824 35.0048 35.0215C34.7891 35.4449 34.4449 35.7891 34.0215 36.0048C33.824 36.1054 33.5633 36.1745 33.1094 36.2116C32.6467 36.2494 32.0525 36.25 31.2001 36.25H24.8001C23.9476 36.25 23.3534 36.2494 22.8907 36.2116C22.4369 36.1745 22.1761 36.1054 21.9786 36.0048C21.5552 35.7891 21.211 35.4449 20.9953 35.0215C20.8947 34.824 20.8255 34.5632 20.7884 34.1093C20.7506 33.6467 20.7501 33.0525 20.7501 32.2V27.5755Z" fill="#5F5F6A"/>
<g opacity="0.5">
<path d="M23.25 26.5333C23.25 24.0573 25.2573 22.05 27.7333 22.05H28.8C30.9815 22.05 32.75 23.8185 32.75 26V26.8C32.75 27.2142 32.4142 27.55 32 27.55C31.5858 27.55 31.25 27.2142 31.25 26.8V26C31.25 24.6469 30.1531 23.55 28.8 23.55H27.7333C26.0857 23.55 24.75 24.8857 24.75 26.5333C24.75 26.9476 24.4142 27.2833 24 27.2833C23.5858 27.2833 23.25 26.9476 23.25 26.5333Z" fill="#5F5F6A"/>
<path d="M29.0512 24.5712C28.6935 24.3674 28.2811 24.25 27.8333 24.25C26.3465 24.25 25.25 25.544 25.25 27C25.25 28.456 26.3465 29.75 27.8333 29.75C28.4568 29.75 29.0117 29.5225 29.4458 29.1508C29.7225 29.4024 30.1497 29.4135 30.4399 29.163C30.7535 28.8924 30.7882 28.4188 30.5176 28.1052C30.4542 28.0318 30.4167 27.9379 30.4167 27.8333V25C30.4167 24.5858 30.0809 24.25 29.6667 24.25C29.4119 24.25 29.1868 24.377 29.0512 24.5712ZM27.8333 25.75C28.3715 25.75 28.9167 26.2469 28.9167 27C28.9167 27.7531 28.3715 28.25 27.8333 28.25C27.2951 28.25 26.75 27.7531 26.75 27C26.75 26.2469 27.2951 25.75 27.8333 25.75Z" fill="#5F5F6A"/>
<path d="M26.4132 32.1475C26.1605 31.9715 25.8722 31.7373 25.5302 31.4594L25.2266 31.2128L20.4697 35.9697L21.5304 37.0303L26.4132 32.1475Z" fill="#5F5F6A"/>
<path d="M29.5871 32.1477L34.4697 37.0303L35.5304 35.9697L30.7737 31.213L30.4704 31.4594C30.1284 31.7373 29.8398 31.9717 29.5871 32.1477Z" fill="#5F5F6A"/>
</g>
<path d="M27.7333 78.05C25.2573 78.05 23.25 80.0573 23.25 82.5333C23.25 82.9475 23.5858 83.2833 24 83.2833C24.4142 83.2833 24.75 82.9475 24.75 82.5333C24.75 80.8857 26.0857 79.55 27.7333 79.55H28.8C30.1531 79.55 31.25 80.6469 31.25 82V82.8C31.25 83.2142 31.5858 83.55 32 83.55C32.4142 83.55 32.75 83.2142 32.75 82.8V82C32.75 79.8185 30.9815 78.05 28.8 78.05H27.7333Z" fill="#5F5F6A"/>
<path d="M27.8333 80.25C28.2811 80.25 28.6935 80.3674 29.0512 80.5712C29.1868 80.377 29.4119 80.25 29.6667 80.25C30.0809 80.25 30.4167 80.5858 30.4167 81V83.8333C30.4167 83.9379 30.4542 84.0318 30.5176 84.1052C30.7882 84.4188 30.7535 84.8924 30.4399 85.163C30.1497 85.4135 29.7225 85.4024 29.4458 85.1508C29.0117 85.5224 28.4568 85.75 27.8333 85.75C26.3465 85.75 25.25 84.456 25.25 83C25.25 81.544 26.3465 80.25 27.8333 80.25ZM28.9167 83C28.9167 82.2469 28.3715 81.75 27.8333 81.75C27.2951 81.75 26.75 82.2469 26.75 83C26.75 83.7531 27.2951 84.25 27.8333 84.25C28.3715 84.25 28.9167 83.7531 28.9167 83Z" fill="#5F5F6A"/>
<path d="M27.1691 74.881C26.5484 75.022 25.9846 75.3747 25.1684 75.8853L21.7613 78.0148C21.0317 78.4704 20.5272 78.7854 20.1526 79.2225C19.8222 79.6081 19.5735 80.0568 19.4216 80.5414C19.2495 81.0908 19.2497 81.6855 19.25 82.5457L19.2501 88.2321C19.25 89.045 19.25 89.7006 19.2934 90.2315C19.3381 90.7781 19.4324 91.2583 19.6588 91.7025C20.0183 92.4081 20.592 92.9818 21.2976 93.3413C21.7418 93.5676 22.222 93.662 22.7686 93.7066C23.2995 93.75 23.9551 93.75 24.7679 93.75H31.2322C32.045 93.75 32.7006 93.75 33.2315 93.7066C33.7782 93.662 34.2583 93.5676 34.7025 93.3413C35.4081 92.9818 35.9818 92.4081 36.3413 91.7025C36.5677 91.2583 36.662 90.7781 36.7067 90.2315C36.7501 89.7006 36.7501 89.045 36.7501 88.2321L36.7501 82.5457C36.7504 81.6855 36.7506 81.0908 36.5785 80.5414C36.4266 80.0568 36.1779 79.6081 35.8475 79.2225C35.4729 78.7854 34.9684 78.4704 34.2388 78.0148L30.8317 75.8853C30.0155 75.3747 29.4517 75.022 28.831 74.881C28.284 74.7567 27.7161 74.7567 27.1691 74.881ZM28.4986 76.3437C28.8402 76.4213 29.177 76.62 30.1466 77.226L33.3466 79.226C34.2111 79.7664 34.5022 79.9578 34.7085 80.1986C34.9068 80.43 35.056 80.6992 35.1471 80.99C35.2003 81.1597 35.2262 81.3437 35.2387 81.6524L29.5452 86.2784C29.1771 86.5775 28.9321 86.776 28.7303 86.9165C28.5362 87.0517 28.4247 87.1023 28.3372 87.1268C28.1168 87.1885 27.8837 87.1885 27.6634 87.1268C27.5759 87.1023 27.4643 87.0517 27.2703 86.9165C27.0685 86.776 26.8235 86.5775 26.4553 86.2784L20.7614 81.6521C20.7739 81.3436 20.7998 81.1596 20.853 80.99C20.9441 80.6992 21.0933 80.43 21.2916 80.1986C21.4979 79.9578 21.789 79.7664 22.6536 79.226L25.8536 77.226C26.8231 76.62 27.1599 76.4213 27.5015 76.3437C27.8297 76.2691 28.1704 76.2691 28.4986 76.3437ZM20.7501 88.2V83.5755L25.2266 87.2128L21.1536 91.2858C21.0951 91.2018 21.0422 91.1135 20.9953 91.0215C20.8947 90.824 20.8255 90.5632 20.7884 90.1093C20.7506 89.6467 20.7501 89.0525 20.7501 88.2ZM22.4125 92.1482L26.4129 88.1473C26.4128 88.1472 26.413 88.1474 26.4129 88.1473C26.6784 88.3323 26.9466 88.4838 27.259 88.5713C27.7439 88.707 28.2567 88.707 28.7416 88.5713C29.0539 88.4838 29.3215 88.3327 29.5871 88.1477L33.5876 92.1482C33.4557 92.1749 33.2995 92.1961 33.1094 92.2116C32.6467 92.2494 32.0525 92.25 31.2001 92.25H24.8001C23.9476 92.25 23.3534 92.2494 22.8907 92.2116C22.7006 92.1961 22.5444 92.1749 22.4125 92.1482ZM30.4704 87.4593C30.4704 87.4594 30.4705 87.4593 30.4704 87.4593V87.4593ZM30.7737 87.213L35.2501 83.5759V88.2C35.2501 89.0525 35.2495 89.6467 35.2117 90.1093C35.1746 90.5632 35.1055 90.824 35.0048 91.0215C34.9579 91.1135 34.905 91.2018 34.8465 91.2858L30.7737 87.213Z" fill="#5F5F6A"/>
<path d="M27.7333 134.5C25.3953 134.5 23.5 136.395 23.5 138.733C23.5 139.009 23.7239 139.233 24 139.233C24.2761 139.233 24.5 139.009 24.5 138.733C24.5 136.948 25.9476 135.5 27.7333 135.5H28.8C30.2912 135.5 31.5 136.709 31.5 138.2V139C31.5 139.276 31.7239 139.5 32 139.5C32.2761 139.5 32.5 139.276 32.5 139V138.2C32.5 136.157 30.8435 134.5 28.8 134.5H27.7333Z" fill="#5F5F6A"/>
<path d="M27.8333 136.5C28.3378 136.5 28.7955 136.667 29.1693 136.948C29.1952 136.696 29.408 136.5 29.6667 136.5C29.9428 136.5 30.1667 136.724 30.1667 137V139.833C30.1667 140 30.2273 140.152 30.3283 140.269C30.5088 140.478 30.4856 140.793 30.2766 140.974C30.0675 141.154 29.7518 141.131 29.5714 140.922C29.534 140.879 29.4989 140.834 29.4661 140.787C29.0513 141.224 28.4808 141.5 27.8333 141.5C26.5046 141.5 25.5 140.339 25.5 139C25.5 137.661 26.5046 136.5 27.8333 136.5ZM26.5 139C26.5 139.87 27.137 140.5 27.8333 140.5C28.5296 140.5 29.1667 139.87 29.1667 139C29.1667 138.13 28.5296 137.5 27.8333 137.5C27.137 137.5 26.5 138.13 26.5 139Z" fill="#5F5F6A"/>
<path d="M30.809 132.166C29.8298 131.554 28.9573 131.19 28.0339 131.183C27.1093 131.176 26.2147 131.526 25.191 132.166L21.991 134.166C21.0837 134.733 20.4402 135.312 20.0363 136.052C19.6327 136.791 19.5 137.632 19.5 138.66V144.222C19.5 145.043 19.5 145.69 19.5425 146.211C19.5859 146.742 19.6761 147.186 19.8815 147.589C20.217 148.248 20.7525 148.783 21.411 149.119C21.8141 149.324 22.2577 149.414 22.7889 149.457C23.3095 149.5 23.9565 149.5 24.7778 149.5H31.2222C32.0435 149.5 32.6905 149.5 33.2111 149.457C33.7423 149.414 34.1859 149.324 34.589 149.119C35.2475 148.783 35.783 148.248 36.1185 147.589C36.3239 147.186 36.4141 146.742 36.4575 146.211C36.5 145.69 36.5 145.043 36.5 144.222V138.66C36.5 137.632 36.3673 136.791 35.9637 136.052C35.5598 135.312 34.9163 134.733 34.009 134.166L30.809 132.166ZM25.721 133.014C26.6718 132.42 27.374 132.178 28.026 132.183C28.6794 132.188 29.3636 132.442 30.279 133.014L33.479 135.014C34.3127 135.535 34.7973 136.002 35.0861 136.531C35.2781 136.883 35.3976 137.287 35.4562 137.797L29.7025 142.472C28.9808 143.059 28.4758 143.288 28.023 143.294C27.5734 143.299 27.0523 143.086 26.2973 142.472L20.5437 137.798C20.6024 137.287 20.7219 136.883 20.9139 136.531C21.2027 136.002 21.6873 135.535 22.521 135.014L25.721 133.014ZM30.4007 143.194L35.5 139.05V144.2C35.5 145.048 35.4996 145.655 35.4608 146.13C35.4224 146.599 35.3491 146.896 35.2275 147.135C35.1301 147.326 35.0092 147.503 34.8683 147.661L30.4007 143.194ZM29.5824 143.789L34.0574 148.264C33.8317 148.364 33.5495 148.426 33.1297 148.461C32.6545 148.5 32.0483 148.5 31.2 148.5H24.8C23.9517 148.5 23.3455 148.5 22.8703 148.461C22.4506 148.426 22.1684 148.364 21.9427 148.264L26.4188 143.788C26.9585 144.118 27.4849 144.301 28.0357 144.294C28.5721 144.287 29.0761 144.1 29.5824 143.789ZM21.1318 147.661C20.9909 147.503 20.8699 147.326 20.7725 147.135C20.6509 146.896 20.5776 146.599 20.5392 146.13C20.5004 145.655 20.5 145.048 20.5 144.2V139.051L25.5993 143.194L21.1318 147.661Z" fill="#5F5F6A"/>
</svg>
