<svg width="56" height="168" viewBox="0 0 56 168" fill="none" xmlns="http://www.w3.org/2000/svg">
<path d="M31.2321 20.75H24.7679C23.9551 20.75 23.2994 20.75 22.7685 20.7934C22.2219 20.838 21.7418 20.9324 21.2975 21.1587C20.5919 21.5183 20.0183 22.0919 19.6587 22.7975C19.4324 23.2418 19.338 23.7219 19.2934 24.2685C19.25 24.7994 19.25 25.4551 19.25 26.2679V29.7321C19.25 30.5449 19.25 31.2006 19.2934 31.7315C19.338 32.2781 19.4324 32.7582 19.6587 33.2025C20.0183 33.9081 20.5919 34.4817 21.2975 34.8413C21.7418 35.0676 22.2219 35.162 22.7685 35.2066C23.2994 35.25 23.955 35.25 24.7679 35.25H31.2321C32.045 35.25 32.7006 35.25 33.2315 35.2066C33.7781 35.162 34.2582 35.0676 34.7025 34.8413C35.4081 34.4817 35.9817 33.9081 36.3413 33.2025C36.5676 32.7582 36.662 32.2781 36.7066 31.7315C36.75 31.2006 36.75 30.545 36.75 29.7321V26.2679C36.75 25.455 36.75 24.7994 36.7066 24.2685C36.662 23.7219 36.5676 23.2418 36.3413 22.7975C35.9817 22.0919 35.4081 21.5183 34.7025 21.1587C34.2582 20.9324 33.7781 20.838 33.2315 20.7934C32.7006 20.75 32.0449 20.75 31.2321 20.75ZM21.9785 22.4952C22.176 22.3946 22.4368 22.3255 22.8907 22.2884C23.3533 22.2506 23.9475 22.25 24.8 22.25H31.2C32.0525 22.25 32.6467 22.2506 33.1093 22.2884C33.5632 22.3255 33.824 22.3946 34.0215 22.4952C34.3209 22.6478 34.5808 22.8647 34.7836 23.1284L29.6046 27.6169C29.2243 27.9464 28.9706 28.1657 28.761 28.321C28.5589 28.4707 28.4427 28.5262 28.3522 28.5528C28.1222 28.6203 27.8777 28.6203 27.6478 28.5528C27.5573 28.5262 27.441 28.4707 27.239 28.321C27.0294 28.1657 26.7756 27.9464 26.3954 27.6169L21.2164 23.1284C21.4192 22.8647 21.6791 22.6478 21.9785 22.4952ZM20.7681 24.7248L25.4341 28.7687C25.7877 29.0752 26.0847 29.3326 26.3459 29.5262C26.6198 29.7291 26.8981 29.896 27.2251 29.992C27.731 30.1405 28.269 30.1405 28.7748 29.992C29.1019 29.896 29.3801 29.7291 29.654 29.5262C29.9152 29.3326 30.2123 29.0752 30.5659 28.7687L35.2319 24.7248C35.2497 25.1341 35.25 25.6396 35.25 26.3V29.7C35.25 30.5525 35.2494 31.1467 35.2116 31.6093C35.1745 32.0632 35.1054 32.324 35.0048 32.5215C34.789 32.9448 34.4448 33.289 34.0215 33.5048C33.824 33.6054 33.5632 33.6745 33.1093 33.7116C32.6467 33.7494 32.0525 33.75 31.2 33.75H24.8C23.9475 33.75 23.3533 33.7494 22.8907 33.7116C22.4368 33.6745 22.176 33.6054 21.9785 33.5048C21.5552 33.289 21.211 32.9448 20.9952 32.5215C20.8946 32.324 20.8255 32.0632 20.7884 31.6093C20.7506 31.1467 20.75 30.5525 20.75 29.7V26.3C20.75 25.6396 20.7504 25.1341 20.7681 24.7248Z" fill="#5F5F6A"/>
<path opacity="0.5" d="M25.0304 29.9697C25.3233 30.2626 25.3233 30.7374 25.0304 31.0303L21.5304 34.5303L20.4697 33.4697L23.9697 29.9697C24.2626 29.6768 24.7375 29.6768 25.0304 29.9697ZM30.9697 29.9697C31.2626 29.6768 31.7375 29.6768 32.0304 29.9697L35.5304 33.4697L34.4697 34.5303L30.9697 31.0303C30.6768 30.7374 30.6768 30.2626 30.9697 29.9697Z" fill="#5F5F6A"/>
<path d="M24.7679 76.75H31.2321C32.0449 76.75 32.7006 76.75 33.2315 76.7934C33.7781 76.838 34.2582 76.9324 34.7025 77.1587C35.4081 77.5183 35.9817 78.0919 36.3413 78.7975C36.5676 79.2418 36.662 79.7219 36.7066 80.2685C36.75 80.7994 36.75 81.455 36.75 82.2679V85.7321C36.75 86.545 36.75 87.2006 36.7066 87.7315C36.662 88.2781 36.5676 88.7582 36.3413 89.2025C35.9817 89.9081 35.4081 90.4817 34.7025 90.8413C34.2582 91.0676 33.7781 91.162 33.2315 91.2066C32.7006 91.25 32.045 91.25 31.2321 91.25H24.7679C23.955 91.25 23.2994 91.25 22.7685 91.2066C22.2219 91.162 21.7418 91.0676 21.2975 90.8413C20.5919 90.4817 20.0183 89.9081 19.6587 89.2025C19.4324 88.7582 19.338 88.2781 19.2934 87.7315C19.25 87.2006 19.25 86.545 19.25 85.7321V82.2679C19.25 81.4551 19.25 80.7994 19.2934 80.2685C19.338 79.7219 19.4324 79.2418 19.6587 78.7975C20.0183 78.0919 20.5919 77.5183 21.2975 77.1587C21.7418 76.9324 22.2219 76.838 22.7685 76.7934C23.2994 76.75 23.9551 76.75 24.7679 76.75ZM22.8907 78.2884C22.4368 78.3255 22.176 78.3946 21.9785 78.4952C21.6791 78.6478 21.4192 78.8647 21.2164 79.1284L26.3954 83.6169C26.7756 83.9464 27.0294 84.1657 27.239 84.321C27.441 84.4707 27.5573 84.5262 27.6478 84.5528C27.8777 84.6203 28.1222 84.6203 28.3522 84.5528C28.4427 84.5262 28.5589 84.4707 28.761 84.321C28.9706 84.1657 29.2243 83.9464 29.6046 83.6169L34.7836 79.1284C34.5808 78.8647 34.3209 78.6478 34.0215 78.4952C33.824 78.3946 33.5632 78.3255 33.1093 78.2884C32.6467 78.2506 32.0525 78.25 31.2 78.25H24.8C23.9475 78.25 23.3533 78.2506 22.8907 78.2884ZM20.75 82.3V85.7C20.75 86.5525 20.7506 87.1467 20.7884 87.6093C20.8255 88.0632 20.8946 88.324 20.9952 88.5215C21.0421 88.6135 21.0951 88.7018 21.1536 88.7858L23.9697 85.9697C24.2626 85.6768 24.7375 85.6768 25.0304 85.9697C25.3233 86.2626 25.3233 86.7374 25.0304 87.0303L22.4125 89.6482C22.5444 89.6749 22.7006 89.6961 22.8907 89.7116C23.3533 89.7494 23.9475 89.75 24.8 89.75H31.2C32.0525 89.75 32.6467 89.7494 33.1093 89.7116C33.2994 89.6961 33.4557 89.6749 33.5876 89.6482L30.9697 87.0303C30.6768 86.7374 30.6768 86.2626 30.9697 85.9697C31.2626 85.6768 31.7375 85.6768 32.0304 85.9697L34.8465 88.7857C34.905 88.7017 34.9579 88.6135 35.0048 88.5215C35.1054 88.324 35.1745 88.0632 35.2116 87.6093C35.2494 87.1467 35.25 86.5525 35.25 85.7V82.3C35.25 81.6396 35.2497 81.1341 35.2319 80.7248L30.5659 84.7687C30.2123 85.0752 29.9152 85.3326 29.654 85.5262C29.3801 85.7291 29.1019 85.896 28.7748 85.992C28.269 86.1405 27.731 86.1405 27.2251 85.992C26.8981 85.896 26.6198 85.7291 26.3459 85.5262C26.0847 85.3326 25.7877 85.0752 25.4341 84.7687L20.7681 80.7248C20.7504 81.1341 20.75 81.6396 20.75 82.3Z" fill="#5F5F6A"/>
<path d="M24.7778 133H31.2222C32.0435 133 32.6905 133 33.2111 133.043C33.7423 133.086 34.1859 133.176 34.589 133.381C35.2475 133.717 35.783 134.252 36.1185 134.911C36.3239 135.314 36.4141 135.758 36.4575 136.289C36.5 136.81 36.5 137.457 36.5 138.278V141.722C36.5 142.543 36.5 143.19 36.4575 143.711C36.4141 144.242 36.3239 144.686 36.1185 145.089C35.783 145.748 35.2475 146.283 34.589 146.619C34.1859 146.824 33.7423 146.914 33.2111 146.957C32.6905 147 32.0435 147 31.2222 147H24.7778C23.9565 147 23.3095 147 22.7889 146.957C22.2577 146.914 21.8141 146.824 21.411 146.619C20.7525 146.283 20.217 145.748 19.8815 145.089C19.6761 144.686 19.5859 144.242 19.5425 143.711C19.5 143.19 19.5 142.543 19.5 141.722V138.278C19.5 137.457 19.5 136.81 19.5425 136.289C19.5859 135.758 19.6761 135.314 19.8815 134.911C20.217 134.252 20.7525 133.717 21.411 133.381C21.8141 133.176 22.2577 133.086 22.7889 133.043C23.3095 133 23.9565 133 24.7778 133ZM22.8703 134.039C22.401 134.078 22.1037 134.151 21.865 134.272C21.4614 134.478 21.1226 134.789 20.8831 135.17L26.232 139.806C26.6093 140.133 26.8714 140.36 27.0905 140.522C27.3045 140.68 27.4478 140.754 27.5777 140.793C27.8536 140.874 28.147 140.874 28.423 140.793C28.5529 140.754 28.6961 140.68 28.9102 140.522C29.1292 140.36 29.3913 140.133 29.7686 139.806L35.1171 135.17C34.8776 134.789 34.5387 134.478 34.135 134.272C33.8963 134.151 33.599 134.078 33.1297 134.039C32.6545 134 32.0483 134 31.2 134H24.8C23.9517 134 23.3455 134 22.8703 134.039ZM20.5392 136.37C20.5004 136.845 20.5 137.452 20.5 138.3V141.7C20.5 142.548 20.5004 143.155 20.5392 143.63C20.5776 144.099 20.6509 144.396 20.7725 144.635C20.8699 144.826 20.9909 145.003 21.1317 145.161L24.1465 142.146C24.3417 141.951 24.6583 141.951 24.8536 142.146C25.0489 142.342 25.0489 142.658 24.8536 142.854L21.9427 145.764C22.1684 145.864 22.4505 145.926 22.8703 145.961C23.3455 146 23.9517 146 24.8 146H31.2C32.0483 146 32.6545 146 33.1297 145.961C33.5495 145.926 33.8317 145.864 34.0573 145.764L31.1465 142.854C30.9512 142.658 30.9512 142.342 31.1465 142.146C31.3417 141.951 31.6583 141.951 31.8536 142.146L34.8683 145.161C35.0092 145.003 35.1301 144.826 35.2275 144.635C35.3491 144.396 35.4224 144.099 35.4608 143.63C35.4996 143.155 35.5 142.548 35.5 141.7V138.3C35.5 137.452 35.4996 136.845 35.4608 136.37C35.4562 136.314 35.4511 136.261 35.4455 136.209L30.4087 140.574C30.0497 140.885 29.759 141.138 29.5055 141.325C29.2436 141.519 28.9923 141.668 28.7047 141.752C28.2448 141.887 27.7558 141.887 27.2959 141.752C27.0083 141.668 26.757 141.519 26.4951 141.325C26.2417 141.138 25.9509 140.885 25.5919 140.574L20.5545 136.209C20.5489 136.26 20.5438 136.314 20.5392 136.37Z" fill="#5F5F6A"/>
</svg>
