<svg width="56" height="168" viewBox="0 0 56 168" fill="none" xmlns="http://www.w3.org/2000/svg">
<path d="M32.8686 23.75C33.8238 23.75 34.4956 23.7506 35.0172 23.7925C35.5316 23.834 35.8289 23.9117 36.051 24.0263C36.2074 24.1069 36.3522 24.203 36.4835 24.3121L32.8619 27.4163C32.4401 27.7779 32.157 28.0197 31.9239 28.189C31.6981 28.3531 31.5702 28.41 31.4732 28.4345C31.2228 28.4978 30.959 28.4819 30.7179 28.3891C30.6246 28.3531 30.5045 28.2812 30.2999 28.0913C30.0888 27.8952 29.8368 27.6212 29.4614 27.2116L27.5529 25.1296C27.273 24.8242 26.7986 24.8036 26.4932 25.0835C26.1879 25.3634 26.1672 25.8378 26.4471 26.1432L28.3759 28.2472C28.7259 28.6291 29.0185 28.9483 29.2792 29.1904C29.5514 29.4432 29.834 29.656 30.1789 29.7888C30.7091 29.9931 31.2896 30.028 31.8405 29.8888C32.1989 29.7983 32.5049 29.621 32.8055 29.4026C33.0933 29.1935 33.4221 28.9117 33.8155 28.5746L37.2294 25.6483C37.2419 25.7693 37.2489 25.9085 37.2499 26.0712C37.2528 26.5664 37.2014 27.2019 37.1266 28.114L36.9297 30.514C36.8647 31.3064 36.819 31.8555 36.7484 32.2818C36.6795 32.698 36.5953 32.936 36.4854 33.117C36.2493 33.5058 35.893 33.8231 35.4583 34.0227C35.2503 34.1182 34.984 34.1814 34.5373 34.2152C34.0824 34.2495 33.5015 34.25 32.6717 34.25L28.5743 34.25C27.6004 34.25 26.9179 34.2494 26.3912 34.204C25.8718 34.1592 25.5829 34.0756 25.3739 33.9571C24.9207 33.7 24.5707 33.2936 24.3838 32.8072C24.2976 32.583 24.2578 32.2848 24.2907 31.7645C24.324 31.2369 24.4247 30.5619 24.5692 29.5988L25.0177 26.6114C25.0792 26.2017 24.797 25.8198 24.3874 25.7583C23.9777 25.6968 23.5958 25.9791 23.5343 26.3887L23.0807 29.4103C22.9425 30.3313 22.8315 31.0703 22.7937 31.67C22.7549 32.2844 22.7858 32.8307 22.9836 33.3453C23.2952 34.156 23.8785 34.8334 24.6339 35.2619C25.1134 35.5339 25.6491 35.6456 26.2624 35.6984C26.8611 35.75 27.6084 35.75 28.5396 35.75L32.7014 35.75C33.4947 35.75 34.1322 35.75 34.6502 35.7109C35.1831 35.6707 35.6481 35.5861 36.0842 35.3858C36.7837 35.0646 37.3717 34.5472 37.7675 33.8956C38.0163 33.4859 38.1435 33.0385 38.2282 32.5269C38.3102 32.0324 38.3603 31.4215 38.422 30.6684L38.6244 28.202C38.6957 27.3328 38.7533 26.6313 38.7499 26.0622C38.7464 25.4765 38.6798 24.9566 38.4554 24.4715C38.1015 23.7068 37.4952 23.0833 36.7385 22.6931C36.2632 22.448 35.7403 22.3459 35.1375 22.2974C34.5487 22.25 33.8164 22.25 32.9009 22.25L18 22.25C17.5858 22.25 17.25 22.5858 17.25 23C17.25 23.4142 17.5858 23.75 18 23.75L32.8686 23.75Z" fill="#5F5F6A"/>
<g opacity="0.5">
<path d="M19 25.25C18.5858 25.25 18.25 25.5858 18.25 26C18.25 26.4142 18.5858 26.75 19 26.75H22C22.4142 26.75 22.75 26.4142 22.75 26C22.75 25.5858 22.4142 25.25 22 25.25H19Z" fill="#5F5F6A"/>
<path d="M34.5695 30.0119C34.2999 29.6974 33.8265 29.661 33.512 29.9306C33.1975 30.2001 33.161 30.6736 33.4306 30.9881L36.4306 34.4881L37.5695 33.5119L34.5695 30.0119Z" fill="#5F5F6A"/>
<path d="M28.5304 31.0303C28.8233 30.7374 28.8233 30.2626 28.5304 29.9697C28.2375 29.6768 27.7626 29.6768 27.4697 29.9697L23.4697 33.9697L24.5304 35.0303L28.5304 31.0303Z" fill="#5F5F6A"/>
<path d="M19.25 32C19.25 31.5858 19.5858 31.25 20 31.25H23C23.4142 31.25 23.75 31.5858 23.75 32C23.75 32.4142 23.4142 32.75 23 32.75H20C19.5858 32.75 19.25 32.4142 19.25 32Z" fill="#5F5F6A"/>
<path d="M20 28.25C19.5858 28.25 19.25 28.5858 19.25 29C19.25 29.4142 19.5858 29.75 20 29.75L21 29.75C21.4142 29.75 21.75 29.4142 21.75 29C21.75 28.5858 21.4142 28.25 21 28.25L20 28.25Z" fill="#5F5F6A"/>
</g>
<path d="M32.8686 79.75C33.8238 79.75 34.4956 79.7506 35.0172 79.7925C35.5316 79.834 35.8289 79.9117 36.051 80.0263C36.2074 80.1069 36.3522 80.203 36.4835 80.3121L32.8619 83.4163C32.4401 83.7779 32.157 84.0197 31.9239 84.189C31.6981 84.3531 31.5702 84.41 31.4732 84.4345C31.2228 84.4978 30.959 84.4819 30.7179 84.3891C30.6246 84.3531 30.5045 84.2812 30.2999 84.0913C30.0888 83.8952 29.8368 83.6212 29.4614 83.2116L27.5529 81.1296C27.273 80.8242 26.7986 80.8036 26.4932 81.0835C26.1879 81.3634 26.1672 81.8378 26.4471 82.1432L28.3759 84.2472C28.7259 84.6291 29.0185 84.9483 29.2792 85.1904C29.5514 85.4432 29.834 85.656 30.1789 85.7888C30.7091 85.9931 31.2896 86.028 31.8405 85.8888C32.1989 85.7983 32.5049 85.621 32.8055 85.4026C33.0933 85.1935 33.4221 84.9117 33.8155 84.5746L37.2294 81.6483C37.2419 81.7693 37.2489 81.9085 37.2499 82.0712C37.2528 82.5664 37.2014 83.2019 37.1266 84.114L36.9297 86.514C36.8647 87.3064 36.819 87.8555 36.7484 88.2818C36.735 88.3626 36.721 88.4367 36.7064 88.505L34.5695 86.0119C34.2999 85.6974 33.8265 85.661 33.512 85.9306C33.1975 86.2001 33.161 86.6736 33.4306 86.9881L35.8424 89.8019C35.7229 89.8861 35.5944 89.9601 35.4583 90.0227C35.2503 90.1182 34.984 90.1814 34.5373 90.2152C34.0824 90.2495 33.5015 90.25 32.6717 90.25L28.5743 90.25C27.6004 90.25 26.9179 90.2494 26.3912 90.204C25.9887 90.1693 25.7246 90.1113 25.5289 90.0318L28.5304 87.0303C28.8233 86.7374 28.8233 86.2626 28.5304 85.9697C28.2375 85.6768 27.7626 85.6768 27.4697 85.9697L24.4589 88.9805C24.4315 88.924 24.4064 88.8662 24.3838 88.8072C24.2976 88.583 24.2578 88.2848 24.2907 87.7645C24.324 87.2369 24.4247 86.5619 24.5692 85.5988L25.0177 82.6114C25.0792 82.2017 24.797 81.8198 24.3874 81.7583C23.9777 81.6968 23.5958 81.9791 23.5343 82.3887L23.0807 85.4103C22.9731 86.127 22.8821 86.7336 22.8291 87.25H20C19.5858 87.25 19.25 87.5858 19.25 88C19.25 88.4142 19.5858 88.75 20 88.75H22.8262C22.8585 88.9542 22.9093 89.152 22.9836 89.3453C23.2952 90.156 23.8785 90.8334 24.6339 91.2619C25.1134 91.5339 25.6491 91.6456 26.2624 91.6984C26.8611 91.75 27.6084 91.75 28.5396 91.75L32.7014 91.75C33.4946 91.75 34.1322 91.75 34.6502 91.7109C35.1831 91.6707 35.6481 91.5861 36.0842 91.3858C36.7837 91.0646 37.3717 90.5472 37.7675 89.8956C38.0163 89.4859 38.1435 89.0385 38.2282 88.5269C38.3102 88.0324 38.3603 87.4215 38.422 86.6684L38.6244 84.202C38.6957 83.3328 38.7533 82.6313 38.7499 82.0622C38.7464 81.4765 38.6798 80.9566 38.4554 80.4715C38.1015 79.7068 37.4952 79.0833 36.7385 78.6931C36.2632 78.448 35.7403 78.3459 35.1375 78.2974C34.5487 78.25 33.8164 78.25 32.9009 78.25L18 78.25C17.5858 78.25 17.25 78.5858 17.25 79C17.25 79.4142 17.5858 79.75 18 79.75L32.8686 79.75Z" fill="#5F5F6A"/>
<path d="M19 81.25C18.5858 81.25 18.25 81.5858 18.25 82C18.25 82.4142 18.5858 82.75 19 82.75H22C22.4142 82.75 22.75 82.4142 22.75 82C22.75 81.5858 22.4142 81.25 22 81.25H19Z" fill="#5F5F6A"/>
<path d="M20 84.25C19.5858 84.25 19.25 84.5858 19.25 85C19.25 85.4142 19.5858 85.75 20 85.75L21 85.75C21.4142 85.75 21.75 85.4142 21.75 85C21.75 84.5858 21.4142 84.25 21 84.25L20 84.25Z" fill="#5F5F6A"/>
<path d="M32.8686 135.5C33.8197 135.5 34.5033 135.5 35.0372 135.543C35.5664 135.586 35.9013 135.668 36.1656 135.804C36.4279 135.939 36.6614 136.114 36.8583 136.32L33.0246 139.606C32.6058 139.965 32.314 140.215 32.0709 140.391C31.8326 140.564 31.675 140.641 31.5345 140.677C31.234 140.753 30.9173 140.734 30.6281 140.622C30.4928 140.57 30.3456 140.475 30.1298 140.274C29.9096 140.07 29.6498 139.787 29.2771 139.381L27.3686 137.298C27.182 137.095 26.8657 137.081 26.6621 137.268C26.4586 137.454 26.4448 137.771 26.6314 137.974L28.5542 140.072C28.9093 140.459 29.1961 140.772 29.4493 141.007C29.7102 141.25 29.9657 141.439 30.2687 141.556C30.7508 141.741 31.2785 141.773 31.7793 141.646C32.0941 141.567 32.3705 141.41 32.6586 141.2C32.9382 140.997 33.2604 140.721 33.6594 140.379L37.3917 137.18C37.462 137.403 37.4976 137.681 37.4999 138.07C37.5029 138.579 37.4502 139.227 37.3757 140.134L37.1788 142.534C37.1142 143.323 37.0677 143.884 36.995 144.323C36.9464 144.616 36.8887 144.836 36.815 145.016L34.3797 142.175C34.2 141.965 33.8843 141.941 33.6746 142.12C33.465 142.3 33.4407 142.616 33.6204 142.825L36.2018 145.837C36.0128 146.002 35.7978 146.142 35.5626 146.25C35.3166 146.363 35.0172 146.43 34.5562 146.464C34.0896 146.5 33.4978 146.5 32.6717 146.5L28.5743 146.5C27.6048 146.5 26.9097 146.5 26.3698 146.453C25.8347 146.407 25.5047 146.319 25.2506 146.175C25.2045 146.148 25.1593 146.121 25.1152 146.092L28.3536 142.854C28.5489 142.658 28.5489 142.342 28.3536 142.146C28.1583 141.951 27.8417 141.951 27.6465 142.146L24.4048 145.388C24.3027 145.235 24.2172 145.071 24.1504 144.897C24.0456 144.624 24.0073 144.285 24.0412 143.749C24.0753 143.208 24.1781 142.52 24.322 141.562L24.7705 138.574C24.8115 138.301 24.6233 138.047 24.3502 138.006C24.0772 137.965 23.8226 138.153 23.7816 138.426L23.3295 141.437C23.204 142.273 23.1027 142.948 23.0566 143.503C23.038 143.501 23.0191 143.5 23 143.5H20C19.7239 143.5 19.5 143.724 19.5 144C19.5 144.276 19.7239 144.5 20 144.5H23C23.0157 144.5 23.0312 144.499 23.0465 144.498C23.0714 144.766 23.1248 145.016 23.217 145.256C23.3345 145.562 23.4935 145.847 23.6878 146.105L23.6465 146.146L24.3536 146.854L24.3972 146.81C24.5118 146.895 24.632 146.973 24.7572 147.044C25.1917 147.291 25.6862 147.398 26.2839 147.449C26.8718 147.5 27.61 147.5 28.5504 147.5L32.6922 147.5C33.4933 147.5 34.1228 147.5 34.6314 147.462C35.1499 147.422 35.5818 147.341 35.9799 147.159C36.6353 146.858 37.1847 146.374 37.5538 145.766C37.7794 145.394 37.8995 144.982 37.9816 144.486C38.0618 144.002 38.1112 143.4 38.1737 142.638L38.3743 140.192C38.4464 139.314 38.5032 138.622 38.4999 138.064C38.4965 137.495 38.4315 137.015 38.2285 136.577C37.8987 135.864 37.3326 135.281 36.6239 134.915C36.1908 134.692 35.7055 134.594 35.1174 134.547C34.5387 134.5 33.8149 134.5 32.8909 134.5L18 134.5C17.7239 134.5 17.5 134.724 17.5 135C17.5 135.276 17.7239 135.5 18 135.5L32.8686 135.5Z" fill="#5F5F6A"/>
<path d="M19 137.5C18.7239 137.5 18.5 137.724 18.5 138C18.5 138.276 18.7239 138.5 19 138.5H22C22.2761 138.5 22.5 138.276 22.5 138C22.5 137.724 22.2761 137.5 22 137.5H19Z" fill="#5F5F6A"/>
<path d="M20 140.5C19.7239 140.5 19.5 140.724 19.5 141C19.5 141.276 19.7239 141.5 20 141.5L21 141.5C21.2761 141.5 21.5 141.276 21.5 141C21.5 140.724 21.2761 140.5 21 140.5L20 140.5Z" fill="#5F5F6A"/>
</svg>
