<svg width="56" height="224" viewBox="0 0 56 224" fill="none" xmlns="http://www.w3.org/2000/svg">
<path d="M21.75 26C21.75 25.3096 22.3096 24.75 23 24.75H33C33.6904 24.75 34.25 25.3096 34.25 26C34.25 26.6904 33.6904 27.25 33 27.25H23C22.3096 27.25 21.75 26.6904 21.75 26ZM21.75 30C21.75 29.3096 22.3096 28.75 23 28.75H33C33.6904 28.75 34.25 29.3096 34.25 30C34.25 30.6904 33.6904 31.25 33 31.25H23C22.3096 31.25 21.75 30.6904 21.75 30Z" fill="#5F5F6A"/>
<path d="M22 82C22 81.4477 22.4477 81 23 81H33C33.5523 81 34 81.4477 34 82C34 82.5523 33.5523 83 33 83H23C22.4477 83 22 82.5523 22 82ZM22 86C22 85.4477 22.4477 85 23 85H33C33.5523 85 34 85.4477 34 86C34 86.5523 33.5523 87 33 87H23C22.4477 87 22 86.5523 22 86Z" fill="#5F5F6A"/>
<path d="M22.25 138C22.25 137.586 22.5858 137.25 23 137.25H33C33.4142 137.25 33.75 137.586 33.75 138C33.75 138.414 33.4142 138.75 33 138.75H23C22.5858 138.75 22.25 138.414 22.25 138ZM22.25 142C22.25 141.586 22.5858 141.25 23 141.25H33C33.4142 141.25 33.75 141.586 33.75 142C33.75 142.414 33.4142 142.75 33 142.75H23C22.5858 142.75 22.25 142.414 22.25 142Z" fill="#5F5F6A"/>
<path d="M22.5 194C22.5 193.724 22.7239 193.5 23 193.5H33C33.2761 193.5 33.5 193.724 33.5 194C33.5 194.276 33.2761 194.5 33 194.5H23C22.7239 194.5 22.5 194.276 22.5 194ZM22.5 198C22.5 197.724 22.7239 197.5 23 197.5H33C33.2761 197.5 33.5 197.724 33.5 198C33.5 198.276 33.2761 198.5 33 198.5H23C22.7239 198.5 22.5 198.276 22.5 198Z" fill="#5F5F6A"/>
</svg>
