<svg width="56" height="224" viewBox="0 0 56 224" fill="none" xmlns="http://www.w3.org/2000/svg">
<path d="M25.7703 23.9013C25.7956 23.8425 25.8425 23.7956 25.9013 23.7703C25.9087 23.7684 25.9371 23.7623 26.0039 23.7578C26.1119 23.7504 26.2568 23.75 26.5 23.75H30.5C30.7432 23.75 30.8881 23.7504 30.9961 23.7578C31.0629 23.7623 31.0913 23.7684 31.0987 23.7703C31.1575 23.7956 31.2044 23.8425 31.2297 23.9013C31.2316 23.9087 31.2377 23.9371 31.2422 24.0039C31.2496 24.1119 31.25 24.2568 31.25 24.5C31.25 24.7432 31.2496 24.8881 31.2422 24.9961C31.2377 25.0629 31.2316 25.0913 31.2297 25.0987C31.2044 25.1575 31.1575 25.2044 31.0987 25.2297C31.0913 25.2316 31.0629 25.2377 30.9961 25.2422C30.8881 25.2496 30.7432 25.25 30.5 25.25H26.5C26.2568 25.25 26.1119 25.2496 26.0039 25.2422C25.9371 25.2377 25.9087 25.2316 25.9013 25.2297C25.8425 25.2044 25.7956 25.1575 25.7703 25.0987C25.7684 25.0913 25.7623 25.0629 25.7578 24.9961C25.7504 24.8881 25.75 24.7432 25.75 24.5C25.75 24.2568 25.7504 24.1119 25.7578 24.0039C25.7623 23.9371 25.7684 23.9087 25.7703 23.9013Z" fill="#5F5F6A"/>
<path d="M31.8304 19.25H25.1696C24.6354 19.25 24.1896 19.25 23.8253 19.2797C23.4454 19.3108 23.0888 19.3779 22.7515 19.5497C22.2341 19.8134 21.8134 20.2341 21.5497 20.7515C21.4265 20.9934 21.3571 21.2451 21.3163 21.5083C20.2978 21.6011 19.5 22.4574 19.5 23.5C19.5 24.0973 19.7619 24.6335 20.1771 25C19.7619 25.3665 19.5 25.9027 19.5 26.5C19.5 27.0973 19.7619 27.6335 20.1771 28C19.7619 28.3665 19.5 28.9027 19.5 29.5C19.5 30.0973 19.7619 30.6335 20.1771 31C19.7619 31.3665 19.5 31.9027 19.5 32.5C19.5 33.5208 20.2647 34.3629 21.2525 34.4848C21.2557 34.7412 21.2631 34.9707 21.2797 35.1747C21.3108 35.5545 21.3779 35.9112 21.5497 36.2485C21.8134 36.7659 22.2341 37.1866 22.7515 37.4503C23.3799 37.7704 24.1349 37.7612 24.8386 37.7527C24.9504 37.7513 25.061 37.75 25.1696 37.75H31.8304C32.3646 37.75 32.8104 37.75 33.1747 37.7202C33.5546 37.6892 33.9112 37.6221 34.2485 37.4503C34.7659 37.1866 35.1866 36.7659 35.4503 36.2485C35.6221 35.9112 35.6892 35.5545 35.7203 35.1747C35.75 34.8104 35.75 34.3646 35.75 33.8304V23.1695C35.75 22.6354 35.75 22.1896 35.7203 21.8253C35.6892 21.4454 35.6221 21.0888 35.4503 20.7515C35.1866 20.2341 34.7659 19.8134 34.2485 19.5497C33.9112 19.3779 33.5546 19.3108 33.1747 19.2797C32.8104 19.25 32.3646 19.25 31.8304 19.25ZM21.25 33.4685C20.8187 33.3575 20.5 32.966 20.5 32.5C20.5 32.034 20.8187 31.6425 21.25 31.5315L21.25 33.4685ZM23.4325 36.1137C23.184 35.9871 22.9564 35.7652 22.8567 35.5003C23.1414 35.6262 23.4399 35.6841 23.7544 35.714C23.7779 35.7162 23.8016 35.7183 23.8253 35.7203C24.1668 35.7482 24.5799 35.7499 25.0704 35.75H31.9297C32.4201 35.7499 32.8332 35.7482 33.1747 35.7203C33.4121 35.7009 33.6405 35.6674 33.8607 35.603C33.8836 35.5963 33.9064 35.5893 33.9291 35.5819C33.972 35.568 34.0145 35.5529 34.0567 35.5363C34.0857 35.525 34.1146 35.513 34.1433 35.5003C34.0436 35.7652 33.816 35.9871 33.5675 36.1137C33.4769 36.1599 33.3396 36.2018 33.0525 36.2252C32.7566 36.2494 32.3724 36.25 31.8 36.25H25.2C24.6276 36.25 24.2434 36.2494 23.9475 36.2252C23.6604 36.2018 23.5231 36.1599 23.4325 36.1137ZM21.2523 22.5309C21.25 22.7279 21.25 22.9406 21.25 23.1695V24.4685C20.8187 24.3575 20.5 23.966 20.5 23.5C20.5 23.0332 20.8198 22.6411 21.2523 22.5309ZM21.25 25.5315V27.4685C20.8187 27.3575 20.5 26.966 20.5 26.5C20.5 26.034 20.8187 25.6425 21.25 25.5315ZM21.25 28.5315V30.4685C20.8187 30.3575 20.5 29.966 20.5 29.5C20.5 29.034 20.8187 28.6425 21.25 28.5315ZM26.4782 22.25H30.5218C30.736 22.25 30.9329 22.25 31.0982 22.2613C31.2759 22.2734 31.4712 22.301 31.6697 22.3832C32.0985 22.5608 32.4392 22.9015 32.6168 23.3303C32.699 23.5288 32.7266 23.7241 32.7387 23.9018C32.75 24.0671 32.75 24.264 32.75 24.4782V24.5218C32.75 24.736 32.75 24.9329 32.7387 25.0982C32.7266 25.2759 32.699 25.4712 32.6168 25.6697C32.4392 26.0985 32.0985 26.4392 31.6697 26.6168C31.4712 26.699 31.2759 26.7266 31.0982 26.7387C30.9329 26.75 30.736 26.75 30.5218 26.75H26.4782C26.264 26.75 26.0671 26.75 25.9018 26.7387C25.7241 26.7266 25.5288 26.699 25.3303 26.6168C24.9015 26.4392 24.5608 26.0985 24.3832 25.6697C24.301 25.4712 24.2734 25.2759 24.2613 25.0982C24.25 24.9329 24.25 24.736 24.25 24.5218V24.4782C24.25 24.264 24.25 24.0671 24.2613 23.9018C24.2734 23.7241 24.301 23.5288 24.3832 23.3303C24.5608 22.9015 24.9015 22.5608 25.3303 22.3832C25.5288 22.301 25.7241 22.2734 25.9018 22.2613C26.0671 22.25 26.264 22.25 26.4782 22.25Z" fill="#5F5F6A"/>
<g opacity="0.5">
<path d="M25.9013 79.7703C25.8425 79.7956 25.7956 79.8425 25.7703 79.9013C25.7684 79.9087 25.7623 79.9371 25.7578 80.0039C25.7504 80.1119 25.75 80.2568 25.75 80.5C25.75 80.7432 25.7504 80.8881 25.7578 80.9961C25.7623 81.0629 25.7684 81.0913 25.7703 81.0987C25.7956 81.1575 25.8425 81.2044 25.9013 81.2297C25.9087 81.2316 25.9371 81.2377 26.0039 81.2422C26.1119 81.2496 26.2568 81.25 26.5 81.25H30.5C30.7432 81.25 30.8881 81.2496 30.9961 81.2422C31.0629 81.2377 31.0913 81.2316 31.0987 81.2297C31.1575 81.2044 31.2044 81.1575 31.2297 81.0987C31.2316 81.0913 31.2377 81.0629 31.2422 80.9961C31.2496 80.8881 31.25 80.7432 31.25 80.5C31.25 80.2568 31.2496 80.1119 31.2422 80.0039C31.2377 79.9371 31.2316 79.9087 31.2297 79.9013C31.2044 79.8425 31.1575 79.7956 31.0987 79.7703C31.0913 79.7684 31.0629 79.7623 30.9961 79.7578C30.8881 79.7504 30.7432 79.75 30.5 79.75H26.5C26.2568 79.75 26.1119 79.7504 26.0039 79.7578C25.9371 79.7623 25.9087 79.7684 25.9013 79.7703Z" fill="#5F5F6A"/>
<path d="M22.8564 91.5003C22.9561 91.7652 23.1837 91.9871 23.4322 92.1138C23.5228 92.1599 23.6601 92.2018 23.9472 92.2252C24.2431 92.2494 24.6273 92.25 25.1997 92.25H31.7997C32.3722 92.25 32.7564 92.2494 33.0522 92.2252C33.3394 92.2018 33.4767 92.1599 33.5672 92.1138C33.8157 91.9871 34.0434 91.7652 34.143 91.5003C34.1143 91.513 34.0854 91.525 34.0564 91.5363C34.0142 91.5529 33.9717 91.568 33.9289 91.5819C33.9061 91.5893 33.8833 91.5963 33.8604 91.603C33.6402 91.6674 33.4118 91.7009 33.1744 91.7203C32.8329 91.7482 32.4198 91.7499 31.9294 91.75H25.0701C24.5797 91.7499 24.1665 91.7482 23.8251 91.7203C23.8013 91.7183 23.7777 91.7162 23.7541 91.714C23.4396 91.6841 23.1412 91.6262 22.8564 91.5003Z" fill="#5F5F6A"/>
</g>
<path d="M25.1696 75.25H31.8304C32.3646 75.25 32.8104 75.25 33.1747 75.2797C33.5546 75.3108 33.9112 75.3779 34.2485 75.5497C34.7659 75.8134 35.1866 76.2341 35.4503 76.7515C35.6221 77.0888 35.6892 77.4454 35.7203 77.8253C35.75 78.1896 35.75 78.6354 35.75 79.1695V87.8305C35.75 87.8485 35.75 87.8665 35.75 87.8844V89.8304C35.75 90.3646 35.75 90.8104 35.7203 91.1747C35.6892 91.5545 35.6221 91.9112 35.4503 92.2485C35.1866 92.7659 34.7659 93.1866 34.2485 93.4503C33.9112 93.6221 33.5546 93.6892 33.1747 93.7202C32.8104 93.75 32.3646 93.75 31.8304 93.75H25.1696C25.061 93.75 24.9504 93.7513 24.8386 93.7527C24.1349 93.7612 23.3799 93.7704 22.7515 93.4503C22.2341 93.1866 21.8134 92.7659 21.5497 92.2485C21.3779 91.9112 21.3108 91.5545 21.2797 91.1747C21.2631 90.9707 21.2557 90.7412 21.2525 90.4848C20.2647 90.3629 19.5 89.5208 19.5 88.5C19.5 87.9027 19.7619 87.3665 20.1771 87C19.7619 86.6335 19.5 86.0973 19.5 85.5C19.5 84.9027 19.7619 84.3665 20.1771 84C19.7619 83.6335 19.5 83.0973 19.5 82.5C19.5 81.9027 19.7619 81.3665 20.1771 81C19.7619 80.6335 19.5 80.0973 19.5 79.5C19.5 78.4574 20.2978 77.6011 21.3163 77.5083C21.3571 77.2451 21.4265 76.9934 21.5497 76.7515C21.8134 76.2341 22.2341 75.8134 22.7515 75.5497C23.0888 75.3779 23.4454 75.3108 23.8253 75.2797C24.1896 75.25 24.6354 75.25 25.1696 75.25ZM21.25 87.8894C21.25 87.8699 21.25 87.8502 21.25 87.8304V87.5315C20.8187 87.6425 20.5 88.034 20.5 88.5C20.5 88.966 20.8187 89.3575 21.25 89.4685L21.25 87.8894ZM22.7748 89.0525C22.7982 89.3396 22.8401 89.4769 22.8862 89.5675C22.8885 89.5718 22.8907 89.5762 22.893 89.5805C22.9499 89.6891 23.0222 89.7882 23.1071 89.8748C23.3257 90.0925 23.6161 90.1982 23.9475 90.2252C24.2434 90.2494 24.6276 90.25 25.2 90.25H31.8C32.3724 90.25 32.7566 90.2494 33.0525 90.2252C33.3839 90.1982 33.6743 90.0926 33.8929 89.8748C33.9778 89.7882 34.0501 89.6891 34.107 89.5805C34.1093 89.5762 34.1115 89.5718 34.1138 89.5675C34.1253 89.5448 34.1366 89.5193 34.1473 89.4892C34.1797 89.3989 34.2076 89.2679 34.2252 89.0525C34.2283 89.0155 34.2309 88.9772 34.2332 88.9372C34.2496 88.6576 34.25 88.3009 34.25 87.8V79.2C34.25 78.6276 34.2494 78.2434 34.2252 77.9475C34.2018 77.6604 34.1599 77.5231 34.1138 77.4325C33.9939 77.1973 33.8027 77.0061 33.5675 76.8862C33.4769 76.8401 33.3396 76.7982 33.0525 76.7748C32.7566 76.7506 32.3724 76.75 31.8 76.75H25.2C24.6276 76.75 24.2434 76.7506 23.9475 76.7748C23.6604 76.7982 23.5231 76.8401 23.4325 76.8862C23.1973 77.0061 23.0061 77.1973 22.8862 77.4325C22.8401 77.5231 22.7982 77.6604 22.7748 77.9475L22.7739 77.9581C23.2174 78.325 23.5 78.8795 23.5 79.5C23.5 79.7761 23.2761 80 23 80C22.9089 80 22.8235 79.9757 22.75 79.9331V80.9387C23.2072 81.3052 23.5 81.8684 23.5 82.5C23.5 82.7761 23.2761 83 23 83C22.9089 83 22.8235 82.9757 22.75 82.9331V83.9387C23.2072 84.3052 23.5 84.8684 23.5 85.5C23.5 85.7761 23.2761 86 23 86C22.9089 86 22.8235 85.9757 22.75 85.9331V86.9387C23.2072 87.3052 23.5 87.8684 23.5 88.5C23.5 88.7761 23.2761 89 23 89C22.9159 89 22.8366 88.9792 22.7671 88.9425C22.7693 88.9806 22.7719 89.0172 22.7748 89.0525ZM22.8567 91.5003C22.9564 91.7652 23.184 91.9871 23.4325 92.1137C23.5231 92.1599 23.6604 92.2018 23.9475 92.2252C24.2434 92.2494 24.6276 92.25 25.2 92.25H31.8C32.3724 92.25 32.7566 92.2494 33.0525 92.2252C33.3396 92.2018 33.4769 92.1599 33.5675 92.1137C33.816 91.9871 34.0436 91.7652 34.1433 91.5003C34.1146 91.513 34.0857 91.525 34.0567 91.5363C34.0145 91.5529 33.972 91.568 33.9291 91.5819C33.9064 91.5893 33.8836 91.5963 33.8607 91.603C33.6405 91.6674 33.4121 91.7009 33.1747 91.7203C32.8332 91.7482 32.4201 91.7499 31.9297 91.75C31.897 91.75 31.8639 91.75 31.8305 91.75H25.1695C25.1362 91.75 25.103 91.75 25.0704 91.75C24.5799 91.7499 24.1668 91.7482 23.8253 91.7203C23.8016 91.7183 23.7779 91.7162 23.7544 91.714C23.4399 91.6841 23.1414 91.6262 22.8567 91.5003ZM20.5 79.5C20.5 79.966 20.8187 80.3575 21.25 80.4685V79.1695C21.25 78.9406 21.25 78.7279 21.2523 78.5309C20.8198 78.6411 20.5 79.0332 20.5 79.5ZM20.5 82.5C20.5 82.966 20.8187 83.3575 21.25 83.4685V81.5315C20.8187 81.6425 20.5 82.034 20.5 82.5ZM20.5 85.5C20.5 85.966 20.8187 86.3575 21.25 86.4685V84.5315C20.8187 84.6425 20.5 85.034 20.5 85.5Z" fill="#5F5F6A"/>
<path d="M26.4782 78.25C26.4855 78.25 26.4927 78.25 26.5 78.25L30.5218 78.25C30.736 78.25 30.9329 78.25 31.0982 78.2613C31.2759 78.2734 31.4712 78.301 31.6697 78.3832C32.0985 78.5608 32.4392 78.9015 32.6168 79.3303C32.699 79.5288 32.7266 79.7241 32.7387 79.9018C32.75 80.0671 32.75 80.264 32.75 80.4782V80.5218C32.75 80.736 32.75 80.9329 32.7387 81.0982C32.7266 81.2759 32.699 81.4712 32.6168 81.6697C32.4392 82.0985 32.0985 82.4392 31.6697 82.6168C31.4712 82.699 31.2759 82.7266 31.0982 82.7387C30.9329 82.75 30.736 82.75 30.5218 82.75H26.4782C26.264 82.75 26.0671 82.75 25.9018 82.7387C25.7241 82.7266 25.5288 82.699 25.3303 82.6168C24.9015 82.4392 24.5608 82.0985 24.3832 81.6697C24.301 81.4712 24.2734 81.2759 24.2613 81.0982C24.25 80.9329 24.25 80.736 24.25 80.5218C24.25 80.5145 24.25 80.5073 24.25 80.5C24.25 80.4927 24.25 80.4855 24.25 80.4782C24.25 80.264 24.25 80.0671 24.2613 79.9018C24.2734 79.7241 24.301 79.5288 24.3832 79.3303C24.5608 78.9015 24.9015 78.5608 25.3303 78.3832C25.5288 78.301 25.7241 78.2734 25.9018 78.2613C26.0671 78.25 26.264 78.25 26.4782 78.25ZM25.9013 79.7703C25.8425 79.7956 25.7956 79.8425 25.7703 79.9013C25.7684 79.9087 25.7623 79.9371 25.7578 80.0039C25.7504 80.1119 25.75 80.2568 25.75 80.5C25.75 80.7432 25.7504 80.8881 25.7578 80.9961C25.7623 81.0629 25.7684 81.0913 25.7703 81.0987C25.7956 81.1575 25.8425 81.2044 25.9013 81.2297C25.9087 81.2316 25.9371 81.2377 26.0039 81.2422C26.1119 81.2496 26.2568 81.25 26.5 81.25H30.5C30.7432 81.25 30.8881 81.2496 30.9961 81.2422C31.0629 81.2377 31.0913 81.2316 31.0987 81.2297C31.1575 81.2044 31.2044 81.1575 31.2297 81.0987C31.2316 81.0913 31.2377 81.0629 31.2422 80.9961C31.2496 80.8881 31.25 80.7432 31.25 80.5C31.25 80.2568 31.2496 80.1119 31.2422 80.0039C31.2377 79.9371 31.2316 79.9087 31.2297 79.9013C31.2044 79.8425 31.1575 79.7956 31.0987 79.7703C31.0913 79.7684 31.0629 79.7623 30.9961 79.7578C30.8881 79.7504 30.7432 79.75 30.5 79.75H26.5C26.2568 79.75 26.1119 79.7504 26.0039 79.7578C25.9371 79.7623 25.9087 79.7684 25.9013 79.7703Z" fill="#5F5F6A"/>
<path d="M25.1696 131.25H31.8304C32.3646 131.25 32.8104 131.25 33.1747 131.28C33.5546 131.311 33.9112 131.378 34.2485 131.55C34.7659 131.813 35.1866 132.234 35.4503 132.752C35.6221 133.089 35.6892 133.445 35.7203 133.825C35.75 134.19 35.75 134.635 35.75 135.17V143.83C35.75 143.849 35.75 143.867 35.75 143.884V145.83C35.75 146.365 35.75 146.81 35.7203 147.175C35.6892 147.555 35.6221 147.911 35.4503 148.248C35.1866 148.766 34.7659 149.187 34.2485 149.45C33.9112 149.622 33.5546 149.689 33.1747 149.72C32.8104 149.75 32.3646 149.75 31.8304 149.75H25.1696C25.061 149.75 24.9504 149.751 24.8386 149.753C24.1349 149.761 23.3799 149.77 22.7515 149.45C22.2341 149.187 21.8134 148.766 21.5497 148.248C21.3779 147.911 21.3108 147.555 21.2797 147.175C21.2631 146.971 21.2557 146.741 21.2525 146.485C20.2647 146.363 19.5 145.521 19.5 144.5C19.5 143.903 19.7619 143.366 20.1771 143C19.7619 142.634 19.5 142.097 19.5 141.5C19.5 140.903 19.7619 140.366 20.1771 140C19.7619 139.634 19.5 139.097 19.5 138.5C19.5 137.903 19.7619 137.366 20.1771 137C19.7619 136.634 19.5 136.097 19.5 135.5C19.5 134.457 20.2978 133.601 21.3163 133.508C21.3571 133.245 21.4265 132.993 21.5497 132.752C21.8134 132.234 22.2341 131.813 22.7515 131.55C23.0888 131.378 23.4454 131.311 23.8253 131.28C24.1896 131.25 24.6354 131.25 25.1696 131.25ZM21.25 143.889C21.25 143.87 21.25 143.85 21.25 143.83V143.532C20.8187 143.643 20.5 144.034 20.5 144.5C20.5 144.966 20.8187 145.357 21.25 145.468L21.25 143.889ZM22.7748 145.053C22.7982 145.34 22.8401 145.477 22.8862 145.567C22.8885 145.572 22.8907 145.576 22.893 145.581C22.9499 145.689 23.0222 145.788 23.1071 145.875C23.3257 146.093 23.6161 146.198 23.9475 146.225C24.2434 146.249 24.6276 146.25 25.2 146.25H31.8C32.3724 146.25 32.7566 146.249 33.0525 146.225C33.3839 146.198 33.6743 146.093 33.8929 145.875C33.9778 145.788 34.0501 145.689 34.107 145.581C34.1093 145.576 34.1115 145.572 34.1138 145.567C34.1253 145.545 34.1366 145.519 34.1473 145.489C34.1797 145.399 34.2076 145.268 34.2252 145.053C34.2283 145.016 34.2309 144.977 34.2332 144.937C34.2496 144.658 34.25 144.301 34.25 143.8V135.2C34.25 134.628 34.2494 134.243 34.2252 133.947C34.2018 133.66 34.1599 133.523 34.1138 133.433C33.9939 133.197 33.8027 133.006 33.5675 132.886C33.4769 132.84 33.3396 132.798 33.0525 132.775C32.7566 132.751 32.3724 132.75 31.8 132.75H25.2C24.6276 132.75 24.2434 132.751 23.9475 132.775C23.6604 132.798 23.5231 132.84 23.4325 132.886C23.1973 133.006 23.0061 133.197 22.8862 133.433C22.8401 133.523 22.7982 133.66 22.7748 133.947L22.7739 133.958C23.2174 134.325 23.5 134.879 23.5 135.5C23.5 135.776 23.2761 136 23 136C22.9089 136 22.8235 135.976 22.75 135.933V136.939C23.2072 137.305 23.5 137.868 23.5 138.5C23.5 138.776 23.2761 139 23 139C22.9089 139 22.8235 138.976 22.75 138.933V139.939C23.2072 140.305 23.5 140.868 23.5 141.5C23.5 141.776 23.2761 142 23 142C22.9089 142 22.8235 141.976 22.75 141.933V142.939C23.2072 143.305 23.5 143.868 23.5 144.5C23.5 144.776 23.2761 145 23 145C22.9159 145 22.8366 144.979 22.7671 144.943C22.7693 144.981 22.7719 145.017 22.7748 145.053ZM22.8567 147.5C22.9564 147.765 23.184 147.987 23.4325 148.114C23.5231 148.16 23.6604 148.202 23.9475 148.225C24.2434 148.249 24.6276 148.25 25.2 148.25H31.8C32.3724 148.25 32.7566 148.249 33.0525 148.225C33.3396 148.202 33.4769 148.16 33.5675 148.114C33.816 147.987 34.0436 147.765 34.1433 147.5C34.1146 147.513 34.0857 147.525 34.0567 147.536C34.0145 147.553 33.972 147.568 33.9291 147.582C33.9064 147.589 33.8836 147.596 33.8607 147.603C33.6405 147.667 33.4121 147.701 33.1747 147.72C32.8332 147.748 32.4201 147.75 31.9297 147.75C31.897 147.75 31.8639 147.75 31.8305 147.75H25.1695C25.1362 147.75 25.103 147.75 25.0704 147.75C24.5799 147.75 24.1668 147.748 23.8253 147.72C23.8016 147.718 23.7779 147.716 23.7544 147.714C23.4399 147.684 23.1414 147.626 22.8567 147.5ZM20.5 135.5C20.5 135.966 20.8187 136.357 21.25 136.468V135.17C21.25 134.941 21.25 134.728 21.2523 134.531C20.8198 134.641 20.5 135.033 20.5 135.5ZM20.5 138.5C20.5 138.966 20.8187 139.357 21.25 139.468V137.532C20.8187 137.643 20.5 138.034 20.5 138.5ZM20.5 141.5C20.5 141.966 20.8187 142.357 21.25 142.468V140.532C20.8187 140.643 20.5 141.034 20.5 141.5Z" fill="#5F5F6A"/>
<path d="M26.4782 134.25C26.4855 134.25 26.4927 134.25 26.5 134.25L30.5218 134.25C30.736 134.25 30.9329 134.25 31.0982 134.261C31.2759 134.273 31.4712 134.301 31.6697 134.383C32.0985 134.561 32.4392 134.902 32.6168 135.33C32.699 135.529 32.7266 135.724 32.7387 135.902C32.75 136.067 32.75 136.264 32.75 136.478V136.522C32.75 136.736 32.75 136.933 32.7387 137.098C32.7266 137.276 32.699 137.471 32.6168 137.67C32.4392 138.098 32.0985 138.439 31.6697 138.617C31.4712 138.699 31.2759 138.727 31.0982 138.739C30.9329 138.75 30.736 138.75 30.5218 138.75H26.4782C26.264 138.75 26.0671 138.75 25.9018 138.739C25.7241 138.727 25.5288 138.699 25.3303 138.617C24.9015 138.439 24.5608 138.098 24.3832 137.67C24.301 137.471 24.2734 137.276 24.2613 137.098C24.25 136.933 24.25 136.736 24.25 136.522C24.25 136.515 24.25 136.507 24.25 136.5C24.25 136.493 24.25 136.485 24.25 136.478C24.25 136.264 24.25 136.067 24.2613 135.902C24.2734 135.724 24.301 135.529 24.3832 135.33C24.5608 134.902 24.9015 134.561 25.3303 134.383C25.5288 134.301 25.7241 134.273 25.9018 134.261C26.0671 134.25 26.264 134.25 26.4782 134.25ZM25.9013 135.77C25.8425 135.796 25.7956 135.842 25.7703 135.901C25.7684 135.909 25.7623 135.937 25.7578 136.004C25.7504 136.112 25.75 136.257 25.75 136.5C25.75 136.743 25.7504 136.888 25.7578 136.996C25.7623 137.063 25.7684 137.091 25.7703 137.099C25.7956 137.158 25.8425 137.204 25.9013 137.23C25.9087 137.232 25.9371 137.238 26.0039 137.242C26.1119 137.25 26.2568 137.25 26.5 137.25H30.5C30.7432 137.25 30.8881 137.25 30.9961 137.242C31.0629 137.238 31.0913 137.232 31.0987 137.23C31.1575 137.204 31.2044 137.158 31.2297 137.099C31.2316 137.091 31.2377 137.063 31.2422 136.996C31.2496 136.888 31.25 136.743 31.25 136.5C31.25 136.257 31.2496 136.112 31.2422 136.004C31.2377 135.937 31.2316 135.909 31.2297 135.901C31.2044 135.842 31.1575 135.796 31.0987 135.77C31.0913 135.768 31.0629 135.762 30.9961 135.758C30.8881 135.75 30.7432 135.75 30.5 135.75H26.5C26.2568 135.75 26.1119 135.75 26.0039 135.758C25.9371 135.762 25.9087 135.768 25.9013 135.77Z" fill="#5F5F6A"/>
<path d="M26.484 190.5H30.516C30.7353 190.5 30.9246 190.5 31.0812 190.511C31.2461 190.522 31.4111 190.547 31.574 190.614C31.9416 190.766 32.2336 191.058 32.3858 191.426C32.4533 191.589 32.4781 191.754 32.4893 191.919C32.5 192.075 32.5 192.265 32.5 192.484V192.516C32.5 192.735 32.5 192.925 32.4893 193.081C32.4781 193.246 32.4533 193.411 32.3858 193.574C32.2336 193.942 31.9416 194.234 31.574 194.386C31.4111 194.453 31.2461 194.478 31.0812 194.489C30.9246 194.5 30.7353 194.5 30.516 194.5H26.484C26.2647 194.5 26.0754 194.5 25.9188 194.489C25.7539 194.478 25.5889 194.453 25.426 194.386C25.0584 194.234 24.7664 193.942 24.6142 193.574C24.5467 193.411 24.5219 193.246 24.5107 193.081C24.5 192.925 24.5 192.735 24.5 192.516V192.484C24.5 192.265 24.5 192.075 24.5107 191.919C24.5219 191.754 24.5467 191.589 24.6142 191.426C24.7664 191.058 25.0584 190.766 25.426 190.614C25.5889 190.547 25.7539 190.522 25.9188 190.511C26.0754 190.5 26.2647 190.5 26.484 190.5ZM25.9869 191.508C25.8729 191.516 25.8295 191.529 25.8087 191.538C25.6861 191.589 25.5888 191.686 25.5381 191.809C25.5294 191.829 25.5161 191.873 25.5084 191.987C25.5003 192.105 25.5 192.26 25.5 192.5C25.5 192.74 25.5003 192.895 25.5084 193.013C25.5161 193.127 25.5294 193.171 25.5381 193.191C25.5888 193.314 25.6861 193.411 25.8087 193.462C25.8295 193.471 25.8729 193.484 25.9869 193.492C26.1054 193.5 26.2602 193.5 26.5 193.5H30.5C30.7398 193.5 30.8946 193.5 31.0131 193.492C31.1271 193.484 31.1705 193.471 31.1913 193.462C31.3139 193.411 31.4112 193.314 31.4619 193.191C31.4706 193.171 31.4839 193.127 31.4916 193.013C31.4997 192.895 31.5 192.74 31.5 192.5C31.5 192.26 31.4997 192.105 31.4916 191.987C31.4839 191.873 31.4706 191.829 31.4619 191.809C31.4112 191.686 31.3139 191.589 31.1913 191.538C31.1705 191.529 31.1271 191.516 31.0131 191.508C30.8946 191.5 30.7398 191.5 30.5 191.5H26.5C26.2602 191.5 26.1054 191.5 25.9869 191.508Z" fill="#5F5F6A"/>
<path d="M25.1786 187.5H31.8214C32.3633 187.5 32.8004 187.5 33.1543 187.529C33.5187 187.559 33.8388 187.622 34.135 187.772C34.6054 188.012 34.9878 188.395 35.2275 188.865C35.3784 189.161 35.4413 189.481 35.4711 189.846C35.5 190.2 35.5 190.637 35.5 191.179V199.821C35.5 199.936 35.5019 200.054 35.5038 200.174C35.5093 200.519 35.5064 200.865 35.5034 201.211C35.5017 201.414 35.5 201.618 35.5 201.821C35.5 202.363 35.5 202.8 35.4711 203.154C35.4413 203.519 35.3784 203.839 35.2275 204.135C34.9878 204.605 34.6054 204.988 34.135 205.228C33.8388 205.378 33.5187 205.441 33.1543 205.471C32.8004 205.5 32.3633 205.5 31.8214 205.5H25.1786C24.6367 205.5 24.1996 205.5 23.8457 205.471C23.4813 205.441 23.1612 205.378 22.865 205.228C22.3946 204.988 22.0122 204.605 21.7725 204.135C21.6216 203.839 21.5587 203.519 21.5289 203.154C21.5132 202.962 21.506 202.745 21.5027 202.5L21.5 202.5C20.3954 202.5 19.5 201.605 19.5 200.5C19.5 199.903 19.7619 199.366 20.1771 199C19.7619 198.634 19.5 198.097 19.5 197.5C19.5 196.903 19.7619 196.366 20.1771 196C19.7619 195.634 19.5 195.097 19.5 194.5C19.5 193.903 19.7619 193.366 20.1771 193C19.7619 192.634 19.5 192.097 19.5 191.5C19.5 190.395 20.3954 189.5 21.5 189.5C21.5237 189.5 21.5473 189.5 21.5707 189.501C21.6093 189.274 21.671 189.064 21.7725 188.865C22.0122 188.395 22.3946 188.012 22.865 187.772C23.1612 187.622 23.4813 187.559 23.8457 187.529C24.1996 187.5 24.6367 187.5 25.1786 187.5ZM22.5 191.498V192.768C23.0978 193.113 23.5 193.76 23.5 194.5C23.5 194.776 23.2761 195 23 195C22.7239 195 22.5 194.776 22.5 194.5L22.5 194.498V195.768C23.0978 196.113 23.5 196.76 23.5 197.5C23.5 197.776 23.2761 198 23 198C22.7239 198 22.5 197.776 22.5 197.5L22.5 197.498V198.768C23.0978 199.113 23.5 199.76 23.5 200.5C23.5 200.776 23.2761 201 23 201C22.7448 201 22.5343 200.809 22.5038 200.562C22.5072 200.758 22.5136 200.926 22.5256 201.073C22.5503 201.375 22.5964 201.549 22.6635 201.681C22.8073 201.963 23.0368 202.193 23.319 202.336C23.4507 202.404 23.6245 202.45 23.9271 202.474C24.2355 202.5 24.6317 202.5 25.2 202.5H31.8C32.3683 202.5 32.7645 202.5 33.0729 202.474C33.3755 202.45 33.5493 202.404 33.681 202.336C33.7783 202.287 33.8693 202.227 33.9527 202.159C34.1113 202.028 34.2423 201.866 34.3365 201.681C34.4287 201.5 34.4772 201.292 34.501 201.073C34.5325 200.784 34.5209 200.476 34.5101 200.191C34.5077 200.126 34.5053 200.062 34.5034 200C34.5014 199.931 34.5 199.864 34.5 199.8V191.2C34.5 190.632 34.4996 190.236 34.4744 189.927C34.4497 189.625 34.4036 189.451 34.3365 189.319C34.1927 189.037 33.9632 188.807 33.681 188.663C33.5493 188.596 33.3755 188.55 33.0729 188.526C32.7645 188.5 32.3683 188.5 31.8 188.5H25.2C24.6317 188.5 24.2355 188.5 23.9271 188.526C23.6245 188.55 23.4507 188.596 23.319 188.663C23.0368 188.807 22.8073 189.037 22.6635 189.319C22.6072 189.43 22.5657 189.57 22.5392 189.791C23.1153 190.142 23.5 190.776 23.5 191.5C23.5 191.776 23.2761 192 23 192C22.7239 192 22.5 191.776 22.5 191.5L22.5 191.498ZM21.5027 190.5L21.5 190.5C20.9477 190.5 20.5 190.948 20.5 191.5C20.5 192.052 20.9477 192.5 21.5 192.5L21.5 191.179C21.5 190.931 21.5 190.706 21.5027 190.5ZM21.5 193.5C20.9477 193.5 20.5 193.948 20.5 194.5C20.5 195.052 20.9477 195.5 21.5 195.5V193.5ZM21.5 196.5C20.9477 196.5 20.5 196.948 20.5 197.5C20.5 198.052 20.9477 198.5 21.5 198.5V196.5ZM21.5 199.5C20.9477 199.5 20.5 199.948 20.5 200.5C20.5 201.052 20.9477 201.5 21.5 201.5L21.5 200.922C21.4883 200.671 21.4923 200.419 21.4962 200.174C21.4981 200.054 21.5 199.936 21.5 199.821L21.5 199.5ZM22.865 203.228C22.7443 203.166 22.6295 203.095 22.5213 203.016C22.5226 203.035 22.5241 203.054 22.5256 203.073C22.5503 203.375 22.5964 203.549 22.6635 203.681C22.8073 203.963 23.0368 204.193 23.319 204.336C23.4507 204.404 23.6245 204.45 23.9271 204.474C24.2355 204.5 24.6317 204.5 25.2 204.5H31.8C32.3683 204.5 32.7645 204.5 33.0729 204.474C33.3755 204.45 33.5493 204.404 33.681 204.336C33.9632 204.193 34.1927 203.963 34.3365 203.681C34.4036 203.549 34.4497 203.375 34.4744 203.073C34.4759 203.054 34.4774 203.035 34.4787 203.016C34.3705 203.095 34.2557 203.166 34.135 203.228C33.8388 203.378 33.5187 203.441 33.1543 203.471C32.8004 203.5 32.3633 203.5 31.8215 203.5H25.1784C24.6366 203.5 24.1996 203.5 23.8457 203.471C23.4813 203.441 23.1612 203.378 22.865 203.228Z" fill="#5F5F6A"/>
</svg>
