<svg width="56" height="224" viewBox="0 0 56 224" fill="none" xmlns="http://www.w3.org/2000/svg">
<path d="M28 36.75C32.8325 36.75 36.75 32.8325 36.75 28C36.75 23.1675 32.8325 19.25 28 19.25C23.1675 19.25 19.25 23.1675 19.25 28C19.25 32.8325 23.1675 36.75 28 36.75ZM26.6389 24.0626C26.5637 23.241 27.1946 22.5313 28 22.5313C28.8054 22.5313 29.4363 23.241 29.3611 24.0626L28.8207 28.6015C28.781 29.0355 28.4254 29.3672 28 29.3672C27.5746 29.3672 27.219 29.0355 27.1793 28.6015L26.6389 24.0626ZM29.3672 32.1016C29.3672 32.8566 28.7551 33.4688 28 33.4688C27.2449 33.4688 26.6328 32.8566 26.6328 32.1016C26.6328 31.3465 27.2449 30.7344 28 30.7344C28.7551 30.7344 29.3672 31.3465 29.3672 32.1016Z" fill="#5F5F6A"/>
<path d="M35.3091 36.5426C35.6088 36.8286 36.0835 36.8174 36.3695 36.5178C38.4617 34.325 39.75 31.3152 39.75 28C39.75 24.6848 38.4617 21.675 36.3695 19.4822C36.0835 19.1826 35.6088 19.1714 35.3091 19.4574C35.0094 19.7433 34.9983 20.2181 35.2842 20.5178C37.116 22.4375 38.25 25.0787 38.25 28C38.25 30.9214 37.116 33.5625 35.2842 35.4823C34.9983 35.7819 35.0094 36.2567 35.3091 36.5426ZM20.6909 36.5426C20.9906 36.2567 21.0017 35.7819 20.7158 35.4823C18.884 33.5625 17.75 30.9214 17.75 28C17.75 25.0787 18.884 22.4375 20.7158 20.5178C21.0017 20.2181 20.9906 19.7433 20.6909 19.4574C20.3912 19.1714 19.9165 19.1826 19.6305 19.4822C17.5383 21.675 16.25 24.6848 16.25 28C16.25 31.3152 17.5383 34.325 19.6305 36.5178C19.9165 36.8174 20.3912 36.8286 20.6909 36.5426Z" fill="#5F5F6A"/>
<path d="M28 76.75C23.9959 76.75 20.75 79.9959 20.75 84C20.75 88.0041 23.9959 91.25 28 91.25C32.0041 91.25 35.25 88.0041 35.25 84C35.25 79.9959 32.0041 76.75 28 76.75ZM19.25 84C19.25 79.1675 23.1675 75.25 28 75.25C32.8325 75.25 36.75 79.1675 36.75 84C36.75 88.8325 32.8325 92.75 28 92.75C23.1675 92.75 19.25 88.8325 19.25 84Z" fill="#5F5F6A"/>
<path opacity="0.5" d="M35.3091 92.5426C35.6088 92.8286 36.0835 92.8174 36.3695 92.5178C38.4617 90.325 39.75 87.3152 39.75 84C39.75 80.6848 38.4617 77.675 36.3695 75.4822C36.0835 75.1826 35.6088 75.1714 35.3091 75.4574C35.0094 75.7433 34.9983 76.2181 35.2842 76.5178C37.116 78.4375 38.25 81.0787 38.25 84C38.25 86.9214 37.116 89.5625 35.2842 91.4823C34.9983 91.7819 35.0094 92.2567 35.3091 92.5426ZM20.6909 92.5426C20.9906 92.2567 21.0017 91.7819 20.7158 91.4823C18.884 89.5625 17.75 86.9214 17.75 84C17.75 81.0787 18.884 78.4375 20.7158 76.5178C21.0017 76.2181 20.9906 75.7433 20.6909 75.4574C20.3912 75.1714 19.9165 75.1826 19.6305 75.4822C17.5383 77.675 16.25 80.6848 16.25 84C16.25 87.3152 17.5383 90.325 19.6305 92.5178C19.9165 92.8174 20.3912 92.8286 20.6909 92.5426Z" fill="#5F5F6A"/>
<g opacity="0.5">
<path d="M28 79C27.2636 79 26.6868 79.6489 26.7556 80.4001L27.2497 84.5499C27.286 84.9467 27.611 85.25 28 85.25C28.389 85.25 28.714 84.9467 28.7503 84.5499L29.2444 80.4001C29.3132 79.6489 28.7364 79 28 79Z" fill="#5F5F6A"/>
<path d="M28 89C28.6904 89 29.25 88.4404 29.25 87.75C29.25 87.0596 28.6904 86.5 28 86.5C27.3096 86.5 26.75 87.0596 26.75 87.75C26.75 88.4404 27.3096 89 28 89Z" fill="#5F5F6A"/>
</g>
<path d="M35.3091 148.543C35.6088 148.829 36.0835 148.817 36.3695 148.518C38.4617 146.325 39.75 143.315 39.75 140C39.75 136.685 38.4617 133.675 36.3695 131.482C36.0835 131.183 35.6088 131.171 35.3091 131.457C35.0094 131.743 34.9983 132.218 35.2842 132.518C37.116 134.437 38.25 137.079 38.25 140C38.25 142.921 37.116 145.563 35.2842 147.482C34.9983 147.782 35.0094 148.257 35.3091 148.543Z" fill="#5F5F6A"/>
<path d="M20.6909 148.543C20.9906 148.257 21.0017 147.782 20.7158 147.482C18.884 145.563 17.75 142.921 17.75 140C17.75 137.079 18.884 134.437 20.7158 132.518C21.0017 132.218 20.9906 131.743 20.6909 131.457C20.3912 131.171 19.9165 131.183 19.6305 131.482C17.5383 133.675 16.25 136.685 16.25 140C16.25 143.315 17.5383 146.325 19.6305 148.518C19.9165 148.817 20.3912 148.829 20.6909 148.543Z" fill="#5F5F6A"/>
<path d="M26.7556 136.4C26.6868 135.649 27.2636 135 28 135C28.7364 135 29.3132 135.649 29.2444 136.4L28.7503 140.55C28.714 140.947 28.389 141.25 28 141.25C27.611 141.25 27.286 140.947 27.2497 140.55L26.7556 136.4Z" fill="#5F5F6A"/>
<path d="M29.25 143.75C29.25 144.44 28.6904 145 28 145C27.3096 145 26.75 144.44 26.75 143.75C26.75 143.06 27.3096 142.5 28 142.5C28.6904 142.5 29.25 143.06 29.25 143.75Z" fill="#5F5F6A"/>
<path d="M19.25 140C19.25 135.168 23.1675 131.25 28 131.25C32.8325 131.25 36.75 135.168 36.75 140C36.75 144.832 32.8325 148.75 28 148.75C23.1675 148.75 19.25 144.832 19.25 140ZM28 132.75C23.9959 132.75 20.75 135.996 20.75 140C20.75 144.004 23.9959 147.25 28 147.25C32.0041 147.25 35.25 144.004 35.25 140C35.25 135.996 32.0041 132.75 28 132.75Z" fill="#5F5F6A"/>
<path d="M35.4817 204.362C35.6815 204.552 35.998 204.545 36.1886 204.345C38.2374 202.198 39.5 199.25 39.5 196C39.5 192.75 38.2374 189.802 36.1886 187.655C35.998 187.455 35.6815 187.448 35.4817 187.638C35.2819 187.829 35.2745 188.145 35.4651 188.345C37.3403 190.31 38.5 193.013 38.5 196C38.5 198.987 37.3403 201.69 35.4651 203.655C35.2745 203.855 35.2819 204.171 35.4817 204.362ZM20.5183 204.362C20.7181 204.171 20.7255 203.855 20.5349 203.655C18.6597 201.69 17.5 198.987 17.5 196C17.5 193.013 18.6597 190.31 20.5349 188.345C20.7255 188.145 20.7181 187.829 20.5183 187.638C20.3185 187.448 20.002 187.455 19.8114 187.655C17.7626 189.802 16.5 192.75 16.5 196C16.5 199.25 17.7626 202.198 19.8114 204.345C20.002 204.545 20.3185 204.552 20.5183 204.362Z" fill="#5F5F6A"/>
<path d="M28 188.5C23.8579 188.5 20.5 191.858 20.5 196C20.5 200.142 23.8579 203.5 28 203.5C32.1421 203.5 35.5 200.142 35.5 196C35.5 191.858 32.1421 188.5 28 188.5ZM19.5 196C19.5 191.306 23.3056 187.5 28 187.5C32.6944 187.5 36.5 191.306 36.5 196C36.5 200.694 32.6944 204.5 28 204.5C23.3056 204.5 19.5 200.694 19.5 196Z" fill="#5F5F6A"/>
<path d="M28 191C27.2636 191 26.6868 191.649 26.7556 192.4L27.2497 196.55C27.286 196.947 27.611 197.25 28 197.25C28.389 197.25 28.714 196.947 28.7503 196.55L29.2444 192.4C29.3132 191.649 28.7364 191 28 191Z" fill="#5F5F6A"/>
<path d="M28 201C28.6904 201 29.25 200.44 29.25 199.75C29.25 199.06 28.6904 198.5 28 198.5C27.3096 198.5 26.75 199.06 26.75 199.75C26.75 200.44 27.3096 201 28 201Z" fill="#5F5F6A"/>
</svg>
