<svg width="56" height="224" viewBox="0 0 56 224" fill="none" xmlns="http://www.w3.org/2000/svg">
<path fill-rule="evenodd" clip-rule="evenodd" d="M29.1641 19.4922C28.4236 19.1693 27.5764 19.1693 26.8359 19.4922C26.3296 19.7129 25.9547 20.1264 25.6138 20.6074C25.2756 21.0844 24.9026 21.7305 24.441 22.53L19.6261 30.8692C19.1877 31.6284 18.832 32.2445 18.5996 32.7511C18.3655 33.2615 18.1994 33.7762 18.2641 34.3092C18.359 35.0908 18.7903 35.7887 19.4394 36.2378C19.8771 36.5406 20.4087 36.6491 20.982 36.6997C21.5519 36.75 22.2816 36.75 23.187 36.75H32.813C33.7183 36.75 34.4481 36.75 35.018 36.6997C35.5913 36.6491 36.1228 36.5406 36.5606 36.2378C37.2097 35.7887 37.641 35.0908 37.7359 34.3092C37.8006 33.7762 37.6345 33.2615 37.4004 32.7511C37.168 32.2445 36.8123 31.6285 36.374 30.8693L31.5589 22.5299C31.0973 21.7304 30.7243 21.0844 30.3862 20.6074C30.0452 20.1264 29.6703 19.7129 29.1641 19.4922ZM26.7556 25.4001C26.6868 24.6489 27.2636 24 28 24C28.7364 24 29.3132 24.6489 29.2444 25.4001L28.7503 29.5499C28.714 29.9467 28.389 30.25 28 30.25C27.611 30.25 27.286 29.9467 27.2497 29.5499L26.7556 25.4001ZM29.25 32.75C29.25 33.4404 28.6904 34 28 34C27.3096 34 26.75 33.4404 26.75 32.75C26.75 32.0596 27.3096 31.5 28 31.5C28.6904 31.5 29.25 32.0596 29.25 32.75Z" fill="#5F5F6A"/>
<g opacity="0.5">
<path d="M28 80C27.2636 80 26.6868 80.6489 26.7556 81.4001L27.2497 85.5499C27.286 85.9467 27.611 86.25 28 86.25C28.389 86.25 28.714 85.9467 28.7503 85.5499L29.2444 81.4001C29.3132 80.6489 28.7364 80 28 80Z" fill="#5F5F6A"/>
<path d="M28 90C28.6904 90 29.25 89.4404 29.25 88.75C29.25 88.0596 28.6904 87.5 28 87.5C27.3096 87.5 26.75 88.0596 26.75 88.75C26.75 89.4404 27.3096 90 28 90Z" fill="#5F5F6A"/>
</g>
<path d="M28.5646 76.8671C28.2064 76.711 27.7936 76.711 27.4354 76.8671C27.3115 76.9212 27.1322 77.0591 26.8375 77.4748C26.5447 77.8879 26.2062 78.4726 25.7206 79.3136L20.9445 87.5856C20.4821 88.3865 20.1625 88.9416 19.963 89.3765C19.7618 89.8151 19.7396 90.0168 19.7532 90.1285C19.7949 90.4721 19.986 90.792 20.2928 91.0042C20.4028 91.0804 20.6135 91.1614 21.1138 91.2055C21.6098 91.2493 22.273 91.25 23.2239 91.25H32.7761C33.7269 91.25 34.3901 91.2493 34.8861 91.2055C35.3864 91.1614 35.5971 91.0804 35.7072 91.0042C36.0139 90.792 36.2051 90.4721 36.2468 90.1285C36.2604 90.0168 36.2381 89.8151 36.0369 89.3765C35.8374 88.9416 35.5179 88.3865 35.0554 87.5856L30.2793 79.3136C29.7937 78.4726 29.4552 77.8879 29.1624 77.4748C28.8678 77.0591 28.6885 76.9212 28.5646 76.8671ZM26.8359 75.4922C27.5764 75.1693 28.4236 75.1693 29.1641 75.4922C29.6703 75.7129 30.0452 76.1264 30.3862 76.6074C30.7243 77.0844 31.0973 77.7304 31.5589 78.5299L36.3739 86.8693C36.8123 87.6285 37.168 88.2445 37.4004 88.7511C37.6345 89.2615 37.8006 89.7762 37.7359 90.3092C37.641 91.0908 37.2097 91.7887 36.5606 92.2378C36.1228 92.5406 35.5913 92.6491 35.018 92.6997C34.4481 92.75 33.7183 92.75 32.813 92.75H23.187C22.2816 92.75 21.5519 92.75 20.982 92.6997C20.4087 92.6491 19.8771 92.5406 19.4394 92.2378C18.7903 91.7887 18.359 91.0908 18.2641 90.3092C18.1994 89.7762 18.3655 89.2615 18.5996 88.7511C18.832 88.2445 19.1877 87.6284 19.6261 86.8692L24.441 78.53C24.9026 77.7305 25.2756 77.0844 25.6138 76.6074C25.9547 76.1264 26.3296 75.7129 26.8359 75.4922Z" fill="#5F5F6A"/>
<path d="M26.7556 137.4C26.6868 136.649 27.2636 136 28 136C28.7364 136 29.3132 136.649 29.2444 137.4L28.7503 141.55C28.714 141.947 28.389 142.25 28 142.25C27.611 142.25 27.286 141.947 27.2497 141.55L26.7556 137.4Z" fill="#5F5F6A"/>
<path d="M29.25 144.75C29.25 145.44 28.6904 146 28 146C27.3096 146 26.75 145.44 26.75 144.75C26.75 144.06 27.3096 143.5 28 143.5C28.6904 143.5 29.25 144.06 29.25 144.75Z" fill="#5F5F6A"/>
<path fill-rule="evenodd" clip-rule="evenodd" d="M29.1641 131.492C28.4236 131.169 27.5764 131.169 26.8359 131.492C26.3296 131.713 25.9547 132.126 25.6138 132.607C25.2756 133.084 24.9026 133.73 24.441 134.53L19.6261 142.869C19.1877 143.628 18.832 144.244 18.5996 144.751C18.3655 145.262 18.1994 145.776 18.2641 146.309C18.359 147.091 18.7903 147.789 19.4394 148.238C19.8771 148.541 20.4087 148.649 20.982 148.7C21.5519 148.75 22.2816 148.75 23.187 148.75H32.813C33.7183 148.75 34.4481 148.75 35.018 148.7C35.5913 148.649 36.1228 148.541 36.5606 148.238C37.2097 147.789 37.641 147.091 37.7359 146.309C37.8006 145.776 37.6345 145.262 37.4004 144.751C37.168 144.244 36.8123 143.629 36.374 142.869L31.5589 134.53C31.0973 133.73 30.7243 133.084 30.3862 132.607C30.0452 132.126 29.6703 131.713 29.1641 131.492ZM27.4354 132.867C27.7936 132.711 28.2064 132.711 28.5646 132.867C28.6885 132.921 28.8678 133.059 29.1624 133.475C29.4552 133.888 29.7937 134.473 30.2793 135.314L35.0554 143.586C35.5179 144.387 35.8374 144.942 36.0369 145.376C36.2381 145.815 36.2604 146.017 36.2468 146.128C36.2051 146.472 36.0139 146.792 35.7072 147.004C35.5971 147.08 35.3864 147.161 34.8861 147.206C34.3901 147.249 33.7269 147.25 32.7761 147.25H23.2239C22.273 147.25 21.6098 147.249 21.1138 147.206C20.6135 147.161 20.4028 147.08 20.2928 147.004C19.986 146.792 19.7949 146.472 19.7532 146.128C19.7396 146.017 19.7618 145.815 19.963 145.376C20.1625 144.942 20.4821 144.387 20.9445 143.586L25.7206 135.314C26.2062 134.473 26.5447 133.888 26.8375 133.475C27.1322 133.059 27.3115 132.921 27.4354 132.867Z" fill="#5F5F6A"/>
<path d="M26.7556 193.4C26.6868 192.649 27.2636 192 28 192C28.7364 192 29.3132 192.649 29.2444 193.4L28.7503 197.55C28.714 197.947 28.389 198.25 28 198.25C27.611 198.25 27.286 197.947 27.2497 197.55L26.7556 193.4Z" fill="#5F5F6A"/>
<path d="M29.25 200.75C29.25 201.44 28.6904 202 28 202C27.3096 202 26.75 201.44 26.75 200.75C26.75 200.06 27.3096 199.5 28 199.5C28.6904 199.5 29.25 200.06 29.25 200.75Z" fill="#5F5F6A"/>
<path fill-rule="evenodd" clip-rule="evenodd" d="M29.0642 187.721C28.3874 187.426 27.6126 187.426 26.9358 187.721C26.4933 187.914 26.151 188.282 25.8177 188.752C25.4864 189.219 25.1183 189.857 24.6516 190.665L19.8485 198.984C19.4051 199.752 19.0543 200.359 18.8268 200.855C18.5982 201.354 18.4561 201.816 18.5123 202.279C18.5983 202.988 18.9896 203.623 19.5816 204.032C19.9647 204.297 20.4428 204.401 21.004 204.451C21.5628 204.5 22.2833 204.5 23.1983 204.5H32.8016C33.7167 204.5 34.4372 204.5 34.996 204.451C35.5571 204.401 36.0352 204.297 36.4183 204.032C37.0104 203.623 37.4017 202.988 37.4877 202.279C37.5439 201.816 37.4018 201.354 37.1731 200.855C36.9457 200.359 36.5949 199.752 36.1515 198.984L31.3484 190.665C30.8817 189.857 30.5136 189.219 30.1822 188.752C29.849 188.282 29.5067 187.914 29.0642 187.721ZM27.3355 188.638C27.7574 188.454 28.2426 188.454 28.6645 188.638C28.8521 188.72 29.064 188.904 29.3664 189.33C29.6676 189.755 30.0127 190.352 30.4958 191.189L35.2719 199.461C35.7319 200.257 36.0586 200.824 36.2642 201.272C36.4709 201.723 36.5171 201.977 36.495 202.159C36.4444 202.575 36.2132 202.958 35.8494 203.21C35.6847 203.324 35.4206 203.409 34.9081 203.455C34.3985 203.5 33.7222 203.5 32.7761 203.5H23.2239C22.2778 203.5 21.6015 203.5 21.0919 203.455C20.5794 203.409 20.3152 203.324 20.1506 203.21C19.7867 202.958 19.5556 202.575 19.505 202.159C19.4829 201.977 19.5291 201.723 19.7358 201.272C19.9413 200.824 20.2681 200.257 20.728 199.461L25.5041 191.189C25.9872 190.352 26.3324 189.755 26.6336 189.33C26.936 188.904 27.1478 188.72 27.3355 188.638Z" fill="#5F5F6A"/>
</svg>
