<svg width="56" height="224" viewBox="0 0 56 224" fill="none" xmlns="http://www.w3.org/2000/svg">
<path d="M29.6161 24.8839C30.1043 25.372 30.8957 25.372 31.3839 24.8839C31.872 24.3957 31.872 23.6043 31.3839 23.1161L29.4318 21.164C29.3493 21.0814 29.2417 20.9737 29.1376 20.8853C29.0147 20.781 28.8173 20.6326 28.5408 20.5427C28.1893 20.4285 27.8107 20.4285 27.4592 20.5427C27.1827 20.6326 26.9853 20.781 26.8624 20.8853C26.7583 20.9737 26.6507 21.0814 26.5682 21.164L24.6161 23.1161C24.128 23.6043 24.128 24.3957 24.6161 24.8839C25.1043 25.372 25.8957 25.372 26.3839 24.8839L28 23.2678L29.6161 24.8839Z" fill="#5F5F6A"/>
<path d="M26.3839 31.1161C25.8957 30.6279 25.1043 30.6279 24.6161 31.1161C24.128 31.6043 24.128 32.3957 24.6161 32.8839L26.5682 34.836C26.6507 34.9185 26.7583 35.0263 26.8624 35.1146C26.9853 35.219 27.1827 35.3674 27.4592 35.4572C27.8107 35.5714 28.1893 35.5714 28.5408 35.4572C28.8173 35.3674 29.0147 35.219 29.1376 35.1146C29.2417 35.0263 29.3493 34.9185 29.4318 34.836L31.3839 32.8839C31.872 32.3957 31.872 31.6043 31.3839 31.1161C30.8957 30.6279 30.1043 30.6279 29.6161 31.1161L28 32.7322L26.3839 31.1161Z" fill="#5F5F6A"/>
<path d="M29.7929 80.7071C30.1834 81.0976 30.8166 81.0976 31.2071 80.7071C31.5976 80.3166 31.5976 79.6834 31.2071 79.2929L29.2564 77.3422C29.1722 77.258 29.0717 77.1573 28.9758 77.076C28.8648 76.9817 28.6962 76.8561 28.4635 76.7805C28.1623 76.6826 27.8377 76.6826 27.5365 76.7805C27.3038 76.8561 27.1352 76.9817 27.0242 77.076C26.9283 77.1573 26.8278 77.258 26.7436 77.3422L24.7929 79.2929C24.4024 79.6834 24.4024 80.3166 24.7929 80.7071C25.1834 81.0976 25.8166 81.0976 26.2071 80.7071L28 78.9142L29.7929 80.7071Z" fill="#5F5F6A"/>
<path d="M26.2071 87.2929C25.8166 86.9024 25.1834 86.9024 24.7929 87.2929C24.4024 87.6834 24.4024 88.3166 24.7929 88.7071L26.7436 90.6578C26.8278 90.742 26.9283 90.8427 27.0242 90.9241C27.1352 91.0183 27.3038 91.1439 27.5365 91.2195C27.8377 91.3174 28.1623 91.3174 28.4635 91.2195C28.6962 91.1439 28.8648 91.0183 28.9758 90.9241C29.0717 90.8427 29.1722 90.7421 29.2564 90.6578L31.2071 88.7071C31.5976 88.3166 31.5976 87.6834 31.2071 87.2929C30.8166 86.9024 30.1834 86.9024 29.7929 87.2929L28 89.0858L26.2071 87.2929Z" fill="#5F5F6A"/>
<path d="M29.9697 136.53C30.2626 136.823 30.7374 136.823 31.0303 136.53C31.3232 136.237 31.3232 135.763 31.0303 135.47L29.0817 133.521C28.9954 133.435 28.9017 133.341 28.814 133.267C28.7148 133.182 28.575 133.08 28.3863 133.018C28.1352 132.937 27.8648 132.937 27.6137 133.018C27.425 133.08 27.2852 133.182 27.186 133.267C27.0983 133.341 27.0046 133.435 26.9183 133.521L24.9697 135.47C24.6768 135.763 24.6768 136.237 24.9697 136.53C25.2626 136.823 25.7374 136.823 26.0303 136.53L28 134.561L29.9697 136.53Z" fill="#5F5F6A"/>
<path d="M26.0303 143.47C25.7374 143.177 25.2626 143.177 24.9697 143.47C24.6768 143.763 24.6768 144.237 24.9697 144.53L26.9183 146.479C27.0046 146.565 27.0983 146.659 27.186 146.733C27.2852 146.818 27.425 146.92 27.6137 146.982C27.8648 147.063 28.1352 147.063 28.3863 146.982C28.575 146.92 28.7148 146.818 28.814 146.733C28.9017 146.659 28.9954 146.565 29.0817 146.479L31.0303 144.53C31.3232 144.237 31.3232 143.763 31.0303 143.47C30.7374 143.177 30.2626 143.177 29.9697 143.47L28 145.439L26.0303 143.47Z" fill="#5F5F6A"/>
<path d="M30.1464 192.354C30.3417 192.549 30.6583 192.549 30.8536 192.354C31.0488 192.158 31.0488 191.842 30.8536 191.646L28.908 189.701C28.8187 189.612 28.7319 189.525 28.6522 189.457C28.5648 189.383 28.4539 189.303 28.309 189.256C28.1082 189.191 27.8918 189.191 27.691 189.256C27.5461 189.303 27.4352 189.383 27.3478 189.457C27.2681 189.525 27.1813 189.612 27.092 189.701L25.1464 191.646C24.9512 191.842 24.9512 192.158 25.1464 192.354C25.3417 192.549 25.6583 192.549 25.8536 192.354L27.7879 190.419C27.8927 190.314 27.9503 190.257 27.9949 190.219L28 190.215L28.0051 190.219C28.0497 190.257 28.1073 190.314 28.2121 190.419L30.1464 192.354Z" fill="#5F5F6A"/>
<path d="M25.8536 199.646C25.6583 199.451 25.3417 199.451 25.1464 199.646C24.9512 199.842 24.9512 200.158 25.1464 200.354L27.092 202.299C27.1812 202.388 27.2682 202.475 27.3478 202.543C27.4352 202.617 27.5461 202.697 27.691 202.744C27.8918 202.809 28.1082 202.809 28.309 202.744C28.4539 202.697 28.5648 202.617 28.6522 202.543C28.7318 202.475 28.8187 202.388 28.908 202.299L30.8536 200.354C31.0488 200.158 31.0488 199.842 30.8536 199.646C30.6583 199.451 30.3417 199.451 30.1464 199.646L28.2121 201.581C28.1073 201.686 28.0497 201.743 28.0051 201.781L28 201.785L27.9949 201.781C27.9503 201.743 27.8927 201.686 27.7879 201.581L25.8536 199.646Z" fill="#5F5F6A"/>
</svg>
