<svg width="56" height="224" viewBox="0 0 56 224" fill="none" xmlns="http://www.w3.org/2000/svg">
<path d="M32.1249 22.1435C30.8584 21.3804 29.4277 20.9998 27.9991 21C26.5711 21.0002 25.1412 21.3807 23.8753 22.1435C23.4022 22.4285 23.2498 23.043 23.5348 23.5161C23.8198 23.9891 24.4344 24.1416 24.9074 23.8565C25.854 23.2863 26.9256 23.0001 27.9993 23C29.0735 22.9999 30.1458 23.286 31.0928 23.8565C31.5658 24.1416 32.1804 23.9891 32.4654 23.5161C32.7504 23.043 32.598 22.4285 32.1249 22.1435Z" fill="#5F5F6A"/>
<path d="M21.3555 26.5653C21.0941 26.4659 20.803 26.4805 20.5529 26.6056L19.5529 27.1056C19.0589 27.3526 18.8587 27.9532 19.1057 28.4472C19.3527 28.9412 19.9533 29.1414 20.4473 28.8944L20.5578 28.8392C20.6876 29.0647 20.845 29.319 21.0319 29.5901L20.8613 29.7326C20.4375 30.0867 20.381 30.7174 20.7351 31.1412C21.0892 31.565 21.7198 31.6215 22.1437 31.2674L22.3169 31.1227C22.6836 31.4814 23.1016 31.8326 23.5737 32.1506L23.3742 32.5127C23.1077 32.9964 23.2838 33.6046 23.7676 33.8711C24.2513 34.1376 24.8595 33.9615 25.126 33.4778L25.3594 33.054C25.8674 33.2339 26.4141 33.3674 27.0001 33.4395V34C27.0001 34.5523 27.4478 35 28.0001 35C28.5524 35 29.0001 34.5523 29.0001 34V33.4395C29.5861 33.3674 30.1328 33.2339 30.6408 33.054L30.8742 33.4778C31.1407 33.9615 31.7489 34.1376 32.2326 33.8711C32.7164 33.6046 32.8925 32.9964 32.626 32.5127L32.4265 32.1506C32.8986 31.8326 33.3166 31.4814 33.6833 31.1227L33.8565 31.2674C34.2803 31.6215 34.911 31.565 35.2651 31.1412C35.6192 30.7174 35.5627 30.0867 35.1389 29.7326L34.9683 29.5901C35.1552 29.319 35.3126 29.0647 35.4424 28.8392L35.5529 28.8944C36.0469 29.1414 36.6475 28.9412 36.8945 28.4472C37.1415 27.9532 36.9413 27.3526 36.4473 27.1056L35.4473 26.6056C35.1972 26.4805 34.9061 26.4659 34.6447 26.5653C34.3909 26.6618 34.2378 26.8412 34.1312 27.0202C34.0789 27.1079 34.0356 27.1992 33.9976 27.282L33.9745 27.3324C33.9446 27.398 33.9176 27.4571 33.8877 27.5148C33.753 27.7751 33.5453 28.1399 33.2591 28.5444C32.6815 29.3611 31.817 30.2939 30.6332 30.8874C29.8978 31.2561 29.0279 31.5 28.0001 31.5C26.9723 31.5 26.1024 31.2561 25.367 30.8874C24.1832 30.2939 23.3187 29.3611 22.7411 28.5444C22.4231 28.095 22.1304 27.6209 21.9275 27.1259C21.8233 26.8675 21.616 26.6643 21.3555 26.5653Z" fill="#5F5F6A"/>
<path d="M31.2217 79.6424C30.2348 79.0478 29.1177 78.7499 27.9992 78.75C26.8813 78.7501 25.7648 79.0481 24.7784 79.6424C24.4236 79.8562 23.9627 79.7418 23.7489 79.3871C23.5351 79.0323 23.6495 78.5714 24.0042 78.3576C25.2302 77.6189 26.6154 77.2502 27.999 77.25C29.3834 77.2498 30.7693 77.6186 31.9959 78.3576C32.3506 78.5714 32.465 79.0323 32.2512 79.3871C32.0374 79.7418 31.5765 79.8562 31.2217 79.6424Z" fill="#5F5F6A"/>
<path d="M20.6591 84.509L20.3355 84.6708C19.965 84.8561 19.5145 84.7059 19.3292 84.3354C19.144 83.9649 19.2941 83.5144 19.6646 83.3292L20.6646 82.8292C20.8522 82.7354 21.0705 82.7244 21.2666 82.799C21.4621 82.8733 21.6177 83.026 21.6958 83.22L21.6969 83.2225L21.704 83.2395C21.711 83.256 21.7225 83.2825 21.7385 83.318C21.7707 83.389 21.821 83.4957 21.8904 83.6297C22.0293 83.8982 22.243 84.2732 22.5369 84.6888C23.1288 85.5257 24.0221 86.4929 25.2549 87.1109C26.0228 87.4959 26.9308 87.75 28 87.75C29.0693 87.75 29.9773 87.4959 30.7452 87.1109C31.978 86.4929 32.8713 85.5257 33.4632 84.6888C33.7571 84.2732 33.9707 83.8982 34.1097 83.6297C34.1791 83.4957 34.2294 83.389 34.2616 83.318C34.2776 83.2825 34.2891 83.256 34.2961 83.2395L34.3032 83.2225L34.3037 83.2215C34.3816 83.0269 34.5376 82.8734 34.7335 82.799C34.9296 82.7244 35.1479 82.7354 35.3355 82.8292L36.3355 83.3292C36.7059 83.5144 36.8561 83.9649 36.6709 84.3354C36.4856 84.7059 36.0351 84.8561 35.6646 84.6708L35.3409 84.509C35.1813 84.8014 34.9651 85.163 34.6878 85.555C34.6692 85.5812 34.6504 85.6077 34.6312 85.6342L34.9785 85.9245C35.2964 86.19 35.3388 86.663 35.0732 86.9809C34.8076 87.2988 34.3346 87.3411 34.0168 87.0755L33.668 86.7841C33.2266 87.237 32.7045 87.6826 32.0956 88.0681L32.4069 88.6333C32.6068 88.9961 32.4747 89.4523 32.1119 89.6521C31.7491 89.852 31.293 89.7199 31.0931 89.3571L30.7558 88.7448C30.1478 88.9798 29.4796 89.1465 28.75 89.2151V90C28.75 90.4142 28.4143 90.75 28 90.75C27.5858 90.75 27.25 90.4142 27.25 90V89.2151C26.5205 89.1465 25.8523 88.9798 25.2443 88.7448L24.9069 89.3571C24.7071 89.7199 24.2509 89.852 23.8881 89.6521C23.5253 89.4523 23.3933 88.9961 23.5931 88.6333L23.9045 88.0681C23.2956 87.6826 22.7735 87.237 22.3321 86.7841L21.9833 87.0755C21.6654 87.3411 21.1925 87.2988 20.9269 86.9809C20.6613 86.663 20.7037 86.19 21.0215 85.9245L21.3689 85.6342C21.3497 85.6077 21.3308 85.5812 21.3123 85.555C21.035 85.163 20.8188 84.8014 20.6591 84.509Z" fill="#5F5F6A"/>
<path d="M31.2217 135.642C30.2348 135.048 29.1177 134.75 27.9992 134.75C26.8813 134.75 25.7648 135.048 24.7784 135.642C24.4236 135.856 23.9627 135.742 23.7489 135.387C23.5351 135.032 23.6495 134.571 24.0042 134.358C25.2302 133.619 26.6154 133.25 27.999 133.25C29.3834 133.25 30.7693 133.619 31.9959 134.358C32.3506 134.571 32.465 135.032 32.2512 135.387C32.0374 135.742 31.5765 135.856 31.2217 135.642Z" fill="#5F5F6A"/>
<path d="M20.6591 140.509L20.3355 140.671C19.965 140.856 19.5145 140.706 19.3292 140.335C19.144 139.965 19.2941 139.514 19.6646 139.329L20.6646 138.829C20.8522 138.735 21.0705 138.724 21.2666 138.799C21.4621 138.873 21.6177 139.026 21.6958 139.22L21.6969 139.223L21.704 139.24C21.711 139.256 21.7225 139.282 21.7385 139.318C21.7707 139.389 21.821 139.496 21.8904 139.63C22.0293 139.898 22.243 140.273 22.5369 140.689C23.1288 141.526 24.0221 142.493 25.2549 143.111C26.0228 143.496 26.9308 143.75 28 143.75C29.0693 143.75 29.9773 143.496 30.7452 143.111C31.978 142.493 32.8713 141.526 33.4632 140.689C33.7571 140.273 33.9707 139.898 34.1097 139.63C34.1791 139.496 34.2294 139.389 34.2616 139.318C34.2776 139.282 34.2891 139.256 34.2961 139.24L34.3032 139.223L34.3037 139.221C34.3816 139.027 34.5376 138.873 34.7335 138.799C34.9296 138.724 35.1479 138.735 35.3355 138.829L36.3355 139.329C36.7059 139.514 36.8561 139.965 36.6709 140.335C36.4856 140.706 36.0351 140.856 35.6646 140.671L35.3409 140.509C35.1813 140.801 34.9651 141.163 34.6878 141.555C34.6692 141.581 34.6504 141.608 34.6312 141.634L34.9785 141.924C35.2964 142.19 35.3388 142.663 35.0732 142.981C34.8076 143.299 34.3346 143.341 34.0168 143.076L33.668 142.784C33.2266 143.237 32.7045 143.683 32.0956 144.068L32.4069 144.633C32.6068 144.996 32.4747 145.452 32.1119 145.652C31.7491 145.852 31.293 145.72 31.0931 145.357L30.7558 144.745C30.1478 144.98 29.4796 145.146 28.75 145.215V146C28.75 146.414 28.4143 146.75 28 146.75C27.5858 146.75 27.25 146.414 27.25 146V145.215C26.5205 145.146 25.8523 144.98 25.2443 144.745L24.9069 145.357C24.7071 145.72 24.2509 145.852 23.8881 145.652C23.5253 145.452 23.3933 144.996 23.5931 144.633L23.9045 144.068C23.2956 143.683 22.7735 143.237 22.3321 142.784L21.9833 143.076C21.6654 143.341 21.1925 143.299 20.9269 142.981C20.6613 142.663 20.7037 142.19 21.0215 141.924L21.3689 141.634C21.3497 141.608 21.3308 141.581 21.3123 141.555C21.035 141.163 20.8188 140.801 20.6591 140.509Z" fill="#5F5F6A"/>
<path fill-rule="evenodd" clip-rule="evenodd" d="M31.3507 191.428C30.3238 190.81 29.162 190.5 27.9991 190.5C26.8369 190.5 25.6757 190.81 24.6493 191.428C24.4128 191.571 24.1055 191.495 23.963 191.258C23.8205 191.022 23.8967 190.714 24.1332 190.572C25.3193 189.857 26.6596 189.5 27.999 189.5C29.3391 189.5 30.6801 189.857 31.8668 190.572C32.1033 190.714 32.1795 191.022 32.037 191.258C31.8945 191.495 31.5872 191.571 31.3507 191.428ZM21.4642 195.314L21.4641 195.314L21.4641 195.314C21.4641 195.314 21.464 195.314 21.464 195.314C21.464 195.314 21.464 195.314 21.464 195.314C21.412 195.184 21.3082 195.082 21.1777 195.033C21.047 194.983 20.9014 194.99 20.7764 195.053L19.7764 195.553C19.5294 195.676 19.4293 195.977 19.5528 196.224C19.6763 196.471 19.9766 196.571 20.2236 196.447L20.7657 196.176C20.7705 196.185 20.7753 196.195 20.7802 196.204C20.9405 196.514 21.1833 196.94 21.5163 197.411C21.5776 197.497 21.642 197.586 21.7097 197.675L21.1818 198.116C20.9699 198.293 20.9416 198.609 21.1187 198.821C21.2957 199.033 21.6111 199.061 21.823 198.884L22.3516 198.442C22.8594 198.989 23.4848 199.534 24.2387 199.98L23.8121 200.754C23.6788 200.996 23.7669 201.3 24.0087 201.433C24.2506 201.566 24.5547 201.478 24.6879 201.237L25.1322 200.43C25.8336 200.726 26.6218 200.928 27.5 200.984V202C27.5 202.276 27.7238 202.5 28 202.5C28.2761 202.5 28.5 202.276 28.5 202V200.984C29.3781 200.928 30.1663 200.726 30.8677 200.43L31.3121 201.237C31.4453 201.478 31.7494 201.566 31.9913 201.433C32.2331 201.3 32.3212 200.996 32.1879 200.754L31.7613 199.98C32.5152 199.534 33.1406 198.989 33.6484 198.442L34.177 198.884C34.3889 199.061 34.7042 199.033 34.8813 198.821C35.0584 198.609 35.0301 198.293 34.8182 198.116L34.2902 197.675C34.3579 197.586 34.4224 197.497 34.4837 197.411C34.8167 196.94 35.0595 196.514 35.2198 196.204C35.2247 196.195 35.2295 196.185 35.2343 196.176L35.7764 196.447C36.0234 196.571 36.3237 196.471 36.4472 196.224C36.5707 195.977 36.4706 195.676 36.2236 195.553L35.2236 195.053C35.0985 194.99 34.953 194.983 34.8223 195.033C34.6917 195.082 34.5878 195.184 34.5359 195.314L34.5357 195.314L34.5343 195.318L34.5261 195.337C34.5184 195.355 34.5062 195.384 34.4893 195.421C34.4555 195.496 34.4032 195.606 34.3317 195.745C34.1884 196.021 33.969 196.407 33.6672 196.833C33.0611 197.69 32.139 198.692 30.8572 199.334C30.0568 199.736 29.1106 200 28 200C26.8894 200 25.9431 199.736 25.1428 199.334C23.861 198.692 22.9389 197.69 22.3327 196.833C22.031 196.407 21.8115 196.021 21.6683 195.745C21.5968 195.606 21.5445 195.496 21.5107 195.421C21.4938 195.384 21.4816 195.355 21.4738 195.337L21.4657 195.318L21.4642 195.314Z" fill="#5F5F6A"/>
</svg>
