<svg width="56" height="224" viewBox="0 0 56 224" fill="none" xmlns="http://www.w3.org/2000/svg">
<path d="M29 22C29 21.4477 28.5523 21 28 21C27.4477 21 27 21.4477 27 22V22.5605C26.414 22.6326 25.8672 22.7661 25.3593 22.946L25.1258 22.5222C24.8594 22.0385 24.2512 21.8624 23.7674 22.1289C23.2837 22.3954 23.1076 23.0036 23.3741 23.4873L23.5736 23.8494C23.1016 24.1672 22.6837 24.5184 22.3167 24.8773L22.1435 24.7326C21.7197 24.3785 21.0891 24.435 20.735 24.8588C20.3809 25.2826 20.4374 25.9133 20.8612 26.2674L21.0318 26.4099L20.4472 27.1056C19.9532 26.8586 19.3525 27.0588 19.1055 27.5528C18.8586 28.0468 19.0588 28.6474 19.5528 28.8944L20.5528 29.3944C20.8029 29.5195 21.094 29.5341 21.3554 29.4347C21.614 29.3364 21.8269 29.1294 21.9285 28.8714C22.6693 27.3154 23.8011 25.8976 25.3669 25.1126C26.1023 24.7439 26.9722 24.5 28 24.5C29.0278 24.5 29.8976 24.7439 30.6331 25.1126C32.0516 25.8237 33.1642 27.0873 33.8876 28.4852C33.9199 28.5477 33.9503 28.6108 33.9804 28.6736C34.1327 28.9905 34.2794 29.2959 34.6446 29.4347C34.906 29.5341 35.1971 29.5195 35.4472 29.3944L36.4472 28.8944C36.9412 28.6474 37.1414 28.0468 36.8944 27.5528C36.6474 27.0588 36.0467 26.8586 35.5528 27.1056L35.4423 27.1608C35.3123 26.9352 35.1548 26.6807 34.9682 26.4099L35.1388 26.2674C35.5626 25.9133 35.6191 25.2826 35.265 24.8588C34.9109 24.435 34.2802 24.3785 33.8564 24.7326L33.6832 24.8773C33.3163 24.5184 32.8983 24.1672 32.4264 23.8494L32.6258 23.4873C32.8923 23.0036 32.7162 22.3954 32.2325 22.1289C31.7488 21.8624 31.1406 22.0385 30.8741 22.5222L30.6406 22.946C30.1327 22.7661 29.5859 22.6326 29 22.5605V22Z" fill="#5F5F6A"/>
<path d="M28 34.5C29.933 34.5 31.5 32.933 31.5 31C31.5 29.067 29.933 27.5 28 27.5C26.067 27.5 24.5 29.067 24.5 31C24.5 32.933 26.067 34.5 28 34.5Z" fill="#5F5F6A"/>
<path opacity="0.5" d="M28 83.25C25.9289 83.25 24.25 84.9289 24.25 87C24.25 89.0711 25.9289 90.75 28 90.75C30.0711 90.75 31.75 89.0711 31.75 87C31.75 84.9289 30.0711 83.25 28 83.25Z" fill="#5F5F6A"/>
<path d="M28 77.25C28.4143 77.25 28.75 77.5858 28.75 78V78.7849C29.4796 78.8535 30.1478 79.0202 30.7558 79.2552L31.0931 78.6429C31.293 78.2801 31.7491 78.148 32.1119 78.3479C32.4747 78.5477 32.6068 79.0039 32.4069 79.3667L32.0956 79.9319C32.7045 80.3174 33.2266 80.763 33.668 81.2159L34.0168 80.9245C34.3346 80.6589 34.8076 80.7012 35.0732 81.0191C35.3388 81.337 35.2964 81.81 34.9785 82.0755L34.6312 82.3658C34.6504 82.3923 34.6692 82.4188 34.6878 82.445C34.9651 82.837 35.1813 83.1986 35.3409 83.491L35.6646 83.3292C36.0351 83.1439 36.4856 83.2941 36.6709 83.6646C36.8561 84.0351 36.7059 84.4856 36.3355 84.6708L35.3355 85.1708C35.1479 85.2646 34.9296 85.2756 34.7335 85.201C34.538 85.1267 34.3824 84.974 34.3043 84.78L34.3039 84.779L34.3032 84.7775L34.2961 84.7605C34.2891 84.744 34.2776 84.7175 34.2616 84.682C34.2294 84.611 34.1791 84.5043 34.1097 84.3703C33.9707 84.1018 33.7571 83.7268 33.4632 83.3112C32.8713 82.4743 31.978 81.5071 30.7452 80.8891C29.9773 80.5041 29.0693 80.25 28 80.25C26.9308 80.25 26.0228 80.5041 25.2549 80.8891C24.0221 81.5071 23.1288 82.4743 22.5369 83.3112C22.243 83.7268 22.0293 84.1018 21.8904 84.3703C21.821 84.5043 21.7707 84.611 21.7385 84.682C21.7225 84.7175 21.711 84.744 21.704 84.7605L21.6969 84.7775L21.6964 84.7785C21.6184 84.9731 21.4625 85.1266 21.2666 85.201C21.0705 85.2756 20.8522 85.2646 20.6646 85.1708L19.6646 84.6708C19.2941 84.4856 19.144 84.0351 19.3292 83.6646C19.5145 83.2941 19.965 83.1439 20.3355 83.3292L20.6591 83.491C20.8188 83.1986 21.035 82.837 21.3123 82.445C21.3308 82.4188 21.3497 82.3923 21.3689 82.3658L21.0215 82.0755C20.7037 81.81 20.6613 81.337 20.9269 81.0191C21.1925 80.7012 21.6654 80.6589 21.9833 80.9245L22.3321 81.2159C22.7735 80.763 23.2956 80.3174 23.9045 79.9319L23.5931 79.3667C23.3933 79.0039 23.5253 78.5477 23.8881 78.3479C24.2509 78.148 24.7071 78.2801 24.9069 78.6429L25.2443 79.2552C25.8523 79.0202 26.5205 78.8535 27.25 78.7849V78C27.25 77.5858 27.5858 77.25 28 77.25Z" fill="#5F5F6A"/>
<path d="M28 83.25C25.9289 83.25 24.25 84.9289 24.25 87C24.25 89.0711 25.9289 90.75 28 90.75C30.0711 90.75 31.75 89.0711 31.75 87C31.75 84.9289 30.0711 83.25 28 83.25ZM25.75 87C25.75 85.7574 26.7574 84.75 28 84.75C29.2426 84.75 30.25 85.7574 30.25 87C30.25 88.2426 29.2426 89.25 28 89.25C26.7574 89.25 25.75 88.2426 25.75 87Z" fill="#5F5F6A"/>
<path d="M28.75 134C28.75 133.586 28.4143 133.25 28 133.25C27.5858 133.25 27.25 133.586 27.25 134V134.785C26.5205 134.854 25.8523 135.02 25.2443 135.255L24.9069 134.643C24.7071 134.28 24.2509 134.148 23.8881 134.348C23.5253 134.548 23.3933 135.004 23.5931 135.367L23.9045 135.932C23.2956 136.317 22.7735 136.763 22.3321 137.216L21.9833 136.924C21.6654 136.659 21.1925 136.701 20.9269 137.019C20.6613 137.337 20.7037 137.81 21.0215 138.076L21.3689 138.366C21.3497 138.392 21.3308 138.419 21.3123 138.445C21.035 138.837 20.8188 139.199 20.6591 139.491L20.3355 139.329C19.965 139.144 19.5145 139.294 19.3292 139.665C19.144 140.035 19.2941 140.486 19.6646 140.671L20.6646 141.171C20.8522 141.265 21.0705 141.276 21.2666 141.201C21.4625 141.127 21.6184 140.973 21.6964 140.779L21.6969 140.777L21.704 140.76C21.711 140.744 21.7225 140.718 21.7385 140.682C21.7707 140.611 21.821 140.504 21.8904 140.37C22.0293 140.102 22.243 139.727 22.5369 139.311C23.1288 138.474 24.0221 137.507 25.2549 136.889C26.0228 136.504 26.9308 136.25 28 136.25C29.0693 136.25 29.9773 136.504 30.7452 136.889C31.978 137.507 32.8713 138.474 33.4632 139.311C33.7571 139.727 33.9707 140.102 34.1097 140.37C34.1791 140.504 34.2294 140.611 34.2616 140.682C34.2776 140.718 34.2891 140.744 34.2961 140.76L34.3032 140.777L34.3039 140.779L34.3043 140.78C34.3824 140.974 34.538 141.127 34.7335 141.201C34.9296 141.276 35.1479 141.265 35.3355 141.171L36.3355 140.671C36.7059 140.486 36.8561 140.035 36.6709 139.665C36.4856 139.294 36.0351 139.144 35.6646 139.329L35.3409 139.491C35.1813 139.199 34.9651 138.837 34.6878 138.445C34.6692 138.419 34.6504 138.392 34.6312 138.366L34.9785 138.076C35.2964 137.81 35.3388 137.337 35.0732 137.019C34.8076 136.701 34.3346 136.659 34.0168 136.924L33.668 137.216C33.2266 136.763 32.7045 136.317 32.0956 135.932L32.4069 135.367C32.6068 135.004 32.4747 134.548 32.1119 134.348C31.7491 134.148 31.293 134.28 31.0931 134.643L30.7558 135.255C30.1478 135.02 29.4796 134.854 28.75 134.785V134Z" fill="#5F5F6A"/>
<path d="M24.25 143C24.25 140.929 25.9289 139.25 28 139.25C30.0711 139.25 31.75 140.929 31.75 143C31.75 145.071 30.0711 146.75 28 146.75C25.9289 146.75 24.25 145.071 24.25 143ZM28 140.75C26.7574 140.75 25.75 141.757 25.75 143C25.75 144.243 26.7574 145.25 28 145.25C29.2426 145.25 30.25 144.243 30.25 143C30.25 141.757 29.2426 140.75 28 140.75Z" fill="#5F5F6A"/>
<path d="M28 189.5C28.2761 189.5 28.5 189.724 28.5 190V191.016C29.3781 191.072 30.1663 191.274 30.8677 191.57L31.3121 190.763C31.4453 190.522 31.7494 190.434 31.9913 190.567C32.2331 190.7 32.3212 191.004 32.1879 191.246L31.7613 192.02C32.5152 192.466 33.1406 193.011 33.6484 193.558L34.177 193.116C34.3889 192.939 34.7042 192.967 34.8813 193.179C35.0584 193.391 35.0301 193.707 34.8182 193.884L34.2902 194.325C34.3579 194.414 34.4224 194.503 34.4837 194.589C34.8167 195.06 35.0595 195.486 35.2198 195.796C35.2247 195.805 35.2295 195.815 35.2343 195.824L35.7764 195.553C36.0234 195.429 36.3237 195.529 36.4472 195.776C36.5707 196.023 36.4706 196.324 36.2236 196.447L35.2236 196.947C35.0985 197.01 34.953 197.017 34.8223 196.967C34.6917 196.918 34.5878 196.816 34.5359 196.686L34.5343 196.682L34.5261 196.663C34.5184 196.645 34.5062 196.616 34.4893 196.579C34.4555 196.504 34.4032 196.394 34.3317 196.255C34.1884 195.979 33.969 195.593 33.6672 195.167C33.0611 194.31 32.139 193.308 30.8572 192.666C30.0568 192.264 29.1106 192 28 192C26.8894 192 25.9431 192.264 25.1428 192.666C23.861 193.308 22.9389 194.31 22.3327 195.167C22.031 195.593 21.8115 195.979 21.6683 196.255C21.5968 196.394 21.5445 196.504 21.5107 196.579C21.4938 196.616 21.4816 196.645 21.4738 196.663L21.4657 196.682L21.4642 196.686C21.4123 196.815 21.3083 196.918 21.1777 196.967C21.047 197.017 20.9014 197.01 20.7764 196.947L19.7764 196.447C19.5294 196.324 19.4293 196.023 19.5528 195.776C19.6763 195.529 19.9766 195.429 20.2236 195.553L20.7657 195.824C20.7705 195.815 20.7753 195.805 20.7802 195.796C20.9405 195.486 21.1833 195.06 21.5163 194.589C21.5776 194.503 21.642 194.414 21.7097 194.325L21.1818 193.884C20.9699 193.707 20.9416 193.391 21.1187 193.179C21.2957 192.967 21.6111 192.939 21.823 193.116L22.3516 193.558C22.8594 193.011 23.4848 192.466 24.2387 192.02L23.8121 191.246C23.6788 191.004 23.7669 190.7 24.0087 190.567C24.2506 190.434 24.5547 190.522 24.6879 190.763L25.1322 191.57C25.8336 191.274 26.6218 191.072 27.5 191.016V190C27.5 189.724 27.7238 189.5 28 189.5ZM28 196.5C26.6193 196.5 25.5 197.619 25.5 199C25.5 200.381 26.6193 201.5 28 201.5C29.3807 201.5 30.5 200.381 30.5 199C30.5 197.619 29.3807 196.5 28 196.5ZM24.5 199C24.5 197.067 26.067 195.5 28 195.5C29.933 195.5 31.5 197.067 31.5 199C31.5 200.933 29.933 202.5 28 202.5C26.067 202.5 24.5 200.933 24.5 199Z" fill="#5F5F6A"/>
</svg>
