<svg width="56" height="168" viewBox="0 0 56 168" fill="none" xmlns="http://www.w3.org/2000/svg">
<path d="M21.9666 21.2528C22.2133 21.088 22.5033 21 22.8 21C22.9973 20.9988 23.1929 21.0368 23.3754 21.1117C23.558 21.1866 23.7238 21.2971 23.8634 21.4366C24.0029 21.5762 24.1133 21.742 24.1883 21.9245C24.2632 22.1071 24.3012 22.3027 24.3 22.5C24.3 22.7967 24.212 23.0867 24.0472 23.3334C23.8823 23.58 23.6481 23.7723 23.374 23.8858C23.0999 23.9994 22.7983 24.0291 22.5073 23.9712C22.2164 23.9133 21.9491 23.7704 21.7393 23.5607C21.5295 23.3509 21.3867 23.0836 21.3288 22.7926C21.2709 22.5017 21.3006 22.2001 21.4142 21.926C21.5277 21.6519 21.72 21.4176 21.9666 21.2528Z" fill="#5F5F6A"/>
<path d="M26.55 21.75C26.1358 21.75 25.8 22.0858 25.8 22.5C25.8 22.9142 26.1358 23.25 26.55 23.25H33.41C33.8242 23.25 34.16 22.9142 34.16 22.5C34.16 22.0858 33.8242 21.75 33.41 21.75H26.55Z" fill="#5F5F6A"/>
<path d="M21.3 28.75C21.3 28.3358 21.6358 28 22.05 28H33.4136C33.8278 28 34.1636 28.3358 34.1636 28.75C34.1636 29.1642 33.8278 29.5 33.4136 29.5H22.05C21.6358 29.5 21.3 29.1642 21.3 28.75Z" fill="#5F5F6A"/>
<path d="M22.05 31C21.6358 31 21.3 31.3358 21.3 31.75C21.3 32.1642 21.6358 32.5 22.05 32.5H29.41C29.8242 32.5 30.16 32.1642 30.16 31.75C30.16 31.3358 29.8242 31 29.41 31H22.05Z" fill="#5F5F6A"/>
<path d="M18.7404 20.457C18.2499 21.4196 18.2499 22.6798 18.2499 25.2V28.8C18.2499 31.3202 18.2499 32.5804 18.7404 33.543C19.1718 34.3897 19.8603 35.0781 20.707 35.5095C21.6696 36 22.9297 36 25.4499 36H30.55C33.0702 36 34.3304 36 35.293 35.5095C36.1397 35.0781 36.8281 34.3897 37.2595 33.543C37.75 32.5804 37.75 31.3202 37.75 28.8V25.2C37.75 22.6798 37.75 21.4196 37.2595 20.457C36.8281 19.6103 36.1397 18.9219 35.293 18.4905C34.3304 18 33.0702 18 30.55 18H25.4499C22.9297 18 21.6696 18 20.707 18.4905C19.8603 18.9219 19.1718 19.6103 18.7404 20.457ZM20.1042 21.2745C20.4158 20.663 20.913 20.1658 21.5245 19.8542C22.2197 19.5 23.1298 19.5 24.95 19.5H31.0501C32.8702 19.5 33.7803 19.5 34.4755 19.8542C35.0871 20.1658 35.5842 20.663 35.8958 21.2745C36.2501 21.9697 36.2501 22.8798 36.2501 24.7V25H19.75V24.7C19.75 22.8798 19.75 21.9697 20.1042 21.2745ZM19.75 29.3V26.5H36.2501V29.3C36.2501 31.1202 36.2501 32.0303 35.8958 32.7255C35.5842 33.337 35.0871 33.8342 34.4755 34.1458C33.7803 34.5 32.8702 34.5 31.0501 34.5H24.95C23.1298 34.5 22.2197 34.5 21.5245 34.1458C20.913 33.8342 20.4158 33.337 20.1042 32.7255C19.75 32.0303 19.75 31.1202 19.75 29.3Z" fill="#5F5F6A"/>
<path opacity="0.5" d="M20.6216 35.4649C19.814 35.0313 19.1572 34.361 18.7404 33.543C18.2499 32.5804 18.2499 31.3202 18.2499 28.8V30.8C18.2499 33.3202 18.2499 34.5804 18.7404 35.543C19.1718 36.3897 19.8603 37.0781 20.707 37.5095C21.6696 38 22.9297 38 25.4499 38H30.55C33.0702 38 34.3304 38 35.293 37.5095C36.1397 37.0781 36.8281 36.3897 37.2595 35.543C37.75 34.5804 37.75 33.3202 37.75 30.8V28.8C37.75 31.3202 37.75 32.5804 37.2595 33.543C36.8427 34.361 36.1861 35.0312 35.3786 35.4647C35.1213 35.7411 34.8161 35.9722 34.4755 36.1458C33.7803 36.5 32.8702 36.5 31.0501 36.5H24.95C23.1298 36.5 22.2197 36.5 21.5245 36.1458C21.184 35.9723 20.8789 35.7412 20.6216 35.4649Z" fill="#5F5F6A"/>
<path d="M22.05 84C21.6358 84 21.3 84.3358 21.3 84.75C21.3 85.1642 21.6358 85.5 22.05 85.5H33.4136C33.8278 85.5 34.1636 85.1642 34.1636 84.75C34.1636 84.3358 33.8278 84 33.4136 84H22.05Z" fill="#5F5F6A"/>
<path d="M21.3 87.75C21.3 87.3358 21.6358 87 22.05 87H29.41C29.8242 87 30.16 87.3358 30.16 87.75C30.16 88.1642 29.8242 88.5 29.41 88.5H22.05C21.6358 88.5 21.3 88.1642 21.3 87.75Z" fill="#5F5F6A"/>
<path d="M21.9666 77.2528C22.2133 77.088 22.5033 77 22.8 77C22.9973 76.9988 23.1929 77.0368 23.3754 77.1117C23.558 77.1866 23.7238 77.2971 23.8634 77.4366C24.0029 77.5762 24.1133 77.742 24.1883 77.9245C24.2632 78.1071 24.3012 78.3027 24.3 78.5C24.3 78.7967 24.212 79.0867 24.0472 79.3334C23.8823 79.58 23.6481 79.7723 23.374 79.8858C23.0999 79.9994 22.7983 80.0291 22.5073 79.9712C22.2164 79.9133 21.9491 79.7704 21.7393 79.5607C21.5295 79.3509 21.3867 79.0836 21.3288 78.7926C21.2709 78.5017 21.3006 78.2001 21.4142 77.926C21.5277 77.6519 21.72 77.4176 21.9666 77.2528Z" fill="#5F5F6A"/>
<path d="M25.8 78.5C25.8 78.0858 26.1358 77.75 26.55 77.75H33.41C33.8242 77.75 34.16 78.0858 34.16 78.5C34.16 78.9142 33.8242 79.25 33.41 79.25H26.55C26.1358 79.25 25.8 78.9142 25.8 78.5Z" fill="#5F5F6A"/>
<path d="M18.7404 76.457C18.2499 77.4196 18.2499 78.6798 18.2499 81.2V86.8C18.2499 89.3202 18.2499 90.5804 18.7404 91.543C19.1718 92.3897 19.8603 93.0781 20.707 93.5095C21.6696 94 22.9297 94 25.4499 94H30.55C33.0702 94 34.3304 94 35.293 93.5095C36.1397 93.0781 36.8281 92.3897 37.2595 91.543C37.75 90.5804 37.75 89.3202 37.75 86.8V81.2C37.75 78.6798 37.75 77.4196 37.2595 76.457C36.8281 75.6103 36.1397 74.9219 35.293 74.4905C34.3304 74 33.0702 74 30.55 74H25.4499C22.9297 74 21.6696 74 20.707 74.4905C19.8603 74.9219 19.1718 75.6103 18.7404 76.457ZM36.2501 82.5V85.3C36.2501 87.1202 36.2501 88.0303 35.8958 88.7255C35.5842 89.337 35.0871 89.8342 34.4755 90.1458C33.7803 90.5 32.8702 90.5 31.0501 90.5H24.95C23.1298 90.5 22.2197 90.5 21.5245 90.1458C20.913 89.8342 20.4158 89.337 20.1042 88.7255C19.75 88.0303 19.75 87.1202 19.75 85.3V82.5H36.2501ZM35.3786 91.4647C35.1213 91.7411 34.8161 91.9722 34.4755 92.1458C33.7803 92.5 32.8702 92.5 31.0501 92.5H24.95C23.1298 92.5 22.2197 92.5 21.5245 92.1458C21.184 91.9723 20.8789 91.7412 20.6216 91.4648C20.6499 91.48 20.6783 91.4949 20.707 91.5095C21.6696 92 22.9297 92 25.4499 92H30.55C33.0702 92 34.3304 92 35.293 91.5095C35.3217 91.4949 35.3502 91.4799 35.3786 91.4647ZM20.1042 77.2745C20.4158 76.663 20.913 76.1658 21.5245 75.8542C22.2197 75.5 23.1298 75.5 24.95 75.5H31.0501C32.8702 75.5 33.7803 75.5 34.4755 75.8542C35.0871 76.1658 35.5842 76.663 35.8958 77.2745C36.2501 77.9697 36.2501 78.8798 36.2501 80.7V81H19.75V80.7C19.75 78.8798 19.75 77.9697 20.1042 77.2745Z" fill="#5F5F6A"/>
<path d="M21.25 140.5C20.9739 140.5 20.75 140.724 20.75 141C20.75 141.276 20.9739 141.5 21.25 141.5H34.75C35.0261 141.5 35.25 141.276 35.25 141C35.25 140.724 35.0261 140.5 34.75 140.5H21.25Z" fill="#5F5F6A"/>
<path d="M21.25 143C20.9739 143 20.75 143.224 20.75 143.5C20.75 143.776 20.9739 144 21.25 144H27.5C27.7761 144 28 143.776 28 143.5C28 143.224 27.7761 143 27.5 143H21.25Z" fill="#5F5F6A"/>
<path d="M21.4166 133.253C21.6633 133.088 21.9533 133 22.25 133C22.4473 132.999 22.6429 133.037 22.8255 133.112C23.008 133.187 23.1738 133.297 23.3134 133.437C23.4529 133.576 23.5634 133.742 23.6383 133.925C23.7132 134.107 23.7512 134.303 23.75 134.5C23.75 134.797 23.662 135.087 23.4972 135.333C23.3324 135.58 23.0981 135.772 22.824 135.886C22.5499 135.999 22.2483 136.029 21.9574 135.971C21.6664 135.913 21.3991 135.77 21.1893 135.561C20.9796 135.351 20.8367 135.084 20.7788 134.793C20.7209 134.502 20.7506 134.2 20.8642 133.926C20.9777 133.652 21.17 133.418 21.4166 133.253Z" fill="#5F5F6A"/>
<path d="M25.75 134C25.4739 134 25.25 134.224 25.25 134.5C25.25 134.776 25.4739 135 25.75 135H34.25C34.5261 135 34.75 134.776 34.75 134.5C34.75 134.224 34.5261 134 34.25 134H25.75Z" fill="#5F5F6A"/>
<path d="M18.25 137.7C18.25 135.18 18.25 133.92 18.7405 132.957C19.1719 132.11 19.8603 131.422 20.707 130.99C21.6696 130.5 22.9298 130.5 25.45 130.5H30.5501C33.0703 130.5 34.3304 130.5 35.293 130.99C36.1397 131.422 36.8282 132.11 37.2596 132.957C37.7501 133.92 37.7501 135.18 37.7501 137.7V143.3C37.7501 145.82 37.7501 146.08 37.2596 147.043C36.8282 147.89 36.1397 148.578 35.293 149.01C34.3304 149.5 33.0703 149.5 30.5501 149.5H25.45C22.9298 149.5 21.6696 149.5 20.707 149.01C19.8603 148.578 19.1719 147.89 18.7405 147.043C18.25 146.08 18.25 145.82 18.25 143.3V137.7ZM36.75 138.5H19.25V142.3C19.25 144.12 19.25 144.03 19.6042 144.725C19.9158 145.337 20.413 145.834 21.0245 146.146C21.7197 146.5 22.6298 146.5 24.45 146.5H31.55C33.3702 146.5 34.2803 146.5 34.9755 146.146C35.587 145.834 36.0842 145.337 36.3958 144.725C36.75 144.03 36.75 144.12 36.75 142.3V138.5ZM35.293 147.01C34.3304 147.5 33.0703 147.5 30.5501 147.5H25.45C22.9298 147.5 21.6696 147.5 20.707 147.01C20.1918 146.747 19.7352 146.389 19.3595 145.959C19.4119 146.253 19.4895 146.5 19.6042 146.725C19.9158 147.337 20.413 147.834 21.0245 148.146C21.7197 148.5 22.6298 148.5 24.45 148.5H31.55C33.3702 148.5 34.2803 148.5 34.9755 148.146C35.587 147.834 36.0842 147.337 36.3958 146.725C36.5105 146.5 36.588 146.253 36.6405 145.959C36.2647 146.389 35.8082 146.747 35.293 147.01ZM19.25 136.7V137.5H36.75V136.7C36.75 134.88 36.75 133.97 36.3958 133.275C36.0842 132.663 35.587 132.166 34.9755 131.854C34.2803 131.5 33.3702 131.5 31.55 131.5H24.45C22.6298 131.5 21.7197 131.5 21.0245 131.854C20.413 132.166 19.9158 132.663 19.6042 133.275C19.25 133.97 19.25 134.88 19.25 136.7Z" fill="#5F5F6A"/>
</svg>
