<svg width="56" height="224" viewBox="0 0 56 224" fill="none" xmlns="http://www.w3.org/2000/svg">
<path d="M29.2501 19.252V23C29.2501 24.5188 30.4813 25.75 32.0001 25.75H35.7501V33C35.7501 34.5188 34.5188 35.75 33.0001 35.75H26.2979C26.4275 35.5261 26.5 35.2686 26.5001 35V32.6484C27.1221 32.2416 27.5475 31.5571 27.5918 30.7676C27.5944 30.4805 27.749 30.3567 27.9327 30.1426C28.6139 29.1779 28.5052 27.8255 27.6075 26.9854L27.5635 26.4746C27.3834 25.3852 26.4748 24.5419 25.3545 24.4609L25.0645 24.4414L25.0635 24.4424C24.3189 23.6472 23.1724 23.4739 22.2501 23.9189V22C22.2501 20.4812 23.4813 19.25 25.0001 19.25H29.209C29.2227 19.25 29.2364 19.2517 29.2501 19.252Z" fill="#5F5F6A"/>
<path fill-rule="evenodd" clip-rule="evenodd" d="M22.2647 25.126C22.8248 24.5267 23.7748 24.527 24.335 25.126C24.6222 25.4174 24.8963 25.4505 25.2823 25.458C25.9816 25.5084 26.5413 26.0683 26.5918 26.7676C26.5993 27.152 26.6245 27.4339 26.9239 27.7148C27.4857 28.24 27.521 29.1078 27.0293 29.6758C26.7627 29.9523 26.5806 30.1711 26.5948 30.5811C26.6179 31.2733 26.1422 31.8578 25.5001 32.0068V35C25.5 35.1842 25.3986 35.3534 25.2364 35.4404C25.0738 35.5274 24.8761 35.5182 24.7227 35.416L23.5001 34.6006L22.2774 35.416C22.124 35.5182 21.9263 35.5274 21.7637 35.4404C21.6017 35.3533 21.5001 35.184 21.5001 35V32.043C20.6807 32.0942 19.9776 31.3977 20.0049 30.5811C20.0173 30.223 19.9473 30.0399 19.6758 29.7852C19.0769 29.225 19.0767 28.2749 19.6758 27.7148C19.9373 27.4695 20.0178 27.2915 20.0049 26.9189C19.9776 26.0996 20.6495 25.4278 21.4688 25.4551C21.8361 25.4677 22.0031 25.4047 22.2647 25.126ZM23.2999 27.25C22.4716 27.2502 21.7999 27.9217 21.7999 28.75C21.7999 29.5783 22.4716 30.2498 23.2999 30.25C24.1282 30.25 24.7998 29.5784 24.7999 28.75C24.7998 27.9216 24.1282 27.25 23.2999 27.25Z" fill="#5F5F6A"/>
<path d="M30.7501 19.7256C30.8691 19.8063 30.9837 19.8946 31.0899 19.9941L34.8809 23.5479L35.0772 23.752C35.2102 23.9052 35.3227 24.0733 35.418 24.25H32.0001C31.3097 24.25 30.7501 23.6903 30.7501 23V19.7256Z" fill="#5F5F6A"/>
<path fill-rule="evenodd" clip-rule="evenodd" d="M29.209 75.25C29.9076 75.25 30.5801 75.5163 31.0898 75.9941L34.8809 79.5479L35.0771 79.752C35.5089 80.2496 35.7499 80.8886 35.75 81.5537V89C35.75 90.5188 34.5188 91.75 33 91.75H27C26.5858 91.75 26.25 91.4142 26.25 91C26.25 90.5858 26.5858 90.25 27 90.25H33C33.6904 90.25 34.25 89.6904 34.25 89V81.75H32C30.4812 81.75 29.25 80.5188 29.25 79V76.752C29.2363 76.7515 29.2227 76.75 29.209 76.75H25C24.3096 76.75 23.75 77.3096 23.75 78V79.2812C23.75 79.6955 23.4142 80.0312 23 80.0312C22.5858 80.0312 22.25 79.6955 22.25 79.2812V78C22.25 76.4812 23.4812 75.25 25 75.25H29.209ZM30.75 79C30.75 79.6904 31.3096 80.25 32 80.25H33.4365L30.75 77.7305V79Z" fill="#5F5F6A"/>
<path opacity="0.5" fill-rule="evenodd" clip-rule="evenodd" d="M22.2647 81.1258C22.8248 80.5266 23.7748 80.5268 24.3351 81.1258C24.476 81.2761 24.6188 81.4722 24.8477 81.4647C25.6779 81.4361 26.5243 81.8309 26.5919 82.7674C26.5993 83.1518 26.6245 83.4338 26.9239 83.7147C27.4857 84.2399 27.521 85.1076 27.0294 85.6756C26.7153 85.9808 26.5799 86.148 26.5948 86.5809C26.618 87.2731 26.1422 87.8576 25.5001 88.0067V90.9999C25.5001 91.184 25.3987 91.3532 25.2364 91.4403C25.0739 91.5272 24.8761 91.5181 24.7227 91.4159L23.5001 90.6004L22.2774 91.4159C22.124 91.5181 21.9263 91.5272 21.7638 91.4403C21.6016 91.3532 21.5001 91.1839 21.5001 90.9999V88.0428C20.6807 88.094 19.9776 87.3976 20.005 86.5809C20.0173 86.2229 19.9473 86.0397 19.6759 85.785C19.0769 85.2248 19.0767 84.2748 19.6759 83.7147C19.9482 83.4464 20.0177 83.2889 20.005 82.9188C19.9776 82.0994 20.6495 81.4277 21.4688 81.4549C21.8506 81.4681 22.0136 81.3935 22.2647 81.1258ZM23.2999 83.2499C22.4716 83.25 21.8 83.9216 21.7999 84.7499C21.7999 85.5782 22.4716 86.2497 23.2999 86.2499C24.1283 86.2499 24.7999 85.5783 24.7999 84.7499C24.7998 83.9215 24.1283 83.2499 23.2999 83.2499Z" fill="#5F5F6A"/>
<path fill-rule="evenodd" clip-rule="evenodd" d="M29.2085 131.25C29.907 131.25 30.5796 131.516 31.0893 131.994L34.8803 135.548L35.0766 135.752C35.5084 136.25 35.7494 136.889 35.7495 137.554V145C35.7495 146.519 34.5183 147.75 32.9995 147.75H26.9995C26.5854 147.75 26.2495 147.414 26.2495 147C26.2495 146.586 26.5854 146.25 26.9995 146.25H32.9995C33.6898 146.25 34.2495 145.69 34.2495 145V137.75H31.9995C30.4809 137.75 29.2495 136.519 29.2495 135V132.752C29.2359 132.752 29.2221 132.75 29.2085 132.75H24.9995C24.3093 132.75 23.7495 133.31 23.7495 134V135.281C23.7495 135.695 23.4137 136.031 22.9995 136.031C22.5854 136.031 22.2495 135.695 22.2495 135.281V134C22.2495 132.481 23.4808 131.25 24.9995 131.25H29.2085ZM30.7495 135C30.7495 135.69 31.3093 136.25 31.9995 136.25H33.436L30.7495 133.73V135Z" fill="#5F5F6A"/>
<path fill-rule="evenodd" clip-rule="evenodd" d="M22.0825 136.955C22.7415 136.25 23.8591 136.25 24.518 136.955L24.7114 137.162L24.7387 137.186C24.7679 137.206 24.8034 137.216 24.8393 137.215L25.1225 137.205L25.3012 137.209C26.1825 137.273 26.8757 138.024 26.8452 138.928L26.8354 139.211C26.8338 139.259 26.8529 139.306 26.8881 139.339L27.0952 139.532L27.2192 139.661C27.7585 140.285 27.7585 141.215 27.2192 141.839L27.0952 141.968L26.8881 142.161C26.8529 142.194 26.8338 142.241 26.8354 142.289L26.8452 142.572L26.8413 142.751C26.7932 143.417 26.3519 143.974 25.7495 144.194V147C25.7495 147.277 25.5969 147.531 25.353 147.661C25.1092 147.791 24.8134 147.777 24.5835 147.624L23.4995 146.901L22.4155 147.624C22.1855 147.777 21.8897 147.791 21.646 147.661C21.4022 147.531 21.2495 147.276 21.2495 147V144.285C20.3917 144.198 19.7254 143.459 19.7553 142.572L19.7651 142.289C19.7663 142.253 19.7558 142.218 19.7358 142.188L19.7124 142.161L19.5053 141.968C18.8003 141.309 18.8003 140.191 19.5053 139.532L19.7124 139.339L19.7358 139.312C19.7492 139.292 19.758 139.269 19.7622 139.246L19.7651 139.211L19.7553 138.928C19.7228 137.963 20.5135 137.172 21.478 137.205L21.7612 137.215C21.8092 137.216 21.8563 137.197 21.8891 137.162L22.0825 136.955ZM24.2495 144.775C23.8055 145.084 23.2452 145.153 22.7495 144.979V145.599L23.0835 145.376L23.1811 145.321C23.4161 145.211 23.695 145.229 23.9155 145.376L24.2495 145.599V144.775ZM23.4223 137.979C23.3563 137.909 23.2443 137.909 23.1782 137.979L22.9848 138.186C22.6563 138.537 22.1913 138.73 21.7104 138.714L21.4272 138.704C21.3306 138.701 21.2512 138.78 21.2544 138.877L21.2641 139.16C21.2783 139.581 21.1327 139.989 20.8608 140.305L20.7358 140.435L20.5297 140.628C20.459 140.694 20.459 140.806 20.5297 140.872L20.7358 141.065C21.0873 141.394 21.2803 141.859 21.2641 142.34L21.2544 142.623C21.2512 142.72 21.3306 142.799 21.4272 142.796L21.7104 142.786L21.8901 142.79C22.3055 142.821 22.6974 143.007 22.9848 143.314L23.1782 143.521L23.2348 143.561C23.2973 143.587 23.3728 143.573 23.4223 143.521L23.6157 143.314L23.7456 143.189C24.0612 142.918 24.4694 142.772 24.8901 142.786L25.1733 142.796C25.2456 142.798 25.309 142.754 25.3344 142.691L25.3462 142.623L25.3364 142.34C25.3202 141.859 25.5131 141.394 25.8647 141.065L26.0708 140.872L26.1108 140.815C26.1284 140.774 26.1284 140.726 26.1108 140.685L26.0708 140.628L25.8647 140.435C25.5131 140.106 25.3202 139.641 25.3364 139.16L25.3462 138.877C25.3493 138.78 25.2697 138.701 25.1733 138.704L24.8901 138.714C24.4694 138.728 24.0612 138.582 23.7456 138.311L23.6157 138.186L23.4223 137.979Z" fill="#5F5F6A"/>
<path fill-rule="evenodd" clip-rule="evenodd" d="M29.2091 187.5C29.8441 187.5 30.4557 187.742 30.919 188.176L34.7101 191.73L34.8888 191.916C35.2811 192.368 35.5 192.949 35.5001 193.554V201C35.5001 202.381 34.3808 203.5 33.0001 203.5H27.0001C26.724 203.5 26.5001 203.276 26.5001 203C26.5001 202.724 26.724 202.5 27.0001 202.5H33.0001C33.8285 202.5 34.5001 201.828 34.5001 201V193.554C34.5001 193.536 34.4978 193.518 34.4972 193.5H32.0001C30.6195 193.5 29.5001 192.381 29.5001 191V188.528C29.4049 188.51 29.3074 188.5 29.2091 188.5H25.0001C24.1718 188.5 23.5001 189.172 23.5001 190V191.281C23.5001 191.557 23.2762 191.781 23.0001 191.781C22.724 191.781 22.5001 191.557 22.5001 191.281V190C22.5001 188.619 23.6195 187.5 25.0001 187.5H29.2091ZM30.5001 191C30.5001 191.828 31.1718 192.5 32.0001 192.5H34.0655C34.0525 192.487 34.0401 192.473 34.0265 192.46L30.5001 189.153V191Z" fill="#5F5F6A"/>
<path fill-rule="evenodd" clip-rule="evenodd" d="M23.2999 194.75C24.4045 194.75 25.2999 195.645 25.2999 196.75C25.2999 197.855 24.4045 198.75 23.2999 198.75C22.1955 198.75 21.2999 197.854 21.2999 196.75C21.2999 195.646 22.1955 194.75 23.2999 194.75ZM23.2999 195.75C22.7478 195.75 22.2999 196.198 22.2999 196.75C22.2999 197.302 22.7478 197.75 23.2999 197.75C23.8522 197.75 24.2999 197.302 24.2999 196.75C24.2999 196.198 23.8522 195.75 23.2999 195.75Z" fill="#5F5F6A"/>
<path fill-rule="evenodd" clip-rule="evenodd" d="M22.2647 193.126C22.8249 192.527 23.7749 192.527 24.3351 193.126L24.5284 193.332L24.5958 193.391C24.6688 193.441 24.7574 193.468 24.8477 193.465L25.131 193.455L25.2823 193.458C25.9818 193.508 26.5415 194.068 26.5919 194.768L26.5948 194.919L26.5851 195.202C26.581 195.322 26.63 195.439 26.7179 195.521L26.9239 195.715C27.4858 196.24 27.5211 197.108 27.0294 197.676L26.9239 197.785L26.7179 197.979C26.63 198.061 26.581 198.178 26.5851 198.298L26.5948 198.581C26.618 199.273 26.1423 199.858 25.5001 200.007V203C25.5001 203.184 25.3987 203.353 25.2364 203.44C25.0739 203.527 24.8761 203.518 24.7227 203.416L23.5001 202.601L22.2774 203.416C22.124 203.518 21.9263 203.527 21.7638 203.44C21.6016 203.353 21.5001 203.184 21.5001 203V200.043L21.4688 200.045C20.6494 200.072 19.9775 199.401 20.005 198.581L20.0147 198.298L20.0079 198.209C19.9973 198.15 19.9744 198.095 19.9405 198.046L19.8819 197.979L19.6759 197.785C19.0768 197.225 19.0768 196.275 19.6759 195.715L19.8819 195.521L19.9405 195.454C19.9912 195.381 20.0178 195.293 20.0147 195.202L20.005 194.919C19.9775 194.099 20.6494 193.428 21.4688 193.455L21.752 193.465C21.8723 193.469 21.9891 193.42 22.0714 193.332L22.2647 193.126ZM24.3351 200.374C23.8471 200.896 23.0643 200.963 22.5001 200.575V202.065L23.2227 201.584L23.2882 201.547C23.4447 201.474 23.6306 201.486 23.7774 201.584L24.5001 202.065V200.197L24.3351 200.374ZM23.6046 193.809C23.4396 193.632 23.1601 193.632 22.9952 193.809L22.8019 194.016C22.5226 194.314 22.1275 194.478 21.7188 194.464L21.4356 194.454C21.1944 194.446 20.9959 194.644 21.004 194.886L21.0138 195.169C21.0257 195.527 20.9022 195.873 20.671 196.142L20.5655 196.252L20.3585 196.445C20.1823 196.61 20.1823 196.89 20.3585 197.055L20.5655 197.248C20.8643 197.527 21.0275 197.922 21.0138 198.331L21.004 198.614C20.9959 198.856 21.1944 199.054 21.4356 199.046L21.7188 199.036L21.8712 199.039C22.2243 199.065 22.5575 199.223 22.8019 199.484L22.9952 199.691L23.0616 199.749C23.2279 199.865 23.4602 199.846 23.6046 199.691L23.7979 199.484L23.9083 199.379C24.1764 199.148 24.5235 199.024 24.881 199.036L25.1642 199.046C25.4055 199.054 25.604 198.856 25.5958 198.614L25.586 198.331C25.5723 197.922 25.7356 197.527 26.0343 197.248L26.2413 197.055L26.2989 196.988C26.415 196.822 26.3958 196.59 26.2413 196.445L26.0343 196.252C25.7356 195.973 25.5723 195.578 25.586 195.169L25.5958 194.886L25.589 194.798C25.5585 194.627 25.4233 194.491 25.252 194.461L25.1642 194.454L24.881 194.464C24.5235 194.476 24.1764 194.352 23.9083 194.121L23.7979 194.016L23.6046 193.809Z" fill="#5F5F6A"/>
</svg>
