<svg width="56" height="224" viewBox="0 0 56 224" fill="none" xmlns="http://www.w3.org/2000/svg">
<path d="M30.7232 16.6993C30.7232 16.0703 31.2332 15.5603 31.8622 15.5603C32.4912 15.5603 33.0012 16.0703 33.0012 16.6993C33.0012 17.3283 32.4912 17.8383 31.8622 17.8383C31.2332 17.8383 30.7232 17.3283 30.7232 16.6993Z" fill="#5F5F6A"/>
<path d="M27.9648 18.4611C27.9648 17.8321 28.4747 17.3222 29.1038 17.3222C29.7328 17.3222 30.2427 17.8321 30.2427 18.4611C30.2427 19.0902 29.7328 19.6001 29.1038 19.6001C28.4747 19.6001 27.9648 19.0902 27.9648 18.4611Z" fill="#5F5F6A"/>
<path fill-rule="evenodd" clip-rule="evenodd" d="M23.8093 21.0772C23.8093 20.5907 24.2037 20.1963 24.6903 20.1963H31.3105C31.797 20.1963 32.1914 20.5907 32.1914 21.0772C32.1914 21.5543 31.8121 21.9429 31.3386 21.9577L30.9924 25.9244C30.9683 26.2001 31.0226 26.4769 31.1491 26.7231L34.3022 32.8591C34.9808 34.1796 34.0219 35.7503 32.5373 35.7503H23.4635C21.9788 35.7503 21.02 34.1796 21.6986 32.8591L24.8516 26.7231C24.9781 26.4769 25.0325 26.2001 25.0084 25.9244L24.6622 21.9577C24.1887 21.9429 23.8093 21.5543 23.8093 21.0772ZM26.4308 21.9581H29.57L29.2372 25.7712C29.1843 26.3777 29.3038 26.9868 29.5821 27.5283L30.5011 29.3169H25.4996L26.4187 27.5283C26.6969 26.9868 26.8165 26.3777 26.7636 25.7712L26.4308 21.9581Z" fill="#5F5F6A"/>
<path fill-rule="evenodd" clip-rule="evenodd" d="M24.6903 76.1963C24.2037 76.1963 23.8093 76.5907 23.8093 77.0772C23.8093 77.5543 24.1887 77.9429 24.6622 77.9577L25.0084 81.9244C25.0325 82.2001 24.9781 82.4769 24.8516 82.7231L21.6986 88.8591C21.02 90.1796 21.9788 91.7503 23.4635 91.7503H32.5373C34.0219 91.7503 34.9808 90.1796 34.3022 88.8591L31.1491 82.7231C31.0227 82.4769 30.9683 82.2001 30.9924 81.9244L31.3386 77.9577C31.8121 77.9428 32.1914 77.5543 32.1914 77.0772C32.1914 76.5907 31.797 76.1963 31.3105 76.1963H24.6903ZM29.57 77.9581H26.4308L26.7636 81.7712C26.8165 82.3777 26.697 82.9868 26.4187 83.5283L23.2656 89.6644C23.1896 89.8124 23.297 89.9885 23.4635 89.9885H32.5373C32.7037 89.9885 32.8112 89.8124 32.7351 89.6644L29.5821 83.5283C29.3038 82.9868 29.1843 82.3777 29.2372 81.7712L29.57 77.9581Z" fill="#5F5F6A"/>
<g opacity="0.5">
<path d="M30.7247 72.6993C30.7247 72.0703 31.2346 71.5603 31.8636 71.5603C32.4927 71.5603 33.0026 72.0703 33.0026 72.6993C33.0026 73.3283 32.4927 73.8383 31.8636 73.8383C31.2346 73.8383 30.7247 73.3283 30.7247 72.6993Z" fill="#5F5F6A"/>
<path d="M27.9662 74.4611C27.9662 73.8321 28.4761 73.3222 29.1052 73.3222C29.7342 73.3222 30.2441 73.8321 30.2441 74.4611C30.2441 75.0902 29.7342 75.6001 29.1052 75.6001C28.4761 75.6001 27.9662 75.0902 27.9662 74.4611Z" fill="#5F5F6A"/>
<path d="M32.2403 91.4566C33.6804 91.4566 34.4611 89.7713 33.53 88.6728L30.6853 85.3169H25.2148L22.4247 88.688C21.5124 89.7902 22.2963 91.4566 23.7271 91.4566H32.2403Z" fill="#5F5F6A"/>
</g>
<path d="M31.6504 132.012C32.008 132.013 32.2978 132.302 32.2979 132.66C32.2979 133.018 32.008 133.307 31.6504 133.307H31.3721L31.3828 133.308L30.9766 137.961C30.9447 138.325 31.0172 138.692 31.1846 139.017L34.6611 145.784C35.2987 147.025 34.3978 148.501 33.0029 148.501H22.9971C21.6023 148.501 20.7015 147.025 21.3389 145.784L24.8164 139.017C24.9836 138.692 25.0553 138.325 25.0234 137.961L24.6172 133.308L24.6289 133.307H24.3496C23.9921 133.307 23.7021 133.017 23.7021 132.66C23.7022 132.302 23.9922 132.013 24.3496 132.012H31.6504ZM26.3135 137.848C26.3665 138.456 26.2466 139.066 25.9678 139.609L24.8789 141.73H31.1221L30.0322 139.609C29.7535 139.066 29.6335 138.456 29.6865 137.848L30.083 133.307H25.917L26.3135 137.848ZM29.2129 128.503C29.9065 128.503 30.4688 129.066 30.4688 129.76C30.4685 130.453 29.9064 131.015 29.2129 131.015C28.5196 131.015 27.9573 130.453 27.957 129.76C27.957 129.066 28.5194 128.503 29.2129 128.503ZM32.2549 126.56C32.9485 126.56 33.5107 127.123 33.5107 127.816C33.5107 128.51 32.9485 129.072 32.2549 129.072C31.5613 129.072 30.999 128.51 30.999 127.816C30.9991 127.123 31.5613 126.56 32.2549 126.56Z" fill="#5F5F6A"/>
<path fill-rule="evenodd" clip-rule="evenodd" d="M31.0011 183.816C31.0011 183.123 31.5634 182.56 32.2571 182.56C32.9507 182.56 33.513 183.123 33.513 183.816C33.513 184.51 32.9507 185.072 32.2571 185.072C31.5634 185.072 31.0011 184.51 31.0011 183.816ZM32.2571 183.208C31.9211 183.208 31.6487 183.48 31.6487 183.816C31.6487 184.152 31.9211 184.425 32.2571 184.425C32.593 184.425 32.8654 184.152 32.8654 183.816C32.8654 183.48 32.593 183.208 32.2571 183.208Z" fill="#5F5F6A"/>
<path fill-rule="evenodd" clip-rule="evenodd" d="M27.9593 185.759C27.9593 185.065 28.5217 184.503 29.2153 184.503C29.9089 184.503 30.4712 185.065 30.4712 185.759C30.4712 186.453 29.9089 187.015 29.2153 187.015C28.5217 187.015 27.9593 186.453 27.9593 185.759ZM29.2153 185.151C28.8793 185.151 28.6069 185.423 28.6069 185.759C28.6069 186.095 28.8793 186.367 29.2153 186.367C29.5513 186.367 29.8236 186.095 29.8236 185.759C29.8236 185.423 29.5513 185.151 29.2153 185.151Z" fill="#5F5F6A"/>
<path fill-rule="evenodd" clip-rule="evenodd" d="M24.3485 188.012C23.9908 188.012 23.7009 188.302 23.7009 188.66C23.7009 189.018 23.9908 189.308 24.3485 189.308H24.6271L24.6159 189.309L25.0219 193.961C25.0537 194.326 24.9818 194.692 24.8144 195.018L21.3375 201.784C20.7 203.025 21.6008 204.5 22.9957 204.5H33.0015C34.3964 204.5 35.2972 203.025 34.6597 201.784L31.1828 195.018C31.0154 194.692 30.9435 194.326 30.9753 193.961L31.3813 189.309L31.37 189.308H31.6487C32.0064 189.308 32.2963 189.018 32.2963 188.66C32.2963 188.302 32.0064 188.012 31.6487 188.012H24.3485ZM30.0813 189.308H25.9159L26.3122 193.848C26.3652 194.456 26.2454 195.067 25.9664 195.61L24.892 197.7H31.1052L30.0307 195.61C29.7518 195.067 29.632 194.456 29.685 193.848L30.0813 189.308ZM22.4895 202.376L24.2265 198.996H31.7707L33.5077 202.376C33.7023 202.755 33.4273 203.205 33.0015 203.205H22.9957C22.5699 203.205 22.2949 202.755 22.4895 202.376Z" fill="#5F5F6A"/>
</svg>
