<svg width="56" height="224" viewBox="0 0 56 224" fill="none" xmlns="http://www.w3.org/2000/svg">
<path fill-rule="evenodd" clip-rule="evenodd" d="M25.396 19.7572C25.43 19.7524 25.4647 19.75 25.5 19.75L33.0253 19.75C33.4697 19.75 33.8408 19.75 34.1454 19.7708C34.4625 19.7924 34.762 19.839 35.0524 19.9593C35.7262 20.2384 36.2616 20.7738 36.5407 21.4476C36.661 21.738 36.7076 22.0375 36.7292 22.3546C36.7485 22.637 36.7499 22.9765 36.75 23.3786C37.0392 23.6172 37.2782 23.9137 37.4503 24.2515C37.6221 24.5888 37.6892 24.9454 37.7203 25.3253C37.75 25.6895 37.75 26.1354 37.75 26.6695V32.3304C37.75 32.8646 37.75 33.3104 37.7203 33.6746C37.6892 34.0545 37.6221 34.4112 37.4503 34.7484C37.1866 35.2659 36.7659 35.6866 36.2485 35.9502C35.9112 36.1221 35.5546 36.1892 35.1747 36.2202C34.8105 36.25 34.3646 36.25 33.8305 36.25H22.1695C21.6354 36.25 21.1895 36.25 20.8253 36.2202C20.4454 36.1892 20.0888 36.1221 19.7515 35.9502C19.2341 35.6866 18.8134 35.2659 18.5497 34.7484C18.3779 34.4112 18.3108 34.0545 18.2797 33.6746C18.25 33.3104 18.25 32.8646 18.25 32.3304V23.6695C18.25 23.1354 18.25 22.6895 18.2797 22.3253C18.3108 21.9454 18.3779 21.5888 18.5497 21.2515C18.8134 20.7341 19.2341 20.3134 19.7515 20.0497C20.0888 19.8779 20.4454 19.8108 20.8253 19.7797C21.1896 19.75 21.6354 19.75 22.1696 19.75L24.8874 19.75C25.0751 19.7499 25.2417 19.7498 25.396 19.7572ZM35.2459 22.786C35.2223 22.7837 35.1985 22.7817 35.1747 22.7797C34.8104 22.7499 34.3646 22.75 33.8304 22.75L29.677 22.75C29.2193 22.75 29.0948 22.7465 28.9908 22.7257C28.6967 22.6668 28.4336 22.5042 28.2494 22.2675C28.1843 22.1837 28.1255 22.074 27.9208 21.6646L27.892 21.6069C27.8273 21.4774 27.7683 21.3591 27.71 21.25H33C33.4762 21.25 33.7958 21.2504 34.0433 21.2673C34.284 21.2837 34.4012 21.3132 34.4784 21.3452C34.7846 21.472 35.028 21.7154 35.1549 22.0216C35.1868 22.0988 35.2163 22.216 35.2327 22.4567C35.2393 22.5537 35.2434 22.6618 35.2459 22.786Z" fill="#5F5F6A"/>
<path opacity="0.5" d="M27.25 78C27.0595 77.6189 26.9642 77.4284 26.8425 77.272C26.5479 76.8932 26.1269 76.633 25.6564 76.5389C25.4621 76.5 25.249 76.5 24.823 76.5H22.2C21.0799 76.5 20.5198 76.5 20.092 76.718C19.7157 76.9097 19.4097 77.2157 19.218 77.592C19 78.0198 19 78.5799 19 79.7V88.3C19 89.4201 19 89.9801 19.218 90.408C19.4097 90.7843 19.7157 91.0903 20.092 91.282C20.5198 91.5 21.0799 91.5 22.2 91.5H33.8C34.9201 91.5 35.4802 91.5 35.908 91.282C36.2843 91.0903 36.5903 90.7843 36.782 90.408C37 89.9801 37 89.4201 37 88.3V82.7C37 81.5799 37 81.0198 36.782 80.592C36.5903 80.2157 36.2843 79.9097 35.908 79.718C35.4802 79.5 34.9201 79.5 33.8 79.5H29.677C29.251 79.5 29.0379 79.5 28.8436 79.4611C28.3731 79.367 27.9521 79.1068 27.6575 78.728C27.5358 78.5716 27.4405 78.3811 27.25 78Z" fill="#5F5F6A"/>
<path fill-rule="evenodd" clip-rule="evenodd" d="M25.396 75.7572C25.2417 75.7498 25.0751 75.7499 24.8874 75.75L22.1696 75.75C21.6354 75.75 21.1896 75.75 20.8253 75.7797C20.4454 75.8108 20.0888 75.8779 19.7515 76.0497C19.2341 76.3134 18.8134 76.7341 18.5497 77.2515C18.3779 77.5888 18.3108 77.9454 18.2797 78.3253C18.25 78.6895 18.25 79.1354 18.25 79.6695V88.3304C18.25 88.8645 18.25 89.3104 18.2797 89.6746C18.3108 90.0545 18.3779 90.4112 18.5497 90.7484C18.8134 91.2659 19.2341 91.6866 19.7515 91.9502C20.0888 92.1221 20.4454 92.1892 20.8253 92.2202C21.1895 92.25 21.6354 92.25 22.1695 92.25H33.8305C34.3646 92.25 34.8105 92.25 35.1747 92.2202C35.5546 92.1892 35.9112 92.1221 36.2485 91.9502C36.7659 91.6866 37.1866 91.2659 37.4503 90.7484C37.6221 90.4112 37.6892 90.0545 37.7203 89.6746C37.75 89.3104 37.75 88.8646 37.75 88.3304V82.6695C37.75 82.1354 37.75 81.6895 37.7203 81.3253C37.6892 80.9454 37.6221 80.5888 37.4503 80.2515C37.2782 79.9137 37.0392 79.6172 36.75 79.3786C36.7499 78.9765 36.7485 78.637 36.7292 78.3546C36.7076 78.0375 36.661 77.738 36.5407 77.4476C36.2616 76.7738 35.7262 76.2384 35.0524 75.9593C34.762 75.839 34.4625 75.7924 34.1454 75.7708C33.8408 75.75 33.4697 75.75 33.0253 75.75L25.5 75.75C25.4647 75.75 25.43 75.7524 25.396 75.7572ZM24.823 77.25C25.2807 77.25 25.4052 77.2535 25.5092 77.2743C25.8033 77.3331 26.0664 77.4957 26.2505 77.7325C26.3157 77.8162 26.3745 77.9259 26.5792 78.3354L26.608 78.393C26.7702 78.7179 26.8972 78.9721 27.0655 79.1885C27.4706 79.7093 28.0495 80.0671 28.6965 80.1965C28.9653 80.2503 29.2494 80.2502 29.6126 80.25L33.8 80.25C34.3724 80.25 34.7566 80.2506 35.0525 80.2747C35.3396 80.2982 35.4769 80.3401 35.5675 80.3862C35.8027 80.5061 35.9939 80.6973 36.1138 80.9325C36.1599 81.023 36.2018 81.1603 36.2252 81.4474C36.2494 81.7433 36.25 82.1275 36.25 82.7V88.3C36.25 88.8724 36.2494 89.2566 36.2252 89.5525C36.2018 89.8396 36.1599 89.9769 36.1138 90.0675C35.9939 90.3027 35.8027 90.4939 35.5675 90.6137C35.4769 90.6599 35.3396 90.7017 35.0525 90.7252C34.7566 90.7494 34.3724 90.75 33.8 90.75H22.2C21.6276 90.75 21.2434 90.7494 20.9475 90.7252C20.6604 90.7017 20.5231 90.6599 20.4325 90.6137C20.1973 90.4939 20.0061 90.3027 19.8862 90.0675C19.8401 89.9769 19.7982 89.8396 19.7748 89.5525C19.7506 89.2566 19.75 88.8724 19.75 88.3V79.7C19.75 79.1275 19.7506 78.7433 19.7748 78.4475C19.7982 78.1603 19.8401 78.0231 19.8862 77.9325C20.0061 77.6973 20.1973 77.5061 20.4325 77.3862C20.5231 77.3401 20.6604 77.2982 20.9475 77.2747C21.2434 77.2506 21.6276 77.25 22.2 77.25H24.823ZM27.71 77.25C27.7683 77.3591 27.8273 77.4774 27.892 77.6069L27.9208 77.6646C28.1255 78.074 28.1843 78.1837 28.2494 78.2675C28.4336 78.5042 28.6967 78.6668 28.9908 78.7257C29.0948 78.7465 29.2193 78.75 29.677 78.75L33.8304 78.75C34.3646 78.75 34.8104 78.7499 35.1747 78.7797C35.1985 78.7817 35.2223 78.7837 35.2459 78.786C35.2434 78.6618 35.2393 78.5537 35.2327 78.4567C35.2163 78.216 35.1868 78.0988 35.1549 78.0216C35.028 77.7154 34.7846 77.472 34.4784 77.3452C34.4012 77.3132 34.284 77.2837 34.0433 77.2673C33.7958 77.2504 33.4762 77.25 33 77.25H27.71Z" fill="#5F5F6A"/>
<path fill-rule="evenodd" clip-rule="evenodd" d="M22.1696 131.75C21.6354 131.75 21.1896 131.75 20.8253 131.78C20.4454 131.811 20.0888 131.878 19.7515 132.05C19.2341 132.313 18.8134 132.734 18.5497 133.252C18.3779 133.589 18.3108 133.945 18.2797 134.325C18.25 134.69 18.25 135.135 18.25 135.67V144.33C18.25 144.865 18.25 145.31 18.2797 145.675C18.3108 146.055 18.3779 146.411 18.5497 146.748C18.8134 147.266 19.2341 147.687 19.7515 147.95C20.0888 148.122 20.4454 148.189 20.8253 148.22C21.1895 148.25 21.6354 148.25 22.1695 148.25H33.8305C34.3646 148.25 34.8105 148.25 35.1747 148.22C35.5546 148.189 35.9112 148.122 36.2485 147.95C36.7659 147.687 37.1866 147.266 37.4503 146.748C37.6221 146.411 37.6892 146.055 37.7203 145.675C37.75 145.31 37.75 144.865 37.75 144.33V138.67C37.75 138.135 37.75 137.69 37.7203 137.325C37.6892 136.945 37.6221 136.589 37.4503 136.251C37.2782 135.914 37.0392 135.617 36.75 135.379C36.7498 134.741 36.7897 134.049 36.5407 133.448C36.2616 132.774 35.7262 132.238 35.0524 131.959C34.423 131.699 33.6915 131.75 33.0253 131.75L25.5 131.75C24.3899 131.75 23.2797 131.75 22.1696 131.75ZM24.823 133.25C25.2807 133.25 25.4052 133.253 25.5092 133.274C25.8033 133.333 26.0664 133.496 26.2505 133.732C26.5922 134.172 26.7209 134.746 27.0655 135.189C27.4706 135.709 28.0495 136.067 28.6965 136.197C28.9653 136.25 29.2494 136.25 29.6126 136.25L33.8 136.25C34.3724 136.25 34.7566 136.251 35.0525 136.275C35.3396 136.298 35.4769 136.34 35.5675 136.386C35.8027 136.506 35.9939 136.697 36.1138 136.932C36.1599 137.023 36.2018 137.16 36.2252 137.447C36.2494 137.743 36.25 138.128 36.25 138.7V144.3C36.25 144.872 36.2494 145.257 36.2252 145.552C36.2018 145.84 36.1599 145.977 36.1138 146.067C35.9939 146.303 35.8027 146.494 35.5675 146.614C35.4769 146.66 35.3396 146.702 35.0525 146.725C34.7566 146.749 34.3724 146.75 33.8 146.75H22.2C21.6276 146.75 21.2434 146.749 20.9475 146.725C20.6604 146.702 20.5231 146.66 20.4325 146.614C20.1973 146.494 20.0061 146.303 19.8862 146.067C19.8401 145.977 19.7982 145.84 19.7748 145.552C19.7506 145.257 19.75 144.872 19.75 144.3V135.7C19.75 135.128 19.7506 134.743 19.7748 134.447C19.7982 134.16 19.8401 134.023 19.8862 133.932C20.0061 133.697 20.1973 133.506 20.4325 133.386C20.5231 133.34 20.6604 133.298 20.9475 133.275C21.2434 133.251 21.6276 133.25 22.2 133.25H24.823ZM27.71 133.25C28.0297 133.848 28.2333 134.574 28.9908 134.726C29.0948 134.746 29.2193 134.75 29.677 134.75L33.8304 134.75C34.3996 134.75 34.8608 134.749 35.2459 134.786C35.2434 134.662 35.2393 134.554 35.2327 134.457C35.1859 133.77 34.7048 133.312 34.0433 133.267C33.7958 133.25 33.4762 133.25 33 133.25H27.71Z" fill="#5F5F6A"/>
<path fill-rule="evenodd" clip-rule="evenodd" d="M25.4095 188.008C25.4389 188.003 25.4691 188 25.5 188H33.0178C33.4686 188 33.8323 188 34.1283 188.02C34.4327 188.041 34.7019 188.085 34.9567 188.19C35.5693 188.444 36.056 188.931 36.3097 189.543C36.4153 189.798 36.459 190.067 36.4798 190.372C36.5 190.668 36.5 191.031 36.5 191.482V191.5C36.8039 191.728 37.0534 192.023 37.2275 192.365C37.3784 192.661 37.4413 192.981 37.4711 193.346C37.5 193.7 37.5 194.137 37.5 194.679V200.321C37.5 200.863 37.5 201.3 37.4711 201.654C37.4413 202.019 37.3784 202.339 37.2275 202.635C36.9878 203.105 36.6054 203.488 36.135 203.728C35.8388 203.878 35.5187 203.941 35.1543 203.971C34.8004 204 34.3633 204 33.8215 204H22.1786C21.6367 204 21.1996 204 20.8457 203.971C20.4813 203.941 20.1612 203.878 19.865 203.728C19.3946 203.488 19.0122 203.105 18.7725 202.635C18.6216 202.339 18.5587 202.019 18.5289 201.654C18.5 201.3 18.5 200.863 18.5 200.321V191.679C18.5 191.137 18.5 190.7 18.5289 190.346C18.5587 189.981 18.6216 189.661 18.7725 189.365C19.0122 188.895 19.3946 188.512 19.865 188.273C20.1612 188.122 20.4813 188.059 20.8457 188.029C21.1996 188 21.6367 188 22.1786 188L24.8737 188C25.0825 188 25.2554 188 25.4095 188.008ZM33 189C33.4728 189 33.8023 189 34.0603 189.018C34.3137 189.035 34.4613 189.068 34.574 189.114C34.9416 189.266 35.2336 189.558 35.3858 189.926C35.4325 190.039 35.4648 190.186 35.4821 190.44C35.4938 190.611 35.4979 190.815 35.4993 191.071C35.3886 191.052 35.2738 191.039 35.1543 191.029C34.8004 191 34.3633 191 33.8214 191H29.677C29.2298 191 29.0759 190.998 28.9417 190.971C28.5888 190.9 28.2731 190.705 28.0521 190.421C27.9681 190.313 27.8972 190.176 27.6972 189.776L27.6745 189.731C27.5158 189.413 27.4036 189.189 27.2637 189H33ZM24.823 189C25.2702 189 25.4241 189.002 25.5582 189.029C25.9111 189.1 26.2269 189.295 26.4479 189.579C26.5319 189.687 26.6028 189.824 26.8028 190.224L26.8255 190.269C26.9941 190.606 27.1102 190.839 27.2628 191.035C27.6311 191.508 28.1574 191.834 28.7455 191.951C28.9892 192 29.2491 192 29.6263 192L33.8 192C34.3683 192 34.7645 192 35.0729 192.026C35.3755 192.05 35.5493 192.096 35.681 192.163C35.9632 192.307 36.1927 192.537 36.3365 192.819C36.4036 192.951 36.4497 193.125 36.4744 193.427C36.4996 193.736 36.5 194.132 36.5 194.7V200.3C36.5 200.868 36.4996 201.264 36.4744 201.573C36.4497 201.875 36.4036 202.049 36.3365 202.181C36.1927 202.463 35.9632 202.693 35.681 202.837C35.5493 202.904 35.3755 202.95 35.0729 202.974C34.7645 203 34.3683 203 33.8 203H22.2C21.6317 203 21.2355 203 20.9271 202.974C20.6245 202.95 20.4507 202.904 20.319 202.837C20.0368 202.693 19.8073 202.463 19.6635 202.181C19.5964 202.049 19.5503 201.875 19.5256 201.573C19.5004 201.264 19.5 200.868 19.5 200.3V191.7C19.5 191.132 19.5004 190.736 19.5256 190.427C19.5503 190.125 19.5964 189.951 19.6635 189.819C19.8073 189.537 20.0368 189.307 20.319 189.164C20.4507 189.096 20.6245 189.05 20.9271 189.026C21.2355 189 21.6317 189 22.2 189H24.823Z" fill="#5F5F6A"/>
</svg>
