<svg width="56" height="224" viewBox="0 0 56 224" fill="none" xmlns="http://www.w3.org/2000/svg">
<path fill-rule="evenodd" clip-rule="evenodd" d="M25.8035 19.8034C25.5347 19.7496 25.2505 19.7498 24.8874 19.75L22.1696 19.75C21.6354 19.75 21.1896 19.75 20.8253 19.7797C20.4454 19.8108 20.0888 19.8779 19.7515 20.0497C19.2341 20.3134 18.8134 20.7341 18.5497 21.2515C18.3779 21.5888 18.3108 21.9454 18.2797 22.3253C18.25 22.6895 18.25 23.1354 18.25 23.6695V32.3304C18.25 32.8645 18.25 33.3104 18.2797 33.6746C18.3108 34.0545 18.3779 34.4112 18.5497 34.7484C18.8134 35.2659 19.2341 35.6866 19.7515 35.9502C20.0888 36.1221 20.4454 36.1892 20.8253 36.2202C21.1895 36.25 21.6354 36.25 22.1695 36.25H33.8305C34.3646 36.25 34.8105 36.25 35.1747 36.2202C35.5546 36.1892 35.9112 36.1221 36.2485 35.9502C36.7659 35.6866 37.1866 35.2659 37.4503 34.7484C37.6221 34.4112 37.6892 34.0545 37.7203 33.6746C37.75 33.3104 37.75 32.8646 37.75 32.3304V26.6695C37.75 26.1354 37.75 25.6895 37.7203 25.3253C37.6892 24.9454 37.6221 24.5888 37.4503 24.2515C37.1866 23.734 36.7659 23.3134 36.2485 23.0497C35.9112 22.8779 35.5546 22.8107 35.1747 22.7797C34.8104 22.7499 34.3646 22.75 33.8304 22.75L29.677 22.75C29.2193 22.75 29.0948 22.7465 28.9908 22.7257C28.6967 22.6668 28.4336 22.5042 28.2494 22.2675C28.1843 22.1837 28.1255 22.074 27.9208 21.6646L27.892 21.6069C27.7298 21.282 27.6028 21.0278 27.4345 20.8114C27.0294 20.2907 26.4505 19.9329 25.8035 19.8034ZM28.75 32.25C28.75 32.6642 28.4142 33 28 33C27.5858 33 27.25 32.6642 27.25 32.25V28.0607L26.0303 29.2803C25.7374 29.5732 25.2626 29.5732 24.9697 29.2803C24.6768 28.9874 24.6768 28.5126 24.9697 28.2197L27.4697 25.7197C27.7626 25.4268 28.2374 25.4268 28.5303 25.7197L31.0303 28.2197C31.3232 28.5126 31.3232 28.9874 31.0303 29.2803C30.7374 29.5732 30.2626 29.5732 29.9697 29.2803L28.75 28.0607V32.25Z" fill="#5F5F6A"/>
<path fill-rule="evenodd" clip-rule="evenodd" d="M25.5092 77.2743C25.4052 77.2535 25.2807 77.25 24.823 77.25H22.2C21.6276 77.25 21.2434 77.2506 20.9475 77.2748C20.6604 77.2982 20.5231 77.3401 20.4325 77.3862C20.1973 77.5061 20.0061 77.6973 19.8862 77.9325C19.8401 78.0231 19.7982 78.1603 19.7748 78.4475C19.7506 78.7434 19.75 79.1276 19.75 79.7V88.3C19.75 88.8724 19.7506 89.2566 19.7748 89.5525C19.7982 89.8396 19.8401 89.9769 19.8862 90.0675C20.0061 90.3027 20.1973 90.4939 20.4325 90.6137C20.5231 90.6599 20.6604 90.7018 20.9475 90.7252C21.2434 90.7494 21.6276 90.75 22.2 90.75H33.8C34.3724 90.75 34.7566 90.7494 35.0525 90.7252C35.3396 90.7018 35.4769 90.6599 35.5675 90.6137C35.8027 90.4939 35.9939 90.3027 36.1138 90.0675C36.1599 89.9769 36.2018 89.8396 36.2252 89.5525C36.2494 89.2566 36.25 88.8724 36.25 88.3V82.7C36.25 82.1276 36.2494 81.7433 36.2252 81.4475C36.2018 81.1603 36.1599 81.0231 36.1138 80.9325C35.9939 80.6973 35.8027 80.5061 35.5675 80.3862C35.4769 80.3401 35.3396 80.2982 35.0525 80.2747C34.7566 80.2506 34.3724 80.25 33.8 80.25H29.677C29.6553 80.25 29.6338 80.25 29.6126 80.25C29.2494 80.2502 28.9653 80.2503 28.6965 80.1965C28.0495 80.0671 27.4706 79.7093 27.0655 79.1885C26.8972 78.9721 26.7702 78.7179 26.608 78.393C26.5985 78.3741 26.5889 78.3549 26.5792 78.3354C26.3745 77.9259 26.3157 77.8162 26.2505 77.7325C26.0664 77.4958 25.8033 77.3331 25.5092 77.2743ZM24.8874 75.75C25.2505 75.7498 25.5347 75.7497 25.8035 75.8035C26.4505 75.9329 27.0294 76.2907 27.4345 76.8115C27.6028 77.0278 27.7298 77.282 27.892 77.6069C27.9015 77.6259 27.9111 77.6451 27.9208 77.6646C28.1255 78.074 28.1843 78.1838 28.2494 78.2675C28.4336 78.5042 28.6967 78.6668 28.9908 78.7257C29.0948 78.7465 29.2193 78.75 29.677 78.75L33.8304 78.75C34.3646 78.75 34.8104 78.75 35.1747 78.7797C35.5546 78.8108 35.9112 78.8779 36.2485 79.0497C36.7659 79.3134 37.1866 79.7341 37.4503 80.2515C37.6221 80.5888 37.6892 80.9454 37.7203 81.3253C37.75 81.6895 37.75 82.1354 37.75 82.6695V88.3304C37.75 88.8646 37.75 89.3104 37.7203 89.6747C37.6892 90.0545 37.6221 90.4112 37.4503 90.7485C37.1866 91.2659 36.7659 91.6866 36.2485 91.9503C35.9112 92.1221 35.5546 92.1892 35.1747 92.2202C34.8104 92.25 34.3646 92.25 33.8305 92.25H22.1695C21.6354 92.25 21.1896 92.25 20.8253 92.2202C20.4454 92.1892 20.0888 92.1221 19.7515 91.9503C19.2341 91.6866 18.8134 91.2659 18.5497 90.7485C18.3779 90.4112 18.3108 90.0545 18.2797 89.6747C18.25 89.3104 18.25 88.8646 18.25 88.3304V79.6696C18.25 79.1354 18.25 78.6896 18.2797 78.3253C18.3108 77.9454 18.3779 77.5888 18.5497 77.2515C18.8134 76.7341 19.2341 76.3134 19.7515 76.0497C20.0888 75.8779 20.4454 75.8108 20.8253 75.7797C21.1896 75.75 21.6354 75.75 22.1696 75.75L24.823 75.75C24.8447 75.75 24.8662 75.75 24.8874 75.75Z" fill="#5F5F6A"/>
<path opacity="0.5" fill-rule="evenodd" clip-rule="evenodd" d="M26.8425 77.272C26.9642 77.4284 27.0595 77.6189 27.25 78L27.25 78C27.4405 78.3811 27.5358 78.5716 27.6575 78.728C27.9521 79.1068 28.3731 79.367 28.8436 79.4611C29.0379 79.5 29.251 79.5 29.677 79.5H33.8C34.9201 79.5 35.4802 79.5 35.908 79.718C36.2843 79.9097 36.5903 80.2157 36.782 80.592C37 81.0198 37 81.5799 37 82.7V88.3C37 89.4201 37 89.9801 36.782 90.408C36.5903 90.7843 36.2843 91.0903 35.908 91.282C35.4802 91.5 34.9201 91.5 33.8 91.5H22.2C21.0799 91.5 20.5198 91.5 20.092 91.282C19.7157 91.0903 19.4097 90.7843 19.218 90.408C19 89.9801 19 89.4201 19 88.3V79.7C19 78.5799 19 78.0198 19.218 77.592C19.4097 77.2157 19.7157 76.9097 20.092 76.718C20.5198 76.5 21.0799 76.5 22.2 76.5H24.823C25.249 76.5 25.4621 76.5 25.6564 76.5389C26.1269 76.633 26.5479 76.8932 26.8425 77.272ZM28 89C27.5858 89 27.25 88.6642 27.25 88.25V84.0607L26.0303 85.2803C25.7374 85.5732 25.2626 85.5732 24.9697 85.2803C24.6768 84.9874 24.6768 84.5126 24.9697 84.2197L27.4697 81.7197C27.7626 81.4268 28.2374 81.4268 28.5303 81.7197L31.0303 84.2197C31.3232 84.5126 31.3232 84.9874 31.0303 85.2803C30.7374 85.5732 30.2626 85.5732 29.9697 85.2803L28.75 84.0607V88.25C28.75 88.6642 28.4142 89 28 89Z" fill="#5F5F6A"/>
<path d="M24.8877 131.75C25.2507 131.75 25.5349 131.75 25.8037 131.804C26.4506 131.933 27.0295 132.291 27.4346 132.811C27.6029 133.028 27.7294 133.282 27.8916 133.607C27.901 133.626 27.9112 133.646 27.9209 133.665C28.1253 134.074 28.184 134.184 28.249 134.268C28.4332 134.504 28.6971 134.667 28.9912 134.726C29.0951 134.746 29.2197 134.75 29.6768 134.75H33.8301C34.3642 134.75 34.8106 134.749 35.1748 134.779C35.5545 134.81 35.9109 134.878 36.248 135.05C36.7655 135.313 37.1865 135.734 37.4502 136.252C37.6219 136.589 37.6897 136.945 37.7207 137.325C37.7505 137.689 37.75 138.136 37.75 138.67V144.33C37.75 144.864 37.7505 145.311 37.7207 145.675C37.6897 146.054 37.6219 146.411 37.4502 146.748C37.1865 147.265 36.7655 147.686 36.248 147.95C35.9109 148.122 35.5545 148.19 35.1748 148.221C34.8106 148.25 34.3642 148.25 33.8301 148.25H22.1699C21.6358 148.25 21.1894 148.25 20.8252 148.221C20.4455 148.19 20.0891 148.122 19.752 147.95C19.2345 147.686 18.8135 147.265 18.5498 146.748C18.3781 146.411 18.3103 146.054 18.2793 145.675C18.2495 145.311 18.25 144.864 18.25 144.33V135.67C18.25 135.136 18.2495 134.689 18.2793 134.325C18.3103 133.945 18.3781 133.589 18.5498 133.252C18.8135 132.734 19.2345 132.313 19.752 132.05C20.0891 131.878 20.4455 131.81 20.8252 131.779C21.1894 131.749 21.6358 131.75 22.1699 131.75H24.8877ZM22.2002 133.25C21.6278 133.25 21.2431 133.25 20.9473 133.274C20.6603 133.298 20.5232 133.341 20.4326 133.387C20.1975 133.506 20.0065 133.697 19.8867 133.933C19.8406 134.023 19.7979 134.16 19.7744 134.447C19.7502 134.743 19.75 135.128 19.75 135.7V144.3C19.75 144.872 19.7502 145.257 19.7744 145.553C19.7979 145.84 19.8406 145.977 19.8867 146.067C20.0066 146.302 20.1974 146.494 20.4326 146.614C20.5232 146.66 20.6606 146.702 20.9473 146.726C21.2431 146.75 21.6278 146.75 22.2002 146.75H33.7998C34.3722 146.75 34.7569 146.75 35.0527 146.726C35.3394 146.702 35.4768 146.66 35.5674 146.614C35.8026 146.494 35.9934 146.302 36.1133 146.067C36.1594 145.977 36.2021 145.84 36.2256 145.553C36.2498 145.257 36.25 144.872 36.25 144.3V138.7C36.25 138.128 36.2498 137.743 36.2256 137.447C36.2021 137.16 36.1594 137.023 36.1133 136.933C35.9935 136.697 35.8025 136.506 35.5674 136.387C35.4768 136.341 35.3397 136.298 35.0527 136.274C34.7569 136.25 34.3722 136.25 33.7998 136.25H29.6123C29.2493 136.25 28.9651 136.25 28.6963 136.196C28.0494 136.067 27.4705 135.709 27.0654 135.188C26.8972 134.972 26.7705 134.718 26.6084 134.393C26.5989 134.375 26.5888 134.354 26.5791 134.335C26.3747 133.926 26.3161 133.816 26.251 133.732C26.0668 133.496 25.8029 133.333 25.5088 133.274C25.4049 133.254 25.2802 133.25 24.8232 133.25H22.2002ZM27.4697 137.72C27.7626 137.427 28.2374 137.427 28.5303 137.72L31.0303 140.22C31.3232 140.513 31.3231 140.987 31.0303 141.28C30.7374 141.573 30.2626 141.573 29.9697 141.28L28.75 140.06V144.25C28.75 144.664 28.4142 145 28 145C27.5858 145 27.25 144.664 27.25 144.25V140.06L26.0303 141.28C25.7374 141.573 25.2626 141.573 24.9697 141.28C24.6769 140.987 24.6768 140.513 24.9697 140.22L27.4697 137.72Z" fill="#5F5F6A"/>
<path d="M27.5 195.707V200.5C27.5 200.776 27.7239 201 28 201C28.2761 201 28.5 200.776 28.5 200.5V195.707L30.1464 197.354C30.3417 197.549 30.6583 197.549 30.8536 197.354C31.0488 197.158 31.0488 196.842 30.8536 196.646L28.3536 194.146C28.1583 193.951 27.8417 193.951 27.6464 194.146L25.1464 196.646C24.9512 196.842 24.9512 197.158 25.1464 197.354C25.3417 197.549 25.6583 197.549 25.8536 197.354L27.5 195.707Z" fill="#5F5F6A"/>
<path fill-rule="evenodd" clip-rule="evenodd" d="M25.7545 188.049C25.5108 188 25.2509 188 24.8737 188L22.1786 188C21.6367 188 21.1996 188 20.8457 188.029C20.4813 188.059 20.1612 188.122 19.865 188.272C19.3946 188.512 19.0122 188.895 18.7725 189.365C18.6216 189.661 18.5587 189.981 18.5289 190.346C18.5 190.7 18.5 191.137 18.5 191.679V200.321C18.5 200.863 18.5 201.3 18.5289 201.654C18.5587 202.019 18.6216 202.339 18.7725 202.635C19.0122 203.105 19.3946 203.488 19.865 203.728C20.1612 203.878 20.4813 203.941 20.8457 203.971C21.1996 204 21.6366 204 22.1784 204H33.8214C34.3632 204 34.8004 204 35.1543 203.971C35.5187 203.941 35.8388 203.878 36.135 203.728C36.6054 203.488 36.9878 203.105 37.2275 202.635C37.3784 202.339 37.4413 202.019 37.4711 201.654C37.5 201.3 37.5 200.863 37.5 200.321V194.679C37.5 194.137 37.5 193.7 37.4711 193.346C37.4413 192.981 37.3784 192.661 37.2275 192.365C36.9878 191.895 36.6054 191.512 36.135 191.272C35.8388 191.122 35.5187 191.059 35.1543 191.029C34.8004 191 34.3633 191 33.8214 191H29.677C29.2298 191 29.0759 190.998 28.9417 190.971C28.5888 190.9 28.2731 190.705 28.0521 190.421C27.9681 190.313 27.8972 190.176 27.6972 189.776L27.6745 189.731C27.5059 189.394 27.3898 189.161 27.2372 188.965C26.8689 188.492 26.3426 188.166 25.7545 188.049ZM24.823 189C25.2702 189 25.4241 189.002 25.5582 189.029C25.9111 189.1 26.2269 189.295 26.4479 189.579C26.5319 189.687 26.6028 189.824 26.8028 190.224L26.8255 190.269C26.9941 190.606 27.1102 190.839 27.2628 191.035C27.6311 191.508 28.1574 191.834 28.7455 191.951C28.9892 192 29.2491 192 29.6263 192L33.8 192C34.3683 192 34.7645 192 35.0729 192.026C35.3755 192.05 35.5493 192.096 35.681 192.163C35.9632 192.307 36.1927 192.537 36.3365 192.819C36.4036 192.951 36.4497 193.125 36.4744 193.427C36.4996 193.736 36.5 194.132 36.5 194.7V200.3C36.5 200.868 36.4996 201.264 36.4744 201.573C36.4497 201.875 36.4036 202.049 36.3365 202.181C36.1927 202.463 35.9632 202.693 35.681 202.837C35.5493 202.904 35.3755 202.95 35.0729 202.974C34.7645 203 34.3683 203 33.8 203H22.2C21.6317 203 21.2355 203 20.9271 202.974C20.6245 202.95 20.4507 202.904 20.319 202.837C20.0368 202.693 19.8073 202.463 19.6635 202.181C19.5964 202.049 19.5503 201.875 19.5256 201.573C19.5004 201.264 19.5 200.868 19.5 200.3V191.7C19.5 191.132 19.5004 190.736 19.5256 190.427C19.5503 190.125 19.5964 189.951 19.6635 189.819C19.8073 189.537 20.0368 189.307 20.319 189.164C20.4507 189.096 20.6245 189.05 20.9271 189.026C21.2355 189 21.6317 189 22.2 189H24.823Z" fill="#5F5F6A"/>
</svg>
