<svg width="56" height="224" viewBox="0 0 56 224" fill="none" xmlns="http://www.w3.org/2000/svg">
<path fill-rule="evenodd" clip-rule="evenodd" d="M25.8035 19.8034C25.5347 19.7496 25.2505 19.7498 24.8874 19.75L22.1696 19.75C21.6354 19.75 21.1896 19.75 20.8253 19.7797C20.4454 19.8108 20.0888 19.8779 19.7515 20.0497C19.2341 20.3134 18.8134 20.7341 18.5497 21.2515C18.3779 21.5888 18.3108 21.9454 18.2797 22.3253C18.25 22.6895 18.25 23.1354 18.25 23.6695V32.3304C18.25 32.8645 18.25 33.3104 18.2797 33.6746C18.3108 34.0545 18.3779 34.4112 18.5497 34.7484C18.8134 35.2659 19.2341 35.6866 19.7515 35.9502C20.0888 36.1221 20.4454 36.1892 20.8253 36.2202C21.1895 36.25 21.6354 36.25 22.1695 36.25H33.8305C34.3646 36.25 34.8105 36.25 35.1747 36.2202C35.5546 36.1892 35.9112 36.1221 36.2485 35.9502C36.7659 35.6866 37.1866 35.2659 37.4503 34.7484C37.6221 34.4112 37.6892 34.0545 37.7203 33.6746C37.75 33.3104 37.75 32.8646 37.75 32.3304V26.6695C37.75 26.1354 37.75 25.6895 37.7203 25.3253C37.6892 24.9454 37.6221 24.5888 37.4503 24.2515C37.1866 23.734 36.7659 23.3134 36.2485 23.0497C35.9112 22.8779 35.5546 22.8107 35.1747 22.7797C34.8104 22.7499 34.3646 22.75 33.8304 22.75L29.677 22.75C29.2193 22.75 29.0948 22.7465 28.9908 22.7257C28.6967 22.6668 28.4336 22.5042 28.2494 22.2675C27.9085 21.8292 27.7785 21.2537 27.4345 20.8114C27.0294 20.2907 26.4505 19.9329 25.8035 19.8034ZM28.8109 26L28.834 26C29.1698 26 29.4421 26.2702 29.4421 26.6034C29.4421 26.9367 29.1698 27.2069 28.834 27.2069C28.202 27.2069 27.7351 27.2073 27.3661 27.2366C26.9956 27.2659 26.7928 27.3206 26.6656 27.3881C26.3638 27.5484 26.1129 27.8071 25.954 28.1321C25.88 28.2834 25.8286 28.4846 25.801 28.8359C25.7812 29.0885 25.7752 29.3918 25.7734 29.7803C26.0443 29.5115 26.4336 29.3267 26.762 29.6526C26.9995 29.8883 26.9995 30.2704 26.762 30.506L25.5945 31.6646C25.3589 31.8984 24.937 31.8879 24.7135 31.6428L23.6572 30.4842C23.4319 30.237 23.4511 29.8554 23.7001 29.6318C23.9487 29.4087 24.3322 29.4272 24.5577 29.673C24.5603 29.3172 24.5676 29.0093 24.5885 28.7423C24.6215 28.3208 24.6913 27.9497 24.8598 27.6052C25.1273 27.0582 25.5568 26.608 26.0919 26.3239C26.4404 26.1389 26.8425 26.0673 27.2693 26.0335C27.6922 26 28.2073 26 28.8109 26ZM31.2865 27.3572L32.3428 28.5158C32.5681 28.763 32.5489 29.1446 32.2999 29.3682C32.0513 29.5913 31.6678 29.5728 31.4423 29.327C31.4397 29.6828 31.4324 29.9907 31.4115 30.2577C31.3785 30.6792 31.3087 31.0503 31.1402 31.3948C30.8727 31.9418 30.4432 32.392 29.9081 32.6761C29.5596 32.8611 29.1575 32.9327 28.7307 32.9665C28.3078 33 27.7927 33 27.1891 33H27.166C26.8302 33 26.5579 32.7298 26.5579 32.3966C26.5579 32.0633 26.8302 31.7931 27.166 31.7931C27.798 31.7931 28.2649 31.7927 28.6339 31.7634C29.0044 31.7341 29.2072 31.6794 29.3344 31.6119C29.6362 31.4516 29.8871 31.1929 30.046 30.8679C30.12 30.7166 30.1714 30.5154 30.199 30.1641C30.2188 29.9115 30.2248 29.6082 30.2266 29.2197C29.9557 29.4885 29.5664 29.6733 29.238 29.3474C29.0005 29.1117 29.0005 28.7296 29.238 28.494L30.4055 27.3354C30.6411 27.1016 31.063 27.1121 31.2865 27.3572Z" fill="#5F5F6A"/>
<path opacity="0.5" fill-rule="evenodd" clip-rule="evenodd" d="M26.8425 77.272C26.9642 77.4284 27.0595 77.6189 27.25 78C27.4405 78.3811 27.5358 78.5716 27.6575 78.728C27.9521 79.1068 28.3731 79.367 28.8436 79.4611C29.0379 79.5 29.251 79.5 29.677 79.5H33.8C34.9201 79.5 35.4802 79.5 35.908 79.718C36.2843 79.9097 36.5903 80.2157 36.782 80.592C37 81.0198 37 81.5799 37 82.7V88.3C37 89.4201 37 89.9801 36.782 90.408C36.5903 90.7843 36.2843 91.0903 35.908 91.282C35.4802 91.5 34.9201 91.5 33.8 91.5H22.2C21.0799 91.5 20.5198 91.5 20.092 91.282C19.7157 91.0903 19.4097 90.7843 19.218 90.408C19 89.9801 19 89.4201 19 88.3V79.7C19 78.5799 19 78.0198 19.218 77.592C19.4097 77.2157 19.7157 76.9097 20.092 76.718C20.5198 76.5 21.0799 76.5 22.2 76.5H24.823C25.249 76.5 25.4621 76.5 25.6564 76.5389C26.1269 76.633 26.5479 76.8932 26.8425 77.272ZM28.834 82L28.8109 82C28.2073 82 27.6922 82 27.2693 82.0335C26.8425 82.0673 26.4404 82.1389 26.0919 82.3239C25.5568 82.608 25.1273 83.0582 24.8598 83.6052C24.6913 83.9497 24.6215 84.3208 24.5885 84.7423C24.5676 85.0093 24.5603 85.3172 24.5577 85.673C24.3322 85.4272 23.9487 85.4087 23.7001 85.6318C23.4511 85.8554 23.4319 86.237 23.6572 86.4842L24.7135 87.6428C24.937 87.8879 25.3589 87.8984 25.5945 87.6646L26.762 86.506C26.9995 86.2704 26.9995 85.8883 26.762 85.6526C26.4336 85.3267 26.0443 85.5115 25.7734 85.7803C25.7752 85.3918 25.7812 85.0885 25.801 84.8359C25.8286 84.4846 25.88 84.2834 25.954 84.1321C26.1129 83.8071 26.3638 83.5484 26.6656 83.3881C26.7928 83.3206 26.9956 83.2659 27.3661 83.2366C27.7351 83.2073 28.202 83.2069 28.834 83.2069C29.1698 83.2069 29.4421 82.9367 29.4421 82.6034C29.4421 82.2702 29.1698 82 28.834 82ZM32.3428 84.5158L31.2865 83.3572C31.063 83.1121 30.6411 83.1016 30.4055 83.3354L29.238 84.494C29.0005 84.7296 29.0005 85.1117 29.238 85.3474C29.5664 85.6733 29.9557 85.4885 30.2266 85.2197C30.2248 85.6082 30.2188 85.9115 30.199 86.1641C30.1714 86.5154 30.12 86.7166 30.046 86.8679C29.8871 87.1929 29.6362 87.4516 29.3344 87.6119C29.2072 87.6794 29.0044 87.7341 28.6339 87.7634C28.2649 87.7927 27.798 87.7931 27.166 87.7931C26.8302 87.7931 26.5579 88.0633 26.5579 88.3966C26.5579 88.7298 26.8302 89 27.166 89H27.1891C27.7927 89 28.3078 89 28.7307 88.9665C29.1575 88.9327 29.5596 88.8611 29.9081 88.6761C30.4432 88.392 30.8727 87.9418 31.1402 87.3948C31.3087 87.0503 31.3785 86.6792 31.4115 86.2577C31.4324 85.9907 31.4397 85.6828 31.4423 85.327C31.6678 85.5728 32.0513 85.5913 32.2999 85.3682C32.5489 85.1446 32.5681 84.763 32.3428 84.5158Z" fill="#5F5F6A"/>
<path fill-rule="evenodd" clip-rule="evenodd" d="M25.5092 77.2743C25.4052 77.2535 25.2807 77.25 24.823 77.25H22.2C21.6276 77.25 21.2434 77.2506 20.9475 77.2748C20.6604 77.2982 20.5231 77.3401 20.4325 77.3862C20.1973 77.5061 20.0061 77.6973 19.8862 77.9325C19.8401 78.0231 19.7982 78.1603 19.7748 78.4475C19.7506 78.7434 19.75 79.1276 19.75 79.7V88.3C19.75 88.8724 19.7506 89.2566 19.7748 89.5525C19.7982 89.8396 19.8401 89.9769 19.8862 90.0675C20.0061 90.3027 20.1973 90.4939 20.4325 90.6137C20.5231 90.6599 20.6604 90.7018 20.9475 90.7252C21.2434 90.7494 21.6276 90.75 22.2 90.75H33.8C34.3724 90.75 34.7566 90.7494 35.0525 90.7252C35.3396 90.7018 35.4769 90.6599 35.5675 90.6137C35.8027 90.4939 35.9939 90.3027 36.1138 90.0675C36.1599 89.9769 36.2018 89.8396 36.2252 89.5525C36.2494 89.2566 36.25 88.8724 36.25 88.3V82.7C36.25 82.1276 36.2494 81.7433 36.2252 81.4475C36.2018 81.1603 36.1599 81.0231 36.1138 80.9325C35.9939 80.6973 35.8027 80.5061 35.5675 80.3862C35.4769 80.3401 35.3396 80.2982 35.0525 80.2747C34.7566 80.2506 34.3724 80.25 33.8 80.25H29.677C29.6553 80.25 29.6338 80.25 29.6126 80.25C29.2494 80.2502 28.9653 80.2503 28.6965 80.1965C28.0495 80.0671 27.4706 79.7093 27.0655 79.1885C26.8972 78.9721 26.7702 78.7179 26.608 78.393C26.5985 78.3741 26.5889 78.3549 26.5792 78.3354C26.3745 77.9259 26.3157 77.8162 26.2505 77.7325C26.0664 77.4958 25.8033 77.3331 25.5092 77.2743ZM24.8874 75.75C25.2505 75.7498 25.5347 75.7497 25.8035 75.8035C26.4505 75.9329 27.0294 76.2907 27.4345 76.8115C27.6028 77.0278 27.7298 77.282 27.892 77.6069C27.9015 77.6259 27.9111 77.6451 27.9208 77.6646C28.1255 78.074 28.1843 78.1838 28.2494 78.2675C28.4336 78.5042 28.6967 78.6668 28.9908 78.7257C29.0948 78.7465 29.2193 78.75 29.677 78.75L33.8304 78.75C34.3646 78.75 34.8104 78.75 35.1747 78.7797C35.5546 78.8108 35.9112 78.8779 36.2485 79.0497C36.7659 79.3134 37.1866 79.7341 37.4503 80.2515C37.6221 80.5888 37.6892 80.9454 37.7203 81.3253C37.75 81.6895 37.75 82.1354 37.75 82.6695V88.3304C37.75 88.8646 37.75 89.3104 37.7203 89.6747C37.6892 90.0545 37.6221 90.4112 37.4503 90.7485C37.1866 91.2659 36.7659 91.6866 36.2485 91.9503C35.9112 92.1221 35.5546 92.1892 35.1747 92.2202C34.8104 92.25 34.3646 92.25 33.8305 92.25H22.1695C21.6354 92.25 21.1896 92.25 20.8253 92.2202C20.4454 92.1892 20.0888 92.1221 19.7515 91.9503C19.2341 91.6866 18.8134 91.2659 18.5497 90.7485C18.3779 90.4112 18.3108 90.0545 18.2797 89.6747C18.25 89.3104 18.25 88.8646 18.25 88.3304V79.6696C18.25 79.1354 18.25 78.6896 18.2797 78.3253C18.3108 77.9454 18.3779 77.5888 18.5497 77.2515C18.8134 76.7341 19.2341 76.3134 19.7515 76.0497C20.0888 75.8779 20.4454 75.8108 20.8253 75.7797C21.1896 75.75 21.6354 75.75 22.1696 75.75L24.823 75.75C24.8447 75.75 24.8662 75.75 24.8874 75.75Z" fill="#5F5F6A"/>
<path fill-rule="evenodd" clip-rule="evenodd" d="M25.5092 133.274C25.4052 133.253 25.2807 133.25 24.823 133.25H22.2C21.6276 133.25 21.2434 133.251 20.9475 133.275C20.6604 133.298 20.5231 133.34 20.4325 133.386C20.1973 133.506 20.0061 133.697 19.8862 133.933C19.8401 134.023 19.7982 134.16 19.7748 134.447C19.7506 134.743 19.75 135.128 19.75 135.7V144.3C19.75 144.872 19.7506 145.257 19.7748 145.553C19.7982 145.84 19.8401 145.977 19.8862 146.067C20.0061 146.303 20.1973 146.494 20.4325 146.614C20.5231 146.66 20.6604 146.702 20.9475 146.725C21.2434 146.749 21.6276 146.75 22.2 146.75H33.8C34.3724 146.75 34.7566 146.749 35.0525 146.725C35.3396 146.702 35.4769 146.66 35.5675 146.614C35.8027 146.494 35.9939 146.303 36.1138 146.067C36.1599 145.977 36.2018 145.84 36.2252 145.553C36.2494 145.257 36.25 144.872 36.25 144.3V138.7C36.25 138.128 36.2494 137.743 36.2252 137.447C36.2018 137.16 36.1599 137.023 36.1138 136.932C35.9939 136.697 35.8027 136.506 35.5675 136.386C35.4769 136.34 35.3396 136.298 35.0525 136.275C34.7566 136.251 34.3724 136.25 33.8 136.25H29.677C29.6553 136.25 29.6338 136.25 29.6126 136.25C29.2494 136.25 28.9653 136.25 28.6965 136.197C28.0495 136.067 27.4706 135.709 27.0655 135.189C26.8972 134.972 26.7702 134.718 26.608 134.393C26.5985 134.374 26.5889 134.355 26.5792 134.335C26.3745 133.926 26.3157 133.816 26.2505 133.732C26.0664 133.496 25.8033 133.333 25.5092 133.274ZM24.8874 131.75C25.2505 131.75 25.5347 131.75 25.8035 131.803C26.4505 131.933 27.0294 132.291 27.4345 132.811C27.6028 133.028 27.7298 133.282 27.892 133.607C27.9015 133.626 27.9111 133.645 27.9208 133.665C28.1255 134.074 28.1843 134.184 28.2494 134.268C28.4336 134.504 28.6967 134.667 28.9908 134.726C29.0948 134.747 29.2193 134.75 29.677 134.75L33.8304 134.75C34.3646 134.75 34.8104 134.75 35.1747 134.78C35.5546 134.811 35.9112 134.878 36.2485 135.05C36.7659 135.313 37.1866 135.734 37.4503 136.252C37.6221 136.589 37.6892 136.945 37.7203 137.325C37.75 137.69 37.75 138.135 37.75 138.67V144.33C37.75 144.865 37.75 145.31 37.7203 145.675C37.6892 146.055 37.6221 146.411 37.4503 146.748C37.1866 147.266 36.7659 147.687 36.2485 147.95C35.9112 148.122 35.5546 148.189 35.1747 148.22C34.8104 148.25 34.3646 148.25 33.8305 148.25H22.1695C21.6354 148.25 21.1896 148.25 20.8253 148.22C20.4454 148.189 20.0888 148.122 19.7515 147.95C19.2341 147.687 18.8134 147.266 18.5497 146.748C18.3779 146.411 18.3108 146.055 18.2797 145.675C18.25 145.31 18.25 144.865 18.25 144.33V135.67C18.25 135.135 18.25 134.69 18.2797 134.325C18.3108 133.945 18.3779 133.589 18.5497 133.252C18.8134 132.734 19.2341 132.313 19.7515 132.05C20.0888 131.878 20.4454 131.811 20.8253 131.78C21.1896 131.75 21.6354 131.75 22.1696 131.75L24.823 131.75C24.8447 131.75 24.8662 131.75 24.8874 131.75Z" fill="#5F5F6A"/>
<path d="M30.4053 139.335C30.6408 139.101 31.0627 139.112 31.2861 139.357L32.3428 140.516C32.5681 140.763 32.5488 141.145 32.2998 141.368C32.0513 141.591 31.6679 141.573 31.4424 141.327C31.4398 141.683 31.4321 141.991 31.4111 142.258C31.3781 142.679 31.3089 143.05 31.1406 143.395C30.8732 143.941 30.4432 144.392 29.9082 144.676C29.5597 144.861 29.1573 144.933 28.7305 144.967C28.3077 145 27.7928 145 27.1895 145H27.166C26.8302 145 26.5576 144.73 26.5576 144.396C26.5577 144.063 26.8302 143.793 27.166 143.793C27.7979 143.793 28.2648 143.793 28.6338 143.764C29.0038 143.734 29.2068 143.68 29.334 143.612C29.6358 143.452 29.8869 143.193 30.0459 142.868C30.1199 142.717 30.1717 142.515 30.1992 142.164C30.219 141.911 30.2247 141.608 30.2266 141.22C29.9557 141.488 29.5666 141.673 29.2383 141.348C29.0008 141.112 29.0008 140.73 29.2383 140.494L30.4053 139.335ZM28.834 138C29.1698 138 29.4424 138.27 29.4424 138.604C29.4423 138.937 29.1698 139.207 28.834 139.207C28.2021 139.207 27.7352 139.207 27.3662 139.236C26.9962 139.266 26.7932 139.32 26.666 139.388C26.3642 139.548 26.1131 139.807 25.9541 140.132C25.8801 140.283 25.8283 140.485 25.8008 140.836C25.781 141.089 25.7753 141.392 25.7734 141.78C26.0443 141.512 26.4334 141.327 26.7617 141.652C26.9992 141.888 26.9992 142.27 26.7617 142.506L25.5947 143.665C25.3592 143.899 24.9373 143.888 24.7139 143.643L23.6572 142.484C23.4319 142.237 23.4512 141.855 23.7002 141.632C23.9487 141.409 24.3321 141.427 24.5576 141.673C24.5602 141.317 24.5679 141.009 24.5889 140.742C24.6219 140.321 24.6911 139.95 24.8594 139.605C25.1268 139.059 25.5568 138.608 26.0918 138.324C26.4403 138.139 26.8427 138.067 27.2695 138.033C27.6923 138 28.2072 138 28.8105 138H28.834Z" fill="#5F5F6A"/>
<path fill-rule="evenodd" clip-rule="evenodd" d="M25.5582 189.029C25.4241 189.002 25.2702 189 24.823 189H22.2C21.6317 189 21.2355 189 20.9271 189.026C20.6245 189.05 20.4507 189.096 20.319 189.163C20.0368 189.307 19.8073 189.537 19.6635 189.819C19.5964 189.951 19.5503 190.125 19.5256 190.427C19.5004 190.736 19.5 191.132 19.5 191.7V200.3C19.5 200.868 19.5004 201.264 19.5256 201.573C19.5503 201.875 19.5964 202.049 19.6635 202.181C19.8073 202.463 20.0368 202.693 20.319 202.836C20.4507 202.904 20.6245 202.95 20.9271 202.974C21.2355 203 21.6317 203 22.2 203H33.8C34.3683 203 34.7645 203 35.0729 202.974C35.3755 202.95 35.5493 202.904 35.681 202.836C35.9632 202.693 36.1927 202.463 36.3365 202.181C36.4036 202.049 36.4497 201.875 36.4744 201.573C36.4996 201.264 36.5 200.868 36.5 200.3V194.7C36.5 194.132 36.4996 193.736 36.4744 193.427C36.4497 193.125 36.4036 192.951 36.3365 192.819C36.1927 192.537 35.9632 192.307 35.681 192.163C35.5493 192.096 35.3755 192.05 35.0729 192.026C34.7645 192 34.3683 192 33.8 192H29.677C29.6599 192 29.643 192 29.6263 192C29.2491 192 28.9892 192 28.7455 191.951C28.1574 191.834 27.6311 191.508 27.2628 191.035C27.1102 190.839 26.9941 190.606 26.8255 190.269C26.818 190.254 26.8105 190.239 26.8028 190.224C26.6028 189.824 26.5319 189.687 26.4479 189.579C26.2269 189.295 25.9111 189.1 25.5582 189.029ZM24.8737 188C25.2509 188 25.5108 188 25.7545 188.049C26.3426 188.166 26.8689 188.492 27.2372 188.965C27.3898 189.161 27.5059 189.394 27.6745 189.731C27.682 189.746 27.6895 189.761 27.6972 189.776C27.8972 190.176 27.9681 190.313 28.0521 190.421C28.2731 190.705 28.5888 190.9 28.9417 190.971C29.0759 190.998 29.2298 191 29.677 191H33.8214C34.3633 191 34.8004 191 35.1543 191.029C35.5187 191.059 35.8388 191.122 36.135 191.272C36.6054 191.512 36.9878 191.895 37.2275 192.365C37.3784 192.661 37.4413 192.981 37.4711 193.346C37.5 193.7 37.5 194.137 37.5 194.679V200.321C37.5 200.863 37.5 201.3 37.4711 201.654C37.4413 202.019 37.3784 202.339 37.2275 202.635C36.9878 203.105 36.6054 203.488 36.135 203.728C35.8388 203.878 35.5187 203.941 35.1543 203.971C34.8004 204 34.3633 204 33.8214 204H22.1786C21.6367 204 21.1996 204 20.8457 203.971C20.4813 203.941 20.1612 203.878 19.865 203.728C19.3946 203.488 19.0122 203.105 18.7725 202.635C18.6216 202.339 18.5587 202.019 18.5289 201.654C18.5 201.3 18.5 200.863 18.5 200.321V191.679C18.5 191.137 18.5 190.7 18.5289 190.346C18.5587 189.981 18.6216 189.661 18.7725 189.365C19.0122 188.895 19.3946 188.512 19.865 188.272C20.1612 188.122 20.4813 188.059 20.8457 188.029C21.1996 188 21.6367 188 22.1786 188L24.823 188C24.8401 188 24.857 188 24.8737 188Z" fill="#5F5F6A"/>
<path d="M28.8663 194H28.8816C29.0947 194 29.2673 194.174 29.2673 194.389C29.2673 194.604 29.0947 194.778 28.8816 194.778C28.2175 194.778 27.712 194.778 27.3094 194.81C26.9058 194.843 26.6493 194.905 26.4681 195.003C26.0997 195.202 25.7967 195.521 25.6057 195.918C25.5075 196.122 25.4493 196.374 25.419 196.767C25.3884 197.163 25.3882 197.668 25.3882 198.371V198.428L25.964 197.847C26.1146 197.695 26.3588 197.695 26.5095 197.847C26.6601 197.999 26.6601 198.245 26.5095 198.397L25.2752 199.642C25.2005 199.717 25.0984 199.758 24.9928 199.755C24.8872 199.753 24.7873 199.707 24.7164 199.628L23.5997 198.383C23.4568 198.224 23.469 197.978 23.6269 197.834C23.7849 197.69 24.0288 197.702 24.1717 197.861L24.6167 198.357V198.355C24.6167 197.672 24.6167 197.136 24.6499 196.706C24.6837 196.269 24.7536 195.907 24.9117 195.578C25.1715 195.038 25.5878 194.596 26.1042 194.317C26.4258 194.144 26.8087 194.07 27.248 194.035C27.6848 194 28.2207 194 28.8663 194ZM31.0072 195.245C31.1128 195.247 31.2127 195.293 31.2836 195.372L32.4003 196.617C32.5432 196.776 32.531 197.022 32.3731 197.166C32.2151 197.31 31.9712 197.298 31.8283 197.139L31.3833 196.643V196.645C31.3833 197.328 31.3833 197.864 31.3501 198.294C31.3163 198.731 31.2464 199.093 31.0883 199.422C30.8285 199.962 30.4122 200.404 29.8958 200.683C29.5742 200.856 29.1913 200.93 28.752 200.965C28.3152 201 27.7793 201 27.1337 201H27.1184C26.9053 201 26.7327 200.826 26.7327 200.611C26.7327 200.396 26.9053 200.222 27.1184 200.222C27.7825 200.222 28.288 200.222 28.6906 200.19C29.0942 200.157 29.3507 200.095 29.5319 199.997C29.9003 199.798 30.2033 199.479 30.3943 199.082C30.4925 198.878 30.5507 198.626 30.581 198.233C30.6116 197.837 30.6118 197.332 30.6118 196.629V196.572L30.036 197.153C29.8854 197.305 29.6412 197.305 29.4905 197.153C29.3399 197.001 29.3399 196.755 29.4905 196.603L30.7248 195.358C30.7995 195.283 30.9016 195.242 31.0072 195.245Z" fill="#5F5F6A"/>
</svg>
