<svg width="56" height="224" viewBox="0 0 56 224" fill="none" xmlns="http://www.w3.org/2000/svg">
<path fill-rule="evenodd" clip-rule="evenodd" d="M28.6001 19.4609C24.1658 20.6732 20.6732 24.1658 19.4609 28.6001C19.6492 28.6028 19.8367 28.676 19.9803 28.8197L27.1803 36.0197C27.324 36.1634 27.3972 36.3508 27.3999 36.5391C31.8342 35.3268 35.3268 31.8342 36.5391 27.3999C36.3508 27.3972 36.1634 27.324 36.0197 27.1803L28.8197 19.9803C28.676 19.8367 28.6028 19.6492 28.6001 19.4609ZM36.856 25.8953C36.9508 25.2607 37 24.6111 37 23.95C37 23.2297 36.9416 22.5231 36.8294 21.8345C36.6063 20.4657 35.5343 19.3937 34.1655 19.1706C33.4769 19.0584 32.7703 19 32.05 19C31.3889 19 30.7393 19.0492 30.1047 19.144L36.856 25.8953ZM25.8953 36.856L19.144 30.1047C19.0492 30.7393 19 31.3889 19 32.05C19 32.7703 19.0584 33.4769 19.1706 34.1655C19.3937 35.5343 20.4657 36.6063 21.8345 36.8294C22.5231 36.9416 23.2297 37 23.95 37C24.6111 37 25.2607 36.9508 25.8953 36.856ZM29.65 24.4C29.65 23.9858 29.3142 23.65 28.9 23.65C28.4858 23.65 28.15 23.9858 28.15 24.4V26.35H27.1C26.6858 26.35 26.35 26.6858 26.35 27.1V28.15H24.4C23.9858 28.15 23.65 28.4858 23.65 28.9C23.65 29.3142 23.9858 29.65 24.4 29.65H26.35V31.6C26.35 32.0142 26.6858 32.35 27.1 32.35C27.5142 32.35 27.85 32.0142 27.85 31.6V29.65H28.9C29.3142 29.65 29.65 29.3142 29.65 28.9V27.85H31.6C32.0142 27.85 32.35 27.5142 32.35 27.1C32.35 26.6858 32.0142 26.35 31.6 26.35H29.65V24.4ZM27.85 27.85H28.15V28.15H27.85V27.85Z" fill="#5F5F6A"/>
<path fill-rule="evenodd" clip-rule="evenodd" d="M19.8152 86.7759C19.7721 87.1947 19.75 87.6198 19.75 88.05C19.75 88.7297 19.8051 89.396 19.9108 90.0448C20.0821 91.0954 20.9046 91.9179 21.9552 92.0892C22.604 92.1949 23.2703 92.25 23.95 92.25C24.3802 92.25 24.8053 92.2279 25.2241 92.1848L19.8152 86.7759ZM20.1371 84.9765L27.0235 91.8629C31.347 90.7507 34.7507 87.347 35.8629 83.0235L28.9765 76.1371C24.653 77.2493 21.2493 80.653 20.1371 84.9765ZM30.7759 75.8152L36.1848 81.2241C36.2279 80.8053 36.25 80.3802 36.25 79.95C36.25 79.2703 36.1949 78.604 36.0892 77.9552C35.9179 76.9046 35.0954 76.0821 34.0448 75.9108C33.396 75.8051 32.7297 75.75 32.05 75.75C31.6198 75.75 31.1947 75.7721 30.7759 75.8152ZM18.25 88.05C18.25 80.4285 24.4285 74.25 32.05 74.25C32.8109 74.25 33.5579 74.3116 34.2862 74.4304C35.9732 74.7054 37.2946 76.0268 37.5696 77.7138C37.6884 78.4421 37.75 79.1891 37.75 79.95C37.75 87.5715 31.5715 93.75 23.95 93.75C23.1891 93.75 22.4421 93.6884 21.7138 93.5696C20.0268 93.2946 18.7054 91.9732 18.4304 90.2862C18.3116 89.5579 18.25 88.8109 18.25 88.05ZM28.9 79.65C29.3142 79.65 29.65 79.9858 29.65 80.4V82.35H31.6C32.0142 82.35 32.35 82.6858 32.35 83.1C32.35 83.5142 32.0142 83.85 31.6 83.85H29.65V84.9C29.65 85.3142 29.3142 85.65 28.9 85.65H27.85V87.6C27.85 88.0142 27.5142 88.35 27.1 88.35C26.6858 88.35 26.35 88.0142 26.35 87.6V85.65H24.4C23.9858 85.65 23.65 85.3142 23.65 84.9C23.65 84.4858 23.9858 84.15 24.4 84.15H26.35V83.1C26.35 82.6858 26.6858 82.35 27.1 82.35H28.15V80.4C28.15 79.9858 28.4858 79.65 28.9 79.65ZM28.15 83.85H27.85V84.15H28.15V83.85Z" fill="#5F5F6A"/>
<g opacity="0.4">
<path d="M23.95 93C31.1573 93 37 87.1573 37 79.95C37 79.2297 36.9416 78.5231 36.8294 77.8345C36.6063 76.4657 35.5343 75.3937 34.1655 75.1706C33.4769 75.0584 32.7703 75 32.05 75C24.8427 75 19 80.8427 19 88.05C19 88.7703 19.0584 89.4769 19.1706 90.1655C19.3937 91.5343 20.4657 92.6063 21.8345 92.8294C22.5231 92.9416 23.2297 93 23.95 93Z" fill="#5F5F6A"/>
<path d="M28.9 84.9V83.1H27.1V84.9H28.9Z" fill="#5F5F6A"/>
</g>
<path fill-rule="evenodd" clip-rule="evenodd" d="M19.8152 142.776C19.7721 143.195 19.75 143.62 19.75 144.05C19.75 144.73 19.8051 145.396 19.9108 146.045C20.0821 147.095 20.9046 147.918 21.9552 148.089C22.604 148.195 23.2703 148.25 23.95 148.25C24.3802 148.25 24.8053 148.228 25.2241 148.185L19.8152 142.776ZM20.1371 140.976L27.0235 147.863C31.347 146.751 34.7507 143.347 35.8629 139.024L28.9765 132.137C24.653 133.249 21.2493 136.653 20.1371 140.976ZM30.7759 131.815L36.1848 137.224C36.2279 136.805 36.25 136.38 36.25 135.95C36.25 135.27 36.1949 134.604 36.0892 133.955C35.9179 132.905 35.0954 132.082 34.0448 131.911C33.396 131.805 32.7297 131.75 32.05 131.75C31.6198 131.75 31.1947 131.772 30.7759 131.815ZM18.25 144.05C18.25 136.428 24.4285 130.25 32.05 130.25C32.8109 130.25 33.5579 130.312 34.2862 130.43C35.9732 130.705 37.2946 132.027 37.5696 133.714C37.6884 134.442 37.75 135.189 37.75 135.95C37.75 143.572 31.5715 149.75 23.95 149.75C23.1891 149.75 22.4421 149.688 21.7138 149.57C20.0268 149.295 18.7054 147.973 18.4304 146.286C18.3116 145.558 18.25 144.811 18.25 144.05ZM28.9 135.65C29.3142 135.65 29.65 135.986 29.65 136.4V138.35H31.6C32.0142 138.35 32.35 138.686 32.35 139.1C32.35 139.514 32.0142 139.85 31.6 139.85H29.65V140.9C29.65 141.314 29.3142 141.65 28.9 141.65H27.85V143.6C27.85 144.014 27.5142 144.35 27.1 144.35C26.6858 144.35 26.35 144.014 26.35 143.6V141.65H24.4C23.9858 141.65 23.65 141.314 23.65 140.9C23.65 140.486 23.9858 140.15 24.4 140.15H26.35V139.1C26.35 138.686 26.6858 138.35 27.1 138.35H28.15V136.4C28.15 135.986 28.4858 135.65 28.9 135.65ZM28.15 139.85H27.85V140.15H28.15V139.85Z" fill="#5F5F6A"/>
<path fill-rule="evenodd" clip-rule="evenodd" d="M19.63 198.237C19.5443 198.829 19.5 199.434 19.5 200.05C19.5 200.743 19.5562 201.423 19.6641 202.085C19.8526 203.242 20.7583 204.147 21.9149 204.336C22.577 204.444 23.2568 204.5 23.95 204.5C24.5657 204.5 25.171 204.456 25.7629 204.37L19.63 198.237ZM19.8601 197.053L26.947 204.14C31.4707 203.032 35.0315 199.471 36.1399 194.947L29.053 187.86C24.5293 188.968 20.9685 192.529 19.8601 197.053ZM30.2371 187.63L36.37 193.763C36.4557 193.171 36.5 192.566 36.5 191.95C36.5 191.257 36.4438 190.577 36.3359 189.915C36.1474 188.758 35.2417 187.853 34.0851 187.664C33.423 187.556 32.7432 187.5 32.05 187.5C31.4343 187.5 30.829 187.544 30.2371 187.63ZM18.5 200.05C18.5 192.567 24.5665 186.5 32.05 186.5C32.7973 186.5 33.5309 186.561 34.2459 186.677C35.8269 186.935 37.0652 188.173 37.3229 189.754C37.4395 190.469 37.5 191.203 37.5 191.95C37.5 199.433 31.4335 205.5 23.95 205.5C23.2027 205.5 22.4691 205.439 21.7541 205.323C20.1731 205.065 18.9348 203.827 18.6771 202.246C18.5605 201.531 18.5 200.797 18.5 200.05ZM28.9 191.9C29.1761 191.9 29.4 192.124 29.4 192.4V194.6H31.6C31.8761 194.6 32.1 194.824 32.1 195.1C32.1 195.376 31.8761 195.6 31.6 195.6H29.4V196.9C29.4 197.176 29.1761 197.4 28.9 197.4H27.6V199.6C27.6 199.876 27.3761 200.1 27.1 200.1C26.8239 200.1 26.6 199.876 26.6 199.6V197.4H24.4C24.1239 197.4 23.9 197.176 23.9 196.9C23.9 196.624 24.1239 196.4 24.4 196.4H26.6V195.1C26.6 194.824 26.8239 194.6 27.1 194.6H28.4V192.4C28.4 192.124 28.6239 191.9 28.9 191.9ZM28.4 195.6H27.6V196.4H28.4V195.6Z" fill="#5F5F6A"/>
</svg>
