<svg width="56" height="224" viewBox="0 0 56 224" fill="none" xmlns="http://www.w3.org/2000/svg">
<path d="M24.7822 21C24.3245 21 23.9285 21 23.6172 21.0293C23.3096 21.0582 22.9317 21.1253 22.6238 21.3784C22.2274 21.7043 22.0025 22.1916 22 22.6998C21.9981 23.0898 22.1724 23.4258 22.3393 23.6922C22.508 23.9616 22.7514 24.2823 23.0353 24.6565L25.6314 28.0776C25.8834 28.4098 25.946 28.4978 25.9896 28.5875C26.0351 28.681 26.0685 28.781 26.0888 28.8847C26.1085 28.9852 26.1117 29.097 26.1117 29.5189V32.4293L26.1116 32.489C26.1111 32.7272 26.1105 32.9831 26.182 33.2266C26.2442 33.4389 26.3467 33.6379 26.4848 33.8118C26.6442 34.0126 26.8555 34.1577 27.0467 34.289L27.0951 34.3223L28.0844 35.0052C28.251 35.1203 28.4163 35.2344 28.5602 35.3152C28.7029 35.3952 28.9476 35.5167 29.2494 35.4981C29.6129 35.4756 29.9404 35.2899 30.1502 35.0027C30.3224 34.767 30.3591 34.5042 30.3737 34.3397C30.3884 34.1736 30.3883 33.9702 30.3883 33.7616L30.3883 29.5189C30.3883 29.097 30.3915 28.9852 30.4112 28.8847C30.4315 28.781 30.4649 28.681 30.5104 28.5875C30.554 28.4978 30.6166 28.4098 30.8686 28.0776L33.4647 24.6565C33.7486 24.2824 33.992 23.9616 34.1607 23.6922C34.3276 23.4258 34.5019 23.0898 34.5 22.6998C34.4975 22.1916 34.2726 21.7043 33.8762 21.3784C33.5683 21.1253 33.1904 21.0582 32.8828 21.0293C32.5715 21 32.1756 21 31.7178 21H24.7822ZM23.5008 22.689C23.5051 22.6345 23.5273 22.5877 23.5577 22.5547C23.5816 22.5479 23.6408 22.5337 23.7578 22.5227C23.9901 22.5008 24.3142 22.5 24.8181 22.5H31.6819C32.1858 22.5 32.5099 22.5008 32.7422 22.5227C32.8592 22.5337 32.9184 22.5479 32.9423 22.5547C32.9727 22.5877 32.9949 22.6345 32.9992 22.689C32.9925 22.7079 32.9682 22.7703 32.8895 22.896C32.761 23.1013 32.5595 23.3679 32.2489 23.7773L31.8902 24.25H24.6098L24.2511 23.7773C23.9405 23.3679 23.739 23.1013 23.6105 22.896C23.5318 22.7703 23.5075 22.7079 23.5008 22.689Z" fill="#5F5F6A"/>
<path d="M24.7822 76.75C24.7941 76.75 24.8061 76.75 24.8181 76.75L31.7178 76.75C32.1755 76.75 32.5715 76.75 32.8828 76.7793C33.1904 76.8082 33.5683 76.8753 33.8762 77.1284C34.2726 77.4543 34.4975 77.9416 34.5 78.4498C34.5019 78.8398 34.3276 79.1758 34.1607 79.4422C33.992 79.7116 33.7486 80.0323 33.4647 80.4065L30.8686 83.8276C30.6166 84.1598 30.554 84.2478 30.5104 84.3375C30.4649 84.431 30.4315 84.531 30.4112 84.6347C30.3915 84.7352 30.3883 84.847 30.3883 85.2689L30.3883 89.5115C30.3883 89.7202 30.3884 89.9236 30.3737 90.0897C30.3591 90.2542 30.3224 90.517 30.1502 90.7527C29.9404 91.0399 29.6129 91.2256 29.2494 91.2481C28.9476 91.2667 28.7029 91.1452 28.5602 91.0652C28.4163 90.9844 28.251 90.8703 28.0844 90.7552L27.0951 90.0723C27.0791 90.0613 27.063 90.0502 27.0467 90.039C26.8555 89.9077 26.6442 89.7626 26.4848 89.5618C26.3467 89.3879 26.2442 89.1889 26.182 88.9765C26.1105 88.7331 26.1111 88.4772 26.1116 88.239C26.1117 88.219 26.1117 88.199 26.1117 88.1793V85.2689C26.1117 84.847 26.1085 84.7352 26.0888 84.6347C26.0685 84.531 26.0351 84.431 25.9896 84.3375C25.946 84.2478 25.8834 84.1598 25.6314 83.8276L23.0353 80.4065C22.7514 80.0323 22.508 79.7116 22.3393 79.4422C22.1724 79.1758 21.9981 78.8398 22 78.4498C22.0025 77.9416 22.2274 77.4543 22.6238 77.1284C22.9317 76.8753 23.3096 76.8082 23.6172 76.7793C23.9285 76.75 24.3245 76.75 24.7822 76.75ZM23.5577 78.3047C23.5273 78.3377 23.5051 78.3845 23.5008 78.439C23.5075 78.4579 23.5318 78.5203 23.6105 78.646C23.739 78.8513 23.9405 79.1179 24.2511 79.5273L26.8263 82.9209C26.8381 82.9365 26.8498 82.9519 26.8614 82.9671C27.0621 83.2313 27.2223 83.4422 27.3387 83.6819C27.4413 83.8928 27.5159 84.1164 27.5609 84.3468C27.612 84.608 27.6119 84.874 27.6117 85.2106C27.6117 85.2298 27.6117 85.2492 27.6117 85.2689V88.1793C27.6117 88.3371 27.612 88.4261 27.6156 88.4932C27.6178 88.5333 27.6206 88.5504 27.6215 88.5551C27.6298 88.5828 27.6426 88.6073 27.6584 88.6276C27.662 88.6312 27.6735 88.6419 27.6994 88.662C27.7499 88.7013 27.8199 88.75 27.9472 88.8378L28.8883 89.4875V85.2689C28.8883 85.2492 28.8883 85.2298 28.8883 85.2106C28.8881 84.874 28.888 84.608 28.9391 84.3468C28.9841 84.1164 29.0587 83.8928 29.1613 83.6819C29.2777 83.4422 29.4379 83.2313 29.6386 82.9671C29.6502 82.9519 29.6619 82.9365 29.6737 82.9209L32.2489 79.5273C32.5595 79.1179 32.761 78.8513 32.8895 78.646C32.9682 78.5203 32.9925 78.4579 32.9992 78.439C32.9949 78.3845 32.9727 78.3377 32.9423 78.3047C32.9184 78.2979 32.8592 78.2837 32.7422 78.2727C32.5099 78.2508 32.1858 78.25 31.6819 78.25H24.8181C24.3142 78.25 23.9901 78.2508 23.7578 78.2727C23.6408 78.2837 23.5816 78.2979 23.5577 78.3047Z" fill="#5F5F6A"/>
<path opacity="0.5" d="M31.8897 80H24.6094L26.8609 82.9671C27.0616 83.2313 27.2218 83.4422 27.3383 83.6819C27.4408 83.8928 27.5154 84.1164 27.5605 84.3468C27.6115 84.608 27.6114 84.874 27.6113 85.2106L27.6112 88.1793C27.6112 88.3371 27.6115 88.4261 27.6151 88.4932C27.6173 88.5333 27.6201 88.5504 27.6211 88.5551C27.6293 88.5828 27.6422 88.6073 27.6579 88.6276C27.6616 88.6312 27.673 88.6419 27.6989 88.662C27.7494 88.7013 27.8195 88.75 27.9467 88.8378L28.8878 89.4875L28.8878 85.2106C28.8877 84.874 28.8875 84.608 28.9386 84.3468C28.9837 84.1164 29.0583 83.8928 29.1608 83.6819C29.2773 83.4422 29.4374 83.2313 29.6381 82.9671L31.8897 80Z" fill="#5F5F6A"/>
<path d="M24.7822 132.75C24.7941 132.75 24.8061 132.75 24.8181 132.75L31.7178 132.75C32.1755 132.75 32.5715 132.75 32.8828 132.779C33.1904 132.808 33.5683 132.875 33.8762 133.128C34.2726 133.454 34.4975 133.942 34.5 134.45C34.5019 134.84 34.3276 135.176 34.1607 135.442C33.992 135.712 33.7486 136.032 33.4647 136.406L33.434 136.447C33.431 136.451 33.428 136.455 33.4249 136.459L30.8686 139.828C30.6166 140.16 30.554 140.248 30.5104 140.337C30.4649 140.431 30.4315 140.531 30.4112 140.635C30.3915 140.735 30.3883 140.847 30.3883 141.269L30.3883 145.512C30.3883 145.72 30.3884 145.924 30.3737 146.09C30.3591 146.254 30.3224 146.517 30.1502 146.753C29.9404 147.04 29.6129 147.226 29.2494 147.248C28.9476 147.267 28.7029 147.145 28.5602 147.065C28.4163 146.984 28.251 146.87 28.0843 146.755L27.0951 146.072C27.0791 146.061 27.063 146.05 27.0467 146.039C26.8555 145.908 26.6442 145.763 26.4848 145.562C26.3467 145.388 26.2442 145.189 26.182 144.977C26.1105 144.733 26.1111 144.477 26.1116 144.239C26.1117 144.219 26.1117 144.199 26.1117 144.179V141.269C26.1117 140.847 26.1085 140.735 26.0888 140.635C26.0685 140.531 26.0351 140.431 25.9896 140.337C25.946 140.248 25.8834 140.16 25.6314 139.828L23.0754 136.459C23.0721 136.455 23.0689 136.451 23.0657 136.447L23.0353 136.406C22.7514 136.032 22.508 135.712 22.3393 135.442C22.1724 135.176 21.9981 134.84 22 134.45C22.0025 133.942 22.2274 133.454 22.6238 133.128C22.9317 132.875 23.3096 132.808 23.6172 132.779C23.9285 132.75 24.3245 132.75 24.7822 132.75ZM25.179 136.75L26.8263 138.921C26.8381 138.936 26.8498 138.952 26.8614 138.967C27.0621 139.231 27.2223 139.442 27.3387 139.682C27.4413 139.893 27.5159 140.116 27.5609 140.347C27.612 140.608 27.6119 140.874 27.6117 141.211C27.6117 141.23 27.6117 141.249 27.6117 141.269V144.179C27.6117 144.337 27.612 144.426 27.6156 144.493C27.6178 144.533 27.6206 144.55 27.6215 144.555C27.6298 144.583 27.6426 144.607 27.6584 144.628C27.662 144.631 27.6735 144.642 27.6994 144.662C27.7499 144.701 27.8199 144.75 27.9472 144.838L28.8883 145.487V141.269C28.8883 141.249 28.8883 141.23 28.8883 141.211C28.8881 140.874 28.888 140.608 28.9391 140.347C28.9841 140.116 29.0587 139.893 29.1613 139.682C29.2777 139.442 29.4379 139.231 29.6386 138.967C29.6502 138.952 29.6619 138.936 29.6737 138.921L31.321 136.75H25.179ZM32.4587 135.25C32.6542 134.99 32.7925 134.801 32.8895 134.646C32.9682 134.52 32.9925 134.458 32.9992 134.439C32.9949 134.385 32.9727 134.338 32.9423 134.305C32.9184 134.298 32.8592 134.284 32.7422 134.273C32.5099 134.251 32.1858 134.25 31.6819 134.25H24.8181C24.3142 134.25 23.9901 134.251 23.7578 134.273C23.6408 134.284 23.5816 134.298 23.5577 134.305C23.5273 134.338 23.5051 134.385 23.5008 134.439C23.5075 134.458 23.5318 134.52 23.6105 134.646C23.7075 134.801 23.8458 134.99 24.0413 135.25H32.4587Z" fill="#5F5F6A"/>
<path d="M24.5424 189H31.4576C31.9242 189 32.31 189 32.6094 189.028C32.9064 189.056 33.2201 189.118 33.4675 189.322C33.805 189.599 33.9979 190.015 34 190.451C34.0015 190.767 33.8603 191.052 33.6989 191.309C33.5362 191.569 33.2987 191.882 33.0096 192.263L30.4195 195.677C30.1732 196.001 30.0924 196.111 30.0355 196.228C29.9806 196.341 29.9402 196.462 29.9158 196.587C29.8904 196.716 29.8883 196.857 29.8883 197.269L29.8883 201.505C29.8883 201.72 29.8883 201.913 29.8746 202.068C29.861 202.221 29.8288 202.427 29.6983 202.605C29.5312 202.834 29.2713 202.981 28.984 202.999C28.7569 203.013 28.5653 202.922 28.4325 202.847C28.2991 202.772 28.1425 202.664 27.9708 202.546L26.9871 201.867C26.9729 201.857 26.9588 201.847 26.9448 201.837C26.7457 201.7 26.5655 201.576 26.4306 201.406C26.3128 201.258 26.2251 201.088 26.1719 200.906C26.1111 200.699 26.1114 200.48 26.1117 200.231C26.1117 200.214 26.1117 200.197 26.1117 200.179V197.269C26.1117 196.857 26.1096 196.716 26.0842 196.587C26.0598 196.462 26.0194 196.341 25.9645 196.228C25.9076 196.111 25.8268 196.001 25.5805 195.677L23.0231 192.306C23.0209 192.303 23.0187 192.301 23.0166 192.298L22.9904 192.263C22.7013 191.882 22.4638 191.569 22.3011 191.309C22.1397 191.052 21.9985 190.767 22 190.451C22.0021 190.015 22.195 189.599 22.5325 189.322C22.7799 189.118 23.0936 189.056 23.3906 189.028C23.69 189 24.0758 189 24.5424 189ZM24.4254 192.5L26.3771 195.072C26.3865 195.084 26.3957 195.096 26.4048 195.108C26.613 195.383 26.7586 195.574 26.8639 195.791C26.9569 195.983 27.0247 196.186 27.0656 196.395C27.1119 196.631 27.1118 196.874 27.1117 197.223C27.1117 197.238 27.1117 197.253 27.1117 197.269V200.179C27.1117 200.509 27.1165 200.574 27.1314 200.625C27.1488 200.684 27.1771 200.738 27.2138 200.785C27.244 200.823 27.2888 200.86 27.5552 201.044L28.5212 201.71C28.6876 201.825 28.7976 201.901 28.8808 201.951C28.8879 201.848 28.8883 201.705 28.8883 201.484V197.269C28.8883 197.253 28.8883 197.238 28.8883 197.223C28.8882 196.874 28.8881 196.631 28.9344 196.395C28.9753 196.186 29.0431 195.983 29.1361 195.791C29.2414 195.574 29.387 195.383 29.5952 195.108C29.6043 195.096 29.6135 195.084 29.6229 195.072L31.5746 192.5H24.4254ZM32.3333 191.5C32.5685 191.189 32.7364 190.962 32.8513 190.779C32.9912 190.555 33.0001 190.474 33 190.456C32.9993 190.31 32.9346 190.178 32.8324 190.094C32.8271 190.09 32.7702 190.048 32.5156 190.024C32.2688 190.001 31.9307 190 31.4319 190H24.5681C24.0693 190 23.7312 190.001 23.4844 190.024C23.2298 190.048 23.1729 190.09 23.1676 190.094C23.0654 190.178 23.0007 190.31 23 190.456C22.9999 190.474 23.0088 190.555 23.1487 190.779C23.2636 190.962 23.4315 191.189 23.6667 191.5H32.3333Z" fill="#5F5F6A"/>
</svg>
