<svg width="56" height="224" viewBox="0 0 56 224" fill="none" xmlns="http://www.w3.org/2000/svg">
<path fill-rule="evenodd" clip-rule="evenodd" d="M20.1696 21.25H35.8304C36.3646 21.25 36.8104 21.25 37.1747 21.2797C37.5546 21.3108 37.9112 21.3779 38.2485 21.5497C38.7659 21.8134 39.1866 22.2341 39.4503 22.7515C39.6221 23.0888 39.6892 23.4454 39.7203 23.8253C39.75 24.1896 39.75 24.6354 39.75 25.1695V30.8305C39.75 31.3646 39.75 31.8104 39.7203 32.1747C39.6892 32.5546 39.6221 32.9112 39.4503 33.2485C39.1866 33.7659 38.7659 34.1866 38.2485 34.4503C37.9112 34.6221 37.5546 34.6892 37.1747 34.7203C36.8105 34.75 36.3646 34.75 35.8305 34.75H20.1696C19.6354 34.75 19.1896 34.75 18.8253 34.7203C18.4454 34.6892 18.0888 34.6221 17.7515 34.4503C17.2341 34.1866 16.8134 33.7659 16.5497 33.2485C16.3779 32.9112 16.3108 32.5546 16.2797 32.1747C16.25 31.8104 16.25 31.3646 16.25 30.8305V25.1696C16.25 24.6354 16.25 24.1896 16.2797 23.8253C16.3108 23.4454 16.3779 23.0888 16.5497 22.7515C16.8134 22.2341 17.2341 21.8134 17.7515 21.5497C18.0888 21.3779 18.4454 21.3108 18.8253 21.2797C19.1896 21.25 19.6354 21.25 20.1696 21.25ZM30.7202 24.75H29.2247V31.0189H30.7202V24.75ZM22.0001 28.0009C22.0001 26.0978 23.3837 24.75 25.336 24.75C26.3301 24.75 27.1227 25.0903 27.6689 25.659L26.6032 26.7068C26.2898 26.371 25.8465 26.156 25.2644 26.156C24.2614 26.156 23.5405 26.9083 23.5405 28.0009C23.5405 29.2054 24.3375 29.8815 25.2689 29.8815C26.1599 29.8815 26.6794 29.4875 26.854 28.7487H25.3271V27.5934H28.3361C28.3585 27.7591 28.3675 27.9113 28.3675 28.0636C28.3675 30.0696 26.9346 31.2472 25.3226 31.2472C23.4554 31.2472 22.0001 29.9576 22.0001 28.0009ZM19.5 30.2845C19.5 29.774 19.9478 29.3352 20.4627 29.3352C20.9732 29.3352 21.4165 29.774 21.4165 30.2845C21.4165 30.8039 20.9732 31.2517 20.4627 31.2517C19.9478 31.2517 19.5 30.8039 19.5 30.2845ZM33.2581 27.271H36V28.6233H33.2581V31.0189H31.7626V24.75H36.5V26.0978H33.2581V27.271Z" fill="#5F5F6A"/>
<path opacity="0.5" d="M35.7998 78.75C36.3722 78.75 36.7569 78.7502 37.0527 78.7744C37.3397 78.7979 37.4768 78.8406 37.5674 78.8867C37.8025 79.0065 37.9935 79.1975 38.1133 79.4326C38.1594 79.5232 38.2021 79.6603 38.2256 79.9473C38.2498 80.2431 38.25 80.6278 38.25 81.2002V86.7998C38.25 87.3722 38.2498 87.7569 38.2256 88.0527C38.2021 88.3397 38.1594 88.4768 38.1133 88.5674C37.9935 88.8025 37.8025 88.9935 37.5674 89.1133C37.4768 89.1594 37.3397 89.2021 37.0527 89.2256C36.7569 89.2498 36.3722 89.25 35.7998 89.25H20.2002C19.6278 89.25 19.2431 89.2498 18.9473 89.2256C18.6603 89.2021 18.5232 89.1594 18.4326 89.1133C18.1975 88.9935 18.0065 88.8025 17.8867 88.5674C17.8406 88.4768 17.7979 88.3397 17.7744 88.0527C17.7502 87.7569 17.75 87.3722 17.75 86.7998V81.2002C17.75 80.6278 17.7502 80.2431 17.7744 79.9473C17.7979 79.6603 17.8406 79.5232 17.8867 79.4326C18.0065 79.1975 18.1975 79.0065 18.4326 78.8867C18.5232 78.8406 18.6603 78.7979 18.9473 78.7744C19.2431 78.7502 19.6278 78.75 20.2002 78.75H35.7998ZM20.4629 85.335C19.9481 85.335 19.5002 85.7739 19.5 86.2842C19.5 86.8036 19.948 87.252 20.4629 87.252C20.9733 87.2518 21.416 86.8035 21.416 86.2842C21.4158 85.7739 20.9732 85.3351 20.4629 85.335ZM25.3359 80.75C23.3837 80.75 22 82.098 22 84.001C22.0001 85.9576 23.4552 87.2469 25.3223 87.2471C26.9343 87.2471 28.3672 86.0695 28.3672 84.0635C28.3672 83.9114 28.3583 83.7593 28.3359 83.5938H25.3271V84.749H26.8535C26.6788 85.4876 26.1594 85.8818 25.2686 85.8818C24.3374 85.8817 23.5401 85.2053 23.54 84.001C23.54 82.9084 24.2616 82.1562 25.2646 82.1562C25.8466 82.1563 26.2901 82.3713 26.6035 82.707L27.6689 81.6592C27.1227 81.0905 26.33 80.75 25.3359 80.75ZM29.2246 87.0186H30.7207V80.75H29.2246V87.0186ZM31.7627 80.75V87.0186H33.2578V84.623H36V83.2715H33.2578V82.0977H36.5V80.75H31.7627Z" fill="#5F5F6A"/>
<path fill-rule="evenodd" clip-rule="evenodd" d="M20.1696 77.25H35.8304C36.3646 77.25 36.8104 77.25 37.1747 77.2797C37.5546 77.3108 37.9112 77.3779 38.2485 77.5497C38.7659 77.8134 39.1866 78.2341 39.4503 78.7515C39.6221 79.0888 39.6892 79.4454 39.7203 79.8253C39.75 80.1896 39.75 80.6354 39.75 81.1695V86.8305C39.75 87.3646 39.75 87.8104 39.7203 88.1747C39.6892 88.5546 39.6221 88.9112 39.4503 89.2485C39.1866 89.7659 38.7659 90.1866 38.2485 90.4503C37.9112 90.6221 37.5546 90.6892 37.1747 90.7203C36.8104 90.75 36.3646 90.75 35.8305 90.75H20.1695C19.6354 90.75 19.1896 90.75 18.8253 90.7203C18.4454 90.6892 18.0888 90.6221 17.7515 90.4503C17.2341 90.1866 16.8134 89.7659 16.5497 89.2485C16.3779 88.9112 16.3108 88.5546 16.2797 88.1747C16.25 87.8104 16.25 87.3646 16.25 86.8304V81.1696C16.25 80.6354 16.25 80.1896 16.2797 79.8253C16.3108 79.4454 16.3779 79.0888 16.5497 78.7515C16.8134 78.2341 17.2341 77.8134 17.7515 77.5497C18.0888 77.3779 18.4454 77.3108 18.8253 77.2797C19.1896 77.25 19.6354 77.25 20.1696 77.25ZM18.9475 78.7748C18.6604 78.7982 18.5231 78.8401 18.4325 78.8862C18.1973 79.0061 18.0061 79.1973 17.8862 79.4325C17.8401 79.5231 17.7982 79.6604 17.7748 79.9475C17.7506 80.2434 17.75 80.6276 17.75 81.2V86.8C17.75 87.3724 17.7506 87.7566 17.7748 88.0525C17.7982 88.3396 17.8401 88.4769 17.8862 88.5675C18.0061 88.8027 18.1973 88.9939 18.4325 89.1138C18.5231 89.1599 18.6604 89.2018 18.9475 89.2252C19.2434 89.2494 19.6276 89.25 20.2 89.25H35.8C36.3724 89.25 36.7566 89.2494 37.0525 89.2252C37.3396 89.2018 37.4769 89.1599 37.5675 89.1138C37.8027 88.9939 37.9939 88.8027 38.1138 88.5675C38.1599 88.4769 38.2018 88.3396 38.2252 88.0525C38.2494 87.7566 38.25 87.3724 38.25 86.8V81.2C38.25 80.6276 38.2494 80.2434 38.2252 79.9475C38.2018 79.6604 38.1599 79.5231 38.1138 79.4325C37.9939 79.1973 37.8027 79.0061 37.5675 78.8862C37.4769 78.8401 37.3396 78.7982 37.0525 78.7748C36.7566 78.7506 36.3724 78.75 35.8 78.75H20.2C19.6276 78.75 19.2434 78.7506 18.9475 78.7748Z" fill="#5F5F6A"/>
<path d="M30.7202 136.75H29.2247V143.019H30.7202V136.75Z" fill="#5F5F6A"/>
<path d="M22.0001 140.001C22.0001 138.098 23.3837 136.75 25.336 136.75C26.3301 136.75 27.1227 137.09 27.6689 137.659L26.6032 138.707C26.2898 138.371 25.8465 138.156 25.2644 138.156C24.2614 138.156 23.5405 138.908 23.5405 140.001C23.5405 141.205 24.3375 141.882 25.2689 141.882C26.1599 141.882 26.6794 141.487 26.854 140.749H25.3271V139.593H28.3361C28.3585 139.759 28.3675 139.911 28.3675 140.064C28.3675 142.07 26.9346 143.247 25.3226 143.247C23.4554 143.247 22.0001 141.958 22.0001 140.001Z" fill="#5F5F6A"/>
<path d="M19.5 142.284C19.5 141.774 19.9478 141.335 20.4627 141.335C20.9732 141.335 21.4165 141.774 21.4165 142.284C21.4165 142.804 20.9732 143.252 20.4627 143.252C19.9478 143.252 19.5 142.804 19.5 142.284Z" fill="#5F5F6A"/>
<path d="M33.2581 139.271H36V140.623H33.2581V143.019H31.7626V136.75H36.5V138.098H33.2581V139.271Z" fill="#5F5F6A"/>
<path fill-rule="evenodd" clip-rule="evenodd" d="M35.8304 133.25H20.1696C19.6354 133.25 19.1896 133.25 18.8253 133.28C18.4454 133.311 18.0888 133.378 17.7515 133.55C17.2341 133.813 16.8134 134.234 16.5497 134.752C16.3779 135.089 16.3108 135.445 16.2797 135.825C16.25 136.19 16.25 136.635 16.25 137.17V142.83C16.25 143.365 16.25 143.81 16.2797 144.175C16.3108 144.555 16.3779 144.911 16.5497 145.248C16.8134 145.766 17.2341 146.187 17.7515 146.45C18.0888 146.622 18.4454 146.689 18.8253 146.72C19.1896 146.75 19.6354 146.75 20.1695 146.75H35.8305C36.3646 146.75 36.8105 146.75 37.1747 146.72C37.5546 146.689 37.9112 146.622 38.2485 146.45C38.7659 146.187 39.1866 145.766 39.4503 145.248C39.6221 144.911 39.6892 144.555 39.7203 144.175C39.75 143.81 39.75 143.365 39.75 142.83V137.17C39.75 136.635 39.75 136.19 39.7203 135.825C39.6892 135.445 39.6221 135.089 39.4503 134.752C39.1866 134.234 38.7659 133.813 38.2485 133.55C37.9112 133.378 37.5546 133.311 37.1747 133.28C36.8104 133.25 36.3646 133.25 35.8304 133.25ZM18.4325 134.886C18.5231 134.84 18.6604 134.798 18.9475 134.775C19.2434 134.751 19.6276 134.75 20.2 134.75H35.8C36.3724 134.75 36.7566 134.751 37.0525 134.775C37.3396 134.798 37.4769 134.84 37.5675 134.886C37.8027 135.006 37.9939 135.197 38.1138 135.433C38.1599 135.523 38.2018 135.66 38.2252 135.947C38.2494 136.243 38.25 136.628 38.25 137.2V142.8C38.25 143.372 38.2494 143.757 38.2252 144.053C38.2018 144.34 38.1599 144.477 38.1138 144.567C37.9939 144.803 37.8027 144.994 37.5675 145.114C37.4769 145.16 37.3396 145.202 37.0525 145.225C36.7566 145.249 36.3724 145.25 35.8 145.25H20.2C19.6276 145.25 19.2434 145.249 18.9475 145.225C18.6604 145.202 18.5231 145.16 18.4325 145.114C18.1973 144.994 18.0061 144.803 17.8862 144.567C17.8401 144.477 17.7982 144.34 17.7748 144.053C17.7506 143.757 17.75 143.372 17.75 142.8V137.2C17.75 136.628 17.7506 136.243 17.7748 135.947C17.7982 135.66 17.8401 135.523 17.8862 135.433C18.0061 135.197 18.1973 135.006 18.4325 134.886Z" fill="#5F5F6A"/>
<path d="M30.7202 192.75H29.2247V199.019H30.7202V192.75Z" fill="#5F5F6A"/>
<path d="M22.0001 196.001C22.0001 194.098 23.3837 192.75 25.336 192.75C26.3301 192.75 27.1227 193.09 27.6689 193.659L26.6032 194.707C26.2898 194.371 25.8465 194.156 25.2644 194.156C24.2614 194.156 23.5405 194.908 23.5405 196.001C23.5405 197.205 24.3375 197.882 25.2689 197.882C26.1599 197.882 26.6794 197.487 26.854 196.749H25.3271V195.593H28.3361C28.3585 195.759 28.3675 195.911 28.3675 196.064C28.3675 198.07 26.9346 199.247 25.3226 199.247C23.4554 199.247 22.0001 197.958 22.0001 196.001Z" fill="#5F5F6A"/>
<path d="M19.5 198.284C19.5 197.774 19.9478 197.335 20.4627 197.335C20.9732 197.335 21.4165 197.774 21.4165 198.284C21.4165 198.804 20.9732 199.252 20.4627 199.252C19.9478 199.252 19.5 198.804 19.5 198.284Z" fill="#5F5F6A"/>
<path d="M33.2581 195.271H36V196.623H33.2581V199.019H31.7626V192.75H36.5V194.098H33.2581V195.271Z" fill="#5F5F6A"/>
<path fill-rule="evenodd" clip-rule="evenodd" d="M35.8214 189.5H20.1786C19.6367 189.5 19.1996 189.5 18.8457 189.529C18.4813 189.559 18.1612 189.622 17.865 189.772C17.3946 190.012 17.0122 190.395 16.7725 190.865C16.6216 191.161 16.5587 191.481 16.5289 191.846C16.5 192.2 16.5 192.637 16.5 193.179V198.821C16.5 199.363 16.5 199.8 16.5289 200.154C16.5587 200.519 16.6216 200.839 16.7725 201.135C17.0122 201.605 17.3946 201.988 17.865 202.228C18.1612 202.378 18.4813 202.441 18.8457 202.471C19.1996 202.5 19.6367 202.5 20.1785 202.5H35.8214C36.3633 202.5 36.8004 202.5 37.1543 202.471C37.5187 202.441 37.8388 202.378 38.135 202.228C38.6054 201.988 38.9878 201.605 39.2275 201.135C39.3784 200.839 39.4413 200.519 39.4711 200.154C39.5 199.8 39.5 199.363 39.5 198.821V193.179C39.5 192.637 39.5 192.2 39.4711 191.846C39.4413 191.481 39.3784 191.161 39.2275 190.865C38.9878 190.395 38.6054 190.012 38.135 189.772C37.8388 189.622 37.5187 189.559 37.1543 189.529C36.8004 189.5 36.3633 189.5 35.8214 189.5ZM18.319 190.663C18.4507 190.596 18.6245 190.55 18.9271 190.526C19.2355 190.5 19.6317 190.5 20.2 190.5H35.8C36.3683 190.5 36.7645 190.5 37.0729 190.526C37.3755 190.55 37.5493 190.596 37.681 190.663C37.9632 190.807 38.1927 191.037 38.3365 191.319C38.4036 191.451 38.4497 191.625 38.4744 191.927C38.4996 192.236 38.5 192.632 38.5 193.2V198.8C38.5 199.368 38.4996 199.764 38.4744 200.073C38.4497 200.375 38.4036 200.549 38.3365 200.681C38.1927 200.963 37.9632 201.193 37.681 201.337C37.5493 201.404 37.3755 201.45 37.0729 201.474C36.7645 201.5 36.3683 201.5 35.8 201.5H20.2C19.6317 201.5 19.2355 201.5 18.9271 201.474C18.6245 201.45 18.4507 201.404 18.319 201.337C18.0368 201.193 17.8073 200.963 17.6635 200.681C17.5964 200.549 17.5503 200.375 17.5256 200.073C17.5004 199.764 17.5 199.368 17.5 198.8V193.2C17.5 192.632 17.5004 192.236 17.5256 191.927C17.5503 191.625 17.5964 191.451 17.6635 191.319C17.8073 191.037 18.0368 190.807 18.319 190.663Z" fill="#5F5F6A"/>
</svg>
