<svg width="56" height="224" viewBox="0 0 56 224" fill="none" xmlns="http://www.w3.org/2000/svg">
<path d="M33.5 29C31.0147 29 29 31.0147 29 33.5C29 35.9853 31.0147 38 33.5 38C35.9853 38 38 35.9853 38 33.5C38 31.0147 35.9853 29 33.5 29ZM34 31.5V33.2929L34.8536 34.1464C35.0488 34.3417 35.0488 34.6583 34.8536 34.8536C34.6583 35.0488 34.3417 35.0488 34.1464 34.8536L33.1464 33.8536C33.0527 33.7598 33 33.6326 33 33.5V31.5C33 31.2239 33.2239 31 33.5 31C33.7761 31 34 31.2239 34 31.5Z" fill="#5F5F6A"/>
<path d="M18 27.75C18 33.1348 22.3652 37.5 27.75 37.5C27.9554 37.5 28.1593 37.4937 28.3615 37.4811C27.5081 36.3812 27 34.9999 27 33.5V35.8374C26.2698 35.5255 25.5216 34.7649 24.8763 33.5541C24.5103 32.8673 24.2026 32.0776 23.9716 31.2322C24.9151 31.3727 25.9349 31.4615 27 31.49V33.5C27 31.9206 27.5633 30.4727 28.5 29.3464V25.5106C29.7147 25.5449 30.8507 25.6618 31.8576 25.8413C31.9227 26.2819 31.9665 26.729 31.9869 27.177C32.4662 27.0628 32.966 27.0016 33.48 27C33.4657 26.7319 33.444 26.4641 33.4151 26.1973C33.5747 26.2432 33.7287 26.2908 33.8768 26.3402C34.6475 26.5971 35.217 26.8864 35.5785 27.1713C35.7072 27.2728 35.7974 27.3633 35.8603 27.4418C36.4467 27.6704 36.9918 27.9818 37.4811 28.3615C37.4937 28.1593 37.5 27.9554 37.5 27.75C37.5 22.3652 33.1348 18 27.75 18C22.3652 18 18 22.3652 18 27.75ZM21.1489 24.9172C20.6656 25.0782 20.2171 25.2619 19.8194 25.4689C20.463 23.2272 22.0314 21.3766 24.0852 20.3566C23.893 20.6385 23.7153 20.9352 23.5526 21.2404C23.0297 22.2215 22.6183 23.3659 22.3507 24.5776C21.9242 24.6792 21.5222 24.7927 21.1489 24.9172ZM24.8763 21.9459C25.5216 20.7351 26.2698 19.9745 27 19.6626V24.01C25.9349 24.0385 24.9151 24.1273 23.9716 24.2678C24.2026 23.4224 24.5103 22.6327 24.8763 21.9459ZM23.6424 25.8413C24.6493 25.6618 25.7853 25.5449 27 25.5106V29.9894C25.7853 29.9551 24.6493 29.8382 23.6424 29.6587C23.5496 29.0304 23.5 28.3887 23.5 27.75C23.5 27.1113 23.5496 26.4696 23.6424 25.8413ZM19.8194 30.0311C20.2171 30.2381 20.6656 30.4218 21.1489 30.5828C21.5222 30.7073 21.9242 30.8208 22.3507 30.9224C22.6183 32.1341 23.0297 33.2785 23.5526 34.2596C23.7153 34.5648 23.893 34.8615 24.0852 35.1434C22.0314 34.1234 20.463 32.2728 19.8194 30.0311ZM21.6232 29.1598C20.8525 28.9029 20.283 28.6136 19.9215 28.3287C19.5515 28.0371 19.5 27.8359 19.5 27.75C19.5 27.6641 19.5515 27.4629 19.9215 27.1713C20.283 26.8864 20.8525 26.5971 21.6232 26.3402C21.7713 26.2908 21.9253 26.2432 22.0849 26.1973C22.0291 26.7128 22 27.2326 22 27.75C22 28.2674 22.0291 28.7872 22.0849 29.3027C21.9253 29.2568 21.7713 29.2092 21.6232 29.1598ZM31.9474 21.2404C31.7847 20.9352 31.607 20.6385 31.4148 20.3566C33.4686 21.3766 35.037 23.2272 35.6806 25.4689C35.2829 25.2619 34.8344 25.0782 34.3511 24.9172C33.9778 24.7927 33.5758 24.6792 33.1493 24.5776C32.8817 23.3659 32.4703 22.2215 31.9474 21.2404ZM28.5 24.01V19.6626C29.2302 19.9745 29.9784 20.7351 30.6237 21.9459C30.9897 22.6327 31.2974 23.4224 31.5284 24.2678C30.5849 24.1273 29.5651 24.0385 28.5 24.01Z" fill="#5F5F6A"/>
<path opacity="0.5" d="M33.5 85C31.0147 85 29 87.0147 29 89.5C29 91.9853 31.0147 94 33.5 94C35.9853 94 38 91.9853 38 89.5C38 87.0147 35.9853 85 33.5 85ZM34 87.5V89.2929L34.8536 90.1464C35.0488 90.3417 35.0488 90.6583 34.8536 90.8536C34.6583 91.0488 34.3417 91.0488 34.1464 90.8536L33.1464 89.8536C33.0527 89.7598 33 89.6326 33 89.5V87.5C33 87.2239 33.2239 87 33.5 87C33.7761 87 34 87.2239 34 87.5Z" fill="#5F5F6A"/>
<path d="M18 83.75C18 89.1348 22.3652 93.5 27.75 93.5C27.9554 93.5 28.1593 93.4937 28.3615 93.4811C27.5081 92.3812 27 90.9999 27 89.5V91.8374C26.2698 91.5255 25.5216 90.7649 24.8763 89.5541C24.5103 88.8673 24.2026 88.0776 23.9716 87.2322C24.9151 87.3727 25.9349 87.4615 27 87.49V89.5C27 87.9206 27.5633 86.4727 28.5 85.3464V81.5106C29.7147 81.5449 30.8507 81.6618 31.8576 81.8413C31.9227 82.2819 31.9665 82.729 31.9869 83.177C32.4662 83.0628 32.966 83.0016 33.48 83C33.4657 82.7319 33.444 82.4641 33.4151 82.1973C33.5747 82.2432 33.7287 82.2908 33.8768 82.3402C34.6475 82.5971 35.217 82.8864 35.5785 83.1713C35.7072 83.2728 35.7974 83.3633 35.8603 83.4418C36.4467 83.6704 36.9918 83.9818 37.4811 84.3615C37.4937 84.1593 37.5 83.9554 37.5 83.75C37.5 78.3652 33.1348 74 27.75 74C22.3652 74 18 78.3652 18 83.75ZM21.1489 80.9172C20.6656 81.0782 20.2171 81.2619 19.8194 81.4689C20.463 79.2272 22.0314 77.3766 24.0852 76.3566C23.893 76.6385 23.7153 76.9352 23.5526 77.2404C23.0297 78.2215 22.6183 79.3659 22.3507 80.5776C21.9242 80.6792 21.5222 80.7927 21.1489 80.9172ZM24.8763 77.9459C25.5216 76.7351 26.2698 75.9745 27 75.6626V80.01C25.9349 80.0385 24.9151 80.1273 23.9716 80.2678C24.2026 79.4224 24.5103 78.6327 24.8763 77.9459ZM23.6424 81.8413C24.6493 81.6618 25.7853 81.5449 27 81.5106V85.9894C25.7853 85.9551 24.6493 85.8382 23.6424 85.6587C23.5496 85.0304 23.5 84.3887 23.5 83.75C23.5 83.1113 23.5496 82.4696 23.6424 81.8413ZM19.8194 86.0311C20.2171 86.2381 20.6656 86.4218 21.1489 86.5828C21.5222 86.7073 21.9242 86.8208 22.3507 86.9224C22.6183 88.1341 23.0297 89.2785 23.5526 90.2596C23.7153 90.5648 23.893 90.8615 24.0852 91.1434C22.0314 90.1234 20.463 88.2728 19.8194 86.0311ZM21.6232 85.1598C20.8525 84.9029 20.283 84.6136 19.9215 84.3287C19.5515 84.0371 19.5 83.8359 19.5 83.75C19.5 83.6641 19.5515 83.4629 19.9215 83.1713C20.283 82.8864 20.8525 82.5971 21.6232 82.3402C21.7713 82.2908 21.9253 82.2432 22.0849 82.1973C22.0291 82.7128 22 83.2326 22 83.75C22 84.2674 22.0291 84.7872 22.0849 85.3027C21.9253 85.2568 21.7713 85.2092 21.6232 85.1598ZM31.9474 77.2404C31.7847 76.9352 31.607 76.6385 31.4148 76.3566C33.4686 77.3766 35.037 79.2272 35.6806 81.4689C35.2829 81.2619 34.8344 81.0782 34.3511 80.9172C33.9778 80.7927 33.5758 80.6792 33.1493 80.5776C32.8817 79.3659 32.4703 78.2215 31.9474 77.2404ZM28.5 80.01V75.6626C29.2302 75.9745 29.9784 76.7351 30.6237 77.9459C30.9897 78.6327 31.2974 79.4224 31.5284 80.2678C30.5849 80.1273 29.5651 80.0385 28.5 80.01Z" fill="#5F5F6A"/>
<path d="M27.75 130C22.3652 130 18 134.365 18 139.75C18 145.135 22.3652 149.5 27.75 149.5C27.9554 149.5 28.1593 149.494 28.3615 149.481C27.5081 148.381 27 147 27 145.5C27 143.921 27.5633 142.473 28.5 141.346V137.511C29.7147 137.545 30.8507 137.662 31.8576 137.841C31.9227 138.282 31.9665 138.729 31.9869 139.177C32.4662 139.063 32.966 139.002 33.48 139C33.4657 138.732 33.444 138.464 33.4151 138.197C33.5747 138.243 33.7287 138.291 33.8768 138.34C34.6475 138.597 35.217 138.886 35.5785 139.171C35.7072 139.273 35.7974 139.363 35.8603 139.442C36.4467 139.67 36.9918 139.982 37.4811 140.361C37.4937 140.159 37.5 139.955 37.5 139.75C37.5 134.365 33.1348 130 27.75 130ZM27 145.5V147.837C26.2698 147.526 25.5216 146.765 24.8763 145.554C24.5103 144.867 24.2026 144.078 23.9716 143.232C24.9151 143.373 25.9349 143.462 27 143.49V145.5ZM22.3507 136.578C21.9242 136.679 21.5222 136.793 21.1489 136.917C20.6656 137.078 20.2171 137.262 19.8194 137.469C20.463 135.227 22.0314 133.377 24.0852 132.357C23.893 132.639 23.7153 132.935 23.5526 133.24C23.0297 134.221 22.6183 135.366 22.3507 136.578ZM23.9716 136.268C24.2026 135.422 24.5103 134.633 24.8763 133.946C25.5216 132.735 26.2698 131.974 27 131.663V136.01C25.9349 136.038 24.9151 136.127 23.9716 136.268ZM23.5 139.75C23.5 139.111 23.5496 138.47 23.6424 137.841C24.6493 137.662 25.7853 137.545 27 137.511V141.989C25.7853 141.955 24.6493 141.838 23.6424 141.659C23.5496 141.03 23.5 140.389 23.5 139.75ZM24.0852 147.143C22.0314 146.123 20.463 144.273 19.8194 142.031C20.2171 142.238 20.6656 142.422 21.1489 142.583C21.5222 142.707 21.9242 142.821 22.3507 142.922C22.6183 144.134 23.0297 145.279 23.5526 146.26C23.7153 146.565 23.893 146.861 24.0852 147.143ZM22.0849 141.303C21.9253 141.257 21.7713 141.209 21.6232 141.16C20.8525 140.903 20.283 140.614 19.9215 140.329C19.5515 140.037 19.5 139.836 19.5 139.75C19.5 139.664 19.5515 139.463 19.9215 139.171C20.283 138.886 20.8525 138.597 21.6232 138.34C21.7713 138.291 21.9253 138.243 22.0849 138.197C22.0291 138.713 22 139.233 22 139.75C22 140.267 22.0291 140.787 22.0849 141.303ZM33.1493 136.578C32.8817 135.366 32.4703 134.221 31.9474 133.24C31.7847 132.935 31.607 132.639 31.4148 132.357C33.4686 133.377 35.037 135.227 35.6806 137.469C35.2829 137.262 34.8344 137.078 34.3511 136.917C33.9778 136.793 33.5758 136.679 33.1493 136.578ZM31.5284 136.268C30.5849 136.127 29.5651 136.038 28.5 136.01V131.663C29.2302 131.974 29.9784 132.735 30.6237 133.946C30.9897 134.633 31.2974 135.422 31.5284 136.268Z" fill="#5F5F6A"/>
<path d="M34.25 143.5C34.25 143.086 33.9142 142.75 33.5 142.75C33.0858 142.75 32.75 143.086 32.75 143.5V145.5C32.75 145.699 32.829 145.89 32.9697 146.03L33.9697 147.03C34.2626 147.323 34.7374 147.323 35.0303 147.03C35.3232 146.737 35.3232 146.263 35.0303 145.97L34.25 145.189V143.5Z" fill="#5F5F6A"/>
<path d="M33.5 140.75C30.8766 140.75 28.75 142.877 28.75 145.5C28.75 148.123 30.8766 150.25 33.5 150.25C36.1234 150.25 38.25 148.123 38.25 145.5C38.25 142.877 36.1234 140.75 33.5 140.75ZM30.25 145.5C30.25 143.705 31.7051 142.25 33.5 142.25C35.2949 142.25 36.75 143.705 36.75 145.5C36.75 147.295 35.2949 148.75 33.5 148.75C31.7051 148.75 30.25 147.295 30.25 145.5Z" fill="#5F5F6A"/>
<path d="M33.5 198C31.567 198 30 199.567 30 201.5C30 203.433 31.567 205 33.5 205C35.433 205 37 203.433 37 201.5C37 199.567 35.433 198 33.5 198ZM29 201.5C29 199.015 31.0147 197 33.5 197C35.9853 197 38 199.015 38 201.5C38 203.985 35.9853 206 33.5 206C31.0147 206 29 203.985 29 201.5ZM33.5 199C33.7761 199 34 199.224 34 199.5V201.293L34.8536 202.146C35.0488 202.342 35.0488 202.658 34.8536 202.854C34.6583 203.049 34.3417 203.049 34.1464 202.854L33.1464 201.854C33.0527 201.76 33 201.633 33 201.5V199.5C33 199.224 33.2239 199 33.5 199Z" fill="#5F5F6A"/>
<path d="M21.2279 193.154C21.6383 193.018 22.0848 192.894 22.5617 192.785C22.8232 191.538 23.2395 190.359 23.7732 189.358C24.0889 188.766 24.4568 188.217 24.8705 187.75C22.1321 188.736 20.0458 191.088 19.4338 193.984C19.9178 193.664 20.5302 193.387 21.2279 193.154ZM18.25 195.75C18.25 190.503 22.5033 186.25 27.75 186.25C32.9967 186.25 37.25 190.503 37.25 195.75C37.25 195.895 37.2467 196.04 37.2403 196.183C36.9225 195.959 36.5837 195.763 36.2275 195.598C36.1775 195.425 36.0365 195.214 35.7332 194.975C35.3404 194.665 34.7411 194.365 33.9558 194.103C33.6949 194.016 33.4165 193.934 33.1223 193.859C33.1731 194.238 33.2093 194.622 33.2299 195.006C32.8908 195.019 32.5584 195.059 32.2346 195.123C32.2101 194.621 32.1568 194.12 32.0776 193.627C30.9431 193.414 29.643 193.281 28.25 193.255V197.667C27.8047 198.276 27.4628 198.965 27.25 199.709V199.246C25.9613 199.222 24.738 199.11 23.6345 198.926C23.8778 199.929 24.2272 200.868 24.6557 201.672C25.4028 203.074 26.3222 203.951 27.25 204.186V203.291C27.452 203.998 27.7705 204.655 28.1833 205.24C28.0397 205.247 27.8952 205.25 27.75 205.25C22.5033 205.25 18.25 200.997 18.25 195.75ZM24.6557 189.828C24.2272 190.632 23.8778 191.571 23.6345 192.574C24.738 192.39 25.9613 192.278 27.25 192.254V187.314C26.3222 187.549 25.4028 188.426 24.6557 189.828ZM23.4224 193.627C23.3102 194.325 23.25 195.039 23.25 195.75C23.25 196.461 23.3102 197.175 23.4224 197.873C24.5569 198.086 25.857 198.219 27.25 198.245V193.255C25.857 193.281 24.5569 193.414 23.4224 193.627ZM19.4338 197.516C20.0458 200.412 22.1321 202.764 24.8705 203.75C24.4568 203.283 24.0889 202.734 23.7732 202.142C23.2395 201.141 22.8232 199.962 22.5617 198.715C22.0848 198.606 21.6383 198.482 21.2279 198.346C20.5302 198.113 19.9178 197.836 19.4338 197.516ZM21.5442 197.397C21.8051 197.484 22.0835 197.566 22.3777 197.641C22.294 197.016 22.25 196.381 22.25 195.75C22.25 195.119 22.294 194.484 22.3777 193.859C22.0835 193.934 21.8051 194.016 21.5442 194.103C20.7589 194.365 20.1596 194.665 19.7668 194.975C19.3683 195.289 19.25 195.555 19.25 195.75C19.25 195.945 19.3683 196.211 19.7668 196.525C20.1596 196.835 20.7589 197.135 21.5442 197.397ZM31.7268 189.358C32.2605 190.359 32.6768 191.538 32.9383 192.785C33.4152 192.894 33.8617 193.018 34.2721 193.154C34.9698 193.387 35.5822 193.664 36.0662 193.984C35.4542 191.088 33.3679 188.736 30.6295 187.75C31.0432 188.217 31.4111 188.766 31.7268 189.358ZM28.25 192.254C29.5387 192.278 30.762 192.39 31.8655 192.574C31.6222 191.571 31.2728 190.632 30.8443 189.828C30.0972 188.426 29.1778 187.549 28.25 187.314V192.254Z" fill="#5F5F6A"/>
</svg>
