<svg width="56" height="224" viewBox="0 0 56 224" fill="none" xmlns="http://www.w3.org/2000/svg">
<path d="M23.0208 25.0238C23.2604 23.5323 23.6763 22.1885 24.2259 21.0892C24.722 20.0972 25.3521 19.2608 26.0902 18.7187C22.3585 19.4821 19.426 22.4396 18.6992 26.1845C19.2058 25.9384 19.8176 25.721 20.5056 25.5333C21.2479 25.3309 22.0948 25.1589 23.0208 25.0238Z" fill="#5F5F6A"/>
<path d="M18.5464 28.6359C18.5325 28.4257 18.5254 28.2137 18.5254 28C18.5254 27.7863 18.5325 27.5743 18.5464 27.3641C18.58 27.3404 18.6157 27.3163 18.6537 27.2918C19.1232 26.989 19.8341 26.6984 20.7549 26.4473C21.3869 26.275 22.1051 26.1245 22.8915 26.0014C22.8239 26.6479 22.7885 27.3164 22.7885 28C22.7885 28.6835 22.8239 29.3521 22.8915 29.9986C22.1051 29.8754 21.3869 29.725 20.7549 29.5527C19.8341 29.3015 19.1232 29.011 18.6537 28.7082C18.6157 28.6837 18.58 28.6596 18.5464 28.6359Z" fill="#5F5F6A"/>
<path d="M18.6992 29.8155C19.426 33.5604 22.3585 36.5179 26.0902 37.2813C25.3521 36.7391 24.722 35.9028 24.2259 34.9107C23.6763 33.8115 23.2604 32.4677 23.0208 30.9762C22.0948 30.8411 21.2479 30.6691 20.5056 30.4667C19.8176 30.279 19.2058 30.0616 18.6992 29.8155Z" fill="#5F5F6A"/>
<path d="M29.9079 37.2813C33.6396 36.5179 36.5722 33.5604 37.299 29.8155C36.7924 30.0616 36.1805 30.279 35.4925 30.4667C34.7502 30.6691 33.9033 30.8411 32.9774 30.9762C32.7378 32.4677 32.3218 33.8115 31.7722 34.9107C31.2762 35.9028 30.646 36.7391 29.9079 37.2813Z" fill="#5F5F6A"/>
<path d="M37.4518 27.3641C37.4657 27.5743 37.4728 27.7863 37.4728 28C37.4728 28.2137 37.4657 28.4257 37.4518 28.6359C37.4182 28.6596 37.3825 28.6837 37.3445 28.7082C36.8749 29.011 36.164 29.3016 35.2432 29.5527C34.6113 29.725 33.8931 29.8754 33.1066 29.9986C33.1742 29.3521 33.2096 28.6835 33.2096 28C33.2096 27.3164 33.1742 26.6479 33.1066 26.0014C33.8931 26.1245 34.6113 26.275 35.2432 26.4473C36.164 26.6984 36.8749 26.989 37.3445 27.2918C37.3825 27.3163 37.4182 27.3404 37.4518 27.3641Z" fill="#5F5F6A"/>
<path d="M37.299 26.1845C36.5722 22.4396 33.6396 19.4821 29.9079 18.7187C30.646 19.2608 31.2762 20.0972 31.7722 21.0892C32.3218 22.1885 32.7378 23.5323 32.9774 25.0238C33.9033 25.1589 34.7502 25.3309 35.4925 25.5333C36.1805 25.721 36.7924 25.9384 37.299 26.1845Z" fill="#5F5F6A"/>
<path d="M24.003 24.8977C24.2341 23.6028 24.6047 22.45 25.0733 21.5129C25.7783 20.1029 26.6483 19.2781 27.5254 19.0592V24.687C26.2868 24.702 25.1006 24.7752 24.003 24.8977Z" fill="#5F5F6A"/>
<path d="M28.4728 24.687V19.0592C29.3498 19.2781 30.2198 20.1029 30.9249 21.5129C31.3934 22.45 31.764 23.6028 31.9952 24.8977C30.8976 24.7752 29.7114 24.702 28.4728 24.687Z" fill="#5F5F6A"/>
<path d="M23.8595 25.868C24.9857 25.7327 26.2222 25.6506 27.5254 25.6345V30.3655C26.2222 30.3494 24.9857 30.2673 23.8595 30.132C23.7789 29.4495 23.7359 28.7357 23.7359 28C23.7359 27.2642 23.7789 26.5505 23.8595 25.868Z" fill="#5F5F6A"/>
<path d="M32.1386 25.868C31.0125 25.7327 29.776 25.6506 28.4728 25.6345V30.3655C29.776 30.3494 31.0125 30.2673 32.1386 30.132C32.2193 29.4495 32.2622 28.7357 32.2622 28C32.2622 27.2642 32.2193 26.5505 32.1386 25.868Z" fill="#5F5F6A"/>
<path d="M24.003 31.1023C25.1006 31.2248 26.2868 31.298 27.5254 31.3129V36.9408C26.6483 36.7219 25.7783 35.8971 25.0733 34.4871C24.6047 33.55 24.2341 32.3972 24.003 31.1023Z" fill="#5F5F6A"/>
<path d="M28.4728 31.3129V36.9408C29.3498 36.7219 30.2198 35.8971 30.9249 34.4871C31.3934 33.55 31.764 32.3972 31.9952 31.1023C30.8976 31.2248 29.7114 31.298 28.4728 31.3129Z" fill="#5F5F6A"/>
<path fill-rule="evenodd" clip-rule="evenodd" d="M27.9991 75.9474C23.5517 75.9474 19.9464 79.5527 19.9464 84C19.9464 88.4474 23.5517 92.0526 27.9991 92.0526C32.4464 92.0526 36.0517 88.4474 36.0517 84C36.0517 79.5527 32.4464 75.9474 27.9991 75.9474ZM18.5254 84C18.5254 78.7678 22.7669 74.5263 27.9991 74.5263C33.2312 74.5263 37.4728 78.7678 37.4728 84C37.4728 89.2322 33.2312 93.4737 27.9991 93.4737C22.7669 93.4737 18.5254 89.2322 18.5254 84Z" fill="#5F5F6A"/>
<path opacity="0.5" fill-rule="evenodd" clip-rule="evenodd" d="M24.9852 76.5311C25.9166 76.1546 26.9345 75.9474 28.0009 75.9474C29.0672 75.9474 30.0852 76.1546 31.0166 76.5311C31.3659 76.912 31.6826 77.3528 31.9618 77.8374C32.4835 78.7431 32.8923 79.8279 33.1562 81.0283C33.5708 81.1323 33.9606 81.2487 34.3217 81.3762C34.8882 81.5764 35.396 81.8082 35.8209 82.0706C35.9329 82.5261 36.0062 82.9968 36.0369 83.4791C35.9601 83.3791 35.8588 83.2742 35.7281 83.1651C35.3463 82.8462 34.7654 82.5377 34.0061 82.2695C33.7963 82.1954 33.5748 82.125 33.3426 82.0588C33.4428 82.7582 33.4956 83.4879 33.4956 84.2368C33.4956 84.8121 33.4645 85.3759 33.4046 85.9234C33.6143 85.8624 33.8151 85.798 34.0061 85.7305C34.7654 85.4623 35.3463 85.1538 35.7281 84.8349C35.8588 84.7258 35.9601 84.6209 36.0369 84.5209C36.0062 85.0032 35.9329 85.4739 35.8209 85.9294C35.396 86.1918 34.8882 86.4236 34.3217 86.6238C33.9898 86.741 33.6337 86.8488 33.2563 86.9462C33.0021 88.3455 32.555 89.6066 31.9618 90.6363C31.8484 90.833 31.7289 91.0225 31.6035 91.2038C31.0043 91.504 30.3624 91.7317 29.6893 91.8753C30.2173 91.4849 30.711 90.9096 31.1409 90.1634C31.6197 89.3321 32.0016 88.3146 32.2461 87.1723C31.1079 87.3908 29.8283 87.5231 28.4746 87.5482V92.0389C28.3178 92.048 28.1599 92.0526 28.0009 92.0526C27.8419 92.0526 27.6839 92.048 27.5272 92.0389V87.5482C26.1735 87.5231 24.8939 87.3908 23.7557 87.1723C24.0002 88.3146 24.382 89.3321 24.8609 90.1634C25.2908 90.9096 25.7845 91.4848 26.3125 91.8753C25.6394 91.7317 24.9975 91.504 24.3983 91.2038C24.2729 91.0225 24.1534 90.833 24.04 90.6363C23.4468 89.6066 22.9997 88.3455 22.7455 86.9462C22.3681 86.8488 22.012 86.741 21.6801 86.6238C21.1136 86.4236 20.6058 86.1918 20.1809 85.9294C20.0689 85.4739 19.9956 85.0032 19.9648 84.5209C20.0417 84.6209 20.143 84.7258 20.2737 84.8349C20.6555 85.1538 21.2363 85.4623 21.9957 85.7305C22.1867 85.798 22.3875 85.8624 22.5972 85.9234C22.5373 85.3759 22.5062 84.8121 22.5062 84.2368C22.5062 83.4879 22.559 82.7582 22.6592 82.0588C22.427 82.125 22.2055 82.1954 21.9957 82.2695C21.2363 82.5377 20.6555 82.8462 20.2737 83.1651C20.143 83.2742 20.0417 83.3791 19.9648 83.4791C19.9956 82.9968 20.0689 82.5261 20.1809 82.0706C20.6058 81.8082 21.1136 81.5764 21.6801 81.3762C22.0412 81.2487 22.431 81.1323 22.8456 81.0283C23.1095 79.8279 23.5182 78.7431 24.04 77.8374C24.3192 77.3528 24.6359 76.912 24.9852 76.5311ZM31.1409 78.3103C31.5493 79.0193 31.8872 79.8638 32.1294 80.8058C31.0207 80.6004 29.7822 80.476 28.4746 80.4518V76.0409C29.453 76.2321 30.3934 77.0128 31.1409 78.3103ZM32.345 81.8138C31.2083 81.5756 29.891 81.4266 28.4746 81.3993V86.6007C29.9223 86.5728 31.2665 86.4178 32.4202 86.1702C32.5038 85.5512 32.5483 84.904 32.5483 84.2368C32.5483 83.3916 32.4768 82.5783 32.345 81.8138ZM27.5272 76.0409V80.4518C26.2196 80.476 24.981 80.6004 23.8724 80.8057C24.1146 79.8638 24.4525 79.0193 24.8609 78.3103C25.6084 77.0128 26.5488 76.2321 27.5272 76.0409ZM27.5272 81.3993C26.1108 81.4266 24.7935 81.5756 23.6568 81.8138C23.525 82.5783 23.4535 83.3916 23.4535 84.2368C23.4535 84.904 23.498 85.5512 23.5816 86.1702C24.7352 86.4178 26.0794 86.5728 27.5272 86.6007V81.3993Z" fill="#5F5F6A"/>
<path fill-rule="evenodd" clip-rule="evenodd" d="M27.9991 149.474C33.2312 149.474 37.4728 145.232 37.4728 140C37.4728 134.768 33.2312 130.526 27.9991 130.526C22.7669 130.526 18.5254 134.768 18.5254 140C18.5254 145.232 22.7669 149.474 27.9991 149.474ZM31.795 132.896C31.9251 133.084 32.0486 133.28 32.1652 133.482C32.6792 134.375 33.0843 135.432 33.3535 136.598C33.7226 136.694 34.072 136.801 34.3987 136.916C34.8496 137.075 35.2687 137.256 35.6423 137.458C34.9885 135.491 33.5966 133.861 31.795 132.896ZM35.8076 141.975C35.3939 142.216 34.9173 142.427 34.3987 142.61C34.1035 142.715 33.7898 142.811 33.4597 142.9C33.1969 144.265 32.7521 145.499 32.1652 146.518C32.0486 146.72 31.9251 146.916 31.795 147.104C33.7669 146.048 35.2479 144.195 35.8076 141.975ZM24.2031 147.104C24.0731 146.916 23.9496 146.72 23.833 146.518C23.2461 145.499 22.8012 144.265 22.5384 142.9C22.2084 142.811 21.8947 142.715 21.5994 142.61C21.0808 142.427 20.6043 142.216 20.1905 141.975C20.7502 144.195 22.2313 146.048 24.2031 147.104ZM20.3558 137.458C20.7295 137.256 21.1486 137.075 21.5994 136.916C21.9262 136.801 22.2755 136.694 22.6446 136.598C22.9138 135.432 23.3189 134.375 23.833 133.482C23.9496 133.28 24.0731 133.084 24.2031 132.896C22.4015 133.861 21.0096 135.491 20.3558 137.458ZM30.9338 134.192C31.2789 134.791 31.5735 135.492 31.8005 136.271C30.8426 136.113 29.8005 136.014 28.7096 135.983V132.11C29.5016 132.369 30.2818 133.06 30.9338 134.192ZM32.1362 137.776C31.1182 137.574 29.9568 137.442 28.7096 137.405V142.121C29.9849 142.084 31.1707 141.947 32.205 141.736C32.2733 141.178 32.3096 140.598 32.3096 140C32.3096 139.226 32.2487 138.48 32.1362 137.776ZM27.2886 132.11V135.983C26.1977 136.014 25.1556 136.113 24.1977 136.271C24.4247 135.492 24.7193 134.791 25.0643 134.192C25.7163 133.06 26.4966 132.369 27.2886 132.11ZM27.2886 137.405C26.0414 137.442 24.8799 137.574 23.862 137.776C23.7494 138.48 23.6886 139.226 23.6886 140C23.6886 140.598 23.7248 141.178 23.7932 141.736C24.8275 141.947 26.0132 142.084 27.2886 142.121V137.405ZM22.0728 138.256C22.1709 138.221 22.2717 138.187 22.3751 138.154C22.3044 138.753 22.2675 139.37 22.2675 140C22.2675 140.46 22.2871 140.912 22.3252 141.356C22.2392 141.328 22.155 141.299 22.0728 141.27C21.3281 141.007 20.7759 140.71 20.4237 140.416C20.0675 140.119 19.9938 139.895 19.9938 139.763C19.9938 139.632 20.0675 139.408 20.4237 139.11C20.7759 138.816 21.3281 138.519 22.0728 138.256ZM25.0643 145.808C24.6475 145.085 24.3043 144.212 24.065 143.233C25.059 143.404 26.1471 143.511 27.2886 143.543V147.89C26.4966 147.631 25.7163 146.94 25.0643 145.808ZM28.7096 147.89V143.543C29.851 143.511 30.9391 143.404 31.9332 143.233C31.6938 144.212 31.3506 145.085 30.9338 145.808C30.2818 146.94 29.5016 147.631 28.7096 147.89ZM33.7307 140C33.7307 140.46 33.711 140.912 33.673 141.356C33.759 141.328 33.8431 141.299 33.9254 141.27C34.6701 141.007 35.2222 140.71 35.5745 140.416C35.9306 140.119 36.0043 139.895 36.0043 139.763C36.0043 139.632 35.9306 139.408 35.5745 139.11C35.2222 138.816 34.6701 138.519 33.9254 138.256C33.8273 138.221 33.7264 138.187 33.623 138.154C33.6938 138.753 33.7307 139.37 33.7307 140Z" fill="#5F5F6A"/>
<path fill-rule="evenodd" clip-rule="evenodd" d="M28.0005 205.237C33.1019 205.237 37.2374 201.101 37.2374 196C37.2374 190.899 33.1019 186.763 28.0005 186.763C22.8991 186.763 18.7637 190.899 18.7637 196C18.7637 201.101 22.8991 205.237 28.0005 205.237ZM30.9902 188.266C31.3498 188.653 31.6753 189.104 31.9614 189.601C32.4832 190.506 32.8919 191.591 33.1558 192.791C33.5704 192.895 33.9603 193.012 34.3213 193.139C34.9898 193.376 35.5765 193.656 36.0417 193.978C35.3844 191.355 33.4774 189.228 30.9902 188.266ZM36.1615 197.462C35.679 197.821 35.0485 198.13 34.3213 198.387C33.9895 198.504 33.6333 198.612 33.2559 198.709C33.0017 200.109 32.5546 201.37 31.9614 202.399C31.6753 202.896 31.3498 203.347 30.9902 203.734C33.652 202.704 35.6494 200.34 36.1615 197.462ZM25.0109 203.734C24.6512 203.347 24.3258 202.896 24.0396 202.399C23.4465 201.37 22.9993 200.109 22.7451 198.709C22.3678 198.612 22.0116 198.504 21.6797 198.387C20.9525 198.13 20.322 197.821 19.8395 197.462C20.3516 200.34 22.349 202.704 25.0109 203.734ZM19.9593 193.978C20.4245 193.656 21.0113 193.376 21.6797 193.139C22.0408 193.012 22.4306 192.895 22.8452 192.791C23.1091 191.591 23.5179 190.506 24.0396 189.601C24.3258 189.104 24.6512 188.653 25.0108 188.266C22.5236 189.228 20.6166 191.355 19.9593 193.978ZM31.1405 190.073C31.5489 190.782 31.8868 191.627 32.1291 192.569C31.0204 192.364 29.7818 192.239 28.4742 192.215V187.804C29.4526 187.995 30.393 188.776 31.1405 190.073ZM32.3446 193.577C31.2079 193.339 29.8906 193.19 28.4742 193.162V198.364C29.922 198.336 31.2662 198.181 32.4198 197.933C32.5034 197.314 32.5479 196.667 32.5479 196C32.5479 195.155 32.4764 194.341 32.3446 193.577ZM27.5268 187.804V192.215C26.2192 192.239 24.9807 192.364 23.872 192.569C24.1142 191.627 24.4521 190.782 24.8605 190.073C25.608 188.776 26.5484 187.995 27.5268 187.804ZM27.5268 193.162C26.1104 193.19 24.7931 193.339 23.6565 193.577C23.5246 194.341 23.4531 195.155 23.4531 196C23.4531 196.667 23.4977 197.314 23.5813 197.933C24.7349 198.181 26.0791 198.336 27.5268 198.364V193.162ZM21.9953 194.033C22.2051 193.959 22.4266 193.888 22.6589 193.822C22.5586 194.521 22.5058 195.251 22.5058 196C22.5058 196.575 22.5369 197.139 22.5968 197.687C22.3871 197.626 22.1864 197.561 21.9953 197.494C21.236 197.225 20.6551 196.917 20.2733 196.598C19.8888 196.277 19.7584 195.993 19.7584 195.763C19.7584 195.534 19.8888 195.249 20.2733 194.928C20.6551 194.609 21.236 194.301 21.9953 194.033ZM24.8605 201.927C24.3817 201.095 23.9998 200.078 23.7554 198.935C24.8935 199.154 26.1732 199.286 27.5268 199.311V204.196C26.5484 204.005 25.608 203.224 24.8605 201.927ZM28.4742 204.196V199.311C29.8279 199.286 31.1075 199.154 32.2457 198.935C32.0012 200.078 31.6194 201.095 31.1405 201.927C30.393 203.224 29.4526 204.005 28.4742 204.196ZM33.4953 196C33.4953 196.575 33.4641 197.139 33.4042 197.687C33.6139 197.626 33.8147 197.561 34.0057 197.494C34.7651 197.225 35.3459 196.917 35.7277 196.598C36.1122 196.277 36.2426 195.993 36.2426 195.763C36.2426 195.534 36.1122 195.249 35.7277 194.928C35.3459 194.609 34.7651 194.301 34.0057 194.033C33.7959 193.959 33.5744 193.888 33.3422 193.822C33.4424 194.521 33.4953 195.251 33.4953 196Z" fill="#5F5F6A"/>
</svg>
