<svg width="56" height="224" viewBox="0 0 56 224" fill="none" xmlns="http://www.w3.org/2000/svg">
<path fill-rule="evenodd" clip-rule="evenodd" d="M24.9683 24.1204L21.377 32.5H25.3103L25.1355 31.7426C25.1111 31.6366 25.0527 31.5415 24.9693 31.4716L23.8665 30.5485C23.5499 30.2835 23.6728 29.7707 24.0751 29.6779L25.4764 29.3546C25.5824 29.3301 25.6776 29.2718 25.7474 29.1883L26.6706 28.0856C26.9356 27.769 27.4484 27.8918 27.5412 28.2941L27.8645 29.6955C27.8889 29.8015 27.9473 29.8966 28.0307 29.9665L29.1335 30.8896C29.45 31.1546 29.3272 31.6674 28.9249 31.7602L27.5236 32.0835C27.4176 32.108 27.3224 32.1664 27.2526 32.2498L27.0431 32.5H34.511L31.748 26.1848C31.5548 25.7432 31.5276 25.2466 31.6714 24.7866L33.5358 18.8205C33.6754 18.3739 33.1798 17.9974 32.7869 18.2516L26.4718 22.3378C25.8047 22.7695 25.2813 23.39 24.9683 24.1204ZM28.4559 23.6183C28.5217 23.3795 28.8321 23.3188 28.9831 23.5152L29.4633 24.1403C29.5031 24.1921 29.5587 24.2294 29.6216 24.2468L30.3817 24.456C30.6205 24.5217 30.6813 24.8322 30.4848 24.9831L29.8597 25.4634C29.808 25.5032 29.7706 25.5587 29.7533 25.6217L29.5441 26.3817C29.4783 26.6205 29.1678 26.6813 29.0169 26.4849L28.5366 25.8598C28.4969 25.808 28.4413 25.7706 28.3784 25.7533L27.6183 25.5441C27.3795 25.4784 27.3187 25.1679 27.5151 25.017L28.1403 24.5367C28.192 24.4969 28.2294 24.4413 28.2467 24.3784L28.4559 23.6183ZM20.25 33.5C19.5596 33.5 19 34.0596 19 34.75C19 35.4404 19.5596 36 20.25 36H35.75C36.4404 36 37 35.4404 37 34.75C37 34.0596 36.4404 33.5 35.75 33.5H20.25Z" fill="#5F5F6A"/>
<rect opacity="0.5" x="19" y="89.5" width="18" height="2.5" rx="1.25" fill="#5F5F6A"/>
<path opacity="0.5" d="M28.4552 79.6183C28.5209 79.3795 28.8314 79.3188 28.9823 79.5152L29.4626 80.1403C29.5024 80.1921 29.5579 80.2294 29.6209 80.2468L30.3809 80.456C30.6197 80.5217 30.6805 80.8322 30.4841 80.9831L29.859 81.4634C29.8072 81.5032 29.7698 81.5587 29.7525 81.6217L29.5433 82.3817C29.4776 82.6205 29.1671 82.6813 29.0162 82.4849L28.5359 81.8598C28.4961 81.808 28.4405 81.7706 28.3776 81.7533L27.6175 81.5441C27.3787 81.4784 27.318 81.1679 27.5144 81.017L28.1395 80.5367C28.1913 80.4969 28.2286 80.4413 28.246 80.3784L28.4552 79.6183Z" fill="#5F5F6A"/>
<path fill-rule="evenodd" clip-rule="evenodd" d="M21.377 88.5L24.9682 80.1204C25.2812 79.39 25.8047 78.7695 26.4718 78.3378L32.7869 74.2516C33.1797 73.9974 33.6753 74.3739 33.5357 74.8205L31.6713 80.7866C31.5276 81.2466 31.5548 81.7432 31.748 82.1848L34.5109 88.5H27.0431L27.2525 88.2498C27.3224 88.1664 27.4175 88.108 27.5235 88.0835L28.9249 87.7602C29.3271 87.6674 29.45 87.1546 29.1334 86.8896L28.0307 85.9665C27.9472 85.8966 27.8889 85.8015 27.8644 85.6955L27.5411 84.2941C27.4483 83.8918 26.9355 83.769 26.6705 84.0856L25.7473 85.1883C25.6775 85.2718 25.5824 85.3301 25.4764 85.3546L24.075 85.6779C23.6727 85.7707 23.5499 86.2835 23.8665 86.5485L24.9692 87.4716C25.0526 87.5415 25.111 87.6366 25.1355 87.7426L25.3102 88.5H21.377ZM28.983 79.5152C28.8321 79.3188 28.5216 79.3795 28.4559 79.6183L28.2467 80.3784C28.2293 80.4413 28.192 80.4969 28.1402 80.5367L27.5151 81.017C27.3187 81.1679 27.3794 81.4784 27.6182 81.5441L28.3783 81.7533C28.4412 81.7706 28.4968 81.808 28.5366 81.8598L29.0169 82.4849C29.1678 82.6813 29.4783 82.6205 29.544 82.3817L29.7532 81.6217C29.7705 81.5587 29.8079 81.5032 29.8597 81.4634L30.4848 80.9831C30.6812 80.8322 30.6204 80.5217 30.3816 80.456L29.6216 80.2468C29.5586 80.2294 29.5031 80.1921 29.4633 80.1403L28.983 79.5152Z" fill="#5F5F6A"/>
<path fill-rule="evenodd" clip-rule="evenodd" d="M34.1339 144.5H21L24.5913 136.12C24.9043 135.39 25.4277 134.769 26.0948 134.338L32.4099 130.252C32.8028 129.997 33.2984 130.374 33.1588 130.82L31.2944 136.787C31.1506 137.247 31.1778 137.743 31.371 138.185L34.1339 144.5ZM26.7029 144.5H33.0424L30.4549 138.586C30.1651 137.923 30.1242 137.178 30.3399 136.488L31.7916 131.843L26.6381 135.177C26.1377 135.501 25.7452 135.967 25.5104 136.514L22.088 144.5H24.97L24.7953 143.743C24.7709 143.637 24.7125 143.541 24.6291 143.472L23.5263 142.548C23.2097 142.283 23.3326 141.771 23.7349 141.678L25.1362 141.355C25.2422 141.33 25.3374 141.272 25.4072 141.188L26.3304 140.086C26.5954 139.769 27.1081 139.892 27.201 140.294L27.5243 141.695C27.5487 141.801 27.6071 141.897 27.6905 141.966L28.7933 142.89C29.1098 143.155 28.987 143.667 28.5847 143.76L27.1834 144.084C27.0774 144.108 26.9822 144.166 26.9124 144.25L26.7029 144.5ZM27.3182 136.378C27.3008 136.441 27.2635 136.497 27.2117 136.537L26.5866 137.017C26.3902 137.168 26.4509 137.478 26.6897 137.544L27.4498 137.753C27.5127 137.771 27.5683 137.808 27.6081 137.86L28.0884 138.485C28.2393 138.681 28.5498 138.621 28.6155 138.382L28.8247 137.622C28.842 137.559 28.8794 137.503 28.9312 137.463L29.5563 136.983C29.7527 136.832 29.6919 136.522 29.4531 136.456L28.6931 136.247C28.6301 136.229 28.5746 136.192 28.5348 136.14L28.0545 135.515C27.9036 135.319 27.5931 135.38 27.5274 135.618L27.3182 136.378ZM20.25 145.5C19.5596 145.5 19 146.06 19 146.75C19 147.44 19.5596 148 20.25 148H35.75C36.4404 148 37 147.44 37 146.75C37 146.06 36.4404 145.5 35.75 145.5H20.25Z" fill="#5F5F6A"/>
<path fill-rule="evenodd" clip-rule="evenodd" d="M34.1339 200.5H21L24.5913 192.12C24.9043 191.39 25.4277 190.769 26.0948 190.338L32.4099 186.252C32.8028 185.997 33.2984 186.374 33.1588 186.82L31.2944 192.787C31.1506 193.247 31.1778 193.743 31.371 194.185L34.1339 200.5ZM26.7029 200.5H33.0424L30.4549 194.586C30.1651 193.923 30.1242 193.178 30.3399 192.488L31.7916 187.843L26.6381 191.177C26.1377 191.501 25.7452 191.967 25.5104 192.514L22.088 200.5H24.97L24.7953 199.743C24.7709 199.637 24.7125 199.541 24.6291 199.472L23.5263 198.548C23.2097 198.283 23.3326 197.771 23.7349 197.678L25.1362 197.355C25.2422 197.33 25.3374 197.272 25.4072 197.188L26.3304 196.086C26.5954 195.769 27.1081 195.892 27.201 196.294L27.5243 197.695C27.5487 197.801 27.6071 197.897 27.6905 197.966L28.7933 198.89C29.1098 199.155 28.987 199.667 28.5847 199.76L27.1834 200.084C27.0774 200.108 26.9822 200.166 26.9124 200.25L26.7029 200.5ZM27.3182 192.378C27.3008 192.441 27.2635 192.497 27.2117 192.537L26.5866 193.017C26.3902 193.168 26.4509 193.478 26.6897 193.544L27.4498 193.753C27.5127 193.771 27.5683 193.808 27.6081 193.86L28.0884 194.485C28.2393 194.681 28.5498 194.621 28.6155 194.382L28.8247 193.622C28.842 193.559 28.8794 193.503 28.9312 193.463L29.5563 192.983C29.7527 192.832 29.6919 192.522 29.4531 192.456L28.6931 192.247C28.6301 192.229 28.5746 192.192 28.5348 192.14L28.0545 191.515C27.9036 191.319 27.5931 191.38 27.5274 191.618L27.3182 192.378ZM26.174 197.83L26.4524 197.498L26.5499 197.92C26.6232 198.238 26.7983 198.524 27.0486 198.733L27.3811 199.012L26.9586 199.109C26.6405 199.182 26.3551 199.358 26.1456 199.608L25.8672 199.94L25.7697 199.518C25.6963 199.2 25.5212 198.914 25.271 198.705L24.9384 198.426L25.361 198.329C25.679 198.256 25.9645 198.081 26.174 197.83ZM20.25 201.5C19.2835 201.5 18.5 202.284 18.5 203.25C18.5 204.216 19.2835 205 20.25 205H35.75C36.7165 205 37.5 204.216 37.5 203.25C37.5 202.284 36.7165 201.5 35.75 201.5H20.25ZM19.5 203.25C19.5 202.836 19.8358 202.5 20.25 202.5H35.75C36.1642 202.5 36.5 202.836 36.5 203.25C36.5 203.664 36.1642 204 35.75 204H20.25C19.8358 204 19.5 203.664 19.5 203.25Z" fill="#5F5F6A"/>
</svg>
