<svg width="56" height="224" viewBox="0 0 56 224" fill="none" xmlns="http://www.w3.org/2000/svg">
<path d="M21.2582 27.6736C21.4284 24.0973 24.3819 21.25 28.0004 21.25C31.5743 21.25 34.4994 24.0274 34.7351 27.5415C34.7571 27.5466 34.7792 27.552 34.8012 27.5579C36.7532 28.081 37.9116 30.0874 37.3886 32.0394L37.3415 32.215C36.8185 34.167 34.812 35.3254 32.86 34.8024C31.878 34.5392 31.2952 33.5298 31.5583 32.5477L32.5465 28.8597C32.6608 28.4332 32.9158 28.0821 33.2481 27.8428C33.165 25.016 30.8473 22.75 28.0004 22.75C25.2281 22.75 22.9577 24.8988 22.7638 27.6218C23.2894 27.828 23.7136 28.2724 23.8709 28.8597L24.8591 32.5477C25.1223 33.5298 24.5395 34.5392 23.5574 34.8024C21.6054 35.3254 19.599 34.167 19.076 32.215L19.0289 32.0394C18.5387 30.21 19.5254 28.3327 21.2582 27.6736Z" fill="#5F5F6A"/>
<path d="M22.7636 83.6217C23.2893 83.8279 23.7136 84.2724 23.8709 84.8597L24.8591 88.5477C25.1223 89.5298 24.5395 90.5392 23.5574 90.8024C21.6054 91.3254 19.599 90.167 19.076 88.215L19.0289 88.0394C18.5387 86.21 19.5253 84.3329 21.2579 83.6737C21.4281 80.0973 24.3817 77.25 28.0002 77.25C31.574 77.25 34.4991 80.0274 34.7349 83.5414C34.757 83.5465 34.7791 83.552 34.8012 83.5579C36.7532 84.0809 37.9116 86.0874 37.3885 88.0394L37.3415 88.215C36.8184 90.167 34.812 91.3254 32.86 90.8023C31.878 90.5392 31.2952 89.5298 31.5583 88.5477L32.5465 84.8596C32.6608 84.4333 32.9156 84.0822 33.2479 83.8429C33.1648 81.0161 30.8471 78.75 28.0002 78.75C25.2279 78.75 22.9575 80.8988 22.7636 83.6217ZM34.4129 85.0068C34.2311 84.9581 34.0441 85.066 33.9954 85.2478L33.0072 88.9359C32.9585 89.1178 33.0664 89.3047 33.2482 89.3535C34.4001 89.6621 35.584 88.9786 35.8926 87.8267L35.9396 87.6511C36.2483 86.4993 35.5647 85.3154 34.4129 85.0068ZM22.422 85.2479C22.3733 85.066 22.1864 84.9581 22.0045 85.0068C20.8527 85.3154 20.1692 86.4994 20.4778 87.6512L20.5249 87.8268C20.8335 88.9786 22.0174 89.6621 23.1692 89.3535C23.3511 89.3048 23.459 89.1178 23.4103 88.936L22.422 85.2479Z" fill="#5F5F6A"/>
<g opacity="0.5">
<path d="M33.995 85.2478C34.0438 85.066 34.2307 84.9581 34.4126 85.0068C35.5644 85.3154 36.2479 86.4993 35.9393 87.6511L35.8922 87.8267C35.5836 88.9785 34.3997 89.6621 33.2479 89.3535C33.066 89.3047 32.9581 89.1178 33.0068 88.9359L33.995 85.2478Z" fill="#5F5F6A"/>
<path d="M22.0041 85.0068C22.186 84.9581 22.3729 85.066 22.4217 85.2479L23.4099 88.936C23.4586 89.1178 23.3507 89.3048 23.1688 89.3535C22.017 89.6621 20.8331 88.9786 20.5245 87.8268L20.4774 87.6512C20.1688 86.4994 20.8523 85.3154 22.0041 85.0068Z" fill="#5F5F6A"/>
</g>
<path d="M22.7636 139.622C23.2893 139.828 23.7136 140.272 23.8709 140.86L24.8591 144.548C25.1223 145.53 24.5395 146.539 23.5574 146.802C21.6054 147.325 19.599 146.167 19.076 144.215L19.0289 144.039C18.5387 142.21 19.5253 140.333 21.2579 139.674C21.4282 136.097 24.3817 133.25 28.0002 133.25C31.574 133.25 34.4991 136.027 34.7349 139.541C34.757 139.546 34.7791 139.552 34.8012 139.558C36.7532 140.081 37.9116 142.087 37.3885 144.039L37.3415 144.215C36.8184 146.167 34.812 147.325 32.86 146.802C31.878 146.539 31.2952 145.53 31.5583 144.548L32.5465 140.86C32.6608 140.433 32.9156 140.082 33.2479 139.843C33.1648 137.016 30.8471 134.75 28.0002 134.75C25.2279 134.75 22.9575 136.899 22.7636 139.622ZM22.422 141.248C22.3733 141.066 22.1864 140.958 22.0045 141.007C20.8527 141.315 20.1692 142.499 20.4778 143.651L20.5249 143.827C20.8335 144.979 22.0174 145.662 23.1692 145.353C23.3511 145.305 23.459 145.118 23.4103 144.936L22.422 141.248ZM34.4129 141.007C34.2311 140.958 34.0441 141.066 33.9954 141.248L33.0072 144.936C32.9585 145.118 33.0664 145.305 33.2482 145.353C34.4001 145.662 35.584 144.979 35.8926 143.827L35.9396 143.651C36.2483 142.499 35.5647 141.315 34.4129 141.007Z" fill="#5F5F6A"/>
<path d="M22.5037 195.799C23.0345 195.941 23.4769 196.355 23.6294 196.924L24.6176 200.612C24.845 201.461 24.3413 202.333 23.4927 202.561C21.674 203.048 19.8047 201.969 19.3174 200.15L19.2703 199.975C18.7993 198.217 19.7922 196.411 21.5018 195.853C21.5801 192.331 24.4595 189.5 28.0001 189.5C31.5077 189.5 34.3663 192.278 34.4956 195.754C34.5757 195.763 34.6561 195.778 34.7364 195.799C36.555 196.287 37.6343 198.156 37.147 199.975L37.0999 200.15C36.6126 201.969 34.7433 203.048 32.9247 202.561C32.076 202.333 31.5723 201.461 31.7997 200.612L32.7879 196.924C32.8985 196.512 33.1615 196.181 33.5001 195.976C33.4869 192.949 31.0295 190.5 28.0001 190.5C25.0299 190.5 22.6095 192.855 22.5037 195.799ZM22.6635 197.183C22.579 196.868 22.255 196.681 21.9397 196.765C20.6546 197.11 19.8919 198.431 20.2363 199.716L20.2833 199.891C20.6277 201.177 21.9487 201.939 23.2338 201.595C23.5491 201.51 23.7361 201.186 23.6517 200.871L22.6635 197.183ZM34.4776 196.765C34.1623 196.681 33.8383 196.868 33.7539 197.183L32.7656 200.871C32.6812 201.186 32.8683 201.51 33.1835 201.595C34.4687 201.939 35.7896 201.177 36.134 199.891L36.1811 199.716C36.5254 198.431 35.7627 197.11 34.4776 196.765Z" fill="#5F5F6A"/>
</svg>
