<svg width="56" height="224" viewBox="0 0 56 224" fill="none" xmlns="http://www.w3.org/2000/svg">
<path d="M28.4036 22.145C28.1742 22.3446 27.8213 22.3446 27.5919 22.1451C25.81 20.5953 23.1625 20.5371 21.343 22.4737C17.359 27.5192 23.1422 31.9711 26.9581 34.6685C27.5831 35.1103 28.4123 35.1104 29.0377 34.6692C32.8812 31.9579 38.6386 27.5192 34.6525 22.4737C32.8351 20.5371 30.1847 20.5953 28.4036 22.145Z" fill="#5F5F6A"/>
<path opacity="0.5" d="M28.4036 78.145C28.1742 78.3446 27.8213 78.3446 27.5919 78.1451C25.81 76.5953 23.1625 76.5371 21.343 78.4737C17.359 83.5192 23.1422 87.9711 26.9581 90.6685C27.5831 91.1103 28.4123 91.1104 29.0377 90.6692C32.8812 87.9579 38.6386 83.5192 34.6525 78.4737C32.8351 76.5371 30.1847 76.5953 28.4036 78.145Z" fill="#5F5F6A"/>
<path d="M21.9114 78.9642C23.4352 77.3648 25.6079 77.4135 27.0997 78.711C27.6113 79.156 28.3842 79.1561 28.8959 78.7108C30.3871 77.4134 32.5624 77.365 34.084 78.9641C34.9714 80.097 35.28 81.1423 35.2477 82.1013C35.2147 83.0828 34.8216 84.0587 34.1621 85.0235C32.8273 86.9759 30.5376 88.6933 28.6054 90.0564C28.2392 90.3147 27.7566 90.3145 27.3911 90.0561C25.4725 88.6999 23.1827 86.9824 21.8444 85.0279C21.183 84.062 20.7875 83.0845 20.7525 82.1017C20.7184 81.1419 21.0252 80.0964 21.9114 78.9642ZM27.9977 77.5056C25.9333 75.7817 22.8814 75.741 20.7964 77.9601L20.7744 77.9836L20.7544 78.0089C19.6642 79.3895 19.2048 80.784 19.2535 82.155C19.3017 83.5104 19.8434 84.7605 20.6068 85.8754C22.1181 88.0826 24.6279 89.9398 26.5252 91.281C27.4097 91.9062 28.5855 91.9061 29.4701 91.2821C31.3814 89.9338 33.8921 88.0762 35.4004 85.87C36.1623 84.7555 36.7014 83.5063 36.7469 82.1517C36.7929 80.7819 36.3312 79.3887 35.241 78.0087L35.2212 77.9837L35.1994 77.9604C33.1163 75.7408 30.0614 75.7817 27.9977 77.5056Z" fill="#5F5F6A"/>
<path d="M21.9114 134.964C23.4352 133.365 25.6079 133.413 27.0997 134.711C27.6113 135.156 28.3842 135.156 28.8959 134.711C30.3871 133.413 32.5624 133.365 34.084 134.964C34.9714 136.097 35.28 137.142 35.2477 138.101C35.2147 139.083 34.8216 140.059 34.1621 141.023C32.8273 142.976 30.5376 144.693 28.6054 146.056C28.2392 146.315 27.7566 146.314 27.3911 146.056C25.4725 144.7 23.1827 142.982 21.8444 141.028C21.183 140.062 20.7875 139.084 20.7525 138.102C20.7184 137.142 21.0252 136.096 21.9114 134.964ZM27.9977 133.506C25.9333 131.782 22.8814 131.741 20.7964 133.96L20.7744 133.984L20.7544 134.009C19.6642 135.39 19.2048 136.784 19.2535 138.155C19.3017 139.51 19.8434 140.76 20.6068 141.875C22.1181 144.083 24.6279 145.94 26.5252 147.281C27.4097 147.906 28.5855 147.906 29.4701 147.282C31.3814 145.934 33.8921 144.076 35.4004 141.87C36.1623 140.756 36.7014 139.506 36.7469 138.152C36.7929 136.782 36.3312 135.389 35.241 134.009L35.2212 133.984L35.1994 133.96C33.1163 131.741 30.0614 131.782 27.9977 133.506Z" fill="#5F5F6A"/>
<path fill-rule="evenodd" clip-rule="evenodd" d="M21.722 190.801C20.799 191.976 20.4661 193.081 20.5027 194.111C20.5398 195.155 20.9598 196.178 21.6382 197.169C23.0053 199.166 25.3317 200.907 27.2468 202.26C27.6988 202.58 28.2969 202.58 28.7495 202.261C30.6782 200.9 33.0048 199.159 34.3685 197.165C35.0451 196.175 35.4625 195.153 35.4976 194.11C35.5322 193.081 35.1974 191.976 34.2735 190.8C32.6532 189.089 30.3196 189.141 28.7318 190.522C28.3142 190.886 27.6813 190.886 27.2637 190.522C25.6753 189.141 23.3445 189.089 21.722 190.801ZM20.9786 190.131C22.9946 187.986 25.9495 188.054 27.92 189.768C27.9381 189.784 27.965 189.795 27.9977 189.795C28.0304 189.795 28.0574 189.784 28.0754 189.768C30.0451 188.054 33.0031 187.985 35.0171 190.132L35.0316 190.147L35.0448 190.164C36.1038 191.504 36.5408 192.841 36.497 194.143C36.4536 195.436 35.9389 196.639 35.194 197.729C33.7146 199.893 31.2408 201.727 29.326 203.078C28.5277 203.641 27.4675 203.641 26.6695 203.077C24.7686 201.733 22.2955 199.899 20.813 197.734C20.0667 196.644 19.5493 195.439 19.5033 194.146C19.457 192.842 19.8918 191.505 20.9506 190.164L20.9639 190.147L20.9786 190.131Z" fill="#5F5F6A"/>
</svg>
