<svg width="56" height="168" viewBox="0 0 56 168" fill="none" xmlns="http://www.w3.org/2000/svg">
<path d="M31.0604 25.8303C31.624 25.6428 32.2331 25.6428 32.7967 25.8303C33.1648 25.9528 33.4694 26.1677 33.7636 26.4258C34.0462 26.6738 34.3655 27.0045 34.7486 27.4013C35.2068 27.8759 35.6642 28.3511 36.1231 28.8249C36.5709 29.287 36.7515 29.7753 36.749 30.4272C36.7427 32.0856 36.7076 33.2236 36.2323 34.1565C35.7769 35.0502 35.0502 35.7769 34.1564 36.2323C32.8114 36.9177 31.0905 36.75 29.633 36.75H26.367C25.2748 36.75 24.4093 36.75 23.7117 36.693C22.9983 36.6347 22.3947 36.5131 21.8435 36.2323C20.9498 35.7769 20.2231 35.0502 19.7677 34.1565C19.4731 33.5783 19.3575 32.9483 19.2987 32.1812C19.2096 31.0211 20.1939 30.082 20.9508 29.3192C21.2581 29.0095 21.582 28.7486 21.9845 28.6015C22.5941 28.3787 23.2629 28.3787 23.8726 28.6015C24.275 28.7486 24.5989 29.0095 24.9063 29.3192C25.2036 29.6189 25.5377 30.0198 25.9416 30.5044C25.9774 30.5475 26.0329 30.5867 26.0833 30.5345L29.1085 27.4013C29.4916 27.0045 29.8109 26.6738 30.0934 26.4258C30.3876 26.1677 30.6923 25.9528 31.0604 25.8303ZM31.0828 27.5533C30.8526 27.7553 30.5763 28.0406 30.166 28.4656L27.1624 31.5764C26.509 32.2531 25.4129 32.2131 24.8107 31.4904C24.38 30.9736 24.0874 30.6235 23.8415 30.3758C23.6004 30.1328 23.4606 30.048 23.3577 30.0104C23.0805 29.9091 22.7765 29.9091 22.4994 30.0104C22.3965 30.048 22.2566 30.1328 22.0155 30.3758C21.6462 30.7479 21.3194 31.1628 20.9841 31.5651C20.8229 31.7586 20.7789 31.8615 20.7972 32.1055C20.8466 32.7618 20.9439 33.1609 21.1042 33.4755C21.4158 34.087 21.913 34.5842 22.5245 34.8958C22.829 35.0509 23.2132 35.1473 23.8339 35.198C24.4633 35.2494 25.2675 35.25 26.4 35.25H29.6C30.7923 35.25 32.3652 35.4615 33.4755 34.8958C34.087 34.5842 34.5842 34.087 34.8958 33.4755C35.1782 32.9212 35.2423 32.1725 35.249 30.4215C35.2501 30.1475 35.2078 30.0365 35.0114 29.833L33.6911 28.4656C33.2808 28.0406 33.0045 27.7553 32.7743 27.5533C32.2592 27.1013 31.6204 27.0815 31.0828 27.5533Z" fill="#5F5F6A"/>
<path d="M26.367 19.25H29.633C30.7251 19.25 31.5906 19.25 32.2883 19.307C33.0017 19.3653 33.6053 19.4869 34.1565 19.7677C35.0502 20.2231 35.7769 20.9498 36.2323 21.8435C36.5131 22.3947 36.6347 22.9983 36.693 23.7117C36.75 24.4094 36.75 25.2748 36.75 26.367V29.633C36.75 30.7252 36.75 31.5906 36.693 32.2883C36.6347 33.0017 36.5131 33.6053 36.2323 34.1565C35.7769 35.0502 35.0502 35.7769 34.1564 36.2323C33.6053 36.5131 33.0017 36.6347 32.2883 36.693C31.5906 36.75 30.7251 36.75 29.633 36.75H26.367C25.2748 36.75 24.4093 36.75 23.7117 36.693C22.9983 36.6347 22.3947 36.5131 21.8435 36.2323C20.9498 35.7769 20.2231 35.0502 19.7677 34.1565C19.4869 33.6053 19.3653 33.0017 19.307 32.2883C19.25 31.5906 19.25 30.7251 19.25 29.633V26.367C19.25 25.2749 19.25 24.4094 19.307 23.7117C19.3653 22.9983 19.4869 22.3947 19.7677 21.8435C20.2231 20.9498 20.9498 20.2231 21.8435 19.7677C22.3947 19.4869 22.9983 19.3653 23.7117 19.307C24.4094 19.25 25.2749 19.25 26.367 19.25ZM23.8339 20.802C23.2133 20.8527 22.829 20.9491 22.5245 21.1042C21.913 21.4158 21.4158 21.913 21.1042 22.5245C20.9491 22.829 20.8527 23.2133 20.802 23.8339C20.7506 24.4633 20.75 25.2675 20.75 26.4V29.6C20.75 30.7325 20.7506 31.5367 20.802 32.1661C20.8527 32.7867 20.9491 33.171 21.1042 33.4755C21.4158 34.087 21.913 34.5842 22.5245 34.8958C22.829 35.0509 23.2132 35.1473 23.8339 35.198C24.4633 35.2494 25.2675 35.25 26.4 35.25H29.6C30.7325 35.25 31.5367 35.2494 32.1661 35.198C32.7867 35.1473 33.171 35.0509 33.4755 34.8958C34.087 34.5842 34.5842 34.087 34.8958 33.4755C35.0509 33.171 35.1473 32.7867 35.198 32.1661C35.2494 31.5367 35.25 30.7325 35.25 29.6V26.4C35.25 25.2675 35.2494 24.4633 35.198 23.8339C35.1473 23.2133 35.0509 22.829 34.8958 22.5245C34.5842 21.913 34.087 21.4158 33.4755 21.1042C33.171 20.9491 32.7867 20.8527 32.1661 20.802C31.5367 20.7506 30.7325 20.75 29.6 20.75H26.4C25.2675 20.75 24.4633 20.7506 23.8339 20.802Z" fill="#5F5F6A"/>
<path opacity="0.5" d="M26 23.75C25.3096 23.75 24.75 24.3096 24.75 25C24.75 25.6904 25.3096 26.25 26 26.25C26.6904 26.25 27.25 25.6904 27.25 25C27.25 24.3096 26.6904 23.75 26 23.75ZM23.25 25C23.25 23.4812 24.4812 22.25 26 22.25C27.5188 22.25 28.75 23.4812 28.75 25C28.75 26.5188 27.5188 27.75 26 27.75C24.4812 27.75 23.25 26.5188 23.25 25Z" fill="#5F5F6A"/>
<path d="M31.0604 81.8303C31.624 81.6428 32.2331 81.6428 32.7967 81.8303C33.1648 81.9528 33.4694 82.1677 33.7636 82.4258C34.0462 82.6738 34.3655 83.0045 34.7486 83.4013C35.2068 83.8759 35.6642 84.3511 36.1231 84.8249C36.5709 85.287 36.7515 85.7753 36.749 86.4272C36.7427 88.0856 36.7076 89.2236 36.2323 90.1565C35.7769 91.0502 35.0502 91.7769 34.1564 92.2323C32.8114 92.9177 31.0905 92.75 29.633 92.75H26.367C25.2748 92.75 24.4093 92.75 23.7117 92.693C22.9983 92.6347 22.3947 92.5131 21.8435 92.2323C20.9498 91.7769 20.2231 91.0502 19.7677 90.1565C19.4731 89.5783 19.3575 88.9483 19.2987 88.1812C19.2096 87.0211 20.1939 86.082 20.9508 85.3192C21.2581 85.0095 21.582 84.7486 21.9845 84.6015C22.5941 84.3787 23.2629 84.3787 23.8726 84.6015C24.275 84.7486 24.5989 85.0095 24.9063 85.3192C25.2036 85.6189 25.5377 86.0198 25.9416 86.5044C25.9774 86.5475 26.0329 86.5867 26.0833 86.5345L29.1085 83.4013C29.4916 83.0045 29.8109 82.6738 30.0934 82.4258C30.3876 82.1677 30.6923 81.9528 31.0604 81.8303ZM31.0828 83.5533C30.8526 83.7553 30.5763 84.0406 30.166 84.4656L27.1624 87.5764C26.509 88.2531 25.4129 88.2131 24.8107 87.4904C24.38 86.9736 24.0874 86.6235 23.8415 86.3758C23.6004 86.1328 23.4606 86.048 23.3577 86.0104C23.0805 85.9091 22.7765 85.9091 22.4994 86.0104C22.3965 86.048 22.2566 86.1328 22.0155 86.3758C21.6462 86.7479 21.3194 87.1628 20.9841 87.5651C20.8229 87.7586 20.7789 87.8615 20.7972 88.1055C20.8466 88.7618 20.9439 89.1609 21.1042 89.4755C21.4158 90.087 21.913 90.5842 22.5245 90.8958C22.829 91.0509 23.2132 91.1473 23.8339 91.198C24.4633 91.2494 25.2675 91.25 26.4 91.25H29.6C30.7923 91.25 32.3652 91.4615 33.4755 90.8958C34.087 90.5842 34.5842 90.087 34.8958 89.4755C35.1782 88.9212 35.2423 88.1725 35.249 86.4215C35.2501 86.1475 35.2078 86.0365 35.0114 85.833L33.6911 84.4656C33.2808 84.0406 33.0045 83.7553 32.7743 83.5533C32.2592 83.1013 31.6204 83.0815 31.0828 83.5533Z" fill="#5F5F6A"/>
<path d="M26.367 75.25H29.633C30.7251 75.25 31.5906 75.25 32.2883 75.307C33.0017 75.3653 33.6053 75.4869 34.1565 75.7677C35.0502 76.2231 35.7769 76.9498 36.2323 77.8435C36.5131 78.3947 36.6347 78.9983 36.693 79.7117C36.75 80.4094 36.75 81.2748 36.75 82.367V85.633C36.75 86.7252 36.75 87.5906 36.693 88.2883C36.6347 89.0017 36.5131 89.6053 36.2323 90.1565C35.7769 91.0502 35.0502 91.7769 34.1564 92.2323C33.6053 92.5131 33.0017 92.6347 32.2883 92.693C31.5906 92.75 30.7251 92.75 29.633 92.75H26.367C25.2748 92.75 24.4093 92.75 23.7117 92.693C22.9983 92.6347 22.3947 92.5131 21.8435 92.2323C20.9498 91.7769 20.2231 91.0502 19.7677 90.1565C19.4869 89.6053 19.3653 89.0017 19.307 88.2883C19.25 87.5906 19.25 86.7251 19.25 85.633V82.367C19.25 81.2749 19.25 80.4094 19.307 79.7117C19.3653 78.9983 19.4869 78.3947 19.7677 77.8435C20.2231 76.9498 20.9498 76.2231 21.8435 75.7677C22.3947 75.4869 22.9983 75.3653 23.7117 75.307C24.4094 75.25 25.2749 75.25 26.367 75.25ZM23.8339 76.802C23.2133 76.8527 22.829 76.9491 22.5245 77.1042C21.913 77.4158 21.4158 77.913 21.1042 78.5245C20.9491 78.829 20.8527 79.2133 20.802 79.8339C20.7506 80.4633 20.75 81.2675 20.75 82.4V85.6C20.75 86.7325 20.7506 87.5367 20.802 88.1661C20.8527 88.7867 20.9491 89.171 21.1042 89.4755C21.4158 90.087 21.913 90.5842 22.5245 90.8958C22.829 91.0509 23.2132 91.1473 23.8339 91.198C24.4633 91.2494 25.2675 91.25 26.4 91.25H29.6C30.7325 91.25 31.5367 91.2494 32.1661 91.198C32.7867 91.1473 33.171 91.0509 33.4755 90.8958C34.087 90.5842 34.5842 90.087 34.8958 89.4755C35.0509 89.171 35.1473 88.7867 35.198 88.1661C35.2494 87.5367 35.25 86.7325 35.25 85.6V82.4C35.25 81.2675 35.2494 80.4633 35.198 79.8339C35.1473 79.2133 35.0509 78.829 34.8958 78.5245C34.5842 77.913 34.087 77.4158 33.4755 77.1042C33.171 76.9491 32.7867 76.8527 32.1661 76.802C31.5367 76.7506 30.7325 76.75 29.6 76.75H26.4C25.2675 76.75 24.4633 76.7506 23.8339 76.802Z" fill="#5F5F6A"/>
<path d="M26 79.75C25.3096 79.75 24.75 80.3096 24.75 81C24.75 81.6904 25.3096 82.25 26 82.25C26.6904 82.25 27.25 81.6904 27.25 81C27.25 80.3096 26.6904 79.75 26 79.75ZM23.25 81C23.25 79.4812 24.4812 78.25 26 78.25C27.5188 78.25 28.75 79.4812 28.75 81C28.75 82.5188 27.5188 83.75 26 83.75C24.4812 83.75 23.25 82.5188 23.25 81Z" fill="#5F5F6A"/>
<path d="M23.5 137C23.5 135.619 24.6193 134.5 26 134.5C27.3807 134.5 28.5 135.619 28.5 137C28.5 138.381 27.3807 139.5 26 139.5C24.6193 139.5 23.5 138.381 23.5 137ZM26 135.5C25.1716 135.5 24.5 136.172 24.5 137C24.5 137.828 25.1716 138.5 26 138.5C26.8284 138.5 27.5 137.828 27.5 137C27.5 136.172 26.8284 135.5 26 135.5Z" fill="#5F5F6A"/>
<path d="M29.6226 131.5H26.3774C25.2764 131.5 24.4195 131.5 23.7321 131.556C23.0342 131.613 22.4671 131.731 21.957 131.99C21.1103 132.422 20.4219 133.11 19.9905 133.957C19.7306 134.467 19.6132 135.034 19.5562 135.732C19.5 136.419 19.5 137.276 19.5 138.377V141.623C19.5 142.569 19.5 143.335 19.5357 143.968C19.5381 144.033 19.5431 144.099 19.5484 144.168L19.5507 144.199C19.5858 144.665 19.646 145.073 19.7549 145.445C19.8164 145.655 19.8936 145.853 19.9905 146.043C20.4219 146.89 21.1103 147.578 21.957 148.01C22.4671 148.269 23.0342 148.387 23.7321 148.444C24.4195 148.5 25.2764 148.5 26.3773 148.5H29.6227C30.7236 148.5 31.5805 148.5 32.2679 148.444C32.9658 148.387 33.5329 148.269 34.043 148.01C34.8897 147.578 35.5781 146.89 36.0095 146.043C36.5063 145.068 36.5027 143.89 36.4994 142.802C36.499 142.687 36.4987 142.572 36.4989 142.46C36.5 142.198 36.5 141.919 36.5 141.623V138.377C36.5 137.276 36.5 136.419 36.4438 135.732C36.3868 135.034 36.2694 134.467 36.0095 133.957C35.5781 133.11 34.8897 132.422 34.043 131.99C33.5329 131.731 32.9658 131.613 32.2679 131.556C31.5805 131.5 30.7236 131.5 29.6226 131.5ZM20.5528 144.186L20.5474 144.116C20.5059 143.488 21.1498 142.866 21.6256 142.407C21.7019 142.334 21.7739 142.264 21.838 142.2C22.0902 141.946 22.2607 141.831 22.4136 141.776C22.7461 141.654 23.1109 141.654 23.4435 141.776C23.5963 141.831 23.7668 141.946 24.019 142.2C24.2743 142.457 24.5749 142.817 25.0027 143.33C25.5097 143.939 26.4325 143.972 26.9825 143.403L29.9861 140.292C30.0734 140.201 30.1639 140.1 30.2579 139.995C30.6029 139.609 30.9955 139.169 31.455 139.016C31.7624 138.914 32.0946 138.914 32.402 139.016C33.1753 139.274 33.9009 140.145 34.5325 140.903C34.7656 141.182 34.986 141.447 35.1912 141.659C35.443 141.92 35.5003 142.07 35.499 142.422C35.4957 143.291 35.4792 143.929 35.424 144.427C35.3674 144.932 35.2714 145.289 35.1185 145.589C34.783 146.248 34.2475 146.783 33.589 147.119C33.2434 147.295 32.8226 147.395 32.1865 147.447C31.5446 147.5 30.7284 147.5 29.6 147.5H26.4C25.2716 147.5 24.4554 147.5 23.8135 147.447C23.1774 147.395 22.7566 147.295 22.411 147.119C21.7525 146.783 21.217 146.248 20.8815 145.589C20.8595 145.546 20.8386 145.501 20.8189 145.456C20.681 145.135 20.5983 144.743 20.5528 144.186ZM35.5 140.54L34.5752 139.582C34.1865 139.179 33.8734 138.855 33.5987 138.614C33.3162 138.366 33.0408 138.175 32.7177 138.068C32.2054 137.897 31.6516 137.897 31.1393 138.068C30.8162 138.175 30.5408 138.366 30.2583 138.614C29.9837 138.855 29.6705 139.179 29.2819 139.582L26.2631 142.708C26.1264 142.85 25.897 142.841 25.7709 142.69L25.7559 142.672C25.3465 142.181 25.0184 141.787 24.7288 141.495C24.4325 141.197 24.1393 140.965 23.7867 140.836C23.2325 140.634 22.6245 140.634 22.0703 140.836C21.7177 140.965 21.4245 141.197 21.1282 141.495C20.9393 141.686 20.734 141.919 20.5004 142.195C20.5 142.007 20.5 141.809 20.5 141.6V138.4C20.5 137.272 20.5004 136.455 20.5528 135.814C20.6048 135.177 20.7054 134.757 20.8815 134.411C21.217 133.752 21.7525 133.217 22.411 132.881C22.7566 132.705 23.1774 132.605 23.8135 132.553C24.4554 132.5 25.2716 132.5 26.4 132.5H29.6C30.7284 132.5 31.5446 132.5 32.1865 132.553C32.8226 132.605 33.2434 132.705 33.589 132.881C34.2475 133.217 34.783 133.752 35.1185 134.411C35.2946 134.757 35.3952 135.177 35.4472 135.814C35.4996 136.455 35.5 137.272 35.5 138.4V140.54Z" fill="#5F5F6A"/>
</svg>
