<svg width="56" height="168" viewBox="0 0 56 168" fill="none" xmlns="http://www.w3.org/2000/svg">
<path d="M28.633 19.25H25.367C24.2749 19.25 23.4094 19.25 22.7117 19.307C21.9983 19.3653 21.3947 19.4869 20.8435 19.7677C19.9498 20.2231 19.2231 20.9498 18.7677 21.8435C18.4869 22.3947 18.3653 22.9983 18.307 23.7117C18.25 24.4094 18.25 25.2748 18.25 26.367V29.633C18.25 30.5703 18.25 31.3407 18.286 31.9813C18.2887 32.0504 18.2938 32.1169 18.2987 32.1812L18.3 32.1981C18.3022 32.2285 18.3046 32.2585 18.307 32.2883C18.3653 33.0017 18.4869 33.6053 18.7677 34.1565C18.9954 34.6033 19.2909 35.0084 19.6412 35.3588C19.9916 35.7091 20.3967 36.0046 20.8435 36.2323C20.9124 36.2674 20.9822 36.3 21.0528 36.3303C21.1582 36.3755 21.2657 36.4156 21.3756 36.4513C21.7814 36.5827 22.2206 36.6529 22.7118 36.693C23.4094 36.75 24.2748 36.75 25.3669 36.75H25.4C25.8142 36.75 26.1501 36.4142 26.1501 36C26.1501 35.5858 25.8142 35.25 25.4 35.25C24.2675 35.25 23.4633 35.2494 22.8339 35.198C22.2133 35.1473 21.829 35.0509 21.5245 34.8958C21.2856 34.774 21.064 34.6239 20.8643 34.4497C20.5528 34.1782 20.2941 33.848 20.1043 33.4755C19.944 33.1609 19.8467 32.7618 19.7973 32.1055C19.7964 32.0935 19.7955 32.0821 19.7947 32.0714C19.7912 32.0215 19.7879 31.9705 19.7848 31.9183C19.7846 31.9122 19.7844 31.9065 19.7843 31.9009C19.7835 31.8705 19.785 31.8618 19.7854 31.859C19.7885 31.8392 19.7998 31.8039 19.8088 31.786C19.8088 31.786 19.8097 31.7841 19.8126 31.7796C19.816 31.7743 19.8228 31.7643 19.8359 31.7469C19.8658 31.7075 19.9073 31.6574 19.9842 31.5651L20.0464 31.4904C20.4772 30.9736 20.7697 30.6236 21.0156 30.3758C21.2567 30.1328 21.3965 30.048 21.4995 30.0104C21.7766 29.9091 22.0806 29.9091 22.3577 30.0104C22.4606 30.048 22.6005 30.1328 22.8416 30.3758C23.0875 30.6236 23.38 30.9736 23.8107 31.4904C24.4129 32.2131 25.5091 32.2532 26.1625 31.5764L29.1661 28.4656C29.5763 28.0407 29.8526 27.7553 30.0829 27.5533C30.3067 27.3568 30.436 27.2862 30.534 27.2536C30.7902 27.1684 31.067 27.1684 31.3232 27.2536C31.4537 27.2971 31.6248 27.4016 31.98 27.7434C32.2784 28.0307 32.7532 28.0215 33.0404 27.7231C33.3277 27.4246 33.3186 26.9499 33.0201 26.6626C32.6379 26.2947 32.2641 25.9858 31.7967 25.8303C31.2332 25.6428 30.624 25.6428 30.0605 25.8303C29.6923 25.9528 29.3877 26.1677 29.0935 26.4258C28.811 26.6738 28.4917 27.0045 28.1086 27.4013L25.0834 30.5345C25.0499 30.5692 24.9939 30.5671 24.9631 30.5301L24.9416 30.5044C24.5378 30.0198 24.2037 29.6189 23.9063 29.3192C23.599 29.0095 23.2751 28.7486 22.8727 28.6015C22.263 28.3787 21.5942 28.3787 20.9845 28.6015C20.5821 28.7486 20.2582 29.0095 19.9508 29.3192C19.8858 29.3848 19.8189 29.4552 19.75 29.5303V26.4C19.75 25.2675 19.7506 24.4633 19.802 23.8339C19.8527 23.2133 19.9491 22.829 20.1042 22.5245C20.4158 21.913 20.913 21.4158 21.5245 21.1042C21.829 20.9491 22.2133 20.8527 22.8339 20.802C23.4633 20.7506 24.2675 20.75 25.4 20.75H28.6C29.7325 20.75 30.5367 20.7506 31.1661 20.802C31.7867 20.8527 32.171 20.9491 32.4755 21.1042C33.087 21.4158 33.5842 21.913 33.8958 22.5245C34.0509 22.829 34.1473 23.2133 34.198 23.8339C34.2494 24.4633 34.25 25.2675 34.25 26.4C34.25 26.8142 34.5858 27.15 35 27.15C35.4142 27.15 35.75 26.8142 35.75 26.4V26.367C35.75 25.2748 35.75 24.4094 35.693 23.7117C35.6347 22.9983 35.5131 22.3947 35.2323 21.8435C34.7769 20.9498 34.0502 20.2231 33.1565 19.7677C32.6053 19.4869 32.0017 19.3653 31.2883 19.307C30.5906 19.25 29.7251 19.25 28.633 19.25Z" fill="#5F5F6A"/>
<g opacity="0.5">
<path d="M25 23.75C24.3096 23.75 23.75 24.3096 23.75 25C23.75 25.6904 24.3096 26.25 25 26.25C25.6904 26.25 26.25 25.6904 26.25 25C26.25 24.3096 25.6904 23.75 25 23.75ZM22.25 25C22.25 23.4812 23.4812 22.25 25 22.25C26.5188 22.25 27.75 23.4812 27.75 25C27.75 26.5188 26.5188 27.75 25 27.75C23.4812 27.75 22.25 26.5188 22.25 25Z" fill="#5F5F6A"/>
<path d="M32.8109 30L32.834 30C33.1698 30 33.4421 30.2702 33.4421 30.6034C33.4421 30.9367 33.1698 31.2069 32.834 31.2069C32.202 31.2069 31.7351 31.2073 31.3661 31.2366C30.9956 31.2659 30.7928 31.3206 30.6656 31.3881C30.3638 31.5484 30.1129 31.8071 29.954 32.1321C29.88 32.2834 29.8286 32.4846 29.801 32.8359C29.7812 33.0885 29.7752 33.3918 29.7734 33.7803C30.0443 33.5115 30.4336 33.3267 30.762 33.6526C30.9995 33.8883 30.9995 34.2704 30.762 34.506L29.5945 35.6646C29.3589 35.8984 28.937 35.8879 28.7135 35.6428L27.6572 34.4842C27.4319 34.237 27.4511 33.8554 27.7001 33.6318C27.9487 33.4087 28.3322 33.4272 28.5577 33.673C28.5603 33.3172 28.5676 33.0093 28.5885 32.7423C28.6215 32.3208 28.6913 31.9497 28.8598 31.6052C29.1273 31.0582 29.5568 30.608 30.0919 30.3239C30.4404 30.1389 30.8425 30.0673 31.2693 30.0335C31.6922 30 32.2073 30 32.8109 30ZM35.2865 31.3572L36.3428 32.5158C36.5681 32.763 36.5489 33.1446 36.2999 33.3682C36.0513 33.5913 35.6678 33.5728 35.4423 33.327C35.4397 33.6828 35.4324 33.9907 35.4115 34.2577C35.3785 34.6792 35.3087 35.0503 35.1402 35.3948C34.8727 35.9418 34.4432 36.392 33.9081 36.6761C33.5596 36.8611 33.1575 36.9327 32.7307 36.9665C32.3078 37 31.7927 37 31.1891 37H31.166C30.8302 37 30.5579 36.7298 30.5579 36.3966C30.5579 36.0633 30.8302 35.7931 31.166 35.7931C31.798 35.7931 32.2649 35.7927 32.6339 35.7634C33.0044 35.7341 33.2072 35.6794 33.3344 35.6119C33.6362 35.4516 33.8871 35.1929 34.046 34.8679C34.12 34.7166 34.1714 34.5154 34.199 34.1641C34.2188 33.9115 34.2248 33.6082 34.2266 33.2197C33.9557 33.4885 33.5664 33.6733 33.238 33.3474C33.0005 33.1117 33.0005 32.7296 33.238 32.494L34.4055 31.3354C34.6411 31.1016 35.063 31.1121 35.2865 31.3572Z" fill="#5F5F6A"/>
</g>
<path d="M25 79.75C24.3096 79.75 23.75 80.3096 23.75 81C23.75 81.6904 24.3096 82.25 25 82.25C25.6904 82.25 26.25 81.6904 26.25 81C26.25 80.3096 25.6904 79.75 25 79.75ZM22.25 81C22.25 79.4812 23.4812 78.25 25 78.25C26.5188 78.25 27.75 79.4812 27.75 81C27.75 82.5188 26.5188 83.75 25 83.75C23.4812 83.75 22.25 82.5188 22.25 81Z" fill="#5F5F6A"/>
<path d="M32.8109 86H32.834C33.1698 86 33.4421 86.2702 33.4421 86.6034C33.4421 86.9367 33.1698 87.2069 32.834 87.2069C32.202 87.2069 31.7351 87.2073 31.3661 87.2366C30.9956 87.2659 30.7928 87.3206 30.6656 87.3881C30.3638 87.5484 30.1129 87.8071 29.954 88.1321C29.88 88.2834 29.8286 88.4846 29.801 88.8359C29.7812 89.0885 29.7752 89.3918 29.7734 89.7803C30.0443 89.5115 30.4336 89.3267 30.762 89.6526C30.9995 89.8883 30.9995 90.2704 30.762 90.506L29.5945 91.6646C29.3589 91.8984 28.937 91.8879 28.7135 91.6428L27.6572 90.4842C27.4319 90.237 27.4511 89.8554 27.7001 89.6318C27.9487 89.4087 28.3322 89.4272 28.5577 89.673C28.5603 89.3172 28.5676 89.0093 28.5885 88.7423C28.6215 88.3208 28.6913 87.9497 28.8598 87.6052C29.1273 87.0582 29.5568 86.608 30.0919 86.3239C30.4404 86.1389 30.8425 86.0673 31.2693 86.0335C31.6922 86 32.2073 86 32.8109 86ZM35.2865 87.3572L36.3428 88.5158C36.5681 88.763 36.5489 89.1446 36.2999 89.3682C36.0513 89.5913 35.6678 89.5728 35.4423 89.327C35.4397 89.6828 35.4324 89.9907 35.4115 90.2577C35.3785 90.6792 35.3087 91.0503 35.1402 91.3948C34.8727 91.9418 34.4432 92.392 33.9081 92.6761C33.5596 92.8611 33.1575 92.9327 32.7307 92.9665C32.3078 93 31.7927 93 31.1891 93H31.166C30.8302 93 30.5579 92.7298 30.5579 92.3966C30.5579 92.0633 30.8302 91.7931 31.166 91.7931C31.798 91.7931 32.2649 91.7927 32.6339 91.7634C33.0044 91.7341 33.2072 91.6794 33.3344 91.6119C33.6362 91.4516 33.8871 91.1929 34.046 90.8679C34.12 90.7166 34.1714 90.5154 34.199 90.1641C34.2188 89.9115 34.2248 89.6082 34.2266 89.2197C33.9557 89.4885 33.5664 89.6733 33.238 89.3474C33.0005 89.1117 33.0005 88.7296 33.238 88.494L34.4055 87.3354C34.6411 87.1016 35.063 87.1121 35.2865 87.3572Z" fill="#5F5F6A"/>
<path d="M28.633 75.25H25.367C24.2749 75.25 23.4094 75.25 22.7117 75.307C21.9983 75.3653 21.3947 75.4869 20.8435 75.7677C19.9498 76.2231 19.2231 76.9498 18.7677 77.8435C18.4869 78.3947 18.3653 78.9983 18.307 79.7117C18.25 80.4094 18.25 81.2748 18.25 82.367V85.633C18.25 86.5703 18.25 87.3407 18.286 87.9813C18.2887 88.0504 18.2938 88.1169 18.2987 88.1812L18.3 88.1981C18.3022 88.2285 18.3046 88.2585 18.307 88.2883C18.3653 89.0017 18.4869 89.6053 18.7677 90.1565C18.9954 90.6033 19.2909 91.0084 19.6412 91.3588C19.9916 91.7091 20.3967 92.0046 20.8435 92.2323C20.9124 92.2674 20.9822 92.3 21.0528 92.3303C21.1582 92.3755 21.2657 92.4156 21.3756 92.4513C21.7814 92.5827 22.2206 92.6529 22.7118 92.693C23.4094 92.75 24.2748 92.75 25.3669 92.75H25.4C25.8142 92.75 26.1501 92.4142 26.1501 92C26.1501 91.5858 25.8142 91.25 25.4 91.25C24.2675 91.25 23.4633 91.2494 22.8339 91.198C22.2133 91.1473 21.829 91.0509 21.5245 90.8958C21.2856 90.774 21.064 90.6239 20.8643 90.4497C20.5528 90.1782 20.2941 89.848 20.1043 89.4755C19.944 89.1609 19.8467 88.7618 19.7973 88.1055C19.7964 88.0935 19.7955 88.0821 19.7947 88.0714C19.7912 88.0215 19.7879 87.9705 19.7848 87.9183C19.7846 87.9122 19.7844 87.9065 19.7843 87.9009C19.7835 87.8705 19.785 87.8618 19.7854 87.859C19.7885 87.8392 19.7998 87.8039 19.8088 87.786C19.8088 87.786 19.8097 87.7841 19.8126 87.7796C19.816 87.7743 19.8228 87.7643 19.8359 87.7469C19.8658 87.7075 19.9073 87.6574 19.9842 87.5651L20.0464 87.4904C20.4772 86.9736 20.7697 86.6236 21.0156 86.3758C21.2567 86.1328 21.3965 86.048 21.4995 86.0104C21.7766 85.9091 22.0806 85.9091 22.3577 86.0104C22.4606 86.048 22.6005 86.1328 22.8416 86.3758C23.0875 86.6236 23.38 86.9736 23.8107 87.4904C24.4129 88.2131 25.5091 88.2532 26.1625 87.5764L29.1661 84.4656C29.5763 84.0407 29.8526 83.7553 30.0829 83.5533C30.3067 83.3568 30.436 83.2862 30.534 83.2536C30.7902 83.1684 31.067 83.1684 31.3232 83.2536C31.4537 83.2971 31.6248 83.4016 31.98 83.7434C32.2784 84.0307 32.7532 84.0215 33.0404 83.7231C33.3277 83.4246 33.3186 82.9499 33.0201 82.6626C32.6379 82.2947 32.2641 81.9858 31.7967 81.8303C31.2332 81.6428 30.624 81.6428 30.0605 81.8303C29.6923 81.9528 29.3877 82.1677 29.0935 82.4258C28.811 82.6738 28.4917 83.0045 28.1086 83.4013L25.0834 86.5345C25.0499 86.5692 24.9939 86.5671 24.9631 86.5301L24.9416 86.5044C24.5378 86.0198 24.2037 85.6189 23.9063 85.3192C23.599 85.0095 23.2751 84.7486 22.8727 84.6015C22.263 84.3787 21.5942 84.3787 20.9845 84.6015C20.5821 84.7486 20.2582 85.0095 19.9508 85.3192C19.8858 85.3848 19.8189 85.4552 19.75 85.5303V82.4C19.75 81.2675 19.7506 80.4633 19.802 79.8339C19.8527 79.2133 19.9491 78.829 20.1042 78.5245C20.4158 77.913 20.913 77.4158 21.5245 77.1042C21.829 76.9491 22.2133 76.8527 22.8339 76.802C23.4633 76.7506 24.2675 76.75 25.4 76.75H28.6C29.7325 76.75 30.5367 76.7506 31.1661 76.802C31.7867 76.8527 32.171 76.9491 32.4755 77.1042C33.087 77.4158 33.5842 77.913 33.8958 78.5245C34.0509 78.829 34.1473 79.2133 34.198 79.8339C34.2494 80.4633 34.25 81.2675 34.25 82.4C34.25 82.8142 34.5858 83.15 35 83.15C35.4142 83.15 35.75 82.8142 35.75 82.4V82.367C35.75 81.2748 35.75 80.4094 35.693 79.7117C35.6347 78.9983 35.5131 78.3947 35.2323 77.8435C34.7769 76.9498 34.0502 76.2231 33.1565 75.7677C32.6053 75.4869 32.0017 75.3653 31.2883 75.307C30.5906 75.25 29.7251 75.25 28.633 75.25Z" fill="#5F5F6A"/>
<path d="M25.3774 131.5H28.6226C29.7236 131.5 30.5805 131.5 31.2679 131.556C31.9658 131.613 32.5329 131.731 33.043 131.99C33.8897 132.422 34.5781 133.11 35.0095 133.957C35.2694 134.467 35.3868 135.034 35.4438 135.732C35.5 136.419 35.5 137.276 35.5 138.377V138.4C35.5 138.676 35.2761 138.9 35 138.9C34.7239 138.9 34.5 138.676 34.5 138.4C34.5 137.272 34.4996 136.455 34.4472 135.814C34.3952 135.177 34.2946 134.757 34.1185 134.411C33.783 133.752 33.2475 133.217 32.589 132.881C32.2434 132.705 31.8226 132.605 31.1865 132.553C30.5446 132.5 29.7284 132.5 28.6 132.5H25.4C24.2716 132.5 23.4554 132.5 22.8135 132.553C22.1774 132.605 21.7566 132.705 21.411 132.881C20.7525 133.217 20.217 133.752 19.8815 134.411C19.7054 134.757 19.6048 135.177 19.5528 135.814C19.5004 136.455 19.5 137.272 19.5 138.4V141.601C19.5 141.809 19.5 142.007 19.5004 142.195C19.7339 141.919 19.9393 141.686 20.1282 141.495C20.4245 141.197 20.7177 140.965 21.0702 140.836C21.6245 140.634 22.2325 140.634 22.7867 140.836C23.1392 140.965 23.4325 141.197 23.7288 141.495C24.0184 141.787 24.3465 142.181 24.7559 142.672L24.7709 142.69C24.8969 142.841 25.1263 142.85 25.2631 142.708L28.2819 139.582C28.6705 139.179 28.9836 138.855 29.2583 138.614C29.5408 138.366 29.8161 138.175 30.1393 138.068C30.6516 137.897 31.2054 137.897 31.7177 138.068C32.1289 138.204 32.4689 138.479 32.8467 138.843C33.0456 139.034 33.0517 139.351 32.8602 139.55C32.6687 139.749 32.3522 139.755 32.1532 139.563C31.7935 139.217 31.5887 139.079 31.402 139.016C31.0946 138.914 30.7624 138.914 30.455 139.016C30.3119 139.064 30.1534 139.159 29.9179 139.365C29.678 139.576 29.3934 139.87 28.9861 140.292L25.9825 143.403C25.4324 143.972 24.5096 143.939 24.0027 143.33C23.5748 142.817 23.2743 142.457 23.0189 142.2C22.7668 141.946 22.5963 141.831 22.4434 141.776C22.1109 141.654 21.7461 141.654 21.4135 141.776C21.2607 141.831 21.0902 141.946 20.838 142.2C20.5827 142.457 20.2821 142.817 19.8543 143.33L19.792 143.405C19.6331 143.596 19.6052 143.634 19.5851 143.674C19.5646 143.715 19.5454 143.775 19.5383 143.82C19.5348 143.843 19.5327 143.869 19.5348 143.925C19.5543 144.265 19.5844 144.549 19.6286 144.794C19.6335 144.821 19.6386 144.848 19.6439 144.874C19.6479 144.894 19.6519 144.913 19.6561 144.933C19.6853 145.067 19.7195 145.19 19.7595 145.303C19.7952 145.405 19.8356 145.499 19.8814 145.589C20.217 146.248 20.7524 146.783 21.411 147.119C21.7566 147.295 22.1774 147.395 22.8135 147.447C23.4554 147.5 24.2716 147.5 25.3999 147.5C25.6761 147.5 25.8999 147.724 25.8999 148C25.8999 148.276 25.6761 148.5 25.3999 148.5H25.3773C24.2763 148.5 23.4194 148.5 22.732 148.444C22.0341 148.387 21.467 148.269 20.957 148.01C20.1102 147.578 19.4218 146.89 18.9904 146.043C18.9237 145.912 18.8661 145.777 18.8164 145.636C18.8025 145.596 18.7892 145.557 18.7766 145.516C18.6539 145.126 18.588 144.695 18.5507 144.199L18.5502 144.193C18.5443 144.114 18.5387 144.04 18.5359 143.974C18.5 143.341 18.5 142.571 18.5 141.616V138.377C18.5 137.276 18.5 136.419 18.5562 135.732C18.6132 135.034 18.7306 134.467 18.9905 133.957C19.4219 133.11 20.1103 132.422 20.957 131.99C21.4671 131.731 22.0342 131.613 22.7321 131.556C23.4195 131.5 24.2764 131.5 25.3774 131.5ZM25 135.5C24.1716 135.5 23.5 136.172 23.5 137C23.5 137.828 24.1716 138.5 25 138.5C25.8284 138.5 26.5 137.828 26.5 137C26.5 136.172 25.8284 135.5 25 135.5ZM22.5 137C22.5 135.619 23.6193 134.5 25 134.5C26.3807 134.5 27.5 135.619 27.5 137C27.5 138.381 26.3807 139.5 25 139.5C23.6193 139.5 22.5 138.381 22.5 137Z" fill="#5F5F6A"/>
<path d="M33.3663 142H33.3816C33.5947 142 33.7673 142.174 33.7673 142.389C33.7673 142.604 33.5947 142.778 33.3816 142.778C32.7175 142.778 32.212 142.778 31.8094 142.81C31.4058 142.843 31.1493 142.905 30.9681 143.003C30.5997 143.202 30.2967 143.521 30.1057 143.918C30.0075 144.122 29.9493 144.374 29.919 144.767C29.8884 145.163 29.8882 145.668 29.8882 146.371V146.428L30.464 145.847C30.6146 145.695 30.8588 145.695 31.0095 145.847C31.1601 145.999 31.1601 146.245 31.0095 146.397L29.7752 147.642C29.7005 147.717 29.5984 147.758 29.4928 147.755C29.3872 147.753 29.2873 147.707 29.2164 147.628L28.0997 146.383C27.9568 146.224 27.969 145.978 28.1269 145.834C28.2849 145.69 28.5288 145.702 28.6717 145.861L29.1167 146.357V146.355C29.1167 145.672 29.1167 145.136 29.1499 144.706C29.1837 144.269 29.2536 143.907 29.4117 143.578C29.6715 143.038 30.0878 142.596 30.6042 142.317C30.9258 142.144 31.3087 142.07 31.748 142.035C32.1848 142 32.7207 142 33.3663 142ZM35.5072 143.245C35.6128 143.247 35.7127 143.293 35.7836 143.372L36.9003 144.617C37.0432 144.776 37.031 145.022 36.8731 145.166C36.7151 145.31 36.4712 145.298 36.3283 145.139L35.8833 144.643V144.645C35.8833 145.328 35.8833 145.864 35.8501 146.294C35.8163 146.731 35.7464 147.093 35.5883 147.422C35.3285 147.962 34.9122 148.404 34.3958 148.683C34.0742 148.856 33.6913 148.93 33.252 148.965C32.8152 149 32.2793 149 31.6337 149H31.6184C31.4053 149 31.2327 148.826 31.2327 148.611C31.2327 148.396 31.4053 148.222 31.6184 148.222C32.2825 148.222 32.788 148.222 33.1906 148.19C33.5942 148.157 33.8507 148.095 34.0319 147.997C34.4003 147.798 34.7033 147.479 34.8943 147.082C34.9925 146.878 35.0507 146.626 35.081 146.233C35.1116 145.837 35.1118 145.332 35.1118 144.629V144.572L34.536 145.153C34.3854 145.305 34.1412 145.305 33.9905 145.153C33.8399 145.001 33.8399 144.755 33.9905 144.603L35.2248 143.358C35.2995 143.283 35.4016 143.242 35.5072 143.245Z" fill="#5F5F6A"/>
</svg>
