<svg width="56" height="168" viewBox="0 0 56 168" fill="none" xmlns="http://www.w3.org/2000/svg">
<path d="M28.633 19.25H25.367C24.2749 19.25 23.4094 19.25 22.7117 19.307C21.9983 19.3653 21.3947 19.4869 20.8435 19.7677C19.9498 20.2231 19.2231 20.9498 18.7677 21.8435C18.4869 22.3947 18.3653 22.9983 18.307 23.7117C18.25 24.4094 18.25 25.2748 18.25 26.367V29.633C18.25 30.5703 18.25 31.3407 18.286 31.9813C18.2887 32.0504 18.2938 32.1169 18.2987 32.1812L18.3 32.1981C18.3022 32.2285 18.3046 32.2585 18.307 32.2883C18.3653 33.0017 18.4869 33.6053 18.7677 34.1565C18.9954 34.6033 19.2909 35.0084 19.6412 35.3588C19.9916 35.7091 20.3967 36.0046 20.8435 36.2323C20.9124 36.2674 20.9822 36.3 21.0528 36.3303C21.1582 36.3755 21.2657 36.4156 21.3756 36.4513C21.7814 36.5827 22.2206 36.6529 22.7118 36.693C23.4093 36.75 24.2748 36.75 25.3668 36.75H28.0001C28.4143 36.75 28.7501 36.4142 28.7501 36C28.7501 35.5858 28.4142 35.25 28 35.25H25.4C24.2675 35.25 23.4633 35.2494 22.8339 35.198C22.2133 35.1473 21.829 35.0509 21.5245 34.8958C21.2856 34.774 21.064 34.6239 20.8643 34.4497C20.5528 34.1782 20.2941 33.848 20.1043 33.4755C19.944 33.1609 19.8467 32.7618 19.7973 32.1055L19.7947 32.0714C19.7912 32.0215 19.7879 31.9705 19.7848 31.9183L19.7843 31.9009C19.7835 31.8705 19.785 31.8618 19.7854 31.859C19.7885 31.8392 19.7998 31.8039 19.8088 31.786C19.8088 31.786 19.8097 31.7841 19.8126 31.7796C19.816 31.7743 19.8228 31.7643 19.8359 31.7469C19.8658 31.7075 19.9073 31.6574 19.9842 31.5651L20.0464 31.4904C20.4772 30.9736 20.7697 30.6236 21.0156 30.3758C21.2567 30.1328 21.3965 30.048 21.4995 30.0104C21.7766 29.9091 22.0806 29.9091 22.3577 30.0104C22.4606 30.048 22.6005 30.1328 22.8416 30.3758C23.0875 30.6236 23.38 30.9736 23.8107 31.4904C24.4129 32.2131 25.5091 32.2532 26.1625 31.5764L29.1661 28.4656C29.5763 28.0407 29.8526 27.7553 30.0829 27.5533C30.3067 27.3568 30.436 27.2862 30.534 27.2536C30.7902 27.1684 31.067 27.1684 31.3232 27.2536C31.4537 27.2971 31.6248 27.4016 31.98 27.7434C32.2784 28.0307 32.7532 28.0215 33.0404 27.7231C33.3277 27.4246 33.3186 26.9499 33.0201 26.6626C32.6379 26.2947 32.2641 25.9858 31.7967 25.8303C31.2332 25.6428 30.624 25.6428 30.0605 25.8303C29.6923 25.9528 29.3877 26.1677 29.0935 26.4258C28.811 26.6738 28.4917 27.0045 28.1086 27.4013L25.0834 30.5345C25.0499 30.5692 24.9939 30.5671 24.9631 30.5301L24.9416 30.5044C24.5378 30.0198 24.2037 29.6189 23.9063 29.3192C23.599 29.0095 23.2751 28.7486 22.8727 28.6015C22.263 28.3787 21.5942 28.3787 20.9845 28.6015C20.5821 28.7486 20.2582 29.0095 19.9508 29.3192C19.8858 29.3848 19.8189 29.4552 19.75 29.5303V26.4C19.75 25.2675 19.7506 24.4633 19.802 23.8339C19.8527 23.2133 19.9491 22.829 20.1042 22.5245C20.4158 21.913 20.913 21.4158 21.5245 21.1042C21.829 20.9491 22.2133 20.8527 22.8339 20.802C23.4633 20.7506 24.2675 20.75 25.4 20.75H28.6C29.7325 20.75 30.5367 20.7506 31.1661 20.802C31.7867 20.8527 32.171 20.9491 32.4755 21.1042C33.087 21.4158 33.5842 21.913 33.8958 22.5245C34.0509 22.829 34.1473 23.2133 34.198 23.8339C34.2494 24.4633 34.25 25.2675 34.25 26.4C34.25 26.8142 34.5858 27.15 35 27.15C35.4142 27.15 35.75 26.8142 35.75 26.4V26.367C35.75 25.2748 35.75 24.4094 35.693 23.7117C35.6347 22.9983 35.5131 22.3947 35.2323 21.8435C34.7769 20.9498 34.0502 20.2231 33.1565 19.7677C32.6053 19.4869 32.0017 19.3653 31.2883 19.307C30.5906 19.25 29.7251 19.25 28.633 19.25Z" fill="#5F5F6A"/>
<g opacity="0.5">
<path d="M35.25 29C35.25 28.5858 34.9142 28.25 34.5 28.25C34.0858 28.25 33.75 28.5858 33.75 29V29.25H31.5C31.0858 29.25 30.75 29.5858 30.75 30C30.75 30.4142 31.0858 30.75 31.5 30.75H37.5C37.9142 30.75 38.25 30.4142 38.25 30C38.25 29.5858 37.9142 29.25 37.5 29.25H35.25V29Z" fill="#5F5F6A"/>
<path d="M31.25 31.5V35C31.25 35.9665 32.0335 36.75 33 36.75H36C36.9665 36.75 37.75 35.9665 37.75 35V31.5H36.25V35C36.25 35.1381 36.1381 35.25 36 35.25H33C32.8619 35.25 32.75 35.1381 32.75 35V31.5H31.25Z" fill="#5F5F6A"/>
<path d="M25 22.25C23.4812 22.25 22.25 23.4812 22.25 25C22.25 26.5188 23.4812 27.75 25 27.75C26.5188 27.75 27.75 26.5188 27.75 25C27.75 23.4812 26.5188 22.25 25 22.25ZM23.75 25C23.75 24.3096 24.3096 23.75 25 23.75C25.6904 23.75 26.25 24.3096 26.25 25C26.25 25.6904 25.6904 26.25 25 26.25C24.3096 26.25 23.75 25.6904 23.75 25Z" fill="#5F5F6A"/>
</g>
<path d="M32.75 91C32.75 91.1381 32.8619 91.25 33 91.25H36C36.1381 91.25 36.25 91.1381 36.25 91V87.5H37.75V91C37.75 91.9665 36.9665 92.75 36 92.75H33C32.0335 92.75 31.25 91.9665 31.25 91V87.5H32.75V91ZM34.5 84.25C34.9142 84.25 35.25 84.5858 35.25 85V85.25H37.5C37.9142 85.25 38.25 85.5858 38.25 86C38.25 86.4142 37.9142 86.75 37.5 86.75H31.5C31.0858 86.75 30.75 86.4142 30.75 86C30.75 85.5858 31.0858 85.25 31.5 85.25H33.75V85C33.75 84.5858 34.0858 84.25 34.5 84.25Z" fill="#5F5F6A"/>
<path d="M28.633 75.25H25.367C24.2749 75.25 23.4094 75.25 22.7117 75.307C21.9983 75.3653 21.3947 75.4869 20.8435 75.7677C19.9498 76.2231 19.2231 76.9498 18.7677 77.8435C18.4869 78.3947 18.3653 78.9983 18.307 79.7117C18.25 80.4094 18.25 81.2748 18.25 82.367V85.633C18.25 86.5703 18.25 87.3407 18.286 87.9813C18.2887 88.0504 18.2938 88.1169 18.2987 88.1812L18.3 88.1981C18.3022 88.2285 18.3046 88.2585 18.307 88.2883C18.3653 89.0017 18.4869 89.6053 18.7677 90.1565C18.9954 90.6033 19.2909 91.0084 19.6412 91.3588C19.9916 91.7091 20.3967 92.0046 20.8435 92.2323C20.9124 92.2674 20.9822 92.3 21.0528 92.3303C21.1582 92.3755 21.2657 92.4156 21.3756 92.4513C21.7814 92.5827 22.2206 92.6529 22.7118 92.693C23.4093 92.75 24.2748 92.75 25.3668 92.75H28.0001C28.4143 92.75 28.7501 92.4142 28.7501 92C28.7501 91.5858 28.4142 91.25 28 91.25H25.4C24.2675 91.25 23.4633 91.2494 22.8339 91.198C22.2133 91.1473 21.829 91.0509 21.5245 90.8958C21.2856 90.774 21.064 90.6239 20.8643 90.4497C20.5528 90.1782 20.2941 89.848 20.1043 89.4755C19.944 89.1609 19.8467 88.7618 19.7973 88.1055L19.7947 88.0714C19.7912 88.0215 19.7879 87.9705 19.7848 87.9183L19.7843 87.9009C19.7835 87.8705 19.785 87.8618 19.7854 87.859C19.7885 87.8392 19.7998 87.8039 19.8088 87.786C19.8088 87.786 19.8097 87.7841 19.8126 87.7796C19.816 87.7743 19.8228 87.7643 19.8359 87.7469C19.8658 87.7075 19.9073 87.6574 19.9842 87.5651L20.0464 87.4904C20.4772 86.9736 20.7697 86.6236 21.0156 86.3758C21.2567 86.1328 21.3965 86.048 21.4995 86.0104C21.7766 85.9091 22.0806 85.9091 22.3577 86.0104C22.4606 86.048 22.6005 86.1328 22.8416 86.3758C23.0875 86.6236 23.38 86.9736 23.8107 87.4904C24.4129 88.2131 25.5091 88.2532 26.1625 87.5764L29.1661 84.4656C29.5763 84.0407 29.8526 83.7553 30.0829 83.5533C30.3067 83.3568 30.436 83.2862 30.534 83.2536C30.7902 83.1684 31.067 83.1684 31.3232 83.2536C31.4537 83.2971 31.6248 83.4016 31.98 83.7434C32.2784 84.0307 32.7532 84.0215 33.0404 83.7231C33.3277 83.4246 33.3186 82.9499 33.0201 82.6626C32.6379 82.2947 32.2641 81.9858 31.7967 81.8303C31.2332 81.6428 30.624 81.6428 30.0605 81.8303C29.6923 81.9528 29.3877 82.1677 29.0935 82.4258C28.811 82.6738 28.4917 83.0045 28.1086 83.4013L25.0834 86.5345C25.0499 86.5692 24.9939 86.5671 24.9631 86.5301L24.9416 86.5044C24.5378 86.0198 24.2037 85.6189 23.9063 85.3192C23.599 85.0095 23.2751 84.7486 22.8727 84.6015C22.263 84.3787 21.5942 84.3787 20.9845 84.6015C20.5821 84.7486 20.2582 85.0095 19.9508 85.3192C19.8858 85.3848 19.8189 85.4552 19.75 85.5303V82.4C19.75 81.2675 19.7506 80.4633 19.802 79.8339C19.8527 79.2133 19.9491 78.829 20.1042 78.5245C20.4158 77.913 20.913 77.4158 21.5245 77.1042C21.829 76.9491 22.2133 76.8527 22.8339 76.802C23.4633 76.7506 24.2675 76.75 25.4 76.75H28.6C29.7325 76.75 30.5367 76.7506 31.1661 76.802C31.7867 76.8527 32.171 76.9491 32.4755 77.1042C33.087 77.4158 33.5842 77.913 33.8958 78.5245C34.0509 78.829 34.1473 79.2133 34.198 79.8339C34.2494 80.4633 34.25 81.2675 34.25 82.4C34.25 82.8142 34.5858 83.15 35 83.15C35.4142 83.15 35.75 82.8142 35.75 82.4V82.367C35.75 81.2748 35.75 80.4094 35.693 79.7117C35.6347 78.9983 35.5131 78.3947 35.2323 77.8435C34.7769 76.9498 34.0502 76.2231 33.1565 75.7677C32.6053 75.4869 32.0017 75.3653 31.2883 75.307C30.5906 75.25 29.7251 75.25 28.633 75.25Z" fill="#5F5F6A"/>
<path d="M25 78.25C23.4812 78.25 22.25 79.4812 22.25 81C22.25 82.5188 23.4812 83.75 25 83.75C26.5188 83.75 27.75 82.5188 27.75 81C27.75 79.4812 26.5188 78.25 25 78.25ZM23.75 81C23.75 80.3096 24.3096 79.75 25 79.75C25.6904 79.75 26.25 80.3096 26.25 81C26.25 81.6904 25.6904 82.25 25 82.25C24.3096 82.25 23.75 81.6904 23.75 81Z" fill="#5F5F6A"/>
<path d="M25.3774 131.5H28.6226C29.7236 131.5 30.5805 131.5 31.2679 131.556C31.9658 131.613 32.5329 131.731 33.043 131.99C33.8897 132.422 34.5781 133.11 35.0095 133.957C35.2694 134.467 35.3868 135.034 35.4438 135.732C35.5 136.419 35.5 137.276 35.5 138.377V138.4C35.5 138.676 35.2761 138.9 35 138.9C34.7239 138.9 34.5 138.676 34.5 138.4C34.5 137.272 34.4996 136.455 34.4472 135.814C34.3952 135.177 34.2946 134.757 34.1185 134.411C33.783 133.752 33.2475 133.217 32.589 132.881C32.2434 132.705 31.8226 132.605 31.1865 132.553C30.5446 132.5 29.7284 132.5 28.6 132.5H25.4C24.2716 132.5 23.4554 132.5 22.8135 132.553C22.1774 132.605 21.7566 132.705 21.411 132.881C20.7525 133.217 20.217 133.752 19.8815 134.411C19.7054 134.757 19.6048 135.177 19.5528 135.814C19.5004 136.455 19.5 137.272 19.5 138.4V141.6C19.5 141.809 19.5 142.007 19.5004 142.196C19.734 141.92 19.9394 141.686 20.1283 141.495C20.4246 141.197 20.7179 140.965 21.0704 140.836C21.6246 140.634 22.2326 140.634 22.7869 140.836C23.1394 140.965 23.4326 141.197 23.7289 141.495C24.0185 141.787 24.3467 142.181 24.756 142.672L24.771 142.69C24.8971 142.841 25.1265 142.85 25.2632 142.708L28.282 139.582C28.6707 139.179 28.9838 138.855 29.2584 138.614C29.5409 138.366 29.8163 138.175 30.1394 138.068C30.6518 137.897 31.2055 137.897 31.7178 138.068C32.1291 138.204 32.469 138.479 32.8468 138.843C33.0458 139.034 33.0518 139.351 32.8604 139.55C32.6689 139.749 32.3524 139.755 32.1534 139.563C31.7936 139.217 31.5889 139.079 31.4022 139.016C31.0948 138.914 30.7625 138.914 30.4551 139.016C30.3121 139.064 30.1536 139.159 29.918 139.365C29.6782 139.576 29.3936 139.87 28.9863 140.292L25.9826 143.403C25.4326 143.972 24.5098 143.939 24.0028 143.33C23.575 142.817 23.2744 142.457 23.0191 142.2C22.767 141.946 22.5964 141.831 22.4436 141.776C22.111 141.654 21.7462 141.654 21.4137 141.776C21.2608 141.831 21.0903 141.946 20.8382 142.2C20.5828 142.457 20.2823 142.817 19.8544 143.33L19.7922 143.405C19.6332 143.596 19.6054 143.634 19.5852 143.674C19.5648 143.715 19.5456 143.775 19.5385 143.82C19.534 143.849 19.5324 143.874 19.5358 143.942C19.5383 143.984 19.5409 144.025 19.5436 144.065L19.548 144.124C19.5985 144.795 19.6997 145.232 19.8816 145.589C20.2171 146.248 20.7526 146.783 21.4111 147.119C21.4558 147.141 21.5017 147.163 21.5492 147.183C21.6394 147.222 21.7353 147.256 21.8389 147.286C22.1025 147.363 22.416 147.415 22.8135 147.447C23.4554 147.5 24.2716 147.5 25.4 147.5H29C29.2762 147.5 29.5001 147.724 29.5001 148C29.5001 148.276 29.2762 148.5 29.0001 148.5H25.3774C24.2765 148.5 23.4196 148.5 22.7322 148.444C22.4892 148.424 22.2621 148.397 22.0478 148.359C21.7233 148.301 21.428 148.219 21.1511 148.1C21.0854 148.072 21.0208 148.042 20.957 148.01C20.1103 147.578 19.4219 146.89 18.9905 146.043C18.7306 145.533 18.6132 144.966 18.5562 144.268C18.5533 144.233 18.5506 144.198 18.5481 144.163C18.5432 144.098 18.5385 144.036 18.536 143.975C18.5 143.34 18.5 142.572 18.5 141.623V138.377C18.5 137.276 18.5 136.419 18.5562 135.732C18.6132 135.034 18.7306 134.467 18.9905 133.957C19.4219 133.11 20.1103 132.422 20.957 131.99C21.4671 131.731 22.0342 131.613 22.7321 131.556C23.4195 131.5 24.2764 131.5 25.3774 131.5Z" fill="#5F5F6A"/>
<path d="M25 134.5C23.6193 134.5 22.5 135.619 22.5 137C22.5 138.381 23.6193 139.5 25 139.5C26.3807 139.5 27.5 138.381 27.5 137C27.5 135.619 26.3807 134.5 25 134.5ZM23.5 137C23.5 136.172 24.1716 135.5 25 135.5C25.8284 135.5 26.5 136.172 26.5 137C26.5 137.828 25.8284 138.5 25 138.5C24.1716 138.5 23.5 137.828 23.5 137Z" fill="#5F5F6A"/>
<path d="M31.5 147V143.5H32.5V147C32.5 147.276 32.7239 147.5 33 147.5H36C36.2761 147.5 36.5 147.276 36.5 147V143.5H37.5V147C37.5 147.828 36.8284 148.5 36 148.5H33C32.1716 148.5 31.5 147.828 31.5 147Z" fill="#5F5F6A"/>
<path d="M34.5 140.5C34.7761 140.5 35 140.724 35 141V141.5H37.5C37.7761 141.5 38 141.724 38 142C38 142.276 37.7761 142.5 37.5 142.5H31.5C31.2239 142.5 31 142.276 31 142C31 141.724 31.2239 141.5 31.5 141.5H34V141C34 140.724 34.2239 140.5 34.5 140.5Z" fill="#5F5F6A"/>
</svg>
