<svg width="56" height="168" viewBox="0 0 56 168" fill="none" xmlns="http://www.w3.org/2000/svg">
<path d="M25.117 19.2H28.383C29.4751 19.2 30.3407 19.2 31.0383 19.257C31.7517 19.3153 32.3553 19.4369 32.9065 19.7177C33.8002 20.1731 34.5269 20.8998 34.9823 21.7936C35.2631 22.3447 35.3847 22.9484 35.443 23.6617C35.5 24.3594 35.5 25.2249 35.5 26.317V26.35C35.5 26.7642 35.1642 27.1 34.75 27.1C34.3358 27.1 34 26.7642 34 26.35C34 25.2175 33.9994 24.4133 33.948 23.7839C33.8973 23.1633 33.8009 22.779 33.6458 22.4745C33.3342 21.863 32.837 21.3658 32.2255 21.0542C31.921 20.8991 31.5367 20.8027 30.9161 20.752C30.2867 20.7006 29.4825 20.7 28.35 20.7H25.15C24.0175 20.7 23.2133 20.7006 22.5839 20.752C21.9633 20.8027 21.579 20.8991 21.2745 21.0542C20.663 21.3658 20.1658 21.863 19.8542 22.4745C19.6991 22.779 19.6027 23.1633 19.552 23.7839C19.5006 24.4133 19.5 25.2175 19.5 26.35V29.4803C19.5689 29.4052 19.6358 29.3348 19.7008 29.2692C20.0082 28.9595 20.3321 28.6987 20.7345 28.5516C21.3442 28.3287 22.013 28.3287 22.6227 28.5516C23.0251 28.6987 23.349 28.9595 23.6563 29.2692C23.9537 29.5689 24.2878 29.9698 24.6916 30.4544L24.7131 30.4802C24.7439 30.5171 24.7999 30.5192 24.8334 30.4846L27.8586 27.3513C28.2417 26.9545 28.561 26.6238 28.8435 26.3759C29.1377 26.1177 29.4423 25.9028 29.8105 25.7803C30.374 25.5928 30.9832 25.5928 31.5467 25.7803C32.0141 25.9358 32.3879 26.2448 32.7701 26.6126C33.0686 26.8999 33.0777 27.3747 32.7904 27.6731C32.5032 27.9716 32.0284 27.9807 31.73 27.6934C31.3748 27.3516 31.2037 27.2471 31.0732 27.2036C30.817 27.1184 30.5402 27.1184 30.284 27.2036C30.186 27.2362 30.0567 27.3069 29.8329 27.5033C29.6026 27.7054 29.3263 27.9907 28.9161 28.4156L25.9125 31.5265C25.2591 32.2032 24.1629 32.1631 23.5607 31.4404C23.13 30.9236 22.8375 30.5736 22.5916 30.3258C22.3505 30.0828 22.2106 29.998 22.1077 29.9604C21.8306 29.8591 21.5266 29.8591 21.2495 29.9604C21.1465 29.998 21.0067 30.0828 20.7656 30.3258C20.5197 30.5736 20.2272 30.9236 19.7964 31.4404L19.7342 31.5152C19.6573 31.6074 19.6158 31.6575 19.5859 31.697C19.5728 31.7143 19.566 31.7243 19.5626 31.7297C19.5597 31.7341 19.5588 31.736 19.5588 31.736C19.5498 31.7539 19.5385 31.7892 19.5354 31.809C19.535 31.8118 19.5335 31.8205 19.5343 31.8509L19.5348 31.8683C19.5379 31.9205 19.5412 31.9715 19.5447 32.0214L19.5473 32.0555C19.5967 32.7118 19.694 33.1109 19.8543 33.4255C20.0441 33.798 20.3028 34.1282 20.6143 34.3997C20.814 34.5739 21.0356 34.724 21.2745 34.8458C21.579 35.0009 21.9633 35.0973 22.5839 35.148C23.2133 35.1994 24.0175 35.2 25.15 35.2H27.75C28.1642 35.2 28.5001 35.5358 28.5001 35.95C28.5001 36.3643 28.1643 36.7 27.7501 36.7H25.1168C24.0248 36.7 23.1593 36.7001 22.4618 36.6431C21.9706 36.6029 21.5314 36.5328 21.1256 36.4013C21.0157 36.3657 20.9082 36.3256 20.8028 36.2803C20.7322 36.25 20.6624 36.2174 20.5935 36.1823C20.1467 35.9546 19.7416 35.6591 19.3912 35.3088C19.0409 34.9585 18.7454 34.5534 18.5177 34.1065C18.2369 33.5553 18.1153 32.9517 18.057 32.2383C18.0546 32.2085 18.0522 32.1785 18.05 32.1481L18.0487 32.1312C18.0438 32.0669 18.0387 32.0004 18.036 31.9313C18 31.2907 18 30.5203 18 29.583V26.317C18 25.2249 18 24.3594 18.057 23.6617C18.1153 22.9484 18.2369 22.3447 18.5177 21.7936C18.9731 20.8998 19.6998 20.1731 20.5935 19.7177C21.1447 19.4369 21.7483 19.3153 22.4617 19.257C23.1593 19.2 24.0249 19.2 25.117 19.2Z" fill="#5F5F6A"/>
<path opacity="0.5" d="M22 24.95C22 23.4312 23.2312 22.2 24.75 22.2C26.2688 22.2 27.5 23.4312 27.5 24.95C27.5 26.4688 26.2688 27.7 24.75 27.7C23.2312 27.7 22 26.4688 22 24.95ZM24.75 23.7C24.0596 23.7 23.5 24.2597 23.5 24.95C23.5 25.6404 24.0596 26.2 24.75 26.2C25.4404 26.2 26 25.6404 26 24.95C26 24.2597 25.4404 23.7 24.75 23.7Z" fill="#5F5F6A"/>
<g opacity="0.5">
<path d="M33.2128 30.5828C33.369 30.7391 33.6223 30.7391 33.7785 30.5828L34.2799 30.0814V31.6C34.2799 31.8209 34.459 32 34.6799 32C34.9009 32 35.0799 31.8209 35.0799 31.6V30.0814L35.5814 30.5828C35.7376 30.7391 35.9909 30.7391 36.1471 30.5828C36.3033 30.4266 36.3033 30.1734 36.1471 30.0172L34.9804 28.8504C34.8978 28.7679 34.7881 28.7289 34.6799 28.7337C34.5718 28.7289 34.4621 28.7679 34.3795 28.8504L33.2128 30.0172C33.0566 30.1734 33.0566 30.4266 33.2128 30.5828Z" fill="#5F5F6A"/>
<path d="M35.0799 33.8676C35.0799 33.6467 34.9009 33.4676 34.6799 33.4676C34.459 33.4676 34.2799 33.6467 34.2799 33.8676L34.2799 35.3862L33.7785 34.8848C33.6223 34.7286 33.369 34.7286 33.2128 34.8848C33.0566 35.041 33.0566 35.2942 33.2128 35.4505L34.3795 36.6172C34.4621 36.6998 34.5718 36.7387 34.6799 36.734C34.7881 36.7387 34.8978 36.6998 34.9804 36.6172L36.1471 35.4505C36.3033 35.2942 36.3033 35.041 36.1471 34.8848C35.9909 34.7286 35.7376 34.7286 35.5814 34.8848L35.0799 35.3862V33.8676Z" fill="#5F5F6A"/>
<path d="M32.6152 31.8147C32.7714 31.6585 32.7714 31.4052 32.6152 31.249C32.459 31.0928 32.2057 31.0928 32.0495 31.249L30.8828 32.4157C30.8002 32.4983 30.7613 32.608 30.766 32.7162C30.7613 32.8243 30.8002 32.934 30.8828 33.0166L32.0495 34.1833C32.2057 34.3395 32.459 34.3395 32.6152 34.1833C32.7714 34.0271 32.7714 33.7739 32.6152 33.6176L32.1137 33.1161H33.6324C33.8533 33.1161 34.0324 32.937 34.0324 32.7161C34.0324 32.4952 33.8533 32.3161 33.6324 32.3161H32.1137L32.6152 31.8147Z" fill="#5F5F6A"/>
<path d="M36.7647 31.249C36.6085 31.4052 36.6085 31.6585 36.7647 31.8147L37.2661 32.3161H35.7475C35.5266 32.3161 35.3475 32.4952 35.3475 32.7161C35.3475 32.937 35.5266 33.1161 35.7475 33.1161H37.2662L36.7647 33.6176C36.6085 33.7739 36.6085 34.0271 36.7647 34.1833C36.9209 34.3395 37.1742 34.3395 37.3304 34.1833L38.4971 33.0166C38.5797 32.934 38.6186 32.8243 38.6139 32.7162C38.6186 32.608 38.5797 32.4983 38.4971 32.4157L37.3304 31.249C37.1742 31.0928 36.9209 31.0928 36.7647 31.249Z" fill="#5F5F6A"/>
</g>
<path d="M28.383 75.2H25.117C24.0249 75.2 23.1593 75.2 22.4617 75.257C21.7483 75.3153 21.1447 75.4369 20.5935 75.7177C19.6998 76.1731 18.9731 76.8998 18.5177 77.7936C18.2369 78.3447 18.1153 78.9484 18.057 79.6617C18 80.3594 18 81.2249 18 82.317V85.583C18 86.5203 18 87.2907 18.036 87.9313C18.0387 88.0004 18.0438 88.0669 18.0487 88.1312L18.05 88.1481C18.0522 88.1785 18.0546 88.2085 18.057 88.2383C18.1153 88.9517 18.2369 89.5553 18.5177 90.1065C18.7454 90.5534 19.0409 90.9585 19.3912 91.3088C19.7416 91.6591 20.1467 91.9546 20.5935 92.1823C20.6624 92.2174 20.7322 92.25 20.8028 92.2803C20.9082 92.3256 21.0157 92.3657 21.1256 92.4013C21.5314 92.5328 21.9706 92.6029 22.4618 92.6431C23.1593 92.7001 24.0248 92.7 25.1166 92.7H27.7501C28.1643 92.7 28.5001 92.3643 28.5001 91.95C28.5001 91.5358 28.1642 91.2 27.75 91.2H25.15C24.0175 91.2 23.2133 91.1994 22.5839 91.148C21.9633 91.0973 21.579 91.0009 21.2745 90.8458C21.0356 90.724 20.814 90.5739 20.6143 90.3997C20.3028 90.1282 20.0441 89.798 19.8543 89.4255C19.694 89.1109 19.5967 88.7118 19.5473 88.0555L19.5447 88.0214C19.5412 87.9715 19.5379 87.9205 19.5348 87.8683L19.5343 87.8509C19.5335 87.8205 19.535 87.8118 19.5354 87.809C19.5385 87.7892 19.5498 87.7539 19.5588 87.736L19.5601 87.7337L19.5626 87.7297C19.566 87.7243 19.5728 87.7143 19.5859 87.697C19.6158 87.6575 19.6573 87.6074 19.7342 87.5152L19.7964 87.4404C20.2272 86.9236 20.5197 86.5736 20.7656 86.3258C21.0067 86.0828 21.1465 85.998 21.2495 85.9604C21.5266 85.8591 21.8306 85.8591 22.1077 85.9604C22.2106 85.998 22.3505 86.0828 22.5916 86.3258C22.8375 86.5736 23.13 86.9236 23.5607 87.4404C24.1629 88.1631 25.2591 88.2032 25.9125 87.5265L28.9161 84.4156C29.3263 83.9907 29.6026 83.7054 29.8329 83.5033C30.0567 83.3069 30.186 83.2362 30.284 83.2036C30.5402 83.1184 30.817 83.1184 31.0732 83.2036C31.2037 83.2471 31.3748 83.3516 31.73 83.6934C32.0284 83.9807 32.5032 83.9716 32.7904 83.6731C33.0777 83.3747 33.0686 82.8999 32.7701 82.6126C32.3879 82.2448 32.0141 81.9358 31.5467 81.7803C30.9832 81.5928 30.374 81.5928 29.8105 81.7803C29.4423 81.9028 29.1377 82.1177 28.8435 82.3759C28.561 82.6238 28.2417 82.9545 27.8586 83.3513L24.8334 86.4846C24.7999 86.5192 24.7439 86.5171 24.7131 86.4802L24.6916 86.4544C24.2878 85.9698 23.9537 85.5689 23.6563 85.2692C23.349 84.9595 23.0251 84.6987 22.6227 84.5516C22.013 84.3287 21.3442 84.3287 20.7345 84.5516C20.3321 84.6987 20.0082 84.9595 19.7008 85.2692C19.6358 85.3348 19.5689 85.4052 19.5 85.4803V82.35C19.5 81.2175 19.5006 80.4133 19.552 79.7839C19.6027 79.1633 19.6991 78.779 19.8542 78.4745C20.1658 77.863 20.663 77.3658 21.2745 77.0542C21.579 76.8991 21.9633 76.8027 22.5839 76.752C23.2133 76.7006 24.0175 76.7 25.15 76.7H28.35C29.4825 76.7 30.2867 76.7006 30.9161 76.752C31.5367 76.8027 31.921 76.8991 32.2255 77.0542C32.837 77.3658 33.3342 77.863 33.6458 78.4745C33.8009 78.779 33.8973 79.1633 33.948 79.7839C33.9994 80.4133 34 81.2175 34 82.35C34 82.7642 34.3358 83.1 34.75 83.1C35.1642 83.1 35.5 82.7642 35.5 82.35V82.317C35.5 81.2249 35.5 80.3594 35.443 79.6617C35.3847 78.9484 35.2631 78.3447 34.9823 77.7936C34.5269 76.8998 33.8002 76.1731 32.9065 75.7177C32.3553 75.4369 31.7517 75.3153 31.0383 75.257C30.3407 75.2 29.4751 75.2 28.383 75.2Z" fill="#5F5F6A"/>
<path fill-rule="evenodd" clip-rule="evenodd" d="M24.75 78.2C23.2312 78.2 22 79.4312 22 80.95C22 82.4688 23.2312 83.7 24.75 83.7C26.2688 83.7 27.5 82.4688 27.5 80.95C27.5 79.4312 26.2688 78.2 24.75 78.2ZM23.5 80.95C23.5 80.2597 24.0596 79.7 24.75 79.7C25.4404 79.7 26 80.2597 26 80.95C26 81.6404 25.4404 82.2 24.75 82.2C24.0596 82.2 23.5 81.6404 23.5 80.95Z" fill="#5F5F6A"/>
<path d="M33.7785 86.5828C33.6223 86.7391 33.3691 86.7391 33.2128 86.5828C33.0566 86.4266 33.0566 86.1734 33.2128 86.0172L34.3796 84.8504C34.4622 84.7679 34.5719 84.7289 34.68 84.7337C34.7882 84.7289 34.8979 84.7679 34.9804 84.8504L36.1472 86.0172C36.3034 86.1734 36.3034 86.4266 36.1472 86.5828C35.991 86.7391 35.7377 86.7391 35.5815 86.5828L35.08 86.0814V87.6C35.08 87.8209 34.9009 88 34.68 88C34.4591 88 34.28 87.8209 34.28 87.6V86.0814L33.7785 86.5828Z" fill="#5F5F6A"/>
<path d="M34.68 89.4676C34.9009 89.4676 35.08 89.6467 35.08 89.8676V91.3862L35.5815 90.8848C35.7377 90.7286 35.991 90.7286 36.1472 90.8848C36.3034 91.041 36.3034 91.2942 36.1472 91.4505L34.9804 92.6172C34.8979 92.6998 34.7882 92.7387 34.68 92.734C34.5719 92.7387 34.4622 92.6998 34.3796 92.6172L33.2128 91.4505C33.0566 91.2942 33.0566 91.041 33.2128 90.8848C33.3691 90.7286 33.6223 90.7286 33.7785 90.8848L34.28 91.3862V89.8676C34.28 89.6467 34.4591 89.4676 34.68 89.4676Z" fill="#5F5F6A"/>
<path d="M32.6153 87.8147C32.7715 87.6585 32.7715 87.4052 32.6153 87.249C32.459 87.0928 32.2058 87.0928 32.0496 87.249L30.8828 88.4157C30.8003 88.4983 30.7613 88.608 30.7661 88.7162C30.7613 88.8243 30.8003 88.934 30.8828 89.0166L32.0496 90.1833C32.2058 90.3395 32.459 90.3395 32.6153 90.1833C32.7715 90.0271 32.7715 89.7739 32.6153 89.6176L32.1137 89.1161H33.6324C33.8533 89.1161 34.0324 88.937 34.0324 88.7161C34.0324 88.4952 33.8533 88.3161 33.6324 88.3161H32.1138L32.6153 87.8147Z" fill="#5F5F6A"/>
<path d="M36.7647 87.8147C36.6085 87.6585 36.6085 87.4052 36.7647 87.249C36.921 87.0928 37.1742 87.0928 37.3304 87.249L38.4972 88.4157C38.5797 88.4983 38.6187 88.608 38.6139 88.7162C38.6187 88.8243 38.5797 88.934 38.4972 89.0166L37.3304 90.1833C37.1742 90.3395 36.921 90.3395 36.7647 90.1833C36.6085 90.0271 36.6085 89.7739 36.7647 89.6176L37.2663 89.1161H35.7476C35.5267 89.1161 35.3476 88.937 35.3476 88.7161C35.3476 88.4952 35.5267 88.3161 35.7476 88.3161H37.2662L36.7647 87.8147Z" fill="#5F5F6A"/>
<path d="M28.6226 131.5H25.3774C24.2764 131.5 23.4195 131.5 22.7321 131.556C22.0342 131.613 21.4671 131.731 20.957 131.99C20.1103 132.422 19.4219 133.11 18.9905 133.957C18.7306 134.467 18.6132 135.034 18.5562 135.732C18.5 136.419 18.5 137.276 18.5 138.377V141.623C18.5 142.572 18.5 143.34 18.536 143.975C18.5385 144.036 18.5432 144.098 18.5481 144.163C18.5506 144.198 18.5533 144.233 18.5562 144.268C18.6132 144.966 18.7306 145.533 18.9905 146.043C19.4219 146.89 20.1103 147.578 20.957 148.01C21.0208 148.042 21.0854 148.072 21.1511 148.1C21.428 148.219 21.7233 148.301 22.0478 148.359C22.2621 148.397 22.4892 148.424 22.7322 148.444C23.4195 148.5 24.2765 148.5 25.3774 148.5H30.0001C30.2762 148.5 30.5001 148.276 30.5001 148C30.5001 147.793 30.3741 147.615 30.1946 147.539C30.1602 147.525 30.1237 147.514 30.0859 147.507C30.058 147.503 30.0293 147.5 30 147.5H25.4C24.2716 147.5 23.4554 147.5 22.8135 147.447C22.416 147.415 22.1025 147.363 21.8389 147.286C21.7353 147.256 21.6394 147.222 21.5492 147.183C21.5017 147.163 21.4558 147.141 21.4111 147.119C20.7526 146.783 20.2171 146.248 19.8816 145.589C19.6997 145.232 19.5985 144.795 19.548 144.124L19.5436 144.065C19.5409 144.025 19.5383 143.984 19.5358 143.942C19.5324 143.874 19.534 143.849 19.5385 143.82C19.5456 143.775 19.5648 143.715 19.5852 143.674C19.6054 143.634 19.6332 143.596 19.7922 143.405L19.8544 143.33C20.2823 142.817 20.5828 142.457 20.8382 142.2C21.0903 141.946 21.2608 141.831 21.4137 141.776C21.7462 141.654 22.111 141.654 22.4436 141.776C22.5964 141.831 22.767 141.946 23.0191 142.2C23.2744 142.457 23.575 142.817 24.0028 143.33C24.5098 143.939 25.4326 143.972 25.9826 143.403L28.9863 140.292C29.3936 139.87 29.6782 139.576 29.918 139.365C30.1536 139.159 30.3121 139.064 30.4551 139.016C30.7625 138.914 31.0948 138.914 31.4022 139.016C31.5889 139.079 31.7936 139.217 32.1534 139.563C32.3524 139.755 32.6689 139.749 32.8604 139.55C33.0518 139.351 33.0458 139.034 32.8468 138.843C32.469 138.479 32.1291 138.204 31.7178 138.068C31.2055 137.897 30.6518 137.897 30.1394 138.068C29.8163 138.175 29.5409 138.366 29.2584 138.614C28.9838 138.855 28.6707 139.179 28.282 139.582L25.2632 142.708C25.1265 142.85 24.8971 142.841 24.771 142.69L24.756 142.672C24.3467 142.181 24.0185 141.787 23.7289 141.495C23.4326 141.197 23.1394 140.965 22.7869 140.836C22.2326 140.634 21.6246 140.634 21.0704 140.836C20.7179 140.965 20.4246 141.197 20.1283 141.495C19.9394 141.686 19.734 141.92 19.5004 142.196C19.5 142.007 19.5 141.809 19.5 141.6V138.4C19.5 137.272 19.5004 136.455 19.5528 135.814C19.6048 135.177 19.7054 134.757 19.8815 134.411C20.217 133.752 20.7525 133.217 21.411 132.881C21.7566 132.705 22.1774 132.605 22.8135 132.553C23.4554 132.5 24.2716 132.5 25.4 132.5H28.6C29.7284 132.5 30.5446 132.5 31.1865 132.553C31.8226 132.605 32.2434 132.705 32.589 132.881C33.2475 133.217 33.783 133.752 34.1185 134.411C34.2946 134.757 34.3952 135.177 34.4472 135.814C34.4996 136.455 34.5 137.272 34.5 138.4C34.5 138.676 34.7239 138.9 35 138.9C35.2761 138.9 35.5 138.676 35.5 138.4V138.377C35.5 137.276 35.5 136.419 35.4438 135.732C35.3868 135.034 35.2694 134.467 35.0095 133.957C34.5781 133.11 33.8897 132.422 33.043 131.99C32.5329 131.731 31.9658 131.613 31.2679 131.556C30.5805 131.5 29.7236 131.5 28.6226 131.5Z" fill="#5F5F6A"/>
<path fill-rule="evenodd" clip-rule="evenodd" d="M22.5 137C22.5 135.619 23.6193 134.5 25 134.5C26.3807 134.5 27.5 135.619 27.5 137C27.5 138.381 26.3807 139.5 25 139.5C23.6193 139.5 22.5 138.381 22.5 137ZM25 135.5C24.1716 135.5 23.5 136.172 23.5 137C23.5 137.828 24.1716 138.5 25 138.5C25.8284 138.5 26.5 137.828 26.5 137C26.5 136.172 25.8284 135.5 25 135.5Z" fill="#5F5F6A"/>
<path d="M34.95 143.85C34.8119 143.85 34.7 143.738 34.7 143.6V141.707L34.0303 142.377C33.9327 142.474 33.7744 142.474 33.6768 142.377C33.5791 142.279 33.5791 142.121 33.6768 142.023L34.7374 140.963C34.7993 140.901 34.856 140.85 34.95 140.85C35.0434 140.85 35.096 140.9 35.158 140.958L35.1626 140.963L36.2232 142.023C36.3208 142.121 36.3208 142.279 36.2232 142.377C36.1256 142.474 35.9673 142.474 35.8697 142.377L35.2 141.707V143.6C35.2 143.738 35.0881 143.85 34.95 143.85Z" fill="#5F5F6A"/>
<path d="M34.95 145.6C34.8119 145.6 34.7 145.712 34.7 145.85V147.743L34.0303 147.073C33.9327 146.976 33.7744 146.976 33.6768 147.073C33.5791 147.171 33.5791 147.329 33.6768 147.427L34.7374 148.487C34.7993 148.549 34.856 148.6 34.95 148.6C35.0434 148.6 35.096 148.55 35.158 148.492L35.1626 148.487L36.2232 147.427C36.3208 147.329 36.3208 147.171 36.2232 147.073C36.1256 146.976 35.9673 146.976 35.8697 147.073L35.2 147.743V145.85C35.2 145.712 35.0881 145.6 34.95 145.6Z" fill="#5F5F6A"/>
<path d="M35.7 144.646C35.7 144.508 35.8119 144.396 35.95 144.396H37.8429L37.1732 143.727C37.0756 143.629 37.0756 143.471 37.1732 143.373C37.2709 143.276 37.4291 143.276 37.5268 143.373L38.5874 144.434C38.6493 144.496 38.7 144.552 38.7 144.646C38.7 144.74 38.6503 144.792 38.5917 144.854L38.5874 144.859L37.5268 145.92C37.4291 146.017 37.2709 146.017 37.1732 145.92C37.0756 145.822 37.0756 145.664 37.1732 145.566L37.8429 144.896L35.95 144.896C35.8119 144.896 35.7 144.785 35.7 144.646Z" fill="#5F5F6A"/>
<path d="M34.2 144.646C34.2 144.508 34.0881 144.396 33.95 144.396H32.0571L32.7268 143.727C32.8244 143.629 32.8244 143.471 32.7268 143.373C32.6291 143.276 32.4708 143.276 32.3732 143.373L31.3126 144.434C31.2507 144.496 31.2 144.552 31.2 144.646C31.2 144.74 31.2497 144.792 31.3083 144.854L31.3126 144.859L32.3732 145.92C32.4708 146.017 32.6291 146.017 32.7268 145.92C32.8244 145.822 32.8244 145.664 32.7268 145.566L32.0571 144.896L33.95 144.896C34.0881 144.896 34.2 144.785 34.2 144.646Z" fill="#5F5F6A"/>
</svg>
