<svg width="56" height="168" viewBox="0 0 56 168" fill="none" xmlns="http://www.w3.org/2000/svg">
<path d="M28.633 19.25H25.367C24.2749 19.25 23.4094 19.25 22.7117 19.307C21.9983 19.3653 21.3947 19.4869 20.8435 19.7677C19.9498 20.2231 19.2231 20.9498 18.7677 21.8435C18.4869 22.3947 18.3653 22.9983 18.307 23.7117C18.25 24.4094 18.25 25.2748 18.25 26.367V29.633C18.25 30.5703 18.25 31.3407 18.286 31.9813C18.2887 32.0504 18.2938 32.1169 18.2987 32.1812L18.3 32.1981C18.3022 32.2285 18.3046 32.2585 18.307 32.2883C18.3653 33.0017 18.4869 33.6053 18.7677 34.1565C18.9954 34.6033 19.2909 35.0084 19.6412 35.3588C19.9916 35.7091 20.3967 36.0046 20.8435 36.2323C20.8435 36.2323 20.8436 36.2323 20.8435 36.2323C20.9124 36.2674 20.9822 36.3 21.0528 36.3303C21.1582 36.3755 21.2657 36.4156 21.3756 36.4513C21.7814 36.5827 22.2206 36.6529 22.7118 36.693C23.4094 36.75 24.2748 36.75 25.3669 36.75H30.0001C30.4143 36.75 30.7501 36.4142 30.7501 36C30.7501 35.7411 30.6189 35.5129 30.4193 35.3781C30.3545 35.3343 30.2824 35.3004 30.2053 35.2785C30.1401 35.2599 30.0712 35.25 30 35.25H25.4C24.2675 35.25 23.4633 35.2494 22.8339 35.198C22.2133 35.1473 21.829 35.0509 21.5245 34.8958C21.2856 34.774 21.064 34.6239 20.8643 34.4497C20.5528 34.1782 20.2941 33.848 20.1043 33.4755C19.944 33.1609 19.8467 32.7618 19.7973 32.1055C19.7964 32.0935 19.7955 32.0821 19.7947 32.0714C19.7912 32.0215 19.7879 31.9705 19.7848 31.9183C19.7846 31.9122 19.7844 31.9065 19.7843 31.9009C19.7835 31.8705 19.785 31.8618 19.7854 31.859C19.7885 31.8392 19.7998 31.8039 19.8088 31.786C19.8089 31.7857 19.8097 31.7841 19.8126 31.7796C19.816 31.7743 19.8228 31.7643 19.8359 31.7469C19.8658 31.7075 19.9073 31.6574 19.9842 31.5651L20.0464 31.4904C20.4772 30.9736 20.7697 30.6236 21.0156 30.3758C21.2567 30.1328 21.3965 30.048 21.4995 30.0104C21.7766 29.9091 22.0806 29.9091 22.3577 30.0104C22.4606 30.048 22.6005 30.1328 22.8416 30.3758C23.0875 30.6236 23.38 30.9736 23.8107 31.4904C24.4129 32.2131 25.5091 32.2532 26.1625 31.5764L29.1661 28.4656C29.5763 28.0407 29.8526 27.7553 30.0829 27.5533C30.3067 27.3568 30.436 27.2862 30.534 27.2536C30.7902 27.1684 31.067 27.1684 31.3232 27.2536C31.4537 27.2971 31.6248 27.4016 31.98 27.7434C32.2784 28.0307 32.7532 28.0215 33.0404 27.7231C33.3277 27.4246 33.3186 26.9499 33.0201 26.6626C32.6379 26.2947 32.2641 25.9858 31.7967 25.8303C31.2332 25.6428 30.624 25.6428 30.0605 25.8303C29.6923 25.9528 29.3877 26.1677 29.0935 26.4258C28.811 26.6738 28.4917 27.0045 28.1086 27.4013L25.0834 30.5345C25.0499 30.5692 24.9939 30.5671 24.9631 30.5301L24.9416 30.5044C24.5378 30.0198 24.2037 29.6189 23.9063 29.3192C23.599 29.0095 23.2751 28.7486 22.8727 28.6015C22.263 28.3787 21.5942 28.3787 20.9845 28.6015C20.5821 28.7486 20.2582 29.0095 19.9508 29.3192C19.8858 29.3848 19.8189 29.4552 19.75 29.5303V26.4C19.75 25.2675 19.7506 24.4633 19.802 23.8339C19.8527 23.2133 19.9491 22.829 20.1042 22.5245C20.4158 21.913 20.913 21.4158 21.5245 21.1042C21.829 20.9491 22.2133 20.8527 22.8339 20.802C23.4633 20.7506 24.2675 20.75 25.4 20.75H28.6C29.7325 20.75 30.5367 20.7506 31.1661 20.802C31.7867 20.8527 32.171 20.9491 32.4755 21.1042C33.087 21.4158 33.5842 21.913 33.8958 22.5245C34.0509 22.829 34.1473 23.2133 34.198 23.8339C34.2494 24.4633 34.25 25.2675 34.25 26.4C34.25 26.8142 34.5858 27.15 35 27.15C35.4142 27.15 35.75 26.8142 35.75 26.4V26.367C35.75 25.2748 35.75 24.4094 35.693 23.7117C35.6347 22.9983 35.5131 22.3947 35.2323 21.8435C34.7769 20.9498 34.0502 20.2231 33.1565 19.7677C32.6053 19.4869 32.0017 19.3653 31.2883 19.307C30.5906 19.25 29.7251 19.25 28.633 19.25Z" fill="#5F5F6A"/>
<g opacity="0.5">
<path d="M25 22.25C23.4812 22.25 22.25 23.4812 22.25 25C22.25 26.5188 23.4812 27.75 25 27.75C26.5188 27.75 27.75 26.5188 27.75 25C27.75 23.4812 26.5188 22.25 25 22.25ZM23.75 25C23.75 24.3096 24.3096 23.75 25 23.75C25.6904 23.75 26.25 24.3096 26.25 25C26.25 25.6904 25.6904 26.25 25 26.25C24.3096 26.25 23.75 25.6904 23.75 25Z" fill="#5F5F6A"/>
<path d="M35.25 36C35.25 36.4142 34.9142 36.75 34.5 36.75C34.0858 36.75 33.75 36.4142 33.75 36V31.8107L32.5303 33.0303C32.2374 33.3232 31.7626 33.3232 31.4697 33.0303C31.1768 32.7374 31.1768 32.2626 31.4697 31.9697L33.9697 29.4697C34.2626 29.1768 34.7374 29.1768 35.0303 29.4697L37.5303 31.9697C37.8232 32.2626 37.8232 32.7374 37.5303 33.0303C37.2374 33.3232 36.7626 33.3232 36.4697 33.0303L35.25 31.8107V36Z" fill="#5F5F6A"/>
</g>
<path d="M28.6331 75.25H25.3671C24.275 75.25 23.4094 75.25 22.7118 75.307C21.9984 75.3653 21.3948 75.4869 20.8436 75.7677C19.9499 76.2231 19.2232 76.9498 18.7678 77.8435C18.487 78.3947 18.3654 78.9983 18.3071 79.7117C18.2501 80.4094 18.2501 81.2748 18.2501 82.367V85.633C18.2501 86.5173 18.235 87.4061 18.3071 88.2883C18.3654 89.0017 18.487 89.6053 18.7678 90.1565C18.9955 90.6033 19.291 91.0084 19.6413 91.3588C19.9916 91.7091 20.3968 92.0046 20.8436 92.2323C20.9125 92.2674 20.9823 92.3 21.0529 92.3303C21.1583 92.3755 21.2658 92.4156 21.3757 92.4513C21.7815 92.5827 22.2207 92.6529 22.7119 92.693C23.4095 92.75 24.2749 92.75 25.367 92.75H30.0001C30.4144 92.75 30.7501 92.4142 30.7501 92C30.7501 91.7411 30.619 91.5129 30.4194 91.3781C30.3546 91.3343 30.2825 91.3004 30.2054 91.2785C30.1402 91.2599 30.0713 91.25 30.0001 91.25H25.4001C24.2676 91.25 23.4634 91.2494 22.834 91.198C22.2134 91.1473 21.8291 91.0509 21.5246 90.8958C21.2857 90.774 21.0641 90.6239 20.8643 90.4497C20.5529 90.1782 20.2942 89.848 20.1044 89.4755C19.9441 89.1609 19.8468 88.7618 19.7974 88.1055C19.7778 87.8454 19.8882 87.6804 20.0465 87.4904C20.4773 86.9736 20.7698 86.6236 21.0157 86.3758C21.2568 86.1328 21.3966 86.048 21.4996 86.0104C21.7767 85.9091 22.0807 85.9091 22.3578 86.0104C22.4607 86.048 22.6006 86.1328 22.8417 86.3758C23.0876 86.6236 23.3801 86.9736 23.8108 87.4904C24.413 88.2131 25.5092 88.2532 26.1626 87.5764L29.1662 84.4656C29.5764 84.0407 29.8527 83.7553 30.083 83.5533C30.3068 83.3568 30.4361 83.2862 30.5341 83.2536C30.7902 83.1684 31.0671 83.1684 31.3233 83.2536C31.4538 83.2971 31.6249 83.4016 31.9801 83.7434C32.2785 84.0307 32.7533 84.0215 33.0405 83.7231C33.3278 83.4246 33.3187 82.9499 33.0202 82.6626C32.6379 82.2947 32.2642 81.9858 31.7968 81.8303C31.2332 81.6428 30.6241 81.6428 30.0606 81.8303C29.6924 81.9528 29.3878 82.1677 29.0936 82.4258C28.8111 82.6738 28.4918 83.0045 28.1086 83.4013L25.0834 86.5345C25.05 86.5692 24.994 86.5671 24.9632 86.5301L24.9417 86.5044C24.5379 86.0198 24.2038 85.6189 23.9064 85.3192C23.5991 85.0095 23.2752 84.7486 22.8727 84.6015C22.2631 84.3787 21.5943 84.3787 20.9846 84.6015C20.5822 84.7486 20.2583 85.0095 19.9509 85.3192C19.8859 85.3848 19.819 85.4552 19.7501 85.5303V82.4C19.7501 81.2675 19.7507 80.4633 19.8021 79.8339C19.8528 79.2133 19.9492 78.829 20.1043 78.5245C20.4159 77.913 20.9131 77.4158 21.5246 77.1042C21.8291 76.9491 22.2133 76.8527 22.834 76.802C23.4634 76.7506 24.2676 76.75 25.4001 76.75H28.6001C29.7326 76.75 30.5368 76.7506 31.1662 76.802C31.7868 76.8527 32.1711 76.9491 32.4756 77.1042C33.0871 77.4158 33.5843 77.913 33.8959 78.5245C34.051 78.829 34.1474 79.2133 34.1981 79.8339C34.2495 80.4633 34.2501 81.2675 34.2501 82.4C34.2501 82.8142 34.5859 83.15 35.0001 83.15C35.4143 83.15 35.7501 82.8142 35.7501 82.4V82.367C35.7501 81.2748 35.7501 80.4094 35.6931 79.7117C35.6348 78.9983 35.5132 78.3947 35.2324 77.8435C34.777 76.9498 34.0503 76.2231 33.1566 75.7677C32.6054 75.4869 32.0018 75.3653 31.2884 75.307C30.5907 75.25 29.7252 75.25 28.6331 75.25Z" fill="#5F5F6A"/>
<path d="M25.0001 78.25C23.4813 78.25 22.2501 79.4812 22.2501 81C22.2501 82.5188 23.4813 83.75 25.0001 83.75C26.5189 83.75 27.7501 82.5188 27.7501 81C27.7501 79.4812 26.5189 78.25 25.0001 78.25ZM23.7501 81C23.7501 80.3096 24.3097 79.75 25.0001 79.75C25.6905 79.75 26.2501 80.3096 26.2501 81C26.2501 81.6904 25.6905 82.25 25.0001 82.25C24.3097 82.25 23.7501 81.6904 23.7501 81Z" fill="#5F5F6A"/>
<path d="M35.2501 92C35.2501 92.4142 34.9143 92.75 34.5001 92.75C34.0859 92.75 33.7501 92.4142 33.7501 92V87.8107L32.5304 89.0303C32.2375 89.3232 31.7627 89.3232 31.4698 89.0303C31.1769 88.7374 31.1769 88.2626 31.4698 87.9697L33.9698 85.4697C34.2627 85.1768 34.7375 85.1768 35.0304 85.4697L37.5304 87.9697C37.8233 88.2626 37.8233 88.7374 37.5304 89.0303C37.2375 89.3232 36.7627 89.3232 36.4698 89.0303L35.2501 87.8107V92Z" fill="#5F5F6A"/>
<path d="M25.3774 131.5H28.6226C29.7236 131.5 30.5805 131.5 31.2679 131.556C31.9658 131.613 32.5329 131.731 33.043 131.99C33.8897 132.422 34.5781 133.11 35.0095 133.957C35.2694 134.467 35.3868 135.034 35.4438 135.732C35.5 136.419 35.5 137.276 35.5 138.377V138.4C35.5 138.676 35.2761 138.9 35 138.9C34.7239 138.9 34.5 138.676 34.5 138.4C34.5 137.272 34.4996 136.455 34.4472 135.814C34.3952 135.177 34.2946 134.757 34.1185 134.411C33.783 133.752 33.2475 133.217 32.589 132.881C32.2434 132.705 31.8226 132.605 31.1865 132.553C30.5446 132.5 29.7284 132.5 28.6 132.5H25.4C24.2716 132.5 23.4554 132.5 22.8135 132.553C22.1774 132.605 21.7566 132.705 21.411 132.881C20.7525 133.217 20.217 133.752 19.8815 134.411C19.7054 134.757 19.6048 135.177 19.5528 135.814C19.5004 136.455 19.5 137.272 19.5 138.4V141.6C19.5 141.809 19.5 142.007 19.5004 142.195C19.734 141.919 19.9393 141.686 20.1282 141.495C20.4245 141.197 20.7177 140.965 21.0703 140.836C21.6245 140.634 22.2325 140.634 22.7867 140.836C23.1393 140.965 23.4325 141.197 23.7288 141.495C24.0184 141.787 24.3465 142.181 24.7559 142.672L24.7709 142.69C24.897 142.841 25.1264 142.85 25.2631 142.708L28.2819 139.582C28.6705 139.179 28.9837 138.855 29.2583 138.614C29.5408 138.366 29.8162 138.175 30.1393 138.068C30.6516 137.897 31.2054 137.897 31.7177 138.068C32.129 138.204 32.4689 138.479 32.8467 138.843C33.0457 139.034 33.0517 139.351 32.8602 139.55C32.6688 139.749 32.3522 139.755 32.1533 139.563C31.7935 139.217 31.5887 139.079 31.402 139.016C31.0946 138.914 30.7624 138.914 30.455 139.016C30.3119 139.064 30.1535 139.159 29.9179 139.365C29.6781 139.576 29.3935 139.87 28.9861 140.292L25.9825 143.403C25.4325 143.972 24.5097 143.939 24.0027 143.33C23.5749 142.817 23.2743 142.457 23.019 142.2C22.7668 141.946 22.5963 141.831 22.4435 141.776C22.1109 141.654 21.7461 141.654 21.4136 141.776C21.2607 141.831 21.0902 141.946 20.838 142.2C20.5827 142.457 20.2822 142.817 19.8543 143.33L19.792 143.405C19.6331 143.596 19.6053 143.634 19.5851 143.674C19.5646 143.715 19.5455 143.775 19.5384 143.82C19.5341 143.847 19.5325 143.871 19.5352 143.932C19.5403 144.02 19.5461 144.104 19.5528 144.186C19.6048 144.823 19.7054 145.243 19.8815 145.589C20.217 146.248 20.7525 146.783 21.411 147.119C21.7566 147.295 22.1774 147.395 22.8135 147.447C23.4554 147.5 24.2716 147.5 25.4 147.5H30C30.2761 147.5 30.5 147.724 30.5 148C30.5 148.065 30.4877 148.126 30.4654 148.183C30.4281 148.278 30.3627 148.358 30.2796 148.415C30.1997 148.469 30.1035 148.5 30 148.5H25.3773C24.2764 148.5 23.4194 148.5 22.7321 148.444C22.0341 148.387 21.4671 148.269 20.957 148.01C20.1103 147.578 19.4219 146.89 18.9904 146.043C18.7222 145.517 18.6056 144.929 18.5507 144.199L18.5484 144.168C18.5431 144.099 18.5381 144.033 18.5356 143.968C18.5 143.335 18.5 142.569 18.5 141.623V138.377C18.5 137.276 18.5 136.419 18.5562 135.732C18.6132 135.034 18.7306 134.467 18.9905 133.957C19.4219 133.11 20.1103 132.422 20.957 131.99C21.4671 131.731 22.0342 131.613 22.7321 131.556C23.4195 131.5 24.2764 131.5 25.3774 131.5Z" fill="#5F5F6A"/>
<path d="M35 143.207V148C35 148.276 34.7761 148.5 34.5 148.5C34.2239 148.5 34 148.276 34 148V143.207L32.3536 144.854C32.1583 145.049 31.8417 145.049 31.6464 144.854C31.4512 144.658 31.4512 144.342 31.6464 144.146L34.1464 141.646C34.3417 141.451 34.6583 141.451 34.8536 141.646L37.3536 144.146C37.5488 144.342 37.5488 144.658 37.3536 144.854C37.1583 145.049 36.8417 145.049 36.6464 144.854L35 143.207Z" fill="#5F5F6A"/>
<path d="M25 134.5C23.6193 134.5 22.5 135.619 22.5 137C22.5 138.381 23.6193 139.5 25 139.5C26.3807 139.5 27.5 138.381 27.5 137C27.5 135.619 26.3807 134.5 25 134.5ZM23.5 137C23.5 136.172 24.1716 135.5 25 135.5C25.8284 135.5 26.5 136.172 26.5 137C26.5 137.828 25.8284 138.5 25 138.5C24.1716 138.5 23.5 137.828 23.5 137Z" fill="#5F5F6A"/>
</svg>
