<svg width="56" height="224" viewBox="0 0 56 224" fill="none" xmlns="http://www.w3.org/2000/svg">
<path d="M23.5 25.25C22.7403 25.25 22.0545 25.5564 21.5555 26.0555C21.0564 26.5545 20.75 27.2403 20.75 28C20.75 28.7597 21.0564 29.4455 21.5555 29.9445C22.0545 30.4436 22.7403 30.75 23.5 30.75C24.1516 30.75 24.7471 30.525 25.2182 30.1474C25.7568 29.7156 26.5435 29.8022 26.9753 30.3408C27.4071 30.8795 27.3205 31.6662 26.7818 32.098C25.8833 32.8183 24.7403 33.25 23.5 33.25C22.0506 33.25 20.7364 32.661 19.7877 31.7123C18.839 30.7636 18.25 29.4494 18.25 28C18.25 26.5506 18.839 25.2364 19.7877 24.2877C20.7364 23.339 22.0506 22.75 23.5 22.75C24.9202 22.75 26.1215 23.1969 27.2123 24.2877C28.1137 25.1891 28.6153 26.3539 29.0193 27.292C29.5013 28.4113 29.8838 29.2729 30.5555 29.9445C31.0545 30.4436 31.7403 30.75 32.5 30.75C33.2597 30.75 33.9455 30.4436 34.4445 29.9445C34.9436 29.4455 35.25 28.7597 35.25 28C35.25 27.2403 34.9436 26.5545 34.4445 26.0555C33.9455 25.5564 33.2597 25.25 32.5 25.25C31.8484 25.25 31.2529 25.475 30.7818 25.8526C30.2432 26.2844 29.4565 26.1978 29.0247 25.6592C28.5929 25.1205 28.6795 24.3338 29.2182 23.902C30.1167 23.1817 31.2597 22.75 32.5 22.75C33.9494 22.75 35.2636 23.339 36.2123 24.2877C37.161 25.2364 37.75 26.5506 37.75 28C37.75 29.4494 37.161 30.7636 36.2123 31.7123C35.2636 32.661 33.9494 33.25 32.5 33.25C31.0506 33.25 29.7364 32.661 28.7877 31.7123C27.8636 30.7883 27.2997 29.6156 26.7881 28.4315C26.3229 27.3551 25.9911 26.602 25.4445 26.0555C24.8446 25.4555 24.2889 25.25 23.5 25.25Z" fill="#5F5F6A"/>
<path d="M23.5 81C22.6713 81 21.9227 81.3347 21.3787 81.8787C20.8347 82.4227 20.5 83.1713 20.5 84C20.5 84.8287 20.8347 85.5773 21.3787 86.1213C21.9227 86.6653 22.6713 87 23.5 87C24.2104 87 24.8607 86.7543 25.3745 86.3424C25.8054 85.997 26.4348 86.0663 26.7802 86.4972C27.1257 86.9281 27.0564 87.5575 26.6255 87.9029C25.7697 88.589 24.6815 89 23.5 89C22.1196 89 20.8682 88.4393 19.9645 87.5355C19.0607 86.6318 18.5 85.3804 18.5 84C18.5 82.6196 19.0607 81.3682 19.9645 80.4645C20.8682 79.5607 22.1196 79 23.5 79C24.8571 79 25.9938 79.4227 27.0355 80.4645C27.9019 81.3309 28.3863 82.4549 28.7938 83.4005C28.8139 83.447 28.8337 83.4932 28.8535 83.5388C29.3013 84.5749 29.6985 85.4411 30.3787 86.1213C30.9227 86.6653 31.6713 87 32.5 87C33.3287 87 34.0773 86.6653 34.6213 86.1213C35.1653 85.5773 35.5 84.8287 35.5 84C35.5 83.1713 35.1653 82.4227 34.6213 81.8787C34.0773 81.3347 33.3287 81 32.5 81C31.7896 81 31.1393 81.2457 30.6255 81.6576C30.1946 82.003 29.5652 81.9337 29.2198 81.5028C28.8743 81.0719 28.9436 80.4425 29.3745 80.0971C30.2303 79.411 31.3185 79 32.5 79C33.8804 79 35.1318 79.5607 36.0355 80.4645C36.9393 81.3682 37.5 82.6196 37.5 84C37.5 85.3804 36.9393 86.6318 36.0355 87.5355C35.1318 88.4393 33.8804 89 32.5 89C31.1196 89 29.8682 88.4393 28.9645 87.5355C27.9769 86.548 27.4505 85.3337 27.0176 84.3323C26.5573 83.2674 26.2081 82.4655 25.6213 81.8787C24.9723 81.2296 24.3521 81 23.5 81Z" fill="#5F5F6A"/>
<path d="M23.5 136.75C22.6023 136.75 21.7909 137.113 21.2019 137.702C20.6129 138.291 20.25 139.102 20.25 140C20.25 140.898 20.6129 141.709 21.2019 142.298C21.7909 142.887 22.6023 143.25 23.5 143.25C24.2693 143.25 24.9744 142.984 25.5309 142.537C25.8541 142.278 26.3261 142.33 26.5852 142.654C26.8443 142.977 26.7923 143.449 26.4691 143.708C25.656 144.36 24.6226 144.75 23.5 144.75C22.1885 144.75 21 144.218 20.1412 143.359C19.2825 142.5 18.75 141.311 18.75 140C18.75 138.689 19.2825 137.5 20.1412 136.641C21 135.782 22.1885 135.25 23.5 135.25C24.794 135.25 25.8661 135.649 26.8588 136.641C27.6902 137.473 28.1575 138.556 28.569 139.51C28.5874 139.553 28.6057 139.596 28.624 139.638C29.0699 140.67 29.4833 141.579 30.2019 142.298C30.7909 142.887 31.6023 143.25 32.5 143.25C33.3977 143.25 34.2091 142.887 34.7981 142.298C35.3871 141.709 35.75 140.898 35.75 140C35.75 139.102 35.3871 138.291 34.7981 137.702C34.2091 137.113 33.3977 136.75 32.5 136.75C31.7307 136.75 31.0256 137.016 30.4691 137.463C30.1459 137.722 29.6739 137.67 29.4148 137.346C29.1557 137.023 29.2077 136.551 29.5309 136.292C30.344 135.64 31.3774 135.25 32.5 135.25C33.8115 135.25 35 135.782 35.8588 136.641C36.7175 137.5 37.25 138.689 37.25 140C37.25 141.311 36.7175 142.5 35.8588 143.359C35 144.218 33.8115 144.75 32.5 144.75C31.1885 144.75 30 144.218 29.1412 143.359C28.1921 142.41 27.6818 141.239 27.2471 140.233L27.2429 140.223C26.7895 139.175 26.4233 138.327 25.7981 137.702C25.0999 137.004 24.4152 136.75 23.5 136.75Z" fill="#5F5F6A"/>
<path d="M23.5 192.5C22.5334 192.5 21.659 192.891 21.0251 193.525C20.3912 194.159 20 195.033 20 196C20 196.967 20.3912 197.841 21.0251 198.475C21.659 199.109 22.5334 199.5 23.5 199.5C24.3282 199.5 25.088 199.213 25.6873 198.733C25.9027 198.56 26.2174 198.594 26.3901 198.81C26.5628 199.025 26.5282 199.34 26.3127 199.513C25.5424 200.13 24.5637 200.5 23.5 200.5C22.2575 200.5 21.1318 199.996 20.318 199.182C19.5042 198.368 19 197.243 19 196C19 194.757 19.5042 193.632 20.318 192.818C21.1318 192.004 22.2575 191.5 23.5 191.5C24.7308 191.5 25.7384 191.874 26.682 192.818C27.4787 193.615 27.9288 194.658 28.3449 195.622C28.3615 195.661 28.378 195.699 28.3945 195.737C28.8386 196.765 29.2681 197.718 30.0251 198.475C30.659 199.109 31.5334 199.5 32.5 199.5C33.4666 199.5 34.341 199.109 34.9749 198.475C35.6088 197.841 36 196.967 36 196C36 195.033 35.6088 194.159 34.9749 193.525C34.341 192.891 33.4666 192.5 32.5 192.5C31.6718 192.5 30.912 192.787 30.3127 193.267C30.0973 193.44 29.7826 193.406 29.6099 193.19C29.4372 192.975 29.4718 192.66 29.6873 192.487C30.4576 191.87 31.4363 191.5 32.5 191.5C33.7425 191.5 34.8682 192.004 35.682 192.818C36.4958 193.632 37 194.757 37 196C37 197.243 36.4958 198.368 35.682 199.182C34.8682 199.996 33.7425 200.5 32.5 200.5C31.2575 200.5 30.1318 199.996 29.318 199.182C28.4073 198.271 27.9132 197.144 27.4766 196.134L27.4599 196.095C27.0167 195.07 26.634 194.184 25.9749 193.525C25.2276 192.778 24.4783 192.5 23.5 192.5Z" fill="#5F5F6A"/>
</svg>
