<svg width="56" height="224" viewBox="0 0 56 224" fill="none" xmlns="http://www.w3.org/2000/svg">
<path d="M28 37C32.9706 37 37 32.9706 37 28C37 23.0294 32.9706 19 28 19C23.0294 19 19 23.0294 19 28C19 32.9706 23.0294 37 28 37ZM27.75 24C27.75 23.8619 27.8619 23.75 28 23.75C28.1381 23.75 28.25 23.8619 28.25 24C28.25 24.1381 28.1381 24.25 28 24.25C27.8619 24.25 27.75 24.1381 27.75 24ZM28 22.25C28.9665 22.25 29.75 23.0335 29.75 24C29.75 24.9665 28.9665 25.75 28 25.75C27.0335 25.75 26.25 24.9665 26.25 24C26.25 23.0335 27.0335 22.25 28 22.25ZM27.416 28.624C27.0714 28.8538 26.6057 28.7607 26.376 28.416C26.1462 28.0714 26.2393 27.6057 26.584 27.376L27.3066 26.8942C28.1373 26.3404 29.25 26.9359 29.25 27.9343V31.75H30C30.4142 31.75 30.75 32.0858 30.75 32.5C30.75 32.9142 30.4142 33.25 30 33.25H28.5H27C26.5858 33.25 26.25 32.9142 26.25 32.5C26.25 32.0858 26.5858 31.75 27 31.75H27.75V28.4014L27.416 28.624Z" fill="#5F5F6A"/>
<path opacity="0.5" d="M28 79.75C27.8619 79.75 27.75 79.8619 27.75 80C27.75 80.1381 27.8619 80.25 28 80.25C28.138 80.25 28.25 80.1381 28.25 80C28.25 79.8619 28.138 79.75 28 79.75ZM26.25 80C26.25 79.0335 27.0335 78.25 28 78.25C28.9665 78.25 29.75 79.0335 29.75 80C29.75 80.9665 28.9665 81.75 28 81.75C27.0335 81.75 26.25 80.9665 26.25 80ZM27.75 84.4014L27.416 84.624C27.0713 84.8538 26.6057 84.7607 26.3759 84.416C26.1462 84.0714 26.2393 83.6057 26.5839 83.376L27.3066 82.8942C28.1373 82.3404 29.25 82.9359 29.25 83.9343V87.75H30C30.4142 87.75 30.75 88.0858 30.75 88.5C30.75 88.9142 30.4142 89.25 30 89.25H27C26.5857 89.25 26.25 88.9142 26.25 88.5C26.25 88.0858 26.5857 87.75 27 87.75H27.75V84.4014Z" fill="#5F5F6A"/>
<path d="M28 75.75C23.4437 75.75 19.75 79.4437 19.75 84C19.75 88.5563 23.4437 92.25 28 92.25C32.5563 92.25 36.25 88.5563 36.25 84C36.25 79.4437 32.5563 75.75 28 75.75ZM18.25 84C18.25 78.6152 22.6152 74.25 28 74.25C33.3848 74.25 37.75 78.6152 37.75 84C37.75 89.3848 33.3848 93.75 28 93.75C22.6152 93.75 18.25 89.3848 18.25 84Z" fill="#5F5F6A"/>
<path d="M28 131.75C23.4437 131.75 19.75 135.444 19.75 140C19.75 144.556 23.4437 148.25 28 148.25C32.5563 148.25 36.25 144.556 36.25 140C36.25 135.444 32.5563 131.75 28 131.75ZM18.25 140C18.25 134.615 22.6152 130.25 28 130.25C33.3848 130.25 37.75 134.615 37.75 140C37.75 145.385 33.3848 149.75 28 149.75C22.6152 149.75 18.25 145.385 18.25 140ZM28 135.75C27.8619 135.75 27.75 135.862 27.75 136C27.75 136.138 27.8619 136.25 28 136.25C28.1381 136.25 28.25 136.138 28.25 136C28.25 135.862 28.1381 135.75 28 135.75ZM26.25 136C26.25 135.034 27.0335 134.25 28 134.25C28.9665 134.25 29.75 135.034 29.75 136C29.75 136.966 28.9665 137.75 28 137.75C27.0335 137.75 26.25 136.966 26.25 136ZM27.75 140.401L27.416 140.624C27.0714 140.854 26.6057 140.761 26.376 140.416C26.1462 140.071 26.2393 139.606 26.584 139.376L27.3066 138.894C28.1373 138.34 29.25 138.936 29.25 139.934V143.75H30C30.4142 143.75 30.75 144.086 30.75 144.5C30.75 144.914 30.4142 145.25 30 145.25H27C26.5858 145.25 26.25 144.914 26.25 144.5C26.25 144.086 26.5858 143.75 27 143.75H27.75V140.401Z" fill="#5F5F6A"/>
<path d="M28 187.5C23.3056 187.5 19.5 191.306 19.5 196C19.5 200.694 23.3056 204.5 28 204.5C32.6944 204.5 36.5 200.694 36.5 196C36.5 191.306 32.6944 187.5 28 187.5ZM18.5 196C18.5 190.753 22.7533 186.5 28 186.5C33.2467 186.5 37.5 190.753 37.5 196C37.5 201.247 33.2467 205.5 28 205.5C22.7533 205.5 18.5 201.247 18.5 196ZM28 191.5C27.7239 191.5 27.5 191.724 27.5 192C27.5 192.276 27.7239 192.5 28 192.5C28.2761 192.5 28.5 192.276 28.5 192C28.5 191.724 28.2761 191.5 28 191.5ZM26.5 192C26.5 191.172 27.1716 190.5 28 190.5C28.8284 190.5 29.5 191.172 29.5 192C29.5 192.828 28.8284 193.5 28 193.5C27.1716 193.5 26.5 192.828 26.5 192ZM27.4453 195.102C28.1099 194.659 29 195.136 29 195.934V200H30C30.2761 200 30.5 200.224 30.5 200.5C30.5 200.776 30.2761 201 30 201H27C26.7239 201 26.5 200.776 26.5 200.5C26.5 200.224 26.7239 200 27 200H28L28 195.934L27.2774 196.416C27.0476 196.569 26.7372 196.507 26.584 196.277C26.4308 196.048 26.4929 195.737 26.7227 195.584L27.4453 195.102Z" fill="#5F5F6A"/>
</svg>
