<svg width="56" height="224" viewBox="0 0 56 224" fill="none" xmlns="http://www.w3.org/2000/svg">
<path fill-rule="evenodd" clip-rule="evenodd" d="M24.1429 19C21.3025 19 19 21.3025 19 24.1429V31.8571C19 34.6975 21.3025 37 24.1429 37H31.8571C34.6975 37 37 34.6975 37 31.8571V24.1429C37 21.3025 34.6975 19 31.8571 19H24.1429ZM23.8214 22.8571C23.2889 22.8571 22.8571 23.2889 22.8571 23.8214V32.1786C22.8571 32.7111 23.2889 33.1429 23.8214 33.1429C24.354 33.1429 24.7857 32.7111 24.7857 32.1786V23.8214C24.7857 23.2889 24.354 22.8571 23.8214 22.8571ZM27.0357 23.8214C27.0357 23.2889 27.4674 22.8571 28 22.8571C28.5326 22.8571 28.9643 23.2889 28.9643 23.8214V29.6071C28.9643 30.1397 28.5326 30.5714 28 30.5714C27.4674 30.5714 27.0357 30.1397 27.0357 29.6071V23.8214ZM32.1786 22.8571C31.646 22.8571 31.2143 23.2889 31.2143 23.8214V27.0357C31.2143 27.5683 31.646 28 32.1786 28C32.7111 28 33.1429 27.5683 33.1429 27.0357V23.8214C33.1429 23.2889 32.7111 22.8571 32.1786 22.8571Z" fill="#5F5F6A"/>
<path fill-rule="evenodd" clip-rule="evenodd" d="M19 80.5161C19 77.4697 21.4697 75 24.5161 75H31.4839C34.5303 75 37 77.4697 37 80.5161V87.4839C37 90.5303 34.5303 93 31.4839 93H24.5161C21.4697 93 19 90.5303 19 87.4839V80.5161ZM24.5161 76.7419C22.4317 76.7419 20.7419 78.4317 20.7419 80.5161V87.4839C20.7419 89.5683 22.4317 91.2581 24.5161 91.2581H31.4839C33.5683 91.2581 35.2581 89.5683 35.2581 87.4839V80.5161C35.2581 78.4317 33.5683 76.7419 31.4839 76.7419H24.5161Z" fill="#5F5F6A"/>
<g opacity="0.5">
<path d="M23.3535 80.2258C23.3535 79.7448 23.7435 79.3548 24.2245 79.3548C24.7055 79.3548 25.0955 79.7448 25.0955 80.2258V87.7742C25.0955 88.2552 24.7055 88.6452 24.2245 88.6452C23.7435 88.6452 23.3535 88.2552 23.3535 87.7742V80.2258Z" fill="#5F5F6A"/>
<path d="M27.1277 80.2258C27.1277 79.7448 27.5177 79.3548 27.9987 79.3548C28.4797 79.3548 28.8696 79.7448 28.8696 80.2258V85.4516C28.8696 85.9326 28.4797 86.3226 27.9987 86.3226C27.5177 86.3226 27.1277 85.9326 27.1277 85.4516V80.2258Z" fill="#5F5F6A"/>
<path d="M31.7729 79.3548C31.2918 79.3548 30.9019 79.7448 30.9019 80.2258V83.129C30.9019 83.6101 31.2918 84 31.7729 84C32.2539 84 32.6438 83.6101 32.6438 83.129V80.2258C32.6438 79.7448 32.2539 79.3548 31.7729 79.3548Z" fill="#5F5F6A"/>
</g>
<path d="M24.2258 135.355C23.7448 135.355 23.3548 135.745 23.3548 136.226V143.774C23.3548 144.255 23.7448 144.645 24.2258 144.645C24.7068 144.645 25.0968 144.255 25.0968 143.774V136.226C25.0968 135.745 24.7068 135.355 24.2258 135.355Z" fill="#5F5F6A"/>
<path d="M27.129 136.226C27.129 135.745 27.519 135.355 28 135.355C28.481 135.355 28.871 135.745 28.871 136.226V141.452C28.871 141.933 28.481 142.323 28 142.323C27.519 142.323 27.129 141.933 27.129 141.452V136.226Z" fill="#5F5F6A"/>
<path d="M31.7742 135.355C31.2932 135.355 30.9032 135.745 30.9032 136.226V139.129C30.9032 139.61 31.2932 140 31.7742 140C32.2552 140 32.6452 139.61 32.6452 139.129V136.226C32.6452 135.745 32.2552 135.355 31.7742 135.355Z" fill="#5F5F6A"/>
<path fill-rule="evenodd" clip-rule="evenodd" d="M24.5161 131C21.4697 131 19 133.47 19 136.516V143.484C19 146.53 21.4697 149 24.5161 149H31.4839C34.5303 149 37 146.53 37 143.484V136.516C37 133.47 34.5303 131 31.4839 131H24.5161ZM20.7419 136.516C20.7419 134.432 22.4317 132.742 24.5161 132.742H31.4839C33.5683 132.742 35.2581 134.432 35.2581 136.516V143.484C35.2581 145.568 33.5683 147.258 31.4839 147.258H24.5161C22.4317 147.258 20.7419 145.568 20.7419 143.484V136.516Z" fill="#5F5F6A"/>
<path d="M23.8 191.2C23.4686 191.2 23.2 191.469 23.2 191.8V200.2C23.2 200.531 23.4686 200.8 23.8 200.8C24.1314 200.8 24.4 200.531 24.4 200.2V191.8C24.4 191.469 24.1314 191.2 23.8 191.2Z" fill="#5F5F6A"/>
<path d="M27.4 191.8C27.4 191.469 27.6686 191.2 28 191.2C28.3314 191.2 28.6 191.469 28.6 191.8V197.8C28.6 198.131 28.3314 198.4 28 198.4C27.6686 198.4 27.4 198.131 27.4 197.8V191.8Z" fill="#5F5F6A"/>
<path d="M32.2 191.2C31.8686 191.2 31.6 191.469 31.6 191.8V195.4C31.6 195.731 31.8686 196 32.2 196C32.5314 196 32.8 195.731 32.8 195.4V191.8C32.8 191.469 32.5314 191.2 32.2 191.2Z" fill="#5F5F6A"/>
<path fill-rule="evenodd" clip-rule="evenodd" d="M24.4 187C21.4177 187 19 189.418 19 192.4V199.6C19 202.582 21.4177 205 24.4 205H31.6C34.5823 205 37 202.582 37 199.6V192.4C37 189.418 34.5823 187 31.6 187H24.4ZM20.2 192.4C20.2 190.08 22.0804 188.2 24.4 188.2H31.6C33.9196 188.2 35.8 190.08 35.8 192.4V199.6C35.8 201.92 33.9196 203.8 31.6 203.8H24.4C22.0804 203.8 20.2 201.92 20.2 199.6V192.4Z" fill="#5F5F6A"/>
</svg>
