<svg width="64" height="168" viewBox="0 0 64 168" fill="none" xmlns="http://www.w3.org/2000/svg">
<path d="M23 24.5161C23 21.4697 25.4697 19 28.5161 19H35.4839C38.5303 19 41 21.4697 41 24.5161V28.129C41 28.6101 40.6101 29 40.129 29C39.648 29 39.2581 28.6101 39.2581 28.129V24.5161C39.2581 22.4317 37.5683 20.7419 35.4839 20.7419H28.5161C26.4317 20.7419 24.7419 22.4317 24.7419 24.5161V31.4839C24.7419 33.5683 26.4317 35.2581 28.5161 35.2581H32.129C32.6101 35.2581 33 35.648 33 36.129C33 36.6101 32.6101 37 32.129 37H28.5161C25.4697 37 23 34.5303 23 31.4839V24.5161Z" fill="#5F5F6A"/>
<g opacity="0.5">
<path d="M27.3535 24.2258C27.3535 23.7448 27.7435 23.3549 28.2245 23.3549C28.7055 23.3549 29.0955 23.7448 29.0955 24.2258V31.7742C29.0955 32.2552 28.7055 32.6452 28.2245 32.6452C27.7435 32.6452 27.3535 32.2552 27.3535 31.7742V24.2258Z" fill="#5F5F6A"/>
<path d="M31.1277 24.2258C31.1277 23.7448 31.5177 23.3549 31.9987 23.3549C32.4797 23.3549 32.8696 23.7448 32.8696 24.2258V29.4516C32.8696 29.9327 32.4797 30.3226 31.9987 30.3226C31.5177 30.3226 31.1277 29.9327 31.1277 29.4516V24.2258Z" fill="#5F5F6A"/>
<path d="M35.7729 23.3549C35.2918 23.3549 34.9019 23.7448 34.9019 24.2258V27.1291C34.9019 27.6101 35.2918 28 35.7729 28C36.2539 28 36.6438 27.6101 36.6438 27.1291V24.2258C36.6438 23.7448 36.2539 23.3549 35.7729 23.3549Z" fill="#5F5F6A"/>
<path d="M38 30.25C38.4142 30.25 38.75 30.5858 38.75 31V33.25H41C41.4142 33.25 41.75 33.5858 41.75 34C41.75 34.4142 41.4142 34.75 41 34.75H38.75V37C38.75 37.4142 38.4142 37.75 38 37.75C37.5858 37.75 37.25 37.4142 37.25 37V34.75H35C34.5858 34.75 34.25 34.4142 34.25 34C34.25 33.5858 34.5858 33.25 35 33.25H37.25V31C37.25 30.5858 37.5858 30.25 38 30.25Z" fill="#5F5F6A"/>
</g>
<path d="M23 80.5161C23 77.4697 25.4697 75 28.5161 75H35.4839C38.5303 75 41 77.4697 41 80.5161V84.129C41 84.6101 40.6101 85 40.129 85C39.648 85 39.2581 84.6101 39.2581 84.129V80.5161C39.2581 78.4317 37.5683 76.7419 35.4839 76.7419H28.5161C26.4317 76.7419 24.7419 78.4317 24.7419 80.5161V87.4839C24.7419 89.5683 26.4317 91.2581 28.5161 91.2581H32.129C32.6101 91.2581 33 91.648 33 92.129C33 92.6101 32.6101 93 32.129 93H28.5161C25.4697 93 23 90.5303 23 87.4839V80.5161Z" fill="#5F5F6A"/>
<path d="M27.3548 80.2258C27.3548 79.7448 27.7448 79.3548 28.2258 79.3548C28.7068 79.3548 29.0968 79.7448 29.0968 80.2258V87.7742C29.0968 88.2552 28.7068 88.6452 28.2258 88.6452C27.7448 88.6452 27.3548 88.2552 27.3548 87.7742V80.2258Z" fill="#5F5F6A"/>
<path d="M32 79.3548C31.519 79.3548 31.129 79.7448 31.129 80.2258V85.4516C31.129 85.9326 31.519 86.3226 32 86.3226C32.481 86.3226 32.871 85.9326 32.871 85.4516V80.2258C32.871 79.7448 32.481 79.3548 32 79.3548Z" fill="#5F5F6A"/>
<path d="M35.7742 79.3548C35.2932 79.3548 34.9032 79.7448 34.9032 80.2258V83.129C34.9032 83.6101 35.2932 84 35.7742 84C36.2552 84 36.6452 83.6101 36.6452 83.129V80.2258C36.6452 79.7448 36.2552 79.3548 35.7742 79.3548Z" fill="#5F5F6A"/>
<path d="M38.75 87C38.75 86.5858 38.4142 86.25 38 86.25C37.5858 86.25 37.25 86.5858 37.25 87V89.25H35C34.5858 89.25 34.25 89.5858 34.25 90C34.25 90.4142 34.5858 90.75 35 90.75H37.25V93C37.25 93.4142 37.5858 93.75 38 93.75C38.4142 93.75 38.75 93.4142 38.75 93V90.75H41C41.4142 90.75 41.75 90.4142 41.75 90C41.75 89.5858 41.4142 89.25 41 89.25H38.75V87Z" fill="#5F5F6A"/>
<path d="M23 136.4C23 133.418 25.4177 131 28.4 131H35.6C38.5823 131 41 133.418 41 136.4V140.4C41 140.731 40.7314 141 40.4 141C40.0686 141 39.8 140.731 39.8 140.4V136.4C39.8 134.08 37.9196 132.2 35.6 132.2H28.4C26.0804 132.2 24.2 134.08 24.2 136.4V143.6C24.2 145.92 26.0804 147.8 28.4 147.8H32.4C32.7314 147.8 33 148.069 33 148.4C33 148.731 32.7314 149 32.4 149H28.4C25.4177 149 23 146.582 23 143.6V136.4Z" fill="#5F5F6A"/>
<path d="M27.2 135.8C27.2 135.469 27.4686 135.2 27.8 135.2C28.1314 135.2 28.4 135.469 28.4 135.8V144.2C28.4 144.531 28.1314 144.8 27.8 144.8C27.4686 144.8 27.2 144.531 27.2 144.2V135.8Z" fill="#5F5F6A"/>
<path d="M32 135.2C31.6686 135.2 31.4 135.469 31.4 135.8V141.8C31.4 142.131 31.6686 142.4 32 142.4C32.3314 142.4 32.6 142.131 32.6 141.8V135.8C32.6 135.469 32.3314 135.2 32 135.2Z" fill="#5F5F6A"/>
<path d="M36.2 135.2C35.8686 135.2 35.6 135.469 35.6 135.8V139.4C35.6 139.731 35.8686 140 36.2 140C36.5314 140 36.8 139.731 36.8 139.4V135.8C36.8 135.469 36.5314 135.2 36.2 135.2Z" fill="#5F5F6A"/>
<path d="M38 141.5C38.2761 141.5 38.5 141.724 38.5 142V144.5H41C41.2761 144.5 41.5 144.724 41.5 145C41.5 145.276 41.2761 145.5 41 145.5H38.5V148C38.5 148.276 38.2761 148.5 38 148.5C37.7239 148.5 37.5 148.276 37.5 148V145.5H35C34.7239 145.5 34.5 145.276 34.5 145C34.5 144.724 34.7239 144.5 35 144.5H37.5V142C37.5 141.724 37.7239 141.5 38 141.5Z" fill="#5F5F6A"/>
</svg>
