<svg width="56" height="224" viewBox="0 0 56 224" fill="none" xmlns="http://www.w3.org/2000/svg">
<path fill-rule="evenodd" clip-rule="evenodd" d="M34.65 26.1C34.65 28.5853 32.6353 30.6 30.15 30.6C29.7536 30.6 29.3691 30.5487 29.0029 30.4525C28.8332 30.4078 28.6504 30.4419 28.5172 30.5561L28.1405 30.8794C28.0498 30.9572 27.9343 31 27.8149 31H27.5C27.2239 31 27 31.2239 27 31.5V32.5C27 32.7761 26.7761 33 26.5 33H25.5C25.2239 33 25 33.2239 25 33.5V34C25 34.2761 24.7761 34.5 24.5 34.5H22C21.7239 34.5 21.5 34.2761 21.5 34V32.2029C21.5 32.0728 21.5507 31.9478 21.6414 31.8545L25.6615 27.7167C25.791 27.5834 25.8336 27.39 25.7879 27.2099C25.6979 26.8549 25.65 26.483 25.65 26.1C25.65 23.6147 27.6647 21.6 30.15 21.6C32.6353 21.6 34.65 23.6147 34.65 26.1ZM31 26C31.5523 26 32 25.5523 32 25C32 24.4477 31.5523 24 31 24C30.4477 24 30 24.4477 30 25C30 25.5523 30.4477 26 31 26Z" fill="#5F5F6A"/>
<path fill-rule="evenodd" clip-rule="evenodd" d="M30.15 78.35C28.0789 78.35 26.4 80.0289 26.4 82.1C26.4 82.5086 26.4651 82.9006 26.5849 83.2669C26.6715 83.5317 26.6042 83.8228 26.41 84.0226L22.25 88.3043V89.75H24.25V89C24.25 88.5858 24.5858 88.25 25 88.25H26.25V87C26.25 86.5858 26.5858 86.25 27 86.25H27.7223L28.2434 85.8028C28.4432 85.6314 28.7182 85.5772 28.968 85.6601C29.3387 85.7831 29.7358 85.85 30.15 85.85C32.2211 85.85 33.9 84.171 33.9 82.1C33.9 80.0289 32.2211 78.35 30.15 78.35ZM25.75 89.75V90.5C25.75 90.9142 25.4142 91.25 25 91.25H21.5C21.0858 91.25 20.75 90.9142 20.75 90.5V88C20.75 87.8048 20.8261 87.6174 20.9621 87.4774L25.0346 83.2856C24.9465 82.9041 24.9 82.5071 24.9 82.1C24.9 79.2005 27.2505 76.85 30.15 76.85C33.0495 76.85 35.4 79.2005 35.4 82.1C35.4 84.9995 33.0495 87.35 30.15 87.35C29.7251 87.35 29.3112 87.2994 28.9144 87.2036L28.4884 87.5691C28.3525 87.6858 28.1792 87.75 28 87.75H27.75V89C27.75 89.4142 27.4142 89.75 27 89.75H25.75Z" fill="#5F5F6A"/>
<circle opacity="0.5" cx="31" cy="81" r="1" fill="#5F5F6A"/>
<path d="M31 138C31.5523 138 32 137.552 32 137C32 136.448 31.5523 136 31 136C30.4477 136 30 136.448 30 137C30 137.552 30.4477 138 31 138Z" fill="#5F5F6A"/>
<path fill-rule="evenodd" clip-rule="evenodd" d="M25.75 146.5V145.75H27C27.4142 145.75 27.75 145.414 27.75 145V143.75H28C28.1792 143.75 28.3525 143.686 28.4884 143.569L28.9144 143.204C29.3112 143.299 29.7251 143.35 30.15 143.35C33.0495 143.35 35.4 140.999 35.4 138.1C35.4 135.2 33.0495 132.85 30.15 132.85C27.2505 132.85 24.9 135.2 24.9 138.1C24.9 138.507 24.9465 138.904 25.0346 139.286L20.9621 143.477C20.8261 143.617 20.75 143.805 20.75 144V146.5C20.75 146.914 21.0858 147.25 21.5 147.25H25C25.4142 147.25 25.75 146.914 25.75 146.5ZM26.4 138.1C26.4 136.029 28.0789 134.35 30.15 134.35C32.2211 134.35 33.9 136.029 33.9 138.1C33.9 140.171 32.2211 141.85 30.15 141.85C29.7358 141.85 29.3387 141.783 28.968 141.66C28.7182 141.577 28.4432 141.631 28.2434 141.803L27.7223 142.25H27C26.5858 142.25 26.25 142.586 26.25 143V144.25H25C24.5858 144.25 24.25 144.586 24.25 145V145.75H22.25V144.304L26.41 140.023C26.6042 139.823 26.6715 139.532 26.5849 139.267C26.4651 138.901 26.4 138.509 26.4 138.1Z" fill="#5F5F6A"/>
<path d="M31 194C31.5523 194 32 193.552 32 193C32 192.448 31.5523 192 31 192C30.4477 192 30 192.448 30 193C30 193.552 30.4477 194 31 194Z" fill="#5F5F6A"/>
<path fill-rule="evenodd" clip-rule="evenodd" d="M30.15 189.1C27.3886 189.1 25.15 191.339 25.15 194.1C25.15 194.535 25.2056 194.957 25.3104 195.361L21.1414 199.652C21.0507 199.745 21 199.87 21 200V202.5C21 202.776 21.2239 203 21.5 203H25C25.2761 203 25.5 202.776 25.5 202.5V201.5H27C27.2761 201.5 27.5 201.276 27.5 201V199.5H28C28.1195 199.5 28.235 199.457 28.3256 199.379L28.8502 198.929C29.2651 199.041 29.701 199.1 30.15 199.1C32.9114 199.1 35.15 196.861 35.15 194.1C35.15 191.339 32.9114 189.1 30.15 189.1ZM26.15 194.1C26.15 191.891 27.9409 190.1 30.15 190.1C32.3591 190.1 34.15 191.891 34.15 194.1C34.15 196.309 32.3591 198.1 30.15 198.1C29.7087 198.1 29.285 198.029 28.8893 197.897C28.7227 197.842 28.5394 197.878 28.4062 197.993L27.8149 198.5H27C26.7239 198.5 26.5 198.724 26.5 199V200.5H25C24.7239 200.5 24.5 200.724 24.5 201V202H22V200.203L26.2307 195.848C26.3601 195.715 26.405 195.521 26.3473 195.345C26.2194 194.953 26.15 194.535 26.15 194.1Z" fill="#5F5F6A"/>
</svg>
