<svg width="64" height="168" viewBox="0 0 64 168" fill="none" xmlns="http://www.w3.org/2000/svg">
<path d="M24 22C24 21.4477 24.4477 21 25 21H39C39.5523 21 40 21.4477 40 22C40 22.5523 39.5523 23 39 23H25C24.4477 23 24 22.5523 24 22Z" fill="#5F5F6A"/>
<path d="M25 33C24.4477 33 24 33.4477 24 34C24 34.5523 24.4477 35 25 35H35C35.5523 35 36 34.5523 36 34C36 33.4477 35.5523 33 35 33H25Z" fill="#5F5F6A"/>
<path opacity="0.5" d="M24 28C24 27.4477 24.4477 27 25 27H35C35.5523 27 36 27.4477 36 28C36 28.5523 35.5523 29 35 29H25C24.4477 29 24 28.5523 24 28Z" fill="#5F5F6A"/>
<path d="M24 78C24 77.4477 24.4477 77 25 77H39C39.5523 77 40 77.4477 40 78C40 78.5523 39.5523 79 39 79H25C24.4477 79 24 78.5523 24 78Z" fill="#5F5F6A"/>
<path d="M24 84C24 83.4477 24.4477 83 25 83H35C35.5523 83 36 83.4477 36 84C36 84.5523 35.5523 85 35 85H25C24.4477 85 24 84.5523 24 84Z" fill="#5F5F6A"/>
<path d="M25 89C24.4477 89 24 89.4477 24 90C24 90.5523 24.4477 91 25 91H35C35.5523 91 36 90.5523 36 90C36 89.4477 35.5523 89 35 89H25Z" fill="#5F5F6A"/>
<path d="M24.5 134C24.5 133.724 24.7239 133.5 25 133.5H39C39.2761 133.5 39.5 133.724 39.5 134C39.5 134.276 39.2761 134.5 39 134.5H25C24.7239 134.5 24.5 134.276 24.5 134Z" fill="#5F5F6A"/>
<path d="M24.5 140C24.5 139.724 24.7239 139.5 25 139.5H35C35.2761 139.5 35.5 139.724 35.5 140C35.5 140.276 35.2761 140.5 35 140.5H25C24.7239 140.5 24.5 140.276 24.5 140Z" fill="#5F5F6A"/>
<path d="M25 145.5C24.7239 145.5 24.5 145.724 24.5 146C24.5 146.276 24.7239 146.5 25 146.5H35C35.2761 146.5 35.5 146.276 35.5 146C35.5 145.724 35.2761 145.5 35 145.5H25Z" fill="#5F5F6A"/>
</svg>
