<svg width="56" height="168" viewBox="0 0 56 168" fill="none" xmlns="http://www.w3.org/2000/svg">
<path fill-rule="evenodd" clip-rule="evenodd" d="M28 24.75C26.2051 24.75 24.75 26.2051 24.75 28C24.75 29.7949 26.2051 31.25 28 31.25C29.7949 31.25 31.25 29.7949 31.25 28C31.25 26.2051 29.7949 24.75 28 24.75ZM23.25 28C23.25 25.3766 25.3766 23.25 28 23.25C30.6234 23.25 32.75 25.3766 32.75 28C32.75 30.6234 30.6234 32.75 28 32.75C25.3766 32.75 23.25 30.6234 23.25 28Z" fill="#5F5F6A"/>
<path d="M28 23.5C25.5147 23.5 23.5 25.5147 23.5 28C23.5 30.4853 25.5147 32.5 28 32.5C30.4853 32.5 32.5 30.4853 32.5 28C32.5 25.5147 30.4853 23.5 28 23.5ZM24.5 28C24.5 26.067 26.067 24.5 28 24.5C29.933 24.5 31.5 26.067 31.5 28C31.5 29.933 29.933 31.5 28 31.5C26.067 31.5 24.5 29.933 24.5 28Z" fill="#5F5F6A"/>
<path d="M28 18.25C22.6152 18.25 18.25 22.6152 18.25 28C18.25 33.3848 22.6152 37.75 28 37.75C33.3848 37.75 37.75 33.3848 37.75 28C37.75 22.6152 33.3848 18.25 28 18.25ZM19.75 28C19.75 23.4437 23.4437 19.75 28 19.75C32.5563 19.75 36.25 23.4437 36.25 28C36.25 32.5563 32.5563 36.25 28 36.25C23.4437 36.25 19.75 32.5563 19.75 28Z" fill="#5F5F6A"/>
<path opacity="0.5" d="M22.6965 20.5754C22.8917 20.3801 23.2083 20.3801 23.4036 20.5754L26.5856 23.7574C26.7808 23.9526 26.7808 24.2692 26.5856 24.4645C26.3903 24.6597 26.0737 24.6597 25.8785 24.4645L22.6965 21.2825C22.5012 21.0872 22.5012 20.7706 22.6965 20.5754ZM33.3031 20.5754C33.4983 20.7706 33.4983 21.0872 33.3031 21.2825L30.1211 24.4645C29.9258 24.6597 29.6093 24.6597 29.414 24.4645C29.2187 24.2692 29.2187 23.9526 29.414 23.7574L32.596 20.5754C32.7912 20.3801 33.1078 20.3801 33.3031 20.5754ZM20.5752 22.6967C20.7704 22.5014 21.087 22.5014 21.2823 22.6967L24.4642 25.8787C24.6595 26.0739 24.6595 26.3905 24.4642 26.5858C24.269 26.781 23.9524 26.781 23.7571 26.5858L20.5752 23.4038C20.3799 23.2085 20.3799 22.892 20.5752 22.6967ZM35.4244 22.6967C35.6197 22.892 35.6197 23.2085 35.4244 23.4038L32.2424 26.5858C32.0472 26.781 31.7306 26.781 31.5353 26.5858C31.34 26.3905 31.34 26.0739 31.5353 25.8787L34.7173 22.6967C34.9126 22.5014 35.2291 22.5014 35.4244 22.6967ZM24.4642 29.4142C24.6595 29.6095 24.6595 29.9261 24.4642 30.1213L21.2823 33.3033C21.087 33.4986 20.7704 33.4986 20.5752 33.3033C20.3799 33.108 20.3799 32.7914 20.5752 32.5962L23.7571 29.4142C23.9524 29.2189 24.269 29.2189 24.4642 29.4142ZM31.5353 29.4142C31.7306 29.2189 32.0472 29.2189 32.2424 29.4142L35.4244 32.5962C35.6197 32.7914 35.6197 33.108 35.4244 33.3033C35.2291 33.4986 34.9126 33.4986 34.7173 33.3033L31.5353 30.1213C31.34 29.9261 31.34 29.6095 31.5353 29.4142ZM26.5856 31.5355C26.7808 31.7308 26.7808 32.0474 26.5856 32.2426L23.4036 35.4246C23.2083 35.6199 22.8917 35.6199 22.6965 35.4246C22.5012 35.2294 22.5012 34.9128 22.6965 34.7175L25.8785 31.5355C26.0737 31.3403 26.3903 31.3403 26.5856 31.5355ZM29.414 31.5355C29.6093 31.3403 29.9258 31.3403 30.1211 31.5355L33.3031 34.7175C33.4983 34.9128 33.4983 35.2294 33.3031 35.4246C33.1078 35.6199 32.7912 35.6199 32.596 35.4246L29.414 32.2426C29.2187 32.0474 29.2187 31.7308 29.414 31.5355Z" fill="#5F5F6A"/>
<path d="M28 74.25C33.3848 74.25 37.75 78.6152 37.75 84C37.75 89.3848 33.3848 93.75 28 93.75C22.6152 93.75 18.25 89.3848 18.25 84C18.25 78.6152 22.6152 74.25 28 74.25ZM23.7536 76.9253L26.3665 79.5383C26.8759 79.3518 27.426 79.25 28 79.25C28.5738 79.25 29.1239 79.3518 29.6331 79.5382L32.2462 76.9252C31.0057 76.1791 29.553 75.75 28 75.75C26.4469 75.75 24.9941 76.1792 23.7536 76.9253ZM22.9161 77.5021C22.3896 77.9147 21.9144 78.3898 21.5019 78.9164L24.0089 81.4233C24.3748 80.8578 24.8576 80.375 25.4231 80.0091L22.9161 77.5021ZM23.5382 82.3668L20.9252 79.7538C20.1791 80.9943 19.75 82.447 19.75 84C19.75 85.553 20.1791 87.0057 20.9252 88.2462L23.5382 85.6331C23.3518 85.1239 23.25 84.5738 23.25 84C23.25 83.4262 23.3518 82.8761 23.5382 82.3668ZM24.0089 86.5766L21.5019 89.0836C21.9144 89.6102 22.3896 90.0853 22.9161 90.4979L25.4231 87.9909C24.8576 87.625 24.3748 87.1422 24.0089 86.5766ZM26.3665 88.4617L23.7536 91.0746C24.9941 91.8208 26.4469 92.25 28 92.25C29.553 92.25 31.0057 91.8209 32.2462 91.0748L29.6332 88.4618C29.1239 88.6482 28.5738 88.75 28 88.75C27.426 88.75 26.8759 88.6482 26.3665 88.4617ZM30.5767 87.9911L33.0836 90.4981C33.6102 90.0856 34.0853 89.6104 34.4979 89.0839L31.9909 86.5769C31.625 87.1424 31.1422 87.6252 30.5767 87.9911ZM32.4617 85.6335L35.0747 88.2464C35.8208 87.0059 36.25 85.5531 36.25 84C36.25 82.4469 35.8208 80.9941 35.0746 79.7536L32.4617 82.3665C32.6482 82.8759 32.75 83.426 32.75 84C32.75 84.574 32.6482 85.1241 32.4617 85.6335ZM31.9909 81.4231L34.4979 78.9161C34.0853 78.3896 33.6102 77.9144 33.0836 77.5019L30.5766 80.0089C31.1422 80.3748 31.625 80.8576 31.9909 81.4231ZM24.75 84C24.75 85.7949 26.2051 87.25 28 87.25C29.7949 87.25 31.25 85.7949 31.25 84C31.25 82.2051 29.7949 80.75 28 80.75C26.2051 80.75 24.75 82.2051 24.75 84Z" fill="#5F5F6A"/>
<path d="M28 130.5C33.2467 130.5 37.5 134.753 37.5 140C37.5 145.247 33.2467 149.5 28 149.5C22.7533 149.5 18.5 145.247 18.5 140C18.5 134.753 22.7533 130.5 28 130.5ZM23.5715 132.743L26.5627 135.734C27.014 135.582 27.4974 135.5 28 135.5C28.5025 135.5 28.9858 135.582 29.437 135.734L32.4282 132.743C31.1385 131.955 29.6224 131.5 28 131.5C26.3775 131.5 24.8612 131.955 23.5715 132.743ZM22.7381 133.324C22.2131 133.738 21.7382 134.213 21.3239 134.738L24.19 137.604C24.5495 137.034 25.0336 136.55 25.6041 136.19L22.7381 133.324ZM23.7343 138.563L20.7432 135.572C19.9545 136.861 19.5 138.378 19.5 140C19.5 141.622 19.9545 143.139 20.7432 144.428L23.7343 141.437C23.5824 140.986 23.5 140.502 23.5 140C23.5 139.497 23.5824 139.014 23.7343 138.563ZM24.19 142.396L21.3239 145.262C21.7382 145.787 22.2131 146.262 22.7381 146.676L25.6041 143.81C25.0336 143.45 24.5495 142.966 24.19 142.396ZM26.5626 144.266L23.5715 147.257C24.8612 148.045 26.3775 148.5 28 148.5C29.6224 148.5 31.1386 148.045 32.4282 147.257L29.437 144.266C28.9858 144.418 28.5025 144.5 28 144.5C27.4974 144.5 27.014 144.418 26.5626 144.266ZM30.3956 143.81L33.2617 146.676C33.7867 146.262 34.2616 145.787 34.6759 145.262L31.8099 142.396C31.4503 142.966 30.9662 143.451 30.3956 143.81ZM32.2656 141.437L35.2567 144.428C36.0454 143.139 36.5 141.622 36.5 140C36.5 138.378 36.0454 136.861 35.2567 135.572L32.2656 138.563C32.4176 139.014 32.5 139.497 32.5 140C32.5 140.503 32.4176 140.986 32.2656 141.437ZM31.8099 137.604L34.6759 134.738C34.2616 134.213 33.7867 133.738 33.2617 133.324L30.3956 136.19C30.9662 136.549 31.4503 137.034 31.8099 137.604ZM24.5 140C24.5 141.933 26.067 143.5 28 143.5C29.933 143.5 31.5 141.933 31.5 140C31.5 138.067 29.933 136.5 28 136.5C26.067 136.5 24.5 138.067 24.5 140Z" fill="#5F5F6A"/>
</svg>
