<svg width="56" height="168" viewBox="0 0 56 168" fill="none" xmlns="http://www.w3.org/2000/svg">
<path opacity="0.5" d="M18.4238 19.0199C18.689 18.7017 19.1619 18.6587 19.4801 18.9238L20.9801 20.1738C21.2983 20.439 21.3413 20.9119 21.0762 21.2301C20.811 21.5483 20.3381 21.5913 20.0199 21.3262L18.5199 20.0762C18.2017 19.811 18.1587 19.3381 18.4238 19.0199ZM37.5762 19.0199C37.8413 19.3381 37.7983 19.811 37.4801 20.0762L35.9801 21.3262C35.6619 21.5913 35.189 21.5483 34.9238 21.2301C34.6587 20.9119 34.7017 20.439 35.0199 20.1738L36.5199 18.9238C36.8381 18.6587 37.311 18.7017 37.5762 19.0199ZM17.25 24.25C17.25 23.8358 17.5858 23.5 18 23.5H20C20.4142 23.5 20.75 23.8358 20.75 24.25C20.75 24.6642 20.4142 25 20 25H18C17.5858 25 17.25 24.6642 17.25 24.25ZM35.25 24.25C35.25 23.8358 35.5858 23.5 36 23.5H38C38.4142 23.5 38.75 23.8358 38.75 24.25C38.75 24.6642 38.4142 25 38 25H36C35.5858 25 35.25 24.6642 35.25 24.25ZM21.1708 27.9146C21.3561 28.2851 21.2059 28.7356 20.8354 28.9208L19.3354 29.6708C18.9649 29.8561 18.5144 29.7059 18.3292 29.3354C18.1439 28.9649 18.2941 28.5144 18.6646 28.3292L20.1646 27.5792C20.5351 27.3939 20.9856 27.5441 21.1708 27.9146ZM34.8292 27.9146C35.0144 27.5441 35.4649 27.3939 35.8354 27.5792L37.3354 28.3292C37.7059 28.5144 37.8561 28.9649 37.6708 29.3354C37.4856 29.7059 37.0351 29.8561 36.6646 29.6708L35.1646 28.9208C34.7941 28.7356 34.6439 28.2851 34.8292 27.9146Z" fill="#5F5F6A"/>
<path d="M28 19.75C30.9275 19.75 33.25 22.0246 33.25 24.7692C33.25 26.4803 32.8093 27.3512 32.2522 28.1427C32.1263 28.3215 31.985 28.5064 31.835 28.7026C31.3108 29.3883 30.6809 30.2123 30.234 31.4016C30.1389 31.6547 30.0197 31.889 29.8811 32.0998L29.8253 32.1792C29.6975 32.361 29.5568 32.5228 29.4056 32.6621C28.999 33.0338 28.5108 33.25 28 33.25C27.4893 33.25 27.001 33.0338 26.5944 32.6621C26.4432 32.5228 26.3025 32.361 26.1747 32.1792L26.1189 32.0998C25.9803 31.889 25.8611 31.6547 25.766 31.4016C25.3191 30.2123 24.6892 29.3883 24.165 28.7026C24.015 28.5064 23.8737 28.3215 23.7478 28.1427C23.1907 27.3512 22.75 26.4803 22.75 24.7692C22.75 22.0246 25.0725 19.75 28 19.75ZM31.1669 32.8688C31.3589 32.5694 31.517 32.2516 31.6382 31.9292C32 30.9662 32.4563 30.3674 32.9558 29.7118C33.1258 29.4886 33.3008 29.2589 33.4788 29.0061C34.1886 27.9976 34.75 26.8305 34.75 24.7692C34.75 21.1413 31.6999 18.25 28 18.25C24.3001 18.25 21.25 21.1413 21.25 24.7692C21.25 26.8305 21.8114 27.9976 22.5212 29.0061C22.6992 29.2589 22.8742 29.4886 23.0442 29.7118C23.5437 30.3674 24 30.9662 24.3618 31.9292C24.483 32.2516 24.6411 32.5694 24.8331 32.8688L25.0547 35.0846C25.206 36.5977 26.4793 37.75 28 37.75C29.5207 37.75 30.794 36.5977 30.9453 35.0846L31.1669 32.8688ZM29.5064 34.3989L29.4527 34.9353C29.3781 35.6816 28.7501 36.25 28 36.25C27.2499 36.25 26.6219 35.6816 26.5473 34.9353L26.4936 34.3989C26.9445 34.6206 27.4493 34.75 28 34.75C28.5507 34.75 29.0555 34.6206 29.5064 34.3989Z" fill="#5F5F6A"/>
<path d="M28 75.75C30.9275 75.75 33.25 78.0246 33.25 80.7692C33.25 82.4803 32.8093 83.3512 32.2522 84.1427C32.1263 84.3215 31.985 84.5064 31.835 84.7026C31.3108 85.3883 30.6809 86.2123 30.234 87.4016C30.1389 87.6547 30.0197 87.889 29.8811 88.0998L29.8253 88.1792C29.6975 88.361 29.5568 88.5228 29.4056 88.6621C28.999 89.0338 28.5107 89.25 28 89.25C27.4892 89.25 27.001 89.0338 26.5944 88.6621C26.4431 88.5228 26.3024 88.361 26.1747 88.1792L26.1189 88.0998C25.9803 87.889 25.8611 87.6547 25.766 87.4016C25.3191 86.2123 24.6892 85.3883 24.165 84.7026C24.015 84.5064 23.8737 84.3215 23.7478 84.1427C23.1907 83.3512 22.75 82.4803 22.75 80.7692C22.75 78.0246 25.0725 75.75 28 75.75ZM31.1669 88.8688C31.3589 88.5694 31.517 88.2516 31.6382 87.9292C32 86.9662 32.4563 86.3674 32.9558 85.7118C33.1258 85.4886 33.3008 85.2589 33.4788 85.0061C34.1886 83.9976 34.75 82.8305 34.75 80.7692C34.75 77.1413 31.6999 74.25 28 74.25C24.3001 74.25 21.25 77.1413 21.25 80.7692C21.25 82.8305 21.8114 83.9976 22.5212 85.0061C22.6992 85.2589 22.8742 85.4886 23.0442 85.7118C23.5437 86.3674 24 86.9662 24.3618 87.9292C24.483 88.2516 24.6411 88.5694 24.8331 88.8688L25.0547 91.0846C25.206 92.5977 26.4793 93.75 28 93.75C29.5207 93.75 30.794 92.5977 30.9453 91.0846L31.1669 88.8688ZM29.5064 90.3989L29.4527 90.9353C29.3781 91.6816 28.7501 92.25 28 92.25C27.2499 92.25 26.6219 91.6816 26.5473 90.9353L26.4936 90.3989C26.9445 90.6206 27.4493 90.75 28 90.75C28.5507 90.75 29.0555 90.6206 29.5064 90.3989ZM18.4238 75.0199C18.689 74.7017 19.1619 74.6587 19.4801 74.9238L20.9801 76.1738C21.2983 76.439 21.3413 76.9119 21.0762 77.2301C20.811 77.5483 20.3381 77.5913 20.0199 77.3262L18.5199 76.0762C18.2017 75.811 18.1587 75.3381 18.4238 75.0199ZM37.5762 75.0199C37.8413 75.3381 37.7983 75.811 37.4801 76.0762L35.9801 77.3262C35.6619 77.5913 35.189 77.5483 34.9238 77.2301C34.6587 76.9119 34.7017 76.439 35.0199 76.1738L36.5199 74.9238C36.8381 74.6587 37.311 74.7017 37.5762 75.0199ZM17.25 80.25C17.25 79.8358 17.5858 79.5 18 79.5H20C20.4142 79.5 20.75 79.8358 20.75 80.25C20.75 80.6642 20.4142 81 20 81H18C17.5858 81 17.25 80.6642 17.25 80.25ZM35.25 80.25C35.25 79.8358 35.5858 79.5 36 79.5H38C38.4142 79.5 38.75 79.8358 38.75 80.25C38.75 80.6642 38.4142 81 38 81H36C35.5858 81 35.25 80.6642 35.25 80.25ZM21.1708 83.9146C21.3561 84.2851 21.2059 84.7356 20.8354 84.9208L19.3354 85.6708C18.9649 85.8561 18.5144 85.7059 18.3292 85.3354C18.1439 84.9649 18.2941 84.5144 18.6646 84.3292L20.1646 83.5792C20.5351 83.3939 20.9856 83.5441 21.1708 83.9146ZM34.8292 83.9146C35.0144 83.5441 35.4649 83.3939 35.8354 83.5792L37.3354 84.3292C37.7059 84.5144 37.8561 84.9649 37.6708 85.3354C37.4856 85.7059 37.0351 85.8561 36.6646 85.6708L35.1646 84.9208C34.7941 84.7356 34.6439 84.2851 34.8292 83.9146Z" fill="#5F5F6A"/>
<path d="M28 131.5C31.0562 131.5 33.5 133.877 33.5 136.769C33.5 138.539 33.0392 139.459 32.4566 140.287C32.3227 140.477 32.1759 140.669 32.0222 140.87C31.5004 141.553 30.9005 142.339 30.4681 143.49C30.3647 143.765 30.2328 144.022 30.0774 144.255L30.0298 144.323C29.8931 144.518 29.7408 144.693 29.5755 144.845C29.1301 145.254 28.5861 145.5 28 145.5C27.1946 145.5 26.476 145.043 25.9702 144.323L25.9226 144.255C25.7672 144.022 25.6353 143.765 25.5319 143.49C25.0995 142.339 24.4996 141.553 23.9778 140.87C23.8241 140.669 23.6773 140.477 23.5434 140.287C22.9608 139.459 22.5 138.539 22.5 136.769C22.5 133.877 24.9438 131.5 28 131.5ZM30.9241 144.784C31.1201 144.487 31.2814 144.168 31.4041 143.841C31.7799 142.841 32.2641 142.206 32.7695 141.543C32.9365 141.324 33.1058 141.102 33.2743 140.862C33.9587 139.89 34.5 138.772 34.5 136.769C34.5 133.289 31.5712 130.5 28 130.5C24.4288 130.5 21.5 133.289 21.5 136.769C21.5 138.772 22.0413 139.89 22.7257 140.862C22.8942 141.102 23.0635 141.324 23.2305 141.543C23.7359 142.206 24.2201 142.841 24.5959 143.841C24.7186 144.168 24.8799 144.487 25.0759 144.784L25.3035 147.06C25.442 148.445 26.6077 149.5 28 149.5C29.3923 149.5 30.558 148.445 30.6965 147.06L30.9241 144.784ZM29.8038 145.937L29.7015 146.96C29.6141 147.834 28.8785 148.5 28 148.5C27.1215 148.5 26.3859 147.834 26.2985 146.96L26.1962 145.937C26.7133 146.286 27.3213 146.5 28 146.5C28.6787 146.5 29.2867 146.286 29.8038 145.937ZM18.6159 131.18C18.7927 130.968 19.108 130.939 19.3201 131.116L20.8201 132.366C21.0322 132.543 21.0609 132.858 20.8841 133.07C20.7073 133.282 20.392 133.311 20.1799 133.134L18.6799 131.884C18.4678 131.707 18.4391 131.392 18.6159 131.18ZM37.3841 131.18C37.5609 131.392 37.5322 131.707 37.3201 131.884L35.8201 133.134C35.608 133.311 35.2927 133.282 35.1159 133.07C34.9391 132.858 34.9678 132.543 35.1799 132.366L36.6799 131.116C36.892 130.939 37.2073 130.968 37.3841 131.18ZM17.5 136.25C17.5 135.974 17.7239 135.75 18 135.75H20C20.2761 135.75 20.5 135.974 20.5 136.25C20.5 136.526 20.2761 136.75 20 136.75H18C17.7239 136.75 17.5 136.526 17.5 136.25ZM35.5 136.25C35.5 135.974 35.7239 135.75 36 135.75H38C38.2761 135.75 38.5 135.974 38.5 136.25C38.5 136.526 38.2761 136.75 38 136.75H36C35.7239 136.75 35.5 136.526 35.5 136.25ZM20.9472 140.026C21.0707 140.273 20.9706 140.574 20.7236 140.697L19.2236 141.447C18.9766 141.571 18.6763 141.471 18.5528 141.224C18.4293 140.977 18.5294 140.676 18.7764 140.553L20.2764 139.803C20.5234 139.679 20.8237 139.779 20.9472 140.026ZM35.0528 140.026C35.1763 139.779 35.4766 139.679 35.7236 139.803L37.2236 140.553C37.4706 140.676 37.5707 140.977 37.4472 141.224C37.3237 141.471 37.0234 141.571 36.7764 141.447L35.2764 140.697C35.0294 140.574 34.9293 140.273 35.0528 140.026Z" fill="#5F5F6A"/>
</svg>
