<svg width="56" height="224" viewBox="0 0 56 224" fill="none" xmlns="http://www.w3.org/2000/svg">
<path fill-rule="evenodd" clip-rule="evenodd" d="M28.4147 20.8404C29.3153 19.9706 30.5215 19.4893 31.7735 19.5001C33.0255 19.511 34.2231 20.0132 35.1084 20.8986C35.9937 21.7839 36.4959 22.9816 36.5068 24.2336C36.5177 25.4856 36.0364 26.6918 35.1666 27.5924L35.1544 27.6047L32.8895 29.8697C32.8895 29.8697 32.8896 29.8696 32.8895 29.8697C32.4055 30.3539 31.8228 30.7284 31.1814 30.9677C30.5398 31.207 29.8543 31.3056 29.1714 31.2567C28.4884 31.2078 27.8239 31.0125 27.2231 30.6842C26.6222 30.3559 26.0989 29.9023 25.6888 29.354C25.358 28.9117 25.4484 28.285 25.8906 27.9542C26.3329 27.6234 26.9595 27.7138 27.2904 28.156C27.5287 28.4747 27.8328 28.7383 28.182 28.9291C28.5312 29.1199 28.9173 29.2334 29.3142 29.2618C29.7111 29.2902 30.1095 29.2329 30.4823 29.0939C30.8552 28.9548 31.1937 28.7372 31.475 28.4557L33.7336 26.1972C34.2355 25.6744 34.5132 24.9759 34.5069 24.2509C34.5006 23.5233 34.2087 22.8273 33.6942 22.3128C33.1797 21.7982 32.4837 21.5064 31.7561 21.5001C31.0307 21.4938 30.3318 21.7718 29.809 22.2743L28.5159 23.5599C28.1242 23.9493 27.4911 23.9475 27.1017 23.5558C26.7123 23.1641 26.7141 22.531 27.1058 22.1416L28.4044 20.8505L28.4147 20.8404ZM24.8178 25.0322C25.4593 24.7929 26.1448 24.6943 26.8278 24.7433C27.5108 24.7922 28.1752 24.9874 28.7761 25.3157C29.377 25.644 29.9002 26.0977 30.3104 26.646C30.6412 27.0882 30.5508 27.7149 30.1086 28.0457C29.6663 28.3765 29.0396 28.2862 28.7088 27.8439C28.4705 27.5253 28.1664 27.2616 27.8172 27.0708C27.468 26.88 27.0818 26.7666 26.6849 26.7382C26.288 26.7097 25.8896 26.767 25.5168 26.9061C25.144 27.0452 24.8054 27.2628 24.5241 27.5442L22.2656 29.8028C21.7636 30.3255 21.486 31.0241 21.4923 31.749C21.4986 32.4766 21.7905 33.1727 22.305 33.6872C22.8195 34.2017 23.5155 34.4935 24.2431 34.4999C24.968 34.5062 25.6665 34.2285 26.1892 33.7265L27.4737 32.4421C27.8642 32.0516 28.4974 32.0515 28.8879 32.4421C29.2784 32.8326 29.2784 33.4658 28.8879 33.8563L27.5968 35.1474L27.5845 35.1595C26.6839 36.0294 25.4777 36.5107 24.2257 36.4998C22.9737 36.4889 21.7761 35.9867 20.8907 35.1014C20.0054 34.216 19.5032 33.0184 19.4924 31.7664C19.4815 30.5144 19.9628 29.3082 20.8326 28.4076L20.8448 28.3952L23.1096 26.1303C23.1096 26.1303 23.1097 26.1302 23.1096 26.1303C23.5937 25.6461 24.1763 25.2715 24.8178 25.0322Z" fill="#5F5F6A"/>
<path fill-rule="evenodd" clip-rule="evenodd" d="M28.5016 76.9303C29.3786 76.0833 30.5532 75.6146 31.7724 75.6251C32.9916 75.6357 34.1579 76.1248 35.02 76.987C35.8822 77.8491 36.3712 79.0154 36.3818 80.2346C36.3924 81.4539 35.9237 82.6285 35.0767 83.5055L35.066 83.5164L32.8011 85.7813C32.8011 85.7813 32.8012 85.7813 32.8011 85.7813C32.3297 86.2528 31.7624 86.6176 31.1377 86.8506C30.5129 87.0837 29.8454 87.1796 29.1803 87.132C28.5152 87.0844 27.8681 86.8942 27.283 86.5745C26.6978 86.2548 26.1883 85.813 25.7889 85.2791C25.4995 84.8921 25.5785 84.3438 25.9655 84.0543C26.3525 83.7649 26.9008 83.8439 27.1903 84.2309C27.4393 84.5639 27.7571 84.8394 28.1221 85.0388C28.487 85.2382 28.8905 85.3568 29.3053 85.3865C29.7201 85.4162 30.1364 85.3563 30.526 85.211C30.9156 85.0656 31.2695 84.8382 31.5635 84.5441L33.8228 82.2847C34.348 81.7383 34.6385 81.0079 34.6319 80.2499C34.6253 79.4895 34.3203 78.7621 33.7826 78.2244C33.2449 77.6867 32.5175 77.3817 31.7572 77.3751C30.9988 77.3685 30.2681 77.6593 29.7216 78.1849L28.4278 79.4713C28.0851 79.812 27.531 79.8104 27.1903 79.4677C26.8496 79.125 26.8512 78.571 27.1939 78.2302L28.5016 76.9303ZM24.8615 81.1493C25.4862 80.9163 26.1538 80.8203 26.8189 80.8679C27.484 80.9156 28.131 81.1057 28.7162 81.4254C29.3013 81.7451 29.8109 82.1869 30.2103 82.7209C30.4997 83.1078 30.4207 83.6562 30.0337 83.9456C29.6467 84.2351 29.0984 84.156 28.8089 83.7691C28.5598 83.436 28.242 83.1605 27.8771 82.9611C27.5122 82.7617 27.1086 82.6432 26.6939 82.6135C26.2791 82.5838 25.8628 82.6436 25.4731 82.789C25.0835 82.9343 24.7297 83.1617 24.4357 83.4558L22.1763 85.7153C21.6512 86.2617 21.3607 86.9921 21.3673 87.7501C21.3739 88.5105 21.6789 89.2379 22.2166 89.7756C22.7543 90.3133 23.4816 90.6183 24.242 90.6249C25 90.6314 25.7303 90.341 26.2767 89.8158L27.5621 88.5305C27.9038 88.1888 28.4578 88.1888 28.7995 88.5305C29.1412 88.8722 29.1412 89.4262 28.7995 89.7679L27.5085 91.059L27.4976 91.0696C26.6206 91.9167 25.446 92.3854 24.2268 92.3748C23.0076 92.3642 21.8413 91.8752 20.9791 91.013C20.117 90.1508 19.628 88.9845 19.6174 87.7653C19.6068 86.5461 20.0755 85.3714 20.9225 84.4944L20.9332 84.4836L23.198 82.2186C23.198 82.2187 23.1981 82.2186 23.198 82.2186C23.6694 81.7471 24.2368 81.3824 24.8615 81.1493Z" fill="#5F5F6A"/>
<path fill-rule="evenodd" clip-rule="evenodd" d="M28.5884 133.02C29.4418 132.196 30.5848 131.74 31.7713 131.75C32.9577 131.76 34.0927 132.236 34.9316 133.075C35.7706 133.914 36.2465 135.049 36.2568 136.236C36.2671 137.422 35.811 138.565 34.9868 139.419L34.9777 139.428L32.7127 141.693C32.7127 141.693 32.7128 141.693 32.7127 141.693C32.254 142.152 31.7019 142.507 31.094 142.733C30.486 142.96 29.8364 143.054 29.1892 143.007C28.542 142.961 27.9124 142.776 27.3429 142.465C26.7735 142.154 26.2777 141.724 25.889 141.204C25.6409 140.873 25.7087 140.403 26.0404 140.154C26.372 139.906 26.8421 139.974 27.0902 140.306C27.35 140.653 27.6815 140.941 28.0621 141.149C28.4428 141.356 28.8637 141.48 29.2964 141.511C29.729 141.542 30.1633 141.48 30.5697 141.328C30.9761 141.176 31.3452 140.939 31.6519 140.632L33.9121 138.372C34.4604 137.802 34.7637 137.04 34.7569 136.249C34.75 135.456 34.4318 134.697 33.871 134.136C33.3101 133.575 32.5514 133.257 31.7583 133.25C30.9668 133.243 30.2043 133.547 29.6342 134.096L28.3396 135.383C28.0459 135.675 27.571 135.673 27.279 135.38C26.9869 135.086 26.9883 134.611 27.282 134.319L28.5884 133.02ZM24.9052 137.266C25.5131 137.04 26.1627 136.946 26.8099 136.993C27.4571 137.039 28.0868 137.224 28.6562 137.535C29.2257 137.846 29.7215 138.276 30.1102 138.796C30.3583 139.127 30.2905 139.597 29.9588 139.846C29.6271 140.094 29.1571 140.026 28.909 139.694C28.6492 139.347 28.3177 139.059 27.937 138.851C27.5564 138.643 27.1354 138.52 26.7028 138.489C26.2701 138.458 25.8359 138.52 25.4294 138.672C25.023 138.823 24.654 139.061 24.3473 139.367L22.0871 141.628C21.5387 142.198 21.2354 142.96 21.2423 143.751C21.2492 144.544 21.5673 145.303 22.1282 145.864C22.6891 146.425 23.4478 146.743 24.2409 146.75C25.032 146.757 25.7942 146.453 26.3643 145.905L27.6504 144.619C27.9433 144.326 28.4182 144.326 28.7111 144.619C29.004 144.912 29.004 145.387 28.7111 145.68L27.4108 146.98C26.5574 147.804 25.4143 148.26 24.2279 148.25C23.0414 148.239 21.9065 147.764 21.0675 146.925C20.2286 146.086 19.7527 144.951 19.7424 143.764C19.732 142.578 20.1881 141.435 21.0124 140.581L21.0215 140.572L23.2864 138.307C23.2864 138.307 23.2865 138.307 23.2864 138.307C23.7452 137.848 24.2973 137.493 24.9052 137.266Z" fill="#5F5F6A"/>
<path fill-rule="evenodd" clip-rule="evenodd" d="M28.7621 189.2C29.5683 188.421 30.6482 187.99 31.7691 188C32.89 188.01 33.9622 188.459 34.7549 189.252C35.5475 190.045 35.9971 191.117 36.0068 192.238C36.0166 193.359 35.5857 194.439 34.8069 195.245L34.8009 195.251L32.5359 197.516C32.5359 197.516 32.5359 197.516 32.5359 197.516C32.1025 197.95 31.5809 198.285 31.0066 198.499C30.4323 198.714 29.8185 198.802 29.2071 198.758C28.5956 198.714 28.0008 198.539 27.4628 198.245C26.9248 197.952 26.4564 197.545 26.0892 197.054C25.9238 196.833 25.969 196.52 26.1901 196.355C26.4112 196.189 26.7246 196.234 26.89 196.456C27.1713 196.832 27.5301 197.143 27.9423 197.368C28.3544 197.593 28.8101 197.727 29.2785 197.761C29.7469 197.794 30.2171 197.726 30.6571 197.562C31.0971 197.398 31.4967 197.141 31.8287 196.809L34.0906 194.547C34.6853 193.93 35.0143 193.104 35.0069 192.247C34.9994 191.388 34.655 190.566 34.0477 189.959C33.4405 189.352 32.6191 189.008 31.7604 189C30.9029 188.993 30.0767 189.322 29.4593 189.917L28.1634 191.205C27.9675 191.4 27.6509 191.399 27.4563 191.203C27.2616 191.007 27.2625 190.691 27.4583 190.496L28.7621 189.2ZM24.9926 193.501C25.5669 193.286 26.1806 193.198 26.7921 193.242C27.4035 193.286 27.9984 193.461 28.5364 193.754C29.0743 194.048 29.5428 194.455 29.91 194.945C30.0754 195.167 30.0302 195.48 29.8091 195.645C29.5879 195.811 29.2746 195.766 29.1092 195.544C28.8279 195.168 28.469 194.857 28.0569 194.632C27.6448 194.407 27.1891 194.273 26.7206 194.239C26.2522 194.206 25.7821 194.273 25.3421 194.438C24.9021 194.602 24.5025 194.859 24.1705 195.191L21.9086 197.453C21.3139 198.07 20.9849 198.896 20.9923 199.753C20.9998 200.612 21.3442 201.434 21.9514 202.041C22.5586 202.648 23.38 202.992 24.2387 203C25.096 203.007 25.922 202.678 26.5393 202.084L27.8272 200.796C28.0225 200.6 28.3391 200.6 28.5343 200.796C28.7296 200.991 28.7296 201.307 28.5343 201.503L27.2371 202.8C26.4309 203.579 25.3509 204.01 24.23 204C23.1091 203.99 22.0369 203.54 21.2443 202.748C20.4517 201.955 20.0021 200.883 19.9923 199.762C19.9826 198.641 20.4135 197.561 21.1922 196.755L21.1983 196.749L23.4633 194.484C23.4632 194.484 23.4633 194.484 23.4633 194.484C23.8966 194.05 24.4182 193.715 24.9926 193.501Z" fill="#5F5F6A"/>
</svg>
