<svg width="56" height="168" viewBox="0 0 56 168" fill="none" xmlns="http://www.w3.org/2000/svg">
<path d="M28 18.25C25.3766 18.25 23.25 20.3766 23.25 23V25.3564C22.9102 25.4143 22.5958 25.5068 22.2975 25.6587C21.5919 26.0183 21.0183 26.5919 20.6587 27.2975C20.4324 27.7418 20.338 28.2219 20.2934 28.7685C20.25 29.2994 20.25 29.955 20.25 30.7679V32.2321C20.25 33.0449 20.25 33.7006 20.2934 34.2315C20.338 34.7781 20.4324 35.2582 20.6587 35.7025C21.0183 36.4081 21.5919 36.9818 22.2975 37.3413C22.7418 37.5676 23.2219 37.662 23.7685 37.7066C24.2994 37.75 24.955 37.75 25.7679 37.75H30.2321C31.045 37.75 31.7006 37.75 32.2315 37.7066C32.7781 37.662 33.2582 37.5676 33.7025 37.3413C34.4081 36.9818 34.9817 36.4081 35.3413 35.7025C35.5676 35.2582 35.662 34.7781 35.7066 34.2315C35.75 33.7006 35.75 33.045 35.75 32.2321V30.7679C35.75 29.955 35.75 29.2994 35.7066 28.7685C35.662 28.2219 35.5676 27.7418 35.3413 27.2975C34.9817 26.5919 34.4081 26.0183 33.7025 25.6587C33.2582 25.4324 32.7781 25.338 32.2315 25.2934C31.7006 25.25 31.045 25.25 30.2321 25.25H25.7679C25.3969 25.25 25.0586 25.25 24.75 25.2541V23C24.75 21.2051 26.2051 19.75 28 19.75C29.7949 19.75 31.25 21.2051 31.25 23C31.25 23.4142 31.5858 23.75 32 23.75C32.4142 23.75 32.75 23.4142 32.75 23C32.75 20.3766 30.6234 18.25 28 18.25ZM22.9785 26.9952C23.176 26.8946 23.4368 26.8255 23.8907 26.7884C24.3533 26.7506 24.9475 26.75 25.8 26.75H30.2C31.0525 26.75 31.6467 26.7506 32.1093 26.7884C32.5632 26.8255 32.824 26.8946 33.0215 26.9952C33.4448 27.211 33.789 27.5552 34.0048 27.9785C34.1054 28.176 34.1745 28.4368 34.2116 28.8907C34.2494 29.3533 34.25 29.9475 34.25 30.8V32.2C34.25 33.0525 34.2494 33.6467 34.2116 34.1093C34.1745 34.5632 34.1054 34.824 34.0048 35.0215C33.789 35.4448 33.4448 35.789 33.0215 36.0048C32.824 36.1054 32.5632 36.1745 32.1093 36.2116C31.6467 36.2494 31.0525 36.25 30.2 36.25H25.8C24.9475 36.25 24.3533 36.2494 23.8907 36.2116C23.4368 36.1745 23.176 36.1054 22.9785 36.0048C22.5552 35.789 22.211 35.4448 21.9952 35.0215C21.8946 34.824 21.8255 34.5632 21.7884 34.1093C21.7506 33.6467 21.75 33.0525 21.75 32.2V30.8C21.75 29.9475 21.7506 29.3533 21.7884 28.8907C21.8255 28.4368 21.8946 28.176 21.9952 27.9785C22.211 27.5552 22.5552 27.211 22.9785 26.9952Z" fill="#5F5F6A"/>
<path opacity="0.5" d="M28 29C27.0335 29 26.25 29.7835 26.25 30.75C26.25 31.4481 26.6588 32.0507 27.25 32.3316V33C27.25 33.4142 27.5858 33.75 28 33.75C28.4142 33.75 28.75 33.4142 28.75 33V32.3316C29.3412 32.0507 29.75 31.4481 29.75 30.75C29.75 29.7835 28.9665 29 28 29Z" fill="#5F5F6A"/>
<path d="M26.25 86.75C26.25 85.7835 27.0335 85 28 85C28.9665 85 29.75 85.7835 29.75 86.75C29.75 87.4481 29.3412 88.0507 28.75 88.3316V89C28.75 89.4142 28.4142 89.75 28 89.75C27.5858 89.75 27.25 89.4142 27.25 89V88.3316C26.6588 88.0507 26.25 87.4481 26.25 86.75Z" fill="#5F5F6A"/>
<path d="M23.25 79C23.25 76.3766 25.3766 74.25 28 74.25C30.6234 74.25 32.75 76.3766 32.75 79C32.75 79.4142 32.4142 79.75 32 79.75C31.5858 79.75 31.25 79.4142 31.25 79C31.25 77.2051 29.7949 75.75 28 75.75C26.2051 75.75 24.75 77.2051 24.75 79V81.2541C25.0586 81.25 25.3969 81.25 25.7679 81.25H30.2321C31.0449 81.25 31.7006 81.25 32.2315 81.2934C32.7781 81.338 33.2582 81.4324 33.7025 81.6587C34.4081 82.0183 34.9817 82.5919 35.3413 83.2975C35.5676 83.7418 35.662 84.2219 35.7066 84.7685C35.75 85.2994 35.75 85.955 35.75 86.7679V88.2321C35.75 89.045 35.75 89.7006 35.7066 90.2315C35.662 90.7781 35.5676 91.2582 35.3413 91.7025C34.9817 92.4081 34.4081 92.9818 33.7025 93.3413C33.2582 93.5676 32.7781 93.662 32.2315 93.7066C31.7006 93.75 31.045 93.75 30.2321 93.75H25.7679C24.955 93.75 24.2994 93.75 23.7685 93.7066C23.2219 93.662 22.7418 93.5676 22.2975 93.3413C21.5919 92.9818 21.0183 92.4081 20.6587 91.7025C20.4324 91.2582 20.338 90.7781 20.2934 90.2315C20.25 89.7006 20.25 89.045 20.25 88.2321V86.7679C20.25 85.9551 20.25 85.2994 20.2934 84.7685C20.338 84.2219 20.4324 83.7418 20.6587 83.2975C21.0183 82.5919 21.5919 82.0183 22.2975 81.6587C22.5958 81.5068 22.9102 81.4143 23.25 81.3564V79ZM23.8907 82.7884C23.4368 82.8255 23.176 82.8946 22.9785 82.9952C22.5552 83.211 22.211 83.5552 21.9952 83.9785C21.8946 84.176 21.8255 84.4368 21.7884 84.8907C21.7506 85.3533 21.75 85.9475 21.75 86.8V88.2C21.75 89.0525 21.7506 89.6467 21.7884 90.1093C21.8255 90.5632 21.8946 90.824 21.9952 91.0215C22.211 91.4448 22.5552 91.789 22.9785 92.0048C23.176 92.1054 23.4368 92.1745 23.8907 92.2116C24.3533 92.2494 24.9475 92.25 25.8 92.25H30.2C31.0525 92.25 31.6467 92.2494 32.1093 92.2116C32.5632 92.1745 32.824 92.1054 33.0215 92.0048C33.4448 91.789 33.789 91.4448 34.0048 91.0215C34.1054 90.824 34.1745 90.5632 34.2116 90.1093C34.2494 89.6467 34.25 89.0525 34.25 88.2V86.8C34.25 85.9475 34.2494 85.3533 34.2116 84.8907C34.1745 84.4368 34.1054 84.176 34.0048 83.9785C33.789 83.5552 33.4448 83.211 33.0215 82.9952C32.824 82.8946 32.5632 82.8255 32.1093 82.7884C31.6467 82.7506 31.0525 82.75 30.2 82.75H25.8C24.9475 82.75 24.3533 82.7506 23.8907 82.7884Z" fill="#5F5F6A"/>
<path d="M26.25 142.75C26.25 141.784 27.0335 141 28 141C28.9665 141 29.75 141.784 29.75 142.75C29.75 143.448 29.3412 144.051 28.75 144.332V145C28.75 145.414 28.4142 145.75 28 145.75C27.5858 145.75 27.25 145.414 27.25 145V144.332C26.6588 144.051 26.25 143.448 26.25 142.75Z" fill="#5F5F6A"/>
<path d="M23.5 135C23.5 132.515 25.5147 130.5 28 130.5C30.4853 130.5 32.5 132.515 32.5 135C32.5 135.276 32.2761 135.5 32 135.5C31.7239 135.5 31.5 135.276 31.5 135C31.5 133.067 29.933 131.5 28 131.5C26.067 131.5 24.5 133.067 24.5 135V137.5L24.4999 137.509C24.8721 137.5 25.2948 137.5 25.7777 137.5H30.2222C31.0435 137.5 31.6905 137.5 32.2111 137.543C32.7423 137.586 33.1859 137.676 33.589 137.881C34.2475 138.217 34.783 138.752 35.1185 139.411C35.3239 139.814 35.4141 140.258 35.4575 140.789C35.5 141.31 35.5 141.957 35.5 142.778V144.222C35.5 145.043 35.5 145.69 35.4575 146.211C35.4141 146.742 35.3239 147.186 35.1185 147.589C34.783 148.248 34.2475 148.783 33.589 149.119C33.1859 149.324 32.7423 149.414 32.2111 149.457C31.6905 149.5 31.0435 149.5 30.2223 149.5H25.7778C24.9566 149.5 24.3095 149.5 23.7889 149.457C23.2577 149.414 22.8141 149.324 22.411 149.119C21.7525 148.783 21.217 148.248 20.8815 147.589C20.6761 147.186 20.5859 146.742 20.5425 146.211C20.5 145.69 20.5 145.043 20.5 144.222V142.778C20.5 141.957 20.5 141.31 20.5425 140.789C20.5859 140.258 20.6761 139.814 20.8815 139.411C21.217 138.752 21.7525 138.217 22.411 137.881C22.7402 137.714 23.0963 137.623 23.5051 137.572C23.5017 137.548 23.5 137.524 23.5 137.5V135ZM23.8703 138.539C23.401 138.578 23.1037 138.651 22.865 138.772C22.3946 139.012 22.0122 139.395 21.7725 139.865C21.6509 140.104 21.5776 140.401 21.5392 140.87C21.5004 141.345 21.5 141.952 21.5 142.8V144.2C21.5 145.048 21.5004 145.655 21.5392 146.13C21.5776 146.599 21.6509 146.896 21.7725 147.135C22.0122 147.605 22.3946 147.988 22.865 148.228C23.1037 148.349 23.401 148.422 23.8703 148.461C24.3455 148.5 24.9517 148.5 25.8 148.5H30.2C31.0483 148.5 31.6545 148.5 32.1297 148.461C32.599 148.422 32.8963 148.349 33.135 148.228C33.6054 147.988 33.9878 147.605 34.2275 147.135C34.3491 146.896 34.4224 146.599 34.4608 146.13C34.4996 145.655 34.5 145.048 34.5 144.2V142.8C34.5 141.952 34.4996 141.345 34.4608 140.87C34.4224 140.401 34.3491 140.104 34.2275 139.865C33.9878 139.395 33.6054 139.012 33.135 138.772C32.8963 138.651 32.599 138.578 32.1297 138.539C31.6545 138.5 31.0483 138.5 30.2 138.5H25.8C24.9517 138.5 24.3455 138.5 23.8703 138.539Z" fill="#5F5F6A"/>
</svg>
