<svg width="56" height="168" viewBox="0 0 56 168" fill="none" xmlns="http://www.w3.org/2000/svg">
<path d="M34.0328 36.7493C34.0219 36.7498 34.011 36.75 34 36.75H22.7679C21.955 36.75 21.2994 36.75 20.7685 36.7066C20.2219 36.662 19.7418 36.5676 19.2975 36.3413C18.5919 35.9817 18.0183 35.4081 17.6587 34.7025C17.4324 34.2582 17.338 33.7781 17.2934 33.2315C17.25 32.7006 17.25 32.0449 17.25 31.2321V28C17.25 25.4089 19.2661 23.25 21.8235 23.25H34C34.0519 23.25 34.1026 23.2553 34.1516 23.2653C34.2662 23.2552 34.3823 23.25 34.5 23.25C36.9382 23.25 38.75 25.4739 38.75 28V32.0234C38.75 32.6248 38.75 33.1095 38.7265 33.5038C38.7023 33.9083 38.6515 34.2674 38.5275 34.6094C38.2306 35.4286 37.6494 36.1109 36.8805 36.4749C36.5501 36.6313 36.2053 36.6935 35.835 36.7224C35.4803 36.75 35.048 36.75 34.529 36.75H34.4711C34.3175 36.75 34.1715 36.75 34.0328 36.7493ZM18.75 28V31.2C18.75 32.0525 18.7506 32.6467 18.7884 33.1093C18.8255 33.5632 18.8946 33.824 18.9952 34.0215C19.211 34.4448 19.5552 34.789 19.9785 35.0048C20.176 35.1054 20.4368 35.1745 20.8907 35.2116C21.3533 35.2494 21.9475 35.25 22.8 35.25H30.7797C30.6572 35.0493 30.5541 34.8345 30.4725 34.6094C30.3485 34.2674 30.2977 33.9083 30.2735 33.5038C30.25 33.1094 30.25 32.6248 30.25 32.0234V28C30.25 26.7715 30.6785 25.6145 31.3991 24.75H21.8235C20.1576 24.75 18.75 26.1728 18.75 28ZM31.75 28V32C31.75 32.6302 31.7503 33.07 31.7709 33.4144C31.7911 33.7537 31.8291 33.9502 31.8827 34.0983C32.0595 34.5859 32.3868 34.9418 32.7613 35.1191C32.8597 35.1657 33.0011 35.205 33.2816 35.2269C33.5711 35.2495 33.9447 35.25 34.5 35.25C35.0553 35.25 35.4289 35.2495 35.7184 35.2269C35.9989 35.205 36.1403 35.1657 36.2387 35.1191C36.6132 34.9418 36.9405 34.5859 37.1173 34.0983C37.1709 33.9502 37.2089 33.7537 37.2291 33.4144C37.2497 33.07 37.25 32.6302 37.25 32V28C37.25 26.1079 35.9278 24.75 34.5 24.75C33.0722 24.75 31.75 26.1079 31.75 28Z" fill="#5F5F6A"/>
<path opacity="0.5" d="M20.2501 30.4002C20.2501 30.3912 20.2502 30.3828 20.2502 30.375L20.2502 28.6C20.2502 28.5912 20.2502 28.5825 20.2502 28.5738C20.2501 28.3163 20.2501 28.0798 20.2663 27.8821C20.2837 27.669 20.3235 27.4358 20.4409 27.2055C20.6087 26.8762 20.8764 26.6085 21.2057 26.4407C21.436 26.3234 21.6692 26.2835 21.8823 26.2661C22.08 26.25 22.3165 26.25 22.5739 26.25L28.0002 26.25C28.4144 26.25 28.7502 26.5858 28.7502 27C28.7502 27.4142 28.4144 27.75 28.0002 27.75L24.2502 27.75L24.2502 29.125C24.2502 29.1462 24.2502 29.1671 24.2502 29.1879C24.2504 29.4734 24.2506 29.7193 24.2069 29.9389C24.0294 30.8315 23.3317 31.5292 22.4391 31.7068C22.2195 31.7505 21.9736 31.7503 21.6881 31.75C21.6673 31.75 21.6463 31.75 21.6252 31.75C21.6174 31.75 21.609 31.75 21.6 31.7501C21.516 31.7504 21.3818 31.7509 21.2563 31.726C20.7604 31.6273 20.3728 31.2397 20.2742 30.7439C20.2492 30.6183 20.2497 30.4841 20.2501 30.4002ZM22.7502 27.75L22.6002 27.75C22.3078 27.75 22.1336 27.7506 22.0044 27.7611C21.9256 27.7676 21.8925 27.7761 21.8836 27.7788C21.839 27.8023 21.8025 27.8388 21.779 27.8835C21.7762 27.8923 21.7677 27.9255 21.7613 28.0043C21.7507 28.1334 21.7502 28.3076 21.7502 28.6L21.7502 30.2498C22.0289 30.249 22.0987 30.2451 22.1465 30.2356C22.444 30.1764 22.6766 29.9438 22.7357 29.6463C22.7465 29.5921 22.7502 29.5094 22.7502 29.125L22.7502 27.75ZM21.7799 27.8809C21.7799 27.8809 21.7797 27.8814 21.7793 27.8824L21.7799 27.8809ZM21.881 27.7797C21.881 27.7797 21.8815 27.7795 21.8825 27.7792L21.881 27.7797Z" fill="#5F5F6A"/>
<path fill-rule="evenodd" clip-rule="evenodd" d="M20.2502 86.375L20.2501 86.4002C20.2497 86.4841 20.2492 86.6183 20.2742 86.7439C20.3728 87.2397 20.7604 87.6273 21.2563 87.726C21.3818 87.7509 21.516 87.7504 21.6 87.7501L21.6252 87.75L21.6881 87.75C21.9736 87.7503 22.2195 87.7505 22.4391 87.7068C23.3317 87.5292 24.0294 86.8315 24.2069 85.9389C24.2506 85.7193 24.2504 85.4734 24.2502 85.1879L24.2502 83.75H28.0002C28.4144 83.75 28.7502 83.4142 28.7502 83C28.7502 82.5858 28.4144 82.25 28.0002 82.25L22.5739 82.25C22.3165 82.25 22.08 82.25 21.8823 82.2661C21.6692 82.2835 21.436 82.3234 21.2057 82.4407C20.8764 82.6085 20.6087 82.8762 20.4409 83.2055C20.3235 83.4358 20.2837 83.669 20.2663 83.8821C20.2501 84.0798 20.2501 84.3163 20.2502 84.5738L20.2502 86.375ZM22.6002 83.75H22.7502V85.125C22.7502 85.5094 22.7465 85.5921 22.7357 85.6463C22.6766 85.9438 22.444 86.1764 22.1465 86.2356C22.0987 86.2451 22.0289 86.249 21.7502 86.2498L21.7502 84.6C21.7502 84.3076 21.7507 84.1334 21.7613 84.0043C21.7677 83.9255 21.7762 83.8923 21.779 83.8835C21.8025 83.8388 21.839 83.8023 21.8836 83.7788C21.8925 83.7761 21.9256 83.7676 22.0044 83.7611C22.1336 83.7506 22.3078 83.75 22.6002 83.75Z" fill="#5F5F6A"/>
<path fill-rule="evenodd" clip-rule="evenodd" d="M34 92.75C34.011 92.75 34.0219 92.7498 34.0328 92.7493C34.1714 92.75 34.3174 92.75 34.471 92.75H34.529C35.048 92.75 35.4803 92.75 35.835 92.7224C36.2053 92.6935 36.5501 92.6313 36.8805 92.4749C37.6494 92.1109 38.2306 91.4286 38.5275 90.6094C38.6515 90.2674 38.7023 89.9083 38.7265 89.5038C38.75 89.1095 38.75 88.6248 38.75 88.0234V84C38.75 81.4739 36.9382 79.25 34.5 79.25C34.3823 79.25 34.2662 79.2552 34.1516 79.2653C34.1026 79.2553 34.0519 79.25 34 79.25H21.8235C19.2661 79.25 17.25 81.4089 17.25 84V87.2321C17.25 88.0449 17.25 88.7006 17.2934 89.2315C17.338 89.7781 17.4324 90.2582 17.6587 90.7025C18.0183 91.4081 18.5919 91.9817 19.2975 92.3413C19.7418 92.5676 20.2219 92.662 20.7685 92.7066C21.2994 92.75 21.955 92.75 22.7679 92.75H34ZM18.75 87.2V84C18.75 82.1728 20.1576 80.75 21.8235 80.75H31.3991C30.6785 81.6145 30.25 82.7715 30.25 84V88.0234C30.25 88.6248 30.25 89.1094 30.2735 89.5038C30.2977 89.9083 30.3485 90.2674 30.4725 90.6094C30.5541 90.8345 30.6572 91.0493 30.7797 91.25H22.8C21.9475 91.25 21.3533 91.2494 20.8907 91.2116C20.4368 91.1745 20.176 91.1054 19.9785 91.0048C19.5552 90.789 19.211 90.4448 18.9952 90.0215C18.8946 89.824 18.8255 89.5632 18.7884 89.1093C18.7506 88.6467 18.75 88.0525 18.75 87.2ZM31.75 88V84C31.75 82.1079 33.0722 80.75 34.5 80.75C35.9278 80.75 37.25 82.1079 37.25 84V88C37.25 88.6302 37.2497 89.07 37.2291 89.4144C37.2089 89.7537 37.1709 89.9502 37.1173 90.0983C36.9405 90.5859 36.6132 90.9418 36.2387 91.1191C36.1403 91.1657 35.9989 91.205 35.7184 91.2269C35.4289 91.2495 35.0553 91.25 34.5 91.25C33.9447 91.25 33.5711 91.2495 33.2816 91.2269C33.0011 91.205 32.8597 91.1657 32.7613 91.1191C32.3868 90.9418 32.0595 90.5859 31.8827 90.0983C31.8291 89.9502 31.7911 89.7537 31.7709 89.4144C31.7503 89.07 31.75 88.6302 31.75 88Z" fill="#5F5F6A"/>
<path d="M20.5001 142.375L20.5 142.4C20.4998 142.488 20.4996 142.596 20.5193 142.695C20.5982 143.092 20.9083 143.402 21.305 143.481C21.404 143.5 21.5117 143.5 21.5997 143.5L21.6251 143.5L21.6767 143.5C21.9748 143.5 22.1959 143.5 22.3903 143.462C23.1836 143.304 23.8038 142.684 23.9617 141.89C24.0003 141.696 24.0002 141.475 24.0001 141.177L24.0001 139.5L28.0001 139.5C28.2762 139.5 28.5001 139.276 28.5001 139C28.5001 138.724 28.2762 138.5 28.0001 138.5L22.5808 138.5C22.3172 138.5 22.0899 138.5 21.9026 138.515C21.7049 138.531 21.5083 138.567 21.3191 138.663C21.0369 138.807 20.8074 139.037 20.6636 139.319C20.5672 139.508 20.5315 139.705 20.5154 139.902C20.5001 140.09 20.5001 140.317 20.5001 140.581L20.5001 142.375ZM22.6001 139.5H23.0001V141.125C23.0001 141.497 22.9977 141.611 22.9809 141.695C22.902 142.092 22.5919 142.402 22.1952 142.481C22.1107 142.498 21.9975 142.5 21.6251 142.5C21.5636 142.5 21.53 142.5 21.5055 142.499L21.5012 142.499L21.501 142.495C21.5001 142.47 21.5001 142.436 21.5001 142.375L21.5001 140.6C21.5001 140.312 21.5005 140.126 21.512 139.984C21.5231 139.848 21.542 139.798 21.5546 139.773C21.6025 139.679 21.679 139.602 21.7731 139.554C21.7978 139.542 21.8482 139.523 21.984 139.512C22.1257 139.5 22.3118 139.5 22.6001 139.5Z" fill="#5F5F6A"/>
<path d="M34.0142 148.5C34.0187 148.5 34.0231 148.499 34.0276 148.499C34.1692 148.5 34.3197 148.5 34.4797 148.5H34.5203C35.0467 148.5 35.4707 148.5 35.8156 148.473C36.1709 148.445 36.4818 148.387 36.7735 148.249C37.4767 147.916 38.0156 147.288 38.2925 146.524C38.4047 146.215 38.4534 145.883 38.4769 145.489C38.5 145.102 38.5 144.624 38.5 144.016V140C38.5 137.58 36.7698 135.5 34.5 135.5C34.3764 135.5 34.2544 135.506 34.1342 135.518C34.0915 135.506 34.0465 135.5 34 135.5H21.8235C19.4147 135.5 17.5 137.536 17.5 140V143.222C17.5 144.043 17.5 144.69 17.5425 145.211C17.5859 145.742 17.6761 146.186 17.8815 146.589C18.217 147.248 18.7525 147.783 19.411 148.119C19.8141 148.324 20.2577 148.414 20.7889 148.457C21.3095 148.5 21.9565 148.5 22.7778 148.5H34C34.0047 148.5 34.0095 148.5 34.0142 148.5ZM21.8235 136.5H31.9826C31.069 137.336 30.5 138.612 30.5 140V144.016C30.5 144.624 30.5 145.102 30.5231 145.489C30.5466 145.883 30.5953 146.215 30.7075 146.524C30.8385 146.885 31.028 147.216 31.2658 147.5H22.8C21.9517 147.5 21.3455 147.5 20.8703 147.461C20.401 147.422 20.1037 147.349 19.865 147.228C19.3946 146.988 19.0122 146.605 18.7725 146.135C18.6509 145.896 18.5776 145.599 18.5392 145.13C18.5004 144.655 18.5 144.048 18.5 143.2V140C18.5 138.046 20.009 136.5 21.8235 136.5ZM34.5 136.5C36.0962 136.5 37.5 138.002 37.5 140V144C37.5 144.627 37.4998 145.076 37.4787 145.429C37.4578 145.779 37.4177 146.003 37.3523 146.183C37.1555 146.726 36.7859 147.137 36.3457 147.345C36.2086 147.41 36.0333 147.453 35.7378 147.476C35.4364 147.5 35.0514 147.5 34.5 147.5C33.9486 147.5 33.5636 147.5 33.2622 147.476C32.9667 147.453 32.7914 147.41 32.6543 147.345C32.2141 147.137 31.8445 146.726 31.6477 146.183C31.5823 146.003 31.5422 145.779 31.5213 145.429C31.5002 145.076 31.5 144.627 31.5 144V140C31.5 138.002 32.9038 136.5 34.5 136.5Z" fill="#5F5F6A"/>
</svg>
