<svg width="56" height="224" viewBox="0 0 56 224" fill="none" xmlns="http://www.w3.org/2000/svg">
<path d="M28 19.25C26.2051 19.25 24.75 20.7051 24.75 22.5V28.5C24.75 30.2949 26.2051 31.75 28 31.75C29.7949 31.75 31.25 30.2949 31.25 28.5V22.5C31.25 20.7051 29.7949 19.25 28 19.25Z" fill="#5F5F6A"/>
<path d="M23.75 28.5C23.75 28.0858 23.4142 27.75 23 27.75C22.5858 27.75 22.25 28.0858 22.25 28.5C22.25 31.4214 24.4287 33.834 27.25 34.2015V35.25H25C24.5858 35.25 24.25 35.5858 24.25 36C24.25 36.4142 24.5858 36.75 25 36.75H31C31.4142 36.75 31.75 36.4142 31.75 36C31.75 35.5858 31.4142 35.25 31 35.25H28.75V34.2015C31.5713 33.834 33.75 31.4214 33.75 28.5C33.75 28.0858 33.4142 27.75 33 27.75C32.5858 27.75 32.25 28.0858 32.25 28.5C32.25 30.8472 30.3472 32.75 28 32.75C25.6528 32.75 23.75 30.8472 23.75 28.5Z" fill="#5F5F6A"/>
<path opacity="0.5" d="M25.5 78.5C25.5 77.1193 26.6193 76 28 76C29.3807 76 30.5 77.1193 30.5 78.5V84.5C30.5 85.8807 29.3807 87 28 87C26.6193 87 25.5 85.8807 25.5 84.5V78.5Z" fill="#5F5F6A"/>
<path fill-rule="evenodd" clip-rule="evenodd" d="M24.75 78.5C24.75 76.7051 26.2051 75.25 28 75.25C29.7949 75.25 31.25 76.7051 31.25 78.5V84.5C31.25 86.2949 29.7949 87.75 28 87.75C26.2051 87.75 24.75 86.2949 24.75 84.5V78.5ZM28 76.75C27.0335 76.75 26.25 77.5335 26.25 78.5V84.5C26.25 85.4665 27.0335 86.25 28 86.25C28.9665 86.25 29.75 85.4665 29.75 84.5V78.5C29.75 77.5335 28.9665 76.75 28 76.75ZM23 83.75C23.4142 83.75 23.75 84.0858 23.75 84.5C23.75 86.8472 25.6528 88.75 28 88.75C30.3472 88.75 32.25 86.8472 32.25 84.5C32.25 84.0858 32.5858 83.75 33 83.75C33.4142 83.75 33.75 84.0858 33.75 84.5C33.75 87.4214 31.5713 89.834 28.75 90.2015V91.25H31C31.4142 91.25 31.75 91.5858 31.75 92C31.75 92.4142 31.4142 92.75 31 92.75H25C24.5858 92.75 24.25 92.4142 24.25 92C24.25 91.5858 24.5858 91.25 25 91.25H27.25V90.2015C24.4287 89.834 22.25 87.4214 22.25 84.5C22.25 84.0858 22.5858 83.75 23 83.75Z" fill="#5F5F6A"/>
<path fill-rule="evenodd" clip-rule="evenodd" d="M24.75 134.5C24.75 132.705 26.2051 131.25 28 131.25C29.7949 131.25 31.25 132.705 31.25 134.5V140.5C31.25 142.295 29.7949 143.75 28 143.75C26.2051 143.75 24.75 142.295 24.75 140.5V134.5ZM28 132.75C27.0335 132.75 26.25 133.534 26.25 134.5V140.5C26.25 141.466 27.0335 142.25 28 142.25C28.9665 142.25 29.75 141.466 29.75 140.5V134.5C29.75 133.534 28.9665 132.75 28 132.75ZM23 139.75C23.4142 139.75 23.75 140.086 23.75 140.5C23.75 142.847 25.6528 144.75 28 144.75C30.3472 144.75 32.25 142.847 32.25 140.5C32.25 140.086 32.5858 139.75 33 139.75C33.4142 139.75 33.75 140.086 33.75 140.5C33.75 143.421 31.5713 145.834 28.75 146.202V147.25H31C31.4142 147.25 31.75 147.586 31.75 148C31.75 148.414 31.4142 148.75 31 148.75H25C24.5858 148.75 24.25 148.414 24.25 148C24.25 147.586 24.5858 147.25 25 147.25H27.25V146.202C24.4287 145.834 22.25 143.421 22.25 140.5C22.25 140.086 22.5858 139.75 23 139.75Z" fill="#5F5F6A"/>
<path fill-rule="evenodd" clip-rule="evenodd" d="M25 190.5C25 188.843 26.3431 187.5 28 187.5C29.6569 187.5 31 188.843 31 190.5V196.5C31 198.157 29.6569 199.5 28 199.5C26.3431 199.5 25 198.157 25 196.5V190.5ZM28 188.5C26.8954 188.5 26 189.395 26 190.5V196.5C26 197.605 26.8954 198.5 28 198.5C29.1046 198.5 30 197.605 30 196.5V190.5C30 189.395 29.1046 188.5 28 188.5ZM23 196C23.2761 196 23.5 196.224 23.5 196.5C23.5 198.985 25.5147 201 28 201C30.4853 201 32.5 198.985 32.5 196.5C32.5 196.224 32.7239 196 33 196C33.2761 196 33.5 196.224 33.5 196.5C33.5 199.369 31.3033 201.725 28.5 201.978V203.5H31C31.2761 203.5 31.5 203.724 31.5 204C31.5 204.276 31.2761 204.5 31 204.5H25C24.7239 204.5 24.5 204.276 24.5 204C24.5 203.724 24.7239 203.5 25 203.5H27.5V201.978C24.6968 201.725 22.5 199.369 22.5 196.5C22.5 196.224 22.7239 196 23 196Z" fill="#5F5F6A"/>
</svg>
