<svg width="56" height="224" viewBox="0 0 56 224" fill="none" xmlns="http://www.w3.org/2000/svg">
<path d="M20.75 28C20.75 27.3096 21.3096 26.75 22 26.75H34C34.6904 26.75 35.25 27.3096 35.25 28C35.25 28.6904 34.6904 29.25 34 29.25H22C21.3096 29.25 20.75 28.6904 20.75 28Z" fill="#5F5F6A"/>
<path d="M21 84C21 83.4477 21.4477 83 22 83H34C34.5523 83 35 83.4477 35 84C35 84.5523 34.5523 85 34 85H22C21.4477 85 21 84.5523 21 84Z" fill="#5F5F6A"/>
<path d="M21.25 140C21.25 139.586 21.5858 139.25 22 139.25H34C34.4142 139.25 34.75 139.586 34.75 140C34.75 140.414 34.4142 140.75 34 140.75H22C21.5858 140.75 21.25 140.414 21.25 140Z" fill="#5F5F6A"/>
<path d="M21.5 196C21.5 195.724 21.7239 195.5 22 195.5H34C34.2761 195.5 34.5 195.724 34.5 196C34.5 196.276 34.2761 196.5 34 196.5H22C21.7239 196.5 21.5 196.276 21.5 196Z" fill="#5F5F6A"/>
</svg>
