<svg width="56" height="168" viewBox="0 0 56 168" fill="none" xmlns="http://www.w3.org/2000/svg">
<path d="M22.8339 19.802C22.2133 19.8527 21.829 19.9491 21.5245 20.1042C20.913 20.4158 20.4158 20.913 20.1042 21.5245C19.9491 21.829 19.8527 22.2133 19.802 22.8339C19.7506 23.4633 19.75 24.2675 19.75 25.4V28.6C19.75 29.7325 19.7506 30.5367 19.802 31.1661C19.8527 31.7867 19.9491 32.171 20.1042 32.4755C20.4158 33.087 20.913 33.5842 21.5245 33.8958C21.829 34.0509 22.2133 34.1473 22.8339 34.198C23.4633 34.2494 24.2675 34.25 25.4 34.25H26.1523L28 36.1408L29.8477 34.25H30.6C31.7325 34.25 32.5367 34.2494 33.1661 34.198C33.7867 34.1473 34.171 34.0509 34.4755 33.8958C35.087 33.5842 35.5842 33.087 35.8958 32.4755C36.0509 32.171 36.1473 31.7867 36.198 31.1661C36.2494 30.5367 36.25 29.7325 36.25 28.6V25.4C36.25 24.2675 36.2494 23.4633 36.198 22.8339C36.1473 22.2133 36.0509 21.829 35.8958 21.5245C35.5842 20.913 35.087 20.4158 34.4755 20.1042C34.171 19.9491 33.7867 19.8527 33.1661 19.802C32.5367 19.7506 31.7325 19.75 30.6 19.75H25.4C24.2675 19.75 23.4633 19.7506 22.8339 19.802ZM25.367 18.25H30.633C31.7251 18.25 32.5906 18.25 33.2883 18.307C34.0017 18.3653 34.6053 18.4869 35.1565 18.7677C36.0502 19.2231 36.7769 19.9498 37.2323 20.8435C37.5131 21.3947 37.6347 21.9983 37.693 22.7117C37.75 23.4094 37.75 24.2748 37.75 25.367V28.633C37.75 29.7252 37.75 30.5906 37.693 31.2883C37.6347 32.0017 37.5131 32.6053 37.2323 33.1565C36.7769 34.0502 36.0502 34.7769 35.1565 35.2323C34.6053 35.5131 34.0017 35.6347 33.2883 35.693C32.5906 35.75 31.7252 35.75 30.633 35.75H30.4792L28.894 37.3721C28.4036 37.8739 27.5964 37.8739 27.106 37.3721L25.5208 35.75H25.367C24.2748 35.75 23.4094 35.75 22.7117 35.693C21.9983 35.6347 21.3947 35.5131 20.8435 35.2323C19.9498 34.7769 19.2231 34.0502 18.7677 33.1565C18.4869 32.6053 18.3653 32.0017 18.307 31.2883C18.25 30.5906 18.25 29.7251 18.25 28.633V25.367C18.25 24.2749 18.25 23.4094 18.307 22.7117C18.3653 21.9983 18.4869 21.3947 18.7677 20.8435C19.2231 19.9498 19.9498 19.2231 20.8435 18.7677C21.3947 18.4869 21.9983 18.3653 22.7117 18.307C23.4094 18.25 24.2749 18.25 25.367 18.25Z" fill="#5F5F6A"/>
<path opacity="0.5" d="M28 21.75C28.4142 21.75 28.75 22.0858 28.75 22.5V23.2516C29.9394 23.2984 30.75 24.3677 30.75 25.5C30.75 25.9142 30.4142 26.25 30 26.25C29.5858 26.25 29.25 25.9142 29.25 25.5C29.25 24.9969 28.9103 24.75 28.6687 24.75H27.1634C27.0155 24.75 26.75 24.9158 26.75 25.3069C26.75 25.6024 26.8098 25.6935 26.8238 25.7127C26.8394 25.7341 26.8818 25.781 27.0562 25.8476L29.4751 26.7497C29.7727 26.8629 30.1259 27.0443 30.3876 27.4027C30.6508 27.7632 30.75 28.2032 30.75 28.6931C30.75 29.7441 29.972 30.75 28.8366 30.75H28.75V31.5C28.75 31.9142 28.4142 32.25 28 32.25C27.5858 32.25 27.25 31.9142 27.25 31.5V30.7484C26.0606 30.7016 25.25 29.6323 25.25 28.5C25.25 28.0858 25.5858 27.75 26 27.75C26.4142 27.75 26.75 28.0858 26.75 28.5C26.75 29.0031 27.0897 29.25 27.3313 29.25H28.8366C28.9845 29.25 29.25 29.0842 29.25 28.6931C29.25 28.3976 29.1902 28.3065 29.1762 28.2873C29.1606 28.2659 29.1182 28.219 28.9438 28.1524L26.5249 27.2503C26.2273 27.1371 25.8741 26.9557 25.6124 26.5973C25.3492 26.2368 25.25 25.7968 25.25 25.3069C25.25 24.2559 26.028 23.25 27.1634 23.25H27.25V22.5C27.25 22.0858 27.5858 21.75 28 21.75Z" fill="#5F5F6A"/>
<path d="M28.75 78.5C28.75 78.0858 28.4142 77.75 28 77.75C27.5858 77.75 27.25 78.0858 27.25 78.5V79.25H27.1634C26.028 79.25 25.25 80.2559 25.25 81.3069C25.25 81.7968 25.3492 82.2368 25.6124 82.5973C25.8741 82.9557 26.2273 83.1371 26.5249 83.2503L28.9438 84.1524C29.1182 84.219 29.1606 84.2659 29.1762 84.2873C29.1902 84.3065 29.25 84.3976 29.25 84.6931C29.25 85.0842 28.9845 85.25 28.8366 85.25H27.3313C27.0897 85.25 26.75 85.0031 26.75 84.5C26.75 84.0858 26.4142 83.75 26 83.75C25.5858 83.75 25.25 84.0858 25.25 84.5C25.25 85.6323 26.0606 86.7016 27.25 86.7484V87.5C27.25 87.9142 27.5858 88.25 28 88.25C28.4142 88.25 28.75 87.9142 28.75 87.5V86.75H28.8366C29.972 86.75 30.75 85.7441 30.75 84.6931C30.75 84.2032 30.6508 83.7632 30.3876 83.4027C30.1259 83.0443 29.7727 82.8629 29.4751 82.7497L27.0562 81.8476C26.8818 81.781 26.8394 81.7341 26.8238 81.7127C26.8098 81.6935 26.75 81.6024 26.75 81.3069C26.75 80.9158 27.0155 80.75 27.1634 80.75H28.6687C28.9103 80.75 29.25 80.9969 29.25 81.5C29.25 81.9142 29.5858 82.25 30 82.25C30.4142 82.25 30.75 81.9142 30.75 81.5C30.75 80.3677 29.9394 79.2984 28.75 79.2516V78.5Z" fill="#5F5F6A"/>
<path d="M30.633 74.25H25.367C24.2749 74.25 23.4094 74.25 22.7117 74.307C21.9983 74.3653 21.3947 74.4869 20.8435 74.7677C19.9498 75.2231 19.2231 75.9498 18.7677 76.8435C18.4869 77.3947 18.3653 77.9983 18.307 78.7117C18.25 79.4094 18.25 80.2748 18.25 81.367V84.633C18.25 85.7251 18.25 86.5906 18.307 87.2883C18.3653 88.0017 18.4869 88.6053 18.7677 89.1565C19.2231 90.0502 19.9498 90.7769 20.8435 91.2323C21.3947 91.5131 21.9983 91.6347 22.7117 91.693C23.4094 91.75 24.2748 91.75 25.367 91.75H25.5208L27.106 93.3721C27.5964 93.8739 28.4036 93.8739 28.894 93.3721L30.4792 91.75H30.633C31.7252 91.75 32.5906 91.75 33.2883 91.693C34.0017 91.6347 34.6053 91.5131 35.1565 91.2323C36.0502 90.7769 36.7769 90.0502 37.2323 89.1565C37.5131 88.6053 37.6347 88.0017 37.693 87.2883C37.75 86.5906 37.75 85.7252 37.75 84.633V81.367C37.75 80.2748 37.75 79.4094 37.693 78.7117C37.6347 77.9983 37.5131 77.3947 37.2323 76.8435C36.7769 75.9498 36.0502 75.2231 35.1565 74.7677C34.6053 74.4869 34.0017 74.3653 33.2883 74.307C32.5906 74.25 31.7251 74.25 30.633 74.25ZM21.5245 76.1042C21.829 75.9491 22.2133 75.8527 22.8339 75.802C23.4633 75.7506 24.2675 75.75 25.4 75.75H30.6C31.7325 75.75 32.5367 75.7506 33.1661 75.802C33.7867 75.8527 34.171 75.9491 34.4755 76.1042C35.087 76.4158 35.5842 76.913 35.8958 77.5245C36.0509 77.829 36.1473 78.2133 36.198 78.8339C36.2494 79.4633 36.25 80.2675 36.25 81.4V84.6C36.25 85.7325 36.2494 86.5367 36.198 87.1661C36.1473 87.7867 36.0509 88.171 35.8958 88.4755C35.5842 89.087 35.087 89.5842 34.4755 89.8958C34.171 90.0509 33.7867 90.1473 33.1661 90.198C32.5367 90.2494 31.7325 90.25 30.6 90.25H29.8477L28 92.1408L26.1523 90.25H25.4C24.2675 90.25 23.4633 90.2494 22.8339 90.198C22.2133 90.1473 21.829 90.0509 21.5245 89.8958C20.913 89.5842 20.4158 89.087 20.1042 88.4755C19.9491 88.171 19.8527 87.7867 19.802 87.1661C19.7506 86.5367 19.75 85.7325 19.75 84.6V81.4C19.75 80.2675 19.7506 79.4633 19.802 78.8339C19.8527 78.2133 19.9491 77.829 20.1042 77.5245C20.4158 76.913 20.913 76.4158 21.5245 76.1042Z" fill="#5F5F6A"/>
<path d="M28.5 134.5C28.5 134.224 28.2761 134 28 134C27.7239 134 27.5 134.224 27.5 134.5V135.5H27.1634C26.1926 135.5 25.5 136.366 25.5 137.307C25.5 137.764 25.5926 138.146 25.8143 138.45C26.035 138.752 26.3364 138.911 26.6138 139.017L29.0321 139.919C29.2275 139.993 29.3215 140.062 29.3781 140.14C29.4337 140.216 29.5 140.365 29.5 140.693C29.5 141.194 29.1491 141.5 28.8366 141.5H27.3313C26.9244 141.5 26.5 141.112 26.5 140.5C26.5 140.224 26.2761 140 26 140C25.7239 140 25.5 140.224 25.5 140.5C25.5 141.549 26.263 142.5 27.3313 142.5H27.5V143.5C27.5 143.776 27.7239 144 28 144C28.2761 144 28.5 143.776 28.5 143.5V142.5H28.8366C29.8074 142.5 30.5 141.634 30.5 140.693C30.5 140.236 30.4074 139.854 30.1857 139.55C29.965 139.248 29.6636 139.089 29.3862 138.983L26.9679 138.081C26.7725 138.007 26.6785 137.938 26.6219 137.86C26.5663 137.784 26.5 137.635 26.5 137.307C26.5 136.806 26.8509 136.5 27.1634 136.5H28.6687C29.0756 136.5 29.5 136.888 29.5 137.5C29.5 137.776 29.7239 138 30 138C30.2761 138 30.5 137.776 30.5 137.5C30.5 136.451 29.737 135.5 28.6687 135.5H28.5V134.5Z" fill="#5F5F6A"/>
<path d="M30.6226 130.5H25.3774C24.2764 130.5 23.4195 130.5 22.7321 130.556C22.0342 130.613 21.4671 130.731 20.957 130.99C20.1103 131.422 19.4219 132.11 18.9905 132.957C18.7306 133.467 18.6132 134.034 18.5562 134.732C18.5 135.419 18.5 136.276 18.5 137.377V140.623C18.5 141.724 18.5 142.581 18.5562 143.268C18.6132 143.966 18.7306 144.533 18.9905 145.043C19.4219 145.89 20.1103 146.578 20.957 147.01C21.4671 147.269 22.0342 147.387 22.7321 147.444C23.4195 147.5 24.2764 147.5 25.3773 147.5H25.626L27.2848 149.197C27.6771 149.599 28.3229 149.599 28.7152 149.197L30.374 147.5H30.6226C31.7236 147.5 32.5805 147.5 33.2679 147.444C33.9658 147.387 34.5329 147.269 35.043 147.01C35.8897 146.578 36.5781 145.89 37.0095 145.043C37.2694 144.533 37.3868 143.966 37.4438 143.268C37.5 142.581 37.5 141.724 37.5 140.623V137.377C37.5 136.276 37.5 135.419 37.4438 134.732C37.3868 134.034 37.2694 133.467 37.0095 132.957C36.5781 132.11 35.8897 131.422 35.043 130.99C34.5329 130.731 33.9658 130.613 33.2679 130.556C32.5805 130.5 31.7236 130.5 30.6226 130.5ZM21.411 131.881C21.7566 131.705 22.1774 131.605 22.8135 131.553C23.4554 131.5 24.2716 131.5 25.4 131.5H30.6C31.7284 131.5 32.5446 131.5 33.1865 131.553C33.8226 131.605 34.2434 131.705 34.589 131.881C35.2475 132.217 35.783 132.752 36.1185 133.411C36.2946 133.757 36.3952 134.177 36.4472 134.814C36.4996 135.455 36.5 136.272 36.5 137.4V140.6C36.5 141.728 36.4996 142.545 36.4472 143.186C36.3952 143.823 36.2946 144.243 36.1185 144.589C35.783 145.248 35.2475 145.783 34.589 146.119C34.2434 146.295 33.8226 146.395 33.1865 146.447C32.5446 146.5 31.7284 146.5 30.6 146.5H29.953L28 148.498L26.047 146.5H25.4C24.2716 146.5 23.4554 146.5 22.8135 146.447C22.1774 146.395 21.7566 146.295 21.411 146.119C20.7525 145.783 20.217 145.248 19.8815 144.589C19.7054 144.243 19.6048 143.823 19.5528 143.186C19.5004 142.545 19.5 141.728 19.5 140.6V137.4C19.5 136.272 19.5004 135.455 19.5528 134.814C19.6048 134.177 19.7054 133.757 19.8815 133.411C20.217 132.752 20.7525 132.217 21.411 131.881Z" fill="#5F5F6A"/>
</svg>
