<svg width="56" height="224" viewBox="0 0 56 224" fill="none" xmlns="http://www.w3.org/2000/svg">
<path d="M22.3711 20.5C21.9757 20.5 21.6347 20.5 21.3537 20.5229C21.0572 20.5472 20.7623 20.6006 20.4785 20.7452C20.0552 20.961 19.711 21.3052 19.4952 21.7285C19.3506 22.0123 19.2972 22.3072 19.2729 22.6037C19.25 22.8847 19.25 23.2257 19.25 23.6211L19.25 31.525C18.6794 31.6408 18.25 32.1453 18.25 32.75C18.25 34.2688 19.4812 35.5 21 35.5H35C36.5188 35.5 37.75 34.2688 37.75 32.75C37.75 32.1453 37.3206 31.6408 36.75 31.525V23.6211C36.75 23.2258 36.75 22.8846 36.7271 22.6037C36.7028 22.3072 36.6494 22.0123 36.5048 21.7285C36.289 21.3052 35.9448 20.961 35.5215 20.7452C35.2377 20.6006 34.9428 20.5472 34.6463 20.5229C34.3653 20.5 34.0243 20.5 33.6289 20.5H22.3711ZM19.775 33H24.9388C25.3049 33.4566 25.8677 33.75 26.5 33.75H29.5C30.1323 33.75 30.6951 33.4566 31.0612 33H36.225C36.1092 33.5706 35.6047 34 35 34H21C20.3953 34 19.8908 33.5706 19.775 33Z" fill="#5F5F6A"/>
<path opacity="0.5" d="M20.218 78.342C20 78.7698 20 79.3299 20 80.45V88.25H25.354C25.5469 88.6915 25.9874 89 26.5 89H29.5C30.0126 89 30.4531 88.6915 30.646 88.25H36V80.45C36 79.3299 36 78.7698 35.782 78.342C35.5903 77.9657 35.2843 77.6597 34.908 77.468C34.4802 77.25 33.9201 77.25 32.8 77.25H23.2C22.0799 77.25 21.5198 77.25 21.092 77.468C20.7157 77.6597 20.4097 77.9657 20.218 78.342Z" fill="#5F5F6A"/>
<path d="M19.25 87.525L19.25 79.6211C19.25 79.2257 19.25 78.8847 19.2729 78.6037C19.2972 78.3072 19.3506 78.0123 19.4952 77.7285C19.711 77.3052 20.0552 76.961 20.4785 76.7452C20.7623 76.6006 21.0572 76.5472 21.3537 76.5229C21.6347 76.5 21.9757 76.5 22.3711 76.5H33.6289C34.0243 76.5 34.3653 76.5 34.6463 76.5229C34.9428 76.5472 35.2377 76.6006 35.5215 76.7452C35.9448 76.961 36.289 77.3052 36.5048 77.7285C36.6494 78.0123 36.7028 78.3072 36.7271 78.6037C36.75 78.8846 36.75 79.2257 36.75 79.621V87.525C37.3206 87.6408 37.75 88.1453 37.75 88.75C37.75 90.2688 36.5188 91.5 35 91.5H21C19.4812 91.5 18.25 90.2688 18.25 88.75C18.25 88.1453 18.6794 87.6408 19.25 87.525ZM21.1595 78.0817C21.0184 78.1537 20.9037 78.2684 20.8317 78.4095C20.8129 78.4466 20.7846 78.5221 20.7679 78.7259C20.7506 78.9384 20.75 79.2176 20.75 79.65V87.5H25.354C25.6521 87.5 25.9219 87.6766 26.0413 87.9497C26.1191 88.1279 26.2961 88.25 26.5 88.25H29.5C29.7039 88.25 29.8809 88.1279 29.9587 87.9497C30.0781 87.6766 30.3479 87.5 30.646 87.5H35.25V79.65C35.25 79.2176 35.2494 78.9384 35.2321 78.7259C35.2154 78.5221 35.1871 78.4466 35.1683 78.4095C35.0963 78.2684 34.9816 78.1537 34.8405 78.0817C34.8034 78.0629 34.7279 78.0346 34.5241 78.0179C34.3116 78.0006 34.0324 78 33.6 78H22.4C21.9676 78 21.6884 78.0006 21.4759 78.0179C21.2721 78.0346 21.1966 78.0629 21.1595 78.0817ZM19.775 89C19.8908 89.5706 20.3953 90 21 90H35C35.6047 90 36.1092 89.5706 36.225 89H31.0612C30.6951 89.4566 30.1323 89.75 29.5 89.75H26.5C25.8677 89.75 25.3049 89.4566 24.9388 89H19.775Z" fill="#5F5F6A"/>
<path d="M19.25 143.525L19.25 135.621C19.25 135.226 19.25 134.885 19.2729 134.604C19.2972 134.307 19.3506 134.012 19.4952 133.729C19.711 133.305 20.0552 132.961 20.4785 132.745C20.7623 132.601 21.0572 132.547 21.3537 132.523C21.6347 132.5 21.9757 132.5 22.3711 132.5H33.6289C34.0243 132.5 34.3654 132.5 34.6463 132.523C34.9428 132.547 35.2377 132.601 35.5215 132.745C35.9448 132.961 36.2891 133.305 36.5048 133.729C36.6494 134.012 36.7028 134.307 36.7271 134.604C36.75 134.885 36.75 135.226 36.75 135.621V143.525C37.3206 143.641 37.75 144.145 37.75 144.75C37.75 146.269 36.5188 147.5 35 147.5H21C19.4812 147.5 18.25 146.269 18.25 144.75C18.25 144.145 18.6794 143.641 19.25 143.525ZM21.1595 134.082C21.0184 134.154 20.9037 134.268 20.8317 134.41C20.8129 134.447 20.7846 134.522 20.7679 134.726C20.7506 134.938 20.75 135.218 20.75 135.65V143.5H25.354C25.6149 143.5 25.854 143.635 25.9897 143.852C26.0091 143.883 26.0264 143.916 26.0413 143.95C26.1143 144.117 26.2744 144.235 26.4621 144.249C26.4746 144.25 26.4873 144.25 26.5 144.25H29.5C29.7039 144.25 29.8809 144.128 29.9587 143.95C30.0706 143.694 30.3147 143.522 30.5905 143.502C30.6088 143.501 30.6274 143.5 30.646 143.5H35.25V135.65C35.25 135.218 35.2494 134.938 35.2321 134.726C35.2154 134.522 35.1872 134.447 35.1683 134.41C35.0964 134.268 34.9816 134.154 34.8405 134.082C34.8034 134.063 34.7279 134.035 34.5241 134.018C34.3116 134.001 34.0324 134 33.6 134H22.4C21.9676 134 21.6884 134.001 21.4759 134.018C21.2721 134.035 21.1966 134.063 21.1595 134.082ZM19.775 145C19.8908 145.571 20.3953 146 21 146H35C35.6047 146 36.1092 145.571 36.225 145L31.0612 145C30.6951 145.457 30.1323 145.75 29.5 145.75H26.5C25.8677 145.75 25.3049 145.457 24.9388 145L19.775 145Z" fill="#5F5F6A"/>
<path d="M19.5 199.75L19.5 191.629C19.5 191.227 19.5 190.895 19.5221 190.624C19.5451 190.343 19.5943 190.085 19.718 189.842C19.9097 189.466 20.2157 189.16 20.592 188.968C20.8347 188.844 21.093 188.795 21.3741 188.772C21.6447 188.75 21.9769 188.75 22.3793 188.75H33.6207C34.0231 188.75 34.3553 188.75 34.6259 188.772C34.907 188.795 35.1653 188.844 35.408 188.968C35.7843 189.16 36.0903 189.466 36.282 189.842C36.4057 190.085 36.4549 190.343 36.4779 190.624C36.5 190.895 36.5 191.227 36.5 191.629V199.75C37.0523 199.75 37.5 200.198 37.5 200.75C37.5 202.131 36.3807 203.25 35 203.25H21C19.6193 203.25 18.5 202.131 18.5 200.75C18.5 200.198 18.9477 199.75 19.5 199.75ZM21.046 189.859C20.8578 189.955 20.7049 190.108 20.609 190.296C20.5691 190.374 20.5367 190.486 20.5188 190.706C20.5004 190.931 20.5 191.222 20.5 191.65V199.75H25.354C25.5527 199.75 25.7326 199.868 25.8122 200.05C25.9284 200.316 26.1932 200.5 26.5 200.5H29.5C29.8068 200.5 30.0716 200.316 30.1878 200.05C30.2674 199.868 30.4473 199.75 30.646 199.75H35.5V191.65C35.5 191.222 35.4996 190.931 35.4812 190.706C35.4633 190.486 35.4309 190.374 35.391 190.296C35.2951 190.108 35.1422 189.955 34.954 189.859C34.8758 189.819 34.7637 189.787 34.5445 189.769C34.3194 189.75 34.0283 189.75 33.6 189.75H22.4C21.9717 189.75 21.6806 189.75 21.4555 189.769C21.2363 189.787 21.1242 189.819 21.046 189.859ZM29.5 201.5H26.5C25.9048 201.5 25.3797 201.203 25.0638 200.75H19.5C19.5 201.578 20.1716 202.25 21 202.25H35C35.8284 202.25 36.5 201.578 36.5 200.75H30.9362C30.6203 201.203 30.0952 201.5 29.5 201.5Z" fill="#5F5F6A"/>
</svg>
