<svg width="64" height="168" viewBox="0 0 64 168" fill="none" xmlns="http://www.w3.org/2000/svg">
<path d="M26.7427 20.7865C27.1247 20.4045 27.7441 20.4045 28.1262 20.7865L31.387 24.0474C31.7691 24.4294 31.7691 25.0488 31.387 25.4309C31.005 25.8129 30.3856 25.8129 30.0036 25.4309L28.4127 23.84L28.4127 34.5217C28.4127 35.062 27.9747 35.5 27.4344 35.5C26.8942 35.5 26.4562 35.062 26.4562 34.5217L26.4562 23.84L24.8653 25.4309C24.4833 25.8129 23.8639 25.8129 23.4818 25.4309C23.0998 25.0488 23.0998 24.4294 23.4818 24.0474L26.7427 20.7865Z" fill="#5F5F6A"/>
<path opacity="0.5" d="M37.2573 35.2135C36.8753 35.5955 36.2559 35.5955 35.8738 35.2135L32.613 31.9526C32.2309 31.5706 32.2309 30.9512 32.613 30.5691C32.995 30.1871 33.6144 30.1871 33.9964 30.5691L35.5873 32.16L35.5873 21.4783C35.5873 20.938 36.0253 20.5 36.5656 20.5C37.1058 20.5 37.5438 20.938 37.5438 21.4783L37.5438 32.16L39.1347 30.5691C39.5167 30.1871 40.1361 30.1871 40.5182 30.5691C40.9002 30.9512 40.9002 31.5706 40.5182 31.9526L37.2573 35.2135Z" fill="#5F5F6A"/>
<path d="M35.8731 91.2135C36.2552 91.5955 36.8746 91.5955 37.2566 91.2135L40.5175 87.9526C40.8995 87.5706 40.8995 86.9512 40.5175 86.5691C40.1354 86.1871 39.516 86.1871 39.134 86.5691L37.5431 88.16L37.5431 77.4783C37.5431 76.938 37.1052 76.5 36.5649 76.5C36.0246 76.5 35.5866 76.938 35.5866 77.4783L35.5866 88.16L33.9957 86.5691C33.6137 86.1871 32.9943 86.1871 32.6123 86.5691C32.2302 86.9512 32.2302 87.5706 32.6123 87.9526L35.8731 91.2135Z" fill="#5F5F6A"/>
<path d="M28.1262 76.7865C27.7441 76.4045 27.1247 76.4045 26.7427 76.7865L23.4818 80.0474C23.0998 80.4294 23.0998 81.0488 23.4818 81.4309C23.8639 81.8129 24.4833 81.8129 24.8653 81.4309L26.4562 79.84L26.4562 90.5217C26.4562 91.062 26.8942 91.5 27.4344 91.5C27.9747 91.5 28.4127 91.062 28.4127 90.5217L28.4127 79.84L30.0036 81.4309C30.3856 81.8129 31.005 81.8129 31.387 81.4309C31.7691 81.0488 31.7691 80.4294 31.387 80.0474L28.1262 76.7865Z" fill="#5F5F6A"/>
<path d="M37.2552 147.3C36.9889 147.567 36.5572 147.567 36.291 147.3L32.8819 143.891C32.6156 143.625 32.6156 143.193 32.8819 142.927C33.1481 142.661 33.5798 142.661 33.8461 142.927L36.0913 145.172L36.0913 133.182C36.0913 132.805 36.3965 132.5 36.7731 132.5C37.1496 132.5 37.4549 132.805 37.4549 133.182L37.4549 145.172L39.7001 142.927C39.9663 142.661 40.398 142.661 40.6643 142.927C40.9306 143.193 40.9306 143.625 40.6643 143.891L37.2552 147.3Z" fill="#5F5F6A"/>
<path d="M26.7455 132.7C27.0118 132.433 27.4435 132.433 27.7097 132.7L31.1188 136.109C31.3851 136.375 31.3851 136.807 31.1188 137.073C30.8526 137.339 30.4209 137.339 30.1546 137.073L27.9094 134.828L27.9095 146.818C27.9095 147.195 27.6042 147.5 27.2276 147.5C26.8511 147.5 26.5458 147.195 26.5458 146.818L26.5458 134.828L24.3007 137.073C24.0344 137.339 23.6027 137.339 23.3364 137.073C23.0702 136.807 23.0702 136.375 23.3364 136.109L26.7455 132.7Z" fill="#5F5F6A"/>
</svg>
