<svg width="56" height="223" viewBox="0 0 56 223" fill="none" xmlns="http://www.w3.org/2000/svg">
<path d="M20.5303 25.4697C20.2374 25.1768 19.7626 25.1768 19.4697 25.4697L17.4697 27.4697C17.3291 27.6104 17.25 27.8011 17.25 28C17.25 28.1989 17.3291 28.3896 17.4697 28.5303L19.4697 30.5303C19.7626 30.8232 20.2374 30.8232 20.5303 30.5303C20.8232 30.2374 20.8232 29.7626 20.5303 29.4697L19.0605 28L20.5303 26.5303C20.8232 26.2374 20.8232 25.7626 20.5303 25.4697Z" fill="#5F5F6A"/>
<path d="M35.4697 25.4697C35.7626 25.1768 36.2374 25.1768 36.5303 25.4697L38.5303 27.4697C38.6709 27.6104 38.75 27.8011 38.75 28C38.75 28.1989 38.6709 28.3896 38.5303 28.5303L36.5303 30.5303C36.2374 30.8232 35.7626 30.8232 35.4697 30.5303C35.1768 30.2374 35.1768 29.7626 35.4697 29.4697L36.9395 28L35.4697 26.5303C35.1768 26.2374 35.1768 25.7626 35.4697 25.4697Z" fill="#5F5F6A"/>
<path d="M23 27.8C23 26.1198 23 25.2798 23.327 24.638C23.6146 24.0735 24.0735 23.6146 24.638 23.327C25.2798 23 26.1198 23 27.8 23H28.2C29.8802 23 30.7202 23 31.362 23.327C31.9265 23.6146 32.3854 24.0735 32.673 24.638C33 25.2798 33 26.1198 33 27.8V28.2C33 29.8802 33 30.7202 32.673 31.362C32.3854 31.9265 31.9265 32.3854 31.362 32.673C30.7202 33 29.8802 33 28.2 33H27.8C26.1198 33 25.2798 33 24.638 32.673C24.0735 32.3854 23.6146 31.9265 23.327 31.362C23 30.7202 23 29.8802 23 28.2V27.8Z" fill="#5F5F6A"/>
<path d="M32.25 27.7998C32.25 26.9475 32.2497 26.3532 32.2119 25.8906C32.1748 25.4368 32.1055 25.176 32.0049 24.9785C31.7892 24.5552 31.4448 24.2108 31.0215 23.9951C30.824 23.8945 30.5632 23.8252 30.1094 23.7881C29.6468 23.7503 29.0525 23.75 28.2002 23.75H27.7998C26.9475 23.75 26.3532 23.7503 25.8906 23.7881C25.4368 23.8252 25.176 23.8945 24.9785 23.9951C24.5552 24.2108 24.2108 24.5552 23.9951 24.9785C23.8945 25.176 23.8252 25.4368 23.7881 25.8906C23.7503 26.3532 23.75 26.9475 23.75 27.7998V28.2002C23.75 29.0525 23.7503 29.6468 23.7881 30.1094C23.8252 30.5632 23.8945 30.824 23.9951 31.0215C24.2108 31.4449 24.5552 31.7892 24.9785 32.0049C25.176 32.1055 25.4368 32.1748 25.8906 32.2119C26.3532 32.2497 26.9475 32.25 27.7998 32.25H28.2002C29.0525 32.25 29.6468 32.2497 30.1094 32.2119C30.5632 32.1748 30.824 32.1055 31.0215 32.0049C31.4448 31.7892 31.7892 31.4449 32.0049 31.0215C32.1055 30.824 32.1748 30.5632 32.2119 30.1094C32.2497 29.6468 32.25 29.0525 32.25 28.2002V27.7998ZM33.75 28.2002C33.75 29.0278 33.751 29.6936 33.707 30.2314C33.6624 30.7781 33.5671 31.258 33.3408 31.7022C32.9813 32.4078 32.4078 32.9813 31.7021 33.3408C31.2579 33.5671 30.7781 33.6624 30.2314 33.707C29.6936 33.751 29.0278 33.75 28.2002 33.75H27.7998C26.9722 33.75 26.3064 33.751 25.7686 33.707C25.2219 33.6624 24.7421 33.5671 24.2979 33.3408C23.5922 32.9813 23.0187 32.4078 22.6592 31.7022C22.4329 31.258 22.3376 30.7781 22.293 30.2314C22.249 29.6936 22.25 29.0278 22.25 28.2002V27.7998C22.25 26.9722 22.249 26.3064 22.293 25.7686C22.3376 25.2219 22.4329 24.7421 22.6592 24.2979C23.0187 23.5922 23.5922 23.0187 24.2979 22.6592C24.7421 22.4329 25.2219 22.3376 25.7686 22.293C26.3064 22.249 26.9722 22.25 27.7998 22.25H28.2002C29.0278 22.25 29.6936 22.249 30.2314 22.293C30.7781 22.3376 31.2579 22.4329 31.7021 22.6592C32.4078 23.0187 32.9813 23.5922 33.3408 24.2979C33.5671 24.7421 33.6624 25.2219 33.707 25.7686C33.751 26.3064 33.75 26.9722 33.75 27.7998V28.2002Z" fill="#5F5F6A"/>
<path opacity="0.5" d="M23 83.8C23 82.1198 23 81.2798 23.327 80.638C23.6146 80.0735 24.0735 79.6146 24.638 79.327C25.2798 79 26.1198 79 27.8 79H28.2C29.8802 79 30.7202 79 31.362 79.327C31.9265 79.6146 32.3854 80.0735 32.673 80.638C33 81.2798 33 82.1198 33 83.8V84.2C33 85.8802 33 86.7202 32.673 87.362C32.3854 87.9265 31.9265 88.3854 31.362 88.673C30.7202 89 29.8802 89 28.2 89H27.8C26.1198 89 25.2798 89 24.638 88.673C24.0735 88.3854 23.6146 87.9265 23.327 87.362C23 86.7202 23 85.8802 23 84.2V83.8Z" fill="#5F5F6A"/>
<path d="M20.5303 81.4697C20.2374 81.1768 19.7626 81.1768 19.4697 81.4697L17.4697 83.4697C17.3291 83.6104 17.25 83.8011 17.25 84C17.25 84.1989 17.3291 84.3896 17.4697 84.5303L19.4697 86.5303C19.7626 86.8232 20.2374 86.8232 20.5303 86.5303C20.8232 86.2374 20.8232 85.7626 20.5303 85.4697L19.0605 84L20.5303 82.5303C20.8232 82.2374 20.8232 81.7626 20.5303 81.4697Z" fill="#5F5F6A"/>
<path d="M35.4697 81.4697C35.7626 81.1768 36.2374 81.1768 36.5303 81.4697L38.5303 83.4697C38.6709 83.6104 38.75 83.8011 38.75 84C38.75 84.1989 38.6709 84.3896 38.5303 84.5303L36.5303 86.5303C36.2374 86.8232 35.7626 86.8232 35.4697 86.5303C35.1768 86.2374 35.1768 85.7626 35.4697 85.4697L36.9395 84L35.4697 82.5303C35.1768 82.2374 35.1768 81.7626 35.4697 81.4697Z" fill="#5F5F6A"/>
<path d="M32.25 83.7998C32.25 82.9475 32.2497 82.3532 32.2119 81.8906C32.1748 81.4368 32.1055 81.176 32.0049 80.9785C31.7892 80.5552 31.4448 80.2108 31.0215 79.9951C30.824 79.8945 30.5632 79.8252 30.1094 79.7881C29.6468 79.7503 29.0525 79.75 28.2002 79.75H27.7998C26.9475 79.75 26.3532 79.7503 25.8906 79.7881C25.4368 79.8252 25.176 79.8945 24.9785 79.9951C24.5552 80.2108 24.2108 80.5552 23.9951 80.9785C23.8945 81.176 23.8252 81.4368 23.7881 81.8906C23.7503 82.3532 23.75 82.9475 23.75 83.7998V84.2002C23.75 85.0525 23.7503 85.6468 23.7881 86.1094C23.8252 86.5632 23.8945 86.824 23.9951 87.0215C24.2108 87.4449 24.5552 87.7892 24.9785 88.0049C25.176 88.1055 25.4368 88.1748 25.8906 88.2119C26.3532 88.2497 26.9475 88.25 27.7998 88.25H28.2002C29.0525 88.25 29.6468 88.2497 30.1094 88.2119C30.5632 88.1748 30.824 88.1055 31.0215 88.0049C31.4448 87.7892 31.7892 87.4449 32.0049 87.0215C32.1055 86.824 32.1748 86.5632 32.2119 86.1094C32.2497 85.6468 32.25 85.0525 32.25 84.2002V83.7998ZM33.75 84.2002C33.75 85.0278 33.751 85.6936 33.707 86.2314C33.6624 86.7781 33.5671 87.258 33.3408 87.7022C32.9813 88.4078 32.4078 88.9813 31.7021 89.3408C31.2579 89.5671 30.7781 89.6624 30.2314 89.707C29.6936 89.751 29.0278 89.75 28.2002 89.75H27.7998C26.9722 89.75 26.3064 89.751 25.7686 89.707C25.2219 89.6624 24.7421 89.5671 24.2979 89.3408C23.5922 88.9813 23.0187 88.4078 22.6592 87.7022C22.4329 87.258 22.3376 86.7781 22.293 86.2314C22.249 85.6936 22.25 85.0278 22.25 84.2002V83.7998C22.25 82.9722 22.249 82.3064 22.293 81.7686C22.3376 81.2219 22.4329 80.7421 22.6592 80.2979C23.0187 79.5922 23.5922 79.0187 24.2979 78.6592C24.7421 78.4329 25.2219 78.3376 25.7686 78.293C26.3064 78.249 26.9722 78.25 27.7998 78.25H28.2002C29.0278 78.25 29.6936 78.249 30.2314 78.293C30.7781 78.3376 31.2579 78.4329 31.7021 78.6592C32.4078 79.0187 32.9813 79.5922 33.3408 80.2979C33.5671 80.7421 33.6624 81.2219 33.707 81.7686C33.751 82.3064 33.75 82.9722 33.75 83.7998V84.2002Z" fill="#5F5F6A"/>
<path d="M20.5303 137.47C20.2374 137.177 19.7626 137.177 19.4697 137.47L17.4697 139.47C17.3291 139.61 17.25 139.801 17.25 140C17.25 140.199 17.3291 140.39 17.4697 140.53L19.4697 142.53C19.7626 142.823 20.2374 142.823 20.5303 142.53C20.8232 142.237 20.8232 141.763 20.5303 141.47L19.0605 140L20.5303 138.53C20.8232 138.237 20.8232 137.763 20.5303 137.47Z" fill="#5F5F6A"/>
<path d="M35.4697 137.47C35.7626 137.177 36.2374 137.177 36.5303 137.47L38.5303 139.47C38.6709 139.61 38.75 139.801 38.75 140C38.75 140.199 38.6709 140.39 38.5303 140.53L36.5303 142.53C36.2374 142.823 35.7626 142.823 35.4697 142.53C35.1768 142.237 35.1768 141.763 35.4697 141.47L36.9395 140L35.4697 138.53C35.1768 138.237 35.1768 137.763 35.4697 137.47Z" fill="#5F5F6A"/>
<path d="M32.25 139.8C32.25 138.947 32.2497 138.353 32.2119 137.891C32.1748 137.437 32.1055 137.176 32.0049 136.979C31.7892 136.555 31.4448 136.211 31.0215 135.995C30.824 135.894 30.5632 135.825 30.1094 135.788C29.6468 135.75 29.0525 135.75 28.2002 135.75H27.7998C26.9475 135.75 26.3532 135.75 25.8906 135.788C25.4368 135.825 25.176 135.894 24.9785 135.995C24.5552 136.211 24.2108 136.555 23.9951 136.979C23.8945 137.176 23.8252 137.437 23.7881 137.891C23.7503 138.353 23.75 138.947 23.75 139.8V140.2C23.75 141.053 23.7503 141.647 23.7881 142.109C23.8252 142.563 23.8945 142.824 23.9951 143.021C24.2108 143.445 24.5552 143.789 24.9785 144.005C25.176 144.106 25.4368 144.175 25.8906 144.212C26.3532 144.25 26.9475 144.25 27.7998 144.25H28.2002C29.0525 144.25 29.6468 144.25 30.1094 144.212C30.5632 144.175 30.824 144.106 31.0215 144.005C31.4448 143.789 31.7892 143.445 32.0049 143.021C32.1055 142.824 32.1748 142.563 32.2119 142.109C32.2497 141.647 32.25 141.053 32.25 140.2V139.8ZM33.75 140.2C33.75 141.028 33.751 141.694 33.707 142.231C33.6624 142.778 33.5671 143.258 33.3408 143.702C32.9813 144.408 32.4078 144.981 31.7021 145.341C31.2579 145.567 30.7781 145.662 30.2314 145.707C29.6936 145.751 29.0278 145.75 28.2002 145.75H27.7998C26.9722 145.75 26.3064 145.751 25.7686 145.707C25.2219 145.662 24.7421 145.567 24.2979 145.341C23.5922 144.981 23.0187 144.408 22.6592 143.702C22.4329 143.258 22.3376 142.778 22.293 142.231C22.249 141.694 22.25 141.028 22.25 140.2V139.8C22.25 138.972 22.249 138.306 22.293 137.769C22.3376 137.222 22.4329 136.742 22.6592 136.298C23.0187 135.592 23.5922 135.019 24.2979 134.659C24.7421 134.433 25.2219 134.338 25.7686 134.293C26.3064 134.249 26.9722 134.25 27.7998 134.25H28.2002C29.0278 134.25 29.6936 134.249 30.2314 134.293C30.7781 134.338 31.2579 134.433 31.7021 134.659C32.4078 135.019 32.9813 135.592 33.3408 136.298C33.5671 136.742 33.6624 137.222 33.707 137.769C33.751 138.306 33.75 138.972 33.75 139.8V140.2Z" fill="#5F5F6A"/>
<path d="M20.3535 192.646C20.1583 192.451 19.8417 192.451 19.6465 192.646L17.6465 194.646C17.5527 194.74 17.5 194.867 17.5 195C17.5 195.133 17.5527 195.26 17.6465 195.354L19.6465 197.354C19.8417 197.549 20.1583 197.549 20.3535 197.354C20.5488 197.158 20.5488 196.842 20.3535 196.646L18.707 195L20.3535 193.354C20.5488 193.158 20.5488 192.842 20.3535 192.646Z" fill="#5F5F6A"/>
<path d="M35.6465 192.646C35.8417 192.451 36.1583 192.451 36.3535 192.646L38.3535 194.646C38.4473 194.74 38.5 194.867 38.5 195C38.5 195.133 38.4473 195.26 38.3535 195.354L36.3535 197.354C36.1583 197.549 35.8417 197.549 35.6465 197.354C35.4512 197.158 35.4512 196.842 35.6465 196.646L37.293 195L35.6465 193.354C35.4512 193.158 35.4512 192.842 35.6465 192.646Z" fill="#5F5F6A"/>
<path d="M32.5 194.8C32.5 193.952 32.4998 193.345 32.4609 192.87C32.4226 192.401 32.3491 192.104 32.2275 191.865C31.9879 191.395 31.6052 191.012 31.1348 190.772C30.8962 190.651 30.599 190.577 30.1299 190.539C29.6547 190.5 29.0484 190.5 28.2002 190.5H27.7998C26.9516 190.5 26.3453 190.5 25.8701 190.539C25.401 190.577 25.1038 190.651 24.8652 190.772C24.3948 191.012 24.0121 191.395 23.7725 191.865C23.6509 192.104 23.5774 192.401 23.5391 192.87C23.5002 193.345 23.5 193.952 23.5 194.8V195.2C23.5 196.048 23.5002 196.655 23.5391 197.13C23.5774 197.599 23.6509 197.896 23.7725 198.135C24.0121 198.605 24.3948 198.988 24.8652 199.228C25.1038 199.349 25.401 199.423 25.8701 199.461C26.3453 199.5 26.9516 199.5 27.7998 199.5H28.2002C29.0484 199.5 29.6547 199.5 30.1299 199.461C30.599 199.423 30.8962 199.349 31.1348 199.228C31.6052 198.988 31.9879 198.605 32.2275 198.135C32.3491 197.896 32.4226 197.599 32.4609 197.13C32.4998 196.655 32.5 196.048 32.5 195.2V194.8ZM33.5 195.2C33.5 196.032 33.4999 196.686 33.457 197.211C33.4136 197.742 33.3236 198.186 33.1182 198.589C32.7826 199.247 32.2474 199.783 31.5889 200.118C31.1858 200.324 30.7421 200.414 30.2109 200.457C29.6857 200.5 29.0319 200.5 28.2002 200.5H27.7998C26.9681 200.5 26.3143 200.5 25.7891 200.457C25.2579 200.414 24.8142 200.324 24.4111 200.118C23.7526 199.783 23.2174 199.247 22.8818 198.589C22.6764 198.186 22.5864 197.742 22.543 197.211C22.5001 196.686 22.5 196.032 22.5 195.2V194.8C22.5 193.968 22.5001 193.314 22.543 192.789C22.5864 192.258 22.6764 191.814 22.8818 191.411C23.2174 190.753 23.7526 190.217 24.4111 189.882C24.8142 189.676 25.2579 189.586 25.7891 189.543C26.3143 189.5 26.9681 189.5 27.7998 189.5H28.2002C29.0319 189.5 29.6857 189.5 30.2109 189.543C30.7421 189.586 31.1858 189.676 31.5889 189.882C32.2474 190.217 32.7826 190.753 33.1182 191.411C33.3236 191.814 33.4136 192.258 33.457 192.789C33.4999 193.314 33.5 193.968 33.5 194.8V195.2Z" fill="#5F5F6A"/>
</svg>
