<svg width="56" height="224" viewBox="0 0 56 224" fill="none" xmlns="http://www.w3.org/2000/svg">
<path d="M36.75 27.7998C36.75 26.9475 36.7497 26.3532 36.7119 25.8906C36.6748 25.4368 36.6055 25.176 36.5049 24.9785C36.2892 24.5552 35.9449 24.2108 35.5215 23.9951C35.324 23.8945 35.0632 23.8252 34.6094 23.7881C34.1468 23.7503 33.5525 23.75 32.7002 23.75H23.2998C22.4475 23.75 21.8532 23.7503 21.3906 23.7881C20.9368 23.8252 20.676 23.8945 20.4785 23.9951C20.0552 24.2108 19.7108 24.5552 19.4951 24.9785C19.3945 25.176 19.3252 25.4368 19.2881 25.8906C19.2503 26.3532 19.25 26.9475 19.25 27.7998V28.2002C19.25 29.0525 19.2503 29.6468 19.2881 30.1094C19.3252 30.5632 19.3945 30.824 19.4951 31.0215C19.7108 31.4449 20.0552 31.7892 20.4785 32.0049C20.676 32.1055 20.9368 32.1748 21.3906 32.2119C21.8532 32.2497 22.4475 32.25 23.2998 32.25H32.7002C33.5525 32.25 34.1468 32.2497 34.6094 32.2119C35.0632 32.1748 35.324 32.1055 35.5215 32.0049C35.9449 31.7892 36.2892 31.4449 36.5049 31.0215C36.6055 30.824 36.6748 30.5632 36.7119 30.1094C36.7497 29.6468 36.75 29.0525 36.75 28.2002V27.7998ZM38.25 28.2002C38.25 29.0278 38.251 29.6936 38.207 30.2314C38.1624 30.7781 38.0671 31.258 37.8408 31.7022C37.4813 32.4078 36.9078 32.9813 36.2022 33.3408C35.7579 33.5671 35.2781 33.6624 34.7314 33.707C34.1936 33.751 33.5278 33.75 32.7002 33.75H23.2998C22.4722 33.75 21.8064 33.751 21.2686 33.707C20.7219 33.6624 20.2421 33.5671 19.7979 33.3408C19.0922 32.9813 18.5187 32.4078 18.1592 31.7022C17.9329 31.258 17.8376 30.7781 17.793 30.2314C17.749 29.6936 17.75 29.0278 17.75 28.2002V27.7998C17.75 26.9722 17.749 26.3064 17.793 25.7686C17.8376 25.2219 17.9329 24.7421 18.1592 24.2979C18.5187 23.5922 19.0922 23.0187 19.7979 22.6592C20.2421 22.4329 20.7219 22.3376 21.2686 22.293C21.8064 22.249 22.4722 22.25 23.2998 22.25H32.7002C33.5278 22.25 34.1936 22.249 34.7314 22.293C35.2781 22.3376 35.7579 22.4329 36.2022 22.6592C36.9078 23.0187 37.4813 23.5922 37.8408 24.2979C38.0671 24.7421 38.1624 25.2219 38.207 25.7686C38.251 26.3064 38.25 26.9722 38.25 27.7998V28.2002Z" fill="#5F5F6A"/>
<path fill-rule="evenodd" clip-rule="evenodd" d="M32.7002 23C34.3802 23 35.2206 23.0002 35.8623 23.3272C36.4265 23.6147 36.8853 24.0735 37.1729 24.6377C37.4998 25.2794 37.5 26.1198 37.5 27.7998V28.2002C37.5 29.8802 37.4998 30.7206 37.1729 31.3623C36.8853 31.9265 36.4265 32.3853 35.8623 32.6729C35.2206 32.9998 34.3802 33 32.7002 33H23.2998C21.6198 33 20.7794 32.9998 20.1377 32.6729C19.5735 32.3853 19.1147 31.9265 18.8272 31.3623C18.5002 30.7206 18.5 29.8802 18.5 28.2002V27.7998C18.5 26.1198 18.5002 25.2794 18.8272 24.6377C19.1147 24.0735 19.5735 23.6147 20.1377 23.3272C20.7794 23.0002 21.6198 23 23.2998 23H32.7002ZM23.5 25C23.2239 25 23 25.2239 23 25.5C23 25.7761 23.2239 26 23.5 26H24.125C24.194 26 24.25 26.056 24.25 26.125V30.5C24.25 30.7761 24.4739 31 24.75 31C25.0261 31 25.25 30.7761 25.25 30.5V26.125C25.25 25.5037 24.7463 25 24.125 25H23.5ZM31 27C30.7978 27 30.6155 27.1218 30.5381 27.3086C30.4607 27.4954 30.5035 27.7105 30.6465 27.8535L31.6465 28.8535C31.7403 28.9473 31.8674 29 32 29C32.1326 29 32.2597 28.9473 32.3535 28.8535L33.3535 27.8535C33.4965 27.7105 33.5393 27.4954 33.4619 27.3086C33.3845 27.1218 33.2022 27 33 27H31Z" fill="#5F5F6A"/>
<path opacity="0.5" fill-rule="evenodd" clip-rule="evenodd" d="M18.5 83.8C18.5 82.1198 18.5 81.2798 18.827 80.638C19.1146 80.0735 19.5735 79.6146 20.138 79.327C20.7798 79 21.6198 79 23.3 79H32.7C34.3802 79 35.2202 79 35.862 79.327C36.4265 79.6146 36.8854 80.0735 37.173 80.638C37.5 81.2798 37.5 82.1198 37.5 83.8V84.2C37.5 85.8802 37.5 86.7202 37.173 87.362C36.8854 87.9265 36.4265 88.3854 35.862 88.673C35.2202 89 34.3802 89 32.7 89H23.3C21.6198 89 20.7798 89 20.138 88.673C19.5735 88.3854 19.1146 87.9265 18.827 87.362C18.5 86.7202 18.5 85.8802 18.5 84.2V83.8ZM33.4619 83.3087C33.5393 83.4955 33.4966 83.7106 33.3536 83.8536L32.3536 84.8536C32.2598 84.9473 32.1326 85 32 85C31.8674 85 31.7402 84.9473 31.6464 84.8536L30.6464 83.8536C30.5034 83.7106 30.4607 83.4955 30.5381 83.3087C30.6155 83.1218 30.7978 83 31 83H33C33.2022 83 33.3845 83.1218 33.4619 83.3087ZM23.5 81C23.2239 81 23 81.2239 23 81.5C23 81.7761 23.2239 82 23.5 82H24.125C24.194 82 24.25 82.056 24.25 82.125V86.5C24.25 86.7761 24.4739 87 24.75 87C25.0261 87 25.25 86.7761 25.25 86.5V82.125C25.25 81.5037 24.7463 81 24.125 81H23.5Z" fill="#5F5F6A"/>
<rect x="18.5" y="79" width="19" height="10" rx="3" fill="#5F5F6A" stroke="#71717A" stroke-width="1.5" stroke-linecap="round" stroke-linejoin="round"/>
<path d="M36.75 140.313C36.75 139.425 36.749 138.801 36.7109 138.315C36.6735 137.837 36.6036 137.557 36.499 137.342C36.279 136.892 35.9307 136.531 35.5098 136.307C35.315 136.204 35.0575 136.133 34.6064 136.094C34.1455 136.055 33.5529 136.054 32.7002 136.054H23.2998C22.4471 136.054 21.8545 136.055 21.3936 136.094C20.9425 136.133 20.685 136.204 20.4902 136.307C20.0693 136.531 19.721 136.892 19.501 137.342C19.3964 137.557 19.3265 137.837 19.2891 138.315C19.251 138.801 19.25 139.425 19.25 140.313V140.73C19.25 141.619 19.251 142.242 19.2891 142.728C19.3265 143.206 19.3963 143.487 19.501 143.701C19.721 144.151 20.0693 144.512 20.4902 144.736C20.685 144.839 20.9424 144.91 21.3936 144.949C21.8545 144.988 22.4471 144.989 23.2998 144.989H32.7002C33.5529 144.989 34.1455 144.988 34.6064 144.949C35.0576 144.91 35.315 144.839 35.5098 144.736C35.9307 144.512 36.279 144.151 36.499 143.701C36.6037 143.487 36.6735 143.206 36.7109 142.728C36.749 142.242 36.75 141.619 36.75 140.73V140.313ZM33 139.25C33.3004 139.25 33.5715 139.429 33.6895 139.706C33.8074 139.982 33.7489 140.302 33.541 140.519L32.541 141.562C32.3996 141.71 32.2044 141.794 32 141.794C31.7956 141.794 31.6004 141.71 31.459 141.562L30.459 140.519C30.2511 140.302 30.1926 139.982 30.3105 139.706C30.4285 139.429 30.6996 139.25 31 139.25H33ZM38.25 140.73C38.25 141.595 38.2507 142.287 38.207 142.845C38.1627 143.411 38.069 143.904 37.8467 144.359C37.4915 145.086 36.9218 145.684 36.2139 146.06C35.767 146.298 35.2834 146.397 34.7344 146.444C34.1949 146.49 33.5273 146.489 32.7002 146.489H23.2998C22.4727 146.489 21.8051 146.49 21.2656 146.444C20.7166 146.397 20.233 146.298 19.7861 146.06C19.0782 145.684 18.5085 145.086 18.1533 144.359C17.931 143.904 17.8373 143.411 17.793 142.845C17.7493 142.287 17.75 141.595 17.75 140.73V140.313C17.75 139.449 17.7493 138.757 17.793 138.199C17.8373 137.633 17.931 137.14 18.1533 136.684C18.5085 135.957 19.0783 135.359 19.7861 134.983C20.233 134.746 20.7166 134.646 21.2656 134.599C21.8051 134.553 22.4727 134.554 23.2998 134.554H32.7002C33.5273 134.554 34.1949 134.553 34.7344 134.599C35.2834 134.646 35.767 134.746 36.2139 134.983C36.9217 135.359 37.4915 135.957 37.8467 136.684C38.069 137.14 38.1627 137.633 38.207 138.199C38.2507 138.757 38.25 139.449 38.25 140.313V140.73ZM25.5 143.131C25.5 143.545 25.1642 143.881 24.75 143.881C24.3358 143.881 24 143.545 24 143.131V138.663H23.5C23.0858 138.663 22.75 138.327 22.75 137.913C22.7502 137.499 23.0859 137.163 23.5 137.163H24.125C24.9141 137.163 25.4999 137.821 25.5 138.565V143.131Z" fill="#5F5F6A"/>
<path d="M37 196.313C37 195.429 36.9999 194.793 36.9609 194.296C36.9223 193.803 36.8479 193.487 36.7236 193.233C36.4811 192.736 36.0958 192.336 35.627 192.087C35.3902 191.961 35.0952 191.885 34.6279 191.845C34.1539 191.805 33.5488 191.804 32.7002 191.804H23.2998C22.4512 191.804 21.8461 191.805 21.3721 191.845C20.9048 191.885 20.6098 191.961 20.373 192.087C19.9042 192.336 19.5189 192.736 19.2764 193.233C19.1521 193.487 19.0777 193.803 19.0391 194.296C19.0001 194.793 19 195.429 19 196.313V196.73C19 197.615 19.0001 198.25 19.0391 198.748C19.0776 199.24 19.1522 199.556 19.2764 199.81C19.5189 200.307 19.9042 200.707 20.373 200.957C20.6098 201.082 20.9047 201.158 21.3721 201.198C21.8461 201.238 22.4512 201.239 23.2998 201.239H32.7002C33.5488 201.239 34.1539 201.238 34.6279 201.198C35.0953 201.158 35.3902 201.082 35.627 200.957C36.0958 200.707 36.4811 200.307 36.7236 199.81C36.8478 199.556 36.9224 199.24 36.9609 198.748C36.9999 198.25 37 197.615 37 196.73V196.313ZM24.25 199.13V194.565C24.2499 194.461 24.1742 194.413 24.125 194.413H23.5C23.2239 194.413 23 194.189 23 193.913C23.0002 193.637 23.224 193.413 23.5 193.413H24.125C24.7661 193.413 25.2499 193.949 25.25 194.565V199.13C25.25 199.407 25.0261 199.63 24.75 199.63C24.4739 199.63 24.25 199.407 24.25 199.13ZM33 195.5C33.2002 195.5 33.3813 195.619 33.46 195.803C33.5386 195.988 33.4999 196.202 33.3613 196.346L32.3613 197.389C32.267 197.488 32.1363 197.544 32 197.544C31.8637 197.544 31.733 197.488 31.6387 197.389L30.6387 196.346C30.5001 196.202 30.4614 195.988 30.54 195.803C30.6187 195.619 30.7998 195.5 31 195.5H33ZM38 196.73C38 197.599 38.0008 198.28 37.958 198.826C37.9148 199.377 37.8247 199.835 37.6221 200.25C37.2894 200.931 36.7567 201.489 36.0967 201.839C35.6918 202.055 35.2458 202.15 34.7129 202.195C34.1865 202.24 33.5316 202.239 32.7002 202.239H23.2998C22.4684 202.239 21.8135 202.24 21.2871 202.195C20.7542 202.15 20.3082 202.055 19.9033 201.839C19.2433 201.489 18.7106 200.931 18.3779 200.25C18.1753 199.835 18.0852 199.377 18.042 198.826C17.9992 198.28 18 197.599 18 196.73V196.313C18 195.445 17.9993 194.764 18.042 194.218C18.0852 193.667 18.1753 193.21 18.3779 192.795C18.7106 192.113 19.2432 191.555 19.9033 191.204C20.3082 190.988 20.7543 190.895 21.2871 190.849C21.8135 190.804 22.4684 190.804 23.2998 190.804H32.7002C33.5316 190.804 34.1865 190.804 34.7129 190.849C35.2457 190.895 35.6918 190.988 36.0967 191.204C36.7568 191.555 37.2894 192.113 37.6221 192.795C37.8247 193.21 37.9148 193.667 37.958 194.218C38.0007 194.764 38 195.445 38 196.313V196.73Z" fill="#5F5F6A"/>
</svg>
