<svg width="56" height="224" viewBox="0 0 56 224" fill="none" xmlns="http://www.w3.org/2000/svg">
<path fill-rule="evenodd" clip-rule="evenodd" d="M28 19.5C23.3056 19.5 19.5 23.3056 19.5 28C19.5 32.6944 23.3056 36.5 28 36.5H28.0277L28.0552 36.4969C29.2388 36.3654 30.0219 35.982 30.3753 35.2823C30.709 34.6216 30.5593 33.851 30.3737 33.2192C30.2909 32.9373 30.1898 32.6496 30.0945 32.3787L30.0469 32.2432C29.9359 31.9259 29.838 31.6348 29.773 31.3658C29.6358 30.7981 29.6918 30.5165 29.8549 30.3522C30.039 30.1667 30.4068 30.0814 31.079 30.1382C31.3951 30.1649 31.7382 30.2186 32.1053 30.2797L32.2676 30.3068C32.5803 30.3592 32.9076 30.4141 33.2262 30.4539C33.9498 30.5444 34.7709 30.5807 35.4193 30.239C36.1388 29.8598 36.5 29.1091 36.5 28C36.5 23.3056 32.6944 19.5 28 19.5ZM24.078 28.9963C24.1251 29.5466 23.7172 30.0309 23.1669 30.078C22.6166 30.1251 22.1324 29.7172 22.0853 29.1669C22.0382 28.6166 22.4461 28.1324 22.9964 28.0853C23.5466 28.0382 24.0309 28.4461 24.078 28.9963ZM24.1669 26.078C24.7172 26.0309 25.1251 25.5466 25.078 24.9963C25.0309 24.4461 24.5466 24.0382 23.9964 24.0853C23.4461 24.1324 23.0382 24.6166 23.0853 25.1669C23.1324 25.7172 23.6166 26.1251 24.1669 26.078ZM29.078 22.9963C29.1251 23.5466 28.7172 24.0309 28.1669 24.078C27.6166 24.1251 27.1324 23.7172 27.0853 23.1669C27.0382 22.6166 27.4461 22.1324 27.9964 22.0853C28.5466 22.0382 29.0309 22.4461 29.078 22.9963ZM32.0262 25.6145C32.5765 25.5674 32.9844 25.0831 32.9373 24.5328C32.8902 23.9826 32.406 23.5747 31.8557 23.6218C31.3054 23.6689 30.8975 24.1531 30.9446 24.7034C30.9917 25.2537 31.476 25.6616 32.0262 25.6145Z" fill="#5F5F6A"/>
<path opacity="0.5" d="M28 75.5C23.3056 75.5 19.5 79.3056 19.5 84C19.5 88.6944 23.3056 92.5 28 92.5H28.0277L28.0552 92.4969C29.2388 92.3654 30.0219 91.982 30.3753 91.2823C30.709 90.6216 30.5593 89.851 30.3737 89.2192C30.2909 88.9373 30.1898 88.6496 30.0945 88.3787L30.0469 88.2432C29.9359 87.9259 29.838 87.6348 29.773 87.3658C29.6358 86.7981 29.6918 86.5165 29.8549 86.3522C30.039 86.1667 30.4068 86.0814 31.079 86.1382C31.3951 86.1649 31.7382 86.2186 32.1053 86.2797L32.2676 86.3068C32.5803 86.3592 32.9075 86.4141 33.2262 86.4539C33.9498 86.5444 34.7709 86.5807 35.4193 86.239C36.1388 85.8598 36.5 85.1091 36.5 84C36.5 79.3056 32.6944 75.5 28 75.5Z" fill="#5F5F6A"/>
<path d="M29.0784 78.9963C29.1255 79.5466 28.7176 80.0309 28.1674 80.078C27.6171 80.1251 27.1328 79.7172 27.0857 79.1669C27.0386 78.6166 27.4465 78.1324 27.9968 78.0853C28.5471 78.0382 29.0314 78.4461 29.0784 78.9963Z" fill="#5F5F6A"/>
<path d="M24.1674 82.078C24.7176 82.0309 25.1255 81.5466 25.0784 80.9963C25.0314 80.4461 24.5471 80.0382 23.9968 80.0853C23.4465 80.1324 23.0386 80.6166 23.0857 81.1669C23.1328 81.7172 23.6171 82.1251 24.1674 82.078Z" fill="#5F5F6A"/>
<path d="M23.1674 86.078C23.7176 86.0309 24.1255 85.5466 24.0784 84.9963C24.0314 84.4461 23.5471 84.0382 22.9968 84.0853C22.4465 84.1324 22.0386 84.6166 22.0857 85.1669C22.1328 85.7172 22.6171 86.1251 23.1674 86.078Z" fill="#5F5F6A"/>
<path d="M32.0267 81.6145C32.577 81.5674 32.9849 81.0831 32.9378 80.5328C32.8907 79.9826 32.4064 79.5747 31.8562 79.6218C31.3059 79.6689 30.898 80.1531 30.9451 80.7034C30.9922 81.2537 31.4764 81.6616 32.0267 81.6145Z" fill="#5F5F6A"/>
<path d="M24.078 140.996C24.1251 141.547 23.7172 142.031 23.1669 142.078C22.6166 142.125 22.1324 141.717 22.0853 141.167C22.0382 140.617 22.4461 140.132 22.9964 140.085C23.5466 140.038 24.0309 140.446 24.078 140.996Z" fill="#5F5F6A"/>
<path d="M24.1669 138.078C24.7172 138.031 25.1251 137.547 25.078 136.996C25.0309 136.446 24.5466 136.038 23.9964 136.085C23.4461 136.132 23.0382 136.617 23.0853 137.167C23.1324 137.717 23.6166 138.125 24.1669 138.078Z" fill="#5F5F6A"/>
<path d="M29.078 134.996C29.1251 135.547 28.7172 136.031 28.1669 136.078C27.6166 136.125 27.1324 135.717 27.0853 135.167C27.0382 134.617 27.4461 134.132 27.9964 134.085C28.5466 134.038 29.0309 134.446 29.078 134.996Z" fill="#5F5F6A"/>
<path d="M32.0262 137.614C32.5765 137.567 32.9844 137.083 32.9373 136.533C32.8902 135.983 32.406 135.575 31.8557 135.622C31.3054 135.669 30.8975 136.153 30.9446 136.703C30.9917 137.254 31.476 137.662 32.0262 137.614Z" fill="#5F5F6A"/>
<path fill-rule="evenodd" clip-rule="evenodd" d="M19.25 140C19.25 135.168 23.1675 131.25 28 131.25C32.8325 131.25 36.75 135.168 36.75 140C36.75 141.164 36.3665 142.022 35.5358 142.46C34.8119 142.842 33.9192 142.792 33.1951 142.702C32.8709 142.661 32.5377 142.606 32.2253 142.553L32.0643 142.526C31.6971 142.465 31.3629 142.413 31.0579 142.387C30.388 142.331 30.1291 142.431 30.0323 142.528C29.9689 142.592 29.8818 142.751 30.016 143.307C30.0777 143.563 30.1718 143.843 30.2829 144.161L30.33 144.295C30.4251 144.565 30.5288 144.86 30.6136 145.149C30.7998 145.783 30.9799 146.64 30.5984 147.395C30.1875 148.209 29.2957 148.611 28.0828 148.745L28.0415 148.75H28C23.1675 148.75 19.25 144.832 19.25 140ZM28 132.75C23.9959 132.75 20.75 135.996 20.75 140C20.75 143.99 23.9734 147.227 27.9583 147.25C28.9607 147.132 29.1947 146.847 29.2595 146.719C29.3547 146.53 29.3568 146.193 29.1744 145.571C29.1016 145.324 29.0128 145.071 28.917 144.798L28.8671 144.656C28.7565 144.34 28.6392 143.996 28.558 143.659C28.4062 143.031 28.3064 142.138 28.9677 141.472C29.5885 140.846 30.5008 140.835 31.1843 140.893C31.556 140.924 31.9439 140.986 32.3104 141.047L32.4792 141.075C32.7929 141.127 33.0908 141.177 33.3812 141.214C34.1028 141.304 34.566 141.276 34.8366 141.133C35.0004 141.047 35.25 140.836 35.25 140C35.25 135.996 32.0041 132.75 28 132.75Z" fill="#5F5F6A"/>
<path d="M24.078 196.996C24.1251 197.547 23.7172 198.031 23.1669 198.078C22.6166 198.125 22.1324 197.717 22.0853 197.167C22.0382 196.617 22.4461 196.132 22.9964 196.085C23.5466 196.038 24.0309 196.446 24.078 196.996Z" fill="#5F5F6A"/>
<path d="M24.1669 194.078C24.7172 194.031 25.1251 193.547 25.078 192.996C25.0309 192.446 24.5466 192.038 23.9964 192.085C23.4461 192.132 23.0382 192.617 23.0853 193.167C23.1324 193.717 23.6166 194.125 24.1669 194.078Z" fill="#5F5F6A"/>
<path d="M29.078 190.996C29.1251 191.547 28.7172 192.031 28.1669 192.078C27.6166 192.125 27.1324 191.717 27.0853 191.167C27.0382 190.617 27.4461 190.132 27.9964 190.085C28.5466 190.038 29.0309 190.446 29.078 190.996Z" fill="#5F5F6A"/>
<path d="M32.0262 193.614C32.5765 193.567 32.9844 193.083 32.9373 192.533C32.8902 191.983 32.406 191.575 31.8557 191.622C31.3054 191.669 30.8975 192.153 30.9446 192.703C30.9917 193.254 31.476 193.662 32.0262 193.614Z" fill="#5F5F6A"/>
<path fill-rule="evenodd" clip-rule="evenodd" d="M19.5 196C19.5 191.306 23.3056 187.5 28 187.5C32.6944 187.5 36.5 191.306 36.5 196C36.5 197.109 36.1388 197.86 35.4193 198.239C34.7709 198.581 33.9498 198.544 33.2262 198.454C32.9076 198.414 32.5804 198.359 32.2677 198.307L32.1053 198.28C31.7382 198.219 31.3951 198.165 31.079 198.138C30.4068 198.081 30.039 198.167 29.8549 198.352C29.6918 198.516 29.6358 198.798 29.773 199.366C29.838 199.635 29.9359 199.926 30.0469 200.243L30.0945 200.379C30.1898 200.65 30.2909 200.937 30.3737 201.219C30.5593 201.851 30.709 202.622 30.3753 203.282C30.0219 203.982 29.2388 204.365 28.0552 204.497L28.0277 204.5H28C23.3056 204.5 19.5 200.694 19.5 196ZM28 188.5C23.8579 188.5 20.5 191.858 20.5 196C20.5 200.133 23.8429 203.485 27.9722 203.5C29.0172 203.379 29.3605 203.073 29.4827 202.831C29.6256 202.549 29.5973 202.124 29.4143 201.501C29.3395 201.247 29.2482 200.987 29.1526 200.715L29.103 200.573C28.9924 200.257 28.879 199.924 28.801 199.601C28.6521 198.985 28.5835 198.214 29.1451 197.648C29.6786 197.11 30.482 197.084 31.1632 197.142C31.5238 197.172 31.9028 197.232 32.2694 197.293L32.4369 197.321C32.7504 197.374 33.0541 197.425 33.3502 197.462C34.0722 197.552 34.607 197.537 34.9531 197.354C35.2281 197.209 35.5 196.891 35.5 196C35.5 191.858 32.1421 188.5 28 188.5Z" fill="#5F5F6A"/>
</svg>
