<svg width="56" height="224" viewBox="0 0 56 224" fill="none" xmlns="http://www.w3.org/2000/svg">
<path fill-rule="evenodd" clip-rule="evenodd" d="M27.25 20.7576C27.1328 20.7514 26.961 20.75 26.6745 20.75H24.2C23.6276 20.75 23.2434 20.7506 22.9475 20.7748C22.2837 20.829 21.8313 21.256 21.7748 21.9475C21.7506 22.2434 21.75 22.6276 21.75 23.2V32.8C21.75 33.3724 21.7506 33.7566 21.7748 34.0525C21.8313 34.744 22.2837 35.171 22.9475 35.2252C23.6632 35.2837 24.3897 35.2717 25.1126 35.2598H25.1127H25.1128C25.4095 35.2549 25.7056 35.25 26 35.25C26.4142 35.25 26.75 35.5858 26.75 36C26.75 36.4142 26.4142 36.75 26 36.75C25.7024 36.75 25.4033 36.7545 25.1036 36.759L25.1034 36.759C24.343 36.7704 23.5789 36.7818 22.8253 36.7203C21.444 36.6074 20.3951 35.5861 20.2797 34.1747C20.25 33.8104 20.25 33.3646 20.25 32.8304V32.8304V23.1695V23.1695C20.25 22.6354 20.25 22.1896 20.2797 21.8253C20.3108 21.4454 20.3779 21.0888 20.5497 20.7515C20.8134 20.2341 21.2341 19.8134 21.7515 19.5497C22.0888 19.3779 22.4454 19.3108 22.8253 19.2797C23.1896 19.25 23.6354 19.25 24.1696 19.25L26.6745 19.25L26.747 19.25C27.1656 19.2497 27.4951 19.2495 27.8135 19.326C28.0941 19.3933 28.3624 19.5045 28.6084 19.6552C28.8877 19.8263 29.1206 20.0595 29.4164 20.3557L29.4676 20.4069L30.5145 21.4541L30.515 21.4546C31.2246 22.1644 31.9342 22.8743 32.6443 23.5836C32.9405 23.8795 33.1737 24.1123 33.3448 24.3915C33.4955 24.6376 33.6067 24.9058 33.674 25.1864C33.7505 25.5049 33.7503 25.8344 33.75 26.253C33.7498 26.6468 33.7499 27.0407 33.7499 27.4345L33.75 28C33.75 28.4142 33.4142 28.75 33 28.75C32.5858 28.75 32.25 28.4142 32.25 28V26.3255C32.25 26.039 32.2486 25.8672 32.2424 25.75L29.5738 25.75C29.3163 25.75 29.0798 25.75 28.8821 25.7339C28.012 25.6628 27.3385 25.0039 27.2661 24.1179C27.25 23.9202 27.25 23.6837 27.25 23.4262V23.4262L27.25 20.7576ZM28.75 21.8107V23.4C28.75 23.6924 28.7506 23.8666 28.7611 23.9957C28.7736 24.1484 28.8406 24.2255 29.0043 24.2389C29.1334 24.2494 29.3076 24.25 29.6 24.25H31.1893L28.75 21.8107ZM31.5 29.25C30.3109 29.25 29.2351 29.739 28.4643 30.5256C27.7137 31.2916 27.25 32.3422 27.25 33.5C27.25 34.6578 27.7137 35.7084 28.4643 36.4744C29.2351 37.261 30.3109 37.75 31.5 37.75C32.6891 37.75 33.7649 37.261 34.5357 36.4744C35.2863 35.7084 35.75 34.6578 35.75 33.5C35.75 32.3422 35.2863 31.2916 34.5357 30.5256C33.7649 29.739 32.6891 29.25 31.5 29.25ZM31.75 32C31.75 31.7239 31.5261 31.5 31.25 31.5C30.9739 31.5 30.75 31.7239 30.75 32V34C30.75 34.2761 30.9739 34.5 31.25 34.5H32.75C33.0261 34.5 33.25 34.2761 33.25 34C33.25 33.7239 33.0261 33.5 32.75 33.5H31.75V32Z" fill="#5F5F6A"/>
<path opacity="0.5" fill-rule="evenodd" clip-rule="evenodd" d="M28.4643 86.5256C29.2351 85.739 30.3109 85.25 31.5 85.25C32.6891 85.25 33.7649 85.739 34.5357 86.5256C35.2863 87.2916 35.75 88.3422 35.75 89.5C35.75 90.6578 35.2863 91.7084 34.5357 92.4744C33.7649 93.261 32.6891 93.75 31.5 93.75C30.3109 93.75 29.2351 93.261 28.4643 92.4744C27.7137 91.7084 27.25 90.6578 27.25 89.5C27.25 88.3422 27.7137 87.2916 28.4643 86.5256ZM31.25 87.5C31.5261 87.5 31.75 87.7239 31.75 88V89.5H32.75C33.0261 89.5 33.25 89.7239 33.25 90C33.25 90.2761 33.0261 90.5 32.75 90.5H31.25C30.9739 90.5 30.75 90.2761 30.75 90V88C30.75 87.7239 30.9739 87.5 31.25 87.5Z" fill="#5F5F6A"/>
<path fill-rule="evenodd" clip-rule="evenodd" d="M26.6745 76.75C26.961 76.75 27.1328 76.7514 27.25 76.7576L27.25 79.4262C27.25 79.6837 27.25 79.9202 27.2661 80.1179C27.3385 81.0039 28.012 81.6628 28.8821 81.7339C29.0798 81.75 29.3163 81.75 29.5738 81.75L32.2424 81.75C32.2486 81.8672 32.25 82.039 32.25 82.3255V84C32.25 84.4142 32.5858 84.75 33 84.75C33.4142 84.75 33.75 84.4142 33.75 84C33.75 83.8115 33.75 83.623 33.7499 83.4345C33.7499 83.0407 33.7498 82.6468 33.75 82.253C33.7503 81.8344 33.7505 81.5049 33.674 81.1864C33.6067 80.9058 33.4955 80.6376 33.3448 80.3915C33.1737 80.1123 32.9405 79.8795 32.6443 79.5836C31.934 78.8741 31.2243 78.1641 30.5145 77.4541C30.1656 77.105 29.8166 76.7559 29.4676 76.4069C29.4503 76.3896 29.4333 76.3726 29.4164 76.3557C29.1206 76.0595 28.8877 75.8263 28.6084 75.6552C28.3624 75.5045 28.0941 75.3933 27.8135 75.326C27.4951 75.2495 27.1656 75.2497 26.747 75.25C26.7231 75.25 26.699 75.25 26.6745 75.25L24.1696 75.25C23.6354 75.25 23.1896 75.25 22.8253 75.2797C22.4454 75.3108 22.0888 75.3779 21.7515 75.5497C21.2341 75.8134 20.8134 76.2341 20.5497 76.7515C20.3779 77.0888 20.3108 77.4454 20.2797 77.8253C20.25 78.1896 20.25 78.6354 20.25 79.1695V88.8304C20.25 89.3646 20.25 89.8104 20.2797 90.1747C20.3951 91.5861 21.444 92.6074 22.8253 92.7203C23.5789 92.7818 24.343 92.7704 25.1034 92.759C25.4031 92.7545 25.7023 92.75 26 92.75C26.4142 92.75 26.75 92.4142 26.75 92C26.75 91.5858 26.4142 91.25 26 91.25C25.7055 91.25 25.4094 91.2549 25.1127 91.2598C24.3898 91.2717 23.6632 91.2837 22.9475 91.2252C22.2837 91.171 21.8313 90.744 21.7748 90.0525C21.7506 89.7566 21.75 89.3724 21.75 88.8V79.2C21.75 78.6276 21.7506 78.2434 21.7748 77.9475C21.8313 77.256 22.2837 76.829 22.9475 76.7748C23.2434 76.7506 23.6276 76.75 24.2 76.75H26.6745ZM28.75 79.4V77.8107L31.1893 80.25H29.6C29.3076 80.25 29.1334 80.2494 29.0043 80.2389C28.8406 80.2255 28.7736 80.1484 28.7611 79.9957C28.7506 79.8666 28.75 79.6924 28.75 79.4Z" fill="#5F5F6A"/>
<path fill-rule="evenodd" clip-rule="evenodd" d="M31.5 85.25C30.311 85.25 29.2348 85.7393 28.4643 86.5256C27.7139 87.2914 27.25 88.3422 27.25 89.5C27.25 90.6577 27.7139 91.7086 28.4643 92.4744C29.2348 93.2607 30.311 93.75 31.5 93.75C32.689 93.75 33.7652 93.2607 34.5357 92.4744C35.2861 91.7086 35.75 90.6577 35.75 89.5C35.75 88.3422 35.2861 87.2914 34.5357 86.5256C33.7652 85.7393 32.689 85.25 31.5 85.25ZM29.5357 87.5754C30.0357 87.0652 30.7304 86.75 31.5 86.75C32.2696 86.75 32.9643 87.0652 33.4643 87.5754C33.9511 88.0722 34.25 88.7504 34.25 89.5C34.25 90.2495 33.9511 90.9278 33.4643 91.4246C32.9643 91.9348 32.2696 92.25 31.5 92.25C30.7304 92.25 30.0357 91.9348 29.5357 91.4246C29.0489 90.9278 28.75 90.2495 28.75 89.5C28.75 88.7504 29.0489 88.0722 29.5357 87.5754Z" fill="#5F5F6A"/>
<path fill-rule="evenodd" clip-rule="evenodd" d="M26.6745 132.75C26.961 132.75 27.1328 132.751 27.25 132.758L27.25 135.426C27.25 135.684 27.25 135.92 27.2661 136.118C27.3385 137.004 28.012 137.663 28.8821 137.734C29.0798 137.75 29.3163 137.75 29.5738 137.75L32.2424 137.75C32.2486 137.867 32.25 138.039 32.25 138.325V140C32.25 140.414 32.5858 140.75 33 140.75C33.4142 140.75 33.75 140.414 33.75 140C33.75 139.811 33.75 139.623 33.7499 139.434C33.7499 139.041 33.7498 138.647 33.75 138.253C33.7503 137.834 33.7505 137.505 33.674 137.186C33.6067 136.906 33.4955 136.638 33.3448 136.392C33.1737 136.112 32.9405 135.879 32.6443 135.584C31.934 134.874 31.2243 134.164 30.5145 133.454C30.1656 133.105 29.8166 132.756 29.4676 132.407C29.4503 132.39 29.4333 132.373 29.4164 132.356C29.1206 132.06 28.8877 131.826 28.6084 131.655C28.3624 131.504 28.0941 131.393 27.8135 131.326C27.4951 131.25 27.1656 131.25 26.747 131.25C26.7231 131.25 26.699 131.25 26.6745 131.25L24.1696 131.25C23.6354 131.25 23.1896 131.25 22.8253 131.28C22.4454 131.311 22.0888 131.378 21.7515 131.55C21.2341 131.813 20.8134 132.234 20.5497 132.752C20.3779 133.089 20.3108 133.445 20.2797 133.825C20.25 134.19 20.25 134.635 20.25 135.17V144.83C20.25 145.365 20.25 145.81 20.2797 146.175C20.3951 147.586 21.444 148.607 22.8253 148.72C23.5789 148.782 24.343 148.77 25.1034 148.759C25.4031 148.754 25.7023 148.75 26 148.75C26.4142 148.75 26.75 148.414 26.75 148C26.75 147.586 26.4142 147.25 26 147.25C25.7055 147.25 25.4094 147.255 25.1127 147.26C24.3898 147.272 23.6632 147.284 22.9475 147.225C22.2837 147.171 21.8313 146.744 21.7748 146.053C21.7506 145.757 21.75 145.372 21.75 144.8V135.2C21.75 134.628 21.7506 134.243 21.7748 133.947C21.8313 133.256 22.2837 132.829 22.9475 132.775C23.2434 132.751 23.6276 132.75 24.2 132.75H26.6745ZM28.75 135.4V133.811L31.1893 136.25H29.6C29.3076 136.25 29.1334 136.249 29.0043 136.239C28.8406 136.225 28.7736 136.148 28.7611 135.996C28.7506 135.867 28.75 135.692 28.75 135.4Z" fill="#5F5F6A"/>
<path d="M31.75 144C31.75 143.724 31.5261 143.5 31.25 143.5C30.9739 143.5 30.75 143.724 30.75 144V146C30.75 146.276 30.9739 146.5 31.25 146.5H32.75C33.0261 146.5 33.25 146.276 33.25 146C33.25 145.724 33.0261 145.5 32.75 145.5H31.75V144Z" fill="#5F5F6A"/>
<path fill-rule="evenodd" clip-rule="evenodd" d="M31.5 141.25C30.311 141.25 29.2348 141.739 28.4643 142.526C27.7139 143.291 27.25 144.342 27.25 145.5C27.25 146.658 27.7139 147.709 28.4643 148.474C29.2348 149.261 30.311 149.75 31.5 149.75C32.689 149.75 33.7652 149.261 34.5357 148.474C35.2861 147.709 35.75 146.658 35.75 145.5C35.75 144.342 35.2861 143.291 34.5357 142.526C33.7652 141.739 32.689 141.25 31.5 141.25ZM29.5357 143.575C30.0357 143.065 30.7304 142.75 31.5 142.75C32.2696 142.75 32.9643 143.065 33.4643 143.575C33.9511 144.072 34.25 144.75 34.25 145.5C34.25 146.25 33.9511 146.928 33.4643 147.425C32.9643 147.935 32.2696 148.25 31.5 148.25C30.7304 148.25 30.0357 147.935 29.5357 147.425C29.0489 146.928 28.75 146.25 28.75 145.5C28.75 144.75 29.0489 144.072 29.5357 143.575Z" fill="#5F5F6A"/>
<path fill-rule="evenodd" clip-rule="evenodd" d="M27.5 188.536C27.346 188.503 27.1643 188.5 26.6745 188.5H24.2C23.6317 188.5 23.2355 188.5 22.9271 188.526C22.6245 188.55 22.4507 188.596 22.319 188.663C22.0368 188.807 21.8073 189.037 21.6635 189.319C21.5964 189.451 21.5503 189.625 21.5256 189.927C21.5004 190.236 21.5 190.632 21.5 191.2V200.8C21.5 201.368 21.5004 201.764 21.5256 202.073C21.5503 202.375 21.5964 202.549 21.6635 202.681C21.8073 202.963 22.0368 203.193 22.319 203.337C22.4507 203.404 22.6245 203.45 22.9271 203.474C23.9434 203.557 24.9813 203.5 26 203.5C26.2761 203.5 26.5 203.724 26.5 204C26.5 204.276 26.2761 204.5 26 204.5C24.9539 204.5 23.8894 204.556 22.8457 204.471C22.4813 204.441 22.1612 204.378 21.865 204.228C21.3946 203.988 21.0122 203.605 20.7725 203.135C20.6216 202.839 20.5587 202.519 20.5289 202.154C20.5 201.8 20.5 201.363 20.5 200.821V191.179C20.5 190.637 20.5 190.2 20.5289 189.846C20.5587 189.481 20.6216 189.161 20.7725 188.865C21.0122 188.395 21.3946 188.012 21.865 187.772C22.1612 187.622 22.4813 187.559 22.8457 187.529C23.1996 187.5 23.6367 187.5 24.1786 187.5C25.0296 187.5 25.8805 187.5 26.7315 187.5C27.1659 187.5 27.4665 187.5 27.7552 187.569C28.0103 187.63 28.2541 187.731 28.4778 187.868C28.7309 188.024 28.9435 188.236 29.2505 188.543C30.3055 189.599 31.361 190.654 32.4163 191.709C32.7454 192.038 32.9698 192.258 33.1316 192.522C33.2687 192.746 33.3697 192.99 33.4309 193.245C33.5032 193.546 33.5 193.86 33.5 194.325V196C33.5 196.276 33.2761 196.5 33 196.5C32.7239 196.5 32.5 196.276 32.5 196V194.325C32.5 193.836 32.4971 193.654 32.4635 193.5H29.5807C29.3172 193.5 29.0898 193.5 28.9025 193.485C28.1367 193.422 27.5766 192.848 27.5153 192.098C27.5 191.91 27.5 191.683 27.5 191.419V188.536ZM28.5 189.207V191.4C28.5 191.688 28.5004 191.874 28.512 192.016C28.5582 192.582 29.1896 192.5 29.6 192.5H31.7928C30.6969 191.401 29.5993 190.303 28.5 189.207ZM31.5 198.5C30.6605 198.5 29.9022 198.844 29.3571 199.4C28.8264 199.942 28.5 200.682 28.5 201.5C28.5 202.318 28.8264 203.058 29.3571 203.6C29.9022 204.156 30.6605 204.5 31.5 204.5C32.3395 204.5 33.0978 204.156 33.6429 203.6C34.1736 203.058 34.5 202.318 34.5 201.5C34.5 200.682 34.1736 199.942 33.6429 199.4C33.0978 198.844 32.3395 198.5 31.5 198.5ZM28.6429 198.701C29.3683 197.96 30.3809 197.5 31.5 197.5C32.6191 197.5 33.6317 197.96 34.3571 198.701C35.0636 199.421 35.5 200.41 35.5 201.5C35.5 202.59 35.0636 203.579 34.3571 204.299C33.6317 205.04 32.6191 205.5 31.5 205.5C30.3809 205.5 29.3683 205.04 28.6429 204.299C27.9364 203.579 27.5 202.59 27.5 201.5C27.5 200.41 27.9364 199.421 28.6429 198.701ZM31.25 199.5C31.5261 199.5 31.75 199.724 31.75 200V201.5H32.75C33.0261 201.5 33.25 201.724 33.25 202C33.25 202.276 33.0261 202.5 32.75 202.5H31.25C30.9739 202.5 30.75 202.276 30.75 202V200C30.75 199.724 30.9739 199.5 31.25 199.5Z" fill="#5F5F6A"/>
</svg>
