<svg width="56" height="224" viewBox="0 0 56 224" fill="none" xmlns="http://www.w3.org/2000/svg">
<path d="M34.8444 29.4834C36.0522 28.8839 36.0522 27.1161 34.8444 26.5166L22.5527 20.4158C21.3245 19.8062 20.0944 20.9087 20.2673 22.1354L20.8071 25.9651C20.8942 26.5833 21.321 27.1191 21.9355 27.3075C22.0957 27.3566 22.4858 27.4399 22.9476 27.5338C23.5833 27.6631 27.3369 28 27.3369 28C27.3369 28 23.5833 28.3369 22.9476 28.4662C22.4858 28.5601 22.0957 28.6434 21.9355 28.6925C21.321 28.8809 20.8942 29.4167 20.8071 30.0349L20.2673 33.8647C20.0944 35.0913 21.3245 36.1938 22.5527 35.5842L34.8444 29.4834Z" fill="#5F5F6A"/>
<path d="M34.8444 82.5166C36.0522 83.1161 36.0522 84.8839 34.8444 85.4834L22.5527 91.5842C21.3245 92.1938 20.0944 91.0913 20.2673 89.8647L20.8071 86.0349C20.8942 85.4167 21.321 84.8809 21.9355 84.6925C22.0957 84.6434 22.4858 84.5601 22.9476 84.4662C23.4318 84.3677 24.0505 84.2467 24.7092 84.1201C24.9153 84.0805 25.1255 84.0403 25.3369 84C25.1255 83.9597 24.9153 83.9195 24.7092 83.8799C24.0505 83.7533 23.4318 83.6323 22.9476 83.5338C22.4858 83.4399 22.0957 83.3566 21.9355 83.3075C21.321 83.1191 20.8942 82.5833 20.8071 81.9651L20.2673 78.1354C20.0944 76.9087 21.3245 75.8062 22.5527 76.4158L34.8444 82.5166ZM34.2503 84C34.2503 83.9191 34.2138 83.8782 34.1776 83.8602L21.8858 77.7594C21.8644 77.7488 21.8537 77.7497 21.8486 77.7503C21.8402 77.7514 21.825 77.7558 21.8071 77.7698C21.772 77.7971 21.7416 77.848 21.7526 77.926L22.2924 81.7557C22.303 81.831 22.3493 81.8654 22.3752 81.8734C22.4479 81.8957 22.7478 81.9625 23.2466 82.0639C23.7229 82.1608 24.3355 82.2806 24.9924 82.4069C26.3056 82.6593 27.7882 82.9362 28.6958 83.1047C28.7019 83.1058 28.708 83.107 28.7141 83.1081C28.8193 83.1276 28.9307 83.1483 29.0176 83.1701C29.063 83.1815 29.1357 83.2013 29.2117 83.2346C29.2644 83.2578 29.454 83.3424 29.584 83.5522C29.754 83.8266 29.754 84.1734 29.584 84.4478C29.454 84.6576 29.2644 84.7422 29.2117 84.7654C29.1357 84.7987 29.063 84.8185 29.0176 84.8299C28.9307 84.8517 28.8192 84.8724 28.7141 84.8919L28.6958 84.8953C27.7882 85.0638 26.3056 85.3407 24.9924 85.5931C24.3355 85.7194 23.7229 85.8392 23.2466 85.9361C22.7478 86.0375 22.4479 86.1043 22.3752 86.1266C22.3493 86.1346 22.303 86.169 22.2924 86.2443L21.7526 90.074C21.7416 90.152 21.772 90.2029 21.8071 90.2302C21.825 90.2442 21.8402 90.2486 21.8486 90.2497C21.8537 90.2503 21.8644 90.2512 21.8858 90.2406L34.1776 84.1398C34.2138 84.1218 34.2503 84.0809 34.2503 84Z" fill="#5F5F6A"/>
<path d="M34.8444 138.517C36.0522 139.116 36.0522 140.884 34.8444 141.483L22.5527 147.584C21.3245 148.194 20.0944 147.091 20.2673 145.865L20.8071 142.035C20.8942 141.417 21.321 140.881 21.9355 140.692C22.0957 140.643 22.4858 140.56 22.9476 140.466C23.4318 140.368 24.0505 140.247 24.7092 140.12C24.9153 140.08 25.1255 140.04 25.3369 140C25.1255 139.96 24.9153 139.92 24.7092 139.88C24.0505 139.753 23.4318 139.632 22.9476 139.534C22.4858 139.44 22.0957 139.357 21.9355 139.308C21.321 139.119 20.8942 138.583 20.8071 137.965L20.2673 134.135C20.0944 132.909 21.3245 131.806 22.5527 132.416L34.8444 138.517ZM34.2503 140C34.2503 139.919 34.2138 139.878 34.1776 139.86L21.8858 133.759C21.8644 133.749 21.8537 133.75 21.8486 133.75C21.8402 133.751 21.825 133.756 21.8071 133.77C21.772 133.797 21.7416 133.848 21.7526 133.926L22.2924 137.756C22.303 137.831 22.3493 137.865 22.3752 137.873C22.4479 137.896 22.7478 137.962 23.2466 138.064C23.7229 138.161 24.3355 138.281 24.9924 138.407C26.3056 138.659 27.7882 138.936 28.6958 139.105C28.7019 139.106 28.708 139.107 28.7141 139.108C28.8193 139.128 28.9307 139.148 29.0176 139.17C29.063 139.181 29.1357 139.201 29.2117 139.235C29.2644 139.258 29.454 139.342 29.584 139.552C29.754 139.827 29.754 140.173 29.584 140.448C29.454 140.658 29.2644 140.742 29.2117 140.765C29.1357 140.799 29.063 140.819 29.0176 140.83C28.9307 140.852 28.8192 140.872 28.7141 140.892L28.6958 140.895C27.7882 141.064 26.3056 141.341 24.9924 141.593C24.3355 141.719 23.7229 141.839 23.2466 141.936C22.7478 142.038 22.4479 142.104 22.3752 142.127C22.3493 142.135 22.303 142.169 22.2924 142.244L21.7526 146.074C21.7416 146.152 21.772 146.203 21.8071 146.23C21.825 146.244 21.8402 146.249 21.8486 146.25C21.8537 146.25 21.8644 146.251 21.8858 146.241L34.1776 140.14C34.2138 140.122 34.2503 140.081 34.2503 140Z" fill="#5F5F6A"/>
<path d="M34.7326 194.741C35.7552 195.248 35.7552 196.752 34.7325 197.259L22.4408 203.36C21.4164 203.869 20.3655 202.954 20.5141 201.9L21.0539 198.07C21.1283 197.542 21.4917 197.09 22.008 196.932C22.1537 196.887 22.5287 196.806 22.9967 196.711C23.4796 196.613 24.0972 196.492 24.7557 196.366C25.3861 196.244 26.055 196.118 26.6808 196C26.055 195.882 25.3861 195.756 24.7557 195.634C24.0972 195.508 23.4796 195.387 22.9967 195.289C22.5287 195.194 22.1537 195.113 22.008 195.068C21.4917 194.91 21.1283 194.458 21.0539 193.93L20.5141 190.1C20.3655 189.046 21.4164 188.131 22.4408 188.64L34.7326 194.741ZM34.288 196.364C34.5701 196.224 34.5701 195.776 34.288 195.636L21.9962 189.535C21.8759 189.476 21.7531 189.494 21.6526 189.573C21.55 189.653 21.4803 189.791 21.5043 189.961L22.0441 193.791C22.0675 193.956 22.1772 194.074 22.3011 194.112C22.3885 194.139 22.7034 194.209 23.196 194.309C23.6737 194.406 24.2872 194.526 24.9444 194.652C26.2585 194.905 27.7416 195.182 28.6494 195.351L28.6638 195.353C28.7727 195.373 28.8769 195.393 28.956 195.413C28.9969 195.423 29.0537 195.439 29.1105 195.464C29.1518 195.482 29.2821 195.541 29.3707 195.684C29.4908 195.878 29.4908 196.122 29.3707 196.316C29.2821 196.459 29.1518 196.518 29.1105 196.536C29.0537 196.561 28.9969 196.577 28.956 196.587C28.877 196.607 28.7727 196.627 28.6639 196.647L28.6494 196.65C27.7416 196.818 26.2585 197.095 24.9444 197.348C24.2872 197.474 23.6737 197.594 23.196 197.691C22.7034 197.791 22.3885 197.861 22.3011 197.888C22.1772 197.926 22.0675 198.044 22.0441 198.209L21.5043 202.039C21.4803 202.209 21.55 202.347 21.6526 202.427C21.7531 202.506 21.8759 202.524 21.9962 202.465L34.288 196.364Z" fill="#5F5F6A"/>
</svg>
