<svg width="56" height="56" viewBox="0 0 56 56" fill="none" xmlns="http://www.w3.org/2000/svg">
<path fill-rule="evenodd" clip-rule="evenodd" d="M32.0605 23.2688C31.2451 22.466 29.9177 22.466 29.1022 23.2688L23.6614 28.6255C22.3351 29.9313 22.3351 32.0429 23.6614 33.3487C24.9949 34.6616 27.1623 34.6616 28.4958 33.3487L32.6234 29.285C32.9513 28.9621 33.4789 28.9662 33.8018 29.2941C34.1247 29.6221 34.1206 30.1497 33.7926 30.4726L29.6651 34.5363C27.6829 36.4879 24.4743 36.4879 22.4921 34.5363C20.5026 32.5776 20.5026 29.3965 22.4921 27.4378L27.933 22.0811C29.3971 20.6396 31.7657 20.6396 33.2298 22.0811C34.7012 23.5297 34.7012 25.8839 33.2298 27.3325L27.7889 32.6892C26.8429 33.6206 25.3143 33.6206 24.3683 32.6892C23.415 31.7506 23.415 30.2235 24.3683 29.285L28.4958 25.2213C28.8238 24.8984 29.3514 24.9025 29.6743 25.2304C29.9972 25.5584 29.9931 26.086 29.6651 26.4089L25.5375 30.4726C25.2474 30.7583 25.2474 31.2159 25.5375 31.5015C25.8349 31.7943 26.3223 31.7943 26.6196 31.5015L32.0605 26.1448C32.8687 25.3491 32.8687 24.0645 32.0605 23.2688Z" fill="#5F5F6A"/>
</svg>
