<svg width="56" height="224" viewBox="0 0 56 224" fill="none" xmlns="http://www.w3.org/2000/svg">
<path d="M32.8385 20H23.1615C22.6343 20 22.1795 20 21.805 20.0306C21.4096 20.0629 21.0164 20.1342 20.638 20.327C20.0735 20.6146 19.6146 21.0735 19.327 21.638C19.2157 21.8564 19.1758 22.1144 19.1569 22.2415C19.1309 22.4164 19.1109 22.6222 19.0947 22.8388C19.0623 23.2746 19.0413 23.8139 19.0276 24.3613C19 25.4573 19 26.6373 19 27.1974V27.2C19 27.7523 19.4477 28.2 20 28.2C20.5523 28.2 21 27.7523 21 27.2C21 26.9202 21 26.4918 21.0034 26H35V30.8C35 31.3766 34.9992 31.7488 34.9761 32.0322C34.9539 32.3038 34.9162 32.4045 34.891 32.454C34.7951 32.6422 34.6422 32.7951 34.454 32.891C34.4045 32.9162 34.3038 32.9539 34.0322 32.9761C33.7488 32.9992 33.3766 33 32.8 33H28C27.4477 33 27 33.4477 27 34C27 34.5523 27.4477 35 28 35H32.8385C33.3656 35 33.8205 35 34.195 34.9694C34.5904 34.9371 34.9836 34.8658 35.362 34.673C35.9265 34.3854 36.3854 33.9265 36.673 33.362C36.8658 32.9836 36.9371 32.5904 36.9694 32.195C37 31.8205 37 31.3657 37 30.8386V24.1614C37 23.6343 37 23.1795 36.9694 22.805C36.9371 22.4096 36.8658 22.0164 36.673 21.638C36.3854 21.0735 35.9265 20.6146 35.362 20.327C34.9836 20.1342 34.5904 20.0629 34.195 20.0306C33.8205 20 33.3657 20 32.8385 20ZM34.9999 24H21.0389C21.0514 23.6215 21.0679 23.2733 21.0892 22.9874C21.1037 22.7926 21.1194 22.6413 21.1352 22.5353C21.1383 22.5145 21.1411 22.4974 21.1435 22.4838C21.2398 22.3241 21.379 22.1941 21.546 22.109C21.5955 22.0838 21.6962 22.0461 21.9678 22.0239C22.2512 22.0008 22.6234 22 23.2 22H32.8C33.3766 22 33.7488 22.0008 34.0322 22.0239C34.3038 22.0461 34.4045 22.0838 34.454 22.109C34.6422 22.2049 34.7951 22.3578 34.891 22.546C34.9162 22.5955 34.9539 22.6962 34.9761 22.9678C34.9964 23.217 34.9995 23.5349 34.9999 24Z" fill="#5F5F6A"/>
<path d="M25.3139 31.8774L24.5931 32.5763C25.0461 33.4299 24.9036 34.5025 24.1654 35.2182L23.0169 36.3318C22.098 37.2227 20.605 37.2227 19.6861 36.3318C18.7713 35.4448 18.7713 34.0096 19.6861 33.1226L20.4069 32.4237C19.9539 31.5701 20.0964 30.4975 20.8346 29.7818L21.9831 28.6682C22.902 27.7773 24.395 27.7773 25.3139 28.6682C26.2287 29.5552 26.2287 30.9904 25.3139 31.8774ZM24.663 31.2666C25.2283 30.7185 25.2283 29.8271 24.663 29.279C24.1018 28.7349 23.1951 28.7349 22.634 29.279L21.4854 30.3926C21.1001 30.7662 20.9775 31.2995 21.1175 31.7747C21.988 31.1617 23.1957 31.1982 24.0261 31.8842L24.663 31.2666ZM23.374 32.5C22.8597 32.1156 22.1403 32.1157 21.626 32.5C22.1403 32.8844 22.8597 32.8843 23.374 32.5ZM20.337 33.7334C19.7717 34.2815 19.7717 35.1729 20.337 35.721C20.8982 36.2651 21.8049 36.2651 22.366 35.721L23.5146 34.6074C23.8999 34.2338 24.0225 33.7005 23.8825 33.2253C23.012 33.8383 21.8043 33.8018 20.974 33.1158L20.337 33.7334Z" fill="#5F5F6A"/>
<path d="M30 29C29.4477 29 29 29.4477 29 30C29 30.5523 29.4477 31 30 31H33C33.5523 31 34 30.5523 34 30C34 29.4477 33.5523 29 33 29H30Z" fill="#5F5F6A"/>
<g opacity="0.5">
<path d="M25.3139 87.8774L24.5931 88.5763C25.0461 89.4299 24.9036 90.5025 24.1654 91.2182L23.0169 92.3318C22.098 93.2227 20.605 93.2227 19.6861 92.3318C18.7713 91.4448 18.7713 90.0096 19.6861 89.1226L20.4069 88.4237C19.9539 87.5701 20.0964 86.4975 20.8346 85.7818L21.9831 84.6682C22.902 83.7773 24.395 83.7773 25.3139 84.6682C26.2287 85.5552 26.2287 86.9904 25.3139 87.8774ZM24.663 87.2666C25.2283 86.7185 25.2283 85.8271 24.663 85.279C24.1018 84.7349 23.1951 84.7349 22.634 85.279L21.4854 86.3926C21.1001 86.7662 20.9775 87.2995 21.1175 87.7747C21.988 87.1617 23.1957 87.1982 24.0261 87.8842L24.663 87.2666ZM21.626 88.5C22.1403 88.8844 22.8597 88.8843 23.374 88.5C22.8597 88.1156 22.1403 88.1157 21.626 88.5ZM20.337 89.7334C19.7717 90.2815 19.7717 91.1729 20.337 91.721C20.8982 92.2651 21.8049 92.2651 22.366 91.721L23.5146 90.6074C23.8999 90.2338 24.0225 89.7005 23.8825 89.2253C23.012 89.8383 21.8043 89.8018 20.974 89.1158L20.337 89.7334Z" fill="#5F5F6A"/>
<path d="M30 85C29.4477 85 29 85.4477 29 86C29 86.5523 29.4477 87 30 87H33C33.5523 87 34 86.5523 34 86C34 85.4477 33.5523 85 33 85H30Z" fill="#5F5F6A"/>
</g>
<path d="M32.8304 76.25H23.1696C22.6354 76.25 22.1896 76.25 21.8253 76.2797C21.4454 76.3108 21.0888 76.3779 20.7515 76.5497C20.2341 76.8134 19.8134 77.2341 19.5497 77.7515C19.4595 77.9287 19.4235 78.1478 19.4042 78.2782C19.3795 78.4445 19.36 78.6435 19.344 78.8574C19.312 79.2871 19.2912 79.8216 19.2775 80.3675C19.25 81.4605 19.25 82.6379 19.25 83.198V83.2C19.25 83.6142 19.5858 83.95 20 83.95C20.4142 83.95 20.75 83.6142 20.75 83.2C20.75 82.9206 20.75 82.4922 20.7534 82H35.25V86.8C35.25 87.3724 35.2494 87.7566 35.2252 88.0525C35.2018 88.3396 35.1599 88.4769 35.1138 88.5675C34.9939 88.8027 34.8027 88.9939 34.5675 89.1138C34.4769 89.1599 34.3396 89.2018 34.0525 89.2252C33.7566 89.2494 33.3724 89.25 32.8 89.25H28C27.5858 89.25 27.25 89.5858 27.25 90C27.25 90.4142 27.5858 90.75 28 90.75H32.8305C33.3646 90.75 33.8104 90.75 34.1747 90.7203C34.5546 90.6892 34.9112 90.6221 35.2485 90.4503C35.7659 90.1866 36.1866 89.7659 36.4503 89.2485C36.6221 88.9112 36.6892 88.5546 36.7203 88.1747C36.75 87.8104 36.75 87.3646 36.75 86.8305V80.1695C36.75 79.6354 36.75 79.1896 36.7203 78.8253C36.6892 78.4454 36.6221 78.0888 36.4503 77.7515C36.1866 77.2341 35.7659 76.8134 35.2485 76.5497C34.9112 76.3779 34.5546 76.3108 34.1747 76.2797C33.8104 76.25 33.3646 76.25 32.8304 76.25ZM35.2499 80H20.7887C20.8014 79.6161 20.8181 79.2613 20.8399 78.9688C20.8546 78.7713 20.8709 78.6132 20.8879 78.4986C20.896 78.4443 20.9026 78.4114 20.9062 78.3949C21.0268 78.1769 21.21 77.9996 21.4325 77.8862C21.5231 77.8401 21.6604 77.7982 21.9475 77.7748C22.2434 77.7506 22.6276 77.75 23.2 77.75H32.8C33.3724 77.75 33.7566 77.7506 34.0525 77.7748C34.3396 77.7982 34.4769 77.8401 34.5675 77.8862C34.8027 78.0061 34.9939 78.1973 35.1138 78.4325C35.1599 78.5231 35.2018 78.6604 35.2252 78.9475C35.2465 79.2075 35.2495 79.5357 35.2499 80Z" fill="#5F5F6A"/>
<path d="M32.8304 132.25H23.1696C22.6354 132.25 22.1896 132.25 21.8253 132.28C21.4454 132.311 21.0888 132.378 20.7515 132.55C20.2341 132.813 19.8134 133.234 19.5497 133.752C19.4595 133.929 19.4235 134.148 19.4042 134.278C19.3795 134.445 19.36 134.643 19.344 134.857C19.312 135.287 19.2912 135.822 19.2775 136.368C19.25 137.46 19.25 138.638 19.25 139.198V139.2C19.25 139.614 19.5858 139.95 20 139.95C20.4142 139.95 20.75 139.614 20.75 139.2C20.75 138.921 20.75 138.492 20.7534 138H35.25V142.8C35.25 143.372 35.2494 143.757 35.2252 144.053C35.2018 144.34 35.1599 144.477 35.1138 144.567C34.9939 144.803 34.8027 144.994 34.5675 145.114C34.4769 145.16 34.3396 145.202 34.0525 145.225C33.7566 145.249 33.3724 145.25 32.8 145.25H28C27.5858 145.25 27.25 145.586 27.25 146C27.25 146.414 27.5858 146.75 28 146.75H32.8305C33.3646 146.75 33.8104 146.75 34.1747 146.72C34.5546 146.689 34.9112 146.622 35.2485 146.45C35.7659 146.187 36.1866 145.766 36.4503 145.248C36.6221 144.911 36.6892 144.555 36.7203 144.175C36.75 143.81 36.75 143.365 36.75 142.83V136.17C36.75 135.635 36.75 135.19 36.7203 134.825C36.6892 134.445 36.6221 134.089 36.4503 133.752C36.1866 133.234 35.7659 132.813 35.2485 132.55C34.9112 132.378 34.5546 132.311 34.1747 132.28C33.8104 132.25 33.3646 132.25 32.8304 132.25ZM35.2499 136H20.7887C20.8014 135.616 20.8181 135.261 20.8399 134.969C20.8546 134.771 20.8709 134.613 20.8879 134.499C20.896 134.444 20.9026 134.411 20.9062 134.395C21.0268 134.177 21.21 134 21.4325 133.886C21.5231 133.84 21.6604 133.798 21.9475 133.775C22.2434 133.751 22.6276 133.75 23.2 133.75H32.8C33.3724 133.75 33.7566 133.751 34.0525 133.775C34.3396 133.798 34.4769 133.84 34.5675 133.886C34.8027 134.006 34.9939 134.197 35.1138 134.433C35.1599 134.523 35.2018 134.66 35.2252 134.947C35.2465 135.208 35.2495 135.536 35.2499 136Z" fill="#5F5F6A"/>
<path d="M25.3139 143.877L24.5931 144.576C25.0461 145.43 24.9036 146.502 24.1654 147.218L23.0169 148.332C22.098 149.223 20.605 149.223 19.6861 148.332C18.7713 147.445 18.7713 146.01 19.6861 145.123L20.4069 144.424C19.9539 143.57 20.0964 142.498 20.8346 141.782L21.9831 140.668C22.902 139.777 24.395 139.777 25.3139 140.668C26.2287 141.555 26.2287 142.99 25.3139 143.877ZM24.663 143.267C25.2283 142.719 25.2283 141.827 24.663 141.279C24.1018 140.735 23.1951 140.735 22.634 141.279L21.4854 142.393C21.1001 142.766 20.9775 143.299 21.1175 143.775C21.988 143.162 23.1957 143.198 24.0261 143.884L24.663 143.267ZM23.374 144.5C22.8597 144.116 22.1403 144.116 21.626 144.5C22.1403 144.884 22.8597 144.884 23.374 144.5ZM20.337 145.733C19.7717 146.281 19.7717 147.173 20.337 147.721C20.8982 148.265 21.8049 148.265 22.366 147.721L23.5146 146.607C23.8999 146.234 24.0225 145.701 23.8825 145.225C23.012 145.838 21.8043 145.802 20.974 145.116L20.337 145.733Z" fill="#5F5F6A"/>
<path d="M30 141C29.4477 141 29 141.448 29 142C29 142.552 29.4477 143 30 143H33C33.5523 143 34 142.552 34 142C34 141.448 33.5523 141 33 141H30Z" fill="#5F5F6A"/>
<path d="M32.8214 189H23.1786C22.6367 189 22.1996 189 21.8457 189.029C21.4813 189.059 21.1612 189.122 20.865 189.272C20.3946 189.512 20.0122 189.895 19.7725 190.365C19.7032 190.501 19.6713 190.681 19.6515 190.815C19.628 190.973 19.6091 191.165 19.5933 191.376C19.5618 191.8 19.5411 192.329 19.5274 192.874C19.5 193.964 19.5 195.139 19.5 195.699V195.7C19.5 195.976 19.7239 196.2 20 196.2C20.2761 196.2 20.5 195.976 20.5 195.7C20.5 195.33 20.5 194.697 20.5078 194H35.5V199.3C35.5 199.868 35.4996 200.264 35.4744 200.573C35.4497 200.875 35.4036 201.049 35.3365 201.181C35.1927 201.463 34.9632 201.693 34.681 201.837C34.5493 201.904 34.3755 201.95 34.0729 201.974C33.7645 202 33.3683 202 32.8 202H28C27.7239 202 27.5 202.224 27.5 202.5C27.5 202.776 27.7239 203 28 203H32.8214C33.3632 203 33.8004 203 34.1543 202.971C34.5187 202.941 34.8388 202.878 35.135 202.728C35.6054 202.488 35.9878 202.105 36.2275 201.635C36.3784 201.339 36.4413 201.019 36.4711 200.654C36.5 200.3 36.5 199.863 36.5 199.321V192.679C36.5 192.137 36.5 191.7 36.4711 191.346C36.4413 190.981 36.3784 190.661 36.2275 190.365C35.9878 189.895 35.6054 189.512 35.135 189.272C34.8388 189.122 34.5187 189.059 34.1543 189.029C33.8004 189 33.3633 189 32.8214 189ZM35.4972 192H20.5582C20.5675 191.801 20.5782 191.616 20.5906 191.45C20.6055 191.25 20.6223 191.085 20.6406 190.962C20.6527 190.881 20.6626 190.837 20.6668 190.819C20.6683 190.812 20.6687 190.809 20.6687 190.809C20.8128 190.531 21.0402 190.306 21.319 190.163C21.4507 190.096 21.6245 190.05 21.9271 190.026C22.2355 190 22.6317 190 23.2 190H32.8C33.3683 190 33.7645 190 34.0729 190.026C34.3755 190.05 34.5493 190.096 34.681 190.163C34.9632 190.307 35.1927 190.537 35.3365 190.819C35.4036 190.951 35.4497 191.125 35.4744 191.427C35.4877 191.59 35.4941 191.776 35.4972 192Z" fill="#5F5F6A"/>
<path d="M25.3139 199.877L24.5931 200.576C25.0461 201.43 24.9036 202.502 24.1654 203.218L23.0169 204.332C22.098 205.223 20.605 205.223 19.6861 204.332C18.7713 203.445 18.7713 202.01 19.6861 201.123L20.4069 200.424C19.9539 199.57 20.0964 198.498 20.8346 197.782L21.9831 196.668C22.902 195.777 24.395 195.777 25.3139 196.668C26.2287 197.555 26.2287 198.99 25.3139 199.877ZM24.663 199.267C25.2283 198.719 25.2283 197.827 24.663 197.279C24.1018 196.735 23.1951 196.735 22.634 197.279L21.4854 198.393C21.1001 198.766 20.9775 199.299 21.1175 199.775C21.988 199.162 23.1957 199.198 24.0261 199.884L24.663 199.267ZM23.374 200.5C22.8597 200.116 22.1403 200.116 21.626 200.5C22.1403 200.884 22.8597 200.884 23.374 200.5ZM20.337 201.733C19.7717 202.281 19.7717 203.173 20.337 203.721C20.8982 204.265 21.8049 204.265 22.366 203.721L23.5146 202.607C23.8999 202.234 24.0225 201.701 23.8825 201.225C23.012 201.838 21.8043 201.802 20.974 201.116L20.337 201.733Z" fill="#5F5F6A"/>
<path d="M30 198C29.4477 198 29 198.448 29 199C29 199.552 29.4477 200 30 200H33C33.5523 200 34 199.552 34 199C34 198.448 33.5523 198 33 198H30Z" fill="#5F5F6A"/>
</svg>
