<svg width="56" height="224" viewBox="0 0 56 224" fill="none" xmlns="http://www.w3.org/2000/svg">
<path d="M29.249 24.8374C29.6077 25.0445 29.7306 25.5032 29.5235 25.8619L26.4523 31.1814C26.2452 31.5402 25.7865 31.6631 25.4278 31.456C25.0691 31.2489 24.9462 30.7902 25.1533 30.4314L28.2245 25.1119C28.4316 24.7532 28.8903 24.6303 29.249 24.8374Z" fill="#5F5F6A"/>
<path fill-rule="evenodd" clip-rule="evenodd" d="M32.7881 25.8774L33.9049 23.9431C34.4517 22.9961 34.3409 21.807 33.6287 20.9772C32.7963 20.0074 31.6582 19.3504 30.4022 19.1144C29.3274 18.9125 28.2423 19.4111 27.6955 20.3581L26.5775 22.2946C26.5732 22.3018 26.569 22.3091 26.5649 22.3165L22.6425 29.1102C22.3711 29.5801 22.1938 29.8871 22.0664 30.218C21.9534 30.5112 21.8713 30.8153 21.8213 31.1255C21.7649 31.4756 21.7636 31.8301 21.7615 32.3727L21.75 35.3463L21.75 35.413C21.7504 35.5449 21.753 35.6718 21.7627 35.7823C21.7769 35.9443 21.8138 36.1975 21.9809 36.4282C22.1849 36.7099 22.4992 36.8914 22.8451 36.9272C23.1285 36.9566 23.3662 36.8619 23.5136 36.7932C23.6581 36.7259 23.8245 36.6289 23.991 36.5319L25.6341 35.5747L25.6405 35.5708L26.467 35.0893C26.9359 34.8163 27.2422 34.6379 27.5172 34.414C27.7608 34.2156 27.9831 33.9924 28.1806 33.748C28.4034 33.4722 28.5806 33.1651 28.8519 32.6951L32.773 25.9036C32.7782 25.895 32.7833 25.8862 32.7881 25.8774ZM31.2549 25.533C30.4221 24.341 29.0924 23.5733 27.6436 23.448L23.971 29.8092C23.6603 30.3473 23.5464 30.5488 23.4661 30.7572C23.3906 30.9533 23.3357 31.1567 23.3022 31.3642C23.2667 31.5846 23.2637 31.8161 23.2613 32.4375L23.2608 32.5585C23.7031 32.5993 24.144 32.734 24.5534 32.9704C24.9628 33.2068 25.2999 33.5212 25.5564 33.8839L25.661 33.8229C26.1979 33.5101 26.3969 33.3918 26.57 33.2508C26.733 33.1181 26.8817 32.9689 27.0137 32.8054C27.154 32.6317 27.2716 32.4323 27.5823 31.8941L31.2549 25.533Z" fill="#5F5F6A"/>
<path opacity="0.5" d="M25.2565 90.9266L23.6369 91.8701C23.2627 92.0881 23.0756 92.1971 22.9223 92.1812C22.7886 92.1674 22.6671 92.0973 22.5883 91.9884C22.4979 91.8635 22.4987 91.647 22.5004 91.2139L22.5077 89.3396C23.0603 89.2324 23.6526 89.3164 24.1784 89.62C24.7042 89.9235 25.073 90.3945 25.2565 90.9266Z" fill="#5F5F6A"/>
<path d="M29.5235 81.8619C29.7306 81.5032 29.6077 81.0445 29.249 80.8374C28.8903 80.6303 28.4316 80.7532 28.2245 81.1119L25.1533 86.4314C24.9462 86.7902 25.0691 87.2489 25.4278 87.456C25.7865 87.6631 26.2452 87.5402 26.4523 87.1814L29.5235 81.8619Z" fill="#5F5F6A"/>
<path fill-rule="evenodd" clip-rule="evenodd" d="M33.9049 79.9431L32.7881 81.8774C32.7833 81.8862 32.7782 81.895 32.773 81.9036L28.8519 88.6951C28.5806 89.1651 28.4034 89.4722 28.1806 89.748C27.9831 89.9924 27.7608 90.2156 27.5172 90.414C27.2422 90.6379 26.9359 90.8163 26.467 91.0893L25.6405 91.5708L25.6341 91.5747L23.991 92.5318C23.8245 92.6289 23.6581 92.7259 23.5136 92.7932C23.3662 92.8619 23.1285 92.9566 22.8451 92.9272C22.4992 92.8914 22.1849 92.7099 21.9809 92.4282C21.8138 92.1975 21.7769 91.9443 21.7627 91.7823C21.753 91.6718 21.7504 91.5449 21.75 91.413L21.75 91.3463L21.7615 88.3727C21.7636 87.8301 21.7649 87.4756 21.8213 87.1255C21.8713 86.8153 21.9534 86.5112 22.0664 86.218C22.1938 85.8871 22.3711 85.5801 22.6425 85.1102L26.5649 78.3165C26.569 78.3091 26.5732 78.3018 26.5775 78.2946L27.6955 76.3581C28.2423 75.4111 29.3274 74.9125 30.4022 75.1144C31.6582 75.3504 32.7963 76.0074 33.6287 76.9772C34.3409 77.807 34.4517 78.9961 33.9049 79.9431ZM28.9946 77.1081C29.223 76.7125 29.6762 76.5042 30.1252 76.5886C31.046 76.7616 31.8803 77.2433 32.4905 77.9542C32.788 78.3008 32.8342 78.7975 32.6058 79.1931L32.0626 80.1341C31.1253 79.0593 29.8507 78.3234 28.4513 78.0491L28.9946 77.1081ZM27.6436 79.448C29.0924 79.5733 30.4221 80.341 31.2549 81.533L27.5823 87.8941C27.2716 88.4323 27.154 88.6317 27.0137 88.8054C26.8817 88.9689 26.733 89.1181 26.57 89.2508C26.3969 89.3918 26.1979 89.5101 25.661 89.8229L25.5564 89.8839C25.2999 89.5212 24.9628 89.2068 24.5534 88.9704C24.144 88.734 23.7031 88.5993 23.2608 88.5585L23.2613 88.4375C23.2637 87.8161 23.2667 87.5846 23.3022 87.3642C23.3357 87.1567 23.3906 86.9533 23.4661 86.7572C23.5464 86.5488 23.6603 86.3473 23.971 85.8092L27.6436 79.448ZM23.2549 90.0697L23.2504 91.2273L24.2506 90.6446C24.1283 90.4982 23.9786 90.3706 23.8034 90.2695C23.6283 90.1683 23.4428 90.1025 23.2549 90.0697Z" fill="#5F5F6A"/>
<path d="M29.5235 137.862C29.7306 137.503 29.6077 137.045 29.249 136.837C28.8903 136.63 28.4316 136.753 28.2245 137.112L25.1533 142.431C24.9462 142.79 25.0691 143.249 25.4278 143.456C25.7865 143.663 26.2452 143.54 26.4523 143.181L29.5235 137.862Z" fill="#5F5F6A"/>
<path fill-rule="evenodd" clip-rule="evenodd" d="M33.9049 135.943C32.2205 138.86 30.5363 141.778 28.8519 144.695C28.5806 145.165 28.4034 145.472 28.1806 145.748C27.9831 145.992 27.7608 146.216 27.5172 146.414C27.2422 146.638 26.9359 146.816 26.467 147.089L25.6405 147.571L25.6341 147.575L23.991 148.532C23.8245 148.629 23.6581 148.726 23.5136 148.793C23.3662 148.862 23.1285 148.957 22.8451 148.927C22.4992 148.891 22.1849 148.71 21.9809 148.428C21.8138 148.197 21.7769 147.944 21.7627 147.782C21.753 147.672 21.7504 147.545 21.75 147.413L21.75 147.346L21.7615 144.373C21.7636 143.83 21.7649 143.476 21.8213 143.125C21.8713 142.815 21.9534 142.511 22.0664 142.218C22.1938 141.887 22.3711 141.58 22.6425 141.11C24.3269 138.193 26.0112 135.275 27.6955 132.358C28.2423 131.411 29.3274 130.912 30.4022 131.114C31.6582 131.35 32.7963 132.007 33.6287 132.977C34.3409 133.807 34.4517 134.996 33.9049 135.943ZM28.9946 133.108C29.223 132.713 29.6762 132.504 30.1252 132.589C31.046 132.762 31.8803 133.243 32.4905 133.954C32.788 134.301 32.8342 134.797 32.6058 135.193L32.0626 136.134C31.1253 135.059 29.8507 134.323 28.4513 134.049L28.9946 133.108ZM27.6436 135.448C29.0924 135.573 30.4221 136.341 31.2549 137.533L27.5823 143.894C27.2716 144.432 27.154 144.632 27.0137 144.805C26.8817 144.969 26.733 145.118 26.57 145.251C26.3969 145.392 26.1979 145.51 25.661 145.823L25.5564 145.884C25.2999 145.521 24.9628 145.207 24.5534 144.97C24.144 144.734 23.7031 144.599 23.2608 144.559L23.2613 144.437C23.2637 143.816 23.2667 143.585 23.3022 143.364C23.3357 143.157 23.3906 142.953 23.4661 142.757C23.5464 142.549 23.6603 142.347 23.971 141.809L27.6436 135.448ZM23.2549 146.07L23.2504 147.227L24.2506 146.645C24.1283 146.498 23.9786 146.371 23.8034 146.269C23.6283 146.168 23.4428 146.102 23.2549 146.07Z" fill="#5F5F6A"/>
<path d="M29.307 193.737C29.445 193.498 29.3631 193.192 29.124 193.054C28.8848 192.916 28.579 192.998 28.4409 193.237L25.3697 198.556C25.2317 198.796 25.3136 199.101 25.5527 199.239C25.7919 199.377 26.0977 199.296 26.2357 199.056L29.307 193.737Z" fill="#5F5F6A"/>
<path fill-rule="evenodd" clip-rule="evenodd" d="M33.6884 191.818L32.5692 193.756C32.566 193.762 32.5626 193.768 32.559 193.774L28.6431 200.557C28.3643 201.04 28.1964 201.331 27.9861 201.591C27.7995 201.822 27.5895 202.033 27.3593 202.22C27.0998 202.431 26.8095 202.601 26.3277 202.881L25.5147 203.355L25.5082 203.359L23.8707 204.313C23.6991 204.413 23.5418 204.504 23.408 204.567C23.2721 204.63 23.0853 204.701 22.8708 204.679C22.5956 204.65 22.3456 204.506 22.1833 204.282C22.0569 204.107 22.0249 203.91 22.0117 203.76C22.0029 203.659 22.0004 203.541 22 203.413L22 203.343L22.0077 201.338L22.0114 200.389C22.0136 199.832 22.0149 199.496 22.0681 199.165C22.1154 198.872 22.1929 198.585 22.2997 198.308C22.42 197.996 22.5879 197.705 22.8668 197.222L27.912 188.483C28.4057 187.628 29.3855 187.178 30.356 187.36C31.5561 187.586 32.6436 188.213 33.439 189.14C34.0821 189.889 34.1821 190.963 33.6884 191.818ZM28.778 188.983C29.0595 188.496 29.6181 188.239 30.1713 188.343C31.148 188.526 32.0329 189.037 32.6801 189.791C33.0468 190.218 33.1038 190.831 32.8223 191.318L32.0987 192.571C31.1103 191.297 29.6525 190.455 28.0544 190.236L28.778 188.983ZM27.5052 191.188C29.1429 191.278 30.6527 192.149 31.5495 193.523L27.7988 200.019C27.4918 200.551 27.3636 200.77 27.2082 200.962C27.0652 201.139 26.9043 201.301 26.7279 201.445C26.5361 201.601 26.3172 201.73 25.7868 202.039L25.4767 202.22C25.2296 201.805 24.876 201.445 24.4284 201.187C23.9809 200.929 23.4927 200.802 23.0099 200.795L23.0113 200.436C23.0136 199.823 23.016 199.568 23.0554 199.324C23.0916 199.1 23.151 198.88 23.2328 198.667C23.3217 198.437 23.4476 198.216 23.7545 197.684L27.5052 191.188ZM23.006 201.795L23.0003 203.254C22.9996 203.441 22.9999 203.562 23.0061 203.65C23.091 203.609 23.2046 203.543 23.3853 203.438L24.6126 202.723C24.4505 202.454 24.22 202.221 23.9284 202.053C23.6368 201.885 23.32 201.801 23.006 201.795Z" fill="#5F5F6A"/>
</svg>
