<svg width="56" height="224" viewBox="0 0 56 224" fill="none" xmlns="http://www.w3.org/2000/svg">
<path d="M24.5 22C23.1193 22 22 23.1193 22 24.5C22 25.8807 23.1193 27 24.5 27C25.8807 27 27 25.8807 27 24.5C27 23.1193 25.8807 22 24.5 22ZM24 24.5C24 24.2239 24.2239 24 24.5 24C24.7761 24 25 24.2239 25 24.5C25 24.7761 24.7761 25 24.5 25C24.2239 25 24 24.7761 24 24.5Z" fill="#5F5F6A"/>
<path d="M22.8734 33.1265C22.3853 32.6383 22.3853 31.8469 22.8734 31.3587L31.3587 22.8735C31.8469 22.3853 32.6383 22.3853 33.1265 22.8735C33.6146 23.3616 33.6146 24.1531 33.1265 24.6412L24.6412 33.1265C24.1531 33.6147 23.3616 33.6147 22.8734 33.1265Z" fill="#5F5F6A"/>
<path d="M29 31.5C29 30.1193 30.1193 29 31.5 29C32.8807 29 34 30.1193 34 31.5C34 32.8807 32.8807 34 31.5 34C30.1193 34 29 32.8807 29 31.5ZM31.5 31C31.2239 31 31 31.2239 31 31.5C31 31.7761 31.2239 32 31.5 32C31.7761 32 32 31.7761 32 31.5C32 31.2239 31.7761 31 31.5 31Z" fill="#5F5F6A"/>
<path d="M24.5 78C23.1193 78 22 79.1193 22 80.5C22 81.8807 23.1193 83 24.5 83C25.8807 83 27 81.8807 27 80.5C27 79.1193 25.8807 78 24.5 78ZM24 80.5C24 80.2239 24.2239 80 24.5 80C24.7761 80 25 80.2239 25 80.5C25 80.7761 24.7761 81 24.5 81C24.2239 81 24 80.7761 24 80.5Z" fill="#5F5F6A"/>
<path d="M23.0502 88.9497C22.6597 88.5592 22.6597 87.926 23.0502 87.5355L31.5355 79.0502C31.9261 78.6597 32.5592 78.6597 32.9497 79.0502C33.3403 79.4408 33.3403 80.0739 32.9497 80.4644L24.4645 88.9497C24.0739 89.3402 23.4408 89.3402 23.0502 88.9497Z" fill="#5F5F6A"/>
<path d="M29 87.5C29 86.1193 30.1193 85 31.5 85C32.8807 85 34 86.1193 34 87.5C34 88.8807 32.8807 90 31.5 90C30.1193 90 29 88.8807 29 87.5ZM31.5 87C31.2239 87 31 87.2239 31 87.5C31 87.7761 31.2239 88 31.5 88C31.7761 88 32 87.7761 32 87.5C32 87.2239 31.7761 87 31.5 87Z" fill="#5F5F6A"/>
<path d="M24.5 134.25C23.2574 134.25 22.25 135.257 22.25 136.5C22.25 137.743 23.2574 138.75 24.5 138.75C25.7426 138.75 26.75 137.743 26.75 136.5C26.75 135.257 25.7426 134.25 24.5 134.25ZM23.75 136.5C23.75 136.086 24.0858 135.75 24.5 135.75C24.9142 135.75 25.25 136.086 25.25 136.5C25.25 136.914 24.9142 137.25 24.5 137.25C24.0858 137.25 23.75 136.914 23.75 136.5Z" fill="#5F5F6A"/>
<path d="M23.227 144.773C22.9342 144.48 22.9342 144.005 23.227 143.712L31.7123 135.227C32.0052 134.934 32.4801 134.934 32.773 135.227C33.0659 135.52 33.0659 135.995 32.773 136.288L24.2877 144.773C23.9948 145.066 23.5199 145.066 23.227 144.773Z" fill="#5F5F6A"/>
<path d="M29.25 143.5C29.25 142.257 30.2574 141.25 31.5 141.25C32.7426 141.25 33.75 142.257 33.75 143.5C33.75 144.743 32.7426 145.75 31.5 145.75C30.2574 145.75 29.25 144.743 29.25 143.5ZM31.5 142.75C31.0858 142.75 30.75 143.086 30.75 143.5C30.75 143.914 31.0858 144.25 31.5 144.25C31.9142 144.25 32.25 143.914 32.25 143.5C32.25 143.086 31.9142 142.75 31.5 142.75Z" fill="#5F5F6A"/>
<path d="M24.5 190.5C23.3954 190.5 22.5 191.395 22.5 192.5C22.5 193.605 23.3954 194.5 24.5 194.5C25.6046 194.5 26.5 193.605 26.5 192.5C26.5 191.395 25.6046 190.5 24.5 190.5ZM23.5 192.5C23.5 191.948 23.9477 191.5 24.5 191.5C25.0523 191.5 25.5 191.948 25.5 192.5C25.5 193.052 25.0523 193.5 24.5 193.5C23.9477 193.5 23.5 193.052 23.5 192.5Z" fill="#5F5F6A"/>
<path d="M23.4038 200.596C23.2085 200.401 23.2085 200.084 23.4038 199.889L31.8891 191.404C32.0843 191.209 32.4009 191.209 32.5962 191.404C32.7914 191.599 32.7914 191.916 32.5962 192.111L24.1109 200.596C23.9156 200.791 23.599 200.791 23.4038 200.596Z" fill="#5F5F6A"/>
<path d="M29.5 199.5C29.5 198.395 30.3954 197.5 31.5 197.5C32.6046 197.5 33.5 198.395 33.5 199.5C33.5 200.605 32.6046 201.5 31.5 201.5C30.3954 201.5 29.5 200.605 29.5 199.5ZM31.5 198.5C30.9477 198.5 30.5 198.948 30.5 199.5C30.5 200.052 30.9477 200.5 31.5 200.5C32.0523 200.5 32.5 200.052 32.5 199.5C32.5 198.948 32.0523 198.5 31.5 198.5Z" fill="#5F5F6A"/>
</svg>
