<svg width="56" height="224" viewBox="0 0 56 224" fill="none" xmlns="http://www.w3.org/2000/svg">
<path d="M27.1427 19.1358C27.6999 18.9548 28.3001 18.9548 28.8573 19.1358C29.2204 19.2538 29.5227 19.4603 29.8158 19.7092C30.0969 19.9478 30.4149 20.2658 30.7959 20.6468L33.3322 23.1831H31.9853C31.3973 23.1831 30.8444 23.4404 30.4448 23.88L28.4665 26.0561C28.2164 26.3313 27.7836 26.3313 27.5335 26.0561L25.5552 23.88C25.1556 23.4404 24.6027 23.1831 24.0147 23.1831H22.6678L25.2041 20.6468C25.5851 20.2658 25.9031 19.9478 26.1842 19.7092C26.4773 19.4603 26.7796 19.2538 27.1427 19.1358Z" fill="#5F5F6A"/>
<path d="M21.659 24.1919L20.6468 25.2041C20.2658 25.5851 19.9477 25.9032 19.7092 26.1842C19.4603 26.4773 19.2538 26.7796 19.1358 27.1428C18.9547 27.6999 18.9547 28.3001 19.1358 28.8573C19.2538 29.2205 19.4603 29.5227 19.7092 29.8159C19.9477 30.0969 20.2658 30.4149 20.6468 30.7959L21.659 31.8082H24.0147C24.3024 31.8082 24.5893 31.6829 24.8088 31.4414L26.787 29.2653C27.4374 28.5499 28.5626 28.5499 29.213 29.2653L31.1912 31.4414C31.4107 31.6829 31.6976 31.8082 31.9853 31.8082H34.341L35.3532 30.7959C35.7342 30.4149 36.0523 30.0969 36.2908 29.8159C36.5397 29.5227 36.7462 29.2205 36.8642 28.8573C37.0453 28.3001 37.0453 27.6999 36.8642 27.1428C36.7462 26.7796 36.5397 26.4773 36.2908 26.1842C36.0523 25.9032 35.7342 25.5851 35.3532 25.2041L34.341 24.1919H31.9853C31.6976 24.1919 31.4107 24.3172 31.1912 24.5586L29.213 26.7347C28.5626 27.4501 27.4374 27.4501 26.787 26.7347L24.8088 24.5586C24.5893 24.3172 24.3024 24.1919 24.0147 24.1919H21.659Z" fill="#5F5F6A"/>
<path d="M33.3322 32.8169H31.9853C31.3973 32.8169 30.8444 32.5596 30.4448 32.12L28.4665 29.9439C28.2164 29.6687 27.7836 29.6687 27.5335 29.9439L25.5552 32.12C25.1556 32.5596 24.6027 32.8169 24.0147 32.8169H22.6678L25.2041 35.3532C25.5851 35.7342 25.9031 36.0523 26.1842 36.2909C26.4773 36.5397 26.7796 36.7463 27.1427 36.8643C27.6999 37.0453 28.3001 37.0453 28.8573 36.8643C29.2204 36.7463 29.5227 36.5397 29.8158 36.2909C30.0969 36.0523 30.4149 35.7343 30.7959 35.3532L33.3322 32.8169Z" fill="#5F5F6A"/>
<g opacity="0.5">
<path d="M33.4167 87.4873L34.6655 86.2386C35.449 85.455 35.8408 85.0632 35.9876 84.6114C36.1167 84.214 36.1167 83.786 35.9876 83.3886C35.8408 82.9368 35.449 82.545 34.6655 81.7615L33.4168 80.5128H31.9085C31.7 80.5128 31.4839 80.6032 31.3128 80.7915L29.3728 82.9255C28.6368 83.7351 27.3636 83.7351 26.6277 82.9255L24.6876 80.7915C24.5165 80.6032 24.3004 80.5128 24.0919 80.5128H22.5837L21.335 81.7615C20.5514 82.545 20.1596 82.9368 20.0129 83.3886C19.8837 83.786 19.8837 84.214 20.0129 84.6114C20.1596 85.0632 20.5514 85.455 21.335 86.2385L22.5837 87.4873H24.0919C24.3004 87.4873 24.5165 87.3968 24.6876 87.2086L26.6277 85.0745C27.3636 84.265 28.6368 84.265 29.3728 85.0745L31.3128 87.2086C31.4839 87.3968 31.7 87.4873 31.9085 87.4873H33.4167Z" fill="#5F5F6A"/>
<path d="M31.9085 79.0288H31.9328L30.2388 77.3348C29.4552 76.5512 29.0634 76.1594 28.6117 76.0126C28.2143 75.8835 27.7862 75.8835 27.3888 76.0126C26.937 76.1594 26.5452 76.5512 25.7617 77.3348L24.0677 79.0288H24.0919C24.7421 79.0288 25.3496 79.3135 25.7857 79.7932L27.7257 81.9273C27.8729 82.0892 28.1275 82.0892 28.2747 81.9273L30.2148 79.7932C30.6509 79.3135 31.2583 79.0288 31.9085 79.0288Z" fill="#5F5F6A"/>
<path d="M31.9328 88.9713H31.9085C31.2583 88.9713 30.6509 88.6865 30.2148 88.2068L28.2747 86.0728C28.1275 85.9109 27.8729 85.9109 27.7257 86.0728L25.7857 88.2068C25.3496 88.6865 24.7421 88.9713 24.0919 88.9713H24.0677L25.7617 90.6652C26.5452 91.4488 26.937 91.8406 27.3888 91.9874C27.7862 92.1165 28.2143 92.1165 28.6117 91.9874C29.0634 91.8406 29.4552 91.4488 30.2388 90.6652L31.9328 88.9713Z" fill="#5F5F6A"/>
</g>
<path fill-rule="evenodd" clip-rule="evenodd" d="M35.7511 80.7489C36.1113 81.1091 36.4422 81.4399 36.6962 81.7391C36.97 82.0616 37.2405 82.4436 37.3985 82.93C37.6245 83.6255 37.6245 84.3746 37.3985 85.07C37.2405 85.5564 36.97 85.9384 36.6962 86.261C36.4422 86.5601 36.1113 86.891 35.7511 87.2512L31.251 91.7513C30.8908 92.1115 30.5599 92.4424 30.2608 92.6964C29.9382 92.9702 29.5562 93.2407 29.0698 93.3987C28.3744 93.6247 27.6253 93.6247 26.9298 93.3987C26.4434 93.2407 26.0614 92.9702 25.7389 92.6964C25.4397 92.4424 25.1089 92.1115 24.7486 91.7513L20.2486 87.2512C19.8883 86.891 19.5574 86.5602 19.3034 86.261C19.0296 85.9384 18.7592 85.5564 18.6011 85.07C18.3752 84.3746 18.3752 83.6255 18.6011 82.93C18.7592 82.4436 19.0296 82.0616 19.3034 81.7391C19.5574 81.4399 19.8883 81.1091 20.2486 80.7488L24.7486 76.2488C25.1089 75.8885 25.4397 75.5576 25.7389 75.3036C26.0614 75.0298 26.4434 74.7594 26.9298 74.6013C27.6253 74.3753 28.3744 74.3753 29.0698 74.6013C29.5562 74.7594 29.9382 75.0298 30.2608 75.3036C30.5599 75.5576 30.8908 75.8885 31.251 76.2487L35.7511 80.7489ZM34.665 86.2386L33.4163 87.4873H31.9081C31.6996 87.4873 31.4835 87.3968 31.3124 87.2086L29.3724 85.0745C28.6364 84.265 27.3632 84.265 26.6273 85.0745L24.6872 87.2086C24.5161 87.3968 24.3 87.4873 24.0915 87.4873H22.5833L21.3346 86.2386C20.551 85.455 20.1592 85.0632 20.0124 84.6114C19.8833 84.214 19.8833 83.786 20.0124 83.3886C20.1592 82.9368 20.551 82.545 21.3346 81.7615L22.5833 80.5128H24.0915C24.3 80.5128 24.5161 80.6032 24.6872 80.7915L26.6273 82.9255C27.3632 83.7351 28.6364 83.7351 29.3724 82.9255L31.3124 80.7915C31.4835 80.6032 31.6996 80.5128 31.9081 80.5128H33.4163L34.665 81.7615C35.4486 82.545 35.8404 82.9368 35.9872 83.3886C36.1163 83.786 36.1163 84.214 35.9872 84.6114C35.8404 85.0632 35.4486 85.455 34.665 86.2386ZM31.9324 79.0288H31.9081C31.2579 79.0288 30.6505 79.3135 30.2144 79.7932L28.2743 81.9273C28.1271 82.0892 27.8725 82.0892 27.7253 81.9273L25.7853 79.7932C25.3492 79.3135 24.7417 79.0288 24.0915 79.0288H24.0672L25.7613 77.3348C26.5448 76.5512 26.9366 76.1594 27.3884 76.0126C27.7858 75.8835 28.2138 75.8835 28.6112 76.0126C29.063 76.1594 29.4548 76.5512 30.2384 77.3348L31.9324 79.0288ZM31.9081 88.9713H31.9323L30.2384 90.6652C29.4548 91.4488 29.063 91.8406 28.6112 91.9874C28.2138 92.1165 27.7858 92.1165 27.3884 91.9874C26.9366 91.8406 26.5448 91.4488 25.7613 90.6652L24.0673 88.9713H24.0915C24.7417 88.9713 25.3492 88.6865 25.7853 88.2068L27.7253 86.0728C27.8725 85.9109 28.1271 85.9109 28.2743 86.0728L30.2144 88.2068C30.6505 88.6865 31.2579 88.9713 31.9081 88.9713Z" fill="#5F5F6A"/>
<path fill-rule="evenodd" clip-rule="evenodd" d="M35.7774 136.738C36.1389 137.099 36.4709 137.431 36.7257 137.732C37.0004 138.055 37.2718 138.438 37.4304 138.926C37.6571 139.624 37.6571 140.376 37.4304 141.074C37.2718 141.562 37.0004 141.945 36.7257 142.268C36.4709 142.569 36.1389 142.901 35.7774 143.262L31.2624 147.777C30.901 148.138 30.569 148.47 30.2689 148.725C29.9452 149 29.562 149.271 29.0739 149.43C28.3762 149.657 27.6246 149.657 26.9268 149.43C26.4388 149.271 26.0555 149 25.7319 148.725C25.4317 148.47 25.0998 148.138 24.7384 147.777L20.2234 143.262C19.8619 142.901 19.5299 142.569 19.2751 142.268C19.0003 141.945 18.729 141.562 18.5704 141.074C18.3437 140.376 18.3437 139.624 18.5704 138.926C18.729 138.438 19.0003 138.055 19.2751 137.732C19.5299 137.431 19.8619 137.099 20.2234 136.738L24.7384 132.223C25.0998 131.862 25.4317 131.53 25.7319 131.275C26.0555 131 26.4388 130.729 26.9268 130.57C27.6246 130.343 28.3762 130.343 29.0739 130.57C29.562 130.729 29.9452 131 30.2689 131.275C30.569 131.53 30.9009 131.861 31.2623 132.223L35.7774 136.738ZM33.4349 136.501L34.6878 137.754C35.474 138.54 35.867 138.933 36.0143 139.387C36.1439 139.785 36.1439 140.215 36.0143 140.613C35.867 141.067 35.474 141.46 34.6878 142.246L33.4349 143.499H31.9217C31.7125 143.499 31.4957 143.408 31.324 143.219L29.3775 141.078C28.6391 140.266 27.3617 140.266 26.6233 141.078L24.6768 143.219C24.5051 143.408 24.2883 143.499 24.0791 143.499H22.5659L21.313 142.246C20.5268 141.46 20.1337 141.067 19.9865 140.613C19.8569 140.215 19.8569 139.785 19.9865 139.387C20.1337 138.933 20.5268 138.54 21.313 137.754L22.5659 136.501H24.0791C24.2883 136.501 24.5051 136.592 24.6768 136.781L26.6233 138.922C27.3617 139.734 28.6391 139.734 29.3775 138.922L31.324 136.781C31.4957 136.592 31.7125 136.501 31.9217 136.501H33.4349ZM31.946 135.012H31.9217C31.2693 135.012 30.6599 135.298 30.2223 135.779L28.2758 137.92C28.1281 138.083 27.8726 138.083 27.725 137.92L25.7785 135.779C25.3409 135.298 24.7315 135.012 24.0791 135.012H24.0548L25.7544 133.313C26.5406 132.526 26.9337 132.133 27.3869 131.986C27.7856 131.857 28.2151 131.857 28.6139 131.986C29.0671 132.133 29.4602 132.526 30.2464 133.313L31.946 135.012ZM31.9217 144.988H31.946L30.2464 146.687C29.4602 147.474 29.0671 147.867 28.6139 148.014C28.2151 148.143 27.7856 148.143 27.3869 148.014C26.9337 147.867 26.5406 147.474 25.7544 146.687L24.0548 144.988H24.0791C24.7315 144.988 25.3409 144.702 25.7785 144.221L27.725 142.08C27.8727 141.917 28.1281 141.917 28.2758 142.08L30.2223 144.221C30.6599 144.702 31.2693 144.988 31.9217 144.988Z" fill="#5F5F6A"/>
<path fill-rule="evenodd" clip-rule="evenodd" d="M35.3319 193.112C35.6976 193.478 36.0132 193.794 36.2519 194.075C36.5038 194.372 36.7271 194.694 36.8559 195.09C37.048 195.682 37.048 196.318 36.8559 196.91C36.7271 197.306 36.5038 197.628 36.2519 197.925C36.0132 198.206 35.6977 198.522 35.3319 198.888L30.8875 203.332C30.5218 203.698 30.2062 204.013 29.9251 204.252C29.6284 204.504 29.306 204.727 28.9097 204.856C28.3184 205.048 27.6816 205.048 27.0903 204.856C26.694 204.727 26.3716 204.504 26.0749 204.252C25.7938 204.013 25.4783 203.698 25.1125 203.332L20.6681 198.888C20.3023 198.522 19.9868 198.206 19.7481 197.925C19.4962 197.628 19.2729 197.306 19.1441 196.91C18.952 196.318 18.952 195.682 19.1441 195.09C19.2729 194.694 19.4962 194.372 19.7481 194.075C19.9868 193.794 20.3023 193.478 20.6681 193.112L25.1125 188.668C25.4782 188.302 25.7938 187.987 26.0749 187.748C26.3716 187.496 26.694 187.273 27.0903 187.144C27.6816 186.952 28.3184 186.952 28.9097 187.144C29.306 187.273 29.6284 187.496 29.9251 187.748C30.2062 187.987 30.5217 188.302 30.8875 188.668L35.3319 193.112ZM32.146 191.314L30.2204 189.389C29.4432 188.612 29.0546 188.223 28.6065 188.077C28.2123 187.949 27.7877 187.949 27.3935 188.077C26.9454 188.223 26.5568 188.612 25.7796 189.389L23.854 191.314H24.1234C24.6953 191.314 25.2331 191.565 25.6219 191.992L27.5462 194.109C27.7895 194.377 28.2105 194.377 28.4538 194.109L30.3781 191.992C30.7669 191.565 31.3047 191.314 31.8766 191.314H32.146ZM22.8727 192.296H24.1234C24.4032 192.296 24.6822 192.418 24.8958 192.652L26.8201 194.769C27.4528 195.465 28.5472 195.465 29.1799 194.769L31.1042 192.652C31.3178 192.418 31.5968 192.296 31.8766 192.296H33.1273L34.6112 193.78C35.3884 194.557 35.7771 194.945 35.9227 195.394C36.0507 195.788 36.0507 196.212 35.9227 196.606C35.7771 197.055 35.3884 197.443 34.6112 198.22L33.1273 199.704H31.8766C31.5968 199.704 31.3178 199.583 31.1042 199.348L29.1799 197.231C28.5472 196.535 27.4528 196.535 26.8201 197.231L24.8958 199.348C24.6822 199.583 24.4032 199.704 24.1234 199.704H22.8727L21.3888 198.22C20.6116 197.443 20.2229 197.055 20.0773 196.606C19.9493 196.212 19.9493 195.788 20.0773 195.394C20.2229 194.945 20.6116 194.557 21.3888 193.78L22.8727 192.296ZM25.7796 202.611L23.854 200.686H24.1234C24.6953 200.686 25.2331 200.435 25.6219 200.008L27.5462 197.891C27.7895 197.623 28.2105 197.623 28.4538 197.891L30.3781 200.008C30.7669 200.435 31.3047 200.686 31.8766 200.686H32.146L30.2204 202.611C29.4432 203.388 29.0546 203.777 28.6065 203.923C28.2123 204.051 27.7877 204.051 27.3935 203.923C26.9454 203.777 26.5568 203.388 25.7796 202.611Z" fill="#5F5F6A"/>
</svg>
