<svg width="56" height="224" viewBox="0 0 56 224" fill="none" xmlns="http://www.w3.org/2000/svg">
<path d="M31.5357 30.7778C31.5357 29.4077 32.6135 28.25 34 28.25C35.3865 28.25 36.4643 29.4077 36.4643 30.7778V31.5102C36.526 31.5336 36.5874 31.5611 36.6484 31.5933C37.0335 31.7968 37.3415 32.1187 37.533 32.5084C37.6625 32.7719 37.7092 33.0432 37.7302 33.3098C37.75 33.5619 37.75 33.8671 37.75 34.217V34.8941C37.75 35.244 37.75 35.5492 37.7302 35.8013C37.7092 36.0679 37.6625 36.3392 37.533 36.6027C37.3415 36.9924 37.0335 37.3143 36.6484 37.5178C36.3851 37.6569 36.1136 37.7069 35.8506 37.7292C35.6042 37.75 35.307 37.75 34.9716 37.75H33.0284C32.693 37.75 32.3958 37.75 32.1494 37.7292C31.8864 37.7069 31.6149 37.6569 31.3516 37.5178C30.9665 37.3143 30.6585 36.9924 30.467 36.6027C30.3375 36.3392 30.2908 36.0679 30.2698 35.8013C30.25 35.5492 30.25 35.244 30.25 34.8941V34.217C30.25 33.8671 30.25 33.5619 30.2698 33.3098C30.2908 33.0432 30.3375 32.7719 30.467 32.5084C30.6585 32.1187 30.9665 31.7968 31.3516 31.5933C31.4126 31.5611 31.474 31.5336 31.5357 31.5102V30.7778ZM33.0357 30.7778V31.3611H34.9643V30.7778C34.9643 30.1842 34.5071 29.75 34 29.75C33.4929 29.75 33.0357 30.1842 33.0357 30.7778ZM34 33.75C33.5858 33.75 33.25 34.0858 33.25 34.5V35C33.25 35.4142 33.5858 35.75 34 35.75C34.4142 35.75 34.75 35.4142 34.75 35V34.5C34.75 34.0858 34.4142 33.75 34 33.75Z" fill="#5F5F6A"/>
<path d="M30.633 18.25H25.367C24.2749 18.25 23.4094 18.25 22.7117 18.307C21.9983 18.3653 21.3947 18.4869 20.8435 18.7677C19.9498 19.2231 19.2231 19.9498 18.7677 20.8435C18.4869 21.3947 18.3653 21.9983 18.307 22.7117C18.25 23.4094 18.25 24.2748 18.25 25.367V30.633C18.25 31.7251 18.25 32.5906 18.307 33.2883C18.3653 34.0017 18.4869 34.6053 18.7677 35.1565C19.2231 36.0502 19.9498 36.7769 20.8435 37.2323C21.3947 37.5131 21.9983 37.6347 22.7117 37.693C23.4094 37.75 24.2748 37.75 25.367 37.75H28C28.4142 37.75 28.75 37.4142 28.75 37C28.75 36.5858 28.4142 36.25 28 36.25H25.4C24.2675 36.25 23.4633 36.2494 22.8339 36.198C22.2133 36.1473 21.829 36.0509 21.5245 35.8958C20.913 35.5842 20.4158 35.087 20.1042 34.4755C19.9491 34.171 19.8527 33.7867 19.802 33.1661C19.7506 32.5367 19.75 31.7325 19.75 30.6V25.4C19.75 24.2675 19.7506 23.4633 19.802 22.8339C19.8527 22.2133 19.9491 21.829 20.1042 21.5245C20.4158 20.913 20.913 20.4158 21.5245 20.1042C21.829 19.9491 22.2133 19.8527 22.8339 19.802C23.4633 19.7506 24.2675 19.75 25.4 19.75H30.6C31.7325 19.75 32.5367 19.7506 33.1661 19.802C33.7867 19.8527 34.171 19.9491 34.4755 20.1042C35.087 20.4158 35.5842 20.913 35.8958 21.5245C36.0509 21.829 36.1473 22.2133 36.198 22.8339C36.2494 23.4633 36.25 24.2675 36.25 25.4V26.8C36.25 27.2142 36.5858 27.55 37 27.55C37.4142 27.55 37.75 27.2142 37.75 26.8V25.367C37.75 24.2748 37.75 23.4094 37.693 22.7117C37.6347 21.9983 37.5131 21.3947 37.2323 20.8435C36.7769 19.9498 36.0502 19.2231 35.1565 18.7677C34.6053 18.4869 34.0017 18.3653 33.2883 18.307C32.5906 18.25 31.7251 18.25 30.633 18.25Z" fill="#5F5F6A"/>
<path d="M22 21.25C21.5858 21.25 21.25 21.5858 21.25 22C21.25 22.4142 21.5858 22.75 22 22.75H34C34.4142 22.75 34.75 22.4142 34.75 22C34.75 21.5858 34.4142 21.25 34 21.25H22Z" fill="#5F5F6A"/>
<path d="M21.25 25C21.25 24.5858 21.5858 24.25 22 24.25H30.5C30.9142 24.25 31.25 24.5858 31.25 25C31.25 25.4142 30.9142 25.75 30.5 25.75H22C21.5858 25.75 21.25 25.4142 21.25 25Z" fill="#5F5F6A"/>
<path d="M22 27.25C21.5858 27.25 21.25 27.5858 21.25 28C21.25 28.4142 21.5858 28.75 22 28.75H22.5C22.9142 28.75 23.25 28.4142 23.25 28C23.25 27.5858 22.9142 27.25 22.5 27.25H22Z" fill="#5F5F6A"/>
<path d="M21.25 31C21.25 30.5858 21.5858 30.25 22 30.25H22.5C22.9142 30.25 23.25 30.5858 23.25 31C23.25 31.4142 22.9142 31.75 22.5 31.75H22C21.5858 31.75 21.25 31.4142 21.25 31Z" fill="#5F5F6A"/>
<path d="M25 27.25C24.5858 27.25 24.25 27.5858 24.25 28C24.25 28.4142 24.5858 28.75 25 28.75H30.5C30.9142 28.75 31.25 28.4142 31.25 28C31.25 27.5858 30.9142 27.25 30.5 27.25H25Z" fill="#5F5F6A"/>
<path d="M24.25 31C24.25 30.5858 24.5858 30.25 25 30.25H28.5C28.9142 30.25 29.25 30.5858 29.25 31C29.25 31.4142 28.9142 31.75 28.5 31.75H25C24.5858 31.75 24.25 31.4142 24.25 31Z" fill="#5F5F6A"/>
<path d="M22 33.25C21.5858 33.25 21.25 33.5858 21.25 34C21.25 34.4142 21.5858 34.75 22 34.75H28C28.4142 34.75 28.75 34.4142 28.75 34C28.75 33.5858 28.4142 33.25 28 33.25L22 33.25Z" fill="#5F5F6A"/>
<g opacity="0.5">
<path d="M34.75 90.5C34.75 90.0858 34.4142 89.75 34 89.75C33.5858 89.75 33.25 90.0858 33.25 90.5V91C33.25 91.4142 33.5858 91.75 34 91.75C34.4142 91.75 34.75 91.4142 34.75 91V90.5Z" fill="#5F5F6A"/>
<path d="M34 84.25C32.6135 84.25 31.5357 85.4077 31.5357 86.7778V87.5102C31.474 87.5336 31.4126 87.5611 31.3516 87.5933C30.9665 87.7968 30.6585 88.1187 30.467 88.5084C30.3375 88.7719 30.2908 89.0432 30.2698 89.3098C30.25 89.5619 30.25 89.8671 30.25 90.217V90.8941C30.25 91.244 30.25 91.5492 30.2698 91.8013C30.2908 92.0679 30.3375 92.3392 30.467 92.6027C30.6585 92.9924 30.9665 93.3143 31.3516 93.5178C31.6149 93.6569 31.8864 93.7069 32.1494 93.7292C32.3958 93.75 32.693 93.75 33.0284 93.75H34.9716C35.307 93.75 35.6042 93.75 35.8506 93.7292C36.1136 93.7069 36.3851 93.6569 36.6484 93.5178C37.0335 93.3143 37.3415 92.9924 37.533 92.6027C37.6625 92.3392 37.7092 92.0679 37.7302 91.8013C37.75 91.5492 37.75 91.244 37.75 90.8941V90.217C37.75 89.8671 37.75 89.5619 37.7302 89.3098C37.7092 89.0432 37.6625 88.7719 37.533 88.5084C37.3415 88.1187 37.0335 87.7968 36.6484 87.5933C36.5874 87.5611 36.526 87.5336 36.4643 87.5102V86.7778C36.4643 85.4077 35.3865 84.25 34 84.25ZM33.0357 87.3611V86.7778C33.0357 86.1842 33.4929 85.75 34 85.75C34.5071 85.75 34.9643 86.1842 34.9643 86.7778V87.3611H33.0357ZM32.0524 88.9196C32.0642 88.9133 32.1102 88.8906 32.276 88.8766C32.4514 88.8617 32.6843 88.8611 33.0571 88.8611H34.9429C35.3157 88.8611 35.5486 88.8617 35.724 88.8766C35.8898 88.8906 35.9358 88.9133 35.9476 88.9196C36.0463 88.9717 36.1317 89.0578 36.1867 89.1699C36.1974 89.1916 36.2208 89.2496 36.2348 89.4276C36.2495 89.6137 36.25 89.8591 36.25 90.2444V90.8667C36.25 91.252 36.2495 91.4974 36.2348 91.6835C36.2208 91.8615 36.1974 91.9196 36.1867 91.9413C36.1317 92.0533 36.0463 92.1394 35.9476 92.1916C35.9358 92.1978 35.8898 92.2205 35.724 92.2345C35.5486 92.2494 35.3157 92.25 34.9429 92.25H33.0571C32.6843 92.25 32.4514 92.2494 32.276 92.2345C32.1102 92.2205 32.0642 92.1978 32.0524 92.1916C31.9537 92.1394 31.8683 92.0533 31.8133 91.9413C31.8026 91.9196 31.7792 91.8615 31.7652 91.6835C31.7505 91.4974 31.75 91.252 31.75 90.8667V90.2444C31.75 89.8591 31.7505 89.6137 31.7652 89.4276C31.7792 89.2496 31.8026 89.1916 31.8133 89.1699C31.8684 89.0578 31.9537 88.9717 32.0524 88.9196Z" fill="#5F5F6A"/>
</g>
<path d="M30.633 74.25H25.367C24.2749 74.25 23.4094 74.25 22.7117 74.307C21.9983 74.3653 21.3947 74.4869 20.8435 74.7677C19.9498 75.2231 19.2231 75.9498 18.7677 76.8435C18.4869 77.3947 18.3653 77.9983 18.307 78.7117C18.25 79.4094 18.25 80.2748 18.25 81.367V86.633C18.25 87.7251 18.25 88.5906 18.307 89.2883C18.3653 90.0017 18.4869 90.6053 18.7677 91.1565C19.2231 92.0502 19.9498 92.7769 20.8435 93.2323C21.3947 93.5131 21.9983 93.6347 22.7117 93.693C23.4094 93.75 24.2748 93.75 25.367 93.75H28C28.4142 93.75 28.75 93.4142 28.75 93C28.75 92.5858 28.4142 92.25 28 92.25H25.4C24.2675 92.25 23.4633 92.2494 22.8339 92.198C22.2133 92.1473 21.829 92.0509 21.5245 91.8958C20.913 91.5842 20.4158 91.087 20.1042 90.4755C19.9491 90.171 19.8527 89.7867 19.802 89.1661C19.7506 88.5367 19.75 87.7325 19.75 86.6V81.4C19.75 80.2675 19.7506 79.4633 19.802 78.8339C19.8527 78.2133 19.9491 77.829 20.1042 77.5245C20.4158 76.913 20.913 76.4158 21.5245 76.1042C21.829 75.9491 22.2133 75.8527 22.8339 75.802C23.4633 75.7506 24.2675 75.75 25.4 75.75H30.6C31.7325 75.75 32.5367 75.7506 33.1661 75.802C33.7867 75.8527 34.171 75.9491 34.4755 76.1042C35.087 76.4158 35.5842 76.913 35.8958 77.5245C36.0509 77.829 36.1473 78.2133 36.198 78.8339C36.2494 79.4633 36.25 80.2675 36.25 81.4V82.8C36.25 83.2142 36.5858 83.55 37 83.55C37.4142 83.55 37.75 83.2142 37.75 82.8V81.367C37.75 80.2748 37.75 79.4094 37.693 78.7117C37.6347 77.9983 37.5131 77.3947 37.2323 76.8435C36.7769 75.9498 36.0502 75.2231 35.1565 74.7677C34.6053 74.4869 34.0017 74.3653 33.2883 74.307C32.5906 74.25 31.7251 74.25 30.633 74.25Z" fill="#5F5F6A"/>
<path d="M22 77.25C21.5858 77.25 21.25 77.5858 21.25 78C21.25 78.4142 21.5858 78.75 22 78.75H34C34.4142 78.75 34.75 78.4142 34.75 78C34.75 77.5858 34.4142 77.25 34 77.25H22Z" fill="#5F5F6A"/>
<path d="M21.25 81C21.25 80.5858 21.5858 80.25 22 80.25H30.5C30.9142 80.25 31.25 80.5858 31.25 81C31.25 81.4142 30.9142 81.75 30.5 81.75H22C21.5858 81.75 21.25 81.4142 21.25 81Z" fill="#5F5F6A"/>
<path d="M22 83.25C21.5858 83.25 21.25 83.5858 21.25 84C21.25 84.4142 21.5858 84.75 22 84.75H22.5C22.9142 84.75 23.25 84.4142 23.25 84C23.25 83.5858 22.9142 83.25 22.5 83.25H22Z" fill="#5F5F6A"/>
<path d="M21.25 87C21.25 86.5858 21.5858 86.25 22 86.25H22.5C22.9142 86.25 23.25 86.5858 23.25 87C23.25 87.4142 22.9142 87.75 22.5 87.75H22C21.5858 87.75 21.25 87.4142 21.25 87Z" fill="#5F5F6A"/>
<path d="M25 83.25C24.5858 83.25 24.25 83.5858 24.25 84C24.25 84.4142 24.5858 84.75 25 84.75H30.5C30.9142 84.75 31.25 84.4142 31.25 84C31.25 83.5858 30.9142 83.25 30.5 83.25H25Z" fill="#5F5F6A"/>
<path d="M24.25 87C24.25 86.5858 24.5858 86.25 25 86.25H28.5C28.9142 86.25 29.25 86.5858 29.25 87C29.25 87.4142 28.9142 87.75 28.5 87.75H25C24.5858 87.75 24.25 87.4142 24.25 87Z" fill="#5F5F6A"/>
<path d="M22 89.25C21.5858 89.25 21.25 89.5858 21.25 90C21.25 90.4142 21.5858 90.75 22 90.75H28C28.4142 90.75 28.75 90.4142 28.75 90C28.75 89.5858 28.4142 89.25 28 89.25L22 89.25Z" fill="#5F5F6A"/>
<path d="M25.367 130.25H30.633C31.7251 130.25 32.5906 130.25 33.2883 130.307C34.0017 130.365 34.6053 130.487 35.1565 130.768C36.0502 131.223 36.7769 131.95 37.2323 132.844C37.5131 133.395 37.6347 133.998 37.693 134.712C37.75 135.409 37.75 136.275 37.75 137.367V138.8C37.75 139.214 37.4142 139.55 37 139.55C36.5858 139.55 36.25 139.214 36.25 138.8V137.4C36.25 136.268 36.2494 135.463 36.198 134.834C36.1473 134.213 36.0509 133.829 35.8958 133.525C35.5842 132.913 35.087 132.416 34.4755 132.104C34.171 131.949 33.7867 131.853 33.1661 131.802C32.5367 131.751 31.7325 131.75 30.6 131.75H25.4C24.2675 131.75 23.4633 131.751 22.8339 131.802C22.2133 131.853 21.829 131.949 21.5245 132.104C20.913 132.416 20.4158 132.913 20.1042 133.525C19.9491 133.829 19.8527 134.213 19.802 134.834C19.7506 135.463 19.75 136.268 19.75 137.4V142.6C19.75 143.732 19.7506 144.537 19.802 145.166C19.8527 145.787 19.9491 146.171 20.1042 146.475C20.4158 147.087 20.913 147.584 21.5245 147.896C21.829 148.051 22.2133 148.147 22.8339 148.198C23.4633 148.249 24.2675 148.25 25.4 148.25H28C28.4142 148.25 28.75 148.586 28.75 149C28.75 149.414 28.4142 149.75 28 149.75H25.367C24.2748 149.75 23.4094 149.75 22.7117 149.693C21.9983 149.635 21.3947 149.513 20.8435 149.232C19.9498 148.777 19.2231 148.05 18.7677 147.156C18.4869 146.605 18.3653 146.002 18.307 145.288C18.25 144.591 18.25 143.725 18.25 142.633V137.367C18.25 136.275 18.25 135.409 18.307 134.712C18.3653 133.998 18.4869 133.395 18.7677 132.844C19.2231 131.95 19.9498 131.223 20.8435 130.768C21.3947 130.487 21.9983 130.365 22.7117 130.307C23.4094 130.25 24.2749 130.25 25.367 130.25Z" fill="#5F5F6A"/>
<path d="M31.5357 142.778C31.5357 141.408 32.6135 140.25 34 140.25C35.3865 140.25 36.4643 141.408 36.4643 142.778V143.51C36.526 143.534 36.5874 143.561 36.6484 143.593C37.0335 143.797 37.3415 144.119 37.533 144.508C37.6625 144.772 37.7092 145.043 37.7302 145.31C37.75 145.562 37.75 145.867 37.75 146.217V146.894C37.75 147.244 37.75 147.549 37.7302 147.801C37.7092 148.068 37.6625 148.339 37.533 148.603C37.3415 148.992 37.0335 149.314 36.6484 149.518C36.3851 149.657 36.1136 149.707 35.8506 149.729C35.6042 149.75 35.307 149.75 34.9716 149.75H33.0284C32.693 149.75 32.3958 149.75 32.1494 149.729C31.8864 149.707 31.6149 149.657 31.3516 149.518C30.9665 149.314 30.6585 148.992 30.467 148.603C30.3375 148.339 30.2908 148.068 30.2698 147.801C30.25 147.549 30.25 147.244 30.25 146.894V146.217C30.25 145.867 30.25 145.562 30.2698 145.31C30.2908 145.043 30.3375 144.772 30.467 144.508C30.6585 144.119 30.9665 143.797 31.3516 143.593C31.4126 143.561 31.474 143.534 31.5357 143.51V142.778ZM33.0357 143.361C33.0428 143.361 33.05 143.361 33.0571 143.361L34.9643 143.361V142.778C34.9643 142.184 34.5071 141.75 34 141.75C33.4929 141.75 33.0357 142.184 33.0357 142.778V143.361ZM32.276 144.877C32.1102 144.891 32.0642 144.913 32.0524 144.92C31.9537 144.972 31.8683 145.058 31.8133 145.17C31.8026 145.192 31.7792 145.25 31.7652 145.428C31.7505 145.614 31.75 145.859 31.75 146.244V146.867C31.75 147.252 31.7505 147.497 31.7652 147.683C31.7792 147.862 31.8026 147.92 31.8133 147.941C31.8683 148.053 31.9537 148.139 32.0524 148.192C32.0642 148.198 32.1102 148.22 32.276 148.235C32.4514 148.249 32.6843 148.25 33.0571 148.25H34.9429C35.3157 148.25 35.5486 148.249 35.724 148.235C35.8898 148.22 35.9358 148.198 35.9476 148.192C36.0463 148.139 36.1317 148.053 36.1867 147.941C36.1974 147.92 36.2208 147.862 36.2348 147.683C36.2495 147.497 36.25 147.252 36.25 146.867V146.244C36.25 145.859 36.2495 145.614 36.2348 145.428C36.2208 145.25 36.1974 145.192 36.1867 145.17C36.1317 145.058 36.0463 144.972 35.9476 144.92C35.9358 144.913 35.8898 144.891 35.724 144.877C35.5486 144.862 35.3157 144.861 34.9429 144.861H33.0571C32.6843 144.861 32.4514 144.862 32.276 144.877Z" fill="#5F5F6A"/>
<path d="M34 145.75C34.4142 145.75 34.75 146.086 34.75 146.5V147C34.75 147.414 34.4142 147.75 34 147.75C33.5858 147.75 33.25 147.414 33.25 147V146.5C33.25 146.086 33.5858 145.75 34 145.75Z" fill="#5F5F6A"/>
<path d="M21.25 134C21.25 133.586 21.5858 133.25 22 133.25H34C34.4142 133.25 34.75 133.586 34.75 134C34.75 134.414 34.4142 134.75 34 134.75H22C21.5858 134.75 21.25 134.414 21.25 134Z" fill="#5F5F6A"/>
<path d="M21.25 137C21.25 136.586 21.5858 136.25 22 136.25H30.5C30.9142 136.25 31.25 136.586 31.25 137C31.25 137.414 30.9142 137.75 30.5 137.75H22C21.5858 137.75 21.25 137.414 21.25 137Z" fill="#5F5F6A"/>
<path d="M21.25 140C21.25 139.586 21.5858 139.25 22 139.25H22.5C22.9142 139.25 23.25 139.586 23.25 140C23.25 140.414 22.9142 140.75 22.5 140.75H22C21.5858 140.75 21.25 140.414 21.25 140Z" fill="#5F5F6A"/>
<path d="M21.25 143C21.25 142.586 21.5858 142.25 22 142.25H22.5C22.9142 142.25 23.25 142.586 23.25 143C23.25 143.414 22.9142 143.75 22.5 143.75H22C21.5858 143.75 21.25 143.414 21.25 143Z" fill="#5F5F6A"/>
<path d="M24.25 140C24.25 139.586 24.5858 139.25 25 139.25H30.5C30.9142 139.25 31.25 139.586 31.25 140C31.25 140.414 30.9142 140.75 30.5 140.75H25C24.5858 140.75 24.25 140.414 24.25 140Z" fill="#5F5F6A"/>
<path d="M24.25 143C24.25 142.586 24.5858 142.25 25 142.25H28.5C28.9142 142.25 29.25 142.586 29.25 143C29.25 143.414 28.9142 143.75 28.5 143.75H25C24.5858 143.75 24.25 143.414 24.25 143Z" fill="#5F5F6A"/>
<path d="M21.25 146C21.25 145.586 21.5858 145.25 22 145.25L28 145.25C28.4142 145.25 28.75 145.586 28.75 146C28.75 146.414 28.4142 146.75 28 146.75H22C21.5858 146.75 21.25 146.414 21.25 146Z" fill="#5F5F6A"/>
<path d="M25.3774 186.5H30.6226C31.7236 186.5 32.5805 186.5 33.2679 186.556C33.9658 186.613 34.5329 186.731 35.043 186.99C35.8897 187.422 36.5781 188.11 37.0095 188.957C37.2694 189.467 37.3868 190.034 37.4438 190.732C37.5 191.419 37.5 192.276 37.5 193.377V194.8C37.5 195.076 37.2761 195.3 37 195.3C36.7239 195.3 36.5 195.076 36.5 194.8V193.4C36.5 192.272 36.4996 191.455 36.4472 190.814C36.3952 190.177 36.2946 189.757 36.1185 189.411C35.783 188.752 35.2475 188.217 34.589 187.881C34.2434 187.705 33.8226 187.605 33.1865 187.553C32.5446 187.5 31.7284 187.5 30.6 187.5H25.4C24.2716 187.5 23.4554 187.5 22.8135 187.553C22.1774 187.605 21.7566 187.705 21.411 187.881C20.7525 188.217 20.217 188.752 19.8815 189.411C19.7054 189.757 19.6048 190.177 19.5528 190.814C19.5004 191.455 19.5 192.272 19.5 193.4V198.6C19.5 199.728 19.5004 200.545 19.5528 201.186C19.6048 201.823 19.7054 202.243 19.8815 202.589C20.217 203.248 20.7525 203.783 21.411 204.119C21.7566 204.295 22.1774 204.395 22.8135 204.447C23.4554 204.5 24.2716 204.5 25.4 204.5H28C28.2761 204.5 28.5 204.724 28.5 205C28.5 205.276 28.2761 205.5 28 205.5H25.3774C24.2764 205.5 23.4195 205.5 22.7321 205.444C22.0342 205.387 21.4671 205.269 20.957 205.01C20.1103 204.578 19.4219 203.89 18.9905 203.043C18.7306 202.533 18.6132 201.966 18.5562 201.268C18.5 200.581 18.5 199.724 18.5 198.623V193.377C18.5 192.276 18.5 191.419 18.5562 190.732C18.6132 190.034 18.7306 189.467 18.9905 188.957C19.4219 188.11 20.1103 187.422 20.957 186.99C21.4671 186.731 22.0342 186.613 22.7321 186.556C23.4195 186.5 24.2764 186.5 25.3774 186.5Z" fill="#5F5F6A"/>
<path d="M31.7857 198.778C31.7857 197.537 32.7601 196.5 34 196.5C35.2399 196.5 36.2143 197.537 36.2143 198.778V199.693C36.3228 199.721 36.4286 199.76 36.5316 199.814C36.869 199.993 37.1399 200.275 37.3086 200.619C37.4183 200.842 37.4611 201.078 37.4809 201.329C37.5 201.572 37.5 201.868 37.5 202.225V202.886C37.5 203.243 37.5 203.54 37.4809 203.782C37.4611 204.034 37.4183 204.269 37.3086 204.492C37.1399 204.836 36.869 205.118 36.5316 205.297C36.3103 205.414 36.0763 205.459 35.8295 205.48C35.5939 205.5 35.306 205.5 34.9636 205.5H33.0364C32.694 205.5 32.4061 205.5 32.1705 205.48C31.9237 205.459 31.6897 205.414 31.4684 205.297C31.131 205.118 30.8601 204.836 30.6914 204.492C30.5817 204.269 30.5389 204.034 30.5191 203.782C30.5 203.54 30.5 203.243 30.5 202.886V202.225C30.5 201.868 30.5 201.572 30.5191 201.329C30.5389 201.078 30.5817 200.842 30.6914 200.619C30.8601 200.275 31.131 199.993 31.4684 199.814C31.5714 199.76 31.6772 199.721 31.7857 199.693V198.778ZM32.7857 199.611C32.8658 199.611 32.9493 199.611 33.0364 199.611H34.9636C35.0507 199.611 35.1342 199.611 35.2143 199.611V198.778C35.2143 198.055 34.6536 197.5 34 197.5C33.3464 197.5 32.7857 198.055 32.7857 198.778V199.611ZM32.2549 200.627C32.0729 200.643 31.9893 200.67 31.9356 200.699C31.7891 200.776 31.6667 200.901 31.5889 201.06C31.5584 201.122 31.5312 201.215 31.516 201.408C31.5004 201.606 31.5 201.863 31.5 202.244V202.867C31.5 203.248 31.5004 203.505 31.516 203.703C31.5312 203.896 31.5584 203.989 31.5889 204.052C31.6667 204.21 31.7891 204.335 31.9356 204.413C31.9893 204.441 32.0729 204.468 32.2549 204.484C32.4433 204.5 32.6886 204.5 33.0571 204.5H34.9429C35.3114 204.5 35.5567 204.5 35.7451 204.484C35.9271 204.468 36.0107 204.441 36.0644 204.413C36.2109 204.335 36.3333 204.21 36.4111 204.052C36.4416 203.989 36.4688 203.896 36.484 203.703C36.4996 203.505 36.5 203.248 36.5 202.867V202.244C36.5 201.863 36.4996 201.606 36.484 201.408C36.4688 201.215 36.4416 201.122 36.4111 201.06C36.3333 200.901 36.2109 200.776 36.0644 200.699C36.0107 200.67 35.9271 200.643 35.7451 200.627C35.5567 200.612 35.3114 200.611 34.9429 200.611H33.0571C32.6886 200.611 32.4433 200.612 32.2549 200.627Z" fill="#5F5F6A"/>
<path d="M34 202C34.2761 202 34.5 202.224 34.5 202.5V203C34.5 203.276 34.2761 203.5 34 203.5C33.7239 203.5 33.5 203.276 33.5 203V202.5C33.5 202.224 33.7239 202 34 202Z" fill="#5F5F6A"/>
<path d="M21.5 190C21.5 190.276 21.7239 190.5 22 190.5H34C34.2761 190.5 34.5 190.276 34.5 190C34.5 189.724 34.2761 189.5 34 189.5H22C21.7239 189.5 21.5 189.724 21.5 190Z" fill="#5F5F6A"/>
<path d="M21.5 193C21.5 192.724 21.7239 192.5 22 192.5H30.5C30.7761 192.5 31 192.724 31 193C31 193.276 30.7761 193.5 30.5 193.5H22C21.7239 193.5 21.5 193.276 21.5 193Z" fill="#5F5F6A"/>
<path d="M21.5 196C21.5 195.724 21.7239 195.5 22 195.5H23C23.2761 195.5 23.5 195.724 23.5 196C23.5 196.276 23.2761 196.5 23 196.5H22C21.7239 196.5 21.5 196.276 21.5 196Z" fill="#5F5F6A"/>
<path d="M21.5 199C21.5 198.724 21.7239 198.5 22 198.5H23C23.2761 198.5 23.5 198.724 23.5 199C23.5 199.276 23.2761 199.5 23 199.5H22C21.7239 199.5 21.5 199.276 21.5 199Z" fill="#5F5F6A"/>
<path d="M24.5 196C24.5 195.724 24.7239 195.5 25 195.5H30.5C30.7761 195.5 31 195.724 31 196C31 196.276 30.7761 196.5 30.5 196.5C30.2239 196.5 25 196.5 25 196.5C24.7239 196.5 24.5 196.276 24.5 196Z" fill="#5F5F6A"/>
<path d="M24.5 199C24.5 199.276 24.7239 199.5 25 199.5H28.5C28.7761 199.5 29 199.276 29 199C29 198.724 28.7761 198.5 28.5 198.5H25C24.7239 198.5 24.5 198.724 24.5 199Z" fill="#5F5F6A"/>
<path d="M21.5 202C21.5 201.724 21.7239 201.5 22 201.5L28 201.5C28.2761 201.5 28.5 201.724 28.5 202C28.5 202.276 28.2761 202.5 28 202.5H22C21.7239 202.5 21.5 202.276 21.5 202Z" fill="#5F5F6A"/>
</svg>
