<svg width="56" height="224" viewBox="0 0 56 224" fill="none" xmlns="http://www.w3.org/2000/svg">
<path d="M26.5409 21.9545C26.5409 22.2737 26.6437 22.5689 26.818 22.8087C27.0612 23.1434 26.7698 23.5 26.3561 23.5H24C23.1716 23.5 22.5 24.1716 22.5 25V27.677C22.5 27.9232 22.6996 28.1228 22.9458 28.1228C23.2202 28.1228 23.4692 27.9794 23.6913 27.818C23.9311 27.6437 24.2263 27.5409 24.5455 27.5409C25.3488 27.5409 26 28.1922 26 28.9955C26 29.7988 25.3488 30.45 24.5455 30.45C24.2263 30.45 23.9311 30.3472 23.6913 30.1729C23.4692 30.0116 23.2202 29.8682 22.9458 29.8682C22.6996 29.8682 22.5 30.0678 22.5 30.314V33C22.5 33.8284 23.1716 34.5 24 34.5H26.3561C26.7698 34.5 27.0612 34.1434 26.818 33.8087C26.6437 33.5689 26.5409 33.2737 26.5409 32.9545C26.5409 32.1512 27.1921 31.5 27.9955 31.5C28.7988 31.5 29.45 32.1512 29.45 32.9545C29.45 33.2737 29.3472 33.5689 29.1729 33.8087C28.9297 34.1434 29.2211 34.5 29.6349 34.5H32C32.8284 34.5 33.5 33.8284 33.5 33V30.6439C33.5 30.2302 33.8566 29.9387 34.1913 30.182C34.4311 30.3563 34.7263 30.4591 35.0455 30.4591C35.8488 30.4591 36.5 29.8078 36.5 29.0045C36.5 28.2012 35.8488 27.55 35.0455 27.55C34.7263 27.55 34.4311 27.6528 34.1913 27.8271C33.8566 28.0703 33.5 27.7788 33.5 27.3651V25C33.5 24.1716 32.8284 23.5 32 23.5H29.6349C29.2211 23.5 28.9297 23.1434 29.1729 22.8087C29.3472 22.5689 29.45 22.2737 29.45 21.9545C29.45 21.1512 28.7988 20.5 27.9955 20.5C27.1921 20.5 26.5409 21.1512 26.5409 21.9545Z" fill="#5F5F6A" stroke="#71717A" stroke-width="0.5" stroke-linejoin="round"/>
<path d="M26.5409 77.9545C26.5409 78.2737 26.6437 78.5689 26.818 78.8087C27.0612 79.1434 26.7698 79.5 26.3561 79.5H24C23.1716 79.5 22.5 80.1716 22.5 81V83.677C22.5 83.9232 22.6996 84.1228 22.9458 84.1228C23.2202 84.1228 23.4692 83.9794 23.6913 83.818C23.9311 83.6437 24.2263 83.5409 24.5455 83.5409C25.3488 83.5409 26 84.1922 26 84.9955C26 85.7988 25.3488 86.45 24.5455 86.45C24.2263 86.45 23.9311 86.3472 23.6913 86.1729C23.4692 86.0116 23.2202 85.8682 22.9458 85.8682C22.6996 85.8682 22.5 86.0678 22.5 86.314V89C22.5 89.8284 23.1716 90.5 24 90.5H26.3561C26.7698 90.5 27.0612 90.1434 26.818 89.8087C26.6437 89.5689 26.5409 89.2737 26.5409 88.9545C26.5409 88.1512 27.1921 87.5 27.9955 87.5C28.7988 87.5 29.45 88.1512 29.45 88.9545C29.45 89.2737 29.3472 89.5689 29.1729 89.8087C28.9297 90.1434 29.2211 90.5 29.6349 90.5H32C32.8284 90.5 33.5 89.8284 33.5 89V86.6439C33.5 86.2302 33.8566 85.9387 34.1913 86.182C34.4311 86.3563 34.7263 86.4591 35.0455 86.4591C35.8488 86.4591 36.5 85.8078 36.5 85.0045C36.5 84.2012 35.8488 83.55 35.0455 83.55C34.7263 83.55 34.4311 83.6528 34.1913 83.8271C33.8566 84.0703 33.5 83.7788 33.5 83.3651V81C33.5 80.1716 32.8284 79.5 32 79.5H29.6349C29.2211 79.5 28.9297 79.1434 29.1729 78.8087C29.3472 78.5689 29.45 78.2737 29.45 77.9545C29.45 77.1512 28.7988 76.5 27.9955 76.5C27.1921 76.5 26.5409 77.1512 26.5409 77.9545Z" fill="#5F5F6A"/>
<path fill-rule="evenodd" clip-rule="evenodd" d="M27.9955 77.25C27.6064 77.25 27.2909 77.5654 27.2909 77.9545C27.2909 78.1101 27.3404 78.2518 27.4247 78.3678C27.7347 78.7943 27.7273 79.3214 27.4423 79.7177C27.1871 80.0727 26.7675 80.25 26.3561 80.25H24C23.5858 80.25 23.25 80.5858 23.25 81V83.2116C23.2501 83.2115 23.2502 83.2114 23.2504 83.2113C23.6141 82.947 24.0626 82.7909 24.5455 82.7909C25.763 82.7909 26.75 83.7779 26.75 84.9955C26.75 86.213 25.763 87.2 24.5455 87.2C24.0626 87.2 23.6141 87.0439 23.2504 86.7796C23.2502 86.7795 23.2501 86.7794 23.25 86.7794V89C23.25 89.4142 23.5858 89.75 24 89.75H25.939C25.8434 89.5029 25.7909 89.2345 25.7909 88.9545C25.7909 87.737 26.7779 86.75 27.9955 86.75C29.213 86.75 30.2 87.737 30.2 88.9545C30.2 89.2345 30.1475 89.5029 30.0519 89.75H32C32.4142 89.75 32.75 89.4142 32.75 89V86.6439C32.75 86.2325 32.9273 85.8129 33.2823 85.5577C33.6786 85.2727 34.2057 85.2653 34.6322 85.5752C34.7482 85.6595 34.8899 85.7091 35.0455 85.7091C35.4346 85.7091 35.75 85.3936 35.75 85.0045C35.75 84.6154 35.4346 84.3 35.0455 84.3C34.8899 84.3 34.7482 84.3495 34.6322 84.4338C34.2057 84.7437 33.6786 84.7364 33.2823 84.4514C32.9273 84.1961 32.75 83.7766 32.75 83.3651V81C32.75 80.5858 32.4142 80.25 32 80.25H29.6349C29.2234 80.25 28.8039 80.0727 28.5486 79.7177C28.2636 79.3214 28.2562 78.7943 28.5662 78.3678C28.6505 78.2518 28.7 78.1101 28.7 77.9545C28.7 77.5654 28.3846 77.25 27.9955 77.25ZM22.9458 85.1182C23.4739 85.1182 23.8902 85.3903 24.1322 85.5662C24.2482 85.6505 24.3899 85.7 24.5455 85.7C24.9346 85.7 25.25 85.3846 25.25 84.9955C25.25 84.6064 24.9346 84.2909 24.5455 84.2909C24.3899 84.2909 24.2482 84.3405 24.1322 84.4248L23.6913 83.818L24.1322 84.4248C23.8902 84.6006 23.4739 84.8728 22.9458 84.8728C22.2854 84.8728 21.75 84.3374 21.75 83.677V81C21.75 79.7574 22.7574 78.75 24 78.75H25.939C25.8434 78.5029 25.7909 78.2345 25.7909 77.9545C25.7909 76.737 26.7779 75.75 27.9955 75.75C29.213 75.75 30.2 76.737 30.2 77.9545C30.2 78.2345 30.1475 78.5029 30.0519 78.75H32C33.2426 78.75 34.25 79.7574 34.25 81V82.9481C34.4971 82.8525 34.7655 82.8 35.0455 82.8C36.263 82.8 37.25 83.787 37.25 85.0045C37.25 86.2221 36.263 87.2091 35.0455 87.2091C34.7655 87.2091 34.4971 87.1566 34.25 87.061V89C34.25 90.2426 33.2426 91.25 32 91.25H29.6349C29.2234 91.25 28.8039 91.0727 28.5486 90.7177C28.2636 90.3214 28.2562 89.7943 28.5662 89.3678C28.6505 89.2518 28.7 89.1101 28.7 88.9545C28.7 88.5654 28.3846 88.25 27.9955 88.25C27.6064 88.25 27.2909 88.5654 27.2909 88.9545C27.2909 89.1101 27.3404 89.2518 27.4247 89.3678C27.7347 89.7943 27.7273 90.3214 27.4423 90.7177C27.1871 91.0727 26.7675 91.25 26.3561 91.25H24C22.7574 91.25 21.75 90.2426 21.75 89V86.314C21.75 85.6536 22.2854 85.1182 22.9458 85.1182Z" fill="#5F5F6A"/>
<path fill-rule="evenodd" clip-rule="evenodd" d="M27.9955 133.25C27.6064 133.25 27.2909 133.565 27.2909 133.955C27.2909 134.11 27.3404 134.252 27.4247 134.368C27.7347 134.794 27.7273 135.321 27.4423 135.718C27.1871 136.073 26.7675 136.25 26.3561 136.25H24C23.5858 136.25 23.25 136.586 23.25 137V139.212C23.2499 139.212 23.2501 139.212 23.25 139.212C23.6137 138.947 24.0626 138.791 24.5455 138.791C25.763 138.791 26.75 139.778 26.75 140.995C26.75 142.213 25.763 143.2 24.5455 143.2C24.0626 143.2 23.6141 143.044 23.2504 142.78C23.2502 142.78 23.2505 142.78 23.2504 142.78L23.25 145C23.25 145.414 23.5858 145.75 24 145.75H25.939C25.8434 145.503 25.7909 145.234 25.7909 144.955C25.7909 143.737 26.7779 142.75 27.9955 142.75C29.213 142.75 30.2 143.737 30.2 144.955C30.2 145.234 30.1475 145.503 30.0519 145.75H32C32.4142 145.75 32.75 145.414 32.75 145V142.644C32.75 142.232 32.9273 141.813 33.2823 141.558C33.6786 141.273 34.2057 141.265 34.6322 141.575C34.7482 141.66 34.8899 141.709 35.0455 141.709C35.4346 141.709 35.75 141.394 35.75 141.005C35.75 140.615 35.4346 140.3 35.0455 140.3C34.8899 140.3 34.7482 140.35 34.6322 140.434C34.2057 140.744 33.6786 140.736 33.2823 140.451C32.9273 140.196 32.75 139.777 32.75 139.365V137C32.75 136.586 32.4142 136.25 32 136.25H29.6349C29.2234 136.25 28.8039 136.073 28.5486 135.718C28.2636 135.321 28.2562 134.794 28.5662 134.368C28.6505 134.252 28.7 134.11 28.7 133.955C28.7 133.565 28.3846 133.25 27.9955 133.25ZM22.9458 141.118C23.4739 141.118 23.8902 141.39 24.1322 141.566C24.2482 141.65 24.3899 141.7 24.5455 141.7C24.9346 141.7 25.25 141.385 25.25 140.995C25.25 140.606 24.9346 140.291 24.5455 140.291C24.3899 140.291 24.2482 140.34 24.1322 140.425C23.8902 140.601 23.4739 140.873 22.9458 140.873C22.2854 140.873 21.75 140.337 21.75 139.677V137C21.75 135.757 22.7574 134.75 24 134.75H25.939C25.8434 134.503 25.7909 134.234 25.7909 133.955C25.7909 132.737 26.7779 131.75 27.9955 131.75C29.213 131.75 30.2 132.737 30.2 133.955C30.2 134.234 30.1475 134.503 30.0519 134.75H32C33.2426 134.75 34.25 135.757 34.25 137V138.948C34.4971 138.852 34.7655 138.8 35.0455 138.8C36.263 138.8 37.25 139.787 37.25 141.005C37.25 142.222 36.263 143.209 35.0455 143.209C34.7655 143.209 34.4971 143.157 34.25 143.061V145C34.25 146.243 33.2426 147.25 32 147.25H29.6349C29.2234 147.25 28.8039 147.073 28.5486 146.718C28.2636 146.321 28.2562 145.794 28.5662 145.368C28.6505 145.252 28.7 145.11 28.7 144.955C28.7 144.565 28.3846 144.25 27.9955 144.25C27.6064 144.25 27.2909 144.565 27.2909 144.955C27.2909 145.11 27.3404 145.252 27.4247 145.368C27.7347 145.794 27.7273 146.321 27.4423 146.718C27.1871 147.073 26.7675 147.25 26.3561 147.25H24C22.7574 147.25 21.75 146.243 21.75 145V142.314C21.75 141.654 22.2854 141.118 22.9458 141.118Z" fill="#5F5F6A"/>
<path fill-rule="evenodd" clip-rule="evenodd" d="M27.9955 189C27.4683 189 27.0409 189.427 27.0409 189.955C27.0409 190.165 27.1082 190.358 27.2225 190.515C27.4697 190.855 27.4607 191.264 27.2394 191.572C27.0378 191.852 26.6993 192 26.3561 192H24C23.4477 192 23 192.448 23 193V195.618C23.0978 195.602 23.2226 195.541 23.3973 195.414C23.7197 195.179 24.1172 195.041 24.5455 195.041C25.6249 195.041 26.5 195.916 26.5 196.995C26.5 198.075 25.6249 198.95 24.5455 198.95C24.1172 198.95 23.7198 198.812 23.3973 198.577C23.2226 198.45 23.0978 198.389 23 198.373V201C23 201.552 23.4477 202 24 202H26.3438C26.1521 201.697 26.0409 201.338 26.0409 200.955C26.0409 199.875 26.916 199 27.9955 199C29.0749 199 29.95 199.875 29.95 200.955C29.95 201.338 29.8389 201.697 29.6471 202H32C32.5523 202 33 201.552 33 201V198.644C33 198.301 33.1479 197.962 33.4282 197.761C33.7361 197.539 34.1451 197.53 34.4852 197.777C34.6425 197.892 34.8354 197.959 35.0455 197.959C35.5726 197.959 36 197.532 36 197.005C36 196.477 35.5726 196.05 35.0455 196.05C34.8354 196.05 34.6425 196.117 34.4852 196.232C34.1451 196.479 33.7361 196.47 33.4282 196.248C33.1479 196.047 33 195.708 33 195.365V193C33 192.448 32.5523 192 32 192H29.6349C29.2916 192 28.9532 191.852 28.7516 191.572C28.5302 191.264 28.5213 190.855 28.7684 190.515C28.8827 190.358 28.95 190.165 28.95 189.955C28.95 189.427 28.5226 189 27.9955 189ZM22.9458 197.368C23.3893 197.368 23.7499 197.597 23.9852 197.768C24.1425 197.883 24.3354 197.95 24.5455 197.95C25.0726 197.95 25.5 197.523 25.5 196.995C25.5 196.468 25.0726 196.041 24.5455 196.041C24.3354 196.041 24.1425 196.108 23.9852 196.223C23.7498 196.394 23.3893 196.623 22.9458 196.623C22.4234 196.623 22 196.199 22 195.677V193C22 191.895 22.8954 191 24 191H26.3438C26.1521 190.697 26.0409 190.338 26.0409 189.955C26.0409 188.875 26.916 188 27.9955 188C29.0749 188 29.95 188.875 29.95 189.955C29.95 190.338 29.8389 190.697 29.6471 191H32C33.1046 191 34 191.895 34 193V195.353C34.3025 195.161 34.6616 195.05 35.0455 195.05C36.1249 195.05 37 195.925 37 197.005C37 198.084 36.1249 198.959 35.0455 198.959C34.6616 198.959 34.3025 198.848 34 198.656V201C34 202.105 33.1046 203 32 203H29.6349C29.2916 203 28.9532 202.852 28.7516 202.572C28.5302 202.264 28.5213 201.855 28.7684 201.515C28.8827 201.358 28.95 201.165 28.95 200.955C28.95 200.427 28.5226 200 27.9955 200C27.4683 200 27.0409 200.427 27.0409 200.955C27.0409 201.165 27.1082 201.358 27.2225 201.515C27.4697 201.855 27.4607 202.264 27.2394 202.572C27.0378 202.852 26.6993 203 26.3561 203H24C22.8954 203 22 202.105 22 201V198.314C22 197.792 22.4234 197.368 22.9458 197.368Z" fill="#5F5F6A"/>
</svg>
