<svg width="56" height="224" viewBox="0 0 56 224" fill="none" xmlns="http://www.w3.org/2000/svg">
<path d="M23.9598 19H24.6667C25.219 19 25.6667 19.4477 25.6667 20C25.6667 20.5523 25.219 21 24.6667 21H24C23.2834 21 22.8062 21.0008 22.4394 21.0307C22.0844 21.0597 21.9219 21.1111 21.819 21.1635C21.5368 21.3073 21.3073 21.5368 21.1635 21.819C21.1111 21.9219 21.0597 22.0844 21.0307 22.4394C21.0008 22.8062 21 23.2834 21 24V24.6667C21 25.219 20.5523 25.6667 20 25.6667C19.4477 25.6667 19 25.219 19 24.6667V23.9598C19 23.294 19 22.7344 19.0374 22.2766C19.0765 21.7979 19.1614 21.3429 19.3815 20.911C19.717 20.2525 20.2525 19.717 20.911 19.3815C21.3429 19.1614 21.7979 19.0765 22.2766 19.0374C22.7344 19 23.294 19 23.9598 19Z" fill="#5F5F6A"/>
<path d="M33.5606 21.0307C33.1939 21.0008 32.7166 21 32 21H31.3333C30.7811 21 30.3333 20.5523 30.3333 20C30.3333 19.4477 30.7811 19 31.3333 19H32.0402C32.706 19 33.2656 19 33.7234 19.0374C34.2022 19.0765 34.6571 19.1614 35.089 19.3815C35.7475 19.717 36.283 20.2525 36.6185 20.911C36.8386 21.3429 36.9235 21.7979 36.9626 22.2766C37 22.7344 37 23.2939 37 23.9597V24.6667C37 25.219 36.5523 25.6667 36 25.6667C35.4477 25.6667 35 25.219 35 24.6667V24C35 23.2834 34.9992 22.8062 34.9693 22.4394C34.9403 22.0844 34.889 21.9219 34.8365 21.819C34.6927 21.5368 34.4632 21.3073 34.181 21.1635C34.0781 21.1111 33.9156 21.0597 33.5606 21.0307Z" fill="#5F5F6A"/>
<path d="M20 30.3333C20.5523 30.3333 21 30.7811 21 31.3333V32C21 32.7166 21.0008 33.1939 21.0307 33.5606C21.0597 33.9156 21.1111 34.0781 21.1635 34.181C21.3073 34.4632 21.5368 34.6927 21.819 34.8365C21.9219 34.889 22.0844 34.9403 22.4394 34.9693C22.8062 34.9992 23.2834 35 24 35H24.6667C25.219 35 25.6667 35.4477 25.6667 36C25.6667 36.5523 25.219 37 24.6667 37H23.9598C23.294 37 22.7344 37 22.2766 36.9626C21.7979 36.9235 21.3429 36.8386 20.911 36.6185C20.2525 36.283 19.717 35.7475 19.3815 35.089C19.1614 34.6571 19.0765 34.2022 19.0374 33.7234C19 33.2656 19 32.706 19 32.0402V31.3333C19 30.7811 19.4477 30.3333 20 30.3333Z" fill="#5F5F6A"/>
<path d="M36 30.3333C36.5523 30.3333 37 30.7811 37 31.3333V32.0402C37 32.706 37 33.2656 36.9626 33.7234C36.9235 34.2022 36.8386 34.6571 36.6185 35.089C36.283 35.7475 35.7475 36.283 35.089 36.6185C34.6571 36.8386 34.2022 36.9235 33.7234 36.9626C33.2656 37 32.7061 37 32.0403 37H31.3333C30.7811 37 30.3333 36.5523 30.3333 36C30.3333 35.4477 30.7811 35 31.3333 35H32C32.7166 35 33.1939 34.9992 33.5606 34.9693C33.9156 34.9403 34.0781 34.889 34.181 34.8365C34.4632 34.6927 34.6927 34.4632 34.8365 34.181C34.889 34.0781 34.9403 33.9156 34.9693 33.5606C34.9992 33.1939 35 32.7166 35 32V31.3333C35 30.7811 35.4477 30.3333 36 30.3333Z" fill="#5F5F6A"/>
<path d="M29.5 28.5C30.0523 28.5 30.5 28.9477 30.5 29.5V29.65C30.5 29.9465 30.5008 30.1088 30.5103 30.2254L30.5115 30.2386L30.5246 30.2397C30.6412 30.2492 30.8035 30.25 31.1 30.25L31.4319 30.25C31.6843 30.25 31.9301 30.2499 32.1382 30.2669C32.3668 30.2856 32.6366 30.3297 32.908 30.468C33.2843 30.6597 33.5903 30.9657 33.782 31.342C33.9203 31.6134 33.9644 31.8832 33.9831 32.1118C34.0001 32.3199 34 32.5657 34 32.8181L34 33C34 33.5523 33.5523 34 33 34C32.4477 34 32 33.5523 32 33V32.85C32 32.5535 31.9992 32.3912 31.9897 32.2746L31.9886 32.2615L31.9754 32.2603C31.8588 32.2508 31.6965 32.25 31.4 32.25L31.0681 32.25C30.8157 32.25 30.5699 32.2501 30.3618 32.2331C30.1332 32.2144 29.8635 32.1703 29.592 32.032C29.2157 31.8403 28.9097 31.5343 28.718 31.158C28.5797 30.8866 28.5356 30.6168 28.517 30.3882C28.4999 30.1801 28.5 29.9343 28.5 29.6819L28.5 29.5C28.5 28.9477 28.9477 28.5 29.5 28.5Z" fill="#5F5F6A"/>
<path d="M30.8238 22.25C30.5663 22.25 30.3298 22.25 30.1321 22.2661C29.919 22.2835 29.6858 22.3234 29.4555 22.4407C29.1262 22.6085 28.8585 22.8762 28.6907 23.2055C28.5734 23.4358 28.5335 23.669 28.5161 23.8821C28.5 24.0798 28.5 24.3163 28.5 24.5738V24.9262C28.5 25.1837 28.5 25.4202 28.5161 25.6179C28.5335 25.831 28.5734 26.0642 28.6907 26.2945C28.8585 26.6238 29.1262 26.8915 29.4555 27.0593C29.6858 27.1766 29.919 27.2165 30.1321 27.2339C30.3298 27.25 30.5663 27.25 30.8238 27.25H31.1762C31.4337 27.25 31.6702 27.25 31.8679 27.2339C32.081 27.2165 32.3142 27.1766 32.5445 27.0593C32.8738 26.8915 33.1415 26.6238 33.3093 26.2945C33.4266 26.0642 33.4665 25.831 33.4839 25.6179C33.5 25.4202 33.5 25.1837 33.5 24.9262V24.5738C33.5 24.3163 33.5 24.0798 33.4839 23.8821C33.4665 23.669 33.4266 23.4358 33.3093 23.2055C33.1415 22.8762 32.8738 22.6085 32.5445 22.4407C32.3142 22.3234 32.081 22.2835 31.8679 22.2661C31.6702 22.25 31.4337 22.25 31.1762 22.25H30.8238Z" fill="#5F5F6A"/>
<path d="M24.8238 22.25H25.1762C25.4337 22.25 25.6702 22.25 25.8679 22.2661C26.081 22.2835 26.3142 22.3234 26.5445 22.4407C26.8738 22.6085 27.1415 22.8762 27.3093 23.2055C27.4266 23.4358 27.4665 23.669 27.4839 23.8821C27.5 24.0798 27.5 24.3163 27.5 24.5738V24.9262C27.5 25.1837 27.5 25.4202 27.4839 25.6179C27.4665 25.831 27.4266 26.0642 27.3093 26.2945C27.1415 26.6238 26.8738 26.8915 26.5445 27.0593C26.3142 27.1766 26.081 27.2165 25.8679 27.2339C25.6702 27.25 25.4337 27.25 25.1762 27.25H24.8238C24.5663 27.25 24.3298 27.25 24.1321 27.2339C23.919 27.2165 23.6858 27.1766 23.4555 27.0593C23.1262 26.8915 22.8585 26.6238 22.6907 26.2945C22.5734 26.0642 22.5335 25.831 22.5161 25.6179C22.5 25.4202 22.5 25.1837 22.5 24.9262V24.5738C22.5 24.3163 22.5 24.0798 22.5161 23.8821C22.5335 23.669 22.5734 23.4358 22.6907 23.2055C22.8585 22.8762 23.1262 22.6085 23.4555 22.4407C23.6858 22.3234 23.919 22.2835 24.1321 22.2661C24.3298 22.25 24.5663 22.25 24.8238 22.25Z" fill="#5F5F6A"/>
<path d="M24.8238 28.5C24.5663 28.5 24.3298 28.5 24.1321 28.5161C23.919 28.5335 23.6858 28.5734 23.4555 28.6907C23.1262 28.8585 22.8585 29.1262 22.6907 29.4555C22.5734 29.6858 22.5335 29.919 22.5161 30.1321C22.5 30.3298 22.5 30.5663 22.5 30.8238V31.1762C22.5 31.4337 22.5 31.6702 22.5161 31.8679C22.5335 32.081 22.5734 32.3142 22.6907 32.5445C22.8585 32.8738 23.1262 33.1415 23.4555 33.3093C23.6858 33.4266 23.919 33.4665 24.1321 33.4839C24.3298 33.5 24.5663 33.5 24.8238 33.5H25.1762C25.4337 33.5 25.6702 33.5 25.8679 33.4839C26.081 33.4665 26.3142 33.4266 26.5445 33.3093C26.8738 33.1415 27.1415 32.8738 27.3093 32.5445C27.4266 32.3142 27.4665 32.081 27.4839 31.8679C27.5 31.6702 27.5 31.4337 27.5 31.1762V30.8238C27.5 30.5663 27.5 30.3298 27.4839 30.1321C27.4665 29.919 27.4266 29.6858 27.3093 29.4555C27.1415 29.1262 26.8738 28.8585 26.5445 28.6907C26.3142 28.5734 26.081 28.5335 25.8679 28.5161C25.6702 28.5 25.4337 28.5 25.1762 28.5H24.8238Z" fill="#5F5F6A"/>
<g opacity="0.5">
<path d="M23 80.6C23 80.0399 23 79.7599 23.109 79.546C23.2049 79.3578 23.3578 79.2049 23.546 79.109C23.7599 79 24.0399 79 24.6 79H24.9C25.4601 79 25.7401 79 25.954 79.109C26.1422 79.2049 26.2951 79.3578 26.391 79.546C26.5 79.7599 26.5 80.0399 26.5 80.6V80.9C26.5 81.4601 26.5 81.7401 26.391 81.954C26.2951 82.1422 26.1422 82.2951 25.954 82.391C25.7401 82.5 25.4601 82.5 24.9 82.5H24.6C24.0399 82.5 23.7599 82.5 23.546 82.391C23.3578 82.2951 23.2049 82.1422 23.109 81.954C23 81.7401 23 81.4601 23 80.9V80.6Z" fill="#5F5F6A"/>
<path d="M23 87.1C23 86.5399 23 86.2599 23.109 86.046C23.2049 85.8578 23.3578 85.7049 23.546 85.609C23.7599 85.5 24.0399 85.5 24.6 85.5H24.9C25.4601 85.5 25.7401 85.5 25.954 85.609C26.1422 85.7049 26.2951 85.8578 26.391 86.046C26.5 86.2599 26.5 86.5399 26.5 87.1V87.4C26.5 87.9601 26.5 88.2401 26.391 88.454C26.2951 88.6422 26.1422 88.7951 25.954 88.891C25.7401 89 25.4601 89 24.9 89H24.6C24.0399 89 23.7599 89 23.546 88.891C23.3578 88.7951 23.2049 88.6422 23.109 88.454C23 88.2401 23 87.9601 23 87.4V87.1Z" fill="#5F5F6A"/>
<path d="M29.609 79.546C29.5 79.7599 29.5 80.0399 29.5 80.6V80.9C29.5 81.4601 29.5 81.7401 29.609 81.954C29.7049 82.1422 29.8578 82.2951 30.046 82.391C30.2599 82.5 30.5399 82.5 31.1 82.5H31.4C31.9601 82.5 32.2401 82.5 32.454 82.391C32.6422 82.2951 32.7951 82.1422 32.891 81.954C33 81.7401 33 81.4601 33 80.9V80.6C33 80.0399 33 79.7599 32.891 79.546C32.7951 79.3578 32.6422 79.2049 32.454 79.109C32.2401 79 31.9601 79 31.4 79H31.1C30.5399 79 30.2599 79 30.046 79.109C29.8578 79.2049 29.7049 79.3578 29.609 79.546Z" fill="#5F5F6A"/>
</g>
<path fill-rule="evenodd" clip-rule="evenodd" d="M23.9686 75.25L24.6667 75.25C25.0809 75.25 25.4167 75.5858 25.4167 76C25.4167 76.4142 25.0809 76.75 24.6667 76.75H24C23.2876 76.75 22.7983 76.7506 22.4191 76.7816C22.0486 76.8118 21.8496 76.8673 21.7055 76.9407C21.3762 77.1085 21.1085 77.3762 20.9407 77.7055C20.8673 77.8496 20.8118 78.0486 20.7816 78.4191C20.7506 78.7983 20.75 79.2876 20.75 80V80.6667C20.75 81.0809 20.4142 81.4167 20 81.4167C19.5858 81.4167 19.25 81.0809 19.25 80.6667L19.25 79.9686C19.25 79.2952 19.25 78.7445 19.2866 78.2969C19.3244 77.8337 19.4051 77.4153 19.6042 77.0245C19.9158 76.413 20.413 75.9158 21.0245 75.6042C21.4153 75.4051 21.8337 75.3244 22.2969 75.2866C22.7445 75.25 23.2952 75.25 23.9686 75.25ZM33.5809 76.7816C33.2017 76.7506 32.7124 76.75 32 76.75H31.3333C30.9191 76.75 30.5833 76.4142 30.5833 76C30.5833 75.5858 30.9191 75.25 31.3333 75.25L32.0314 75.25C32.7048 75.25 33.2555 75.25 33.7031 75.2866C34.1663 75.3244 34.5847 75.4051 34.9755 75.6042C35.587 75.9158 36.0842 76.413 36.3958 77.0245C36.5949 77.4153 36.6756 77.8337 36.7134 78.2969C36.75 78.7445 36.75 79.2952 36.75 79.9686V80.6667C36.75 81.0809 36.4142 81.4167 36 81.4167C35.5858 81.4167 35.25 81.0809 35.25 80.6667V80C35.25 79.2876 35.2494 78.7983 35.2184 78.4191C35.1882 78.0486 35.1327 77.8496 35.0593 77.7055C34.8915 77.3762 34.6238 77.1085 34.2945 76.9407C34.1504 76.8673 33.9514 76.8118 33.5809 76.7816ZM20 86.5833C20.4142 86.5833 20.75 86.9191 20.75 87.3333V88C20.75 88.7124 20.7506 89.2017 20.7816 89.5809C20.8118 89.9514 20.8673 90.1504 20.9407 90.2945C21.1085 90.6238 21.3762 90.8915 21.7055 91.0593C21.8496 91.1327 22.0486 91.1882 22.4191 91.2184C22.7983 91.2494 23.2876 91.25 24 91.25H24.6667C25.0809 91.25 25.4167 91.5858 25.4167 92C25.4167 92.4142 25.0809 92.75 24.6667 92.75H23.9686C23.2952 92.75 22.7445 92.75 22.2969 92.7134C21.8337 92.6756 21.4153 92.5949 21.0245 92.3958C20.413 92.0842 19.9158 91.587 19.6042 90.9755C19.4051 90.5847 19.3244 90.1663 19.2866 89.7031C19.25 89.2555 19.25 88.7048 19.25 88.0314L19.25 87.3333C19.25 86.9191 19.5858 86.5833 20 86.5833ZM36 86.5833C36.4142 86.5833 36.75 86.9191 36.75 87.3333V88.0314C36.75 88.7048 36.75 89.2555 36.7134 89.7031C36.6756 90.1663 36.5949 90.5847 36.3958 90.9755C36.0842 91.587 35.587 92.0842 34.9755 92.3958C34.5847 92.5949 34.1663 92.6756 33.7031 92.7134C33.2555 92.75 32.7048 92.75 32.0314 92.75H31.3333C30.9191 92.75 30.5833 92.4142 30.5833 92C30.5833 91.5858 30.9191 91.25 31.3333 91.25H32C32.7124 91.25 33.2017 91.2494 33.5809 91.2184C33.9514 91.1882 34.1504 91.1327 34.2945 91.0593C34.6238 90.8915 34.8915 90.6238 35.0593 90.2945C35.1327 90.1504 35.1882 89.9514 35.2184 89.5809C35.2494 89.2017 35.25 88.7124 35.25 88V87.3333C35.25 86.9191 35.5858 86.5833 36 86.5833Z" fill="#5F5F6A"/>
<path fill-rule="evenodd" clip-rule="evenodd" d="M24.5738 78.25C24.5825 78.25 24.5912 78.25 24.6 78.25H24.9C24.9088 78.25 24.9175 78.25 24.9262 78.25C25.1837 78.25 25.4202 78.25 25.6179 78.2661C25.831 78.2835 26.0642 78.3234 26.2945 78.4407C26.6238 78.6085 26.8915 78.8762 27.0593 79.2055C27.1766 79.4358 27.2165 79.669 27.2339 79.8821C27.25 80.0798 27.25 80.3163 27.25 80.5738V80.9262C27.25 81.1837 27.25 81.4202 27.2339 81.6179C27.2165 81.831 27.1766 82.0642 27.0593 82.2945C26.8915 82.6238 26.6238 82.8915 26.2945 83.0593C26.0642 83.1766 25.831 83.2165 25.6179 83.2339C25.4202 83.25 25.1837 83.25 24.9262 83.25H24.5738C24.3163 83.25 24.0798 83.25 23.8821 83.2339C23.669 83.2165 23.4358 83.1766 23.2055 83.0593C22.8762 82.8915 22.6085 82.6238 22.4407 82.2945C22.3234 82.0642 22.2835 81.831 22.2661 81.6179C22.25 81.4202 22.25 81.1837 22.25 80.9262C22.25 80.9175 22.25 80.9088 22.25 80.9V80.6C22.25 80.5912 22.25 80.5825 22.25 80.5738C22.25 80.3163 22.25 80.0798 22.2661 79.8821C22.2835 79.669 22.3234 79.4358 22.4407 79.2055C22.6085 78.8762 22.8762 78.6085 23.2055 78.4407C23.4358 78.3234 23.669 78.2835 23.8821 78.2661C24.0798 78.25 24.3163 78.25 24.5738 78.25ZM23.8809 79.7797L23.8824 79.7792L23.8809 79.7797ZM23.8835 79.7788C23.8923 79.7761 23.9255 79.7676 24.0043 79.7611C24.1334 79.7506 24.3076 79.75 24.6 79.75H24.9C25.1924 79.75 25.3666 79.7506 25.4957 79.7611C25.5745 79.7676 25.6077 79.7761 25.6165 79.7788C25.6612 79.8023 25.6977 79.8388 25.7212 79.8835C25.7239 79.8923 25.7324 79.9255 25.7389 80.0043C25.7494 80.1334 25.75 80.3076 25.75 80.6V80.9C25.75 81.1924 25.7494 81.3666 25.7389 81.4957C25.7324 81.5745 25.7239 81.6077 25.7212 81.6165C25.6977 81.6612 25.6612 81.6977 25.6165 81.7212C25.6077 81.7239 25.5745 81.7324 25.4957 81.7389C25.3666 81.7494 25.1924 81.75 24.9 81.75H24.6C24.3076 81.75 24.1334 81.7494 24.0043 81.7389C23.9255 81.7324 23.8923 81.7239 23.8835 81.7212C23.8388 81.6977 23.8023 81.6612 23.7788 81.6165C23.7761 81.6077 23.7676 81.5745 23.7611 81.4957C23.7506 81.3666 23.75 81.1924 23.75 80.9V80.6C23.75 80.3076 23.7506 80.1334 23.7611 80.0043C23.7676 79.9255 23.7761 79.8923 23.7788 79.8835C23.8023 79.8388 23.8388 79.8023 23.8835 79.7788ZM23.7797 79.8809L23.7792 79.8824L23.7797 79.8809ZM23.7797 81.6191L23.7792 81.6176L23.7797 81.6191ZM23.8809 81.7203L23.8824 81.7208L23.8809 81.7203ZM25.6191 81.7203L25.6176 81.7208L25.6191 81.7203ZM25.7203 81.6191L25.7208 81.6176L25.7203 81.6191ZM25.7203 79.8809L25.7208 79.8824L25.7203 79.8809ZM25.6176 79.7792L25.6191 79.7797L25.6176 79.7792ZM31.0738 78.25H31.4262C31.6837 78.25 31.9202 78.25 32.1179 78.2661C32.331 78.2835 32.5642 78.3234 32.7945 78.4407C33.1238 78.6085 33.3915 78.8762 33.5593 79.2055C33.6766 79.4358 33.7165 79.669 33.7339 79.8821C33.75 80.0798 33.75 80.3163 33.75 80.5738V80.9262C33.75 81.1837 33.75 81.4202 33.7339 81.6179C33.7165 81.831 33.6766 82.0642 33.5593 82.2945C33.3915 82.6238 33.1238 82.8915 32.7945 83.0593C32.5642 83.1766 32.331 83.2165 32.1179 83.2339C31.9202 83.25 31.6837 83.25 31.4262 83.25H31.0738C30.8163 83.25 30.5798 83.25 30.3821 83.2339C30.169 83.2165 29.9358 83.1766 29.7055 83.0593C29.3762 82.8915 29.1085 82.6238 28.9407 82.2945C28.8234 82.0642 28.7835 81.831 28.7661 81.6179C28.75 81.4202 28.75 81.1837 28.75 80.9262V80.5738C28.75 80.3163 28.75 80.0798 28.7661 79.8821C28.7835 79.669 28.8234 79.4358 28.9407 79.2055C29.1085 78.8762 29.3762 78.6085 29.7055 78.4407C29.9358 78.3234 30.169 78.2835 30.3821 78.2661C30.5798 78.25 30.8163 78.25 31.0738 78.25ZM30.3809 79.7797L30.3824 79.7792L30.3809 79.7797ZM30.3835 79.7788C30.3923 79.7761 30.4255 79.7676 30.5043 79.7611C30.6334 79.7506 30.8076 79.75 31.1 79.75H31.4C31.6924 79.75 31.8666 79.7506 31.9957 79.7611C32.0745 79.7676 32.1077 79.7761 32.1165 79.7788C32.1612 79.8023 32.1977 79.8388 32.2212 79.8835C32.2239 79.8923 32.2324 79.9255 32.2389 80.0043C32.2494 80.1334 32.25 80.3076 32.25 80.6V80.9C32.25 81.1924 32.2494 81.3666 32.2389 81.4957C32.2324 81.5745 32.2239 81.6077 32.2212 81.6165C32.1977 81.6612 32.1612 81.6977 32.1165 81.7212C32.1077 81.7239 32.0745 81.7324 31.9957 81.7389C31.8666 81.7494 31.6924 81.75 31.4 81.75H31.1C30.8076 81.75 30.6334 81.7494 30.5043 81.7389C30.4255 81.7324 30.3923 81.7239 30.3835 81.7212C30.3388 81.6977 30.3023 81.6612 30.2788 81.6165C30.2761 81.6077 30.2676 81.5745 30.2611 81.4957C30.2506 81.3666 30.25 81.1924 30.25 80.9V80.6C30.25 80.3076 30.2506 80.1334 30.2611 80.0043C30.2676 79.9255 30.2761 79.8923 30.2788 79.8835C30.3023 79.8388 30.3388 79.8023 30.3835 79.7788ZM30.2797 79.8809L30.2792 79.8824L30.2797 79.8809ZM30.2797 81.6191L30.2792 81.6176L30.2797 81.6191ZM30.3809 81.7203L30.3824 81.7208L30.3809 81.7203ZM32.1191 81.7203L32.1176 81.7208L32.1191 81.7203ZM32.2203 81.6191L32.2208 81.6176L32.2203 81.6191ZM32.2203 79.8809L32.2208 79.8824L32.2203 79.8809ZM32.1176 79.7792L32.1191 79.7797L32.1176 79.7792ZM24.5738 84.75H24.9262C25.1837 84.75 25.4202 84.75 25.6179 84.7661C25.831 84.7835 26.0642 84.8234 26.2945 84.9407C26.6238 85.1085 26.8915 85.3762 27.0593 85.7055C27.1766 85.9358 27.2165 86.169 27.2339 86.3821C27.25 86.5798 27.25 86.8163 27.25 87.0738V87.4262C27.25 87.6837 27.25 87.9202 27.2339 88.1179C27.2165 88.331 27.1766 88.5642 27.0593 88.7945C26.8915 89.1238 26.6238 89.3915 26.2945 89.5593C26.0642 89.6766 25.831 89.7165 25.6179 89.7339C25.4202 89.75 25.1837 89.75 24.9262 89.75H24.5738C24.3163 89.75 24.0798 89.75 23.8821 89.7339C23.669 89.7165 23.4358 89.6766 23.2055 89.5593C22.8762 89.3915 22.6085 89.1238 22.4407 88.7945C22.3234 88.5642 22.2835 88.331 22.2661 88.1179C22.25 87.9202 22.25 87.6837 22.25 87.4262V87.0738C22.25 86.8163 22.25 86.5798 22.2661 86.3821C22.2835 86.169 22.3234 85.9358 22.4407 85.7055C22.6085 85.3762 22.8762 85.1085 23.2055 84.9407C23.4358 84.8234 23.669 84.7835 23.8821 84.7661C24.0798 84.75 24.3163 84.75 24.5738 84.75ZM23.8809 86.2797L23.8824 86.2792L23.8809 86.2797ZM23.8835 86.2788C23.8923 86.2761 23.9255 86.2676 24.0043 86.2611C24.1334 86.2506 24.3076 86.25 24.6 86.25H24.9C25.1924 86.25 25.3666 86.2506 25.4957 86.2611C25.5745 86.2676 25.6077 86.2761 25.6165 86.2788C25.6612 86.3023 25.6977 86.3388 25.7212 86.3835C25.7239 86.3923 25.7324 86.4255 25.7389 86.5043C25.7494 86.6334 25.75 86.8076 25.75 87.1V87.4C25.75 87.6924 25.7494 87.8666 25.7389 87.9957C25.7324 88.0745 25.7239 88.1077 25.7212 88.1165C25.6977 88.1612 25.6612 88.1977 25.6165 88.2212C25.6077 88.2239 25.5745 88.2324 25.4957 88.2389C25.3666 88.2494 25.1924 88.25 24.9 88.25H24.6C24.3076 88.25 24.1334 88.2494 24.0043 88.2389C23.9255 88.2324 23.8923 88.2239 23.8835 88.2212C23.8388 88.1977 23.8023 88.1612 23.7788 88.1165C23.7761 88.1077 23.7676 88.0745 23.7611 87.9957C23.7506 87.8666 23.75 87.6924 23.75 87.4V87.1C23.75 86.8076 23.7506 86.6334 23.7611 86.5043C23.7676 86.4255 23.7761 86.3923 23.7788 86.3835C23.8023 86.3388 23.8388 86.3023 23.8835 86.2788ZM23.7797 86.3809L23.7792 86.3824L23.7797 86.3809ZM23.7797 88.1191L23.7792 88.1176L23.7797 88.1191ZM23.8809 88.2203L23.8824 88.2208L23.8809 88.2203ZM25.6191 88.2203L25.6176 88.2208L25.6191 88.2203ZM25.7203 88.1191L25.7208 88.1176L25.7203 88.1191ZM25.7203 86.3809L25.7208 86.3824L25.7203 86.3809ZM25.6176 86.2792L25.6191 86.2797L25.6176 86.2792Z" fill="#5F5F6A"/>
<path fill-rule="evenodd" clip-rule="evenodd" d="M29.75 84.75C30.1642 84.75 30.5 85.0858 30.5 85.5V86.25C30.5 86.3881 30.6119 86.5 30.75 86.5H32.25C33.2165 86.5 34 87.2835 34 88.25V89C34 89.4142 33.6642 89.75 33.25 89.75C32.8358 89.75 32.5 89.4142 32.5 89V88.25C32.5 88.1119 32.3881 88 32.25 88H30.75C29.7835 88 29 87.2165 29 86.25V85.5C29 85.0858 29.3358 84.75 29.75 84.75Z" fill="#5F5F6A"/>
<path fill-rule="evenodd" clip-rule="evenodd" d="M23.9686 131.25L24.6667 131.25C25.0809 131.25 25.4167 131.586 25.4167 132C25.4167 132.414 25.0809 132.75 24.6667 132.75H24C23.2876 132.75 22.7983 132.751 22.4191 132.782C22.0486 132.812 21.8496 132.867 21.7055 132.941C21.3762 133.109 21.1085 133.376 20.9407 133.706C20.8673 133.85 20.8118 134.049 20.7816 134.419C20.7506 134.798 20.75 135.288 20.75 136V136.667C20.75 137.081 20.4142 137.417 20 137.417C19.5858 137.417 19.25 137.081 19.25 136.667L19.25 135.969C19.25 135.295 19.25 134.744 19.2866 134.297C19.3244 133.834 19.4051 133.415 19.6042 133.025C19.9158 132.413 20.413 131.916 21.0245 131.604C21.4153 131.405 21.8337 131.324 22.2969 131.287C22.7445 131.25 23.2952 131.25 23.9686 131.25ZM33.5809 132.782C33.2017 132.751 32.7124 132.75 32 132.75H31.3333C30.9191 132.75 30.5833 132.414 30.5833 132C30.5833 131.586 30.9191 131.25 31.3333 131.25L32.0314 131.25C32.7048 131.25 33.2555 131.25 33.7031 131.287C34.1663 131.324 34.5847 131.405 34.9755 131.604C35.587 131.916 36.0842 132.413 36.3958 133.025C36.5949 133.415 36.6756 133.834 36.7134 134.297C36.75 134.744 36.75 135.295 36.75 135.969V136.667C36.75 137.081 36.4142 137.417 36 137.417C35.5858 137.417 35.25 137.081 35.25 136.667V136C35.25 135.288 35.2494 134.798 35.2184 134.419C35.1882 134.049 35.1327 133.85 35.0593 133.706C34.8915 133.376 34.6238 133.109 34.2945 132.941C34.1504 132.867 33.9514 132.812 33.5809 132.782ZM20 142.583C20.4142 142.583 20.75 142.919 20.75 143.333V144C20.75 144.712 20.7506 145.202 20.7816 145.581C20.8118 145.951 20.8673 146.15 20.9407 146.294C21.1085 146.624 21.3762 146.891 21.7055 147.059C21.8496 147.133 22.0486 147.188 22.4191 147.218C22.7983 147.249 23.2876 147.25 24 147.25H24.6667C25.0809 147.25 25.4167 147.586 25.4167 148C25.4167 148.414 25.0809 148.75 24.6667 148.75H23.9686C23.2952 148.75 22.7445 148.75 22.2969 148.713C21.8337 148.676 21.4153 148.595 21.0245 148.396C20.413 148.084 19.9158 147.587 19.6042 146.975C19.4051 146.585 19.3244 146.166 19.2866 145.703C19.25 145.256 19.25 144.705 19.25 144.031L19.25 143.333C19.25 142.919 19.5858 142.583 20 142.583ZM36 142.583C36.4142 142.583 36.75 142.919 36.75 143.333V144.031C36.75 144.705 36.75 145.256 36.7134 145.703C36.6756 146.166 36.5949 146.585 36.3958 146.975C36.0842 147.587 35.587 148.084 34.9755 148.396C34.5847 148.595 34.1663 148.676 33.7031 148.713C33.2555 148.75 32.7048 148.75 32.0314 148.75H31.3333C30.9191 148.75 30.5833 148.414 30.5833 148C30.5833 147.586 30.9191 147.25 31.3333 147.25H32C32.7124 147.25 33.2017 147.249 33.5809 147.218C33.9514 147.188 34.1504 147.133 34.2945 147.059C34.6238 146.891 34.8915 146.624 35.0593 146.294C35.1327 146.15 35.1882 145.951 35.2184 145.581C35.2494 145.202 35.25 144.712 35.25 144V143.333C35.25 142.919 35.5858 142.583 36 142.583Z" fill="#5F5F6A"/>
<path fill-rule="evenodd" clip-rule="evenodd" d="M24.5738 134.25C24.5825 134.25 24.5912 134.25 24.6 134.25H24.9C24.9088 134.25 24.9175 134.25 24.9262 134.25C25.1837 134.25 25.4202 134.25 25.6179 134.266C25.831 134.284 26.0642 134.323 26.2945 134.441C26.6238 134.609 26.8915 134.876 27.0593 135.206C27.1766 135.436 27.2165 135.669 27.2339 135.882C27.25 136.08 27.25 136.316 27.25 136.574V136.926C27.25 137.184 27.25 137.42 27.2339 137.618C27.2165 137.831 27.1766 138.064 27.0593 138.294C26.8915 138.624 26.6238 138.891 26.2945 139.059C26.0642 139.177 25.831 139.216 25.6179 139.234C25.4202 139.25 25.1837 139.25 24.9262 139.25H24.5738C24.3163 139.25 24.0798 139.25 23.8821 139.234C23.669 139.216 23.4358 139.177 23.2055 139.059C22.8762 138.891 22.6085 138.624 22.4407 138.294C22.3234 138.064 22.2835 137.831 22.2661 137.618C22.25 137.42 22.25 137.184 22.25 136.926C22.25 136.918 22.25 136.909 22.25 136.9V136.6C22.25 136.591 22.25 136.582 22.25 136.574C22.25 136.316 22.25 136.08 22.2661 135.882C22.2835 135.669 22.3234 135.436 22.4407 135.206C22.6085 134.876 22.8762 134.609 23.2055 134.441C23.4358 134.323 23.669 134.284 23.8821 134.266C24.0798 134.25 24.3163 134.25 24.5738 134.25ZM23.8809 135.78L23.8824 135.779L23.8809 135.78ZM23.8835 135.779C23.8923 135.776 23.9255 135.768 24.0043 135.761C24.1334 135.751 24.3076 135.75 24.6 135.75H24.9C25.1924 135.75 25.3666 135.751 25.4957 135.761C25.5745 135.768 25.6077 135.776 25.6165 135.779C25.6612 135.802 25.6977 135.839 25.7212 135.883C25.7239 135.892 25.7324 135.925 25.7389 136.004C25.7494 136.133 25.75 136.308 25.75 136.6V136.9C25.75 137.192 25.7494 137.367 25.7389 137.496C25.7324 137.575 25.7239 137.608 25.7212 137.617C25.6977 137.661 25.6612 137.698 25.6165 137.721C25.6077 137.724 25.5745 137.732 25.4957 137.739C25.3666 137.749 25.1924 137.75 24.9 137.75H24.6C24.3076 137.75 24.1334 137.749 24.0043 137.739C23.9255 137.732 23.8923 137.724 23.8835 137.721C23.8388 137.698 23.8023 137.661 23.7788 137.617C23.7761 137.608 23.7676 137.575 23.7611 137.496C23.7506 137.367 23.75 137.192 23.75 136.9V136.6C23.75 136.308 23.7506 136.133 23.7611 136.004C23.7676 135.925 23.7761 135.892 23.7788 135.883C23.8023 135.839 23.8388 135.802 23.8835 135.779ZM23.7797 135.881L23.7792 135.882L23.7797 135.881ZM23.7797 137.619L23.7792 137.618L23.7797 137.619ZM23.8809 137.72L23.8824 137.721L23.8809 137.72ZM25.6191 137.72L25.6176 137.721L25.6191 137.72ZM25.7203 137.619L25.7208 137.618L25.7203 137.619ZM25.7203 135.881L25.7208 135.882L25.7203 135.881ZM25.6176 135.779L25.6191 135.78L25.6176 135.779ZM31.0738 134.25H31.4262C31.6837 134.25 31.9202 134.25 32.1179 134.266C32.331 134.284 32.5642 134.323 32.7945 134.441C33.1238 134.609 33.3915 134.876 33.5593 135.206C33.6766 135.436 33.7165 135.669 33.7339 135.882C33.75 136.08 33.75 136.316 33.75 136.574V136.926C33.75 137.184 33.75 137.42 33.7339 137.618C33.7165 137.831 33.6766 138.064 33.5593 138.294C33.3915 138.624 33.1238 138.891 32.7945 139.059C32.5642 139.177 32.331 139.216 32.1179 139.234C31.9202 139.25 31.6837 139.25 31.4262 139.25H31.0738C30.8163 139.25 30.5798 139.25 30.3821 139.234C30.169 139.216 29.9358 139.177 29.7055 139.059C29.3762 138.891 29.1085 138.624 28.9407 138.294C28.8234 138.064 28.7835 137.831 28.7661 137.618C28.75 137.42 28.75 137.184 28.75 136.926V136.574C28.75 136.316 28.75 136.08 28.7661 135.882C28.7835 135.669 28.8234 135.436 28.9407 135.206C29.1085 134.876 29.3762 134.609 29.7055 134.441C29.9358 134.323 30.169 134.284 30.3821 134.266C30.5798 134.25 30.8163 134.25 31.0738 134.25ZM30.3809 135.78L30.3824 135.779L30.3809 135.78ZM30.3835 135.779C30.3923 135.776 30.4255 135.768 30.5043 135.761C30.6334 135.751 30.8076 135.75 31.1 135.75H31.4C31.6924 135.75 31.8666 135.751 31.9957 135.761C32.0745 135.768 32.1077 135.776 32.1165 135.779C32.1612 135.802 32.1977 135.839 32.2212 135.883C32.2239 135.892 32.2324 135.925 32.2389 136.004C32.2494 136.133 32.25 136.308 32.25 136.6V136.9C32.25 137.192 32.2494 137.367 32.2389 137.496C32.2324 137.575 32.2239 137.608 32.2212 137.617C32.1977 137.661 32.1612 137.698 32.1165 137.721C32.1077 137.724 32.0745 137.732 31.9957 137.739C31.8666 137.749 31.6924 137.75 31.4 137.75H31.1C30.8076 137.75 30.6334 137.749 30.5043 137.739C30.4255 137.732 30.3923 137.724 30.3835 137.721C30.3388 137.698 30.3023 137.661 30.2788 137.617C30.2761 137.608 30.2676 137.575 30.2611 137.496C30.2506 137.367 30.25 137.192 30.25 136.9V136.6C30.25 136.308 30.2506 136.133 30.2611 136.004C30.2676 135.925 30.2761 135.892 30.2788 135.883C30.3023 135.839 30.3388 135.802 30.3835 135.779ZM30.2797 135.881L30.2792 135.882L30.2797 135.881ZM30.2797 137.619L30.2792 137.618L30.2797 137.619ZM30.3809 137.72L30.3824 137.721L30.3809 137.72ZM32.1191 137.72L32.1176 137.721L32.1191 137.72ZM32.2203 137.619L32.2208 137.618L32.2203 137.619ZM32.2203 135.881L32.2208 135.882L32.2203 135.881ZM32.1176 135.779L32.1191 135.78L32.1176 135.779ZM24.5738 140.75H24.9262C25.1837 140.75 25.4202 140.75 25.6179 140.766C25.831 140.784 26.0642 140.823 26.2945 140.941C26.6238 141.109 26.8915 141.376 27.0593 141.706C27.1766 141.936 27.2165 142.169 27.2339 142.382C27.25 142.58 27.25 142.816 27.25 143.074V143.426C27.25 143.684 27.25 143.92 27.2339 144.118C27.2165 144.331 27.1766 144.564 27.0593 144.794C26.8915 145.124 26.6238 145.391 26.2945 145.559C26.0642 145.677 25.831 145.716 25.6179 145.734C25.4202 145.75 25.1837 145.75 24.9262 145.75H24.5738C24.3163 145.75 24.0798 145.75 23.8821 145.734C23.669 145.716 23.4358 145.677 23.2055 145.559C22.8762 145.391 22.6085 145.124 22.4407 144.794C22.3234 144.564 22.2835 144.331 22.2661 144.118C22.25 143.92 22.25 143.684 22.25 143.426V143.074C22.25 142.816 22.25 142.58 22.2661 142.382C22.2835 142.169 22.3234 141.936 22.4407 141.706C22.6085 141.376 22.8762 141.109 23.2055 140.941C23.4358 140.823 23.669 140.784 23.8821 140.766C24.0798 140.75 24.3163 140.75 24.5738 140.75ZM23.8809 142.28L23.8824 142.279L23.8809 142.28ZM23.8835 142.279C23.8923 142.276 23.9255 142.268 24.0043 142.261C24.1334 142.251 24.3076 142.25 24.6 142.25H24.9C25.1924 142.25 25.3666 142.251 25.4957 142.261C25.5745 142.268 25.6077 142.276 25.6165 142.279C25.6612 142.302 25.6977 142.339 25.7212 142.383C25.7239 142.392 25.7324 142.425 25.7389 142.504C25.7494 142.633 25.75 142.808 25.75 143.1V143.4C25.75 143.692 25.7494 143.867 25.7389 143.996C25.7324 144.075 25.7239 144.108 25.7212 144.117C25.6977 144.161 25.6612 144.198 25.6165 144.221C25.6077 144.224 25.5745 144.232 25.4957 144.239C25.3666 144.249 25.1924 144.25 24.9 144.25H24.6C24.3076 144.25 24.1334 144.249 24.0043 144.239C23.9255 144.232 23.8923 144.224 23.8835 144.221C23.8388 144.198 23.8023 144.161 23.7788 144.117C23.7761 144.108 23.7676 144.075 23.7611 143.996C23.7506 143.867 23.75 143.692 23.75 143.4V143.1C23.75 142.808 23.7506 142.633 23.7611 142.504C23.7676 142.425 23.7761 142.392 23.7788 142.383C23.8023 142.339 23.8388 142.302 23.8835 142.279ZM23.7797 142.381L23.7792 142.382L23.7797 142.381ZM23.7797 144.119L23.7792 144.118L23.7797 144.119ZM23.8809 144.22L23.8824 144.221L23.8809 144.22ZM25.6191 144.22L25.6176 144.221L25.6191 144.22ZM25.7203 144.119L25.7208 144.118L25.7203 144.119ZM25.7203 142.381L25.7208 142.382L25.7203 142.381ZM25.6176 142.279L25.6191 142.28L25.6176 142.279Z" fill="#5F5F6A"/>
<path fill-rule="evenodd" clip-rule="evenodd" d="M29.75 140.75C30.1642 140.75 30.5 141.086 30.5 141.5V142.25C30.5 142.388 30.6119 142.5 30.75 142.5H32.25C33.2165 142.5 34 143.284 34 144.25V145C34 145.414 33.6642 145.75 33.25 145.75C32.8358 145.75 32.5 145.414 32.5 145V144.25C32.5 144.112 32.3881 144 32.25 144H30.75C29.7835 144 29 143.216 29 142.25V141.5C29 141.086 29.3358 140.75 29.75 140.75Z" fill="#5F5F6A"/>
<path d="M23.9781 187.5H24.6667C24.9428 187.5 25.1667 187.724 25.1667 188C25.1667 188.276 24.9428 188.5 24.6667 188.5H24C23.2917 188.5 22.7905 188.5 22.3987 188.532C22.0128 188.564 21.7772 188.624 21.592 188.718C21.2157 188.91 20.9097 189.216 20.718 189.592C20.6236 189.777 20.5639 190.013 20.5324 190.399C20.5004 190.791 20.5 191.292 20.5 192V192.667C20.5 192.943 20.2761 193.167 20 193.167C19.7239 193.167 19.5 192.943 19.5 192.667V191.978C19.5 191.297 19.5 190.755 19.5357 190.317C19.5723 189.869 19.6488 189.488 19.827 189.138C20.1146 188.574 20.5735 188.115 21.138 187.827C21.4877 187.649 21.8695 187.572 22.3173 187.536C22.7546 187.5 23.2966 187.5 23.9781 187.5Z" fill="#5F5F6A"/>
<path d="M33.6013 188.532C33.2095 188.5 32.7083 188.5 32 188.5H31.3333C31.0572 188.5 30.8333 188.276 30.8333 188C30.8333 187.724 31.0572 187.5 31.3333 187.5H32.0219C32.7034 187.5 33.2454 187.5 33.6827 187.536C34.1305 187.572 34.5123 187.649 34.862 187.827C35.4265 188.115 35.8854 188.574 36.173 189.138C36.3512 189.488 36.4277 189.869 36.4643 190.317C36.5 190.755 36.5 191.296 36.5 191.978V192.667C36.5 192.943 36.2761 193.167 36 193.167C35.7239 193.167 35.5 192.943 35.5 192.667V192C35.5 191.292 35.4996 190.791 35.4676 190.399C35.4361 190.013 35.3764 189.777 35.282 189.592C35.0903 189.216 34.7843 188.91 34.408 188.718C34.2228 188.624 33.9872 188.564 33.6013 188.532Z" fill="#5F5F6A"/>
<path d="M20 198.833C20.2761 198.833 20.5 199.057 20.5 199.333V200C20.5 200.708 20.5004 201.209 20.5324 201.601C20.5639 201.987 20.6236 202.223 20.718 202.408C20.9097 202.784 21.2157 203.09 21.592 203.282C21.7772 203.376 22.0128 203.436 22.3987 203.468C22.7905 203.5 23.2917 203.5 24 203.5H24.6667C24.9428 203.5 25.1667 203.724 25.1667 204C25.1667 204.276 24.9428 204.5 24.6667 204.5H23.9781C23.2967 204.5 22.7545 204.5 22.3173 204.464C21.8695 204.428 21.4877 204.351 21.138 204.173C20.5735 203.885 20.1146 203.426 19.827 202.862C19.6488 202.512 19.5723 202.131 19.5357 201.683C19.5 201.245 19.5 200.703 19.5 200.022V199.333C19.5 199.057 19.7239 198.833 20 198.833Z" fill="#5F5F6A"/>
<path d="M36 198.833C36.2761 198.833 36.5 199.057 36.5 199.333V200.022C36.5 200.703 36.5 201.245 36.4643 201.683C36.4277 202.131 36.3512 202.512 36.173 202.862C35.8854 203.426 35.4265 203.885 34.862 204.173C34.5123 204.351 34.1305 204.428 33.6827 204.464C33.2455 204.5 32.7035 204.5 32.0221 204.5H31.3333C31.0572 204.5 30.8333 204.276 30.8333 204C30.8333 203.724 31.0572 203.5 31.3333 203.5H32C32.7083 203.5 33.2095 203.5 33.6013 203.468C33.9872 203.436 34.2228 203.376 34.408 203.282C34.7843 203.09 35.0903 202.784 35.282 202.408C35.3764 202.223 35.4361 201.987 35.4676 201.601C35.4996 201.209 35.5 200.708 35.5 200V199.333C35.5 199.057 35.7239 198.833 36 198.833Z" fill="#5F5F6A"/>
<path fill-rule="evenodd" clip-rule="evenodd" d="M24.5807 190.5H24.9193C25.1828 190.5 25.4102 190.5 25.5975 190.515C25.7952 190.531 25.9918 190.567 26.181 190.663C26.4632 190.807 26.6927 191.037 26.8365 191.319C26.9329 191.508 26.9686 191.705 26.9847 191.902C27 192.09 27 192.317 27 192.581V192.919C27 193.183 27 193.41 26.9847 193.598C26.9686 193.795 26.9329 193.992 26.8365 194.181C26.6927 194.463 26.4632 194.693 26.181 194.837C25.9918 194.933 25.7952 194.969 25.5975 194.985C25.4102 195 25.1828 195 24.9193 195H24.5807C24.3172 195 24.0898 195 23.9025 194.985C23.7048 194.969 23.5082 194.933 23.319 194.837C23.0368 194.693 22.8073 194.463 22.6635 194.181C22.5671 193.992 22.5314 193.795 22.5153 193.598C22.5 193.41 22.5 193.183 22.5 192.919V192.581C22.5 192.317 22.5 192.09 22.5153 191.902C22.5314 191.705 22.5671 191.508 22.6635 191.319C22.8073 191.037 23.0368 190.807 23.319 190.663C23.5082 190.567 23.7048 190.531 23.9025 190.515C24.0898 190.5 24.3172 190.5 24.5807 190.5ZM23.9839 191.512C23.8481 191.523 23.7977 191.542 23.773 191.554C23.6789 191.602 23.6024 191.679 23.5545 191.773C23.5419 191.798 23.5231 191.848 23.512 191.984C23.5004 192.126 23.5 192.312 23.5 192.6V192.9C23.5 193.188 23.5004 193.374 23.512 193.516C23.5231 193.652 23.5419 193.702 23.5545 193.727C23.6024 193.821 23.6789 193.898 23.773 193.946C23.7977 193.958 23.8481 193.977 23.9839 193.988C24.1256 194 24.3117 194 24.6 194H24.9C25.1883 194 25.3744 194 25.5161 193.988C25.6519 193.977 25.7023 193.958 25.727 193.946C25.8211 193.898 25.8976 193.821 25.9455 193.727C25.9581 193.702 25.9769 193.652 25.988 193.516C25.9996 193.374 26 193.188 26 192.9V192.6C26 192.312 25.9996 192.126 25.988 191.984C25.9769 191.848 25.9581 191.798 25.9455 191.773C25.8976 191.679 25.8211 191.602 25.727 191.554C25.7023 191.542 25.6519 191.523 25.5161 191.512C25.3744 191.5 25.1883 191.5 24.9 191.5H24.6C24.3117 191.5 24.1256 191.5 23.9839 191.512Z" fill="#5F5F6A"/>
<path fill-rule="evenodd" clip-rule="evenodd" d="M24.9193 197H24.5807C24.3172 197 24.0898 197 23.9025 197.015C23.7048 197.031 23.5082 197.067 23.319 197.163C23.0368 197.307 22.8073 197.537 22.6635 197.819C22.5671 198.008 22.5314 198.205 22.5153 198.402C22.5 198.59 22.5 198.817 22.5 199.081V199.419C22.5 199.683 22.5 199.91 22.5153 200.098C22.5314 200.295 22.5671 200.492 22.6635 200.681C22.8073 200.963 23.0368 201.193 23.319 201.337C23.5082 201.433 23.7048 201.469 23.9025 201.485C24.0898 201.5 24.3171 201.5 24.5807 201.5H24.9193C25.1828 201.5 25.4102 201.5 25.5975 201.485C25.7952 201.469 25.9918 201.433 26.181 201.337C26.4632 201.193 26.6927 200.963 26.8365 200.681C26.9329 200.492 26.9686 200.295 26.9847 200.098C27 199.91 27 199.683 27 199.419V199.081C27 198.817 27 198.59 26.9847 198.402C26.9686 198.205 26.9329 198.008 26.8365 197.819C26.6927 197.537 26.4632 197.307 26.181 197.163C25.9918 197.067 25.7952 197.031 25.5975 197.015C25.4102 197 25.1828 197 24.9193 197ZM23.773 198.054C23.7977 198.042 23.8481 198.023 23.9839 198.012C24.1256 198 24.3117 198 24.6 198H24.9C25.1883 198 25.3744 198 25.5161 198.012C25.6519 198.023 25.7023 198.042 25.727 198.054C25.8211 198.102 25.8976 198.179 25.9455 198.273C25.9581 198.298 25.9769 198.348 25.988 198.484C25.9996 198.626 26 198.812 26 199.1V199.4C26 199.688 25.9996 199.874 25.988 200.016C25.9769 200.152 25.9581 200.202 25.9455 200.227C25.8976 200.321 25.8211 200.398 25.727 200.446C25.7023 200.458 25.6519 200.477 25.5161 200.488C25.3744 200.5 25.1883 200.5 24.9 200.5H24.6C24.3117 200.5 24.1256 200.5 23.9839 200.488C23.8481 200.477 23.7977 200.458 23.773 200.446C23.6789 200.398 23.6024 200.321 23.5545 200.227C23.5419 200.202 23.5231 200.152 23.512 200.016C23.5004 199.874 23.5 199.688 23.5 199.4V199.1C23.5 198.812 23.5004 198.626 23.512 198.484C23.5231 198.348 23.5419 198.298 23.5545 198.273C23.6024 198.179 23.6789 198.102 23.773 198.054Z" fill="#5F5F6A"/>
<path fill-rule="evenodd" clip-rule="evenodd" d="M31.0807 190.5H31.4193C31.6828 190.5 31.9102 190.5 32.0975 190.515C32.2952 190.531 32.4918 190.567 32.681 190.663C32.9632 190.807 33.1927 191.037 33.3365 191.319C33.4329 191.508 33.4686 191.705 33.4847 191.902C33.5 192.09 33.5 192.317 33.5 192.581V192.919C33.5 193.183 33.5 193.41 33.4847 193.598C33.4686 193.795 33.4329 193.992 33.3365 194.181C33.1927 194.463 32.9632 194.693 32.681 194.837C32.4918 194.933 32.2952 194.969 32.0975 194.985C31.9102 195 31.6829 195 31.4193 195H31.0807C30.8172 195 30.5898 195 30.4025 194.985C30.2048 194.969 30.0082 194.933 29.819 194.837C29.5368 194.693 29.3073 194.463 29.1635 194.181C29.0671 193.992 29.0314 193.795 29.0153 193.598C29 193.41 29 193.183 29 192.919V192.581C29 192.317 29 192.09 29.0153 191.902C29.0314 191.705 29.0671 191.508 29.1635 191.319C29.3073 191.037 29.5368 190.807 29.819 190.663C30.0082 190.567 30.2048 190.531 30.4025 190.515C30.5898 190.5 30.8172 190.5 31.0807 190.5ZM30.4839 191.512C30.3481 191.523 30.2977 191.542 30.273 191.554C30.1789 191.602 30.1024 191.679 30.0545 191.773C30.0419 191.798 30.0231 191.848 30.012 191.984C30.0004 192.126 30 192.312 30 192.6V192.9C30 193.188 30.0004 193.374 30.012 193.516C30.0231 193.652 30.0419 193.702 30.0545 193.727C30.1024 193.821 30.1789 193.898 30.273 193.946C30.2977 193.958 30.3481 193.977 30.4839 193.988C30.6256 194 30.8117 194 31.1 194H31.4C31.6883 194 31.8744 194 32.0161 193.988C32.1519 193.977 32.2023 193.958 32.227 193.946C32.3211 193.898 32.3976 193.821 32.4455 193.727C32.4581 193.702 32.4769 193.652 32.488 193.516C32.4996 193.374 32.5 193.188 32.5 192.9V192.6C32.5 192.312 32.4996 192.126 32.488 191.984C32.4769 191.848 32.4581 191.798 32.4455 191.773C32.3976 191.679 32.3211 191.602 32.227 191.554C32.2023 191.542 32.1519 191.523 32.0161 191.512C31.8744 191.5 31.6883 191.5 31.4 191.5H31.1C30.8117 191.5 30.6256 191.5 30.4839 191.512Z" fill="#5F5F6A"/>
<path d="M30.5 197.5C30.5 197.224 30.2761 197 30 197C29.7239 197 29.5 197.224 29.5 197.5V198.25C29.5 199.078 30.1716 199.75 31 199.75H32.5C32.7761 199.75 33 199.974 33 200.25V201C33 201.276 33.2239 201.5 33.5 201.5C33.7761 201.5 34 201.276 34 201V200.25C34 199.422 33.3284 198.75 32.5 198.75H31C30.7239 198.75 30.5 198.526 30.5 198.25V197.5Z" fill="#5F5F6A"/>
</svg>
