<svg width="56" height="224" viewBox="0 0 56 224" fill="none" xmlns="http://www.w3.org/2000/svg">
<path d="M28 36C32.4183 36 36 32.4183 36 28C36 23.5817 32.4183 20 28 20C23.5817 20 20 23.5817 20 28C20 32.4183 23.5817 36 28 36ZM28 24.75C27.3096 24.75 26.75 25.3096 26.75 26V26.1071C26.75 26.5214 26.4142 26.8571 26 26.8571C25.5858 26.8571 25.25 26.5214 25.25 26.1071V26C25.25 24.4812 26.4812 23.25 28 23.25H28.1164C29.5709 23.25 30.75 24.4291 30.75 25.8836C30.75 26.6525 30.414 27.3829 29.8303 27.8833L29.0595 28.5439C28.8631 28.7123 28.75 28.9582 28.75 29.2169V29.75C28.75 30.1642 28.4142 30.5 28 30.5C27.5858 30.5 27.25 30.1642 27.25 29.75V29.2169C27.25 28.5203 27.5544 27.8584 28.0833 27.405L28.8541 26.7444C29.1054 26.529 29.25 26.2146 29.25 25.8836C29.25 25.2576 28.7424 24.75 28.1164 24.75H28ZM29 32C29 32.5523 28.5523 33 28 33C27.4477 33 27 32.5523 27 32C27 31.4477 27.4477 31 28 31C28.5523 31 29 31.4477 29 32Z" fill="#5F5F6A"/>
<path d="M28 76.75C23.9959 76.75 20.75 79.9959 20.75 84C20.75 88.0041 23.9959 91.25 28 91.25C32.0041 91.25 35.25 88.0041 35.25 84C35.25 79.9959 32.0041 76.75 28 76.75ZM19.25 84C19.25 79.1675 23.1675 75.25 28 75.25C32.8325 75.25 36.75 79.1675 36.75 84C36.75 88.8325 32.8325 92.75 28 92.75C23.1675 92.75 19.25 88.8325 19.25 84Z" fill="#5F5F6A"/>
<g opacity="0.5">
<path d="M26.75 82C26.75 81.3096 27.3096 80.75 28 80.75H28.1164C28.7424 80.75 29.25 81.2576 29.25 81.8836C29.25 82.2146 29.1054 82.529 28.8541 82.7444L28.0833 83.405C27.5544 83.8584 27.25 84.5203 27.25 85.2169V85.75C27.25 86.1642 27.5858 86.5 28 86.5C28.4142 86.5 28.75 86.1642 28.75 85.75V85.2169C28.75 84.9582 28.8631 84.7123 29.0595 84.5439L29.8303 83.8833C30.414 83.3829 30.75 82.6525 30.75 81.8836C30.75 80.4291 29.5709 79.25 28.1164 79.25H28C26.4812 79.25 25.25 80.4812 25.25 82V82.1071C25.25 82.5214 25.5858 82.8571 26 82.8571C26.4142 82.8571 26.75 82.5214 26.75 82.1071V82Z" fill="#5F5F6A"/>
<path d="M28 89C28.5523 89 29 88.5523 29 88C29 87.4477 28.5523 87 28 87C27.4477 87 27 87.4477 27 88C27 88.5523 27.4477 89 28 89Z" fill="#5F5F6A"/>
</g>
<path d="M28 136.75C27.3096 136.75 26.75 137.31 26.75 138V138.107C26.75 138.521 26.4142 138.857 26 138.857C25.5858 138.857 25.25 138.521 25.25 138.107V138C25.25 136.481 26.4812 135.25 28 135.25H28.1164C29.5709 135.25 30.75 136.429 30.75 137.884C30.75 138.652 30.414 139.383 29.8303 139.883L29.0595 140.544C28.8631 140.712 28.75 140.958 28.75 141.217V141.75C28.75 142.164 28.4142 142.5 28 142.5C27.5858 142.5 27.25 142.164 27.25 141.75V141.217C27.25 140.52 27.5544 139.858 28.0833 139.405L28.8541 138.744C29.1054 138.529 29.25 138.215 29.25 137.884C29.25 137.258 28.7424 136.75 28.1164 136.75H28Z" fill="#5F5F6A"/>
<path d="M28 145C28.5523 145 29 144.552 29 144C29 143.448 28.5523 143 28 143C27.4477 143 27 143.448 27 144C27 144.552 27.4477 145 28 145Z" fill="#5F5F6A"/>
<path d="M19.25 140C19.25 135.168 23.1675 131.25 28 131.25C32.8325 131.25 36.75 135.168 36.75 140C36.75 144.832 32.8325 148.75 28 148.75C23.1675 148.75 19.25 144.832 19.25 140ZM28 132.75C23.9959 132.75 20.75 135.996 20.75 140C20.75 144.004 23.9959 147.25 28 147.25C32.0041 147.25 35.25 144.004 35.25 140C35.25 135.996 32.0041 132.75 28 132.75Z" fill="#5F5F6A"/>
<path d="M28 192.5C27.1716 192.5 26.5 193.172 26.5 194V194.107C26.5 194.383 26.2761 194.607 26 194.607C25.7239 194.607 25.5 194.383 25.5 194.107V194C25.5 192.619 26.6193 191.5 28 191.5H28.1164C29.4328 191.5 30.5 192.567 30.5 193.884C30.5 194.579 30.1959 195.241 29.6676 195.693L28.8968 196.354C28.645 196.57 28.5 196.885 28.5 197.217V197.75C28.5 198.026 28.2761 198.25 28 198.25C27.7239 198.25 27.5 198.026 27.5 197.75V197.217C27.5 196.593 27.7725 196.001 28.246 195.595L29.0168 194.934C29.3235 194.671 29.5 194.288 29.5 193.884C29.5 193.119 28.8805 192.5 28.1164 192.5H28Z" fill="#5F5F6A"/>
<path d="M28 200.5C28.4142 200.5 28.75 200.164 28.75 199.75C28.75 199.336 28.4142 199 28 199C27.5858 199 27.25 199.336 27.25 199.75C27.25 200.164 27.5858 200.5 28 200.5Z" fill="#5F5F6A"/>
<path d="M19.5 196C19.5 191.306 23.3056 187.5 28 187.5C32.6944 187.5 36.5 191.306 36.5 196C36.5 200.694 32.6944 204.5 28 204.5C23.3056 204.5 19.5 200.694 19.5 196ZM28 188.5C23.8579 188.5 20.5 191.858 20.5 196C20.5 200.142 23.8579 203.5 28 203.5C32.1421 203.5 35.5 200.142 35.5 196C35.5 191.858 32.1421 188.5 28 188.5Z" fill="#5F5F6A"/>
</svg>
