<svg width="64" height="168" viewBox="0 0 64 168" fill="none" xmlns="http://www.w3.org/2000/svg">
<path d="M40 22C40 21.4477 39.5523 21 39 21H25C24.4477 21 24 21.4477 24 22C24 22.5523 24.4477 23 25 23H39C39.5523 23 40 22.5523 40 22Z" fill="#5F5F6A"/>
<path d="M39 33C39.5523 33 40 33.4477 40 34C40 34.5523 39.5523 35 39 35H29C28.4477 35 28 34.5523 28 34C28 33.4477 28.4477 33 29 33H39Z" fill="#5F5F6A"/>
<path opacity="0.5" d="M40 28C40 27.4477 39.5523 27 39 27H29C28.4477 27 28 27.4477 28 28C28 28.5523 28.4477 29 29 29H39C39.5523 29 40 28.5523 40 28Z" fill="#5F5F6A"/>
<path d="M40 78C40 77.4477 39.5523 77 39 77H25C24.4477 77 24 77.4477 24 78C24 78.5523 24.4477 79 25 79H39C39.5523 79 40 78.5523 40 78Z" fill="#5F5F6A"/>
<path d="M40 84C40 83.4477 39.5523 83 39 83H29C28.4477 83 28 83.4477 28 84C28 84.5523 28.4477 85 29 85H39C39.5523 85 40 84.5523 40 84Z" fill="#5F5F6A"/>
<path d="M39 89C39.5523 89 40 89.4477 40 90C40 90.5523 39.5523 91 39 91H29C28.4477 91 28 90.5523 28 90C28 89.4477 28.4477 89 29 89H39Z" fill="#5F5F6A"/>
<path d="M39.5 134C39.5 133.724 39.2761 133.5 39 133.5H25C24.7239 133.5 24.5 133.724 24.5 134C24.5 134.276 24.7239 134.5 25 134.5H39C39.2761 134.5 39.5 134.276 39.5 134Z" fill="#5F5F6A"/>
<path d="M39.5 140C39.5 139.724 39.2761 139.5 39 139.5H29C28.7239 139.5 28.5 139.724 28.5 140C28.5 140.276 28.7239 140.5 29 140.5H39C39.2761 140.5 39.5 140.276 39.5 140Z" fill="#5F5F6A"/>
<path d="M39 145.5C39.2761 145.5 39.5 145.724 39.5 146C39.5 146.276 39.2761 146.5 39 146.5H29C28.7239 146.5 28.5 146.276 28.5 146C28.5 145.724 28.7239 145.5 29 145.5H39Z" fill="#5F5F6A"/>
</svg>
