<svg width="56" height="224" viewBox="0 0 56 224" fill="none" xmlns="http://www.w3.org/2000/svg">
<path d="M30.672 18.7827H25.3275C24.8232 18.7827 24.4023 18.7827 24.0584 18.8108C23.6997 18.8401 23.363 18.9034 23.0446 19.0657C22.556 19.3146 22.1589 19.7118 21.9099 20.2003C21.7477 20.5187 21.6843 20.8554 21.655 21.2141C21.6269 21.558 21.6269 21.9789 21.627 22.4832L21.627 35.1006C21.6269 35.3064 21.6269 35.5065 21.6419 35.6698C21.6568 35.8331 21.6945 36.0883 21.8659 36.3149C22.0741 36.5901 22.3923 36.7604 22.7368 36.7809C23.0204 36.7979 23.2536 36.6877 23.3978 36.6096C23.542 36.5314 23.7085 36.4204 23.8797 36.3062L27.9998 33.5595L32.1199 36.3062C32.2911 36.4204 32.4576 36.5314 32.6018 36.6096C32.7459 36.6877 32.9792 36.7979 33.2628 36.7809C33.6072 36.7604 33.9254 36.5901 34.1336 36.3149C34.305 36.0883 34.3427 35.8331 34.3577 35.6698C34.3726 35.5065 34.3726 35.3064 34.3726 35.1006L34.3726 22.4832C34.3726 21.9789 34.3726 21.558 34.3445 21.2141C34.3152 20.8554 34.2518 20.5187 34.0896 20.2003C33.8407 19.7118 33.4435 19.3146 32.955 19.0657C32.6365 18.9034 32.2998 18.8401 31.9412 18.8108C31.5973 18.7827 31.1763 18.7827 30.672 18.7827Z" fill="#5F5F6A"/>
<path fill-rule="evenodd" clip-rule="evenodd" d="M25.3277 74.7851H30.6707C31.4177 74.7851 32.2656 74.7178 32.953 75.068C33.4414 75.3169 33.8384 75.7139 34.0873 76.2023C34.4375 76.8897 34.3702 77.7376 34.3702 78.4846L34.3702 91.0984C34.3703 91.5093 34.393 91.9663 34.1313 92.3123C33.9232 92.5874 33.6051 92.7576 33.2607 92.7782C32.8277 92.804 32.4601 92.5316 32.1182 92.3036L27.9992 89.5577L23.8804 92.3036C23.5384 92.5316 23.1707 92.804 22.7377 92.7782C22.3934 92.7576 22.0753 92.5874 21.8671 92.3123C21.6055 91.9663 21.6282 91.5093 21.6282 91.0984L21.6282 78.4846C21.6282 77.7376 21.5609 76.8897 21.9111 76.2023C22.16 75.7139 22.5571 75.3169 23.0455 75.068C23.7328 74.7178 24.5807 74.7851 25.3277 74.7851ZM23.6882 76.3295C23.4662 76.4426 23.2857 76.6231 23.1726 76.8451C22.936 77.3094 23.044 78.0176 23.044 78.5133C23.044 82.7287 23.0383 86.9441 23.0441 91.1595C24.5663 90.1477 26.0857 89.1318 27.6066 88.1179C27.8443 87.9594 28.1541 87.9594 28.3919 88.1179C29.9127 89.1318 31.4322 90.1477 32.9544 91.1595C32.9601 86.9441 32.9544 82.7287 32.9544 78.5133C32.9544 78.0176 33.0624 77.3094 32.8258 76.8451C32.7127 76.6231 32.5322 76.4426 32.3102 76.3295C31.8459 76.0929 31.1377 76.2009 30.642 76.2009H25.3564C24.8607 76.2009 24.1526 76.0929 23.6882 76.3295Z" fill="#5F5F6A"/>
<path opacity="0.5" d="M22.3359 78.5133C22.3359 77.4561 22.3359 76.9275 22.5417 76.5237C22.7227 76.1685 23.0114 75.8797 23.3666 75.6988C23.7704 75.493 24.299 75.493 25.3563 75.493H30.6418C31.699 75.493 32.2276 75.493 32.6314 75.6988C32.9866 75.8797 33.2754 76.1685 33.4564 76.5237C33.6621 76.9275 33.6621 77.4561 33.6621 78.5133V91.0714C33.6621 91.5297 33.6621 91.7589 33.5666 91.8852C33.4833 91.9952 33.3561 92.0633 33.2183 92.0716C33.0602 92.081 32.8695 91.9539 32.4882 91.6997L27.999 88.7069L23.5099 91.6997C23.1285 91.9539 22.9378 92.081 22.7797 92.0716C22.642 92.0633 22.5147 91.9952 22.4315 91.8852C22.3359 91.7589 22.3359 91.5297 22.3359 91.0714V78.5133Z" fill="#5F5F6A"/>
<path fill-rule="evenodd" clip-rule="evenodd" d="M25.3275 130.783H30.672C31.1763 130.783 31.5973 130.783 31.9412 130.811C32.2998 130.84 32.6365 130.903 32.955 131.066C33.4435 131.315 33.8407 131.712 34.0896 132.2C34.2518 132.519 34.3152 132.855 34.3445 133.214C34.3726 133.558 34.3726 133.979 34.3726 134.483L34.3726 147.101C34.3726 147.306 34.3726 147.507 34.3577 147.67C34.3427 147.833 34.305 148.088 34.1336 148.315C33.9254 148.59 33.6072 148.76 33.2628 148.781C32.9792 148.798 32.7459 148.688 32.6018 148.61C32.4576 148.531 32.2911 148.42 32.1199 148.306L27.9998 145.559L23.8797 148.306C23.7085 148.42 23.542 148.531 23.3978 148.61C23.2536 148.688 23.0204 148.798 22.7368 148.781C22.3923 148.76 22.0741 148.59 21.8659 148.315C21.6945 148.088 21.6568 147.833 21.6419 147.67C21.6269 147.507 21.6269 147.306 21.627 147.101L21.627 134.483C21.6269 133.979 21.6269 133.558 21.655 133.214C21.6843 132.855 21.7477 132.519 21.9099 132.2C22.1589 131.712 22.556 131.315 23.0446 131.066C23.363 130.903 23.6997 130.84 24.0584 130.811C24.4023 130.783 24.8232 130.783 25.3275 130.783ZM24.1737 132.222C23.9026 132.244 23.773 132.284 23.6875 132.327C23.4655 132.441 23.2849 132.621 23.1718 132.843C23.1282 132.929 23.0887 133.058 23.0665 133.329C23.0437 133.609 23.0431 133.972 23.0431 134.512V147.074C23.0431 147.105 23.0432 147.134 23.0432 147.162C23.0662 147.146 23.0906 147.13 23.1165 147.113L27.607 144.119C27.8448 143.961 28.1547 143.961 28.3925 144.119L32.883 147.113C32.9089 147.13 32.9333 147.146 32.9564 147.162C32.9564 147.134 32.9564 147.105 32.9564 147.074V134.512C32.9564 133.972 32.9559 133.609 32.933 133.329C32.9109 133.058 32.8713 132.929 32.8278 132.843C32.7146 132.621 32.5341 132.441 32.312 132.327C32.2265 132.284 32.0969 132.244 31.8258 132.222C31.5465 132.199 31.1838 132.199 30.6433 132.199H25.3562C24.8158 132.199 24.453 132.199 24.1737 132.222Z" fill="#5F5F6A"/>
<path fill-rule="evenodd" clip-rule="evenodd" d="M25.1786 186.5H30.8214C31.3633 186.5 31.8004 186.5 32.1543 186.528C32.5187 186.557 32.8388 186.618 33.135 186.764C33.6054 186.997 33.9878 187.367 34.2275 187.823C34.3784 188.111 34.4413 188.421 34.4711 188.774C34.5 189.117 34.5 189.541 34.5 190.067V203.008C34.5 203.226 34.5 203.421 34.4853 203.577C34.4705 203.734 34.4354 203.939 34.2975 204.116C34.1211 204.342 33.8515 204.482 33.5596 204.499C33.3314 204.512 33.1359 204.426 32.9935 204.351C32.8512 204.277 32.6835 204.168 32.4969 204.048L28 201.141L23.5031 204.048C23.3166 204.168 23.1488 204.277 23.0065 204.351C22.8641 204.426 22.6686 204.512 22.4404 204.499C22.1485 204.482 21.8789 204.342 21.7025 204.116C21.5646 203.939 21.5295 203.734 21.5147 203.577C21.5 203.421 21.5 203.226 21.5 203.008L21.5 190.067C21.5 189.541 21.5 189.117 21.5289 188.774C21.5587 188.421 21.6216 188.111 21.7725 187.823C22.0122 187.367 22.3946 186.997 22.865 186.764C23.1612 186.618 23.4813 186.557 23.8457 186.528C24.1996 186.5 24.6367 186.5 25.1786 186.5ZM23.9271 187.494C23.6245 187.518 23.4507 187.563 23.319 187.628C23.0368 187.767 22.8073 187.99 22.6635 188.264C22.5964 188.391 22.5503 188.56 22.5256 188.853C22.5004 189.152 22.5 189.536 22.5 190.087V202.987C22.5 203.232 22.5005 203.382 22.5106 203.489C22.5112 203.496 22.5119 203.502 22.5126 203.508C22.518 203.505 22.5238 203.502 22.5301 203.499C22.6271 203.448 22.7561 203.365 22.9664 203.229L27.7227 200.155C27.8906 200.047 28.1094 200.047 28.2774 200.155L33.0336 203.229C33.2439 203.365 33.3729 203.448 33.4699 203.499C33.4762 203.502 33.482 203.505 33.4874 203.508C33.4881 203.502 33.4888 203.496 33.4894 203.489C33.4995 203.382 33.5 203.232 33.5 202.987V190.087C33.5 189.536 33.4996 189.152 33.4744 188.853C33.4497 188.56 33.4036 188.391 33.3365 188.264C33.1927 187.99 32.9632 187.767 32.681 187.628C32.5493 187.563 32.3755 187.518 32.0729 187.494C31.7645 187.47 31.3683 187.47 30.8 187.47H25.2C24.6317 187.47 24.2355 187.47 23.9271 187.494Z" fill="#5F5F6A"/>
</svg>
