<svg width="56" height="224" viewBox="0 0 56 224" fill="none" xmlns="http://www.w3.org/2000/svg">
<path fill-rule="evenodd" clip-rule="evenodd" d="M26.44 18.75C22.1929 18.75 18.75 22.1929 18.75 26.44C18.75 30.6871 22.1929 34.13 26.44 34.13C28.1714 34.13 29.7696 33.5575 31.055 32.5918C31.1128 32.7612 31.2093 32.9205 31.3444 33.0556L35.1844 36.8956C35.6569 37.3681 36.4231 37.3681 36.8956 36.8956C37.3681 36.4231 37.3681 35.6569 36.8956 35.1844L33.0556 31.3444C32.9205 31.2093 32.7612 31.1128 32.5918 31.055C33.5575 29.7696 34.13 28.1714 34.13 26.44C34.13 22.1929 30.6871 18.75 26.44 18.75ZM20.69 26.44C20.69 23.2644 23.2644 20.69 26.44 20.69C29.6156 20.69 32.19 23.2644 32.19 26.44C32.19 29.6156 29.6156 32.19 26.44 32.19C23.2644 32.19 20.69 29.6156 20.69 26.44Z" fill="#5F5F6A"/>
<path opacity="0.5" d="M31.7929 87.7929C32.1834 87.4024 32.8166 87.4024 33.2071 87.7929L37.2071 91.7929C37.5976 92.1834 37.5976 92.8166 37.2071 93.2071C36.8166 93.5976 36.1834 93.5976 35.7929 93.2071L31.7929 89.2071C31.4024 88.8166 31.4024 88.1834 31.7929 87.7929Z" fill="#5F5F6A"/>
<path d="M18.75 82.5C18.75 78.2198 22.2198 74.75 26.5 74.75C30.7802 74.75 34.25 78.2198 34.25 82.5C34.25 86.7802 30.7802 90.25 26.5 90.25C22.2198 90.25 18.75 86.7802 18.75 82.5ZM26.5 76.25C23.0482 76.25 20.25 79.0482 20.25 82.5C20.25 85.9518 23.0482 88.75 26.5 88.75C29.9518 88.75 32.75 85.9518 32.75 82.5C32.75 79.0482 29.9518 76.25 26.5 76.25Z" fill="#5F5F6A"/>
<path d="M26.44 131C22.331 131 19 134.331 19 138.44C19 142.549 22.331 145.88 26.44 145.88C28.2708 145.88 29.9471 145.219 31.2432 144.122C31.2212 144.393 31.3139 144.672 31.5212 144.879L35.3612 148.719C35.7361 149.094 36.3439 149.094 36.7188 148.719C37.0937 148.344 37.0937 147.736 36.7188 147.361L32.8788 143.521C32.6715 143.314 32.393 143.221 32.122 143.243C33.2187 141.947 33.88 140.271 33.88 138.44C33.88 134.331 30.549 131 26.44 131ZM20.44 138.44C20.44 135.126 23.1263 132.44 26.44 132.44C29.7537 132.44 32.44 135.126 32.44 138.44C32.44 141.754 29.7537 144.44 26.44 144.44C23.1263 144.44 20.44 141.754 20.44 138.44Z" fill="#5F5F6A"/>
<path d="M26.3973 187C22.3119 187 19 190.312 19 194.397C19 198.483 22.3119 201.795 26.3973 201.795C30.4827 201.795 33.7945 198.483 33.7945 194.397C33.7945 190.312 30.4827 187 26.3973 187ZM19.9863 194.397C19.9863 190.857 22.8566 187.986 26.3973 187.986C29.9379 187.986 32.8082 190.857 32.8082 194.397C32.8082 197.938 29.9379 200.808 26.3973 200.808C22.8566 200.808 19.9863 197.938 19.9863 194.397Z" fill="#5F5F6A"/>
<path d="M32.8381 199.792C32.5493 199.503 32.0809 199.503 31.792 199.792C31.5031 200.081 31.5031 200.549 31.792 200.838L35.7372 204.783C36.0261 205.072 36.4945 205.072 36.7833 204.783C37.0722 204.494 37.0722 204.026 36.7833 203.737L32.8381 199.792Z" fill="#5F5F6A"/>
</svg>
