<svg width="56" height="224" viewBox="0 0 56 224" fill="none" xmlns="http://www.w3.org/2000/svg">
<path d="M34.9449 24.2566C34.7083 24.0978 34.3878 24.1609 34.2289 24.3974C34.0701 24.634 34.1332 24.9545 34.3697 25.1133C34.8077 25.4074 35.1445 25.8541 35.2917 26.4037C35.3655 26.6789 35.6484 26.8422 35.9236 26.7685C36.1988 26.6947 36.3622 26.4118 36.2884 26.1366C36.0742 25.3369 35.5821 24.6844 34.9449 24.2566Z" fill="#5F5F6A"/>
<path d="M37.3378 22.6622C35.1215 20.4459 31.5282 20.4459 29.3119 22.6622C27.2677 24.7064 27.109 27.9222 28.8359 30.1483L27.0852 32.3367C26.6402 32.8929 26.7303 33.7046 27.2866 34.1496C27.8428 34.5946 28.6545 34.5044 29.0995 33.9482L30.8362 31.7772C32.953 32.8099 35.579 32.4469 37.3378 30.6881C39.5541 28.4718 39.5541 24.8785 37.3378 22.6622ZM30.7712 24.1215C32.1815 22.7111 34.4682 22.7111 35.8785 24.1215C37.2889 25.5318 37.2889 27.8185 35.8785 29.2288C34.4682 30.6392 32.1815 30.6392 30.7712 29.2288C29.3608 27.8185 29.3608 25.5318 30.7712 24.1215Z" fill="#5F5F6A"/>
<path d="M20.8694 23.082C18.7324 23.082 17 24.8144 17 26.9514C17 29.0884 18.7324 30.8208 20.8694 30.8208H24.9968C25.4242 30.8208 25.7707 30.4743 25.7707 30.0469C25.7707 29.6195 25.4242 29.273 24.9968 29.273H20.8694C19.5872 29.273 18.5478 28.2336 18.5478 26.9514C18.5478 25.6692 19.5872 24.6297 20.8694 24.6297H27.0605C27.4879 24.6297 27.8344 24.2833 27.8344 23.8559C27.8344 23.4285 27.4879 23.082 27.0605 23.082H20.8694Z" fill="#5F5F6A"/>
<path d="M19.8376 26.9514C19.8376 26.3815 20.2995 25.9195 20.8694 25.9195H25.5127C26.0826 25.9195 26.5446 26.3815 26.5446 26.9514C26.5446 27.5213 26.0826 27.9832 25.5127 27.9832H20.8694C20.2995 27.9832 19.8376 27.5213 19.8376 26.9514Z" fill="#5F5F6A"/>
<g opacity="0.5">
<path d="M36.8408 85.8037C35.006 87.6385 32.0311 87.6385 30.1963 85.8037C28.3614 83.9689 28.3614 80.994 30.1963 79.1592C32.0311 77.3244 35.006 77.3244 36.8408 79.1592C38.6756 80.994 38.6756 83.9689 36.8408 85.8037ZM34.6511 79.8598C34.4904 80.0992 34.5542 80.4235 34.7936 80.5842C35.2368 80.8817 35.5775 81.3338 35.7265 81.8899C35.8011 82.1683 36.0874 82.3336 36.3659 82.259C36.6444 82.1844 36.8096 81.8981 36.735 81.6196C36.5182 80.8105 36.0203 80.1502 35.3755 79.7173C35.1361 79.5566 34.8118 79.6204 34.6511 79.8598Z" fill="#5F5F6A"/>
<path d="M20.9153 81.7169C20.3387 81.7169 19.8712 82.1844 19.8712 82.761C19.8712 83.3377 20.3387 83.8051 20.9153 83.8051H25.6137C26.1903 83.8051 26.6578 83.3377 26.6578 82.761C26.6578 82.1844 26.1903 81.7169 25.6137 81.7169H20.9153Z" fill="#5F5F6A"/>
</g>
<path d="M36.2871 79.7129C34.7581 78.1839 32.279 78.1839 30.75 79.7129C29.221 81.2419 29.221 83.721 30.75 85.25C32.279 86.779 34.7581 86.779 36.2871 85.25C37.8161 83.721 37.8161 81.2419 36.2871 79.7129ZM29.6426 78.6055C31.7832 76.4648 35.2539 76.4648 37.3945 78.6055C39.5352 80.7461 39.5352 84.2168 37.3945 86.3574C35.6441 88.1079 33.0043 88.4269 30.9297 87.3147L29.0392 89.6777C28.679 90.128 28.022 90.201 27.5717 89.8408C27.1214 89.4806 27.0484 88.8235 27.4086 88.3733L29.311 85.9953C27.5083 83.8417 27.6188 80.6292 29.6426 78.6055ZM17 82.761C17 80.5986 18.7529 78.8457 20.9153 78.8457H27.1798C27.6123 78.8457 27.9629 79.1963 27.9629 79.6288C27.9629 80.0612 27.6123 80.4118 27.1798 80.4118H20.9153C19.6179 80.4118 18.5661 81.4636 18.5661 82.761C18.5661 84.0584 19.6179 85.1102 20.9153 85.1102H25.0917C25.5241 85.1102 25.8747 85.4608 25.8747 85.8933C25.8747 86.3258 25.5241 86.6763 25.0917 86.6763H20.9153C18.7529 86.6763 17 84.9234 17 82.761Z" fill="#5F5F6A"/>
<path d="M34.6511 136.86C34.8118 136.62 35.1362 136.557 35.3755 136.717C36.0204 137.15 36.5182 137.81 36.735 138.62C36.8097 138.898 36.6444 139.184 36.3659 139.259C36.0874 139.334 35.8012 139.168 35.7265 138.89C35.5775 138.334 35.2368 137.882 34.7936 137.584C34.5542 137.424 34.4904 137.099 34.6511 136.86Z" fill="#5F5F6A"/>
<path d="M37.3945 135.605C35.2539 133.465 31.7832 133.465 29.6426 135.605C27.5555 137.693 27.5033 141.044 29.486 143.194L27.6125 145.536C27.3423 145.874 27.397 146.367 27.7348 146.637C28.0725 146.907 28.5652 146.852 28.8354 146.515L30.6999 144.184C32.8061 145.449 35.5788 145.173 37.3945 143.357C39.5352 141.217 39.5352 137.746 37.3945 135.605ZM30.75 136.713C32.279 135.184 34.7581 135.184 36.2871 136.713C37.8161 138.242 37.8161 140.721 36.2871 142.25C34.7581 143.779 32.279 143.779 30.75 142.25C29.221 140.721 29.221 138.242 30.75 136.713Z" fill="#5F5F6A"/>
<path d="M17 139.761C17 137.599 18.7529 135.846 20.9153 135.846H27.1798C27.6123 135.846 27.9629 136.196 27.9629 136.629C27.9629 137.061 27.6123 137.412 27.1798 137.412H20.9153C19.6179 137.412 18.5661 138.464 18.5661 139.761C18.5661 141.058 19.6179 142.11 20.9153 142.11H25.0917C25.5241 142.11 25.8747 142.461 25.8747 142.893C25.8747 143.326 25.5241 143.676 25.0917 143.676H20.9153C18.7529 143.676 17 141.923 17 139.761Z" fill="#5F5F6A"/>
<path d="M20.3933 139.761C20.3933 139.473 20.627 139.239 20.9153 139.239H25.6137C25.902 139.239 26.1358 139.473 26.1358 139.761C26.1358 140.049 25.902 140.283 25.6137 140.283H20.9153C20.627 140.283 20.3933 140.049 20.3933 139.761Z" fill="#5F5F6A"/>
<path d="M34.8128 192.662C34.9774 192.417 35.3096 192.351 35.5548 192.516C36.2153 192.959 36.7253 193.636 36.9474 194.465C37.0238 194.75 36.8545 195.043 36.5692 195.119C36.284 195.196 35.9908 195.027 35.9143 194.741C35.7617 194.172 35.4127 193.709 34.9587 193.404C34.7135 193.239 34.6482 192.907 34.8128 192.662Z" fill="#5F5F6A"/>
<path d="M37.4338 191.566C35.3455 189.478 31.9598 189.478 29.8716 191.566C27.7833 193.654 27.7833 197.04 29.8716 199.128C29.8735 199.13 29.8755 199.132 29.8775 199.134L27.8118 201.716C27.6273 201.947 27.6647 202.284 27.8953 202.468C28.1259 202.652 28.4624 202.615 28.6469 202.384L30.706 199.811C32.7819 201.184 35.6053 200.957 37.4338 199.128C39.5221 197.04 39.5221 193.654 37.4338 191.566ZM30.6278 192.322C32.2984 190.652 35.007 190.652 36.6776 192.322C38.3482 193.993 38.3482 196.702 36.6776 198.372C35.007 200.043 32.2984 200.043 30.6278 198.372C28.9572 196.702 28.9572 193.993 30.6278 192.322Z" fill="#5F5F6A"/>
<path d="M17 195.634C17 193.566 18.6759 191.891 20.7431 191.891H27.1599C27.4552 191.891 27.6946 192.13 27.6946 192.425C27.6946 192.721 27.4552 192.96 27.1599 192.96H20.7431C19.2665 192.96 18.0695 194.157 18.0695 195.634C18.0695 197.11 19.2665 198.307 20.7431 198.307H25.021C25.3163 198.307 25.5557 198.547 25.5557 198.842C25.5557 199.137 25.3163 199.377 25.021 199.377H20.7431C18.6759 199.377 17 197.701 17 195.634Z" fill="#5F5F6A"/>
<path d="M20.2084 195.634C20.2084 195.338 20.4478 195.099 20.7431 195.099H25.5557C25.851 195.099 26.0904 195.338 26.0904 195.634C26.0904 195.929 25.851 196.168 25.5557 196.168H20.7431C20.4478 196.168 20.2084 195.929 20.2084 195.634Z" fill="#5F5F6A"/>
</svg>
