<svg width="56" height="224" viewBox="0 0 56 224" fill="none" xmlns="http://www.w3.org/2000/svg">
<path d="M34.121 26.8727L36.5202 29.7818C36.7601 30.0727 37.2399 30.0727 37.4798 29.7818L39.879 26.8727C40.1755 26.5131 39.8934 26 39.3991 26H34.6009C34.1066 26 33.8245 26.5131 34.121 26.8727Z" fill="#5F5F6A"/>
<path fill-rule="evenodd" clip-rule="evenodd" d="M23.4822 19C19.3499 19 16 22.3499 16 26.4822C16 30.6144 19.3499 33.9643 23.4822 33.9643C25.1668 33.9643 26.7218 33.4073 27.9724 32.4677C28.0287 32.6325 28.1225 32.7875 28.254 32.919L31.9902 36.6552C32.45 37.1149 33.1954 37.1149 33.6552 36.6552C34.1149 36.1954 34.1149 35.45 33.6552 34.9902L29.919 31.254C29.7875 31.1225 29.6325 31.0287 29.4677 30.9724C30.4073 29.7218 30.9643 28.1668 30.9643 26.4822C30.9643 22.3499 27.6144 19 23.4822 19ZM17.8876 26.4822C17.8876 23.3924 20.3924 20.8876 23.4822 20.8876C26.572 20.8876 29.0768 23.3924 29.0768 26.4822C29.0768 29.572 26.572 32.0768 23.4822 32.0768C20.3924 32.0768 17.8876 29.572 17.8876 26.4822Z" fill="#5F5F6A"/>
<path opacity="0.5" d="M28.5212 87.2712C28.8961 86.8962 29.5039 86.8962 29.8788 87.2712L33.7188 91.1112C34.0937 91.4861 34.0937 92.0939 33.7188 92.4688C33.3439 92.8437 32.7361 92.8437 32.3612 92.4688L28.5212 88.6288C28.1463 88.2539 28.1463 87.6461 28.5212 87.2712Z" fill="#5F5F6A"/>
<path d="M16 82.19C16 78.081 19.331 74.75 23.44 74.75C27.549 74.75 30.88 78.081 30.88 82.19C30.88 86.299 27.549 89.63 23.44 89.63C19.331 89.63 16 86.299 16 82.19ZM23.44 76.19C20.1263 76.19 17.44 78.8763 17.44 82.19C17.44 85.5037 20.1263 88.19 23.44 88.19C26.7537 88.19 29.44 85.5037 29.44 82.19C29.44 78.8763 26.7537 76.19 23.44 76.19Z" fill="#5F5F6A"/>
<path d="M36.5202 85.7818L34.121 82.8727C33.8245 82.5131 34.1066 82 34.6009 82H39.3991C39.8934 82 40.1755 82.5131 39.879 82.8727L37.4798 85.7818C37.2399 86.0727 36.7601 86.0727 36.5202 85.7818Z" fill="#5F5F6A"/>
<path d="M23.44 131C19.331 131 16 134.331 16 138.44C16 142.549 19.331 145.88 23.44 145.88C25.2708 145.88 26.9471 145.219 28.2432 144.122C28.2212 144.393 28.3139 144.672 28.5212 144.879L32.3612 148.719C32.7361 149.094 33.3439 149.094 33.7188 148.719C34.0937 148.344 34.0937 147.736 33.7188 147.361L29.8788 143.521C29.6715 143.314 29.393 143.221 29.122 143.243C30.2187 141.947 30.88 140.271 30.88 138.44C30.88 134.331 27.549 131 23.44 131ZM17.44 138.44C17.44 135.126 20.1263 132.44 23.44 132.44C26.7537 132.44 29.44 135.126 29.44 138.44C29.44 141.754 26.7537 144.44 23.44 144.44C20.1263 144.44 17.44 141.754 17.44 138.44Z" fill="#5F5F6A"/>
<path d="M36.5202 141.782L34.121 138.873C33.8245 138.513 34.1066 138 34.6009 138H39.3991C39.8934 138 40.1755 138.513 39.879 138.873L37.4798 141.782C37.2399 142.073 36.7601 142.073 36.5202 141.782Z" fill="#5F5F6A"/>
<path d="M23.3973 187C19.3119 187 16 190.312 16 194.397C16 198.483 19.3119 201.795 23.3973 201.795C27.4827 201.795 30.7945 198.483 30.7945 194.397C30.7945 190.312 27.4827 187 23.3973 187ZM16.9863 194.397C16.9863 190.857 19.8566 187.986 23.3973 187.986C26.9379 187.986 29.8082 190.857 29.8082 194.397C29.8082 197.938 26.9379 200.808 23.3973 200.808C19.8566 200.808 16.9863 197.938 16.9863 194.397Z" fill="#5F5F6A"/>
<path d="M29.8381 199.792C29.5493 199.503 29.0809 199.503 28.792 199.792C28.5031 200.081 28.5031 200.549 28.792 200.838L32.7372 204.783C33.0261 205.072 33.4945 205.072 33.7833 204.783C34.0722 204.494 34.0722 204.026 33.7833 203.737L29.8381 199.792Z" fill="#5F5F6A"/>
<path d="M36.5202 197.782L34.121 194.873C33.8245 194.513 34.1066 194 34.6009 194H39.3991C39.8934 194 40.1755 194.513 39.879 194.873L37.4798 197.782C37.2399 198.073 36.7601 198.073 36.5202 197.782Z" fill="#5F5F6A"/>
</svg>
