<svg width="56" height="224" viewBox="0 0 56 224" fill="none" xmlns="http://www.w3.org/2000/svg">
<path fill-rule="evenodd" clip-rule="evenodd" d="M18.75 20.25C19.3023 20.25 19.75 20.6977 19.75 21.25C19.75 21.76 19.7324 22.2735 19.7739 22.7822C19.8207 23.3543 20.1732 23.6816 20.7178 23.7261C21.0012 23.7492 21.3734 23.75 21.95 23.75H33.55C34.0266 23.75 34.7559 23.8693 35.204 23.641C35.5586 23.4603 35.6954 23.1573 35.7261 22.7822C35.7676 22.2735 35.75 21.76 35.75 21.25C35.75 20.6977 36.1977 20.25 36.75 20.25C37.3023 20.25 37.75 20.6977 37.75 21.25C37.75 21.8145 37.7654 22.382 37.7194 22.945C37.6871 23.3404 37.6158 23.7336 37.423 24.112C37.1354 24.6765 36.6765 25.1354 36.112 25.423C35.7336 25.6158 35.3404 25.6871 34.945 25.7194C34.5705 25.75 34.1157 25.75 33.5885 25.75H21.9115C21.3843 25.75 20.9295 25.75 20.555 25.7194C20.1596 25.6871 19.7664 25.6158 19.388 25.423C18.8235 25.1354 18.3646 24.6765 18.077 24.112C17.8842 23.7336 17.8129 23.3404 17.7806 22.945C17.7346 22.382 17.75 21.8145 17.75 21.25C17.75 20.6977 18.1977 20.25 18.75 20.25ZM17.5 28C17.5 27.4477 17.9477 27 18.5 27H37.5C38.0523 27 38.5 27.4477 38.5 28C38.5 28.5523 38.0523 29 37.5 29H18.5C17.9477 29 17.5 28.5523 17.5 28ZM21.9115 30.25H33.5885C34.1157 30.25 34.5705 30.25 34.945 30.2806C35.3404 30.3129 35.7336 30.3842 36.112 30.577C36.6765 30.8646 37.1354 31.3235 37.423 31.888C37.6158 32.2664 37.6871 32.6596 37.7194 33.055C37.7654 33.618 37.75 34.1855 37.75 34.75C37.75 35.3023 37.3023 35.75 36.75 35.75C36.1977 35.75 35.75 35.3023 35.75 34.75C35.75 34.24 35.7676 33.7265 35.7261 33.2178C35.6793 32.6457 35.3268 32.3184 34.7822 32.2739C34.4988 32.2508 34.1266 32.25 33.55 32.25H21.95C21.3734 32.25 21.0012 32.2508 20.7178 32.2739C20.1457 32.3207 19.8184 32.6732 19.7739 33.2178C19.7324 33.7265 19.75 34.24 19.75 34.75C19.75 35.3023 19.3023 35.75 18.75 35.75C18.1977 35.75 17.75 35.3023 17.75 34.75C17.75 34.1855 17.7346 33.618 17.7806 33.055C17.8129 32.6596 17.8842 32.2664 18.077 31.888C18.3646 31.3235 18.8235 30.8646 19.388 30.577C19.7664 30.3842 20.1596 30.3129 20.555 30.2806C20.9295 30.25 21.3843 30.25 21.9115 30.25Z" fill="#5F5F6A"/>
<path fill-rule="evenodd" clip-rule="evenodd" d="M17.75 84C17.75 83.5858 18.0858 83.25 18.5 83.25H37.5C37.9142 83.25 38.25 83.5858 38.25 84C38.25 84.4142 37.9142 84.75 37.5 84.75H18.5C18.0858 84.75 17.75 84.4142 17.75 84Z" fill="#5F5F6A"/>
<path opacity="0.5" fill-rule="evenodd" clip-rule="evenodd" d="M18.7507 76.5C19.1649 76.5 19.5007 76.8358 19.5007 77.25C19.5007 77.7668 19.4833 78.2871 19.5254 78.8025C19.5819 79.494 20.0343 79.921 20.6981 79.9752C20.994 79.9994 21.3782 80 21.9507 80H33.5507C34.1231 80 34.5073 79.9994 34.8032 79.9752C36.2605 79.8562 36.0007 78.303 36.0007 77.25C36.0007 76.8358 36.3365 76.5 36.7507 76.5C37.1649 76.5 37.5007 76.8358 37.5007 77.25C37.5007 77.8077 37.5164 78.3684 37.4709 78.9247C37.4399 79.3046 37.3728 79.6612 37.2009 79.9985C36.9373 80.5159 36.5166 80.9366 35.9991 81.2003C35.6619 81.3721 35.3052 81.4392 34.9253 81.4703C34.5611 81.5 34.1153 81.5 33.5811 81.5H21.9202C21.3861 81.5 20.9402 81.5 20.576 81.4703C20.1961 81.4392 19.8395 81.3721 19.5022 81.2003C18.9848 80.9366 18.5641 80.5159 18.3004 79.9985C18.1286 79.6612 18.0614 79.3046 18.0304 78.9247C17.985 78.3684 18.0007 77.8077 18.0007 77.25C18.0007 76.8358 18.3365 76.5 18.7507 76.5ZM21.9202 86.5H33.5811C34.3726 86.5 35.2709 86.4287 35.9991 86.7997C36.5166 87.0634 36.9373 87.4841 37.2009 88.0015C37.3728 88.3388 37.4399 88.6954 37.4709 89.0753C37.5164 89.6316 37.5007 90.1923 37.5007 90.75C37.5007 91.1642 37.1649 91.5 36.7507 91.5C36.3365 91.5 36.0007 91.1642 36.0007 90.75C36.0007 90.0859 36.1752 89.2924 35.8644 88.6825C35.6449 88.2516 35.2635 88.0624 34.8032 88.0248C34.5073 88.0006 34.1231 88 33.5507 88H21.9507C21.3782 88 20.994 88.0006 20.6981 88.0248C20.0343 88.079 19.5819 88.506 19.5254 89.1975C19.4833 89.7129 19.5007 90.2332 19.5007 90.75C19.5007 91.1642 19.1649 91.5 18.7507 91.5C18.3365 91.5 18.0007 91.1642 18.0007 90.75C18.0007 90.1923 17.985 89.6316 18.0304 89.0753C18.0614 88.6954 18.1286 88.3388 18.3004 88.0015C18.5641 87.4841 18.9848 87.0634 19.5022 86.7997C20.2304 86.4287 21.1288 86.5 21.9202 86.5Z" fill="#5F5F6A"/>
<path fill-rule="evenodd" clip-rule="evenodd" d="M18.75 132.5C19.1642 132.5 19.5 132.836 19.5 133.25C19.5 134.259 19.3191 135.863 20.6975 135.975C20.9934 135.999 21.3776 136 21.95 136H33.55C34.5183 136 35.8684 136.11 35.9752 134.803C36.0174 134.287 36 133.767 36 133.25C36 132.836 36.3358 132.5 36.75 132.5C37.1642 132.5 37.5 132.836 37.5 133.25C37.5 133.808 37.5157 134.368 37.4703 134.925C37.4392 135.305 37.3721 135.661 37.2003 135.998C36.4694 137.433 34.9855 137.5 33.5804 137.5H21.9196C21.1281 137.5 20.2298 137.571 19.5015 137.2C18.6122 136.747 18.1093 135.898 18.0297 134.925C17.9843 134.368 18 133.808 18 133.25C18 132.836 18.3358 132.5 18.75 132.5ZM17.75 140C17.75 139.586 18.0858 139.25 18.5 139.25H37.5C37.9142 139.25 38.25 139.586 38.25 140C38.25 140.414 37.9142 140.75 37.5 140.75H18.5C18.0858 140.75 17.75 140.414 17.75 140ZM21.9195 142.5H33.5805C34.1146 142.5 34.5604 142.5 34.9247 142.53C35.8979 142.609 36.7471 143.112 37.2003 144.002C37.3721 144.339 37.4392 144.695 37.4703 145.075C37.5157 145.632 37.5 146.192 37.5 146.75C37.5 147.164 37.1642 147.5 36.75 147.5C36.3358 147.5 36 147.164 36 146.75C36 145.724 36.2052 144.139 34.8025 144.025C34.5066 144.001 34.1224 144 33.55 144H21.95C21.3776 144 20.9934 144.001 20.6975 144.025C19.3191 144.137 19.5 145.741 19.5 146.75C19.5 147.164 19.1642 147.5 18.75 147.5C18.3358 147.5 18 147.164 18 146.75C18 146.192 17.9843 145.632 18.0297 145.075C18.0608 144.695 18.1279 144.339 18.2997 144.002C18.7529 143.112 19.6021 142.609 20.5753 142.53C20.9396 142.5 21.3854 142.5 21.9195 142.5Z" fill="#5F5F6A"/>
<path fill-rule="evenodd" clip-rule="evenodd" d="M18.75 188.75C19.0261 188.75 19.25 188.974 19.25 189.25C19.25 189.774 19.2329 190.301 19.2756 190.823C19.3003 191.125 19.3464 191.299 19.4135 191.431C19.5573 191.713 19.7868 191.943 20.069 192.087C20.2007 192.154 20.3745 192.2 20.6771 192.224C20.9855 192.25 21.3817 192.25 21.95 192.25H33.55C34.1183 192.25 34.5145 192.25 34.8229 192.224C35.1255 192.2 35.2993 192.154 35.431 192.087C35.7132 191.943 35.9427 191.713 36.0865 191.431C36.1536 191.299 36.1997 191.125 36.2244 190.823C36.2671 190.301 36.25 189.774 36.25 189.25C36.25 188.974 36.4739 188.75 36.75 188.75C37.0261 188.75 37.25 188.974 37.25 189.25C37.25 189.801 37.266 190.355 37.2211 190.904C37.1913 191.269 37.1284 191.589 36.9775 191.885C36.7378 192.355 36.3554 192.738 35.885 192.978C35.1938 193.33 34.3211 193.25 33.5714 193.25H21.9286C21.3867 193.25 20.9496 193.25 20.5957 193.221C20.2313 193.191 19.9112 193.128 19.615 192.978C19.1446 192.738 18.7622 192.355 18.5225 191.885C18.3716 191.589 18.3087 191.269 18.2789 190.904C18.234 190.355 18.25 189.801 18.25 189.25C18.25 188.974 18.4739 188.75 18.75 188.75ZM18 196C18 195.724 18.2239 195.5 18.5 195.5H37.5C37.7761 195.5 38 195.724 38 196C38 196.276 37.7761 196.5 37.5 196.5H18.5C18.2239 196.5 18 196.276 18 196ZM21.9286 198.75H33.5714C34.1133 198.75 34.5504 198.75 34.9043 198.779C35.792 198.851 36.5633 199.302 36.9775 200.115C37.1284 200.411 37.1913 200.731 37.2211 201.096C37.266 201.645 37.25 202.199 37.25 202.75C37.25 203.026 37.0261 203.25 36.75 203.25C36.4739 203.25 36.25 203.026 36.25 202.75C36.25 202.226 36.2671 201.699 36.2244 201.177C36.1604 200.394 35.6341 199.842 34.8229 199.776C34.5145 199.75 34.1183 199.75 33.55 199.75H21.95C21.3817 199.75 20.9855 199.75 20.6771 199.776C19.8659 199.842 19.3396 200.394 19.2756 201.177C19.2329 201.699 19.25 202.226 19.25 202.75C19.25 203.026 19.0261 203.25 18.75 203.25C18.4739 203.25 18.25 203.026 18.25 202.75C18.25 202.199 18.234 201.645 18.2789 201.096C18.3087 200.731 18.3716 200.411 18.5225 200.115C18.9367 199.302 19.708 198.851 20.5957 198.779C20.9496 198.75 21.3867 198.75 21.9286 198.75Z" fill="#5F5F6A"/>
</svg>
