<svg width="56" height="224" viewBox="0 0 56 224" fill="none" xmlns="http://www.w3.org/2000/svg">
<path d="M33.3016 20C34.3295 20 35.1441 20 35.8007 20.0521C36.4721 20.1054 37.0403 20.2166 37.559 20.4733C38.4002 20.8897 39.0841 21.5541 39.5127 22.3712C39.7771 22.8752 39.8915 23.4271 39.9464 24.0793C40 24.7171 40 25.5084 40 26.507V29.493C40 30.4916 40 31.2829 39.9464 31.9207C39.8915 32.5729 39.7771 33.1248 39.5127 33.6288C39.0841 34.4459 38.4002 35.1103 37.559 35.5267C37.0403 35.7834 36.4721 35.8946 35.8007 35.9479C35.1441 36 34.3296 36 33.3017 36H22.6983C21.6704 36 20.8559 36 20.1993 35.9479C19.5279 35.8946 18.9597 35.7834 18.441 35.5267C17.5998 35.1103 16.9159 34.4459 16.4873 33.6288C16.2229 33.1248 16.1085 32.5729 16.0536 31.9207C16 31.2829 16 30.4916 16 29.493V26.507C16 25.5084 16 24.7171 16.0536 24.0793C16.1085 23.4271 16.2229 22.8752 16.4873 22.3712C16.9159 21.5541 17.5998 20.8897 18.441 20.4733C18.9597 20.2166 19.5279 20.1054 20.1993 20.0521C20.8559 20 21.6705 20 22.6984 20H33.3016ZM21 24.25C20.5858 24.25 20.25 24.5858 20.25 25C20.25 25.4142 20.5858 25.75 21 25.75H21.45V31C21.45 31.4142 21.7858 31.75 22.2 31.75C22.6142 31.75 22.95 31.4142 22.95 31V25C22.95 24.5858 22.6142 24.25 22.2 24.25H21ZM26.9571 24.25C25.9461 24.25 25.05 25.0332 25.05 26.0909V26.8788C25.05 27.2954 25.189 27.6694 25.4193 27.9697C25.189 28.27 25.05 28.644 25.05 29.0606V29.9091C25.05 30.9668 25.9461 31.75 26.9571 31.75H28.2429C29.2539 31.75 30.15 30.9668 30.15 29.9091V29.0606C30.15 28.644 30.011 28.27 29.7807 27.9697C30.011 27.6694 30.15 27.2954 30.15 26.8788V26.0909C30.15 25.0332 29.2539 24.25 28.2429 24.25H26.9571ZM26.55 29.0606C26.55 28.9134 26.69 28.7197 26.9571 28.7197H28.2429C28.51 28.7197 28.65 28.9134 28.65 29.0606V29.9091C28.65 30.0563 28.51 30.25 28.2429 30.25H26.9571C26.69 30.25 26.55 30.0563 26.55 29.9091V29.0606ZM28.65 26.8788C28.65 27.026 28.51 27.2197 28.2429 27.2197H26.9571C26.69 27.2197 26.55 27.026 26.55 26.8788V26.0909C26.55 25.9437 26.69 25.75 26.9571 25.75H28.2429C28.51 25.75 28.65 25.9437 28.65 26.0909V26.8788ZM34.95 26.6364C34.95 26.2222 34.6142 25.8864 34.2 25.8864C33.7858 25.8864 33.45 26.2222 33.45 26.6364V27.5227H32.4C31.9858 27.5227 31.65 27.8585 31.65 28.2727C31.65 28.6869 31.9858 29.0227 32.4 29.0227H33.45V29.9091C33.45 30.3233 33.7858 30.6591 34.2 30.6591C34.6142 30.6591 34.95 30.3233 34.95 29.9091V29.0227H36C36.4142 29.0227 36.75 28.6869 36.75 28.2727C36.75 27.8585 36.4142 27.5227 36 27.5227H34.95V26.6364Z" fill="#5F5F6A"/>
<path d="M22.6984 76H33.3016C34.3295 76 35.1441 76 35.8007 76.0521C36.4721 76.1054 37.0403 76.2166 37.559 76.4733C38.4002 76.8897 39.0841 77.5541 39.5127 78.3712C39.7771 78.8752 39.8915 79.4271 39.9464 80.0793C40 80.7171 40 81.5084 40 82.507V85.493C40 86.4916 40 87.2829 39.9464 87.9207C39.8915 88.5729 39.7771 89.1248 39.5127 89.6288C39.0841 90.4459 38.4002 91.1103 37.559 91.5267C37.0403 91.7834 36.4721 91.8946 35.8007 91.9479C35.1441 92 34.3296 92 33.3017 92H22.6983C21.6704 92 20.8559 92 20.1993 91.9479C19.5279 91.8946 18.9597 91.7834 18.441 91.5267C17.5998 91.1103 16.9159 90.4459 16.4873 89.6288C16.2229 89.1248 16.1085 88.5729 16.0536 87.9207C16 87.2829 16 86.4916 16 85.493V82.507C16 81.5084 16 80.7171 16.0536 80.0793C16.1085 79.4271 16.2229 78.8752 16.4873 78.3712C16.9159 77.5541 17.5998 76.8897 18.441 76.4733C18.9597 76.2166 19.5279 76.1054 20.1993 76.0521C20.8559 76 21.6705 76 22.6984 76ZM20.3142 77.419C19.7301 77.4653 19.3685 77.5535 19.0819 77.6953C18.5064 77.9802 18.0384 78.4347 17.7452 78.9939C17.5991 79.2722 17.5084 79.6235 17.4607 80.191C17.4123 80.7664 17.4118 81.5017 17.4118 82.5371V85.4629C17.4118 86.4983 17.4123 87.2336 17.4607 87.809C17.5084 88.3765 17.5991 88.7278 17.7452 89.0061C18.0384 89.5653 18.5064 90.0198 19.0819 90.3047C19.3685 90.4465 19.7301 90.5347 20.3142 90.581C20.9066 90.628 21.6635 90.6286 22.7294 90.6286H33.2706C34.3365 90.6286 35.0934 90.628 35.6858 90.581C36.2699 90.5347 36.6315 90.4465 36.9181 90.3047C37.4936 90.0198 37.9616 89.5653 38.2548 89.0061C38.4009 88.7278 38.4916 88.3765 38.5393 87.809C38.5877 87.2336 38.5882 86.4983 38.5882 85.4629V82.5371C38.5882 81.5017 38.5877 80.7664 38.5393 80.191C38.4916 79.6235 38.4009 79.2722 38.2548 78.9939C37.9616 78.4347 37.4936 77.9802 36.9181 77.6953C36.6315 77.5535 36.2699 77.4653 35.6858 77.419C35.0934 77.372 34.3365 77.3714 33.2706 77.3714H22.7294C21.6635 77.3714 20.9066 77.372 20.3142 77.419Z" fill="#5F5F6A"/>
<path opacity="0.5" d="M20.25 81C20.25 80.5858 20.5858 80.25 21 80.25H22.2C22.6142 80.25 22.95 80.5858 22.95 81V87C22.95 87.4142 22.6142 87.75 22.2 87.75C21.7858 87.75 21.45 87.4142 21.45 87V81.75H21C20.5858 81.75 20.25 81.4142 20.25 81ZM25.05 82.0909C25.05 81.0332 25.9461 80.25 26.9571 80.25H28.2429C29.2539 80.25 30.15 81.0332 30.15 82.0909V82.8788C30.15 83.2954 30.011 83.6694 29.7807 83.9697C30.011 84.27 30.15 84.644 30.15 85.0606V85.9091C30.15 86.9668 29.2539 87.75 28.2429 87.75H26.9571C25.9461 87.75 25.05 86.9668 25.05 85.9091V85.0606C25.05 84.644 25.189 84.27 25.4193 83.9697C25.189 83.6694 25.05 83.2954 25.05 82.8788V82.0909ZM26.9571 84.7197C26.69 84.7197 26.55 84.9134 26.55 85.0606V85.9091C26.55 86.0563 26.69 86.25 26.9571 86.25H28.2429C28.51 86.25 28.65 86.0563 28.65 85.9091V85.0606C28.65 84.9134 28.51 84.7197 28.2429 84.7197H26.9571ZM28.2429 83.2197C28.51 83.2197 28.65 83.026 28.65 82.8788V82.0909C28.65 81.9437 28.51 81.75 28.2429 81.75H26.9571C26.69 81.75 26.55 81.9437 26.55 82.0909V82.8788C26.55 83.026 26.69 83.2197 26.9571 83.2197H28.2429ZM34.2 81.8864C34.6142 81.8864 34.95 82.2222 34.95 82.6364V83.5227H36C36.4142 83.5227 36.75 83.8585 36.75 84.2727C36.75 84.6869 36.4142 85.0227 36 85.0227H34.95V85.9091C34.95 86.3233 34.6142 86.6591 34.2 86.6591C33.7858 86.6591 33.45 86.3233 33.45 85.9091V85.0227H32.4C31.9858 85.0227 31.65 84.6869 31.65 84.2727C31.65 83.8585 31.9858 83.5227 32.4 83.5227H33.45V82.6364C33.45 82.2222 33.7858 81.8864 34.2 81.8864Z" fill="#5F5F6A"/>
<path d="M21 136.25C20.5858 136.25 20.25 136.586 20.25 137C20.25 137.414 20.5858 137.75 21 137.75H21.45V143C21.45 143.414 21.7858 143.75 22.2 143.75C22.6142 143.75 22.95 143.414 22.95 143V137C22.95 136.586 22.6142 136.25 22.2 136.25H21Z" fill="#5F5F6A"/>
<path d="M26.9571 136.25C25.9461 136.25 25.05 137.033 25.05 138.091V138.879C25.05 139.295 25.189 139.669 25.4193 139.97C25.189 140.27 25.05 140.644 25.05 141.061V141.909C25.05 142.967 25.9461 143.75 26.9571 143.75H28.2429C29.2539 143.75 30.15 142.967 30.15 141.909V141.061C30.15 140.644 30.011 140.27 29.7807 139.97C30.011 139.669 30.15 139.295 30.15 138.879V138.091C30.15 137.033 29.2539 136.25 28.2429 136.25H26.9571ZM26.55 141.061C26.55 140.913 26.69 140.72 26.9571 140.72H28.2429C28.51 140.72 28.65 140.913 28.65 141.061V141.909C28.65 142.056 28.51 142.25 28.2429 142.25H26.9571C26.69 142.25 26.55 142.056 26.55 141.909V141.061ZM28.65 138.879C28.65 139.026 28.51 139.22 28.2429 139.22H26.9571C26.69 139.22 26.55 139.026 26.55 138.879V138.091C26.55 137.944 26.69 137.75 26.9571 137.75H28.2429C28.51 137.75 28.65 137.944 28.65 138.091V138.879Z" fill="#5F5F6A"/>
<path d="M34.95 138.636C34.95 138.222 34.6142 137.886 34.2 137.886C33.7858 137.886 33.45 138.222 33.45 138.636V139.523H32.4C31.9858 139.523 31.65 139.859 31.65 140.273C31.65 140.687 31.9858 141.023 32.4 141.023H33.45V141.909C33.45 142.323 33.7858 142.659 34.2 142.659C34.6142 142.659 34.95 142.323 34.95 141.909V141.023H36C36.4142 141.023 36.75 140.687 36.75 140.273C36.75 139.859 36.4142 139.523 36 139.523H34.95V138.636Z" fill="#5F5F6A"/>
<path d="M33.3016 132H22.6984C21.6705 132 20.8559 132 20.1993 132.052C19.5279 132.105 18.9597 132.217 18.441 132.473C17.5998 132.89 16.9159 133.554 16.4873 134.371C16.2229 134.875 16.1085 135.427 16.0536 136.079C16 136.717 16 137.508 16 138.507V141.493C16 142.492 16 143.283 16.0536 143.921C16.1085 144.573 16.2229 145.125 16.4873 145.629C16.9159 146.446 17.5998 147.11 18.441 147.527C18.9597 147.783 19.5279 147.895 20.1993 147.948C20.8559 148 21.6704 148 22.6983 148H33.3017C34.3296 148 35.1441 148 35.8007 147.948C36.4721 147.895 37.0403 147.783 37.559 147.527C38.4002 147.11 39.0841 146.446 39.5127 145.629C39.7771 145.125 39.8915 144.573 39.9464 143.921C40 143.283 40 142.492 40 141.493V138.507C40 137.508 40 136.717 39.9464 136.079C39.8915 135.427 39.7771 134.875 39.5127 134.371C39.0841 133.554 38.4002 132.89 37.559 132.473C37.0403 132.217 36.4721 132.105 35.8007 132.052C35.1441 132 34.3295 132 33.3016 132ZM19.0819 133.695C19.3685 133.553 19.7301 133.465 20.3142 133.419C20.9066 133.372 21.6635 133.371 22.7294 133.371H33.2706C34.3365 133.371 35.0934 133.372 35.6858 133.419C36.2699 133.465 36.6315 133.553 36.9181 133.695C37.4936 133.98 37.9616 134.435 38.2548 134.994C38.4009 135.272 38.4916 135.624 38.5393 136.191C38.5877 136.766 38.5882 137.502 38.5882 138.537V141.463C38.5882 142.498 38.5877 143.234 38.5393 143.809C38.4916 144.376 38.4009 144.728 38.2548 145.006C37.9616 145.565 37.4936 146.02 36.9181 146.305C36.6315 146.447 36.2699 146.535 35.6858 146.581C35.0934 146.628 34.3365 146.629 33.2706 146.629H22.7294C21.6635 146.629 20.9066 146.628 20.3142 146.581C19.7301 146.535 19.3685 146.447 19.0819 146.305C18.5064 146.02 18.0384 145.565 17.7452 145.006C17.5991 144.728 17.5084 144.376 17.4607 143.809C17.4123 143.234 17.4118 142.498 17.4118 141.463V138.537C17.4118 137.502 17.4123 136.766 17.4607 136.191C17.5084 135.624 17.5991 135.272 17.7452 134.994C18.0384 134.435 18.5064 133.98 19.0819 133.695Z" fill="#5F5F6A"/>
<path d="M22.6023 188H33.3977C34.4546 188 35.2773 188 35.9372 188.053C36.6072 188.107 37.1516 188.217 37.6412 188.462C38.4541 188.868 39.115 189.516 39.5291 190.313C39.7786 190.793 39.8913 191.326 39.9461 191.983C40 192.63 40 193.437 40 194.473V197.527C40 198.563 40 199.37 39.9461 200.017C39.8913 200.674 39.7786 201.207 39.5291 201.687C39.115 202.484 38.4541 203.132 37.6412 203.538C37.1516 203.783 36.6072 203.893 35.9372 203.947C35.2773 204 34.4546 204 33.3977 204H22.6023C21.5454 204 20.7227 204 20.0628 203.947C19.3928 203.893 18.8484 203.783 18.3588 203.538C17.5459 203.132 16.885 202.484 16.4709 201.687C16.2214 201.207 16.1087 200.674 16.0539 200.017C16 199.37 16 198.563 16 197.527V194.473C16 193.437 16 192.63 16.0539 191.983C16.1087 191.326 16.2214 190.793 16.4709 190.313C16.885 189.516 17.5459 188.868 18.3588 188.462C18.8484 188.217 19.3928 188.107 20.0628 188.053C20.7227 188 21.5454 188 22.6023 188ZM20.141 188.991C19.5303 189.04 19.1264 189.134 18.7946 189.3C18.1624 189.616 17.6484 190.12 17.3262 190.74C17.1572 191.065 17.0606 191.461 17.0107 192.06C16.9604 192.664 16.96 193.432 16.96 194.494V197.506C16.96 198.568 16.9604 199.336 17.0107 199.94C17.0606 200.539 17.1572 200.935 17.3262 201.26C17.6484 201.88 18.1624 202.384 18.7946 202.7C19.1264 202.866 19.5303 202.96 20.141 203.009C20.7572 203.058 21.5408 203.059 22.624 203.059H33.376C34.4592 203.059 35.2428 203.058 35.859 203.009C36.4697 202.96 36.8736 202.866 37.2054 202.7C37.8376 202.384 38.3516 201.88 38.6738 201.26C38.8428 200.935 38.9394 200.539 38.9893 199.94C39.0396 199.336 39.04 198.568 39.04 197.506V194.494C39.04 193.432 39.0396 192.664 38.9893 192.06C38.9394 191.461 38.8428 191.065 38.6738 190.74C38.3516 190.12 37.8376 189.616 37.2054 189.3C36.8736 189.134 36.4697 189.04 35.859 188.991C35.2428 188.942 34.4592 188.941 33.376 188.941H22.624C21.5408 188.941 20.7572 188.942 20.141 188.991Z" fill="#5F5F6A"/>
<path d="M20.5 193C20.5 192.724 20.7239 192.5 21 192.5H22.2C22.4761 192.5 22.7 192.724 22.7 193V199C22.7 199.276 22.4761 199.5 22.2 199.5C21.9239 199.5 21.7 199.276 21.7 199V193.5H21C20.7239 193.5 20.5 193.276 20.5 193ZM25.3 194.091C25.3 193.185 26.0701 192.5 26.9571 192.5H28.2429C29.1299 192.5 29.9 193.185 29.9 194.091V194.879C29.9 195.309 29.7266 195.689 29.4495 195.97C29.7266 196.25 29.9 196.631 29.9 197.061V197.909C29.9 198.815 29.1299 199.5 28.2429 199.5H26.9571C26.0701 199.5 25.3 198.815 25.3 197.909V197.061C25.3 196.631 25.4734 196.25 25.7505 195.97C25.4734 195.689 25.3 195.309 25.3 194.879V194.091ZM26.9571 196.47C26.566 196.47 26.3 196.762 26.3 197.061V197.909C26.3 198.208 26.566 198.5 26.9571 198.5H28.2429C28.634 198.5 28.9 198.208 28.9 197.909V197.061C28.9 196.762 28.634 196.47 28.2429 196.47H26.9571ZM28.2429 195.47C28.634 195.47 28.9 195.178 28.9 194.879V194.091C28.9 193.792 28.634 193.5 28.2429 193.5H26.9571C26.566 193.5 26.3 193.792 26.3 194.091V194.879C26.3 195.178 26.566 195.47 26.9571 195.47H28.2429ZM34.2 194.136C34.4761 194.136 34.7 194.36 34.7 194.636V195.773H36C36.2761 195.773 36.5 195.997 36.5 196.273C36.5 196.549 36.2761 196.773 36 196.773H34.7V197.909C34.7 198.185 34.4761 198.409 34.2 198.409C33.9239 198.409 33.7 198.185 33.7 197.909V196.773H32.4C32.1239 196.773 31.9 196.549 31.9 196.273C31.9 195.997 32.1239 195.773 32.4 195.773H33.7V194.636C33.7 194.36 33.9239 194.136 34.2 194.136Z" fill="#5F5F6A"/>
</svg>
