<svg width="56" height="224" viewBox="0 0 56 224" fill="none" xmlns="http://www.w3.org/2000/svg">
<path d="M33.5 19.25C35.0188 19.25 36.25 20.4812 36.25 22C36.25 23.5188 35.0188 24.75 33.5 24.75C32.9672 24.75 32.4698 24.5985 32.0486 24.3362C32.0203 24.3547 31.9909 24.3719 31.9603 24.3878L25.2469 27.8688C25.249 27.9123 25.25 27.956 25.25 28C25.25 28.0443 25.249 28.0884 25.2469 28.1322C25.2512 28.1347 25.2555 28.1372 25.2598 28.1397L31.676 31.9419C32.1614 31.5114 32.8002 31.25 33.5 31.25C35.0188 31.25 36.25 32.4812 36.25 34C36.25 35.5188 35.0188 36.75 33.5 36.75C31.9812 36.75 30.75 35.5188 30.75 34C30.75 33.9075 30.7546 33.8161 30.7635 33.7259L24.4212 29.9676C23.9255 30.4517 23.2476 30.75 22.5 30.75C20.9812 30.75 19.75 29.5188 19.75 28C19.75 26.4812 20.9812 25.25 22.5 25.25C23.2515 25.25 23.9326 25.5514 24.429 26.04L30.8436 22.7139C30.7825 22.4863 30.75 22.2469 30.75 22C30.75 20.4812 31.9812 19.25 33.5 19.25Z" fill="#5F5F6A"/>
<g opacity="0.5">
<path d="M35.5 78C35.5 76.8954 34.6046 76 33.5 76C32.3954 76 31.5 76.8954 31.5 78C31.5 79.1046 32.3954 80 33.5 80C34.6046 80 35.5 79.1046 35.5 78Z" fill="#5F5F6A"/>
<path d="M24.5 84C24.5 82.8954 23.6046 82 22.5 82C21.3954 82 20.5 82.8954 20.5 84C20.5 85.1046 21.3954 86 22.5 86C23.6046 86 24.5 85.1046 24.5 84Z" fill="#5F5F6A"/>
<path d="M33.5 88C34.6046 88 35.5 88.8954 35.5 90C35.5 91.1046 34.6046 92 33.5 92C32.3954 92 31.5 91.1046 31.5 90C31.5 88.8954 32.3954 88 33.5 88Z" fill="#5F5F6A"/>
</g>
<path fill-rule="evenodd" clip-rule="evenodd" d="M33.5 75.25C35.0188 75.25 36.25 76.4812 36.25 78C36.25 79.5188 35.0188 80.75 33.5 80.75C32.9672 80.75 32.4698 80.5985 32.0486 80.3362C32.0203 80.3547 31.9909 80.3719 31.9603 80.3878L25.2469 83.8688C25.249 83.9123 25.25 83.956 25.25 84C25.25 84.0443 25.249 84.0884 25.2469 84.1322C25.2512 84.1347 25.2555 84.1372 25.2598 84.1397L31.676 87.9419C32.1614 87.5114 32.8002 87.25 33.5 87.25C35.0188 87.25 36.25 88.4812 36.25 90C36.25 91.5188 35.0188 92.75 33.5 92.75C31.9812 92.75 30.75 91.5188 30.75 90C30.75 89.9075 30.7546 89.8161 30.7635 89.726L24.4212 85.9676C23.9255 86.4517 23.2476 86.75 22.5 86.75C20.9812 86.75 19.75 85.5188 19.75 84C19.75 82.4812 20.9812 81.25 22.5 81.25C23.2515 81.25 23.9326 81.5515 24.429 82.04L30.8436 78.714C30.7825 78.4863 30.75 78.2469 30.75 78C30.75 76.4812 31.9812 75.25 33.5 75.25ZM32.4438 89.3312C32.4223 89.3922 32.3945 89.452 32.3603 89.5098C32.3509 89.5257 32.3411 89.5412 32.331 89.5563C32.2787 89.6942 32.25 89.8437 32.25 90C32.25 90.6904 32.8096 91.25 33.5 91.25C34.1904 91.25 34.75 90.6904 34.75 90C34.75 89.3096 34.1904 88.75 33.5 88.75C33.0556 88.75 32.6654 88.9819 32.4438 89.3312ZM34.75 78C34.75 77.3096 34.1904 76.75 33.5 76.75C32.8096 76.75 32.25 77.3096 32.25 78C32.25 78.6904 32.8096 79.25 33.5 79.25C34.1904 79.25 34.75 78.6904 34.75 78ZM23.75 84C23.75 83.3096 23.1904 82.75 22.5 82.75C21.8096 82.75 21.25 83.3096 21.25 84C21.25 84.6904 21.8096 85.25 22.5 85.25C23.1904 85.25 23.75 84.6904 23.75 84Z" fill="#5F5F6A"/>
<path fill-rule="evenodd" clip-rule="evenodd" d="M36.25 134C36.25 132.481 35.0188 131.25 33.5 131.25C31.9812 131.25 30.75 132.481 30.75 134C30.75 134.336 30.8103 134.658 30.9206 134.956L24.605 138.23C24.1006 137.631 23.3448 137.25 22.5 137.25C20.9812 137.25 19.75 138.481 19.75 140C19.75 141.519 20.9812 142.75 22.5 142.75C23.3397 142.75 24.0915 142.374 24.5959 141.78L30.8032 145.459C30.7683 145.634 30.75 145.815 30.75 146C30.75 147.519 31.9812 148.75 33.5 148.75C35.0188 148.75 36.25 147.519 36.25 146C36.25 144.481 35.0188 143.25 33.5 143.25C32.707 143.25 31.9924 143.586 31.4905 144.123L25.2201 140.407C25.2398 140.274 25.25 140.138 25.25 140C25.25 139.864 25.2402 139.731 25.2212 139.601L31.8212 136.178C32.2857 136.537 32.8679 136.75 33.5 136.75C35.0188 136.75 36.25 135.519 36.25 134ZM33.5 132.75C34.1904 132.75 34.75 133.31 34.75 134C34.75 134.69 34.1904 135.25 33.5 135.25C32.8096 135.25 32.25 134.69 32.25 134C32.25 133.31 32.8096 132.75 33.5 132.75ZM22.5 138.75C23.1904 138.75 23.75 139.31 23.75 140C23.75 140.69 23.1904 141.25 22.5 141.25C21.8096 141.25 21.25 140.69 21.25 140C21.25 139.31 21.8096 138.75 22.5 138.75ZM33.5 144.75C34.1904 144.75 34.75 145.31 34.75 146C34.75 146.69 34.1904 147.25 33.5 147.25C32.8096 147.25 32.25 146.69 32.25 146C32.25 145.31 32.8096 144.75 33.5 144.75Z" fill="#5F5F6A"/>
<path fill-rule="evenodd" clip-rule="evenodd" d="M36 190C36 188.619 34.8807 187.5 33.5 187.5C32.1193 187.5 31 188.619 31 190C31 190.383 31.0863 190.747 31.2405 191.071L24.5354 194.548C24.082 193.914 23.3393 193.5 22.5 193.5C21.1193 193.5 20 194.619 20 196C20 197.381 21.1193 198.5 22.5 198.5C23.3386 198.5 24.0808 198.087 24.5343 197.453L31.0887 201.337C31.0309 201.548 31 201.771 31 202C31 203.381 32.1193 204.5 33.5 204.5C34.8807 204.5 36 203.381 36 202C36 200.619 34.8807 199.5 33.5 199.5C32.7074 199.5 32.001 199.869 31.5429 200.444L25.0049 196.57C24.9844 196.558 24.9633 196.547 24.9419 196.538C24.98 196.365 25 196.185 25 196C25 195.815 24.98 195.635 24.9419 195.462C24.9548 195.456 24.9675 195.45 24.9802 195.444L31.7302 191.944C31.7704 191.923 31.8067 191.897 31.8386 191.868C32.2802 192.261 32.8622 192.5 33.5 192.5C34.8807 192.5 36 191.381 36 190ZM33.5 188.5C34.3284 188.5 35 189.172 35 190C35 190.828 34.3284 191.5 33.5 191.5C32.6716 191.5 32 190.828 32 190C32 189.172 32.6716 188.5 33.5 188.5ZM22.5 194.5C23.3284 194.5 24 195.172 24 196C24 196.828 23.3284 197.5 22.5 197.5C21.6716 197.5 21 196.828 21 196C21 195.172 21.6716 194.5 22.5 194.5ZM33.5 200.5C34.3284 200.5 35 201.172 35 202C35 202.828 34.3284 203.5 33.5 203.5C32.6716 203.5 32 202.828 32 202C32 201.172 32.6716 200.5 33.5 200.5Z" fill="#5F5F6A"/>
</svg>
