<svg width="56" height="168" viewBox="0 0 56 168" fill="none" xmlns="http://www.w3.org/2000/svg">
<path d="M28.5584 18.9818C28.1944 18.8586 27.8 18.8586 27.4361 18.9819L20.6599 21.2767C20.1979 21.4332 19.88 21.8378 19.8434 22.2958C19.5055 26.5216 20.0909 29.6471 21.4799 32.0084C22.8238 34.2931 24.9741 35.9542 27.9973 37.1918C31.0231 35.9541 33.1747 34.293 34.5193 32.0084C35.9089 29.6472 36.4944 26.5218 36.1565 22.296C36.1199 21.838 35.802 21.4334 35.3398 21.2769L28.5584 18.9818ZM26.9549 17.5611C27.6308 17.3322 28.3633 17.3321 29.0393 17.5609L35.8207 19.8561C36.8235 20.1955 37.5651 21.0929 37.6518 22.1765C38.0043 26.5854 37.4111 30.0521 35.812 32.7692C34.2083 35.4942 31.6509 37.367 28.272 38.6978C28.0953 38.7674 27.8988 38.7674 27.7221 38.6977C24.3459 37.3669 21.7899 35.494 20.187 32.7689C18.5887 30.0519 17.9956 26.5852 18.3482 22.1762C18.4348 21.0928 19.1763 20.1955 20.1788 19.856L26.9549 17.5611Z" fill="#5F5F6A"/>
<path opacity="0.5" d="M28 35.9991C33.0323 33.9597 35.4058 30.3818 34.9433 23.6331C34.8907 22.8656 34.3666 22.2171 33.64 21.9642L28.82 20.2862C28.5545 20.1938 28.2772 20.1475 28 20.1472V35.9991Z" fill="#5F5F6A"/>
<path d="M28.5584 74.9818C28.1944 74.8586 27.8 74.8586 27.4361 74.9819L20.6599 77.2767C20.1979 77.4332 19.88 77.8378 19.8434 78.2958C19.5055 82.5216 20.0909 85.6471 21.4799 88.0084C22.8238 90.2931 24.9741 91.9542 27.9973 93.1918C31.0231 91.9541 33.1747 90.293 34.5193 88.0084C35.9089 85.6472 36.4944 82.5218 36.1565 78.296C36.1199 77.838 35.802 77.4334 35.3398 77.2769L28.5584 74.9818ZM26.9549 73.5611C27.6308 73.3322 28.3633 73.3321 29.0393 73.5609L35.8207 75.8561C36.8235 76.1955 37.5651 77.0929 37.6518 78.1765C38.0043 82.5854 37.4111 86.0521 35.812 88.7692C34.2083 91.4942 31.6509 93.367 28.272 94.6978C28.0953 94.7674 27.8988 94.7674 27.7221 94.6977C24.3459 93.3669 21.7899 91.494 20.187 88.7689C18.5887 86.0519 17.9956 82.5852 18.3482 78.1762C18.4348 77.0928 19.1763 76.1955 20.1788 75.856L26.9549 73.5611Z" fill="#5F5F6A"/>
<path d="M28.5584 130.982C28.1944 130.859 27.8 130.859 27.4361 130.982L20.6599 133.277C20.1979 133.433 19.88 133.838 19.8434 134.296C19.5055 138.522 20.0909 141.647 21.4799 144.008C22.8238 146.293 24.9741 147.954 27.9973 149.192C31.0231 147.954 33.1747 146.293 34.5193 144.008C35.9089 141.647 36.4944 138.522 36.1565 134.296C36.1199 133.838 35.802 133.433 35.3398 133.277L28.5584 130.982ZM26.9549 129.561C27.6308 129.332 28.3633 129.332 29.0393 129.561L35.8207 131.856C36.8235 132.196 37.5651 133.093 37.6518 134.176C38.0043 138.585 37.4111 142.052 35.812 144.769C34.2083 147.494 31.6509 149.367 28.272 150.698C28.0953 150.767 27.8988 150.767 27.7221 150.698C24.3459 149.367 21.7899 147.494 20.187 144.769C18.5887 142.052 17.9956 138.585 18.3482 134.176C18.4348 133.093 19.1763 132.196 20.1788 131.856L26.9549 129.561Z" fill="#5F5F6A"/>
</svg>
