<svg width="56" height="168" viewBox="0 0 56 168" fill="none" xmlns="http://www.w3.org/2000/svg">
<path d="M28.5584 18.9818C28.1944 18.8586 27.8 18.8586 27.4361 18.9819L20.6599 21.2767C20.1979 21.4332 19.88 21.8378 19.8434 22.2958C19.5055 26.5216 20.0909 29.6471 21.4799 32.0084C22.8238 34.2931 24.9741 35.9542 27.9973 37.1918C31.0231 35.9541 33.1747 34.293 34.5193 32.0084C35.9089 29.6472 36.4944 26.5218 36.1565 22.296C36.1199 21.838 35.802 21.4334 35.3398 21.2769L28.5584 18.9818ZM26.9549 17.5611C27.6308 17.3322 28.3633 17.3321 29.0393 17.5609L35.8207 19.8561C36.8235 20.1955 37.5651 21.0929 37.6518 22.1765C38.0043 26.5854 37.4111 30.0521 35.812 32.7692C34.2083 35.4942 31.6509 37.367 28.272 38.6978C28.0953 38.7674 27.8988 38.7674 27.7221 38.6977C24.3459 37.3669 21.7899 35.494 20.187 32.7689C18.5887 30.0519 17.9956 26.5852 18.3482 22.1762C18.4348 21.0928 19.1763 20.1955 20.1788 19.856L26.9549 17.5611Z" fill="#5F5F6A"/>
<path opacity="0.5" d="M28 23.75C26.9529 23.75 26.1109 24.5932 26.1109 25.625C26.1109 26.6568 26.9529 27.5 28 27.5C29.0471 27.5 29.8891 26.6568 29.8891 25.625C29.8891 24.5932 29.0471 23.75 28 23.75ZM24.6109 25.625C24.6109 23.7573 26.1321 22.25 28 22.25C29.868 22.25 31.3891 23.7573 31.3891 25.625C31.3891 27.4927 29.868 29 28 29C26.1321 29 24.6109 27.4927 24.6109 25.625ZM25.5048 30.7908C24.6541 30.933 24.0062 31.2419 23.5616 31.6866C23.0728 32.1754 22.75 32.9075 22.75 34C22.75 34.4142 22.4142 34.75 22 34.75C21.5858 34.75 21.25 34.4142 21.25 34C21.25 32.5925 21.6772 31.4496 22.5009 30.6259C23.3133 29.8136 24.431 29.3919 25.6672 29.2546L26.0421 29.2129L26.2967 29.4866C26.297 29.4869 26.2974 29.4873 26.2979 29.4878C26.3009 29.4908 26.3071 29.4971 26.3164 29.5062C26.3351 29.5244 26.366 29.5536 26.408 29.5902C26.4928 29.6639 26.6194 29.7645 26.7794 29.8651C27.1056 30.0702 27.5293 30.25 28 30.25C28.4707 30.25 28.8944 30.0702 29.2206 29.8651C29.3806 29.7645 29.5072 29.6639 29.592 29.5902C29.634 29.5536 29.6649 29.5244 29.6836 29.5062C29.6929 29.4971 29.6991 29.4908 29.7021 29.4878C29.7026 29.4873 29.703 29.4869 29.7033 29.4866C29.7033 29.4865 29.7034 29.4864 29.7035 29.4864L29.9579 29.2129L30.3328 29.2546C31.569 29.3919 32.6867 29.8136 33.4991 30.6259C34.3228 31.4496 34.75 32.5925 34.75 34C34.75 34.4142 34.4142 34.75 34 34.75C33.5858 34.75 33.25 34.4142 33.25 34C33.25 32.9075 32.9272 32.1754 32.4384 31.6866C31.9938 31.2419 31.3459 30.933 30.4952 30.7908C30.3717 30.8929 30.2115 31.0139 30.0191 31.1349C29.5501 31.4298 28.8488 31.75 28 31.75C27.1512 31.75 26.4499 31.4298 25.9809 31.1349C25.7885 31.0139 25.6283 30.8929 25.5048 30.7908Z" fill="#5F5F6A"/>
<path d="M28 78.25C26.1321 78.25 24.6109 79.7573 24.6109 81.625C24.6109 83.4927 26.1321 85 28 85C29.868 85 31.3891 83.4927 31.3891 81.625C31.3891 79.7573 29.868 78.25 28 78.25ZM26.1109 81.625C26.1109 80.5932 26.9529 79.75 28 79.75C29.0471 79.75 29.8891 80.5932 29.8891 81.625C29.8891 82.6568 29.0471 83.5 28 83.5C26.9529 83.5 26.1109 82.6568 26.1109 81.625Z" fill="#5F5F6A"/>
<path d="M29.0393 73.5609C28.3633 73.3321 27.6308 73.3322 26.9549 73.5611L20.1788 75.856C19.1763 76.1955 18.4348 77.0928 18.3482 78.1762C17.9956 82.5852 18.5887 86.0519 20.187 88.7689C21.7899 91.494 24.3459 93.3669 27.7221 94.6977C27.8988 94.7674 28.0953 94.7674 28.272 94.6978C31.6509 93.367 34.2083 91.4942 35.812 88.7692C37.4111 86.0521 38.0043 82.5854 37.6518 78.1765C37.5651 77.0929 36.8235 76.1955 35.8207 75.8561L29.0393 73.5609ZM27.4361 74.9819C27.8 74.8586 28.1944 74.8586 28.5584 74.9818L35.3398 77.2769C35.802 77.4334 36.1199 77.838 36.1565 78.296C36.4944 82.5218 35.9089 85.6472 34.5193 88.0084C34.4953 88.0491 34.4711 88.0896 34.4466 88.13C34.2368 87.5503 33.9196 87.0465 33.4991 86.6259C32.6867 85.8136 31.569 85.3919 30.3328 85.2546L29.9579 85.2129L29.7035 85.4864L29.7021 85.4878C29.6991 85.4908 29.6929 85.4971 29.6836 85.5062C29.6649 85.5244 29.634 85.5536 29.592 85.5902C29.5072 85.6639 29.3806 85.7645 29.2206 85.8651C28.8944 86.0702 28.4707 86.25 28 86.25C27.5293 86.25 27.1056 86.0702 26.7794 85.8651C26.6194 85.7645 26.4928 85.6639 26.408 85.5902C26.366 85.5536 26.3351 85.5244 26.3164 85.5062C26.3071 85.4971 26.3009 85.4908 26.2979 85.4878L26.2967 85.4866L26.0421 85.2129L25.6672 85.2546C24.431 85.3919 23.3133 85.8136 22.5009 86.6259C22.0801 87.0467 21.7628 87.5508 21.5531 88.1309C21.5284 88.0903 21.504 88.0494 21.4799 88.0084C20.0909 85.6471 19.5055 82.5216 19.8434 78.2958C19.88 77.8378 20.1979 77.4332 20.6599 77.2767L27.4361 74.9819ZM22.7565 89.7379C22.8042 88.7888 23.113 88.1352 23.5616 87.6866C24.0062 87.2419 24.6541 86.933 25.5048 86.7908C25.6283 86.8929 25.7885 87.0139 25.9809 87.1349C26.4499 87.4298 27.1512 87.75 28 87.75C28.8488 87.75 29.5501 87.4298 30.0191 87.1349C30.2115 87.0139 30.3717 86.8929 30.4952 86.7908C31.3459 86.933 31.9938 87.2419 32.4384 87.6866C32.8868 88.1349 33.1955 88.7881 33.2435 89.7363C31.9412 91.1643 30.2011 92.2903 27.9973 93.1918C25.7962 92.2907 24.0578 91.1652 22.7565 89.7379Z" fill="#5F5F6A"/>
<path d="M28 134.5C26.2689 134.5 24.8609 135.897 24.8609 137.625C24.8609 139.353 26.2689 140.75 28 140.75C29.7311 140.75 31.1391 139.353 31.1391 137.625C31.1391 135.897 29.7311 134.5 28 134.5ZM25.8609 137.625C25.8609 136.454 26.8161 135.5 28 135.5C29.1839 135.5 30.1391 136.454 30.1391 137.625C30.1391 138.796 29.1839 139.75 28 139.75C26.8161 139.75 25.8609 138.796 25.8609 137.625Z" fill="#5F5F6A"/>
<path d="M29.0393 129.561C28.3633 129.332 27.6308 129.332 26.9549 129.561L20.1788 131.856C19.1763 132.196 18.4348 133.093 18.3482 134.176C17.9956 138.585 18.5887 142.052 20.187 144.769C21.7899 147.494 24.3459 149.367 27.7221 150.698C27.8988 150.767 28.0953 150.767 28.272 150.698C31.6509 149.367 34.2083 147.494 35.812 144.769C37.4111 142.052 38.0043 138.585 37.6518 134.176C37.5651 133.093 36.8235 132.195 35.8207 131.856L29.0393 129.561ZM27.4361 130.982C27.8 130.859 28.1944 130.859 28.5584 130.982L35.3398 133.277C35.802 133.433 36.1199 133.838 36.1565 134.296C36.4944 138.522 35.9089 141.647 34.5193 144.008C34.4406 144.142 34.3591 144.274 34.2748 144.403C34.0792 143.774 33.7585 143.239 33.3223 142.803C32.562 142.042 31.5043 141.636 30.3052 141.503L30.0553 141.475L29.885 141.658L29.8811 141.662C29.8768 141.667 29.8691 141.675 29.8582 141.685C29.8364 141.706 29.802 141.739 29.756 141.779C29.6635 141.859 29.5266 141.968 29.3537 142.077C29.0037 142.297 28.5337 142.5 28 142.5C27.4663 142.5 26.9963 142.297 26.6463 142.077C26.4734 141.968 26.3365 141.859 26.244 141.779C26.198 141.739 26.1636 141.706 26.1418 141.685C26.1309 141.675 26.1232 141.667 26.1189 141.662L26.1148 141.658L25.9447 141.475L25.6948 141.503C24.4957 141.636 23.438 142.042 22.6777 142.803C22.2413 143.239 21.9205 143.775 21.7249 144.404C21.6404 144.274 21.5588 144.143 21.4799 144.008C20.0909 141.647 19.5055 138.522 19.8434 134.296C19.88 133.838 20.1979 133.433 20.6599 133.277L27.4361 130.982ZM22.5256 145.476C22.6142 144.605 22.9274 143.967 23.3848 143.51C23.8968 142.998 24.6367 142.665 25.5793 142.526L25.588 142.534C25.7112 142.641 25.8894 142.782 26.114 142.923C26.5592 143.203 27.2142 143.5 28 143.5C28.7858 143.5 29.4409 143.203 29.886 142.923C30.1106 142.782 30.2888 142.641 30.412 142.534L30.4207 142.526C31.3633 142.665 32.1032 142.998 32.6152 143.51C33.0724 143.967 33.3855 144.604 33.4742 145.475C32.1493 147.028 30.3339 148.236 27.9973 149.192C25.6634 148.236 23.8497 147.028 22.5256 145.476Z" fill="#5F5F6A"/>
</svg>
