<svg width="56" height="224" viewBox="0 0 56 224" fill="none" xmlns="http://www.w3.org/2000/svg">
<path d="M29.7674 21.4467C30.4577 21.4467 31.0174 22.0063 31.0174 22.6967V24.9822L33.3029 24.9822C33.9932 24.9822 34.5529 25.5419 34.5529 26.2322C34.5529 26.9226 33.9932 27.4822 33.3029 27.4822L30.5674 27.4822C30.5592 27.4822 30.5508 27.4822 30.5422 27.4822C30.4255 27.4823 30.2733 27.4824 30.1372 27.4713C29.9765 27.4581 29.7319 27.4235 29.4729 27.2915C29.1436 27.1237 28.8759 26.856 28.7081 26.5267C28.5761 26.2676 28.5414 26.0231 28.5283 25.8624C28.5172 25.7263 28.5173 25.5741 28.5173 25.4574C28.5174 25.4488 28.5174 25.4404 28.5174 25.4322V22.6967C28.5174 22.0063 29.077 21.4467 29.7674 21.4467ZM24.9818 31.0178V33.3033C24.9818 33.9936 25.5415 34.5533 26.2318 34.5533C26.9222 34.5533 27.4818 33.9936 27.4818 33.3033V30.5678C27.4818 30.5596 27.4818 30.5512 27.4818 30.5426C27.4819 30.4259 27.482 30.2737 27.4709 30.1376C27.4577 29.9769 27.4231 29.7323 27.2911 29.4733C27.1233 29.144 26.8556 28.8763 26.5263 28.7085C26.2672 28.5765 26.0227 28.5418 25.862 28.5287C25.7259 28.5176 25.5737 28.5177 25.457 28.5177C25.4484 28.5177 25.44 28.5178 25.4318 28.5178H22.6963C22.0059 28.5178 21.4463 29.0774 21.4463 29.7678C21.4463 30.4581 22.0059 31.0178 22.6963 31.0178H24.9818Z" fill="#5F5F6A"/>
<path d="M29.7674 77.6967C30.3196 77.6967 30.7674 78.1444 30.7674 78.6967V81.2322L33.3029 81.2322C33.8552 81.2322 34.3029 81.68 34.3029 82.2322C34.3029 82.7845 33.8552 83.2322 33.3029 83.2322L30.5674 83.2322C30.5597 83.2322 30.552 83.2322 30.5442 83.2322C30.4251 83.2323 30.2828 83.2323 30.1575 83.2221C30.0123 83.2102 29.8043 83.1798 29.5864 83.0687C29.3041 82.9249 29.0747 82.6955 28.9308 82.4132C28.8198 82.1953 28.7894 81.9873 28.7775 81.8421C28.7673 81.7167 28.7673 81.5745 28.7674 81.4554C28.7674 81.4476 28.7674 81.4398 28.7674 81.4322V78.6967C28.7674 78.1444 29.2151 77.6967 29.7674 77.6967ZM25.2318 86.7678V89.3033C25.2318 89.8556 25.6795 90.3033 26.2318 90.3033C26.7841 90.3033 27.2318 89.8556 27.2318 89.3033V86.5678C27.2318 86.5602 27.2318 86.5524 27.2318 86.5446C27.2319 86.4255 27.2319 86.2833 27.2217 86.1579C27.2098 86.0127 27.1794 85.8047 27.0683 85.5868C26.9245 85.3045 26.6951 85.0751 26.4128 84.9313C26.1949 84.8202 25.9869 84.7898 25.8417 84.7779C25.7163 84.7677 25.5741 84.7677 25.455 84.7678C25.4471 84.7678 25.4394 84.7678 25.4318 84.7678H22.6963C22.144 84.7678 21.6963 85.2155 21.6963 85.7678C21.6963 86.3201 22.144 86.7678 22.6963 86.7678H25.2318Z" fill="#5F5F6A"/>
<path d="M29.7674 133.947C30.1816 133.947 30.5174 134.282 30.5174 134.697V137.432C30.5174 137.45 30.5174 137.466 30.5174 137.482C30.5331 137.482 30.5497 137.482 30.5674 137.482L33.3029 137.482C33.7171 137.482 34.0529 137.818 34.0529 138.232C34.0529 138.646 33.7171 138.982 33.3029 138.982L30.5674 138.982C30.5606 138.982 30.5539 138.982 30.5471 138.982C30.425 138.982 30.2925 138.982 30.1779 138.973C30.0481 138.962 29.8767 138.936 29.6999 138.846C29.4647 138.726 29.2734 138.535 29.1536 138.3C29.0635 138.123 29.0373 137.951 29.0267 137.822C29.0173 137.707 29.0173 137.575 29.0174 137.452C29.0174 137.446 29.0174 137.439 29.0174 137.432V134.697C29.0174 134.282 29.3531 133.947 29.7674 133.947ZM25.4818 142.518C25.4661 142.518 25.4495 142.518 25.4318 142.518H22.6963C22.2821 142.518 21.9463 142.182 21.9463 141.768C21.9463 141.354 22.2821 141.018 22.6963 141.018H25.4318C25.4385 141.018 25.4453 141.018 25.452 141.018C25.5742 141.018 25.7066 141.018 25.8213 141.027C25.9511 141.038 26.1225 141.064 26.2993 141.154C26.5345 141.274 26.7257 141.465 26.8456 141.7C26.9357 141.877 26.9619 142.049 26.9725 142.178C26.9819 142.293 26.9819 142.425 26.9818 142.548C26.9818 142.554 26.9818 142.561 26.9818 142.568V145.303C26.9818 145.718 26.646 146.053 26.2318 146.053C25.8176 146.053 25.4818 145.718 25.4818 145.303V142.568C25.4818 142.55 25.4818 142.534 25.4818 142.518Z" fill="#5F5F6A"/>
<path d="M29.7674 190.197C30.0435 190.197 30.2674 190.421 30.2674 190.697V193.432C30.2674 193.58 30.2677 193.662 30.2725 193.72C30.2727 193.722 30.2729 193.724 30.2731 193.727C30.2752 193.727 30.2774 193.727 30.2797 193.727C30.338 193.732 30.4191 193.732 30.5674 193.732L33.3029 193.732C33.579 193.732 33.8029 193.956 33.8029 194.232C33.8029 194.508 33.579 194.732 33.3029 194.732L30.5514 194.732C30.4252 194.732 30.3023 194.732 30.1982 194.724C30.0839 194.714 29.9491 194.692 29.8134 194.623C29.6252 194.527 29.4722 194.374 29.3764 194.186C29.3072 194.051 29.2852 193.916 29.2758 193.801C29.2673 193.697 29.2673 193.574 29.2674 193.448L29.2674 190.697C29.2674 190.421 29.4912 190.197 29.7674 190.197ZM25.7195 198.273C25.6612 198.268 25.5801 198.268 25.4318 198.268H22.6963C22.4201 198.268 22.1963 198.044 22.1963 197.768C22.1963 197.492 22.4201 197.268 22.6963 197.268L25.4478 197.268C25.574 197.268 25.6969 197.268 25.8009 197.276C25.9152 197.286 26.0501 197.308 26.1858 197.377C26.374 197.473 26.527 197.626 26.6228 197.814C26.692 197.949 26.714 198.084 26.7234 198.199C26.7319 198.303 26.7318 198.426 26.7318 198.552L26.7318 201.303C26.7318 201.579 26.508 201.803 26.2318 201.803C25.9557 201.803 25.7318 201.579 25.7318 201.303V198.568C25.7318 198.42 25.7314 198.338 25.7267 198.28C25.7265 198.278 25.7263 198.276 25.7261 198.273C25.724 198.273 25.7218 198.273 25.7195 198.273Z" fill="#5F5F6A"/>
</svg>
