<svg width="56" height="224" viewBox="0 0 56 224" fill="none" xmlns="http://www.w3.org/2000/svg">
<path fill-rule="evenodd" clip-rule="evenodd" d="M34.4291 19C36.5594 19 38.2863 20.7269 38.2863 22.8571V33.1429C38.2863 35.2731 36.5594 37 34.4291 37H21.572C21.3057 37 21.0457 36.973 20.7946 36.9216C19.037 36.562 17.7148 35.0068 17.7148 33.1429V22.8571C17.7148 20.7269 19.4417 19 21.572 19H34.4291ZM26.7148 21.5714H34.4291C35.1392 21.5714 35.7148 22.1471 35.7148 22.8571V33.1429C35.7148 33.8529 35.1392 34.4286 34.4291 34.4286H26.7148V21.5714ZM23.5006 21.5714H20.9964C20.9191 21.5714 20.8434 21.5782 20.7698 21.5913C20.4918 21.6622 20.2863 21.9142 20.2863 22.2143C20.2863 22.5693 20.5741 22.8571 20.9291 22.8571H23.5006C23.8556 22.8571 24.1434 22.5693 24.1434 22.2143C24.1434 21.8592 23.8556 21.5714 23.5006 21.5714ZM20.9291 24.1429C20.5741 24.1429 20.2863 24.4307 20.2863 24.7857C20.2863 25.1408 20.5741 25.4286 20.9291 25.4286H23.5006C23.8556 25.4286 24.1434 25.1408 24.1434 24.7857C24.1434 24.4307 23.8556 24.1429 23.5006 24.1429H20.9291ZM20.2863 27.3571C20.2863 27.0021 20.5741 26.7143 20.9291 26.7143H23.5006C23.8556 26.7143 24.1434 27.0021 24.1434 27.3571C24.1434 27.7122 23.8556 28 23.5006 28H20.9291C20.5741 28 20.2863 27.7122 20.2863 27.3571Z" fill="#5F5F6A"/>
<path opacity="0.5" d="M34.4287 75.6426C36.2039 75.6426 37.6436 77.0822 37.6436 78.8574V89.1426C37.6436 90.9178 36.2039 92.3574 34.4287 92.3574H27.3574V75.6426H34.4287Z" fill="#5F5F6A" stroke="#71717A" stroke-width="1.28571"/>
<path fill-rule="evenodd" clip-rule="evenodd" d="M21.572 75C19.4417 75 17.7148 76.7269 17.7148 78.8571V89.1429C17.7148 91.2731 19.4417 93 21.572 93H26.7148V75H21.572ZM20.9291 77.5714C20.5741 77.5714 20.2863 77.8592 20.2863 78.2143C20.2863 78.5693 20.5741 78.8571 20.9291 78.8571H23.5006C23.8556 78.8571 24.1434 78.5693 24.1434 78.2143C24.1434 77.8592 23.8556 77.5714 23.5006 77.5714H20.9291ZM20.2863 80.7857C20.2863 80.4307 20.5741 80.1429 20.9291 80.1429H23.5006C23.8556 80.1429 24.1434 80.4307 24.1434 80.7857C24.1434 81.1408 23.8556 81.4286 23.5006 81.4286H20.9291C20.5741 81.4286 20.2863 81.1408 20.2863 80.7857ZM20.9291 82.7143C20.5741 82.7143 20.2863 83.0021 20.2863 83.3571C20.2863 83.7122 20.5741 84 20.9291 84H23.5006C23.8556 84 24.1434 83.7122 24.1434 83.3571C24.1434 83.0021 23.8556 82.7143 23.5006 82.7143H20.9291Z" fill="#5F5F6A"/>
<path fill-rule="evenodd" clip-rule="evenodd" d="M34.4291 149C36.5594 149 38.2863 147.273 38.2863 145.143V134.857C38.2863 132.727 36.5594 131 34.4291 131H21.572C19.4417 131 17.7148 132.727 17.7148 134.857V145.143C17.7148 147.273 19.4417 149 21.572 149H34.4291ZM34.4291 132.929H26.7148L26.7148 147.071H34.4291C35.4943 147.071 36.3577 146.208 36.3577 145.143V134.857C36.3577 133.792 35.4943 132.929 34.4291 132.929ZM20.2863 134.214C20.2863 133.859 20.5741 133.571 20.9291 133.571H23.5006C23.8556 133.571 24.1434 133.859 24.1434 134.214C24.1434 134.569 23.8556 134.857 23.5006 134.857H20.9291C20.5741 134.857 20.2863 134.569 20.2863 134.214ZM20.9291 136.143C20.5741 136.143 20.2863 136.431 20.2863 136.786C20.2863 137.141 20.5741 137.429 20.9291 137.429H23.5006C23.8556 137.429 24.1434 137.141 24.1434 136.786C24.1434 136.431 23.8556 136.143 23.5006 136.143H20.9291ZM20.2863 139.357C20.2863 139.002 20.5741 138.714 20.9291 138.714H23.5006C23.8556 138.714 24.1434 139.002 24.1434 139.357C24.1434 139.712 23.8556 140 23.5006 140H20.9291C20.5741 140 20.2863 139.712 20.2863 139.357Z" fill="#5F5F6A"/>
<path d="M34.4287 187C36.559 187 38.2861 188.727 38.2861 190.857V201.143C38.2861 203.273 36.559 205 34.4287 205H21.5723L21.373 204.995C19.3353 204.892 17.7148 203.206 17.7148 201.143V190.857C17.7148 188.794 19.3353 187.108 21.373 187.005L21.5723 187H34.4287ZM21.5723 188.286C20.1521 188.286 19.001 189.437 19.001 190.857V201.143C19.001 202.563 20.1521 203.714 21.5723 203.714H25.4287V188.286H21.5723ZM26.7148 203.714H34.4287C35.8489 203.714 37.001 202.563 37.001 201.143V190.857C37.001 189.437 35.8489 188.286 34.4287 188.286H26.7148V203.714ZM23.5 194.714C23.855 194.714 24.1426 195.002 24.1426 195.357C24.1424 195.712 23.8549 196 23.5 196H20.9287C20.5738 196 20.2863 195.712 20.2861 195.357C20.2861 195.002 20.5737 194.714 20.9287 194.714H23.5ZM23.5 192.143C23.855 192.143 24.1426 192.431 24.1426 192.786C24.1424 193.141 23.8549 193.429 23.5 193.429H20.9287C20.5738 193.429 20.2864 193.141 20.2861 192.786C20.2861 192.431 20.5737 192.143 20.9287 192.143H23.5ZM23.5 189.571C23.8549 189.571 24.1423 189.859 24.1426 190.214C24.1426 190.569 23.855 190.857 23.5 190.857H20.9287C20.5737 190.857 20.2861 190.569 20.2861 190.214C20.2864 189.859 20.5738 189.571 20.9287 189.571H23.5Z" fill="#5F5F6A"/>
</svg>
