<svg width="56" height="168" viewBox="0 0 56 168" fill="none" xmlns="http://www.w3.org/2000/svg">
<g opacity="0.5">
<path d="M22 26C21.7348 26 21.4816 25.9484 21.25 25.8546V36C21.25 36.4142 21.5858 36.75 22 36.75C22.4142 36.75 22.75 36.4142 22.75 36L22.75 25.8546C22.5184 25.9484 22.2652 26 22 26Z" fill="#5F5F6A"/>
<path d="M21.25 20V22.1454C21.4816 22.0516 21.7348 22 22 22C22.2652 22 22.5184 22.0516 22.75 22.1454L22.75 20C22.75 19.5858 22.4142 19.25 22 19.25C21.5858 19.25 21.25 19.5858 21.25 20Z" fill="#5F5F6A"/>
<path d="M27.25 33.8546C27.4816 33.9484 27.7348 34 28 34C28.2652 34 28.5184 33.9484 28.75 33.8546L28.75 36C28.75 36.4142 28.4142 36.75 28 36.75C27.5858 36.75 27.25 36.4142 27.25 36L27.25 33.8546Z" fill="#5F5F6A"/>
<path d="M27.25 30.1454L27.25 20C27.25 19.5858 27.5858 19.25 28 19.25C28.4142 19.25 28.75 19.5858 28.75 20L28.75 30.1454C28.5184 30.0516 28.2652 30 28 30C27.7348 30 27.4816 30.0516 27.25 30.1454Z" fill="#5F5F6A"/>
<path d="M33.25 25.8546C33.4816 25.9484 33.7348 26 34 26C34.2652 26 34.5184 25.9484 34.75 25.8546L34.75 36C34.75 36.4142 34.4142 36.75 34 36.75C33.5858 36.75 33.25 36.4142 33.25 36L33.25 25.8546Z" fill="#5F5F6A"/>
<path d="M33.25 22.1454V20C33.25 19.5858 33.5858 19.25 34 19.25C34.4142 19.25 34.75 19.5858 34.75 20V22.1454C34.5184 22.0516 34.2652 22 34 22C33.7348 22 33.4816 22.0516 33.25 22.1454Z" fill="#5F5F6A"/>
</g>
<path d="M22 21.5C23.3807 21.5 24.5 22.6193 24.5 24C24.5 25.3807 23.3807 26.5 22 26.5C20.6193 26.5 19.5 25.3807 19.5 24C19.5 22.6193 20.6193 21.5 22 21.5ZM23.5 24C23.5 23.1716 22.8284 22.5 22 22.5C21.1716 22.5 20.5 23.1716 20.5 24C20.5 24.8284 21.1716 25.5 22 25.5C22.8284 25.5 23.5 24.8284 23.5 24Z" fill="#5F5F6A"/>
<path d="M34 21.5C32.6193 21.5 31.5 22.6193 31.5 24C31.5 25.3807 32.6193 26.5 34 26.5C35.3807 26.5 36.5 25.3807 36.5 24C36.5 22.6193 35.3807 21.5 34 21.5ZM35.5 24C35.5 24.8284 34.8284 25.5 34 25.5C33.1716 25.5 32.5 24.8284 32.5 24C32.5 23.1716 33.1716 22.5 34 22.5C34.8284 22.5 35.5 23.1716 35.5 24Z" fill="#5F5F6A"/>
<path d="M30.5 32C30.5 30.6193 29.3807 29.5 28 29.5C26.6193 29.5 25.5 30.6193 25.5 32C25.5 33.3807 26.6193 34.5 28 34.5C29.3807 34.5 30.5 33.3807 30.5 32ZM28 30.5C28.8284 30.5 29.5 31.1716 29.5 32C29.5 32.8284 28.8284 33.5 28 33.5C27.1716 33.5 26.5 32.8284 26.5 32C26.5 31.1716 27.1716 30.5 28 30.5Z" fill="#5F5F6A"/>
<path d="M27.25 90.3855C26.2357 90.067 25.5 89.1194 25.5 88C25.5 86.8806 26.2357 85.933 27.25 85.6145L27.25 76C27.25 75.5858 27.5858 75.25 28 75.25C28.4142 75.25 28.75 75.5858 28.75 76V85.6145C29.7643 85.933 30.5 86.8806 30.5 88C30.5 89.1194 29.7643 90.067 28.75 90.3855V92C28.75 92.4142 28.4142 92.75 28 92.75C27.5858 92.75 27.25 92.4142 27.25 92L27.25 90.3855ZM28 86.5C27.1716 86.5 26.5 87.1716 26.5 88C26.5 88.8284 27.1716 89.5 28 89.5C28.8284 89.5 29.5 88.8284 29.5 88C29.5 87.1716 28.8284 86.5 28 86.5Z" fill="#5F5F6A"/>
<path d="M36.5 80C36.5 78.8806 35.7643 77.933 34.75 77.6145V76C34.75 75.5858 34.4142 75.25 34 75.25C33.5858 75.25 33.25 75.5858 33.25 76V77.6145C32.2357 77.933 31.5 78.8806 31.5 80C31.5 81.1194 32.2357 82.067 33.25 82.3855L33.25 92C33.25 92.4142 33.5858 92.75 34 92.75C34.4142 92.75 34.75 92.4142 34.75 92L34.75 82.3855C35.7643 82.067 36.5 81.1194 36.5 80ZM34 78.5C34.8284 78.5 35.5 79.1716 35.5 80C35.5 80.8284 34.8284 81.5 34 81.5C33.1716 81.5 32.5 80.8284 32.5 80C32.5 79.1716 33.1716 78.5 34 78.5Z" fill="#5F5F6A"/>
<path d="M24.5 80C24.5 78.8806 23.7643 77.933 22.75 77.6145L22.75 76C22.75 75.5858 22.4142 75.25 22 75.25C21.5858 75.25 21.25 75.5858 21.25 76L21.25 77.6145C20.2357 77.933 19.5 78.8806 19.5 80C19.5 81.1194 20.2357 82.067 21.25 82.3855L21.25 92C21.25 92.4142 21.5858 92.75 22 92.75C22.4142 92.75 22.75 92.4142 22.75 92L22.75 82.3855C23.7643 82.067 24.5 81.1194 24.5 80ZM22 78.5C22.8284 78.5 23.5 79.1716 23.5 80C23.5 80.8284 22.8284 81.5 22 81.5C21.1716 81.5 20.5 80.8284 20.5 80C20.5 79.1716 21.1716 78.5 22 78.5Z" fill="#5F5F6A"/>
<path d="M27.5 146.45C26.3589 146.218 25.5 145.209 25.5 144C25.5 142.791 26.3589 141.782 27.5 141.55L27.5 132C27.5 131.724 27.7239 131.5 28 131.5C28.2761 131.5 28.5 131.724 28.5 132V141.55C29.6411 141.782 30.5 142.791 30.5 144C30.5 145.209 29.6411 146.218 28.5 146.45V148C28.5 148.276 28.2761 148.5 28 148.5C27.7239 148.5 27.5 148.276 27.5 148L27.5 146.45ZM28 142.5C27.1716 142.5 26.5 143.172 26.5 144C26.5 144.828 27.1716 145.5 28 145.5C28.8284 145.5 29.5 144.828 29.5 144C29.5 143.172 28.8284 142.5 28 142.5Z" fill="#5F5F6A"/>
<path d="M36.5 136C36.5 134.791 35.6411 133.782 34.5 133.55V132C34.5 131.724 34.2761 131.5 34 131.5C33.7239 131.5 33.5 131.724 33.5 132V133.55C32.3589 133.782 31.5 134.791 31.5 136C31.5 137.209 32.3589 138.218 33.5 138.45L33.5 148C33.5 148.276 33.7239 148.5 34 148.5C34.2761 148.5 34.5 148.276 34.5 148L34.5 138.45C35.6411 138.218 36.5 137.209 36.5 136ZM34 134.5C34.8284 134.5 35.5 135.172 35.5 136C35.5 136.828 34.8284 137.5 34 137.5C33.1716 137.5 32.5 136.828 32.5 136C32.5 135.172 33.1716 134.5 34 134.5Z" fill="#5F5F6A"/>
<path d="M24.5 136C24.5 134.791 23.6411 133.782 22.5 133.55V132C22.5 131.724 22.2761 131.5 22 131.5C21.7239 131.5 21.5 131.724 21.5 132L21.5 133.55C20.3589 133.782 19.5 134.791 19.5 136C19.5 137.209 20.3589 138.218 21.5 138.45L21.5 148C21.5 148.276 21.7239 148.5 22 148.5C22.2761 148.5 22.5 148.276 22.5 148L22.5 138.45C23.6411 138.218 24.5 137.209 24.5 136ZM22 134.5C22.8284 134.5 23.5 135.172 23.5 136C23.5 136.828 22.8284 137.5 22 137.5C21.1716 137.5 20.5 136.828 20.5 136C20.5 135.172 21.1716 134.5 22 134.5Z" fill="#5F5F6A"/>
</svg>
