<svg width="56" height="224" viewBox="0 0 56 224" fill="none" xmlns="http://www.w3.org/2000/svg">
<path fill-rule="evenodd" clip-rule="evenodd" d="M28 18.9283C22.9898 18.9283 18.9283 22.9898 18.9283 28C18.9283 29.7972 19.4516 31.4741 20.3541 32.8843L18.8116 36.4524C18.6963 36.719 18.7454 37.0281 18.9374 37.246C19.1295 37.4638 19.4301 37.5512 19.709 37.4703L24.1045 36.195C25.2856 36.7573 26.607 37.0718 28 37.0718C33.0102 37.0718 37.0718 33.0102 37.0718 28C37.0718 22.9898 33.0102 18.9283 28 18.9283ZM29.3722 30.7532C28.9996 30.9732 28.1851 31.0401 26.6362 29.4911C25.0872 27.9421 25.1541 27.1276 25.3741 26.7551C25.9344 26.6985 26.4708 26.3232 26.9695 25.8244C27.3377 25.4562 27.0392 24.5608 26.3029 23.8244C25.5665 23.088 24.671 22.7895 24.3028 23.1577C21.9313 25.5293 23.1186 28.6402 25.3028 30.8245C27.5172 33.0388 30.5412 34.2529 32.9696 31.8245C33.3378 31.4562 33.0393 30.5608 32.3029 29.8244C31.5665 29.088 30.6711 28.7896 30.3029 29.1578C29.8041 29.6565 29.4288 30.1929 29.3722 30.7532Z" fill="#5F5F6A"/>
<path fill-rule="evenodd" clip-rule="evenodd" d="M28 76.4283C23.8182 76.4283 20.4283 79.8183 20.4283 84C20.4283 85.6298 20.9423 87.1372 21.8172 88.372C21.9686 88.5857 21.9975 88.8628 21.8936 89.1032L20.8203 91.586L23.9673 90.6729C24.1521 90.6193 24.3505 90.6388 24.5213 90.7273C25.5621 91.2667 26.7443 91.5718 28 91.5718C32.1818 91.5718 35.5718 88.1818 35.5718 84C35.5718 79.8183 32.1818 76.4283 28 76.4283ZM18.9283 84C18.9283 78.9898 22.9898 74.9283 28 74.9283C33.0102 74.9283 37.0718 78.9898 37.0718 84C37.0718 89.0102 33.0102 93.0718 28 93.0718C26.607 93.0718 25.2856 92.7573 24.1045 92.195L19.709 93.4703C19.4301 93.5512 19.1295 93.4638 18.9374 93.246C18.7454 93.0281 18.6963 92.719 18.8116 92.4524L20.3541 88.8843C19.4516 87.4741 18.9283 85.7972 18.9283 84Z" fill="#5F5F6A"/>
<path opacity="0.5" fill-rule="evenodd" clip-rule="evenodd" d="M20.4287 84C20.4287 79.8183 23.8187 76.4283 28.0005 76.4283C32.1822 76.4283 35.5722 79.8183 35.5722 84C35.5722 88.1818 32.1822 91.5718 28.0005 91.5718C26.7448 91.5718 25.5626 91.2667 24.5218 90.7273C24.3509 90.6388 24.1526 90.6193 23.9677 90.6729L20.8208 91.586L21.8941 89.1032C21.998 88.8628 21.969 88.5857 21.8176 88.372C20.9428 87.1372 20.4287 85.6298 20.4287 84ZM29.3727 86.7532C29.0001 86.9732 28.1856 87.0401 26.6366 85.4911C25.0877 83.9421 25.1546 83.1276 25.3746 82.7551C25.9348 82.6985 26.4712 82.3232 26.97 81.8244C27.3382 81.4562 27.0397 80.5608 26.3033 79.8244C25.5669 79.088 24.6715 78.7895 24.3033 79.1577C21.9317 81.5293 23.1191 84.6402 25.3033 86.8245C27.5176 89.0388 30.5416 90.2529 32.97 87.8245C33.3382 87.4562 33.0398 86.5608 32.3034 85.8244C31.567 85.088 30.6716 84.7896 30.3033 85.1578C29.8046 85.6565 29.4292 86.1929 29.3727 86.7532Z" fill="#5F5F6A"/>
<path d="M29.2921 142.631C28.9242 142.847 28.12 142.913 26.5905 141.389C25.061 139.864 25.127 139.062 25.3443 138.696C25.8975 138.64 26.4272 138.271 26.9196 137.78C27.2832 137.417 26.9885 136.536 26.2614 135.811C25.5342 135.087 24.6501 134.793 24.2865 135.155C21.9447 137.489 23.1172 140.551 25.2739 142.701C27.4604 144.88 30.4464 146.075 32.8443 143.685C33.2079 143.323 32.9131 142.441 32.186 141.717C31.4588 140.992 30.5747 140.698 30.2111 141.061C29.7186 141.551 29.348 142.079 29.2921 142.631Z" fill="#5F5F6A"/>
<path fill-rule="evenodd" clip-rule="evenodd" d="M28 132.428C23.8182 132.428 20.4283 135.818 20.4283 140C20.4283 141.63 20.9423 143.137 21.8172 144.372C21.9686 144.586 21.9975 144.863 21.8936 145.103L20.8203 147.586L23.9673 146.673C24.1521 146.619 24.3505 146.639 24.5213 146.727C25.5621 147.267 26.7443 147.572 28 147.572C32.1818 147.572 35.5718 144.182 35.5718 140C35.5718 135.818 32.1818 132.428 28 132.428ZM18.9283 140C18.9283 134.99 22.9898 130.928 28 130.928C33.0102 130.928 37.0718 134.99 37.0718 140C37.0718 145.01 33.0102 149.072 28 149.072C26.607 149.072 25.2856 148.757 24.1045 148.195L19.709 149.47C19.4301 149.551 19.1295 149.464 18.9374 149.246C18.7454 149.028 18.6963 148.719 18.8116 148.452L20.3541 144.884C19.4516 143.474 18.9283 141.797 18.9283 140Z" fill="#5F5F6A"/>
<path fill-rule="evenodd" clip-rule="evenodd" d="M24.6348 191.514C23.5945 192.554 23.3449 193.727 23.5832 194.897C23.8274 196.097 24.5928 197.316 25.6269 198.347C26.6802 199.397 27.8902 200.171 29.0809 200.417C30.2388 200.656 31.4111 200.405 32.4864 199.336C32.4876 199.332 32.5348 199.249 32.45 198.995C32.3604 198.727 32.1535 198.39 31.833 198.071C31.5125 197.751 31.174 197.545 30.9046 197.455C30.645 197.369 30.5621 197.419 30.5595 197.419C30.09 197.888 29.8272 198.31 29.7896 198.681C29.7735 198.84 29.683 198.981 29.5457 199.062C29.2249 199.251 28.7795 199.325 28.2179 199.137C27.677 198.955 27.0293 198.532 26.2375 197.743C25.4459 196.954 25.0209 196.308 24.8386 195.768C24.6492 195.207 24.7241 194.762 24.9141 194.441C24.9951 194.304 25.1361 194.214 25.2942 194.198C25.6682 194.161 26.0917 193.898 26.5618 193.431C26.5629 193.426 26.6102 193.344 26.5253 193.09C26.4357 192.822 26.2289 192.485 25.9084 192.166C25.5879 191.846 25.2494 191.64 24.9799 191.55C24.7205 191.464 24.6375 191.514 24.6348 191.514ZM25.2952 190.601C25.7405 190.749 26.2077 191.052 26.6143 191.457C27.0209 191.863 27.325 192.328 27.4737 192.773C27.6118 193.186 27.6612 193.747 27.2726 194.134C26.8396 194.566 26.32 194.971 25.7287 195.131C25.7267 195.208 25.74 195.312 25.7861 195.448C25.8988 195.782 26.2056 196.299 26.9435 197.035C27.6812 197.77 28.2003 198.076 28.536 198.189C28.6745 198.235 28.7793 198.248 28.8573 198.246C29.0182 197.656 29.4254 197.138 29.8581 196.706C30.2459 196.32 30.8064 196.369 31.2199 196.506C31.6652 196.654 32.1323 196.957 32.539 197.363C32.9456 197.768 33.2497 198.234 33.3983 198.678C33.5364 199.091 33.5859 199.652 33.1973 200.039C31.876 201.356 30.3582 201.702 28.8787 201.396C27.4303 201.097 26.0541 200.185 24.9209 199.055C23.7983 197.936 22.899 196.549 22.6033 195.097C22.302 193.617 22.636 192.094 23.9335 190.801C24.3212 190.415 24.8818 190.464 25.2952 190.601Z" fill="#5F5F6A"/>
<path fill-rule="evenodd" clip-rule="evenodd" d="M28 188.178C23.6802 188.178 20.1782 191.68 20.1782 196C20.1782 197.683 20.7094 199.241 21.6132 200.517C21.7141 200.659 21.7334 200.844 21.6641 201.004L20.3802 203.974L24.0369 202.913C24.1601 202.877 24.2924 202.89 24.4063 202.949C25.4818 203.507 26.7034 203.822 28 203.822C32.3198 203.822 35.8218 200.32 35.8218 196C35.8218 191.68 32.3198 188.178 28 188.178ZM19.1782 196C19.1782 191.128 23.1279 187.178 28 187.178C32.8721 187.178 36.8218 191.128 36.8218 196C36.8218 200.872 32.8721 204.822 28 204.822C26.6115 204.822 25.2966 204.501 24.1269 203.928L19.6393 205.23C19.4534 205.284 19.253 205.226 19.125 205.081C18.9969 204.935 18.9642 204.729 19.0411 204.552L20.6368 200.86C19.715 199.467 19.1782 197.795 19.1782 196Z" fill="#5F5F6A"/>
</svg>
