<svg width="56" height="224" viewBox="0 0 56 224" fill="none" xmlns="http://www.w3.org/2000/svg">
<path d="M29.4582 37.6959C34.1513 36.9921 37.75 32.9434 37.75 28.0542C37.75 22.6694 33.3848 18.3042 28 18.3042C22.6152 18.3042 18.25 22.6694 18.25 28.0542C18.25 32.9434 21.8487 36.9921 26.5418 37.6959V30.8978H24.4922C24.2237 30.8978 24.0061 30.6802 24.0061 30.4117V28.5687C24.0061 28.3002 24.2237 28.0826 24.4922 28.0826H26.5418L26.4695 26.1398C26.4695 25.1979 26.6447 23.6687 27.8123 22.8334C28.6281 22.2498 29.2347 22.1404 30.209 22.1404C31.0543 22.1404 31.6346 22.2238 32.0195 22.2792C32.0883 22.289 32.1508 22.298 32.2074 22.3055C32.3035 22.3181 32.3747 22.4001 32.3747 22.497V24.5372C32.3747 24.6498 32.2798 24.7374 32.1699 24.7313C32.1571 24.7306 32.1445 24.7296 32.1317 24.7302C32.0185 24.735 31.4214 24.7597 30.9165 24.7597C30.0253 24.7597 29.4582 25.1662 29.4582 26.5152V28.0826H31.6499C31.9503 28.0826 32.1787 28.3523 32.1294 28.6486L31.8507 30.4916C31.8117 30.726 31.6089 30.8978 31.3712 30.8978H29.4582V37.6959Z" fill="#5F5F6A"/>
<path fill-rule="evenodd" clip-rule="evenodd" d="M28 75.8C23.4437 75.8 19.75 79.4936 19.75 84.05C19.75 87.8817 22.3629 91.1044 25.9039 92.0315V87.4248H24.762C24.1 87.4248 23.5633 86.8882 23.5633 86.2261V84.5249C23.5633 83.8629 24.1 83.3262 24.762 83.3262H25.8755C25.8626 82.9792 25.8372 82.6301 25.8372 82.2829C25.8372 81.3942 25.9862 79.6253 27.3904 78.6208C27.8246 78.3102 28.2339 78.1047 28.6844 77.9843C29.1251 77.8666 29.5667 77.8411 30.0391 77.8411C30.873 77.8411 31.4503 77.9241 31.8168 77.9768C31.8814 77.9861 31.9346 77.9937 31.9816 77.9999C32.4471 78.0611 32.7882 78.4581 32.7882 78.9203V80.8035C32.7882 81.339 32.3404 81.755 31.8186 81.7321C31.6646 81.7386 31.143 81.7589 30.6922 81.7589C30.3816 81.7589 30.2905 81.8301 30.258 81.8649C30.213 81.9129 30.0961 82.0895 30.0961 82.6294V83.3262H31.3691C32.1075 83.3262 32.6698 83.9872 32.5526 84.7151L32.2944 86.4232C32.1981 87.0012 31.6979 87.4248 31.1119 87.4248H30.0961V92.0315C33.6371 91.1043 36.25 87.8817 36.25 84.05C36.25 79.4936 32.5563 75.8 28 75.8ZM18.25 84.05C18.25 78.6652 22.6152 74.3 28 74.3C33.3848 74.3 37.75 78.6652 37.75 84.05C37.75 88.9398 34.151 92.9878 29.4573 93.6917C29.2414 93.7241 29.0221 93.6608 28.8567 93.5183C28.6912 93.3758 28.5961 93.1683 28.5961 92.95V86.6748C28.5961 86.2606 28.9319 85.9248 29.3461 85.9248H30.8527L31.0188 84.8262H29.3461C28.9319 84.8262 28.5961 84.4904 28.5961 84.0762V82.6294C28.5961 81.924 28.7408 81.2904 29.1633 80.8394C29.5981 80.3753 30.18 80.2589 30.6922 80.2589C30.8885 80.2589 31.1017 80.2547 31.2882 80.2495V79.4183C30.9738 79.3787 30.5681 79.3411 30.0391 79.3411C29.6122 79.3411 29.324 79.3661 29.0716 79.4335C28.829 79.4983 28.5818 79.6128 28.2631 79.8408C27.5156 80.3755 27.3391 81.4214 27.3373 82.2694L27.4034 84.0483C27.411 84.252 27.3354 84.4499 27.194 84.5966C27.0527 84.7433 26.8577 84.8262 26.6539 84.8262H25.0633V85.9248H26.6539C27.0682 85.9248 27.4039 86.2606 27.4039 86.6748V92.95C27.4039 93.1683 27.3088 93.3758 27.1434 93.5183C26.9779 93.6608 26.7586 93.7241 26.5427 93.6917C21.849 92.9878 18.25 88.9399 18.25 84.05Z" fill="#5F5F6A"/>
<path opacity="0.5" d="M19.75 84.05C19.75 79.4936 23.4437 75.8 28 75.8C32.5563 75.8 36.25 79.4936 36.25 84.05C36.25 87.8817 33.6371 91.1043 30.0961 92.0315V87.4248H31.1119C31.6979 87.4248 32.1981 87.0012 32.2944 86.4232L32.5526 84.7151C32.6698 83.9872 32.1075 83.3262 31.3691 83.3262H30.0961V82.6294C30.0961 82.0895 30.213 81.9129 30.258 81.8649C30.2905 81.8301 30.3816 81.7589 30.6922 81.7589C31.143 81.7589 31.6646 81.7386 31.8186 81.7321C32.3404 81.755 32.7882 81.339 32.7882 80.8035V78.9203C32.7882 78.4642 32.4561 78.0716 32 78.0025V78L31.9908 78.0011C31.9877 78.0007 31.9847 78.0003 31.9816 77.9999C31.9346 77.9937 31.8814 77.9861 31.8168 77.9768C31.4503 77.9241 30.873 77.8411 30.0391 77.8411C29.5667 77.8411 29.1251 77.8666 28.6844 77.9843C28.2339 78.1047 27.8246 78.3102 27.3904 78.6208C25.9862 79.6253 25.8372 81.3942 25.8372 82.2829C25.8372 82.5161 25.8487 82.75 25.8601 82.9837C25.8657 83.098 25.8713 83.2122 25.8755 83.3262H24.762C24.1 83.3262 23.5633 83.8629 23.5633 84.5249V86.2261C23.5633 86.8882 24.1 87.4248 24.762 87.4248H25.9039V92.0315C22.3629 91.1044 19.75 87.8817 19.75 84.05Z" fill="#5F5F6A"/>
<path fill-rule="evenodd" clip-rule="evenodd" d="M28 131.8C23.4437 131.8 19.75 135.494 19.75 140.05C19.75 143.882 22.3629 147.104 25.9039 148.032V143.425H24.762C24.1 143.425 23.5633 142.888 23.5633 142.226V140.525C23.5633 139.863 24.1 139.326 24.762 139.326H25.8755C25.8626 138.979 25.8372 138.63 25.8372 138.283C25.8372 137.394 25.9862 135.625 27.3904 134.621C27.8246 134.31 28.2339 134.105 28.6844 133.984C29.1251 133.867 29.5667 133.841 30.0391 133.841C30.873 133.841 31.4503 133.924 31.8168 133.977C31.8814 133.986 31.9346 133.994 31.9816 134C32.4471 134.061 32.7882 134.458 32.7882 134.92V136.803C32.7882 137.339 32.3404 137.755 31.8186 137.732C31.6646 137.739 31.143 137.759 30.6922 137.759C30.3816 137.759 30.2905 137.83 30.258 137.865C30.213 137.913 30.0961 138.09 30.0961 138.629V139.326H31.3691C32.1075 139.326 32.6698 139.987 32.5526 140.715L32.2944 142.423C32.1981 143.001 31.6979 143.425 31.1119 143.425H30.0961V148.032C33.6371 147.104 36.25 143.882 36.25 140.05C36.25 135.494 32.5563 131.8 28 131.8ZM18.25 140.05C18.25 134.665 22.6152 130.3 28 130.3C33.3848 130.3 37.75 134.665 37.75 140.05C37.75 144.94 34.151 148.988 29.4573 149.692C29.2414 149.724 29.0221 149.661 28.8567 149.518C28.6912 149.376 28.5961 149.168 28.5961 148.95V142.675C28.5961 142.261 28.9319 141.925 29.3461 141.925H30.8527L31.0188 140.826H29.3461C28.9319 140.826 28.5961 140.49 28.5961 140.076V138.629C28.5961 137.924 28.7408 137.29 29.1633 136.839C29.5981 136.375 30.18 136.259 30.6922 136.259C30.8885 136.259 31.1017 136.255 31.2882 136.25V135.418C30.9738 135.379 30.5681 135.341 30.0391 135.341C29.6122 135.341 29.324 135.366 29.0716 135.434C28.829 135.498 28.5818 135.613 28.2631 135.841C27.5156 136.376 27.3391 137.421 27.3373 138.269L27.4034 140.048C27.411 140.252 27.3354 140.45 27.194 140.597C27.0527 140.743 26.8577 140.826 26.6539 140.826H25.0633V141.925H26.6539C27.0682 141.925 27.4039 142.261 27.4039 142.675V148.95C27.4039 149.168 27.3088 149.376 27.1434 149.518C26.9779 149.661 26.7586 149.724 26.5427 149.692C21.849 148.988 18.25 144.94 18.25 140.05Z" fill="#5F5F6A"/>
<path fill-rule="evenodd" clip-rule="evenodd" d="M28 187.55C23.3056 187.55 19.5 191.356 19.5 196.05C19.5 200.11 22.3473 203.506 26.1539 204.349V199.175H24.762C24.2381 199.175 23.8133 198.75 23.8133 198.226V196.525C23.8133 196.001 24.2381 195.576 24.762 195.576H26.135L26.0876 194.301C26.0874 194.295 26.0872 194.289 26.0872 194.283C26.0872 193.401 26.2404 191.751 27.5358 190.824C27.9508 190.527 28.3331 190.337 28.749 190.226C29.1583 190.117 29.5743 190.091 30.0391 190.091C30.8552 190.091 31.4186 190.172 31.7813 190.224C31.8455 190.233 31.9002 190.241 31.949 190.248C32.2889 190.292 32.5382 190.582 32.5382 190.92V192.803C32.5382 193.198 32.2063 193.503 31.8215 193.482L31.8196 193.482C31.683 193.488 31.1497 193.509 30.6922 193.509C30.348 193.509 30.1751 193.588 30.0755 193.694C29.9677 193.809 29.8461 194.062 29.8461 194.629V195.576H31.3691C31.9539 195.576 32.3991 196.1 32.3056 196.677L32.0478 198.382C31.9715 198.84 31.5757 199.175 31.1119 199.175H29.8461V204.349C33.6528 203.506 36.5 200.11 36.5 196.05C36.5 191.356 32.6944 187.55 28 187.55ZM18.5 196.05C18.5 190.803 22.7533 186.55 28 186.55C33.2467 186.55 37.5 190.803 37.5 196.05C37.5 200.814 33.9934 204.759 29.4202 205.444C29.2763 205.466 29.1301 205.424 29.0198 205.329C28.9095 205.234 28.8461 205.096 28.8461 204.95V198.675C28.8461 198.399 29.0699 198.175 29.3461 198.175H31.0677L31.3094 196.576H29.3461C29.0699 196.576 28.8461 196.352 28.8461 196.076V194.629C28.8461 193.952 28.9862 193.394 29.3457 193.01C29.7135 192.618 30.2136 192.509 30.6922 192.509C30.9847 192.509 31.3134 192.5 31.5382 192.492V191.2C31.1951 191.151 30.7145 191.091 30.0391 191.091C29.6046 191.091 29.2909 191.116 29.0071 191.192C28.7299 191.266 28.4556 191.396 28.1176 191.637C27.2605 192.251 27.0885 193.418 27.0873 194.274L27.1536 196.058C27.1586 196.193 27.1083 196.325 27.014 196.423C26.9198 196.521 26.7898 196.576 26.6539 196.576H24.8133V198.175H26.6539C26.9301 198.175 27.1539 198.399 27.1539 198.675V204.95C27.1539 205.096 27.0905 205.234 26.9802 205.329C26.8699 205.424 26.7237 205.466 26.5798 205.444C22.0066 204.759 18.5 200.814 18.5 196.05Z" fill="#5F5F6A"/>
</svg>
