<svg width="56" height="224" viewBox="0 0 56 224" fill="none" xmlns="http://www.w3.org/2000/svg">
<path d="M28 22C29.1046 22 30 21.1046 30 20C30 18.8954 29.1046 18 28 18C26.8954 18 26 18.8954 26 20C26 21.1046 26.8954 22 28 22Z" fill="#5F5F6A"/>
<path d="M28 38C29.1046 38 30 37.1046 30 36C30 34.8954 29.1046 34 28 34C26.8954 34 26 34.8954 26 36C26 37.1046 26.8954 38 28 38Z" fill="#5F5F6A"/>
<path d="M34 28C34 29.1046 34.8954 30 36 30C37.1046 30 38 29.1046 38 28C38 26.8954 37.1046 26 36 26C34.8954 26 34 26.8954 34 28Z" fill="#5F5F6A"/>
<path d="M18 28C18 29.1046 18.8954 30 20 30C21.1046 30 22 29.1046 22 28C22 26.8954 21.1046 26 20 26C18.8954 26 18 26.8954 18 28Z" fill="#5F5F6A"/>
<path d="M32.2426 32.2426C31.4616 33.0237 31.4616 34.29 32.2426 35.0711C33.0237 35.8521 34.29 35.8521 35.0711 35.0711C35.8521 34.29 35.8521 33.0237 35.0711 32.2426C34.29 31.4616 33.0237 31.4616 32.2426 32.2426Z" fill="#5F5F6A"/>
<path d="M20.9289 20.9289C20.1479 21.71 20.1479 22.9763 20.9289 23.7574C21.71 24.5384 22.9763 24.5384 23.7574 23.7574C24.5384 22.9763 24.5384 21.71 23.7574 20.9289C22.9763 20.1479 21.71 20.1479 20.9289 20.9289Z" fill="#5F5F6A"/>
<path fill-rule="evenodd" clip-rule="evenodd" d="M23.7574 32.2426C22.9763 31.4615 21.71 31.4615 20.9289 32.2426C20.1479 33.0236 20.1479 34.29 20.9289 35.071C21.71 35.8521 22.9763 35.8521 23.7574 35.071C24.5384 34.29 24.5384 33.0236 23.7574 32.2426Z" fill="#5F5F6A"/>
<path d="M28 74.5C27.1716 74.5 26.5 75.1716 26.5 76C26.5 76.8284 27.1716 77.5 28 77.5C28.8284 77.5 29.5 76.8284 29.5 76C29.5 75.1716 28.8284 74.5 28 74.5Z" fill="#5F5F6A"/>
<path d="M21.5 84C21.5 83.1716 20.8284 82.5 20 82.5C19.1716 82.5 18.5 83.1716 18.5 84C18.5 84.8284 19.1716 85.5 20 85.5C20.8284 85.5 21.5 84.8284 21.5 84Z" fill="#5F5F6A"/>
<path d="M23.4038 79.4038C23.9896 78.818 23.9896 77.8683 23.4038 77.2825C22.818 76.6967 21.8683 76.6967 21.2825 77.2825C20.6967 77.8683 20.6967 78.818 21.2825 79.4038C21.8683 79.9896 22.818 79.9896 23.4038 79.4038Z" fill="#5F5F6A"/>
<g opacity="0.5">
<path d="M37.5006 84C37.5006 83.1716 36.829 82.5 36.0006 82.5C35.1722 82.5 34.5006 83.1716 34.5006 84C34.5006 84.8284 35.1722 85.5 36.0006 85.5C36.829 85.5 37.5006 84.8284 37.5006 84Z" fill="#5F5F6A"/>
<path d="M28.0006 90.5C27.1722 90.5 26.5006 91.1716 26.5006 92C26.5006 92.8284 27.1722 93.5 28.0006 93.5C28.829 93.5 29.5006 92.8284 29.5006 92C29.5006 91.1716 28.829 90.5 28.0006 90.5Z" fill="#5F5F6A"/>
<path d="M34.7181 90.7175C35.3039 90.1317 35.3039 89.182 34.7181 88.5962C34.1323 88.0104 33.1826 88.0104 32.5968 88.5962C32.011 89.182 32.011 90.1317 32.5968 90.7175C33.1826 91.3033 34.1323 91.3033 34.7181 90.7175Z" fill="#5F5F6A"/>
<path d="M21.2831 90.7175C21.8689 91.3033 22.8186 91.3033 23.4044 90.7175C23.9902 90.1317 23.9902 89.1819 23.4044 88.5962C22.8186 88.0104 21.8689 88.0104 21.2831 88.5962C20.6973 89.1819 20.6973 90.1317 21.2831 90.7175Z" fill="#5F5F6A"/>
</g>
<path d="M29 132C29 132.552 28.5523 133 28 133C27.4477 133 27 132.552 27 132C27 131.448 27.4477 131 28 131C28.5523 131 29 131.448 29 132Z" fill="#5F5F6A"/>
<path d="M29 148C29 148.552 28.5523 149 28 149C27.4477 149 27 148.552 27 148C27 147.448 27.4477 147 28 147C28.5523 147 29 147.448 29 148Z" fill="#5F5F6A"/>
<path d="M35 140C35 140.552 35.4477 141 36 141C36.5523 141 37 140.552 37 140C37 139.448 36.5523 139 36 139C35.4477 139 35 139.448 35 140Z" fill="#5F5F6A"/>
<path d="M20 141C19.4477 141 19 140.552 19 140C19 139.448 19.4477 139 20 139C20.5523 139 21 139.448 21 140C21 140.552 20.5523 141 20 141Z" fill="#5F5F6A"/>
<path d="M32.9497 144.95C32.5592 145.34 32.5592 145.973 32.9497 146.364C33.3403 146.754 33.9734 146.754 34.364 146.364C34.7545 145.973 34.7545 145.34 34.364 144.95C33.9734 144.559 33.3403 144.559 32.9497 144.95Z" fill="#5F5F6A"/>
<path d="M21.636 135.05C21.2455 134.66 21.2455 134.027 21.636 133.636C22.0266 133.246 22.6597 133.246 23.0503 133.636C23.4408 134.027 23.4408 134.66 23.0503 135.05C22.6597 135.441 22.0266 135.441 21.636 135.05Z" fill="#5F5F6A"/>
<path d="M23.0502 144.95C22.6597 144.559 22.0266 144.559 21.636 144.95C21.2455 145.34 21.2455 145.973 21.636 146.364C22.0266 146.754 22.6597 146.754 23.0502 146.364C23.4408 145.973 23.4408 145.34 23.0502 144.95Z" fill="#5F5F6A"/>
<path fill-rule="evenodd" clip-rule="evenodd" d="M26.5 188C26.5 187.172 27.1716 186.5 28 186.5C28.8284 186.5 29.5 187.172 29.5 188C29.5 188.828 28.8284 189.5 28 189.5C27.1716 189.5 26.5 188.828 26.5 188ZM28 187.5C27.7239 187.5 27.5 187.724 27.5 188C27.5 188.276 27.7239 188.5 28 188.5C28.2761 188.5 28.5 188.276 28.5 188C28.5 187.724 28.2761 187.5 28 187.5Z" fill="#5F5F6A"/>
<path fill-rule="evenodd" clip-rule="evenodd" d="M26.5 204C26.5 203.172 27.1716 202.5 28 202.5C28.8284 202.5 29.5 203.172 29.5 204C29.5 204.828 28.8284 205.5 28 205.5C27.1716 205.5 26.5 204.828 26.5 204ZM28 203.5C27.7239 203.5 27.5 203.724 27.5 204C27.5 204.276 27.7239 204.5 28 204.5C28.2761 204.5 28.5 204.276 28.5 204C28.5 203.724 28.2761 203.5 28 203.5Z" fill="#5F5F6A"/>
<path fill-rule="evenodd" clip-rule="evenodd" d="M37.5 196C37.5 195.172 36.8284 194.5 36 194.5C35.1716 194.5 34.5 195.172 34.5 196C34.5 196.828 35.1716 197.5 36 197.5C36.8284 197.5 37.5 196.828 37.5 196ZM36 195.5C36.2761 195.5 36.5 195.724 36.5 196C36.5 196.276 36.2761 196.5 36 196.5C35.7239 196.5 35.5 196.276 35.5 196C35.5 195.724 35.7239 195.5 36 195.5Z" fill="#5F5F6A"/>
<path fill-rule="evenodd" clip-rule="evenodd" d="M20 194.5C20.8284 194.5 21.5 195.172 21.5 196C21.5 196.828 20.8284 197.5 20 197.5C19.1716 197.5 18.5 196.828 18.5 196C18.5 195.172 19.1716 194.5 20 194.5ZM20.5 196C20.5 195.724 20.2761 195.5 20 195.5C19.7239 195.5 19.5 195.724 19.5 196C19.5 196.276 19.7239 196.5 20 196.5C20.2761 196.5 20.5 196.276 20.5 196Z" fill="#5F5F6A"/>
<path fill-rule="evenodd" clip-rule="evenodd" d="M34.7175 202.718C35.3033 202.132 35.3033 201.182 34.7175 200.596C34.1317 200.01 33.182 200.01 32.5962 200.596C32.0104 201.182 32.0104 202.132 32.5962 202.718C33.182 203.303 34.1317 203.303 34.7175 202.718ZM34.0104 201.303C34.2057 201.499 34.2057 201.815 34.0104 202.01C33.8151 202.206 33.4986 202.206 33.3033 202.01C33.108 201.815 33.108 201.499 33.3033 201.303C33.4986 201.108 33.8151 201.108 34.0104 201.303Z" fill="#5F5F6A"/>
<path fill-rule="evenodd" clip-rule="evenodd" d="M23.4038 189.282C23.9896 189.868 23.9896 190.818 23.4038 191.404C22.818 191.99 21.8683 191.99 21.2825 191.404C20.6967 190.818 20.6967 189.868 21.2825 189.282C21.8683 188.697 22.818 188.697 23.4038 189.282ZM22.6967 190.697C22.892 190.501 22.892 190.185 22.6967 189.99C22.5014 189.794 22.1849 189.794 21.9896 189.99C21.7943 190.185 21.7943 190.501 21.9896 190.697C22.1849 190.892 22.5014 190.892 22.6967 190.697Z" fill="#5F5F6A"/>
<path fill-rule="evenodd" clip-rule="evenodd" d="M21.2825 202.718C21.8683 203.303 22.818 203.303 23.4038 202.718C23.9896 202.132 23.9896 201.182 23.4038 200.596C22.818 200.01 21.8683 200.01 21.2825 200.596C20.6967 201.182 20.6967 202.132 21.2825 202.718ZM22.6967 202.01C22.5014 202.206 22.1848 202.206 21.9896 202.01C21.7943 201.815 21.7943 201.499 21.9896 201.303C22.1848 201.108 22.5014 201.108 22.6967 201.303C22.892 201.499 22.892 201.815 22.6967 202.01Z" fill="#5F5F6A"/>
</svg>
