<svg width="56" height="224" viewBox="0 0 56 224" fill="none" xmlns="http://www.w3.org/2000/svg">
<path d="M20.545 22.73C20 23.7996 20 25.1997 20 28C20 30.8003 20 32.2004 20.545 33.27C21.0243 34.2108 21.7892 34.9757 22.73 35.455C23.7996 36 25.1997 36 28 36C30.8003 36 32.2004 36 33.27 35.455C34.2108 34.9757 34.9757 34.2108 35.455 33.27C36 32.2004 36 30.8003 36 28C36 25.1997 36 23.7996 35.455 22.73C34.9757 21.7892 34.2108 21.0243 33.27 20.545C32.2004 20 30.8003 20 28 20C25.1997 20 23.7996 20 22.73 20.545C21.7892 21.0243 21.0243 21.7892 20.545 22.73ZM25 27H31C31.5523 27 32 27.4477 32 28C32 28.5523 31.5523 29 31 29H25C24.4477 29 24 28.5523 24 28C24 27.4477 24.4477 27 25 27Z" fill="#5F5F6A"/>
<path opacity="0.5" d="M20.7093 79.1567C20.25 80.153 20.25 81.4353 20.25 84C20.25 86.5647 20.25 87.847 20.7093 88.8433C21.2077 89.9245 22.0755 90.7923 23.1567 91.2907C24.153 91.75 25.4353 91.75 28 91.75C30.5647 91.75 31.847 91.75 32.8433 91.2907C33.9245 90.7923 34.7923 89.9245 35.2907 88.8433C35.75 87.847 35.75 86.5647 35.75 84C35.75 81.4353 35.75 80.153 35.2907 79.1567C34.7923 78.0755 33.9245 77.2077 32.8433 76.7093C31.847 76.25 30.5647 76.25 28 76.25C25.4353 76.25 24.153 76.25 23.1567 76.7093C22.0755 77.2077 21.2077 78.0755 20.7093 79.1567Z" fill="#5F5F6A"/>
<path d="M25 83C24.4477 83 24 83.4477 24 84C24 84.5523 24.4477 85 25 85H30.7812C31.3335 85 31.7812 84.5523 31.7812 84C31.7812 83.4477 31.3335 83 30.7812 83H25Z" fill="#5F5F6A"/>
<path d="M24 140C24 139.448 24.4477 139 25 139H30.7812C31.3335 139 31.7812 139.448 31.7812 140C31.7812 140.552 31.3335 141 30.7812 141H25C24.4477 141 24 140.552 24 140Z" fill="#5F5F6A"/>
<path d="M27.367 132.25H28.633C29.7251 132.25 30.5906 132.25 31.2883 132.307C32.0017 132.365 32.6053 132.487 33.1565 132.768C34.0502 133.223 34.7769 133.95 35.2323 134.844C35.5131 135.395 35.6347 135.998 35.693 136.712C35.75 137.409 35.75 138.275 35.75 139.367V140.633C35.75 141.725 35.75 142.591 35.693 143.288C35.6347 144.002 35.5131 144.605 35.2323 145.156C34.7769 146.05 34.0502 146.777 33.1565 147.232C32.6053 147.513 32.0017 147.635 31.2883 147.693C30.5906 147.75 29.7252 147.75 28.633 147.75H27.367C26.2748 147.75 25.4094 147.75 24.7117 147.693C23.9983 147.635 23.3947 147.513 22.8435 147.232C21.9498 146.777 21.2231 146.05 20.7677 145.156C20.4869 144.605 20.3653 144.002 20.307 143.288C20.25 142.591 20.25 141.725 20.25 140.633V139.367C20.25 138.275 20.25 137.409 20.307 136.712C20.3653 135.998 20.4869 135.395 20.7677 134.844C21.2231 133.95 21.9498 133.223 22.8435 132.768C23.3947 132.487 23.9983 132.365 24.7117 132.307C25.4094 132.25 26.2749 132.25 27.367 132.25ZM24.8339 133.802C24.2133 133.853 23.829 133.949 23.5245 134.104C22.913 134.416 22.4158 134.913 22.1042 135.525C21.9491 135.829 21.8527 136.213 21.802 136.834C21.7506 137.463 21.75 138.268 21.75 139.4V140.6C21.75 141.732 21.7506 142.537 21.802 143.166C21.8527 143.787 21.9491 144.171 22.1042 144.475C22.4158 145.087 22.913 145.584 23.5245 145.896C23.829 146.051 24.2133 146.147 24.8339 146.198C25.4633 146.249 26.2675 146.25 27.4 146.25H28.6C29.7325 146.25 30.5367 146.249 31.1661 146.198C31.7867 146.147 32.171 146.051 32.4755 145.896C33.087 145.584 33.5842 145.087 33.8958 144.475C34.0509 144.171 34.1473 143.787 34.198 143.166C34.2494 142.537 34.25 141.732 34.25 140.6V139.4C34.25 138.268 34.2494 137.463 34.198 136.834C34.1473 136.213 34.0509 135.829 33.8958 135.525C33.5842 134.913 33.087 134.416 32.4755 134.104C32.171 133.949 31.7867 133.853 31.1661 133.802C30.5367 133.751 29.7325 133.75 28.6 133.75H27.4C26.2675 133.75 25.4633 133.751 24.8339 133.802Z" fill="#5F5F6A"/>
<path d="M27.3774 188.5H28.6226C29.7236 188.5 30.5805 188.5 31.2679 188.556C31.9658 188.613 32.5329 188.731 33.043 188.99C33.8897 189.422 34.5781 190.11 35.0095 190.957C35.2694 191.467 35.3868 192.034 35.4438 192.732C35.5 193.419 35.5 194.276 35.5 195.377V196.623C35.5 197.724 35.5 198.581 35.4438 199.268C35.3868 199.966 35.2694 200.533 35.0095 201.043C34.5781 201.89 33.8897 202.578 33.043 203.01C32.5329 203.269 31.9658 203.387 31.2679 203.444C30.5805 203.5 29.7236 203.5 28.6226 203.5H27.3774C26.2764 203.5 25.4195 203.5 24.7321 203.444C24.0342 203.387 23.4671 203.269 22.957 203.01C22.1103 202.578 21.4219 201.89 20.9905 201.043C20.7306 200.533 20.6132 199.966 20.5562 199.268C20.5 198.581 20.5 197.724 20.5 196.623V195.377C20.5 194.276 20.5 193.419 20.5562 192.732C20.6132 192.034 20.7306 191.467 20.9905 190.957C21.4219 190.11 22.1103 189.422 22.957 188.99C23.4671 188.731 24.0342 188.613 24.7321 188.556C25.4195 188.5 26.2764 188.5 27.3774 188.5ZM24.8135 189.553C24.1774 189.605 23.7566 189.705 23.411 189.881C22.7525 190.217 22.217 190.752 21.8815 191.411C21.7054 191.757 21.6048 192.177 21.5528 192.814C21.5004 193.455 21.5 194.272 21.5 195.4V196.6C21.5 197.728 21.5004 198.545 21.5528 199.186C21.6048 199.823 21.7054 200.243 21.8815 200.589C22.217 201.248 22.7525 201.783 23.411 202.119C23.7566 202.295 24.1774 202.395 24.8135 202.447C25.4554 202.5 26.2716 202.5 27.4 202.5H28.6C29.7284 202.5 30.5446 202.5 31.1865 202.447C31.8226 202.395 32.2434 202.295 32.589 202.119C33.2475 201.783 33.783 201.248 34.1185 200.589C34.2946 200.243 34.3952 199.823 34.4472 199.186C34.4996 198.545 34.5 197.728 34.5 196.6V195.4C34.5 194.272 34.4996 193.455 34.4472 192.814C34.3952 192.177 34.2946 191.757 34.1185 191.411C33.783 190.752 33.2475 190.217 32.589 189.881C32.2434 189.705 31.8226 189.605 31.1865 189.553C30.5446 189.5 29.7284 189.5 28.6 189.5H27.4C26.2716 189.5 25.4554 189.5 24.8135 189.553Z" fill="#5F5F6A"/>
<path d="M24.5 196C24.5 195.724 24.7239 195.5 25 195.5H30.7812C31.0574 195.5 31.2812 195.724 31.2812 196C31.2812 196.276 31.0574 196.5 30.7812 196.5H25C24.7239 196.5 24.5 196.276 24.5 196Z" fill="#5F5F6A"/>
</svg>
