<svg width="56" height="224" viewBox="0 0 56 224" fill="none" xmlns="http://www.w3.org/2000/svg">
<path d="M20.545 22.73C21.0243 21.7892 21.7892 21.0243 22.73 20.545C23.7996 20 25.1997 20 28 20C30.8003 20 32.2004 20 33.27 20.545C34.2108 21.0243 34.9757 21.7892 35.455 22.73C36 23.7996 36 25.1997 36 28C36 30.8003 36 32.2004 35.455 33.27C34.9757 34.2108 34.2108 34.9757 33.27 35.455C32.2004 36 30.8003 36 28 36C25.1997 36 23.7996 36 22.73 35.455C21.7892 34.9757 21.0243 34.2108 20.545 33.27C20 32.2004 20 30.8003 20 28C20 25.1997 20 23.7996 20.545 22.73ZM31.5303 26.5303C31.8232 26.2374 31.8232 25.7626 31.5303 25.4697C31.2374 25.1768 30.7626 25.1768 30.4697 25.4697L27 28.9393L25.5303 27.4697C25.2374 27.1768 24.7626 27.1768 24.4697 27.4697C24.1768 27.7626 24.1768 28.2374 24.4697 28.5303L26.4697 30.5303C26.7626 30.8232 27.2374 30.8232 27.5303 30.5303L31.5303 26.5303Z" fill="#5F5F6A"/>
<path opacity="0.5" d="M20.7677 78.8435C20.25 79.8596 20.25 81.1898 20.25 83.85V84.15C20.25 86.8102 20.25 88.1404 20.7677 89.1565C21.2231 90.0502 21.9498 90.7769 22.8435 91.2323C23.8596 91.75 25.1898 91.75 27.85 91.75H28.15C30.8102 91.75 32.1404 91.75 33.1565 91.2323C34.0502 90.7769 34.7769 90.0502 35.2323 89.1565C35.75 88.1404 35.75 86.8102 35.75 84.15V83.85C35.75 81.1898 35.75 79.8596 35.2323 78.8435C34.7769 77.9498 34.0502 77.2231 33.1565 76.7677C32.1404 76.25 30.8102 76.25 28.15 76.25H27.85C25.1898 76.25 23.8596 76.25 22.8435 76.7677C21.9498 77.2231 21.2231 77.9498 20.7677 78.8435Z" fill="#5F5F6A"/>
<path d="M31.5303 82.5303C31.8232 82.2374 31.8232 81.7626 31.5303 81.4697C31.2374 81.1768 30.7626 81.1768 30.4697 81.4697L27 84.9393L25.5303 83.4697C25.2374 83.1768 24.7626 83.1768 24.4697 83.4697C24.1768 83.7626 24.1768 84.2374 24.4697 84.5303L26.4697 86.5303C26.7626 86.8232 27.2374 86.8232 27.5303 86.5303L31.5303 82.5303Z" fill="#5F5F6A"/>
<path d="M31.5303 138.53C31.8232 138.237 31.8232 137.763 31.5303 137.47C31.2374 137.177 30.7626 137.177 30.4697 137.47L27 140.939L25.5303 139.47C25.2374 139.177 24.7626 139.177 24.4697 139.47C24.1768 139.763 24.1768 140.237 24.4697 140.53L26.4697 142.53C26.7626 142.823 27.2374 142.823 27.5303 142.53L31.5303 138.53Z" fill="#5F5F6A"/>
<path d="M28.633 132.25H27.367C26.2749 132.25 25.4094 132.25 24.7117 132.307C23.9983 132.365 23.3947 132.487 22.8435 132.768C21.9498 133.223 21.2231 133.95 20.7677 134.844C20.4869 135.395 20.3653 135.998 20.307 136.712C20.25 137.409 20.25 138.275 20.25 139.367V140.633C20.25 141.725 20.25 142.591 20.307 143.288C20.3653 144.002 20.4869 144.605 20.7677 145.156C21.2231 146.05 21.9498 146.777 22.8435 147.232C23.3947 147.513 23.9983 147.635 24.7117 147.693C25.4093 147.75 26.2748 147.75 27.367 147.75H28.633C29.7251 147.75 30.5907 147.75 31.2883 147.693C32.0017 147.635 32.6053 147.513 33.1565 147.232C34.0502 146.777 34.7769 146.05 35.2323 145.156C35.5131 144.605 35.6347 144.002 35.693 143.288C35.75 142.591 35.75 141.725 35.75 140.633V139.367C35.75 138.275 35.75 137.409 35.693 136.712C35.6347 135.998 35.5131 135.395 35.2323 134.844C34.7769 133.95 34.0502 133.223 33.1565 132.768C32.6053 132.487 32.0017 132.365 31.2883 132.307C30.5906 132.25 29.7251 132.25 28.633 132.25ZM23.5245 134.104C23.829 133.949 24.2133 133.853 24.8339 133.802C25.4633 133.751 26.2675 133.75 27.4 133.75H28.6C29.7325 133.75 30.5367 133.751 31.1661 133.802C31.7867 133.853 32.171 133.949 32.4755 134.104C33.087 134.416 33.5842 134.913 33.8958 135.525C34.0509 135.829 34.1473 136.213 34.198 136.834C34.2494 137.463 34.25 138.268 34.25 139.4V140.6C34.25 141.732 34.2494 142.537 34.198 143.166C34.1473 143.787 34.0509 144.171 33.8958 144.475C33.5842 145.087 33.087 145.584 32.4755 145.896C32.171 146.051 31.7867 146.147 31.1661 146.198C30.5367 146.249 29.7325 146.25 28.6 146.25H27.4C26.2675 146.25 25.4633 146.249 24.8339 146.198C24.2133 146.147 23.829 146.051 23.5245 145.896C22.913 145.584 22.4158 145.087 22.1042 144.475C21.9491 144.171 21.8527 143.787 21.802 143.166C21.7506 142.537 21.75 141.732 21.75 140.6V139.4C21.75 138.268 21.7506 137.463 21.802 136.834C21.8527 136.213 21.9491 135.829 22.1042 135.525C22.4158 134.913 22.913 134.416 23.5245 134.104Z" fill="#5F5F6A"/>
<path d="M31.3536 194.354C31.5488 194.158 31.5488 193.842 31.3536 193.646C31.1583 193.451 30.8417 193.451 30.6464 193.646L27 197.293L25.3536 195.646C25.1583 195.451 24.8417 195.451 24.6464 195.646C24.4512 195.842 24.4512 196.158 24.6464 196.354L26.6464 198.354C26.8417 198.549 27.1583 198.549 27.3536 198.354L31.3536 194.354Z" fill="#5F5F6A"/>
<path d="M28.6226 188.5H27.3774C26.2764 188.5 25.4195 188.5 24.7321 188.556C24.0342 188.613 23.4671 188.731 22.957 188.99C22.1103 189.422 21.4219 190.11 20.9905 190.957C20.7306 191.467 20.6132 192.034 20.5562 192.732C20.5 193.419 20.5 194.276 20.5 195.377V196.623C20.5 197.724 20.5 198.581 20.5562 199.268C20.6132 199.966 20.7306 200.533 20.9905 201.043C21.4219 201.89 22.1103 202.578 22.957 203.01C23.4671 203.269 24.0342 203.387 24.7321 203.444C25.4195 203.5 26.2764 203.5 27.3774 203.5H28.6226C29.7236 203.5 30.5805 203.5 31.2679 203.444C31.9658 203.387 32.5329 203.269 33.043 203.01C33.8897 202.578 34.5781 201.89 35.0095 201.043C35.2694 200.533 35.3868 199.966 35.4438 199.268C35.5 198.581 35.5 197.724 35.5 196.623V195.377C35.5 194.276 35.5 193.419 35.4438 192.732C35.3868 192.034 35.2694 191.467 35.0095 190.957C34.5781 190.11 33.8897 189.422 33.043 188.99C32.5329 188.731 31.9658 188.613 31.2679 188.556C30.5805 188.5 29.7236 188.5 28.6226 188.5ZM23.411 189.881C23.7566 189.705 24.1774 189.605 24.8135 189.553C25.4554 189.5 26.2716 189.5 27.4 189.5H28.6C29.7284 189.5 30.5446 189.5 31.1865 189.553C31.8226 189.605 32.2434 189.705 32.589 189.881C33.2475 190.217 33.783 190.752 34.1185 191.411C34.2946 191.757 34.3952 192.177 34.4472 192.814C34.4996 193.455 34.5 194.272 34.5 195.4V196.6C34.5 197.728 34.4996 198.545 34.4472 199.186C34.3952 199.823 34.2946 200.243 34.1185 200.589C33.783 201.248 33.2475 201.783 32.589 202.119C32.2434 202.295 31.8226 202.395 31.1865 202.447C30.5446 202.5 29.7284 202.5 28.6 202.5H27.4C26.2716 202.5 25.4554 202.5 24.8135 202.447C24.1774 202.395 23.7566 202.295 23.411 202.119C22.7525 201.783 22.217 201.248 21.8815 200.589C21.7054 200.243 21.6048 199.823 21.5528 199.186C21.5004 198.545 21.5 197.728 21.5 196.6V195.4C21.5 194.272 21.5004 193.455 21.5528 192.814C21.6048 192.177 21.7054 191.757 21.8815 191.411C22.217 190.752 22.7525 190.217 23.411 189.881Z" fill="#5F5F6A"/>
</svg>
