<svg width="56" height="224" viewBox="0 0 56 224" fill="none" xmlns="http://www.w3.org/2000/svg">
<path d="M20.4843 21.0921C21.7389 16.7009 26.1301 17.3282 26.7574 21.0921C27.1004 23.1498 26.7574 25.4833 25.5028 27.3652C25.18 27.8495 24.9793 28.9414 24.8817 30.0627H20.7916C19.2367 26.0787 19.8093 23.4547 20.4843 21.0921Z" fill="#5F5F6A"/>
<path d="M20.8202 31.0663H24.8755V32.2383C24.8755 33.3581 23.9677 34.2656 22.8479 34.2656C21.728 34.2656 20.8202 33.3583 20.8202 32.2384V31.0663Z" fill="#5F5F6A"/>
<path d="M35.4188 24.856C34.1642 20.4648 29.773 21.0921 29.1457 24.856C28.8028 26.9137 29.1457 29.2471 30.4004 31.129C30.7232 31.6133 30.9239 32.7053 31.0215 33.8265H35.1115C36.6665 29.8425 36.0938 27.2185 35.4188 24.856Z" fill="#5F5F6A"/>
<path d="M35.0829 34.8302H31.0277V36.0021C31.0277 37.122 31.9355 38.0294 33.0553 38.0294C34.1751 38.0294 35.0829 37.1221 35.0829 36.0023V34.8302Z" fill="#5F5F6A"/>
<path d="M20.4843 77.0921C21.7389 72.7009 26.1301 73.3282 26.7574 77.0921C27.1004 79.1498 26.7574 81.4833 25.5028 83.3652C25.18 83.8495 24.9793 84.9414 24.8817 86.0627H20.7916C19.2367 82.0787 19.8093 79.4547 20.4843 77.0921Z" fill="#5F5F6A"/>
<path d="M35.4188 80.856C34.1642 76.4648 29.7731 77.0921 29.1457 80.856C28.8028 82.9137 29.1457 85.2471 30.4004 87.1291C30.7232 87.6133 30.9239 88.7053 31.0215 89.8265H35.1115C36.6665 85.8425 36.0939 83.2185 35.4188 80.856Z" fill="#5F5F6A"/>
<g opacity="0.5">
<path d="M20.8203 87.0663H24.8756L24.8756 88.2383C24.8756 89.3581 23.9678 90.2656 22.848 90.2656C21.7281 90.2656 20.8203 89.3583 20.8203 88.2384V87.0663Z" fill="#5F5F6A"/>
<path d="M35.083 90.8302H31.0278L31.0278 92.0021C31.0278 93.122 31.9356 94.0295 33.0554 94.0295C34.1752 94.0295 35.083 93.1221 35.083 92.0023V90.8302Z" fill="#5F5F6A"/>
</g>
<g opacity="0.5">
<path fill-rule="evenodd" clip-rule="evenodd" d="M20.7916 142.063H24.8817C24.9793 140.941 25.18 139.849 25.5028 139.365C26.7574 137.483 27.1004 135.15 26.7574 133.092C26.1301 129.328 21.7389 128.701 20.4843 133.092C19.8093 135.455 19.2367 138.079 20.7916 142.063ZM22.2939 133.609C22.7526 132.003 23.5347 131.9 23.7456 131.913C24.0371 131.93 24.7029 132.212 24.9011 133.401C25.1783 135.064 24.8861 136.898 23.9369 138.321C23.5692 138.873 23.3805 139.56 23.2686 140.076C23.2611 140.111 23.2537 140.146 23.2465 140.181H22.1333C21.3171 137.409 21.7508 135.51 22.2939 133.609Z" fill="#5F5F6A"/>
<path d="M20.8202 144.238C20.8202 144.488 20.8654 144.727 20.948 144.948C21.2357 145.718 21.9778 146.266 22.8479 146.266C23.7179 146.266 24.4599 145.718 24.7477 144.948C24.8303 144.727 24.8755 144.488 24.8755 144.238L24.8755 143.066H20.8202V144.238Z" fill="#5F5F6A"/>
<path fill-rule="evenodd" clip-rule="evenodd" d="M35.1115 145.827C36.6665 141.843 36.0939 139.219 35.4188 136.856C34.1642 132.465 29.7731 133.092 29.1457 136.856C28.8028 138.914 29.1457 141.247 30.4004 143.129C30.7232 143.613 30.9239 144.705 31.0215 145.827H35.1115ZM32.1576 135.676C31.8661 135.694 31.2003 135.976 31.0021 137.165C30.7249 138.828 31.0171 140.661 31.9662 142.085C32.334 142.637 32.5227 143.324 32.6346 143.84C32.6421 143.875 32.6494 143.91 32.6566 143.945H33.7699C34.5861 141.173 34.1524 139.274 33.6093 137.373C33.1505 135.767 32.3684 135.664 32.1576 135.676Z" fill="#5F5F6A"/>
<path d="M31.0277 148.002C31.0277 148.252 31.0728 148.491 31.1555 148.712C31.4432 149.482 32.1853 150.029 33.0553 150.029C33.9254 150.029 34.6675 149.482 34.9552 148.712C35.0378 148.491 35.083 148.252 35.083 148.002V146.83H31.0277V148.002Z" fill="#5F5F6A"/>
</g>
<g opacity="0.5">
<path fill-rule="evenodd" clip-rule="evenodd" d="M24.8755 199.066L24.8755 200.238C24.8755 200.266 24.8749 200.294 24.8738 200.321C24.8305 201.402 23.94 202.266 22.8479 202.266C21.7557 202.266 20.8652 201.403 20.8219 200.321C20.8208 200.294 20.8202 200.266 20.8202 200.238V199.066H24.8755ZM22.8479 201.011C23.2471 201.011 23.5752 200.709 23.6165 200.321H22.0792C22.1204 200.709 22.4485 201.011 22.8479 201.011Z" fill="#5F5F6A"/>
<path fill-rule="evenodd" clip-rule="evenodd" d="M25.5028 195.365C25.2041 195.813 25.01 196.781 24.9053 197.812C24.8969 197.895 24.889 197.979 24.8817 198.063H20.7916C20.7588 197.978 20.7268 197.895 20.6958 197.812C19.2609 193.968 19.8236 191.405 20.4843 189.092C21.7389 184.701 26.1301 185.328 26.7574 189.092C27.1004 191.15 26.7574 193.483 25.5028 195.365ZM23.8817 196.209C23.8399 196.401 23.8029 196.602 23.7701 196.808H21.6723C20.6227 193.632 21.1018 191.498 21.6907 189.437C22.2056 187.634 23.1975 187.252 23.7824 187.286C24.4211 187.324 25.2832 187.878 25.5199 189.298C25.819 191.093 25.5099 193.093 24.4589 194.669C24.1599 195.118 23.9905 195.707 23.8817 196.209Z" fill="#5F5F6A"/>
<path fill-rule="evenodd" clip-rule="evenodd" d="M31.0277 202.83V204.002C31.0277 204.03 31.0282 204.057 31.0293 204.085C31.0727 205.166 31.9632 206.029 33.0553 206.029C34.1475 206.029 35.038 205.166 35.0813 204.085C35.0824 204.057 35.0829 204.03 35.0829 204.002V202.83H31.0277ZM33.0553 204.775C32.6561 204.775 32.3279 204.473 32.2867 204.085H33.824C33.7828 204.473 33.4547 204.775 33.0553 204.775Z" fill="#5F5F6A"/>
<path fill-rule="evenodd" clip-rule="evenodd" d="M30.4004 199.129C30.699 199.577 30.8932 200.545 30.9978 201.576C31.0063 201.659 31.0142 201.743 31.0215 201.827H35.1115C35.1444 201.742 35.1763 201.659 35.2073 201.576C36.6422 197.732 36.0796 195.169 35.4188 192.856C34.1642 188.465 29.773 189.092 29.1457 192.856C28.8028 194.914 29.1457 197.247 30.4004 199.129ZM32.0215 199.973C32.0632 200.165 32.1003 200.366 32.1331 200.572H34.2309C35.2804 197.396 34.8014 195.262 34.2125 193.201C33.6975 191.398 32.7056 191.016 32.1207 191.05C31.4821 191.088 30.62 191.642 30.3833 193.062C30.0842 194.857 30.3933 196.857 31.4443 198.433C31.7432 198.882 31.9127 199.471 32.0215 199.973Z" fill="#5F5F6A"/>
</g>
</svg>
