<svg width="56" height="224" viewBox="0 0 56 224" fill="none" xmlns="http://www.w3.org/2000/svg">
<path fill-rule="evenodd" clip-rule="evenodd" d="M26.5 17.75C26.0858 17.75 25.75 18.0858 25.75 18.5C25.75 18.9142 26.0858 19.25 26.5 19.25H27.25V20.7817C22.7686 21.1621 19.25 24.9202 19.25 29.5C19.25 34.3325 23.1675 38.25 28 38.25C32.8325 38.25 36.75 34.3325 36.75 29.5C36.75 27.3538 35.9773 25.3881 34.6949 23.8658L35.5304 23.0306C35.8233 22.7377 35.8234 22.2628 35.5305 21.9699C35.2377 21.677 34.7628 21.6769 34.4699 21.9698L33.6343 22.8052C32.2912 21.6737 30.6029 20.939 28.75 20.7817V19.25H29.5C29.9142 19.25 30.25 18.9142 30.25 18.5C30.25 18.0858 29.9142 17.75 29.5 17.75H26.5ZM25.125 24.5204C25.9991 24.0157 26.9907 23.75 28 23.75V29.5L32.9796 32.375C32.475 33.2491 31.7491 33.975 30.875 34.4796C30.0009 34.9843 29.0093 35.25 28 35.25C26.9907 35.25 25.9991 34.9843 25.125 34.4796C24.2509 33.975 23.525 33.2491 23.0204 32.375C22.5157 31.5009 22.25 30.5093 22.25 29.5C22.25 28.4907 22.5157 27.4991 23.0204 26.625C23.525 25.7509 24.2509 25.025 25.125 24.5204Z" fill="#5F5F6A"/>
<path fill-rule="evenodd" clip-rule="evenodd" d="M25.75 74.5C25.75 74.0858 26.0858 73.75 26.5 73.75H29.5C29.9142 73.75 30.25 74.0858 30.25 74.5C30.25 74.9142 29.9142 75.25 29.5 75.25H28.75V76.7817C30.6029 76.939 32.2912 77.6737 33.6343 78.8052L34.4699 77.9698C34.7628 77.6769 35.2377 77.677 35.5305 77.9699C35.8234 78.2628 35.8233 78.7377 35.5304 79.0306L34.6949 79.8658C35.9773 81.3881 36.75 83.3538 36.75 85.5C36.75 90.3325 32.8325 94.25 28 94.25C23.1675 94.25 19.25 90.3325 19.25 85.5C19.25 80.9202 22.7686 77.1621 27.25 76.7817V75.25H26.5C26.0858 75.25 25.75 74.9142 25.75 74.5ZM28 78.25C23.9959 78.25 20.75 81.4959 20.75 85.5C20.75 89.5041 23.9959 92.75 28 92.75C32.0041 92.75 35.25 89.5041 35.25 85.5C35.25 81.4959 32.0041 78.25 28 78.25Z" fill="#5F5F6A"/>
<path opacity="0.5" d="M28 79.75C26.9907 79.75 25.9991 80.0157 25.125 80.5204C24.2509 81.025 23.525 81.7509 23.0204 82.625C22.5157 83.4991 22.25 84.4907 22.25 85.5C22.25 86.5093 22.5157 87.5009 23.0204 88.375C23.525 89.2491 24.2509 89.975 25.125 90.4796C25.9991 90.9843 26.9907 91.25 28 91.25C29.0093 91.25 30.0009 90.9843 30.875 90.4796C31.7491 89.975 32.475 89.2491 32.9796 88.375L28 85.5V79.75Z" fill="#5F5F6A"/>
<path d="M25.5 137.17C25.8587 136.963 25.9816 136.504 25.7745 136.145C25.5674 135.787 25.1087 135.664 24.75 135.871C23.7619 136.441 22.9413 137.262 22.3708 138.25C21.8003 139.238 21.5 140.359 21.5 141.5C21.5 142.641 21.8003 143.762 22.3708 144.75C22.9413 145.738 23.7619 146.559 24.75 147.129C25.7381 147.7 26.859 148 28 148C29.141 148 30.2619 147.7 31.25 147.129C31.6087 146.922 31.7316 146.463 31.5245 146.105C31.3174 145.746 30.8587 145.623 30.5 145.83C29.7399 146.269 28.8777 146.5 28 146.5C27.1223 146.5 26.2601 146.269 25.5 145.83C24.7399 145.391 24.1087 144.76 23.6699 144C23.231 143.24 23 142.378 23 141.5C23 140.622 23.231 139.76 23.6699 139C24.1087 138.24 24.7399 137.609 25.5 137.17Z" fill="#5F5F6A"/>
<path d="M28.75 136.52C28.75 136.106 28.4142 135.77 28 135.77C27.5858 135.77 27.25 136.106 27.25 136.52V141.5C27.25 141.768 27.3929 142.016 27.625 142.15L31.5523 144.417C31.911 144.624 32.3697 144.501 32.5768 144.142C32.7839 143.784 32.661 143.325 32.3023 143.118L28.75 141.067V136.52Z" fill="#5F5F6A"/>
<path fill-rule="evenodd" clip-rule="evenodd" d="M26.5 129.75C26.0858 129.75 25.75 130.086 25.75 130.5C25.75 130.914 26.0858 131.25 26.5 131.25H27.25V132.782C22.7686 133.162 19.25 136.92 19.25 141.5C19.25 146.332 23.1675 150.25 28 150.25C32.8325 150.25 36.75 146.332 36.75 141.5C36.75 139.354 35.9773 137.388 34.6949 135.866L35.5304 135.031C35.8233 134.738 35.8234 134.263 35.5305 133.97C35.2377 133.677 34.7628 133.677 34.4699 133.97L33.6343 134.805C32.2912 133.674 30.6029 132.939 28.75 132.782V131.25H29.5C29.9142 131.25 30.25 130.914 30.25 130.5C30.25 130.086 29.9142 129.75 29.5 129.75H26.5ZM20.75 141.5C20.75 137.496 23.9959 134.25 28 134.25C32.0041 134.25 35.25 137.496 35.25 141.5C35.25 145.504 32.0041 148.75 28 148.75C23.9959 148.75 20.75 145.504 20.75 141.5Z" fill="#5F5F6A"/>
<path d="M25.375 192.953C25.6141 192.815 25.6961 192.51 25.558 192.27C25.4199 192.031 25.1141 191.949 24.875 192.087C23.9249 192.636 23.1359 193.425 22.5873 194.375C22.0388 195.325 21.75 196.403 21.75 197.5C21.75 198.597 22.0388 199.675 22.5873 200.625C23.1359 201.575 23.9249 202.364 24.875 202.913C25.8251 203.461 26.9029 203.75 28 203.75C29.0971 203.75 30.1749 203.461 31.125 202.913C31.3641 202.775 31.4461 202.469 31.308 202.23C31.1699 201.99 30.8641 201.909 30.625 202.047C29.8269 202.507 28.9216 202.75 28 202.75C27.0784 202.75 26.1731 202.507 25.375 202.047C24.5769 201.586 23.9142 200.923 23.4534 200.125C22.9926 199.327 22.75 198.422 22.75 197.5C22.75 196.578 22.9926 195.673 23.4534 194.875C23.9142 194.077 24.5769 193.414 25.375 192.953Z" fill="#5F5F6A"/>
<path d="M28.5 192.52C28.5 192.244 28.2761 192.02 28 192.02C27.7239 192.02 27.5 192.244 27.5 192.52V197.5C27.5 197.679 27.5953 197.844 27.75 197.933L31.6773 200.2C31.9165 200.339 32.2223 200.257 32.3603 200.017C32.4984 199.778 32.4165 199.472 32.1773 199.334L28.5 197.211V192.52Z" fill="#5F5F6A"/>
<path fill-rule="evenodd" clip-rule="evenodd" d="M26.5 186C26.2239 186 26 186.224 26 186.5C26 186.776 26.2239 187 26.5 187H27.5V189L27.5002 189.014C23.0384 189.273 19.5 192.973 19.5 197.5C19.5 202.194 23.3056 206 28 206C32.6944 206 36.5 202.194 36.5 197.5C36.5 195.333 35.6888 193.355 34.3535 191.853L34.364 191.843L35.3536 190.854C35.5489 190.659 35.549 190.342 35.3537 190.147C35.1585 189.951 34.8419 189.951 34.6466 190.147L33.6569 191.136L33.6467 191.147C32.2615 189.915 30.4707 189.129 28.4998 189.014L28.5 189V187H29.5C29.7761 187 30 186.776 30 186.5C30 186.224 29.7761 186 29.5 186H26.5ZM20.5 197.5C20.5 193.358 23.8579 190 28 190C32.1421 190 35.5 193.358 35.5 197.5C35.5 201.642 32.1421 205 28 205C23.8579 205 20.5 201.642 20.5 197.5Z" fill="#5F5F6A"/>
</svg>
