<svg width="56" height="224" viewBox="0 0 56 224" fill="none" xmlns="http://www.w3.org/2000/svg">
<path fill-rule="evenodd" clip-rule="evenodd" d="M20.7589 20.5C19.5339 20.5 18.5 21.5496 18.5 22.8959V23.0769C18.5 24.5648 19.4766 25.6538 20.7589 25.6538H22.8092C23.0853 25.6538 23.3092 25.8777 23.3092 26.1538C23.3092 26.43 23.0853 26.6538 22.8092 26.6538H20.7589C18.8033 26.6538 17.5 24.9877 17.5 23.0769V22.8959C17.5 21.0435 18.9365 19.5 20.7589 19.5H21.8052C23.4077 19.5 24.5 20.7513 24.5 22.0513V23.7019C24.5 24.4594 23.9091 25.1154 23.1298 25.1154C22.715 25.1154 22.3537 24.9296 22.1063 24.6416C21.7974 24.9332 21.3943 25.1154 20.9313 25.1154C19.8552 25.1154 19.1031 24.1313 19.1031 23.0769C19.1031 22.0226 19.8552 21.0385 20.9313 21.0385C21.2639 21.0385 21.5655 21.1325 21.8236 21.2935C21.9093 21.1413 22.0724 21.0385 22.2595 21.0385C22.5357 21.0385 22.7595 21.2623 22.7595 21.5385V23.7019C22.7595 23.9534 22.9479 24.1154 23.1298 24.1154C23.3117 24.1154 23.5 23.9534 23.5 23.7019V22.0513C23.5 21.3 22.8518 20.5 21.8052 20.5H20.7589ZM21.7595 23.0769C21.7595 22.4319 21.3223 22.0385 20.9313 22.0385C20.5403 22.0385 20.1031 22.4319 20.1031 23.0769C20.1031 23.7219 20.5403 24.1154 20.9313 24.1154C21.3223 24.1154 21.7595 23.7219 21.7595 23.0769ZM20.7589 30.3462C19.5339 30.3462 18.5 31.3957 18.5 32.7421V32.9231C18.5 34.4109 19.4766 35.5 20.7589 35.5H22.8092C23.0853 35.5 23.3092 35.7239 23.3092 36C23.3092 36.2761 23.0853 36.5 22.8092 36.5H20.7589C18.8033 36.5 17.5 34.8339 17.5 32.9231V32.7421C17.5 30.8897 18.9365 29.3462 20.7589 29.3462H21.8052C23.4077 29.3462 24.5 30.5975 24.5 31.8974V33.5481C24.5 34.3056 23.9091 34.9615 23.1298 34.9615C22.715 34.9615 22.3537 34.7758 22.1063 34.4878C21.7974 34.7794 21.3943 34.9615 20.9313 34.9615C19.8552 34.9615 19.1031 33.9774 19.1031 32.9231C19.1031 31.8687 19.8552 30.8846 20.9313 30.8846C21.2639 30.8846 21.5655 30.9786 21.8236 31.1396C21.9093 30.9874 22.0724 30.8846 22.2595 30.8846C22.5357 30.8846 22.7595 31.1085 22.7595 31.3846V33.5481C22.7595 33.7995 22.9479 33.9615 23.1298 33.9615C23.3117 33.9615 23.5 33.7995 23.5 33.5481V31.8974C23.5 31.1461 22.8518 30.3462 21.8052 30.3462H20.7589ZM21.7595 32.9231C21.7595 32.2781 21.3223 31.8846 20.9313 31.8846C20.5403 31.8846 20.1031 32.2781 20.1031 32.9231C20.1031 33.5681 20.5403 33.9615 20.9313 33.9615C21.3223 33.9615 21.7595 33.5681 21.7595 32.9231Z" fill="#5F5F6A"/>
<path fill-rule="evenodd" clip-rule="evenodd" d="M26 21.5C26 20.9477 26.4477 20.5 27 20.5H38C38.5523 20.5 39 20.9477 39 21.5C39 22.0523 38.5523 22.5 38 22.5H27C26.4477 22.5 26 22.0523 26 21.5ZM26 24.5C26 23.9477 26.4477 23.5 27 23.5H33C33.5523 23.5 34 23.9477 34 24.5C34 25.0523 33.5523 25.5 33 25.5H27C26.4477 25.5 26 25.0523 26 24.5ZM26 31.5C26 30.9477 26.4477 30.5 27 30.5H38C38.5523 30.5 39 30.9477 39 31.5C39 32.0523 38.5523 32.5 38 32.5H27C26.4477 32.5 26 32.0523 26 31.5ZM26 34.5C26 33.9477 26.4477 33.5 27 33.5H33C33.5523 33.5 34 33.9477 34 34.5C34 35.0523 33.5523 35.5 33 35.5H27C26.4477 35.5 26 35.0523 26 34.5Z" fill="#5F5F6A"/>
<path fill-rule="evenodd" clip-rule="evenodd" d="M20.7589 76.5C19.5339 76.5 18.5 77.5496 18.5 78.8959V79.0769C18.5 80.5648 19.4766 81.6538 20.7589 81.6538H22.8092C23.0853 81.6538 23.3092 81.8777 23.3092 82.1538C23.3092 82.43 23.0853 82.6538 22.8092 82.6538H20.7589C18.8033 82.6538 17.5 80.9877 17.5 79.0769V78.8959C17.5 77.0435 18.9365 75.5 20.7589 75.5H21.8052C23.4077 75.5 24.5 76.7513 24.5 78.0513V79.7019C24.5 80.4594 23.9091 81.1154 23.1298 81.1154C22.715 81.1154 22.3537 80.9296 22.1063 80.6416C21.7974 80.9332 21.3943 81.1154 20.9313 81.1154C19.8552 81.1154 19.1031 80.1313 19.1031 79.0769C19.1031 78.0226 19.8552 77.0385 20.9313 77.0385C21.2639 77.0385 21.5655 77.1325 21.8236 77.2935C21.9093 77.1413 22.0724 77.0385 22.2595 77.0385C22.5357 77.0385 22.7595 77.2623 22.7595 77.5385V79.7019C22.7595 79.9534 22.9479 80.1154 23.1298 80.1154C23.3117 80.1154 23.5 79.9534 23.5 79.7019V78.0513C23.5 77.3 22.8518 76.5 21.8052 76.5H20.7589ZM21.7595 79.0769C21.7595 78.4319 21.3223 78.0385 20.9313 78.0385C20.5403 78.0385 20.1031 78.4319 20.1031 79.0769C20.1031 79.7219 20.5403 80.1154 20.9313 80.1154C21.3223 80.1154 21.7595 79.7219 21.7595 79.0769ZM20.7589 86.3462C19.5339 86.3462 18.5 87.3957 18.5 88.7421V88.9231C18.5 90.4109 19.4766 91.5 20.7589 91.5H22.8092C23.0853 91.5 23.3092 91.7239 23.3092 92C23.3092 92.2761 23.0853 92.5 22.8092 92.5H20.7589C18.8033 92.5 17.5 90.8339 17.5 88.9231V88.7421C17.5 86.8897 18.9365 85.3462 20.7589 85.3462H21.8052C23.4077 85.3462 24.5 86.5975 24.5 87.8974V89.5481C24.5 90.3056 23.9091 90.9615 23.1298 90.9615C22.715 90.9615 22.3537 90.7758 22.1063 90.4878C21.7974 90.7794 21.3943 90.9615 20.9313 90.9615C19.8552 90.9615 19.1031 89.9774 19.1031 88.9231C19.1031 87.8687 19.8552 86.8846 20.9313 86.8846C21.2639 86.8846 21.5655 86.9786 21.8236 87.1396C21.9093 86.9874 22.0724 86.8846 22.2595 86.8846C22.5357 86.8846 22.7595 87.1085 22.7595 87.3846V89.5481C22.7595 89.7995 22.9479 89.9615 23.1298 89.9615C23.3117 89.9615 23.5 89.7995 23.5 89.5481V87.8974C23.5 87.1461 22.8518 86.3462 21.8052 86.3462H20.7589ZM21.7595 88.9231C21.7595 88.2781 21.3223 87.8846 20.9313 87.8846C20.5403 87.8846 20.1031 88.2781 20.1031 88.9231C20.1031 89.5681 20.5403 89.9615 20.9313 89.9615C21.3223 89.9615 21.7595 89.5681 21.7595 88.9231Z" fill="#5F5F6A"/>
<path fill-rule="evenodd" clip-rule="evenodd" d="M26.25 77.5C26.25 77.0858 26.5858 76.75 27 76.75H38C38.4142 76.75 38.75 77.0858 38.75 77.5C38.75 77.9142 38.4142 78.25 38 78.25H27C26.5858 78.25 26.25 77.9142 26.25 77.5ZM26.25 87.5C26.25 87.0858 26.5858 86.75 27 86.75H38C38.4142 86.75 38.75 87.0858 38.75 87.5C38.75 87.9142 38.4142 88.25 38 88.25H27C26.5858 88.25 26.25 87.9142 26.25 87.5Z" fill="#5F5F6A"/>
<path opacity="0.5" fill-rule="evenodd" clip-rule="evenodd" d="M26.25 80.5C26.25 80.0858 26.5858 79.75 27 79.75H33C33.4142 79.75 33.75 80.0858 33.75 80.5C33.75 80.9142 33.4142 81.25 33 81.25H27C26.5858 81.25 26.25 80.9142 26.25 80.5ZM26.25 90.5C26.25 90.0858 26.5858 89.75 27 89.75H33C33.4142 89.75 33.75 90.0858 33.75 90.5C33.75 90.9142 33.4142 91.25 33 91.25H27C26.5858 91.25 26.25 90.9142 26.25 90.5Z" fill="#5F5F6A"/>
<path fill-rule="evenodd" clip-rule="evenodd" d="M20.7589 132.5C19.5339 132.5 18.5 133.55 18.5 134.896V135.077C18.5 136.565 19.4766 137.654 20.7589 137.654H22.8092C23.0853 137.654 23.3092 137.878 23.3092 138.154C23.3092 138.43 23.0853 138.654 22.8092 138.654H20.7589C18.8033 138.654 17.5 136.988 17.5 135.077V134.896C17.5 133.044 18.9365 131.5 20.7589 131.5H21.8052C23.4077 131.5 24.5 132.751 24.5 134.051V135.702C24.5 136.459 23.9091 137.115 23.1298 137.115C22.715 137.115 22.3537 136.93 22.1063 136.642C21.7974 136.933 21.3943 137.115 20.9313 137.115C19.8552 137.115 19.1031 136.131 19.1031 135.077C19.1031 134.023 19.8552 133.038 20.9313 133.038C21.2639 133.038 21.5655 133.132 21.8236 133.293C21.9093 133.141 22.0724 133.038 22.2595 133.038C22.5357 133.038 22.7595 133.262 22.7595 133.538V135.702C22.7595 135.953 22.9479 136.115 23.1298 136.115C23.3117 136.115 23.5 135.953 23.5 135.702V134.051C23.5 133.3 22.8518 132.5 21.8052 132.5H20.7589ZM21.7595 135.077C21.7595 134.432 21.3223 134.038 20.9313 134.038C20.5403 134.038 20.1031 134.432 20.1031 135.077C20.1031 135.722 20.5403 136.115 20.9313 136.115C21.3223 136.115 21.7595 135.722 21.7595 135.077ZM20.7589 142.346C19.5339 142.346 18.5 143.396 18.5 144.742V144.923C18.5 146.411 19.4766 147.5 20.7589 147.5H22.8092C23.0853 147.5 23.3092 147.724 23.3092 148C23.3092 148.276 23.0853 148.5 22.8092 148.5H20.7589C18.8033 148.5 17.5 146.834 17.5 144.923V144.742C17.5 142.89 18.9365 141.346 20.7589 141.346H21.8052C23.4077 141.346 24.5 142.597 24.5 143.897V145.548C24.5 146.306 23.9091 146.962 23.1298 146.962C22.715 146.962 22.3537 146.776 22.1063 146.488C21.7974 146.779 21.3943 146.962 20.9313 146.962C19.8552 146.962 19.1031 145.977 19.1031 144.923C19.1031 143.869 19.8552 142.885 20.9313 142.885C21.2639 142.885 21.5655 142.979 21.8236 143.14C21.9093 142.987 22.0724 142.885 22.2595 142.885C22.5357 142.885 22.7595 143.108 22.7595 143.385V145.548C22.7595 145.8 22.9479 145.962 23.1298 145.962C23.3117 145.962 23.5 145.8 23.5 145.548V143.897C23.5 143.146 22.8518 142.346 21.8052 142.346H20.7589ZM21.7595 144.923C21.7595 144.278 21.3223 143.885 20.9313 143.885C20.5403 143.885 20.1031 144.278 20.1031 144.923C20.1031 145.568 20.5403 145.962 20.9313 145.962C21.3223 145.962 21.7595 145.568 21.7595 144.923Z" fill="#5F5F6A"/>
<path fill-rule="evenodd" clip-rule="evenodd" d="M26.25 133.5C26.25 133.086 26.5858 132.75 27 132.75H38C38.4142 132.75 38.75 133.086 38.75 133.5C38.75 133.914 38.4142 134.25 38 134.25H27C26.5858 134.25 26.25 133.914 26.25 133.5ZM26.25 136.5C26.25 136.086 26.5858 135.75 27 135.75H33C33.4142 135.75 33.75 136.086 33.75 136.5C33.75 136.914 33.4142 137.25 33 137.25H27C26.5858 137.25 26.25 136.914 26.25 136.5ZM26.25 143.5C26.25 143.086 26.5858 142.75 27 142.75H38C38.4142 142.75 38.75 143.086 38.75 143.5C38.75 143.914 38.4142 144.25 38 144.25H27C26.5858 144.25 26.25 143.914 26.25 143.5ZM26.25 146.5C26.25 146.086 26.5858 145.75 27 145.75H33C33.4142 145.75 33.75 146.086 33.75 146.5C33.75 146.914 33.4142 147.25 33 147.25H27C26.5858 147.25 26.25 146.914 26.25 146.5Z" fill="#5F5F6A"/>
<path fill-rule="evenodd" clip-rule="evenodd" d="M20.7589 188.5C19.5339 188.5 18.5 189.55 18.5 190.896V191.077C18.5 192.565 19.4766 193.654 20.7589 193.654H22.8092C23.0853 193.654 23.3092 193.878 23.3092 194.154C23.3092 194.43 23.0853 194.654 22.8092 194.654H20.7589C18.8033 194.654 17.5 192.988 17.5 191.077V190.896C17.5 189.044 18.9365 187.5 20.7589 187.5H21.8052C23.4077 187.5 24.5 188.751 24.5 190.051V191.702C24.5 192.459 23.9091 193.115 23.1298 193.115C22.715 193.115 22.3537 192.93 22.1063 192.642C21.7974 192.933 21.3943 193.115 20.9313 193.115C19.8552 193.115 19.1031 192.131 19.1031 191.077C19.1031 190.023 19.8552 189.038 20.9313 189.038C21.2639 189.038 21.5655 189.132 21.8236 189.293C21.9093 189.141 22.0724 189.038 22.2595 189.038C22.5357 189.038 22.7595 189.262 22.7595 189.538V191.702C22.7595 191.953 22.9479 192.115 23.1298 192.115C23.3117 192.115 23.5 191.953 23.5 191.702V190.051C23.5 189.3 22.8518 188.5 21.8052 188.5H20.7589ZM21.7595 191.077C21.7595 190.432 21.3223 190.038 20.9313 190.038C20.5403 190.038 20.1031 190.432 20.1031 191.077C20.1031 191.722 20.5403 192.115 20.9313 192.115C21.3223 192.115 21.7595 191.722 21.7595 191.077ZM20.7589 198.346C19.5339 198.346 18.5 199.396 18.5 200.742V200.923C18.5 202.411 19.4766 203.5 20.7589 203.5H22.8092C23.0853 203.5 23.3092 203.724 23.3092 204C23.3092 204.276 23.0853 204.5 22.8092 204.5H20.7589C18.8033 204.5 17.5 202.834 17.5 200.923V200.742C17.5 198.89 18.9365 197.346 20.7589 197.346H21.8052C23.4077 197.346 24.5 198.597 24.5 199.897V201.548C24.5 202.306 23.9091 202.962 23.1298 202.962C22.715 202.962 22.3537 202.776 22.1063 202.488C21.7974 202.779 21.3943 202.962 20.9313 202.962C19.8552 202.962 19.1031 201.977 19.1031 200.923C19.1031 199.869 19.8552 198.885 20.9313 198.885C21.2639 198.885 21.5655 198.979 21.8236 199.14C21.9093 198.987 22.0724 198.885 22.2595 198.885C22.5357 198.885 22.7595 199.108 22.7595 199.385V201.548C22.7595 201.8 22.9479 201.962 23.1298 201.962C23.3117 201.962 23.5 201.8 23.5 201.548V199.897C23.5 199.146 22.8518 198.346 21.8052 198.346H20.7589ZM21.7595 200.923C21.7595 200.278 21.3223 199.885 20.9313 199.885C20.5403 199.885 20.1031 200.278 20.1031 200.923C20.1031 201.568 20.5403 201.962 20.9313 201.962C21.3223 201.962 21.7595 201.568 21.7595 200.923Z" fill="#5F5F6A"/>
<path fill-rule="evenodd" clip-rule="evenodd" d="M26.5 189.5C26.5 189.224 26.7239 189 27 189H38C38.2761 189 38.5 189.224 38.5 189.5C38.5 189.776 38.2761 190 38 190H27C26.7239 190 26.5 189.776 26.5 189.5ZM26.5 192.5C26.5 192.224 26.7239 192 27 192H33C33.2761 192 33.5 192.224 33.5 192.5C33.5 192.776 33.2761 193 33 193H27C26.7239 193 26.5 192.776 26.5 192.5ZM26.5 199.5C26.5 199.224 26.7239 199 27 199H38C38.2761 199 38.5 199.224 38.5 199.5C38.5 199.776 38.2761 200 38 200H27C26.7239 200 26.5 199.776 26.5 199.5ZM26.5 202.5C26.5 202.224 26.7239 202 27 202H33C33.2761 202 33.5 202.224 33.5 202.5C33.5 202.776 33.2761 203 33 203H27C26.7239 203 26.5 202.776 26.5 202.5Z" fill="#5F5F6A"/>
</svg>
