<svg width="56" height="224" viewBox="0 0 56 224" fill="none" xmlns="http://www.w3.org/2000/svg">
<path d="M31.9994 28C31.9994 30.2091 30.2085 32 27.9994 32C25.7902 32 23.9994 30.2091 23.9994 28C23.9994 25.7909 25.7902 24 27.9994 24C30.2085 24 31.9994 25.7909 31.9994 28Z" fill="#5F5F6A"/>
<path fill-rule="evenodd" clip-rule="evenodd" d="M25.0166 18.8004C24.4106 18.3749 23.5685 18.7327 23.454 19.4643L23.0128 22.2848C22.9467 22.7076 22.6188 23.0415 22.1973 23.1153L19.3852 23.6075C18.6558 23.7352 18.3133 24.5837 18.7497 25.1819L20.4321 27.4883C20.6843 27.834 20.6886 28.3019 20.4427 28.6522L18.8023 30.9887C18.3768 31.5947 18.7346 32.4369 19.4662 32.5513L22.2867 32.9925C22.7095 33.0586 23.0434 33.3865 23.1172 33.8081L23.6094 36.6202C23.7371 37.3495 24.5855 37.692 25.1838 37.2557L27.4902 35.5732C27.8359 35.321 28.3038 35.3168 28.6541 35.5627L30.9906 37.2031C31.5966 37.6285 32.4388 37.2707 32.5532 36.5392L32.9944 33.7186C33.0605 33.2958 33.3884 32.9619 33.81 32.8882L36.6221 32.3959C37.3514 32.2683 37.6939 31.4198 37.2575 30.8216L35.5751 28.5152C35.3229 28.1694 35.3186 27.7015 35.5646 27.3512L37.205 25.0147C37.6304 24.4087 37.2726 23.5666 36.5411 23.4522L33.7205 23.0109C33.2977 22.9448 32.9638 22.6169 32.89 22.1954L32.3978 19.3833C32.2702 18.6539 31.4217 18.3114 30.8235 18.7478L28.5171 20.4302C28.1713 20.6825 27.7034 20.6867 27.3531 20.4408L25.0166 18.8004ZM32.9994 28C32.9994 30.7614 30.7608 33 27.9994 33C25.2379 33 22.9994 30.7614 22.9994 28C22.9994 25.2386 25.2379 23 27.9994 23C30.7608 23 32.9994 25.2386 32.9994 28Z" fill="#5F5F6A"/>
<path opacity="0.5" d="M30.8242 74.7477C31.4224 74.3118 32.2707 74.6543 32.3984 75.3835L32.8906 78.196C32.9646 78.6172 33.2991 78.9453 33.7217 79.0114L36.542 79.4528C37.2731 79.5677 37.6314 80.4095 37.2061 81.0153L35.5654 83.3512C35.3195 83.7015 35.324 84.1695 35.5762 84.5153L37.2578 86.8219C37.6936 87.4199 37.3518 88.2681 36.623 88.3961L33.8105 88.8883C33.3891 88.9622 33.0613 89.2966 32.9951 89.7194L32.5537 92.5397C32.439 93.2707 31.5971 93.6285 30.9912 93.2038L28.6553 91.5631C28.3051 91.3173 27.8369 91.3218 27.4912 91.5739L25.1846 93.2555C24.5865 93.6918 23.7384 93.3497 23.6104 92.6208L23.1182 89.8083C23.0444 89.3869 22.7097 89.0591 22.2871 88.9928L19.4668 88.5514C18.7353 88.4369 18.3774 87.5949 18.8027 86.9889L20.4434 84.653C20.6891 84.3029 20.6845 83.8346 20.4326 83.4889L18.75 81.1823C18.3138 80.5841 18.6566 79.7358 19.3857 79.6081L22.1982 79.1159C22.6194 79.0419 22.9475 78.7073 23.0137 78.2848L23.4551 75.4645C23.5696 74.733 24.4116 74.375 25.0176 74.8004L27.3535 76.4411C27.7037 76.6866 28.172 76.6824 28.5176 76.4303L30.8242 74.7477ZM28 79.0006C25.2386 79.0007 23 81.2392 23 84.0006C23.0003 86.7617 25.2388 89.0006 28 89.0006C30.761 89.0004 32.9997 86.7616 33 84.0006C33 81.2394 30.7612 79.0009 28 79.0006ZM28 87.9997V88.0006V87.9997ZM30.0742 87.4206C29.7441 87.6213 29.3828 87.7759 28.999 87.8747V87.8737C29.0631 87.8572 29.1267 87.8395 29.1895 87.82C29.3146 87.781 29.4371 87.7358 29.5566 87.6852C29.6163 87.6599 29.6752 87.6332 29.7334 87.6051C29.8502 87.5489 29.9641 87.4875 30.0742 87.4206ZM25.9258 87.4215C26.0356 87.4882 26.1492 87.549 26.2656 87.6051C26.1492 87.549 26.0356 87.4882 25.9258 87.4215ZM25.0391 86.6901V86.6891V86.6901ZM31.3828 86.1325C31.3265 86.2216 31.268 86.3091 31.2051 86.3932C31.268 86.3091 31.3265 86.2216 31.3828 86.1325ZM24.167 82.8522C24.1523 82.9013 24.1388 82.9508 24.126 83.0006L24.0811 83.194C24.1048 83.0782 24.1335 82.9642 24.167 82.8522ZM24.3945 82.2663C24.3665 82.3244 24.3397 82.3833 24.3145 82.443L24.2422 82.6247C24.287 82.5022 24.3384 82.3828 24.3945 82.2663ZM25.833 80.6383C25.7558 80.6882 25.6799 80.7397 25.6064 80.7946C25.6799 80.7397 25.7558 80.6882 25.833 80.6383Z" fill="#5F5F6A"/>
<path d="M28 80C30.2091 80 32 81.7909 32 84C32 86.2091 30.2091 88 28 88C25.7909 88 24 86.2091 24 84C24 81.7909 25.7909 80 28 80Z" fill="#5F5F6A"/>
<path fill-rule="evenodd" clip-rule="evenodd" d="M32.9994 140C32.9994 142.761 30.7608 145 27.9994 145C25.2379 145 22.9994 142.761 22.9994 140C22.9994 137.239 25.2379 135 27.9994 135C30.7608 135 32.9994 137.239 32.9994 140ZM31.4994 140C31.4994 141.933 29.9324 143.5 27.9994 143.5C26.0664 143.5 24.4994 141.933 24.4994 140C24.4994 138.067 26.0664 136.5 27.9994 136.5C29.9324 136.5 31.4994 138.067 31.4994 140Z" fill="#5F5F6A"/>
<path fill-rule="evenodd" clip-rule="evenodd" d="M23.454 131.464C23.5685 130.733 24.4106 130.375 25.0166 130.8L27.3531 132.441C27.7034 132.687 28.1713 132.682 28.5171 132.43L30.8235 130.748C31.4217 130.311 32.2702 130.654 32.3978 131.383L32.89 134.195C32.9638 134.617 33.2977 134.945 33.7205 135.011L36.5411 135.452C37.2726 135.567 37.6304 136.409 37.205 137.015L35.5646 139.351C35.3186 139.702 35.3229 140.169 35.5751 140.515L37.2575 142.822C37.6939 143.42 37.3514 144.268 36.6221 144.396L33.81 144.888C33.3884 144.962 33.0605 145.296 32.9944 145.719L32.5532 148.539C32.4388 149.271 31.5966 149.629 30.9906 149.203L28.6541 147.563C28.3038 147.317 27.8359 147.321 27.4902 147.573L25.1838 149.256C24.5855 149.692 23.7371 149.35 23.6094 148.62L23.1172 145.808C23.0434 145.387 22.7095 145.059 22.2867 144.993L19.4662 144.551C18.7346 144.437 18.3768 143.595 18.8023 142.989L20.4427 140.652C20.6886 140.302 20.6843 139.834 20.4321 139.488L18.7497 137.182C18.3133 136.584 18.6558 135.735 19.3852 135.608L22.1973 135.115C22.6188 135.042 22.9467 134.708 23.0128 134.285L23.454 131.464ZM24.4948 134.517L24.8119 132.489L26.4912 133.668C27.3669 134.283 28.5367 134.273 29.4011 133.642L31.0587 132.433L31.4125 134.454C31.597 135.508 32.4316 136.328 33.4887 136.493L35.5159 136.81L34.3369 138.489C33.7221 139.365 33.7327 140.535 34.3633 141.399L35.5725 143.057L33.5513 143.411C32.4975 143.595 31.6778 144.43 31.5124 145.487L31.1953 147.514L29.516 146.335C28.6403 145.72 27.4705 145.731 26.6062 146.361L24.9485 147.571L24.5947 145.549C24.4103 144.496 23.5756 143.676 22.5185 143.511L20.4913 143.193L21.6703 141.514C22.2851 140.638 22.2745 139.469 21.644 138.604L20.4348 136.947L22.4559 136.593C23.5098 136.408 24.3295 135.574 24.4948 134.517Z" fill="#5F5F6A"/>
<path fill-rule="evenodd" clip-rule="evenodd" d="M24.442 187.619L26.7785 189.259C27.4791 189.751 28.4149 189.743 29.1064 189.238L31.4128 187.556L31.905 190.368C32.0526 191.211 32.7203 191.867 33.566 191.999L36.3865 192.44L34.7461 194.777C34.2543 195.477 34.2628 196.413 34.7672 197.105L36.4497 199.411L33.6376 199.903C32.7944 200.051 32.1387 200.718 32.0064 201.564L31.5652 204.385L29.2287 202.744C28.5282 202.252 27.5923 202.261 26.9008 202.765L24.5944 204.448L24.1022 201.636C23.9546 200.793 23.2869 200.137 22.4413 200.005L19.6207 199.563L21.2611 197.227C21.7529 196.526 21.7445 195.59 21.24 194.899L19.5576 192.593L22.3697 192.1C23.2128 191.953 23.8685 191.285 24.0008 190.439L24.442 187.619ZM23.454 187.464C23.5685 186.733 24.4106 186.375 25.0166 186.8L27.3531 188.441C27.7034 188.687 28.1713 188.682 28.5171 188.43L30.8235 186.748C31.4217 186.311 32.2702 186.654 32.3978 187.383L32.89 190.195C32.9638 190.617 33.2977 190.945 33.7205 191.011L36.5411 191.452C37.2726 191.567 37.6304 192.409 37.205 193.015L35.5646 195.351C35.3186 195.702 35.3229 196.169 35.5751 196.515L37.2575 198.822C37.6939 199.42 37.3514 200.268 36.6221 200.396L33.81 200.888C33.3884 200.962 33.0605 201.296 32.9944 201.719L32.5532 204.539C32.4388 205.271 31.5966 205.629 30.9906 205.203L28.6541 203.563C28.3038 203.317 27.8359 203.321 27.4902 203.573L25.1838 205.256C24.5855 205.692 23.7371 205.35 23.6094 204.62L23.1172 201.808C23.0434 201.387 22.7095 201.059 22.2867 200.993L19.4662 200.551C18.7346 200.437 18.3768 199.595 18.8023 198.989L20.4427 196.652C20.6886 196.302 20.6843 195.834 20.4321 195.488L18.7497 193.182C18.3133 192.584 18.6558 191.735 19.3852 191.608L22.1973 191.115C22.6188 191.042 22.9467 190.708 23.0128 190.285L23.454 187.464ZM31.9994 196C31.9994 198.209 30.2085 200 27.9994 200C25.7902 200 23.9994 198.209 23.9994 196C23.9994 193.791 25.7902 192 27.9994 192C30.2085 192 31.9994 193.791 31.9994 196ZM32.9994 196C32.9994 198.761 30.7608 201 27.9994 201C25.2379 201 22.9994 198.761 22.9994 196C22.9994 193.239 25.2379 191 27.9994 191C30.7608 191 32.9994 193.239 32.9994 196Z" fill="#5F5F6A"/>
</svg>
