<svg width="56" height="224" viewBox="0 0 56 224" fill="none" xmlns="http://www.w3.org/2000/svg">
<path d="M31.8304 18.25H24.1696C23.6354 18.25 23.1896 18.25 22.8253 18.2797C22.4454 18.3108 22.0888 18.3779 21.7515 18.5497C21.2341 18.8134 20.8134 19.2341 20.5497 19.7515C20.3779 20.0888 20.3108 20.4454 20.2797 20.8253C20.25 21.1896 20.25 21.6354 20.25 22.1696V33.8304C20.25 34.3646 20.25 34.8104 20.2797 35.1747C20.3108 35.5546 20.3779 35.9112 20.5497 36.2485C20.8134 36.7659 21.2341 37.1866 21.7515 37.4503C22.0888 37.6221 22.4454 37.6892 22.8253 37.7203C23.1896 37.75 23.6354 37.75 24.1695 37.75H31.8305C32.3646 37.75 32.8104 37.75 33.1747 37.7203C33.5546 37.6892 33.9112 37.6221 34.2485 37.4503C34.7659 37.1866 35.1866 36.7659 35.4503 36.2485C35.6221 35.9112 35.6892 35.5546 35.7203 35.1747C35.7315 35.037 35.7385 34.8877 35.7429 34.7264C36.317 34.6134 36.75 34.1073 36.75 33.5V22.5C36.75 21.8927 36.317 21.3866 35.7429 21.2736C35.7385 21.1123 35.7315 20.963 35.7203 20.8253C35.6892 20.4454 35.6221 20.0888 35.4503 19.7515C35.1866 19.2341 34.7659 18.8134 34.2485 18.5497C33.9112 18.3779 33.5546 18.3108 33.1747 18.2797C32.8104 18.25 32.3646 18.25 31.8304 18.25ZM26 34.5H30C30.2761 34.5 30.5 34.7239 30.5 35C30.5 35.2761 30.2761 35.5 30 35.5H26C25.7239 35.5 25.5 35.2761 25.5 35C25.5 34.7239 25.7239 34.5 26 34.5Z" fill="#5F5F6A"/>
<path opacity="0.5" d="M21 78.2C21 77.0799 21 76.5198 21.218 76.092C21.4097 75.7157 21.7157 75.4097 22.092 75.218C22.5198 75 23.0799 75 24.2 75H31.8C32.9201 75 33.4802 75 33.908 75.218C34.2843 75.4097 34.5903 75.7157 34.782 76.092C35 76.5198 35 77.0799 35 78.2V89.8C35 90.9201 35 91.4802 34.782 91.908C34.5903 92.2843 34.2843 92.5903 33.908 92.782C33.4802 93 32.9201 93 31.8 93H24.2C23.0799 93 22.5198 93 22.092 92.782C21.7157 92.5903 21.4097 92.2843 21.218 91.908C21 91.4802 21 90.9201 21 89.8V78.2Z" fill="#5F5F6A"/>
<path d="M26 90.5C25.7239 90.5 25.5 90.7239 25.5 91C25.5 91.2761 25.7239 91.5 26 91.5H30C30.2761 91.5 30.5 91.2761 30.5 91C30.5 90.7239 30.2761 90.5 30 90.5H26Z" fill="#5F5F6A"/>
<path d="M24.1696 74.25H31.8304C32.3646 74.25 32.8104 74.25 33.1747 74.2797C33.5546 74.3108 33.9112 74.3779 34.2485 74.5497C34.7659 74.8134 35.1866 75.2341 35.4503 75.7515C35.6221 76.0888 35.6892 76.4454 35.7203 76.8253C35.7315 76.963 35.7385 77.1123 35.7429 77.2736C36.317 77.3866 36.75 77.8927 36.75 78.5V89.5C36.75 90.1073 36.317 90.6134 35.7429 90.7264C35.7385 90.8877 35.7315 91.037 35.7203 91.1747C35.6892 91.5546 35.6221 91.9112 35.4503 92.2485C35.1866 92.7659 34.7659 93.1866 34.2485 93.4503C33.9112 93.6221 33.5546 93.6892 33.1747 93.7203C32.8104 93.75 32.3646 93.75 31.8305 93.75H24.1695C23.6354 93.75 23.1896 93.75 22.8253 93.7203C22.4454 93.6892 22.0888 93.6221 21.7515 93.4503C21.2341 93.1866 20.8134 92.7659 20.5497 92.2485C20.3779 91.9112 20.3108 91.5546 20.2797 91.1747C20.25 90.8104 20.25 90.3646 20.25 89.8304V78.1696C20.25 77.6354 20.25 77.1896 20.2797 76.8253C20.3108 76.4454 20.3779 76.0888 20.5497 75.7515C20.8134 75.2341 21.2341 74.8134 21.7515 74.5497C22.0888 74.3779 22.4454 74.3108 22.8253 74.2797C23.1896 74.25 23.6354 74.25 24.1696 74.25ZM34.25 78.2C34.25 77.6276 34.2494 77.2434 34.2252 76.9475C34.2018 76.6604 34.1599 76.5231 34.1138 76.4325C33.9939 76.1973 33.8027 76.0061 33.5675 75.8862C33.4769 75.8401 33.3396 75.7982 33.0525 75.7748C32.7566 75.7506 32.3724 75.75 31.8 75.75H24.2C23.6276 75.75 23.2434 75.7506 22.9475 75.7748C22.6604 75.7982 22.5231 75.8401 22.4325 75.8862C22.1973 76.0061 22.0061 76.1973 21.8862 76.4325C21.8401 76.5231 21.7982 76.6604 21.7748 76.9475C21.7506 77.2434 21.75 77.6276 21.75 78.2V89.8C21.75 90.3724 21.7506 90.7566 21.7748 91.0525C21.7982 91.3396 21.8401 91.4769 21.8862 91.5675C22.0061 91.8027 22.1973 91.9939 22.4325 92.1138C22.5231 92.1599 22.6604 92.2018 22.9475 92.2252C23.2434 92.2494 23.6276 92.25 24.2 92.25H31.8C32.3724 92.25 32.7566 92.2494 33.0525 92.2252C33.3396 92.2018 33.4769 92.1599 33.5675 92.1138C33.8027 91.9939 33.9939 91.8027 34.1138 91.5675C34.1599 91.4769 34.2018 91.3396 34.2252 91.0525C34.2494 90.7566 34.25 90.3724 34.25 89.8V78.2Z" fill="#5F5F6A"/>
<path d="M26 146.5C25.7239 146.5 25.5 146.724 25.5 147C25.5 147.276 25.7239 147.5 26 147.5H30C30.2761 147.5 30.5 147.276 30.5 147C30.5 146.724 30.2761 146.5 30 146.5H26Z" fill="#5F5F6A"/>
<path d="M24.1696 130.25H31.8304C32.3646 130.25 32.8104 130.25 33.1747 130.28C33.5546 130.311 33.9112 130.378 34.2485 130.55C34.7659 130.813 35.1866 131.234 35.4503 131.752C35.6221 132.089 35.6892 132.445 35.7203 132.825C35.7315 132.963 35.7385 133.112 35.7429 133.274C36.317 133.387 36.75 133.893 36.75 134.5V145.5C36.75 146.107 36.317 146.613 35.7429 146.726C35.7385 146.888 35.7315 147.037 35.7203 147.175C35.6892 147.555 35.6221 147.911 35.4503 148.248C35.1866 148.766 34.7659 149.187 34.2485 149.45C33.9112 149.622 33.5546 149.689 33.1747 149.72C32.8104 149.75 32.3646 149.75 31.8305 149.75H24.1695C23.6354 149.75 23.1896 149.75 22.8253 149.72C22.4454 149.689 22.0888 149.622 21.7515 149.45C21.2341 149.187 20.8134 148.766 20.5497 148.248C20.3779 147.911 20.3108 147.555 20.2797 147.175C20.25 146.81 20.25 146.365 20.25 145.83V134.17C20.25 133.635 20.25 133.19 20.2797 132.825C20.3108 132.445 20.3779 132.089 20.5497 131.752C20.8134 131.234 21.2341 130.813 21.7515 130.55C22.0888 130.378 22.4454 130.311 22.8253 130.28C23.1896 130.25 23.6354 130.25 24.1696 130.25ZM34.25 134.2C34.25 133.628 34.2494 133.243 34.2252 132.947C34.2018 132.66 34.1599 132.523 34.1138 132.433C33.9939 132.197 33.8027 132.006 33.5675 131.886C33.4769 131.84 33.3396 131.798 33.0525 131.775C32.7566 131.751 32.3724 131.75 31.8 131.75H24.2C23.6276 131.75 23.2434 131.751 22.9475 131.775C22.6604 131.798 22.5231 131.84 22.4325 131.886C22.1973 132.006 22.0061 132.197 21.8862 132.433C21.8401 132.523 21.7982 132.66 21.7748 132.947C21.7506 133.243 21.75 133.628 21.75 134.2V145.8C21.75 146.372 21.7506 146.757 21.7748 147.053C21.7982 147.34 21.8401 147.477 21.8862 147.567C22.0061 147.803 22.1973 147.994 22.4325 148.114C22.5231 148.16 22.6604 148.202 22.9475 148.225C23.2434 148.249 23.6276 148.25 24.2 148.25H31.8C32.3724 148.25 32.7566 148.249 33.0525 148.225C33.3396 148.202 33.4769 148.16 33.5675 148.114C33.8027 147.994 33.9939 147.803 34.1138 147.567C34.1599 147.477 34.2018 147.34 34.2252 147.053C34.2494 146.757 34.25 146.372 34.25 145.8V134.2Z" fill="#5F5F6A"/>
<path d="M26 202.5H30C30.2761 202.5 30.5 202.724 30.5 203C30.5 203.276 30.2761 203.5 30 203.5H26C25.7239 203.5 25.5 203.276 25.5 203C25.5 202.724 25.7239 202.5 26 202.5Z" fill="#5F5F6A"/>
<path d="M24.1786 186.5H31.8214C32.3633 186.5 32.8004 186.5 33.1543 186.529C33.5187 186.559 33.8388 186.622 34.135 186.772C34.6054 187.012 34.9878 187.395 35.2275 187.865C35.3784 188.161 35.4413 188.481 35.4711 188.846C35.4868 189.038 35.494 189.255 35.4973 189.5L35.5 189.5C36.0523 189.5 36.5 189.948 36.5 190.5V201.5C36.5 202.052 36.0523 202.5 35.5 202.5L35.4973 202.5C35.494 202.745 35.4868 202.962 35.4711 203.154C35.4413 203.519 35.3784 203.839 35.2275 204.135C34.9878 204.605 34.6054 204.988 34.135 205.228C33.8388 205.378 33.5187 205.441 33.1543 205.471C32.8004 205.5 32.3633 205.5 31.8214 205.5H24.1786C23.6367 205.5 23.1996 205.5 22.8457 205.471C22.4813 205.441 22.1612 205.378 21.865 205.228C21.3946 204.988 21.0122 204.605 20.7725 204.135C20.6216 203.839 20.5587 203.519 20.5289 203.154C20.5 202.8 20.5 202.363 20.5 201.821V190.179C20.5 189.637 20.5 189.2 20.5289 188.846C20.5587 188.481 20.6216 188.161 20.7725 187.865C21.0122 187.395 21.3946 187.012 21.865 186.772C22.1612 186.622 22.4813 186.559 22.8457 186.529C23.1996 186.5 23.6367 186.5 24.1786 186.5ZM34.5 190.2C34.5 189.632 34.4996 189.236 34.4744 188.927C34.4497 188.625 34.4036 188.451 34.3365 188.319C34.1927 188.037 33.9632 187.807 33.681 187.663C33.5493 187.596 33.3755 187.55 33.0729 187.526C32.7645 187.5 32.3683 187.5 31.8 187.5H24.2C23.6317 187.5 23.2355 187.5 22.9271 187.526C22.6245 187.55 22.4507 187.596 22.319 187.663C22.0368 187.807 21.8073 188.037 21.6635 188.319C21.5964 188.451 21.5503 188.625 21.5256 188.927C21.5004 189.236 21.5 189.632 21.5 190.2V201.8C21.5 202.368 21.5004 202.764 21.5256 203.073C21.5503 203.375 21.5964 203.549 21.6635 203.681C21.8073 203.963 22.0368 204.193 22.319 204.337C22.4507 204.404 22.6245 204.45 22.9271 204.474C23.2355 204.5 23.6317 204.5 24.2 204.5H31.8C32.3683 204.5 32.7645 204.5 33.0729 204.474C33.3755 204.45 33.5493 204.404 33.681 204.337C33.9632 204.193 34.1927 203.963 34.3365 203.681C34.4036 203.549 34.4497 203.375 34.4744 203.073C34.4996 202.764 34.5 202.368 34.5 201.8V190.2Z" fill="#5F5F6A"/>
</svg>
