<svg width="56" height="168" viewBox="0 0 56 168" fill="none" xmlns="http://www.w3.org/2000/svg">
<path opacity="0.5" d="M28 23.75C25.6528 23.75 23.75 25.6528 23.75 28C23.75 30.3472 25.6528 32.25 28 32.25C30.3472 32.25 32.25 30.3472 32.25 28C32.25 25.6528 30.3472 23.75 28 23.75ZM22.25 28C22.25 24.8244 24.8244 22.25 28 22.25C31.1756 22.25 33.75 24.8244 33.75 28C33.75 31.1756 31.1756 33.75 28 33.75C24.8244 33.75 22.25 31.1756 22.25 28Z" fill="#5F5F6A"/>
<path d="M20.75 28C20.75 23.9959 23.9959 20.75 28 20.75C32.0041 20.75 35.25 23.9959 35.25 28C35.25 32.0041 32.0041 35.25 28 35.25C27.0372 35.25 26.12 35.0627 25.2814 34.7233C24.8975 34.5679 24.4602 34.7531 24.3048 35.1371C24.1494 35.521 24.3346 35.9583 24.7186 36.1137C25.7329 36.5243 26.841 36.75 28 36.75C32.8325 36.75 36.75 32.8325 36.75 28C36.75 23.1675 32.8325 19.25 28 19.25C23.1675 19.25 19.25 23.1675 19.25 28C19.25 29.159 19.4757 30.2671 19.8863 31.2814C20.0417 31.6654 20.479 31.8506 20.8629 31.6952C21.2469 31.5398 21.4321 31.1025 21.2767 30.7186C20.9373 29.88 20.75 28.9628 20.75 28Z" fill="#5F5F6A"/>
<path d="M28 30C29.1046 30 30 29.1046 30 28C30 26.8954 29.1046 26 28 26C26.8954 26 26 26.8954 26 28C26 28.2771 26.0564 28.5411 26.1583 28.7811L22.9697 31.9697C22.9598 31.9796 22.9502 31.9897 22.941 32H21.7714C21.3735 32 20.992 32.158 20.7107 32.4393L19.0732 34.0768C18.6008 34.5493 18.9354 35.3571 19.6036 35.3571H20.6429V36.3964C20.6429 37.0646 21.4507 37.3993 21.9232 36.9268L23.5607 35.2893C23.842 35.008 24 34.6265 24 34.2286V33.059C24.0103 33.0498 24.0204 33.0402 24.0303 33.0303L27.2189 29.8417C27.4589 29.9436 27.7229 30 28 30ZM22.941 33C22.9502 33.0103 22.9598 33.0204 22.9697 33.0303C22.9796 33.0402 22.9897 33.0498 23 33.059V34.2286C23 34.3613 22.9473 34.4884 22.8536 34.5822L21.6429 35.7929V34.8571C21.6429 34.581 21.419 34.3571 21.1429 34.3571H20.2071L21.4178 33.1464C21.5116 33.0527 21.6387 33 21.7714 33H22.941Z" fill="#5F5F6A"/>
<path d="M28 76.75C23.9959 76.75 20.75 79.9959 20.75 84C20.75 84.9628 20.9373 85.88 21.2767 86.7186C21.4321 87.1025 21.2469 87.5398 20.8629 87.6952C20.479 87.8506 20.0417 87.6654 19.8863 87.2814C19.4757 86.2671 19.25 85.159 19.25 84C19.25 79.1675 23.1675 75.25 28 75.25C32.8325 75.25 36.75 79.1675 36.75 84C36.75 88.8325 32.8325 92.75 28 92.75C26.841 92.75 25.7329 92.5243 24.7186 92.1137C24.3346 91.9583 24.1494 91.521 24.3048 91.1371C24.4602 90.7531 24.8975 90.5679 25.2814 90.7233C26.12 91.0627 27.0372 91.25 28 91.25C32.0041 91.25 35.25 88.0041 35.25 84C35.25 79.9959 32.0041 76.75 28 76.75Z" fill="#5F5F6A"/>
<path d="M22.25 84C22.25 85.3174 22.6931 86.5314 23.4383 87.501L22.9697 87.9697C22.9598 87.9796 22.9502 87.9897 22.941 88H21.7714C21.3735 88 20.992 88.158 20.7107 88.4393L19.0732 90.0768C18.6008 90.5493 18.9354 91.3571 19.6036 91.3571H20.6429V92.3964C20.6429 93.0646 21.4507 93.3993 21.9232 92.9268L23.5607 91.2893C23.842 91.008 24 90.6265 24 90.2286V89.059C24.0103 89.0498 24.0204 89.0402 24.0303 89.0303L24.499 88.5617C25.4686 89.3069 26.6826 89.75 28 89.75C31.1756 89.75 33.75 87.1756 33.75 84C33.75 80.8244 31.1756 78.25 28 78.25C24.8244 78.25 22.25 80.8244 22.25 84ZM28 79.75C30.3472 79.75 32.25 81.6528 32.25 84C32.25 86.3472 30.3472 88.25 28 88.25C27.0973 88.25 26.2603 87.9686 25.572 87.4886L27.2189 85.8417C27.4589 85.9436 27.7229 86 28 86C29.1046 86 30 85.1046 30 84C30 82.8954 29.1046 82 28 82C26.8954 82 26 82.8954 26 84C26 84.2771 26.0564 84.5411 26.1583 84.7811L24.5114 86.428C24.0314 85.7397 23.75 84.9027 23.75 84C23.75 81.6528 25.6528 79.75 28 79.75ZM22.941 89C22.9502 89.0103 22.9598 89.0204 22.9697 89.0303C22.9796 89.0402 22.9897 89.0498 23 89.059V90.2286C23 90.3613 22.9473 90.4884 22.8536 90.5822L21.6429 91.7929V90.8571C21.6429 90.581 21.419 90.3571 21.1429 90.3571H20.2071L21.4178 89.1464C21.5116 89.0527 21.6387 89 21.7714 89H22.941Z" fill="#5F5F6A"/>
<path d="M28 132.5C23.8579 132.5 20.5 135.858 20.5 140C20.5 140.996 20.6937 141.945 21.045 142.812C21.1486 143.068 21.0251 143.36 20.7691 143.463C20.5132 143.567 20.2217 143.444 20.118 143.188C19.7193 142.203 19.5 141.126 19.5 140C19.5 135.306 23.3056 131.5 28 131.5C32.6944 131.5 36.5 135.306 36.5 140C36.5 144.694 32.6944 148.5 28 148.5C26.8737 148.5 25.7974 148.281 24.8124 147.882C24.5564 147.778 24.4329 147.487 24.5365 147.231C24.6401 146.975 24.9316 146.851 25.1876 146.955C26.0554 147.306 27.0045 147.5 28 147.5C32.1421 147.5 35.5 144.142 35.5 140C35.5 135.858 32.1421 132.5 28 132.5Z" fill="#5F5F6A"/>
<path d="M22.5 140C22.5 141.339 22.9783 142.566 23.7734 143.52L23.2929 144H21.7714C21.3735 144 20.992 144.158 20.7107 144.439L19.0732 146.077C18.6008 146.549 18.9354 147.357 19.6036 147.357H20.6429V148.396C20.6429 149.065 21.4507 149.399 21.9232 148.927L23.5607 147.289C23.842 147.008 24 146.626 24 146.229V144.707L24.4805 144.227C25.4342 145.022 26.6613 145.5 28 145.5C31.0376 145.5 33.5 143.038 33.5 140C33.5 136.962 31.0376 134.5 28 134.5C24.9624 134.5 22.5 136.962 22.5 140ZM28 135.5C30.4853 135.5 32.5 137.515 32.5 140C32.5 142.485 30.4853 144.5 28 144.5C26.9375 144.5 25.961 144.132 25.1912 143.516L26.984 141.723C27.2818 141.899 27.6291 142 28 142C29.1046 142 30 141.105 30 140C30 138.895 29.1046 138 28 138C26.8954 138 26 138.895 26 140C26 140.371 26.101 140.718 26.2769 141.016L24.4841 142.809C23.8682 142.039 23.5 141.063 23.5 140C23.5 137.515 25.5147 135.5 28 135.5ZM21.4178 145.146C21.5116 145.053 21.6387 145 21.7714 145H23V146.229C23 146.361 22.9473 146.488 22.8536 146.582L21.6429 147.793V146.857C21.6429 146.581 21.419 146.357 21.1429 146.357H20.2071L21.4178 145.146Z" fill="#5F5F6A"/>
</svg>
