<svg width="56" height="224" viewBox="0 0 56 224" fill="none" xmlns="http://www.w3.org/2000/svg">
<path fill-rule="evenodd" clip-rule="evenodd" d="M18 28C18 22.4772 22.4772 18 28 18C33.5228 18 38 22.4772 38 28C38 33.5228 33.5228 38 28 38C22.4772 38 18 33.5228 18 28ZM32.4634 24.8458L31.373 31.8247C31.3078 32.2419 30.8373 32.4565 30.4795 32.2323L26.8289 29.9452C26.5042 29.7418 26.4576 29.2871 26.7342 29.022L29.7647 26.1176C29.7978 26.0859 29.7576 26.0333 29.7183 26.0568L25.3263 28.6854C25.0649 28.8418 24.755 28.8963 24.456 28.8385L22.8652 28.5306C22.2924 28.4198 22.213 27.6324 22.7522 27.4095L31.2545 23.8942C31.8907 23.6311 32.5697 24.1656 32.4634 24.8458Z" fill="#5F5F6A"/>
<path fill-rule="evenodd" clip-rule="evenodd" d="M28 74.625C22.8223 74.625 18.625 78.8223 18.625 84C18.625 89.1777 22.8223 93.375 28 93.375C33.1777 93.375 37.375 89.1777 37.375 84C37.375 78.8223 33.1777 74.625 28 74.625ZM17.375 84C17.375 78.132 22.132 73.375 28 73.375C33.868 73.375 38.625 78.132 38.625 84C38.625 89.868 33.868 94.625 28 94.625C22.132 94.625 17.375 89.868 17.375 84Z" fill="#5F5F6A"/>
<path fill-rule="evenodd" clip-rule="evenodd" d="M28 94C33.5228 94 38 89.5228 38 84C38 78.4772 33.5228 74 28 74C22.4772 74 18 78.4772 18 84C18 89.5228 22.4772 94 28 94ZM32.7424 80.6487L31.5838 88.0637C31.5145 88.507 31.0146 88.7351 30.6345 88.4969L26.7557 86.0668C26.4107 85.8506 26.3612 85.3676 26.6551 85.0859L29.875 82C29.9101 81.9663 29.8675 81.9104 29.8257 81.9354L25.1592 84.7282C24.8815 84.8944 24.5522 84.9524 24.2345 84.8909L22.5443 84.5638C21.9357 84.446 21.8513 83.6095 22.4242 83.3726L31.4579 79.6376C32.1339 79.3581 32.8553 79.9259 32.7424 80.6487Z" fill="#5F5F6A"/>
<path d="M32.4626 136.846L31.3722 143.825C31.307 144.242 30.8365 144.457 30.4787 144.232L26.8281 141.945C26.5034 141.742 26.4568 141.287 26.7334 141.022L29.7639 138.118C29.797 138.086 29.7568 138.033 29.7175 138.057L25.3255 140.685C25.0641 140.842 24.7542 140.896 24.4552 140.838L22.8644 140.531C22.2916 140.42 22.2122 139.632 22.7514 139.409L31.2537 135.894C31.8899 135.631 32.5689 136.166 32.4626 136.846Z" fill="#5F5F6A"/>
<path fill-rule="evenodd" clip-rule="evenodd" d="M27.9992 129.706C22.3139 129.706 17.7051 134.315 17.7051 140C17.7051 145.685 22.3139 150.294 27.9992 150.294C33.6845 150.294 38.2933 145.685 38.2933 140C38.2933 134.315 33.6845 129.706 27.9992 129.706ZM19.4698 140C19.4698 135.289 23.2885 131.471 27.9992 131.471C32.7099 131.471 36.5286 135.289 36.5286 140C36.5286 144.711 32.7099 148.529 27.9992 148.529C23.2885 148.529 19.4698 144.711 19.4698 140Z" fill="#5F5F6A"/>
<path fill-rule="evenodd" clip-rule="evenodd" d="M33.0446 192.937C33.2218 191.803 32.0901 190.912 31.0298 191.351L22.5275 194.866C21.4491 195.312 21.6078 196.886 22.7535 197.108L24.3442 197.416C24.7855 197.501 25.2427 197.421 25.6284 197.19L26.0921 196.913C25.825 197.436 25.9831 198.109 26.5166 198.444L30.1672 200.731C30.8828 201.179 31.8238 200.75 31.9542 199.915L33.0446 192.937ZM27.1412 197.447L30.1717 194.542C30.7101 194.025 30.0566 193.169 29.4162 193.552L25.0242 196.181C24.8871 196.263 24.7246 196.291 24.5677 196.261L22.977 195.953L31.4793 192.438C31.6914 192.35 31.9177 192.528 31.8822 192.755L30.7918 199.734L27.1412 197.447Z" fill="#5F5F6A"/>
<path fill-rule="evenodd" clip-rule="evenodd" d="M28 186C22.4772 186 18 190.477 18 196C18 201.523 22.4772 206 28 206C33.5228 206 38 201.523 38 196C38 190.477 33.5228 186 28 186ZM19.1765 196C19.1765 191.127 23.1269 187.176 28 187.176C32.8731 187.176 36.8235 191.127 36.8235 196C36.8235 200.873 32.8731 204.824 28 204.824C23.1269 204.824 19.1765 200.873 19.1765 196Z" fill="#5F5F6A"/>
</svg>
