<svg width="56" height="168" viewBox="0 0 56 168" fill="none" xmlns="http://www.w3.org/2000/svg">
<path d="M27.2686 36.75C28.1826 36.75 28.9742 36.1477 29.2515 35.2858L30.0526 32.7949C30.1444 32.5096 30.2958 32.2505 30.4947 32.0357C31.1062 31.3749 31.6207 30.6273 32.0229 29.8167H32.6753C32.9738 30.2302 33.4093 30.5372 33.9175 30.6733C34.2067 30.7508 34.5352 30.7505 34.916 30.7501L34.9999 30.75L35.0838 30.7501C35.4646 30.7505 35.7931 30.7508 36.0822 30.6733C36.8587 30.4653 37.4652 29.8588 37.6732 29.0824C37.7507 28.7932 37.7504 28.4647 37.7499 28.0839V21.9161C37.7504 21.5353 37.7507 21.2068 37.6732 20.9177C37.4652 20.1412 36.8587 19.5347 36.0822 19.3267C35.7931 19.2492 35.4646 19.2495 35.0838 19.25L34.9999 19.25L34.916 19.25C34.5352 19.2495 34.2067 19.2492 33.9175 19.3267C33.3823 19.4701 32.9279 19.8028 32.629 20.25H26C24.6586 20.25 23.7442 20.3084 23.016 20.6174C22.3911 20.8826 21.8472 21.3106 21.4368 21.8562C20.9713 22.4753 20.7559 23.2834 20.4372 24.4794L20.3978 24.627L19.7055 26.9939L19.6966 27.0235C19.5367 27.5575 19.4029 28.0046 19.3267 28.3731C19.2481 28.753 19.2101 29.1377 19.3106 29.5242C19.4583 30.0918 19.8103 30.5868 20.3029 30.9056C20.6416 31.1248 21.0204 31.2023 21.4006 31.2374C21.7676 31.2712 22.2242 31.2712 22.7646 31.2712L25.0673 31.2712C24.5336 32.9655 24.7088 34.3372 24.9964 35.248C25.3303 36.3059 26.3388 36.75 27.218 36.75H27.2686ZM32.2499 21.75C32.2497 21.8043 32.2498 21.8596 32.2498 21.9161V28.0839C32.2497 28.1637 32.2497 28.2413 32.2503 28.3167H31.0681L30.7737 28.9528C30.4221 29.7125 29.9562 30.4091 29.3938 31.0169C29.0448 31.394 28.7826 31.8446 28.6247 32.3356L27.8235 34.8265C27.7383 35.0914 27.5071 35.25 27.2686 35.25H27.218C26.7689 35.25 26.5036 35.0398 26.4268 34.7964C26.1807 34.0172 26.0031 32.6466 26.8432 30.837C26.951 30.6048 26.9329 30.3336 26.7951 30.1177C26.6574 29.9019 26.419 29.7712 26.1629 29.7712H22.7994C22.2149 29.7712 21.8282 29.7705 21.5383 29.7437C21.2538 29.7175 21.1581 29.6724 21.1179 29.6464C20.947 29.5357 20.8175 29.3587 20.7623 29.1465C20.747 29.0878 20.7351 28.9694 20.7956 28.6768C20.8569 28.3801 20.9712 27.996 21.1431 27.4219L21.1445 27.4173L21.8425 25.0311L21.8448 25.0225C22.2219 23.6097 22.3683 23.1133 22.6357 22.7578C22.8898 22.4198 23.2235 22.1588 23.6019 21.9983C24.0105 21.8249 24.6278 21.75 26 21.75H32.2499ZM35.694 29.2245C35.6227 29.2436 35.5132 29.25 34.9999 29.25C34.4866 29.25 34.3771 29.2436 34.3058 29.2245C34.047 29.1551 33.8448 28.9529 33.7754 28.6941C33.7563 28.6228 33.7499 28.5133 33.7499 28V22C33.7499 21.4867 33.7563 21.3772 33.7754 21.3059C33.8448 21.0471 34.047 20.8449 34.3058 20.7756C34.3771 20.7565 34.4866 20.75 34.9999 20.75C35.5132 20.75 35.6227 20.7565 35.694 20.7756C35.9528 20.8449 36.155 21.0471 36.2243 21.3059C36.2434 21.3772 36.2499 21.4867 36.2499 22V28C36.2499 28.5133 36.2434 28.6228 36.2243 28.6941C36.155 28.9529 35.9528 29.1551 35.694 29.2245Z" fill="#5F5F6A"/>
<path d="M27.2686 92.75C28.1826 92.75 28.9742 92.1477 29.2515 91.2858L30.0526 88.7949C30.1444 88.5096 30.2958 88.2505 30.4947 88.0357C31.1062 87.3749 31.6207 86.6273 32.0229 85.8167H32.6753C32.9738 86.2302 33.4093 86.5372 33.9175 86.6733C34.2067 86.7508 34.5352 86.7505 34.916 86.7501L34.9999 86.75L35.0838 86.7501C35.4646 86.7505 35.7931 86.7508 36.0822 86.6733C36.8587 86.4653 37.4652 85.8588 37.6732 85.0824C37.7507 84.7932 37.7504 84.4647 37.7499 84.0839V77.9161C37.7504 77.5353 37.7507 77.2068 37.6732 76.9177C37.4652 76.1412 36.8587 75.5347 36.0822 75.3267C35.7931 75.2492 35.4646 75.2495 35.0838 75.25L34.9999 75.25L34.916 75.25C34.5352 75.2495 34.2067 75.2492 33.9175 75.3267C33.3823 75.4701 32.9279 75.8028 32.629 76.25H26C24.6586 76.25 23.7442 76.3084 23.016 76.6174C22.3911 76.8826 21.8472 77.3106 21.4368 77.8562C20.9713 78.4753 20.7559 79.2834 20.4372 80.4794L20.3978 80.627L19.7055 82.9939L19.6966 83.0235C19.5367 83.5575 19.4029 84.0046 19.3267 84.3731C19.2481 84.753 19.2101 85.1377 19.3106 85.5242C19.4583 86.0918 19.8103 86.5868 20.3029 86.9056C20.6416 87.1248 21.0204 87.2023 21.4006 87.2374C21.7676 87.2712 22.2242 87.2712 22.7646 87.2712L25.0673 87.2712C24.5336 88.9655 24.7088 90.3372 24.9964 91.248C25.3303 92.3059 26.3388 92.75 27.218 92.75H27.2686ZM32.2499 77.75C32.2497 77.8043 32.2498 77.8596 32.2498 77.9161V84.0839C32.2497 84.1637 32.2497 84.2413 32.2503 84.3167H31.0681L30.7737 84.9528C30.4221 85.7125 29.9562 86.4091 29.3938 87.0169C29.0448 87.394 28.7826 87.8446 28.6247 88.3356L27.8235 90.8265C27.7383 91.0914 27.5071 91.25 27.2686 91.25H27.218C26.7689 91.25 26.5036 91.0398 26.4268 90.7964C26.1807 90.0172 26.0031 88.6466 26.8432 86.837C26.951 86.6048 26.9329 86.3336 26.7951 86.1177C26.6574 85.9019 26.419 85.7712 26.1629 85.7712H22.7994C22.2149 85.7712 21.8282 85.7705 21.5383 85.7437C21.2538 85.7175 21.1581 85.6724 21.1179 85.6464C20.947 85.5357 20.8175 85.3587 20.7623 85.1465C20.747 85.0878 20.7351 84.9694 20.7956 84.6768C20.8569 84.3801 20.9712 83.996 21.1431 83.4219L21.1445 83.4173L21.8425 81.0311L21.8448 81.0225C22.2219 79.6097 22.3683 79.1133 22.6357 78.7578C22.8898 78.4198 23.2235 78.1588 23.6019 77.9983C24.0105 77.8249 24.6278 77.75 26 77.75H32.2499ZM35.694 85.2245C35.6227 85.2436 35.5132 85.25 34.9999 85.25C34.4866 85.25 34.3771 85.2436 34.3058 85.2245C34.047 85.1551 33.8448 84.9529 33.7754 84.6941C33.7563 84.6228 33.7499 84.5133 33.7499 84V78C33.7499 77.4867 33.7563 77.3772 33.7754 77.3059C33.8448 77.0471 34.047 76.8449 34.3058 76.7756C34.3771 76.7565 34.4866 76.75 34.9999 76.75C35.5132 76.75 35.6227 76.7565 35.694 76.7756C35.9528 76.8449 36.155 77.0471 36.2243 77.3059C36.2434 77.3772 36.2499 77.4867 36.2499 78V84C36.2499 84.5133 36.2434 84.6228 36.2243 84.6941C36.155 84.9529 35.9528 85.1551 35.694 85.2245Z" fill="#5F5F6A"/>
<path d="M27.2686 148.5C28.07 148.5 28.7682 147.972 29.0135 147.209L29.8146 144.718C29.9174 144.399 30.0873 144.108 30.3112 143.866C30.9411 143.185 31.4655 142.41 31.8664 141.567H32.8081C33.0729 141.987 33.489 142.3 33.9823 142.432C34.2382 142.5 34.5335 142.5 34.9312 142.5H35.0688C35.4664 142.5 35.7618 142.5 36.0176 142.432C36.7078 142.247 37.2469 141.708 37.4318 141.018C37.5004 140.762 37.5002 140.466 37.5 140.069V133.931C37.5002 133.534 37.5004 133.238 37.4318 132.982C37.2469 132.292 36.7078 131.753 36.0176 131.568C35.7618 131.5 35.4664 131.5 35.0688 131.5H34.9312C34.5335 131.5 34.2382 131.5 33.9823 131.568C33.4632 131.707 33.0296 132.047 32.7679 132.5H26C24.6535 132.5 23.7886 132.561 23.1136 132.848C22.5298 133.095 22.021 133.495 21.6367 134.006C21.2011 134.586 20.9977 135.348 20.6683 136.583L20.6386 136.694L19.9457 139.063L19.9448 139.066L19.9389 139.086C19.7766 139.628 19.6455 140.066 19.5715 140.424C19.496 140.789 19.4663 141.129 19.5526 141.461C19.6848 141.97 19.9997 142.412 20.4387 142.696C20.7277 142.883 21.0593 142.955 21.4236 142.988C21.779 143.021 22.2257 143.021 22.7748 143.021H25.4158C24.7669 144.813 24.9433 146.25 25.2348 147.173C25.5259 148.095 26.4105 148.5 27.218 148.5H27.2686ZM32.5041 133.5C32.4998 133.63 32.4999 133.773 32.4999 133.931V140.069C32.4998 140.255 32.4998 140.419 32.5067 140.567H31.2279L31.0006 141.058C30.6381 141.841 30.1576 142.56 29.5772 143.187C29.2533 143.537 29.0096 143.955 28.8627 144.412L28.0615 146.903C27.9443 147.267 27.6197 147.5 27.2686 147.5H27.218C26.6972 147.5 26.3081 147.251 26.1884 146.872C25.9257 146.04 25.7471 144.604 26.6164 142.732C26.6883 142.577 26.6763 142.396 26.5844 142.252C26.4926 142.108 26.3336 142.021 26.1629 142.021H22.7994C22.2197 142.021 21.8194 142.021 21.5154 141.993C21.2149 141.965 21.072 141.914 20.9821 141.856C20.7576 141.711 20.591 141.481 20.5204 141.209C20.4909 141.096 20.4873 140.933 20.5508 140.626C20.6149 140.316 20.733 139.92 20.9036 139.35L20.9045 139.347L21.6002 136.969L21.6032 136.958C21.9746 135.567 22.1321 135.011 22.4359 134.607C22.7161 134.235 23.0848 133.946 23.5042 133.768C23.9661 133.572 24.6329 133.5 26 133.5H32.5041ZM35.7588 141.466C35.6476 141.496 35.4971 141.5 35 141.5C34.5028 141.5 34.3523 141.496 34.2411 141.466C33.8961 141.373 33.6265 141.104 33.534 140.759C33.5043 140.648 33.5 140.497 33.5 140V134C33.5 133.503 33.5043 133.352 33.534 133.241C33.6265 132.896 33.8961 132.627 34.2411 132.534C34.3523 132.504 34.5028 132.5 35 132.5C35.4971 132.5 35.6476 132.504 35.7588 132.534C36.1039 132.627 36.3734 132.896 36.4659 133.241C36.4957 133.352 36.5 133.503 36.5 134V140C36.5 140.497 36.4957 140.648 36.4659 140.759C36.3734 141.104 36.1039 141.373 35.7588 141.466Z" fill="#5F5F6A"/>
</svg>
