<svg width="56" height="224" viewBox="0 0 56 224" fill="none" xmlns="http://www.w3.org/2000/svg">
<path d="M33.127 22.8735C33.6151 23.3616 33.6151 24.1531 33.127 24.6412L29.7682 28L33.127 31.3588C33.6151 31.8469 33.6151 32.6384 33.127 33.1265C32.6388 33.6147 31.8474 33.6147 31.3592 33.1265L28.0005 29.7678L24.6417 33.1265C24.1535 33.6147 23.3621 33.6147 22.8739 33.1265C22.3858 32.6384 22.3858 31.8469 22.8739 31.3588L26.2327 28L22.8739 24.6412C22.3858 24.1531 22.3858 23.3616 22.8739 22.8735C23.3621 22.3853 24.1535 22.3853 24.6417 22.8735L28.0005 26.2322L31.3592 22.8735C31.8474 22.3853 32.6388 22.3853 33.127 22.8735Z" fill="#5F5F6A"/>
<path d="M23.0507 79.0502C23.4412 78.6597 24.0744 78.6597 24.4649 79.0502L28.0005 82.5858L31.536 79.0502C31.9265 78.6597 32.5597 78.6597 32.9502 79.0502C33.3407 79.4408 33.3407 80.0739 32.9502 80.4645L29.4147 84L32.9502 87.5355C33.3407 87.9261 33.3407 88.5592 32.9502 88.9497C32.5597 89.3403 31.9265 89.3403 31.536 88.9497L28.0005 85.4142L24.4649 88.9497C24.0744 89.3403 23.4412 89.3403 23.0507 88.9497C22.6602 88.5592 22.6602 87.9261 23.0507 87.5355L26.5862 84L23.0507 80.4645C22.6602 80.0739 22.6602 79.4408 23.0507 79.0502Z" fill="#5F5F6A"/>
<path d="M23.2275 135.227C23.5204 134.934 23.9952 134.934 24.2881 135.227L28.0005 138.939L31.7128 135.227C32.0057 134.934 32.4805 134.934 32.7734 135.227C33.0663 135.52 33.0663 135.995 32.7734 136.288L29.0611 140L32.7734 143.712C33.0663 144.005 33.0663 144.48 32.7734 144.773C32.4805 145.066 32.0057 145.066 31.7128 144.773L28.0005 141.061L24.2881 144.773C23.9952 145.066 23.5204 145.066 23.2275 144.773C22.9346 144.48 22.9346 144.005 23.2275 143.712L26.9398 140L23.2275 136.288C22.9346 135.995 22.9346 135.52 23.2275 135.227Z" fill="#5F5F6A"/>
<path d="M23.4043 191.404C23.5995 191.209 23.9161 191.209 24.1114 191.404L28.0005 195.293L31.8895 191.404C32.0848 191.209 32.4014 191.209 32.5966 191.404C32.7919 191.599 32.7919 191.916 32.5966 192.111L28.7076 196L32.5966 199.889C32.7919 200.084 32.7919 200.401 32.5966 200.596C32.4014 200.791 32.0848 200.791 31.8895 200.596L28.0005 196.707L24.1114 200.596C23.9161 200.791 23.5995 200.791 23.4043 200.596C23.209 200.401 23.209 200.084 23.4043 199.889L27.2933 196L23.4043 192.111C23.209 191.916 23.209 191.599 23.4043 191.404Z" fill="#5F5F6A"/>
</svg>
