<svg width="56" height="168" viewBox="0 0 56 168" fill="none" xmlns="http://www.w3.org/2000/svg">
<path opacity="0.5" d="M25.25 22C25.25 20.4812 26.4812 19.25 28 19.25C29.5188 19.25 30.75 20.4812 30.75 22V22.5C30.75 22.9142 30.4142 23.25 30 23.25C29.5858 23.25 29.25 22.9142 29.25 22.5V22C29.25 21.3096 28.6904 20.75 28 20.75C27.3096 20.75 26.75 21.3096 26.75 22V22.5C26.75 22.9142 26.4142 23.25 26 23.25C25.5858 23.25 25.25 22.9142 25.25 22.5V22Z" fill="#5F5F6A"/>
<path d="M21.3759 23.916C21 23.25 21.5848 22.8754 21.5848 22.8754C22.0436 22.5798 22.5976 22.4144 23.1192 22.2753C24.1288 22.0061 25.6948 21.75 28 21.75C30.3051 21.75 31.8711 22.0061 32.8807 22.2753C33.3856 22.41 33.7511 22.5478 33.9999 22.6584C34.2034 22.7489 34.3095 22.8051 34.416 22.876C34.7606 23.1057 34.8538 23.5714 34.624 23.916C34.3963 24.2576 33.9368 24.3521 33.5931 24.13C33.5711 24.1167 33.2491 23.926 32.4942 23.7247C31.6288 23.4939 30.1948 23.25 28 23.25C23.8904 23.25 22.4541 24.1015 22.4068 24.1301C22.0631 24.3521 21.578 24.2741 21.3759 23.916Z" fill="#5F5F6A"/>
<path d="M23.2424 25.3939L24.2518 32.4596C24.3404 33.0798 24.4014 33.5033 24.474 33.8305C24.5445 34.1485 24.6151 34.32 24.6954 34.4452C24.8767 34.7277 25.1355 34.9521 25.4408 35.0917C25.5761 35.1535 25.7559 35.1991 26.0807 35.2239C26.4148 35.2495 26.8427 35.25 27.4691 35.25H28.8628C29.5168 35.25 29.9642 35.2495 30.3127 35.2222C30.6521 35.1956 30.8381 35.1469 30.9765 35.0813C31.2899 34.9326 31.5521 34.6942 31.7298 34.3963C31.8082 34.2648 31.8744 34.0842 31.933 33.7489C31.9932 33.4045 32.0362 32.9591 32.0982 32.3081L32.7533 25.4289C32.7926 25.0165 33.1587 24.7141 33.5711 24.7534C33.9834 24.7927 34.2859 25.1588 34.2466 25.5711L33.5886 32.4799C33.5301 33.0941 33.4821 33.5981 33.4106 34.0073C33.3363 34.4321 33.2279 34.8128 33.0181 35.1645C32.6882 35.7179 32.2012 36.1606 31.6191 36.4366C31.2491 36.6121 30.8598 36.6839 30.4299 36.7176C30.0158 36.75 29.5095 36.75 28.8925 36.75H27.4403C26.8498 36.75 26.3643 36.75 25.9662 36.7195C25.5522 36.6879 25.1769 36.6203 24.8173 36.4559C24.2503 36.1968 23.7697 35.78 23.433 35.2554C23.2194 34.9226 23.0995 34.5607 23.0096 34.1553C22.9231 33.7655 22.8545 33.2849 22.771 32.7003L21.7575 25.6061C21.6989 25.196 21.9838 24.8161 22.3939 24.7575C22.8039 24.699 23.1838 24.9839 23.2424 25.3939Z" fill="#5F5F6A"/>
<path d="M30.7479 77.8909C31.6377 77.9903 32.3392 78.1309 32.8807 78.2753C33.3856 78.41 33.7511 78.5478 33.9999 78.6584C34.2034 78.7489 34.3095 78.8051 34.416 78.876C34.7606 79.1057 34.8538 79.5714 34.624 79.916C34.3963 80.2576 33.9368 80.3521 33.5931 80.13C33.5711 80.1167 33.2491 79.926 32.4942 79.7247C31.6288 79.4939 30.1948 79.25 28 79.25C23.8904 79.25 22.4541 80.1015 22.4068 80.1301C22.0631 80.3521 21.578 80.2741 21.3759 79.916C21 79.25 21.5848 78.8754 21.5848 78.8754C22.0436 78.5798 22.5976 78.4144 23.1192 78.2753C23.6607 78.1309 24.3623 77.9903 25.2521 77.8909C25.3094 76.4227 26.5177 75.25 28 75.25C29.4823 75.25 30.6906 76.4227 30.7479 77.8909ZM26.77 77.7758C27.1544 77.7592 27.5639 77.75 28 77.75C28.436 77.75 28.8456 77.7592 29.23 77.7758C29.1243 77.1925 28.6138 76.75 28 76.75C27.3862 76.75 26.8757 77.1925 26.77 77.7758Z" fill="#5F5F6A"/>
<path d="M22.3939 80.7575C22.804 80.699 23.1839 80.9839 23.2424 81.3939L24.2518 88.4596C24.3404 89.0798 24.4014 89.5033 24.474 89.8305C24.5445 90.1485 24.6151 90.32 24.6954 90.4452C24.8767 90.7277 25.1355 90.9521 25.4408 91.0917C25.5761 91.1535 25.7559 91.1991 26.0807 91.2239C26.4148 91.2495 26.8427 91.25 27.4691 91.25H28.8628C29.5168 91.25 29.9642 91.2495 30.3127 91.2222C30.6521 91.1956 30.8381 91.1469 30.9765 91.0813C31.2899 90.9326 31.5521 90.6942 31.7298 90.3963C31.8082 90.2648 31.8744 90.0842 31.933 89.7489C31.9932 89.4045 32.0362 88.9591 32.0982 88.3081L32.7533 81.4289C32.7926 81.0165 33.1587 80.7141 33.5711 80.7534C33.9834 80.7927 34.2859 81.1588 34.2466 81.5711L33.5886 88.4799C33.5301 89.0941 33.4821 89.5981 33.4106 90.0073C33.3363 90.4321 33.2279 90.8128 33.0181 91.1645C32.6882 91.7179 32.2012 92.1606 31.6191 92.4366C31.2491 92.6121 30.8598 92.6839 30.4299 92.7176C30.0158 92.75 29.5095 92.75 28.8926 92.75H27.4403C26.8498 92.75 26.3643 92.75 25.9662 92.7195C25.5522 92.6879 25.1769 92.6203 24.8173 92.4559C24.2503 92.1968 23.7697 91.78 23.433 91.2554C23.2195 90.9226 23.0995 90.5607 23.0096 90.1553C22.9231 89.7655 22.8545 89.2849 22.771 88.7003L21.7575 81.6061C21.6989 81.196 21.9839 80.8161 22.3939 80.7575Z" fill="#5F5F6A"/>
<path d="M28 131.5C26.6193 131.5 25.5 132.619 25.5 134V134.116C24.5158 134.215 23.7557 134.364 23.1837 134.517C22.6909 134.648 22.3378 134.782 22.1017 134.887C21.9836 134.939 21.8949 134.985 21.8327 135.019C21.8015 135.036 21.7771 135.05 21.7588 135.061C21.7497 135.067 21.7422 135.071 21.7362 135.075L21.7283 135.08L21.7252 135.082L21.7239 135.083C21.7236 135.083 21.7227 135.084 22 135.5L21.7227 135.084C21.4929 135.237 21.4309 135.548 21.584 135.777C21.7363 136.006 22.044 136.068 22.2733 135.919L22.2771 135.916C22.2831 135.913 22.2952 135.906 22.3139 135.895C22.3513 135.875 22.4149 135.842 22.5078 135.801C22.6935 135.718 22.9968 135.602 23.4414 135.483C24.3308 135.246 25.7868 135 28.0001 135C30.2133 135 31.6693 135.246 32.5587 135.483C33.0034 135.602 33.3066 135.718 33.4923 135.801C33.5852 135.842 33.6488 135.875 33.6862 135.895C33.7049 135.906 33.717 135.913 33.723 135.916L33.7268 135.919C33.9561 136.068 34.2638 136.006 34.4161 135.777C34.5693 135.548 34.5072 135.237 34.2774 135.084L34.0001 135.5C34.2774 135.084 34.2777 135.084 34.2774 135.084L34.2762 135.083L34.2749 135.082L34.2718 135.08L34.2639 135.075C34.2579 135.071 34.2504 135.067 34.2413 135.061C34.223 135.05 34.1986 135.036 34.1674 135.019C34.1052 134.985 34.0165 134.939 33.8984 134.887C33.6623 134.782 33.3093 134.648 32.8164 134.517C32.2444 134.364 31.4843 134.215 30.5 134.116V134C30.5 132.619 29.3807 131.5 28 131.5ZM29.5 134.039C29.0399 134.014 28.5407 134 28.0001 134C27.4593 134 26.9601 134.014 26.5 134.039V134C26.5 133.172 27.1716 132.5 28 132.5C28.8284 132.5 29.5 133.172 29.5 134V134.039Z" fill="#5F5F6A"/>
<path d="M22.4292 137.005C22.7026 136.966 22.9559 137.156 22.9949 137.429L24.0043 144.495C24.0924 145.111 24.1548 145.546 24.2299 145.885C24.3037 146.217 24.3824 146.42 24.485 146.58C24.6922 146.903 24.9879 147.16 25.3369 147.319C25.5096 147.398 25.7219 147.447 26.0616 147.473C26.4075 147.5 26.8465 147.5 27.4691 147.5H28.8628C29.5128 147.5 29.9716 147.5 30.3322 147.471C30.6867 147.444 30.9066 147.391 31.0836 147.307C31.4418 147.137 31.7415 146.865 31.9445 146.524C32.0448 146.356 32.118 146.142 32.1792 145.792C32.2415 145.436 32.2854 144.979 32.347 144.332L33.0022 137.453C33.0284 137.178 33.2724 136.976 33.5473 137.002C33.8222 137.028 34.0239 137.273 33.9977 137.547L33.3406 144.447C33.2813 145.069 33.2341 145.565 33.1643 145.964C33.0926 146.374 32.9913 146.721 32.8034 147.037C32.4988 147.547 32.0493 147.956 31.512 148.211C31.1806 148.368 30.8252 148.436 30.4103 148.468C30.0061 148.5 29.5082 148.5 28.8835 148.5H27.449C26.851 148.5 26.3738 148.5 25.9852 148.47C25.5861 148.44 25.2435 148.376 24.9212 148.229C24.3978 147.989 23.9542 147.605 23.6434 147.12C23.452 146.822 23.3403 146.492 23.2536 146.101C23.1693 145.721 23.1018 145.248 23.0172 144.656L22.005 137.571C21.9659 137.297 22.1559 137.044 22.4292 137.005Z" fill="#5F5F6A"/>
</svg>
