<svg width="56" height="168" viewBox="0 0 56 168" fill="none" xmlns="http://www.w3.org/2000/svg">
<path d="M21.9697 34.5303C22.2626 34.8232 22.7374 34.8232 23.0303 34.5303L25.5303 32.0303C25.8232 31.7374 25.8232 31.2626 25.5303 30.9697C25.2374 30.6768 24.7626 30.6768 24.4697 30.9697L23.25 32.1893L23.25 22C23.25 21.5858 22.9142 21.25 22.5 21.25C22.0858 21.25 21.75 21.5858 21.75 22L21.75 32.1893L20.5303 30.9697C20.2374 30.6768 19.7626 30.6768 19.4697 30.9697C19.1768 31.2626 19.1768 31.7374 19.4697 32.0303L21.9697 34.5303Z" fill="#5F5F6A"/>
<path opacity="0.5" d="M28.25 33C28.25 33.4142 28.5858 33.75 29 33.75H36C36.4142 33.75 36.75 33.4142 36.75 33C36.75 32.5858 36.4142 32.25 36 32.25H29C28.5858 32.25 28.25 32.5858 28.25 33ZM27.25 29.5C27.25 29.9142 27.5858 30.25 28 30.25H33C33.4142 30.25 33.75 29.9142 33.75 29.5C33.75 29.0858 33.4142 28.75 33 28.75H28C27.5858 28.75 27.25 29.0858 27.25 29.5ZM27.25 26C27.25 26.4142 27.5858 26.75 28 26.75H31C31.4142 26.75 31.75 26.4142 31.75 26C31.75 25.5858 31.4142 25.25 31 25.25H28C27.5858 25.25 27.25 25.5858 27.25 26ZM27.25 23C27.25 23.4142 27.5858 23.75 28 23.75H29C29.4142 23.75 29.75 23.4142 29.75 23C29.75 22.5858 29.4142 22.25 29 22.25H28C27.5858 22.25 27.25 22.5858 27.25 23Z" fill="#5F5F6A"/>
<path d="M21.9697 90.5303C22.2626 90.8232 22.7374 90.8232 23.0303 90.5303L25.5303 88.0303C25.8232 87.7374 25.8232 87.2626 25.5303 86.9697C25.2374 86.6768 24.7626 86.6768 24.4697 86.9697L23.25 88.1893L23.25 78C23.25 77.5858 22.9142 77.25 22.5 77.25C22.0858 77.25 21.75 77.5858 21.75 78L21.75 88.1893L20.5303 86.9697C20.2374 86.6768 19.7626 86.6768 19.4697 86.9697C19.1768 87.2626 19.1768 87.7374 19.4697 88.0303L21.9697 90.5303Z" fill="#5F5F6A"/>
<path d="M28.25 89C28.25 89.4142 28.5858 89.75 29 89.75H36C36.4142 89.75 36.75 89.4142 36.75 89C36.75 88.5858 36.4142 88.25 36 88.25H29C28.5858 88.25 28.25 88.5858 28.25 89ZM27.25 85.5C27.25 85.9142 27.5858 86.25 28 86.25H33C33.4142 86.25 33.75 85.9142 33.75 85.5C33.75 85.0858 33.4142 84.75 33 84.75H28C27.5858 84.75 27.25 85.0858 27.25 85.5ZM27.25 82C27.25 82.4142 27.5858 82.75 28 82.75H31C31.4142 82.75 31.75 82.4142 31.75 82C31.75 81.5858 31.4142 81.25 31 81.25H28C27.5858 81.25 27.25 81.5858 27.25 82ZM27.25 79C27.25 79.4142 27.5858 79.75 28 79.75H29C29.4142 79.75 29.75 79.4142 29.75 79C29.75 78.5858 29.4142 78.25 29 78.25H28C27.5858 78.25 27.25 78.5858 27.25 79Z" fill="#5F5F6A"/>
<path d="M22.8536 146.354C22.6583 146.549 22.3417 146.549 22.1464 146.354L19.6464 143.854C19.4512 143.658 19.4512 143.342 19.6464 143.146C19.8417 142.951 20.1583 142.951 20.3536 143.146L22 144.793L22 134C22 133.724 22.2239 133.5 22.5 133.5C22.7761 133.5 23 133.724 23 134L23 144.793L24.6464 143.146C24.8417 142.951 25.1583 142.951 25.3536 143.146C25.5488 143.342 25.5488 143.658 25.3536 143.854L22.8536 146.354Z" fill="#5F5F6A"/>
<path d="M29 145.5C28.7239 145.5 28.5 145.276 28.5 145C28.5 144.724 28.7239 144.5 29 144.5H36C36.2761 144.5 36.5 144.724 36.5 145C36.5 145.276 36.2761 145.5 36 145.5H29Z" fill="#5F5F6A"/>
<path d="M28 142C27.7239 142 27.5 141.776 27.5 141.5C27.5 141.224 27.7239 141 28 141H33C33.2761 141 33.5 141.224 33.5 141.5C33.5 141.776 33.2761 142 33 142H28Z" fill="#5F5F6A"/>
<path d="M28 138.5C27.7239 138.5 27.5 138.276 27.5 138C27.5 137.724 27.7239 137.5 28 137.5H31C31.2761 137.5 31.5 137.724 31.5 138C31.5 138.276 31.2761 138.5 31 138.5H28Z" fill="#5F5F6A"/>
<path d="M28 135.5C27.7239 135.5 27.5 135.276 27.5 135C27.5 134.724 27.7239 134.5 28 134.5H29C29.2761 134.5 29.5 134.724 29.5 135C29.5 135.276 29.2761 135.5 29 135.5H28Z" fill="#5F5F6A"/>
</svg>
