<svg width="56" height="224" viewBox="0 0 56 224" fill="none" xmlns="http://www.w3.org/2000/svg">
<path fill-rule="evenodd" clip-rule="evenodd" d="M25.2233 19.1081C24.9063 18.8147 24.4114 18.8339 24.1179 19.1509C23.8245 19.468 23.8437 19.9629 24.1608 20.2563L25.8508 21.8202H22.5243C20.6523 21.8202 19.1348 23.3378 19.1348 25.2098V32.5104C19.1348 34.3824 20.6523 35.9 22.5243 35.9H33.4753C35.3473 35.9 36.8648 34.3824 36.8648 32.5104V25.2098C36.8648 23.3378 35.3473 21.8202 33.4753 21.8202H30.156L31.846 20.2563C32.1631 19.9629 32.1823 19.468 31.8889 19.1509C31.5955 18.8339 31.1006 18.8147 30.7835 19.1081L28.0034 21.6807L25.2233 19.1081ZM24.0888 24.1669C22.6487 24.1669 21.4814 25.3342 21.4814 26.7742V30.946C21.4814 32.386 22.6487 33.5534 24.0888 33.5534H29.3035C30.7435 33.5534 31.9108 32.386 31.9108 30.946V26.7742C31.9108 25.3342 30.7435 24.1669 29.3035 24.1669H24.0888ZM33.736 26.7742C34.168 26.7742 34.5182 26.424 34.5182 25.992C34.5182 25.56 34.168 25.2098 33.736 25.2098C33.304 25.2098 32.9538 25.56 32.9538 25.992C32.9538 26.424 33.304 26.7742 33.736 26.7742ZM33.736 29.5902C34.168 29.5902 34.5182 29.24 34.5182 28.808C34.5182 28.376 34.168 28.0258 33.736 28.0258C33.304 28.0258 32.9538 28.376 32.9538 28.808C32.9538 29.24 33.304 29.5902 33.736 29.5902Z" fill="#5F5F6A"/>
<rect x="22.0039" y="80.6883" width="9.38651" height="8.34356" rx="2.08589" fill="#5F5F6A" stroke="#71717A" stroke-width="1.04295"/>
<path opacity="0.5" fill-rule="evenodd" clip-rule="evenodd" d="M25.2233 75.1081C24.9063 74.8147 24.4114 74.8339 24.1179 75.1509C23.8245 75.468 23.8437 75.9629 24.1608 76.2563L25.8508 77.8202H22.5243C20.6523 77.8202 19.1348 79.3378 19.1348 81.2098V88.5104C19.1348 90.3824 20.6523 91.9 22.5243 91.9H33.4753C35.3473 91.9 36.8648 90.3824 36.8648 88.5104V81.2098C36.8648 79.3378 35.3473 77.8202 33.4753 77.8202H30.156L31.846 76.2563C32.1631 75.9629 32.1823 75.468 31.8889 75.1509C31.5955 74.8339 31.1006 74.8147 30.7835 75.1081L28.0034 77.6807L25.2233 75.1081ZM34.5182 81.992C34.5182 82.424 34.168 82.7742 33.736 82.7742C33.304 82.7742 32.9538 82.424 32.9538 81.992C32.9538 81.56 33.304 81.2098 33.736 81.2098C34.168 81.2098 34.5182 81.56 34.5182 81.992ZM34.5182 84.808C34.5182 85.24 34.168 85.5902 33.736 85.5902C33.304 85.5902 32.9538 85.24 32.9538 84.808C32.9538 84.376 33.304 84.0258 33.736 84.0258C34.168 84.0258 34.5182 84.376 34.5182 84.808Z" fill="#5F5F6A"/>
<path d="M24.0887 136.688C22.9367 136.688 22.0029 137.622 22.0029 138.774V142.946C22.0029 144.098 22.9367 145.032 24.0887 145.032H29.3035C30.4555 145.032 31.3894 144.098 31.3894 142.946V138.774C31.3894 137.622 30.4555 136.688 29.3035 136.688H24.0887Z" fill="#5F5F6A"/>
<path d="M34.5182 137.992C34.5182 138.424 34.168 138.774 33.736 138.774C33.304 138.774 32.9538 138.424 32.9538 137.992C32.9538 137.56 33.304 137.21 33.736 137.21C34.168 137.21 34.5182 137.56 34.5182 137.992Z" fill="#5F5F6A"/>
<path d="M33.736 141.59C34.168 141.59 34.5182 141.24 34.5182 140.808C34.5182 140.376 34.168 140.026 33.736 140.026C33.304 140.026 32.9538 140.376 32.9538 140.808C32.9538 141.24 33.304 141.59 33.736 141.59Z" fill="#5F5F6A"/>
<path fill-rule="evenodd" clip-rule="evenodd" d="M25.2233 131.108C24.9062 130.815 24.4114 130.834 24.1179 131.151C23.8245 131.468 23.8437 131.963 24.1608 132.256L25.8508 133.82H22.5243C20.6523 133.82 19.1348 135.338 19.1348 137.21V144.51C19.1348 146.382 20.6523 147.9 22.5243 147.9H33.4752C35.3472 147.9 36.8648 146.382 36.8648 144.51V137.21C36.8648 135.338 35.3472 133.82 33.4752 133.82H30.156L31.846 132.256C32.1631 131.963 32.1823 131.468 31.8889 131.151C31.5954 130.834 31.1005 130.815 30.7835 131.108L28.0034 133.681L25.2233 131.108ZM20.6992 137.21C20.6992 136.202 21.5163 135.385 22.5243 135.385H33.4752C34.4832 135.385 35.3004 136.202 35.3004 137.21V144.51C35.3004 145.518 34.4832 146.336 33.4752 146.336H22.5243C21.5163 146.336 20.6992 145.518 20.6992 144.51V137.21Z" fill="#5F5F6A"/>
<path fill-rule="evenodd" clip-rule="evenodd" d="M21.2749 194.754C21.2749 193.269 22.4792 192.065 23.9648 192.065H29.3446C30.8301 192.065 32.0344 193.269 32.0344 194.754V199.058C32.0344 200.544 30.8301 201.748 29.3446 201.748H23.9648C22.4792 201.748 21.2749 200.544 21.2749 199.058V194.754ZM23.9648 193.14C23.0735 193.14 22.3509 193.863 22.3509 194.754V199.058C22.3509 199.95 23.0735 200.672 23.9648 200.672H29.3446C30.2359 200.672 30.9585 199.95 30.9585 199.058V194.754C30.9585 193.863 30.2359 193.14 29.3446 193.14H23.9648Z" fill="#5F5F6A"/>
<path d="M33.9174 194.754C34.363 194.754 34.7243 194.393 34.7243 193.947C34.7243 193.502 34.363 193.14 33.9174 193.14C33.4717 193.14 33.1104 193.502 33.1104 193.947C33.1104 194.393 33.4717 194.754 33.9174 194.754Z" fill="#5F5F6A"/>
<path d="M33.9174 197.659C34.363 197.659 34.7243 197.298 34.7243 196.853C34.7243 196.407 34.363 196.046 33.9174 196.046C33.4717 196.046 33.1104 196.407 33.1104 196.853C33.1104 197.298 33.4717 197.659 33.9174 197.659Z" fill="#5F5F6A"/>
<path fill-rule="evenodd" clip-rule="evenodd" d="M24.1924 187.073C24.3942 186.855 24.7345 186.841 24.9526 187.043L28.0034 189.866L31.0541 187.043C31.2722 186.841 31.6126 186.855 31.8144 187.073C32.0162 187.291 32.003 187.631 31.7849 187.833L29.5374 189.913H33.6484C35.4311 189.913 36.8762 191.358 36.8762 193.14V200.672C36.8762 202.455 35.4311 203.9 33.6484 203.9H22.3509C20.5682 203.9 19.123 202.455 19.123 200.672V193.14C19.123 191.358 20.5682 189.913 22.3509 189.913H26.4694L24.2218 187.833C24.0038 187.631 23.9906 187.291 24.1924 187.073ZM20.199 193.14C20.199 191.952 21.1624 190.989 22.3509 190.989H33.6484C34.8368 190.989 35.8003 191.952 35.8003 193.14V200.672C35.8003 201.861 34.8368 202.824 33.6484 202.824H22.3509C21.1624 202.824 20.199 201.861 20.199 200.672V193.14Z" fill="#5F5F6A"/>
</svg>
