<svg width="56" height="168" viewBox="0 0 56 168" fill="none" xmlns="http://www.w3.org/2000/svg">
<path fill-rule="evenodd" clip-rule="evenodd" d="M26 19.75C24.6953 19.75 23.671 20.7756 23.671 22C23.671 23.2244 24.6953 24.25 26 24.25C27.3047 24.25 28.3289 23.2244 28.3289 22C28.3289 20.7756 27.3047 19.75 26 19.75ZM22.171 22C22.171 19.9107 23.9038 18.25 26 18.25C28.0961 18.25 29.8289 19.9107 29.8289 22C29.8289 24.0893 28.0961 25.75 26 25.75C23.9038 25.75 22.171 24.0893 22.171 22ZM23.4706 27.9663C23.289 27.8489 23.1514 27.8417 23.0875 27.8593C22.9438 27.8989 22.8008 27.9414 22.6586 27.9869L21.6742 28.3021C20.9669 28.5284 20.4304 29.0566 20.206 29.7059C20.1842 29.769 20.1676 29.8527 20.1544 29.9777L19.7634 33.6766L19.7615 33.6898C19.6867 34.2167 19.9675 34.62 20.3945 34.7191C21.4718 34.9691 23.2859 35.25 26 35.25C26.4142 35.25 26.75 35.5858 26.75 36C26.75 36.4142 26.4142 36.75 26 36.75C23.1821 36.75 21.2535 36.4583 20.0555 36.1803C18.7667 35.8812 18.114 34.6695 18.2744 33.4933L18.6627 29.82C18.6809 29.6478 18.7125 29.4351 18.7883 29.2158C19.1724 28.1048 20.0749 27.239 21.2169 26.8735L22.2013 26.5583C22.3631 26.5065 22.5258 26.4581 22.6893 26.4131C23.3008 26.2448 23.8819 26.446 24.2851 26.7068C24.6552 26.9461 25.2593 27.2356 26 27.2356C26.7407 27.2356 27.3448 26.9461 27.7148 26.7068C28.1181 26.446 28.6992 26.2448 29.3107 26.4131C29.4741 26.4581 29.6368 26.5065 29.7986 26.5583L30.783 26.8735C31.1775 26.9997 31.395 27.4219 31.2687 27.8164C31.1424 28.2109 30.7203 28.4283 30.3258 28.3021L29.3414 27.9869C29.1991 27.9414 29.0561 27.8989 28.9125 27.8593C28.8485 27.8417 28.7109 27.8489 28.5294 27.9663C28.0165 28.298 27.1292 28.7356 26 28.7356C24.8707 28.7356 23.9835 28.298 23.4706 27.9663Z" fill="#5F5F6A"/>
<path opacity="0.5" fill-rule="evenodd" clip-rule="evenodd" d="M31.1505 32.1286C30.8277 32.5388 30.7404 32.8825 30.7508 33.1707C30.7621 33.4815 30.8911 33.8207 31.1509 34.1925C31.6864 34.9585 32.6251 35.6555 33.4712 36.2414C33.4877 36.2528 33.5106 36.253 33.5276 36.2412C34.3795 35.6525 35.318 34.9556 35.8518 34.1908C36.1107 33.8198 36.2386 33.4815 36.2493 33.1714C36.2592 32.8834 36.1711 32.5394 35.8475 32.1285C35.3481 31.628 34.6548 31.6424 34.1631 32.0615C33.7824 32.386 33.2157 32.386 32.835 32.0616C32.3431 31.6425 31.6508 31.6278 31.1505 32.1286ZM33.499 30.6907C32.4529 30.0192 31.0352 30.0813 30.0463 31.1124L30.0239 31.1357L30.0037 31.1609C29.4722 31.8203 29.2261 32.5174 29.2518 33.2251C29.2769 33.9163 29.558 34.5318 29.9215 35.0518C30.6327 36.0693 31.7938 36.9044 32.6172 37.4746C33.1475 37.8418 33.8502 37.8416 34.3804 37.4752C35.21 36.9019 36.3718 36.0667 37.0818 35.0493C37.4448 34.5292 37.7247 33.9138 37.7484 33.2228C37.7727 32.5157 37.5255 31.8195 36.9943 31.1607L36.9742 31.1358L36.952 31.1127C35.9638 30.0812 34.545 30.0192 33.499 30.6907Z" fill="#5F5F6A"/>
<path fill-rule="evenodd" clip-rule="evenodd" d="M23.671 78C23.671 76.7756 24.6953 75.75 26 75.75C27.3047 75.75 28.3289 76.7756 28.3289 78C28.3289 79.2244 27.3047 80.25 26 80.25C24.6953 80.25 23.671 79.2244 23.671 78ZM26 74.25C23.9038 74.25 22.171 75.9107 22.171 78C22.171 80.0893 23.9038 81.75 26 81.75C28.0961 81.75 29.8289 80.0893 29.8289 78C29.8289 75.9107 28.0961 74.25 26 74.25ZM23.0875 83.8593C23.1514 83.8417 23.289 83.8489 23.4706 83.9663C23.9835 84.298 24.8707 84.7356 26 84.7356C27.1292 84.7356 28.0165 84.298 28.5294 83.9663C28.7109 83.8489 28.8485 83.8417 28.9125 83.8593C29.0561 83.8989 29.1991 83.9414 29.3414 83.9869L30.3258 84.3021C30.7203 84.4283 31.1424 84.2109 31.2687 83.8164C31.395 83.4219 31.1775 82.9997 30.783 82.8735L29.7986 82.5583C29.6368 82.5065 29.4741 82.4581 29.3107 82.4131C28.6992 82.2448 28.1181 82.446 27.7148 82.7068C27.3448 82.9461 26.7407 83.2356 26 83.2356C25.2593 83.2356 24.6552 82.9461 24.2851 82.7068C23.8819 82.446 23.3008 82.2448 22.6893 82.4131C22.5258 82.4581 22.3631 82.5065 22.2013 82.5583L21.2169 82.8735C20.0749 83.239 19.1724 84.1048 18.7883 85.2158C18.7125 85.4351 18.6809 85.6478 18.6627 85.82L18.2744 89.4933C18.114 90.6695 18.7667 91.8812 20.0555 92.1803C21.2535 92.4583 23.1821 92.75 26 92.75C26.4142 92.75 26.75 92.4142 26.75 92C26.75 91.5858 26.4142 91.25 26 91.25C23.2859 91.25 21.4718 90.9691 20.3945 90.7191C19.9675 90.62 19.6867 90.2167 19.7615 89.6898L19.7634 89.6766L20.1544 85.9777C20.1676 85.8527 20.1842 85.769 20.206 85.7059C20.4304 85.0566 20.9669 84.5284 21.6742 84.3021L22.6586 83.9869C22.8008 83.9414 22.9438 83.8989 23.0875 83.8593ZM30.7508 89.1707C30.7404 88.8825 30.8277 88.5388 31.1505 88.1286C31.6508 87.6278 32.3431 87.6425 32.835 88.0616C33.2157 88.386 33.7824 88.386 34.1631 88.0615C34.6548 87.6424 35.3481 87.628 35.8475 88.1285C36.1711 88.5394 36.2592 88.8834 36.2493 89.1714C36.2386 89.4815 36.1107 89.8198 35.8518 90.1908C35.318 90.9556 34.3795 91.6525 33.5276 92.2412C33.5106 92.253 33.4877 92.2528 33.4712 92.2414C32.6251 91.6555 31.6864 90.9585 31.1509 90.1925C30.8911 89.8207 30.7621 89.4815 30.7508 89.1707ZM30.0463 87.1124C31.0352 86.0813 32.4529 86.0192 33.499 86.6907C34.545 86.0192 35.9638 86.0812 36.952 87.1127L36.9742 87.1358L36.9943 87.1607C37.5255 87.8195 37.7727 88.5157 37.7484 89.2228C37.7247 89.9138 37.4448 90.5292 37.0818 91.0493C36.3718 92.0667 35.21 92.9019 34.3804 93.4752C33.8502 93.8416 33.1475 93.8418 32.6172 93.4746C31.7938 92.9044 30.6327 92.0693 29.9215 91.0518C29.558 90.5318 29.2769 89.9163 29.2518 89.2251C29.2261 88.5174 29.4722 87.8203 30.0037 87.1609L30.0239 87.1357L30.0463 87.1124Z" fill="#5F5F6A"/>
<path fill-rule="evenodd" clip-rule="evenodd" d="M23.421 134C23.421 132.631 24.5633 131.5 25.9999 131.5C27.4365 131.5 28.5788 132.631 28.5788 134C28.5788 135.369 27.4365 136.5 25.9999 136.5C24.5633 136.5 23.421 135.369 23.421 134ZM25.9999 130.5C24.0356 130.5 22.421 132.055 22.421 134C22.421 135.945 24.0356 137.5 25.9999 137.5C27.9642 137.5 29.5788 135.945 29.5788 134C29.5788 132.055 27.9642 130.5 25.9999 130.5ZM23.021 139.618C23.1763 139.576 23.3878 139.615 23.6063 139.756C24.0953 140.073 24.9354 140.486 25.9999 140.486C27.0644 140.486 27.9045 140.073 28.3935 139.756C28.612 139.615 28.8235 139.576 28.9787 139.618C29.1257 139.659 29.272 139.702 29.4175 139.749L30.4019 140.064C30.6649 140.148 30.9463 140.003 31.0305 139.74C31.1147 139.477 30.9698 139.196 30.7068 139.112L29.7224 138.796C29.5638 138.746 29.4044 138.698 29.2442 138.654C28.724 138.511 28.2168 138.68 27.8505 138.917C27.4567 139.171 26.8054 139.486 25.9999 139.486C25.1944 139.486 24.5431 139.171 24.1493 138.917C23.783 138.68 23.2758 138.511 22.7556 138.654C22.5954 138.698 22.436 138.746 22.2774 138.796L21.293 139.112C20.275 139.437 19.4638 140.186 19.0796 141.149L19.0791 141.151L19.0778 141.154C19.0767 141.157 19.0742 141.163 19.0713 141.172C19.0643 141.192 19.06 141.208 19.0583 141.215C19.0566 141.221 19.0507 141.241 19.0342 141.295C19.0113 141.37 18.9566 141.591 18.9421 141.668C18.9154 141.808 18.9084 141.874 18.8971 141.98L18.5225 145.523C18.375 146.592 18.9657 147.671 20.1119 147.937C21.2898 148.21 23.1994 148.5 25.9999 148.5C26.276 148.5 26.4999 148.276 26.4999 148C26.4999 147.724 26.276 147.5 25.9999 147.5C23.2686 147.5 21.4353 147.217 20.338 146.963C19.7664 146.83 19.4236 146.29 19.5139 145.655L19.5152 145.646L19.8919 142.083C19.9016 141.991 19.9053 141.955 19.9245 141.854C19.9245 141.854 19.9247 141.853 19.9253 141.85L19.9275 141.84L19.9349 141.808C19.9408 141.782 19.9481 141.752 19.9558 141.721C19.9634 141.69 19.9711 141.66 19.9777 141.634L19.9863 141.602L19.9892 141.592C19.99 141.589 19.9903 141.588 19.9903 141.588C20.0037 141.544 20.0121 141.516 20.0176 141.497C20.2917 140.83 20.8642 140.299 21.5979 140.064L22.5823 139.749C22.7278 139.702 22.8741 139.659 23.021 139.618ZM30.501 145.18C30.488 144.821 30.602 144.417 30.9631 143.963C31.5622 143.352 32.4094 143.371 32.9972 143.871C33.2844 144.116 33.7137 144.116 34.0009 143.871C34.5884 143.37 35.4368 143.353 36.0349 143.963C36.3966 144.417 36.5114 144.822 36.4991 145.18C36.4863 145.554 36.333 145.938 36.0568 146.334C35.4936 147.141 34.5179 147.861 33.6698 148.447C33.5672 148.518 33.431 148.518 33.3288 148.447C32.4865 147.864 31.5108 147.144 30.946 146.336C30.6689 145.939 30.5146 145.554 30.501 145.18ZM30.2267 143.285C31.1699 142.302 32.536 142.286 33.499 142.994C34.4618 142.286 35.8292 142.302 36.7715 143.286L36.7863 143.301L36.7997 143.318C37.2992 143.937 37.5204 144.576 37.4985 145.214C37.477 145.842 37.2225 146.411 36.8768 146.906C36.1961 147.882 35.0716 148.694 34.2383 149.27C33.7936 149.577 33.2042 149.577 32.7595 149.269C31.9324 148.696 30.8083 147.884 30.1264 146.909C29.7802 146.413 29.5244 145.844 29.5017 145.216C29.4785 144.577 29.6987 143.938 30.1983 143.318L30.2118 143.301L30.2267 143.285Z" fill="#5F5F6A"/>
</svg>
