<svg width="56" height="168" viewBox="0 0 56 168" fill="none" xmlns="http://www.w3.org/2000/svg">
<path d="M24.1177 25C24.1177 24.3292 24.2945 23.6974 24.6045 23.1512C24.7129 23.253 25.1 23.5651 25.9645 23.7811C25.9515 23.8131 25.9361 23.8447 25.9182 23.8755C25.7272 24.2057 25.6177 24.5889 25.6177 25C25.6177 26.2426 26.625 27.25 27.8677 27.25C29.1103 27.25 30.1177 26.2426 30.1177 25C30.1177 24.16 29.8165 23.7811 29.8165 23.7811C29.8165 23.7811 30.9886 23.2288 31.1035 23.1512C31.3647 23.6629 31.6177 24.3879 31.6177 25C31.6177 27.0711 29.9387 28.75 27.8677 28.75C25.7966 28.75 24.1177 27.0711 24.1177 25Z" fill="#5F5F6A"/>
<path d="M31.1035 29.4145C30.4933 29.2421 29.9162 29.4491 29.5206 29.7117C29.1616 29.95 28.5792 30.2356 27.8677 30.2356C27.1561 30.2356 26.5738 29.95 26.2147 29.7117C25.8192 29.4491 25.2421 29.2421 24.6319 29.4145C24.4722 29.4596 24.3132 29.5082 24.1551 29.5601L23.1959 29.8752C21.9827 30.2738 21.0541 31.258 20.7413 32.4912L20.7348 32.5168L20.3962 34.3993C20.181 35.5956 20.8051 36.885 22.132 37.1946C23.3065 37.4686 25.1697 37.75 27.8677 37.75C30.5657 37.75 32.4289 37.4686 33.6034 37.1946C34.9303 36.885 35.5544 35.5956 35.3392 34.3993L35.0006 32.5168L34.9941 32.4912C34.6813 31.258 33.7527 30.2738 32.5394 29.8752L31.5803 29.5601C31.4221 29.5082 31.2632 29.4596 31.1035 29.4145ZM30.3501 30.9614C30.5244 30.8458 30.6476 30.8444 30.6955 30.858C30.8351 30.8974 30.9739 30.9398 31.1121 30.9852L32.0713 31.3003C32.7962 31.5384 33.3434 32.119 33.534 32.8364L33.8629 34.6649C33.9635 35.224 33.6726 35.6382 33.2626 35.7338C32.2093 35.9795 30.461 36.25 27.8677 36.25C25.2743 36.25 23.5261 35.9795 22.4727 35.7338C22.0627 35.6382 21.7719 35.224 21.8725 34.6649L22.2014 32.8364C22.392 32.119 22.9392 31.5384 23.6641 31.3003L24.6233 30.9852C24.7614 30.9398 24.9003 30.8974 25.0398 30.858C25.0878 30.8444 25.211 30.8458 25.3852 30.9614C25.8864 31.2941 26.7572 31.7356 27.8677 31.7356C28.9781 31.7356 29.8489 31.2941 30.3501 30.9614Z" fill="#5F5F6A"/>
<g opacity="0.5">
<path d="M24.0045 20.7816C23.9614 20.5573 24.2358 20.3691 24.4452 20.4605C25.2053 20.7925 26.5859 21.0678 27.6376 19.4294C27.7481 19.2573 28.0168 19.2573 28.1273 19.4294C29.179 21.0678 30.5597 20.7925 31.3198 20.4605C31.5291 20.3691 31.8036 20.5573 31.7604 20.7816L31.311 23.1177C31.311 23.1177 30.5491 24 27.8825 24C25.2158 24 24.4539 23.1177 24.4539 23.1177L24.0045 20.7816Z" fill="#5F5F6A"/>
<path d="M20.2251 26.1429C20.2251 24.6832 21.4083 23.5 22.8679 23.5C24.3276 23.5 25.5108 24.6832 25.5108 26.1429C25.5108 27.6025 24.3276 28.7857 22.8679 28.7857C21.4083 28.7857 20.2251 27.6025 20.2251 26.1429ZM22.8679 24.5C21.9606 24.5 21.2251 25.2355 21.2251 26.1429C21.2251 27.0502 21.9606 27.7857 22.8679 27.7857C23.7753 27.7857 24.5108 27.0502 24.5108 26.1429C24.5108 25.2355 23.7753 24.5 22.8679 24.5Z" fill="#5F5F6A"/>
<path d="M20.8188 29.2973C21.1659 29.2048 21.494 29.3191 21.72 29.483C21.8099 29.5483 21.9336 29.6278 22.085 29.7009C22.3337 29.821 22.4379 30.12 22.3178 30.3686C22.1977 30.6173 21.8987 30.7215 21.6501 30.6014C21.4362 30.4981 21.2618 30.386 21.1329 30.2926C21.111 30.2767 21.0916 30.2689 21.0794 30.2659C21.0762 30.2651 21.0725 30.2646 21.0725 30.2646C20.9379 30.3006 20.8041 30.3404 20.6712 30.3841L19.9861 30.6091C19.4596 30.7821 19.0611 31.2027 18.92 31.7234L18.6365 33.7717C18.5807 34.1746 18.7932 34.4769 19.0969 34.5492C19.3211 34.6026 19.591 34.6579 19.9096 34.7093C20.1822 34.7532 20.3676 35.0098 20.3237 35.2825C20.2797 35.5551 20.0231 35.7405 19.7505 35.6965C19.4081 35.6413 19.114 35.5812 18.8653 35.522C17.9712 35.3091 17.5329 34.4513 17.6459 33.6346L17.9373 31.5294L17.9441 31.5025C18.1645 30.6337 18.8188 29.94 19.674 29.6591L20.3591 29.434C20.5113 29.384 20.6646 29.3384 20.8188 29.2973Z" fill="#5F5F6A"/>
<path d="M34.1477 29.483C34.3737 29.3191 34.7018 29.2048 35.0488 29.2973C35.2031 29.3384 35.3564 29.384 35.5086 29.434L36.1937 29.6591C37.0489 29.94 37.7031 30.6337 37.9235 31.5025L37.9304 31.5294L38.2218 33.6346C38.3348 34.4513 37.8965 35.3091 37.0024 35.522C36.7537 35.5812 36.4596 35.6413 36.1172 35.6965C35.8446 35.7405 35.5879 35.5551 35.544 35.2825C35.5001 35.0098 35.6854 34.7532 35.9581 34.7093C36.2766 34.6579 36.5465 34.6026 36.7708 34.5492C37.0745 34.4769 37.287 34.1746 37.2312 33.7717L36.9477 31.7234C36.8065 31.2027 36.4081 30.7821 35.8816 30.6091L35.1965 30.3841C35.0636 30.3404 34.9298 30.3006 34.7952 30.2646L34.794 30.2648C34.794 30.2648 34.7907 30.2653 34.7883 30.2659C34.7761 30.2689 34.7566 30.2767 34.7348 30.2926C34.6059 30.386 34.4315 30.4981 34.2176 30.6014C33.9689 30.7215 33.67 30.6173 33.5499 30.3686C33.4298 30.12 33.534 29.821 33.7826 29.7009C33.934 29.6278 34.0577 29.5483 34.1477 29.483Z" fill="#5F5F6A"/>
<path d="M32.8679 23.5C31.4083 23.5 30.2251 24.6832 30.2251 26.1429C30.2251 27.6025 31.4083 28.7857 32.8679 28.7857C34.3276 28.7857 35.5108 27.6025 35.5108 26.1429C35.5108 24.6832 34.3276 23.5 32.8679 23.5ZM31.2251 26.1429C31.2251 25.2355 31.9606 24.5 32.8679 24.5C33.7753 24.5 34.5108 25.2355 34.5108 26.1429C34.5108 27.0502 33.7753 27.7857 32.8679 27.7857C31.9606 27.7857 31.2251 27.0502 31.2251 26.1429Z" fill="#5F5F6A"/>
</g>
<path d="M24.0045 76.7816C23.9614 76.5573 24.2358 76.3691 24.4452 76.4605C25.2053 76.7925 26.5859 77.0678 27.6376 75.4294C27.7481 75.2573 28.0168 75.2573 28.1273 75.4294C29.179 77.0678 30.5597 76.7925 31.3198 76.4605C31.5291 76.3691 31.8036 76.5573 31.7604 76.7816L31.311 79.1177C31.311 79.1177 31.2644 79.1716 31.1539 79.2529C31.252 79.4565 31.3466 79.6876 31.4246 79.9286C31.8395 79.6576 32.3353 79.5 32.8679 79.5C34.3276 79.5 35.5108 80.6832 35.5108 82.1429C35.5108 83.6025 34.3276 84.7857 32.8679 84.7857C31.9219 84.7857 31.092 84.2887 30.6251 83.5415C29.9399 84.2846 28.9581 84.75 27.8677 84.75C26.7774 84.75 25.7958 84.2847 25.1106 83.5419C24.6436 84.2888 23.8138 84.7857 22.8679 84.7857C21.4083 84.7857 20.2251 83.6025 20.2251 82.1429C20.2251 80.6832 21.4083 79.5 22.8679 79.5C23.3869 79.5 23.871 79.6496 24.2794 79.908C24.3525 79.6674 24.4492 79.4369 24.5668 79.2193C24.4879 79.1571 24.4539 79.1177 24.4539 79.1177L24.0045 76.7816ZM25.9536 79.8066C25.9431 79.8299 25.9313 79.8529 25.9182 79.8755C25.7272 80.2057 25.6177 80.5889 25.6177 81C25.6177 82.2426 26.625 83.25 27.8677 83.25C29.1103 83.25 30.1177 82.2426 30.1177 81C30.1177 80.2733 29.8923 79.8917 29.8314 79.802C29.339 79.917 28.7003 80 27.8825 80C27.0757 80 26.4433 79.9193 25.9536 79.8066ZM22.8679 80.5C21.9606 80.5 21.2251 81.2355 21.2251 82.1429C21.2251 83.0502 21.9606 83.7857 22.8679 83.7857C23.6307 83.7857 24.2721 83.2659 24.4571 82.5611C24.2493 82.1079 24.1292 81.606 24.1185 81.0773C23.8171 80.724 23.3687 80.5 22.8679 80.5ZM32.8679 83.7857C33.7753 83.7857 34.5108 83.0502 34.5108 82.1429C34.5108 81.2355 33.7753 80.5 32.8679 80.5C32.3669 80.5 31.9182 80.7243 31.6169 81.078C31.6061 81.6062 31.4861 82.1075 31.2786 82.5604C31.4634 83.2655 32.1049 83.7857 32.8679 83.7857Z" fill="#5F5F6A"/>
<path d="M31.1035 85.4145C30.4933 85.2421 29.9162 85.4491 29.5206 85.7117C29.1616 85.95 28.5792 86.2356 27.8677 86.2356C27.1561 86.2356 26.5738 85.95 26.2147 85.7117C25.8192 85.4491 25.2421 85.2421 24.6319 85.4145C24.4722 85.4596 24.3132 85.5082 24.1551 85.5601L23.1959 85.8752C22.8956 85.9739 22.6128 86.1084 22.3524 86.2737C22.4097 86.0482 22.3027 85.8061 22.085 85.7009C21.9336 85.6278 21.8099 85.5483 21.72 85.483C21.494 85.3191 21.1659 85.2048 20.8188 85.2973C20.6646 85.3384 20.5113 85.384 20.3591 85.434L19.674 85.6591C18.8188 85.94 18.1645 86.6337 17.9441 87.5025L17.9373 87.5294L17.6459 89.6346C17.5329 90.4513 17.9712 91.3091 18.8653 91.522C19.114 91.5812 19.4081 91.6413 19.7505 91.6965C20.0231 91.7405 20.2797 91.5551 20.3237 91.2825C20.3676 91.0098 20.1822 90.7532 19.9096 90.7093C19.591 90.6579 19.3211 90.6026 19.0969 90.5492C18.7932 90.4769 18.5807 90.1746 18.6365 89.7717L18.92 87.7234C19.0611 87.2027 19.4596 86.7821 19.9861 86.6091L20.6712 86.3841C20.8041 86.3404 20.9379 86.3006 21.0725 86.2646C21.0725 86.2646 21.0762 86.2651 21.0794 86.2659C21.0916 86.2689 21.111 86.2767 21.1329 86.2926C21.2618 86.386 21.4362 86.4981 21.6501 86.6014C21.7162 86.6333 21.786 86.6494 21.8549 86.6511C21.3174 87.1346 20.9241 87.7704 20.7413 88.4912L20.7348 88.5168L20.3962 90.3993C20.181 91.5956 20.8051 92.885 22.132 93.1946C23.3065 93.4686 25.1697 93.75 27.8677 93.75C30.5657 93.75 32.4289 93.4686 33.6034 93.1946C34.9303 92.885 35.5544 91.5956 35.3392 90.3993L35.0006 88.5168L34.9941 88.4912C34.8086 87.7599 34.4065 87.1162 33.857 86.6302C33.9724 86.6647 34.1006 86.6579 34.2176 86.6014C34.4315 86.4981 34.6059 86.386 34.7348 86.2926C34.7566 86.2767 34.7761 86.2689 34.7883 86.2659C34.7907 86.2653 34.794 86.2648 34.794 86.2648L34.7952 86.2646C34.9298 86.3006 35.0636 86.3404 35.1965 86.3841L35.8816 86.6091C36.4081 86.7821 36.8065 87.2027 36.9477 87.7234L37.2312 89.7717C37.287 90.1746 37.0745 90.4769 36.7708 90.5492C36.5465 90.6026 36.2766 90.6579 35.9581 90.7093C35.6854 90.7532 35.5001 91.0098 35.544 91.2825C35.5879 91.5551 35.8446 91.7405 36.1172 91.6965C36.4596 91.6413 36.7537 91.5812 37.0024 91.522C37.8965 91.3091 38.3348 90.4513 38.2218 89.6346L37.9304 87.5294L37.9235 87.5025C37.7031 86.6337 37.0489 85.94 36.1937 85.6591L35.5086 85.434C35.3564 85.384 35.2031 85.3384 35.0488 85.2973C34.7018 85.2048 34.3737 85.3191 34.1477 85.483C34.0577 85.5483 33.934 85.6278 33.7826 85.7009C33.534 85.821 33.4298 86.12 33.5499 86.3686C33.5545 86.3781 33.5593 86.3874 33.5644 86.3965C33.2558 86.1743 32.911 85.9973 32.5394 85.8752L31.5803 85.5601C31.4221 85.5082 31.2632 85.4596 31.1035 85.4145ZM30.3501 86.9614C30.5244 86.8458 30.6476 86.8444 30.6955 86.858C30.8351 86.8974 30.9739 86.9398 31.1121 86.9852L32.0713 87.3003C32.7962 87.5384 33.3434 88.119 33.534 88.8364L33.8629 90.6649C33.9635 91.224 33.6726 91.6382 33.2626 91.7338C32.2093 91.9795 30.461 92.25 27.8677 92.25C25.2743 92.25 23.5261 91.9795 22.4727 91.7338C22.0627 91.6382 21.7719 91.224 21.8725 90.6649L22.2014 88.8364C22.392 88.119 22.9392 87.5384 23.6641 87.3003L24.6233 86.9852C24.7614 86.9398 24.9003 86.8974 25.0398 86.858C25.0878 86.8444 25.211 86.8458 25.3852 86.9614C25.8864 87.2941 26.7572 87.7356 27.8677 87.7356C28.9781 87.7356 29.8489 87.2941 30.3501 86.9614Z" fill="#5F5F6A"/>
<path d="M24.5924 135.764C24.5337 135.727 24.4821 135.692 24.4371 135.659C24.3648 135.606 24.3097 135.559 24.2697 135.522C24.2497 135.504 24.2335 135.488 24.2208 135.475C24.2145 135.468 24.209 135.462 24.2044 135.457L24.1982 135.45L24.1955 135.447L24.1943 135.446C24.194 135.445 24.1931 135.444 24.5716 135.118L24.1931 135.444C24.1359 135.378 24.0971 135.298 24.0806 135.212L23.6312 132.876C23.5632 132.523 23.7542 132.24 23.9578 132.095C24.1595 131.952 24.4654 131.872 24.763 132.002C25.0961 132.148 25.5285 132.263 25.9682 132.191C26.385 132.122 26.8763 131.873 27.3345 131.159C27.6418 130.681 28.3585 130.681 28.6657 131.159C29.1239 131.873 29.6152 132.122 30.0321 132.191C30.4718 132.263 30.9041 132.148 31.2373 132.002C31.5348 131.872 31.8408 131.952 32.0425 132.095C32.246 132.24 32.4371 132.523 32.3691 132.876L31.9197 135.212C31.9032 135.298 31.8643 135.378 31.8071 135.444L31.4287 135.118C31.8071 135.444 31.8074 135.444 31.8071 135.444L31.806 135.446L31.8048 135.447L31.8021 135.45L31.7958 135.457C31.7912 135.462 31.7858 135.468 31.7794 135.475C31.7667 135.488 31.7506 135.504 31.7306 135.522C31.6906 135.559 31.6355 135.606 31.5632 135.659C31.4685 135.728 31.3448 135.808 31.1876 135.889C31.2065 135.946 31.224 136.003 31.2401 136.061C31.6888 135.709 32.2539 135.5 32.8679 135.5C34.3276 135.5 35.5108 136.683 35.5108 138.143C35.5108 139.602 34.3276 140.786 32.8679 140.786C31.8276 140.786 30.9277 140.185 30.4965 139.311C29.8551 140.04 28.9151 140.5 27.8677 140.5C26.8204 140.5 25.8806 140.04 25.2392 139.311C24.808 140.185 23.9081 140.786 22.8679 140.786C21.4083 140.786 20.2251 139.602 20.2251 138.143C20.2251 136.683 21.4083 135.5 22.8679 135.5C23.4818 135.5 24.0467 135.709 24.4954 136.06C24.5234 135.96 24.5558 135.861 24.5924 135.764ZM26.1312 133.177C25.586 133.267 25.0801 133.174 24.6813 133.041L25.03 134.854C25.0826 134.892 25.161 134.943 25.2701 135C25.3549 135 25.4407 135.022 25.5194 135.067C25.5632 135.093 25.6018 135.124 25.6347 135.159C26.1047 135.331 26.857 135.5 28.0001 135.5C28.8985 135.5 29.5554 135.396 30.0237 135.267C30.0661 135.186 30.1311 135.116 30.216 135.067C30.3553 134.987 30.5173 134.981 30.6556 135.037C30.8044 134.966 30.9063 134.9 30.9703 134.854L31.3189 133.041C30.9202 133.174 30.4143 133.267 29.869 133.177C29.2129 133.069 28.5581 132.705 28.0001 131.954C27.4422 132.705 26.7873 133.069 26.1312 133.177ZM25.508 136.172C25.4171 136.431 25.3677 136.709 25.3677 137C25.3677 137.123 25.3766 137.244 25.3938 137.363C25.4323 137.488 25.4618 137.616 25.4815 137.748C25.7995 138.763 26.7476 139.5 27.8677 139.5C28.989 139.5 29.938 138.762 30.2549 137.745C30.2745 137.615 30.3034 137.489 30.341 137.366C30.3586 137.247 30.3677 137.124 30.3677 137C30.3677 136.735 30.3267 136.481 30.2508 136.242C29.6909 136.391 28.9552 136.5 28.0001 136.5C26.901 136.5 26.0924 136.356 25.508 136.172ZM31.316 137.603C31.2952 137.722 31.2683 137.84 31.2357 137.955C31.2287 138.017 31.2251 138.079 31.2251 138.143C31.2251 139.05 31.9606 139.786 32.8679 139.786C33.7753 139.786 34.5108 139.05 34.5108 138.143C34.5108 137.236 33.7753 136.5 32.8679 136.5C32.1499 136.5 31.5394 136.961 31.316 137.603ZM24.5006 137.959C24.4672 137.841 24.4399 137.721 24.4188 137.599C24.1945 136.959 23.5848 136.5 22.8679 136.5C21.9606 136.5 21.2251 137.236 21.2251 138.143C21.2251 139.05 21.9606 139.786 22.8679 139.786C23.7753 139.786 24.5108 139.05 24.5108 138.143C24.5108 138.081 24.5073 138.019 24.5006 137.959Z" fill="#5F5F6A"/>
<path d="M21.72 141.483C21.494 141.319 21.1659 141.205 20.8188 141.297C20.6646 141.338 20.5113 141.384 20.3591 141.434L19.674 141.659C18.8188 141.94 18.1645 142.634 17.9441 143.503L17.9373 143.529L17.6459 145.635C17.5329 146.451 17.9712 147.309 18.8653 147.522C19.114 147.581 19.4081 147.641 19.7505 147.697C20.0231 147.74 20.2797 147.555 20.3237 147.282C20.3676 147.01 20.1822 146.753 19.9096 146.709C19.591 146.658 19.3211 146.603 19.0969 146.549C18.7932 146.477 18.5807 146.175 18.6365 145.772L18.92 143.723C19.0611 143.203 19.4596 142.782 19.9861 142.609L20.6712 142.384C20.8041 142.34 20.9379 142.301 21.0725 142.265C21.0739 142.265 21.0762 142.265 21.0794 142.266C21.0916 142.269 21.111 142.277 21.1329 142.293C21.2618 142.386 21.4362 142.498 21.6501 142.601C21.8987 142.721 22.1977 142.617 22.3178 142.369C22.4379 142.12 22.3337 141.821 22.085 141.701C21.9336 141.628 21.8099 141.548 21.72 141.483Z" fill="#5F5F6A"/>
<path d="M34.1477 141.483C34.3737 141.319 34.7018 141.205 35.0488 141.297C35.2031 141.338 35.3564 141.384 35.5086 141.434L36.1937 141.659C37.0489 141.94 37.7031 142.634 37.9235 143.503L37.9304 143.529L38.2218 145.635C38.3348 146.451 37.8965 147.309 37.0024 147.522C36.7537 147.581 36.4596 147.641 36.1172 147.697C35.8446 147.74 35.5879 147.555 35.544 147.282C35.5001 147.01 35.6854 146.753 35.9581 146.709C36.2766 146.658 36.5465 146.603 36.7708 146.549C37.0745 146.477 37.287 146.175 37.2312 145.772L36.9477 143.723C36.8065 143.203 36.4081 142.782 35.8816 142.609L35.1965 142.384C35.0636 142.34 34.9298 142.301 34.7952 142.265L34.7925 142.265L34.7883 142.266C34.7761 142.269 34.7566 142.277 34.7348 142.293C34.6059 142.386 34.4315 142.498 34.2176 142.601C33.9689 142.721 33.67 142.617 33.5499 142.369C33.4298 142.12 33.534 141.821 33.7826 141.701C33.934 141.628 34.0577 141.548 34.1477 141.483Z" fill="#5F5F6A"/>
<path d="M31.0353 141.655C30.5188 141.509 30.0174 141.682 29.6587 141.92C29.276 142.174 28.6455 142.486 27.8675 142.486C27.0895 142.486 26.4591 142.174 26.0763 141.92C25.7176 141.682 25.2162 141.509 24.6997 141.655C24.5434 141.699 24.3878 141.747 24.233 141.798L23.2738 142.113C22.1406 142.485 21.2749 143.404 20.9834 144.553L20.9791 144.57L20.6421 146.444C20.446 147.534 21.0145 148.677 22.1886 148.951C23.3429 149.22 25.187 149.5 27.8675 149.5C30.5481 149.5 32.3921 149.22 33.5464 148.951C34.7205 148.677 35.2891 147.534 35.093 146.444L34.7559 144.57L34.7516 144.553C34.4601 143.404 33.5944 142.485 32.4612 142.113L31.5021 141.798C31.3473 141.747 31.1917 141.699 31.0353 141.655ZM30.2117 142.753C30.4229 142.613 30.6217 142.577 30.7634 142.617C30.9062 142.658 31.0485 142.701 31.19 142.748L32.1491 143.063C32.9566 143.328 33.568 143.977 33.7781 144.782L34.1088 146.621C34.2284 147.286 33.8821 147.846 33.3192 147.977C32.2457 148.228 30.4783 148.5 27.8675 148.5C25.2567 148.5 23.4893 148.228 22.4158 147.977C21.8529 147.846 21.5066 147.286 21.6263 146.621L21.9569 144.782C22.167 143.977 22.7784 143.328 23.5859 143.063L24.5451 142.748C24.6865 142.701 24.8288 142.658 24.9717 142.617C25.1133 142.577 25.3122 142.613 25.5233 142.753C26.0008 143.07 26.8236 143.486 27.8675 143.486C28.9115 143.486 29.7342 143.07 30.2117 142.753Z" fill="#5F5F6A"/>
</svg>
