<svg width="56" height="168" viewBox="0 0 56 168" fill="none" xmlns="http://www.w3.org/2000/svg">
<path opacity="0.5" d="M33.5 30.75C31.9812 30.75 30.75 31.9812 30.75 33.5C30.75 35.0188 31.9812 36.25 33.5 36.25C35.0188 36.25 36.25 35.0188 36.25 33.5C36.25 31.9812 35.0188 30.75 33.5 30.75ZM29.25 33.5C29.25 31.1528 31.1528 29.25 33.5 29.25C35.8472 29.25 37.75 31.1528 37.75 33.5C37.75 35.8472 35.8472 37.75 33.5 37.75C31.1528 37.75 29.25 35.8472 29.25 33.5ZM33.5 31C33.9142 31 34.25 31.3358 34.25 31.75V33.1893L34.9053 33.8447C35.1982 34.1376 35.1982 34.6124 34.9053 34.9053C34.6124 35.1982 34.1376 35.1982 33.8447 34.9053L32.75 33.8107V31.75C32.75 31.3358 33.0858 31 33.5 31Z" fill="#5F5F6A"/>
<path d="M26 19.75C24.6953 19.75 23.671 20.7756 23.671 22C23.671 23.2244 24.6953 24.25 26 24.25C27.3047 24.25 28.3289 23.2244 28.3289 22C28.3289 20.7756 27.3047 19.75 26 19.75ZM22.171 22C22.171 19.9107 23.9038 18.25 26 18.25C28.0961 18.25 29.8289 19.9107 29.8289 22C29.8289 24.0893 28.0961 25.75 26 25.75C23.9038 25.75 22.171 24.0893 22.171 22ZM23.4706 27.9663C23.289 27.8489 23.1514 27.8417 23.0875 27.8593C22.9438 27.8989 22.8008 27.9414 22.6586 27.9869L21.6742 28.3021C20.9669 28.5284 20.4304 29.0566 20.206 29.7059C20.1842 29.769 20.1676 29.8527 20.1544 29.9777L19.7634 33.6766L19.7615 33.6898C19.6867 34.2167 19.9675 34.62 20.3945 34.7191C21.4718 34.9691 23.2859 35.25 26 35.25C26.4142 35.25 26.75 35.5858 26.75 36C26.75 36.4142 26.4142 36.75 26 36.75C23.1821 36.75 21.2535 36.4583 20.0555 36.1803C18.7667 35.8812 18.114 34.6695 18.2744 33.4933L18.6627 29.82C18.6809 29.6478 18.7125 29.4351 18.7883 29.2158C19.1724 28.1048 20.0749 27.239 21.2169 26.8735L22.2013 26.5583C22.3631 26.5065 22.5258 26.4581 22.6893 26.4131C23.3008 26.2448 23.8819 26.446 24.2851 26.7068C24.6552 26.9461 25.2593 27.2356 26 27.2356C26.7407 27.2356 27.3448 26.9461 27.7148 26.7068C28.1181 26.446 28.6992 26.2448 29.3107 26.4131C29.4741 26.4581 29.6368 26.5065 29.7986 26.5583L30.783 26.8735C31.1775 26.9997 31.395 27.4219 31.2687 27.8164C31.1424 28.2109 30.7203 28.4283 30.3258 28.3021L29.3414 27.9869C29.1991 27.9414 29.0561 27.8989 28.9125 27.8593C28.8485 27.8417 28.7109 27.8489 28.5294 27.9663C28.0165 28.298 27.1292 28.7356 26 28.7356C24.8707 28.7356 23.9835 28.298 23.4706 27.9663Z" fill="#5F5F6A"/>
<path d="M26 74.25C23.9038 74.25 22.171 75.9107 22.171 78C22.171 80.0893 23.9038 81.75 26 81.75C28.0961 81.75 29.8289 80.0893 29.8289 78C29.8289 75.9107 28.0961 74.25 26 74.25ZM23.671 78C23.671 76.7756 24.6953 75.75 26 75.75C27.3047 75.75 28.3289 76.7756 28.3289 78C28.3289 79.2244 27.3047 80.25 26 80.25C24.6953 80.25 23.671 79.2244 23.671 78Z" fill="#5F5F6A"/>
<path d="M23.0875 83.8593C23.1514 83.8417 23.289 83.8489 23.4706 83.9663C23.9835 84.298 24.8707 84.7356 26 84.7356C27.1292 84.7356 28.0165 84.298 28.5294 83.9663C28.7109 83.8489 28.8485 83.8417 28.9125 83.8593C29.0561 83.8989 29.1991 83.9414 29.3414 83.9869L30.3258 84.3021C30.7203 84.4283 31.1424 84.2109 31.2687 83.8164C31.395 83.4219 31.1775 82.9997 30.783 82.8735L29.7986 82.5583C29.6368 82.5065 29.4741 82.4581 29.3107 82.4131C28.6992 82.2448 28.1181 82.446 27.7148 82.7068C27.3448 82.9461 26.7407 83.2356 26 83.2356C25.2593 83.2356 24.6552 82.9461 24.2851 82.7068C23.8819 82.446 23.3008 82.2448 22.6893 82.4131C22.5258 82.4581 22.3631 82.5065 22.2013 82.5583L21.2169 82.8735C20.0749 83.239 19.1724 84.1048 18.7883 85.2158C18.7125 85.4351 18.6809 85.6478 18.6627 85.82L18.2744 89.4933C18.114 90.6695 18.7667 91.8812 20.0555 92.1803C21.2535 92.4583 23.1821 92.75 26 92.75C26.4142 92.75 26.75 92.4142 26.75 92C26.75 91.5858 26.4142 91.25 26 91.25C23.2859 91.25 21.4718 90.9691 20.3945 90.7191C19.9675 90.62 19.6867 90.2167 19.7615 89.6898L19.7634 89.6766L20.1544 85.9777C20.1676 85.8527 20.1842 85.769 20.206 85.7059C20.4304 85.0566 20.9669 84.5284 21.6742 84.3021L22.6586 83.9869C22.8008 83.9414 22.9438 83.8989 23.0875 83.8593Z" fill="#5F5F6A"/>
<path d="M34.25 87.75C34.25 87.3358 33.9142 87 33.5 87C33.0858 87 32.75 87.3358 32.75 87.75V89.8107L33.8447 90.9053C34.1376 91.1982 34.6124 91.1982 34.9053 90.9053C35.1982 90.6124 35.1982 90.1376 34.9053 89.8447L34.25 89.1893V87.75Z" fill="#5F5F6A"/>
<path d="M33.5 85.25C31.1528 85.25 29.25 87.1528 29.25 89.5C29.25 91.8472 31.1528 93.75 33.5 93.75C35.8472 93.75 37.75 91.8472 37.75 89.5C37.75 87.1528 35.8472 85.25 33.5 85.25ZM30.75 89.5C30.75 87.9812 31.9812 86.75 33.5 86.75C35.0188 86.75 36.25 87.9812 36.25 89.5C36.25 91.0188 35.0188 92.25 33.5 92.25C31.9812 92.25 30.75 91.0188 30.75 89.5Z" fill="#5F5F6A"/>
<path d="M25.9997 130.5C24.0354 130.5 22.4207 132.055 22.4207 134C22.4207 135.945 24.0354 137.5 25.9997 137.5C27.9639 137.5 29.5786 135.945 29.5786 134C29.5786 132.055 27.9639 130.5 25.9997 130.5ZM23.4207 134C23.4207 132.631 24.563 131.5 25.9997 131.5C27.4363 131.5 28.5786 132.631 28.5786 134C28.5786 135.369 27.4363 136.5 25.9997 136.5C24.563 136.5 23.4207 135.369 23.4207 134Z" fill="#5F5F6A"/>
<path d="M23.0208 139.618C23.176 139.576 23.3875 139.615 23.606 139.756C24.0951 140.073 24.9352 140.486 25.9997 140.486C27.0641 140.486 27.9042 140.073 28.3933 139.756C28.6118 139.615 28.8233 139.576 28.9785 139.618C29.1255 139.659 29.2718 139.702 29.4173 139.749L30.4017 140.064C30.6647 140.148 30.9461 140.003 31.0303 139.74C31.1145 139.477 30.9695 139.196 30.7065 139.112L29.7221 138.796C29.5635 138.746 29.4041 138.698 29.244 138.654C28.7238 138.511 28.2165 138.68 27.8502 138.917C27.4564 139.171 26.8051 139.486 25.9997 139.486C25.1942 139.486 24.5429 139.171 24.1491 138.917C23.7828 138.68 23.2756 138.511 22.7553 138.654C22.5952 138.698 22.4358 138.746 22.2772 138.796L21.2928 139.112C20.2748 139.437 19.4636 140.186 19.0794 141.149L19.0789 141.151L19.0775 141.154C19.0765 141.157 19.074 141.163 19.0711 141.172C19.064 141.192 19.0597 141.208 19.058 141.215C19.0564 141.221 19.0504 141.241 19.034 141.295C19.0111 141.37 18.9564 141.591 18.9418 141.668C18.9151 141.808 18.9081 141.874 18.8969 141.98L18.5223 145.523C18.3748 146.592 18.9655 147.671 20.1117 147.937C21.2896 148.21 23.1991 148.5 25.9997 148.5C26.2758 148.5 26.4997 148.276 26.4997 148C26.4997 147.724 26.2758 147.5 25.9997 147.5C23.2683 147.5 21.4351 147.217 20.3377 146.963C19.7662 146.83 19.4233 146.29 19.5137 145.655L19.5149 145.646L19.8916 142.083C19.9013 141.991 19.9051 141.955 19.9243 141.854C19.9243 141.854 19.9245 141.853 19.9251 141.85L19.9273 141.84L19.9346 141.808C19.9406 141.782 19.9479 141.752 19.9555 141.721C19.9632 141.69 19.9709 141.66 19.9775 141.634L19.9861 141.602L19.989 141.592C19.9897 141.589 19.9901 141.588 19.9901 141.588C20.0035 141.544 20.0119 141.516 20.0174 141.497C20.2914 140.83 20.864 140.299 21.5976 140.064L22.5821 139.749C22.7276 139.702 22.8738 139.659 23.0208 139.618Z" fill="#5F5F6A"/>
<path d="M33.9998 143.75C33.9998 143.474 33.7759 143.25 33.4998 143.25C33.2236 143.25 32.9998 143.474 32.9998 143.75V145.707L34.0212 146.729C34.2165 146.924 34.533 146.924 34.7283 146.729C34.9236 146.533 34.9236 146.217 34.7283 146.021L33.9998 145.293V143.75Z" fill="#5F5F6A"/>
<path d="M33.4998 141.5C31.2906 141.5 29.4998 143.291 29.4998 145.5C29.4998 147.709 31.2906 149.5 33.4998 149.5C35.7089 149.5 37.4998 147.709 37.4998 145.5C37.4998 143.291 35.7089 141.5 33.4998 141.5ZM30.4998 145.5C30.4998 143.843 31.8429 142.5 33.4998 142.5C35.1566 142.5 36.4998 143.843 36.4998 145.5C36.4998 147.157 35.1566 148.5 33.4998 148.5C31.8429 148.5 30.4998 147.157 30.4998 145.5Z" fill="#5F5F6A"/>
</svg>
