<svg width="56" height="168" viewBox="0 0 56 168" fill="none" xmlns="http://www.w3.org/2000/svg">
<path d="M27.7495 20.5C26.4448 20.5 25.4205 21.5256 25.4205 22.75C25.4205 23.9744 26.4448 25 27.7495 25C29.0542 25 30.0784 23.9744 30.0784 22.75C30.0784 21.5256 29.0542 20.5 27.7495 20.5ZM23.9205 22.75C23.9205 20.6607 25.6533 19 27.7495 19C29.8457 19 31.5784 20.6607 31.5784 22.75C31.5784 24.8393 29.8457 26.5 27.7495 26.5C25.6533 26.5 23.9205 24.8393 23.9205 22.75ZM25.2201 28.7163C25.0385 28.5989 24.901 28.5917 24.837 28.6093C24.6933 28.6489 24.5503 28.6914 24.4081 28.7369L23.4237 29.0521C22.7164 29.2784 22.1799 29.8066 21.9555 30.4559C21.9337 30.519 21.9171 30.6027 21.9039 30.7277L21.5129 34.4266L21.511 34.4398C21.4362 34.9667 21.7171 35.37 22.144 35.4691C23.2213 35.7191 25.0355 36 27.7495 36C28.1637 36 28.4995 36.3358 28.4995 36.75C28.4995 37.1642 28.1637 37.5 27.7495 37.5C24.9317 37.5 23.003 37.2083 21.805 36.9303C20.5162 36.6312 19.8635 35.4195 20.0239 34.2433L20.4122 30.57C20.4304 30.3978 20.462 30.1851 20.5378 29.9658C20.9219 28.8548 21.8244 27.989 22.9664 27.6235L23.9508 27.3083C24.1126 27.2565 24.2753 27.2081 24.4388 27.1631C25.0503 26.9948 25.6314 27.196 26.0346 27.4568C26.4047 27.6961 27.0088 27.9856 27.7495 27.9856C28.4902 27.9856 29.0943 27.6961 29.4643 27.4568C29.8676 27.196 30.4487 26.9948 31.0602 27.1631C31.2236 27.2081 31.3863 27.2565 31.5482 27.3083L32.5326 27.6235C32.9271 27.7497 33.1445 28.1719 33.0182 28.5664C32.8919 28.9609 32.4698 29.1783 32.0753 29.0521L31.0909 28.7369C30.9486 28.6914 30.8056 28.6489 30.662 28.6093C30.598 28.5917 30.4604 28.5989 30.2789 28.7163C29.766 29.048 28.8787 29.4856 27.7495 29.4856C26.6203 29.4856 25.733 29.048 25.2201 28.7163Z" fill="#5F5F6A"/>
<path opacity="0.5" d="M33.7393 30.167C34.0832 29.6512 34.7721 29.4965 35.3037 29.8154C35.8901 30.1673 35.9881 30.8364 35.7432 31.334H35.9004C36.3195 31.334 36.66 31.6737 36.6602 32.0928V32.9717C36.6602 33.2588 36.4994 33.5068 36.2646 33.6357V35.8711C36.2646 36.4116 35.8257 36.8496 35.2852 36.8496H31.0244C30.4839 36.8496 30.0449 36.4116 30.0449 35.8711V33.6357C29.8102 33.5068 29.6504 33.2587 29.6504 32.9717V32.0928C29.6505 31.6737 29.9901 31.334 30.4092 31.334H30.5225C30.2775 30.8364 30.3755 30.1673 30.9619 29.8154C31.4935 29.4965 32.1824 29.6512 32.5264 30.167L33.1328 31.0771L33.7393 30.167ZM33.4521 36.2109H35.2852C35.4726 36.2109 35.625 36.0585 35.625 35.8711V33.7305H33.4521V36.2109ZM30.6846 35.8711C30.6846 36.0585 30.837 36.2109 31.0244 36.2109H32.8135V33.7305H30.6846V35.8711ZM33.4521 32.9814H36.0195C36.0198 32.9782 36.0205 32.975 36.0205 32.9717V32.0928C36.0204 32.0268 35.9664 31.9736 35.9004 31.9736H33.4521V32.9814ZM30.4092 31.9736C30.3432 31.9736 30.2892 32.0268 30.2891 32.0928V32.9717C30.2891 32.975 30.2908 32.9782 30.291 32.9814H32.8135V31.9736H30.4092ZM34.9746 30.3643C34.7355 30.2208 34.4261 30.2905 34.2715 30.5225L33.7305 31.334H34.708C35.236 31.332 35.4282 30.6364 34.9746 30.3643ZM31.9941 30.5225C31.8395 30.2905 31.5301 30.2208 31.291 30.3643C30.8376 30.6364 31.0297 31.332 31.5576 31.334H32.5361L31.9941 30.5225Z" fill="#5F5F6A" stroke="#71717A" stroke-width="0.2"/>
<path fill-rule="evenodd" clip-rule="evenodd" d="M25.4205 78.75C25.4205 77.5256 26.4448 76.5 27.7495 76.5C29.0542 76.5 30.0784 77.5256 30.0784 78.75C30.0784 79.9744 29.0542 81 27.7495 81C26.4448 81 25.4205 79.9744 25.4205 78.75ZM27.7495 75C25.6533 75 23.9205 76.6607 23.9205 78.75C23.9205 80.8393 25.6533 82.5 27.7495 82.5C29.8457 82.5 31.5784 80.8393 31.5784 78.75C31.5784 76.6607 29.8457 75 27.7495 75ZM24.837 84.6093C24.901 84.5917 25.0385 84.5989 25.2201 84.7163C25.733 85.048 26.6203 85.4856 27.7495 85.4856C28.8787 85.4856 29.766 85.048 30.2789 84.7163C30.4604 84.5989 30.598 84.5917 30.662 84.6093C30.8056 84.6489 30.9486 84.6914 31.0909 84.7369L32.0753 85.0521C32.4698 85.1783 32.8919 84.9609 33.0182 84.5664C33.1445 84.1719 32.9271 83.7497 32.5326 83.6235L31.5482 83.3083C31.3863 83.2565 31.2236 83.2081 31.0602 83.1631C30.4487 82.9948 29.8676 83.196 29.4643 83.4568C29.0943 83.6961 28.4902 83.9856 27.7495 83.9856C27.0088 83.9856 26.4047 83.6961 26.0346 83.4568C25.6314 83.196 25.0503 82.9948 24.4388 83.1631C24.2753 83.2081 24.1126 83.2565 23.9508 83.3083L22.9664 83.6235C21.8244 83.989 20.9219 84.8548 20.5378 85.9658C20.462 86.1851 20.4304 86.3978 20.4122 86.57L20.0239 90.2433C19.8635 91.4195 20.5162 92.6312 21.805 92.9303C23.003 93.2083 24.9317 93.5 27.7495 93.5C28.1637 93.5 28.4995 93.1642 28.4995 92.75C28.4995 92.3358 28.1637 92 27.7495 92C25.0355 92 23.2213 91.7191 22.144 91.4691C21.7171 91.37 21.4362 90.9667 21.511 90.4398L21.5129 90.4266L21.9039 86.7277C21.9171 86.6027 21.9337 86.519 21.9555 86.4559C22.1799 85.8066 22.7164 85.2784 23.4237 85.0521L24.4081 84.7369C24.5503 84.6914 24.6933 84.6489 24.837 84.6093Z" fill="#5F5F6A"/>
<path d="M33.7393 86.167C34.0832 85.6512 34.7721 85.4965 35.3037 85.8154C35.8901 86.1673 35.9881 86.8364 35.7432 87.334H35.9004C36.3195 87.334 36.66 87.6737 36.6602 88.0928V88.9717C36.6602 89.2588 36.4994 89.5068 36.2646 89.6357V91.8711C36.2646 92.4116 35.8257 92.8496 35.2852 92.8496H31.0244C30.4839 92.8496 30.0449 92.4116 30.0449 91.8711V89.6357C29.8102 89.5068 29.6504 89.2587 29.6504 88.9717V88.0928C29.6505 87.6737 29.9901 87.334 30.4092 87.334H30.5225C30.2775 86.8364 30.3755 86.1673 30.9619 85.8154C31.4935 85.4965 32.1824 85.6512 32.5264 86.167L33.1328 87.0771L33.7393 86.167ZM33.4521 92.2109H35.2852C35.4726 92.2109 35.625 92.0585 35.625 91.8711V89.7305H33.4521V92.2109ZM30.6846 91.8711C30.6846 92.0585 30.837 92.2109 31.0244 92.2109H32.8135V89.7305H30.6846V91.8711ZM33.4521 88.9814H36.0195C36.0198 88.9782 36.0205 88.975 36.0205 88.9717V88.0928C36.0204 88.0268 35.9664 87.9736 35.9004 87.9736H33.4521V88.9814ZM30.4092 87.9736C30.3432 87.9736 30.2892 88.0268 30.2891 88.0928V88.9717C30.2891 88.975 30.2908 88.9782 30.291 88.9814H32.8135V87.9736H30.4092ZM34.9746 86.3643C34.7355 86.2208 34.4261 86.2905 34.2715 86.5225L33.7305 87.334H34.708C35.236 87.332 35.4282 86.6364 34.9746 86.3643ZM31.9941 86.5225C31.8395 86.2905 31.5301 86.2208 31.291 86.3643C30.8376 86.6364 31.0297 87.332 31.5576 87.334H32.5361L31.9941 86.5225Z" fill="#5F5F6A" stroke="#71717A" stroke-width="0.2"/>
<path fill-rule="evenodd" clip-rule="evenodd" d="M24.9207 134.5C24.9207 133.131 26.063 132 27.4997 132C28.9363 132 30.0786 133.131 30.0786 134.5C30.0786 135.869 28.9363 137 27.4997 137C26.063 137 24.9207 135.869 24.9207 134.5ZM27.4997 131C25.5354 131 23.9207 132.555 23.9207 134.5C23.9207 136.445 25.5354 138 27.4997 138C29.4639 138 31.0786 136.445 31.0786 134.5C31.0786 132.555 29.4639 131 27.4997 131ZM24.5208 140.118C24.676 140.076 24.8875 140.115 25.106 140.256C25.5951 140.573 26.4352 140.986 27.4997 140.986C28.5641 140.986 29.4042 140.573 29.8933 140.256C30.1118 140.115 30.3233 140.076 30.4785 140.118C30.6255 140.159 30.7718 140.202 30.9173 140.249L31.9017 140.564C32.1647 140.648 32.4461 140.503 32.5303 140.24C32.6145 139.977 32.4695 139.696 32.2065 139.612L31.2221 139.296C31.0635 139.246 30.9041 139.198 30.744 139.154C30.2238 139.011 29.7165 139.18 29.3502 139.417C28.9564 139.671 28.3051 139.986 27.4997 139.986C26.6942 139.986 26.0429 139.671 25.6491 139.417C25.2828 139.18 24.7756 139.011 24.2553 139.154C24.0952 139.198 23.9358 139.246 23.7772 139.296L22.7928 139.612C21.7748 139.937 20.9636 140.686 20.5794 141.649L20.5789 141.651L20.5775 141.654C20.5765 141.657 20.574 141.663 20.5711 141.672C20.564 141.692 20.5597 141.708 20.558 141.715C20.5564 141.721 20.5504 141.741 20.534 141.795C20.5111 141.87 20.4564 142.091 20.4418 142.168C20.4151 142.308 20.4081 142.374 20.3969 142.48L20.0223 146.023C19.8748 147.092 20.4655 148.171 21.6117 148.437C22.7896 148.71 24.6991 149 27.4997 149C27.7758 149 27.9997 148.776 27.9997 148.5C27.9997 148.224 27.7758 148 27.4997 148C24.7683 148 22.9351 147.717 21.8377 147.463C21.2662 147.33 20.9233 146.79 21.0137 146.155L21.0149 146.146L21.3916 142.583C21.4013 142.491 21.4051 142.455 21.4243 142.354C21.4243 142.354 21.4245 142.353 21.4251 142.35L21.4273 142.34L21.4346 142.308C21.4406 142.282 21.4479 142.252 21.4555 142.221C21.4632 142.19 21.4709 142.16 21.4775 142.134L21.4861 142.102L21.489 142.092C21.4897 142.089 21.4901 142.088 21.4901 142.088C21.5035 142.044 21.5119 142.016 21.5174 141.997C21.7914 141.33 22.364 140.799 23.0976 140.564L24.0821 140.249C24.2276 140.202 24.3738 140.159 24.5208 140.118Z" fill="#5F5F6A"/>
<path d="M33.5107 141.932C33.8473 141.427 34.5208 141.275 35.041 141.587C35.6288 141.94 35.7163 142.619 35.4531 143.109H35.6504C36.0557 143.109 36.3846 143.438 36.3848 143.843V144.722C36.3848 145.005 36.2237 145.249 35.9893 145.371V147.621C35.9893 148.148 35.5619 148.575 35.0352 148.575H30.7744C30.2477 148.575 29.8203 148.148 29.8203 147.621V145.37C29.5862 145.248 29.4248 145.005 29.4248 144.722V143.843C29.425 143.438 29.7539 143.109 30.1592 143.109H30.3125C30.0494 142.619 30.1369 141.94 30.7246 141.587C31.2449 141.275 31.9193 141.427 32.2559 141.932L32.8828 142.872L33.5107 141.932ZM33.1777 147.985H35.0352C35.2364 147.985 35.4004 147.822 35.4004 147.621V145.456H33.1777V147.985ZM30.4102 147.621C30.4102 147.822 30.5732 147.985 30.7744 147.985H32.5879V145.456H30.4102V147.621ZM33.1777 144.757H35.79C35.7929 144.746 35.7949 144.734 35.7949 144.722V143.843C35.7948 143.763 35.7302 143.698 35.6504 143.698H33.1777V144.757ZM30.1592 143.698C30.0794 143.698 30.0148 143.763 30.0146 143.843V144.722C30.0146 144.734 30.0167 144.746 30.0195 144.757H32.5879V143.698H30.1592ZM34.7373 142.093C34.4869 141.943 34.1631 142.015 34.001 142.258L33.4326 143.109H34.459C35.0119 143.107 35.2124 142.378 34.7373 142.093ZM31.7646 142.258C31.6025 142.015 31.2787 141.943 31.0283 142.093C30.553 142.378 30.7544 143.107 31.3076 143.109H32.333L31.7646 142.258Z" fill="#5F5F6A" stroke="#71717A" stroke-width="0.15"/>
</svg>
