<svg width="56" height="168" viewBox="0 0 56 168" fill="none" xmlns="http://www.w3.org/2000/svg">
<path d="M17.25 28C17.25 22.0629 22.0629 17.25 28 17.25C33.9371 17.25 38.75 22.0629 38.75 28C38.75 33.9371 33.9371 38.75 28 38.75C22.0629 38.75 17.25 33.9371 17.25 28ZM28 18.75C22.8914 18.75 18.75 22.8914 18.75 28C18.75 33.1086 22.8914 37.25 28 37.25C33.1086 37.25 37.25 33.1086 37.25 28C37.25 22.8914 33.1086 18.75 28 18.75Z" fill="#5F5F6A"/>
<path opacity="0.5" d="M28 23.75C26.7209 23.75 25.75 24.7502 25.75 26C25.75 27.2498 26.7209 28.25 28 28.25C29.2791 28.25 30.25 27.2498 30.25 26C30.25 24.7502 29.2791 23.75 28 23.75ZM24.25 26C24.25 23.9361 25.8782 22.25 28 22.25C30.1218 22.25 31.75 23.9361 31.75 26C31.75 28.0639 30.1218 29.75 28 29.75C25.8782 29.75 24.25 28.0639 24.25 26ZM30.705 31.8614C30.6451 31.8754 30.5695 31.9077 30.4886 31.9623C29.9879 32.2998 29.1148 32.75 28 32.75C26.8852 32.75 26.0121 32.2998 25.5114 31.9623C25.4305 31.9077 25.3549 31.8754 25.295 31.8614C25.2377 31.848 25.2067 31.8534 25.1922 31.858C24.4997 32.0737 23.773 32.4394 23.2201 33.0149C22.6818 33.5752 22.2758 34.3658 22.2498 35.5169C22.2405 35.9311 21.8972 36.2592 21.4831 36.2498C21.0689 36.2404 20.7408 35.8972 20.7502 35.4831C20.7848 33.9522 21.3427 32.8039 22.1385 31.9757C22.9196 31.1627 23.8972 30.6904 24.746 30.4259C25.3719 30.2309 25.9616 30.4567 26.3499 30.7185C26.7091 30.9606 27.2905 31.25 28 31.25C28.7095 31.25 29.2909 30.9606 29.6501 30.7185C30.0384 30.4567 30.6281 30.2309 31.254 30.4259C32.1028 30.6903 33.0804 31.1627 33.8615 31.9757C34.6573 32.8039 35.2152 33.9522 35.2498 35.4831C35.2592 35.8972 34.9311 36.2405 34.5169 36.2498C34.1028 36.2592 33.7596 35.931 33.7502 35.5169C33.7242 34.3658 33.3182 33.5752 32.7799 33.0149C32.227 32.4394 31.5003 32.0737 30.8078 31.858C30.7933 31.8534 30.7623 31.848 30.705 31.8614Z" fill="#5F5F6A"/>
<path d="M28 73.25C22.0629 73.25 17.25 78.0629 17.25 84C17.25 89.9371 22.0629 94.75 28 94.75C33.9371 94.75 38.75 89.9371 38.75 84C38.75 78.0629 33.9371 73.25 28 73.25ZM18.75 84C18.75 78.8914 22.8914 74.75 28 74.75C33.1086 74.75 37.25 78.8914 37.25 84C37.25 86.294 36.4149 88.3929 35.0322 90.0094C34.7942 89.1853 34.3779 88.5131 33.8615 87.9757C33.0804 87.1627 32.1028 86.6903 31.254 86.4259C30.6281 86.2309 30.0384 86.4567 29.6501 86.7185C29.2909 86.9606 28.7095 87.25 28 87.25C27.2905 87.25 26.7091 86.9606 26.3499 86.7185C25.9616 86.4568 25.3719 86.2309 24.746 86.4259C23.8972 86.6904 22.9196 87.1627 22.1385 87.9757C21.6221 88.5131 21.2058 89.1853 20.9678 90.0095C19.5851 88.3929 18.75 86.294 18.75 84ZM22.2626 91.2561C22.3395 90.2448 22.7235 89.5318 23.2201 89.0149C23.773 88.4394 24.4997 88.0737 25.1922 87.858C25.2067 87.8534 25.2377 87.848 25.295 87.8614C25.3549 87.8754 25.4305 87.9077 25.5114 87.9623C26.0121 88.2998 26.8852 88.75 28 88.75C29.1148 88.75 29.9879 88.2998 30.4886 87.9623C30.5695 87.9077 30.6451 87.8754 30.705 87.8614C30.7623 87.848 30.7933 87.8534 30.8078 87.858C31.5003 88.0737 32.227 88.4394 32.7799 89.0149C33.2766 89.5318 33.6606 90.2448 33.7374 91.2561C32.1607 92.5046 30.1674 93.25 28 93.25C25.8326 93.25 23.8393 92.5046 22.2626 91.2561ZM25.75 82C25.75 80.7502 26.7209 79.75 28 79.75C29.2791 79.75 30.25 80.7502 30.25 82C30.25 83.2498 29.2791 84.25 28 84.25C26.7209 84.25 25.75 83.2498 25.75 82ZM28 78.25C25.8782 78.25 24.25 79.9361 24.25 82C24.25 84.0639 25.8782 85.75 28 85.75C30.1218 85.75 31.75 84.0639 31.75 82C31.75 79.9361 30.1218 78.25 28 78.25Z" fill="#5F5F6A"/>
<path d="M28 129.5C22.201 129.5 17.5 134.201 17.5 140C17.5 145.799 22.201 150.5 28 150.5C33.799 150.5 38.5 145.799 38.5 140C38.5 134.201 33.799 129.5 28 129.5ZM18.5 140C18.5 134.753 22.7533 130.5 28 130.5C33.2467 130.5 37.5 134.753 37.5 140C37.5 142.529 36.5116 144.828 34.9001 146.53C34.7084 145.534 34.2599 144.751 33.6813 144.149C32.9382 143.375 32.0024 142.921 31.1796 142.665C30.6534 142.501 30.1434 142.687 29.7899 142.926C29.4071 143.184 28.777 143.5 28 143.5C27.2229 143.5 26.5929 143.184 26.2102 142.926C25.8566 142.687 25.3466 142.501 24.8204 142.665C23.9976 142.921 23.0618 143.375 22.3187 144.149C21.7401 144.751 21.2916 145.534 21.0999 146.53C19.4884 144.828 18.5 142.529 18.5 140ZM22.005 147.37C22.0614 146.23 22.4814 145.423 23.0398 144.842C23.6308 144.227 24.3993 143.843 25.1178 143.619C25.2456 143.579 25.4366 143.61 25.6512 143.755C26.1283 144.077 26.9527 144.5 28 144.5C29.0473 144.5 29.8717 144.077 30.3488 143.755C30.5634 143.61 30.7544 143.579 30.8822 143.619C31.6007 143.843 32.3692 144.227 32.9602 144.842C33.5186 145.423 33.9386 146.23 33.995 147.37C32.3599 148.702 30.2732 149.5 28 149.5C25.7268 149.5 23.6401 148.702 22.005 147.37ZM25.5 138C25.5 136.615 26.5804 135.5 28 135.5C29.4196 135.5 30.5 136.615 30.5 138C30.5 139.385 29.4196 140.5 28 140.5C26.5804 140.5 25.5 139.385 25.5 138ZM28 134.5C26.0186 134.5 24.5 136.072 24.5 138C24.5 139.928 26.0186 141.5 28 141.5C29.9813 141.5 31.5 139.928 31.5 138C31.5 136.072 29.9813 134.5 28 134.5Z" fill="#5F5F6A"/>
</svg>
