<svg width="56" height="168" viewBox="0 0 56 168" fill="none" xmlns="http://www.w3.org/2000/svg">
<path opacity="0.5" d="M30.0049 30.7123C30.0098 30.5428 30.0122 30.4581 30.0472 30.3734C30.0764 30.3027 30.1302 30.2294 30.1889 30.1804C30.2592 30.1216 30.3457 30.0917 30.5185 30.0319L33.2383 29.0906C33.3354 29.057 33.3839 29.0402 33.4336 29.0335C33.4777 29.0276 33.5223 29.0276 33.5664 29.0335C33.6161 29.0402 33.6646 29.057 33.7617 29.0906L36.4815 30.0319C36.6543 30.0917 36.7408 30.1216 36.8111 30.1804C36.8698 30.2294 36.9236 30.3027 36.9528 30.3734C36.9878 30.4581 36.9902 30.5428 36.9951 30.7123C37.0175 31.4866 36.9821 32.9817 36.4719 34.0857C35.9294 35.2593 34.5729 36.2856 33.8965 36.7445C33.7694 36.8307 33.7059 36.8738 33.6181 36.8952C33.5487 36.912 33.4513 36.912 33.3819 36.8952C33.2941 36.8738 33.2306 36.8307 33.1035 36.7445C32.4271 36.2856 31.0706 35.2593 30.5281 34.0857C30.0179 32.9817 29.9825 31.4866 30.0049 30.7123Z" fill="#5F5F6A"/>
<path d="M26 19.75C24.6953 19.75 23.671 20.7756 23.671 22C23.671 23.2244 24.6953 24.25 26 24.25C27.3047 24.25 28.3289 23.2244 28.3289 22C28.3289 20.7756 27.3047 19.75 26 19.75ZM22.171 22C22.171 19.9107 23.9038 18.25 26 18.25C28.0961 18.25 29.8289 19.9107 29.8289 22C29.8289 24.0893 28.0961 25.75 26 25.75C23.9038 25.75 22.171 24.0893 22.171 22ZM23.4706 27.9663C23.289 27.8489 23.1514 27.8417 23.0875 27.8593C22.9438 27.8989 22.8008 27.9414 22.6586 27.9869L21.6742 28.3021C20.9669 28.5284 20.4304 29.0566 20.206 29.7059C20.1842 29.769 20.1676 29.8527 20.1544 29.9777L19.7634 33.6766L19.7615 33.6898C19.6867 34.2167 19.9675 34.62 20.3945 34.7191C21.4718 34.9691 23.2859 35.25 26 35.25C26.4142 35.25 26.75 35.5858 26.75 36C26.75 36.4142 26.4142 36.75 26 36.75C23.1821 36.75 21.2535 36.4583 20.0555 36.1803C18.7667 35.8812 18.114 34.6695 18.2744 33.4933L18.6627 29.82C18.6809 29.6478 18.7125 29.4351 18.7883 29.2158C19.1724 28.1048 20.0749 27.239 21.2169 26.8735L22.2013 26.5583C22.3631 26.5065 22.5258 26.4581 22.6893 26.4131C23.3008 26.2448 23.8819 26.446 24.2851 26.7068C24.6552 26.9461 25.2593 27.2356 26 27.2356C26.7407 27.2356 27.3448 26.9461 27.7148 26.7068C28.1181 26.446 28.6992 26.2448 29.3107 26.4131C29.4741 26.4581 29.6368 26.5065 29.7986 26.5583L30.783 26.8735C31.1775 26.9997 31.395 27.4219 31.2687 27.8164C31.1424 28.2109 30.7203 28.4283 30.3258 28.3021L29.3414 27.9869C29.1991 27.9414 29.0561 27.8989 28.9125 27.8593C28.8485 27.8417 28.7109 27.8489 28.5294 27.9663C28.0165 28.298 27.1292 28.7356 26 28.7356C24.8707 28.7356 23.9835 28.298 23.4706 27.9663Z" fill="#5F5F6A"/>
<path d="M33.5 84.5C33.584 84.5 33.6629 84.521 33.7324 84.5576C33.7959 84.5734 33.8552 84.5939 33.9053 84.6113C33.9119 84.6137 33.9184 84.616 33.9248 84.6182L36.6455 85.5596C36.6569 85.5635 36.6687 85.5672 36.6807 85.5713C36.8157 85.6174 36.9881 85.6768 37.1318 85.7969C37.2526 85.8978 37.355 86.0372 37.415 86.1826C37.4863 86.3554 37.4908 86.5293 37.4941 86.6641C37.4944 86.6756 37.4948 86.6873 37.4951 86.6982C37.5177 87.4788 37.4889 89.0776 36.9258 90.2959C36.6156 90.9668 36.088 91.5682 35.5762 92.0479C35.0592 92.5324 34.5278 92.9201 34.1768 93.1582C34.169 93.1634 34.1614 93.1693 34.1533 93.1748C34.0772 93.2269 33.984 93.2907 33.8691 93.3379C33.7777 93.4376 33.6459 93.5 33.5 93.5C33.3542 93.5 33.2232 93.4374 33.1318 93.3379C33.0168 93.2906 32.9229 93.2269 32.8467 93.1748C32.8386 93.1693 32.831 93.1634 32.8232 93.1582C32.4722 92.92 31.9409 92.5324 31.4238 92.0479C30.912 91.5682 30.3844 90.9668 30.0742 90.2959C29.5111 89.0776 29.4823 87.4788 29.5049 86.6982C29.5052 86.6873 29.5056 86.6756 29.5059 86.6641C29.5092 86.5293 29.5137 86.3553 29.585 86.1826C29.645 86.0372 29.7474 85.8978 29.8682 85.7969C30.0119 85.6768 30.1843 85.6174 30.3193 85.5713C30.3315 85.5671 30.344 85.5636 30.3555 85.5596L33.0752 84.6182C33.0816 84.616 33.0881 84.6137 33.0947 84.6113C33.1448 84.5939 33.2041 84.5734 33.2676 84.5576C33.3371 84.521 33.416 84.5 33.5 84.5ZM27.7148 82.707C28.1181 82.4463 28.6991 82.2448 29.3105 82.4131C29.474 82.4581 29.637 82.5068 29.7988 82.5586L30.7832 82.873C31.1777 82.9993 31.3948 83.4219 31.2686 83.8164C31.1423 84.2108 30.7206 84.4278 30.3262 84.3018L29.3418 83.9873C29.1996 83.9418 29.0558 83.8989 28.9121 83.8594C28.848 83.8419 28.7106 83.8496 28.5293 83.9668C28.0164 84.2985 27.129 84.7353 26 84.7354C24.871 84.7354 23.9836 84.2985 23.4707 83.9668C23.2895 83.8496 23.152 83.8419 23.0879 83.8594C22.9442 83.8989 22.8004 83.9418 22.6582 83.9873L21.6738 84.3018C20.9667 84.5282 20.4305 85.0569 20.2061 85.7061C20.1843 85.7692 20.1675 85.8527 20.1543 85.9775L19.7637 89.6768L19.7617 89.6895C19.6869 90.2162 19.9676 90.6196 20.3945 90.7188C21.4718 90.9687 23.286 91.25 26 91.25C26.4142 91.25 26.75 91.5858 26.75 92C26.75 92.4142 26.4142 92.75 26 92.75C23.1824 92.75 21.2537 92.4587 20.0557 92.1807C18.7669 91.8816 18.114 90.6694 18.2744 89.4932L18.6631 85.8203C18.6813 85.6481 18.7123 85.4351 18.7881 85.2158C19.1721 84.1049 20.0748 83.2386 21.2168 82.873L22.2012 82.5586C22.363 82.5068 22.526 82.4581 22.6895 82.4131C23.3009 82.2448 23.8819 82.4463 24.2852 82.707C24.6552 82.9463 25.2594 83.2354 26 83.2354C26.7406 83.2353 27.3448 82.9463 27.7148 82.707ZM30.6816 86.5049C30.5891 86.5369 30.5434 86.5528 30.5117 86.5664C30.5105 86.5785 30.509 86.5959 30.5078 86.6221C30.5066 86.6505 30.5061 86.6833 30.5049 86.7266C30.4827 87.4948 30.5251 88.8865 30.9824 89.876C31.2147 90.3785 31.6364 90.8769 32.1074 91.3184C32.4135 91.6052 32.728 91.8571 33 92.0586V85.7021L30.6816 86.5049ZM34 92.0586C34.272 91.8571 34.5865 91.6052 34.8926 91.3184C35.3636 90.8769 35.7853 90.3785 36.0176 89.876C36.4749 88.8865 36.5173 87.4948 36.4951 86.7266C36.4939 86.6833 36.4934 86.6505 36.4922 86.6221C36.491 86.5959 36.4895 86.5785 36.4883 86.5664H36.4873C36.4557 86.5529 36.4107 86.5368 36.3184 86.5049L34 85.7021V92.0586ZM26 74.25C28.0962 74.25 29.8291 75.9107 29.8291 78C29.8291 80.0893 28.0962 81.75 26 81.75C23.9038 81.75 22.1709 80.0893 22.1709 78C22.1709 75.9107 23.9038 74.25 26 74.25ZM26 75.75C24.6953 75.75 23.6709 76.7756 23.6709 78C23.6709 79.2244 24.6953 80.25 26 80.25C27.3047 80.25 28.3291 79.2244 28.3291 78C28.3291 76.7756 27.3047 75.75 26 75.75Z" fill="#5F5F6A"/>
<path d="M25.8206 130.5C23.8876 130.5 22.3206 132.067 22.3206 134C22.3206 135.933 23.8876 137.5 25.8206 137.5C27.7536 137.5 29.3206 135.933 29.3206 134C29.3206 132.067 27.7536 130.5 25.8206 130.5ZM23.3206 134C23.3206 132.619 24.4399 131.5 25.8206 131.5C27.2013 131.5 28.3206 132.619 28.3206 134C28.3206 135.381 27.2013 136.5 25.8206 136.5C24.4399 136.5 23.3206 135.381 23.3206 134Z" fill="#5F5F6A"/>
<path d="M22.4982 139.748C22.8994 139.616 23.3903 139.743 23.9289 140.018C24.4053 140.261 25.053 140.486 25.8206 140.486C26.5882 140.486 27.2359 140.261 27.7123 140.018C28.2509 139.743 28.7418 139.616 29.1431 139.748L30.1022 140.063C30.3646 140.149 30.6471 140.006 30.7333 139.744C30.8195 139.481 30.6767 139.199 30.4143 139.113L29.4552 138.798C28.6539 138.534 27.8467 138.826 27.2578 139.127C26.8827 139.318 26.3912 139.486 25.8206 139.486C25.25 139.486 24.7585 139.318 24.3834 139.127C23.7945 138.826 22.9873 138.534 22.186 138.798L21.2269 139.113C20.0937 139.485 19.228 140.404 18.9365 141.553L18.9297 141.58L18.5233 144.516C18.3765 145.576 18.9439 146.666 20.0778 146.936C21.2275 147.21 23.0901 147.5 25.8206 147.5C26.4314 147.5 26.9987 147.485 27.5244 147.46C27.8002 147.446 28.0129 147.212 27.9995 146.936C27.986 146.66 27.7516 146.448 27.4757 146.461C26.9666 146.486 26.4155 146.5 25.8206 146.5C23.1611 146.5 21.3768 146.217 20.3095 145.963C19.7665 145.834 19.4243 145.3 19.5138 144.653L19.9125 141.773C20.1249 140.972 20.7346 140.327 21.539 140.063L22.4982 139.748Z" fill="#5F5F6A"/>
<path d="M33.0951 140.611C33.1452 140.594 33.2038 140.573 33.2673 140.557C33.3369 140.521 33.416 140.5 33.5001 140.5C33.5841 140.5 33.6633 140.521 33.7328 140.557C33.7963 140.573 33.855 140.594 33.9051 140.611L33.9252 140.618L36.6451 141.559L36.6806 141.572C36.8156 141.618 36.9879 141.677 37.1317 141.797C37.2525 141.898 37.3549 142.037 37.415 142.183C37.4863 142.355 37.4907 142.529 37.4941 142.664L37.495 142.698C37.5175 143.478 37.489 145.077 36.9258 146.295C36.6156 146.967 36.0883 147.568 35.5764 148.048C35.0594 148.533 34.5283 148.92 34.1772 149.158L34.153 149.175C34.0768 149.227 33.9837 149.291 33.8687 149.338C33.7773 149.437 33.646 149.5 33.5001 149.5C33.3541 149.5 33.2228 149.437 33.1314 149.338C33.0164 149.291 32.9234 149.227 32.8471 149.175L32.8229 149.158C32.4718 148.92 31.9407 148.533 31.4237 148.048C30.9118 147.568 30.3845 146.967 30.0743 146.295C29.5111 145.077 29.4826 143.478 29.5052 142.698L29.506 142.664C29.5094 142.529 29.5138 142.355 29.5851 142.183C29.6452 142.037 29.7476 141.898 29.8684 141.797C30.0122 141.677 30.1845 141.618 30.3195 141.572L30.355 141.559L33.0749 140.618L33.0951 140.611ZM34.0001 141.702V148.058C34.2721 147.857 34.5865 147.605 34.8926 147.318C35.3637 146.877 35.7858 146.379 36.0181 145.876C36.4754 144.886 36.5176 143.495 36.4954 142.727C36.4941 142.683 36.4932 142.65 36.4919 142.622C36.4907 142.596 36.4895 142.578 36.4883 142.566C36.4566 142.553 36.4109 142.537 36.318 142.504L34.0001 141.702ZM32.1075 147.318C32.4136 147.605 32.7281 147.857 33.0001 148.058V141.702L30.6821 142.504C30.5892 142.537 30.5441 142.552 30.5124 142.566C30.5112 142.578 30.5094 142.596 30.5082 142.622C30.507 142.65 30.506 142.683 30.5047 142.727C30.4825 143.495 30.5247 144.886 30.9821 145.876C31.2143 146.379 31.6365 146.877 32.1075 147.318Z" fill="#5F5F6A"/>
</svg>
