<svg width="56" height="168" viewBox="0 0 56 168" fill="none" xmlns="http://www.w3.org/2000/svg">
<path opacity="0.5" d="M27.9999 24.75C26.6952 24.75 25.671 25.7756 25.671 27C25.671 28.2244 26.6952 29.25 27.9999 29.25C29.3046 29.25 30.3288 28.2244 30.3288 27C30.3288 25.7756 29.3046 24.75 27.9999 24.75ZM24.171 27C24.171 24.9107 25.9037 23.25 27.9999 23.25C30.0961 23.25 31.8288 24.9107 31.8288 27C31.8288 29.0893 30.0961 30.75 27.9999 30.75C25.9037 30.75 24.171 29.0893 24.171 27ZM25.4497 32.9528C25.2803 32.842 25.1594 32.8396 25.1105 32.853C24.9591 32.8943 24.8084 32.939 24.6585 32.9869L23.6741 33.3021C22.9126 33.5458 22.3497 34.1388 22.1599 34.8572L21.7297 36.6729C21.6342 37.0759 21.2301 37.3253 20.827 37.2298C20.424 37.1343 20.1746 36.7302 20.2701 36.3271L20.7042 34.4947L20.7063 34.4867C21.0291 33.2469 21.9837 32.2682 23.2168 31.8735L24.2012 31.5583C24.3718 31.5038 24.5432 31.453 24.7155 31.4059C25.3136 31.2426 25.8788 31.4411 26.2707 31.6974C26.6388 31.9381 27.2491 32.2356 27.9999 32.2356C28.7507 32.2356 29.361 31.9381 29.7292 31.6974C30.121 31.4411 30.6862 31.2426 31.2843 31.4059C31.4566 31.453 31.6281 31.5038 31.7986 31.5583L32.783 31.8735C34.0162 32.2682 34.9708 33.2469 35.2935 34.4867L35.2956 34.4947L35.7297 36.3271C35.8252 36.7302 35.5759 37.1343 35.1728 37.2298C34.7698 37.3253 34.3656 37.076 34.2701 36.6729L33.84 34.8572C33.6502 34.1388 33.0873 33.5458 32.3257 33.3021L31.3413 32.9869C31.1914 32.939 31.0407 32.8943 30.8893 32.853C30.8404 32.8396 30.7196 32.842 30.5501 32.9528C30.04 33.2863 29.1441 33.7356 27.9999 33.7356C26.8557 33.7356 25.9598 33.2863 25.4497 32.9528Z" fill="#5F5F6A"/>
<path d="M26.367 17.25H29.633C30.7251 17.25 31.5906 17.25 32.2883 17.307C33.0017 17.3653 33.6053 17.4869 34.1565 17.7677C35.0502 18.2231 35.7769 18.9498 36.2323 19.8435C36.5131 20.3947 36.6347 20.9983 36.693 21.7117C36.75 22.4094 36.75 23.2748 36.75 24.367V31.633C36.75 32.7252 36.75 33.5906 36.693 34.2883C36.6347 35.0017 36.5131 35.6053 36.2323 36.1565C35.7769 37.0502 35.0502 37.7769 34.1565 38.2323C33.6053 38.5131 33.0017 38.6347 32.2883 38.693C31.5906 38.75 30.7252 38.75 29.633 38.75H26.367C25.2748 38.75 24.4094 38.75 23.7117 38.693C22.9983 38.6347 22.3947 38.5131 21.8435 38.2323C20.9498 37.7769 20.2231 37.0502 19.7677 36.1565C19.4869 35.6053 19.3653 35.0017 19.307 34.2883C19.25 33.5906 19.25 32.7251 19.25 31.633V24.367C19.25 23.2749 19.25 22.4094 19.307 21.7117C19.3653 20.9983 19.4869 20.3947 19.7677 19.8435C20.2231 18.9498 20.9498 18.2231 21.8435 17.7677C22.3947 17.4869 22.9983 17.3653 23.7117 17.307C24.4094 17.25 25.2749 17.25 26.367 17.25ZM23.8339 18.802C23.2133 18.8527 22.829 18.9491 22.5245 19.1042C21.913 19.4158 21.4158 19.913 21.1042 20.5245C20.9491 20.829 20.8527 21.2133 20.802 21.8339C20.7506 22.4633 20.75 23.2675 20.75 24.4V31.6C20.75 32.7325 20.7506 33.5367 20.802 34.1661C20.8527 34.7867 20.9491 35.171 21.1042 35.4755C21.4158 36.087 21.913 36.5842 22.5245 36.8958C22.829 37.0509 23.2133 37.1473 23.8339 37.198C24.4633 37.2494 25.2675 37.25 26.4 37.25H29.6C30.7325 37.25 31.5367 37.2494 32.1661 37.198C32.7867 37.1473 33.171 37.0509 33.4755 36.8958C34.087 36.5842 34.5842 36.087 34.8958 35.4755C35.0509 35.171 35.1473 34.7867 35.198 34.1661C35.2494 33.5367 35.25 32.7325 35.25 31.6V24.4C35.25 23.2675 35.2494 22.4633 35.198 21.8339C35.1473 21.2133 35.0509 20.829 34.8958 20.5245C34.5842 19.913 34.087 19.4158 33.4755 19.1042C33.171 18.9491 32.7867 18.8527 32.1661 18.802C31.5367 18.7506 30.7325 18.75 29.6 18.75H26.4C25.2675 18.75 24.4633 18.7506 23.8339 18.802Z" fill="#5F5F6A"/>
<path d="M26.25 20.5C26.25 20.0858 26.5858 19.75 27 19.75H29C29.4142 19.75 29.75 20.0858 29.75 20.5C29.75 20.9142 29.4142 21.25 29 21.25H27C26.5858 21.25 26.25 20.9142 26.25 20.5Z" fill="#5F5F6A"/>
<path d="M24.171 83C24.171 80.9107 25.9037 79.25 27.9999 79.25C30.0961 79.25 31.8288 80.9107 31.8288 83C31.8288 85.0893 30.0961 86.75 27.9999 86.75C25.9037 86.75 24.171 85.0893 24.171 83ZM27.9999 80.75C26.6952 80.75 25.671 81.7756 25.671 83C25.671 84.2244 26.6952 85.25 27.9999 85.25C29.3046 85.25 30.3288 84.2244 30.3288 83C30.3288 81.7756 29.3046 80.75 27.9999 80.75Z" fill="#5F5F6A"/>
<path d="M27 75.75C26.5858 75.75 26.25 76.0858 26.25 76.5C26.25 76.9142 26.5858 77.25 27 77.25H29C29.4142 77.25 29.75 76.9142 29.75 76.5C29.75 76.0858 29.4142 75.75 29 75.75H27Z" fill="#5F5F6A"/>
<path d="M26.367 73.25H29.633C30.7251 73.25 31.5906 73.25 32.2883 73.307C33.0017 73.3653 33.6053 73.4869 34.1565 73.7677C35.0502 74.2231 35.7769 74.9498 36.2323 75.8435C36.5131 76.3947 36.6347 76.9983 36.693 77.7117C36.75 78.4094 36.75 79.2748 36.75 80.367V87.633C36.75 88.7252 36.75 89.5906 36.693 90.2883C36.6347 91.0017 36.5131 91.6053 36.2323 92.1565C35.7769 93.0502 35.0502 93.7769 34.1565 94.2323C33.6053 94.5131 33.0017 94.6347 32.2883 94.693C31.5906 94.75 30.7252 94.75 29.633 94.75H26.367C25.2748 94.75 24.4094 94.75 23.7117 94.693C22.9983 94.6347 22.3947 94.5131 21.8435 94.2323C20.9498 93.7769 20.2231 93.0502 19.7677 92.1565C19.4869 91.6053 19.3653 91.0017 19.307 90.2883C19.25 89.5906 19.25 88.7252 19.25 87.633V80.367C19.25 79.2749 19.25 78.4094 19.307 77.7117C19.3653 76.9983 19.4869 76.3947 19.7677 75.8435C20.2231 74.9498 20.9498 74.2231 21.8435 73.7677C22.3947 73.4869 22.9983 73.3653 23.7117 73.307C24.4094 73.25 25.2749 73.25 26.367 73.25ZM23.8339 74.802C23.2133 74.8527 22.829 74.9491 22.5245 75.1042C21.913 75.4158 21.4158 75.913 21.1042 76.5245C20.9491 76.829 20.8527 77.2133 20.802 77.8339C20.7506 78.4633 20.75 79.2675 20.75 80.4V87.6C20.75 88.7325 20.7506 89.5367 20.802 90.1661L20.8027 90.1747C21.1943 89.0839 22.0891 88.2345 23.2168 87.8735L24.2012 87.5583C24.3718 87.5038 24.5432 87.453 24.7155 87.4059C25.3136 87.2426 25.8788 87.4411 26.2707 87.6974C26.6388 87.9381 27.2491 88.2356 27.9999 88.2356C28.7507 88.2356 29.361 87.9381 29.7292 87.6974C30.121 87.4411 30.6862 87.2426 31.2843 87.4059C31.4566 87.453 31.6281 87.5038 31.7986 87.5583L32.783 87.8735C33.9109 88.2345 34.8057 89.0841 35.1973 90.1751L35.198 90.1661C35.2494 89.5367 35.25 88.7325 35.25 87.6V80.4C35.25 79.2675 35.2494 78.4633 35.198 77.8339C35.1473 77.2133 35.0509 76.829 34.8958 76.5245C34.5842 75.913 34.087 75.4158 33.4755 75.1042C33.171 74.9491 32.7867 74.8527 32.1661 74.802C31.5367 74.7506 30.7325 74.75 29.6 74.75H26.4C25.2675 74.75 24.4633 74.7506 23.8339 74.802ZM22.5245 92.8958C22.829 93.0509 23.2133 93.1473 23.8339 93.198C24.4633 93.2494 25.2675 93.25 26.4 93.25H29.6C30.7325 93.25 31.5367 93.2494 32.1661 93.198C32.7867 93.1473 33.171 93.0509 33.4755 92.8958C33.7416 92.7602 33.986 92.5894 34.203 92.3894L33.84 90.8572C33.6502 90.1388 33.0873 89.5458 32.3257 89.3021L31.3413 88.9869C31.1914 88.939 31.0407 88.8943 30.8893 88.853C30.8404 88.8396 30.7196 88.842 30.5501 88.9528C30.04 89.2863 29.1441 89.7356 27.9999 89.7356C26.8557 89.7356 25.9598 89.2863 25.4497 88.9528C25.2803 88.842 25.1594 88.8396 25.1105 88.853C24.9591 88.8943 24.8084 88.939 24.6585 88.9869L23.6741 89.3021C22.9126 89.5458 22.3497 90.1388 22.1599 90.8572L21.7969 92.3893C22.0139 92.5894 22.2584 92.7602 22.5245 92.8958Z" fill="#5F5F6A"/>
<path d="M24.4212 139C24.4212 137.055 26.0358 135.5 28.0001 135.5C29.9644 135.5 31.579 137.055 31.579 139C31.579 140.945 29.9644 142.5 28.0001 142.5C26.0358 142.5 24.4212 140.945 24.4212 139ZM28.0001 136.5C26.5635 136.5 25.4212 137.631 25.4212 139C25.4212 140.369 26.5635 141.5 28.0001 141.5C29.4367 141.5 30.579 140.369 30.579 139C30.579 137.631 29.4367 136.5 28.0001 136.5Z" fill="#5F5F6A"/>
<path d="M27 132C26.7239 132 26.5 132.224 26.5 132.5C26.5 132.776 26.7239 133 27 133H29C29.2761 133 29.5 132.776 29.5 132.5C29.5 132.224 29.2761 132 29 132H27Z" fill="#5F5F6A"/>
<path d="M26.3774 129.5H29.6226C30.7236 129.5 31.5805 129.5 32.2679 129.556C32.9658 129.613 33.5329 129.731 34.043 129.99C34.8897 130.422 35.5781 131.11 36.0095 131.957C36.2694 132.467 36.3868 133.034 36.4438 133.732C36.5 134.419 36.5 135.276 36.5 136.377V143.623C36.5 144.724 36.5 145.581 36.4438 146.268C36.3868 146.966 36.2694 147.533 36.0095 148.043C35.5781 148.89 34.8897 149.578 34.043 150.01C33.5329 150.269 32.9658 150.387 32.2679 150.444C31.5805 150.5 30.7236 150.5 29.6227 150.5H26.3774C25.2764 150.5 24.4195 150.5 23.7321 150.444C23.0342 150.387 22.4671 150.269 21.957 150.01C21.1103 149.578 20.4219 148.89 19.9905 148.043C19.7306 147.533 19.6132 146.966 19.5562 146.268C19.5 145.581 19.5 144.724 19.5 143.623V136.377C19.5 135.276 19.5 134.419 19.5562 133.732C19.6132 133.034 19.7306 132.467 19.9905 131.957C20.4219 131.11 21.1103 130.422 21.957 129.99C22.4671 129.731 23.0342 129.613 23.7321 129.556C24.4195 129.5 25.2764 129.5 26.3774 129.5ZM23.8135 130.553C23.1774 130.605 22.7566 130.705 22.411 130.881C21.7525 131.217 21.217 131.752 20.8815 132.411C20.7054 132.757 20.6048 133.177 20.5528 133.814C20.5004 134.455 20.5 135.272 20.5 136.4V143.6C20.5 144.728 20.5004 145.545 20.5528 146.186C20.5921 146.667 20.6592 147.025 20.7657 147.321L20.9483 146.55C21.2486 145.396 22.1382 144.481 23.2932 144.112L24.2776 143.796C24.4447 143.743 24.6127 143.693 24.7815 143.647C25.2881 143.509 25.7792 143.675 26.134 143.907C26.5258 144.163 27.1837 144.486 28.0001 144.486C28.8165 144.486 29.4744 144.163 29.8662 143.907C30.221 143.675 30.7121 143.509 31.2187 143.647C31.3875 143.693 31.5555 143.743 31.7226 143.796L32.707 144.112C33.862 144.481 34.7515 145.396 35.0518 146.55L35.0545 146.56L35.2345 147.32C35.3409 147.025 35.4079 146.667 35.4472 146.186C35.4996 145.545 35.5 144.728 35.5 143.6V136.4C35.5 135.272 35.4996 134.455 35.4472 133.814C35.3952 133.177 35.2946 132.757 35.1185 132.411C34.783 131.752 34.2475 131.217 33.589 130.881C33.2434 130.705 32.8226 130.605 32.1865 130.553C31.5446 130.5 30.7284 130.5 29.6 130.5H26.4C25.2716 130.5 24.4554 130.5 23.8135 130.553ZM22.411 149.119C22.7566 149.295 23.1774 149.395 23.8135 149.447C24.4554 149.5 25.2716 149.5 26.4 149.5H29.6C30.7284 149.5 31.5446 149.5 32.1865 149.447C32.8226 149.395 33.2434 149.295 33.589 149.119C33.9201 148.95 34.2201 148.731 34.4793 148.47L34.0827 146.797C33.871 145.991 33.2427 145.333 32.4021 145.064L31.4177 144.749C31.2644 144.7 31.1102 144.654 30.9553 144.612C30.8149 144.573 30.62 144.609 30.4135 144.744C29.9271 145.062 29.0788 145.486 28.0001 145.486C26.9214 145.486 26.0731 145.062 25.5867 144.744C25.3802 144.609 25.1853 144.573 25.0449 144.612C24.89 144.654 24.7358 144.7 24.5825 144.749L23.5981 145.064C22.7575 145.333 22.1292 145.991 21.9175 146.797L21.5209 148.471C21.78 148.731 22.08 148.95 22.411 149.119Z" fill="#5F5F6A"/>
</svg>
