<svg width="56" height="168" viewBox="0 0 56 168" fill="none" xmlns="http://www.w3.org/2000/svg">
<path d="M26 19.75C24.6953 19.75 23.671 20.7756 23.671 22C23.671 23.2244 24.6953 24.25 26 24.25C27.3047 24.25 28.3289 23.2244 28.3289 22C28.3289 20.7756 27.3047 19.75 26 19.75ZM22.171 22C22.171 19.9107 23.9038 18.25 26 18.25C28.0961 18.25 29.8289 19.9107 29.8289 22C29.8289 24.0893 28.0961 25.75 26 25.75C23.9038 25.75 22.171 24.0893 22.171 22ZM23.4706 27.9663C23.289 27.8489 23.1514 27.8417 23.0875 27.8593C22.9438 27.8989 22.8008 27.9414 22.6586 27.9869L21.6742 28.3021C20.9669 28.5284 20.4304 29.0566 20.206 29.7059C20.1842 29.769 20.1676 29.8527 20.1544 29.9777L19.7634 33.6766L19.7615 33.6898C19.6867 34.2167 19.9675 34.62 20.3945 34.7191C21.4718 34.9691 23.2859 35.25 26 35.25C26.4142 35.25 26.75 35.5858 26.75 36C26.75 36.4142 26.4142 36.75 26 36.75C23.1821 36.75 21.2535 36.4583 20.0555 36.1803C18.7667 35.8812 18.114 34.6695 18.2744 33.4933L18.6627 29.82C18.6809 29.6478 18.7125 29.4351 18.7883 29.2158C19.1724 28.1048 20.0749 27.239 21.2169 26.8735L22.2013 26.5583C22.3631 26.5065 22.5258 26.4581 22.6893 26.4131C23.3008 26.2448 23.8819 26.446 24.2851 26.7068C24.6552 26.9461 25.2593 27.2356 26 27.2356C26.7407 27.2356 27.3448 26.9461 27.7148 26.7068C28.1181 26.446 28.6992 26.2448 29.3107 26.4131C29.4741 26.4581 29.6368 26.5065 29.7986 26.5583L30.783 26.8735C31.1775 26.9997 31.395 27.4219 31.2687 27.8164C31.1424 28.2109 30.7203 28.4283 30.3258 28.3021L29.3414 27.9869C29.1991 27.9414 29.0561 27.8989 28.9125 27.8593C28.8485 27.8417 28.7109 27.8489 28.5294 27.9663C28.0165 28.298 27.1292 28.7356 26 28.7356C24.8707 28.7356 23.9835 28.298 23.4706 27.9663Z" fill="#5F5F6A"/>
<path opacity="0.5" d="M32.1381 29.2038C32.1483 29.0886 32.2498 29 32.3718 29H33.6282C33.7502 29 33.8517 29.0886 33.8619 29.2038L33.925 29.9216C34.4678 30.0679 34.9549 30.3397 35.3491 30.7018L36.0373 30.3944C36.1476 30.3451 36.2794 30.3842 36.3403 30.4843L36.9686 31.5157C37.0295 31.6158 36.9994 31.7435 36.8992 31.8094L36.2749 32.2202C36.3408 32.4698 36.3758 32.731 36.3758 33C36.3758 33.269 36.3408 33.5302 36.2749 33.7798L36.8992 34.1906C36.9994 34.2565 37.0295 34.3842 36.9686 34.4843L36.3403 35.5157C36.2794 35.6158 36.1476 35.6549 36.0373 35.6056L35.3491 35.2982C34.9549 35.6603 34.4678 35.9321 33.925 36.0784L33.8619 36.7962C33.8517 36.9114 33.7502 37 33.6282 37H32.3718C32.2498 37 32.1483 36.9114 32.1381 36.7962L32.075 36.0784C31.5322 35.9321 31.0451 35.6603 30.6509 35.2982L29.9627 35.6056C29.8524 35.6549 29.7206 35.6158 29.6597 35.5157L29.0314 34.4843C28.9705 34.3842 29.0006 34.2565 29.1008 34.1906L29.7251 33.7798C29.6592 33.5302 29.6242 33.269 29.6242 33C29.6242 32.731 29.6592 32.4698 29.7251 32.2202L29.1008 31.8094C29.0006 31.7435 28.9705 31.6158 29.0314 31.5157L29.6597 30.4843C29.7206 30.3842 29.8524 30.3451 29.9627 30.3944L30.6509 30.7018C31.0451 30.3397 31.5322 30.0679 32.075 29.9216L32.1381 29.2038ZM33 34.25C33.6904 34.25 34.25 33.6904 34.25 33C34.25 32.3096 33.6904 31.75 33 31.75C32.3096 31.75 31.75 32.3096 31.75 33C31.75 33.6904 32.3096 34.25 33 34.25Z" fill="#5F5F6A"/>
<path d="M31.64 85.16C31.6747 84.765 32.0129 84.5 32.3717 84.5H33.6282C33.987 84.5 34.3252 84.765 34.3599 85.16C34.3781 85.3666 34.5372 85.5883 34.8234 85.7342C34.8797 85.7629 34.9352 85.7929 34.9899 85.8242C35.3045 86.0041 35.6116 86.0369 35.8334 85.9378C36.1625 85.7908 36.5693 85.8991 36.7673 86.2242L37.3956 87.2556C37.6019 87.5944 37.4906 88.0188 37.174 88.2271C36.9945 88.3452 36.8709 88.6047 36.8755 88.9522C36.8757 88.9681 36.8758 88.984 36.8758 89C36.8758 89.016 36.8757 89.0319 36.8755 89.0478C36.8709 89.3953 36.9945 89.6548 37.174 89.7729C37.4906 89.9812 37.6019 90.4056 37.3956 90.7444L36.7673 91.7758C36.5693 92.1009 36.1625 92.2092 35.8333 92.0622C35.6116 91.9631 35.3045 91.9959 34.9899 92.1758C34.9352 92.2071 34.8797 92.2371 34.8234 92.2658C34.5372 92.4117 34.3781 92.6334 34.3599 92.84C34.3252 93.235 33.987 93.5 33.6282 93.5H32.3717C32.0129 93.5 31.6747 93.235 31.64 92.84C31.6219 92.6334 31.4628 92.4117 31.1765 92.2658C31.1202 92.2371 31.0647 92.2071 31.0101 92.1758C30.6955 91.9959 30.3883 91.9631 30.1666 92.0622C29.8374 92.2092 29.4306 92.1009 29.2326 91.7758L28.6044 90.7444C28.398 90.4056 28.5093 89.9812 28.8259 89.7729C29.0054 89.6548 29.1291 89.3953 29.1245 89.0478C29.1242 89.0319 29.1241 89.016 29.1241 89C29.1241 88.984 29.1242 88.9681 29.1245 88.9522C29.1291 88.6047 29.0054 88.3452 28.8259 88.2271C28.5093 88.0188 28.398 87.5944 28.6044 87.2556L29.2326 86.2242C29.4306 85.8991 29.8374 85.7908 30.1666 85.9378C30.3883 86.0369 30.6955 86.0041 31.0101 85.8242C31.0647 85.7929 31.1202 85.7629 31.1765 85.7342C31.4628 85.5883 31.6219 85.3666 31.64 85.16ZM32.5924 85.5C32.4547 86.0258 32.0509 86.411 31.6306 86.6252C31.5886 86.6466 31.5473 86.6689 31.5066 86.6922C31.0827 86.9347 30.5221 87.0867 29.9739 86.9294L29.5891 87.5612C29.9907 87.9434 30.1306 88.4953 30.1244 88.9655L30.1241 89L30.1244 89.0345C30.1306 89.5047 29.9907 90.0566 29.5891 90.4388L29.974 91.0706C30.5221 90.9133 31.0827 91.0653 31.5066 91.3078C31.5473 91.3311 31.5886 91.3534 31.6306 91.3748C32.0509 91.589 32.4547 91.9742 32.5924 92.5H33.4075C33.5452 91.9742 33.949 91.589 34.3693 91.3748C34.4113 91.3534 34.4527 91.3311 34.4934 91.3078C34.9173 91.0653 35.4778 90.9133 36.026 91.0706L36.4108 90.4388C36.0093 90.0566 35.8693 89.5047 35.8756 89.0345L35.8758 89L35.8756 88.9655C35.8693 88.4953 36.0093 87.9434 36.4108 87.5612L36.026 86.9294C35.4778 87.0867 34.9173 86.9347 34.4934 86.6922C34.4527 86.6689 34.4113 86.6466 34.3693 86.6252C33.949 86.411 33.5452 86.0258 33.4075 85.5H32.5924ZM33.7911 88.5934C33.5477 88.1938 32.9855 88.0383 32.5367 88.2839C32.1022 88.5217 31.9758 89.0239 32.2089 89.4066C32.4522 89.8062 33.0144 89.9617 33.4632 89.7161C33.8977 89.4783 34.0242 88.9761 33.7911 88.5934ZM32.0566 87.4067C32.9534 86.9159 34.1117 87.1974 34.6451 88.0732C35.1889 88.966 34.8544 90.0947 33.9433 90.5933C33.0466 91.0841 31.8883 90.8026 31.3548 89.9268C30.811 89.034 31.1456 87.9053 32.0566 87.4067Z" fill="#5F5F6A"/>
<path d="M26 75.75C24.6953 75.75 23.671 76.7756 23.671 78C23.671 79.2244 24.6953 80.25 26 80.25C27.3047 80.25 28.3289 79.2244 28.3289 78C28.3289 76.7756 27.3047 75.75 26 75.75ZM22.171 78C22.171 75.9107 23.9038 74.25 26 74.25C28.0961 74.25 29.8289 75.9107 29.8289 78C29.8289 80.0893 28.0961 81.75 26 81.75C23.9038 81.75 22.171 80.0893 22.171 78ZM23.4706 83.9663C23.289 83.8489 23.1514 83.8417 23.0875 83.8593C22.9438 83.8989 22.8008 83.9414 22.6586 83.9869L21.6742 84.3021C20.9669 84.5284 20.4304 85.0566 20.206 85.7059C20.1842 85.769 20.1676 85.8527 20.1544 85.9777L19.7634 89.6766L19.7615 89.6898C19.6867 90.2167 19.9675 90.62 20.3945 90.7191C21.4718 90.9691 23.2859 91.25 26 91.25C26.4142 91.25 26.75 91.5858 26.75 92C26.75 92.4142 26.4142 92.75 26 92.75C23.1821 92.75 21.2535 92.4583 20.0555 92.1803C18.7667 91.8812 18.114 90.6695 18.2744 89.4933L18.6627 85.82C18.6809 85.6478 18.7125 85.4351 18.7883 85.2158C19.1724 84.1048 20.0749 83.239 21.2169 82.8735L22.2013 82.5583C22.3631 82.5065 22.5258 82.4581 22.6893 82.4131C23.3008 82.2448 23.8819 82.446 24.2851 82.7068C24.6552 82.9461 25.2593 83.2356 26 83.2356C26.7407 83.2356 27.3448 82.9461 27.7148 82.7068C28.1181 82.446 28.6992 82.2448 29.3107 82.4131C29.4741 82.4581 29.6368 82.5065 29.7986 82.5583L30.783 82.8735C31.1775 82.9997 31.395 83.4219 31.2687 83.8164C31.1424 84.2109 30.7203 84.4283 30.3258 84.3021L29.3414 83.9869C29.1991 83.9414 29.0561 83.8989 28.9125 83.8593C28.8485 83.8417 28.7109 83.8489 28.5294 83.9663C28.0165 84.298 27.1292 84.7356 26 84.7356C24.8707 84.7356 23.9835 84.298 23.4706 83.9663Z" fill="#5F5F6A"/>
<path d="M25.9999 131.5C24.5633 131.5 23.421 132.631 23.421 134C23.421 135.369 24.5633 136.5 25.9999 136.5C27.4365 136.5 28.5788 135.369 28.5788 134C28.5788 132.631 27.4365 131.5 25.9999 131.5ZM22.421 134C22.421 132.055 24.0356 130.5 25.9999 130.5C27.9642 130.5 29.5788 132.055 29.5788 134C29.5788 135.945 27.9642 137.5 25.9999 137.5C24.0356 137.5 22.421 135.945 22.421 134ZM23.6063 139.756C23.3878 139.615 23.1763 139.576 23.021 139.618C22.8741 139.659 22.7278 139.702 22.5823 139.749L21.5979 140.064C20.8182 140.314 20.2207 140.898 19.9696 141.624C19.9388 141.713 19.9198 141.819 19.9057 141.951L19.5152 145.646L19.5139 145.655C19.4236 146.29 19.7664 146.83 20.338 146.963C21.4353 147.217 23.2686 147.5 25.9999 147.5C26.276 147.5 26.4999 147.724 26.4999 148C26.4999 148.276 26.276 148.5 25.9999 148.5C23.1994 148.5 21.2898 148.21 20.1119 147.937C18.9657 147.671 18.375 146.592 18.5225 145.523L18.9113 141.846C18.9286 141.682 18.9577 141.491 19.0245 141.297C19.382 140.263 20.2235 139.454 21.293 139.112L22.2774 138.796C22.436 138.746 22.5954 138.698 22.7556 138.654C23.2758 138.511 23.783 138.68 24.1493 138.917C24.5431 139.171 25.1944 139.486 25.9999 139.486C26.8054 139.486 27.4567 139.171 27.8505 138.917C28.2168 138.68 28.724 138.511 29.2442 138.654C29.4044 138.698 29.5638 138.746 29.7224 138.796L30.7068 139.112C30.9698 139.196 31.1147 139.477 31.0305 139.74C30.9463 140.003 30.6649 140.148 30.4019 140.064L29.4175 139.749C29.272 139.702 29.1257 139.659 28.9787 139.618C28.8235 139.576 28.612 139.615 28.3935 139.756C27.9045 140.073 27.0644 140.486 25.9999 140.486C24.9354 140.486 24.0953 140.073 23.6063 139.756Z" fill="#5F5F6A"/>
<path d="M31.6399 141.16C31.6747 140.765 32.0128 140.5 32.3716 140.5H33.6281C33.987 140.5 34.3251 140.765 34.3598 141.16C34.378 141.367 34.5371 141.588 34.8233 141.734C34.8797 141.763 34.9352 141.793 34.9898 141.824C35.3044 142.004 35.6115 142.037 35.8333 141.938C36.1625 141.791 36.5693 141.899 36.7672 142.224L37.3955 143.256C37.6018 143.594 37.4905 144.019 37.1739 144.227C36.9944 144.345 36.8708 144.605 36.8754 144.952C36.8756 144.968 36.8757 144.984 36.8757 145C36.8757 145.016 36.8756 145.032 36.8754 145.048C36.8708 145.395 36.9944 145.655 37.1739 145.773C37.4905 145.981 37.6018 146.406 37.3955 146.744L36.7672 147.776C36.5692 148.101 36.1625 148.209 35.8333 148.062C35.6115 147.963 35.3044 147.996 34.9898 148.176C34.9352 148.207 34.8797 148.237 34.8233 148.266C34.5371 148.412 34.378 148.633 34.3598 148.84C34.3251 149.235 33.987 149.5 33.6281 149.5H32.3716C32.0128 149.5 31.6747 149.235 31.6399 148.84C31.6218 148.633 31.4627 148.412 31.1764 148.266C31.1201 148.237 31.0646 148.207 31.01 148.176C30.6954 147.996 30.3883 147.963 30.1665 148.062C29.8373 148.209 29.4305 148.101 29.2326 147.776L28.6043 146.744C28.3979 146.406 28.5093 145.981 28.8259 145.773C29.0054 145.655 29.129 145.395 29.1244 145.048C29.1242 145.032 29.1241 145.016 29.1241 145C29.1241 144.984 29.1242 144.968 29.1244 144.952C29.129 144.605 29.0054 144.345 28.8259 144.227C28.5092 144.019 28.3979 143.594 28.6043 143.256L29.2325 142.224C29.4305 141.899 29.8373 141.791 30.1665 141.938C30.3883 142.037 30.6954 142.004 31.01 141.824C31.0646 141.793 31.1201 141.763 31.1764 141.734C31.4627 141.588 31.6218 141.367 31.6399 141.16ZM32.5924 141.5C32.4547 142.026 32.0509 142.411 31.6305 142.625C31.5885 142.647 31.5472 142.669 31.5065 142.692C31.0826 142.935 30.5221 143.087 29.9739 142.929L29.5891 143.561C29.9906 143.943 30.1306 144.495 30.1243 144.965L30.1241 145L30.1243 145.035C30.1306 145.505 29.9906 146.057 29.5891 146.439L29.9739 147.071C30.5221 146.913 31.0826 147.065 31.5065 147.308C31.5472 147.331 31.5885 147.353 31.6305 147.375C32.0509 147.589 32.4547 147.974 32.5924 148.5H33.4074C33.5451 147.974 33.9489 147.589 34.3692 147.375C34.4112 147.353 34.4526 147.331 34.4933 147.308C34.9172 147.065 35.4777 146.913 36.0259 147.071L36.4107 146.439C36.0092 146.057 35.8692 145.505 35.8755 145.035L35.8757 145L35.8755 144.965C35.8692 144.495 36.0092 143.943 36.4107 143.561L36.0259 142.929C35.4777 143.087 34.9172 142.935 34.4933 142.692C34.4526 142.669 34.4112 142.647 34.3692 142.625C33.9489 142.411 33.5451 142.026 33.4074 141.5H32.5924ZM33.791 144.593C33.5476 144.194 32.9854 144.038 32.5366 144.284C32.1022 144.522 31.9757 145.024 32.2088 145.407C32.4522 145.806 33.0144 145.962 33.4632 145.716C33.8976 145.478 34.0241 144.976 33.791 144.593ZM32.0566 143.407C32.9533 142.916 34.1116 143.197 34.6451 144.073C35.1888 144.966 34.8543 146.095 33.9432 146.593C33.0465 147.084 31.8882 146.803 31.3547 145.927C30.811 145.034 31.1455 143.905 32.0566 143.407Z" fill="#5F5F6A"/>
</svg>
