<svg width="56" height="168" viewBox="0 0 56 168" fill="none" xmlns="http://www.w3.org/2000/svg">
<path opacity="0.5" d="M31.824 30H34.176C34.6565 30 35.0463 30 35.3625 30.0249C35.6884 30.0506 35.9791 30.1051 36.2498 30.2381C36.6768 30.4479 37.0274 30.7844 37.2483 31.2024C37.3895 31.4696 37.447 31.7564 37.474 32.0747C37.5 32.3818 37.5 32.7596 37.5 33.2212V33.7788C37.5 34.2404 37.5 34.6182 37.474 34.9253C37.447 35.2436 37.3895 35.5304 37.2483 35.7976C37.0274 36.2156 36.6768 36.5521 36.2498 36.7619C35.9791 36.8949 35.6884 36.9494 35.3625 36.9751C35.0463 37 34.6565 37 34.176 37H31.824C31.3435 37 30.9537 37 30.6375 36.9751C30.3116 36.9494 30.0209 36.8949 29.7502 36.7619C29.3232 36.5521 28.9726 36.2156 28.7517 35.7976C28.6105 35.5304 28.553 35.2436 28.526 34.9253C28.5 34.6182 28.5 34.2405 28.5 33.7788V33.2212C28.5 32.7595 28.5 32.3818 28.526 32.0747C28.553 31.7564 28.6105 31.4696 28.7517 31.2024C28.9726 30.7844 29.3232 30.4479 29.7502 30.2381C30.0209 30.1051 30.3116 30.0506 30.6375 30.0249C30.9537 30 31.3435 30 31.824 30ZM30.5079 31.0452L32.7185 33.1768C32.872 33.3248 33.128 33.3248 33.2815 33.1768L35.4921 31.0452C35.4317 31.0359 35.363 31.028 35.2839 31.0218C35.0117 31.0004 34.6613 31 34.1556 31H31.8444C31.3387 31 30.9883 31.0004 30.7161 31.0218C30.637 31.028 30.5683 31.0359 30.5079 31.0452ZM36.3365 31.6201L33.9756 33.8967C33.4348 34.4182 32.5652 34.4182 32.0244 33.8967L29.6635 31.6201C29.6539 31.6364 29.6447 31.6529 29.6358 31.6696C29.5832 31.7692 29.5439 31.9057 29.5224 32.1591C29.5004 32.419 29.5 32.7543 29.5 33.2429V33.7571C29.5 34.2457 29.5004 34.581 29.5224 34.8409C29.5377 35.0211 29.562 35.1422 29.5937 35.2329L30.8752 33.9972C31.0739 33.8055 31.3905 33.8113 31.5821 34.0101C31.7738 34.2089 31.7681 34.5254 31.5693 34.7171L30.326 35.9159C30.421 35.9436 30.5439 35.9646 30.7161 35.9782C30.9883 35.9996 31.3387 36 31.8444 36H34.1556C34.6613 36 35.0117 35.9996 35.2839 35.9782C35.4561 35.9646 35.579 35.9436 35.674 35.9159L34.4307 34.7171C34.2319 34.5254 34.2262 34.2089 34.4179 34.0101C34.6095 33.8113 34.9261 33.8055 35.1248 33.9972L36.4063 35.2329C36.438 35.1422 36.4623 35.0211 36.4776 34.8409C36.4996 34.581 36.5 34.2457 36.5 33.7571V33.2429C36.5 32.7543 36.4996 32.419 36.4776 32.1591C36.4561 31.9057 36.4168 31.7692 36.3642 31.6696C36.3553 31.6529 36.3461 31.6364 36.3365 31.6201Z" fill="#5F5F6A"/>
<path d="M26 19.75C24.6953 19.75 23.671 20.7756 23.671 22C23.671 23.2244 24.6953 24.25 26 24.25C27.3047 24.25 28.3289 23.2244 28.3289 22C28.3289 20.7756 27.3047 19.75 26 19.75ZM22.171 22C22.171 19.9107 23.9038 18.25 26 18.25C28.0961 18.25 29.8289 19.9107 29.8289 22C29.8289 24.0893 28.0961 25.75 26 25.75C23.9038 25.75 22.171 24.0893 22.171 22ZM23.4706 27.9663C23.289 27.8489 23.1514 27.8417 23.0875 27.8593C22.9438 27.8989 22.8008 27.9414 22.6586 27.9869L21.6742 28.3021C20.9669 28.5284 20.4304 29.0566 20.206 29.7059C20.1842 29.769 20.1676 29.8527 20.1544 29.9777L19.7634 33.6766L19.7615 33.6898C19.6867 34.2167 19.9675 34.62 20.3945 34.7191C21.4718 34.9691 23.2859 35.25 26 35.25C26.4142 35.25 26.75 35.5858 26.75 36C26.75 36.4142 26.4142 36.75 26 36.75C23.1821 36.75 21.2535 36.4583 20.0555 36.1803C18.7667 35.8812 18.114 34.6695 18.2744 33.4933L18.6627 29.82C18.6809 29.6478 18.7125 29.4351 18.7883 29.2158C19.1724 28.1048 20.0749 27.239 21.2169 26.8735L22.2013 26.5583C22.3631 26.5065 22.5258 26.4581 22.6893 26.4131C23.3008 26.2448 23.8819 26.446 24.2851 26.7068C24.6552 26.9461 25.2593 27.2356 26 27.2356C26.7407 27.2356 27.3448 26.9461 27.7148 26.7068C28.1181 26.446 28.6992 26.2448 29.3107 26.4131C29.4741 26.4581 29.6368 26.5065 29.7986 26.5583L30.783 26.8735C31.1775 26.9997 31.395 27.4219 31.2687 27.8164C31.1424 28.2109 30.7203 28.4283 30.3258 28.3021L29.3414 27.9869C29.1991 27.9414 29.0561 27.8989 28.9125 27.8593C28.8485 27.8417 28.7109 27.8489 28.5294 27.9663C28.0165 28.298 27.1292 28.7356 26 28.7356C24.8707 28.7356 23.9835 28.298 23.4706 27.9663Z" fill="#5F5F6A"/>
<path fill-rule="evenodd" clip-rule="evenodd" d="M23.671 78C23.671 76.7756 24.6953 75.75 26 75.75C27.3047 75.75 28.3289 76.7756 28.3289 78C28.3289 79.2244 27.3047 80.25 26 80.25C24.6953 80.25 23.671 79.2244 23.671 78ZM26 74.25C23.9038 74.25 22.171 75.9107 22.171 78C22.171 80.0893 23.9038 81.75 26 81.75C28.0961 81.75 29.8289 80.0893 29.8289 78C29.8289 75.9107 28.0961 74.25 26 74.25ZM23.0875 83.8593C23.1514 83.8417 23.289 83.8489 23.4706 83.9663C23.9835 84.298 24.8707 84.7356 26 84.7356C27.1292 84.7356 28.0165 84.298 28.5294 83.9663C28.7109 83.8489 28.8485 83.8417 28.9125 83.8593C29.0561 83.8989 29.1991 83.9414 29.3414 83.9869L30.3258 84.3021C30.7203 84.4283 31.1424 84.2109 31.2687 83.8164C31.395 83.4219 31.1775 82.9997 30.783 82.8735L29.7986 82.5583C29.6368 82.5065 29.4741 82.4581 29.3107 82.4131C28.6992 82.2448 28.1181 82.446 27.7148 82.7068C27.3448 82.9461 26.7407 83.2356 26 83.2356C25.2593 83.2356 24.6552 82.9461 24.2851 82.7068C23.8819 82.446 23.3008 82.2448 22.6893 82.4131C22.5258 82.4581 22.3631 82.5065 22.2013 82.5583L21.2169 82.8735C20.0749 83.239 19.1724 84.1048 18.7883 85.2158C18.7125 85.4351 18.6809 85.6478 18.6627 85.82L18.2744 89.4933C18.114 90.6695 18.7667 91.8812 20.0555 92.1803C21.2535 92.4583 23.1821 92.75 26 92.75C26.4142 92.75 26.75 92.4142 26.75 92C26.75 91.5858 26.4142 91.25 26 91.25C23.2859 91.25 21.4718 90.9691 20.3945 90.7191C19.9675 90.62 19.6867 90.2167 19.7615 89.6898L19.7634 89.6766L20.1544 85.9777C20.1676 85.8527 20.1842 85.769 20.206 85.7059C20.4304 85.0566 20.9669 84.5284 21.6742 84.3021L22.6586 83.9869C22.8008 83.9414 22.9438 83.8989 23.0875 83.8593ZM34.176 86H31.824C31.3435 86 30.9537 86 30.6375 86.0249C30.3116 86.0506 30.0209 86.1051 29.7502 86.2381C29.3232 86.4479 28.9726 86.7844 28.7517 87.2024C28.6105 87.4696 28.553 87.7564 28.526 88.0747C28.5 88.3818 28.5 88.7595 28.5 89.2211V89.7788C28.5 90.2404 28.5 90.6182 28.526 90.9253C28.553 91.2436 28.6105 91.5304 28.7517 91.7976C28.9726 92.2156 29.3232 92.5521 29.7502 92.7619C30.0209 92.8949 30.3116 92.9494 30.6375 92.9751C30.9537 93 31.3435 93 31.824 93H34.176C34.6565 93 35.0463 93 35.3625 92.9751C35.6884 92.9494 35.9791 92.8949 36.2498 92.7619C36.6768 92.5521 37.0274 92.2156 37.2483 91.7976C37.3895 91.5304 37.447 91.2436 37.474 90.9253C37.5 90.6182 37.5 90.2404 37.5 89.7788V89.2212C37.5 88.7596 37.5 88.3818 37.474 88.0747C37.447 87.7564 37.3895 87.4696 37.2483 87.2024C37.0274 86.7844 36.6768 86.4479 36.2498 86.2381C35.9791 86.1051 35.6884 86.0506 35.3625 86.0249C35.0463 86 34.6565 86 34.176 86ZM32.7185 89.1768L30.5079 87.0452C30.5683 87.0359 30.637 87.028 30.7161 87.0218C30.9883 87.0004 31.3387 87 31.8444 87H34.1556C34.6613 87 35.0117 87.0004 35.2839 87.0218C35.363 87.028 35.4317 87.0359 35.4921 87.0452L33.2815 89.1768C33.128 89.3248 32.872 89.3248 32.7185 89.1768ZM33.9756 89.8967L36.3365 87.6201C36.3461 87.6364 36.3553 87.6529 36.3642 87.6696C36.4168 87.7692 36.4561 87.9057 36.4776 88.1591C36.4996 88.419 36.5 88.7543 36.5 89.2429V89.7571C36.5 90.2457 36.4996 90.581 36.4776 90.8409C36.4623 91.0211 36.438 91.1422 36.4063 91.2329L35.1248 89.9972C34.9261 89.8055 34.6095 89.8113 34.4179 90.0101C34.2262 90.2089 34.2319 90.5254 34.4307 90.7171L35.674 91.9159C35.579 91.9436 35.4561 91.9646 35.2839 91.9782C35.0117 91.9996 34.6613 92 34.1556 92H31.8444C31.3387 92 30.9883 91.9996 30.7161 91.9782C30.5439 91.9646 30.421 91.9436 30.326 91.9159L31.5693 90.7171C31.7681 90.5254 31.7738 90.2089 31.5821 90.0101C31.3905 89.8113 31.0739 89.8055 30.8752 89.9972L29.5937 91.2329C29.562 91.1422 29.5377 91.0211 29.5224 90.8409C29.5004 90.581 29.5 90.2457 29.5 89.7571V89.2429C29.5 88.7543 29.5004 88.419 29.5224 88.1591C29.5439 87.9057 29.5832 87.7692 29.6358 87.6696C29.6447 87.6529 29.6539 87.6364 29.6635 87.6201L32.0244 89.8967C32.5652 90.4182 33.4348 90.4182 33.9756 89.8967Z" fill="#5F5F6A"/>
<path fill-rule="evenodd" clip-rule="evenodd" d="M23.4212 134C23.4212 132.631 24.5635 131.5 26.0001 131.5C27.4368 131.5 28.5791 132.631 28.5791 134C28.5791 135.369 27.4368 136.5 26.0001 136.5C24.5635 136.5 23.4212 135.369 23.4212 134ZM26.0001 130.5C24.0359 130.5 22.4212 132.055 22.4212 134C22.4212 135.945 24.0359 137.5 26.0001 137.5C27.9644 137.5 29.5791 135.945 29.5791 134C29.5791 132.055 27.9644 130.5 26.0001 130.5ZM23.0213 139.618C23.1765 139.576 23.388 139.615 23.6065 139.756C24.0956 140.073 24.9357 140.486 26.0001 140.486C27.0646 140.486 27.9047 140.073 28.3938 139.756C28.6123 139.615 28.8238 139.576 28.979 139.618C29.126 139.659 29.2722 139.702 29.4177 139.749L30.4021 140.064C30.6651 140.148 30.9466 140.003 31.0308 139.74C31.115 139.477 30.97 139.196 30.707 139.112L29.7226 138.796C29.564 138.746 29.4046 138.698 29.2445 138.654C28.7242 138.511 28.217 138.68 27.8507 138.917C27.4569 139.171 26.8056 139.486 26.0001 139.486C25.1947 139.486 24.5434 139.171 24.1495 138.917C23.7832 138.68 23.276 138.511 22.7558 138.654C22.5957 138.698 22.4363 138.746 22.2777 138.796L21.2933 139.112C20.2753 139.437 19.4641 140.186 19.0799 141.149L19.0793 141.151L19.078 141.154C19.0769 141.157 19.0744 141.163 19.0716 141.172C19.0645 141.192 19.0602 141.208 19.0585 141.215C19.0569 141.221 19.0509 141.241 19.0344 141.295C19.0116 141.37 18.9569 141.591 18.9423 141.668C18.9156 141.808 18.9086 141.874 18.8974 141.98L18.5228 145.523C18.3753 146.592 18.9659 147.671 20.1121 147.937C21.29 148.21 23.1996 148.5 26.0001 148.5C26.2763 148.5 26.5001 148.276 26.5001 148C26.5001 147.724 26.2763 147.5 26.0001 147.5C23.2688 147.5 21.4356 147.217 20.3382 146.963C19.7667 146.83 19.4238 146.29 19.5142 145.655L19.5154 145.646L19.8921 142.083C19.9018 141.991 19.9056 141.955 19.9248 141.854C19.9247 141.854 19.925 141.853 19.9255 141.85L19.9278 141.84L19.9351 141.808C19.941 141.782 19.9484 141.752 19.956 141.721C19.9637 141.69 19.9713 141.66 19.978 141.634L19.9866 141.602L19.9894 141.592C19.9902 141.589 19.9906 141.588 19.9906 141.588C20.004 141.544 20.0123 141.516 20.0179 141.497C20.2919 140.83 20.8645 140.299 21.5981 140.064L22.5825 139.749C22.728 139.702 22.8743 139.659 23.0213 139.618ZM34.1724 142.6H31.8278C31.3442 142.6 30.9577 142.6 30.6455 142.625C30.3254 142.65 30.049 142.703 29.7944 142.828C29.3859 143.029 29.051 143.35 28.8402 143.749C28.7079 144 28.6522 144.271 28.6257 144.583C28.6001 144.886 28.6001 145.26 28.6001 145.725V146.275C28.6001 146.74 28.6001 147.114 28.6257 147.417C28.6522 147.729 28.7079 148 28.8402 148.251C29.051 148.65 29.3859 148.971 29.7944 149.172C30.049 149.297 30.3254 149.35 30.6455 149.375C30.9577 149.4 31.3441 149.4 31.8277 149.4H34.1724C34.656 149.4 35.0425 149.4 35.3547 149.375C35.6748 149.35 35.9512 149.297 36.2058 149.172C36.6143 148.971 36.9492 148.65 37.16 148.251C37.2923 148 37.348 147.729 37.3745 147.417C37.4001 147.114 37.4001 146.74 37.4001 146.275V145.725C37.4001 145.26 37.4001 144.886 37.3745 144.583C37.348 144.271 37.2923 144 37.16 143.749C36.9492 143.35 36.6143 143.029 36.2058 142.828C35.9512 142.703 35.6748 142.65 35.3547 142.625C35.0425 142.6 34.656 142.6 34.1724 142.6ZM32.6492 145.749L30.3032 143.487C30.4063 143.457 30.5351 143.436 30.7083 143.422C30.9854 143.4 31.3404 143.4 31.8445 143.4H34.1557C34.6598 143.4 35.0148 143.4 35.2919 143.422C35.4651 143.436 35.5939 143.457 35.697 143.487L33.351 145.749C33.1588 145.934 32.8414 145.934 32.6492 145.749ZM33.9063 146.325L36.3538 143.965C36.3905 144.015 36.4236 144.068 36.4527 144.123C36.5141 144.239 36.5553 144.391 36.5773 144.651C36.5998 144.916 36.6001 145.256 36.6001 145.743V146.257C36.6001 146.744 36.5998 147.084 36.5773 147.349C36.5553 147.609 36.5141 147.761 36.4527 147.877C36.4481 147.886 36.4434 147.894 36.4386 147.903L35.0555 146.569C34.8965 146.416 34.6433 146.42 34.4899 146.579C34.3366 146.739 34.3412 146.992 34.5002 147.145L35.8562 148.453L35.853 148.454C35.7274 148.516 35.5647 148.556 35.2919 148.578C35.0148 148.6 34.6598 148.6 34.1557 148.6H31.8445C31.3404 148.6 30.9854 148.6 30.7083 148.578C30.4355 148.556 30.2728 148.516 30.1472 148.454L30.144 148.453L31.5 147.145C31.659 146.992 31.6636 146.739 31.5103 146.579C31.3569 146.42 31.1037 146.416 30.9447 146.569L29.5615 147.903C29.5568 147.894 29.5521 147.886 29.5475 147.877C29.4861 147.761 29.4449 147.609 29.4229 147.349C29.4004 147.084 29.4001 146.744 29.4001 146.257V145.743C29.4001 145.256 29.4004 144.916 29.4229 144.651C29.4449 144.391 29.4861 144.239 29.5475 144.123C29.5766 144.068 29.6097 144.015 29.6464 143.965L32.0939 146.325C32.596 146.809 33.4042 146.809 33.9063 146.325Z" fill="#5F5F6A"/>
</svg>
