<svg width="56" height="168" viewBox="0 0 56 168" fill="none" xmlns="http://www.w3.org/2000/svg">
<path d="M28.75 25C28.75 24.5858 28.4142 24.25 28 24.25C27.5858 24.25 27.25 24.5858 27.25 25V25.3535C27.0368 25.4138 26.8342 25.4992 26.6455 25.6062C26.3543 25.4135 25.9584 25.4455 25.7019 25.7019C25.4455 25.9584 25.4135 26.3543 25.6062 26.6455C25.4992 26.8342 25.4138 27.0368 25.3535 27.25H25C24.5858 27.25 24.25 27.5858 24.25 28C24.25 28.4142 24.5858 28.75 25 28.75H25.3535C25.4138 28.9632 25.4992 29.1658 25.6062 29.3545C25.4135 29.6457 25.4455 30.0416 25.7019 30.2981C25.9584 30.5545 26.3543 30.5865 26.6455 30.3938C26.8342 30.5008 27.0368 30.5862 27.25 30.6465V31C27.25 31.4142 27.5858 31.75 28 31.75C28.4142 31.75 28.75 31.4142 28.75 31V30.6465C28.9632 30.5862 29.1658 30.5008 29.3545 30.3938C29.6457 30.5865 30.0416 30.5545 30.2981 30.2981C30.5545 30.0416 30.5865 29.6457 30.3938 29.3545C30.5008 29.1658 30.5862 28.9632 30.6465 28.75H31C31.4142 28.75 31.75 28.4142 31.75 28C31.75 27.5858 31.4142 27.25 31 27.25H30.6465C30.5862 27.0368 30.5008 26.8342 30.3938 26.6455C30.5865 26.3543 30.5545 25.9584 30.2981 25.7019C30.0416 25.4455 29.6457 25.4135 29.3545 25.6062C29.1658 25.4992 28.9632 25.4138 28.75 25.3535V25ZM28 29.25C27.6548 29.25 27.3423 29.1101 27.1161 28.8839C26.8899 28.6577 26.75 28.3452 26.75 28C26.75 27.3096 27.3096 26.75 28 26.75C28.6904 26.75 29.25 27.3096 29.25 28C29.25 28.3452 29.1101 28.6577 28.8839 28.8839C28.6577 29.1101 28.3452 29.25 28 29.25Z" fill="#5F5F6A"/>
<path d="M30.633 18.25H25.367C24.2749 18.25 23.4094 18.25 22.7117 18.307C21.9983 18.3653 21.3947 18.4869 20.8435 18.7677C19.9498 19.2231 19.2231 19.9498 18.7677 20.8435C18.4869 21.3947 18.3653 21.9983 18.307 22.7117C18.25 23.4094 18.25 24.2748 18.25 25.367V30.633C18.25 31.7251 18.25 32.5906 18.307 33.2883C18.3653 34.0017 18.4869 34.6053 18.7677 35.1565C19.2231 36.0502 19.9498 36.7769 20.8435 37.2323C21.3947 37.5131 21.9983 37.6347 22.7117 37.693C23.4094 37.75 24.2748 37.75 25.367 37.75H30.633C31.7252 37.75 32.5906 37.75 33.2883 37.693C34.0017 37.6347 34.6053 37.5131 35.1565 37.2323C36.0502 36.7769 36.7769 36.0502 37.2323 35.1565C37.5131 34.6053 37.6347 34.0017 37.693 33.2883C37.75 32.5906 37.75 31.7252 37.75 30.633V25.367C37.75 24.2748 37.75 23.4094 37.693 22.7117C37.6347 21.9983 37.5131 21.3947 37.2323 20.8435C36.7769 19.9498 36.0502 19.2231 35.1565 18.7677C34.6053 18.4869 34.0017 18.3653 33.2883 18.307C32.5906 18.25 31.7251 18.25 30.633 18.25ZM21.5245 20.1042C21.829 19.9491 22.2133 19.8527 22.8339 19.802C23.4633 19.7506 24.2675 19.75 25.4 19.75H30.6C31.7325 19.75 32.5367 19.7506 33.1661 19.802C33.7867 19.8527 34.171 19.9491 34.4755 20.1042C35.087 20.4158 35.5842 20.913 35.8958 21.5245C36.0509 21.829 36.1473 22.2133 36.198 22.8339C36.2494 23.4633 36.25 24.2675 36.25 25.4V30.6C36.25 31.7325 36.2494 32.5367 36.198 33.1661C36.1473 33.7867 36.0509 34.171 35.8958 34.4755C35.5842 35.087 35.087 35.5842 34.4755 35.8958C34.171 36.0509 33.7867 36.1473 33.1661 36.198C32.5367 36.2494 31.7325 36.25 30.6 36.25H25.4C24.2675 36.25 23.4633 36.2494 22.8339 36.198C22.2133 36.1473 21.829 36.0509 21.5245 35.8958C20.913 35.5842 20.4158 35.087 20.1042 34.4755C19.9491 34.171 19.8527 33.7867 19.802 33.1661C19.7506 32.5367 19.75 31.7325 19.75 30.6V25.4C19.75 24.2675 19.7506 23.4633 19.802 22.8339C19.8527 22.2133 19.9491 21.829 20.1042 21.5245C20.4158 20.913 20.913 20.4158 21.5245 20.1042Z" fill="#5F5F6A"/>
<g opacity="0.5">
<path d="M22.25 28C22.25 24.8244 24.8244 22.25 28 22.25C31.1756 22.25 33.75 24.8244 33.75 28C33.75 31.1756 31.1756 33.75 28 33.75C24.8244 33.75 22.25 31.1756 22.25 28ZM28 23.75C25.6528 23.75 23.75 25.6528 23.75 28C23.75 30.3472 25.6528 32.25 28 32.25C30.3472 32.25 32.25 30.3472 32.25 28C32.25 25.6528 30.3472 23.75 28 23.75Z" fill="#5F5F6A"/>
<path d="M19 22.5C19.8284 22.5 20.5 23.1716 20.5 24L20.5 25.5C20.5 26.3284 19.8284 27 19 27C18.1716 27 17.5 26.3284 17.5 25.5V24C17.5 23.1716 18.1716 22.5 19 22.5Z" fill="#5F5F6A"/>
<path d="M20.5 30.5C20.5 29.6716 19.8284 29 19 29C18.1716 29 17.5 29.6716 17.5 30.5V32C17.5 32.8284 18.1716 33.5 19 33.5C19.8284 33.5 20.5 32.8284 20.5 32L20.5 30.5Z" fill="#5F5F6A"/>
</g>
<path d="M28 80.25C28.4142 80.25 28.75 80.5858 28.75 81V81.3535C28.9632 81.4138 29.1658 81.4992 29.3545 81.6062C29.6457 81.4135 30.0416 81.4455 30.2981 81.7019C30.5545 81.9584 30.5865 82.3543 30.3938 82.6455C30.5008 82.8342 30.5862 83.0368 30.6465 83.25H31C31.4142 83.25 31.75 83.5858 31.75 84C31.75 84.4142 31.4142 84.75 31 84.75H30.6465C30.5862 84.9632 30.5008 85.1658 30.3938 85.3545C30.5865 85.6457 30.5545 86.0416 30.2981 86.2981C30.0416 86.5545 29.6457 86.5865 29.3545 86.3938C29.1658 86.5008 28.9632 86.5862 28.75 86.6465V87C28.75 87.4142 28.4142 87.75 28 87.75C27.5858 87.75 27.25 87.4142 27.25 87V86.6465C27.0368 86.5862 26.8342 86.5008 26.6455 86.3938C26.3543 86.5865 25.9584 86.5545 25.7019 86.2981C25.4455 86.0416 25.4135 85.6457 25.6062 85.3545C25.4992 85.1658 25.4138 84.9632 25.3535 84.75H25C24.5858 84.75 24.25 84.4142 24.25 84C24.25 83.5858 24.5858 83.25 25 83.25H25.3535C25.4138 83.0368 25.4992 82.8342 25.6062 82.6455C25.4135 82.3543 25.4455 81.9584 25.7019 81.7019C25.9584 81.4455 26.3543 81.4135 26.6455 81.6062C26.8342 81.4992 27.0368 81.4138 27.25 81.3535V81C27.25 80.5858 27.5858 80.25 28 80.25ZM27.1161 84.8839C27.3423 85.1101 27.6548 85.25 28 85.25C28.3452 85.25 28.6577 85.1101 28.8839 84.8839C29.1101 84.6577 29.25 84.3452 29.25 84C29.25 83.3096 28.6904 82.75 28 82.75C27.3096 82.75 26.75 83.3096 26.75 84C26.75 84.3452 26.8899 84.6577 27.1161 84.8839Z" fill="#5F5F6A"/>
<path d="M22.25 84C22.25 80.8244 24.8244 78.25 28 78.25C31.1756 78.25 33.75 80.8244 33.75 84C33.75 87.1756 31.1756 89.75 28 89.75C24.8244 89.75 22.25 87.1756 22.25 84ZM28 79.75C25.6528 79.75 23.75 81.6528 23.75 84C23.75 86.3472 25.6528 88.25 28 88.25C30.3472 88.25 32.25 86.3472 32.25 84C32.25 81.6528 30.3472 79.75 28 79.75Z" fill="#5F5F6A"/>
<path d="M30.633 74.25H25.367C24.2749 74.25 23.4094 74.25 22.7117 74.307C21.9983 74.3653 21.3947 74.4869 20.8435 74.7677C19.9498 75.2231 19.2231 75.9498 18.7677 76.8435C18.4927 77.3833 18.3704 77.9733 18.3107 78.6674C17.8291 78.917 17.5 79.4201 17.5 80V81.5C17.5 82.0552 17.8016 82.54 18.25 82.7993V85.2007C17.8016 85.46 17.5 85.9448 17.5 86.5V88C17.5 88.5799 17.8291 89.083 18.3107 89.3326C18.3704 90.0267 18.4927 90.6167 18.7677 91.1565C19.2231 92.0502 19.9498 92.7769 20.8435 93.2323C21.3947 93.5131 21.9983 93.6347 22.7117 93.693C23.4094 93.75 24.2748 93.75 25.367 93.75H30.633C31.7252 93.75 32.5906 93.75 33.2883 93.693C34.0017 93.6347 34.6053 93.5131 35.1565 93.2323C36.0502 92.7769 36.7769 92.0502 37.2323 91.1565C37.5131 90.6053 37.6347 90.0017 37.693 89.2883C37.75 88.5906 37.75 87.7252 37.75 86.633V81.367C37.75 80.2748 37.75 79.4094 37.693 78.7117C37.6347 77.9983 37.5131 77.3947 37.2323 76.8435C36.7769 75.9498 36.0502 75.2231 35.1565 74.7677C34.6053 74.4869 34.0017 74.3653 33.2883 74.307C32.5906 74.25 31.7251 74.25 30.633 74.25ZM19.8104 89.2624C20.2252 88.9956 20.5 88.5299 20.5 88L20.5 86.5C20.5 85.9448 20.1984 85.46 19.75 85.2007V82.7993C20.1984 82.54 20.5 82.0552 20.5 81.5L20.5 80C20.5 79.4701 20.2252 79.0044 19.8104 78.7376C19.8631 78.1729 19.9573 77.8129 20.1042 77.5245C20.4158 76.913 20.913 76.4158 21.5245 76.1042C21.829 75.9491 22.2133 75.8527 22.8339 75.802C23.4633 75.7506 24.2675 75.75 25.4 75.75H30.6C31.7325 75.75 32.5367 75.7506 33.1661 75.802C33.7867 75.8527 34.171 75.9491 34.4755 76.1042C35.087 76.4158 35.5842 76.913 35.8958 77.5245C36.0509 77.829 36.1473 78.2133 36.198 78.8339C36.2494 79.4633 36.25 80.2675 36.25 81.4V86.6C36.25 87.7325 36.2494 88.5367 36.198 89.1661C36.1473 89.7867 36.0509 90.171 35.8958 90.4755C35.5842 91.087 35.087 91.5842 34.4755 91.8958C34.171 92.0509 33.7867 92.1473 33.1661 92.198C32.5367 92.2494 31.7325 92.25 30.6 92.25H25.4C24.2675 92.25 23.4633 92.2494 22.8339 92.198C22.2133 92.1473 21.829 92.0509 21.5245 91.8958C20.913 91.5842 20.4158 91.087 20.1042 90.4755C19.9573 90.1871 19.8631 89.8271 19.8104 89.2624Z" fill="#5F5F6A"/>
<path d="M28 136.25C28.4142 136.25 28.75 136.586 28.75 137V137.354C28.9632 137.414 29.1658 137.499 29.3545 137.606C29.6457 137.414 30.0416 137.445 30.2981 137.702C30.5545 137.958 30.5865 138.354 30.3938 138.645C30.5008 138.834 30.5862 139.037 30.6465 139.25H31C31.4142 139.25 31.75 139.586 31.75 140C31.75 140.414 31.4142 140.75 31 140.75H30.6465C30.5862 140.963 30.5008 141.166 30.3938 141.355C30.5865 141.646 30.5545 142.042 30.2981 142.298C30.0416 142.555 29.6457 142.586 29.3545 142.394C29.1658 142.501 28.9632 142.586 28.75 142.646V143C28.75 143.414 28.4142 143.75 28 143.75C27.5858 143.75 27.25 143.414 27.25 143V142.646C27.0368 142.586 26.8342 142.501 26.6455 142.394C26.3543 142.586 25.9584 142.555 25.7019 142.298C25.4455 142.042 25.4135 141.646 25.6062 141.355C25.4992 141.166 25.4138 140.963 25.3535 140.75H25C24.5858 140.75 24.25 140.414 24.25 140C24.25 139.586 24.5858 139.25 25 139.25H25.3535C25.4138 139.037 25.4992 138.834 25.6062 138.645C25.4135 138.354 25.4455 137.958 25.7019 137.702C25.9584 137.445 26.3543 137.414 26.6455 137.606C26.8342 137.499 27.0368 137.414 27.25 137.354V137C27.25 136.586 27.5858 136.25 28 136.25ZM27.1161 140.884C27.3423 141.11 27.6548 141.25 28 141.25C28.3452 141.25 28.6577 141.11 28.8839 140.884C29.1101 140.658 29.25 140.345 29.25 140C29.25 139.31 28.6904 138.75 28 138.75C27.3096 138.75 26.75 139.31 26.75 140C26.75 140.345 26.8899 140.658 27.1161 140.884Z" fill="#5F5F6A"/>
<path d="M22.5 140C22.5 136.962 24.9624 134.5 28 134.5C31.0376 134.5 33.5 136.962 33.5 140C33.5 143.038 31.0376 145.5 28 145.5C24.9624 145.5 22.5 143.038 22.5 140ZM28 135.5C25.5147 135.5 23.5 137.515 23.5 140C23.5 142.485 25.5147 144.5 28 144.5C30.4853 144.5 32.5 142.485 32.5 140C32.5 137.515 30.4853 135.5 28 135.5Z" fill="#5F5F6A"/>
<path d="M30.6226 130.5H25.3774C24.2764 130.5 23.4195 130.5 22.7321 130.556C22.0342 130.613 21.4671 130.731 20.957 130.99C20.1103 131.422 19.4219 132.11 18.9905 132.957C18.7306 133.467 18.6132 134.034 18.5562 134.732C18.5461 134.855 18.5379 134.983 18.5311 135.116C18.2152 135.285 18 135.617 18 136V137.5C18 137.87 18.2011 138.193 18.5 138.366V141.634C18.2011 141.807 18 142.13 18 142.5V144C18 144.383 18.2152 144.715 18.5311 144.883C18.5379 145.017 18.5461 145.145 18.5562 145.268C18.6132 145.966 18.7306 146.533 18.9905 147.043C19.4219 147.89 20.1103 148.578 20.957 149.01C21.4671 149.269 22.0342 149.387 22.7321 149.444C23.4195 149.5 24.2764 149.5 25.3773 149.5H30.6226C31.7236 149.5 32.5805 149.5 33.2679 149.444C33.9658 149.387 34.5329 149.269 35.043 149.01C35.8897 148.578 36.5781 147.89 37.0095 147.043C37.2694 146.533 37.3868 145.966 37.4438 145.268C37.5 144.581 37.5 143.724 37.5 142.623V137.377C37.5 136.276 37.5 135.419 37.4438 134.732C37.3868 134.034 37.2694 133.467 37.0095 132.957C36.5781 132.11 35.8897 131.422 35.043 130.99C34.5329 130.731 33.9658 130.613 33.2679 130.556C32.5805 130.5 31.7236 130.5 30.6226 130.5ZM19.5306 144.848C19.8125 144.671 20 144.357 20 144L20 142.5C20 142.13 19.7989 141.807 19.5 141.634V138.366C19.7989 138.193 20 137.87 20 137.5L20 136C20 135.643 19.8125 135.329 19.5306 135.152C19.5367 135.034 19.544 134.921 19.5528 134.814C19.6048 134.177 19.7054 133.757 19.8815 133.411C20.217 132.752 20.7525 132.217 21.411 131.881C21.7566 131.705 22.1774 131.605 22.8135 131.553C23.4554 131.5 24.2716 131.5 25.4 131.5H30.6C31.7284 131.5 32.5446 131.5 33.1865 131.553C33.8226 131.605 34.2434 131.705 34.589 131.881C35.2475 132.217 35.783 132.752 36.1185 133.411C36.2946 133.757 36.3952 134.177 36.4472 134.814C36.4996 135.455 36.5 136.272 36.5 137.4V142.6C36.5 143.728 36.4996 144.545 36.4472 145.186C36.3952 145.823 36.2946 146.243 36.1185 146.589C35.783 147.248 35.2475 147.783 34.589 148.119C34.2434 148.295 33.8226 148.395 33.1865 148.447C32.5446 148.5 31.7284 148.5 30.6 148.5H25.4C24.2716 148.5 23.4554 148.5 22.8135 148.447C22.1774 148.395 21.7566 148.295 21.411 148.119C20.7525 147.783 20.217 147.248 19.8815 146.589C19.7054 146.243 19.6048 145.823 19.5528 145.186C19.544 145.079 19.5367 144.966 19.5306 144.848Z" fill="#5F5F6A"/>
</svg>
