<svg width="56" height="168" viewBox="0 0 56 168" fill="none" xmlns="http://www.w3.org/2000/svg">
<path d="M29.0006 20C29.0006 19.4477 28.5529 19 28.0006 19C27.4484 19 27.0006 19.4477 27.0006 20V24.083C24.1629 24.559 22.0006 27.027 22.0006 30V32.25H21.1663C20.8436 32.25 20.6537 32.6125 20.8375 32.8778L22.6718 35.5254C22.8309 35.755 23.1704 35.755 23.3294 35.5254L25.1638 32.8778C25.3476 32.6125 25.1577 32.25 24.835 32.25H24.0006V30C24.0006 27.7909 25.7915 26 28.0006 26C30.2098 26 32.0006 27.7909 32.0006 30V32.25H31.1663C30.8436 32.25 30.6537 32.6125 30.8375 32.8778L32.6718 35.5254C32.8309 35.755 33.1704 35.755 33.3294 35.5254L35.1638 32.8778C35.3476 32.6125 35.1577 32.25 34.835 32.25H34.0006V30C34.0006 27.027 31.8384 24.559 29.0006 24.083V20Z" fill="#5F5F6A"/>
<path d="M22.6718 91.5254C22.8309 91.755 23.1704 91.755 23.3294 91.5254L25.1638 88.8778C25.3476 88.6125 25.1577 88.25 24.835 88.25H21.1663C20.8436 88.25 20.6537 88.6125 20.8375 88.8778L22.6718 91.5254Z" fill="#5F5F6A"/>
<path d="M32.6718 91.5254C32.8309 91.755 33.1704 91.755 33.3294 91.5254L35.1638 88.8778C35.3476 88.6125 35.1577 88.25 34.835 88.25H31.1663C30.8436 88.25 30.6537 88.6125 30.8375 88.8778L32.6718 91.5254Z" fill="#5F5F6A"/>
<path opacity="0.5" d="M29 76C29 75.4477 28.5523 75 28 75C27.4477 75 27 75.4477 27 76L27 80.083C24.1623 80.559 22 83.027 22 86V89H24V86C24 83.7909 25.7909 82 28 82C30.2091 82 32 83.7909 32 86V89H34V86C34 83.027 31.8377 80.559 29 80.083L29 76Z" fill="#5F5F6A"/>
<path d="M28.7506 132C28.7506 131.586 28.4149 131.25 28.0006 131.25C27.5864 131.25 27.2506 131.586 27.2506 132V136.298C24.4294 136.666 22.2506 139.079 22.2506 142V144.25H21.1663C20.8436 144.25 20.6537 144.613 20.8375 144.878L22.6718 147.525C22.8309 147.755 23.1704 147.755 23.3294 147.525L25.1638 144.878C25.3476 144.613 25.1577 144.25 24.835 144.25H23.7506V142C23.7506 139.653 25.6534 137.75 28.0006 137.75C30.3479 137.75 32.2506 139.653 32.2506 142V144.25H31.1663C30.8436 144.25 30.6537 144.613 30.8375 144.878L32.6718 147.525C32.8309 147.755 33.1704 147.755 33.3294 147.525L35.1638 144.878C35.3476 144.613 35.1577 144.25 34.835 144.25H33.7506V142C33.7506 139.079 31.5719 136.666 28.7506 136.298V132Z" fill="#5F5F6A"/>
</svg>
